%TF.GenerationSoftware,Altium Limited,Altium Designer,25.2.1 (25)*%
G04 Layer_Color=65280*
%FSLAX43Y43*%
%MOMM*%
%TF.SameCoordinates,5F0F979B-F61C-4F37-A4CB-55E86594FD38*%
%TF.FilePolarity,Positive*%
%TF.FileFunction,Other,Poly_Planning*%
%TF.Part,Single*%
G01*
G75*
%TA.AperFunction,NonConductor*%
%ADD45C,0.100*%
D45*
X2250Y23750D02*
Y26337D01*
Y26337D02*
X6750D01*
X83000Y57500D02*
X90000D01*
Y33000D02*
Y57500D01*
X83000Y33000D02*
Y57500D01*
X90000Y5000D02*
Y33000D01*
X64500D02*
X83000D01*
X64500Y5000D02*
Y33000D01*
Y5000D02*
X90000D01*
X17750Y32250D02*
Y44000D01*
X1250D02*
X17750D01*
X1250D02*
Y57500D01*
X49250D01*
Y10750D02*
Y57500D01*
X27000Y10750D02*
X49250D01*
X27000D02*
Y32250D01*
X17750D02*
X27000D01*
X16250Y92000D02*
X57000D01*
Y97000D01*
X16250D02*
X57000D01*
X16250Y92000D02*
Y97000D01*
X24000Y61000D02*
X75000D01*
X24000Y67500D02*
X75000D01*
X24000Y61000D02*
Y67500D01*
X75000Y61000D02*
Y67500D01*
X90000Y97500D02*
X90000Y97500D01*
X2250Y22750D02*
X22000D01*
X26250Y10000D02*
Y31750D01*
Y10000D02*
X54000D01*
Y34000D01*
X50000D02*
X54000D01*
X22000Y5000D02*
Y22750D01*
Y5000D02*
X63500D01*
Y34000D01*
X50000D02*
Y57500D01*
X63500Y34000D02*
X82000D01*
Y57500D01*
X50000D02*
X82000D01*
X1250Y43500D02*
X17000D01*
X1250Y32250D02*
X17000D01*
Y43500D01*
X1250Y32250D02*
Y43500D01*
X6750Y26337D02*
Y31750D01*
X26250D01*
X2250Y22750D02*
Y23750D01*
X20500Y12500D02*
Y16750D01*
Y20250D01*
Y22000D01*
X2250Y19413D02*
Y22000D01*
X20500Y22000D01*
X9000Y12500D02*
X20500D01*
X9000D02*
Y19413D01*
X2250D02*
X9000D01*
%TF.MD5,cd7bf2af8221e323cdc7d0c773f23256*%
M02*
