%TF.GenerationSoftware,Altium Limited,Altium Designer,25.2.1 (25)*%
G04 Layer_Color=6740479*
%FSLAX43Y43*%
%MOMM*%
%TF.SameCoordinates,5F0F979B-F61C-4F37-A4CB-55E86594FD38*%
%TF.FilePolarity,Positive*%
%TF.FileFunction,Legend,Bot*%
%TF.Part,Single*%
G01*
G75*
%TA.AperFunction,NonConductor*%
%ADD19C,0.300*%
%ADD44C,0.200*%
%ADD45C,0.100*%
%ADD48C,0.254*%
%ADD49C,0.250*%
G36*
X65209Y55077D02*
X65316D01*
Y55069D01*
X65374D01*
Y55060D01*
X65432D01*
Y55052D01*
X65473D01*
Y55044D01*
X65523D01*
Y55036D01*
X65539D01*
Y55027D01*
X65581D01*
Y55019D01*
X65614D01*
Y55011D01*
X65639D01*
Y55002D01*
X65672D01*
Y54994D01*
X65688D01*
Y54986D01*
X65713D01*
Y54978D01*
X65738D01*
Y54969D01*
X65755D01*
Y54961D01*
X65779D01*
Y54953D01*
X65796D01*
Y54944D01*
X65829D01*
Y54936D01*
X65837D01*
Y54928D01*
X65862D01*
Y54920D01*
X65870D01*
Y54911D01*
X65887D01*
Y54903D01*
X65912D01*
Y54895D01*
X65920D01*
Y54887D01*
X65945D01*
Y54878D01*
X65962D01*
Y54870D01*
X65978D01*
Y54862D01*
X65986D01*
Y54853D01*
X66003D01*
Y54845D01*
X66019D01*
Y54837D01*
X66028D01*
Y54829D01*
X66044D01*
Y54820D01*
X66061D01*
Y54812D01*
X66069D01*
Y54804D01*
X66086D01*
Y54796D01*
X66094D01*
Y54787D01*
X66110D01*
Y54779D01*
X66119D01*
Y54771D01*
X66135D01*
Y54762D01*
X66144D01*
Y54754D01*
X66152D01*
Y54746D01*
X66168D01*
Y54738D01*
X66177D01*
Y54729D01*
X66193D01*
Y54721D01*
X66201D01*
Y54713D01*
X66210D01*
Y54705D01*
X66226D01*
Y54696D01*
X66235D01*
Y54688D01*
X66243D01*
Y54680D01*
X66251D01*
Y54671D01*
X66259D01*
Y54663D01*
X66276D01*
Y54647D01*
X66292D01*
Y54638D01*
X66301D01*
Y54630D01*
X66309D01*
Y54622D01*
X66317D01*
Y54614D01*
X66326D01*
Y54605D01*
X66334D01*
Y54597D01*
X66342D01*
Y54589D01*
X66359D01*
Y54572D01*
X66375D01*
Y54556D01*
X66383D01*
Y54547D01*
X66392D01*
Y54539D01*
X66400D01*
Y54531D01*
X66408D01*
Y54522D01*
X66417D01*
Y54514D01*
X66425D01*
Y54506D01*
X66433D01*
Y54498D01*
X66441D01*
Y54489D01*
X66450D01*
Y54481D01*
X66458D01*
Y54465D01*
X66466D01*
Y54456D01*
X66475D01*
Y54448D01*
X66483D01*
Y54440D01*
X66491D01*
Y54431D01*
X66499D01*
Y54415D01*
X66508D01*
Y54407D01*
X66516D01*
Y54398D01*
X66524D01*
Y54390D01*
X66532D01*
Y54374D01*
X66541D01*
Y54365D01*
X66549D01*
Y54349D01*
X66557D01*
Y54340D01*
X66566D01*
Y54332D01*
X66574D01*
Y54316D01*
X66582D01*
Y54307D01*
X66590D01*
Y54291D01*
X66599D01*
Y54283D01*
X66607D01*
Y54274D01*
X66615D01*
Y54249D01*
X66623D01*
Y54241D01*
X66632D01*
Y54225D01*
X66640D01*
Y54216D01*
X66648D01*
Y54200D01*
X66657D01*
Y54183D01*
X66665D01*
Y54175D01*
X66673D01*
Y54158D01*
X66681D01*
Y54142D01*
X66690D01*
Y54125D01*
X66698D01*
Y54100D01*
X66706D01*
Y54092D01*
X66714D01*
Y54067D01*
X66723D01*
Y54059D01*
X66731D01*
Y54034D01*
X66739D01*
Y54018D01*
X66748D01*
Y54001D01*
X66756D01*
Y53976D01*
X66764D01*
Y53960D01*
X66772D01*
Y53927D01*
X66781D01*
Y53910D01*
X66789D01*
Y53885D01*
X66797D01*
Y53861D01*
X66806D01*
Y53844D01*
X66814D01*
Y53803D01*
X66822D01*
Y53778D01*
X66830D01*
Y53736D01*
X66839D01*
Y53712D01*
X66847D01*
Y53678D01*
X66855D01*
Y53621D01*
X66863D01*
Y53579D01*
X66872D01*
Y53505D01*
X66880D01*
Y53397D01*
X66888D01*
Y46604D01*
X66880D01*
Y46496D01*
X66872D01*
Y46422D01*
X66863D01*
Y46380D01*
X66855D01*
Y46322D01*
X66847D01*
Y46289D01*
X66839D01*
Y46264D01*
X66830D01*
Y46223D01*
X66822D01*
Y46198D01*
X66814D01*
Y46157D01*
X66806D01*
Y46140D01*
X66797D01*
Y46116D01*
X66789D01*
Y46091D01*
X66781D01*
Y46074D01*
X66772D01*
Y46041D01*
X66764D01*
Y46025D01*
X66756D01*
Y46000D01*
X66748D01*
Y45983D01*
X66739D01*
Y45967D01*
X66731D01*
Y45942D01*
X66723D01*
Y45934D01*
X66714D01*
Y45909D01*
X66706D01*
Y45900D01*
X66698D01*
Y45876D01*
X66690D01*
Y45859D01*
X66681D01*
Y45842D01*
X66673D01*
Y45826D01*
X66665D01*
Y45818D01*
X66657D01*
Y45801D01*
X66648D01*
Y45785D01*
X66640D01*
Y45776D01*
X66632D01*
Y45760D01*
X66623D01*
Y45751D01*
X66615D01*
Y45727D01*
X66607D01*
Y45718D01*
X66599D01*
Y45710D01*
X66590D01*
Y45694D01*
X66582D01*
Y45685D01*
X66574D01*
Y45669D01*
X66566D01*
Y45660D01*
X66557D01*
Y45652D01*
X66549D01*
Y45636D01*
X66541D01*
Y45627D01*
X66532D01*
Y45611D01*
X66524D01*
Y45603D01*
X66516D01*
Y45594D01*
X66508D01*
Y45586D01*
X66499D01*
Y45569D01*
X66491D01*
Y45561D01*
X66483D01*
Y45553D01*
X66475D01*
Y45545D01*
X66466D01*
Y45536D01*
X66458D01*
Y45520D01*
X66450D01*
Y45512D01*
X66441D01*
Y45503D01*
X66433D01*
Y45495D01*
X66425D01*
Y45487D01*
X66417D01*
Y45478D01*
X66408D01*
Y45470D01*
X66400D01*
Y45462D01*
X66392D01*
Y45454D01*
X66383D01*
Y45445D01*
X66375D01*
Y45429D01*
X66359D01*
Y45412D01*
X66342D01*
Y45404D01*
X66334D01*
Y45396D01*
X66326D01*
Y45387D01*
X66317D01*
Y45379D01*
X66309D01*
Y45371D01*
X66301D01*
Y45363D01*
X66292D01*
Y45354D01*
X66276D01*
Y45338D01*
X66259D01*
Y45329D01*
X66251D01*
Y45321D01*
X66243D01*
Y45313D01*
X66235D01*
Y45305D01*
X66226D01*
Y45296D01*
X66210D01*
Y45288D01*
X66201D01*
Y45280D01*
X66193D01*
Y45272D01*
X66177D01*
Y45263D01*
X66168D01*
Y45255D01*
X66152D01*
Y45247D01*
X66144D01*
Y45238D01*
X66135D01*
Y45230D01*
X66119D01*
Y45222D01*
X66110D01*
Y45214D01*
X66094D01*
Y45205D01*
X66086D01*
Y45197D01*
X66069D01*
Y45189D01*
X66061D01*
Y45181D01*
X66044D01*
Y45172D01*
X66028D01*
Y45164D01*
X66019D01*
Y45156D01*
X66003D01*
Y45147D01*
X65986D01*
Y45139D01*
X65978D01*
Y45131D01*
X65962D01*
Y45123D01*
X65945D01*
Y45114D01*
X65920D01*
Y45106D01*
X65912D01*
Y45098D01*
X65887D01*
Y45090D01*
X65870D01*
Y45081D01*
X65862D01*
Y45073D01*
X65837D01*
Y45065D01*
X65829D01*
Y45056D01*
X65796D01*
Y45048D01*
X65779D01*
Y45040D01*
X65755D01*
Y45032D01*
X65738D01*
Y45023D01*
X65713D01*
Y45015D01*
X65688D01*
Y45007D01*
X65672D01*
Y44998D01*
X65639D01*
Y44990D01*
X65614D01*
Y44982D01*
X65581D01*
Y44974D01*
X65539D01*
Y44965D01*
X65523D01*
Y44957D01*
X65473D01*
Y44949D01*
X65432D01*
Y44941D01*
X65374D01*
Y44932D01*
X65316D01*
Y44924D01*
X65209D01*
Y44916D01*
X55271D01*
Y44924D01*
X55163D01*
Y44932D01*
X55105D01*
Y44941D01*
X55047D01*
Y44949D01*
X55006D01*
Y44957D01*
X54956D01*
Y44965D01*
X54940D01*
Y44974D01*
X54898D01*
Y44982D01*
X54865D01*
Y44990D01*
X54840D01*
Y44998D01*
X54807D01*
Y45007D01*
X54791D01*
Y45015D01*
X54766D01*
Y45023D01*
X54741D01*
Y45032D01*
X54725D01*
Y45040D01*
X54700D01*
Y45048D01*
X54683D01*
Y45056D01*
X54650D01*
Y45065D01*
X54642D01*
Y45073D01*
X54617D01*
Y45081D01*
X54609D01*
Y45090D01*
X54592D01*
Y45098D01*
X54567D01*
Y45106D01*
X54559D01*
Y45114D01*
X54534D01*
Y45123D01*
X54518D01*
Y45131D01*
X54501D01*
Y45139D01*
X54493D01*
Y45147D01*
X54476D01*
Y45156D01*
X54460D01*
Y45164D01*
X54452D01*
Y45172D01*
X54435D01*
Y45181D01*
X54418D01*
Y45189D01*
X54410D01*
Y45197D01*
X54394D01*
Y45205D01*
X54385D01*
Y45214D01*
X54369D01*
Y45222D01*
X54361D01*
Y45230D01*
X54344D01*
Y45238D01*
X54336D01*
Y45247D01*
X54327D01*
Y45255D01*
X54311D01*
Y45263D01*
X54303D01*
Y45272D01*
X54286D01*
Y45280D01*
X54278D01*
Y45288D01*
X54270D01*
Y45296D01*
X54253D01*
Y45305D01*
X54245D01*
Y45313D01*
X54236D01*
Y45321D01*
X54228D01*
Y45329D01*
X54220D01*
Y45338D01*
X54203D01*
Y45354D01*
X54187D01*
Y45363D01*
X54179D01*
Y45371D01*
X54170D01*
Y45379D01*
X54162D01*
Y45387D01*
X54154D01*
Y45396D01*
X54145D01*
Y45404D01*
X54137D01*
Y45412D01*
X54121D01*
Y45429D01*
X54104D01*
Y45445D01*
X54096D01*
Y45454D01*
X54088D01*
Y45462D01*
X54079D01*
Y45470D01*
X54071D01*
Y45478D01*
X54063D01*
Y45487D01*
X54054D01*
Y45495D01*
X54046D01*
Y45503D01*
X54038D01*
Y45512D01*
X54030D01*
Y45520D01*
X54021D01*
Y45536D01*
X54013D01*
Y45545D01*
X54005D01*
Y45553D01*
X53996D01*
Y45561D01*
X53988D01*
Y45569D01*
X53980D01*
Y45586D01*
X53972D01*
Y45594D01*
X53963D01*
Y45603D01*
X53955D01*
Y45611D01*
X53947D01*
Y45627D01*
X53939D01*
Y45636D01*
X53930D01*
Y45652D01*
X53922D01*
Y45660D01*
X53914D01*
Y45669D01*
X53905D01*
Y45685D01*
X53897D01*
Y45694D01*
X53889D01*
Y45710D01*
X53881D01*
Y45718D01*
X53872D01*
Y45727D01*
X53864D01*
Y45751D01*
X53856D01*
Y45760D01*
X53848D01*
Y45776D01*
X53839D01*
Y45785D01*
X53831D01*
Y45801D01*
X53823D01*
Y45818D01*
X53814D01*
Y45826D01*
X53806D01*
Y45842D01*
X53798D01*
Y45859D01*
X53790D01*
Y45876D01*
X53781D01*
Y45900D01*
X53773D01*
Y45909D01*
X53765D01*
Y45934D01*
X53757D01*
Y45942D01*
X53748D01*
Y45967D01*
X53740D01*
Y45983D01*
X53732D01*
Y46000D01*
X53723D01*
Y46025D01*
X53715D01*
Y46041D01*
X53707D01*
Y46074D01*
X53699D01*
Y46091D01*
X53690D01*
Y46116D01*
X53682D01*
Y46140D01*
X53674D01*
Y46157D01*
X53666D01*
Y46198D01*
X53657D01*
Y46223D01*
X53649D01*
Y46264D01*
X53641D01*
Y46289D01*
X53632D01*
Y46322D01*
X53624D01*
Y46380D01*
X53616D01*
Y46422D01*
X53608D01*
Y46496D01*
X53599D01*
Y46604D01*
X53591D01*
Y53397D01*
X53599D01*
Y53505D01*
X53608D01*
Y53579D01*
X53616D01*
Y53621D01*
X53624D01*
Y53678D01*
X53632D01*
Y53712D01*
X53641D01*
Y53736D01*
X53649D01*
Y53778D01*
X53657D01*
Y53803D01*
X53666D01*
Y53844D01*
X53674D01*
Y53861D01*
X53682D01*
Y53885D01*
X53690D01*
Y53910D01*
X53699D01*
Y53927D01*
X53707D01*
Y53960D01*
X53715D01*
Y53976D01*
X53723D01*
Y54001D01*
X53732D01*
Y54018D01*
X53740D01*
Y54034D01*
X53748D01*
Y54059D01*
X53757D01*
Y54067D01*
X53765D01*
Y54092D01*
X53773D01*
Y54100D01*
X53781D01*
Y54125D01*
X53790D01*
Y54142D01*
X53798D01*
Y54158D01*
X53806D01*
Y54175D01*
X53814D01*
Y54183D01*
X53823D01*
Y54200D01*
X53831D01*
Y54216D01*
X53839D01*
Y54225D01*
X53848D01*
Y54241D01*
X53856D01*
Y54249D01*
X53864D01*
Y54274D01*
X53872D01*
Y54283D01*
X53881D01*
Y54291D01*
X53889D01*
Y54307D01*
X53897D01*
Y54316D01*
X53905D01*
Y54332D01*
X53914D01*
Y54340D01*
X53922D01*
Y54349D01*
X53930D01*
Y54365D01*
X53939D01*
Y54374D01*
X53947D01*
Y54390D01*
X53955D01*
Y54398D01*
X53963D01*
Y54407D01*
X53972D01*
Y54415D01*
X53980D01*
Y54431D01*
X53988D01*
Y54440D01*
X53996D01*
Y54448D01*
X54005D01*
Y54456D01*
X54013D01*
Y54465D01*
X54021D01*
Y54481D01*
X54030D01*
Y54489D01*
X54038D01*
Y54498D01*
X54046D01*
Y54506D01*
X54054D01*
Y54514D01*
X54063D01*
Y54522D01*
X54071D01*
Y54531D01*
X54079D01*
Y54539D01*
X54088D01*
Y54547D01*
X54096D01*
Y54556D01*
X54104D01*
Y54572D01*
X54121D01*
Y54589D01*
X54137D01*
Y54597D01*
X54145D01*
Y54605D01*
X54154D01*
Y54614D01*
X54162D01*
Y54622D01*
X54170D01*
Y54630D01*
X54179D01*
Y54638D01*
X54187D01*
Y54647D01*
X54203D01*
Y54663D01*
X54220D01*
Y54671D01*
X54228D01*
Y54680D01*
X54236D01*
Y54688D01*
X54245D01*
Y54696D01*
X54253D01*
Y54705D01*
X54270D01*
Y54713D01*
X54278D01*
Y54721D01*
X54286D01*
Y54729D01*
X54303D01*
Y54738D01*
X54311D01*
Y54746D01*
X54327D01*
Y54754D01*
X54336D01*
Y54762D01*
X54344D01*
Y54771D01*
X54361D01*
Y54779D01*
X54369D01*
Y54787D01*
X54385D01*
Y54796D01*
X54394D01*
Y54804D01*
X54410D01*
Y54812D01*
X54418D01*
Y54820D01*
X54435D01*
Y54829D01*
X54452D01*
Y54837D01*
X54460D01*
Y54845D01*
X54476D01*
Y54853D01*
X54493D01*
Y54862D01*
X54501D01*
Y54870D01*
X54518D01*
Y54878D01*
X54534D01*
Y54887D01*
X54559D01*
Y54895D01*
X54567D01*
Y54903D01*
X54592D01*
Y54911D01*
X54609D01*
Y54920D01*
X54617D01*
Y54928D01*
X54642D01*
Y54936D01*
X54650D01*
Y54944D01*
X54683D01*
Y54953D01*
X54700D01*
Y54961D01*
X54725D01*
Y54969D01*
X54741D01*
Y54978D01*
X54766D01*
Y54986D01*
X54791D01*
Y54994D01*
X54807D01*
Y55002D01*
X54840D01*
Y55011D01*
X54865D01*
Y55019D01*
X54898D01*
Y55027D01*
X54940D01*
Y55036D01*
X54956D01*
Y55044D01*
X55006D01*
Y55052D01*
X55047D01*
Y55060D01*
X55105D01*
Y55069D01*
X55163D01*
Y55077D01*
X55271D01*
Y55085D01*
X65209D01*
Y55077D01*
D02*
G37*
G36*
X63318Y40841D02*
X65773D01*
Y39616D01*
X65771D01*
Y39614D01*
X64545D01*
Y38387D01*
X65771D01*
Y38385D01*
X65773D01*
Y37160D01*
X67000D01*
Y34705D01*
X65773D01*
Y35932D01*
X64547D01*
Y35934D01*
X64545D01*
Y37160D01*
X63318D01*
Y35934D01*
X63317D01*
Y35932D01*
X62091D01*
Y37160D01*
X58409D01*
Y35932D01*
X59635D01*
Y35931D01*
X59636D01*
Y34705D01*
X58409D01*
Y35932D01*
X57183D01*
Y35934D01*
X57182D01*
Y37160D01*
X55955D01*
Y35934D01*
X55953D01*
Y35932D01*
X54727D01*
Y34705D01*
X53500D01*
Y37160D01*
X54727D01*
Y38385D01*
X54729D01*
Y38387D01*
X55955D01*
Y39614D01*
X54729D01*
Y39616D01*
X54727D01*
Y40841D01*
X53500D01*
Y41723D01*
Y41725D01*
Y42069D01*
X54726D01*
Y42067D01*
X54727D01*
Y40841D01*
X57182D01*
Y38387D01*
X58409D01*
Y40841D01*
X57182D01*
Y43296D01*
X58409D01*
Y42069D01*
X62091D01*
Y43296D01*
X63318D01*
Y40841D01*
D02*
G37*
G36*
X67000D02*
X65773D01*
Y41218D01*
Y41219D01*
Y42067D01*
X65774D01*
Y42069D01*
X67000D01*
Y40841D01*
D02*
G37*
G36*
X62091Y35836D02*
Y35835D01*
Y34705D01*
X60864D01*
Y35931D01*
X60865D01*
Y35932D01*
X62091D01*
Y35836D01*
D02*
G37*
%LPC*%
G36*
X65225Y54299D02*
X55254D01*
Y54291D01*
X55180D01*
Y54283D01*
X55138D01*
Y54274D01*
X55114D01*
Y54266D01*
X55072D01*
Y54258D01*
X55056D01*
Y54249D01*
X55023D01*
Y54241D01*
X55006D01*
Y54233D01*
X54981D01*
Y54225D01*
X54965D01*
Y54216D01*
X54948D01*
Y54208D01*
X54923D01*
Y54200D01*
X54915D01*
Y54192D01*
X54898D01*
Y54183D01*
X54882D01*
Y54175D01*
X54865D01*
Y54167D01*
X54849D01*
Y54158D01*
X54840D01*
Y54150D01*
X54824D01*
Y54142D01*
X54807D01*
Y54134D01*
X54799D01*
Y54125D01*
X54791D01*
Y54117D01*
X54774D01*
Y54109D01*
X54766D01*
Y54100D01*
X54758D01*
Y54092D01*
X54741D01*
Y54084D01*
X54733D01*
Y54076D01*
X54725D01*
Y54067D01*
X54716D01*
Y54059D01*
X54708D01*
Y54051D01*
X54692D01*
Y54043D01*
X54683D01*
Y54034D01*
X54675D01*
Y54026D01*
X54667D01*
Y54018D01*
X54658D01*
Y54009D01*
X54650D01*
Y54001D01*
X54642D01*
Y53993D01*
X54634D01*
Y53985D01*
X54625D01*
Y53968D01*
X54617D01*
Y53960D01*
X54609D01*
Y53952D01*
X54601D01*
Y53943D01*
X54592D01*
Y53935D01*
X54584D01*
Y53927D01*
X54576D01*
Y53910D01*
X54567D01*
Y53902D01*
X54559D01*
Y53885D01*
X54551D01*
Y53877D01*
X54543D01*
Y53869D01*
X54534D01*
Y53852D01*
X54526D01*
Y53836D01*
X54518D01*
Y53827D01*
X54510D01*
Y53811D01*
X54501D01*
Y53794D01*
X54493D01*
Y53786D01*
X54485D01*
Y53770D01*
X54476D01*
Y53745D01*
X54468D01*
Y53736D01*
X54460D01*
Y53712D01*
X54452D01*
Y53703D01*
X54443D01*
Y53670D01*
X54435D01*
Y53654D01*
X54427D01*
Y53629D01*
X54418D01*
Y53596D01*
X54410D01*
Y53571D01*
X54402D01*
Y53530D01*
X54394D01*
Y53496D01*
X54385D01*
Y53439D01*
X54377D01*
Y46562D01*
X54385D01*
Y46504D01*
X54394D01*
Y46471D01*
X54402D01*
Y46430D01*
X54410D01*
Y46405D01*
X54418D01*
Y46372D01*
X54427D01*
Y46347D01*
X54435D01*
Y46331D01*
X54443D01*
Y46298D01*
X54452D01*
Y46289D01*
X54460D01*
Y46264D01*
X54468D01*
Y46256D01*
X54476D01*
Y46231D01*
X54485D01*
Y46215D01*
X54493D01*
Y46207D01*
X54501D01*
Y46190D01*
X54510D01*
Y46173D01*
X54518D01*
Y46165D01*
X54526D01*
Y46149D01*
X54534D01*
Y46132D01*
X54543D01*
Y46124D01*
X54551D01*
Y46116D01*
X54559D01*
Y46099D01*
X54567D01*
Y46091D01*
X54576D01*
Y46074D01*
X54584D01*
Y46066D01*
X54592D01*
Y46058D01*
X54601D01*
Y46049D01*
X54609D01*
Y46041D01*
X54617D01*
Y46025D01*
X54625D01*
Y46016D01*
X54634D01*
Y46008D01*
X54642D01*
Y46000D01*
X54650D01*
Y45991D01*
X54658D01*
Y45983D01*
X54667D01*
Y45975D01*
X54675D01*
Y45967D01*
X54683D01*
Y45958D01*
X54692D01*
Y45950D01*
X54708D01*
Y45942D01*
X54716D01*
Y45934D01*
X54725D01*
Y45925D01*
X54733D01*
Y45917D01*
X54741D01*
Y45909D01*
X54758D01*
Y45900D01*
X54766D01*
Y45892D01*
X54774D01*
Y45884D01*
X54791D01*
Y45876D01*
X54799D01*
Y45867D01*
X54807D01*
Y45859D01*
X54824D01*
Y45851D01*
X54840D01*
Y45842D01*
X54849D01*
Y45834D01*
X54865D01*
Y45826D01*
X54882D01*
Y45818D01*
X54898D01*
Y45809D01*
X54915D01*
Y45801D01*
X54923D01*
Y45793D01*
X54948D01*
Y45785D01*
X54965D01*
Y45776D01*
X54981D01*
Y45768D01*
X55006D01*
Y45760D01*
X55023D01*
Y45751D01*
X55056D01*
Y45743D01*
X55072D01*
Y45735D01*
X55114D01*
Y45727D01*
X55138D01*
Y45718D01*
X55180D01*
Y45710D01*
X55254D01*
Y45702D01*
X65233D01*
Y45710D01*
X65300D01*
Y45718D01*
X65341D01*
Y45727D01*
X65366D01*
Y45735D01*
X65407D01*
Y45743D01*
X65424D01*
Y45751D01*
X65457D01*
Y45760D01*
X65473D01*
Y45768D01*
X65498D01*
Y45776D01*
X65515D01*
Y45785D01*
X65531D01*
Y45793D01*
X65556D01*
Y45801D01*
X65564D01*
Y45809D01*
X65581D01*
Y45818D01*
X65597D01*
Y45826D01*
X65614D01*
Y45834D01*
X65631D01*
Y45842D01*
X65639D01*
Y45851D01*
X65655D01*
Y45859D01*
X65672D01*
Y45867D01*
X65680D01*
Y45876D01*
X65688D01*
Y45884D01*
X65705D01*
Y45892D01*
X65713D01*
Y45900D01*
X65722D01*
Y45909D01*
X65738D01*
Y45917D01*
X65746D01*
Y45925D01*
X65755D01*
Y45934D01*
X65763D01*
Y45942D01*
X65771D01*
Y45950D01*
X65788D01*
Y45958D01*
X65796D01*
Y45967D01*
X65804D01*
Y45975D01*
X65813D01*
Y45983D01*
X65821D01*
Y45991D01*
X65829D01*
Y46000D01*
X65837D01*
Y46008D01*
X65846D01*
Y46016D01*
X65854D01*
Y46025D01*
X65862D01*
Y46041D01*
X65870D01*
Y46049D01*
X65879D01*
Y46058D01*
X65887D01*
Y46066D01*
X65895D01*
Y46074D01*
X65904D01*
Y46091D01*
X65912D01*
Y46099D01*
X65920D01*
Y46116D01*
X65928D01*
Y46124D01*
X65937D01*
Y46132D01*
X65945D01*
Y46149D01*
X65953D01*
Y46165D01*
X65962D01*
Y46173D01*
X65970D01*
Y46182D01*
X65978D01*
Y46207D01*
X65986D01*
Y46215D01*
X65995D01*
Y46231D01*
X66003D01*
Y46256D01*
X66011D01*
Y46264D01*
X66019D01*
Y46289D01*
X66028D01*
Y46298D01*
X66036D01*
Y46331D01*
X66044D01*
Y46347D01*
X66053D01*
Y46372D01*
X66061D01*
Y46405D01*
X66069D01*
Y46430D01*
X66077D01*
Y46471D01*
X66086D01*
Y46504D01*
X66094D01*
Y46562D01*
X66102D01*
Y53439D01*
X66094D01*
Y53496D01*
X66086D01*
Y53530D01*
X66077D01*
Y53571D01*
X66069D01*
Y53596D01*
X66061D01*
Y53629D01*
X66053D01*
Y53654D01*
X66044D01*
Y53670D01*
X66036D01*
Y53703D01*
X66028D01*
Y53712D01*
X66019D01*
Y53736D01*
X66011D01*
Y53745D01*
X66003D01*
Y53770D01*
X65995D01*
Y53786D01*
X65986D01*
Y53794D01*
X65978D01*
Y53811D01*
X65970D01*
Y53827D01*
X65962D01*
Y53836D01*
X65953D01*
Y53852D01*
X65945D01*
Y53869D01*
X65937D01*
Y53877D01*
X65928D01*
Y53885D01*
X65920D01*
Y53902D01*
X65912D01*
Y53910D01*
X65904D01*
Y53927D01*
X65895D01*
Y53935D01*
X65887D01*
Y53943D01*
X65879D01*
Y53952D01*
X65870D01*
Y53960D01*
X65862D01*
Y53976D01*
X65854D01*
Y53985D01*
X65846D01*
Y53993D01*
X65837D01*
Y54001D01*
X65829D01*
Y54009D01*
X65821D01*
Y54018D01*
X65813D01*
Y54026D01*
X65804D01*
Y54034D01*
X65796D01*
Y54043D01*
X65788D01*
Y54051D01*
X65771D01*
Y54059D01*
X65763D01*
Y54067D01*
X65755D01*
Y54076D01*
X65746D01*
Y54084D01*
X65738D01*
Y54092D01*
X65722D01*
Y54100D01*
X65713D01*
Y54109D01*
X65705D01*
Y54117D01*
X65688D01*
Y54125D01*
X65680D01*
Y54134D01*
X65672D01*
Y54142D01*
X65655D01*
Y54150D01*
X65639D01*
Y54158D01*
X65631D01*
Y54167D01*
X65614D01*
Y54175D01*
X65597D01*
Y54183D01*
X65581D01*
Y54192D01*
X65564D01*
Y54200D01*
X65556D01*
Y54208D01*
X65531D01*
Y54216D01*
X65515D01*
Y54225D01*
X65498D01*
Y54233D01*
X65473D01*
Y54241D01*
X65457D01*
Y54249D01*
X65424D01*
Y54258D01*
X65407D01*
Y54266D01*
X65366D01*
Y54274D01*
X65341D01*
Y54283D01*
X65300D01*
Y54291D01*
X65225D01*
Y54299D01*
D02*
G37*
%LPD*%
G36*
X60029Y53712D02*
X60045D01*
Y46885D01*
X60037D01*
Y46877D01*
X60029D01*
Y46869D01*
X60012D01*
Y46877D01*
X58895D01*
Y46869D01*
X58887D01*
Y46877D01*
X58870D01*
Y47257D01*
X58887D01*
Y47266D01*
X58903D01*
Y47257D01*
X58912D01*
Y47266D01*
X59615D01*
Y47257D01*
X59631D01*
Y47266D01*
X59648D01*
Y47274D01*
X59656D01*
Y48093D01*
Y48101D01*
Y49798D01*
X59648D01*
Y49814D01*
X59640D01*
Y49823D01*
X59631D01*
Y49831D01*
X59623D01*
Y49839D01*
X59607D01*
Y49847D01*
X59598D01*
Y49856D01*
X59590D01*
Y49864D01*
X59582D01*
Y49872D01*
X59574D01*
Y49880D01*
X59565D01*
Y49889D01*
X59557D01*
Y49897D01*
X59549D01*
Y49905D01*
X59540D01*
Y49914D01*
X59532D01*
Y49922D01*
X59524D01*
Y49930D01*
X59507D01*
Y49938D01*
X59499D01*
Y49947D01*
X59491D01*
Y49955D01*
X59483D01*
Y49963D01*
X59474D01*
Y49971D01*
X59466D01*
Y49980D01*
X59458D01*
Y49988D01*
X59449D01*
Y49996D01*
X59441D01*
Y50005D01*
X59433D01*
Y50013D01*
X59416D01*
Y50021D01*
X59408D01*
Y50029D01*
X59400D01*
Y50038D01*
X59392D01*
Y50046D01*
X59383D01*
Y50054D01*
X59375D01*
Y50063D01*
X59367D01*
Y50071D01*
X59358D01*
Y50079D01*
X59350D01*
Y50087D01*
X59334D01*
Y50096D01*
X59325D01*
Y50104D01*
X59317D01*
Y50112D01*
X59309D01*
Y50120D01*
X59300D01*
Y50129D01*
X59292D01*
Y50137D01*
X59284D01*
Y50145D01*
X59276D01*
Y50154D01*
X59267D01*
Y50162D01*
X59259D01*
Y50170D01*
X59251D01*
Y50178D01*
X59234D01*
Y50187D01*
X59226D01*
Y50195D01*
X59218D01*
Y50203D01*
X59209D01*
Y50211D01*
X59201D01*
Y50220D01*
X59193D01*
Y50228D01*
X59185D01*
Y50236D01*
X59176D01*
Y50245D01*
X59168D01*
Y50253D01*
X59152D01*
Y50261D01*
X59143D01*
Y50269D01*
X59135D01*
Y50278D01*
X59127D01*
Y50286D01*
X59118D01*
Y50294D01*
X59110D01*
Y50302D01*
X59102D01*
Y50311D01*
X59094D01*
Y50319D01*
X59085D01*
Y50327D01*
X59077D01*
Y50336D01*
X59069D01*
Y50344D01*
X59052D01*
Y50352D01*
X59044D01*
Y50360D01*
X59036D01*
Y50369D01*
X59027D01*
Y50377D01*
X59019D01*
Y50385D01*
X59011D01*
Y50393D01*
X59003D01*
Y50402D01*
X58994D01*
Y50410D01*
X58986D01*
Y50418D01*
X58970D01*
Y50427D01*
X58961D01*
Y50435D01*
X58953D01*
Y50443D01*
X58945D01*
Y50451D01*
X58936D01*
Y50460D01*
X58928D01*
Y50468D01*
X58920D01*
Y50476D01*
X58912D01*
Y50485D01*
X58903D01*
Y50493D01*
X58895D01*
Y50501D01*
X58878D01*
Y50509D01*
X58870D01*
Y50518D01*
X58862D01*
Y50526D01*
X58854D01*
Y50534D01*
X58845D01*
Y50542D01*
X58837D01*
Y50551D01*
X58829D01*
Y50559D01*
X58821D01*
Y50567D01*
X58812D01*
Y50576D01*
X58804D01*
Y50584D01*
X58796D01*
Y50592D01*
X58779D01*
Y50600D01*
X58771D01*
Y50609D01*
X58763D01*
Y50617D01*
X58754D01*
Y50625D01*
X58746D01*
Y50633D01*
X58738D01*
Y50642D01*
X58730D01*
Y50650D01*
X58721D01*
Y50658D01*
X58713D01*
Y50667D01*
X58696D01*
Y50675D01*
X58688D01*
Y50683D01*
X58680D01*
Y50691D01*
X58672D01*
Y50700D01*
X58663D01*
Y50708D01*
X58655D01*
Y50716D01*
X58647D01*
Y50724D01*
X58639D01*
Y50733D01*
X58630D01*
Y50741D01*
X58622D01*
Y50749D01*
X58614D01*
Y50758D01*
X58597D01*
Y50766D01*
X58589D01*
Y50774D01*
X58581D01*
Y50782D01*
X58572D01*
Y50791D01*
X58564D01*
Y50799D01*
X58556D01*
Y50807D01*
X58548D01*
Y50815D01*
X58539D01*
Y50824D01*
X58531D01*
Y50832D01*
X58514D01*
Y50840D01*
X58506D01*
Y50849D01*
X58498D01*
Y50857D01*
X58490D01*
Y50865D01*
X58481D01*
Y50873D01*
X58473D01*
Y50882D01*
X58465D01*
Y50890D01*
X58456D01*
Y50898D01*
X58448D01*
Y50907D01*
X58440D01*
Y50915D01*
X58432D01*
Y50923D01*
X58415D01*
Y50931D01*
X58407D01*
Y50940D01*
X58399D01*
Y50948D01*
X58390D01*
Y50956D01*
X58382D01*
Y50964D01*
X58374D01*
Y50973D01*
X58357D01*
Y50989D01*
X58349D01*
Y50998D01*
X58332D01*
Y51014D01*
X58316D01*
Y51022D01*
X58308D01*
Y51031D01*
X58299D01*
Y51039D01*
X58291D01*
Y51047D01*
X58283D01*
Y51055D01*
X58274D01*
Y51064D01*
X58266D01*
Y51072D01*
X58250D01*
Y51080D01*
X58241D01*
Y51089D01*
X58233D01*
Y51097D01*
X58225D01*
Y51105D01*
X58217D01*
Y51113D01*
X58208D01*
Y51122D01*
X58200D01*
Y51130D01*
X58192D01*
Y51138D01*
X58183D01*
Y51146D01*
X58175D01*
Y51155D01*
X58167D01*
Y51163D01*
X58159D01*
Y51171D01*
X58142D01*
Y51180D01*
X58134D01*
Y51188D01*
X58125D01*
Y51196D01*
X58117D01*
Y51204D01*
X58109D01*
Y51213D01*
X58101D01*
Y51221D01*
X58092D01*
Y51229D01*
X58084D01*
Y51237D01*
X58076D01*
Y51246D01*
X58059D01*
Y51254D01*
X58051D01*
Y51262D01*
X58043D01*
Y51271D01*
X58034D01*
Y51279D01*
X58026D01*
Y51287D01*
X58018D01*
Y51295D01*
X58010D01*
Y51304D01*
X58001D01*
Y51312D01*
X57993D01*
Y51320D01*
X57985D01*
Y51329D01*
X57977D01*
Y51337D01*
X57960D01*
Y51345D01*
X57952D01*
Y51353D01*
X57943D01*
Y51362D01*
X57935D01*
Y51370D01*
X57927D01*
Y51378D01*
X57919D01*
Y51386D01*
X57910D01*
Y51395D01*
X57902D01*
Y51403D01*
X57894D01*
Y51411D01*
X57877D01*
Y51420D01*
X57869D01*
Y51428D01*
X57861D01*
Y51436D01*
X57852D01*
Y51444D01*
X57844D01*
Y51453D01*
X57836D01*
Y51461D01*
X57828D01*
Y51469D01*
X57819D01*
Y51477D01*
X57811D01*
Y51486D01*
X57803D01*
Y51494D01*
X57786D01*
Y51502D01*
X57778D01*
Y51511D01*
X57770D01*
Y51519D01*
X57761D01*
Y51527D01*
X57753D01*
Y51535D01*
X57745D01*
Y51544D01*
X57737D01*
Y51552D01*
X57728D01*
Y51560D01*
X57720D01*
Y51568D01*
X57712D01*
Y51577D01*
X57703D01*
Y51585D01*
X57687D01*
Y51593D01*
X57679D01*
Y51602D01*
X57670D01*
Y51610D01*
X57662D01*
Y51618D01*
X57654D01*
Y51626D01*
X57646D01*
Y51635D01*
X57637D01*
Y51643D01*
X57629D01*
Y51651D01*
X57621D01*
Y51660D01*
X57604D01*
Y51668D01*
X57596D01*
Y51676D01*
X57588D01*
Y51684D01*
X57579D01*
Y51693D01*
X57571D01*
Y51701D01*
X57563D01*
Y51709D01*
X57555D01*
Y51717D01*
X57546D01*
Y51726D01*
X57530D01*
Y51742D01*
X57521D01*
Y51751D01*
X57505D01*
Y51742D01*
X57497D01*
Y51726D01*
X57488D01*
Y51701D01*
X57480D01*
Y51676D01*
X57472D01*
Y51651D01*
X57464D01*
Y51618D01*
X57455D01*
Y51593D01*
X57447D01*
Y51568D01*
X57439D01*
Y51544D01*
X57430D01*
Y51519D01*
X57422D01*
Y51494D01*
X57414D01*
Y51469D01*
X57406D01*
Y51436D01*
X57397D01*
Y51411D01*
X57389D01*
Y51386D01*
X57381D01*
Y51362D01*
X57373D01*
Y51337D01*
X57364D01*
Y51312D01*
X57356D01*
Y51287D01*
X57348D01*
Y51254D01*
X57339D01*
Y51229D01*
X57331D01*
Y51204D01*
X57323D01*
Y51180D01*
X57315D01*
Y51155D01*
X57306D01*
Y51130D01*
X57298D01*
Y51097D01*
X57290D01*
Y51080D01*
X57282D01*
Y51047D01*
X57273D01*
Y51022D01*
X57265D01*
Y50998D01*
X57257D01*
Y50973D01*
X57248D01*
Y50948D01*
X57240D01*
Y50915D01*
X57232D01*
Y50890D01*
X57224D01*
Y50865D01*
X57215D01*
Y50840D01*
X57207D01*
Y50815D01*
X57199D01*
Y50791D01*
X57190D01*
Y50766D01*
X57182D01*
Y50733D01*
X57174D01*
Y50716D01*
X57166D01*
Y50683D01*
X57157D01*
Y50658D01*
X57149D01*
Y50633D01*
X57141D01*
Y50609D01*
X57133D01*
Y50584D01*
X57124D01*
Y50551D01*
X57116D01*
Y50526D01*
X57108D01*
Y50501D01*
X57099D01*
Y50476D01*
X57091D01*
Y50451D01*
X57083D01*
Y50427D01*
X57075D01*
Y50402D01*
X57066D01*
Y50377D01*
X57058D01*
Y50344D01*
X57050D01*
Y50319D01*
X57042D01*
Y50294D01*
X57033D01*
Y50269D01*
X57025D01*
Y50245D01*
X57017D01*
Y50220D01*
X57008D01*
Y50195D01*
X57000D01*
Y50162D01*
X56992D01*
Y50137D01*
X56984D01*
Y50112D01*
X56975D01*
Y50087D01*
X56967D01*
Y50063D01*
X56959D01*
Y50038D01*
X56951D01*
Y50005D01*
X56942D01*
Y49980D01*
X56934D01*
Y49955D01*
X56926D01*
Y49930D01*
X56917D01*
Y49905D01*
X56909D01*
Y49880D01*
X56901D01*
Y49856D01*
X56893D01*
Y49831D01*
X56884D01*
Y49798D01*
X56876D01*
Y49781D01*
X56868D01*
Y49748D01*
X56860D01*
Y49723D01*
X56851D01*
Y49698D01*
X56843D01*
Y49674D01*
X56835D01*
Y49649D01*
X56826D01*
Y49616D01*
X56818D01*
Y49591D01*
X56810D01*
Y49566D01*
X56802D01*
Y49541D01*
X56793D01*
Y49516D01*
X56785D01*
Y49492D01*
X56777D01*
Y49467D01*
X56768D01*
Y49434D01*
X56760D01*
Y49409D01*
X56752D01*
Y49384D01*
X56744D01*
Y49359D01*
X56735D01*
Y49334D01*
X56727D01*
Y49310D01*
X56719D01*
Y49285D01*
X56711D01*
Y49252D01*
X56702D01*
Y49227D01*
X56694D01*
Y49202D01*
X56686D01*
Y49177D01*
X56677D01*
Y49152D01*
X56669D01*
Y49127D01*
X56661D01*
Y49103D01*
X56653D01*
Y49070D01*
X56644D01*
Y49045D01*
X56636D01*
Y49020D01*
X56628D01*
Y48995D01*
X56620D01*
Y48970D01*
X56611D01*
Y48945D01*
X56603D01*
Y48912D01*
X56595D01*
Y48896D01*
X56586D01*
Y48863D01*
X56578D01*
Y48838D01*
X56570D01*
Y48813D01*
X56562D01*
Y48788D01*
X56553D01*
Y48763D01*
X56545D01*
Y48730D01*
X56537D01*
Y48714D01*
X56529D01*
Y48681D01*
X56520D01*
Y48656D01*
X56512D01*
Y48631D01*
X56504D01*
Y48606D01*
X56495D01*
Y48581D01*
X56487D01*
Y48548D01*
X56479D01*
Y48532D01*
X56471D01*
Y48499D01*
X56462D01*
Y48474D01*
X56454D01*
Y48449D01*
X56446D01*
Y48424D01*
X56437D01*
Y48399D01*
X56429D01*
Y48366D01*
X56421D01*
Y48350D01*
X56413D01*
Y48317D01*
X56404D01*
Y48292D01*
X56396D01*
Y48267D01*
X56388D01*
Y48242D01*
X56380D01*
Y48217D01*
X56371D01*
Y48192D01*
X56363D01*
Y48159D01*
X56355D01*
Y48135D01*
X56346D01*
Y48110D01*
X56338D01*
Y48085D01*
X56330D01*
Y48060D01*
X56322D01*
Y48035D01*
X56313D01*
Y48010D01*
X56305D01*
Y47977D01*
X56297D01*
Y47952D01*
X56289D01*
Y47928D01*
X56280D01*
Y47903D01*
X56272D01*
Y47878D01*
X56264D01*
Y47853D01*
X56255D01*
Y47828D01*
X56247D01*
Y47795D01*
X56239D01*
Y47770D01*
X56231D01*
Y47746D01*
X56222D01*
Y47721D01*
X56214D01*
Y47696D01*
X56206D01*
Y47671D01*
X56198D01*
Y47646D01*
X56189D01*
Y47613D01*
X56181D01*
Y47588D01*
X56173D01*
Y47564D01*
X56164D01*
Y47539D01*
X56156D01*
Y47514D01*
X56148D01*
Y47489D01*
X56140D01*
Y47464D01*
X56148D01*
Y47456D01*
X56529D01*
Y47075D01*
X56520D01*
Y47067D01*
X54965D01*
Y47075D01*
X54956D01*
Y47448D01*
X54965D01*
Y47456D01*
X55933D01*
Y47464D01*
X55941D01*
Y47473D01*
X55949D01*
Y47506D01*
X55958D01*
Y47530D01*
X55966D01*
Y47555D01*
X55974D01*
Y47580D01*
X55982D01*
Y47605D01*
X55991D01*
Y47630D01*
X55999D01*
Y47655D01*
X56007D01*
Y47679D01*
X56015D01*
Y47704D01*
X56024D01*
Y47729D01*
X56032D01*
Y47762D01*
X56040D01*
Y47787D01*
X56049D01*
Y47812D01*
X56057D01*
Y47837D01*
X56065D01*
Y47861D01*
X56073D01*
Y47886D01*
X56082D01*
Y47911D01*
X56090D01*
Y47944D01*
X56098D01*
Y47961D01*
X56107D01*
Y47994D01*
X56115D01*
Y48019D01*
X56123D01*
Y48044D01*
X56131D01*
Y48068D01*
X56140D01*
Y48093D01*
X56148D01*
Y48118D01*
X56156D01*
Y48143D01*
X56164D01*
Y48168D01*
X56173D01*
Y48201D01*
X56181D01*
Y48226D01*
X56189D01*
Y48250D01*
X56198D01*
Y48275D01*
X56206D01*
Y48300D01*
X56214D01*
Y48325D01*
X56222D01*
Y48350D01*
X56231D01*
Y48375D01*
X56239D01*
Y48399D01*
X56247D01*
Y48432D01*
X56255D01*
Y48457D01*
X56264D01*
Y48482D01*
X56272D01*
Y48507D01*
X56280D01*
Y48532D01*
X56289D01*
Y48557D01*
X56297D01*
Y48581D01*
X56305D01*
Y48606D01*
X56313D01*
Y48631D01*
X56322D01*
Y48664D01*
X56330D01*
Y48689D01*
X56338D01*
Y48714D01*
X56346D01*
Y48739D01*
X56355D01*
Y48763D01*
X56363D01*
Y48788D01*
X56371D01*
Y48813D01*
X56380D01*
Y48838D01*
X56388D01*
Y48871D01*
X56396D01*
Y48896D01*
X56404D01*
Y48921D01*
X56413D01*
Y48945D01*
X56421D01*
Y48970D01*
X56429D01*
Y48995D01*
X56437D01*
Y49020D01*
X56446D01*
Y49045D01*
X56454D01*
Y49070D01*
X56462D01*
Y49103D01*
X56471D01*
Y49127D01*
X56479D01*
Y49152D01*
X56487D01*
Y49177D01*
X56495D01*
Y49202D01*
X56504D01*
Y49227D01*
X56512D01*
Y49252D01*
X56520D01*
Y49276D01*
X56529D01*
Y49301D01*
X56537D01*
Y49326D01*
X56545D01*
Y49359D01*
X56553D01*
Y49384D01*
X56562D01*
Y49409D01*
X56570D01*
Y49434D01*
X56578D01*
Y49458D01*
X56586D01*
Y49483D01*
X56595D01*
Y49508D01*
X56603D01*
Y49533D01*
X56611D01*
Y49566D01*
X56620D01*
Y49583D01*
X56628D01*
Y49616D01*
X56636D01*
Y49641D01*
X56644D01*
Y49665D01*
X56653D01*
Y49690D01*
X56661D01*
Y49715D01*
X56669D01*
Y49740D01*
X56677D01*
Y49765D01*
X56686D01*
Y49798D01*
X56694D01*
Y49823D01*
X56702D01*
Y49847D01*
X56711D01*
Y49872D01*
X56719D01*
Y49897D01*
X56727D01*
Y49922D01*
X56735D01*
Y49947D01*
X56744D01*
Y49971D01*
X56752D01*
Y49996D01*
X56760D01*
Y50021D01*
X56768D01*
Y50054D01*
X56777D01*
Y50079D01*
X56785D01*
Y50104D01*
X56793D01*
Y50129D01*
X56802D01*
Y50154D01*
X56810D01*
Y50178D01*
X56818D01*
Y50203D01*
X56826D01*
Y50236D01*
X56835D01*
Y50261D01*
X56843D01*
Y50286D01*
X56851D01*
Y50311D01*
X56860D01*
Y50336D01*
X56868D01*
Y50360D01*
X56876D01*
Y50385D01*
X56884D01*
Y50410D01*
X56893D01*
Y50435D01*
X56901D01*
Y50460D01*
X56909D01*
Y50493D01*
X56917D01*
Y50518D01*
X56926D01*
Y50542D01*
X56934D01*
Y50567D01*
X56942D01*
Y50592D01*
X56951D01*
Y50617D01*
X56959D01*
Y50642D01*
X56967D01*
Y50675D01*
X56975D01*
Y50691D01*
X56984D01*
Y50724D01*
X56992D01*
Y50749D01*
X57000D01*
Y50774D01*
X57008D01*
Y50799D01*
X57017D01*
Y50824D01*
X57025D01*
Y50849D01*
X57033D01*
Y50873D01*
X57042D01*
Y50898D01*
X57050D01*
Y50931D01*
X57058D01*
Y50956D01*
X57066D01*
Y50981D01*
X57075D01*
Y50998D01*
X57083D01*
Y51031D01*
X57091D01*
Y51055D01*
X57099D01*
Y51080D01*
X57108D01*
Y51105D01*
X57116D01*
Y51130D01*
X57124D01*
Y51163D01*
X57133D01*
Y51188D01*
X57141D01*
Y51213D01*
X57149D01*
Y51237D01*
X57157D01*
Y51262D01*
X57166D01*
Y51287D01*
X57174D01*
Y51312D01*
X57182D01*
Y51345D01*
X57190D01*
Y51362D01*
X57199D01*
Y51395D01*
X57207D01*
Y51420D01*
X57215D01*
Y51444D01*
X57224D01*
Y51469D01*
X57232D01*
Y51494D01*
X57240D01*
Y51519D01*
X57248D01*
Y51544D01*
X57257D01*
Y51568D01*
X57265D01*
Y51602D01*
X57273D01*
Y51626D01*
X57282D01*
Y51651D01*
X57290D01*
Y51676D01*
X57298D01*
Y51701D01*
X57306D01*
Y51726D01*
X57315D01*
Y51751D01*
X57323D01*
Y51775D01*
X57331D01*
Y51800D01*
X57339D01*
Y51833D01*
X57348D01*
Y51858D01*
X57356D01*
Y51883D01*
X57364D01*
Y51908D01*
X57373D01*
Y51933D01*
X57381D01*
Y51957D01*
X57389D01*
Y51982D01*
X57397D01*
Y52007D01*
X57406D01*
Y52040D01*
X57414D01*
Y52065D01*
X57422D01*
Y52090D01*
X57430D01*
Y52115D01*
X57439D01*
Y52139D01*
X57447D01*
Y52164D01*
X57455D01*
Y52189D01*
X57464D01*
Y52214D01*
X57472D01*
Y52239D01*
X57480D01*
Y52272D01*
X57488D01*
Y52288D01*
X57497D01*
Y52321D01*
X57505D01*
Y52346D01*
X57513D01*
Y52371D01*
X57521D01*
Y52396D01*
X57530D01*
Y52421D01*
X57538D01*
Y52446D01*
X57546D01*
Y52470D01*
X57555D01*
Y52504D01*
X57563D01*
Y52528D01*
X57571D01*
Y52553D01*
X57579D01*
Y52578D01*
X57588D01*
Y52603D01*
X57596D01*
Y52628D01*
X57604D01*
Y52652D01*
X57612D01*
Y52677D01*
X57621D01*
Y52710D01*
X57629D01*
Y52727D01*
X57637D01*
Y52760D01*
X57646D01*
Y52785D01*
X57654D01*
Y52810D01*
X57662D01*
Y52834D01*
X57670D01*
Y52859D01*
X57679D01*
Y52884D01*
X57687D01*
Y52909D01*
X57695D01*
Y52917D01*
X57703D01*
Y52926D01*
X57712D01*
Y52917D01*
X57720D01*
Y52909D01*
X57728D01*
Y52901D01*
X57737D01*
Y52892D01*
X57745D01*
Y52884D01*
X57753D01*
Y52876D01*
X57761D01*
Y52868D01*
X57770D01*
Y52859D01*
X57778D01*
Y52851D01*
X57786D01*
Y52843D01*
X57795D01*
Y52834D01*
X57803D01*
Y52826D01*
X57811D01*
Y52818D01*
X57819D01*
Y52810D01*
X57828D01*
Y52801D01*
X57836D01*
Y52793D01*
X57844D01*
Y52785D01*
X57852D01*
Y52777D01*
X57861D01*
Y52768D01*
X57869D01*
Y52760D01*
X57877D01*
Y52752D01*
X57886D01*
Y52743D01*
X57894D01*
Y52735D01*
X57902D01*
Y52727D01*
X57910D01*
Y52719D01*
X57919D01*
Y52710D01*
X57927D01*
Y52702D01*
X57935D01*
Y52694D01*
X57943D01*
Y52686D01*
X57952D01*
Y52677D01*
X57960D01*
Y52669D01*
X57968D01*
Y52661D01*
X57977D01*
Y52652D01*
X57985D01*
Y52644D01*
X57993D01*
Y52636D01*
X58001D01*
Y52628D01*
X58010D01*
Y52619D01*
X58018D01*
Y52611D01*
X58026D01*
Y52603D01*
X58034D01*
Y52595D01*
X58043D01*
Y52586D01*
X58051D01*
Y52578D01*
X58059D01*
Y52570D01*
X58068D01*
Y52561D01*
X58076D01*
Y52553D01*
X58084D01*
Y52545D01*
X58092D01*
Y52537D01*
X58101D01*
Y52528D01*
X58109D01*
Y52520D01*
X58117D01*
Y52512D01*
X58125D01*
Y52504D01*
X58134D01*
Y52495D01*
X58142D01*
Y52487D01*
X58150D01*
Y52479D01*
X58159D01*
Y52470D01*
X58167D01*
Y52462D01*
X58175D01*
Y52454D01*
X58183D01*
Y52446D01*
X58192D01*
Y52437D01*
X58200D01*
Y52429D01*
X58208D01*
Y52421D01*
X58217D01*
Y52412D01*
X58225D01*
Y52404D01*
X58233D01*
Y52396D01*
X58241D01*
Y52388D01*
X58250D01*
Y52379D01*
X58258D01*
Y52371D01*
X58266D01*
Y52363D01*
X58274D01*
Y52355D01*
X58283D01*
Y52346D01*
X58291D01*
Y52338D01*
X58299D01*
Y52330D01*
X58308D01*
Y52321D01*
X58316D01*
Y52313D01*
X58324D01*
Y52305D01*
X58332D01*
Y52297D01*
X58341D01*
Y52288D01*
X58349D01*
Y52280D01*
X58357D01*
Y52272D01*
X58365D01*
Y52264D01*
X58374D01*
Y52255D01*
X58382D01*
Y52247D01*
X58390D01*
Y52239D01*
X58399D01*
Y52230D01*
X58407D01*
Y52222D01*
X58415D01*
Y52214D01*
X58423D01*
Y52206D01*
X58432D01*
Y52197D01*
X58440D01*
Y52189D01*
X58448D01*
Y52181D01*
X58456D01*
Y52173D01*
X58465D01*
Y52164D01*
X58473D01*
Y52156D01*
X58481D01*
Y52148D01*
X58490D01*
Y52139D01*
X58498D01*
Y52131D01*
X58506D01*
Y52123D01*
X58514D01*
Y52115D01*
X58523D01*
Y52106D01*
X58531D01*
Y52098D01*
X58539D01*
Y52090D01*
X58548D01*
Y52082D01*
X58556D01*
Y52073D01*
X58564D01*
Y52065D01*
X58572D01*
Y52057D01*
X58581D01*
Y52048D01*
X58589D01*
Y52040D01*
X58597D01*
Y52032D01*
X58605D01*
Y52024D01*
X58614D01*
Y52015D01*
X58622D01*
Y52007D01*
X58630D01*
Y51999D01*
X58639D01*
Y51990D01*
X58647D01*
Y51982D01*
X58655D01*
Y51974D01*
X58663D01*
Y51966D01*
X58672D01*
Y51957D01*
X58680D01*
Y51949D01*
X58688D01*
Y51941D01*
X58696D01*
Y51933D01*
X58705D01*
Y51924D01*
X58713D01*
Y51916D01*
X58721D01*
Y51908D01*
X58730D01*
Y51899D01*
X58738D01*
Y51891D01*
X58746D01*
Y51883D01*
X58754D01*
Y51875D01*
X58763D01*
Y51866D01*
X58771D01*
Y51858D01*
X58779D01*
Y51850D01*
X58787D01*
Y51842D01*
X58796D01*
Y51833D01*
X58804D01*
Y51825D01*
X58812D01*
Y51817D01*
X58821D01*
Y51808D01*
X58829D01*
Y51800D01*
X58837D01*
Y51792D01*
X58845D01*
Y51784D01*
X58854D01*
Y51775D01*
X58862D01*
Y51767D01*
X58870D01*
Y51759D01*
X58878D01*
Y51751D01*
X58887D01*
Y51742D01*
X58895D01*
Y51726D01*
X58912D01*
Y51717D01*
X58920D01*
Y51709D01*
X58928D01*
Y51701D01*
X58936D01*
Y51693D01*
X58945D01*
Y51684D01*
X58953D01*
Y51676D01*
X58961D01*
Y51668D01*
X58970D01*
Y51660D01*
X58978D01*
Y51651D01*
X58986D01*
Y51643D01*
X58994D01*
Y51635D01*
X59003D01*
Y51626D01*
X59011D01*
Y51618D01*
X59019D01*
Y51610D01*
X59027D01*
Y51602D01*
X59036D01*
Y51593D01*
X59044D01*
Y51585D01*
X59052D01*
Y51577D01*
X59061D01*
Y51568D01*
X59069D01*
Y51560D01*
X59077D01*
Y51552D01*
X59085D01*
Y51544D01*
X59094D01*
Y51535D01*
X59102D01*
Y51527D01*
X59110D01*
Y51519D01*
X59118D01*
Y51511D01*
X59127D01*
Y51502D01*
X59135D01*
Y51494D01*
X59143D01*
Y51486D01*
X59152D01*
Y51477D01*
X59160D01*
Y51469D01*
X59168D01*
Y51461D01*
X59176D01*
Y51453D01*
X59185D01*
Y51444D01*
X59193D01*
Y51436D01*
X59201D01*
Y51428D01*
X59209D01*
Y51420D01*
X59218D01*
Y51411D01*
X59226D01*
Y51403D01*
X59234D01*
Y51395D01*
X59243D01*
Y51386D01*
X59251D01*
Y51378D01*
X59259D01*
Y51370D01*
X59267D01*
Y51362D01*
X59276D01*
Y51353D01*
X59284D01*
Y51345D01*
X59292D01*
Y51337D01*
X59300D01*
Y51329D01*
X59309D01*
Y51320D01*
X59317D01*
Y51312D01*
X59325D01*
Y51304D01*
X59334D01*
Y51295D01*
X59342D01*
Y51287D01*
X59350D01*
Y51279D01*
X59358D01*
Y51271D01*
X59367D01*
Y51262D01*
X59375D01*
Y51254D01*
X59383D01*
Y51246D01*
X59392D01*
Y51237D01*
X59400D01*
Y51229D01*
X59408D01*
Y51221D01*
X59416D01*
Y51213D01*
X59425D01*
Y51204D01*
X59433D01*
Y51196D01*
X59441D01*
Y51188D01*
X59449D01*
Y51180D01*
X59458D01*
Y51171D01*
X59466D01*
Y51163D01*
X59474D01*
Y51155D01*
X59483D01*
Y51146D01*
X59491D01*
Y51138D01*
X59499D01*
Y51130D01*
X59507D01*
Y51122D01*
X59516D01*
Y51113D01*
X59524D01*
Y51105D01*
X59532D01*
Y51097D01*
X59540D01*
Y51089D01*
X59549D01*
Y51080D01*
X59557D01*
Y51072D01*
X59565D01*
Y51064D01*
X59574D01*
Y51055D01*
X59582D01*
Y51047D01*
X59590D01*
Y51039D01*
X59598D01*
Y51031D01*
X59607D01*
Y51022D01*
X59615D01*
Y51014D01*
X59623D01*
Y50998D01*
X59656D01*
Y53314D01*
X59648D01*
Y53323D01*
X58680D01*
Y53339D01*
X58672D01*
Y53703D01*
X58680D01*
Y53712D01*
X60020D01*
Y53720D01*
X60029D01*
Y53712D01*
D02*
G37*
G36*
X60459D02*
X61808D01*
Y53331D01*
X61799D01*
Y53323D01*
X60831D01*
Y53306D01*
X60823D01*
Y53290D01*
X60831D01*
Y52942D01*
X60823D01*
Y52892D01*
X60831D01*
Y51775D01*
X60823D01*
Y51726D01*
X60831D01*
Y51022D01*
X60823D01*
Y50998D01*
X60831D01*
Y50989D01*
X60840D01*
Y50998D01*
X60856D01*
Y51014D01*
X60864D01*
Y51022D01*
X60873D01*
Y51031D01*
X60881D01*
Y51039D01*
X60889D01*
Y51047D01*
X60897D01*
Y51055D01*
X60906D01*
Y51064D01*
X60914D01*
Y51072D01*
X60922D01*
Y51080D01*
X60931D01*
Y51089D01*
X60939D01*
Y51097D01*
X60947D01*
Y51105D01*
X60955D01*
Y51113D01*
X60964D01*
Y51122D01*
X60972D01*
Y51130D01*
X60980D01*
Y51138D01*
X60988D01*
Y51146D01*
X60997D01*
Y51155D01*
X61005D01*
Y51163D01*
X61013D01*
Y51171D01*
X61022D01*
Y51180D01*
X61030D01*
Y51188D01*
X61038D01*
Y51196D01*
X61046D01*
Y51204D01*
X61055D01*
Y51213D01*
X61063D01*
Y51221D01*
X61071D01*
Y51229D01*
X61080D01*
Y51237D01*
X61088D01*
Y51246D01*
X61096D01*
Y51254D01*
X61104D01*
Y51262D01*
X61113D01*
Y51271D01*
X61121D01*
Y51279D01*
X61129D01*
Y51287D01*
X61137D01*
Y51295D01*
X61146D01*
Y51304D01*
X61154D01*
Y51312D01*
X61162D01*
Y51320D01*
X61171D01*
Y51329D01*
X61179D01*
Y51337D01*
X61187D01*
Y51345D01*
X61195D01*
Y51353D01*
X61204D01*
Y51362D01*
X61212D01*
Y51370D01*
X61220D01*
Y51378D01*
X61228D01*
Y51386D01*
X61237D01*
Y51395D01*
X61245D01*
Y51403D01*
X61253D01*
Y51411D01*
X61262D01*
Y51420D01*
X61270D01*
Y51428D01*
X61278D01*
Y51436D01*
X61286D01*
Y51444D01*
X61295D01*
Y51453D01*
X61303D01*
Y51461D01*
X61311D01*
Y51469D01*
X61319D01*
Y51477D01*
X61328D01*
Y51486D01*
X61336D01*
Y51494D01*
X61344D01*
Y51502D01*
X61353D01*
Y51511D01*
X61361D01*
Y51519D01*
X61369D01*
Y51527D01*
X61377D01*
Y51535D01*
X61386D01*
Y51544D01*
X61394D01*
Y51552D01*
X61402D01*
Y51560D01*
X61410D01*
Y51568D01*
X61419D01*
Y51577D01*
X61427D01*
Y51585D01*
X61435D01*
Y51593D01*
X61444D01*
Y51602D01*
X61452D01*
Y51610D01*
X61460D01*
Y51618D01*
X61468D01*
Y51626D01*
X61477D01*
Y51635D01*
X61485D01*
Y51643D01*
X61493D01*
Y51651D01*
X61502D01*
Y51660D01*
X61510D01*
Y51668D01*
X61518D01*
Y51676D01*
X61526D01*
Y51684D01*
X61535D01*
Y51693D01*
X61543D01*
Y51701D01*
X61551D01*
Y51709D01*
X61559D01*
Y51717D01*
X61568D01*
Y51726D01*
X61584D01*
Y51742D01*
X61593D01*
Y51751D01*
X61601D01*
Y51759D01*
X61609D01*
Y51767D01*
X61617D01*
Y51775D01*
X61626D01*
Y51784D01*
X61634D01*
Y51792D01*
X61642D01*
Y51800D01*
X61650D01*
Y51808D01*
X61659D01*
Y51817D01*
X61667D01*
Y51825D01*
X61675D01*
Y51833D01*
X61684D01*
Y51842D01*
X61692D01*
Y51850D01*
X61700D01*
Y51858D01*
X61708D01*
Y51866D01*
X61717D01*
Y51875D01*
X61725D01*
Y51883D01*
X61733D01*
Y51891D01*
X61741D01*
Y51899D01*
X61750D01*
Y51908D01*
X61758D01*
Y51916D01*
X61766D01*
Y51924D01*
X61775D01*
Y51933D01*
X61783D01*
Y51941D01*
X61791D01*
Y51949D01*
X61799D01*
Y51957D01*
X61808D01*
Y51966D01*
X61816D01*
Y51974D01*
X61824D01*
Y51982D01*
X61833D01*
Y51990D01*
X61841D01*
Y51999D01*
X61849D01*
Y52007D01*
X61857D01*
Y52015D01*
X61866D01*
Y52024D01*
X61874D01*
Y52032D01*
X61882D01*
Y52040D01*
X61890D01*
Y52048D01*
X61899D01*
Y52057D01*
X61907D01*
Y52065D01*
X61915D01*
Y52073D01*
X61924D01*
Y52082D01*
X61932D01*
Y52090D01*
X61940D01*
Y52098D01*
X61948D01*
Y52106D01*
X61957D01*
Y52115D01*
X61965D01*
Y52123D01*
X61973D01*
Y52131D01*
X61981D01*
Y52139D01*
X61990D01*
Y52148D01*
X61998D01*
Y52156D01*
X62006D01*
Y52164D01*
X62015D01*
Y52173D01*
X62023D01*
Y52181D01*
X62031D01*
Y52189D01*
X62039D01*
Y52197D01*
X62048D01*
Y52206D01*
X62056D01*
Y52214D01*
X62064D01*
Y52222D01*
X62072D01*
Y52230D01*
X62081D01*
Y52239D01*
X62089D01*
Y52247D01*
X62097D01*
Y52255D01*
X62106D01*
Y52264D01*
X62114D01*
Y52272D01*
X62122D01*
Y52280D01*
X62130D01*
Y52288D01*
X62139D01*
Y52297D01*
X62147D01*
Y52305D01*
X62155D01*
Y52313D01*
X62163D01*
Y52321D01*
X62172D01*
Y52330D01*
X62180D01*
Y52338D01*
X62188D01*
Y52346D01*
X62197D01*
Y52355D01*
X62205D01*
Y52363D01*
X62213D01*
Y52371D01*
X62221D01*
Y52379D01*
X62230D01*
Y52388D01*
X62238D01*
Y52396D01*
X62246D01*
Y52404D01*
X62255D01*
Y52412D01*
X62263D01*
Y52421D01*
X62271D01*
Y52429D01*
X62279D01*
Y52437D01*
X62288D01*
Y52446D01*
X62296D01*
Y52454D01*
X62304D01*
Y52462D01*
X62312D01*
Y52470D01*
X62321D01*
Y52479D01*
X62329D01*
Y52487D01*
X62337D01*
Y52495D01*
X62346D01*
Y52504D01*
X62354D01*
Y52512D01*
X62362D01*
Y52520D01*
X62370D01*
Y52528D01*
X62379D01*
Y52537D01*
X62387D01*
Y52545D01*
X62395D01*
Y52553D01*
X62403D01*
Y52561D01*
X62412D01*
Y52570D01*
X62420D01*
Y52578D01*
X62428D01*
Y52586D01*
X62437D01*
Y52595D01*
X62445D01*
Y52603D01*
X62453D01*
Y52611D01*
X62461D01*
Y52619D01*
X62470D01*
Y52628D01*
X62478D01*
Y52636D01*
X62486D01*
Y52644D01*
X62494D01*
Y52652D01*
X62503D01*
Y52661D01*
X62511D01*
Y52669D01*
X62519D01*
Y52677D01*
X62528D01*
Y52686D01*
X62536D01*
Y52694D01*
X62544D01*
Y52702D01*
X62552D01*
Y52710D01*
X62561D01*
Y52719D01*
X62569D01*
Y52727D01*
X62577D01*
Y52735D01*
X62585D01*
Y52743D01*
X62594D01*
Y52752D01*
X62602D01*
Y52760D01*
X62610D01*
Y52768D01*
X62619D01*
Y52777D01*
X62627D01*
Y52785D01*
X62635D01*
Y52793D01*
X62643D01*
Y52801D01*
X62652D01*
Y52810D01*
X62660D01*
Y52818D01*
X62668D01*
Y52826D01*
X62676D01*
Y52834D01*
X62685D01*
Y52843D01*
X62693D01*
Y52851D01*
X62701D01*
Y52859D01*
X62710D01*
Y52868D01*
X62718D01*
Y52876D01*
X62726D01*
Y52884D01*
X62734D01*
Y52892D01*
X62743D01*
Y52901D01*
X62751D01*
Y52909D01*
X62759D01*
Y52917D01*
X62768D01*
Y52926D01*
X62776D01*
Y52917D01*
X62784D01*
Y52909D01*
X62792D01*
Y52884D01*
X62801D01*
Y52859D01*
X62809D01*
Y52834D01*
X62817D01*
Y52810D01*
X62825D01*
Y52785D01*
X62834D01*
Y52760D01*
X62842D01*
Y52727D01*
X62850D01*
Y52710D01*
X62859D01*
Y52677D01*
X62867D01*
Y52652D01*
X62875D01*
Y52628D01*
X62883D01*
Y52603D01*
X62892D01*
Y52578D01*
X62900D01*
Y52553D01*
X62908D01*
Y52528D01*
X62916D01*
Y52504D01*
X62925D01*
Y52470D01*
X62933D01*
Y52446D01*
X62941D01*
Y52421D01*
X62950D01*
Y52396D01*
X62958D01*
Y52371D01*
X62966D01*
Y52346D01*
X62974D01*
Y52321D01*
X62983D01*
Y52297D01*
X62991D01*
Y52272D01*
X62999D01*
Y52239D01*
X63007D01*
Y52214D01*
X63016D01*
Y52189D01*
X63024D01*
Y52164D01*
X63032D01*
Y52139D01*
X63041D01*
Y52115D01*
X63049D01*
Y52090D01*
X63057D01*
Y52065D01*
X63065D01*
Y52040D01*
X63074D01*
Y52007D01*
X63082D01*
Y51982D01*
X63090D01*
Y51957D01*
X63099D01*
Y51933D01*
X63107D01*
Y51908D01*
X63115D01*
Y51883D01*
X63123D01*
Y51858D01*
X63132D01*
Y51833D01*
X63140D01*
Y51800D01*
X63148D01*
Y51784D01*
X63156D01*
Y51751D01*
X63165D01*
Y51726D01*
X63173D01*
Y51701D01*
X63181D01*
Y51676D01*
X63190D01*
Y51651D01*
X63198D01*
Y51626D01*
X63206D01*
Y51602D01*
X63214D01*
Y51568D01*
X63223D01*
Y51544D01*
X63231D01*
Y51519D01*
X63239D01*
Y51494D01*
X63247D01*
Y51469D01*
X63256D01*
Y51444D01*
X63264D01*
Y51420D01*
X63272D01*
Y51395D01*
X63281D01*
Y51370D01*
X63289D01*
Y51345D01*
X63297D01*
Y51312D01*
X63305D01*
Y51287D01*
X63314D01*
Y51262D01*
X63322D01*
Y51237D01*
X63330D01*
Y51213D01*
X63338D01*
Y51188D01*
X63347D01*
Y51163D01*
X63355D01*
Y51138D01*
X63363D01*
Y51113D01*
X63372D01*
Y51080D01*
X63380D01*
Y51055D01*
X63388D01*
Y51031D01*
X63396D01*
Y50998D01*
X63405D01*
Y50981D01*
X63413D01*
Y50956D01*
X63421D01*
Y50931D01*
X63429D01*
Y50907D01*
X63438D01*
Y50873D01*
X63446D01*
Y50857D01*
X63454D01*
Y50824D01*
X63463D01*
Y50799D01*
X63471D01*
Y50774D01*
X63479D01*
Y50749D01*
X63487D01*
Y50724D01*
X63496D01*
Y50700D01*
X63504D01*
Y50675D01*
X63512D01*
Y50650D01*
X63521D01*
Y50617D01*
X63529D01*
Y50592D01*
X63537D01*
Y50567D01*
X63545D01*
Y50542D01*
X63554D01*
Y50518D01*
X63562D01*
Y50493D01*
X63570D01*
Y50468D01*
X63578D01*
Y50443D01*
X63587D01*
Y50418D01*
X63595D01*
Y50385D01*
X63603D01*
Y50360D01*
X63612D01*
Y50336D01*
X63620D01*
Y50311D01*
X63628D01*
Y50286D01*
X63636D01*
Y50261D01*
X63645D01*
Y50236D01*
X63653D01*
Y50211D01*
X63661D01*
Y50187D01*
X63669D01*
Y50162D01*
X63678D01*
Y50129D01*
X63686D01*
Y50104D01*
X63694D01*
Y50079D01*
X63703D01*
Y50054D01*
X63711D01*
Y50029D01*
X63719D01*
Y50005D01*
X63727D01*
Y49980D01*
X63736D01*
Y49947D01*
X63744D01*
Y49930D01*
X63752D01*
Y49897D01*
X63760D01*
Y49872D01*
X63769D01*
Y49847D01*
X63777D01*
Y49823D01*
X63785D01*
Y49798D01*
X63794D01*
Y49773D01*
X63802D01*
Y49748D01*
X63810D01*
Y49723D01*
X63818D01*
Y49690D01*
X63827D01*
Y49665D01*
X63835D01*
Y49641D01*
X63843D01*
Y49616D01*
X63851D01*
Y49591D01*
X63860D01*
Y49566D01*
X63868D01*
Y49541D01*
X63876D01*
Y49508D01*
X63885D01*
Y49492D01*
X63893D01*
Y49458D01*
X63901D01*
Y49434D01*
X63909D01*
Y49409D01*
X63918D01*
Y49384D01*
X63926D01*
Y49359D01*
X63934D01*
Y49334D01*
X63943D01*
Y49310D01*
X63951D01*
Y49285D01*
X63959D01*
Y49260D01*
X63967D01*
Y49227D01*
X63976D01*
Y49202D01*
X63984D01*
Y49177D01*
X63992D01*
Y49152D01*
X64000D01*
Y49127D01*
X64009D01*
Y49103D01*
X64017D01*
Y49078D01*
X64025D01*
Y49053D01*
X64034D01*
Y49020D01*
X64042D01*
Y49003D01*
X64050D01*
Y48970D01*
X64058D01*
Y48945D01*
X64067D01*
Y48921D01*
X64075D01*
Y48896D01*
X64083D01*
Y48871D01*
X64091D01*
Y48846D01*
X64100D01*
Y48821D01*
X64108D01*
Y48788D01*
X64116D01*
Y48763D01*
X64125D01*
Y48739D01*
X64133D01*
Y48714D01*
X64141D01*
Y48689D01*
X64149D01*
Y48664D01*
X64158D01*
Y48639D01*
X64166D01*
Y48614D01*
X64174D01*
Y48590D01*
X64182D01*
Y48565D01*
X64191D01*
Y48532D01*
X64199D01*
Y48507D01*
X64207D01*
Y48482D01*
X64216D01*
Y48457D01*
X64224D01*
Y48432D01*
X64232D01*
Y48408D01*
X64240D01*
Y48383D01*
X64249D01*
Y48350D01*
X64257D01*
Y48333D01*
X64265D01*
Y48300D01*
X64273D01*
Y48275D01*
X64282D01*
Y48250D01*
X64290D01*
Y48226D01*
X64298D01*
Y48201D01*
X64307D01*
Y48176D01*
X64315D01*
Y48151D01*
X64323D01*
Y48126D01*
X64331D01*
Y48093D01*
X64340D01*
Y48068D01*
X64348D01*
Y48044D01*
X64356D01*
Y48019D01*
X64365D01*
Y47994D01*
X64373D01*
Y47969D01*
X64381D01*
Y47944D01*
X64389D01*
Y47919D01*
X64398D01*
Y47895D01*
X64406D01*
Y47870D01*
X64414D01*
Y47837D01*
X64422D01*
Y47812D01*
X64431D01*
Y47787D01*
X64439D01*
Y47762D01*
X64447D01*
Y47737D01*
X64456D01*
Y47713D01*
X64464D01*
Y47688D01*
X64472D01*
Y47655D01*
X64480D01*
Y47638D01*
X64489D01*
Y47605D01*
X64497D01*
Y47580D01*
X64505D01*
Y47555D01*
X64513D01*
Y47530D01*
X64522D01*
Y47506D01*
X64530D01*
Y47473D01*
X64538D01*
Y47464D01*
X64547D01*
Y47456D01*
X65523D01*
Y47075D01*
X65515D01*
Y47067D01*
X63959D01*
Y47084D01*
X63951D01*
Y47448D01*
X63959D01*
Y47456D01*
X64331D01*
Y47464D01*
X64340D01*
Y47489D01*
X64331D01*
Y47522D01*
X64323D01*
Y47539D01*
X64315D01*
Y47572D01*
X64307D01*
Y47597D01*
X64298D01*
Y47622D01*
X64290D01*
Y47646D01*
X64282D01*
Y47671D01*
X64273D01*
Y47696D01*
X64265D01*
Y47729D01*
X64257D01*
Y47754D01*
X64249D01*
Y47779D01*
X64240D01*
Y47804D01*
X64232D01*
Y47828D01*
X64224D01*
Y47853D01*
X64216D01*
Y47878D01*
X64207D01*
Y47911D01*
X64199D01*
Y47936D01*
X64191D01*
Y47961D01*
X64182D01*
Y47986D01*
X64174D01*
Y48010D01*
X64166D01*
Y48035D01*
X64158D01*
Y48060D01*
X64149D01*
Y48093D01*
X64141D01*
Y48118D01*
X64133D01*
Y48143D01*
X64125D01*
Y48168D01*
X64116D01*
Y48192D01*
X64108D01*
Y48217D01*
X64100D01*
Y48242D01*
X64091D01*
Y48275D01*
X64083D01*
Y48292D01*
X64075D01*
Y48325D01*
X64067D01*
Y48350D01*
X64058D01*
Y48375D01*
X64050D01*
Y48399D01*
X64042D01*
Y48424D01*
X64034D01*
Y48457D01*
X64025D01*
Y48474D01*
X64017D01*
Y48507D01*
X64009D01*
Y48532D01*
X64000D01*
Y48557D01*
X63992D01*
Y48581D01*
X63984D01*
Y48606D01*
X63976D01*
Y48631D01*
X63967D01*
Y48664D01*
X63959D01*
Y48689D01*
X63951D01*
Y48714D01*
X63943D01*
Y48739D01*
X63934D01*
Y48763D01*
X63926D01*
Y48788D01*
X63918D01*
Y48813D01*
X63909D01*
Y48846D01*
X63901D01*
Y48871D01*
X63893D01*
Y48896D01*
X63885D01*
Y48921D01*
X63876D01*
Y48945D01*
X63868D01*
Y48970D01*
X63860D01*
Y49003D01*
X63851D01*
Y49028D01*
X63843D01*
Y49053D01*
X63835D01*
Y49078D01*
X63827D01*
Y49103D01*
X63818D01*
Y49127D01*
X63810D01*
Y49152D01*
X63802D01*
Y49177D01*
X63794D01*
Y49210D01*
X63785D01*
Y49235D01*
X63777D01*
Y49260D01*
X63769D01*
Y49285D01*
X63760D01*
Y49310D01*
X63752D01*
Y49343D01*
X63744D01*
Y49359D01*
X63736D01*
Y49392D01*
X63727D01*
Y49417D01*
X63719D01*
Y49442D01*
X63711D01*
Y49467D01*
X63703D01*
Y49492D01*
X63694D01*
Y49516D01*
X63686D01*
Y49541D01*
X63678D01*
Y49574D01*
X63669D01*
Y49599D01*
X63661D01*
Y49624D01*
X63653D01*
Y49649D01*
X63645D01*
Y49674D01*
X63636D01*
Y49698D01*
X63628D01*
Y49723D01*
X63620D01*
Y49756D01*
X63612D01*
Y49781D01*
X63603D01*
Y49798D01*
X63595D01*
Y49831D01*
X63587D01*
Y49856D01*
X63578D01*
Y49880D01*
X63570D01*
Y49905D01*
X63562D01*
Y49938D01*
X63554D01*
Y49963D01*
X63545D01*
Y49988D01*
X63537D01*
Y50013D01*
X63529D01*
Y50038D01*
X63521D01*
Y50063D01*
X63512D01*
Y50096D01*
X63504D01*
Y50120D01*
X63496D01*
Y50145D01*
X63487D01*
Y50170D01*
X63479D01*
Y50195D01*
X63471D01*
Y50220D01*
X63463D01*
Y50245D01*
X63454D01*
Y50278D01*
X63446D01*
Y50302D01*
X63438D01*
Y50327D01*
X63429D01*
Y50352D01*
X63421D01*
Y50377D01*
X63413D01*
Y50402D01*
X63405D01*
Y50427D01*
X63396D01*
Y50460D01*
X63388D01*
Y50476D01*
X63380D01*
Y50509D01*
X63372D01*
Y50534D01*
X63363D01*
Y50559D01*
X63355D01*
Y50584D01*
X63347D01*
Y50609D01*
X63338D01*
Y50642D01*
X63330D01*
Y50658D01*
X63322D01*
Y50691D01*
X63314D01*
Y50716D01*
X63305D01*
Y50741D01*
X63297D01*
Y50766D01*
X63289D01*
Y50791D01*
X63281D01*
Y50815D01*
X63272D01*
Y50849D01*
X63264D01*
Y50873D01*
X63256D01*
Y50898D01*
X63247D01*
Y50923D01*
X63239D01*
Y50948D01*
X63231D01*
Y50973D01*
X63223D01*
Y50998D01*
X63214D01*
Y51031D01*
X63206D01*
Y51055D01*
X63198D01*
Y51080D01*
X63190D01*
Y51105D01*
X63181D01*
Y51130D01*
X63173D01*
Y51155D01*
X63165D01*
Y51188D01*
X63156D01*
Y51213D01*
X63148D01*
Y51237D01*
X63140D01*
Y51262D01*
X63132D01*
Y51287D01*
X63123D01*
Y51312D01*
X63115D01*
Y51337D01*
X63107D01*
Y51362D01*
X63099D01*
Y51395D01*
X63090D01*
Y51420D01*
X63082D01*
Y51444D01*
X63074D01*
Y51469D01*
X63065D01*
Y51494D01*
X63057D01*
Y51519D01*
X63049D01*
Y51544D01*
X63041D01*
Y51577D01*
X63032D01*
Y51602D01*
X63024D01*
Y51626D01*
X63016D01*
Y51651D01*
X63007D01*
Y51676D01*
X62999D01*
Y51701D01*
X62991D01*
Y51726D01*
X62983D01*
Y51751D01*
X62958D01*
Y51734D01*
X62950D01*
Y51726D01*
X62933D01*
Y51717D01*
X62925D01*
Y51709D01*
X62916D01*
Y51701D01*
X62908D01*
Y51693D01*
X62900D01*
Y51684D01*
X62892D01*
Y51676D01*
X62883D01*
Y51668D01*
X62875D01*
Y51660D01*
X62867D01*
Y51651D01*
X62859D01*
Y51643D01*
X62842D01*
Y51635D01*
X62834D01*
Y51626D01*
X62825D01*
Y51618D01*
X62817D01*
Y51610D01*
X62809D01*
Y51602D01*
X62801D01*
Y51593D01*
X62792D01*
Y51585D01*
X62784D01*
Y51577D01*
X62776D01*
Y51568D01*
X62759D01*
Y51560D01*
X62751D01*
Y51552D01*
X62743D01*
Y51544D01*
X62734D01*
Y51535D01*
X62726D01*
Y51527D01*
X62718D01*
Y51519D01*
X62710D01*
Y51511D01*
X62701D01*
Y51502D01*
X62693D01*
Y51494D01*
X62685D01*
Y51486D01*
X62676D01*
Y51477D01*
X62660D01*
Y51469D01*
X62652D01*
Y51461D01*
X62643D01*
Y51453D01*
X62635D01*
Y51444D01*
X62627D01*
Y51436D01*
X62619D01*
Y51428D01*
X62610D01*
Y51420D01*
X62602D01*
Y51411D01*
X62594D01*
Y51403D01*
X62585D01*
Y51395D01*
X62569D01*
Y51386D01*
X62561D01*
Y51378D01*
X62552D01*
Y51370D01*
X62544D01*
Y51362D01*
X62536D01*
Y51353D01*
X62528D01*
Y51345D01*
X62519D01*
Y51337D01*
X62511D01*
Y51329D01*
X62503D01*
Y51320D01*
X62486D01*
Y51312D01*
X62478D01*
Y51304D01*
X62470D01*
Y51295D01*
X62461D01*
Y51287D01*
X62453D01*
Y51279D01*
X62445D01*
Y51271D01*
X62437D01*
Y51262D01*
X62428D01*
Y51254D01*
X62420D01*
Y51246D01*
X62412D01*
Y51237D01*
X62403D01*
Y51229D01*
X62387D01*
Y51221D01*
X62379D01*
Y51213D01*
X62370D01*
Y51204D01*
X62362D01*
Y51196D01*
X62354D01*
Y51188D01*
X62346D01*
Y51180D01*
X62337D01*
Y51171D01*
X62329D01*
Y51163D01*
X62321D01*
Y51155D01*
X62304D01*
Y51146D01*
X62296D01*
Y51138D01*
X62288D01*
Y51130D01*
X62279D01*
Y51122D01*
X62271D01*
Y51113D01*
X62263D01*
Y51105D01*
X62255D01*
Y51097D01*
X62246D01*
Y51089D01*
X62238D01*
Y51080D01*
X62230D01*
Y51072D01*
X62221D01*
Y51064D01*
X62205D01*
Y51055D01*
X62197D01*
Y51047D01*
X62188D01*
Y51039D01*
X62180D01*
Y51031D01*
X62172D01*
Y51022D01*
X62163D01*
Y51014D01*
X62155D01*
Y51006D01*
X62147D01*
Y50998D01*
X62139D01*
Y50989D01*
X62122D01*
Y50973D01*
X62106D01*
Y50964D01*
X62097D01*
Y50956D01*
X62089D01*
Y50948D01*
X62081D01*
Y50940D01*
X62072D01*
Y50931D01*
X62064D01*
Y50923D01*
X62056D01*
Y50915D01*
X62048D01*
Y50907D01*
X62031D01*
Y50898D01*
X62023D01*
Y50890D01*
X62015D01*
Y50882D01*
X62006D01*
Y50873D01*
X61998D01*
Y50865D01*
X61990D01*
Y50857D01*
X61981D01*
Y50849D01*
X61973D01*
Y50840D01*
X61965D01*
Y50832D01*
X61957D01*
Y50824D01*
X61948D01*
Y50815D01*
X61932D01*
Y50807D01*
X61924D01*
Y50799D01*
X61915D01*
Y50791D01*
X61907D01*
Y50782D01*
X61899D01*
Y50774D01*
X61890D01*
Y50766D01*
X61882D01*
Y50758D01*
X61874D01*
Y50749D01*
X61866D01*
Y50741D01*
X61849D01*
Y50733D01*
X61841D01*
Y50724D01*
X61833D01*
Y50716D01*
X61824D01*
Y50708D01*
X61816D01*
Y50700D01*
X61808D01*
Y50691D01*
X61799D01*
Y50683D01*
X61791D01*
Y50675D01*
X61783D01*
Y50667D01*
X61775D01*
Y50658D01*
X61766D01*
Y50650D01*
X61750D01*
Y50642D01*
X61741D01*
Y50633D01*
X61733D01*
Y50625D01*
X61725D01*
Y50617D01*
X61717D01*
Y50609D01*
X61708D01*
Y50600D01*
X61700D01*
Y50592D01*
X61692D01*
Y50584D01*
X61684D01*
Y50576D01*
X61667D01*
Y50567D01*
X61659D01*
Y50559D01*
X61650D01*
Y50551D01*
X61642D01*
Y50542D01*
X61634D01*
Y50534D01*
X61626D01*
Y50526D01*
X61617D01*
Y50518D01*
X61609D01*
Y50509D01*
X61601D01*
Y50501D01*
X61593D01*
Y50493D01*
X61576D01*
Y50485D01*
X61568D01*
Y50476D01*
X61559D01*
Y50468D01*
X61551D01*
Y50460D01*
X61543D01*
Y50451D01*
X61535D01*
Y50443D01*
X61526D01*
Y50435D01*
X61518D01*
Y50427D01*
X61510D01*
Y50418D01*
X61502D01*
Y50410D01*
X61485D01*
Y50402D01*
X61477D01*
Y50393D01*
X61468D01*
Y50385D01*
X61460D01*
Y50377D01*
X61452D01*
Y50369D01*
X61444D01*
Y50360D01*
X61435D01*
Y50352D01*
X61427D01*
Y50344D01*
X61419D01*
Y50336D01*
X61410D01*
Y50327D01*
X61394D01*
Y50319D01*
X61386D01*
Y50311D01*
X61377D01*
Y50302D01*
X61369D01*
Y50294D01*
X61361D01*
Y50286D01*
X61353D01*
Y50278D01*
X61344D01*
Y50269D01*
X61336D01*
Y50261D01*
X61328D01*
Y50253D01*
X61319D01*
Y50245D01*
X61311D01*
Y50236D01*
X61295D01*
Y50228D01*
X61286D01*
Y50220D01*
X61278D01*
Y50211D01*
X61270D01*
Y50203D01*
X61262D01*
Y50195D01*
X61253D01*
Y50187D01*
X61245D01*
Y50178D01*
X61237D01*
Y50170D01*
X61220D01*
Y50162D01*
X61212D01*
Y50154D01*
X61204D01*
Y50145D01*
X61195D01*
Y50137D01*
X61187D01*
Y50129D01*
X61179D01*
Y50120D01*
X61171D01*
Y50112D01*
X61162D01*
Y50104D01*
X61154D01*
Y50096D01*
X61146D01*
Y50087D01*
X61137D01*
Y50079D01*
X61121D01*
Y50071D01*
X61113D01*
Y50063D01*
X61104D01*
Y50054D01*
X61096D01*
Y50046D01*
X61088D01*
Y50038D01*
X61080D01*
Y50029D01*
X61071D01*
Y50021D01*
X61063D01*
Y50013D01*
X61055D01*
Y50005D01*
X61038D01*
Y49996D01*
X61030D01*
Y49988D01*
X61022D01*
Y49980D01*
X61013D01*
Y49971D01*
X61005D01*
Y49963D01*
X60997D01*
Y49955D01*
X60988D01*
Y49947D01*
X60980D01*
Y49938D01*
X60972D01*
Y49930D01*
X60964D01*
Y49922D01*
X60955D01*
Y49914D01*
X60939D01*
Y49905D01*
X60931D01*
Y49897D01*
X60922D01*
Y49889D01*
X60914D01*
Y49880D01*
X60906D01*
Y49872D01*
X60897D01*
Y49864D01*
X60889D01*
Y49856D01*
X60881D01*
Y49847D01*
X60873D01*
Y49839D01*
X60864D01*
Y49831D01*
X60848D01*
Y49823D01*
X60840D01*
Y49814D01*
X60831D01*
Y49789D01*
X60823D01*
Y49773D01*
X60831D01*
Y47291D01*
X60823D01*
Y47274D01*
X60831D01*
Y47266D01*
X60848D01*
Y47257D01*
X60864D01*
Y47266D01*
X61568D01*
Y47257D01*
X61576D01*
Y47266D01*
X61601D01*
Y47257D01*
X61609D01*
Y46877D01*
X61593D01*
Y46869D01*
X61584D01*
Y46877D01*
X60467D01*
Y46869D01*
X60451D01*
Y46877D01*
X60442D01*
Y46885D01*
X60434D01*
Y53712D01*
X60451D01*
Y53720D01*
X60459D01*
Y53712D01*
D02*
G37*
G36*
X65515Y46662D02*
X65523D01*
Y46298D01*
X65515D01*
Y46289D01*
X54965D01*
Y46298D01*
X54956D01*
Y46662D01*
X54965D01*
Y46678D01*
X65515D01*
Y46662D01*
D02*
G37*
%LPC*%
G36*
X63318Y40841D02*
X62091D01*
Y38387D01*
X63318D01*
Y40841D01*
D02*
G37*
%LPD*%
D19*
X12417Y22155D02*
X11417D01*
X11917Y22655D02*
Y21655D01*
X12417Y27905D02*
X11417D01*
X11917Y28405D02*
Y27405D01*
D44*
X82000Y87250D02*
G03*
X78500Y90750I-3500J0D01*
G01*
X20500D02*
G03*
X17000Y87250I0J-3500D01*
G01*
Y64250D02*
G03*
X20500Y60750I3500J0D01*
G01*
X78500D02*
G03*
X82000Y64250I0J3500D01*
G01*
X20850Y5000D02*
X21650D01*
X17000Y64250D02*
Y87250D01*
X20500Y60750D02*
X78500D01*
X82000Y64250D02*
Y87250D01*
X20500Y90750D02*
X78500D01*
X75750Y55910D02*
Y56710D01*
X78500Y55910D02*
Y56710D01*
X74850Y50500D02*
X75650D01*
X76350D02*
X77150D01*
X52660Y88250D02*
X53460D01*
X10020Y37960D02*
Y43040D01*
X7480Y43040D02*
X10020D01*
X7480Y37960D02*
Y43040D01*
X7480Y37960D02*
X10020D01*
X14750Y41600D02*
Y42400D01*
X11750Y30100D02*
Y30900D01*
X25000Y21600D02*
Y22400D01*
X50500Y10770D02*
Y11570D01*
Y15850D02*
Y16650D01*
X78500Y53370D02*
Y54170D01*
X20000Y48100D02*
Y48900D01*
X10230Y37980D02*
Y43060D01*
X10230Y37980D02*
X12770D01*
X12770Y37980D02*
Y43060D01*
X10230Y43060D02*
X12770D01*
X14750Y38600D02*
Y39400D01*
X25000Y48870D02*
Y49670D01*
X50500Y23470D02*
Y24270D01*
Y18390D02*
Y19190D01*
X11750Y32350D02*
Y33150D01*
X14750Y40100D02*
Y40900D01*
X25000Y36850D02*
Y37650D01*
Y51410D02*
Y52210D01*
Y43100D02*
Y43900D01*
X8000Y51100D02*
Y51900D01*
Y48100D02*
Y48900D01*
X25000Y27600D02*
Y28400D01*
Y23100D02*
Y23900D01*
X10250Y15600D02*
Y16400D01*
X25000Y24600D02*
Y25400D01*
X65498Y33050D02*
Y32050D01*
X64998D01*
X64832Y32217D01*
Y32883D01*
X64998Y33050D01*
X65498D01*
X63999Y32050D02*
X64332D01*
X64499Y32217D01*
Y32550D01*
X64332Y32717D01*
X63999D01*
X63832Y32550D01*
Y32384D01*
X64499D01*
X63499Y32050D02*
X62999D01*
X62833Y32217D01*
X62999Y32384D01*
X63332D01*
X63499Y32550D01*
X63332Y32717D01*
X62833D01*
X62499Y32050D02*
X62166D01*
X62333D01*
Y32717D01*
X62499D01*
X61333Y31717D02*
X61166D01*
X61000Y31884D01*
Y32717D01*
X61500D01*
X61666Y32550D01*
Y32217D01*
X61500Y32050D01*
X61000D01*
X60667D02*
Y32717D01*
X60167D01*
X60000Y32550D01*
Y32050D01*
X59167D02*
X59500D01*
X59667Y32217D01*
Y32550D01*
X59500Y32717D01*
X59167D01*
X59000Y32550D01*
Y32384D01*
X59667D01*
X58001Y33050D02*
Y32050D01*
X58501D01*
X58667Y32217D01*
Y32550D01*
X58501Y32717D01*
X58001D01*
X56668Y33050D02*
Y32050D01*
X56168D01*
X56001Y32217D01*
Y32384D01*
Y32550D01*
X56168Y32717D01*
X56668D01*
X55668D02*
Y32217D01*
X55502Y32050D01*
X55002D01*
Y31884D01*
X55168Y31717D01*
X55335D01*
X55002Y32050D02*
Y32717D01*
X68331Y30037D02*
Y31037D01*
X67831D01*
X67664Y30871D01*
Y30537D01*
X67831Y30371D01*
X68331D01*
X67997D02*
X67664Y30037D01*
X67331Y30704D02*
Y30204D01*
X67164Y30037D01*
X66665D01*
Y30704D01*
X66331Y30037D02*
X65832D01*
X65665Y30204D01*
X65832Y30371D01*
X66165D01*
X66331Y30537D01*
X66165Y30704D01*
X65665D01*
X65332Y30037D02*
X64832D01*
X64665Y30204D01*
X64832Y30371D01*
X65165D01*
X65332Y30537D01*
X65165Y30704D01*
X64665D01*
X63832Y30037D02*
X64165D01*
X64332Y30204D01*
Y30537D01*
X64165Y30704D01*
X63832D01*
X63666Y30537D01*
Y30371D01*
X64332D01*
X63332Y30037D02*
X62999D01*
X63166D01*
Y31037D01*
X63332D01*
X62499Y30037D02*
X62166D01*
X62333D01*
Y31037D01*
X62499D01*
X60667Y30037D02*
Y31037D01*
X60333Y30704D01*
X60000Y31037D01*
Y30037D01*
X59500Y30704D02*
X59167D01*
X59000Y30537D01*
Y30037D01*
X59500D01*
X59667Y30204D01*
X59500Y30371D01*
X59000D01*
X58001Y30704D02*
X58501D01*
X58667Y30537D01*
Y30204D01*
X58501Y30037D01*
X58001D01*
X57001Y30871D02*
X57168Y31037D01*
X57501D01*
X57667Y30871D01*
Y30204D01*
X57501Y30037D01*
X57168D01*
X57001Y30204D01*
Y30537D01*
X57334D01*
X56668Y30704D02*
Y30037D01*
Y30371D01*
X56501Y30537D01*
X56335Y30704D01*
X56168D01*
X55168Y30037D02*
X55502D01*
X55668Y30204D01*
Y30537D01*
X55502Y30704D01*
X55168D01*
X55002Y30537D01*
Y30371D01*
X55668D01*
X54335Y29704D02*
X54169D01*
X54002Y29871D01*
Y30704D01*
X54502D01*
X54668Y30537D01*
Y30204D01*
X54502Y30037D01*
X54002D01*
X53502D02*
X53169D01*
X53002Y30204D01*
Y30537D01*
X53169Y30704D01*
X53502D01*
X53669Y30537D01*
Y30204D01*
X53502Y30037D01*
X52669Y30704D02*
Y30037D01*
Y30371D01*
X52502Y30537D01*
X52336Y30704D01*
X52169D01*
X20450Y4500D02*
Y5500D01*
X19950D01*
X19784Y5333D01*
Y5000D01*
X19950Y4833D01*
X20450D01*
X20117D02*
X19784Y4500D01*
X18784D02*
X19450D01*
X18784Y5167D01*
Y5333D01*
X18950Y5500D01*
X19284D01*
X19450Y5333D01*
X18451Y4500D02*
X18117D01*
X18284D01*
Y5500D01*
X18451Y5333D01*
X78000Y57110D02*
X79000D01*
Y57610D01*
X78833Y57776D01*
X78500D01*
X78333Y57610D01*
Y57110D01*
Y57443D02*
X78000Y57776D01*
X79000Y58776D02*
X78833Y58443D01*
X78500Y58110D01*
X78167D01*
X78000Y58276D01*
Y58610D01*
X78167Y58776D01*
X78333D01*
X78500Y58610D01*
Y58110D01*
X76250Y46384D02*
X77250D01*
Y46884D01*
X77083Y47050D01*
X76750D01*
X76583Y46884D01*
Y46384D01*
Y46717D02*
X76250Y47050D01*
X77083Y47384D02*
X77250Y47550D01*
Y47883D01*
X77083Y48050D01*
X76917D01*
X76750Y47883D01*
X76583Y48050D01*
X76417D01*
X76250Y47883D01*
Y47550D01*
X76417Y47384D01*
X76583D01*
X76750Y47550D01*
X76917Y47384D01*
X77083D01*
X76750Y47550D02*
Y47883D01*
X76083Y57776D02*
X76250Y57610D01*
Y57277D01*
X76083Y57110D01*
X75417D01*
X75250Y57277D01*
Y57610D01*
X75417Y57776D01*
X76083Y58110D02*
X76250Y58276D01*
Y58610D01*
X76083Y58776D01*
X75917D01*
X75750Y58610D01*
Y58443D01*
Y58610D01*
X75583Y58776D01*
X75417D01*
X75250Y58610D01*
Y58276D01*
X75417Y58110D01*
X75583Y47050D02*
X75750Y46884D01*
Y46550D01*
X75583Y46384D01*
X74917D01*
X74750Y46550D01*
Y46884D01*
X74917Y47050D01*
X75750Y48050D02*
X75583Y47717D01*
X75250Y47384D01*
X74917D01*
X74750Y47550D01*
Y47883D01*
X74917Y48050D01*
X75083D01*
X75250Y47883D01*
Y47384D01*
X52260Y87750D02*
Y88750D01*
X51760D01*
X51594Y88583D01*
Y88250D01*
X51760Y88083D01*
X52260D01*
X51927D02*
X51594Y87750D01*
X50594Y88750D02*
X51260D01*
Y88250D01*
X50927Y88417D01*
X50760D01*
X50594Y88250D01*
Y87917D01*
X50760Y87750D01*
X51094D01*
X51260Y87917D01*
X14775Y42800D02*
X15775D01*
Y43300D01*
X15608Y43466D01*
X15275D01*
X15109Y43300D01*
Y42800D01*
Y43133D02*
X14775Y43466D01*
Y43800D02*
Y44133D01*
Y43966D01*
X15775D01*
X15608Y43800D01*
X14775Y45299D02*
Y44633D01*
X15442Y45299D01*
X15608D01*
X15775Y45133D01*
Y44799D01*
X15608Y44633D01*
X51833Y11970D02*
Y12970D01*
X51333D01*
X51166Y12803D01*
Y12470D01*
X51333Y12303D01*
X51833D01*
X51500D02*
X51166Y11970D01*
X50167D02*
X50833D01*
X50167Y12636D01*
Y12803D01*
X50333Y12970D01*
X50667D01*
X50833Y12803D01*
X49834D02*
X49667Y12970D01*
X49334D01*
X49167Y12803D01*
Y12137D01*
X49334Y11970D01*
X49667D01*
X49834Y12137D01*
Y12803D01*
X75384Y54083D02*
X75550Y54250D01*
X75883D01*
X76050Y54083D01*
Y53417D01*
X75883Y53250D01*
X75550D01*
X75384Y53417D01*
X74550Y53250D02*
Y54250D01*
X75050Y53750D01*
X74384D01*
X54424Y23370D02*
Y24370D01*
X53924D01*
X53758Y24203D01*
Y23870D01*
X53924Y23703D01*
X54424D01*
X54091D02*
X53758Y23370D01*
X53425D02*
X53091D01*
X53258D01*
Y24370D01*
X53425Y24203D01*
X51925Y24370D02*
X52258Y24203D01*
X52591Y23870D01*
Y23537D01*
X52425Y23370D01*
X52092D01*
X51925Y23537D01*
Y23703D01*
X52092Y23870D01*
X52591D01*
X54424Y18290D02*
Y19290D01*
X53924D01*
X53758Y19123D01*
Y18790D01*
X53924Y18623D01*
X54424D01*
X54091D02*
X53758Y18290D01*
X53425D02*
X53091D01*
X53258D01*
Y19290D01*
X53425Y19123D01*
X52591D02*
X52425Y19290D01*
X52092D01*
X51925Y19123D01*
Y18957D01*
X52092Y18790D01*
X51925Y18623D01*
Y18457D01*
X52092Y18290D01*
X52425D01*
X52591Y18457D01*
Y18623D01*
X52425Y18790D01*
X52591Y18957D01*
Y19123D01*
X52425Y18790D02*
X52092D01*
X83866Y90550D02*
Y89717D01*
X83700Y89550D01*
X83366D01*
X83200Y89717D01*
Y90550D01*
X82866Y90383D02*
X82700Y90550D01*
X82367D01*
X82200Y90383D01*
Y90217D01*
X82367Y90050D01*
X82533D01*
X82367D01*
X82200Y89884D01*
Y89717D01*
X82367Y89550D01*
X82700D01*
X82866Y89717D01*
X54424Y15750D02*
Y16750D01*
X53924D01*
X53758Y16583D01*
Y16250D01*
X53924Y16083D01*
X54424D01*
X54091D02*
X53758Y15750D01*
X53425D02*
X53091D01*
X53258D01*
Y16750D01*
X53425Y16583D01*
X52591Y15917D02*
X52425Y15750D01*
X52092D01*
X51925Y15917D01*
Y16583D01*
X52092Y16750D01*
X52425D01*
X52591Y16583D01*
Y16417D01*
X52425Y16250D01*
X51925D01*
X21250Y46700D02*
Y47700D01*
X20750D01*
X20583Y47533D01*
Y47200D01*
X20750Y47034D01*
X21250D01*
X20916D02*
X20583Y46700D01*
X20250D02*
X19917D01*
X20083D01*
Y47700D01*
X20250Y47533D01*
X19417D02*
X19250Y47700D01*
X18917D01*
X18750Y47533D01*
Y46867D01*
X18917Y46700D01*
X19250D01*
X19417Y46867D01*
Y47533D01*
X23575Y43000D02*
Y44000D01*
X23075D01*
X22909Y43833D01*
Y43500D01*
X23075Y43333D01*
X23575D01*
X23242D02*
X22909Y43000D01*
X22575D02*
X22242D01*
X22409D01*
Y44000D01*
X22575Y43833D01*
X21742Y43000D02*
X21409D01*
X21576D01*
Y44000D01*
X21742Y43833D01*
X25833Y52610D02*
Y53610D01*
X25333D01*
X25167Y53443D01*
Y53110D01*
X25333Y52943D01*
X25833D01*
X25500D02*
X25167Y52610D01*
X24833Y53610D02*
X24167D01*
Y53443D01*
X24833Y52777D01*
Y52610D01*
X25833Y47470D02*
Y48470D01*
X25333D01*
X25167Y48303D01*
Y47970D01*
X25333Y47804D01*
X25833D01*
X25500D02*
X25167Y47470D01*
X24833Y47637D02*
X24667Y47470D01*
X24334D01*
X24167Y47637D01*
Y48303D01*
X24334Y48470D01*
X24667D01*
X24833Y48303D01*
Y48137D01*
X24667Y47970D01*
X24167D01*
X18674Y38500D02*
Y39500D01*
X18174D01*
X18008Y39333D01*
Y39000D01*
X18174Y38833D01*
X18674D01*
X18341D02*
X18008Y38500D01*
X17675D02*
X17341D01*
X17508D01*
Y39500D01*
X17675Y39333D01*
X16342Y38500D02*
Y39500D01*
X16841Y39000D01*
X16175D01*
X18674Y40000D02*
Y41000D01*
X18174D01*
X18008Y40833D01*
Y40500D01*
X18174Y40333D01*
X18674D01*
X18341D02*
X18008Y40000D01*
X17675D02*
X17341D01*
X17508D01*
Y41000D01*
X17675Y40833D01*
X16841D02*
X16675Y41000D01*
X16342D01*
X16175Y40833D01*
Y40667D01*
X16342Y40500D01*
X16508D01*
X16342D01*
X16175Y40333D01*
Y40167D01*
X16342Y40000D01*
X16675D01*
X16841Y40167D01*
X23575Y23000D02*
Y24000D01*
X23075D01*
X22909Y23833D01*
Y23500D01*
X23075Y23333D01*
X23575D01*
X23242D02*
X22909Y23000D01*
X22575D02*
X22242D01*
X22409D01*
Y24000D01*
X22575Y23833D01*
X21742Y24000D02*
X21076D01*
Y23833D01*
X21742Y23167D01*
Y23000D01*
X23575Y24500D02*
Y25500D01*
X23075D01*
X22909Y25333D01*
Y25000D01*
X23075Y24833D01*
X23575D01*
X23242D02*
X22909Y24500D01*
X22575D02*
X22242D01*
X22409D01*
Y25500D01*
X22575Y25333D01*
X21076Y25500D02*
X21742D01*
Y25000D01*
X21409Y25167D01*
X21242D01*
X21076Y25000D01*
Y24667D01*
X21242Y24500D01*
X21576D01*
X21742Y24667D01*
X8167Y47533D02*
X8333Y47700D01*
X8666D01*
X8833Y47533D01*
Y46867D01*
X8666Y46700D01*
X8333D01*
X8167Y46867D01*
X7833Y47700D02*
X7167D01*
Y47533D01*
X7833Y46867D01*
Y46700D01*
X8167Y53133D02*
X8333Y53300D01*
X8666D01*
X8833Y53133D01*
Y52467D01*
X8666Y52300D01*
X8333D01*
X8167Y52467D01*
X7167Y53300D02*
X7833D01*
Y52800D01*
X7500Y52966D01*
X7334D01*
X7167Y52800D01*
Y52467D01*
X7334Y52300D01*
X7667D01*
X7833Y52467D01*
X25167Y38883D02*
X25333Y39050D01*
X25666D01*
X25833Y38883D01*
Y38217D01*
X25666Y38050D01*
X25333D01*
X25167Y38217D01*
X24833Y38883D02*
X24667Y39050D01*
X24334D01*
X24167Y38883D01*
Y38716D01*
X24334Y38550D01*
X24167Y38383D01*
Y38217D01*
X24334Y38050D01*
X24667D01*
X24833Y38217D01*
Y38383D01*
X24667Y38550D01*
X24833Y38716D01*
Y38883D01*
X24667Y38550D02*
X24334D01*
X22909Y22333D02*
X23075Y22500D01*
X23408D01*
X23575Y22333D01*
Y21667D01*
X23408Y21500D01*
X23075D01*
X22909Y21667D01*
X22575Y21500D02*
X22242D01*
X22409D01*
Y22500D01*
X22575Y22333D01*
X21242Y21500D02*
Y22500D01*
X21742Y22000D01*
X21076D01*
X8134Y33083D02*
X8300Y33250D01*
X8633D01*
X8800Y33083D01*
Y32417D01*
X8633Y32250D01*
X8300D01*
X8134Y32417D01*
X7800D02*
X7634Y32250D01*
X7300D01*
X7134Y32417D01*
Y33083D01*
X7300Y33250D01*
X7634D01*
X7800Y33083D01*
Y32917D01*
X7634Y32750D01*
X7134D01*
X8134Y30783D02*
X8300Y30950D01*
X8633D01*
X8800Y30783D01*
Y30117D01*
X8633Y29950D01*
X8300D01*
X8134Y30117D01*
X7800Y29950D02*
X7467D01*
X7634D01*
Y30950D01*
X7800Y30783D01*
X6967D02*
X6801Y30950D01*
X6467D01*
X6301Y30783D01*
Y30117D01*
X6467Y29950D01*
X6801D01*
X6967Y30117D01*
Y30783D01*
X25583Y29633D02*
X25750Y29800D01*
X26083D01*
X26250Y29633D01*
Y28967D01*
X26083Y28800D01*
X25750D01*
X25583Y28967D01*
X25250Y28800D02*
X24917D01*
X25083D01*
Y29800D01*
X25250Y29633D01*
X23750Y28800D02*
X24417D01*
X23750Y29466D01*
Y29633D01*
X23917Y29800D01*
X24250D01*
X24417Y29633D01*
X10833Y15033D02*
X11000Y15200D01*
X11333D01*
X11500Y15033D01*
Y14367D01*
X11333Y14200D01*
X11000D01*
X10833Y14367D01*
X10500Y14200D02*
X10167D01*
X10333D01*
Y15200D01*
X10500Y15033D01*
X9000Y15200D02*
X9667D01*
Y14700D01*
X9334Y14867D01*
X9167D01*
X9000Y14700D01*
Y14367D01*
X9167Y14200D01*
X9500D01*
X9667Y14367D01*
X1633Y25583D02*
X1800Y25417D01*
Y25084D01*
X1633Y24917D01*
X967D01*
X800Y25084D01*
Y25417D01*
X967Y25583D01*
X800Y25917D02*
Y26250D01*
Y26083D01*
X1800D01*
X1633Y25917D01*
X800Y26750D02*
Y27083D01*
Y26916D01*
X1800D01*
X1633Y26750D01*
Y19667D02*
X1800Y19500D01*
Y19167D01*
X1633Y19000D01*
X967D01*
X800Y19167D01*
Y19500D01*
X967Y19667D01*
X800Y20000D02*
Y20333D01*
Y20167D01*
X1800D01*
X1633Y20000D01*
Y20833D02*
X1800Y21000D01*
Y21333D01*
X1633Y21500D01*
X1467D01*
X1300Y21333D01*
Y21166D01*
Y21333D01*
X1134Y21500D01*
X967D01*
X800Y21333D01*
Y21000D01*
X967Y20833D01*
D45*
X6650Y18000D02*
X10500D01*
X11500Y19000D01*
X6650Y22500D02*
X10500D01*
X11500Y21500D01*
X6650D02*
Y22500D01*
Y18000D02*
Y19000D01*
Y23750D02*
X10500D01*
X11500Y24750D01*
X6650Y28250D02*
X10500D01*
X11500Y27250D01*
X6650D02*
Y28250D01*
Y23750D02*
Y24750D01*
D48*
X4496Y90004D02*
X5004Y89496D01*
X3996D02*
X4504Y90004D01*
Y88304D02*
Y90004D01*
X86500Y74500D02*
X93750D01*
X86500Y74500D02*
X87008Y75008D01*
X93750Y81750D02*
X94258Y81242D01*
X93250D02*
X93758Y81750D01*
X93750Y74500D02*
Y81750D01*
X86500Y74508D02*
X87008Y74000D01*
D49*
X5504Y85896D02*
Y87096D01*
X5104Y86696D01*
X4704Y87096D01*
Y85896D01*
X4304Y86896D02*
X4104Y87096D01*
X3705D01*
X3505Y86896D01*
Y86696D01*
X3705Y86496D01*
X3905D01*
X3705D01*
X3505Y86296D01*
Y86096D01*
X3705Y85896D01*
X4104D01*
X4304Y86096D01*
X92324Y73000D02*
X92124Y72800D01*
X91724D01*
X91525Y73000D01*
Y73800D01*
X91724Y74000D01*
X92124D01*
X92324Y73800D01*
Y73600D01*
X92124Y73400D01*
X91525D01*
X91125Y73000D02*
X90925Y72800D01*
X90525D01*
X90325Y73000D01*
Y73800D01*
X90525Y74000D01*
X90925D01*
X91125Y73800D01*
Y73600D01*
X90925Y73400D01*
X90325D01*
X89925Y72800D02*
Y73600D01*
X89725D01*
X89525Y73400D01*
Y72800D01*
Y73400D01*
X89325Y73600D01*
X89125Y73400D01*
Y72800D01*
X88725D02*
Y73600D01*
X88526D01*
X88326Y73400D01*
Y72800D01*
Y73400D01*
X88126Y73600D01*
X87926Y73400D01*
Y72800D01*
X93000Y78250D02*
Y77050D01*
X92400D01*
X92200Y77250D01*
Y77450D01*
X92400Y77650D01*
X93000D01*
X92400D01*
X92200Y77850D01*
Y78050D01*
X92400Y78250D01*
X93000D01*
X91600Y77050D02*
X91201D01*
X91001Y77250D01*
Y77650D01*
X91201Y77850D01*
X91600D01*
X91800Y77650D01*
Y77250D01*
X91600Y77050D01*
X90401Y77850D02*
X90001D01*
X89801Y77650D01*
Y77050D01*
X90401D01*
X90601Y77250D01*
X90401Y77450D01*
X89801D01*
X89401Y77850D02*
Y77050D01*
Y77450D01*
X89201Y77650D01*
X89001Y77850D01*
X88801D01*
X87402Y78250D02*
Y77050D01*
X88002D01*
X88202Y77250D01*
Y77650D01*
X88002Y77850D01*
X87402D01*
X93000Y76450D02*
Y75250D01*
X92400D01*
X92200Y75450D01*
Y76250D01*
X92400Y76450D01*
X93000D01*
X91800Y75250D02*
X91401D01*
X91600D01*
Y76050D01*
X91800D01*
X90801Y75250D02*
Y76050D01*
X90601D01*
X90401Y75850D01*
Y75250D01*
Y75850D01*
X90201Y76050D01*
X90001Y75850D01*
Y75250D01*
X94700Y74826D02*
X94500Y75026D01*
Y75426D01*
X94700Y75626D01*
X95500D01*
X95700Y75426D01*
Y75026D01*
X95500Y74826D01*
X95300D01*
X95100Y75026D01*
Y75626D01*
X94700Y76026D02*
X94500Y76226D01*
Y76625D01*
X94700Y76825D01*
X95500D01*
X95700Y76625D01*
Y76226D01*
X95500Y76026D01*
X95300D01*
X95100Y76226D01*
Y76825D01*
X94500Y77225D02*
X95300D01*
Y77425D01*
X95100Y77625D01*
X94500D01*
X95100D01*
X95300Y77825D01*
X95100Y78025D01*
X94500D01*
Y78425D02*
X95300D01*
Y78625D01*
X95100Y78825D01*
X94500D01*
X95100D01*
X95300Y79025D01*
X95100Y79225D01*
X94500D01*
%TF.MD5,93f1d58befbbcef7234c5551fb687c3a*%
M02*
