M48
;Layer_Color=9474304
;FILE_FORMAT=4:3
METRIC,LZ
;TYPE=PLATED
T01F00S00C0.300
T02F00S00C0.750
T03F00S00C0.762
T04F00S00C0.800
T05F00S00C0.810
T06F00S00C0.850
T07F00S00C0.900
T08F00S00C1.000
T09F00S00C1.300
T10F00S00C1.600
T11F00S00C1.850
T12F00S00C1.900
T13F00S00C2.500
T14F00S00C3.000
T15F00S00C3.500
%
T01
X0025Y000435
Y000615
X004425Y00115
X00655Y000775
X007525Y004875
X007675
Y005375
X002425Y00505
X002175Y00485
X001825Y004845
X001825Y005
X001825Y00515
Y00415
X00165Y0042
X00155Y003775
X00154Y003275
X001825Y003275
X00215Y003275
X0022135Y002825
X0019595
X002675Y0028
X002575Y002625
Y002075
Y0036
X0022135Y003725
X002525Y00415
X002425Y004475
X0014Y0045
X0014Y004325
X0014Y005
X000975Y005
Y00486
Y005155
X000625Y00515
Y00485
X000875Y0037
X000975Y003275
Y003045
X00135Y00305
Y003275
X000705Y0026
Y002025
X000825Y0016
X003175Y00545
X002512Y00775
X00545Y0067
X0057Y00615
Y00565
X00545Y009275
X00945Y008625
T02
X0072781Y004869
Y005123
Y005377
X0080719
Y005123
Y004869
Y005631
X0072781
T03
X002911Y000355
Y000609
Y000863
Y001117
Y001371
X004689
Y001117
Y000863
Y000609
Y000355
X006923Y003825
Y004079
Y004333
Y004587
Y004841
Y005095
Y005349
X005125
Y005095
Y004841
Y004587
Y004333
Y004079
Y003825
X004689Y003911
Y003657
Y003403
Y003149
Y002895
Y002641
Y002387
Y002133
Y001879
Y001625
X002911
Y001879
Y002133
Y002387
Y002641
Y002895
Y003149
Y003403
Y003657
Y003911
Y004165
Y004419
Y004673
Y004927
Y005181
X004689
Y004927
Y004673
Y004419
Y004165
X004729Y0056
X004475
X005125Y005603
X006923
T04
X0088Y000896
Y00115
Y001404
T05
X008525Y003496
Y004004
T06
X007294Y00355
X008056
T07
X0057Y000896
X005954Y00115
X005446
X006596
X00685Y000896
X007104Y00115
X007746
X008Y000896
X008254Y00115
X007377Y0022
X007123
Y00275
X007377
X005727Y002725
X005473
Y0022
X005727
X00115Y003925
Y004179
X000875Y004177
Y003923
T08
X0075Y0042
X00785
X005331Y006298
Y006552
X005077
Y006298
X004823
Y006552
X004569
Y006298
X004315
Y006552
X004061
Y006298
X003807
Y006552
X003553
Y006298
X003299
Y006552
X003045
Y006298
X002791
Y006552
X002537
Y006298
X005585
X005839
X006093
X006347
X006601
X006855
X007109
X007363
Y006552
X007109
X006855
X006601
X006347
X006093
X005839
X005585
X00556Y00945
X005306
X005052
X004798
X004544
X00429
X004036
X003782
X003528
X003274
X00302
X002766
X002512
X002258
X002004
X00175
T09
X0093Y00295
Y003458
X0019Y00254
Y0022
Y00186
X0015Y00203
Y00237
T10
X0004Y001725
Y0021
Y002475
Y00285
Y003225
T11
X009695Y004876
Y005384
X008425Y00513
Y00466
Y0056
T12
X0014Y000825
Y001425
X00187Y001125
T13
X0012Y00635
X0087
Y00945
X0012
T14
X00205Y006425
Y008725
X00785
Y006425
T15
X00045Y00045
X00945
Y00945
X00045
M30
