%TF.GenerationSoftware,Altium Limited,Altium Designer,25.2.1 (25)*%
G04 Layer_Color=255*
%FSLAX43Y43*%
%MOMM*%
%TF.SameCoordinates,5F0F979B-F61C-4F37-A4CB-55E86594FD38*%
%TF.FilePolarity,Positive*%
%TF.FileFunction,Pads,Top*%
%TF.Part,Single*%
G01*
G75*
%TA.AperFunction,SMDPad,CuDef*%
G04:AMPARAMS|DCode=11|XSize=1.25mm|YSize=0.6mm|CornerRadius=0.06mm|HoleSize=0mm|Usage=FLASHONLY|Rotation=0.000|XOffset=0mm|YOffset=0mm|HoleType=Round|Shape=RoundedRectangle|*
%AMROUNDEDRECTD11*
21,1,1.250,0.480,0,0,0.0*
21,1,1.130,0.600,0,0,0.0*
1,1,0.120,0.565,-0.240*
1,1,0.120,-0.565,-0.240*
1,1,0.120,-0.565,0.240*
1,1,0.120,0.565,0.240*
%
%ADD11ROUNDEDRECTD11*%
%ADD12R,1.250X3.200*%
%ADD13R,1.250X0.950*%
%ADD14R,3.350X2.710*%
%ADD15R,0.650X1.525*%
%ADD16R,1.100X0.450*%
%ADD17R,1.250X0.600*%
%TA.AperFunction,BGAPad,CuDef*%
%ADD18R,0.500X0.500*%
%TA.AperFunction,ComponentPad*%
%ADD24C,2.000*%
%ADD25C,5.000*%
%ADD26C,1.250*%
%ADD27C,1.600*%
%ADD28R,1.600X1.600*%
%ADD29C,6.000*%
%ADD30C,1.500*%
%ADD31C,1.524*%
%ADD32R,1.500X1.500*%
%ADD33C,1.316*%
%ADD34C,1.400*%
%ADD35C,2.400*%
%ADD36C,2.500*%
%ADD37C,1.300*%
%ADD38C,2.775*%
%ADD39C,3.000*%
D11*
X23500Y4350D02*
D03*
Y6150D02*
D03*
D12*
X15400Y32750D02*
D03*
D13*
X8600Y30450D02*
D03*
Y32750D02*
D03*
Y35050D02*
D03*
D14*
X21500Y32750D02*
D03*
D15*
X19595Y35438D02*
D03*
X20865D02*
D03*
X22135D02*
D03*
X23405D02*
D03*
Y30062D02*
D03*
X22135D02*
D03*
X20865D02*
D03*
X19595D02*
D03*
D16*
X19800Y41475D02*
D03*
Y40825D02*
D03*
Y40175D02*
D03*
Y39525D02*
D03*
X23700D02*
D03*
Y40175D02*
D03*
Y40825D02*
D03*
Y41475D02*
D03*
D17*
X94500Y89400D02*
D03*
Y87600D02*
D03*
D18*
X12400Y50800D02*
D03*
X13200D02*
D03*
X14000D02*
D03*
X14800D02*
D03*
X15600D02*
D03*
Y50000D02*
D03*
Y49200D02*
D03*
X14800D02*
D03*
X14000D02*
D03*
X13200D02*
D03*
X12400D02*
D03*
Y50000D02*
D03*
D24*
X55600Y94500D02*
D03*
X53060D02*
D03*
X50520D02*
D03*
X47980D02*
D03*
X45440D02*
D03*
X42900D02*
D03*
X40360D02*
D03*
X37820D02*
D03*
X35280D02*
D03*
X32740D02*
D03*
X30200D02*
D03*
X27660D02*
D03*
X25120D02*
D03*
X22580D02*
D03*
X20040D02*
D03*
X17500D02*
D03*
X78500Y42000D02*
D03*
X75000D02*
D03*
D25*
X12000Y63500D02*
D03*
Y94500D02*
D03*
X87000Y63500D02*
D03*
Y94500D02*
D03*
D26*
X80719Y56310D02*
D03*
Y53770D02*
D03*
Y51230D02*
D03*
Y48690D02*
D03*
X72781D02*
D03*
Y51230D02*
D03*
Y53770D02*
D03*
Y56310D02*
D03*
D27*
X59540Y11500D02*
D03*
X57000Y8960D02*
D03*
X54460Y11500D02*
D03*
X73630Y62980D02*
D03*
X71090Y65520D02*
D03*
Y62980D02*
D03*
X68550Y65520D02*
D03*
Y62980D02*
D03*
X66010Y65520D02*
D03*
X63470D02*
D03*
Y62980D02*
D03*
X60930Y65520D02*
D03*
X58390D02*
D03*
Y62980D02*
D03*
X55850D02*
D03*
X53310Y65520D02*
D03*
Y62980D02*
D03*
X50770Y65520D02*
D03*
Y62980D02*
D03*
X48230Y65520D02*
D03*
X45690D02*
D03*
Y62980D02*
D03*
X43150Y65520D02*
D03*
Y62980D02*
D03*
X40610Y65520D02*
D03*
X38070D02*
D03*
Y62980D02*
D03*
X35530D02*
D03*
X32990Y65520D02*
D03*
Y62980D02*
D03*
X30450Y65520D02*
D03*
X27910D02*
D03*
Y62980D02*
D03*
X25370Y65520D02*
D03*
Y62980D02*
D03*
X65960Y11500D02*
D03*
X68500Y8960D02*
D03*
X71040Y11500D02*
D03*
X77460D02*
D03*
X80000Y8960D02*
D03*
X82540Y11500D02*
D03*
D28*
X73630Y65520D02*
D03*
X66010Y62980D02*
D03*
X60930D02*
D03*
X55850Y65520D02*
D03*
X48230Y62980D02*
D03*
X40610D02*
D03*
X35530Y65520D02*
D03*
X30450Y62980D02*
D03*
D29*
X20500Y87250D02*
D03*
Y64250D02*
D03*
X78500D02*
D03*
Y87250D02*
D03*
X94500Y94500D02*
D03*
X4500D02*
D03*
X94500Y4500D02*
D03*
X4500D02*
D03*
D30*
X8750Y39230D02*
D03*
Y41770D02*
D03*
X54730Y22000D02*
D03*
X71230D02*
D03*
Y27500D02*
D03*
X54730Y27250D02*
D03*
X11500Y41790D02*
D03*
Y39250D02*
D03*
D31*
X47290Y56000D02*
D03*
X44750D02*
D03*
X69230Y56030D02*
D03*
Y53490D02*
D03*
Y50950D02*
D03*
Y48410D02*
D03*
Y45870D02*
D03*
Y43330D02*
D03*
Y40790D02*
D03*
Y38250D02*
D03*
X51250Y56030D02*
D03*
Y53490D02*
D03*
Y50950D02*
D03*
Y48410D02*
D03*
Y45870D02*
D03*
Y43330D02*
D03*
Y40790D02*
D03*
Y38250D02*
D03*
X29110Y51810D02*
D03*
Y49270D02*
D03*
Y46730D02*
D03*
Y44190D02*
D03*
Y41650D02*
D03*
Y39110D02*
D03*
Y36570D02*
D03*
Y34030D02*
D03*
Y31490D02*
D03*
Y28950D02*
D03*
Y26410D02*
D03*
Y23870D02*
D03*
Y21330D02*
D03*
Y18790D02*
D03*
Y16250D02*
D03*
Y13710D02*
D03*
Y11170D02*
D03*
Y8630D02*
D03*
Y6090D02*
D03*
Y3550D02*
D03*
X46890D02*
D03*
Y6090D02*
D03*
Y8630D02*
D03*
Y11170D02*
D03*
Y13710D02*
D03*
Y16250D02*
D03*
Y18790D02*
D03*
Y21330D02*
D03*
Y23870D02*
D03*
Y26410D02*
D03*
Y28950D02*
D03*
Y31490D02*
D03*
Y34030D02*
D03*
Y36570D02*
D03*
Y39110D02*
D03*
Y41650D02*
D03*
Y44190D02*
D03*
Y46730D02*
D03*
Y49270D02*
D03*
Y51810D02*
D03*
D32*
X57270Y22000D02*
D03*
X73770D02*
D03*
Y27500D02*
D03*
X57270Y27250D02*
D03*
D33*
X85250Y40040D02*
D03*
Y34960D02*
D03*
D34*
X72940Y35500D02*
D03*
X80560D02*
D03*
D35*
X4000Y32250D02*
D03*
Y24750D02*
D03*
Y17250D02*
D03*
Y21000D02*
D03*
Y28500D02*
D03*
D36*
X93000Y29500D02*
D03*
Y34580D02*
D03*
X19000Y18600D02*
D03*
Y22000D02*
D03*
Y25400D02*
D03*
X15000Y20300D02*
D03*
Y23700D02*
D03*
D37*
X88000Y14040D02*
D03*
Y8960D02*
D03*
Y11500D02*
D03*
D38*
X96950Y48760D02*
D03*
Y53840D02*
D03*
X84250Y46600D02*
D03*
Y51300D02*
D03*
Y56000D02*
D03*
D39*
X14000Y8250D02*
D03*
Y14250D02*
D03*
X18700Y11250D02*
D03*
%TF.MD5,9a93285bc6302acc635853ffe4b308b8*%
M02*
