%TF.GenerationSoftware,Altium Limited,Altium Designer,25.2.1 (25)*%
G04 Layer_Color=128*
%FSLAX43Y43*%
%MOMM*%
%TF.SameCoordinates,5F0F979B-F61C-4F37-A4CB-55E86594FD38*%
%TF.FilePolarity,Positive*%
%TF.FileFunction,Paste,Bot*%
%TF.Part,Single*%
G01*
G75*
%TA.AperFunction,SMDPad,CuDef*%
%ADD41R,0.700X0.650*%
%ADD42R,0.650X0.700*%
%ADD43R,2.000X1.800*%
G36*
X87216Y26114D02*
X89989D01*
Y24729D01*
X89987D01*
Y24727D01*
X88602D01*
Y23341D01*
X89987D01*
Y23339D01*
X89989D01*
Y21955D01*
X91375D01*
Y19182D01*
X89989D01*
Y20568D01*
X88604D01*
Y20570D01*
X88602D01*
Y21955D01*
X87216D01*
Y20570D01*
X87214D01*
Y20568D01*
X85830D01*
Y21955D01*
X81670D01*
Y20568D01*
X83055D01*
Y20566D01*
X83057D01*
Y19182D01*
X81670D01*
Y20568D01*
X80286D01*
Y20570D01*
X80284D01*
Y21955D01*
X78898D01*
Y20570D01*
X78896D01*
Y20568D01*
X77511D01*
Y19182D01*
X76125D01*
Y21955D01*
X77511D01*
Y23339D01*
X77513D01*
Y23341D01*
X78898D01*
Y24727D01*
X77513D01*
Y24729D01*
X77511D01*
Y26114D01*
X76125D01*
Y27110D01*
Y27111D01*
Y27500D01*
X77510D01*
Y27498D01*
X77511D01*
Y26114D01*
X80284D01*
Y23341D01*
X81670D01*
Y26114D01*
X80284D01*
Y28886D01*
X81670D01*
Y27500D01*
X85830D01*
Y28886D01*
X87216D01*
Y26114D01*
D02*
G37*
G36*
X91375D02*
X89989D01*
Y26539D01*
Y26541D01*
Y27498D01*
X89990D01*
Y27500D01*
X91375D01*
Y26114D01*
D02*
G37*
G36*
X85830Y20460D02*
Y20458D01*
Y19182D01*
X84443D01*
Y20566D01*
X84445D01*
Y20568D01*
X85830D01*
Y20460D01*
D02*
G37*
%LPC*%
G36*
X87216Y26114D02*
X85830D01*
Y23341D01*
X87216D01*
Y26114D01*
D02*
G37*
%LPD*%
D41*
X21250Y5675D02*
D03*
Y4325D02*
D03*
X75250Y49825D02*
D03*
Y51175D02*
D03*
X76750D02*
D03*
Y49825D02*
D03*
X53060Y88925D02*
D03*
Y87575D02*
D03*
D42*
X76425Y56310D02*
D03*
X75075D02*
D03*
X79175D02*
D03*
X77825D02*
D03*
X14075Y42000D02*
D03*
X15425D02*
D03*
X11075Y30500D02*
D03*
X12425D02*
D03*
X24325Y22000D02*
D03*
X25675D02*
D03*
X49825Y11170D02*
D03*
X51175D02*
D03*
X49825Y16250D02*
D03*
X51175D02*
D03*
X77825Y53770D02*
D03*
X79175D02*
D03*
X19325Y48500D02*
D03*
X20675D02*
D03*
X14075Y39000D02*
D03*
X15425D02*
D03*
X25675Y49270D02*
D03*
X24325D02*
D03*
X49825Y23870D02*
D03*
X51175D02*
D03*
X49825Y18790D02*
D03*
X51175D02*
D03*
X12425Y32750D02*
D03*
X11075D02*
D03*
X14075Y40500D02*
D03*
X15425D02*
D03*
X25675Y37250D02*
D03*
X24325D02*
D03*
X25675Y51810D02*
D03*
X24325D02*
D03*
Y43500D02*
D03*
X25675D02*
D03*
X7325Y51500D02*
D03*
X8675D02*
D03*
X7325Y48500D02*
D03*
X8675D02*
D03*
X25675Y28000D02*
D03*
X24325D02*
D03*
X25675Y23500D02*
D03*
X24325D02*
D03*
X9575Y16000D02*
D03*
X10925D02*
D03*
X24325Y25000D02*
D03*
X25675D02*
D03*
D43*
X11450Y20250D02*
D03*
X7050D02*
D03*
X11450Y26000D02*
D03*
X7050D02*
D03*
%TF.MD5,870d36d91387317916a3eed8cb1125df*%
M02*
