%TF.GenerationSoftware,Altium Limited,Altium Designer,25.2.1 (25)*%
G04 Layer_Color=128*
%FSLAX43Y43*%
%MOMM*%
%TF.SameCoordinates,5F0F979B-F61C-4F37-A4CB-55E86594FD38*%
%TF.FilePolarity,Positive*%
%TF.FileFunction,Drillmap*%
%TF.Part,Single*%
G01*
G75*
%TA.AperFunction,NonConductor*%
%ADD78C,0.127*%
D78*
X55100Y94500D02*
X56100D01*
X55600Y94000D02*
Y95000D01*
X52560Y94500D02*
X53560D01*
X53060Y94000D02*
Y95000D01*
X50020Y94500D02*
X51020D01*
X50520Y94000D02*
Y95000D01*
X47480Y94500D02*
X48480D01*
X47980Y94000D02*
Y95000D01*
X44940Y94500D02*
X45940D01*
X45440Y94000D02*
Y95000D01*
X42400Y94500D02*
X43400D01*
X42900Y94000D02*
Y95000D01*
X39860Y94500D02*
X40860D01*
X40360Y94000D02*
Y95000D01*
X37320Y94500D02*
X38320D01*
X37820Y94000D02*
Y95000D01*
X34780Y94500D02*
X35780D01*
X35280Y94000D02*
Y95000D01*
X32240Y94500D02*
X33240D01*
X32740Y94000D02*
Y95000D01*
X29700Y94500D02*
X30700D01*
X30200Y94000D02*
Y95000D01*
X27160Y94500D02*
X28160D01*
X27660Y94000D02*
Y95000D01*
X24620Y94500D02*
X25620D01*
X25120Y94000D02*
Y95000D01*
X22080Y94500D02*
X23080D01*
X22580Y94000D02*
Y95000D01*
X19540Y94500D02*
X20540D01*
X20040Y94000D02*
Y95000D01*
X17000Y94500D02*
X18000D01*
X17500Y94000D02*
Y95000D01*
X10750Y63500D02*
X13250D01*
X12000Y62250D02*
Y64750D01*
X10750Y94500D02*
X13250D01*
X12000Y93250D02*
Y95750D01*
X85750Y63500D02*
X88250D01*
X87000Y62250D02*
Y64750D01*
X85750Y94500D02*
X88250D01*
X87000Y93250D02*
Y95750D01*
X80344Y56310D02*
X81094D01*
X80719Y55935D02*
Y56685D01*
X80344Y53770D02*
X81094D01*
X80719Y53395D02*
Y54145D01*
X80344Y51230D02*
X81094D01*
X80719Y50855D02*
Y51605D01*
X80344Y48690D02*
X81094D01*
X80719Y48315D02*
Y49065D01*
X72406Y48690D02*
X73156D01*
X72781Y48315D02*
Y49065D01*
X72406Y51230D02*
X73156D01*
X72781Y50855D02*
Y51605D01*
X72406Y53770D02*
X73156D01*
X72781Y53395D02*
Y54145D01*
X72406Y56310D02*
X73156D01*
X72781Y55935D02*
Y56685D01*
X59090Y11500D02*
X59990D01*
X59540Y11050D02*
Y11950D01*
X56550Y8960D02*
X57450D01*
X57000Y8510D02*
Y9410D01*
X54010Y11500D02*
X54910D01*
X54460Y11050D02*
Y11950D01*
X73130Y65520D02*
X74130D01*
X73630Y65020D02*
Y66020D01*
X73130Y62980D02*
X74130D01*
X73630Y62480D02*
Y63480D01*
X70590Y65520D02*
X71590D01*
X71090Y65020D02*
Y66020D01*
X70590Y62980D02*
X71590D01*
X71090Y62480D02*
Y63480D01*
X68050Y65520D02*
X69050D01*
X68550Y65020D02*
Y66020D01*
X68050Y62980D02*
X69050D01*
X68550Y62480D02*
Y63480D01*
X65510Y65520D02*
X66510D01*
X66010Y65020D02*
Y66020D01*
X65510Y62980D02*
X66510D01*
X66010Y62480D02*
Y63480D01*
X62970Y65520D02*
X63970D01*
X63470Y65020D02*
Y66020D01*
X62970Y62980D02*
X63970D01*
X63470Y62480D02*
Y63480D01*
X60430Y65520D02*
X61430D01*
X60930Y65020D02*
Y66020D01*
X60430Y62980D02*
X61430D01*
X60930Y62480D02*
Y63480D01*
X57890Y65520D02*
X58890D01*
X58390Y65020D02*
Y66020D01*
X57890Y62980D02*
X58890D01*
X58390Y62480D02*
Y63480D01*
X55350Y65520D02*
X56350D01*
X55850Y65020D02*
Y66020D01*
X55350Y62980D02*
X56350D01*
X55850Y62480D02*
Y63480D01*
X52810Y65520D02*
X53810D01*
X53310Y65020D02*
Y66020D01*
X52810Y62980D02*
X53810D01*
X53310Y62480D02*
Y63480D01*
X50270Y65520D02*
X51270D01*
X50770Y65020D02*
Y66020D01*
X50270Y62980D02*
X51270D01*
X50770Y62480D02*
Y63480D01*
X47730Y65520D02*
X48730D01*
X48230Y65020D02*
Y66020D01*
X47730Y62980D02*
X48730D01*
X48230Y62480D02*
Y63480D01*
X45190Y65520D02*
X46190D01*
X45690Y65020D02*
Y66020D01*
X45190Y62980D02*
X46190D01*
X45690Y62480D02*
Y63480D01*
X42650Y65520D02*
X43650D01*
X43150Y65020D02*
Y66020D01*
X42650Y62980D02*
X43650D01*
X43150Y62480D02*
Y63480D01*
X40110Y65520D02*
X41110D01*
X40610Y65020D02*
Y66020D01*
X40110Y62980D02*
X41110D01*
X40610Y62480D02*
Y63480D01*
X37570Y65520D02*
X38570D01*
X38070Y65020D02*
Y66020D01*
X37570Y62980D02*
X38570D01*
X38070Y62480D02*
Y63480D01*
X35030Y65520D02*
X36030D01*
X35530Y65020D02*
Y66020D01*
X35030Y62980D02*
X36030D01*
X35530Y62480D02*
Y63480D01*
X32490Y65520D02*
X33490D01*
X32990Y65020D02*
Y66020D01*
X32490Y62980D02*
X33490D01*
X32990Y62480D02*
Y63480D01*
X29950Y65520D02*
X30950D01*
X30450Y65020D02*
Y66020D01*
X29950Y62980D02*
X30950D01*
X30450Y62480D02*
Y63480D01*
X27410Y65520D02*
X28410D01*
X27910Y65020D02*
Y66020D01*
X27410Y62980D02*
X28410D01*
X27910Y62480D02*
Y63480D01*
X24870Y65520D02*
X25870D01*
X25370Y65020D02*
Y66020D01*
X24870Y62980D02*
X25870D01*
X25370Y62480D02*
Y63480D01*
X19000Y87250D02*
X22000D01*
X20500Y85750D02*
Y88750D01*
X19000Y64250D02*
X22000D01*
X20500Y62750D02*
Y65750D01*
X77000Y64250D02*
X80000D01*
X78500Y62750D02*
Y65750D01*
X77000Y87250D02*
X80000D01*
X78500Y85750D02*
Y88750D01*
X8300Y39230D02*
X9200D01*
X8750Y38780D02*
Y39680D01*
X8300Y41770D02*
X9200D01*
X8750Y41320D02*
Y42220D01*
X46909Y56000D02*
X47671D01*
X47290Y55619D02*
Y56381D01*
X44369Y56000D02*
X45131D01*
X44750Y55619D02*
Y56381D01*
X68849Y56030D02*
X69611D01*
X69230Y55649D02*
Y56411D01*
X68849Y53490D02*
X69611D01*
X69230Y53109D02*
Y53871D01*
X68849Y50950D02*
X69611D01*
X69230Y50569D02*
Y51331D01*
X68849Y48410D02*
X69611D01*
X69230Y48029D02*
Y48791D01*
X68849Y45870D02*
X69611D01*
X69230Y45489D02*
Y46251D01*
X68849Y43330D02*
X69611D01*
X69230Y42949D02*
Y43711D01*
X68849Y40790D02*
X69611D01*
X69230Y40409D02*
Y41171D01*
X68849Y38250D02*
X69611D01*
X69230Y37869D02*
Y38631D01*
X50869Y56030D02*
X51631D01*
X51250Y55649D02*
Y56411D01*
X50869Y53490D02*
X51631D01*
X51250Y53109D02*
Y53871D01*
X50869Y50950D02*
X51631D01*
X51250Y50569D02*
Y51331D01*
X50869Y48410D02*
X51631D01*
X51250Y48029D02*
Y48791D01*
X50869Y45870D02*
X51631D01*
X51250Y45489D02*
Y46251D01*
X50869Y43330D02*
X51631D01*
X51250Y42949D02*
Y43711D01*
X50869Y40790D02*
X51631D01*
X51250Y40409D02*
Y41171D01*
X50869Y38250D02*
X51631D01*
X51250Y37869D02*
Y38631D01*
X65510Y11500D02*
X66410D01*
X65960Y11050D02*
Y11950D01*
X68050Y8960D02*
X68950D01*
X68500Y8510D02*
Y9410D01*
X70590Y11500D02*
X71490D01*
X71040Y11050D02*
Y11950D01*
X77010Y11500D02*
X77910D01*
X77460Y11050D02*
Y11950D01*
X79550Y8960D02*
X80450D01*
X80000Y8510D02*
Y9410D01*
X82090Y11500D02*
X82990D01*
X82540Y11050D02*
Y11950D01*
X56820Y22000D02*
X57720D01*
X57270Y21550D02*
Y22450D01*
X54280Y22000D02*
X55180D01*
X54730Y21550D02*
Y22450D01*
X84845Y40040D02*
X85655D01*
X85250Y39635D02*
Y40445D01*
X84845Y34960D02*
X85655D01*
X85250Y34555D02*
Y35365D01*
X72515Y35500D02*
X73365D01*
X72940Y35075D02*
Y35925D01*
X80135Y35500D02*
X80985D01*
X80560Y35075D02*
Y35925D01*
X70780Y22000D02*
X71680D01*
X71230Y21550D02*
Y22450D01*
X73320Y22000D02*
X74220D01*
X73770Y21550D02*
Y22450D01*
X70780Y27500D02*
X71680D01*
X71230Y27050D02*
Y27950D01*
X73320Y27500D02*
X74220D01*
X73770Y27050D02*
Y27950D01*
X54280Y27250D02*
X55180D01*
X54730Y26800D02*
Y27700D01*
X56820Y27250D02*
X57720D01*
X57270Y26800D02*
Y27700D01*
X28729Y51810D02*
X29491D01*
X29110Y51429D02*
Y52191D01*
X28729Y49270D02*
X29491D01*
X29110Y48889D02*
Y49651D01*
X28729Y46730D02*
X29491D01*
X29110Y46349D02*
Y47111D01*
X28729Y44190D02*
X29491D01*
X29110Y43809D02*
Y44571D01*
X28729Y41650D02*
X29491D01*
X29110Y41269D02*
Y42031D01*
X28729Y39110D02*
X29491D01*
X29110Y38729D02*
Y39491D01*
X28729Y36570D02*
X29491D01*
X29110Y36189D02*
Y36951D01*
X28729Y34030D02*
X29491D01*
X29110Y33649D02*
Y34411D01*
X28729Y31490D02*
X29491D01*
X29110Y31109D02*
Y31871D01*
X28729Y28950D02*
X29491D01*
X29110Y28569D02*
Y29331D01*
X28729Y26410D02*
X29491D01*
X29110Y26029D02*
Y26791D01*
X28729Y23870D02*
X29491D01*
X29110Y23489D02*
Y24251D01*
X28729Y21330D02*
X29491D01*
X29110Y20949D02*
Y21711D01*
X28729Y18790D02*
X29491D01*
X29110Y18409D02*
Y19171D01*
X28729Y16250D02*
X29491D01*
X29110Y15869D02*
Y16631D01*
X28729Y13710D02*
X29491D01*
X29110Y13329D02*
Y14091D01*
X28729Y11170D02*
X29491D01*
X29110Y10789D02*
Y11551D01*
X28729Y8630D02*
X29491D01*
X29110Y8249D02*
Y9011D01*
X28729Y6090D02*
X29491D01*
X29110Y5709D02*
Y6471D01*
X28729Y3550D02*
X29491D01*
X29110Y3169D02*
Y3931D01*
X46509Y3550D02*
X47271D01*
X46890Y3169D02*
Y3931D01*
X46509Y6090D02*
X47271D01*
X46890Y5709D02*
Y6471D01*
X46509Y8630D02*
X47271D01*
X46890Y8249D02*
Y9011D01*
X46509Y11170D02*
X47271D01*
X46890Y10789D02*
Y11551D01*
X46509Y13710D02*
X47271D01*
X46890Y13329D02*
Y14091D01*
X46509Y16250D02*
X47271D01*
X46890Y15869D02*
Y16631D01*
X46509Y18790D02*
X47271D01*
X46890Y18409D02*
Y19171D01*
X46509Y21330D02*
X47271D01*
X46890Y20949D02*
Y21711D01*
X46509Y23870D02*
X47271D01*
X46890Y23489D02*
Y24251D01*
X46509Y26410D02*
X47271D01*
X46890Y26029D02*
Y26791D01*
X46509Y28950D02*
X47271D01*
X46890Y28569D02*
Y29331D01*
X46509Y31490D02*
X47271D01*
X46890Y31109D02*
Y31871D01*
X46509Y34030D02*
X47271D01*
X46890Y33649D02*
Y34411D01*
X46509Y36570D02*
X47271D01*
X46890Y36189D02*
Y36951D01*
X46509Y39110D02*
X47271D01*
X46890Y38729D02*
Y39491D01*
X46509Y41650D02*
X47271D01*
X46890Y41269D02*
Y42031D01*
X46509Y44190D02*
X47271D01*
X46890Y43809D02*
Y44571D01*
X46509Y46730D02*
X47271D01*
X46890Y46349D02*
Y47111D01*
X46509Y49270D02*
X47271D01*
X46890Y48889D02*
Y49651D01*
X46509Y51810D02*
X47271D01*
X46890Y51429D02*
Y52191D01*
X3200Y32250D02*
X4800D01*
X4000Y31450D02*
Y33050D01*
X3200Y24750D02*
X4800D01*
X4000Y23950D02*
Y25550D01*
X3200Y17250D02*
X4800D01*
X4000Y16450D02*
Y18050D01*
X3200Y21000D02*
X4800D01*
X4000Y20200D02*
Y21800D01*
X3200Y28500D02*
X4800D01*
X4000Y27700D02*
Y29300D01*
X78000Y42000D02*
X79000D01*
X78500Y41500D02*
Y42500D01*
X74500Y42000D02*
X75500D01*
X75000Y41500D02*
Y42500D01*
X92350Y29500D02*
X93650D01*
X93000Y28850D02*
Y30150D01*
X92350Y34580D02*
X93650D01*
X93000Y33930D02*
Y35230D01*
X87600Y14040D02*
X88400D01*
X88000Y13640D02*
Y14440D01*
X87600Y8960D02*
X88400D01*
X88000Y8560D02*
Y9360D01*
X87600Y11500D02*
X88400D01*
X88000Y11100D02*
Y11900D01*
X96025Y48760D02*
X97875D01*
X96950Y47835D02*
Y49685D01*
X96025Y53840D02*
X97875D01*
X96950Y52915D02*
Y54765D01*
X83325Y46600D02*
X85175D01*
X84250Y45675D02*
Y47525D01*
X83325Y51300D02*
X85175D01*
X84250Y50375D02*
Y52225D01*
X83325Y56000D02*
X85175D01*
X84250Y55075D02*
Y56925D01*
X11050Y41790D02*
X11950D01*
X11500Y41340D02*
Y42240D01*
X11050Y39250D02*
X11950D01*
X11500Y38800D02*
Y39700D01*
X18350Y18600D02*
X19650D01*
X19000Y17950D02*
Y19250D01*
X18350Y22000D02*
X19650D01*
X19000Y21350D02*
Y22650D01*
X18350Y25400D02*
X19650D01*
X19000Y24750D02*
Y26050D01*
X14350Y20300D02*
X15650D01*
X15000Y19650D02*
Y20950D01*
X14350Y23700D02*
X15650D01*
X15000Y23050D02*
Y24350D01*
X92750Y94500D02*
X96250D01*
X94500Y92750D02*
Y96250D01*
X2750Y94500D02*
X6250D01*
X4500Y92750D02*
Y96250D01*
X92750Y4500D02*
X96250D01*
X94500Y2750D02*
Y6250D01*
X2750Y4500D02*
X6250D01*
X4500Y2750D02*
Y6250D01*
X13050Y8250D02*
X14950D01*
X14000Y7300D02*
Y9200D01*
X13050Y14250D02*
X14950D01*
X14000Y13300D02*
Y15200D01*
X17750Y11250D02*
X19650D01*
X18700Y10300D02*
Y12200D01*
X24850Y6150D02*
X25150D01*
X25000Y6000D02*
Y6300D01*
X24850Y4350D02*
X25150D01*
X25000Y4200D02*
Y4500D01*
X18100Y32750D02*
X18400D01*
X18250Y32600D02*
Y32900D01*
X13350Y30500D02*
X13650D01*
X13500Y30350D02*
Y30650D01*
X13350Y32750D02*
X13650D01*
X13500Y32600D02*
Y32900D01*
X9600Y30450D02*
X9900D01*
X9750Y30300D02*
Y30600D01*
X9600Y32750D02*
X9900D01*
X9750Y32600D02*
Y32900D01*
X94350Y86250D02*
X94650D01*
X94500Y86100D02*
Y86400D01*
X76600Y53750D02*
X76900D01*
X76750Y53600D02*
Y53900D01*
X76600Y48750D02*
X76900D01*
X76750Y48600D02*
Y48900D01*
X25600Y36000D02*
X25900D01*
X25750Y35850D02*
Y36150D01*
X8100Y16000D02*
X8400D01*
X8250Y15850D02*
Y16150D01*
X8600Y37000D02*
X8900D01*
X8750Y36850D02*
Y37150D01*
X13850Y43250D02*
X14150D01*
X14000Y43100D02*
Y43400D01*
X24100Y44750D02*
X24400D01*
X24250Y44600D02*
Y44900D01*
X44100Y11500D02*
X44400D01*
X44250Y11350D02*
Y11650D01*
X65350Y7750D02*
X65650D01*
X65500Y7600D02*
Y7900D01*
X54350Y67000D02*
X54650D01*
X54500Y66850D02*
Y67150D01*
X54350Y92750D02*
X54650D01*
X54500Y92600D02*
Y92900D01*
X56850Y56500D02*
X57150D01*
X57000Y56350D02*
Y56650D01*
X56850Y61500D02*
X57150D01*
X57000Y61350D02*
Y61650D01*
X75100Y48750D02*
X75400D01*
X75250Y48600D02*
Y48900D01*
X31600Y54500D02*
X31900D01*
X31750Y54350D02*
Y54650D01*
X24970Y77500D02*
X25270D01*
X25120Y77350D02*
Y77650D01*
X21600Y48500D02*
X21900D01*
X21750Y48350D02*
Y48650D01*
X24100Y50500D02*
X24400D01*
X24250Y50350D02*
Y50650D01*
X25100Y41500D02*
X25400D01*
X25250Y41350D02*
Y41650D01*
X6100Y51500D02*
X6400D01*
X6250Y51350D02*
Y51650D01*
X6100Y48500D02*
X6400D01*
X6250Y48350D02*
Y48650D01*
X13850Y50000D02*
X14150D01*
X14000Y49850D02*
Y50150D01*
X18100Y50000D02*
X18400D01*
X18250Y49850D02*
Y50150D01*
X9600Y50000D02*
X9900D01*
X9750Y49850D02*
Y50150D01*
X18100Y51500D02*
X18400D01*
X18250Y51350D02*
Y51650D01*
X18100Y48450D02*
X18400D01*
X18250Y48300D02*
Y48600D01*
X9600D02*
X9900D01*
X9750Y48450D02*
Y48750D01*
X9600Y51550D02*
X9900D01*
X9750Y51400D02*
Y51700D01*
X13850Y45000D02*
X14150D01*
X14000Y44850D02*
Y45150D01*
X18100Y41500D02*
X18400D01*
X18250Y41350D02*
Y41650D01*
X16350Y42000D02*
X16650D01*
X16500Y41850D02*
Y42150D01*
X15350Y37750D02*
X15650D01*
X15500Y37600D02*
Y37900D01*
X15250Y32750D02*
X15550D01*
X15400Y32600D02*
Y32900D01*
X19445Y28250D02*
X19745D01*
X19595Y28100D02*
Y28400D01*
X21350Y32750D02*
X21650D01*
X21500Y32600D02*
Y32900D01*
X21985Y37250D02*
X22285D01*
X22135Y37100D02*
Y37400D01*
X25600Y26250D02*
X25900D01*
X25750Y26100D02*
Y26400D01*
X25600Y20750D02*
X25900D01*
X25750Y20600D02*
Y20900D01*
X26600Y28000D02*
X26900D01*
X26750Y27850D02*
Y28150D01*
X21985Y28250D02*
X22285D01*
X22135Y28100D02*
Y28400D01*
X6900Y20250D02*
X7200D01*
X7050Y20100D02*
Y20400D01*
X6900Y26000D02*
X7200D01*
X7050Y25850D02*
Y26150D01*
%TF.MD5,6808e0dc5aa59b41ab48343bf8fad4d2*%
M02*
