%TF.GenerationSoftware,Altium Limited,Altium Designer,25.2.1 (25)*%
G04 Layer_Color=8421504*
%FSLAX43Y43*%
%MOMM*%
%TF.SameCoordinates,5F0F979B-F61C-4F37-A4CB-55E86594FD38*%
%TF.FilePolarity,Positive*%
%TF.FileFunction,Paste,Top*%
%TF.Part,Single*%
G01*
G75*
%TA.AperFunction,SMDPad,CuDef*%
G04:AMPARAMS|DCode=11|XSize=1.25mm|YSize=0.6mm|CornerRadius=0.06mm|HoleSize=0mm|Usage=FLASHONLY|Rotation=0.000|XOffset=0mm|YOffset=0mm|HoleType=Round|Shape=RoundedRectangle|*
%AMROUNDEDRECTD11*
21,1,1.250,0.480,0,0,0.0*
21,1,1.130,0.600,0,0,0.0*
1,1,0.120,0.565,-0.240*
1,1,0.120,-0.565,-0.240*
1,1,0.120,-0.565,0.240*
1,1,0.120,0.565,0.240*
%
%ADD11ROUNDEDRECTD11*%
%ADD12R,1.250X3.200*%
%ADD13R,1.250X0.950*%
%ADD14R,3.350X2.710*%
%ADD15R,0.650X1.525*%
%ADD16R,1.100X0.450*%
%ADD17R,1.250X0.600*%
%TA.AperFunction,BGAPad,CuDef*%
%ADD18R,0.500X0.500*%
D11*
X23500Y4350D02*
D03*
Y6150D02*
D03*
D12*
X15400Y32750D02*
D03*
D13*
X8600Y30450D02*
D03*
Y32750D02*
D03*
Y35050D02*
D03*
D14*
X21500Y32750D02*
D03*
D15*
X19595Y35438D02*
D03*
X20865D02*
D03*
X22135D02*
D03*
X23405D02*
D03*
Y30062D02*
D03*
X22135D02*
D03*
X20865D02*
D03*
X19595D02*
D03*
D16*
X19800Y41475D02*
D03*
Y40825D02*
D03*
Y40175D02*
D03*
Y39525D02*
D03*
X23700D02*
D03*
Y40175D02*
D03*
Y40825D02*
D03*
Y41475D02*
D03*
D17*
X94500Y89400D02*
D03*
Y87600D02*
D03*
D18*
X12400Y50800D02*
D03*
X13200D02*
D03*
X14000D02*
D03*
X14800D02*
D03*
X15600D02*
D03*
Y50000D02*
D03*
Y49200D02*
D03*
X14800D02*
D03*
X14000D02*
D03*
X13200D02*
D03*
X12400D02*
D03*
Y50000D02*
D03*
%TF.MD5,7c291247c35869a22ca435cc51188d1f*%
M02*
