%TF.GenerationSoftware,Altium Limited,Altium Designer,25.2.1 (25)*%
G04 Layer_Color=8388736*
%FSLAX43Y43*%
%MOMM*%
%TF.SameCoordinates,5F0F979B-F61C-4F37-A4CB-55E86594FD38*%
%TF.FilePolarity,Negative*%
%TF.FileFunction,Soldermask,Top*%
%TF.Part,Single*%
G01*
G75*
%TA.AperFunction,SMDPad,CuDef*%
G04:AMPARAMS|DCode=50|XSize=1.4mm|YSize=0.75mm|CornerRadius=0.135mm|HoleSize=0mm|Usage=FLASHONLY|Rotation=0.000|XOffset=0mm|YOffset=0mm|HoleType=Round|Shape=RoundedRectangle|*
%AMROUNDEDRECTD50*
21,1,1.400,0.480,0,0,0.0*
21,1,1.130,0.750,0,0,0.0*
1,1,0.270,0.565,-0.240*
1,1,0.270,-0.565,-0.240*
1,1,0.270,-0.565,0.240*
1,1,0.270,0.565,0.240*
%
%ADD50ROUNDEDRECTD50*%
%ADD51R,1.400X3.350*%
%ADD52R,1.400X1.100*%
%ADD53R,3.500X2.860*%
%ADD54R,0.800X1.675*%
%ADD55R,1.250X0.600*%
%ADD56R,1.400X0.750*%
%TA.AperFunction,BGAPad,CuDef*%
%ADD57R,0.650X0.650*%
%TA.AperFunction,ComponentPad*%
%ADD58C,2.150*%
%ADD59C,5.150*%
%ADD60C,1.400*%
%ADD61C,1.750*%
%ADD62R,1.750X1.750*%
%ADD63C,6.150*%
%ADD64C,1.650*%
%ADD65C,1.674*%
%ADD66R,1.650X1.650*%
%ADD67C,1.466*%
%ADD68C,1.550*%
%ADD69C,2.550*%
%ADD70C,2.650*%
%ADD71C,1.450*%
%ADD72C,2.925*%
%ADD73C,3.150*%
%TA.AperFunction,ViaPad*%
%ADD74C,0.850*%
D50*
X23500Y4350D02*
D03*
Y6150D02*
D03*
D51*
X15400Y32750D02*
D03*
D52*
X8600Y30450D02*
D03*
Y32750D02*
D03*
Y35050D02*
D03*
D53*
X21500Y32750D02*
D03*
D54*
X19595Y35438D02*
D03*
X20865D02*
D03*
X22135D02*
D03*
X23405D02*
D03*
Y30062D02*
D03*
X22135D02*
D03*
X20865D02*
D03*
X19595D02*
D03*
D55*
X19800Y41475D02*
D03*
Y40825D02*
D03*
Y40175D02*
D03*
Y39525D02*
D03*
X23700D02*
D03*
Y40175D02*
D03*
Y40825D02*
D03*
Y41475D02*
D03*
D56*
X94500Y89400D02*
D03*
Y87600D02*
D03*
D57*
X12400Y50800D02*
D03*
X13200D02*
D03*
X14000D02*
D03*
X14800D02*
D03*
X15600D02*
D03*
Y50000D02*
D03*
Y49200D02*
D03*
X14800D02*
D03*
X14000D02*
D03*
X13200D02*
D03*
X12400D02*
D03*
Y50000D02*
D03*
D58*
X55600Y94500D02*
D03*
X53060D02*
D03*
X50520D02*
D03*
X47980D02*
D03*
X45440D02*
D03*
X42900D02*
D03*
X40360D02*
D03*
X37820D02*
D03*
X35280D02*
D03*
X32740D02*
D03*
X30200D02*
D03*
X27660D02*
D03*
X25120D02*
D03*
X22580D02*
D03*
X20040D02*
D03*
X17500D02*
D03*
X78500Y42000D02*
D03*
X75000D02*
D03*
D59*
X12000Y63500D02*
D03*
Y94500D02*
D03*
X87000Y63500D02*
D03*
Y94500D02*
D03*
D60*
X80719Y56310D02*
D03*
Y53770D02*
D03*
Y51230D02*
D03*
Y48690D02*
D03*
X72781D02*
D03*
Y51230D02*
D03*
Y53770D02*
D03*
Y56310D02*
D03*
D61*
X59540Y11500D02*
D03*
X57000Y8960D02*
D03*
X54460Y11500D02*
D03*
X73630Y62980D02*
D03*
X71090Y65520D02*
D03*
Y62980D02*
D03*
X68550Y65520D02*
D03*
Y62980D02*
D03*
X66010Y65520D02*
D03*
X63470D02*
D03*
Y62980D02*
D03*
X60930Y65520D02*
D03*
X58390D02*
D03*
Y62980D02*
D03*
X55850D02*
D03*
X53310Y65520D02*
D03*
Y62980D02*
D03*
X50770Y65520D02*
D03*
Y62980D02*
D03*
X48230Y65520D02*
D03*
X45690D02*
D03*
Y62980D02*
D03*
X43150Y65520D02*
D03*
Y62980D02*
D03*
X40610Y65520D02*
D03*
X38070D02*
D03*
Y62980D02*
D03*
X35530D02*
D03*
X32990Y65520D02*
D03*
Y62980D02*
D03*
X30450Y65520D02*
D03*
X27910D02*
D03*
Y62980D02*
D03*
X25370Y65520D02*
D03*
Y62980D02*
D03*
X65960Y11500D02*
D03*
X68500Y8960D02*
D03*
X71040Y11500D02*
D03*
X77460D02*
D03*
X80000Y8960D02*
D03*
X82540Y11500D02*
D03*
D62*
X73630Y65520D02*
D03*
X66010Y62980D02*
D03*
X60930D02*
D03*
X55850Y65520D02*
D03*
X48230Y62980D02*
D03*
X40610D02*
D03*
X35530Y65520D02*
D03*
X30450Y62980D02*
D03*
D63*
X20500Y87250D02*
D03*
Y64250D02*
D03*
X78500D02*
D03*
Y87250D02*
D03*
X94500Y94500D02*
D03*
X4500D02*
D03*
X94500Y4500D02*
D03*
X4500D02*
D03*
D64*
X8750Y39230D02*
D03*
Y41770D02*
D03*
X54730Y22000D02*
D03*
X71230D02*
D03*
Y27500D02*
D03*
X54730Y27250D02*
D03*
X11500Y41790D02*
D03*
Y39250D02*
D03*
D65*
X47290Y56000D02*
D03*
X44750D02*
D03*
X69230Y56030D02*
D03*
Y53490D02*
D03*
Y50950D02*
D03*
Y48410D02*
D03*
Y45870D02*
D03*
Y43330D02*
D03*
Y40790D02*
D03*
Y38250D02*
D03*
X51250Y56030D02*
D03*
Y53490D02*
D03*
Y50950D02*
D03*
Y48410D02*
D03*
Y45870D02*
D03*
Y43330D02*
D03*
Y40790D02*
D03*
Y38250D02*
D03*
X29110Y51810D02*
D03*
Y49270D02*
D03*
Y46730D02*
D03*
Y44190D02*
D03*
Y41650D02*
D03*
Y39110D02*
D03*
Y36570D02*
D03*
Y34030D02*
D03*
Y31490D02*
D03*
Y28950D02*
D03*
Y26410D02*
D03*
Y23870D02*
D03*
Y21330D02*
D03*
Y18790D02*
D03*
Y16250D02*
D03*
Y13710D02*
D03*
Y11170D02*
D03*
Y8630D02*
D03*
Y6090D02*
D03*
Y3550D02*
D03*
X46890D02*
D03*
Y6090D02*
D03*
Y8630D02*
D03*
Y11170D02*
D03*
Y13710D02*
D03*
Y16250D02*
D03*
Y18790D02*
D03*
Y21330D02*
D03*
Y23870D02*
D03*
Y26410D02*
D03*
Y28950D02*
D03*
Y31490D02*
D03*
Y34030D02*
D03*
Y36570D02*
D03*
Y39110D02*
D03*
Y41650D02*
D03*
Y44190D02*
D03*
Y46730D02*
D03*
Y49270D02*
D03*
Y51810D02*
D03*
D66*
X57270Y22000D02*
D03*
X73770D02*
D03*
Y27500D02*
D03*
X57270Y27250D02*
D03*
D67*
X85250Y40040D02*
D03*
Y34960D02*
D03*
D68*
X72940Y35500D02*
D03*
X80560D02*
D03*
D69*
X4000Y32250D02*
D03*
Y24750D02*
D03*
Y17250D02*
D03*
Y21000D02*
D03*
Y28500D02*
D03*
D70*
X93000Y29500D02*
D03*
Y34580D02*
D03*
X19000Y18600D02*
D03*
Y22000D02*
D03*
Y25400D02*
D03*
X15000Y20300D02*
D03*
Y23700D02*
D03*
D71*
X88000Y14040D02*
D03*
Y8960D02*
D03*
Y11500D02*
D03*
D72*
X96950Y48760D02*
D03*
Y53840D02*
D03*
X84250Y46600D02*
D03*
Y51300D02*
D03*
Y56000D02*
D03*
D73*
X14000Y8250D02*
D03*
Y14250D02*
D03*
X18700Y11250D02*
D03*
D74*
X25000Y6150D02*
D03*
Y4350D02*
D03*
X18250Y32750D02*
D03*
X13500Y30500D02*
D03*
Y32750D02*
D03*
X9750Y30450D02*
D03*
Y32750D02*
D03*
X94500Y86250D02*
D03*
X76750Y53750D02*
D03*
Y48750D02*
D03*
X25750Y36000D02*
D03*
X8250Y16000D02*
D03*
X8750Y37000D02*
D03*
X14000Y43250D02*
D03*
X24250Y44750D02*
D03*
X44250Y11500D02*
D03*
X65500Y7750D02*
D03*
X54500Y67000D02*
D03*
Y92750D02*
D03*
X57000Y56500D02*
D03*
Y61500D02*
D03*
X75250Y48750D02*
D03*
X31750Y54500D02*
D03*
X25120Y77500D02*
D03*
X21750Y48500D02*
D03*
X24250Y50500D02*
D03*
X25250Y41500D02*
D03*
X6250Y51500D02*
D03*
Y48500D02*
D03*
X14000Y50000D02*
D03*
X18250Y50000D02*
D03*
X9750Y50000D02*
D03*
X18250Y51500D02*
D03*
Y48450D02*
D03*
X9750Y48600D02*
D03*
Y51550D02*
D03*
X14000Y45000D02*
D03*
X18250Y41500D02*
D03*
X16500Y42000D02*
D03*
X15500Y37750D02*
D03*
X15400Y32750D02*
D03*
X19595Y28250D02*
D03*
X21500Y32750D02*
D03*
X22135Y37250D02*
D03*
X25750Y26250D02*
D03*
Y20750D02*
D03*
X26750Y28000D02*
D03*
X22135Y28250D02*
D03*
X7050Y20250D02*
D03*
Y26000D02*
D03*
%TF.MD5,1e5ca069fc8d6ee7c14da0e7b7b928cf*%
M02*
