%TF.GenerationSoftware,Altium Limited,Altium Designer,25.2.1 (25)*%
G04 Layer_Physical_Order=2*
G04 Layer_Color=36540*
%FSLAX43Y43*%
%MOMM*%
%TF.SameCoordinates,5F0F979B-F61C-4F37-A4CB-55E86594FD38*%
%TF.FilePolarity,Positive*%
%TF.FileFunction,Copper,L2,Inr,Signal*%
%TF.Part,Single*%
G01*
G75*
%TA.AperFunction,ComponentPad*%
%ADD24C,2.000*%
%ADD25C,5.000*%
%ADD26C,1.250*%
%ADD27C,1.600*%
%ADD28R,1.600X1.600*%
%ADD29C,6.000*%
%ADD30C,1.500*%
%ADD31C,1.524*%
%ADD32R,1.500X1.500*%
%ADD33C,1.316*%
%ADD34C,1.400*%
%ADD35C,2.400*%
%ADD36C,2.500*%
%ADD37C,1.300*%
%ADD38C,2.775*%
%ADD39C,3.000*%
%TA.AperFunction,ViaPad*%
%ADD40C,0.700*%
G36*
X95141Y98549D02*
X95767Y98399D01*
X96361Y98153D01*
X96910Y97817D01*
X97399Y97399D01*
X97817Y96910D01*
X98153Y96361D01*
X98399Y95767D01*
X98549Y95141D01*
X98598Y94528D01*
X98592Y94500D01*
Y54617D01*
X98465Y54592D01*
X98445Y54639D01*
X98261Y54916D01*
X98026Y55151D01*
X97749Y55335D01*
X97442Y55463D01*
X97116Y55528D01*
X96784D01*
X96458Y55463D01*
X96151Y55335D01*
X95874Y55151D01*
X95639Y54916D01*
X95455Y54639D01*
X95327Y54332D01*
X95262Y54006D01*
Y53674D01*
X95327Y53348D01*
X95455Y53041D01*
X95639Y52764D01*
X95874Y52529D01*
X96151Y52345D01*
X96458Y52217D01*
X96784Y52153D01*
X97116D01*
X97442Y52217D01*
X97749Y52345D01*
X98026Y52529D01*
X98261Y52764D01*
X98445Y53041D01*
X98465Y53088D01*
X98592Y53063D01*
Y49537D01*
X98465Y49512D01*
X98445Y49559D01*
X98261Y49836D01*
X98026Y50071D01*
X97749Y50255D01*
X97442Y50383D01*
X97116Y50447D01*
X96784D01*
X96458Y50383D01*
X96151Y50255D01*
X95874Y50071D01*
X95639Y49836D01*
X95455Y49559D01*
X95327Y49252D01*
X95262Y48926D01*
Y48594D01*
X95327Y48268D01*
X95455Y47961D01*
X95639Y47684D01*
X95874Y47449D01*
X96151Y47265D01*
X96458Y47137D01*
X96784Y47072D01*
X97116D01*
X97442Y47137D01*
X97749Y47265D01*
X98026Y47449D01*
X98261Y47684D01*
X98445Y47961D01*
X98465Y48008D01*
X98592Y47983D01*
Y4500D01*
X98598Y4472D01*
X98549Y3859D01*
X98399Y3233D01*
X98153Y2639D01*
X97817Y2090D01*
X97399Y1601D01*
X96910Y1183D01*
X96361Y847D01*
X95767Y601D01*
X95141Y451D01*
X94528Y402D01*
X94500Y408D01*
X4500D01*
X4472Y402D01*
X3859Y451D01*
X3233Y601D01*
X2639Y847D01*
X2090Y1183D01*
X1601Y1601D01*
X1183Y2090D01*
X847Y2639D01*
X601Y3233D01*
X451Y3859D01*
X402Y4472D01*
X408Y4500D01*
Y94500D01*
X402Y94528D01*
X451Y95141D01*
X601Y95767D01*
X847Y96361D01*
X1183Y96910D01*
X1601Y97399D01*
X2090Y97817D01*
X2639Y98153D01*
X3233Y98399D01*
X3859Y98549D01*
X4472Y98598D01*
X4500Y98592D01*
X94500D01*
X94528Y98598D01*
X95141Y98549D01*
D02*
G37*
%LPC*%
G36*
X53231Y95800D02*
X52889D01*
X52558Y95711D01*
X52262Y95540D01*
X52020Y95298D01*
X51858Y95019D01*
X51790Y95010D01*
X51722Y95019D01*
X51560Y95298D01*
X51318Y95540D01*
X51022Y95711D01*
X50691Y95800D01*
X50349D01*
X50018Y95711D01*
X49722Y95540D01*
X49480Y95298D01*
X49318Y95019D01*
X49250Y95010D01*
X49182Y95019D01*
X49020Y95298D01*
X48778Y95540D01*
X48482Y95711D01*
X48151Y95800D01*
X47809D01*
X47478Y95711D01*
X47182Y95540D01*
X46940Y95298D01*
X46778Y95019D01*
X46710Y95010D01*
X46642Y95019D01*
X46480Y95298D01*
X46238Y95540D01*
X45942Y95711D01*
X45611Y95800D01*
X45269D01*
X44938Y95711D01*
X44642Y95540D01*
X44400Y95298D01*
X44238Y95019D01*
X44170Y95010D01*
X44102Y95019D01*
X43940Y95298D01*
X43698Y95540D01*
X43402Y95711D01*
X43071Y95800D01*
X42729D01*
X42398Y95711D01*
X42102Y95540D01*
X41860Y95298D01*
X41698Y95019D01*
X41630Y95010D01*
X41562Y95019D01*
X41400Y95298D01*
X41158Y95540D01*
X40862Y95711D01*
X40531Y95800D01*
X40189D01*
X39858Y95711D01*
X39562Y95540D01*
X39320Y95298D01*
X39158Y95019D01*
X39090Y95010D01*
X39022Y95019D01*
X38860Y95298D01*
X38618Y95540D01*
X38322Y95711D01*
X37991Y95800D01*
X37649D01*
X37318Y95711D01*
X37022Y95540D01*
X36780Y95298D01*
X36618Y95019D01*
X36550Y95010D01*
X36482Y95019D01*
X36320Y95298D01*
X36078Y95540D01*
X35782Y95711D01*
X35451Y95800D01*
X35109D01*
X34778Y95711D01*
X34482Y95540D01*
X34240Y95298D01*
X34078Y95019D01*
X34010Y95010D01*
X33942Y95019D01*
X33780Y95298D01*
X33538Y95540D01*
X33242Y95711D01*
X32911Y95800D01*
X32569D01*
X32238Y95711D01*
X31942Y95540D01*
X31700Y95298D01*
X31538Y95019D01*
X31470Y95010D01*
X31402Y95019D01*
X31240Y95298D01*
X30998Y95540D01*
X30702Y95711D01*
X30371Y95800D01*
X30029D01*
X29698Y95711D01*
X29402Y95540D01*
X29160Y95298D01*
X28989Y95002D01*
X28970Y94931D01*
X28843D01*
X28829Y94984D01*
X28663Y95270D01*
X28653Y95281D01*
X28445Y95073D01*
X28233Y95285D01*
X28441Y95493D01*
X28430Y95503D01*
X28144Y95669D01*
X27825Y95754D01*
X27495D01*
X27176Y95669D01*
X26890Y95503D01*
X26879Y95493D01*
X27087Y95285D01*
X26875Y95073D01*
X26667Y95281D01*
X26657Y95270D01*
X26491Y94984D01*
X26477Y94931D01*
X26350D01*
X26331Y95002D01*
X26160Y95298D01*
X25918Y95540D01*
X25622Y95711D01*
X25291Y95800D01*
X24949D01*
X24618Y95711D01*
X24322Y95540D01*
X24080Y95298D01*
X23918Y95019D01*
X23850Y95010D01*
X23782Y95019D01*
X23620Y95298D01*
X23378Y95540D01*
X23082Y95711D01*
X22751Y95800D01*
X22409D01*
X22078Y95711D01*
X21782Y95540D01*
X21540Y95298D01*
X21378Y95019D01*
X21310Y95010D01*
X21242Y95019D01*
X21080Y95298D01*
X20838Y95540D01*
X20542Y95711D01*
X20211Y95800D01*
X19869D01*
X19538Y95711D01*
X19242Y95540D01*
X19000Y95298D01*
X18829Y95002D01*
X18810Y94931D01*
X18683D01*
X18669Y94984D01*
X18503Y95270D01*
X18493Y95281D01*
X18285Y95073D01*
X18073Y95285D01*
X18281Y95493D01*
X18270Y95503D01*
X17984Y95669D01*
X17665Y95754D01*
X17335D01*
X17016Y95669D01*
X16730Y95503D01*
X16719Y95493D01*
X16927Y95285D01*
X16715Y95073D01*
X16507Y95281D01*
X16497Y95270D01*
X16331Y94984D01*
X16246Y94665D01*
Y94335D01*
X16331Y94016D01*
X16497Y93730D01*
X16507Y93719D01*
X16715Y93927D01*
X16927Y93715D01*
X16719Y93507D01*
X16730Y93497D01*
X17016Y93331D01*
X17335Y93246D01*
X17665D01*
X17984Y93331D01*
X18270Y93497D01*
X18281Y93507D01*
X18073Y93715D01*
X18285Y93927D01*
X18493Y93719D01*
X18503Y93730D01*
X18669Y94016D01*
X18683Y94069D01*
X18810D01*
X18829Y93998D01*
X19000Y93702D01*
X19242Y93460D01*
X19538Y93289D01*
X19869Y93200D01*
X20211D01*
X20542Y93289D01*
X20838Y93460D01*
X21080Y93702D01*
X21242Y93981D01*
X21310Y93990D01*
X21378Y93981D01*
X21540Y93702D01*
X21782Y93460D01*
X22078Y93289D01*
X22409Y93200D01*
X22751D01*
X23082Y93289D01*
X23378Y93460D01*
X23620Y93702D01*
X23782Y93981D01*
X23850Y93990D01*
X23918Y93981D01*
X24080Y93702D01*
X24322Y93460D01*
X24618Y93289D01*
X24949Y93200D01*
X25291D01*
X25622Y93289D01*
X25918Y93460D01*
X26160Y93702D01*
X26331Y93998D01*
X26350Y94069D01*
X26477D01*
X26491Y94016D01*
X26657Y93730D01*
X26667Y93719D01*
X26875Y93927D01*
X27087Y93715D01*
X26879Y93507D01*
X26890Y93497D01*
X27176Y93331D01*
X27495Y93246D01*
X27825D01*
X28144Y93331D01*
X28430Y93497D01*
X28441Y93507D01*
X28233Y93715D01*
X28445Y93927D01*
X28653Y93719D01*
X28663Y93730D01*
X28829Y94016D01*
X28843Y94069D01*
X28970D01*
X28989Y93998D01*
X29160Y93702D01*
X29402Y93460D01*
X29698Y93289D01*
X30029Y93200D01*
X30371D01*
X30702Y93289D01*
X30998Y93460D01*
X31240Y93702D01*
X31402Y93981D01*
X31470Y93990D01*
X31538Y93981D01*
X31700Y93702D01*
X31942Y93460D01*
X32238Y93289D01*
X32569Y93200D01*
X32911D01*
X33242Y93289D01*
X33538Y93460D01*
X33780Y93702D01*
X33942Y93981D01*
X34010Y93990D01*
X34078Y93981D01*
X34240Y93702D01*
X34482Y93460D01*
X34778Y93289D01*
X35109Y93200D01*
X35451D01*
X35782Y93289D01*
X36078Y93460D01*
X36320Y93702D01*
X36482Y93981D01*
X36550Y93990D01*
X36618Y93981D01*
X36780Y93702D01*
X37022Y93460D01*
X37318Y93289D01*
X37649Y93200D01*
X37991D01*
X38322Y93289D01*
X38618Y93460D01*
X38860Y93702D01*
X39022Y93981D01*
X39090Y93990D01*
X39158Y93981D01*
X39320Y93702D01*
X39562Y93460D01*
X39858Y93289D01*
X40189Y93200D01*
X40531D01*
X40862Y93289D01*
X41158Y93460D01*
X41400Y93702D01*
X41562Y93981D01*
X41630Y93990D01*
X41698Y93981D01*
X41860Y93702D01*
X42102Y93460D01*
X42398Y93289D01*
X42729Y93200D01*
X43071D01*
X43402Y93289D01*
X43698Y93460D01*
X43940Y93702D01*
X44102Y93981D01*
X44170Y93990D01*
X44238Y93981D01*
X44400Y93702D01*
X44642Y93460D01*
X44938Y93289D01*
X45269Y93200D01*
X45611D01*
X45942Y93289D01*
X46238Y93460D01*
X46480Y93702D01*
X46642Y93981D01*
X46710Y93990D01*
X46778Y93981D01*
X46940Y93702D01*
X47182Y93460D01*
X47478Y93289D01*
X47809Y93200D01*
X48151D01*
X48482Y93289D01*
X48778Y93460D01*
X49020Y93702D01*
X49182Y93981D01*
X49250Y93990D01*
X49318Y93981D01*
X49480Y93702D01*
X49722Y93460D01*
X50018Y93289D01*
X50349Y93200D01*
X50691D01*
X51022Y93289D01*
X51318Y93460D01*
X51560Y93702D01*
X51722Y93981D01*
X51790Y93990D01*
X51858Y93981D01*
X52020Y93702D01*
X52262Y93460D01*
X52558Y93289D01*
X52889Y93200D01*
X53231D01*
X53562Y93289D01*
X53858Y93460D01*
X54100Y93702D01*
X54271Y93998D01*
X54290Y94069D01*
X54417D01*
X54431Y94016D01*
X54597Y93730D01*
X54607Y93719D01*
X54815Y93927D01*
X55027Y93715D01*
X54819Y93507D01*
X54830Y93497D01*
X55116Y93331D01*
X55435Y93246D01*
X55765D01*
X56084Y93331D01*
X56370Y93497D01*
X56381Y93507D01*
X56173Y93715D01*
X56385Y93927D01*
X56593Y93719D01*
X56603Y93730D01*
X56769Y94016D01*
X56854Y94335D01*
Y94665D01*
X56769Y94984D01*
X56603Y95270D01*
X56593Y95281D01*
X56385Y95073D01*
X56173Y95285D01*
X56381Y95493D01*
X56370Y95503D01*
X56084Y95669D01*
X55765Y95754D01*
X55435D01*
X55116Y95669D01*
X54830Y95503D01*
X54819Y95493D01*
X55027Y95285D01*
X54815Y95073D01*
X54607Y95281D01*
X54597Y95270D01*
X54431Y94984D01*
X54417Y94931D01*
X54290D01*
X54271Y95002D01*
X54100Y95298D01*
X53858Y95540D01*
X53562Y95711D01*
X53231Y95800D01*
D02*
G37*
G36*
X54586Y93400D02*
X54414D01*
X54249Y93356D01*
X54101Y93270D01*
X53980Y93149D01*
X53894Y93001D01*
X53850Y92836D01*
Y92664D01*
X53894Y92499D01*
X53980Y92351D01*
X54101Y92230D01*
X54249Y92144D01*
X54414Y92100D01*
X54586D01*
X54751Y92144D01*
X54899Y92230D01*
X55020Y92351D01*
X55106Y92499D01*
X55150Y92664D01*
Y92836D01*
X55106Y93001D01*
X55020Y93149D01*
X54899Y93270D01*
X54751Y93356D01*
X54586Y93400D01*
D02*
G37*
G36*
X87220Y97300D02*
X86780D01*
X86344Y97231D01*
X85925Y97095D01*
X85532Y96895D01*
X85176Y96636D01*
X84864Y96324D01*
X84605Y95968D01*
X84405Y95575D01*
X84269Y95156D01*
X84200Y94720D01*
Y94280D01*
X84269Y93844D01*
X84405Y93425D01*
X84605Y93032D01*
X84864Y92676D01*
X85176Y92364D01*
X85532Y92105D01*
X85925Y91905D01*
X86344Y91769D01*
X86780Y91700D01*
X87220D01*
X87656Y91769D01*
X88075Y91905D01*
X88468Y92105D01*
X88824Y92364D01*
X89136Y92676D01*
X89395Y93032D01*
X89595Y93425D01*
X89731Y93844D01*
X89800Y94280D01*
Y94720D01*
X89731Y95156D01*
X89595Y95575D01*
X89395Y95968D01*
X89136Y96324D01*
X88824Y96636D01*
X88468Y96895D01*
X88075Y97095D01*
X87656Y97231D01*
X87220Y97300D01*
D02*
G37*
G36*
X12220D02*
X11780D01*
X11344Y97231D01*
X10925Y97095D01*
X10532Y96895D01*
X10176Y96636D01*
X9864Y96324D01*
X9605Y95968D01*
X9405Y95575D01*
X9269Y95156D01*
X9200Y94720D01*
Y94280D01*
X9269Y93844D01*
X9405Y93425D01*
X9605Y93032D01*
X9864Y92676D01*
X10176Y92364D01*
X10532Y92105D01*
X10925Y91905D01*
X11344Y91769D01*
X11780Y91700D01*
X12220D01*
X12656Y91769D01*
X13075Y91905D01*
X13468Y92105D01*
X13824Y92364D01*
X14136Y92676D01*
X14395Y93032D01*
X14595Y93425D01*
X14731Y93844D01*
X14800Y94280D01*
Y94720D01*
X14731Y95156D01*
X14595Y95575D01*
X14395Y95968D01*
X14136Y96324D01*
X13824Y96636D01*
X13468Y96895D01*
X13075Y97095D01*
X12656Y97231D01*
X12220Y97300D01*
D02*
G37*
G36*
X94760Y97800D02*
X94240D01*
X93727Y97719D01*
X93233Y97558D01*
X92770Y97322D01*
X92350Y97017D01*
X91983Y96650D01*
X91678Y96230D01*
X91442Y95767D01*
X91281Y95273D01*
X91200Y94760D01*
Y94240D01*
X91281Y93727D01*
X91442Y93233D01*
X91678Y92770D01*
X91983Y92350D01*
X92350Y91983D01*
X92770Y91678D01*
X93233Y91442D01*
X93727Y91281D01*
X94240Y91200D01*
X94760D01*
X95273Y91281D01*
X95767Y91442D01*
X96230Y91678D01*
X96650Y91983D01*
X97017Y92350D01*
X97322Y92770D01*
X97558Y93233D01*
X97719Y93727D01*
X97800Y94240D01*
Y94760D01*
X97719Y95273D01*
X97558Y95767D01*
X97322Y96230D01*
X97017Y96650D01*
X96650Y97017D01*
X96230Y97322D01*
X95767Y97558D01*
X95273Y97719D01*
X94760Y97800D01*
D02*
G37*
G36*
X4760D02*
X4240D01*
X3727Y97719D01*
X3233Y97558D01*
X2770Y97322D01*
X2350Y97017D01*
X1983Y96650D01*
X1678Y96230D01*
X1442Y95767D01*
X1281Y95273D01*
X1200Y94760D01*
Y94240D01*
X1281Y93727D01*
X1442Y93233D01*
X1678Y92770D01*
X1983Y92350D01*
X2350Y91983D01*
X2770Y91678D01*
X3233Y91442D01*
X3727Y91281D01*
X4240Y91200D01*
X4760D01*
X5273Y91281D01*
X5767Y91442D01*
X6230Y91678D01*
X6650Y91983D01*
X7017Y92350D01*
X7322Y92770D01*
X7558Y93233D01*
X7719Y93727D01*
X7800Y94240D01*
Y94760D01*
X7719Y95273D01*
X7558Y95767D01*
X7322Y96230D01*
X7017Y96650D01*
X6650Y97017D01*
X6230Y97322D01*
X5767Y97558D01*
X5273Y97719D01*
X4760Y97800D01*
D02*
G37*
G36*
X94620Y86854D02*
X94380D01*
X94188Y86774D01*
X94403Y86560D01*
X94190Y86347D01*
X93976Y86562D01*
X93896Y86370D01*
Y86130D01*
X93976Y85938D01*
X94190Y86153D01*
X94403Y85940D01*
X94188Y85726D01*
X94380Y85646D01*
X94620D01*
X94812Y85726D01*
X94597Y85940D01*
X94810Y86153D01*
X95024Y85938D01*
X95104Y86130D01*
Y86370D01*
X95024Y86562D01*
X94810Y86347D01*
X94597Y86560D01*
X94812Y86774D01*
X94620Y86854D01*
D02*
G37*
G36*
X78760Y90550D02*
X78240D01*
X77727Y90469D01*
X77233Y90308D01*
X76770Y90072D01*
X76350Y89767D01*
X75983Y89400D01*
X75678Y88980D01*
X75442Y88517D01*
X75281Y88023D01*
X75200Y87510D01*
Y86990D01*
X75281Y86477D01*
X75442Y85983D01*
X75678Y85520D01*
X75983Y85100D01*
X76350Y84733D01*
X76770Y84428D01*
X77233Y84192D01*
X77727Y84031D01*
X78240Y83950D01*
X78760D01*
X79273Y84031D01*
X79767Y84192D01*
X80230Y84428D01*
X80650Y84733D01*
X81017Y85100D01*
X81322Y85520D01*
X81558Y85983D01*
X81719Y86477D01*
X81800Y86990D01*
Y87510D01*
X81719Y88023D01*
X81558Y88517D01*
X81322Y88980D01*
X81017Y89400D01*
X80650Y89767D01*
X80230Y90072D01*
X79767Y90308D01*
X79273Y90469D01*
X78760Y90550D01*
D02*
G37*
G36*
X20760D02*
X20240D01*
X19727Y90469D01*
X19233Y90308D01*
X18770Y90072D01*
X18350Y89767D01*
X17983Y89400D01*
X17678Y88980D01*
X17442Y88517D01*
X17281Y88023D01*
X17200Y87510D01*
Y86990D01*
X17281Y86477D01*
X17442Y85983D01*
X17678Y85520D01*
X17983Y85100D01*
X18350Y84733D01*
X18770Y84428D01*
X19233Y84192D01*
X19727Y84031D01*
X20240Y83950D01*
X20760D01*
X21273Y84031D01*
X21767Y84192D01*
X22230Y84428D01*
X22650Y84733D01*
X23017Y85100D01*
X23322Y85520D01*
X23558Y85983D01*
X23719Y86477D01*
X23800Y86990D01*
Y87510D01*
X23719Y88023D01*
X23558Y88517D01*
X23322Y88980D01*
X23017Y89400D01*
X22650Y89767D01*
X22230Y90072D01*
X21767Y90308D01*
X21273Y90469D01*
X20760Y90550D01*
D02*
G37*
G36*
X25206Y78150D02*
X25034D01*
X24869Y78106D01*
X24721Y78020D01*
X24600Y77899D01*
X24514Y77751D01*
X24470Y77586D01*
Y77414D01*
X24514Y77249D01*
X24600Y77101D01*
X24721Y76980D01*
X24869Y76894D01*
X25034Y76850D01*
X25206D01*
X25371Y76894D01*
X25519Y76980D01*
X25640Y77101D01*
X25726Y77249D01*
X25770Y77414D01*
Y77586D01*
X25726Y77751D01*
X25640Y77899D01*
X25519Y78020D01*
X25371Y78106D01*
X25206Y78150D01*
D02*
G37*
G36*
X74684Y66574D02*
X73780D01*
Y66292D01*
X73480D01*
Y66574D01*
X72576D01*
Y65670D01*
X72858D01*
Y65370D01*
X72576D01*
Y64466D01*
X73480D01*
Y64748D01*
X73780D01*
Y64466D01*
X74684D01*
Y65370D01*
X74402D01*
Y65670D01*
X74684D01*
Y66574D01*
D02*
G37*
G36*
X36584D02*
X35680D01*
Y66292D01*
X35380D01*
Y66574D01*
X34476D01*
Y65670D01*
X34758D01*
Y65370D01*
X34476D01*
Y64466D01*
X35380D01*
Y64748D01*
X35680D01*
Y64466D01*
X36584D01*
Y65370D01*
X36302D01*
Y65670D01*
X36584D01*
Y66574D01*
D02*
G37*
G36*
X54586Y67650D02*
X54414D01*
X54249Y67606D01*
X54101Y67520D01*
X53980Y67399D01*
X53894Y67251D01*
X53850Y67086D01*
Y66914D01*
X53894Y66749D01*
X53980Y66601D01*
X54101Y66480D01*
X54249Y66394D01*
X54414Y66350D01*
X54586D01*
X54669Y66372D01*
X54796Y66281D01*
Y65670D01*
X55078D01*
Y65370D01*
X54796D01*
Y64466D01*
X55700D01*
Y64748D01*
X56000D01*
Y64466D01*
X56904D01*
Y65370D01*
X56622D01*
Y65670D01*
X56904D01*
Y66574D01*
X56000D01*
Y66292D01*
X55700D01*
Y66574D01*
X55151D01*
X55078Y66701D01*
X55106Y66749D01*
X55150Y66914D01*
Y67086D01*
X55106Y67251D01*
X55020Y67399D01*
X54899Y67520D01*
X54751Y67606D01*
X54586Y67650D01*
D02*
G37*
G36*
X71235Y66620D02*
X70945D01*
X70665Y66545D01*
X70415Y66400D01*
X70210Y66195D01*
X70065Y65945D01*
X69990Y65665D01*
Y65375D01*
X70065Y65095D01*
X70210Y64845D01*
X70415Y64640D01*
X70665Y64495D01*
X70945Y64420D01*
X71235D01*
X71515Y64495D01*
X71765Y64640D01*
X71970Y64845D01*
X72115Y65095D01*
X72190Y65375D01*
Y65665D01*
X72115Y65945D01*
X71970Y66195D01*
X71765Y66400D01*
X71515Y66545D01*
X71235Y66620D01*
D02*
G37*
G36*
X68695D02*
X68405D01*
X68125Y66545D01*
X67875Y66400D01*
X67670Y66195D01*
X67525Y65945D01*
X67450Y65665D01*
Y65375D01*
X67525Y65095D01*
X67670Y64845D01*
X67875Y64640D01*
X68125Y64495D01*
X68405Y64420D01*
X68695D01*
X68975Y64495D01*
X69225Y64640D01*
X69430Y64845D01*
X69575Y65095D01*
X69650Y65375D01*
Y65665D01*
X69575Y65945D01*
X69430Y66195D01*
X69225Y66400D01*
X68975Y66545D01*
X68695Y66620D01*
D02*
G37*
G36*
X66155D02*
X65865D01*
X65585Y66545D01*
X65335Y66400D01*
X65130Y66195D01*
X64985Y65945D01*
X64910Y65665D01*
Y65375D01*
X64985Y65095D01*
X65130Y64845D01*
X65335Y64640D01*
X65585Y64495D01*
X65865Y64420D01*
X66155D01*
X66435Y64495D01*
X66685Y64640D01*
X66890Y64845D01*
X67035Y65095D01*
X67110Y65375D01*
Y65665D01*
X67035Y65945D01*
X66890Y66195D01*
X66685Y66400D01*
X66435Y66545D01*
X66155Y66620D01*
D02*
G37*
G36*
X63615D02*
X63325D01*
X63045Y66545D01*
X62795Y66400D01*
X62590Y66195D01*
X62445Y65945D01*
X62370Y65665D01*
Y65375D01*
X62445Y65095D01*
X62590Y64845D01*
X62795Y64640D01*
X63045Y64495D01*
X63325Y64420D01*
X63615D01*
X63895Y64495D01*
X64145Y64640D01*
X64350Y64845D01*
X64495Y65095D01*
X64570Y65375D01*
Y65665D01*
X64495Y65945D01*
X64350Y66195D01*
X64145Y66400D01*
X63895Y66545D01*
X63615Y66620D01*
D02*
G37*
G36*
X61075D02*
X60785D01*
X60505Y66545D01*
X60255Y66400D01*
X60050Y66195D01*
X59905Y65945D01*
X59830Y65665D01*
Y65375D01*
X59905Y65095D01*
X60050Y64845D01*
X60255Y64640D01*
X60505Y64495D01*
X60785Y64420D01*
X61075D01*
X61355Y64495D01*
X61605Y64640D01*
X61810Y64845D01*
X61955Y65095D01*
X62030Y65375D01*
Y65665D01*
X61955Y65945D01*
X61810Y66195D01*
X61605Y66400D01*
X61355Y66545D01*
X61075Y66620D01*
D02*
G37*
G36*
X58535D02*
X58245D01*
X57965Y66545D01*
X57715Y66400D01*
X57510Y66195D01*
X57365Y65945D01*
X57290Y65665D01*
Y65375D01*
X57365Y65095D01*
X57510Y64845D01*
X57715Y64640D01*
X57965Y64495D01*
X58245Y64420D01*
X58535D01*
X58815Y64495D01*
X59065Y64640D01*
X59270Y64845D01*
X59415Y65095D01*
X59490Y65375D01*
Y65665D01*
X59415Y65945D01*
X59270Y66195D01*
X59065Y66400D01*
X58815Y66545D01*
X58535Y66620D01*
D02*
G37*
G36*
X53455D02*
X53165D01*
X52885Y66545D01*
X52635Y66400D01*
X52430Y66195D01*
X52285Y65945D01*
X52210Y65665D01*
Y65375D01*
X52285Y65095D01*
X52430Y64845D01*
X52635Y64640D01*
X52885Y64495D01*
X53165Y64420D01*
X53455D01*
X53735Y64495D01*
X53985Y64640D01*
X54190Y64845D01*
X54335Y65095D01*
X54410Y65375D01*
Y65665D01*
X54335Y65945D01*
X54190Y66195D01*
X53985Y66400D01*
X53735Y66545D01*
X53455Y66620D01*
D02*
G37*
G36*
X50915D02*
X50625D01*
X50345Y66545D01*
X50095Y66400D01*
X49890Y66195D01*
X49745Y65945D01*
X49670Y65665D01*
Y65375D01*
X49745Y65095D01*
X49890Y64845D01*
X50095Y64640D01*
X50345Y64495D01*
X50625Y64420D01*
X50915D01*
X51195Y64495D01*
X51445Y64640D01*
X51650Y64845D01*
X51795Y65095D01*
X51870Y65375D01*
Y65665D01*
X51795Y65945D01*
X51650Y66195D01*
X51445Y66400D01*
X51195Y66545D01*
X50915Y66620D01*
D02*
G37*
G36*
X48375D02*
X48085D01*
X47805Y66545D01*
X47555Y66400D01*
X47350Y66195D01*
X47205Y65945D01*
X47130Y65665D01*
Y65375D01*
X47205Y65095D01*
X47350Y64845D01*
X47555Y64640D01*
X47805Y64495D01*
X48085Y64420D01*
X48375D01*
X48655Y64495D01*
X48905Y64640D01*
X49110Y64845D01*
X49255Y65095D01*
X49330Y65375D01*
Y65665D01*
X49255Y65945D01*
X49110Y66195D01*
X48905Y66400D01*
X48655Y66545D01*
X48375Y66620D01*
D02*
G37*
G36*
X45835D02*
X45545D01*
X45265Y66545D01*
X45015Y66400D01*
X44810Y66195D01*
X44665Y65945D01*
X44590Y65665D01*
Y65375D01*
X44665Y65095D01*
X44810Y64845D01*
X45015Y64640D01*
X45265Y64495D01*
X45545Y64420D01*
X45835D01*
X46115Y64495D01*
X46365Y64640D01*
X46570Y64845D01*
X46715Y65095D01*
X46790Y65375D01*
Y65665D01*
X46715Y65945D01*
X46570Y66195D01*
X46365Y66400D01*
X46115Y66545D01*
X45835Y66620D01*
D02*
G37*
G36*
X43295D02*
X43005D01*
X42725Y66545D01*
X42475Y66400D01*
X42270Y66195D01*
X42125Y65945D01*
X42050Y65665D01*
Y65375D01*
X42125Y65095D01*
X42270Y64845D01*
X42475Y64640D01*
X42725Y64495D01*
X43005Y64420D01*
X43295D01*
X43575Y64495D01*
X43825Y64640D01*
X44030Y64845D01*
X44175Y65095D01*
X44250Y65375D01*
Y65665D01*
X44175Y65945D01*
X44030Y66195D01*
X43825Y66400D01*
X43575Y66545D01*
X43295Y66620D01*
D02*
G37*
G36*
X40755D02*
X40465D01*
X40185Y66545D01*
X39935Y66400D01*
X39730Y66195D01*
X39585Y65945D01*
X39510Y65665D01*
Y65375D01*
X39585Y65095D01*
X39730Y64845D01*
X39935Y64640D01*
X40185Y64495D01*
X40465Y64420D01*
X40755D01*
X41035Y64495D01*
X41285Y64640D01*
X41490Y64845D01*
X41635Y65095D01*
X41710Y65375D01*
Y65665D01*
X41635Y65945D01*
X41490Y66195D01*
X41285Y66400D01*
X41035Y66545D01*
X40755Y66620D01*
D02*
G37*
G36*
X38215D02*
X37925D01*
X37645Y66545D01*
X37395Y66400D01*
X37190Y66195D01*
X37045Y65945D01*
X36970Y65665D01*
Y65375D01*
X37045Y65095D01*
X37190Y64845D01*
X37395Y64640D01*
X37645Y64495D01*
X37925Y64420D01*
X38215D01*
X38495Y64495D01*
X38745Y64640D01*
X38950Y64845D01*
X39095Y65095D01*
X39170Y65375D01*
Y65665D01*
X39095Y65945D01*
X38950Y66195D01*
X38745Y66400D01*
X38495Y66545D01*
X38215Y66620D01*
D02*
G37*
G36*
X33135D02*
X32845D01*
X32565Y66545D01*
X32315Y66400D01*
X32110Y66195D01*
X31965Y65945D01*
X31890Y65665D01*
Y65375D01*
X31965Y65095D01*
X32110Y64845D01*
X32315Y64640D01*
X32565Y64495D01*
X32845Y64420D01*
X33135D01*
X33415Y64495D01*
X33665Y64640D01*
X33870Y64845D01*
X34015Y65095D01*
X34090Y65375D01*
Y65665D01*
X34015Y65945D01*
X33870Y66195D01*
X33665Y66400D01*
X33415Y66545D01*
X33135Y66620D01*
D02*
G37*
G36*
X30595D02*
X30305D01*
X30025Y66545D01*
X29775Y66400D01*
X29570Y66195D01*
X29425Y65945D01*
X29350Y65665D01*
Y65375D01*
X29425Y65095D01*
X29570Y64845D01*
X29775Y64640D01*
X30025Y64495D01*
X30305Y64420D01*
X30595D01*
X30875Y64495D01*
X31125Y64640D01*
X31330Y64845D01*
X31475Y65095D01*
X31550Y65375D01*
Y65665D01*
X31475Y65945D01*
X31330Y66195D01*
X31125Y66400D01*
X30875Y66545D01*
X30595Y66620D01*
D02*
G37*
G36*
X28055D02*
X27765D01*
X27485Y66545D01*
X27235Y66400D01*
X27030Y66195D01*
X26885Y65945D01*
X26810Y65665D01*
Y65375D01*
X26885Y65095D01*
X27030Y64845D01*
X27235Y64640D01*
X27485Y64495D01*
X27765Y64420D01*
X28055D01*
X28335Y64495D01*
X28585Y64640D01*
X28790Y64845D01*
X28935Y65095D01*
X29010Y65375D01*
Y65665D01*
X28935Y65945D01*
X28790Y66195D01*
X28585Y66400D01*
X28335Y66545D01*
X28055Y66620D01*
D02*
G37*
G36*
X25515D02*
X25225D01*
X24945Y66545D01*
X24695Y66400D01*
X24490Y66195D01*
X24345Y65945D01*
X24270Y65665D01*
Y65375D01*
X24345Y65095D01*
X24490Y64845D01*
X24695Y64640D01*
X24945Y64495D01*
X25225Y64420D01*
X25515D01*
X25795Y64495D01*
X26045Y64640D01*
X26250Y64845D01*
X26395Y65095D01*
X26470Y65375D01*
Y65665D01*
X26395Y65945D01*
X26250Y66195D01*
X26045Y66400D01*
X25795Y66545D01*
X25515Y66620D01*
D02*
G37*
G36*
X67064Y64034D02*
X66160D01*
Y63752D01*
X65860D01*
Y64034D01*
X64956D01*
Y63130D01*
X65238D01*
Y62830D01*
X64956D01*
Y61926D01*
X65860D01*
Y62208D01*
X66160D01*
Y61926D01*
X67064D01*
Y62830D01*
X66782D01*
Y63130D01*
X67064D01*
Y64034D01*
D02*
G37*
G36*
X61984D02*
X61080D01*
Y63752D01*
X60780D01*
Y64034D01*
X59876D01*
Y63130D01*
X60158D01*
Y62830D01*
X59876D01*
Y61926D01*
X60780D01*
Y62208D01*
X61080D01*
Y61926D01*
X61984D01*
Y62830D01*
X61702D01*
Y63130D01*
X61984D01*
Y64034D01*
D02*
G37*
G36*
X49284D02*
X48380D01*
Y63752D01*
X48080D01*
Y64034D01*
X47176D01*
Y63130D01*
X47458D01*
Y62830D01*
X47176D01*
Y61926D01*
X48080D01*
Y62208D01*
X48380D01*
Y61926D01*
X49284D01*
Y62830D01*
X49002D01*
Y63130D01*
X49284D01*
Y64034D01*
D02*
G37*
G36*
X41664D02*
X40760D01*
Y63752D01*
X40460D01*
Y64034D01*
X39556D01*
Y63130D01*
X39838D01*
Y62830D01*
X39556D01*
Y61926D01*
X40460D01*
Y62208D01*
X40760D01*
Y61926D01*
X41664D01*
Y62830D01*
X41382D01*
Y63130D01*
X41664D01*
Y64034D01*
D02*
G37*
G36*
X31504D02*
X30600D01*
Y63752D01*
X30300D01*
Y64034D01*
X29396D01*
Y63130D01*
X29678D01*
Y62830D01*
X29396D01*
Y61926D01*
X30300D01*
Y62208D01*
X30600D01*
Y61926D01*
X31504D01*
Y62830D01*
X31222D01*
Y63130D01*
X31504D01*
Y64034D01*
D02*
G37*
G36*
X73775Y64080D02*
X73485D01*
X73205Y64005D01*
X72955Y63860D01*
X72750Y63655D01*
X72605Y63405D01*
X72530Y63125D01*
Y62835D01*
X72605Y62555D01*
X72750Y62305D01*
X72955Y62100D01*
X73205Y61955D01*
X73485Y61880D01*
X73775D01*
X74055Y61955D01*
X74305Y62100D01*
X74510Y62305D01*
X74655Y62555D01*
X74730Y62835D01*
Y63125D01*
X74655Y63405D01*
X74510Y63655D01*
X74305Y63860D01*
X74055Y64005D01*
X73775Y64080D01*
D02*
G37*
G36*
X71235D02*
X70945D01*
X70665Y64005D01*
X70415Y63860D01*
X70210Y63655D01*
X70065Y63405D01*
X69990Y63125D01*
Y62835D01*
X70065Y62555D01*
X70210Y62305D01*
X70415Y62100D01*
X70665Y61955D01*
X70945Y61880D01*
X71235D01*
X71515Y61955D01*
X71765Y62100D01*
X71970Y62305D01*
X72115Y62555D01*
X72190Y62835D01*
Y63125D01*
X72115Y63405D01*
X71970Y63655D01*
X71765Y63860D01*
X71515Y64005D01*
X71235Y64080D01*
D02*
G37*
G36*
X68695D02*
X68405D01*
X68125Y64005D01*
X67875Y63860D01*
X67670Y63655D01*
X67525Y63405D01*
X67450Y63125D01*
Y62835D01*
X67525Y62555D01*
X67670Y62305D01*
X67875Y62100D01*
X68125Y61955D01*
X68405Y61880D01*
X68695D01*
X68975Y61955D01*
X69225Y62100D01*
X69430Y62305D01*
X69575Y62555D01*
X69650Y62835D01*
Y63125D01*
X69575Y63405D01*
X69430Y63655D01*
X69225Y63860D01*
X68975Y64005D01*
X68695Y64080D01*
D02*
G37*
G36*
X63615D02*
X63325D01*
X63045Y64005D01*
X62795Y63860D01*
X62590Y63655D01*
X62445Y63405D01*
X62370Y63125D01*
Y62835D01*
X62445Y62555D01*
X62590Y62305D01*
X62795Y62100D01*
X63045Y61955D01*
X63325Y61880D01*
X63615D01*
X63895Y61955D01*
X64145Y62100D01*
X64350Y62305D01*
X64495Y62555D01*
X64570Y62835D01*
Y63125D01*
X64495Y63405D01*
X64350Y63655D01*
X64145Y63860D01*
X63895Y64005D01*
X63615Y64080D01*
D02*
G37*
G36*
X58535D02*
X58245D01*
X57965Y64005D01*
X57715Y63860D01*
X57510Y63655D01*
X57365Y63405D01*
X57290Y63125D01*
Y62835D01*
X57365Y62555D01*
X57510Y62305D01*
X57715Y62100D01*
X57965Y61955D01*
X58245Y61880D01*
X58535D01*
X58815Y61955D01*
X59065Y62100D01*
X59270Y62305D01*
X59415Y62555D01*
X59490Y62835D01*
Y63125D01*
X59415Y63405D01*
X59270Y63655D01*
X59065Y63860D01*
X58815Y64005D01*
X58535Y64080D01*
D02*
G37*
G36*
X53455D02*
X53165D01*
X52885Y64005D01*
X52635Y63860D01*
X52430Y63655D01*
X52285Y63405D01*
X52210Y63125D01*
Y62835D01*
X52285Y62555D01*
X52430Y62305D01*
X52635Y62100D01*
X52885Y61955D01*
X53165Y61880D01*
X53455D01*
X53735Y61955D01*
X53985Y62100D01*
X54190Y62305D01*
X54335Y62555D01*
X54410Y62835D01*
Y63125D01*
X54335Y63405D01*
X54190Y63655D01*
X53985Y63860D01*
X53735Y64005D01*
X53455Y64080D01*
D02*
G37*
G36*
X50915D02*
X50625D01*
X50345Y64005D01*
X50095Y63860D01*
X49890Y63655D01*
X49745Y63405D01*
X49670Y63125D01*
Y62835D01*
X49745Y62555D01*
X49890Y62305D01*
X50095Y62100D01*
X50345Y61955D01*
X50625Y61880D01*
X50915D01*
X51195Y61955D01*
X51445Y62100D01*
X51650Y62305D01*
X51795Y62555D01*
X51870Y62835D01*
Y63125D01*
X51795Y63405D01*
X51650Y63655D01*
X51445Y63860D01*
X51195Y64005D01*
X50915Y64080D01*
D02*
G37*
G36*
X45835D02*
X45545D01*
X45265Y64005D01*
X45015Y63860D01*
X44810Y63655D01*
X44665Y63405D01*
X44590Y63125D01*
Y62835D01*
X44665Y62555D01*
X44810Y62305D01*
X45015Y62100D01*
X45265Y61955D01*
X45545Y61880D01*
X45835D01*
X46115Y61955D01*
X46365Y62100D01*
X46570Y62305D01*
X46715Y62555D01*
X46790Y62835D01*
Y63125D01*
X46715Y63405D01*
X46570Y63655D01*
X46365Y63860D01*
X46115Y64005D01*
X45835Y64080D01*
D02*
G37*
G36*
X43295D02*
X43005D01*
X42725Y64005D01*
X42475Y63860D01*
X42270Y63655D01*
X42125Y63405D01*
X42050Y63125D01*
Y62835D01*
X42125Y62555D01*
X42270Y62305D01*
X42475Y62100D01*
X42725Y61955D01*
X43005Y61880D01*
X43295D01*
X43575Y61955D01*
X43825Y62100D01*
X44030Y62305D01*
X44175Y62555D01*
X44250Y62835D01*
Y63125D01*
X44175Y63405D01*
X44030Y63655D01*
X43825Y63860D01*
X43575Y64005D01*
X43295Y64080D01*
D02*
G37*
G36*
X38215D02*
X37925D01*
X37645Y64005D01*
X37395Y63860D01*
X37190Y63655D01*
X37045Y63405D01*
X36970Y63125D01*
Y62835D01*
X37045Y62555D01*
X37190Y62305D01*
X37395Y62100D01*
X37645Y61955D01*
X37925Y61880D01*
X38215D01*
X38495Y61955D01*
X38745Y62100D01*
X38950Y62305D01*
X39095Y62555D01*
X39170Y62835D01*
Y63125D01*
X39095Y63405D01*
X38950Y63655D01*
X38745Y63860D01*
X38495Y64005D01*
X38215Y64080D01*
D02*
G37*
G36*
X35675D02*
X35385D01*
X35105Y64005D01*
X34855Y63860D01*
X34650Y63655D01*
X34505Y63405D01*
X34430Y63125D01*
Y62835D01*
X34505Y62555D01*
X34650Y62305D01*
X34855Y62100D01*
X35105Y61955D01*
X35385Y61880D01*
X35675D01*
X35955Y61955D01*
X36205Y62100D01*
X36410Y62305D01*
X36555Y62555D01*
X36630Y62835D01*
Y63125D01*
X36555Y63405D01*
X36410Y63655D01*
X36205Y63860D01*
X35955Y64005D01*
X35675Y64080D01*
D02*
G37*
G36*
X33135D02*
X32845D01*
X32565Y64005D01*
X32315Y63860D01*
X32110Y63655D01*
X31965Y63405D01*
X31890Y63125D01*
Y62835D01*
X31965Y62555D01*
X32110Y62305D01*
X32315Y62100D01*
X32565Y61955D01*
X32845Y61880D01*
X33135D01*
X33415Y61955D01*
X33665Y62100D01*
X33870Y62305D01*
X34015Y62555D01*
X34090Y62835D01*
Y63125D01*
X34015Y63405D01*
X33870Y63655D01*
X33665Y63860D01*
X33415Y64005D01*
X33135Y64080D01*
D02*
G37*
G36*
X28055D02*
X27765D01*
X27485Y64005D01*
X27235Y63860D01*
X27030Y63655D01*
X26885Y63405D01*
X26810Y63125D01*
Y62835D01*
X26885Y62555D01*
X27030Y62305D01*
X27235Y62100D01*
X27485Y61955D01*
X27765Y61880D01*
X28055D01*
X28335Y61955D01*
X28585Y62100D01*
X28790Y62305D01*
X28935Y62555D01*
X29010Y62835D01*
Y63125D01*
X28935Y63405D01*
X28790Y63655D01*
X28585Y63860D01*
X28335Y64005D01*
X28055Y64080D01*
D02*
G37*
G36*
X25515D02*
X25225D01*
X24945Y64005D01*
X24695Y63860D01*
X24490Y63655D01*
X24345Y63405D01*
X24270Y63125D01*
Y62835D01*
X24345Y62555D01*
X24490Y62305D01*
X24695Y62100D01*
X24945Y61955D01*
X25225Y61880D01*
X25515D01*
X25795Y61955D01*
X26045Y62100D01*
X26250Y62305D01*
X26395Y62555D01*
X26470Y62835D01*
Y63125D01*
X26395Y63405D01*
X26250Y63655D01*
X26045Y63860D01*
X25795Y64005D01*
X25515Y64080D01*
D02*
G37*
G36*
X78760Y67550D02*
X78240D01*
X77727Y67469D01*
X77233Y67308D01*
X76770Y67072D01*
X76350Y66767D01*
X75983Y66400D01*
X75678Y65980D01*
X75442Y65517D01*
X75281Y65023D01*
X75200Y64510D01*
Y63990D01*
X75281Y63477D01*
X75442Y62983D01*
X75678Y62520D01*
X75983Y62100D01*
X76350Y61733D01*
X76770Y61428D01*
X77233Y61192D01*
X77727Y61031D01*
X78240Y60950D01*
X78760D01*
X79273Y61031D01*
X79767Y61192D01*
X80230Y61428D01*
X80650Y61733D01*
X81017Y62100D01*
X81322Y62520D01*
X81558Y62983D01*
X81719Y63477D01*
X81800Y63990D01*
Y64510D01*
X81719Y65023D01*
X81558Y65517D01*
X81322Y65980D01*
X81017Y66400D01*
X80650Y66767D01*
X80230Y67072D01*
X79767Y67308D01*
X79273Y67469D01*
X78760Y67550D01*
D02*
G37*
G36*
X20760D02*
X20240D01*
X19727Y67469D01*
X19233Y67308D01*
X18770Y67072D01*
X18350Y66767D01*
X17983Y66400D01*
X17678Y65980D01*
X17442Y65517D01*
X17281Y65023D01*
X17200Y64510D01*
Y63990D01*
X17281Y63477D01*
X17442Y62983D01*
X17678Y62520D01*
X17983Y62100D01*
X18350Y61733D01*
X18770Y61428D01*
X19233Y61192D01*
X19727Y61031D01*
X20240Y60950D01*
X20760D01*
X21273Y61031D01*
X21767Y61192D01*
X22230Y61428D01*
X22650Y61733D01*
X23017Y62100D01*
X23322Y62520D01*
X23558Y62983D01*
X23719Y63477D01*
X23800Y63990D01*
Y64510D01*
X23719Y65023D01*
X23558Y65517D01*
X23322Y65980D01*
X23017Y66400D01*
X22650Y66767D01*
X22230Y67072D01*
X21767Y67308D01*
X21273Y67469D01*
X20760Y67550D01*
D02*
G37*
G36*
X55995Y64080D02*
X55705D01*
X55425Y64005D01*
X55175Y63860D01*
X54970Y63655D01*
X54825Y63405D01*
X54750Y63125D01*
Y62835D01*
X54825Y62555D01*
X54970Y62305D01*
X55175Y62100D01*
X55425Y61955D01*
X55705Y61880D01*
X55995D01*
X56275Y61955D01*
X56468Y62066D01*
X56545Y61965D01*
X56480Y61899D01*
X56394Y61751D01*
X56350Y61586D01*
Y61414D01*
X56394Y61249D01*
X56480Y61101D01*
X56601Y60980D01*
X56749Y60894D01*
X56914Y60850D01*
X57086D01*
X57251Y60894D01*
X57399Y60980D01*
X57520Y61101D01*
X57606Y61249D01*
X57650Y61414D01*
Y61586D01*
X57606Y61751D01*
X57520Y61899D01*
X57399Y62020D01*
X57251Y62106D01*
X57086Y62150D01*
X56914D01*
X56749Y62106D01*
X56659Y62054D01*
X56581Y62155D01*
X56730Y62305D01*
X56875Y62555D01*
X56950Y62835D01*
Y63125D01*
X56875Y63405D01*
X56730Y63655D01*
X56525Y63860D01*
X56275Y64005D01*
X55995Y64080D01*
D02*
G37*
G36*
X87220Y66300D02*
X86780D01*
X86344Y66231D01*
X85925Y66095D01*
X85532Y65895D01*
X85176Y65636D01*
X84864Y65324D01*
X84605Y64968D01*
X84405Y64575D01*
X84269Y64156D01*
X84200Y63720D01*
Y63280D01*
X84269Y62844D01*
X84405Y62425D01*
X84605Y62032D01*
X84864Y61676D01*
X85176Y61364D01*
X85532Y61105D01*
X85925Y60905D01*
X86344Y60769D01*
X86780Y60700D01*
X87220D01*
X87656Y60769D01*
X88075Y60905D01*
X88468Y61105D01*
X88824Y61364D01*
X89136Y61676D01*
X89395Y62032D01*
X89595Y62425D01*
X89731Y62844D01*
X89800Y63280D01*
Y63720D01*
X89731Y64156D01*
X89595Y64575D01*
X89395Y64968D01*
X89136Y65324D01*
X88824Y65636D01*
X88468Y65895D01*
X88075Y66095D01*
X87656Y66231D01*
X87220Y66300D01*
D02*
G37*
G36*
X12220D02*
X11780D01*
X11344Y66231D01*
X10925Y66095D01*
X10532Y65895D01*
X10176Y65636D01*
X9864Y65324D01*
X9605Y64968D01*
X9405Y64575D01*
X9269Y64156D01*
X9200Y63720D01*
Y63280D01*
X9269Y62844D01*
X9405Y62425D01*
X9605Y62032D01*
X9864Y61676D01*
X10176Y61364D01*
X10532Y61105D01*
X10925Y60905D01*
X11344Y60769D01*
X11780Y60700D01*
X12220D01*
X12656Y60769D01*
X13075Y60905D01*
X13468Y61105D01*
X13824Y61364D01*
X14136Y61676D01*
X14395Y62032D01*
X14595Y62425D01*
X14731Y62844D01*
X14800Y63280D01*
Y63720D01*
X14731Y64156D01*
X14595Y64575D01*
X14395Y64968D01*
X14136Y65324D01*
X13824Y65636D01*
X13468Y65895D01*
X13075Y66095D01*
X12656Y66231D01*
X12220Y66300D01*
D02*
G37*
G36*
X84412Y57641D02*
X84088D01*
X83771Y57578D01*
X83472Y57455D01*
X83204Y57275D01*
X83195Y57267D01*
X83401Y57061D01*
X83189Y56849D01*
X82983Y57055D01*
X82975Y57046D01*
X82795Y56778D01*
X82672Y56479D01*
X82608Y56162D01*
Y55838D01*
X82672Y55521D01*
X82795Y55222D01*
X82975Y54954D01*
X82983Y54945D01*
X83189Y55151D01*
X83401Y54939D01*
X83195Y54733D01*
X83204Y54725D01*
X83472Y54545D01*
X83771Y54422D01*
X84088Y54359D01*
X84412D01*
X84729Y54422D01*
X85028Y54545D01*
X85296Y54725D01*
X85305Y54733D01*
X85099Y54939D01*
X85311Y55151D01*
X85517Y54945D01*
X85525Y54954D01*
X85705Y55222D01*
X85828Y55521D01*
X85892Y55838D01*
Y56162D01*
X85828Y56479D01*
X85705Y56778D01*
X85525Y57046D01*
X85517Y57055D01*
X85311Y56849D01*
X85099Y57061D01*
X85305Y57267D01*
X85296Y57275D01*
X85028Y57455D01*
X84729Y57578D01*
X84412Y57641D01*
D02*
G37*
G36*
X57086Y57150D02*
X56914D01*
X56749Y57106D01*
X56601Y57020D01*
X56480Y56899D01*
X56394Y56751D01*
X56350Y56586D01*
Y56414D01*
X56394Y56249D01*
X56480Y56101D01*
X56601Y55980D01*
X56749Y55894D01*
X56914Y55850D01*
X57086D01*
X57251Y55894D01*
X57399Y55980D01*
X57520Y56101D01*
X57606Y56249D01*
X57650Y56414D01*
Y56586D01*
X57606Y56751D01*
X57520Y56899D01*
X57399Y57020D01*
X57251Y57106D01*
X57086Y57150D01*
D02*
G37*
G36*
X80841Y57235D02*
X80597D01*
X80362Y57172D01*
X80151Y57050D01*
X79979Y56878D01*
X79857Y56667D01*
X79794Y56432D01*
Y56188D01*
X79857Y55953D01*
X79979Y55742D01*
X80151Y55570D01*
X80362Y55448D01*
X80597Y55385D01*
X80841D01*
X81076Y55448D01*
X81287Y55570D01*
X81459Y55742D01*
X81581Y55953D01*
X81644Y56188D01*
Y56432D01*
X81581Y56667D01*
X81459Y56878D01*
X81287Y57050D01*
X81076Y57172D01*
X80841Y57235D01*
D02*
G37*
G36*
X72903D02*
X72659D01*
X72424Y57172D01*
X72213Y57050D01*
X72041Y56878D01*
X71919Y56667D01*
X71856Y56432D01*
Y56188D01*
X71919Y55953D01*
X72041Y55742D01*
X72213Y55570D01*
X72424Y55448D01*
X72659Y55385D01*
X72903D01*
X73138Y55448D01*
X73349Y55570D01*
X73521Y55742D01*
X73643Y55953D01*
X73706Y56188D01*
Y56432D01*
X73643Y56667D01*
X73521Y56878D01*
X73349Y57050D01*
X73138Y57172D01*
X72903Y57235D01*
D02*
G37*
G36*
X69370Y57092D02*
X69090D01*
X68820Y57020D01*
X68578Y56880D01*
X68380Y56682D01*
X68240Y56440D01*
X68168Y56170D01*
Y55890D01*
X68240Y55620D01*
X68380Y55378D01*
X68578Y55180D01*
X68820Y55040D01*
X69090Y54968D01*
X69370D01*
X69640Y55040D01*
X69882Y55180D01*
X70080Y55378D01*
X70220Y55620D01*
X70292Y55890D01*
Y56170D01*
X70220Y56440D01*
X70080Y56682D01*
X69882Y56880D01*
X69640Y57020D01*
X69370Y57092D01*
D02*
G37*
G36*
X51390D02*
X51110D01*
X50840Y57020D01*
X50598Y56880D01*
X50400Y56682D01*
X50260Y56440D01*
X50188Y56170D01*
Y55890D01*
X50260Y55620D01*
X50400Y55378D01*
X50598Y55180D01*
X50840Y55040D01*
X51110Y54968D01*
X51390D01*
X51660Y55040D01*
X51902Y55180D01*
X52100Y55378D01*
X52240Y55620D01*
X52312Y55890D01*
Y56170D01*
X52240Y56440D01*
X52100Y56682D01*
X51902Y56880D01*
X51660Y57020D01*
X51390Y57092D01*
D02*
G37*
G36*
X47430Y57062D02*
X47150D01*
X46880Y56990D01*
X46638Y56850D01*
X46440Y56652D01*
X46300Y56410D01*
X46228Y56140D01*
Y55860D01*
X46300Y55590D01*
X46440Y55348D01*
X46638Y55150D01*
X46880Y55010D01*
X47150Y54938D01*
X47430D01*
X47700Y55010D01*
X47942Y55150D01*
X48140Y55348D01*
X48280Y55590D01*
X48352Y55860D01*
Y56140D01*
X48280Y56410D01*
X48140Y56652D01*
X47942Y56850D01*
X47700Y56990D01*
X47430Y57062D01*
D02*
G37*
G36*
X44890D02*
X44610D01*
X44340Y56990D01*
X44098Y56850D01*
X43900Y56652D01*
X43760Y56410D01*
X43688Y56140D01*
Y55860D01*
X43760Y55590D01*
X43900Y55348D01*
X44098Y55150D01*
X44340Y55010D01*
X44610Y54938D01*
X44890D01*
X45160Y55010D01*
X45402Y55150D01*
X45600Y55348D01*
X45740Y55590D01*
X45812Y55860D01*
Y56140D01*
X45740Y56410D01*
X45600Y56652D01*
X45402Y56850D01*
X45160Y56990D01*
X44890Y57062D01*
D02*
G37*
G36*
X72897Y54649D02*
X72665D01*
X72442Y54589D01*
X72272Y54491D01*
X72478Y54285D01*
X72266Y54073D01*
X72060Y54279D01*
X71962Y54109D01*
X71902Y53886D01*
Y53654D01*
X71962Y53431D01*
X72060Y53261D01*
X72266Y53467D01*
X72478Y53255D01*
X72272Y53049D01*
X72442Y52951D01*
X72665Y52891D01*
X72897D01*
X73120Y52951D01*
X73290Y53049D01*
X73084Y53255D01*
X73296Y53467D01*
X73502Y53261D01*
X73600Y53431D01*
X73660Y53654D01*
Y53886D01*
X73600Y54109D01*
X73502Y54279D01*
X73296Y54073D01*
X73084Y54285D01*
X73290Y54491D01*
X73120Y54589D01*
X72897Y54649D01*
D02*
G37*
G36*
X31836Y55150D02*
X31664D01*
X31499Y55106D01*
X31351Y55020D01*
X31230Y54899D01*
X31144Y54751D01*
X31100Y54586D01*
Y54414D01*
X31144Y54249D01*
X31230Y54101D01*
X31351Y53980D01*
X31499Y53894D01*
X31664Y53850D01*
X31836D01*
X32001Y53894D01*
X32149Y53980D01*
X32270Y54101D01*
X32356Y54249D01*
X32400Y54414D01*
Y54586D01*
X32356Y54751D01*
X32270Y54899D01*
X32149Y55020D01*
X32001Y55106D01*
X31836Y55150D01*
D02*
G37*
G36*
X76870Y54354D02*
X76630D01*
X76438Y54274D01*
X76653Y54060D01*
X76440Y53847D01*
X76226Y54062D01*
X76146Y53870D01*
Y53630D01*
X76226Y53438D01*
X76440Y53653D01*
X76653Y53440D01*
X76438Y53226D01*
X76630Y53146D01*
X76870D01*
X77062Y53226D01*
X76847Y53440D01*
X77060Y53653D01*
X77274Y53438D01*
X77354Y53630D01*
Y53870D01*
X77274Y54062D01*
X77060Y53847D01*
X76847Y54060D01*
X77062Y54274D01*
X76870Y54354D01*
D02*
G37*
G36*
X80841Y54695D02*
X80597D01*
X80362Y54632D01*
X80151Y54510D01*
X79979Y54338D01*
X79857Y54127D01*
X79794Y53892D01*
Y53648D01*
X79857Y53413D01*
X79979Y53202D01*
X80151Y53030D01*
X80362Y52908D01*
X80597Y52845D01*
X80841D01*
X81076Y52908D01*
X81287Y53030D01*
X81459Y53202D01*
X81581Y53413D01*
X81644Y53648D01*
Y53892D01*
X81581Y54127D01*
X81459Y54338D01*
X81287Y54510D01*
X81076Y54632D01*
X80841Y54695D01*
D02*
G37*
G36*
X69370Y54552D02*
X69090D01*
X68820Y54480D01*
X68578Y54340D01*
X68380Y54142D01*
X68240Y53900D01*
X68168Y53630D01*
Y53350D01*
X68240Y53080D01*
X68380Y52838D01*
X68578Y52640D01*
X68820Y52500D01*
X69090Y52428D01*
X69370D01*
X69640Y52500D01*
X69882Y52640D01*
X70080Y52838D01*
X70220Y53080D01*
X70292Y53350D01*
Y53630D01*
X70220Y53900D01*
X70080Y54142D01*
X69882Y54340D01*
X69640Y54480D01*
X69370Y54552D01*
D02*
G37*
G36*
X51390D02*
X51110D01*
X50840Y54480D01*
X50598Y54340D01*
X50400Y54142D01*
X50260Y53900D01*
X50188Y53630D01*
Y53350D01*
X50260Y53080D01*
X50400Y52838D01*
X50598Y52640D01*
X50840Y52500D01*
X51110Y52428D01*
X51390D01*
X51660Y52500D01*
X51902Y52640D01*
X52100Y52838D01*
X52240Y53080D01*
X52312Y53350D01*
Y53630D01*
X52240Y53900D01*
X52100Y54142D01*
X51902Y54340D01*
X51660Y54480D01*
X51390Y54552D01*
D02*
G37*
G36*
X6370Y52104D02*
X6130D01*
X5938Y52024D01*
X6153Y51810D01*
X5940Y51597D01*
X5726Y51812D01*
X5646Y51620D01*
Y51380D01*
X5726Y51188D01*
X5940Y51403D01*
X6153Y51190D01*
X5938Y50976D01*
X6130Y50896D01*
X6370D01*
X6562Y50976D01*
X6347Y51190D01*
X6560Y51403D01*
X6774Y51188D01*
X6854Y51380D01*
Y51620D01*
X6774Y51812D01*
X6560Y51597D01*
X6347Y51810D01*
X6562Y52024D01*
X6370Y52104D01*
D02*
G37*
G36*
X9836Y52200D02*
X9664D01*
X9499Y52156D01*
X9351Y52070D01*
X9230Y51949D01*
X9144Y51801D01*
X9100Y51636D01*
Y51465D01*
X9144Y51299D01*
X9230Y51151D01*
X9351Y51030D01*
X9499Y50944D01*
X9664Y50900D01*
X9836D01*
X10001Y50944D01*
X10149Y51030D01*
X10270Y51151D01*
X10356Y51299D01*
X10400Y51465D01*
Y51636D01*
X10356Y51801D01*
X10270Y51949D01*
X10149Y52070D01*
X10001Y52156D01*
X9836Y52200D01*
D02*
G37*
G36*
X18336Y52150D02*
X18164D01*
X17999Y52106D01*
X17851Y52020D01*
X17730Y51899D01*
X17644Y51751D01*
X17600Y51586D01*
Y51414D01*
X17644Y51249D01*
X17730Y51101D01*
X17851Y50980D01*
X17999Y50894D01*
X18164Y50850D01*
X18336D01*
X18501Y50894D01*
X18649Y50980D01*
X18770Y51101D01*
X18856Y51249D01*
X18900Y51414D01*
Y51586D01*
X18856Y51751D01*
X18770Y51899D01*
X18649Y52020D01*
X18501Y52106D01*
X18336Y52150D01*
D02*
G37*
G36*
X47030Y52872D02*
X46750D01*
X46480Y52800D01*
X46238Y52660D01*
X46040Y52462D01*
X45900Y52220D01*
X45828Y51950D01*
Y51670D01*
X45900Y51400D01*
X46040Y51158D01*
X46238Y50960D01*
X46480Y50820D01*
X46750Y50748D01*
X47030D01*
X47300Y50820D01*
X47542Y50960D01*
X47740Y51158D01*
X47880Y51400D01*
X47952Y51670D01*
Y51950D01*
X47880Y52220D01*
X47740Y52462D01*
X47542Y52660D01*
X47300Y52800D01*
X47030Y52872D01*
D02*
G37*
G36*
X29250D02*
X28970D01*
X28700Y52800D01*
X28458Y52660D01*
X28260Y52462D01*
X28120Y52220D01*
X28048Y51950D01*
Y51670D01*
X28120Y51400D01*
X28260Y51158D01*
X28458Y50960D01*
X28700Y50820D01*
X28970Y50748D01*
X29250D01*
X29520Y50820D01*
X29762Y50960D01*
X29960Y51158D01*
X30100Y51400D01*
X30172Y51670D01*
Y51950D01*
X30100Y52220D01*
X29960Y52462D01*
X29762Y52660D01*
X29520Y52800D01*
X29250Y52872D01*
D02*
G37*
G36*
X80841Y52155D02*
X80597D01*
X80362Y52092D01*
X80151Y51970D01*
X79979Y51798D01*
X79857Y51587D01*
X79794Y51352D01*
Y51108D01*
X79857Y50873D01*
X79979Y50662D01*
X80151Y50490D01*
X80362Y50368D01*
X80597Y50305D01*
X80841D01*
X81076Y50368D01*
X81287Y50490D01*
X81459Y50662D01*
X81581Y50873D01*
X81644Y51108D01*
Y51352D01*
X81581Y51587D01*
X81459Y51798D01*
X81287Y51970D01*
X81076Y52092D01*
X80841Y52155D01*
D02*
G37*
G36*
X72903D02*
X72659D01*
X72424Y52092D01*
X72213Y51970D01*
X72041Y51798D01*
X71919Y51587D01*
X71856Y51352D01*
Y51108D01*
X71919Y50873D01*
X72041Y50662D01*
X72213Y50490D01*
X72424Y50368D01*
X72659Y50305D01*
X72903D01*
X73138Y50368D01*
X73349Y50490D01*
X73521Y50662D01*
X73643Y50873D01*
X73706Y51108D01*
Y51352D01*
X73643Y51587D01*
X73521Y51798D01*
X73349Y51970D01*
X73138Y52092D01*
X72903Y52155D01*
D02*
G37*
G36*
X18370Y50604D02*
X18130D01*
X17938Y50525D01*
X18153Y50310D01*
X17941Y50098D01*
X17726Y50312D01*
X17646Y50120D01*
Y49880D01*
X17726Y49688D01*
X17941Y49903D01*
X18153Y49691D01*
X17938Y49476D01*
X18130Y49396D01*
X18370D01*
X18562Y49476D01*
X18348Y49691D01*
X18560Y49903D01*
X18775Y49688D01*
X18854Y49880D01*
Y50120D01*
X18775Y50312D01*
X18560Y50098D01*
X18348Y50310D01*
X18562Y50525D01*
X18370Y50604D01*
D02*
G37*
G36*
X14120Y50604D02*
X13880D01*
X13688Y50524D01*
X13903Y50310D01*
X13691Y50098D01*
X13476Y50312D01*
X13396Y50120D01*
Y49880D01*
X13476Y49688D01*
X13691Y49903D01*
X13903Y49691D01*
X13688Y49476D01*
X13880Y49396D01*
X14120D01*
X14312Y49476D01*
X14098Y49691D01*
X14310Y49903D01*
X14524Y49688D01*
X14604Y49880D01*
Y50120D01*
X14524Y50312D01*
X14310Y50098D01*
X14098Y50310D01*
X14312Y50524D01*
X14120Y50604D01*
D02*
G37*
G36*
X9870Y50604D02*
X9630D01*
X9438Y50524D01*
X9653Y50310D01*
X9440Y50097D01*
X9226Y50312D01*
X9146Y50120D01*
Y49880D01*
X9226Y49688D01*
X9440Y49903D01*
X9653Y49690D01*
X9438Y49476D01*
X9630Y49396D01*
X9870D01*
X10062Y49476D01*
X9847Y49690D01*
X10060Y49903D01*
X10274Y49688D01*
X10354Y49880D01*
Y50120D01*
X10274Y50312D01*
X10060Y50097D01*
X9847Y50310D01*
X10062Y50524D01*
X9870Y50604D01*
D02*
G37*
G36*
X69370Y52012D02*
X69090D01*
X68820Y51940D01*
X68578Y51800D01*
X68380Y51602D01*
X68240Y51360D01*
X68168Y51090D01*
Y50810D01*
X68240Y50540D01*
X68380Y50298D01*
X68578Y50100D01*
X68820Y49960D01*
X69090Y49888D01*
X69370D01*
X69640Y49960D01*
X69882Y50100D01*
X70080Y50298D01*
X70220Y50540D01*
X70292Y50810D01*
Y51090D01*
X70220Y51360D01*
X70080Y51602D01*
X69882Y51800D01*
X69640Y51940D01*
X69370Y52012D01*
D02*
G37*
G36*
X51390D02*
X51110D01*
X50840Y51940D01*
X50598Y51800D01*
X50400Y51602D01*
X50260Y51360D01*
X50188Y51090D01*
Y50810D01*
X50260Y50540D01*
X50400Y50298D01*
X50598Y50100D01*
X50840Y49960D01*
X51110Y49888D01*
X51390D01*
X51660Y49960D01*
X51902Y50100D01*
X52100Y50298D01*
X52240Y50540D01*
X52312Y50810D01*
Y51090D01*
X52240Y51360D01*
X52100Y51602D01*
X51902Y51800D01*
X51660Y51940D01*
X51390Y52012D01*
D02*
G37*
G36*
X24336Y51150D02*
X24164D01*
X23999Y51106D01*
X23851Y51020D01*
X23730Y50899D01*
X23644Y50751D01*
X23600Y50586D01*
Y50414D01*
X23644Y50249D01*
X23730Y50101D01*
X23851Y49980D01*
X23999Y49894D01*
X24164Y49850D01*
X24336D01*
X24501Y49894D01*
X24649Y49980D01*
X24770Y50101D01*
X24856Y50249D01*
X24900Y50414D01*
Y50586D01*
X24856Y50751D01*
X24770Y50899D01*
X24649Y51020D01*
X24501Y51106D01*
X24336Y51150D01*
D02*
G37*
G36*
X84416Y52987D02*
X84084D01*
X83758Y52923D01*
X83451Y52795D01*
X83174Y52611D01*
X82939Y52376D01*
X82755Y52099D01*
X82627Y51792D01*
X82562Y51466D01*
Y51134D01*
X82627Y50808D01*
X82755Y50501D01*
X82939Y50224D01*
X83174Y49989D01*
X83451Y49805D01*
X83758Y49677D01*
X84084Y49612D01*
X84416D01*
X84742Y49677D01*
X85049Y49805D01*
X85326Y49989D01*
X85561Y50224D01*
X85745Y50501D01*
X85873Y50808D01*
X85938Y51134D01*
Y51466D01*
X85873Y51792D01*
X85745Y52099D01*
X85561Y52376D01*
X85326Y52611D01*
X85049Y52795D01*
X84742Y52923D01*
X84416Y52987D01*
D02*
G37*
G36*
X72897Y49569D02*
X72665D01*
X72442Y49509D01*
X72272Y49411D01*
X72478Y49205D01*
X72266Y48993D01*
X72060Y49199D01*
X71962Y49029D01*
X71902Y48806D01*
Y48574D01*
X71962Y48351D01*
X72060Y48181D01*
X72266Y48387D01*
X72478Y48175D01*
X72272Y47969D01*
X72442Y47871D01*
X72665Y47811D01*
X72897D01*
X73120Y47871D01*
X73290Y47969D01*
X73084Y48175D01*
X73296Y48387D01*
X73502Y48181D01*
X73600Y48351D01*
X73660Y48574D01*
Y48806D01*
X73600Y49029D01*
X73502Y49199D01*
X73296Y48993D01*
X73084Y49205D01*
X73290Y49411D01*
X73120Y49509D01*
X72897Y49569D01*
D02*
G37*
G36*
X76870Y49354D02*
X76630D01*
X76438Y49274D01*
X76653Y49060D01*
X76440Y48847D01*
X76226Y49062D01*
X76146Y48870D01*
Y48630D01*
X76226Y48438D01*
X76440Y48653D01*
X76653Y48440D01*
X76438Y48226D01*
X76630Y48146D01*
X76870D01*
X77062Y48226D01*
X76847Y48440D01*
X77060Y48653D01*
X77274Y48438D01*
X77354Y48630D01*
Y48870D01*
X77274Y49062D01*
X77060Y48847D01*
X76847Y49060D01*
X77062Y49274D01*
X76870Y49354D01*
D02*
G37*
G36*
X6370Y49104D02*
X6130D01*
X5938Y49024D01*
X6153Y48810D01*
X5940Y48597D01*
X5726Y48812D01*
X5646Y48620D01*
Y48380D01*
X5726Y48188D01*
X5940Y48403D01*
X6153Y48190D01*
X5938Y47976D01*
X6130Y47896D01*
X6370D01*
X6562Y47976D01*
X6347Y48190D01*
X6560Y48403D01*
X6774Y48188D01*
X6854Y48380D01*
Y48620D01*
X6774Y48812D01*
X6560Y48597D01*
X6347Y48810D01*
X6562Y49024D01*
X6370Y49104D01*
D02*
G37*
G36*
X47030Y50332D02*
X46750D01*
X46480Y50260D01*
X46238Y50120D01*
X46040Y49922D01*
X45900Y49680D01*
X45828Y49410D01*
Y49130D01*
X45900Y48860D01*
X46040Y48618D01*
X46238Y48420D01*
X46480Y48280D01*
X46750Y48208D01*
X47030D01*
X47300Y48280D01*
X47542Y48420D01*
X47740Y48618D01*
X47880Y48860D01*
X47952Y49130D01*
Y49410D01*
X47880Y49680D01*
X47740Y49922D01*
X47542Y50120D01*
X47300Y50260D01*
X47030Y50332D01*
D02*
G37*
G36*
X29250D02*
X28970D01*
X28700Y50260D01*
X28458Y50120D01*
X28260Y49922D01*
X28120Y49680D01*
X28048Y49410D01*
Y49130D01*
X28120Y48860D01*
X28260Y48618D01*
X28458Y48420D01*
X28700Y48280D01*
X28970Y48208D01*
X29250D01*
X29520Y48280D01*
X29762Y48420D01*
X29960Y48618D01*
X30100Y48860D01*
X30172Y49130D01*
Y49410D01*
X30100Y49680D01*
X29960Y49922D01*
X29762Y50120D01*
X29520Y50260D01*
X29250Y50332D01*
D02*
G37*
G36*
X75336Y49400D02*
X75164D01*
X74999Y49356D01*
X74851Y49270D01*
X74730Y49149D01*
X74644Y49001D01*
X74600Y48836D01*
Y48664D01*
X74644Y48499D01*
X74730Y48351D01*
X74851Y48230D01*
X74999Y48144D01*
X75164Y48100D01*
X75336D01*
X75501Y48144D01*
X75649Y48230D01*
X75770Y48351D01*
X75856Y48499D01*
X75900Y48664D01*
Y48836D01*
X75856Y49001D01*
X75770Y49149D01*
X75649Y49270D01*
X75501Y49356D01*
X75336Y49400D01*
D02*
G37*
G36*
X9836Y49250D02*
X9664D01*
X9499Y49206D01*
X9351Y49120D01*
X9230Y48999D01*
X9144Y48851D01*
X9100Y48686D01*
Y48514D01*
X9144Y48349D01*
X9230Y48201D01*
X9351Y48080D01*
X9499Y47994D01*
X9664Y47950D01*
X9836D01*
X10001Y47994D01*
X10149Y48080D01*
X10270Y48201D01*
X10356Y48349D01*
X10400Y48514D01*
Y48686D01*
X10356Y48851D01*
X10270Y48999D01*
X10149Y49120D01*
X10001Y49206D01*
X9836Y49250D01*
D02*
G37*
G36*
X21836Y49150D02*
X21664D01*
X21499Y49106D01*
X21351Y49020D01*
X21230Y48899D01*
X21144Y48751D01*
X21100Y48586D01*
Y48414D01*
X21144Y48249D01*
X21230Y48101D01*
X21351Y47980D01*
X21499Y47894D01*
X21664Y47850D01*
X21836D01*
X22001Y47894D01*
X22149Y47980D01*
X22270Y48101D01*
X22356Y48249D01*
X22400Y48414D01*
Y48586D01*
X22356Y48751D01*
X22270Y48899D01*
X22149Y49020D01*
X22001Y49106D01*
X21836Y49150D01*
D02*
G37*
G36*
X18336Y49100D02*
X18164D01*
X17999Y49056D01*
X17851Y48970D01*
X17730Y48849D01*
X17644Y48701D01*
X17600Y48536D01*
Y48364D01*
X17644Y48199D01*
X17730Y48051D01*
X17851Y47930D01*
X17999Y47844D01*
X18164Y47800D01*
X18336D01*
X18501Y47844D01*
X18649Y47930D01*
X18770Y48051D01*
X18856Y48199D01*
X18900Y48364D01*
Y48536D01*
X18856Y48701D01*
X18770Y48849D01*
X18649Y48970D01*
X18501Y49056D01*
X18336Y49100D01*
D02*
G37*
G36*
X80841Y49615D02*
X80597D01*
X80362Y49552D01*
X80151Y49430D01*
X79979Y49258D01*
X79857Y49047D01*
X79794Y48812D01*
Y48568D01*
X79857Y48333D01*
X79979Y48122D01*
X80151Y47950D01*
X80362Y47828D01*
X80597Y47765D01*
X80841D01*
X81076Y47828D01*
X81287Y47950D01*
X81459Y48122D01*
X81581Y48333D01*
X81644Y48568D01*
Y48812D01*
X81581Y49047D01*
X81459Y49258D01*
X81287Y49430D01*
X81076Y49552D01*
X80841Y49615D01*
D02*
G37*
G36*
X69370Y49472D02*
X69090D01*
X68820Y49400D01*
X68578Y49260D01*
X68380Y49062D01*
X68240Y48820D01*
X68168Y48550D01*
Y48270D01*
X68240Y48000D01*
X68380Y47758D01*
X68578Y47560D01*
X68820Y47420D01*
X69090Y47348D01*
X69370D01*
X69640Y47420D01*
X69882Y47560D01*
X70080Y47758D01*
X70220Y48000D01*
X70292Y48270D01*
Y48550D01*
X70220Y48820D01*
X70080Y49062D01*
X69882Y49260D01*
X69640Y49400D01*
X69370Y49472D01*
D02*
G37*
G36*
X51390D02*
X51110D01*
X50840Y49400D01*
X50598Y49260D01*
X50400Y49062D01*
X50260Y48820D01*
X50188Y48550D01*
Y48270D01*
X50260Y48000D01*
X50400Y47758D01*
X50598Y47560D01*
X50840Y47420D01*
X51110Y47348D01*
X51390D01*
X51660Y47420D01*
X51902Y47560D01*
X52100Y47758D01*
X52240Y48000D01*
X52312Y48270D01*
Y48550D01*
X52240Y48820D01*
X52100Y49062D01*
X51902Y49260D01*
X51660Y49400D01*
X51390Y49472D01*
D02*
G37*
G36*
X47024Y47746D02*
X46756D01*
X46498Y47677D01*
X46281Y47551D01*
X46488Y47344D01*
X46276Y47132D01*
X46069Y47339D01*
X45943Y47122D01*
X45874Y46864D01*
Y46596D01*
X45943Y46338D01*
X46069Y46121D01*
X46276Y46328D01*
X46488Y46116D01*
X46281Y45909D01*
X46498Y45783D01*
X46756Y45714D01*
X47024D01*
X47282Y45783D01*
X47499Y45909D01*
X47292Y46116D01*
X47504Y46328D01*
X47711Y46121D01*
X47837Y46338D01*
X47906Y46596D01*
Y46864D01*
X47837Y47122D01*
X47711Y47339D01*
X47504Y47132D01*
X47292Y47344D01*
X47499Y47551D01*
X47282Y47677D01*
X47024Y47746D01*
D02*
G37*
G36*
X29244D02*
X28976D01*
X28718Y47677D01*
X28501Y47551D01*
X28708Y47344D01*
X28496Y47132D01*
X28289Y47339D01*
X28163Y47122D01*
X28094Y46864D01*
Y46596D01*
X28163Y46338D01*
X28289Y46121D01*
X28496Y46328D01*
X28708Y46116D01*
X28501Y45909D01*
X28718Y45783D01*
X28976Y45714D01*
X29244D01*
X29502Y45783D01*
X29719Y45909D01*
X29512Y46116D01*
X29724Y46328D01*
X29931Y46121D01*
X30057Y46338D01*
X30126Y46596D01*
Y46864D01*
X30057Y47122D01*
X29931Y47339D01*
X29724Y47132D01*
X29512Y47344D01*
X29719Y47551D01*
X29502Y47677D01*
X29244Y47746D01*
D02*
G37*
G36*
X84416Y48287D02*
X84084D01*
X83758Y48223D01*
X83451Y48095D01*
X83174Y47911D01*
X82939Y47676D01*
X82755Y47399D01*
X82627Y47092D01*
X82562Y46766D01*
Y46434D01*
X82627Y46108D01*
X82755Y45801D01*
X82939Y45524D01*
X83174Y45289D01*
X83451Y45105D01*
X83758Y44977D01*
X84084Y44912D01*
X84416D01*
X84742Y44977D01*
X85049Y45105D01*
X85326Y45289D01*
X85561Y45524D01*
X85745Y45801D01*
X85873Y46108D01*
X85938Y46434D01*
Y46766D01*
X85873Y47092D01*
X85745Y47399D01*
X85561Y47676D01*
X85326Y47911D01*
X85049Y48095D01*
X84742Y48223D01*
X84416Y48287D01*
D02*
G37*
G36*
X69370Y46932D02*
X69090D01*
X68820Y46860D01*
X68578Y46720D01*
X68380Y46522D01*
X68240Y46280D01*
X68168Y46010D01*
Y45730D01*
X68240Y45460D01*
X68380Y45218D01*
X68578Y45020D01*
X68820Y44880D01*
X69090Y44808D01*
X69370D01*
X69640Y44880D01*
X69882Y45020D01*
X70080Y45218D01*
X70220Y45460D01*
X70292Y45730D01*
Y46010D01*
X70220Y46280D01*
X70080Y46522D01*
X69882Y46720D01*
X69640Y46860D01*
X69370Y46932D01*
D02*
G37*
G36*
X51390D02*
X51110D01*
X50840Y46860D01*
X50598Y46720D01*
X50400Y46522D01*
X50260Y46280D01*
X50188Y46010D01*
Y45730D01*
X50260Y45460D01*
X50400Y45218D01*
X50598Y45020D01*
X50840Y44880D01*
X51110Y44808D01*
X51390D01*
X51660Y44880D01*
X51902Y45020D01*
X52100Y45218D01*
X52240Y45460D01*
X52312Y45730D01*
Y46010D01*
X52240Y46280D01*
X52100Y46522D01*
X51902Y46720D01*
X51660Y46860D01*
X51390Y46932D01*
D02*
G37*
G36*
X14086Y45650D02*
X13915D01*
X13749Y45606D01*
X13601Y45520D01*
X13480Y45399D01*
X13394Y45251D01*
X13350Y45086D01*
Y44914D01*
X13394Y44749D01*
X13480Y44601D01*
X13601Y44480D01*
X13749Y44394D01*
X13915Y44350D01*
X14086D01*
X14251Y44394D01*
X14399Y44480D01*
X14520Y44601D01*
X14606Y44749D01*
X14650Y44914D01*
Y45086D01*
X14606Y45251D01*
X14520Y45399D01*
X14399Y45520D01*
X14251Y45606D01*
X14086Y45650D01*
D02*
G37*
G36*
X24336Y45400D02*
X24164D01*
X23999Y45356D01*
X23851Y45270D01*
X23730Y45149D01*
X23644Y45001D01*
X23600Y44836D01*
Y44664D01*
X23644Y44499D01*
X23730Y44351D01*
X23851Y44230D01*
X23999Y44144D01*
X24164Y44100D01*
X24336D01*
X24501Y44144D01*
X24649Y44230D01*
X24770Y44351D01*
X24856Y44499D01*
X24900Y44664D01*
Y44836D01*
X24856Y45001D01*
X24770Y45149D01*
X24649Y45270D01*
X24501Y45356D01*
X24336Y45400D01*
D02*
G37*
G36*
X14120Y43854D02*
X13880D01*
X13688Y43774D01*
X13903Y43560D01*
X13690Y43347D01*
X13476Y43562D01*
X13396Y43370D01*
Y43130D01*
X13476Y42938D01*
X13690Y43153D01*
X13903Y42940D01*
X13688Y42726D01*
X13880Y42646D01*
X14120D01*
X14312Y42726D01*
X14097Y42940D01*
X14310Y43153D01*
X14524Y42938D01*
X14604Y43130D01*
Y43370D01*
X14524Y43562D01*
X14310Y43347D01*
X14097Y43560D01*
X14312Y43774D01*
X14120Y43854D01*
D02*
G37*
G36*
X47030Y45252D02*
X46750D01*
X46480Y45180D01*
X46238Y45040D01*
X46040Y44842D01*
X45900Y44600D01*
X45828Y44330D01*
Y44050D01*
X45900Y43780D01*
X46040Y43538D01*
X46238Y43340D01*
X46480Y43200D01*
X46750Y43128D01*
X47030D01*
X47300Y43200D01*
X47542Y43340D01*
X47740Y43538D01*
X47880Y43780D01*
X47952Y44050D01*
Y44330D01*
X47880Y44600D01*
X47740Y44842D01*
X47542Y45040D01*
X47300Y45180D01*
X47030Y45252D01*
D02*
G37*
G36*
X29250D02*
X28970D01*
X28700Y45180D01*
X28458Y45040D01*
X28260Y44842D01*
X28120Y44600D01*
X28048Y44330D01*
Y44050D01*
X28120Y43780D01*
X28260Y43538D01*
X28458Y43340D01*
X28700Y43200D01*
X28970Y43128D01*
X29250D01*
X29520Y43200D01*
X29762Y43340D01*
X29960Y43538D01*
X30100Y43780D01*
X30172Y44050D01*
Y44330D01*
X30100Y44600D01*
X29960Y44842D01*
X29762Y45040D01*
X29520Y45180D01*
X29250Y45252D01*
D02*
G37*
G36*
X69370Y44392D02*
X69090D01*
X68820Y44320D01*
X68578Y44180D01*
X68380Y43982D01*
X68240Y43740D01*
X68168Y43470D01*
Y43190D01*
X68240Y42920D01*
X68380Y42678D01*
X68578Y42480D01*
X68820Y42340D01*
X69090Y42268D01*
X69370D01*
X69640Y42340D01*
X69882Y42480D01*
X70080Y42678D01*
X70220Y42920D01*
X70292Y43190D01*
Y43470D01*
X70220Y43740D01*
X70080Y43982D01*
X69882Y44180D01*
X69640Y44320D01*
X69370Y44392D01*
D02*
G37*
G36*
X51390D02*
X51110D01*
X50840Y44320D01*
X50598Y44180D01*
X50400Y43982D01*
X50260Y43740D01*
X50188Y43470D01*
Y43190D01*
X50260Y42920D01*
X50400Y42678D01*
X50598Y42480D01*
X50840Y42340D01*
X51110Y42268D01*
X51390D01*
X51660Y42340D01*
X51902Y42480D01*
X52100Y42678D01*
X52240Y42920D01*
X52312Y43190D01*
Y43470D01*
X52240Y43740D01*
X52100Y43982D01*
X51902Y44180D01*
X51660Y44320D01*
X51390Y44392D01*
D02*
G37*
G36*
X18370Y42104D02*
X18130D01*
X17938Y42024D01*
X18153Y41810D01*
X17940Y41597D01*
X17726Y41812D01*
X17646Y41620D01*
Y41380D01*
X17726Y41188D01*
X17940Y41403D01*
X18153Y41190D01*
X17938Y40976D01*
X18130Y40896D01*
X18370D01*
X18562Y40976D01*
X18347Y41190D01*
X18560Y41403D01*
X18774Y41188D01*
X18854Y41380D01*
Y41620D01*
X18774Y41812D01*
X18560Y41597D01*
X18347Y41810D01*
X18562Y42024D01*
X18370Y42104D01*
D02*
G37*
G36*
X16586Y42650D02*
X16414D01*
X16249Y42606D01*
X16101Y42520D01*
X15980Y42399D01*
X15894Y42251D01*
X15850Y42086D01*
Y41914D01*
X15894Y41749D01*
X15980Y41601D01*
X16101Y41480D01*
X16249Y41394D01*
X16414Y41350D01*
X16586D01*
X16751Y41394D01*
X16899Y41480D01*
X17020Y41601D01*
X17106Y41749D01*
X17150Y41914D01*
Y42086D01*
X17106Y42251D01*
X17020Y42399D01*
X16899Y42520D01*
X16751Y42606D01*
X16586Y42650D01*
D02*
G37*
G36*
X69364Y41806D02*
X69096D01*
X68838Y41737D01*
X68621Y41611D01*
X68828Y41404D01*
X68616Y41192D01*
X68409Y41399D01*
X68283Y41182D01*
X68214Y40924D01*
Y40656D01*
X68283Y40398D01*
X68409Y40181D01*
X68616Y40388D01*
X68828Y40176D01*
X68621Y39969D01*
X68838Y39843D01*
X69096Y39774D01*
X69364D01*
X69622Y39843D01*
X69839Y39969D01*
X69632Y40176D01*
X69844Y40388D01*
X70051Y40181D01*
X70177Y40398D01*
X70246Y40656D01*
Y40924D01*
X70177Y41182D01*
X70051Y41399D01*
X69844Y41192D01*
X69632Y41404D01*
X69839Y41611D01*
X69622Y41737D01*
X69364Y41806D01*
D02*
G37*
G36*
X51384D02*
X51116D01*
X50858Y41737D01*
X50641Y41611D01*
X50848Y41404D01*
X50636Y41192D01*
X50429Y41399D01*
X50303Y41182D01*
X50234Y40924D01*
Y40656D01*
X50303Y40398D01*
X50429Y40181D01*
X50636Y40388D01*
X50848Y40176D01*
X50641Y39969D01*
X50858Y39843D01*
X51116Y39774D01*
X51384D01*
X51642Y39843D01*
X51859Y39969D01*
X51652Y40176D01*
X51864Y40388D01*
X52071Y40181D01*
X52197Y40398D01*
X52266Y40656D01*
Y40924D01*
X52197Y41182D01*
X52071Y41399D01*
X51864Y41192D01*
X51652Y41404D01*
X51859Y41611D01*
X51642Y41737D01*
X51384Y41806D01*
D02*
G37*
G36*
X25336Y42150D02*
X25164D01*
X24999Y42106D01*
X24851Y42020D01*
X24730Y41899D01*
X24644Y41751D01*
X24600Y41586D01*
Y41414D01*
X24644Y41249D01*
X24730Y41101D01*
X24851Y40980D01*
X24999Y40894D01*
X25164Y40850D01*
X25336D01*
X25501Y40894D01*
X25649Y40980D01*
X25770Y41101D01*
X25856Y41249D01*
X25900Y41414D01*
Y41586D01*
X25856Y41751D01*
X25770Y41899D01*
X25649Y42020D01*
X25501Y42106D01*
X25336Y42150D01*
D02*
G37*
G36*
X11638Y42840D02*
X11362D01*
X11095Y42768D01*
X10855Y42630D01*
X10660Y42435D01*
X10522Y42195D01*
X10450Y41928D01*
Y41652D01*
X10522Y41385D01*
X10660Y41145D01*
X10855Y40950D01*
X11095Y40812D01*
X11362Y40740D01*
X11638D01*
X11905Y40812D01*
X12145Y40950D01*
X12340Y41145D01*
X12478Y41385D01*
X12550Y41652D01*
Y41928D01*
X12478Y42195D01*
X12340Y42435D01*
X12145Y42630D01*
X11905Y42768D01*
X11638Y42840D01*
D02*
G37*
G36*
X8888Y42820D02*
X8612D01*
X8345Y42748D01*
X8105Y42610D01*
X7910Y42415D01*
X7771Y42175D01*
X7700Y41908D01*
Y41632D01*
X7771Y41365D01*
X7910Y41125D01*
X8105Y40930D01*
X8345Y40792D01*
X8612Y40720D01*
X8888D01*
X9155Y40792D01*
X9395Y40930D01*
X9590Y41125D01*
X9728Y41365D01*
X9800Y41632D01*
Y41908D01*
X9728Y42175D01*
X9590Y42415D01*
X9395Y42610D01*
X9155Y42748D01*
X8888Y42820D01*
D02*
G37*
G36*
X78671Y43300D02*
X78329D01*
X77998Y43211D01*
X77702Y43040D01*
X77460Y42798D01*
X77289Y42502D01*
X77200Y42171D01*
Y41829D01*
X77289Y41498D01*
X77460Y41202D01*
X77702Y40960D01*
X77998Y40789D01*
X78329Y40700D01*
X78671D01*
X79002Y40789D01*
X79298Y40960D01*
X79540Y41202D01*
X79711Y41498D01*
X79800Y41829D01*
Y42171D01*
X79711Y42502D01*
X79540Y42798D01*
X79298Y43040D01*
X79002Y43211D01*
X78671Y43300D01*
D02*
G37*
G36*
X75171D02*
X74829D01*
X74498Y43211D01*
X74202Y43040D01*
X73960Y42798D01*
X73789Y42502D01*
X73700Y42171D01*
Y41829D01*
X73789Y41498D01*
X73960Y41202D01*
X74202Y40960D01*
X74498Y40789D01*
X74829Y40700D01*
X75171D01*
X75502Y40789D01*
X75798Y40960D01*
X76040Y41202D01*
X76211Y41498D01*
X76300Y41829D01*
Y42171D01*
X76211Y42502D01*
X76040Y42798D01*
X75798Y43040D01*
X75502Y43211D01*
X75171Y43300D01*
D02*
G37*
G36*
X47030Y42712D02*
X46750D01*
X46480Y42640D01*
X46238Y42500D01*
X46040Y42302D01*
X45900Y42060D01*
X45828Y41790D01*
Y41510D01*
X45900Y41240D01*
X46040Y40998D01*
X46238Y40800D01*
X46480Y40660D01*
X46750Y40588D01*
X47030D01*
X47300Y40660D01*
X47542Y40800D01*
X47740Y40998D01*
X47880Y41240D01*
X47952Y41510D01*
Y41790D01*
X47880Y42060D01*
X47740Y42302D01*
X47542Y42500D01*
X47300Y42640D01*
X47030Y42712D01*
D02*
G37*
G36*
X29250D02*
X28970D01*
X28700Y42640D01*
X28458Y42500D01*
X28260Y42302D01*
X28120Y42060D01*
X28048Y41790D01*
Y41510D01*
X28120Y41240D01*
X28260Y40998D01*
X28458Y40800D01*
X28700Y40660D01*
X28970Y40588D01*
X29250D01*
X29520Y40660D01*
X29762Y40800D01*
X29960Y40998D01*
X30100Y41240D01*
X30172Y41510D01*
Y41790D01*
X30100Y42060D01*
X29960Y42302D01*
X29762Y42500D01*
X29520Y42640D01*
X29250Y42712D01*
D02*
G37*
G36*
X8882Y40234D02*
X8618D01*
X8362Y40166D01*
X8149Y40043D01*
X8356Y39836D01*
X8144Y39623D01*
X7937Y39831D01*
X7814Y39618D01*
X7746Y39362D01*
Y39098D01*
X7814Y38842D01*
X7937Y38630D01*
X8144Y38837D01*
X8356Y38624D01*
X8149Y38417D01*
X8362Y38294D01*
X8618Y38226D01*
X8882D01*
X9137Y38294D01*
X9350Y38417D01*
X9143Y38624D01*
X9355Y38837D01*
X9562Y38630D01*
X9685Y38842D01*
X9754Y39098D01*
Y39362D01*
X9685Y39618D01*
X9562Y39831D01*
X9355Y39623D01*
X9143Y39836D01*
X9350Y40043D01*
X9137Y40166D01*
X8882Y40234D01*
D02*
G37*
G36*
X85376Y40998D02*
X85124D01*
X84880Y40933D01*
X84662Y40807D01*
X84483Y40628D01*
X84357Y40410D01*
X84292Y40166D01*
Y39914D01*
X84357Y39670D01*
X84483Y39452D01*
X84662Y39273D01*
X84880Y39147D01*
X85124Y39082D01*
X85376D01*
X85620Y39147D01*
X85838Y39273D01*
X86017Y39452D01*
X86143Y39670D01*
X86208Y39914D01*
Y40166D01*
X86143Y40410D01*
X86017Y40628D01*
X85838Y40807D01*
X85620Y40933D01*
X85376Y40998D01*
D02*
G37*
G36*
X11638Y40300D02*
X11362D01*
X11095Y40228D01*
X10855Y40090D01*
X10660Y39895D01*
X10522Y39655D01*
X10450Y39388D01*
Y39112D01*
X10522Y38845D01*
X10660Y38605D01*
X10855Y38410D01*
X11095Y38272D01*
X11362Y38200D01*
X11638D01*
X11905Y38272D01*
X12145Y38410D01*
X12340Y38605D01*
X12478Y38845D01*
X12550Y39112D01*
Y39388D01*
X12478Y39655D01*
X12340Y39895D01*
X12145Y40090D01*
X11905Y40228D01*
X11638Y40300D01*
D02*
G37*
G36*
X47030Y40172D02*
X46750D01*
X46480Y40100D01*
X46238Y39960D01*
X46040Y39762D01*
X45900Y39520D01*
X45828Y39250D01*
Y38970D01*
X45900Y38700D01*
X46040Y38458D01*
X46238Y38260D01*
X46480Y38120D01*
X46750Y38048D01*
X47030D01*
X47300Y38120D01*
X47542Y38260D01*
X47740Y38458D01*
X47880Y38700D01*
X47952Y38970D01*
Y39250D01*
X47880Y39520D01*
X47740Y39762D01*
X47542Y39960D01*
X47300Y40100D01*
X47030Y40172D01*
D02*
G37*
G36*
X29250D02*
X28970D01*
X28700Y40100D01*
X28458Y39960D01*
X28260Y39762D01*
X28120Y39520D01*
X28048Y39250D01*
Y38970D01*
X28120Y38700D01*
X28260Y38458D01*
X28458Y38260D01*
X28700Y38120D01*
X28970Y38048D01*
X29250D01*
X29520Y38120D01*
X29762Y38260D01*
X29960Y38458D01*
X30100Y38700D01*
X30172Y38970D01*
Y39250D01*
X30100Y39520D01*
X29960Y39762D01*
X29762Y39960D01*
X29520Y40100D01*
X29250Y40172D01*
D02*
G37*
G36*
X69370Y39312D02*
X69090D01*
X68820Y39240D01*
X68578Y39100D01*
X68380Y38902D01*
X68240Y38660D01*
X68168Y38390D01*
Y38110D01*
X68240Y37840D01*
X68380Y37598D01*
X68578Y37400D01*
X68820Y37260D01*
X69090Y37188D01*
X69370D01*
X69640Y37260D01*
X69882Y37400D01*
X70080Y37598D01*
X70220Y37840D01*
X70292Y38110D01*
Y38390D01*
X70220Y38660D01*
X70080Y38902D01*
X69882Y39100D01*
X69640Y39240D01*
X69370Y39312D01*
D02*
G37*
G36*
X51390D02*
X51110D01*
X50840Y39240D01*
X50598Y39100D01*
X50400Y38902D01*
X50260Y38660D01*
X50188Y38390D01*
Y38110D01*
X50260Y37840D01*
X50400Y37598D01*
X50598Y37400D01*
X50840Y37260D01*
X51110Y37188D01*
X51390D01*
X51660Y37260D01*
X51902Y37400D01*
X52100Y37598D01*
X52240Y37840D01*
X52312Y38110D01*
Y38390D01*
X52240Y38660D01*
X52100Y38902D01*
X51902Y39100D01*
X51660Y39240D01*
X51390Y39312D01*
D02*
G37*
G36*
X15586Y38400D02*
X15414D01*
X15249Y38356D01*
X15101Y38270D01*
X14980Y38149D01*
X14894Y38001D01*
X14850Y37836D01*
Y37664D01*
X14894Y37499D01*
X14980Y37351D01*
X15101Y37230D01*
X15249Y37144D01*
X15414Y37100D01*
X15586D01*
X15751Y37144D01*
X15899Y37230D01*
X16020Y37351D01*
X16106Y37499D01*
X16150Y37664D01*
Y37836D01*
X16106Y38001D01*
X16020Y38149D01*
X15899Y38270D01*
X15751Y38356D01*
X15586Y38400D01*
D02*
G37*
G36*
X8870Y37604D02*
X8630D01*
X8438Y37524D01*
X8653Y37310D01*
X8440Y37097D01*
X8226Y37312D01*
X8146Y37120D01*
Y36880D01*
X8226Y36688D01*
X8440Y36903D01*
X8653Y36690D01*
X8438Y36476D01*
X8630Y36396D01*
X8870D01*
X9062Y36476D01*
X8847Y36690D01*
X9060Y36903D01*
X9274Y36688D01*
X9354Y36880D01*
Y37120D01*
X9274Y37312D01*
X9060Y37097D01*
X8847Y37310D01*
X9062Y37524D01*
X8870Y37604D01*
D02*
G37*
G36*
X22221Y37900D02*
X22049D01*
X21884Y37856D01*
X21736Y37770D01*
X21615Y37649D01*
X21529Y37501D01*
X21485Y37336D01*
Y37164D01*
X21529Y36999D01*
X21615Y36851D01*
X21736Y36730D01*
X21884Y36644D01*
X22049Y36600D01*
X22221D01*
X22386Y36644D01*
X22534Y36730D01*
X22655Y36851D01*
X22741Y36999D01*
X22785Y37164D01*
Y37336D01*
X22741Y37501D01*
X22655Y37649D01*
X22534Y37770D01*
X22386Y37856D01*
X22221Y37900D01*
D02*
G37*
G36*
X25870Y36604D02*
X25630D01*
X25438Y36524D01*
X25653Y36310D01*
X25440Y36097D01*
X25226Y36312D01*
X25146Y36120D01*
Y35880D01*
X25226Y35688D01*
X25440Y35903D01*
X25653Y35690D01*
X25438Y35476D01*
X25630Y35396D01*
X25870D01*
X26062Y35476D01*
X25847Y35690D01*
X26060Y35903D01*
X26274Y35688D01*
X26354Y35880D01*
Y36120D01*
X26274Y36312D01*
X26060Y36097D01*
X25847Y36310D01*
X26062Y36524D01*
X25870Y36604D01*
D02*
G37*
G36*
X73066Y36454D02*
X72814D01*
X72572Y36389D01*
X72376Y36276D01*
X72583Y36070D01*
X72371Y35857D01*
X72164Y36064D01*
X72051Y35868D01*
X71986Y35626D01*
Y35374D01*
X72051Y35132D01*
X72164Y34936D01*
X72371Y35143D01*
X72583Y34931D01*
X72376Y34724D01*
X72572Y34611D01*
X72814Y34546D01*
X73066D01*
X73308Y34611D01*
X73504Y34724D01*
X73297Y34931D01*
X73510Y35143D01*
X73716Y34936D01*
X73829Y35132D01*
X73894Y35374D01*
Y35626D01*
X73829Y35868D01*
X73716Y36064D01*
X73510Y35857D01*
X73297Y36070D01*
X73504Y36276D01*
X73308Y36389D01*
X73066Y36454D01*
D02*
G37*
G36*
X47030Y37632D02*
X46750D01*
X46480Y37560D01*
X46238Y37420D01*
X46040Y37222D01*
X45900Y36980D01*
X45828Y36710D01*
Y36430D01*
X45900Y36160D01*
X46040Y35918D01*
X46238Y35720D01*
X46480Y35580D01*
X46750Y35508D01*
X47030D01*
X47300Y35580D01*
X47542Y35720D01*
X47740Y35918D01*
X47880Y36160D01*
X47952Y36430D01*
Y36710D01*
X47880Y36980D01*
X47740Y37222D01*
X47542Y37420D01*
X47300Y37560D01*
X47030Y37632D01*
D02*
G37*
G36*
X29250D02*
X28970D01*
X28700Y37560D01*
X28458Y37420D01*
X28260Y37222D01*
X28120Y36980D01*
X28048Y36710D01*
Y36430D01*
X28120Y36160D01*
X28260Y35918D01*
X28458Y35720D01*
X28700Y35580D01*
X28970Y35508D01*
X29250D01*
X29520Y35580D01*
X29762Y35720D01*
X29960Y35918D01*
X30100Y36160D01*
X30172Y36430D01*
Y36710D01*
X30100Y36980D01*
X29960Y37222D01*
X29762Y37420D01*
X29520Y37560D01*
X29250Y37632D01*
D02*
G37*
G36*
X80692Y36500D02*
X80428D01*
X80174Y36432D01*
X79946Y36300D01*
X79760Y36114D01*
X79628Y35886D01*
X79560Y35632D01*
Y35368D01*
X79628Y35114D01*
X79760Y34886D01*
X79946Y34700D01*
X80174Y34568D01*
X80428Y34500D01*
X80692D01*
X80946Y34568D01*
X81174Y34700D01*
X81360Y34886D01*
X81492Y35114D01*
X81560Y35368D01*
Y35632D01*
X81492Y35886D01*
X81360Y36114D01*
X81174Y36300D01*
X80946Y36432D01*
X80692Y36500D01*
D02*
G37*
G36*
X47024Y35046D02*
X46756D01*
X46498Y34977D01*
X46281Y34851D01*
X46488Y34644D01*
X46276Y34432D01*
X46069Y34639D01*
X45943Y34422D01*
X45874Y34164D01*
Y33896D01*
X45943Y33638D01*
X46069Y33421D01*
X46276Y33628D01*
X46488Y33416D01*
X46281Y33209D01*
X46498Y33083D01*
X46756Y33014D01*
X47024D01*
X47282Y33083D01*
X47499Y33209D01*
X47292Y33416D01*
X47504Y33628D01*
X47711Y33421D01*
X47837Y33638D01*
X47906Y33896D01*
Y34164D01*
X47837Y34422D01*
X47711Y34639D01*
X47504Y34432D01*
X47292Y34644D01*
X47499Y34851D01*
X47282Y34977D01*
X47024Y35046D01*
D02*
G37*
G36*
X29244D02*
X28976D01*
X28718Y34977D01*
X28501Y34851D01*
X28708Y34644D01*
X28496Y34432D01*
X28289Y34639D01*
X28163Y34422D01*
X28094Y34164D01*
Y33896D01*
X28163Y33638D01*
X28289Y33421D01*
X28496Y33628D01*
X28708Y33416D01*
X28501Y33209D01*
X28718Y33083D01*
X28976Y33014D01*
X29244D01*
X29502Y33083D01*
X29719Y33209D01*
X29512Y33416D01*
X29724Y33628D01*
X29931Y33421D01*
X30057Y33638D01*
X30126Y33896D01*
Y34164D01*
X30057Y34422D01*
X29931Y34639D01*
X29724Y34432D01*
X29512Y34644D01*
X29719Y34851D01*
X29502Y34977D01*
X29244Y35046D01*
D02*
G37*
G36*
X85376Y35918D02*
X85124D01*
X84880Y35853D01*
X84662Y35727D01*
X84483Y35548D01*
X84357Y35330D01*
X84292Y35086D01*
Y34834D01*
X84357Y34590D01*
X84483Y34372D01*
X84662Y34193D01*
X84880Y34067D01*
X85124Y34002D01*
X85376D01*
X85620Y34067D01*
X85838Y34193D01*
X86017Y34372D01*
X86143Y34590D01*
X86208Y34834D01*
Y35086D01*
X86143Y35330D01*
X86017Y35548D01*
X85838Y35727D01*
X85620Y35853D01*
X85376Y35918D01*
D02*
G37*
G36*
X93153Y36130D02*
X92847D01*
X92548Y36070D01*
X92266Y35954D01*
X92012Y35784D01*
X91796Y35568D01*
X91626Y35314D01*
X91510Y35032D01*
X91450Y34733D01*
Y34427D01*
X91510Y34128D01*
X91626Y33846D01*
X91796Y33592D01*
X92012Y33376D01*
X92266Y33206D01*
X92548Y33090D01*
X92847Y33030D01*
X93153D01*
X93452Y33090D01*
X93734Y33206D01*
X93988Y33376D01*
X94204Y33592D01*
X94374Y33846D01*
X94490Y34128D01*
X94550Y34427D01*
Y34733D01*
X94490Y35032D01*
X94374Y35314D01*
X94204Y35568D01*
X93988Y35784D01*
X93734Y35954D01*
X93452Y36070D01*
X93153Y36130D01*
D02*
G37*
G36*
X13620Y33354D02*
X13380D01*
X13188Y33274D01*
X13403Y33060D01*
X13190Y32847D01*
X12976Y33062D01*
X12896Y32870D01*
Y32630D01*
X12976Y32438D01*
X13190Y32653D01*
X13403Y32440D01*
X13188Y32226D01*
X13380Y32146D01*
X13620D01*
X13812Y32226D01*
X13597Y32440D01*
X13810Y32653D01*
X14024Y32438D01*
X14104Y32630D01*
Y32870D01*
X14024Y33062D01*
X13810Y32847D01*
X13597Y33060D01*
X13812Y33274D01*
X13620Y33354D01*
D02*
G37*
G36*
X21620Y33354D02*
X21380D01*
X21188Y33274D01*
X21403Y33060D01*
X21190Y32847D01*
X20976Y33062D01*
X20896Y32870D01*
Y32630D01*
X20976Y32438D01*
X21190Y32653D01*
X21403Y32440D01*
X21188Y32226D01*
X21380Y32146D01*
X21620D01*
X21812Y32226D01*
X21597Y32440D01*
X21810Y32653D01*
X22024Y32438D01*
X22104Y32630D01*
Y32870D01*
X22024Y33062D01*
X21810Y32847D01*
X21597Y33060D01*
X21812Y33274D01*
X21620Y33354D01*
D02*
G37*
G36*
X15486Y33400D02*
X15315D01*
X15149Y33356D01*
X15001Y33270D01*
X14880Y33149D01*
X14794Y33001D01*
X14750Y32836D01*
Y32665D01*
X14794Y32499D01*
X14880Y32351D01*
X15001Y32230D01*
X15149Y32144D01*
X15315Y32100D01*
X15486D01*
X15651Y32144D01*
X15799Y32230D01*
X15920Y32351D01*
X16006Y32499D01*
X16050Y32665D01*
Y32836D01*
X16006Y33001D01*
X15920Y33149D01*
X15799Y33270D01*
X15651Y33356D01*
X15486Y33400D01*
D02*
G37*
G36*
X9836D02*
X9664D01*
X9499Y33356D01*
X9351Y33270D01*
X9230Y33149D01*
X9144Y33001D01*
X9100Y32836D01*
Y32665D01*
X9144Y32499D01*
X9230Y32351D01*
X9351Y32230D01*
X9499Y32144D01*
X9664Y32100D01*
X9836D01*
X10001Y32144D01*
X10149Y32230D01*
X10270Y32351D01*
X10356Y32499D01*
X10400Y32665D01*
Y32836D01*
X10356Y33001D01*
X10270Y33149D01*
X10149Y33270D01*
X10001Y33356D01*
X9836Y33400D01*
D02*
G37*
G36*
X18336Y33400D02*
X18164D01*
X17999Y33356D01*
X17851Y33270D01*
X17730Y33149D01*
X17644Y33001D01*
X17600Y32836D01*
Y32664D01*
X17644Y32499D01*
X17730Y32351D01*
X17851Y32230D01*
X17999Y32144D01*
X18164Y32100D01*
X18336D01*
X18501Y32144D01*
X18649Y32230D01*
X18770Y32351D01*
X18856Y32499D01*
X18900Y32664D01*
Y32836D01*
X18856Y33001D01*
X18770Y33149D01*
X18649Y33270D01*
X18501Y33356D01*
X18336Y33400D01*
D02*
G37*
G36*
X4148Y33750D02*
X3852D01*
X3562Y33692D01*
X3289Y33579D01*
X3044Y33415D01*
X2835Y33206D01*
X2671Y32961D01*
X2558Y32688D01*
X2500Y32398D01*
Y32102D01*
X2558Y31812D01*
X2671Y31539D01*
X2835Y31294D01*
X3044Y31085D01*
X3289Y30921D01*
X3562Y30808D01*
X3852Y30750D01*
X4148D01*
X4438Y30808D01*
X4711Y30921D01*
X4956Y31085D01*
X5165Y31294D01*
X5329Y31539D01*
X5442Y31812D01*
X5500Y32102D01*
Y32398D01*
X5442Y32688D01*
X5329Y32961D01*
X5165Y33206D01*
X4956Y33415D01*
X4711Y33579D01*
X4438Y33692D01*
X4148Y33750D01*
D02*
G37*
G36*
X13620Y31104D02*
X13380D01*
X13188Y31024D01*
X13403Y30810D01*
X13190Y30597D01*
X12976Y30812D01*
X12896Y30620D01*
Y30380D01*
X12976Y30188D01*
X13190Y30403D01*
X13403Y30190D01*
X13188Y29976D01*
X13380Y29896D01*
X13620D01*
X13812Y29976D01*
X13597Y30190D01*
X13810Y30403D01*
X14024Y30188D01*
X14104Y30380D01*
Y30620D01*
X14024Y30812D01*
X13810Y30597D01*
X13597Y30810D01*
X13812Y31024D01*
X13620Y31104D01*
D02*
G37*
G36*
X47030Y32552D02*
X46750D01*
X46480Y32480D01*
X46238Y32340D01*
X46040Y32142D01*
X45900Y31900D01*
X45828Y31630D01*
Y31350D01*
X45900Y31080D01*
X46040Y30838D01*
X46238Y30640D01*
X46480Y30500D01*
X46750Y30428D01*
X47030D01*
X47300Y30500D01*
X47542Y30640D01*
X47740Y30838D01*
X47880Y31080D01*
X47952Y31350D01*
Y31630D01*
X47880Y31900D01*
X47740Y32142D01*
X47542Y32340D01*
X47300Y32480D01*
X47030Y32552D01*
D02*
G37*
G36*
X29250D02*
X28970D01*
X28700Y32480D01*
X28458Y32340D01*
X28260Y32142D01*
X28120Y31900D01*
X28048Y31630D01*
Y31350D01*
X28120Y31080D01*
X28260Y30838D01*
X28458Y30640D01*
X28700Y30500D01*
X28970Y30428D01*
X29250D01*
X29520Y30500D01*
X29762Y30640D01*
X29960Y30838D01*
X30100Y31080D01*
X30172Y31350D01*
Y31630D01*
X30100Y31900D01*
X29960Y32142D01*
X29762Y32340D01*
X29520Y32480D01*
X29250Y32552D01*
D02*
G37*
G36*
X93148Y31004D02*
X92852D01*
X92561Y30946D01*
X92288Y30833D01*
X92043Y30669D01*
X92249Y30463D01*
X92037Y30251D01*
X91831Y30457D01*
X91667Y30212D01*
X91554Y29939D01*
X91496Y29648D01*
Y29352D01*
X91554Y29061D01*
X91667Y28788D01*
X91831Y28543D01*
X92037Y28749D01*
X92249Y28537D01*
X92043Y28331D01*
X92288Y28167D01*
X92561Y28054D01*
X92852Y27996D01*
X93148D01*
X93439Y28054D01*
X93712Y28167D01*
X93957Y28331D01*
X93751Y28537D01*
X93963Y28749D01*
X94169Y28543D01*
X94333Y28788D01*
X94446Y29061D01*
X94504Y29352D01*
Y29648D01*
X94446Y29939D01*
X94333Y30212D01*
X94169Y30457D01*
X93963Y30251D01*
X93751Y30463D01*
X93957Y30669D01*
X93712Y30833D01*
X93439Y30946D01*
X93148Y31004D01*
D02*
G37*
G36*
X9836Y31100D02*
X9664D01*
X9499Y31056D01*
X9351Y30970D01*
X9230Y30849D01*
X9144Y30701D01*
X9100Y30536D01*
Y30365D01*
X9144Y30199D01*
X9230Y30051D01*
X9351Y29930D01*
X9499Y29844D01*
X9664Y29800D01*
X9836D01*
X10001Y29844D01*
X10149Y29930D01*
X10270Y30051D01*
X10356Y30199D01*
X10400Y30365D01*
Y30536D01*
X10356Y30701D01*
X10270Y30849D01*
X10149Y30970D01*
X10001Y31056D01*
X9836Y31100D01*
D02*
G37*
G36*
X19715Y28854D02*
X19475D01*
X19283Y28774D01*
X19498Y28560D01*
X19285Y28347D01*
X19071Y28562D01*
X18991Y28370D01*
Y28130D01*
X19071Y27938D01*
X19285Y28153D01*
X19498Y27940D01*
X19283Y27726D01*
X19475Y27646D01*
X19715D01*
X19907Y27726D01*
X19692Y27940D01*
X19905Y28153D01*
X20119Y27938D01*
X20199Y28130D01*
Y28370D01*
X20119Y28562D01*
X19905Y28347D01*
X19692Y28560D01*
X19907Y28774D01*
X19715Y28854D01*
D02*
G37*
G36*
X74774Y28504D02*
X73920D01*
Y28222D01*
X73620D01*
Y28504D01*
X72766D01*
Y27650D01*
X73048D01*
Y27350D01*
X72766D01*
Y26496D01*
X73620D01*
Y26778D01*
X73920D01*
Y26496D01*
X74774D01*
Y27350D01*
X74492D01*
Y27650D01*
X74774D01*
Y28504D01*
D02*
G37*
G36*
X26870Y28604D02*
X26630D01*
X26438Y28524D01*
X26653Y28310D01*
X26440Y28097D01*
X26226Y28312D01*
X26146Y28120D01*
Y27880D01*
X26226Y27688D01*
X26440Y27903D01*
X26653Y27690D01*
X26438Y27476D01*
X26630Y27396D01*
X26870D01*
X27062Y27476D01*
X26847Y27690D01*
X27060Y27903D01*
X27274Y27688D01*
X27354Y27880D01*
Y28120D01*
X27274Y28312D01*
X27060Y28097D01*
X26847Y28310D01*
X27062Y28524D01*
X26870Y28604D01*
D02*
G37*
G36*
X58274Y28254D02*
X57420D01*
Y27972D01*
X57120D01*
Y28254D01*
X56266D01*
Y27400D01*
X56548D01*
Y27100D01*
X56266D01*
Y26246D01*
X57120D01*
Y26528D01*
X57420D01*
Y26246D01*
X58274D01*
Y27100D01*
X57992D01*
Y27400D01*
X58274D01*
Y28254D01*
D02*
G37*
G36*
X47030Y30012D02*
X46750D01*
X46480Y29940D01*
X46238Y29800D01*
X46040Y29602D01*
X45900Y29360D01*
X45828Y29090D01*
Y28810D01*
X45900Y28540D01*
X46040Y28298D01*
X46238Y28100D01*
X46480Y27960D01*
X46750Y27888D01*
X47030D01*
X47300Y27960D01*
X47542Y28100D01*
X47740Y28298D01*
X47880Y28540D01*
X47952Y28810D01*
Y29090D01*
X47880Y29360D01*
X47740Y29602D01*
X47542Y29800D01*
X47300Y29940D01*
X47030Y30012D01*
D02*
G37*
G36*
X29250D02*
X28970D01*
X28700Y29940D01*
X28458Y29800D01*
X28260Y29602D01*
X28120Y29360D01*
X28048Y29090D01*
Y28810D01*
X28120Y28540D01*
X28260Y28298D01*
X28458Y28100D01*
X28700Y27960D01*
X28970Y27888D01*
X29250D01*
X29520Y27960D01*
X29762Y28100D01*
X29960Y28298D01*
X30100Y28540D01*
X30172Y28810D01*
Y29090D01*
X30100Y29360D01*
X29960Y29602D01*
X29762Y29800D01*
X29520Y29940D01*
X29250Y30012D01*
D02*
G37*
G36*
X22221Y28900D02*
X22049D01*
X21884Y28856D01*
X21736Y28770D01*
X21615Y28649D01*
X21529Y28501D01*
X21485Y28336D01*
Y28164D01*
X21529Y27999D01*
X21615Y27851D01*
X21736Y27730D01*
X21884Y27644D01*
X22049Y27600D01*
X22221D01*
X22386Y27644D01*
X22534Y27730D01*
X22655Y27851D01*
X22741Y27999D01*
X22785Y28164D01*
Y28336D01*
X22741Y28501D01*
X22655Y28649D01*
X22534Y28770D01*
X22386Y28856D01*
X22221Y28900D01*
D02*
G37*
G36*
X4148Y30000D02*
X3852D01*
X3562Y29942D01*
X3289Y29829D01*
X3044Y29665D01*
X2835Y29456D01*
X2671Y29211D01*
X2558Y28938D01*
X2500Y28648D01*
Y28352D01*
X2558Y28062D01*
X2671Y27789D01*
X2835Y27544D01*
X3044Y27335D01*
X3289Y27171D01*
X3562Y27058D01*
X3852Y27000D01*
X4148D01*
X4438Y27058D01*
X4711Y27171D01*
X4956Y27335D01*
X5165Y27544D01*
X5329Y27789D01*
X5442Y28062D01*
X5500Y28352D01*
Y28648D01*
X5442Y28938D01*
X5329Y29211D01*
X5165Y29456D01*
X4956Y29665D01*
X4711Y29829D01*
X4438Y29942D01*
X4148Y30000D01*
D02*
G37*
G36*
X71368Y28550D02*
X71092D01*
X70825Y28478D01*
X70585Y28340D01*
X70390Y28145D01*
X70252Y27905D01*
X70180Y27638D01*
Y27362D01*
X70252Y27095D01*
X70390Y26855D01*
X70585Y26660D01*
X70825Y26522D01*
X71092Y26450D01*
X71368D01*
X71635Y26522D01*
X71875Y26660D01*
X72070Y26855D01*
X72208Y27095D01*
X72280Y27362D01*
Y27638D01*
X72208Y27905D01*
X72070Y28145D01*
X71875Y28340D01*
X71635Y28478D01*
X71368Y28550D01*
D02*
G37*
G36*
X54868Y28300D02*
X54592D01*
X54325Y28228D01*
X54085Y28090D01*
X53890Y27895D01*
X53752Y27655D01*
X53680Y27388D01*
Y27112D01*
X53752Y26845D01*
X53890Y26605D01*
X54085Y26410D01*
X54325Y26272D01*
X54592Y26200D01*
X54868D01*
X55135Y26272D01*
X55375Y26410D01*
X55570Y26605D01*
X55708Y26845D01*
X55780Y27112D01*
Y27388D01*
X55708Y27655D01*
X55570Y27895D01*
X55375Y28090D01*
X55135Y28228D01*
X54868Y28300D01*
D02*
G37*
G36*
X7170Y26604D02*
X6930D01*
X6738Y26524D01*
X6953Y26310D01*
X6740Y26097D01*
X6526Y26312D01*
X6446Y26120D01*
Y25880D01*
X6526Y25688D01*
X6740Y25903D01*
X6953Y25690D01*
X6738Y25476D01*
X6930Y25396D01*
X7170D01*
X7362Y25476D01*
X7147Y25690D01*
X7360Y25903D01*
X7574Y25688D01*
X7654Y25880D01*
Y26120D01*
X7574Y26312D01*
X7360Y26097D01*
X7147Y26310D01*
X7362Y26524D01*
X7170Y26604D01*
D02*
G37*
G36*
X25836Y26900D02*
X25664D01*
X25499Y26856D01*
X25351Y26770D01*
X25230Y26649D01*
X25144Y26501D01*
X25100Y26336D01*
Y26164D01*
X25144Y25999D01*
X25230Y25851D01*
X25351Y25730D01*
X25499Y25644D01*
X25664Y25600D01*
X25836D01*
X26001Y25644D01*
X26149Y25730D01*
X26270Y25851D01*
X26356Y25999D01*
X26400Y26164D01*
Y26336D01*
X26356Y26501D01*
X26270Y26649D01*
X26149Y26770D01*
X26001Y26856D01*
X25836Y26900D01*
D02*
G37*
G36*
X47030Y27472D02*
X46750D01*
X46480Y27400D01*
X46238Y27260D01*
X46040Y27062D01*
X45900Y26820D01*
X45828Y26550D01*
Y26270D01*
X45900Y26000D01*
X46040Y25758D01*
X46238Y25560D01*
X46480Y25420D01*
X46750Y25348D01*
X47030D01*
X47300Y25420D01*
X47542Y25560D01*
X47740Y25758D01*
X47880Y26000D01*
X47952Y26270D01*
Y26550D01*
X47880Y26820D01*
X47740Y27062D01*
X47542Y27260D01*
X47300Y27400D01*
X47030Y27472D01*
D02*
G37*
G36*
X29250D02*
X28970D01*
X28700Y27400D01*
X28458Y27260D01*
X28260Y27062D01*
X28120Y26820D01*
X28048Y26550D01*
Y26270D01*
X28120Y26000D01*
X28260Y25758D01*
X28458Y25560D01*
X28700Y25420D01*
X28970Y25348D01*
X29250D01*
X29520Y25420D01*
X29762Y25560D01*
X29960Y25758D01*
X30100Y26000D01*
X30172Y26270D01*
Y26550D01*
X30100Y26820D01*
X29960Y27062D01*
X29762Y27260D01*
X29520Y27400D01*
X29250Y27472D01*
D02*
G37*
G36*
X19153Y26950D02*
X18847D01*
X18548Y26890D01*
X18266Y26774D01*
X18012Y26604D01*
X17796Y26388D01*
X17626Y26134D01*
X17510Y25852D01*
X17450Y25553D01*
Y25247D01*
X17510Y24948D01*
X17626Y24666D01*
X17796Y24412D01*
X18012Y24196D01*
X18266Y24026D01*
X18548Y23910D01*
X18847Y23850D01*
X19153D01*
X19452Y23910D01*
X19734Y24026D01*
X19988Y24196D01*
X20204Y24412D01*
X20374Y24666D01*
X20490Y24948D01*
X20550Y25247D01*
Y25553D01*
X20490Y25852D01*
X20374Y26134D01*
X20204Y26388D01*
X19988Y26604D01*
X19734Y26774D01*
X19452Y26890D01*
X19153Y26950D01*
D02*
G37*
G36*
X4148Y26250D02*
X3852D01*
X3562Y26192D01*
X3289Y26079D01*
X3044Y25915D01*
X2835Y25706D01*
X2671Y25461D01*
X2558Y25188D01*
X2500Y24898D01*
Y24602D01*
X2558Y24312D01*
X2671Y24039D01*
X2835Y23794D01*
X3044Y23585D01*
X3289Y23421D01*
X3562Y23308D01*
X3852Y23250D01*
X4148D01*
X4438Y23308D01*
X4711Y23421D01*
X4956Y23585D01*
X5165Y23794D01*
X5329Y24039D01*
X5442Y24312D01*
X5500Y24602D01*
Y24898D01*
X5442Y25188D01*
X5329Y25461D01*
X5165Y25706D01*
X4956Y25915D01*
X4711Y26079D01*
X4438Y26192D01*
X4148Y26250D01*
D02*
G37*
G36*
X47030Y24932D02*
X46750D01*
X46480Y24860D01*
X46238Y24720D01*
X46040Y24522D01*
X45900Y24280D01*
X45828Y24010D01*
Y23730D01*
X45900Y23460D01*
X46040Y23218D01*
X46238Y23020D01*
X46480Y22880D01*
X46750Y22808D01*
X47030D01*
X47300Y22880D01*
X47542Y23020D01*
X47740Y23218D01*
X47880Y23460D01*
X47952Y23730D01*
Y24010D01*
X47880Y24280D01*
X47740Y24522D01*
X47542Y24720D01*
X47300Y24860D01*
X47030Y24932D01*
D02*
G37*
G36*
X29250D02*
X28970D01*
X28700Y24860D01*
X28458Y24720D01*
X28260Y24522D01*
X28120Y24280D01*
X28048Y24010D01*
Y23730D01*
X28120Y23460D01*
X28260Y23218D01*
X28458Y23020D01*
X28700Y22880D01*
X28970Y22808D01*
X29250D01*
X29520Y22880D01*
X29762Y23020D01*
X29960Y23218D01*
X30100Y23460D01*
X30172Y23730D01*
Y24010D01*
X30100Y24280D01*
X29960Y24522D01*
X29762Y24720D01*
X29520Y24860D01*
X29250Y24932D01*
D02*
G37*
G36*
X19148Y23504D02*
X18852D01*
X18561Y23446D01*
X18288Y23333D01*
X18043Y23169D01*
X18249Y22963D01*
X18037Y22751D01*
X17831Y22957D01*
X17667Y22712D01*
X17554Y22439D01*
X17496Y22148D01*
Y21852D01*
X17554Y21561D01*
X17667Y21288D01*
X17831Y21043D01*
X18037Y21249D01*
X18249Y21037D01*
X18043Y20831D01*
X18288Y20667D01*
X18561Y20554D01*
X18852Y20496D01*
X19148D01*
X19439Y20554D01*
X19712Y20667D01*
X19957Y20831D01*
X19751Y21037D01*
X19963Y21249D01*
X20169Y21043D01*
X20333Y21288D01*
X20446Y21561D01*
X20504Y21852D01*
Y22148D01*
X20446Y22439D01*
X20333Y22712D01*
X20169Y22957D01*
X19963Y22751D01*
X19751Y22963D01*
X19957Y23169D01*
X19712Y23333D01*
X19439Y23446D01*
X19148Y23504D01*
D02*
G37*
G36*
X74774Y23004D02*
X73920D01*
Y22722D01*
X73620D01*
Y23004D01*
X72766D01*
Y22150D01*
X73048D01*
Y21850D01*
X72766D01*
Y20996D01*
X73620D01*
Y21278D01*
X73920D01*
Y20996D01*
X74774D01*
Y21850D01*
X74492D01*
Y22150D01*
X74774D01*
Y23004D01*
D02*
G37*
G36*
X58274D02*
X57420D01*
Y22722D01*
X57120D01*
Y23004D01*
X56266D01*
Y22150D01*
X56548D01*
Y21850D01*
X56266D01*
Y20996D01*
X57120D01*
Y21278D01*
X57420D01*
Y20996D01*
X58274D01*
Y21850D01*
X57992D01*
Y22150D01*
X58274D01*
Y23004D01*
D02*
G37*
G36*
X15153Y25250D02*
X14847D01*
X14548Y25190D01*
X14266Y25074D01*
X14012Y24904D01*
X13796Y24688D01*
X13626Y24434D01*
X13510Y24152D01*
X13450Y23853D01*
Y23547D01*
X13510Y23248D01*
X13626Y22966D01*
X13796Y22712D01*
X14012Y22496D01*
X14266Y22326D01*
X14548Y22210D01*
X14847Y22150D01*
X15153D01*
X15452Y22210D01*
X15734Y22326D01*
X15988Y22496D01*
X16204Y22712D01*
X16374Y22966D01*
X16490Y23248D01*
X16550Y23547D01*
Y23853D01*
X16490Y24152D01*
X16374Y24434D01*
X16204Y24688D01*
X15988Y24904D01*
X15734Y25074D01*
X15452Y25190D01*
X15153Y25250D01*
D02*
G37*
G36*
X47024Y22346D02*
X46756D01*
X46498Y22277D01*
X46281Y22151D01*
X46488Y21944D01*
X46276Y21732D01*
X46069Y21939D01*
X45943Y21722D01*
X45874Y21464D01*
Y21196D01*
X45943Y20938D01*
X46069Y20721D01*
X46276Y20928D01*
X46488Y20716D01*
X46281Y20509D01*
X46498Y20383D01*
X46756Y20314D01*
X47024D01*
X47282Y20383D01*
X47499Y20509D01*
X47292Y20716D01*
X47504Y20928D01*
X47711Y20721D01*
X47837Y20938D01*
X47906Y21196D01*
Y21464D01*
X47837Y21722D01*
X47711Y21939D01*
X47504Y21732D01*
X47292Y21944D01*
X47499Y22151D01*
X47282Y22277D01*
X47024Y22346D01*
D02*
G37*
G36*
X29244D02*
X28976D01*
X28718Y22277D01*
X28501Y22151D01*
X28708Y21944D01*
X28496Y21732D01*
X28289Y21939D01*
X28163Y21722D01*
X28094Y21464D01*
Y21196D01*
X28163Y20938D01*
X28289Y20721D01*
X28496Y20928D01*
X28708Y20716D01*
X28501Y20509D01*
X28718Y20383D01*
X28976Y20314D01*
X29244D01*
X29502Y20383D01*
X29719Y20509D01*
X29512Y20716D01*
X29724Y20928D01*
X29931Y20721D01*
X30057Y20938D01*
X30126Y21196D01*
Y21464D01*
X30057Y21722D01*
X29931Y21939D01*
X29724Y21732D01*
X29512Y21944D01*
X29719Y22151D01*
X29502Y22277D01*
X29244Y22346D01*
D02*
G37*
G36*
X71368Y23050D02*
X71092D01*
X70825Y22978D01*
X70585Y22840D01*
X70390Y22645D01*
X70252Y22405D01*
X70180Y22138D01*
Y21862D01*
X70252Y21595D01*
X70390Y21355D01*
X70585Y21160D01*
X70825Y21022D01*
X71092Y20950D01*
X71368D01*
X71635Y21022D01*
X71875Y21160D01*
X72070Y21355D01*
X72208Y21595D01*
X72280Y21862D01*
Y22138D01*
X72208Y22405D01*
X72070Y22645D01*
X71875Y22840D01*
X71635Y22978D01*
X71368Y23050D01*
D02*
G37*
G36*
X54868D02*
X54592D01*
X54325Y22978D01*
X54085Y22840D01*
X53890Y22645D01*
X53752Y22405D01*
X53680Y22138D01*
Y21862D01*
X53752Y21595D01*
X53890Y21355D01*
X54085Y21160D01*
X54325Y21022D01*
X54592Y20950D01*
X54868D01*
X55135Y21022D01*
X55375Y21160D01*
X55570Y21355D01*
X55708Y21595D01*
X55780Y21862D01*
Y22138D01*
X55708Y22405D01*
X55570Y22645D01*
X55375Y22840D01*
X55135Y22978D01*
X54868Y23050D01*
D02*
G37*
G36*
X25870Y21354D02*
X25630D01*
X25438Y21274D01*
X25653Y21060D01*
X25440Y20847D01*
X25226Y21062D01*
X25146Y20870D01*
Y20630D01*
X25226Y20438D01*
X25440Y20653D01*
X25653Y20440D01*
X25438Y20226D01*
X25630Y20146D01*
X25870D01*
X26062Y20226D01*
X25847Y20440D01*
X26060Y20653D01*
X26274Y20438D01*
X26354Y20630D01*
Y20870D01*
X26274Y21062D01*
X26060Y20847D01*
X25847Y21060D01*
X26062Y21274D01*
X25870Y21354D01*
D02*
G37*
G36*
X7170Y20854D02*
X6930D01*
X6738Y20774D01*
X6953Y20560D01*
X6740Y20347D01*
X6526Y20562D01*
X6446Y20370D01*
Y20130D01*
X6526Y19938D01*
X6740Y20153D01*
X6953Y19940D01*
X6738Y19726D01*
X6930Y19646D01*
X7170D01*
X7362Y19726D01*
X7147Y19940D01*
X7360Y20153D01*
X7574Y19938D01*
X7654Y20130D01*
Y20370D01*
X7574Y20562D01*
X7360Y20347D01*
X7147Y20560D01*
X7362Y20774D01*
X7170Y20854D01*
D02*
G37*
G36*
X4148Y22500D02*
X3852D01*
X3562Y22442D01*
X3289Y22329D01*
X3044Y22165D01*
X2835Y21956D01*
X2671Y21711D01*
X2558Y21438D01*
X2500Y21148D01*
Y20852D01*
X2558Y20562D01*
X2671Y20289D01*
X2835Y20044D01*
X3044Y19835D01*
X3289Y19671D01*
X3562Y19558D01*
X3852Y19500D01*
X4148D01*
X4438Y19558D01*
X4711Y19671D01*
X4956Y19835D01*
X5165Y20044D01*
X5329Y20289D01*
X5442Y20562D01*
X5500Y20852D01*
Y21148D01*
X5442Y21438D01*
X5329Y21711D01*
X5165Y21956D01*
X4956Y22165D01*
X4711Y22329D01*
X4438Y22442D01*
X4148Y22500D01*
D02*
G37*
G36*
X15153Y21850D02*
X14847D01*
X14548Y21790D01*
X14266Y21674D01*
X14012Y21504D01*
X13796Y21288D01*
X13626Y21034D01*
X13510Y20752D01*
X13450Y20453D01*
Y20147D01*
X13510Y19848D01*
X13626Y19566D01*
X13796Y19312D01*
X14012Y19096D01*
X14266Y18926D01*
X14548Y18810D01*
X14847Y18750D01*
X15153D01*
X15452Y18810D01*
X15734Y18926D01*
X15988Y19096D01*
X16204Y19312D01*
X16374Y19566D01*
X16490Y19848D01*
X16550Y20147D01*
Y20453D01*
X16490Y20752D01*
X16374Y21034D01*
X16204Y21288D01*
X15988Y21504D01*
X15734Y21674D01*
X15452Y21790D01*
X15153Y21850D01*
D02*
G37*
G36*
X4191Y18704D02*
X3809D01*
X3439Y18605D01*
X3107Y18413D01*
X3078Y18384D01*
X3284Y18178D01*
X3072Y17966D01*
X2866Y18172D01*
X2837Y18143D01*
X2645Y17811D01*
X2546Y17441D01*
Y17059D01*
X2645Y16689D01*
X2837Y16357D01*
X2866Y16328D01*
X3072Y16534D01*
X3284Y16322D01*
X3078Y16116D01*
X3107Y16087D01*
X3439Y15895D01*
X3809Y15796D01*
X4191D01*
X4561Y15895D01*
X4893Y16087D01*
X4922Y16116D01*
X4716Y16322D01*
X4928Y16534D01*
X5134Y16328D01*
X5163Y16357D01*
X5355Y16689D01*
X5454Y17059D01*
Y17441D01*
X5355Y17811D01*
X5163Y18143D01*
X5134Y18172D01*
X4928Y17966D01*
X4716Y18178D01*
X4922Y18384D01*
X4893Y18413D01*
X4561Y18605D01*
X4191Y18704D01*
D02*
G37*
G36*
X47030Y19852D02*
X46750D01*
X46480Y19780D01*
X46238Y19640D01*
X46040Y19442D01*
X45900Y19200D01*
X45828Y18930D01*
Y18650D01*
X45900Y18380D01*
X46040Y18138D01*
X46238Y17940D01*
X46480Y17800D01*
X46750Y17728D01*
X47030D01*
X47300Y17800D01*
X47542Y17940D01*
X47740Y18138D01*
X47880Y18380D01*
X47952Y18650D01*
Y18930D01*
X47880Y19200D01*
X47740Y19442D01*
X47542Y19640D01*
X47300Y19780D01*
X47030Y19852D01*
D02*
G37*
G36*
X29250D02*
X28970D01*
X28700Y19780D01*
X28458Y19640D01*
X28260Y19442D01*
X28120Y19200D01*
X28048Y18930D01*
Y18650D01*
X28120Y18380D01*
X28260Y18138D01*
X28458Y17940D01*
X28700Y17800D01*
X28970Y17728D01*
X29250D01*
X29520Y17800D01*
X29762Y17940D01*
X29960Y18138D01*
X30100Y18380D01*
X30172Y18650D01*
Y18930D01*
X30100Y19200D01*
X29960Y19442D01*
X29762Y19640D01*
X29520Y19780D01*
X29250Y19852D01*
D02*
G37*
G36*
X19153Y20150D02*
X18847D01*
X18548Y20090D01*
X18266Y19974D01*
X18012Y19804D01*
X17796Y19588D01*
X17626Y19334D01*
X17510Y19052D01*
X17450Y18753D01*
Y18447D01*
X17510Y18148D01*
X17626Y17866D01*
X17796Y17612D01*
X18012Y17396D01*
X18266Y17226D01*
X18548Y17110D01*
X18847Y17050D01*
X19153D01*
X19452Y17110D01*
X19734Y17226D01*
X19988Y17396D01*
X20204Y17612D01*
X20374Y17866D01*
X20490Y18148D01*
X20550Y18447D01*
Y18753D01*
X20490Y19052D01*
X20374Y19334D01*
X20204Y19588D01*
X19988Y19804D01*
X19734Y19974D01*
X19452Y20090D01*
X19153Y20150D01*
D02*
G37*
G36*
X8370Y16604D02*
X8130D01*
X7938Y16524D01*
X8153Y16310D01*
X7940Y16097D01*
X7726Y16312D01*
X7646Y16120D01*
Y15880D01*
X7726Y15688D01*
X7940Y15903D01*
X8153Y15690D01*
X7938Y15476D01*
X8130Y15396D01*
X8370D01*
X8562Y15476D01*
X8347Y15690D01*
X8560Y15903D01*
X8774Y15688D01*
X8854Y15880D01*
Y16120D01*
X8774Y16312D01*
X8560Y16097D01*
X8347Y16310D01*
X8562Y16524D01*
X8370Y16604D01*
D02*
G37*
G36*
X47030Y17312D02*
X46750D01*
X46480Y17240D01*
X46238Y17100D01*
X46040Y16902D01*
X45900Y16660D01*
X45828Y16390D01*
Y16110D01*
X45900Y15840D01*
X46040Y15598D01*
X46238Y15400D01*
X46480Y15260D01*
X46750Y15188D01*
X47030D01*
X47300Y15260D01*
X47542Y15400D01*
X47740Y15598D01*
X47880Y15840D01*
X47952Y16110D01*
Y16390D01*
X47880Y16660D01*
X47740Y16902D01*
X47542Y17100D01*
X47300Y17240D01*
X47030Y17312D01*
D02*
G37*
G36*
X29250D02*
X28970D01*
X28700Y17240D01*
X28458Y17100D01*
X28260Y16902D01*
X28120Y16660D01*
X28048Y16390D01*
Y16110D01*
X28120Y15840D01*
X28260Y15598D01*
X28458Y15400D01*
X28700Y15260D01*
X28970Y15188D01*
X29250D01*
X29520Y15260D01*
X29762Y15400D01*
X29960Y15598D01*
X30100Y15840D01*
X30172Y16110D01*
Y16390D01*
X30100Y16660D01*
X29960Y16902D01*
X29762Y17100D01*
X29520Y17240D01*
X29250Y17312D01*
D02*
G37*
G36*
X88119Y14944D02*
X87881D01*
X87651Y14882D01*
X87473Y14779D01*
X87679Y14573D01*
X87467Y14361D01*
X87261Y14567D01*
X87158Y14389D01*
X87096Y14159D01*
Y13921D01*
X87158Y13691D01*
X87261Y13513D01*
X87467Y13719D01*
X87679Y13507D01*
X87473Y13301D01*
X87651Y13198D01*
X87881Y13136D01*
X88119D01*
X88349Y13198D01*
X88527Y13301D01*
X88321Y13507D01*
X88533Y13719D01*
X88739Y13513D01*
X88842Y13691D01*
X88904Y13921D01*
Y14159D01*
X88842Y14389D01*
X88739Y14567D01*
X88533Y14361D01*
X88321Y14573D01*
X88527Y14779D01*
X88349Y14882D01*
X88119Y14944D01*
D02*
G37*
G36*
X47030Y14772D02*
X46750D01*
X46480Y14700D01*
X46238Y14560D01*
X46040Y14362D01*
X45900Y14120D01*
X45828Y13850D01*
Y13570D01*
X45900Y13300D01*
X46040Y13058D01*
X46238Y12860D01*
X46480Y12720D01*
X46750Y12648D01*
X47030D01*
X47300Y12720D01*
X47542Y12860D01*
X47740Y13058D01*
X47880Y13300D01*
X47952Y13570D01*
Y13850D01*
X47880Y14120D01*
X47740Y14362D01*
X47542Y14560D01*
X47300Y14700D01*
X47030Y14772D01*
D02*
G37*
G36*
X29250D02*
X28970D01*
X28700Y14700D01*
X28458Y14560D01*
X28260Y14362D01*
X28120Y14120D01*
X28048Y13850D01*
Y13570D01*
X28120Y13300D01*
X28260Y13058D01*
X28458Y12860D01*
X28700Y12720D01*
X28970Y12648D01*
X29250D01*
X29520Y12720D01*
X29762Y12860D01*
X29960Y13058D01*
X30100Y13300D01*
X30172Y13570D01*
Y13850D01*
X30100Y14120D01*
X29960Y14362D01*
X29762Y14560D01*
X29520Y14700D01*
X29250Y14772D01*
D02*
G37*
G36*
X14177Y16050D02*
X13823D01*
X13475Y15981D01*
X13147Y15845D01*
X12853Y15648D01*
X12602Y15397D01*
X12405Y15103D01*
X12269Y14775D01*
X12200Y14427D01*
Y14073D01*
X12269Y13725D01*
X12405Y13397D01*
X12602Y13103D01*
X12853Y12852D01*
X13147Y12655D01*
X13475Y12519D01*
X13823Y12450D01*
X14177D01*
X14525Y12519D01*
X14853Y12655D01*
X15147Y12852D01*
X15398Y13103D01*
X15595Y13397D01*
X15731Y13725D01*
X15800Y14073D01*
Y14427D01*
X15731Y14775D01*
X15595Y15103D01*
X15398Y15397D01*
X15147Y15648D01*
X14853Y15845D01*
X14525Y15981D01*
X14177Y16050D01*
D02*
G37*
G36*
X18873Y13004D02*
X18527D01*
X18188Y12937D01*
X17869Y12804D01*
X17582Y12612D01*
X17566Y12596D01*
X17771Y12391D01*
X17559Y12179D01*
X17354Y12384D01*
X17338Y12368D01*
X17146Y12081D01*
X17013Y11762D01*
X16946Y11423D01*
Y11077D01*
X17013Y10738D01*
X17146Y10419D01*
X17338Y10132D01*
X17354Y10116D01*
X17559Y10321D01*
X17771Y10109D01*
X17566Y9904D01*
X17582Y9888D01*
X17869Y9696D01*
X18188Y9563D01*
X18527Y9496D01*
X18873D01*
X19212Y9563D01*
X19531Y9696D01*
X19818Y9888D01*
X19834Y9904D01*
X19629Y10109D01*
X19841Y10321D01*
X20046Y10116D01*
X20062Y10132D01*
X20254Y10419D01*
X20387Y10738D01*
X20454Y11077D01*
Y11423D01*
X20387Y11762D01*
X20254Y12081D01*
X20062Y12368D01*
X20046Y12384D01*
X19841Y12179D01*
X19629Y12391D01*
X19834Y12596D01*
X19818Y12612D01*
X19531Y12804D01*
X19212Y12937D01*
X18873Y13004D01*
D02*
G37*
G36*
X82679Y12554D02*
X82401D01*
X82133Y12482D01*
X81903Y12349D01*
X82111Y12142D01*
X81898Y11929D01*
X81691Y12137D01*
X81558Y11907D01*
X81486Y11639D01*
Y11361D01*
X81558Y11093D01*
X81691Y10863D01*
X81898Y11071D01*
X82111Y10858D01*
X81903Y10651D01*
X82133Y10518D01*
X82401Y10446D01*
X82679D01*
X82947Y10518D01*
X83177Y10651D01*
X82969Y10858D01*
X83182Y11071D01*
X83389Y10863D01*
X83522Y11093D01*
X83594Y11361D01*
Y11639D01*
X83522Y11907D01*
X83389Y12137D01*
X83182Y11929D01*
X82969Y12142D01*
X83177Y12349D01*
X82947Y12482D01*
X82679Y12554D01*
D02*
G37*
G36*
X71179D02*
X70901D01*
X70633Y12482D01*
X70403Y12349D01*
X70611Y12142D01*
X70398Y11929D01*
X70191Y12137D01*
X70058Y11907D01*
X69986Y11639D01*
Y11361D01*
X70058Y11093D01*
X70191Y10863D01*
X70398Y11071D01*
X70611Y10858D01*
X70403Y10651D01*
X70633Y10518D01*
X70901Y10446D01*
X71179D01*
X71447Y10518D01*
X71677Y10651D01*
X71469Y10858D01*
X71682Y11071D01*
X71889Y10863D01*
X72022Y11093D01*
X72094Y11361D01*
Y11639D01*
X72022Y11907D01*
X71889Y12137D01*
X71682Y11929D01*
X71469Y12142D01*
X71677Y12349D01*
X71447Y12482D01*
X71179Y12554D01*
D02*
G37*
G36*
X59679D02*
X59401D01*
X59133Y12482D01*
X58903Y12349D01*
X59111Y12142D01*
X58898Y11929D01*
X58691Y12137D01*
X58558Y11907D01*
X58486Y11639D01*
Y11361D01*
X58558Y11093D01*
X58691Y10863D01*
X58898Y11071D01*
X59111Y10858D01*
X58903Y10651D01*
X59133Y10518D01*
X59401Y10446D01*
X59679D01*
X59947Y10518D01*
X60177Y10651D01*
X59969Y10858D01*
X60182Y11071D01*
X60389Y10863D01*
X60522Y11093D01*
X60594Y11361D01*
Y11639D01*
X60522Y11907D01*
X60389Y12137D01*
X60182Y11929D01*
X59969Y12142D01*
X60177Y12349D01*
X59947Y12482D01*
X59679Y12554D01*
D02*
G37*
G36*
X44336Y12150D02*
X44164D01*
X43999Y12106D01*
X43851Y12020D01*
X43730Y11899D01*
X43644Y11751D01*
X43600Y11586D01*
Y11414D01*
X43644Y11249D01*
X43730Y11101D01*
X43851Y10980D01*
X43999Y10894D01*
X44164Y10850D01*
X44336D01*
X44501Y10894D01*
X44649Y10980D01*
X44770Y11101D01*
X44856Y11249D01*
X44900Y11414D01*
Y11586D01*
X44856Y11751D01*
X44770Y11899D01*
X44649Y12020D01*
X44501Y12106D01*
X44336Y12150D01*
D02*
G37*
G36*
X88125Y12450D02*
X87875D01*
X87633Y12385D01*
X87417Y12260D01*
X87240Y12083D01*
X87115Y11867D01*
X87050Y11625D01*
Y11375D01*
X87115Y11133D01*
X87240Y10917D01*
X87417Y10740D01*
X87633Y10615D01*
X87875Y10550D01*
X88125D01*
X88367Y10615D01*
X88583Y10740D01*
X88760Y10917D01*
X88885Y11133D01*
X88950Y11375D01*
Y11625D01*
X88885Y11867D01*
X88760Y12083D01*
X88583Y12260D01*
X88367Y12385D01*
X88125Y12450D01*
D02*
G37*
G36*
X77605Y12600D02*
X77315D01*
X77035Y12525D01*
X76785Y12380D01*
X76580Y12175D01*
X76435Y11925D01*
X76360Y11645D01*
Y11355D01*
X76435Y11075D01*
X76580Y10825D01*
X76785Y10620D01*
X77035Y10475D01*
X77315Y10400D01*
X77605D01*
X77885Y10475D01*
X78135Y10620D01*
X78340Y10825D01*
X78485Y11075D01*
X78560Y11355D01*
Y11645D01*
X78485Y11925D01*
X78340Y12175D01*
X78135Y12380D01*
X77885Y12525D01*
X77605Y12600D01*
D02*
G37*
G36*
X66105D02*
X65815D01*
X65535Y12525D01*
X65285Y12380D01*
X65080Y12175D01*
X64935Y11925D01*
X64860Y11645D01*
Y11355D01*
X64935Y11075D01*
X65080Y10825D01*
X65285Y10620D01*
X65535Y10475D01*
X65815Y10400D01*
X66105D01*
X66385Y10475D01*
X66635Y10620D01*
X66840Y10825D01*
X66985Y11075D01*
X67060Y11355D01*
Y11645D01*
X66985Y11925D01*
X66840Y12175D01*
X66635Y12380D01*
X66385Y12525D01*
X66105Y12600D01*
D02*
G37*
G36*
X54605D02*
X54315D01*
X54035Y12525D01*
X53785Y12380D01*
X53580Y12175D01*
X53435Y11925D01*
X53360Y11645D01*
Y11355D01*
X53435Y11075D01*
X53580Y10825D01*
X53785Y10620D01*
X54035Y10475D01*
X54315Y10400D01*
X54605D01*
X54885Y10475D01*
X55135Y10620D01*
X55340Y10825D01*
X55485Y11075D01*
X55560Y11355D01*
Y11645D01*
X55485Y11925D01*
X55340Y12175D01*
X55135Y12380D01*
X54885Y12525D01*
X54605Y12600D01*
D02*
G37*
G36*
X47030Y12232D02*
X46750D01*
X46480Y12160D01*
X46238Y12020D01*
X46040Y11822D01*
X45900Y11580D01*
X45828Y11310D01*
Y11030D01*
X45900Y10760D01*
X46040Y10518D01*
X46238Y10320D01*
X46480Y10180D01*
X46750Y10108D01*
X47030D01*
X47300Y10180D01*
X47542Y10320D01*
X47740Y10518D01*
X47880Y10760D01*
X47952Y11030D01*
Y11310D01*
X47880Y11580D01*
X47740Y11822D01*
X47542Y12020D01*
X47300Y12160D01*
X47030Y12232D01*
D02*
G37*
G36*
X29250D02*
X28970D01*
X28700Y12160D01*
X28458Y12020D01*
X28260Y11822D01*
X28120Y11580D01*
X28048Y11310D01*
Y11030D01*
X28120Y10760D01*
X28260Y10518D01*
X28458Y10320D01*
X28700Y10180D01*
X28970Y10108D01*
X29250D01*
X29520Y10180D01*
X29762Y10320D01*
X29960Y10518D01*
X30100Y10760D01*
X30172Y11030D01*
Y11310D01*
X30100Y11580D01*
X29960Y11822D01*
X29762Y12020D01*
X29520Y12160D01*
X29250Y12232D01*
D02*
G37*
G36*
X14173Y10004D02*
X13827D01*
X13488Y9937D01*
X13169Y9804D01*
X12882Y9612D01*
X12866Y9596D01*
X13071Y9391D01*
X12859Y9179D01*
X12654Y9384D01*
X12638Y9368D01*
X12446Y9081D01*
X12313Y8762D01*
X12246Y8423D01*
Y8077D01*
X12313Y7738D01*
X12446Y7419D01*
X12638Y7132D01*
X12654Y7116D01*
X12859Y7321D01*
X13071Y7109D01*
X12866Y6904D01*
X12882Y6888D01*
X13169Y6696D01*
X13488Y6563D01*
X13827Y6496D01*
X14173D01*
X14512Y6563D01*
X14831Y6696D01*
X15118Y6888D01*
X15134Y6904D01*
X14929Y7109D01*
X15141Y7321D01*
X15346Y7116D01*
X15362Y7132D01*
X15554Y7419D01*
X15687Y7738D01*
X15754Y8077D01*
Y8423D01*
X15687Y8762D01*
X15554Y9081D01*
X15362Y9368D01*
X15346Y9384D01*
X15141Y9179D01*
X14929Y9391D01*
X15134Y9596D01*
X15118Y9612D01*
X14831Y9804D01*
X14512Y9937D01*
X14173Y10004D01*
D02*
G37*
G36*
X47024Y9646D02*
X46756D01*
X46498Y9577D01*
X46281Y9451D01*
X46488Y9244D01*
X46276Y9032D01*
X46069Y9239D01*
X45943Y9022D01*
X45874Y8764D01*
Y8496D01*
X45943Y8238D01*
X46069Y8021D01*
X46276Y8228D01*
X46488Y8016D01*
X46281Y7809D01*
X46498Y7683D01*
X46756Y7614D01*
X47024D01*
X47282Y7683D01*
X47499Y7809D01*
X47292Y8016D01*
X47504Y8228D01*
X47711Y8021D01*
X47837Y8238D01*
X47906Y8496D01*
Y8764D01*
X47837Y9022D01*
X47711Y9239D01*
X47504Y9032D01*
X47292Y9244D01*
X47499Y9451D01*
X47282Y9577D01*
X47024Y9646D01*
D02*
G37*
G36*
X29244D02*
X28976D01*
X28718Y9577D01*
X28501Y9451D01*
X28708Y9244D01*
X28496Y9032D01*
X28289Y9239D01*
X28163Y9022D01*
X28094Y8764D01*
Y8496D01*
X28163Y8238D01*
X28289Y8021D01*
X28496Y8228D01*
X28708Y8016D01*
X28501Y7809D01*
X28718Y7683D01*
X28976Y7614D01*
X29244D01*
X29502Y7683D01*
X29719Y7809D01*
X29512Y8016D01*
X29724Y8228D01*
X29931Y8021D01*
X30057Y8238D01*
X30126Y8496D01*
Y8764D01*
X30057Y9022D01*
X29931Y9239D01*
X29724Y9032D01*
X29512Y9244D01*
X29719Y9451D01*
X29502Y9577D01*
X29244Y9646D01*
D02*
G37*
G36*
X88125Y9910D02*
X87875D01*
X87633Y9845D01*
X87417Y9720D01*
X87240Y9543D01*
X87115Y9327D01*
X87050Y9085D01*
Y8835D01*
X87115Y8593D01*
X87240Y8377D01*
X87417Y8200D01*
X87633Y8075D01*
X87875Y8010D01*
X88125D01*
X88367Y8075D01*
X88583Y8200D01*
X88760Y8377D01*
X88885Y8593D01*
X88950Y8835D01*
Y9085D01*
X88885Y9327D01*
X88760Y9543D01*
X88583Y9720D01*
X88367Y9845D01*
X88125Y9910D01*
D02*
G37*
G36*
X80145Y10060D02*
X79855D01*
X79575Y9985D01*
X79325Y9840D01*
X79120Y9635D01*
X78975Y9385D01*
X78900Y9105D01*
Y8815D01*
X78975Y8535D01*
X79120Y8285D01*
X79325Y8080D01*
X79575Y7935D01*
X79855Y7860D01*
X80145D01*
X80425Y7935D01*
X80675Y8080D01*
X80880Y8285D01*
X81025Y8535D01*
X81100Y8815D01*
Y9105D01*
X81025Y9385D01*
X80880Y9635D01*
X80675Y9840D01*
X80425Y9985D01*
X80145Y10060D01*
D02*
G37*
G36*
X68645D02*
X68355D01*
X68075Y9985D01*
X67825Y9840D01*
X67620Y9635D01*
X67475Y9385D01*
X67400Y9105D01*
Y8815D01*
X67475Y8535D01*
X67620Y8285D01*
X67825Y8080D01*
X68075Y7935D01*
X68355Y7860D01*
X68645D01*
X68925Y7935D01*
X69175Y8080D01*
X69380Y8285D01*
X69525Y8535D01*
X69600Y8815D01*
Y9105D01*
X69525Y9385D01*
X69380Y9635D01*
X69175Y9840D01*
X68925Y9985D01*
X68645Y10060D01*
D02*
G37*
G36*
X57145D02*
X56855D01*
X56575Y9985D01*
X56325Y9840D01*
X56120Y9635D01*
X55975Y9385D01*
X55900Y9105D01*
Y8815D01*
X55975Y8535D01*
X56120Y8285D01*
X56325Y8080D01*
X56575Y7935D01*
X56855Y7860D01*
X57145D01*
X57425Y7935D01*
X57675Y8080D01*
X57880Y8285D01*
X58025Y8535D01*
X58100Y8815D01*
Y9105D01*
X58025Y9385D01*
X57880Y9635D01*
X57675Y9840D01*
X57425Y9985D01*
X57145Y10060D01*
D02*
G37*
G36*
X65586Y8400D02*
X65414D01*
X65249Y8356D01*
X65101Y8270D01*
X64980Y8149D01*
X64894Y8001D01*
X64850Y7836D01*
Y7664D01*
X64894Y7499D01*
X64980Y7351D01*
X65101Y7230D01*
X65249Y7144D01*
X65414Y7100D01*
X65586D01*
X65751Y7144D01*
X65899Y7230D01*
X66020Y7351D01*
X66106Y7499D01*
X66150Y7664D01*
Y7836D01*
X66106Y8001D01*
X66020Y8149D01*
X65899Y8270D01*
X65751Y8356D01*
X65586Y8400D01*
D02*
G37*
G36*
X25120Y6754D02*
X24880D01*
X24688Y6674D01*
X24903Y6460D01*
X24690Y6248D01*
X24476Y6462D01*
X24396Y6270D01*
Y6030D01*
X24476Y5838D01*
X24690Y6053D01*
X24903Y5841D01*
X24688Y5626D01*
X24880Y5546D01*
X25120D01*
X25312Y5626D01*
X25097Y5841D01*
X25310Y6053D01*
X25524Y5838D01*
X25604Y6030D01*
Y6270D01*
X25524Y6462D01*
X25310Y6248D01*
X25097Y6460D01*
X25312Y6674D01*
X25120Y6754D01*
D02*
G37*
G36*
X47030Y7152D02*
X46750D01*
X46480Y7080D01*
X46238Y6940D01*
X46040Y6742D01*
X45900Y6500D01*
X45828Y6230D01*
Y5950D01*
X45900Y5680D01*
X46040Y5438D01*
X46238Y5240D01*
X46480Y5100D01*
X46750Y5028D01*
X47030D01*
X47300Y5100D01*
X47542Y5240D01*
X47740Y5438D01*
X47880Y5680D01*
X47952Y5950D01*
Y6230D01*
X47880Y6500D01*
X47740Y6742D01*
X47542Y6940D01*
X47300Y7080D01*
X47030Y7152D01*
D02*
G37*
G36*
X29250D02*
X28970D01*
X28700Y7080D01*
X28458Y6940D01*
X28260Y6742D01*
X28120Y6500D01*
X28048Y6230D01*
Y5950D01*
X28120Y5680D01*
X28260Y5438D01*
X28458Y5240D01*
X28700Y5100D01*
X28970Y5028D01*
X29250D01*
X29520Y5100D01*
X29762Y5240D01*
X29960Y5438D01*
X30100Y5680D01*
X30172Y5950D01*
Y6230D01*
X30100Y6500D01*
X29960Y6742D01*
X29762Y6940D01*
X29520Y7080D01*
X29250Y7152D01*
D02*
G37*
G36*
X25086Y5000D02*
X24914D01*
X24749Y4956D01*
X24601Y4870D01*
X24480Y4749D01*
X24394Y4601D01*
X24350Y4436D01*
Y4265D01*
X24394Y4099D01*
X24480Y3951D01*
X24601Y3830D01*
X24749Y3744D01*
X24914Y3700D01*
X25086D01*
X25251Y3744D01*
X25399Y3830D01*
X25520Y3951D01*
X25606Y4099D01*
X25650Y4265D01*
Y4436D01*
X25606Y4601D01*
X25520Y4749D01*
X25399Y4870D01*
X25251Y4956D01*
X25086Y5000D01*
D02*
G37*
G36*
X47030Y4612D02*
X46750D01*
X46480Y4540D01*
X46238Y4400D01*
X46040Y4202D01*
X45900Y3960D01*
X45828Y3690D01*
Y3410D01*
X45900Y3140D01*
X46040Y2898D01*
X46238Y2700D01*
X46480Y2560D01*
X46750Y2488D01*
X47030D01*
X47300Y2560D01*
X47542Y2700D01*
X47740Y2898D01*
X47880Y3140D01*
X47952Y3410D01*
Y3690D01*
X47880Y3960D01*
X47740Y4202D01*
X47542Y4400D01*
X47300Y4540D01*
X47030Y4612D01*
D02*
G37*
G36*
X29250D02*
X28970D01*
X28700Y4540D01*
X28458Y4400D01*
X28260Y4202D01*
X28120Y3960D01*
X28048Y3690D01*
Y3410D01*
X28120Y3140D01*
X28260Y2898D01*
X28458Y2700D01*
X28700Y2560D01*
X28970Y2488D01*
X29250D01*
X29520Y2560D01*
X29762Y2700D01*
X29960Y2898D01*
X30100Y3140D01*
X30172Y3410D01*
Y3690D01*
X30100Y3960D01*
X29960Y4202D01*
X29762Y4400D01*
X29520Y4540D01*
X29250Y4612D01*
D02*
G37*
G36*
X94760Y7800D02*
X94240D01*
X93727Y7719D01*
X93233Y7558D01*
X92770Y7322D01*
X92350Y7017D01*
X91983Y6650D01*
X91678Y6230D01*
X91442Y5767D01*
X91281Y5273D01*
X91200Y4760D01*
Y4240D01*
X91281Y3727D01*
X91442Y3233D01*
X91678Y2770D01*
X91983Y2350D01*
X92350Y1983D01*
X92770Y1678D01*
X93233Y1442D01*
X93727Y1281D01*
X94240Y1200D01*
X94760D01*
X95273Y1281D01*
X95767Y1442D01*
X96230Y1678D01*
X96650Y1983D01*
X97017Y2350D01*
X97322Y2770D01*
X97558Y3233D01*
X97719Y3727D01*
X97800Y4240D01*
Y4760D01*
X97719Y5273D01*
X97558Y5767D01*
X97322Y6230D01*
X97017Y6650D01*
X96650Y7017D01*
X96230Y7322D01*
X95767Y7558D01*
X95273Y7719D01*
X94760Y7800D01*
D02*
G37*
G36*
X4760D02*
X4240D01*
X3727Y7719D01*
X3233Y7558D01*
X2770Y7322D01*
X2350Y7017D01*
X1983Y6650D01*
X1678Y6230D01*
X1442Y5767D01*
X1281Y5273D01*
X1200Y4760D01*
Y4240D01*
X1281Y3727D01*
X1442Y3233D01*
X1678Y2770D01*
X1983Y2350D01*
X2350Y1983D01*
X2770Y1678D01*
X3233Y1442D01*
X3727Y1281D01*
X4240Y1200D01*
X4760D01*
X5273Y1281D01*
X5767Y1442D01*
X6230Y1678D01*
X6650Y1983D01*
X7017Y2350D01*
X7322Y2770D01*
X7558Y3233D01*
X7719Y3727D01*
X7800Y4240D01*
Y4760D01*
X7719Y5273D01*
X7558Y5767D01*
X7322Y6230D01*
X7017Y6650D01*
X6650Y7017D01*
X6230Y7322D01*
X5767Y7558D01*
X5273Y7719D01*
X4760Y7800D01*
D02*
G37*
%LPD*%
D24*
X55600Y94500D02*
D03*
X53060D02*
D03*
X50520D02*
D03*
X47980D02*
D03*
X45440D02*
D03*
X42900D02*
D03*
X40360D02*
D03*
X37820D02*
D03*
X35280D02*
D03*
X32740D02*
D03*
X30200D02*
D03*
X27660D02*
D03*
X25120D02*
D03*
X22580D02*
D03*
X20040D02*
D03*
X17500D02*
D03*
X78500Y42000D02*
D03*
X75000D02*
D03*
D25*
X12000Y63500D02*
D03*
Y94500D02*
D03*
X87000Y63500D02*
D03*
Y94500D02*
D03*
D26*
X80719Y56310D02*
D03*
Y53770D02*
D03*
Y51230D02*
D03*
Y48690D02*
D03*
X72781D02*
D03*
Y51230D02*
D03*
Y53770D02*
D03*
Y56310D02*
D03*
D27*
X59540Y11500D02*
D03*
X57000Y8960D02*
D03*
X54460Y11500D02*
D03*
X73630Y62980D02*
D03*
X71090Y65520D02*
D03*
Y62980D02*
D03*
X68550Y65520D02*
D03*
Y62980D02*
D03*
X66010Y65520D02*
D03*
X63470D02*
D03*
Y62980D02*
D03*
X60930Y65520D02*
D03*
X58390D02*
D03*
Y62980D02*
D03*
X55850D02*
D03*
X53310Y65520D02*
D03*
Y62980D02*
D03*
X50770Y65520D02*
D03*
Y62980D02*
D03*
X48230Y65520D02*
D03*
X45690D02*
D03*
Y62980D02*
D03*
X43150Y65520D02*
D03*
Y62980D02*
D03*
X40610Y65520D02*
D03*
X38070D02*
D03*
Y62980D02*
D03*
X35530D02*
D03*
X32990Y65520D02*
D03*
Y62980D02*
D03*
X30450Y65520D02*
D03*
X27910D02*
D03*
Y62980D02*
D03*
X25370Y65520D02*
D03*
Y62980D02*
D03*
X65960Y11500D02*
D03*
X68500Y8960D02*
D03*
X71040Y11500D02*
D03*
X77460D02*
D03*
X80000Y8960D02*
D03*
X82540Y11500D02*
D03*
D28*
X73630Y65520D02*
D03*
X66010Y62980D02*
D03*
X60930D02*
D03*
X55850Y65520D02*
D03*
X48230Y62980D02*
D03*
X40610D02*
D03*
X35530Y65520D02*
D03*
X30450Y62980D02*
D03*
D29*
X20500Y87250D02*
D03*
Y64250D02*
D03*
X78500D02*
D03*
Y87250D02*
D03*
X94500Y94500D02*
D03*
X4500D02*
D03*
X94500Y4500D02*
D03*
X4500D02*
D03*
D30*
X8750Y39230D02*
D03*
Y41770D02*
D03*
X54730Y22000D02*
D03*
X71230D02*
D03*
Y27500D02*
D03*
X54730Y27250D02*
D03*
X11500Y41790D02*
D03*
Y39250D02*
D03*
D31*
X47290Y56000D02*
D03*
X44750D02*
D03*
X69230Y56030D02*
D03*
Y53490D02*
D03*
Y50950D02*
D03*
Y48410D02*
D03*
Y45870D02*
D03*
Y43330D02*
D03*
Y40790D02*
D03*
Y38250D02*
D03*
X51250Y56030D02*
D03*
Y53490D02*
D03*
Y50950D02*
D03*
Y48410D02*
D03*
Y45870D02*
D03*
Y43330D02*
D03*
Y40790D02*
D03*
Y38250D02*
D03*
X29110Y51810D02*
D03*
Y49270D02*
D03*
Y46730D02*
D03*
Y44190D02*
D03*
Y41650D02*
D03*
Y39110D02*
D03*
Y36570D02*
D03*
Y34030D02*
D03*
Y31490D02*
D03*
Y28950D02*
D03*
Y26410D02*
D03*
Y23870D02*
D03*
Y21330D02*
D03*
Y18790D02*
D03*
Y16250D02*
D03*
Y13710D02*
D03*
Y11170D02*
D03*
Y8630D02*
D03*
Y6090D02*
D03*
Y3550D02*
D03*
X46890D02*
D03*
Y6090D02*
D03*
Y8630D02*
D03*
Y11170D02*
D03*
Y13710D02*
D03*
Y16250D02*
D03*
Y18790D02*
D03*
Y21330D02*
D03*
Y23870D02*
D03*
Y26410D02*
D03*
Y28950D02*
D03*
Y31490D02*
D03*
Y34030D02*
D03*
Y36570D02*
D03*
Y39110D02*
D03*
Y41650D02*
D03*
Y44190D02*
D03*
Y46730D02*
D03*
Y49270D02*
D03*
Y51810D02*
D03*
D32*
X57270Y22000D02*
D03*
X73770D02*
D03*
Y27500D02*
D03*
X57270Y27250D02*
D03*
D33*
X85250Y40040D02*
D03*
Y34960D02*
D03*
D34*
X72940Y35500D02*
D03*
X80560D02*
D03*
D35*
X4000Y32250D02*
D03*
Y24750D02*
D03*
Y17250D02*
D03*
Y21000D02*
D03*
Y28500D02*
D03*
D36*
X93000Y29500D02*
D03*
Y34580D02*
D03*
X19000Y18600D02*
D03*
Y22000D02*
D03*
Y25400D02*
D03*
X15000Y20300D02*
D03*
Y23700D02*
D03*
D37*
X88000Y14040D02*
D03*
Y8960D02*
D03*
Y11500D02*
D03*
D38*
X96950Y48760D02*
D03*
Y53840D02*
D03*
X84250Y46600D02*
D03*
Y51300D02*
D03*
Y56000D02*
D03*
D39*
X14000Y8250D02*
D03*
Y14250D02*
D03*
X18700Y11250D02*
D03*
D40*
X25000Y6150D02*
D03*
Y4350D02*
D03*
X18250Y32750D02*
D03*
X13500Y30500D02*
D03*
Y32750D02*
D03*
X9750Y30450D02*
D03*
Y32750D02*
D03*
X94500Y86250D02*
D03*
X76750Y53750D02*
D03*
Y48750D02*
D03*
X25750Y36000D02*
D03*
X8250Y16000D02*
D03*
X8750Y37000D02*
D03*
X14000Y43250D02*
D03*
X24250Y44750D02*
D03*
X44250Y11500D02*
D03*
X65500Y7750D02*
D03*
X54500Y67000D02*
D03*
Y92750D02*
D03*
X57000Y56500D02*
D03*
Y61500D02*
D03*
X75250Y48750D02*
D03*
X31750Y54500D02*
D03*
X25120Y77500D02*
D03*
X21750Y48500D02*
D03*
X24250Y50500D02*
D03*
X25250Y41500D02*
D03*
X6250Y51500D02*
D03*
Y48500D02*
D03*
X14000Y50000D02*
D03*
X18250Y50000D02*
D03*
X9750Y50000D02*
D03*
X18250Y51500D02*
D03*
Y48450D02*
D03*
X9750Y48600D02*
D03*
Y51550D02*
D03*
X14000Y45000D02*
D03*
X18250Y41500D02*
D03*
X16500Y42000D02*
D03*
X15500Y37750D02*
D03*
X15400Y32750D02*
D03*
X19595Y28250D02*
D03*
X21500Y32750D02*
D03*
X22135Y37250D02*
D03*
X25750Y26250D02*
D03*
Y20750D02*
D03*
X26750Y28000D02*
D03*
X22135Y28250D02*
D03*
X7050Y20250D02*
D03*
Y26000D02*
D03*
%TF.MD5,93c0cacf8828052448a1560601491890*%
M02*
