%TF.GenerationSoftware,Altium Limited,Altium Designer,24.9.1 (31)*%
G04 Layer_Color=128*
%FSLAX44Y44*%
%MOMM*%
%TF.SameCoordinates,6B423169-25D8-4BB9-912F-35ADE512F806*%
%TF.FilePolarity,Positive*%
%TF.FileFunction,Drillmap*%
%TF.Part,Single*%
G01*
G75*
%TA.AperFunction,NonConductor*%
%ADD55C,0.1270*%
D55*
X976884Y750824D02*
X987044D01*
X981964Y745744D02*
Y755904D01*
X760222Y1073658D02*
X770382D01*
X765302Y1068578D02*
Y1078738D01*
X917702Y1042670D02*
X927862D01*
X922782Y1037590D02*
Y1047750D01*
X626110Y750570D02*
X636270D01*
X631190Y745490D02*
Y755650D01*
X1007872Y827278D02*
X1018032D01*
X1012952Y822198D02*
Y832358D01*
X684530Y691896D02*
X694690D01*
X689610Y686816D02*
Y696976D01*
X1033590Y691830D02*
X1041590D01*
X1037590Y687830D02*
Y695830D01*
X1033590Y651830D02*
X1041590D01*
X1037590Y647830D02*
Y655830D01*
X1033590Y671830D02*
X1041590D01*
X1037590Y667830D02*
Y675830D01*
X571310Y652780D02*
X579310D01*
X575310Y648780D02*
Y656780D01*
X571310Y692780D02*
X579310D01*
X575310Y688780D02*
Y696780D01*
X571310Y672780D02*
X579310D01*
X575310Y668780D02*
Y676780D01*
X713230Y1079700D02*
X725230D01*
X719230Y1073700D02*
Y1085700D01*
X669230Y1079700D02*
X681230D01*
X675230Y1073700D02*
Y1085700D01*
X1057760Y957580D02*
X1070760D01*
X1064260Y951080D02*
Y964080D01*
X1057760Y1008380D02*
X1070760D01*
X1064260Y1001880D02*
Y1014880D01*
X892810Y867410D02*
X902970D01*
X897890Y862330D02*
Y872490D01*
X1026160Y1108710D02*
X1036320D01*
X1031240Y1103630D02*
Y1113790D01*
X1026160Y1069340D02*
X1036320D01*
X1031240Y1064260D02*
Y1074420D01*
X537210Y887730D02*
X547370D01*
X542290Y882650D02*
Y892810D01*
X538480Y925830D02*
X548640D01*
X543560Y920750D02*
Y930910D01*
X893410Y905519D02*
X903570D01*
X898490Y900439D02*
Y910599D01*
X833120Y779780D02*
X843280D01*
X838200Y774700D02*
Y784860D01*
X833120Y817880D02*
X843280D01*
X838200Y812800D02*
Y822960D01*
X570230Y1036320D02*
X580390D01*
X575310Y1031240D02*
Y1041400D01*
X1069620Y1137920D02*
X1104620D01*
X1087120Y1120420D02*
Y1155420D01*
X508280Y1137920D02*
X543280D01*
X525780Y1120420D02*
Y1155420D01*
X508280Y582930D02*
X543280D01*
X525780Y565430D02*
Y600430D01*
X1069620Y582930D02*
X1104620D01*
X1087120Y565430D02*
Y600430D01*
X833120Y741680D02*
X843280D01*
X838200Y736600D02*
Y746760D01*
X780780Y745490D02*
X791480D01*
X786130Y740140D02*
Y750840D01*
X780780Y770890D02*
X791480D01*
X786130Y765540D02*
Y776240D01*
X780780Y796290D02*
X791480D01*
X786130Y790940D02*
Y801640D01*
X1068900Y797000D02*
X1077400D01*
X1073150Y792750D02*
Y801250D01*
X1068900Y762000D02*
X1077400D01*
X1073150Y757750D02*
Y766250D01*
X589300Y717550D02*
X591800D01*
X590550Y716300D02*
Y718800D01*
X717880Y911329D02*
X720380D01*
X719130Y910079D02*
Y912579D01*
X690230Y913289D02*
X692730D01*
X691480Y912039D02*
Y914539D01*
X648790Y914611D02*
X651290D01*
X650040Y913361D02*
Y915861D01*
X679470Y1036320D02*
X681970D01*
X680720Y1035070D02*
Y1037570D01*
X651070Y1003300D02*
X653570D01*
X652320Y1002050D02*
Y1004550D01*
X562685Y833092D02*
X565185D01*
X563935Y831842D02*
Y834342D01*
X824250Y1132840D02*
X826750D01*
X825500Y1131590D02*
Y1134090D01*
X1007732Y1113329D02*
X1010232D01*
X1008982Y1112079D02*
Y1114579D01*
X997572Y1095549D02*
X1000072D01*
X998822Y1094299D02*
Y1096799D01*
X1007732Y1104439D02*
X1010232D01*
X1008982Y1103189D02*
Y1105689D01*
X988682Y1095549D02*
X991182D01*
X989932Y1094299D02*
Y1096799D01*
X649026Y929296D02*
X651526D01*
X650276Y928046D02*
Y930546D01*
X908070Y1056640D02*
X910570D01*
X909320Y1055390D02*
Y1057890D01*
X908070Y1064260D02*
X910570D01*
X909320Y1063010D02*
Y1065510D01*
X911880Y1112520D02*
X914380D01*
X913130Y1111270D02*
Y1113770D01*
X911880Y1120140D02*
X914380D01*
X913130Y1118890D02*
Y1121390D01*
X682010Y754380D02*
X684510D01*
X683260Y753130D02*
Y755630D01*
X736620Y750570D02*
X739120D01*
X737870Y749320D02*
Y751820D01*
X718840Y812800D02*
X721340D01*
X720090Y811550D02*
Y814050D01*
X701060Y760730D02*
X703560D01*
X702310Y759480D02*
Y761980D01*
X603370Y898447D02*
X605870D01*
X604620Y897197D02*
Y899697D01*
X845275Y1005538D02*
X847775D01*
X846525Y1004288D02*
Y1006788D01*
X827495Y1005538D02*
X829995D01*
X828745Y1004288D02*
Y1006788D01*
X628670Y842010D02*
X631170D01*
X629920Y840760D02*
Y843260D01*
X781070Y845820D02*
X783570D01*
X782320Y844570D02*
Y847070D01*
X693440Y891540D02*
X695940D01*
X694690Y890290D02*
Y892790D01*
X840760Y906310D02*
X843260D01*
X842010Y905060D02*
Y907560D01*
X838015Y924795D02*
X840515D01*
X839265Y923545D02*
Y926045D01*
X783230Y828040D02*
X785730D01*
X784480Y826790D02*
Y829290D01*
X820440Y859790D02*
X822940D01*
X821690Y858540D02*
Y861040D01*
X609620Y1040130D02*
X612120D01*
X610870Y1038880D02*
Y1041380D01*
X555010Y963930D02*
X557510D01*
X556260Y962680D02*
Y965180D01*
X778212Y981367D02*
X780712D01*
X779462Y980117D02*
Y982617D01*
X779130Y996959D02*
X781630D01*
X780380Y995709D02*
Y998209D01*
X742110Y990889D02*
X744610D01*
X743360Y989639D02*
Y992139D01*
X742110Y997389D02*
X744610D01*
X743360Y996139D02*
Y998639D01*
X840760Y871220D02*
X843260D01*
X842010Y869970D02*
Y872470D01*
X840760Y889000D02*
X843260D01*
X842010Y887750D02*
Y890250D01*
X676930Y834390D02*
X679430D01*
X678180Y833140D02*
Y835640D01*
X742970Y840544D02*
X745470D01*
X744220Y839294D02*
Y841794D01*
X739880Y881079D02*
X742380D01*
X741130Y879829D02*
Y882329D01*
X799884Y906785D02*
X802384D01*
X801134Y905535D02*
Y908035D01*
X742300Y924569D02*
X744800D01*
X743550Y923319D02*
Y925819D01*
X791830Y932189D02*
X794330D01*
X793080Y930939D02*
Y933439D01*
X753130Y917079D02*
X755630D01*
X754380Y915829D02*
Y918329D01*
X761130Y907079D02*
X763630D01*
X762380Y905829D02*
Y908329D01*
X739492Y902970D02*
X741992D01*
X740742Y901720D02*
Y904220D01*
X753130Y889829D02*
X755630D01*
X754380Y888579D02*
Y891079D01*
X753130Y902970D02*
X755630D01*
X754380Y901720D02*
Y904220D01*
X725880Y902970D02*
X728380D01*
X727130Y901720D02*
Y904220D01*
X725880Y889829D02*
X728380D01*
X727130Y888579D02*
Y891079D01*
X739492Y889829D02*
X741992D01*
X740742Y888579D02*
Y891079D01*
X739241Y917079D02*
X741741D01*
X740491Y915829D02*
Y918329D01*
X796907Y1024568D02*
X799407D01*
X798157Y1023318D02*
Y1025818D01*
X725880Y917079D02*
X728380D01*
X727130Y915829D02*
Y918329D01*
%TF.MD5,1c57de172fede9714a4dfda45edf31c1*%
M02*
