%TF.GenerationSoftware,Altium Limited,Altium Designer,24.9.1 (31)*%
G04 Layer_Color=128*
%FSLAX44Y44*%
%MOMM*%
%TF.SameCoordinates,6B423169-25D8-4BB9-912F-35ADE512F806*%
%TF.FilePolarity,Positive*%
%TF.FileFunction,Paste,Bot*%
%TF.Part,Single*%
G01*
G75*
%TA.AperFunction,SMDPad,CuDef*%
%ADD16R,1.0000X0.9500*%
%ADD20R,1.0000X1.0500*%
%ADD22R,0.9500X1.0000*%
%ADD29R,1.0500X1.0000*%
G04:AMPARAMS|DCode=47|XSize=1.016mm|YSize=1.397mm|CornerRadius=0.127mm|HoleSize=0mm|Usage=FLASHONLY|Rotation=270.000|XOffset=0mm|YOffset=0mm|HoleType=Round|Shape=RoundedRectangle|*
%AMROUNDEDRECTD47*
21,1,1.0160,1.1430,0,0,270.0*
21,1,0.7620,1.3970,0,0,270.0*
1,1,0.2540,-0.5715,-0.3810*
1,1,0.2540,-0.5715,0.3810*
1,1,0.2540,0.5715,0.3810*
1,1,0.2540,0.5715,-0.3810*
%
%ADD47ROUNDEDRECTD47*%
%ADD48R,1.0000X0.7000*%
%ADD49R,0.7000X1.0000*%
%ADD50R,0.8001X0.5080*%
D16*
X663830Y891540D02*
D03*
X679830D02*
D03*
X727710Y840740D02*
D03*
X743710D02*
D03*
D20*
X558800Y1076580D02*
D03*
Y1092580D02*
D03*
D22*
X829310Y844170D02*
D03*
Y860170D02*
D03*
D29*
X888110Y819150D02*
D03*
X872110D02*
D03*
D47*
X603250Y1120140D02*
D03*
Y1137920D02*
D03*
D48*
X625390Y1094650D02*
D03*
X580390D02*
D03*
X625390Y1073150D02*
D03*
X580390D02*
D03*
D49*
X888320Y754740D02*
D03*
Y799740D02*
D03*
X866820Y754740D02*
D03*
Y799740D02*
D03*
D50*
X814959Y841400D02*
D03*
Y850900D02*
D03*
Y860400D02*
D03*
X789940D02*
D03*
Y850900D02*
D03*
Y841400D02*
D03*
%TF.MD5,dc89dc37d0f55d704bd892402f362c9f*%
M02*
