%TF.GenerationSoftware,Altium Limited,Altium Designer,24.9.1 (31)*%
G04 Layer_Color=65535*
%FSLAX44Y44*%
%MOMM*%
%TF.SameCoordinates,6B423169-25D8-4BB9-912F-35ADE512F806*%
%TF.FilePolarity,Positive*%
%TF.FileFunction,Legend,Top*%
%TF.Part,Single*%
G01*
G75*
%TA.AperFunction,NonConductor*%
%ADD52C,0.2000*%
%ADD53C,0.4000*%
%ADD54C,0.2500*%
%ADD55C,0.1270*%
%ADD56C,0.2540*%
%ADD57C,0.1524*%
%ADD58C,0.1500*%
%ADD59C,0.2032*%
D52*
X714230Y1034700D02*
G03*
X714230Y1034700I-1000J0D01*
G01*
X1008150Y1117009D02*
G03*
X1008150Y1117009I-1000J0D01*
G01*
X740862Y1017026D02*
G03*
X740862Y1015026I0J-1000D01*
G01*
D02*
G03*
X740862Y1017026I0J1000D01*
G01*
X697410Y930979D02*
G03*
X697410Y930979I-1000J0D01*
G01*
X691350Y797639D02*
G03*
X691350Y797639I-1000J0D01*
G01*
X787130Y725290D02*
G03*
X787130Y725290I-1000J0D01*
G01*
X1074150Y827000D02*
G03*
X1074150Y827000I-1000J0D01*
G01*
X658730Y1069900D02*
Y1092400D01*
X735730Y1069900D02*
Y1092400D01*
X719730Y1046200D02*
X728230D01*
X666230D02*
X674730D01*
X735730Y1124400D02*
Y1138200D01*
X658730D02*
X735730D01*
X658730Y1124400D02*
Y1138200D01*
X1022760Y931180D02*
Y1034780D01*
X1092660D01*
X1089860Y1040780D02*
X1092660Y1034780D01*
X1089860Y1040780D02*
X1102360D01*
X1099760Y1034780D02*
X1102360Y1040780D01*
X1099760Y1034780D02*
X1105760D01*
Y931180D02*
Y1034780D01*
X1051360Y931180D02*
X1105760D01*
X1051360D02*
X1053960Y925180D01*
X1041660D02*
X1053960D01*
X1041660D02*
X1044260Y931180D01*
X1022760D02*
X1044260D01*
X760862Y1008026D02*
Y1024026D01*
D53*
X1048260Y945980D02*
G03*
X1048260Y945980I-1000J0D01*
G01*
D54*
X610850Y901210D02*
G03*
X610850Y901210I-1250J0D01*
G01*
D55*
X555516Y1023620D02*
G03*
X555516Y1023620I-1796J0D01*
G01*
X807050Y1054109D02*
G03*
X807050Y1054109I-1270J0D01*
G01*
X1113150Y779500D02*
G03*
X1113150Y779500I-40000J0D01*
G01*
X1023090Y642940D02*
Y666080D01*
Y677580D01*
Y701360D01*
X1018540Y631510D02*
X1037590D01*
X1018540D02*
Y642940D01*
X1023090D01*
X1017270Y701360D02*
X1023090D01*
X1017270D02*
Y712790D01*
X1037590D01*
Y623890D02*
Y631510D01*
Y623890D02*
X1107440D01*
X1037590Y720410D02*
X1107440D01*
X1037590Y712790D02*
Y720410D01*
X1107440Y714060D02*
X1121410D01*
X1107440Y630240D02*
X1121410D01*
X1107440Y623890D02*
Y630240D01*
Y714060D02*
Y720410D01*
X1116330Y693740D02*
X1121410D01*
X1116330Y650560D02*
X1121410D01*
X1116330D02*
Y693740D01*
X1121410D02*
Y714060D01*
Y630240D02*
Y650560D01*
X589810Y678530D02*
Y701670D01*
Y667030D02*
Y678530D01*
Y643250D02*
Y667030D01*
X575310Y713100D02*
X594360D01*
Y701670D02*
Y713100D01*
X589810Y701670D02*
X594360D01*
X589810Y643250D02*
X595630D01*
Y631820D02*
Y643250D01*
X575310Y631820D02*
X595630D01*
X575310Y713100D02*
Y720720D01*
X505460D02*
X575310D01*
X505460Y624200D02*
X575310D01*
Y631820D01*
X491490Y630550D02*
X505460D01*
X491490Y714370D02*
X505460D01*
Y720720D01*
Y624200D02*
Y630550D01*
X491490Y650870D02*
X496570D01*
X491490Y694050D02*
X496570D01*
Y650870D02*
Y694050D01*
X491490Y630550D02*
Y650870D01*
Y694050D02*
Y714370D01*
X815990Y929124D02*
X818690D01*
X815990Y921124D02*
X818690D01*
X939650Y1062009D02*
X1004650D01*
X939650D02*
Y1097009D01*
X1004650D01*
Y1062009D02*
Y1097009D01*
X706010Y935179D02*
Y937979D01*
Y867979D02*
Y870779D01*
X776010Y935179D02*
Y937979D01*
Y867979D02*
Y870779D01*
X706010Y937979D02*
X708810D01*
X706010Y867979D02*
X708810D01*
X773210Y937979D02*
X776010D01*
X773210Y867979D02*
X776010D01*
X724300Y785289D02*
Y786989D01*
X699300Y785289D02*
Y786989D01*
X773630Y732790D02*
Y808990D01*
X798630D01*
Y732790D02*
Y808990D01*
X773630Y732790D02*
X798630D01*
X821780Y1074859D02*
Y1096859D01*
X789780Y1074859D02*
Y1096859D01*
X935482Y1037588D02*
X937175D01*
X936328D01*
Y1032510D01*
X935482D01*
X937175D01*
X939714D02*
Y1037588D01*
X943100Y1032510D01*
Y1037588D01*
X760475Y1092706D02*
X758782D01*
X757936Y1091860D01*
Y1088474D01*
X758782Y1087628D01*
X760475D01*
X761322Y1088474D01*
Y1091860D01*
X760475Y1092706D01*
X763014D02*
Y1088474D01*
X763861Y1087628D01*
X765554D01*
X766400Y1088474D01*
Y1092706D01*
X768093D02*
X771478D01*
X769786D01*
Y1087628D01*
X707922Y691857D02*
X707063Y692692D01*
X705371Y692668D01*
X704536Y691809D01*
X704584Y688424D01*
X705442Y687590D01*
X707135Y687614D01*
X707969Y688472D01*
X707945Y690165D01*
X706253Y690141D01*
X709674Y687650D02*
X709602Y692727D01*
X713059Y687697D01*
X712988Y692775D01*
X714680Y692799D02*
X714752Y687721D01*
X717291Y687757D01*
X718125Y688615D01*
X718077Y692000D01*
X717219Y692835D01*
X714680Y692799D01*
X986112Y828546D02*
X982726D01*
Y826007D01*
X984419Y826854D01*
X985265D01*
X986112Y826007D01*
Y824314D01*
X985265Y823468D01*
X983572D01*
X982726Y824314D01*
X987804Y828546D02*
Y825161D01*
X989497Y823468D01*
X991190Y825161D01*
Y828546D01*
X954362Y752346D02*
X950976D01*
Y749807D01*
X952669Y750654D01*
X953515D01*
X954362Y749807D01*
Y748114D01*
X953515Y747268D01*
X951822D01*
X950976Y748114D01*
X956054Y752346D02*
Y748961D01*
X957747Y747268D01*
X959440Y748961D01*
Y752346D01*
X649502Y750277D02*
X648643Y751112D01*
X646951Y751088D01*
X646116Y750229D01*
X646164Y746844D01*
X647022Y746010D01*
X648715Y746034D01*
X649549Y746892D01*
X649526Y748585D01*
X647833Y748561D01*
X651254Y746069D02*
X651182Y751147D01*
X654639Y746117D01*
X654568Y751195D01*
X656260Y751219D02*
X656332Y746141D01*
X658871Y746177D01*
X659705Y747035D01*
X659657Y750420D01*
X658799Y751255D01*
X656260Y751219D01*
X1018032Y727456D02*
Y732534D01*
X1020571D01*
X1021418Y731688D01*
Y729995D01*
X1020571Y729149D01*
X1018032D01*
X1023110Y727456D02*
X1024803D01*
X1023957D01*
Y732534D01*
X1023110Y731688D01*
X491490Y727710D02*
Y732788D01*
X494029D01*
X494876Y731942D01*
Y730249D01*
X494029Y729403D01*
X491490D01*
X499954Y727710D02*
X496568D01*
X499954Y731096D01*
Y731942D01*
X499108Y732788D01*
X497415D01*
X496568Y731942D01*
X662940Y1150619D02*
X661247D01*
X662094D01*
Y1146387D01*
X661247Y1145541D01*
X660401D01*
X659554Y1146387D01*
X664633Y1145541D02*
X666326D01*
X665479D01*
Y1150619D01*
X664633Y1149773D01*
X834145Y929650D02*
Y934728D01*
X836684D01*
X837531Y933882D01*
Y932189D01*
X836684Y931342D01*
X834145D01*
X835838D02*
X837531Y929650D01*
X839224Y934728D02*
X842609D01*
X840916D01*
Y929650D01*
X844302D02*
X845995D01*
X845148D01*
Y934728D01*
X844302Y933882D01*
X608330Y755650D02*
Y754804D01*
X607484D01*
Y755650D01*
X608330D01*
X1025482Y1054352D02*
X1023789D01*
X1024635D01*
Y1050120D01*
X1023789Y1049274D01*
X1022942D01*
X1022096Y1050120D01*
X1030560Y1054352D02*
X1027174D01*
Y1051813D01*
X1028867Y1052660D01*
X1029714D01*
X1030560Y1051813D01*
Y1050120D01*
X1029714Y1049274D01*
X1028021D01*
X1027174Y1050120D01*
X586318Y904239D02*
Y900007D01*
X587164Y899161D01*
X588857D01*
X589704Y900007D01*
Y904239D01*
X594782D02*
X593089Y903393D01*
X591396Y901700D01*
Y900007D01*
X592243Y899161D01*
X593936D01*
X594782Y900007D01*
Y900854D01*
X593936Y901700D01*
X591396D01*
X538058Y1026159D02*
Y1021927D01*
X538904Y1021081D01*
X540597D01*
X541444Y1021927D01*
Y1026159D01*
X543136Y1025313D02*
X543983Y1026159D01*
X545676D01*
X546522Y1025313D01*
Y1024466D01*
X545676Y1023620D01*
X544829D01*
X545676D01*
X546522Y1022774D01*
Y1021927D01*
X545676Y1021081D01*
X543983D01*
X543136Y1021927D01*
X707144Y819158D02*
Y818312D01*
X708837Y816619D01*
X710530Y818312D01*
Y819158D01*
X708837Y816619D02*
Y814080D01*
X712223D02*
X713916D01*
X713069D01*
Y819158D01*
X712223Y818312D01*
X563458Y756919D02*
Y752687D01*
X564305Y751841D01*
X565997D01*
X566844Y752687D01*
Y756919D01*
X568536D02*
X571922D01*
Y756073D01*
X568536Y752687D01*
Y751841D01*
X692998Y947419D02*
Y943187D01*
X693845Y942341D01*
X695537D01*
X696384Y943187D01*
Y947419D01*
X701462Y942341D02*
X698076D01*
X701462Y945726D01*
Y946573D01*
X700616Y947419D01*
X698923D01*
X698076Y946573D01*
X938284Y1131578D02*
Y1127346D01*
X939131Y1126500D01*
X940824D01*
X941670Y1127346D01*
Y1131578D01*
X943363Y1126500D02*
X945056D01*
X944209D01*
Y1131578D01*
X943363Y1130732D01*
X623572Y882651D02*
Y887729D01*
X626111D01*
X626958Y886883D01*
Y885190D01*
X626111Y884344D01*
X623572D01*
X625265D02*
X626958Y882651D01*
X628650D02*
X630343D01*
X629497D01*
Y887729D01*
X628650Y886883D01*
X636268Y887729D02*
X632882D01*
Y885190D01*
X634575Y886036D01*
X635422D01*
X636268Y885190D01*
Y883497D01*
X635422Y882651D01*
X633729D01*
X632882Y883497D01*
X575312Y819151D02*
Y824229D01*
X577851D01*
X578698Y823383D01*
Y821690D01*
X577851Y820844D01*
X575312D01*
X577005D02*
X578698Y819151D01*
X580390D02*
X582083D01*
X581237D01*
Y824229D01*
X580390Y823383D01*
X587162Y819151D02*
Y824229D01*
X584622Y821690D01*
X588008D01*
X585472Y778511D02*
Y783589D01*
X588011D01*
X588858Y782743D01*
Y781050D01*
X588011Y780204D01*
X585472D01*
X587165D02*
X588858Y778511D01*
X590550D02*
X592243D01*
X591397D01*
Y783589D01*
X590550Y782743D01*
X594782D02*
X595629Y783589D01*
X597322D01*
X598168Y782743D01*
Y781896D01*
X597322Y781050D01*
X596475D01*
X597322D01*
X598168Y780204D01*
Y779357D01*
X597322Y778511D01*
X595629D01*
X594782Y779357D01*
X593092Y819151D02*
Y824229D01*
X595631D01*
X596478Y823383D01*
Y821690D01*
X595631Y820844D01*
X593092D01*
X594785D02*
X596478Y819151D01*
X598170D02*
X599863D01*
X599017D01*
Y824229D01*
X598170Y823383D01*
X605788Y819151D02*
X602402D01*
X605788Y822536D01*
Y823383D01*
X604942Y824229D01*
X603249D01*
X602402Y823383D01*
X624418Y925071D02*
Y930149D01*
X626958D01*
X627804Y929303D01*
Y927610D01*
X626958Y926764D01*
X624418D01*
X626111D02*
X627804Y925071D01*
X629497D02*
X631190D01*
X630343D01*
Y930149D01*
X629497Y929303D01*
X633729Y925071D02*
X635422D01*
X634575D01*
Y930149D01*
X633729Y929303D01*
X859302Y933950D02*
Y939028D01*
X861841D01*
X862688Y938182D01*
Y936489D01*
X861841Y935642D01*
X859302D01*
X860995D02*
X862688Y933950D01*
X864380D02*
X866073D01*
X865227D01*
Y939028D01*
X864380Y938182D01*
X868612D02*
X869459Y939028D01*
X871152D01*
X871998Y938182D01*
Y934796D01*
X871152Y933950D01*
X869459D01*
X868612Y934796D01*
Y938182D01*
X811108Y842011D02*
Y847089D01*
X813647D01*
X814494Y846243D01*
Y844550D01*
X813647Y843704D01*
X811108D01*
X812801D02*
X814494Y842011D01*
X816186Y842857D02*
X817033Y842011D01*
X818726D01*
X819572Y842857D01*
Y846243D01*
X818726Y847089D01*
X817033D01*
X816186Y846243D01*
Y845396D01*
X817033Y844550D01*
X819572D01*
X811108Y825501D02*
Y830579D01*
X813647D01*
X814494Y829733D01*
Y828040D01*
X813647Y827194D01*
X811108D01*
X812801D02*
X814494Y825501D01*
X816186Y829733D02*
X817033Y830579D01*
X818726D01*
X819572Y829733D01*
Y828886D01*
X818726Y828040D01*
X819572Y827194D01*
Y826347D01*
X818726Y825501D01*
X817033D01*
X816186Y826347D01*
Y827194D01*
X817033Y828040D01*
X816186Y828886D01*
Y829733D01*
X817033Y828040D02*
X818726D01*
X834568Y943620D02*
Y948698D01*
X837107D01*
X837954Y947852D01*
Y946159D01*
X837107Y945312D01*
X834568D01*
X836261D02*
X837954Y943620D01*
X839646Y948698D02*
X843032D01*
Y947852D01*
X839646Y944466D01*
Y943620D01*
X709162Y1016153D02*
Y1021232D01*
X711701D01*
X712548Y1020385D01*
Y1018692D01*
X711701Y1017846D01*
X709162D01*
X710855D02*
X712548Y1016153D01*
X716780D02*
Y1021232D01*
X714240Y1018692D01*
X717626D01*
X748208Y800110D02*
Y805188D01*
X750747D01*
X751594Y804342D01*
Y802649D01*
X750747Y801803D01*
X748208D01*
X749901D02*
X751594Y800110D01*
X753286Y804342D02*
X754133Y805188D01*
X755826D01*
X756672Y804342D01*
Y803495D01*
X755826Y802649D01*
X754979D01*
X755826D01*
X756672Y801803D01*
Y800956D01*
X755826Y800110D01*
X754133D01*
X753286Y800956D01*
X724748Y1016001D02*
Y1021079D01*
X727287D01*
X728134Y1020233D01*
Y1018540D01*
X727287Y1017694D01*
X724748D01*
X726441D02*
X728134Y1016001D01*
X733212D02*
X729826D01*
X733212Y1019386D01*
Y1020233D01*
X732366Y1021079D01*
X730673D01*
X729826Y1020233D01*
X782074Y955050D02*
Y960128D01*
X784614D01*
X785460Y959282D01*
Y957589D01*
X784614Y956742D01*
X782074D01*
X783767D02*
X785460Y955050D01*
X787153D02*
X788846D01*
X787999D01*
Y960128D01*
X787153Y959282D01*
X778264Y1019818D02*
Y1014740D01*
X781650D01*
X783343D02*
X785036D01*
X784189D01*
Y1019818D01*
X783343Y1018972D01*
X775124Y727709D02*
X773431D01*
X774277D01*
Y723477D01*
X773431Y722631D01*
X772585D01*
X771738Y723477D01*
X780202Y722631D02*
X776816D01*
X780202Y726016D01*
Y726863D01*
X779356Y727709D01*
X777663D01*
X776816Y726863D01*
X818480Y1054108D02*
X815094D01*
Y1051569D01*
X816787D01*
X815094D01*
Y1049030D01*
X820173D02*
X821866D01*
X821019D01*
Y1054108D01*
X820173Y1053262D01*
X626534Y803063D02*
X625688Y803909D01*
X623995D01*
X623149Y803063D01*
Y799677D01*
X623995Y798831D01*
X625688D01*
X626534Y799677D01*
X631613Y798831D02*
X628227D01*
X631613Y802216D01*
Y803063D01*
X630766Y803909D01*
X629074D01*
X628227Y803063D01*
X635845Y798831D02*
Y803909D01*
X633306Y801370D01*
X636691D01*
X1085004Y829453D02*
X1084158Y830299D01*
X1082465D01*
X1081619Y829453D01*
Y826067D01*
X1082465Y825221D01*
X1084158D01*
X1085004Y826067D01*
X1090083Y825221D02*
X1086697D01*
X1090083Y828606D01*
Y829453D01*
X1089236Y830299D01*
X1087544D01*
X1086697Y829453D01*
X1091776D02*
X1092622Y830299D01*
X1094315D01*
X1095161Y829453D01*
Y828606D01*
X1094315Y827760D01*
X1093468D01*
X1094315D01*
X1095161Y826914D01*
Y826067D01*
X1094315Y825221D01*
X1092622D01*
X1091776Y826067D01*
X607906Y1049696D02*
X607059Y1050542D01*
X605366D01*
X604520Y1049696D01*
Y1046310D01*
X605366Y1045464D01*
X607059D01*
X607906Y1046310D01*
X612984Y1045464D02*
X609598D01*
X612984Y1048850D01*
Y1049696D01*
X612137Y1050542D01*
X610445D01*
X609598Y1049696D01*
X614677Y1045464D02*
X616370D01*
X615523D01*
Y1050542D01*
X614677Y1049696D01*
X650628Y994833D02*
X649781Y995679D01*
X648088D01*
X647242Y994833D01*
Y991447D01*
X648088Y990601D01*
X649781D01*
X650628Y991447D01*
X652320Y990601D02*
X654013D01*
X653167D01*
Y995679D01*
X652320Y994833D01*
X656552Y991447D02*
X657399Y990601D01*
X659091D01*
X659938Y991447D01*
Y994833D01*
X659091Y995679D01*
X657399D01*
X656552Y994833D01*
Y993986D01*
X657399Y993140D01*
X659938D01*
X667598Y944033D02*
X666751Y944879D01*
X665059D01*
X664212Y944033D01*
Y940647D01*
X665059Y939801D01*
X666751D01*
X667598Y940647D01*
X669290Y939801D02*
X670983D01*
X670137D01*
Y944879D01*
X669290Y944033D01*
X673522Y944879D02*
X676908D01*
Y944033D01*
X673522Y940647D01*
Y939801D01*
X668868Y843703D02*
X668021Y844549D01*
X666329D01*
X665482Y843703D01*
Y840317D01*
X666329Y839471D01*
X668021D01*
X668868Y840317D01*
X670560Y839471D02*
X672253D01*
X671407D01*
Y844549D01*
X670560Y843703D01*
X678178Y844549D02*
X676485Y843703D01*
X674792Y842010D01*
Y840317D01*
X675639Y839471D01*
X677332D01*
X678178Y840317D01*
Y841164D01*
X677332Y842010D01*
X674792D01*
X853018Y874183D02*
X852171Y875029D01*
X850479D01*
X849632Y874183D01*
Y870797D01*
X850479Y869951D01*
X852171D01*
X853018Y870797D01*
X854710Y869951D02*
X856403D01*
X855557D01*
Y875029D01*
X854710Y874183D01*
X862328Y875029D02*
X858942D01*
Y872490D01*
X860635Y873336D01*
X861482D01*
X862328Y872490D01*
Y870797D01*
X861482Y869951D01*
X859789D01*
X858942Y870797D01*
X853398Y890693D02*
X852551Y891539D01*
X850858D01*
X850012Y890693D01*
Y887307D01*
X850858Y886461D01*
X852551D01*
X853398Y887307D01*
X855090Y886461D02*
X856783D01*
X855937D01*
Y891539D01*
X855090Y890693D01*
X861861Y886461D02*
Y891539D01*
X859322Y889000D01*
X862708D01*
X844128Y1015153D02*
X843281Y1015999D01*
X841589D01*
X840742Y1015153D01*
Y1011767D01*
X841589Y1010921D01*
X843281D01*
X844128Y1011767D01*
X845820Y1010921D02*
X847513D01*
X846667D01*
Y1015999D01*
X845820Y1015153D01*
X850052D02*
X850899Y1015999D01*
X852592D01*
X853438Y1015153D01*
Y1014306D01*
X852592Y1013460D01*
X851745D01*
X852592D01*
X853438Y1012614D01*
Y1011767D01*
X852592Y1010921D01*
X850899D01*
X850052Y1011767D01*
X825078Y1015153D02*
X824231Y1015999D01*
X822539D01*
X821692Y1015153D01*
Y1011767D01*
X822539Y1010921D01*
X824231D01*
X825078Y1011767D01*
X826770Y1010921D02*
X828463D01*
X827617D01*
Y1015999D01*
X826770Y1015153D01*
X834388Y1010921D02*
X831002D01*
X834388Y1014306D01*
Y1015153D01*
X833542Y1015999D01*
X831849D01*
X831002Y1015153D01*
X668444Y899583D02*
X667598Y900429D01*
X665905D01*
X665059Y899583D01*
Y896197D01*
X665905Y895351D01*
X667598D01*
X668444Y896197D01*
X670137Y895351D02*
X671830D01*
X670983D01*
Y900429D01*
X670137Y899583D01*
X674369Y895351D02*
X676062D01*
X675215D01*
Y900429D01*
X674369Y899583D01*
X853018Y908473D02*
X852171Y909319D01*
X850479D01*
X849632Y908473D01*
Y905087D01*
X850479Y904241D01*
X852171D01*
X853018Y905087D01*
X854710Y904241D02*
X856403D01*
X855557D01*
Y909319D01*
X854710Y908473D01*
X858942D02*
X859789Y909319D01*
X861482D01*
X862328Y908473D01*
Y905087D01*
X861482Y904241D01*
X859789D01*
X858942Y905087D01*
Y908473D01*
X751594Y772592D02*
X750747Y773438D01*
X749054D01*
X748208Y772592D01*
Y769206D01*
X749054Y768360D01*
X750747D01*
X751594Y769206D01*
X753286Y772592D02*
X754133Y773438D01*
X755826D01*
X756672Y772592D01*
Y771745D01*
X755826Y770899D01*
X756672Y770052D01*
Y769206D01*
X755826Y768360D01*
X754133D01*
X753286Y769206D01*
Y770052D01*
X754133Y770899D01*
X753286Y771745D01*
Y772592D01*
X754133Y770899D02*
X755826D01*
X669044Y776402D02*
X668197Y777248D01*
X666505D01*
X665658Y776402D01*
Y773016D01*
X666505Y772170D01*
X668197D01*
X669044Y773016D01*
X670736Y777248D02*
X674122D01*
Y776402D01*
X670736Y773016D01*
Y772170D01*
X781474Y1134533D02*
X780627Y1135379D01*
X778934D01*
X778088Y1134533D01*
Y1131147D01*
X778934Y1130301D01*
X780627D01*
X781474Y1131147D01*
X786552Y1135379D02*
X784859Y1134533D01*
X783166Y1132840D01*
Y1131147D01*
X784013Y1130301D01*
X785706D01*
X786552Y1131147D01*
Y1131994D01*
X785706Y1132840D01*
X783166D01*
X782074Y1006272D02*
X781227Y1007118D01*
X779535D01*
X778688Y1006272D01*
Y1002886D01*
X779535Y1002040D01*
X781227D01*
X782074Y1002886D01*
X787152Y1007118D02*
X783766D01*
Y1004579D01*
X785459Y1005425D01*
X786306D01*
X787152Y1004579D01*
Y1002886D01*
X786306Y1002040D01*
X784613D01*
X783766Y1002886D01*
X797984Y1035473D02*
X797137Y1036319D01*
X795444D01*
X794598Y1035473D01*
Y1032087D01*
X795444Y1031241D01*
X797137D01*
X797984Y1032087D01*
X802216Y1031241D02*
Y1036319D01*
X799676Y1033780D01*
X803062D01*
X782074Y991032D02*
X781227Y991878D01*
X779535D01*
X778688Y991032D01*
Y987646D01*
X779535Y986800D01*
X781227D01*
X782074Y987646D01*
X783766Y991032D02*
X784613Y991878D01*
X786306D01*
X787152Y991032D01*
Y990185D01*
X786306Y989339D01*
X785459D01*
X786306D01*
X787152Y988493D01*
Y987646D01*
X786306Y986800D01*
X784613D01*
X783766Y987646D01*
X910344Y1081202D02*
X909497Y1082048D01*
X907804D01*
X906958Y1081202D01*
Y1077816D01*
X907804Y1076970D01*
X909497D01*
X910344Y1077816D01*
X915422Y1076970D02*
X912036D01*
X915422Y1080355D01*
Y1081202D01*
X914576Y1082048D01*
X912883D01*
X912036Y1081202D01*
X911190Y1135812D02*
X910344Y1136658D01*
X908651D01*
X907804Y1135812D01*
Y1132426D01*
X908651Y1131580D01*
X910344D01*
X911190Y1132426D01*
X912883Y1131580D02*
X914576D01*
X913729D01*
Y1136658D01*
X912883Y1135812D01*
D56*
X833720Y1116339D02*
G03*
X833720Y1116339I-1270J0D01*
G01*
X833120Y1060450D02*
G03*
X833120Y1060450I-1270J0D01*
G01*
D57*
X596671Y730885D02*
X606806D01*
Y747395D01*
X574294Y730885D02*
X584429D01*
X574294D02*
Y747395D01*
X587171D02*
X593929D01*
X618744Y1016853D02*
Y1020064D01*
X562356Y963676D02*
Y966887D01*
Y1016853D02*
Y1020064D01*
X618744D01*
Y963676D02*
Y966887D01*
X562356Y963676D02*
X618744D01*
X850611Y1092590D02*
X898109D01*
Y1107297D01*
X850611Y1140088D02*
X898109D01*
X850611Y1125381D02*
Y1140088D01*
Y1092590D02*
Y1107297D01*
X898109Y1125381D02*
Y1140088D01*
X850611Y1036710D02*
X898109D01*
Y1051416D01*
X850611Y1084208D02*
X898109D01*
X850611Y1069501D02*
Y1084208D01*
Y1036710D02*
Y1051416D01*
X898109Y1069501D02*
Y1084208D01*
D58*
X565550Y876060D02*
X615550D01*
X565550Y846060D02*
Y876060D01*
Y846060D02*
X615550D01*
Y876060D01*
D59*
X603707Y654553D02*
X602438Y655823D01*
X599898D01*
X598629Y654553D01*
Y649475D01*
X599898Y648205D01*
X602438D01*
X603707Y649475D01*
Y652014D01*
X601168D01*
X606246Y648205D02*
Y655823D01*
X611325Y648205D01*
Y655823D01*
X613864D02*
Y648205D01*
X617673D01*
X618942Y649475D01*
Y654553D01*
X617673Y655823D01*
X613864D01*
X995170Y656080D02*
X993901Y657349D01*
X991362D01*
X990092Y656080D01*
Y651002D01*
X991362Y649732D01*
X993901D01*
X995170Y651002D01*
Y653541D01*
X992631D01*
X997710Y649732D02*
Y657349D01*
X1002788Y649732D01*
Y657349D01*
X1005327D02*
Y649732D01*
X1009136D01*
X1010405Y651002D01*
Y656080D01*
X1009136Y657349D01*
X1005327D01*
X934212Y690372D02*
Y697989D01*
X938021D01*
X939290Y696720D01*
Y694180D01*
X938021Y692911D01*
X934212D01*
X936751D02*
X939290Y690372D01*
X946908Y696720D02*
X945638Y697989D01*
X943099D01*
X941830Y696720D01*
Y695450D01*
X943099Y694180D01*
X945638D01*
X946908Y692911D01*
Y691641D01*
X945638Y690372D01*
X943099D01*
X941830Y691641D01*
X953256Y690372D02*
Y697989D01*
X949447Y694180D01*
X954525D01*
X957065Y696720D02*
X958334Y697989D01*
X960873D01*
X962143Y696720D01*
Y695450D01*
X960873Y694180D01*
X962143Y692911D01*
Y691641D01*
X960873Y690372D01*
X958334D01*
X957065Y691641D01*
Y692911D01*
X958334Y694180D01*
X957065Y695450D01*
Y696720D01*
X958334Y694180D02*
X960873D01*
X969761Y697989D02*
X964682D01*
Y694180D01*
X967221Y695450D01*
X968491D01*
X969761Y694180D01*
Y691641D01*
X968491Y690372D01*
X965952D01*
X964682Y691641D01*
X972300Y689102D02*
X977378D01*
X979917Y690372D02*
Y695450D01*
X982456Y697989D01*
X984996Y695450D01*
Y690372D01*
Y694180D01*
X979917D01*
X997691Y690372D02*
X995152Y692911D01*
Y695450D01*
X997691Y697989D01*
X1001500Y694180D02*
X1006579D01*
X1009118Y690372D02*
X1011657Y692911D01*
Y695450D01*
X1009118Y697989D01*
X934212Y668782D02*
Y676399D01*
X938021D01*
X939290Y675129D01*
Y672590D01*
X938021Y671321D01*
X934212D01*
X936751D02*
X939290Y668782D01*
X946908Y675129D02*
X945638Y676399D01*
X943099D01*
X941830Y675129D01*
Y673860D01*
X943099Y672590D01*
X945638D01*
X946908Y671321D01*
Y670051D01*
X945638Y668782D01*
X943099D01*
X941830Y670051D01*
X953256Y668782D02*
Y676399D01*
X949447Y672590D01*
X954525D01*
X957065Y675129D02*
X958334Y676399D01*
X960873D01*
X962143Y675129D01*
Y673860D01*
X960873Y672590D01*
X962143Y671321D01*
Y670051D01*
X960873Y668782D01*
X958334D01*
X957065Y670051D01*
Y671321D01*
X958334Y672590D01*
X957065Y673860D01*
Y675129D01*
X958334Y672590D02*
X960873D01*
X969761Y676399D02*
X964682D01*
Y672590D01*
X967221Y673860D01*
X968491D01*
X969761Y672590D01*
Y670051D01*
X968491Y668782D01*
X965952D01*
X964682Y670051D01*
X972300Y667512D02*
X977378D01*
X979917Y676399D02*
Y668782D01*
X983726D01*
X984996Y670051D01*
Y671321D01*
X983726Y672590D01*
X979917D01*
X983726D01*
X984996Y673860D01*
Y675129D01*
X983726Y676399D01*
X979917D01*
X997691Y668782D02*
X995152Y671321D01*
Y673860D01*
X997691Y676399D01*
X1001500Y672590D02*
X1006579D01*
X1004039Y675129D02*
Y670051D01*
X1009118Y668782D02*
X1011657Y671321D01*
Y673860D01*
X1009118Y676399D01*
X598932Y666242D02*
Y673859D01*
X602741D01*
X604010Y672589D01*
Y670050D01*
X602741Y668781D01*
X598932D01*
X601471D02*
X604010Y666242D01*
X611628Y672589D02*
X610358Y673859D01*
X607819D01*
X606549Y672589D01*
Y671320D01*
X607819Y670050D01*
X610358D01*
X611628Y668781D01*
Y667511D01*
X610358Y666242D01*
X607819D01*
X606549Y667511D01*
X617976Y666242D02*
Y673859D01*
X614167Y670050D01*
X619245D01*
X621785Y672589D02*
X623054Y673859D01*
X625593D01*
X626863Y672589D01*
Y671320D01*
X625593Y670050D01*
X626863Y668781D01*
Y667511D01*
X625593Y666242D01*
X623054D01*
X621785Y667511D01*
Y668781D01*
X623054Y670050D01*
X621785Y671320D01*
Y672589D01*
X623054Y670050D02*
X625593D01*
X634481Y673859D02*
X629402D01*
Y670050D01*
X631941Y671320D01*
X633211D01*
X634481Y670050D01*
Y667511D01*
X633211Y666242D01*
X630672D01*
X629402Y667511D01*
X637020Y664972D02*
X642098D01*
X644637Y673859D02*
Y666242D01*
X648446D01*
X649716Y667511D01*
Y668781D01*
X648446Y670050D01*
X644637D01*
X648446D01*
X649716Y671320D01*
Y672589D01*
X648446Y673859D01*
X644637D01*
X662411Y666242D02*
X659872Y668781D01*
Y671320D01*
X662411Y673859D01*
X666220Y670050D02*
X671299D01*
X668759Y672589D02*
Y667511D01*
X673838Y666242D02*
X676377Y668781D01*
Y671320D01*
X673838Y673859D01*
X598932Y687832D02*
Y695449D01*
X602741D01*
X604010Y694180D01*
Y691640D01*
X602741Y690371D01*
X598932D01*
X601471D02*
X604010Y687832D01*
X611628Y694180D02*
X610358Y695449D01*
X607819D01*
X606549Y694180D01*
Y692910D01*
X607819Y691640D01*
X610358D01*
X611628Y690371D01*
Y689101D01*
X610358Y687832D01*
X607819D01*
X606549Y689101D01*
X617976Y687832D02*
Y695449D01*
X614167Y691640D01*
X619245D01*
X621785Y694180D02*
X623054Y695449D01*
X625593D01*
X626863Y694180D01*
Y692910D01*
X625593Y691640D01*
X626863Y690371D01*
Y689101D01*
X625593Y687832D01*
X623054D01*
X621785Y689101D01*
Y690371D01*
X623054Y691640D01*
X621785Y692910D01*
Y694180D01*
X623054Y691640D02*
X625593D01*
X634481Y695449D02*
X629402D01*
Y691640D01*
X631941Y692910D01*
X633211D01*
X634481Y691640D01*
Y689101D01*
X633211Y687832D01*
X630672D01*
X629402Y689101D01*
X637020Y686562D02*
X642098D01*
X644637Y687832D02*
Y692910D01*
X647176Y695449D01*
X649716Y692910D01*
Y687832D01*
Y691640D01*
X644637D01*
X662411Y687832D02*
X659872Y690371D01*
Y692910D01*
X662411Y695449D01*
X666220Y691640D02*
X671299D01*
X673838Y687832D02*
X676377Y690371D01*
Y692910D01*
X673838Y695449D01*
X1001520Y1014220D02*
X996442D01*
Y1010411D01*
X998981Y1011680D01*
X1000251D01*
X1001520Y1010411D01*
Y1007872D01*
X1000251Y1006602D01*
X997712D01*
X996442Y1007872D01*
X1004060Y1014220D02*
Y1009141D01*
X1006599Y1006602D01*
X1009138Y1009141D01*
Y1014220D01*
X998980Y960880D02*
X997711Y962150D01*
X995172D01*
X993902Y960880D01*
Y955802D01*
X995172Y954532D01*
X997711D01*
X998980Y955802D01*
Y958341D01*
X996441D01*
X1001519Y954532D02*
Y962150D01*
X1006598Y954532D01*
Y962150D01*
X1009137D02*
Y954532D01*
X1012946D01*
X1014215Y955802D01*
Y960880D01*
X1012946Y962150D01*
X1009137D01*
X808480Y746250D02*
X807211Y747520D01*
X804672D01*
X803402Y746250D01*
Y744980D01*
X804672Y743711D01*
X807211D01*
X808480Y742441D01*
Y741172D01*
X807211Y739902D01*
X804672D01*
X803402Y741172D01*
X811020Y747520D02*
Y739902D01*
X813559Y742441D01*
X816098Y739902D01*
Y747520D01*
X823715Y746250D02*
X822446Y747520D01*
X819907D01*
X818637Y746250D01*
Y741172D01*
X819907Y739902D01*
X822446D01*
X823715Y741172D01*
X808480Y774190D02*
X807211Y775460D01*
X804672D01*
X803402Y774190D01*
Y772920D01*
X804672Y771651D01*
X807211D01*
X808480Y770381D01*
Y769112D01*
X807211Y767842D01*
X804672D01*
X803402Y769112D01*
X811020Y775460D02*
Y767842D01*
X813559Y770381D01*
X816098Y767842D01*
Y775460D01*
X818637D02*
Y767842D01*
X822446D01*
X823715Y769112D01*
Y774190D01*
X822446Y775460D01*
X818637D01*
X808480Y798320D02*
X807211Y799589D01*
X804672D01*
X803402Y798320D01*
Y793242D01*
X804672Y791972D01*
X807211D01*
X808480Y793242D01*
Y795781D01*
X805941D01*
X811020Y791972D02*
Y799589D01*
X816098Y791972D01*
Y799589D01*
X818637D02*
Y791972D01*
X822446D01*
X823715Y793242D01*
Y798320D01*
X822446Y799589D01*
X818637D01*
%TF.MD5,b9eb5cecfdc0eb2588e93050ef95c566*%
M02*
