M48
;Layer_Color=9474304
;FILE_FORMAT=4:3
METRIC,LZ
;TYPE=PLATED
T01F00S00C0.250
T02F00S00C0.800
T03F00S00C0.850
T04F00S00C1.016
T05F00S00C1.070
T06F00S00C1.200
T07F00S00C1.300
T08F00S00C3.500
%
T01
X0059055Y0071755
X0068326Y0075438
X0070231Y0076073
X0073787Y0075057
X0072009Y008128
X0074422Y0084054
X0078232Y0084582
X0078448Y0082804
X0075438Y0088983
Y0090297
X0076238Y0090708
X0075438Y0091708
X0074049
X0074355Y0092457
X0072713Y0091708
X0071913Y0091133
X0072713Y0090297
Y0088983
X0074074
X0074113Y0088108
X0074074Y0090297
X0069469Y0089154
X0069148Y0091329
X0065004Y0091461
X0065028Y009293
X0065232Y010033
X0068072Y0103632
X0061087Y0104013
X0055626Y0096393
X0060462Y0089845
X0062992Y0084201
X0067818Y0083439
X0056394Y0083309
X0079308Y0093219
X0077946Y0098137
X0078038Y0099696
X0074336Y0099739
X0074336Y0099089
X0079816Y0102457
X0082874Y0100554
X0084652
X0083927Y0092479
X0084201Y0090631
Y00889
Y0087122
X0082169Y0085979
X0080113Y0090679
X008255Y0113284
X0091313Y0112014
Y0111252
X0090932Y0106426
Y0105664
X0098993Y0109555
X0099882
X0100898Y0110444
Y0111333
T02
X0103759Y0065183
Y0067183
Y0069183
X0057531Y0069278
Y0067278
Y0065278
T03
X0107315Y00762
Y00797
T04
X008382Y0074168
Y0077978
X0098196Y0075082
X0063119Y0075057
X0068961Y006919
X0054229Y0088773
X0054356Y0092583
X0057531Y0103632
X007653Y0107366
X0092278Y0104267
X0103124Y0106934
Y0110871
X0101295Y0082728
X0089789Y0086741
X0089849Y0090552
X008382Y0081788
T05
X0078613Y0074549
Y0077089
Y0079629
T06
X0067523Y010797
X0071923
T07
X0106426Y0095758
Y0100838
T08
X0108712Y0058293
X0052578
Y0113792
X0108712
M30
