%TF.GenerationSoftware,Altium Limited,Altium Designer,24.9.1 (31)*%
G04 Layer_Color=8388736*
%FSLAX44Y44*%
%MOMM*%
%TF.SameCoordinates,6B423169-25D8-4BB9-912F-35ADE512F806*%
%TF.FilePolarity,Negative*%
%TF.FileFunction,Soldermask,Top*%
%TF.Part,Single*%
G01*
G75*
%TA.AperFunction,SMDPad,CuDef*%
%ADD19R,0.5588X1.2954*%
%ADD21R,0.6000X1.4000*%
%ADD24R,1.5240X0.5334*%
%ADD30R,2.1844X1.1430*%
%ADD61R,2.2032X2.7032*%
%ADD62R,0.8032X2.7032*%
%ADD63R,0.9032X0.9032*%
%ADD64R,1.2032X1.1532*%
%ADD65R,1.7032X2.2032*%
%ADD66R,4.0032X2.2032*%
%ADD67R,1.2032X1.2532*%
%ADD68R,1.1532X1.2032*%
%ADD69R,1.2032X1.8032*%
G04:AMPARAMS|DCode=70|XSize=0.404mm|YSize=1.014mm|CornerRadius=0.127mm|HoleSize=0mm|Usage=FLASHONLY|Rotation=0.000|XOffset=0mm|YOffset=0mm|HoleType=Round|Shape=RoundedRectangle|*
%AMROUNDEDRECTD70*
21,1,0.4040,0.7600,0,0,0.0*
21,1,0.1500,1.0140,0,0,0.0*
1,1,0.2540,0.0750,-0.3800*
1,1,0.2540,-0.0750,-0.3800*
1,1,0.2540,-0.0750,0.3800*
1,1,0.2540,0.0750,0.3800*
%
%ADD70ROUNDEDRECTD70*%
%ADD71R,3.6040X3.6040*%
G04:AMPARAMS|DCode=72|XSize=1.014mm|YSize=0.404mm|CornerRadius=0.127mm|HoleSize=0mm|Usage=FLASHONLY|Rotation=0.000|XOffset=0mm|YOffset=0mm|HoleType=Round|Shape=RoundedRectangle|*
%AMROUNDEDRECTD72*
21,1,1.0140,0.1500,0,0,0.0*
21,1,0.7600,0.4040,0,0,0.0*
1,1,0.2540,0.3800,-0.0750*
1,1,0.2540,-0.3800,-0.0750*
1,1,0.2540,-0.3800,0.0750*
1,1,0.2540,0.3800,0.0750*
%
%ADD72ROUNDEDRECTD72*%
%ADD73R,1.2532X1.5032*%
%ADD74R,1.2532X1.2032*%
%ADD75R,3.4032X1.7032*%
%TA.AperFunction,ComponentPad*%
%ADD76C,1.9812*%
%ADD77O,2.1082X1.6002*%
%ADD78R,2.1082X1.6002*%
%ADD79C,2.2032*%
%ADD80C,2.1532*%
%ADD81C,1.7272*%
%ADD82C,6.2032*%
%ADD83R,1.8082X1.8082*%
%ADD84C,1.8082*%
%ADD85R,1.4032X1.4032*%
%ADD86C,1.4032*%
D19*
X590550Y729615D02*
D03*
X581050Y748665D02*
D03*
X600050D02*
D03*
D21*
X609600Y888560D02*
D03*
X596900D02*
D03*
X584200D02*
D03*
X571500D02*
D03*
Y833560D02*
D03*
X584200D02*
D03*
X596900D02*
D03*
X609600D02*
D03*
D24*
X626999Y1010920D02*
D03*
Y998220D02*
D03*
Y985520D02*
D03*
Y972820D02*
D03*
X554101D02*
D03*
Y985520D02*
D03*
Y998220D02*
D03*
Y1010920D02*
D03*
D30*
X852770Y1116339D02*
D03*
X895950D02*
D03*
X852770Y1060459D02*
D03*
X895950D02*
D03*
D61*
X652730Y1108400D02*
D03*
X741730D02*
D03*
X652730Y1053900D02*
D03*
X741730D02*
D03*
D62*
X681230D02*
D03*
X689230D02*
D03*
X697230D02*
D03*
X705230D02*
D03*
X713230D02*
D03*
D63*
X809340Y925124D02*
D03*
X825340D02*
D03*
D64*
X669720Y993140D02*
D03*
X685720D02*
D03*
X662560Y929640D02*
D03*
X678560D02*
D03*
X768862Y997275D02*
D03*
X752862D02*
D03*
X768862Y980277D02*
D03*
X752862D02*
D03*
X689230Y842010D02*
D03*
X705230D02*
D03*
X829690Y871220D02*
D03*
X813690D02*
D03*
X829690Y889000D02*
D03*
X813690D02*
D03*
X829690Y906780D02*
D03*
X813690D02*
D03*
X799050Y1132849D02*
D03*
X815050D02*
D03*
X662560Y910590D02*
D03*
X678560D02*
D03*
X611090Y1031249D02*
D03*
X627090D02*
D03*
D65*
X972150Y1111009D02*
D03*
X995150D02*
D03*
X949150D02*
D03*
D66*
X972150Y1048009D02*
D03*
D67*
X629920Y871600D02*
D03*
Y855600D02*
D03*
Y914400D02*
D03*
Y898400D02*
D03*
X728980Y988950D02*
D03*
Y1004950D02*
D03*
X713740Y988950D02*
D03*
Y1004950D02*
D03*
X738470Y811919D02*
D03*
Y795919D02*
D03*
X798160Y977019D02*
D03*
Y961019D02*
D03*
X581660Y793370D02*
D03*
Y809370D02*
D03*
X599440Y793370D02*
D03*
Y809370D02*
D03*
D68*
X629920Y814960D02*
D03*
Y830960D02*
D03*
X683860Y766709D02*
D03*
Y782709D02*
D03*
X738470Y762899D02*
D03*
Y778899D02*
D03*
X847090Y993520D02*
D03*
Y977520D02*
D03*
X828040Y993520D02*
D03*
Y977520D02*
D03*
X798160Y1011309D02*
D03*
Y995309D02*
D03*
D69*
X750862Y1016026D02*
D03*
X770862D02*
D03*
D70*
X749010Y937479D02*
D03*
X713010D02*
D03*
X717010D02*
D03*
X721010D02*
D03*
X725010D02*
D03*
X729010D02*
D03*
X733010D02*
D03*
X737010D02*
D03*
X741010D02*
D03*
X745010D02*
D03*
X753010D02*
D03*
X757010D02*
D03*
X761010D02*
D03*
X765010D02*
D03*
X769010D02*
D03*
Y868479D02*
D03*
X765010D02*
D03*
X761010D02*
D03*
X757010D02*
D03*
X753010D02*
D03*
X749010D02*
D03*
X745010D02*
D03*
X741010D02*
D03*
X737010D02*
D03*
X733010D02*
D03*
X729010D02*
D03*
X725010D02*
D03*
X721010D02*
D03*
X717010D02*
D03*
X713010D02*
D03*
D71*
X741010Y902979D02*
D03*
D72*
X775510Y930979D02*
D03*
Y926979D02*
D03*
Y922979D02*
D03*
Y918979D02*
D03*
Y914979D02*
D03*
Y910979D02*
D03*
Y906979D02*
D03*
Y902979D02*
D03*
Y898979D02*
D03*
Y894979D02*
D03*
Y890979D02*
D03*
Y886979D02*
D03*
Y882979D02*
D03*
Y878979D02*
D03*
Y874979D02*
D03*
X706510D02*
D03*
Y878979D02*
D03*
Y882979D02*
D03*
Y886979D02*
D03*
Y890979D02*
D03*
Y894979D02*
D03*
Y898979D02*
D03*
Y902979D02*
D03*
Y906979D02*
D03*
Y910979D02*
D03*
Y914979D02*
D03*
Y918979D02*
D03*
Y922979D02*
D03*
Y926979D02*
D03*
Y930979D02*
D03*
D73*
X720550Y774639D02*
D03*
Y797639D02*
D03*
X703050D02*
D03*
Y774639D02*
D03*
D74*
X784480Y828040D02*
D03*
X800480D02*
D03*
X784480Y844550D02*
D03*
X800480D02*
D03*
X809340Y941634D02*
D03*
X825340D02*
D03*
X873470Y924569D02*
D03*
X857470D02*
D03*
X598550Y768350D02*
D03*
X582550D02*
D03*
D75*
X805780Y1106859D02*
D03*
Y1064859D02*
D03*
D76*
X981964Y750824D02*
D03*
X765302Y1073658D02*
D03*
X922782Y1042670D02*
D03*
X631190Y750570D02*
D03*
X1012952Y827278D02*
D03*
X689610Y691896D02*
D03*
D77*
X1037590Y691830D02*
D03*
Y671830D02*
D03*
X575310Y652780D02*
D03*
Y672780D02*
D03*
D78*
X1037590Y651830D02*
D03*
X575310Y692780D02*
D03*
D79*
X719230Y1079700D02*
D03*
X675230D02*
D03*
D80*
X1064260Y957580D02*
D03*
Y1008380D02*
D03*
D81*
X897890Y867410D02*
D03*
X1031240Y1108710D02*
D03*
Y1069340D02*
D03*
X542290Y887730D02*
D03*
X543560Y925830D02*
D03*
X898490Y905519D02*
D03*
X838200Y779780D02*
D03*
Y817880D02*
D03*
X575310Y1036320D02*
D03*
X838200Y741680D02*
D03*
D82*
X1087120Y1137920D02*
D03*
X525780D02*
D03*
Y582930D02*
D03*
X1087120D02*
D03*
D83*
X786130Y745490D02*
D03*
D84*
Y770890D02*
D03*
Y796290D02*
D03*
D85*
X1073150Y797000D02*
D03*
D86*
Y762000D02*
D03*
%TF.MD5,deaedf1db9db99a0ca3017c185ae5757*%
M02*
