%TF.GenerationSoftware,Altium Limited,Altium Designer,24.9.1 (31)*%
G04 Layer_Color=2752767*
%FSLAX44Y44*%
%MOMM*%
%TF.SameCoordinates,6B423169-25D8-4BB9-912F-35ADE512F806*%
%TF.FilePolarity,Positive*%
%TF.FileFunction,Drawing*%
%TF.Part,Single*%
G01*
G75*
%TA.AperFunction,NonConductor*%
%ADD55C,0.1270*%
%ADD104C,0.1693*%
D55*
X976884Y745744D02*
X979424Y750824D01*
X976884Y755904D01*
X981964Y753364D01*
X987044Y755904D01*
X984504Y750824D01*
X987044Y745744D01*
X981964Y748284D01*
X976884Y745744D01*
X760222Y1068578D02*
X762762Y1073658D01*
X760222Y1078738D01*
X765302Y1076198D01*
X770382Y1078738D01*
X767842Y1073658D01*
X770382Y1068578D01*
X765302Y1071118D01*
X760222Y1068578D01*
X917702Y1037590D02*
X920242Y1042670D01*
X917702Y1047750D01*
X922782Y1045210D01*
X927862Y1047750D01*
X925322Y1042670D01*
X927862Y1037590D01*
X922782Y1040130D01*
X917702Y1037590D01*
X626110Y745490D02*
X628650Y750570D01*
X626110Y755650D01*
X631190Y753110D01*
X636270Y755650D01*
X633730Y750570D01*
X636270Y745490D01*
X631190Y748030D01*
X626110Y745490D01*
X1007872Y822198D02*
X1010412Y827278D01*
X1007872Y832358D01*
X1012952Y829818D01*
X1018032Y832358D01*
X1015492Y827278D01*
X1018032Y822198D01*
X1012952Y824738D01*
X1007872Y822198D01*
X684530Y686816D02*
X687070Y691896D01*
X684530Y696976D01*
X689610Y694436D01*
X694690Y696976D01*
X692150Y691896D01*
X694690Y686816D01*
X689610Y689356D01*
X684530Y686816D01*
X1032510Y686750D02*
X1035050D01*
X1037590Y689290D01*
X1040130Y686750D01*
X1042670D01*
Y689290D01*
X1040130Y691830D01*
X1042670Y694370D01*
Y696910D01*
X1040130D01*
X1037590Y694370D01*
X1035050Y696910D01*
X1032510D01*
Y694370D01*
X1035050Y691830D01*
X1032510Y689290D01*
Y686750D01*
Y646750D02*
X1035050D01*
X1037590Y649290D01*
X1040130Y646750D01*
X1042670D01*
Y649290D01*
X1040130Y651830D01*
X1042670Y654370D01*
Y656910D01*
X1040130D01*
X1037590Y654370D01*
X1035050Y656910D01*
X1032510D01*
Y654370D01*
X1035050Y651830D01*
X1032510Y649290D01*
Y646750D01*
Y666750D02*
X1035050D01*
X1037590Y669290D01*
X1040130Y666750D01*
X1042670D01*
Y669290D01*
X1040130Y671830D01*
X1042670Y674370D01*
Y676910D01*
X1040130D01*
X1037590Y674370D01*
X1035050Y676910D01*
X1032510D01*
Y674370D01*
X1035050Y671830D01*
X1032510Y669290D01*
Y666750D01*
X570230Y647700D02*
X572770D01*
X575310Y650240D01*
X577850Y647700D01*
X580390D01*
Y650240D01*
X577850Y652780D01*
X580390Y655320D01*
Y657860D01*
X577850D01*
X575310Y655320D01*
X572770Y657860D01*
X570230D01*
Y655320D01*
X572770Y652780D01*
X570230Y650240D01*
Y647700D01*
Y687700D02*
X572770D01*
X575310Y690240D01*
X577850Y687700D01*
X580390D01*
Y690240D01*
X577850Y692780D01*
X580390Y695320D01*
Y697860D01*
X577850D01*
X575310Y695320D01*
X572770Y697860D01*
X570230D01*
Y695320D01*
X572770Y692780D01*
X570230Y690240D01*
Y687700D01*
Y667700D02*
X572770D01*
X575310Y670240D01*
X577850Y667700D01*
X580390D01*
Y670240D01*
X577850Y672780D01*
X580390Y675320D01*
Y677860D01*
X577850D01*
X575310Y675320D01*
X572770Y677860D01*
X570230D01*
Y675320D01*
X572770Y672780D01*
X570230Y670240D01*
Y667700D01*
X1059180Y952500D02*
Y962660D01*
X1069340D01*
Y952500D01*
X1059180D01*
Y1003300D02*
Y1013460D01*
X1069340D01*
Y1003300D01*
X1059180D01*
X892810Y862330D02*
X895350Y867410D01*
X892810Y872490D01*
X897890Y869950D01*
X902970Y872490D01*
X900430Y867410D01*
X902970Y862330D01*
X897890Y864870D01*
X892810Y862330D01*
X1026160Y1103630D02*
X1028700Y1108710D01*
X1026160Y1113790D01*
X1031240Y1111250D01*
X1036320Y1113790D01*
X1033780Y1108710D01*
X1036320Y1103630D01*
X1031240Y1106170D01*
X1026160Y1103630D01*
Y1064260D02*
X1028700Y1069340D01*
X1026160Y1074420D01*
X1031240Y1071880D01*
X1036320Y1074420D01*
X1033780Y1069340D01*
X1036320Y1064260D01*
X1031240Y1066800D01*
X1026160Y1064260D01*
X537210Y882650D02*
X539750Y887730D01*
X537210Y892810D01*
X542290Y890270D01*
X547370Y892810D01*
X544830Y887730D01*
X547370Y882650D01*
X542290Y885190D01*
X537210Y882650D01*
X538480Y920750D02*
X541020Y925830D01*
X538480Y930910D01*
X543560Y928370D01*
X548640Y930910D01*
X546100Y925830D01*
X548640Y920750D01*
X543560Y923290D01*
X538480Y920750D01*
X893410Y900439D02*
X895950Y905519D01*
X893410Y910599D01*
X898490Y908059D01*
X903570Y910599D01*
X901030Y905519D01*
X903570Y900439D01*
X898490Y902979D01*
X893410Y900439D01*
X833120Y774700D02*
X835660Y779780D01*
X833120Y784860D01*
X838200Y782320D01*
X843280Y784860D01*
X840740Y779780D01*
X843280Y774700D01*
X838200Y777240D01*
X833120Y774700D01*
Y812800D02*
X835660Y817880D01*
X833120Y822960D01*
X838200Y820420D01*
X843280Y822960D01*
X840740Y817880D01*
X843280Y812800D01*
X838200Y815340D01*
X833120Y812800D01*
X570230Y1031240D02*
X572770Y1036320D01*
X570230Y1041400D01*
X575310Y1038860D01*
X580390Y1041400D01*
X577850Y1036320D01*
X580390Y1031240D01*
X575310Y1033780D01*
X570230Y1031240D01*
X1087120Y1132840D02*
X1089660Y1135380D01*
X1092200D01*
X1089660Y1137920D01*
X1092200Y1140460D01*
X1089660D01*
X1087120Y1143000D01*
X1084580Y1140460D01*
X1082040D01*
X1084580Y1137920D01*
X1082040Y1135380D01*
X1084580D01*
X1087120Y1132840D01*
X525780D02*
X528320Y1135380D01*
X530860D01*
X528320Y1137920D01*
X530860Y1140460D01*
X528320D01*
X525780Y1143000D01*
X523240Y1140460D01*
X520700D01*
X523240Y1137920D01*
X520700Y1135380D01*
X523240D01*
X525780Y1132840D01*
Y577850D02*
X528320Y580390D01*
X530860D01*
X528320Y582930D01*
X530860Y585470D01*
X528320D01*
X525780Y588010D01*
X523240Y585470D01*
X520700D01*
X523240Y582930D01*
X520700Y580390D01*
X523240D01*
X525780Y577850D01*
X1087120D02*
X1089660Y580390D01*
X1092200D01*
X1089660Y582930D01*
X1092200Y585470D01*
X1089660D01*
X1087120Y588010D01*
X1084580Y585470D01*
X1082040D01*
X1084580Y582930D01*
X1082040Y580390D01*
X1084580D01*
X1087120Y577850D01*
X833120Y736600D02*
X835660Y741680D01*
X833120Y746760D01*
X838200Y744220D01*
X843280Y746760D01*
X840740Y741680D01*
X843280Y736600D01*
X838200Y739140D01*
X833120Y736600D01*
X786130Y740410D02*
X781050Y750570D01*
X791210D01*
X786130Y740410D01*
Y765810D02*
X781050Y775970D01*
X791210D01*
X786130Y765810D01*
Y791210D02*
X781050Y801370D01*
X791210D01*
X786130Y791210D01*
X1070610Y794460D02*
Y791920D01*
X1075690D01*
Y794460D01*
X1078230D01*
Y799540D01*
X1075690D01*
Y802080D01*
X1070610D01*
Y799540D01*
X1068070D01*
Y794460D01*
X1070610D01*
Y759460D02*
Y756920D01*
X1075690D01*
Y759460D01*
X1078230D01*
Y764540D01*
X1075690D01*
Y767080D01*
X1070610D01*
Y764540D01*
X1068070D01*
Y759460D01*
X1070610D01*
X585470Y717550D02*
X590550Y722630D01*
X595630Y717550D01*
X590550Y712470D01*
X585470Y717550D01*
X714050Y911329D02*
X719130Y916409D01*
X724210Y911329D01*
X719130Y906249D01*
X714050Y911329D01*
X686400Y913289D02*
X691480Y918369D01*
X696560Y913289D01*
X691480Y908209D01*
X686400Y913289D01*
X644959Y914611D02*
X650040Y919691D01*
X655119Y914611D01*
X650040Y909531D01*
X644959Y914611D01*
X675640Y1036320D02*
X680720Y1041400D01*
X685800Y1036320D01*
X680720Y1031240D01*
X675640Y1036320D01*
X647240Y1003300D02*
X652320Y1008380D01*
X657400Y1003300D01*
X652320Y998220D01*
X647240Y1003300D01*
X558855Y833092D02*
X563935Y838172D01*
X569015Y833092D01*
X563935Y828012D01*
X558855Y833092D01*
X820420Y1132840D02*
X825500Y1137920D01*
X830580Y1132840D01*
X825500Y1127760D01*
X820420Y1132840D01*
X1003902Y1113329D02*
X1008982Y1118409D01*
X1014062Y1113329D01*
X1008982Y1108249D01*
X1003902Y1113329D01*
X993742Y1095549D02*
X998822Y1100629D01*
X1003902Y1095549D01*
X998822Y1090469D01*
X993742Y1095549D01*
X1003902Y1104439D02*
X1008982Y1109519D01*
X1014062Y1104439D01*
X1008982Y1099359D01*
X1003902Y1104439D01*
X984852Y1095549D02*
X989932Y1100629D01*
X995012Y1095549D01*
X989932Y1090469D01*
X984852Y1095549D01*
X645196Y929296D02*
X650276Y934376D01*
X655356Y929296D01*
X650276Y924216D01*
X645196Y929296D01*
X904240Y1056640D02*
X909320Y1061720D01*
X914400Y1056640D01*
X909320Y1051560D01*
X904240Y1056640D01*
Y1064260D02*
X909320Y1069340D01*
X914400Y1064260D01*
X909320Y1059180D01*
X904240Y1064260D01*
X908050Y1112520D02*
X913130Y1117600D01*
X918210Y1112520D01*
X913130Y1107440D01*
X908050Y1112520D01*
Y1120140D02*
X913130Y1125220D01*
X918210Y1120140D01*
X913130Y1115060D01*
X908050Y1120140D01*
X678180Y754380D02*
X683260Y759460D01*
X688340Y754380D01*
X683260Y749300D01*
X678180Y754380D01*
X732790Y750570D02*
X737870Y755650D01*
X742950Y750570D01*
X737870Y745490D01*
X732790Y750570D01*
X715010Y812800D02*
X720090Y817880D01*
X725170Y812800D01*
X720090Y807720D01*
X715010Y812800D01*
X697230Y760730D02*
X702310Y765810D01*
X707390Y760730D01*
X702310Y755650D01*
X697230Y760730D01*
X599540Y898447D02*
X604620Y903527D01*
X609700Y898447D01*
X604620Y893367D01*
X599540Y898447D01*
X841445Y1005538D02*
X846525Y1010618D01*
X851605Y1005538D01*
X846525Y1000458D01*
X841445Y1005538D01*
X823665D02*
X828745Y1010618D01*
X833825Y1005538D01*
X828745Y1000458D01*
X823665Y1005538D01*
X624840Y842010D02*
X629920Y847090D01*
X635000Y842010D01*
X629920Y836930D01*
X624840Y842010D01*
X777240Y845820D02*
X782320Y850900D01*
X787400Y845820D01*
X782320Y840740D01*
X777240Y845820D01*
X689610Y891540D02*
X694690Y896620D01*
X699770Y891540D01*
X694690Y886460D01*
X689610Y891540D01*
X836930Y906310D02*
X842010Y911390D01*
X847090Y906310D01*
X842010Y901230D01*
X836930Y906310D01*
X834185Y924795D02*
X839265Y929875D01*
X844345Y924795D01*
X839265Y919715D01*
X834185Y924795D01*
X779400Y828040D02*
X784480Y833120D01*
X789560Y828040D01*
X784480Y822960D01*
X779400Y828040D01*
X816610Y859790D02*
X821690Y864870D01*
X826770Y859790D01*
X821690Y854710D01*
X816610Y859790D01*
X605790Y1040130D02*
X610870Y1045210D01*
X615950Y1040130D01*
X610870Y1035050D01*
X605790Y1040130D01*
X551180Y963930D02*
X556260Y969010D01*
X561340Y963930D01*
X556260Y958850D01*
X551180Y963930D01*
X774382Y981367D02*
X779462Y986447D01*
X784542Y981367D01*
X779462Y976287D01*
X774382Y981367D01*
X775300Y996959D02*
X780380Y1002039D01*
X785460Y996959D01*
X780380Y991879D01*
X775300Y996959D01*
X738280Y990889D02*
X743360Y995969D01*
X748440Y990889D01*
X743360Y985809D01*
X738280Y990889D01*
X738280Y997389D02*
X743360Y1002469D01*
X748440Y997389D01*
X743360Y992309D01*
X738280Y997389D01*
X836930Y871220D02*
X842010Y876300D01*
X847090Y871220D01*
X842010Y866140D01*
X836930Y871220D01*
Y889000D02*
X842010Y894080D01*
X847090Y889000D01*
X842010Y883920D01*
X836930Y889000D01*
X673100Y834390D02*
X678180Y839470D01*
X683260Y834390D01*
X678180Y829310D01*
X673100Y834390D01*
X739140Y840544D02*
X744220Y845624D01*
X749300Y840544D01*
X744220Y835464D01*
X739140Y840544D01*
X736050Y881079D02*
X741130Y886159D01*
X746210Y881079D01*
X741130Y875999D01*
X736050Y881079D01*
X796054Y906785D02*
X801134Y911865D01*
X806214Y906785D01*
X801134Y901705D01*
X796054Y906785D01*
X738470Y924569D02*
X743550Y929649D01*
X748630Y924569D01*
X743550Y919489D01*
X738470Y924569D01*
X788000Y932189D02*
X793080Y937269D01*
X798160Y932189D01*
X793080Y927109D01*
X788000Y932189D01*
X749300Y917079D02*
X754380Y922159D01*
X759460Y917079D01*
X754380Y911999D01*
X749300Y917079D01*
X757300Y907079D02*
X762380Y912159D01*
X767460Y907079D01*
X762380Y901999D01*
X757300Y907079D01*
X735661Y902970D02*
X740742Y908050D01*
X745822Y902970D01*
X740742Y897890D01*
X735661Y902970D01*
X749300Y889829D02*
X754380Y894909D01*
X759460Y889829D01*
X754380Y884749D01*
X749300Y889829D01*
Y902970D02*
X754380Y908050D01*
X759460Y902970D01*
X754380Y897890D01*
X749300Y902970D01*
X722050D02*
X727130Y908050D01*
X732210Y902970D01*
X727130Y897890D01*
X722050Y902970D01*
Y889829D02*
X727130Y894909D01*
X732210Y889829D01*
X727130Y884749D01*
X722050Y889829D01*
X735661D02*
X740742Y894909D01*
X745822Y889829D01*
X740742Y884749D01*
X735661Y889829D01*
X735412Y917079D02*
X740491Y922159D01*
X745572Y917079D01*
X740491Y911999D01*
X735412Y917079D01*
X793077Y1024568D02*
X798157Y1029648D01*
X803237Y1024568D01*
X798157Y1019488D01*
X793077Y1024568D01*
X722050Y917079D02*
X727130Y922159D01*
X732210Y917079D01*
X727130Y911999D01*
X722050Y917079D01*
D104*
X724310Y1079700D02*
G03*
X724310Y1079700I-5080J0D01*
G01*
X680310D02*
G03*
X680310Y1079700I-5080J0D01*
G01*
%TF.MD5,4de56d751b3fc87e100df0d9b0236cfe*%
M02*
