%TF.GenerationSoftware,Altium Limited,Altium Designer,24.9.1 (31)*%
G04 Layer_Color=32896*
%FSLAX44Y44*%
%MOMM*%
%TF.SameCoordinates,6B423169-25D8-4BB9-912F-35ADE512F806*%
%TF.FilePolarity,Positive*%
%TF.FileFunction,Legend,Bot*%
%TF.Part,Single*%
G01*
G75*
%TA.AperFunction,NonConductor*%
%ADD52C,0.2000*%
%ADD55C,0.1270*%
%ADD56C,0.2540*%
%ADD57C,0.1524*%
%ADD59C,0.2032*%
%ADD60C,0.0254*%
G36*
X834337Y1002293D02*
X834653Y1002188D01*
X836022Y1001556D01*
X836601Y1001398D01*
X837180Y1001030D01*
X837495Y1000714D01*
X837706Y1000609D01*
X838601Y999925D01*
X838706Y999714D01*
X838969Y999451D01*
X839180Y999346D01*
X839338Y999188D01*
X839443Y998977D01*
X839969Y998240D01*
X840285Y997925D01*
X840864Y996293D01*
X841022Y996135D01*
X841338Y995082D01*
X841443Y993398D01*
X841338Y957081D01*
X841127Y956554D01*
X840601Y955397D01*
X840232Y954397D01*
X839653Y953818D01*
X839232Y953081D01*
X839074Y952923D01*
X838864Y952818D01*
X838495Y952449D01*
X838390Y952238D01*
X838232Y952081D01*
X838022Y951975D01*
X837285Y951449D01*
X836969Y951133D01*
X836443Y950923D01*
X836022Y950817D01*
X834864Y950291D01*
X834127Y950080D01*
X833074Y949975D01*
X789914D01*
X779914Y950080D01*
X779388Y950291D01*
X778230Y950817D01*
X777651Y950975D01*
X777072Y951344D01*
X776756Y951660D01*
X776546Y951765D01*
X775756Y952344D01*
X775651Y952554D01*
X775282Y952923D01*
X775072Y953028D01*
X774651Y953660D01*
X774124Y954291D01*
X773967Y954449D01*
X773493Y955765D01*
X773019Y956870D01*
X772914Y957291D01*
X772809Y959292D01*
X772914Y995293D01*
X773124Y995819D01*
X773651Y996977D01*
X774019Y997977D01*
X774493Y998451D01*
X774598Y998661D01*
X775282Y999556D01*
X775493Y999661D01*
X775756Y999925D01*
X775861Y1000135D01*
X776019Y1000293D01*
X776230Y1000398D01*
X777177Y1001135D01*
X778125Y1001556D01*
X778809Y1001820D01*
X779914Y1002293D01*
X781283Y1002399D01*
X834337Y1002293D01*
D02*
G37*
G36*
X819629Y945615D02*
X819709Y945597D01*
X819728Y945579D01*
X819759Y945535D01*
X819752Y930774D01*
X819740Y930206D01*
X819728Y930157D01*
X819703Y929910D01*
X819691Y929749D01*
X819678Y929626D01*
X819666Y929539D01*
X819654Y929490D01*
X819623Y929385D01*
X819598Y929323D01*
X819586Y929274D01*
X819567Y929144D01*
X819555Y929095D01*
X819530Y929008D01*
X819499Y928953D01*
X819475Y928891D01*
X819456Y928823D01*
X819444Y928774D01*
X819425Y928706D01*
X819376Y928632D01*
X819333Y928515D01*
X819308Y928416D01*
X819289Y928397D01*
X819240Y928323D01*
X819209Y928243D01*
X819184Y928181D01*
X819172Y928157D01*
X819147Y928132D01*
X819073Y927996D01*
X819012Y927934D01*
X818962Y927848D01*
X818888Y927774D01*
X818839Y927687D01*
X818826Y927663D01*
X818765Y927601D01*
X818752Y927576D01*
X818728Y927551D01*
X818715Y927527D01*
X818672Y927484D01*
X818629Y927453D01*
X818616Y927428D01*
X818505Y927317D01*
X818493Y927292D01*
X818382Y927181D01*
X818370Y927156D01*
X818351Y927138D01*
X818264Y927088D01*
X818191Y927014D01*
X818104Y926965D01*
X818079Y926953D01*
X818018Y926891D01*
X817931Y926842D01*
X817906Y926829D01*
X817869Y926792D01*
X817734Y926718D01*
X817684Y926669D01*
X817524Y926582D01*
X817437Y926520D01*
X817388Y926508D01*
X817326Y926484D01*
X817301Y926471D01*
X817277Y926447D01*
X817209Y926403D01*
X817141Y926385D01*
X817055Y926348D01*
X816943Y926286D01*
X816795Y926249D01*
X816721Y926199D01*
X816641Y926169D01*
X816561Y926150D01*
X816462Y926125D01*
X816382Y926095D01*
X816283Y926058D01*
X816147Y926033D01*
X816023Y926008D01*
X815875Y925971D01*
X815733Y925940D01*
X815696Y925928D01*
X808770Y925916D01*
X808387Y925928D01*
X808226Y925940D01*
X808158Y925959D01*
X808109Y925971D01*
X808010Y926008D01*
X807961Y926021D01*
X807843Y926039D01*
X807757Y926051D01*
X807615Y926095D01*
X807516Y926132D01*
X807436Y926150D01*
X807387Y926162D01*
X807251Y926224D01*
X807226Y926237D01*
X807164Y926261D01*
X807078Y926286D01*
X807029Y926298D01*
X807010Y926317D01*
X806936Y926366D01*
X806856Y926397D01*
X806769Y926434D01*
X806683Y926496D01*
X806634Y926508D01*
X806572Y926533D01*
X806553Y926551D01*
X806479Y926613D01*
X806399Y926644D01*
X806337Y926706D01*
X806226Y926768D01*
X806201Y926780D01*
X806177Y926817D01*
X806090Y926866D01*
X806004Y926953D01*
X805979Y926965D01*
X805954Y926990D01*
X805930Y927002D01*
X805831Y927101D01*
X805806Y927113D01*
X805633Y927286D01*
X805578Y927354D01*
X805565Y927379D01*
X805491Y927453D01*
X805454Y927514D01*
X805393Y927576D01*
X805380Y927601D01*
X805362Y927619D01*
X805331Y927700D01*
X805281Y927749D01*
X805207Y927885D01*
X805189Y927903D01*
X805133Y927971D01*
X805121Y927996D01*
X805084Y928083D01*
X805071Y928107D01*
X805047Y928132D01*
X805016Y928175D01*
X804985Y928255D01*
X804960Y928317D01*
X804936Y928342D01*
X804874Y928453D01*
X804849Y928539D01*
X804825Y928564D01*
X804812Y928589D01*
X804794Y928607D01*
X804763Y928688D01*
X804738Y928786D01*
X804670Y928916D01*
X804646Y928978D01*
X804627Y929070D01*
X804584Y929212D01*
X804534Y929348D01*
X804497Y929570D01*
X804485Y929620D01*
X804473Y929681D01*
X804448Y929780D01*
X804429Y929885D01*
X804417Y929922D01*
X804405Y930107D01*
X804392Y930144D01*
X804380Y934861D01*
X804392Y935540D01*
X804405Y935701D01*
X804417Y935935D01*
X804442Y936034D01*
X804473Y936139D01*
X804485Y936201D01*
X804497Y936250D01*
X804510Y936324D01*
X804528Y936441D01*
X804565Y936565D01*
X804615Y936676D01*
X804639Y936787D01*
X804652Y936837D01*
X804689Y936923D01*
X804707Y936942D01*
X804757Y937077D01*
X804775Y937145D01*
X804862Y937281D01*
X804874Y937330D01*
X804905Y937411D01*
X804960Y937479D01*
X804973Y937503D01*
X805022Y937615D01*
X805034Y937639D01*
X805059Y937652D01*
X805133Y937787D01*
X805146Y937812D01*
X805183Y937849D01*
X805244Y937960D01*
X805288Y938003D01*
X805343Y938071D01*
X805356Y938096D01*
X805386Y938127D01*
X805411Y938139D01*
X805442Y938170D01*
X805454Y938195D01*
X805565Y938306D01*
X805578Y938331D01*
X805701Y938454D01*
X805714Y938479D01*
X805732Y938497D01*
X805757Y938510D01*
X805775Y938528D01*
X805788Y938553D01*
X805831Y938584D01*
X805893Y938621D01*
X805930Y938658D01*
X806041Y938744D01*
X806066Y938757D01*
X806103Y938794D01*
X806238Y938868D01*
X806288Y938917D01*
X806399Y938979D01*
X806417Y938997D01*
X806485Y939053D01*
X806621Y939102D01*
X806658Y939139D01*
X806701Y939170D01*
X806763Y939195D01*
X806831Y939213D01*
X806856Y939238D01*
X806880Y939250D01*
X806911Y939281D01*
X806992Y939312D01*
X807041Y939325D01*
X807127Y939362D01*
X807214Y939411D01*
X807325Y939436D01*
X807411Y939473D01*
X807436Y939485D01*
X807455Y939504D01*
X807516Y939528D01*
X807566Y939541D01*
X807683Y939559D01*
X807732Y939572D01*
X807813Y939602D01*
X807948Y939652D01*
X808023Y939664D01*
X808171Y939677D01*
X808362Y939695D01*
X808399Y939707D01*
X808547Y939720D01*
X808584Y939732D01*
X808770Y939744D01*
X808807Y939757D01*
X814980Y939769D01*
X815030Y939757D01*
X815048Y939738D01*
X815060Y939677D01*
X815073Y939640D01*
X815067Y936707D01*
X815073Y936577D01*
X815060Y936491D01*
X815023Y936454D01*
X814956Y936435D01*
X814918Y936448D01*
X808998Y936441D01*
X808844Y936423D01*
X808695Y936386D01*
X808609Y936361D01*
X808523Y936349D01*
X808424Y936324D01*
X808387Y936287D01*
X808344Y936256D01*
X808263Y936226D01*
X808257Y936219D01*
X808239Y936213D01*
X808195Y936170D01*
X808128Y936114D01*
X808103Y936102D01*
X808072Y936071D01*
X808041Y936028D01*
X808016Y936016D01*
X807986Y935985D01*
X807924Y935898D01*
X807911Y935874D01*
X807868Y935830D01*
X807843Y935769D01*
X807825Y935701D01*
X807757Y935546D01*
X807738Y935466D01*
X807726Y935429D01*
X807714Y930601D01*
X807726Y930330D01*
X807738Y930243D01*
X807751Y930194D01*
X807825Y930033D01*
X807837Y929984D01*
X807862Y929898D01*
X807911Y929848D01*
X807973Y929737D01*
X807986Y929712D01*
X808060Y929638D01*
X808072Y929613D01*
X808090Y929595D01*
X808115Y929583D01*
X808158Y929539D01*
X808189Y929496D01*
X808325Y929422D01*
X808350Y929410D01*
X808368Y929391D01*
X808430Y929367D01*
X808535Y929348D01*
X808695Y929274D01*
X808745Y929262D01*
X808782Y929249D01*
X815042Y929237D01*
X815239Y929249D01*
X815363Y929262D01*
X815431Y929280D01*
X815511Y929311D01*
X815573Y929336D01*
X815672Y929360D01*
X815733Y929385D01*
X815758Y929410D01*
X815894Y929484D01*
X815993Y929583D01*
X816017Y929595D01*
X816085Y929663D01*
X816147Y929774D01*
X816209Y929836D01*
X816246Y929898D01*
X816271Y929959D01*
X816326Y930052D01*
X816351Y930114D01*
X816375Y930249D01*
X816388Y930348D01*
X816400Y930484D01*
X816413Y945338D01*
X816406Y945504D01*
X816419Y945554D01*
X816437Y945572D01*
X816480Y945603D01*
X816554Y945615D01*
X819487Y945609D01*
X819524Y945622D01*
X819629Y945615D01*
D02*
G37*
G36*
X783779Y945585D02*
X783834Y945517D01*
X783822Y945344D01*
X783834Y945307D01*
X783828Y945301D01*
X783834Y940195D01*
X783822Y939997D01*
X783834Y939960D01*
X783828Y939781D01*
X783816Y936695D01*
X783803Y930447D01*
X783791Y930225D01*
X783779Y930052D01*
X783766Y929916D01*
X783748Y929762D01*
X783723Y929663D01*
X783686Y929539D01*
X783674Y929502D01*
X783661Y929404D01*
X783649Y929354D01*
X783637Y929268D01*
X783606Y929163D01*
X783581Y929101D01*
X783550Y929021D01*
X783513Y928873D01*
X783439Y928749D01*
X783415Y928650D01*
X783390Y928564D01*
X783365Y928539D01*
X783353Y928515D01*
X783334Y928496D01*
X783279Y928342D01*
X783242Y928305D01*
X783229Y928280D01*
X783211Y928261D01*
X783168Y928144D01*
X783137Y928089D01*
X783081Y928021D01*
X783069Y927996D01*
X783044Y927934D01*
X783007Y927897D01*
X782945Y927811D01*
X782933Y927761D01*
X782871Y927700D01*
X782810Y927589D01*
X782748Y927527D01*
X782698Y927440D01*
X782624Y927366D01*
X782612Y927342D01*
X782587Y927317D01*
X782575Y927292D01*
X782532Y927249D01*
X782507Y927237D01*
X782464Y927194D01*
X782451Y927169D01*
X782383Y927113D01*
X782359Y927101D01*
X782291Y927033D01*
X782155Y926946D01*
X782143Y926922D01*
X782112Y926891D01*
X782087Y926879D01*
X782063Y926854D01*
X782038Y926842D01*
X782019Y926823D01*
X782007Y926798D01*
X781988Y926780D01*
X781877Y926718D01*
X781828Y926669D01*
X781717Y926607D01*
X781692Y926595D01*
X781655Y926558D01*
X781569Y926508D01*
X781488Y926477D01*
X781420Y926422D01*
X781322Y926385D01*
X781235Y926360D01*
X781161Y926311D01*
X781099Y926286D01*
X781050Y926274D01*
X780964Y926249D01*
X780902Y926212D01*
X780834Y926169D01*
X780704Y926138D01*
X780655Y926125D01*
X780587Y926107D01*
X780451Y926058D01*
X780217Y926021D01*
X780143Y926008D01*
X779982Y925983D01*
X779920Y925971D01*
X779846Y925959D01*
X779679Y925940D01*
X779642Y925928D01*
X774741Y925916D01*
X774691Y925928D01*
X774660Y925959D01*
X774648Y929157D01*
X774660Y929206D01*
X774716Y929249D01*
X779445Y929262D01*
X779531Y929274D01*
X779636Y929305D01*
X779791Y929360D01*
X779852Y929385D01*
X779877Y929410D01*
X780038Y929496D01*
X780124Y929583D01*
X780149Y929595D01*
X780167Y929613D01*
X780229Y929700D01*
X780241Y929725D01*
X780309Y929793D01*
X780340Y929873D01*
X780414Y930033D01*
X780439Y930095D01*
X780451Y930243D01*
X780463Y930280D01*
X780476Y935194D01*
X780463Y935429D01*
X780451Y935553D01*
X780439Y935602D01*
X780414Y935664D01*
X780340Y935799D01*
X780315Y935861D01*
X780303Y935886D01*
X780254Y935935D01*
X780217Y935997D01*
X780180Y936034D01*
X780167Y936059D01*
X780149Y936065D01*
X780099Y936114D01*
X780075Y936127D01*
X780001Y936201D01*
X779914Y936250D01*
X779889Y936263D01*
X779852Y936300D01*
X779766Y936349D01*
X779667Y936361D01*
X779587Y936392D01*
X779538Y936404D01*
X779457Y936423D01*
X779420Y936435D01*
X774741Y936448D01*
X774691Y936460D01*
X774660Y936491D01*
X774648Y939701D01*
X774660Y939751D01*
X774697Y939775D01*
X774747Y939788D01*
X778198Y939781D01*
X778210D01*
X780229Y939788D01*
X780383Y939781D01*
X780445Y939806D01*
X780463Y939837D01*
X780476Y945517D01*
X780488Y945566D01*
X780519Y945585D01*
X780562Y945603D01*
X780636Y945615D01*
X783421Y945609D01*
X783692Y945622D01*
X783779Y945585D01*
D02*
G37*
G36*
X772493Y939769D02*
X772512Y939726D01*
X772487Y939677D01*
X772456Y939658D01*
X772413Y939627D01*
X772401Y939602D01*
X772364Y939565D01*
X772277Y939454D01*
X772265Y939430D01*
X772240Y939405D01*
X772154Y939294D01*
X772141Y939269D01*
X772067Y939195D01*
X772030Y939133D01*
X771981Y939084D01*
X771895Y938973D01*
X771888Y938967D01*
X771851Y938930D01*
X771796Y938862D01*
X771783Y938837D01*
X771734Y938788D01*
X771672Y938701D01*
X771660Y938676D01*
X771617Y938633D01*
X771561Y938565D01*
X771549Y938541D01*
X771475Y938466D01*
X771438Y938405D01*
X771382Y938349D01*
X771327Y938281D01*
X771296Y938238D01*
X771253Y938207D01*
X771203Y938121D01*
X771129Y938047D01*
X771080Y937960D01*
X771024Y937905D01*
X770968Y937837D01*
X770956Y937812D01*
X770901Y937757D01*
X770845Y937689D01*
X770833Y937664D01*
X770814Y937645D01*
X770789Y937633D01*
X770734Y937553D01*
X770722Y937528D01*
X770672Y937479D01*
X770610Y937392D01*
X770598Y937368D01*
X770524Y937293D01*
X770487Y937232D01*
X770431Y937176D01*
X770376Y937108D01*
X770345Y937065D01*
X770320Y937053D01*
X770252Y936960D01*
X770240Y936935D01*
X770221Y936917D01*
X770197Y936905D01*
X770141Y936824D01*
X770129Y936800D01*
X770104Y936775D01*
X770018Y936664D01*
X770005Y936639D01*
X769931Y936565D01*
X769894Y936503D01*
X769863Y936472D01*
X769839Y936460D01*
X769796Y936404D01*
X769783Y936380D01*
X769746Y936343D01*
X769660Y936232D01*
X769647Y936207D01*
X769586Y936145D01*
X769536Y936059D01*
X769481Y936003D01*
X769425Y935935D01*
X769413Y935911D01*
X769382Y935880D01*
X769357Y935867D01*
X769326Y935824D01*
X769314Y935799D01*
X769240Y935725D01*
X769203Y935664D01*
X769178Y935639D01*
X769166Y935614D01*
X769104Y935553D01*
X769055Y935466D01*
X768999Y935411D01*
X768944Y935343D01*
X768931Y935318D01*
X768913Y935299D01*
X768888Y935287D01*
X768857Y935244D01*
X768845Y935219D01*
X768758Y935133D01*
X768721Y935071D01*
X768684Y935034D01*
X768598Y934923D01*
X768586Y934898D01*
X768536Y934849D01*
X768474Y934762D01*
X768462Y934738D01*
X768382Y934657D01*
X768332Y934583D01*
X768308Y934571D01*
X768252Y934503D01*
X768240Y934478D01*
X768203Y934441D01*
X768116Y934330D01*
X768104Y934305D01*
X768055Y934256D01*
X767993Y934170D01*
X767980Y934145D01*
X767894Y934059D01*
X767882Y934034D01*
X767826Y933978D01*
X767771Y933910D01*
X767758Y933886D01*
X767684Y933812D01*
X767647Y933750D01*
X767573Y933676D01*
X767524Y933589D01*
X767449Y933515D01*
X767412Y933454D01*
X767326Y933367D01*
X767289Y933305D01*
X767234Y933250D01*
X767178Y933182D01*
X767166Y933157D01*
X767104Y933095D01*
X767042Y933009D01*
X767030Y932984D01*
X766999Y932953D01*
X766974Y932941D01*
X766968Y932923D01*
X766943Y932898D01*
X766931Y932787D01*
X766956Y932725D01*
X766999Y932682D01*
X767024Y932670D01*
X767042Y932639D01*
X767054Y932614D01*
X767141Y932527D01*
X767178Y932466D01*
X767264Y932379D01*
X767314Y932293D01*
X767357Y932250D01*
X767412Y932182D01*
X767425Y932157D01*
X767499Y932083D01*
X767536Y932021D01*
X767604Y931953D01*
X767660Y931885D01*
X767672Y931861D01*
X767715Y931817D01*
X767771Y931750D01*
X767783Y931725D01*
X767814Y931694D01*
X767869Y931626D01*
X767906Y931564D01*
X767962Y931509D01*
X768018Y931441D01*
X768030Y931416D01*
X768110Y931336D01*
X768159Y931262D01*
X768184Y931249D01*
X768203Y931231D01*
X768240Y931169D01*
X768314Y931095D01*
X768376Y931009D01*
X768388Y930984D01*
X768437Y930935D01*
X768499Y930848D01*
X768511Y930824D01*
X768530Y930805D01*
X768555Y930793D01*
X768598Y930737D01*
X768610Y930712D01*
X768666Y930657D01*
X768721Y930589D01*
X768734Y930564D01*
X768777Y930521D01*
X768802Y930509D01*
X768845Y930428D01*
X768888Y930385D01*
X768944Y930317D01*
X768956Y930293D01*
X768981Y930268D01*
X768993Y930243D01*
X769055Y930182D01*
X769092Y930120D01*
X769178Y930033D01*
X769191Y930009D01*
X769215Y929984D01*
X769228Y929959D01*
X769246Y929953D01*
X769326Y929848D01*
X769339Y929823D01*
X769357Y929817D01*
X769376Y929799D01*
X769437Y929712D01*
X769450Y929688D01*
X769511Y929626D01*
X769542Y929583D01*
X769592Y929509D01*
X769616Y929496D01*
X769660Y929441D01*
X769672Y929416D01*
X769740Y929348D01*
X769796Y929280D01*
X769808Y929255D01*
X769826Y929237D01*
X769851Y929225D01*
X769907Y929144D01*
X769919Y929120D01*
X769993Y929046D01*
X770042Y928959D01*
X770098Y928904D01*
X770154Y928836D01*
X770166Y928811D01*
X770221Y928755D01*
X770277Y928688D01*
X770289Y928663D01*
X770320Y928644D01*
X770376Y928576D01*
X770388Y928552D01*
X770450Y928490D01*
X770512Y928403D01*
X770524Y928379D01*
X770586Y928317D01*
X770623Y928255D01*
X770678Y928200D01*
X770734Y928132D01*
X770746Y928107D01*
X770802Y928052D01*
X770857Y927984D01*
X770870Y927959D01*
X770925Y927903D01*
X770981Y927835D01*
X770993Y927811D01*
X771012Y927792D01*
X771036Y927780D01*
X771092Y927700D01*
X771104Y927675D01*
X771129Y927650D01*
X771141Y927626D01*
X771160Y927607D01*
X771216Y927539D01*
X771228Y927514D01*
X771314Y927428D01*
X771327Y927403D01*
X771413Y927317D01*
X771450Y927255D01*
X771499Y927206D01*
X771586Y927095D01*
X771598Y927070D01*
X771629Y927039D01*
X771685Y926971D01*
X771697Y926946D01*
X771753Y926891D01*
X771808Y926823D01*
X771821Y926798D01*
X771895Y926724D01*
X771932Y926663D01*
X771987Y926607D01*
X772043Y926539D01*
X772055Y926514D01*
X772129Y926440D01*
X772166Y926379D01*
X772203Y926341D01*
X772290Y926230D01*
X772302Y926206D01*
X772376Y926132D01*
X772388Y926107D01*
X772432Y926064D01*
X772456Y926051D01*
X772512Y925983D01*
X772500Y925946D01*
X772481Y925928D01*
X768530Y925916D01*
X768444Y925953D01*
X768419Y925965D01*
X768363Y926045D01*
X768351Y926070D01*
X768314Y926107D01*
X768227Y926218D01*
X768215Y926243D01*
X768184Y926261D01*
X768129Y926329D01*
X768116Y926354D01*
X768061Y926409D01*
X768005Y926477D01*
X767974Y926520D01*
X767950Y926533D01*
X767931Y926551D01*
X767882Y926638D01*
X767851Y926669D01*
X767795Y926737D01*
X767758Y926798D01*
X767703Y926854D01*
X767647Y926922D01*
X767635Y926946D01*
X767579Y927002D01*
X767524Y927070D01*
X767511Y927095D01*
X767474Y927119D01*
X767412Y927206D01*
X767400Y927231D01*
X767338Y927292D01*
X767308Y927336D01*
X767258Y927410D01*
X767234Y927422D01*
X767196Y927471D01*
X767147Y927545D01*
X767104Y927576D01*
X767092Y927601D01*
X767067Y927626D01*
X767054Y927650D01*
X766980Y927724D01*
X766943Y927786D01*
X766894Y927835D01*
X766807Y927947D01*
X766795Y927971D01*
X766746Y928021D01*
X766715Y928064D01*
X766665Y928138D01*
X766641Y928150D01*
X766598Y928206D01*
X766585Y928231D01*
X766517Y928298D01*
X766462Y928366D01*
X766449Y928391D01*
X766406Y928434D01*
X766351Y928502D01*
X766338Y928527D01*
X766314Y928552D01*
X766227Y928663D01*
X766215Y928688D01*
X766141Y928762D01*
X766104Y928823D01*
X766048Y928879D01*
X765993Y928947D01*
X765980Y928971D01*
X765949Y929002D01*
X765925Y929015D01*
X765894Y929058D01*
X765882Y929083D01*
X765795Y929169D01*
X765746Y929255D01*
X765671Y929330D01*
X765622Y929416D01*
X765542Y929496D01*
X765492Y929570D01*
X765468Y929583D01*
X765412Y929651D01*
X765400Y929675D01*
X765326Y929749D01*
X765289Y929811D01*
X765264Y929836D01*
X765252Y929861D01*
X765221Y929891D01*
X765165Y929959D01*
X765153Y929984D01*
X765097Y930040D01*
X765042Y930107D01*
X765030Y930132D01*
X764980Y930182D01*
X764943Y930243D01*
X764900Y930286D01*
X764838Y930299D01*
X764795Y930256D01*
X764782Y930231D01*
X764752Y930200D01*
X764696Y930132D01*
X764684Y930107D01*
X764628Y930052D01*
X764573Y929984D01*
X764560Y929959D01*
X764486Y929885D01*
X764449Y929823D01*
X764412Y929786D01*
X764326Y929675D01*
X764313Y929651D01*
X764239Y929576D01*
X764202Y929515D01*
X764171Y929484D01*
X764147Y929472D01*
X764116Y929428D01*
X764103Y929404D01*
X764054Y929354D01*
X763968Y929243D01*
X763955Y929218D01*
X763931Y929194D01*
X763844Y929083D01*
X763832Y929058D01*
X763789Y929015D01*
X763733Y928947D01*
X763721Y928922D01*
X763634Y928836D01*
X763622Y928811D01*
X763566Y928755D01*
X763511Y928688D01*
X763498Y928663D01*
X763437Y928601D01*
X763375Y928515D01*
X763363Y928490D01*
X763301Y928428D01*
X763264Y928366D01*
X763239Y928342D01*
X763227Y928317D01*
X763208Y928311D01*
X763153Y928243D01*
X763140Y928218D01*
X763085Y928163D01*
X763029Y928095D01*
X763017Y928070D01*
X762974Y928027D01*
X762918Y927959D01*
X762906Y927934D01*
X762832Y927860D01*
X762782Y927774D01*
X762727Y927718D01*
X762671Y927650D01*
X762659Y927626D01*
X762579Y927545D01*
X762529Y927471D01*
X762486Y927440D01*
X762449Y927379D01*
X762424Y927354D01*
X762412Y927329D01*
X762393Y927311D01*
X762369Y927298D01*
X762313Y927206D01*
X762239Y927132D01*
X762190Y927045D01*
X762134Y926990D01*
X762078Y926922D01*
X762066Y926897D01*
X762048Y926879D01*
X762004Y926848D01*
X761967Y926786D01*
X761918Y926737D01*
X761832Y926626D01*
X761819Y926601D01*
X761770Y926551D01*
X761739Y926508D01*
X761690Y926434D01*
X761665Y926422D01*
X761622Y926366D01*
X761609Y926341D01*
X761585Y926317D01*
X761572Y926292D01*
X761554Y926286D01*
X761523Y926255D01*
X761486Y926193D01*
X761430Y926138D01*
X761375Y926070D01*
X761362Y926045D01*
X761301Y925983D01*
X761233Y925928D01*
X757294Y925916D01*
X757238Y925934D01*
X757226Y925983D01*
X757245Y926039D01*
X757269Y926051D01*
X757337Y926119D01*
X757349Y926144D01*
X757374Y926169D01*
X757461Y926280D01*
X757473Y926304D01*
X757516Y926348D01*
X757572Y926416D01*
X757584Y926440D01*
X757609Y926465D01*
X757621Y926490D01*
X757640Y926496D01*
X757695Y926564D01*
X757708Y926588D01*
X757794Y926675D01*
X757806Y926700D01*
X757831Y926724D01*
X757843Y926749D01*
X757862Y926768D01*
X757887Y926780D01*
X757942Y926872D01*
X757979Y926909D01*
X758066Y927021D01*
X758078Y927045D01*
X758121Y927088D01*
X758177Y927156D01*
X758208Y927200D01*
X758232Y927212D01*
X758251Y927231D01*
X758288Y927292D01*
X758344Y927348D01*
X758399Y927416D01*
X758411Y927440D01*
X758448Y927477D01*
X758535Y927589D01*
X758547Y927613D01*
X758590Y927656D01*
X758646Y927724D01*
X758658Y927749D01*
X758732Y927823D01*
X758770Y927885D01*
X758868Y927984D01*
X758881Y928008D01*
X758942Y928070D01*
X759004Y928157D01*
X759016Y928181D01*
X759066Y928231D01*
X759128Y928317D01*
X759140Y928342D01*
X759220Y928422D01*
X759269Y928496D01*
X759294Y928509D01*
X759350Y928576D01*
X759362Y928601D01*
X759436Y928675D01*
X759473Y928737D01*
X759523Y928786D01*
X759609Y928897D01*
X759621Y928922D01*
X759683Y928984D01*
X759720Y929046D01*
X759776Y929101D01*
X759831Y929169D01*
X759844Y929194D01*
X759899Y929249D01*
X759955Y929317D01*
X759967Y929342D01*
X759998Y929373D01*
X760023Y929385D01*
X760078Y929478D01*
X760115Y929515D01*
X760202Y929626D01*
X760214Y929651D01*
X760288Y929725D01*
X760325Y929786D01*
X760356Y929817D01*
X760381Y929830D01*
X760412Y929873D01*
X760424Y929898D01*
X760480Y929953D01*
X760535Y930021D01*
X760547Y930046D01*
X760597Y930095D01*
X760683Y930206D01*
X760696Y930231D01*
X760726Y930262D01*
X760782Y930330D01*
X760794Y930354D01*
X760838Y930398D01*
X760893Y930465D01*
X760906Y930490D01*
X760998Y930583D01*
X761048Y930657D01*
X761072Y930669D01*
X761140Y930762D01*
X761152Y930787D01*
X761189Y930824D01*
X761276Y930935D01*
X761288Y930959D01*
X761307Y930978D01*
X761331Y930990D01*
X761387Y931070D01*
X761399Y931095D01*
X761418Y931114D01*
X761443Y931126D01*
X761473Y931169D01*
X761486Y931194D01*
X761572Y931280D01*
X761609Y931342D01*
X761659Y931392D01*
X761745Y931503D01*
X761758Y931527D01*
X761819Y931589D01*
X761856Y931651D01*
X761930Y931725D01*
X761967Y931787D01*
X762066Y931885D01*
X762078Y931910D01*
X762103Y931935D01*
X762115Y931960D01*
X762134Y931966D01*
X762165Y931997D01*
X762214Y932083D01*
X762251Y932120D01*
X762338Y932231D01*
X762350Y932256D01*
X762393Y932299D01*
X762449Y932367D01*
X762461Y932392D01*
X762548Y932478D01*
X762560Y932503D01*
X762616Y932558D01*
X762671Y932626D01*
X762683Y932651D01*
X762782Y932750D01*
X762795Y932849D01*
X762782Y932898D01*
X762764Y932916D01*
X762739Y932929D01*
X762659Y933034D01*
X762646Y933058D01*
X762585Y933120D01*
X762548Y933182D01*
X762492Y933237D01*
X762437Y933305D01*
X762424Y933330D01*
X762350Y933404D01*
X762313Y933466D01*
X762258Y933521D01*
X762202Y933589D01*
X762190Y933614D01*
X762115Y933688D01*
X762066Y933774D01*
X761992Y933849D01*
X761955Y933910D01*
X761899Y933966D01*
X761844Y934034D01*
X761832Y934059D01*
X761776Y934114D01*
X761720Y934182D01*
X761708Y934207D01*
X761671Y934244D01*
X761585Y934355D01*
X761572Y934380D01*
X761541Y934410D01*
X761486Y934478D01*
X761473Y934503D01*
X761430Y934546D01*
X761375Y934614D01*
X761362Y934639D01*
X761307Y934694D01*
X761251Y934762D01*
X761239Y934787D01*
X761208Y934818D01*
X761183Y934830D01*
X761128Y934923D01*
X761054Y934997D01*
X761004Y935083D01*
X760949Y935139D01*
X760893Y935207D01*
X760881Y935231D01*
X760825Y935287D01*
X760770Y935355D01*
X760757Y935380D01*
X760739Y935398D01*
X760714Y935411D01*
X760659Y935491D01*
X760646Y935516D01*
X760584Y935577D01*
X760523Y935664D01*
X760510Y935688D01*
X760449Y935750D01*
X760412Y935812D01*
X760356Y935867D01*
X760301Y935935D01*
X760288Y935960D01*
X760208Y936040D01*
X760158Y936114D01*
X760134Y936127D01*
X760066Y936219D01*
X760054Y936244D01*
X760029Y936269D01*
X759942Y936380D01*
X759930Y936404D01*
X759856Y936479D01*
X759819Y936540D01*
X759733Y936627D01*
X759720Y936651D01*
X759696Y936676D01*
X759683Y936701D01*
X759665Y936707D01*
X759584Y936812D01*
X759572Y936837D01*
X759510Y936898D01*
X759473Y936960D01*
X759448Y936985D01*
X759436Y937010D01*
X759399Y937034D01*
X759368Y937077D01*
X759319Y937151D01*
X759294Y937164D01*
X759251Y937219D01*
X759239Y937244D01*
X759183Y937300D01*
X759128Y937368D01*
X759115Y937392D01*
X759053Y937454D01*
X758992Y937540D01*
X758979Y937565D01*
X758930Y937615D01*
X758868Y937701D01*
X758856Y937726D01*
X758807Y937763D01*
X758794Y937787D01*
X758770Y937812D01*
X758757Y937837D01*
X758701Y937892D01*
X758646Y937960D01*
X758634Y937985D01*
X758597Y938022D01*
X758510Y938133D01*
X758498Y938158D01*
X758448Y938207D01*
X758418Y938250D01*
X758368Y938325D01*
X758344Y938337D01*
X758300Y938392D01*
X758288Y938417D01*
X758232Y938473D01*
X758177Y938541D01*
X758164Y938565D01*
X758090Y938639D01*
X758053Y938701D01*
X758016Y938738D01*
X757930Y938849D01*
X757917Y938874D01*
X757874Y938917D01*
X757819Y938985D01*
X757806Y939010D01*
X757732Y939084D01*
X757695Y939146D01*
X757640Y939201D01*
X757584Y939269D01*
X757572Y939294D01*
X757485Y939380D01*
X757436Y939467D01*
X757405Y939498D01*
X757349Y939565D01*
X757337Y939590D01*
X757294Y939633D01*
X757269Y939646D01*
X757226Y939689D01*
X757232Y939757D01*
X757275Y939788D01*
X761011Y939781D01*
X761134Y939794D01*
X761220Y939781D01*
X761251Y939751D01*
X761264Y939726D01*
X761319Y939670D01*
X761375Y939602D01*
X761387Y939578D01*
X761418Y939547D01*
X761443Y939535D01*
X761498Y939454D01*
X761510Y939430D01*
X761560Y939380D01*
X761622Y939294D01*
X761634Y939269D01*
X761677Y939226D01*
X761733Y939158D01*
X761745Y939133D01*
X761819Y939059D01*
X761856Y938997D01*
X761912Y938942D01*
X761967Y938874D01*
X761998Y938831D01*
X762023Y938818D01*
X762041Y938800D01*
X762091Y938713D01*
X762140Y938664D01*
X762153Y938639D01*
X762177Y938615D01*
X762214Y938553D01*
X762270Y938497D01*
X762326Y938429D01*
X762338Y938405D01*
X762393Y938349D01*
X762449Y938281D01*
X762461Y938257D01*
X762498Y938232D01*
X762560Y938145D01*
X762572Y938121D01*
X762597Y938096D01*
X762683Y937985D01*
X762696Y937960D01*
X762770Y937886D01*
X762807Y937824D01*
X762893Y937738D01*
X762906Y937713D01*
X762931Y937689D01*
X762943Y937664D01*
X762980Y937639D01*
X763011Y937596D01*
X763060Y937522D01*
X763085Y937510D01*
X763165Y937392D01*
X763177Y937368D01*
X763221Y937324D01*
X763276Y937256D01*
X763288Y937232D01*
X763363Y937158D01*
X763400Y937096D01*
X763430Y937065D01*
X763455Y937053D01*
X763498Y936997D01*
X763511Y936973D01*
X763585Y936898D01*
X763634Y936812D01*
X763659Y936787D01*
X763745Y936676D01*
X763758Y936651D01*
X763801Y936608D01*
X763857Y936540D01*
X763869Y936516D01*
X763924Y936460D01*
X763980Y936392D01*
X763992Y936367D01*
X764023Y936337D01*
X764048Y936324D01*
X764103Y936244D01*
X764116Y936219D01*
X764177Y936158D01*
X764227Y936071D01*
X764283Y936016D01*
X764338Y935948D01*
X764350Y935923D01*
X764406Y935867D01*
X764462Y935799D01*
X764474Y935775D01*
X764492Y935756D01*
X764517Y935744D01*
X764573Y935664D01*
X764585Y935639D01*
X764622Y935602D01*
X764708Y935491D01*
X764721Y935466D01*
X764776Y935411D01*
X764863Y935349D01*
X764900Y935361D01*
X764943Y935417D01*
X764955Y935441D01*
X765017Y935503D01*
X765067Y935590D01*
X765085Y935608D01*
X765110Y935620D01*
X765153Y935676D01*
X765165Y935701D01*
X765233Y935769D01*
X765289Y935836D01*
X765301Y935861D01*
X765369Y935929D01*
X765418Y936003D01*
X765474Y936071D01*
X765536Y936158D01*
X765548Y936182D01*
X765567Y936201D01*
X765591Y936213D01*
X765635Y936269D01*
X765647Y936293D01*
X765702Y936349D01*
X765758Y936417D01*
X765770Y936441D01*
X765814Y936485D01*
X765869Y936553D01*
X765882Y936577D01*
X765956Y936651D01*
X766005Y936738D01*
X766079Y936812D01*
X766116Y936874D01*
X766172Y936929D01*
X766227Y936997D01*
X766239Y937022D01*
X766295Y937077D01*
X766351Y937145D01*
X766363Y937170D01*
X766400Y937207D01*
X766487Y937318D01*
X766499Y937343D01*
X766530Y937374D01*
X766585Y937442D01*
X766598Y937466D01*
X766672Y937540D01*
X766709Y937602D01*
X766795Y937689D01*
X766832Y937750D01*
X766888Y937806D01*
X766943Y937874D01*
X766956Y937898D01*
X766980Y937923D01*
X766993Y937948D01*
X767011Y937966D01*
X767067Y938034D01*
X767079Y938059D01*
X767122Y938102D01*
X767178Y938170D01*
X767190Y938195D01*
X767246Y938250D01*
X767301Y938318D01*
X767314Y938343D01*
X767388Y938417D01*
X767425Y938479D01*
X767499Y938553D01*
X767548Y938639D01*
X767604Y938695D01*
X767660Y938763D01*
X767672Y938788D01*
X767746Y938862D01*
X767783Y938923D01*
X767839Y938979D01*
X767894Y939047D01*
X767906Y939072D01*
X767943Y939109D01*
X768030Y939220D01*
X768042Y939244D01*
X768104Y939306D01*
X768141Y939368D01*
X768197Y939423D01*
X768252Y939491D01*
X768264Y939516D01*
X768351Y939602D01*
X768363Y939627D01*
X768400Y939664D01*
X768413Y939689D01*
X768437Y939701D01*
X768450Y939726D01*
X768487Y939763D01*
X768549Y939788D01*
X772234Y939781D01*
X772432Y939794D01*
X772493Y939769D01*
D02*
G37*
G36*
X847601Y939757D02*
X847799Y939744D01*
X848052Y939714D01*
X848126Y939701D01*
X848305Y939683D01*
X848392Y939670D01*
X848552Y939658D01*
X848639Y939633D01*
X848719Y939602D01*
X848781Y939578D01*
X848830Y939565D01*
X848978Y939541D01*
X849046Y939522D01*
X849139Y939467D01*
X849201Y939442D01*
X849268Y939423D01*
X849355Y939399D01*
X849429Y939349D01*
X849491Y939325D01*
X849540Y939312D01*
X849626Y939275D01*
X849651Y939263D01*
X849688Y939226D01*
X849750Y939201D01*
X849861Y939152D01*
X849948Y939090D01*
X849997Y939078D01*
X850059Y939053D01*
X850108Y939004D01*
X850262Y938911D01*
X850275Y938886D01*
X850404Y938818D01*
X850423Y938800D01*
X850491Y938744D01*
X850577Y938695D01*
X850627Y938633D01*
X850651Y938621D01*
X850676Y938596D01*
X850701Y938584D01*
X850732Y938553D01*
X850744Y938528D01*
X850775Y938497D01*
X850799Y938485D01*
X850911Y938374D01*
X850935Y938362D01*
X850966Y938331D01*
X850978Y938306D01*
X851090Y938195D01*
X851102Y938170D01*
X851151Y938121D01*
X851238Y938010D01*
X851250Y937985D01*
X851300Y937936D01*
X851349Y937849D01*
X851411Y937787D01*
X851423Y937763D01*
X851441Y937744D01*
X851472Y937664D01*
X851522Y937615D01*
X851534Y937590D01*
X851553Y937571D01*
X851583Y937491D01*
X851608Y937429D01*
X851645Y937392D01*
X851695Y937306D01*
X851707Y937232D01*
X851756Y937158D01*
X851787Y937114D01*
X851818Y937034D01*
X851843Y936935D01*
X851892Y936861D01*
X851911Y936818D01*
X851942Y936689D01*
X851954Y936639D01*
X851985Y936559D01*
X852022Y936460D01*
X852034Y936411D01*
X852053Y936306D01*
X852077Y936158D01*
X852102Y936071D01*
X852114Y936022D01*
X852139Y935960D01*
X852151Y935775D01*
X852164Y935738D01*
X852176Y926082D01*
X852188Y926045D01*
X852176Y925959D01*
X852145Y925928D01*
X848898Y925916D01*
X848879Y925934D01*
X848849Y925977D01*
X848855Y934676D01*
X848842Y935355D01*
X848830Y935404D01*
X848818Y935491D01*
X848793Y935553D01*
Y935565D01*
X848787Y935571D01*
X848744Y935688D01*
X848731Y935738D01*
X848707Y935824D01*
X848688Y935843D01*
X848608Y935960D01*
X848596Y935985D01*
X848577Y936003D01*
X848552Y936016D01*
X848534Y936034D01*
X848521Y936059D01*
X848454Y936127D01*
X848429Y936139D01*
X848410Y936158D01*
X848398Y936182D01*
X848367Y936213D01*
X848342Y936226D01*
X848151Y936330D01*
X847972Y936361D01*
X847923Y936374D01*
X847855Y936392D01*
X847793Y936404D01*
X847676Y936423D01*
X847639Y936435D01*
X840132Y936448D01*
X840094Y936435D01*
X840008Y936448D01*
X839971Y936485D01*
X839959Y936534D01*
X839965Y939689D01*
X839977Y939738D01*
X839996Y939757D01*
X847478Y939769D01*
X847601Y939757D01*
D02*
G37*
G36*
X833822D02*
X833871Y939744D01*
X833939Y939726D01*
X834063Y939701D01*
X834137Y939689D01*
X834291Y939670D01*
X834378Y939658D01*
X834476Y939633D01*
X834544Y939602D01*
X834606Y939578D01*
X834736Y939547D01*
X834835Y939522D01*
X834964Y939454D01*
X835032Y939436D01*
X835081Y939423D01*
X835168Y939399D01*
X835193Y939374D01*
X835279Y939325D01*
X835365Y939300D01*
X835427Y939275D01*
X835452Y939263D01*
X835483Y939232D01*
X835600Y939189D01*
X835662Y939164D01*
X835723Y939102D01*
X835785Y939078D01*
X835872Y939041D01*
X835921Y938991D01*
X835983Y938954D01*
X836038Y938899D01*
X836106Y938843D01*
X836131Y938831D01*
X836217Y938744D01*
X836242Y938732D01*
X836353Y938621D01*
X836378Y938608D01*
X836477Y938510D01*
X836501Y938497D01*
X836538Y938460D01*
X836563Y938448D01*
X836594Y938417D01*
X836606Y938392D01*
X836643Y938355D01*
X836656Y938331D01*
X836748Y938238D01*
X836798Y938164D01*
X836822Y938152D01*
X836878Y938084D01*
X836890Y938059D01*
X836964Y937985D01*
X837014Y937898D01*
X837026Y937874D01*
X837076Y937824D01*
X837137Y937713D01*
X837187Y937664D01*
X837236Y937578D01*
X837261Y937516D01*
X837298Y937479D01*
X837341Y937411D01*
X837378Y937312D01*
X837440Y937238D01*
X837471Y937158D01*
X837483Y937108D01*
X837508Y937047D01*
X837520Y937022D01*
X837551Y936991D01*
X837576Y936929D01*
X837594Y936849D01*
X837619Y936787D01*
X837668Y936676D01*
X837693Y936614D01*
X837705Y936516D01*
X837718Y936466D01*
X837748Y936361D01*
X837785Y936263D01*
X837810Y936114D01*
X837829Y935923D01*
X837847Y935756D01*
X837860Y935633D01*
X837872Y935435D01*
X837890Y935170D01*
X837903Y935133D01*
X837897Y930595D01*
X837872Y930249D01*
X837860Y930040D01*
X837841Y929861D01*
X837829Y929823D01*
Y929811D01*
Y929774D01*
X837816Y929651D01*
X837798Y929484D01*
X837779Y929404D01*
X837736Y929299D01*
X837724Y929249D01*
X837705Y929132D01*
X837681Y929033D01*
X837656Y928947D01*
X837637Y928928D01*
X837594Y928811D01*
X837582Y928762D01*
X837545Y928675D01*
X837483Y928564D01*
X837458Y928478D01*
X837434Y928416D01*
X837378Y928360D01*
X837335Y928243D01*
X837285Y928194D01*
X837236Y928107D01*
X837205Y928039D01*
X837150Y927971D01*
X837100Y927885D01*
X837088Y927860D01*
X837026Y927798D01*
X836977Y927712D01*
X836915Y927650D01*
X836878Y927589D01*
X836853Y927564D01*
X836841Y927539D01*
X836779Y927477D01*
X836767Y927453D01*
X836742Y927428D01*
X836730Y927403D01*
X836699Y927373D01*
X836674Y927360D01*
X836668Y927342D01*
X836643Y927317D01*
X836631Y927292D01*
X836575Y927237D01*
X836551Y927224D01*
X836508Y927181D01*
X836495Y927156D01*
X836440Y927113D01*
X836415Y927101D01*
X836359Y927045D01*
X836292Y926990D01*
X836267Y926977D01*
X836199Y926909D01*
X836063Y926823D01*
X836051Y926798D01*
X836032Y926780D01*
X835946Y926730D01*
X835921Y926718D01*
X835884Y926681D01*
X835841Y926650D01*
X835723Y926607D01*
X835705Y926588D01*
X835637Y926533D01*
X835575Y926508D01*
X835489Y926471D01*
X835464Y926459D01*
X835433Y926428D01*
X835316Y926385D01*
X835230Y926360D01*
X835205Y926335D01*
X835162Y926304D01*
X835100Y926280D01*
X834995Y926261D01*
X834933Y926237D01*
X834841Y926181D01*
X834791Y926169D01*
X834699Y926150D01*
X834600Y926125D01*
X834532Y926095D01*
X834433Y926058D01*
X834384Y926045D01*
X834230Y926027D01*
X834057Y926002D01*
X833989Y925983D01*
X833927Y925971D01*
X833847Y925953D01*
X833810Y925940D01*
X833661Y925928D01*
X833624Y925916D01*
X826667Y925922D01*
X826556Y925934D01*
X826482Y925946D01*
X826284Y925996D01*
X826130Y926027D01*
X826080Y926039D01*
X825994Y926051D01*
X825945Y926064D01*
X825883Y926088D01*
X825796Y926125D01*
X825698Y926150D01*
X825611Y926162D01*
X825525Y926199D01*
X825500Y926212D01*
X825481Y926230D01*
X825383Y926267D01*
X825303Y926286D01*
X825216Y926323D01*
X825105Y926385D01*
X825055Y926397D01*
X824988Y926428D01*
X824920Y926484D01*
X824821Y926520D01*
X824759Y926545D01*
X824704Y926601D01*
X824586Y926644D01*
X824537Y926693D01*
X824401Y926768D01*
X824352Y926817D01*
X824241Y926879D01*
X824216Y926891D01*
X824154Y926953D01*
X824129Y926965D01*
X824006Y927088D01*
X823981Y927101D01*
X823938Y927144D01*
X823926Y927169D01*
X823907Y927175D01*
X823870Y927212D01*
X823827Y927243D01*
X823815Y927268D01*
X823784Y927298D01*
X823759Y927311D01*
X823704Y927366D01*
X823691Y927391D01*
X823648Y927434D01*
X823592Y927502D01*
X823580Y927527D01*
X823494Y927613D01*
X823481Y927638D01*
X823426Y927693D01*
X823370Y927761D01*
X823358Y927786D01*
X823296Y927848D01*
X823234Y927959D01*
X823173Y928021D01*
X823160Y928045D01*
X823142Y928064D01*
X823099Y928181D01*
X823068Y928212D01*
X823018Y928286D01*
X823000Y928366D01*
X822969Y928434D01*
X822907Y928533D01*
X822889Y928626D01*
X822864Y928688D01*
X822821Y928768D01*
X822784Y928867D01*
X822765Y928947D01*
X822753Y928996D01*
X822722Y929076D01*
X822685Y929175D01*
X822673Y929225D01*
X822654Y929330D01*
X822629Y929502D01*
X822617Y929552D01*
X822598Y929620D01*
X822586Y929669D01*
X822568Y929737D01*
X822555Y929774D01*
X822543Y930009D01*
X822531Y930046D01*
X822518Y934985D01*
X822531Y935478D01*
X822555Y935812D01*
X822580Y935911D01*
X822611Y936016D01*
X822623Y936065D01*
X822654Y936244D01*
X822666Y936330D01*
X822703Y936454D01*
X822753Y936577D01*
X822765Y936651D01*
X822777Y936701D01*
X822802Y936787D01*
X822833Y936843D01*
X822870Y936917D01*
X822889Y936985D01*
X822901Y937034D01*
X822932Y937102D01*
X822993Y937201D01*
X823012Y937281D01*
X823043Y937349D01*
X823099Y937417D01*
X823148Y937553D01*
X823216Y937621D01*
X823247Y937701D01*
X823271Y937763D01*
X823333Y937824D01*
X823382Y937911D01*
X823395Y937936D01*
X823426Y937966D01*
X823506Y938084D01*
X823518Y938108D01*
X823537Y938115D01*
X823592Y938183D01*
X823605Y938207D01*
X823648Y938250D01*
X823673Y938263D01*
X823716Y938318D01*
X823728Y938343D01*
X823747Y938362D01*
X823771Y938374D01*
X823802Y938405D01*
X823815Y938429D01*
X823870Y938485D01*
X823913Y938516D01*
X823944Y938559D01*
X823969Y938571D01*
X823994Y938596D01*
X824018Y938608D01*
X824062Y938652D01*
X824074Y938676D01*
X824129Y938720D01*
X824154Y938732D01*
X824228Y938806D01*
X824290Y938843D01*
X824364Y938917D01*
X824451Y938967D01*
X824512Y939028D01*
X824673Y939115D01*
X824697Y939139D01*
X824741Y939170D01*
X824858Y939213D01*
X824889Y939244D01*
X824988Y939306D01*
X825068Y939325D01*
X825161Y939380D01*
X825235Y939417D01*
X825284Y939430D01*
X825364Y939448D01*
X825451Y939510D01*
X825494Y939528D01*
X825562Y939547D01*
X825710Y939572D01*
X825877Y939640D01*
X825926Y939652D01*
X826167Y939683D01*
X826216Y939695D01*
X826303Y939707D01*
X826401Y939732D01*
X826438Y939744D01*
X826537Y939757D01*
X826574Y939769D01*
X833612Y939781D01*
X833822Y939757D01*
D02*
G37*
G36*
X797688Y939763D02*
X797811Y939738D01*
X797910Y939714D01*
X797972Y939701D01*
X798089Y939683D01*
X798176Y939670D01*
X798299Y939658D01*
X798385Y939633D01*
X798453Y939602D01*
X798515Y939578D01*
X798707Y939535D01*
X798793Y939498D01*
X798811Y939479D01*
X798873Y939454D01*
X798923Y939442D01*
X799003Y939423D01*
X799083Y939392D01*
X799157Y939343D01*
X799238Y939312D01*
X799287Y939300D01*
X799349Y939275D01*
X799373Y939250D01*
X799398Y939238D01*
X799417Y939220D01*
X799497Y939189D01*
X799558Y939164D01*
X799583Y939139D01*
X799768Y939041D01*
X799880Y938954D01*
X799904Y938942D01*
X799947Y938899D01*
X800015Y938843D01*
X800040Y938831D01*
X800096Y938775D01*
X800163Y938720D01*
X800188Y938707D01*
X800287Y938608D01*
X800312Y938596D01*
X800367Y938541D01*
X800380Y938516D01*
X800398Y938510D01*
X800423Y938485D01*
X800447Y938473D01*
X800478Y938442D01*
X800491Y938417D01*
X800590Y938318D01*
X800602Y938294D01*
X800670Y938226D01*
X800725Y938158D01*
X800738Y938133D01*
X800756Y938115D01*
X800799Y938084D01*
X800861Y937973D01*
X800880Y937954D01*
X800935Y937886D01*
X800985Y937800D01*
X801059Y937726D01*
X801071Y937701D01*
X801108Y937615D01*
X801145Y937578D01*
X801188Y937510D01*
X801219Y937429D01*
X801256Y937392D01*
X801318Y937281D01*
X801380Y937145D01*
X801423Y937077D01*
X801441Y936997D01*
X801472Y936917D01*
X801522Y936843D01*
X801553Y936763D01*
X801577Y936614D01*
X801620Y936509D01*
X801657Y936411D01*
X801670Y936349D01*
X801695Y936151D01*
X801707Y936077D01*
X801719Y936016D01*
X801744Y935917D01*
X801762Y935812D01*
X801775Y935775D01*
X801787Y935207D01*
X801799Y935170D01*
X801793Y930533D01*
X801781Y930015D01*
X801769Y929891D01*
X801744Y929768D01*
X801719Y929669D01*
X801707Y929607D01*
X801676Y929404D01*
X801664Y929317D01*
X801639Y929218D01*
X801608Y929138D01*
X801583Y929076D01*
X801571Y929027D01*
X801553Y928910D01*
X801503Y928799D01*
X801491Y928774D01*
X801472Y928755D01*
X801441Y928675D01*
X801429Y928626D01*
X801398Y928546D01*
X801349Y928471D01*
X801318Y928391D01*
X801293Y928329D01*
X801275Y928311D01*
X801219Y928243D01*
X801207Y928218D01*
X801170Y928132D01*
X801158Y928107D01*
X801102Y928052D01*
X801071Y927971D01*
X801009Y927910D01*
X800948Y927798D01*
X800886Y927737D01*
X800824Y927626D01*
X800769Y927570D01*
X800713Y927502D01*
X800701Y927477D01*
X800682Y927471D01*
X800657Y927447D01*
X800602Y927379D01*
X800590Y927354D01*
X800571Y927336D01*
X800546Y927323D01*
X800528Y927305D01*
X800515Y927280D01*
X800447Y927212D01*
X800423Y927200D01*
X800324Y927101D01*
X800299Y927088D01*
X800256Y927045D01*
X800244Y927021D01*
X800225Y927014D01*
X800201Y926990D01*
X800176Y926977D01*
X800102Y926903D01*
X800015Y926854D01*
X799954Y926792D01*
X799843Y926730D01*
X799793Y926681D01*
X799768Y926669D01*
X799750Y926650D01*
X799670Y926619D01*
X799521Y926520D01*
X799472Y926508D01*
X799386Y926471D01*
X799342Y926428D01*
X799262Y926397D01*
X799139Y926360D01*
X799120Y926341D01*
X799046Y926292D01*
X798966Y926274D01*
X798867Y926249D01*
X798737Y926181D01*
X798608Y926150D01*
X798509Y926125D01*
X798441Y926095D01*
X798342Y926058D01*
X798163Y926027D01*
X797997Y926008D01*
X797947Y925996D01*
X797886Y925983D01*
X797836Y925971D01*
X797682Y925940D01*
X797645Y925928D01*
X790693Y925916D01*
X790496Y925928D01*
X790446Y925940D01*
X790360Y925953D01*
X790310Y925965D01*
X790242Y925983D01*
X790144Y926008D01*
X790082Y926021D01*
X789952Y926039D01*
X789903Y926051D01*
X789835Y926070D01*
X789773Y926095D01*
X789675Y926132D01*
X789533Y926162D01*
X789446Y926187D01*
X789360Y926249D01*
X789261Y926274D01*
X789156Y926304D01*
X789082Y926354D01*
X788965Y926397D01*
X788903Y926422D01*
X788878Y926434D01*
X788872Y926453D01*
X788767Y926508D01*
X788681Y926545D01*
X788656Y926558D01*
X788631Y926582D01*
X788569Y926619D01*
X788483Y926656D01*
X788458Y926669D01*
X788421Y926706D01*
X788310Y926768D01*
X788261Y926817D01*
X788125Y926891D01*
X788063Y926953D01*
X787958Y927021D01*
X787946Y927045D01*
X787903Y927088D01*
X787878Y927101D01*
X787755Y927224D01*
X787730Y927237D01*
X787711Y927255D01*
X787699Y927280D01*
X787643Y927336D01*
X787619Y927348D01*
X787563Y927416D01*
X787551Y927440D01*
X787532Y927459D01*
X787508Y927471D01*
X787464Y927527D01*
X787452Y927551D01*
X787415Y927589D01*
X787329Y927700D01*
X787316Y927724D01*
X787267Y927774D01*
X787205Y927860D01*
X787193Y927885D01*
X787143Y927934D01*
X787094Y928021D01*
X787001Y928150D01*
X786971Y928231D01*
X786934Y928317D01*
X786890Y928360D01*
X786866Y928422D01*
X786853Y928484D01*
X786835Y928552D01*
X786773Y928638D01*
X786754Y928681D01*
X786736Y928762D01*
X786724Y928811D01*
X786662Y928947D01*
X786631Y929027D01*
X786612Y929169D01*
X786600Y929218D01*
X786569Y929323D01*
X786544Y929385D01*
X786520Y929484D01*
X786507Y929583D01*
X786489Y929774D01*
X786477Y929823D01*
X786458Y929990D01*
X786440Y930107D01*
X786427Y930144D01*
X786415Y930490D01*
X786403Y930527D01*
X786409Y935164D01*
X786421Y935398D01*
X786433Y935509D01*
X786446Y935571D01*
X786483Y935806D01*
X786514Y936071D01*
X786538Y936170D01*
X786557Y936238D01*
X786594Y936337D01*
X786606Y936386D01*
X786625Y936516D01*
X786649Y936614D01*
X786674Y936676D01*
X786693Y936695D01*
X786717Y936756D01*
X786730Y936806D01*
X786748Y936898D01*
X786779Y936966D01*
X786841Y937065D01*
X786859Y937145D01*
X786896Y937232D01*
X786940Y937275D01*
X786971Y937355D01*
X786995Y937442D01*
X787032Y937479D01*
X787094Y937590D01*
X787119Y937652D01*
X787131Y937676D01*
X787168Y937713D01*
X787205Y937775D01*
X787230Y937837D01*
X787291Y937898D01*
X787341Y937985D01*
X787384Y938028D01*
X787464Y938145D01*
X787477Y938170D01*
X787551Y938244D01*
X787563Y938269D01*
X787588Y938294D01*
X787594Y938300D01*
X787600Y938318D01*
X787619Y938325D01*
X787687Y938392D01*
X787699Y938417D01*
X787755Y938473D01*
X787779Y938485D01*
X787810Y938516D01*
X787822Y938541D01*
X787841Y938559D01*
X787866Y938571D01*
X787890Y938596D01*
X787915Y938608D01*
X787971Y938664D01*
X788038Y938720D01*
X788063Y938732D01*
X788137Y938806D01*
X788224Y938855D01*
X788298Y938930D01*
X788360Y938967D01*
X788421Y939028D01*
X788557Y939102D01*
X788582Y939115D01*
X788606Y939139D01*
X788792Y939238D01*
X788878Y939300D01*
X788928Y939312D01*
X789039Y939362D01*
X789063Y939374D01*
X789082Y939392D01*
X789162Y939423D01*
X789249Y939448D01*
X789341Y939504D01*
X789403Y939528D01*
X789452Y939541D01*
X789557Y939559D01*
X789644Y939584D01*
X789724Y939615D01*
X789823Y939652D01*
X789940Y939670D01*
X790107Y939689D01*
X790181Y939701D01*
X790304Y939726D01*
X790354Y939738D01*
X790434Y939757D01*
X790471Y939769D01*
X797521Y939781D01*
X797688Y939763D01*
D02*
G37*
%LPC*%
G36*
X832758Y998398D02*
X780546Y998293D01*
X779598Y997767D01*
X778282Y996872D01*
X778072Y996661D01*
X777967Y996451D01*
X777546Y995819D01*
X777440Y995609D01*
X777019Y994977D01*
X776914Y994240D01*
X776809Y992556D01*
X776914Y957712D01*
X777440Y956765D01*
X777861Y956133D01*
X777967Y955923D01*
X778440Y955344D01*
X779177Y954818D01*
X779914Y954397D01*
X780651Y954081D01*
X781704Y953976D01*
X833706Y954081D01*
X835180Y954923D01*
X836074Y955607D01*
X836180Y955818D01*
X836390Y956028D01*
X836916Y956976D01*
X837232Y957502D01*
X837337Y958239D01*
X837443Y959923D01*
X837337Y994661D01*
X836916Y995398D01*
X836495Y996030D01*
X836180Y996556D01*
X835706Y997135D01*
X835495Y997240D01*
X834864Y997661D01*
X834653Y997767D01*
X834601Y997819D01*
X833916Y998188D01*
X833495Y998293D01*
X832758Y998398D01*
D02*
G37*
%LPD*%
G36*
X809810Y995346D02*
X814968Y995240D01*
X815126Y995082D01*
X815231Y994661D01*
X815126Y993609D01*
X814968Y993451D01*
X814547Y993345D01*
X810810Y993398D01*
X810284Y993187D01*
X810073Y992661D01*
X810179Y990661D01*
X810126Y982398D01*
X810336Y981871D01*
X810758Y981766D01*
X810968Y981871D01*
X811337Y982240D01*
X811442Y982450D01*
X811915Y983029D01*
X819126Y990240D01*
X819231Y990451D01*
X819600Y990819D01*
X820126Y990714D01*
X820495Y990345D01*
X821021Y989187D01*
X821232Y988345D01*
X821495Y987135D01*
X821968Y986240D01*
X822179Y985503D01*
X822284Y984766D01*
X822495Y983819D01*
X822916Y983398D01*
X823232Y982661D01*
X823337Y981608D01*
X823495Y980819D01*
X823863Y980240D01*
X824284Y979292D01*
X824390Y978240D01*
X824495Y977608D01*
X825126Y976661D01*
X825337Y975924D01*
X825442Y974660D01*
X825863Y973924D01*
X826074Y973713D01*
X826284Y973187D01*
X826390Y972134D01*
X826548Y971239D01*
X826705Y971081D01*
X826811Y970871D01*
X827021Y970660D01*
X827337Y969923D01*
X827495Y968397D01*
X827706Y967871D01*
X828074Y967502D01*
X828285Y966976D01*
X828548Y965134D01*
X828916Y964555D01*
X829337Y963607D01*
X829600Y963134D01*
X830021Y963028D01*
X833653Y963081D01*
X834074Y962976D01*
X834390Y962660D01*
X834495Y961818D01*
X834127Y961134D01*
X833706Y961028D01*
X826548Y961134D01*
X826390Y961292D01*
X826284Y961713D01*
X826390Y962765D01*
X826653Y963028D01*
X827916Y963134D01*
X828179Y963397D01*
X828285Y964028D01*
X828021Y964502D01*
X827811Y964607D01*
X827548Y964871D01*
X827337Y965713D01*
X827232Y966450D01*
X827126Y967397D01*
X826916Y967608D01*
X826811Y967818D01*
X826600Y968029D01*
X826390Y968555D01*
X826179Y970029D01*
X826074Y970555D01*
X825547Y971292D01*
X825337Y972029D01*
X825232Y972450D01*
X825126Y973608D01*
X824811Y974134D01*
X824600Y974345D01*
X824390Y974871D01*
X824284Y975292D01*
X824074Y976976D01*
X823600Y977555D01*
X823337Y978134D01*
X823232Y978871D01*
X823074Y980082D01*
X822811Y980450D01*
X822600Y980661D01*
X822284Y981398D01*
X822126Y983029D01*
X821968Y983398D01*
X820968Y984714D01*
X820653Y984819D01*
X820179Y984450D01*
X820074Y984240D01*
X819074Y983240D01*
X818863Y983135D01*
X818652Y982924D01*
X818495Y982871D01*
X818389Y982661D01*
X817916Y982187D01*
X817705Y982082D01*
X816758Y981134D01*
X816547Y981029D01*
X816179Y980661D01*
X816074Y980450D01*
X815600Y980082D01*
X815389Y979977D01*
X815126Y979713D01*
X815021Y979503D01*
X814863Y979345D01*
X814652Y979240D01*
X814442Y979029D01*
X814231Y978924D01*
X813968Y978555D01*
X813705Y978292D01*
X813494Y978187D01*
X812547Y977240D01*
X812337Y977134D01*
X811494Y976292D01*
X811284Y976187D01*
X810284Y975187D01*
X810073Y974345D01*
X810179Y972660D01*
X810126Y962607D01*
X810284Y962239D01*
X810442Y962081D01*
X811179Y961976D01*
X812126Y962081D01*
X812442Y961976D01*
X812863Y962081D01*
X813915Y961976D01*
X814073Y961818D01*
X814284Y961292D01*
X814179Y960449D01*
X813915Y960186D01*
X813179Y960081D01*
X811810Y960186D01*
X808599Y960134D01*
X808073Y960555D01*
X808178Y963818D01*
X808126Y981661D01*
X808178Y983819D01*
Y983924D01*
X808126Y994924D01*
X808336Y995240D01*
X809073Y995451D01*
X809810Y995346D01*
D02*
G37*
G36*
X805968Y995188D02*
X806178Y994661D01*
X806073Y991714D01*
X806126Y975239D01*
X806073Y961818D01*
X806178Y961502D01*
X806073Y960449D01*
X805810Y960186D01*
X805389Y960081D01*
X802441Y960186D01*
X800652Y960081D01*
X800126Y960397D01*
X799968Y960871D01*
X800073Y961607D01*
X800336Y961976D01*
X801073Y962081D01*
X802073Y962028D01*
X802547Y962081D01*
X802862Y961976D01*
X803810Y962081D01*
X804073Y962344D01*
X804178Y963081D01*
X804073Y964450D01*
X804126Y974608D01*
X804020Y975029D01*
X803599Y975660D01*
X803283Y975976D01*
X803073Y976082D01*
X802652Y976503D01*
X802441Y976608D01*
X802178Y976976D01*
X801810Y977240D01*
X801231Y977713D01*
X800968Y978082D01*
X800757Y978187D01*
X800546Y978398D01*
X800336Y978503D01*
X800178Y978661D01*
X800073Y978871D01*
X799810Y979134D01*
X799599Y979240D01*
X798652Y980187D01*
X798441Y980292D01*
X797494Y981240D01*
X797283Y981345D01*
X796336Y982292D01*
X796125Y982398D01*
X795967Y982555D01*
X795862Y982766D01*
X795494Y983135D01*
X795283Y983240D01*
X794704Y983714D01*
X794494Y983924D01*
X794388Y984135D01*
X793704Y984819D01*
X793178Y984714D01*
X793020Y984556D01*
X792599Y983819D01*
X792283Y983503D01*
X792073Y982766D01*
X791967Y981292D01*
X791283Y980292D01*
X791125Y979819D01*
X790915Y978029D01*
X790388Y977292D01*
X790072Y976555D01*
X789967Y975082D01*
X789441Y974134D01*
X789230Y973924D01*
X789125Y973503D01*
Y973187D01*
X789072Y973134D01*
X788967Y972187D01*
X788862Y971766D01*
X788651Y971239D01*
X788493Y971081D01*
X788388Y970871D01*
X788072Y970134D01*
X787967Y968871D01*
X787862Y968555D01*
X787441Y967818D01*
X787230Y967608D01*
X787125Y967187D01*
X787020Y966450D01*
X786862Y965450D01*
X786757Y965029D01*
X786493Y964660D01*
X786335Y964502D01*
X786178Y964450D01*
X785967Y963923D01*
X786125Y963344D01*
X786335Y963134D01*
X786757Y963028D01*
X787704Y962923D01*
X787862Y962765D01*
X788072Y961923D01*
X787967Y961607D01*
X787704Y961134D01*
X787283Y961028D01*
X780125Y961134D01*
X779967Y961292D01*
X779756Y962028D01*
X779914Y962713D01*
X780230Y963028D01*
X780914Y963081D01*
X784441Y963028D01*
X784809Y963292D01*
X785020Y963818D01*
X785125Y964239D01*
X785651Y964976D01*
X785757Y965397D01*
X785862Y966134D01*
X786020Y967134D01*
X786388Y967713D01*
X786599Y967923D01*
X786809Y968660D01*
X786967Y969976D01*
X787072Y970397D01*
X787230Y970555D01*
X787336Y970766D01*
X787546Y970976D01*
X787757Y971503D01*
X787862Y972239D01*
X787967Y973292D01*
X788651Y974292D01*
X788809Y974871D01*
X788914Y975924D01*
X789072Y976503D01*
X789283Y977029D01*
X789651Y977397D01*
X789862Y978134D01*
X789967Y979398D01*
X790178Y979924D01*
X790283Y980134D01*
X790493Y980345D01*
X790599Y980555D01*
X790809Y981082D01*
X790915Y981503D01*
X791020Y982766D01*
X791441Y983503D01*
X791757Y983819D01*
X791862Y984240D01*
X791967Y984977D01*
X792230Y986082D01*
X792441Y986608D01*
X792599Y986766D01*
X792809Y987293D01*
X792915Y987714D01*
X793073Y988608D01*
X793178Y989029D01*
X793388Y989556D01*
X793862Y990451D01*
X794125Y990819D01*
X794441Y990924D01*
X795020Y990451D01*
X795336Y990135D01*
X795441Y989924D01*
X802125Y983240D01*
X802336Y983135D01*
X802599Y982766D01*
X803336Y981819D01*
X803810Y981766D01*
X803968Y981924D01*
X804178Y982661D01*
X804073Y985293D01*
X804126Y992819D01*
X803968Y993187D01*
X803283Y993451D01*
X802231Y993345D01*
X799283Y993451D01*
X799020Y993924D01*
X799125Y995082D01*
X799283Y995240D01*
X799704Y995346D01*
X805442Y995398D01*
X805968Y995188D01*
D02*
G37*
G36*
X834127Y958923D02*
X834285Y958765D01*
X834495Y958028D01*
X834337Y957344D01*
X834022Y957028D01*
X780125Y957133D01*
X779862Y957397D01*
X779756Y958239D01*
X780125Y958923D01*
X780546Y959028D01*
X806284Y958976D01*
X807915Y959028D01*
X808231Y958923D01*
X826863Y959028D01*
X826969D01*
X834127Y958923D01*
D02*
G37*
%LPC*%
G36*
X833229Y936448D02*
X827148Y936441D01*
X827025Y936429D01*
X826951Y936417D01*
X826889Y936404D01*
X826790Y936380D01*
X826611Y936349D01*
X826562Y936337D01*
X826407Y936256D01*
X826327Y936226D01*
X826303Y936201D01*
X826278Y936188D01*
X826204Y936114D01*
X826179Y936102D01*
X826161Y936084D01*
X826074Y935972D01*
X826062Y935948D01*
X826037Y935923D01*
X826006Y935880D01*
X825975Y935799D01*
X825957Y935732D01*
X825895Y935559D01*
X825877Y935478D01*
X825864Y935441D01*
X825852Y931885D01*
Y931873D01*
Y930502D01*
X825864Y930305D01*
X825877Y930219D01*
X825889Y930169D01*
X825920Y930089D01*
X825963Y929972D01*
X826000Y929848D01*
X826037Y929811D01*
X826111Y929675D01*
X826278Y929509D01*
X826389Y929447D01*
X826414Y929422D01*
X826482Y929379D01*
X826562Y929348D01*
X826667Y929317D01*
X826735Y929299D01*
X826796Y929274D01*
X826858Y929262D01*
X826895Y929249D01*
X833155Y929237D01*
X833390Y929249D01*
X833513Y929262D01*
X833600Y929286D01*
X833779Y929342D01*
X833847Y929360D01*
X833908Y929385D01*
X833933Y929410D01*
X834094Y929496D01*
X834125Y929527D01*
X834137Y929552D01*
X834155Y929570D01*
X834180Y929583D01*
X834236Y929638D01*
X834273Y929700D01*
X834334Y929786D01*
X834378Y929854D01*
X834396Y929922D01*
X834483Y930107D01*
X834495Y930144D01*
X834507Y930305D01*
X834520Y930342D01*
X834532Y934824D01*
X834520Y935318D01*
X834507Y935404D01*
X834495Y935528D01*
X834470Y935627D01*
X834446Y935688D01*
X834427Y935707D01*
X834396Y935787D01*
X834347Y935898D01*
X834260Y936009D01*
X834248Y936034D01*
X834205Y936077D01*
X834180Y936090D01*
X834137Y936133D01*
X834125Y936158D01*
X834020Y936238D01*
X833995Y936250D01*
X833902Y936306D01*
X833841Y936330D01*
X833748Y936349D01*
X833699Y936361D01*
X833612Y936374D01*
X833544Y936392D01*
X833495Y936404D01*
X833433Y936417D01*
X833266Y936435D01*
X833229Y936448D01*
D02*
G37*
G36*
X793323D02*
X791113D01*
X790990Y936435D01*
X790817Y936411D01*
X790749Y936392D01*
X790699Y936380D01*
X790607Y936361D01*
X790557Y936349D01*
X790471Y936337D01*
X790422Y936324D01*
X790360Y936287D01*
X790273Y936238D01*
X790212Y936213D01*
X790181Y936182D01*
X790168Y936158D01*
X790125Y936127D01*
X790100Y936114D01*
X790070Y936084D01*
X790057Y936059D01*
X790033Y936034D01*
X790020Y936009D01*
X790002Y936003D01*
X789983Y935985D01*
X789934Y935898D01*
X789903Y935818D01*
X789841Y935719D01*
X789792Y935423D01*
X789780Y935361D01*
X789761Y935182D01*
X789749Y935145D01*
X789755Y930533D01*
X789767Y930422D01*
X789780Y930323D01*
X789792Y930274D01*
X789804Y930212D01*
X789823Y930083D01*
X789854Y929978D01*
X789903Y929904D01*
X789934Y929823D01*
X789958Y929762D01*
X790008Y929712D01*
X790045Y929651D01*
X790199Y929496D01*
X790310Y929435D01*
X790335Y929422D01*
X790360Y929398D01*
X790403Y929367D01*
X790539Y929330D01*
X790588Y929317D01*
X790650Y929293D01*
X790780Y929262D01*
X790817Y929249D01*
X797027Y929237D01*
X797299Y929249D01*
X797422Y929262D01*
X797472Y929274D01*
X797540Y929293D01*
X797657Y929336D01*
X797756Y929360D01*
X797818Y929385D01*
X797842Y929410D01*
X797953Y929472D01*
X797978Y929496D01*
X798003Y929509D01*
X798009Y929527D01*
X798027Y929546D01*
X798052Y929558D01*
X798120Y929626D01*
X798132Y929651D01*
X798176Y929694D01*
X798231Y929762D01*
X798243Y929811D01*
X798293Y929885D01*
X798336Y929953D01*
X798367Y930095D01*
X798392Y930182D01*
X798404Y930231D01*
X798429Y930293D01*
X798441Y930465D01*
X798453Y930502D01*
X798447Y935250D01*
X798435Y935374D01*
X798416Y935454D01*
X798385Y935534D01*
X798373Y935583D01*
X798355Y935664D01*
X798342Y935713D01*
X798305Y935799D01*
X798219Y935960D01*
X798200Y935978D01*
X798176Y935991D01*
X798145Y936022D01*
X798132Y936046D01*
X798052Y936127D01*
X798027Y936139D01*
X798021Y936158D01*
X797953Y936226D01*
X797929Y936238D01*
X797861Y936269D01*
X797762Y936330D01*
X797700Y936343D01*
X797583Y936361D01*
X797534Y936374D01*
X797466Y936392D01*
X797416Y936404D01*
X797287Y936423D01*
X797250Y936435D01*
X793323Y936448D01*
D02*
G37*
%LPD*%
D52*
X622890Y1101900D02*
X632890D01*
Y1091900D02*
Y1101900D01*
X633060Y1066036D02*
Y1076036D01*
X623060Y1066036D02*
X633060D01*
X573026Y1065730D02*
X583026D01*
X573026D02*
Y1075730D01*
X572720Y1091764D02*
Y1101764D01*
X582720D01*
X895570Y747240D02*
Y757240D01*
X885570Y747240D02*
X895570D01*
X859706Y747070D02*
X869706D01*
X859706D02*
Y757070D01*
X859400Y797104D02*
Y807104D01*
X869400D01*
X885434Y807410D02*
X895434D01*
Y797410D02*
Y807410D01*
D55*
X594360Y1112520D02*
Y1145540D01*
X612140D01*
Y1112520D02*
Y1145540D01*
X594360Y1112520D02*
X612140D01*
X924728Y1088897D02*
Y1084665D01*
X923882Y1083819D01*
X922189D01*
X921342Y1084665D01*
Y1088897D01*
X916264D02*
X919650D01*
Y1086358D01*
X917957Y1087204D01*
X917110D01*
X916264Y1086358D01*
Y1084665D01*
X917110Y1083819D01*
X918803D01*
X919650Y1084665D01*
X780860Y842010D02*
Y841164D01*
X781706D01*
Y842010D01*
X780860D01*
X561757Y947419D02*
X558372D01*
X560065D01*
Y942341D01*
X556679D02*
Y947419D01*
X554140D01*
X553293Y946573D01*
Y944880D01*
X554140Y944034D01*
X556679D01*
X551601Y942341D02*
X549908D01*
X550754D01*
Y947419D01*
X551601Y946573D01*
X547369D02*
X546522Y947419D01*
X544830D01*
X543983Y946573D01*
Y943187D01*
X544830Y942341D01*
X546522D01*
X547369Y943187D01*
Y946573D01*
X542290Y944880D02*
X538905D01*
X537212Y942341D02*
Y947419D01*
X534673D01*
X533826Y946573D01*
Y944880D01*
X534673Y944034D01*
X537212D01*
X535519D02*
X533826Y942341D01*
X532134Y947419D02*
X528748Y942341D01*
Y947419D02*
X532134Y942341D01*
X527055D02*
X525363D01*
X526209D01*
Y947419D01*
X527055Y946573D01*
X850047Y801369D02*
X846661D01*
X848354D01*
Y796291D01*
X844969D02*
Y801369D01*
X842430D01*
X841583Y800523D01*
Y798830D01*
X842430Y797984D01*
X844969D01*
X839890Y797137D02*
X839044Y796291D01*
X837351D01*
X836505Y797137D01*
Y800523D01*
X837351Y801369D01*
X839044D01*
X839890Y800523D01*
Y799676D01*
X839044Y798830D01*
X836505D01*
X834812D02*
X831426D01*
X826348Y800523D02*
X827194Y801369D01*
X828887D01*
X829734Y800523D01*
Y799676D01*
X828887Y798830D01*
X827194D01*
X826348Y797984D01*
Y797137D01*
X827194Y796291D01*
X828887D01*
X829734Y797137D01*
X821270Y800523D02*
X822116Y801369D01*
X823809D01*
X824655Y800523D01*
Y797137D01*
X823809Y796291D01*
X822116D01*
X821270Y797137D01*
X819577Y801369D02*
Y796291D01*
X816191D01*
X814499Y800523D02*
X813652Y801369D01*
X811959D01*
X811113Y800523D01*
Y797137D01*
X811959Y796291D01*
X813652D01*
X814499Y797137D01*
Y800523D01*
X558371Y909319D02*
X554986D01*
X556679D01*
Y904241D01*
X553293D02*
Y909319D01*
X550754D01*
X549907Y908473D01*
Y906780D01*
X550754Y905934D01*
X553293D01*
X548215Y908473D02*
X547368Y909319D01*
X545676D01*
X544829Y908473D01*
Y907626D01*
X545676Y906780D01*
X544829Y905934D01*
Y905087D01*
X545676Y904241D01*
X547368D01*
X548215Y905087D01*
Y905934D01*
X547368Y906780D01*
X548215Y907626D01*
Y908473D01*
X547368Y906780D02*
X545676D01*
X543136D02*
X539751D01*
X538058Y909319D02*
X534673D01*
X536365D01*
Y904241D01*
X532980Y909319D02*
X529594Y904241D01*
Y909319D02*
X532980Y904241D01*
X527901D02*
X526208D01*
X527055D01*
Y909319D01*
X527901Y908473D01*
X850047Y763269D02*
X846661D01*
X848354D01*
Y758191D01*
X844969D02*
Y763269D01*
X842430D01*
X841583Y762423D01*
Y760730D01*
X842430Y759884D01*
X844969D01*
X839890Y763269D02*
X836505D01*
Y762423D01*
X839890Y759037D01*
Y758191D01*
X834812Y760730D02*
X831426D01*
X826348Y762423D02*
X827194Y763269D01*
X828887D01*
X829734Y762423D01*
Y761576D01*
X828887Y760730D01*
X827194D01*
X826348Y759884D01*
Y759037D01*
X827194Y758191D01*
X828887D01*
X829734Y759037D01*
X824655Y763269D02*
Y758191D01*
X822116D01*
X821270Y759037D01*
Y762423D01*
X822116Y763269D01*
X824655D01*
X819577Y758191D02*
Y761576D01*
X817884Y763269D01*
X816191Y761576D01*
Y758191D01*
Y760730D01*
X819577D01*
X814499Y762423D02*
X813652Y763269D01*
X811959D01*
X811113Y762423D01*
Y759037D01*
X811959Y758191D01*
X813652D01*
X814499Y759037D01*
Y762423D01*
X594777Y1057909D02*
X591391D01*
X593084D01*
Y1052831D01*
X589699D02*
Y1057909D01*
X587160D01*
X586313Y1057063D01*
Y1055370D01*
X587160Y1054524D01*
X589699D01*
X581235Y1057909D02*
X582928Y1057063D01*
X584620Y1055370D01*
Y1053677D01*
X583774Y1052831D01*
X582081D01*
X581235Y1053677D01*
Y1054524D01*
X582081Y1055370D01*
X584620D01*
X579542D02*
X576156D01*
X574464Y1057909D02*
Y1052831D01*
X571924D01*
X571078Y1053677D01*
Y1054524D01*
X571924Y1055370D01*
X574464D01*
X571924D01*
X571078Y1056216D01*
Y1057063D01*
X571924Y1057909D01*
X574464D01*
X566846D02*
X568539D01*
X569385Y1057063D01*
Y1053677D01*
X568539Y1052831D01*
X566846D01*
X566000Y1053677D01*
Y1057063D01*
X566846Y1057909D01*
X561768D02*
X563461D01*
X564307Y1057063D01*
Y1053677D01*
X563461Y1052831D01*
X561768D01*
X560921Y1053677D01*
Y1057063D01*
X561768Y1057909D01*
X559229D02*
X555843D01*
X557536D01*
Y1052831D01*
X851318Y725169D02*
X847932D01*
X849625D01*
Y720091D01*
X846239D02*
Y725169D01*
X843700D01*
X842854Y724323D01*
Y722630D01*
X843700Y721784D01*
X846239D01*
X837776Y725169D02*
X841161D01*
Y722630D01*
X839468Y723476D01*
X838622D01*
X837776Y722630D01*
Y720937D01*
X838622Y720091D01*
X840315D01*
X841161Y720937D01*
X836083Y722630D02*
X832697D01*
X831004Y720091D02*
Y725169D01*
X828465D01*
X827619Y724323D01*
Y722630D01*
X828465Y721784D01*
X831004D01*
X829312D02*
X827619Y720091D01*
X825926Y725169D02*
Y720937D01*
X825080Y720091D01*
X823387D01*
X822541Y720937D01*
Y725169D01*
X820848Y720091D02*
Y725169D01*
X817462Y720091D01*
Y725169D01*
X914818Y888999D02*
X911432D01*
X913125D01*
Y883921D01*
X909740D02*
Y888999D01*
X907200D01*
X906354Y888153D01*
Y886460D01*
X907200Y885614D01*
X909740D01*
X902122Y883921D02*
Y888999D01*
X904661Y886460D01*
X901276D01*
X899583D02*
X896197D01*
X891119Y888153D02*
X891965Y888999D01*
X893658D01*
X894504Y888153D01*
Y884767D01*
X893658Y883921D01*
X891965D01*
X891119Y884767D01*
Y886460D01*
X892812D01*
X889426Y883921D02*
Y888999D01*
X886040Y883921D01*
Y888999D01*
X884348D02*
Y883921D01*
X881808D01*
X880962Y884767D01*
Y888153D01*
X881808Y888999D01*
X884348D01*
X918464Y929638D02*
X915078D01*
X916771D01*
Y924560D01*
X913386D02*
Y929638D01*
X910846D01*
X910000Y928792D01*
Y927099D01*
X910846Y926253D01*
X913386D01*
X908307Y928792D02*
X907461Y929638D01*
X905768D01*
X904922Y928792D01*
Y927946D01*
X905768Y927099D01*
X906615D01*
X905768D01*
X904922Y926253D01*
Y925406D01*
X905768Y924560D01*
X907461D01*
X908307Y925406D01*
X903229Y927099D02*
X899843D01*
X898151Y924560D02*
X896458D01*
X897304D01*
Y929638D01*
X898151Y928792D01*
X893919Y929638D02*
Y926253D01*
X892226Y924560D01*
X890533Y926253D01*
Y929638D01*
X888840Y924560D02*
X887148D01*
X887994D01*
Y929638D01*
X888840Y928792D01*
X1048168Y1090929D02*
X1044782D01*
X1046475D01*
Y1085851D01*
X1043090D02*
Y1090929D01*
X1040550D01*
X1039704Y1090083D01*
Y1088390D01*
X1040550Y1087544D01*
X1043090D01*
X1034626Y1085851D02*
X1038011D01*
X1034626Y1089236D01*
Y1090083D01*
X1035472Y1090929D01*
X1037165D01*
X1038011Y1090083D01*
X1032933Y1088390D02*
X1029547D01*
X1027854Y1090083D02*
X1027008Y1090929D01*
X1025315D01*
X1024469Y1090083D01*
Y1089236D01*
X1025315Y1088390D01*
X1026162D01*
X1025315D01*
X1024469Y1087544D01*
Y1086697D01*
X1025315Y1085851D01*
X1027008D01*
X1027854Y1086697D01*
X1022776Y1090929D02*
Y1087544D01*
X1021083Y1085851D01*
X1019390Y1087544D01*
Y1090929D01*
X1017698Y1090083D02*
X1016851Y1090929D01*
X1015158D01*
X1014312Y1090083D01*
Y1089236D01*
X1015158Y1088390D01*
X1016005D01*
X1015158D01*
X1014312Y1087544D01*
Y1086697D01*
X1015158Y1085851D01*
X1016851D01*
X1017698Y1086697D01*
X1046476Y1130299D02*
X1043090D01*
X1044783D01*
Y1125221D01*
X1041397D02*
Y1130299D01*
X1038858D01*
X1038011Y1129453D01*
Y1127760D01*
X1038858Y1126914D01*
X1041397D01*
X1036319Y1125221D02*
X1034626D01*
X1035472D01*
Y1130299D01*
X1036319Y1129453D01*
X1032087Y1127760D02*
X1028701D01*
X1023623Y1130299D02*
X1027008D01*
Y1127760D01*
X1025316Y1128606D01*
X1024469D01*
X1023623Y1127760D01*
Y1126067D01*
X1024469Y1125221D01*
X1026162D01*
X1027008Y1126067D01*
X1021930Y1130299D02*
Y1126914D01*
X1020237Y1125221D01*
X1018544Y1126914D01*
Y1130299D01*
X789432Y879854D02*
Y875622D01*
X788586Y874776D01*
X786893D01*
X786046Y875622D01*
Y879854D01*
X781814Y874776D02*
Y879854D01*
X784354Y877315D01*
X780968D01*
X578020Y1113450D02*
X578867Y1114296D01*
X580560D01*
X581406Y1113450D01*
Y1112604D01*
X580560Y1111757D01*
X578867D01*
X578020Y1110911D01*
Y1110064D01*
X578867Y1109218D01*
X580560D01*
X581406Y1110064D01*
X572942Y1109218D02*
X576328D01*
X572942Y1112604D01*
Y1113450D01*
X573788Y1114296D01*
X575481D01*
X576328Y1113450D01*
X904240Y805603D02*
X905086Y806449D01*
X906779D01*
X907626Y805603D01*
Y804756D01*
X906779Y803910D01*
X905086D01*
X904240Y803064D01*
Y802217D01*
X905086Y801371D01*
X906779D01*
X907626Y802217D01*
X902547Y801371D02*
X900854D01*
X901701D01*
Y806449D01*
X902547Y805603D01*
X563032Y1103631D02*
Y1108709D01*
X560493D01*
X559646Y1107863D01*
Y1106170D01*
X560493Y1105324D01*
X563032D01*
X561339D02*
X559646Y1103631D01*
X554568Y1108709D02*
X556261Y1107863D01*
X557954Y1106170D01*
Y1104477D01*
X557107Y1103631D01*
X555414D01*
X554568Y1104477D01*
Y1105324D01*
X555414Y1106170D01*
X557954D01*
X909742Y817881D02*
Y822959D01*
X907203D01*
X906356Y822113D01*
Y820420D01*
X907203Y819574D01*
X909742D01*
X908049D02*
X906356Y817881D01*
X901278Y822959D02*
X904664D01*
Y820420D01*
X902971Y821266D01*
X902124D01*
X901278Y820420D01*
Y818727D01*
X902124Y817881D01*
X903817D01*
X904664Y818727D01*
X603420Y1157730D02*
X606806D01*
Y1155191D01*
X605113D01*
X606806D01*
Y1152652D01*
X601728Y1157730D02*
Y1152652D01*
X599188D01*
X598342Y1153498D01*
Y1154345D01*
X599188Y1155191D01*
X601728D01*
X599188D01*
X598342Y1156038D01*
Y1156884D01*
X599188Y1157730D01*
X601728D01*
X596649Y1152652D02*
X594957D01*
X595803D01*
Y1157730D01*
X596649Y1156884D01*
X849206Y855133D02*
X850052Y855979D01*
X851745D01*
X852591Y855133D01*
Y851747D01*
X851745Y850901D01*
X850052D01*
X849206Y851747D01*
X844127Y850901D02*
X847513D01*
X844127Y854286D01*
Y855133D01*
X844974Y855979D01*
X846666D01*
X847513Y855133D01*
X839049Y850901D02*
X842434D01*
X839049Y854286D01*
Y855133D01*
X839895Y855979D01*
X841588D01*
X842434Y855133D01*
X674792Y905933D02*
X675639Y906779D01*
X677331D01*
X678178Y905933D01*
Y902547D01*
X677331Y901701D01*
X675639D01*
X674792Y902547D01*
X673100Y901701D02*
X671407D01*
X672253D01*
Y906779D01*
X673100Y905933D01*
X668868D02*
X668021Y906779D01*
X666328D01*
X665482Y905933D01*
Y905086D01*
X666328Y904240D01*
X665482Y903394D01*
Y902547D01*
X666328Y901701D01*
X668021D01*
X668868Y902547D01*
Y903394D01*
X668021Y904240D01*
X668868Y905086D01*
Y905933D01*
X668021Y904240D02*
X666328D01*
X759416Y842433D02*
X760263Y843279D01*
X761955D01*
X762802Y842433D01*
Y839047D01*
X761955Y838201D01*
X760263D01*
X759416Y839047D01*
X757724D02*
X756877Y838201D01*
X755184D01*
X754338Y839047D01*
Y842433D01*
X755184Y843279D01*
X756877D01*
X757724Y842433D01*
Y841586D01*
X756877Y840740D01*
X754338D01*
D56*
X909249Y867410D02*
G03*
X909249Y867410I-11359J0D01*
G01*
X1042599Y1108710D02*
G03*
X1042599Y1108710I-11359J0D01*
G01*
Y1069340D02*
G03*
X1042599Y1069340I-11359J0D01*
G01*
X553649Y887730D02*
G03*
X553649Y887730I-11359J0D01*
G01*
X554919Y925830D02*
G03*
X554919Y925830I-11359J0D01*
G01*
X909849Y905519D02*
G03*
X909849Y905519I-11359J0D01*
G01*
X849559Y779780D02*
G03*
X849559Y779780I-11359J0D01*
G01*
Y817880D02*
G03*
X849559Y817880I-11359J0D01*
G01*
X586669Y1036320D02*
G03*
X586669Y1036320I-11359J0D01*
G01*
X849559Y741680D02*
G03*
X849559Y741680I-11359J0D01*
G01*
D57*
X792671Y834136D02*
X812228D01*
X792671Y867664D02*
X812228D01*
D59*
X860298Y915160D02*
Y907542D01*
X859936Y915160D02*
Y907542D01*
X862475Y915160D02*
X862838Y912983D01*
Y915160D01*
X857396D01*
Y912983D01*
X857759Y915160D01*
X861387Y907542D02*
X858847D01*
X855582Y911895D02*
Y911532D01*
X855945D01*
Y911895D01*
X855582Y912258D01*
X854857Y912620D01*
X853406D01*
X852680Y912258D01*
X852317Y911895D01*
X851955Y911169D01*
Y908630D01*
X851592Y907904D01*
X851229Y907542D01*
X852317Y911895D02*
Y908630D01*
X851955Y907904D01*
X851229Y907542D01*
X850866D01*
X852317Y911169D02*
X852680Y910807D01*
X854857Y910444D01*
X855945Y910081D01*
X856308Y909355D01*
Y908630D01*
X855945Y907904D01*
X854857Y907542D01*
X853768D01*
X853043Y907904D01*
X852317Y908630D01*
X854857Y910444D02*
X855582Y910081D01*
X855945Y909355D01*
Y908630D01*
X855582Y907904D01*
X854857Y907542D01*
X846150Y911895D02*
X845787Y912620D01*
Y911169D01*
X846150Y911895D01*
X846513Y912258D01*
X847238Y912620D01*
X848690D01*
X849415Y912258D01*
X849778Y911895D01*
Y911169D01*
X849415Y910807D01*
X848690Y910444D01*
X846876Y909718D01*
X846150Y909355D01*
X845787Y908993D01*
X849778Y911532D02*
X849415Y911169D01*
X848690Y910807D01*
X846876Y910081D01*
X846150Y909718D01*
X845787Y909355D01*
Y908267D01*
X846150Y907904D01*
X846876Y907542D01*
X848327D01*
X849052Y907904D01*
X849415Y908267D01*
X849778Y908993D01*
Y907542D01*
X849415Y908267D01*
X843466Y915160D02*
Y907542D01*
X843103Y915160D02*
Y907542D01*
X839475Y912620D02*
X843103Y908993D01*
X841289Y910444D02*
X839112Y907542D01*
X841652Y910444D02*
X839475Y907542D01*
X844554Y915160D02*
X843103D01*
X840563Y912620D02*
X838387D01*
X844554Y907542D02*
X842014D01*
X840563D02*
X838387D01*
X830152Y913709D02*
X829789Y913346D01*
X830152Y912983D01*
X830514Y913346D01*
Y913709D01*
X830152Y914434D01*
X829789Y914797D01*
X828700Y915160D01*
X827249D01*
X826161Y914797D01*
X825798Y914434D01*
X825435Y913709D01*
Y912983D01*
X825798Y912258D01*
X826887Y911532D01*
X828700Y910807D01*
X829426Y910444D01*
X830152Y909718D01*
X830514Y908630D01*
Y907542D01*
X827249Y915160D02*
X826524Y914797D01*
X826161Y914434D01*
X825798Y913709D01*
Y912983D01*
X826161Y912258D01*
X827249Y911532D01*
X828700Y910807D01*
X830514Y908267D02*
X830152Y908630D01*
X829426D01*
X827612Y907904D01*
X826524D01*
X825798Y908267D01*
X825435Y908630D01*
Y909355D01*
X829426Y908630D02*
X827612Y907542D01*
X826161D01*
X825798Y907904D01*
X825435Y908630D01*
X817454Y916611D02*
Y905365D01*
X807877Y915160D02*
Y907542D01*
X807514Y915160D02*
Y907542D01*
X808965Y915160D02*
X806426D01*
X808965Y907542D02*
X803524D01*
Y909718D01*
X803886Y907542D01*
X801347Y915160D02*
X801710Y914797D01*
X801347Y914434D01*
X800984Y914797D01*
X801347Y915160D01*
Y912620D02*
Y907542D01*
X800984Y912620D02*
Y907542D01*
X802435Y912620D02*
X800984D01*
X802435Y907542D02*
X799896D01*
X796340Y912620D02*
X797066Y912258D01*
X797429Y911895D01*
X797792Y911169D01*
Y910444D01*
X797429Y909718D01*
X797066Y909355D01*
X796340Y908993D01*
X795615D01*
X794889Y909355D01*
X794527Y909718D01*
X794164Y910444D01*
Y911169D01*
X794527Y911895D01*
X794889Y912258D01*
X795615Y912620D01*
X796340D01*
X797066Y912258D02*
X797429Y911532D01*
Y910081D01*
X797066Y909355D01*
X794889D02*
X794527Y910081D01*
Y911532D01*
X794889Y912258D01*
X794527Y911895D02*
X794164Y912258D01*
X793438Y912620D01*
Y912258D01*
X794164D01*
X797429Y909718D02*
X797792Y909355D01*
X798154Y908630D01*
Y908267D01*
X797792Y907542D01*
X796703Y907179D01*
X794889D01*
X793801Y906816D01*
X793438Y906453D01*
X798154Y908267D02*
X797792Y907904D01*
X796703Y907542D01*
X794889D01*
X793801Y907179D01*
X793438Y906453D01*
Y906090D01*
X793801Y905365D01*
X794889Y905002D01*
X797066D01*
X798154Y905365D01*
X798517Y906090D01*
Y906453D01*
X798154Y907179D01*
X797066Y907542D01*
X791225Y915160D02*
Y907542D01*
X790863Y915160D02*
Y907542D01*
Y911532D02*
X790137Y912258D01*
X789049Y912620D01*
X788323D01*
X787235Y912258D01*
X786872Y911532D01*
Y907542D01*
X788323Y912620D02*
X787598Y912258D01*
X787235Y911532D01*
Y907542D01*
X792314Y915160D02*
X790863D01*
X792314Y907542D02*
X789774D01*
X788323D02*
X785784D01*
X782627D02*
X782990Y907904D01*
X783353Y908993D01*
Y915160D01*
X783716D01*
Y908993D01*
X783353Y907904D01*
X782627Y907542D01*
X781902D01*
X781176Y907904D01*
X780814Y908630D01*
X784804Y912620D02*
X781902D01*
X771635Y915160D02*
Y907542D01*
X771273Y915160D02*
X766919Y908267D01*
X771273Y914434D02*
X766919Y907542D01*
Y915160D02*
Y907542D01*
X772724Y915160D02*
X771273D01*
X768008D02*
X765831D01*
X772724Y907542D02*
X770547D01*
X762711Y912620D02*
X763799Y912258D01*
X764525Y911532D01*
X764888Y910444D01*
Y909718D01*
X764525Y908630D01*
X763799Y907904D01*
X762711Y907542D01*
X761985D01*
X760897Y907904D01*
X760172Y908630D01*
X759809Y909718D01*
Y910444D01*
X760172Y911532D01*
X760897Y912258D01*
X761985Y912620D01*
X762711D01*
X763436Y912258D01*
X764162Y911532D01*
X764525Y910444D01*
Y909718D01*
X764162Y908630D01*
X763436Y907904D01*
X762711Y907542D01*
X761985D02*
X761260Y907904D01*
X760534Y908630D01*
X760172Y909718D01*
Y910444D01*
X760534Y911532D01*
X761260Y912258D01*
X761985Y912620D01*
X754331Y915160D02*
Y907542D01*
X753968Y915160D02*
Y907542D01*
X754331Y911532D02*
X755056Y912258D01*
X755782Y912620D01*
X756507D01*
X757596Y912258D01*
X758321Y911532D01*
X758684Y910444D01*
Y909718D01*
X758321Y908630D01*
X757596Y907904D01*
X756507Y907542D01*
X755782D01*
X755056Y907904D01*
X754331Y908630D01*
X756507Y912620D02*
X757233Y912258D01*
X757959Y911532D01*
X758321Y910444D01*
Y909718D01*
X757959Y908630D01*
X757233Y907904D01*
X756507Y907542D01*
X755419Y915160D02*
X753968D01*
X754331Y907542D02*
X752880D01*
X751465Y910444D02*
X747111D01*
Y911169D01*
X747474Y911895D01*
X747837Y912258D01*
X748562Y912620D01*
X749651D01*
X750739Y912258D01*
X751465Y911532D01*
X751827Y910444D01*
Y909718D01*
X751465Y908630D01*
X750739Y907904D01*
X749651Y907542D01*
X748925D01*
X747837Y907904D01*
X747111Y908630D01*
X747474Y910444D02*
Y911532D01*
X747837Y912258D01*
X749651Y912620D02*
X750376Y912258D01*
X751102Y911532D01*
X751465Y910444D01*
Y909718D01*
X751102Y908630D01*
X750376Y907904D01*
X749651Y907542D01*
D60*
X965200Y867156D02*
G03*
X965200Y867156I-158750J0D01*
G01*
X1028700D02*
G03*
X1028700Y867156I-222250J0D01*
G01*
%TF.MD5,f04a32bb41262a1f9166402fbcca5dc8*%
M02*
