%TF.GenerationSoftware,Altium Limited,Altium Designer,24.9.1 (31)*%
G04 Layer_Color=255*
%FSLAX44Y44*%
%MOMM*%
%TF.SameCoordinates,6B423169-25D8-4BB9-912F-35ADE512F806*%
%TF.FilePolarity,Positive*%
%TF.FileFunction,Pads,Top*%
%TF.Part,Single*%
G01*
G75*
%TA.AperFunction,SMDPad,CuDef*%
%ADD13R,2.0000X2.5000*%
%ADD14R,0.6000X2.5000*%
%ADD15R,0.7000X0.7000*%
%ADD16R,1.0000X0.9500*%
%ADD17R,1.5000X2.0000*%
%ADD18R,3.8000X2.0000*%
%ADD19R,0.5588X1.2954*%
%ADD20R,1.0000X1.0500*%
%ADD21R,0.6000X1.4000*%
%ADD22R,0.9500X1.0000*%
%ADD23R,1.0000X1.6000*%
%ADD24R,1.5240X0.5334*%
G04:AMPARAMS|DCode=25|XSize=0.2mm|YSize=0.81mm|CornerRadius=0.025mm|HoleSize=0mm|Usage=FLASHONLY|Rotation=0.000|XOffset=0mm|YOffset=0mm|HoleType=Round|Shape=RoundedRectangle|*
%AMROUNDEDRECTD25*
21,1,0.2000,0.7600,0,0,0.0*
21,1,0.1500,0.8100,0,0,0.0*
1,1,0.0500,0.0750,-0.3800*
1,1,0.0500,-0.0750,-0.3800*
1,1,0.0500,-0.0750,0.3800*
1,1,0.0500,0.0750,0.3800*
%
%ADD25ROUNDEDRECTD25*%
%ADD26R,3.4000X3.4000*%
G04:AMPARAMS|DCode=27|XSize=0.81mm|YSize=0.2mm|CornerRadius=0.025mm|HoleSize=0mm|Usage=FLASHONLY|Rotation=0.000|XOffset=0mm|YOffset=0mm|HoleType=Round|Shape=RoundedRectangle|*
%AMROUNDEDRECTD27*
21,1,0.8100,0.1500,0,0,0.0*
21,1,0.7600,0.2000,0,0,0.0*
1,1,0.0500,0.3800,-0.0750*
1,1,0.0500,-0.3800,-0.0750*
1,1,0.0500,-0.3800,0.0750*
1,1,0.0500,0.3800,0.0750*
%
%ADD27ROUNDEDRECTD27*%
%ADD28R,1.0500X1.3000*%
%ADD29R,1.0500X1.0000*%
%ADD30R,2.1844X1.1430*%
%ADD31R,3.2000X1.5000*%
%TA.AperFunction,ComponentPad*%
%ADD35C,1.7780*%
%ADD36O,1.9050X1.3970*%
%ADD37R,1.9050X1.3970*%
%ADD38C,2.0000*%
%ADD39C,1.9500*%
%ADD40C,1.5240*%
%ADD41C,6.0000*%
%ADD42R,1.6050X1.6050*%
%ADD43C,1.6050*%
%ADD44R,1.2000X1.2000*%
%ADD45C,1.2000*%
D13*
X652730Y1108400D02*
D03*
X741730D02*
D03*
X652730Y1053900D02*
D03*
X741730D02*
D03*
D14*
X681230D02*
D03*
X689230D02*
D03*
X697230D02*
D03*
X705230D02*
D03*
X713230D02*
D03*
D15*
X809340Y925124D02*
D03*
X825340D02*
D03*
D16*
X669720Y993140D02*
D03*
X685720D02*
D03*
X662560Y929640D02*
D03*
X678560D02*
D03*
X768862Y997275D02*
D03*
X752862D02*
D03*
X768862Y980277D02*
D03*
X752862D02*
D03*
X689230Y842010D02*
D03*
X705230D02*
D03*
X829690Y871220D02*
D03*
X813690D02*
D03*
X829690Y889000D02*
D03*
X813690D02*
D03*
X829690Y906780D02*
D03*
X813690D02*
D03*
X799050Y1132849D02*
D03*
X815050D02*
D03*
X662560Y910590D02*
D03*
X678560D02*
D03*
X611090Y1031249D02*
D03*
X627090D02*
D03*
D17*
X972150Y1111009D02*
D03*
X995150D02*
D03*
X949150D02*
D03*
D18*
X972150Y1048009D02*
D03*
D19*
X590550Y729615D02*
D03*
X581050Y748665D02*
D03*
X600050D02*
D03*
D20*
X629920Y871600D02*
D03*
Y855600D02*
D03*
Y914400D02*
D03*
Y898400D02*
D03*
X728980Y988950D02*
D03*
Y1004950D02*
D03*
X713740Y988950D02*
D03*
Y1004950D02*
D03*
X738470Y811919D02*
D03*
Y795919D02*
D03*
X798160Y977019D02*
D03*
Y961019D02*
D03*
X581660Y793370D02*
D03*
Y809370D02*
D03*
X599440Y793370D02*
D03*
Y809370D02*
D03*
D21*
X609600Y888560D02*
D03*
X596900D02*
D03*
X584200D02*
D03*
X571500D02*
D03*
Y833560D02*
D03*
X584200D02*
D03*
X596900D02*
D03*
X609600D02*
D03*
D22*
X629920Y814960D02*
D03*
Y830960D02*
D03*
X683860Y766709D02*
D03*
Y782709D02*
D03*
X738470Y762899D02*
D03*
Y778899D02*
D03*
X847090Y993520D02*
D03*
Y977520D02*
D03*
X828040Y993520D02*
D03*
Y977520D02*
D03*
X798160Y1011309D02*
D03*
Y995309D02*
D03*
D23*
X750862Y1016026D02*
D03*
X770862D02*
D03*
D24*
X626999Y1010920D02*
D03*
Y998220D02*
D03*
Y985520D02*
D03*
Y972820D02*
D03*
X554101D02*
D03*
Y985520D02*
D03*
Y998220D02*
D03*
Y1010920D02*
D03*
D25*
X749010Y937479D02*
D03*
X713010D02*
D03*
X717010D02*
D03*
X721010D02*
D03*
X725010D02*
D03*
X729010D02*
D03*
X733010D02*
D03*
X737010D02*
D03*
X741010D02*
D03*
X745010D02*
D03*
X753010D02*
D03*
X757010D02*
D03*
X761010D02*
D03*
X765010D02*
D03*
X769010D02*
D03*
Y868479D02*
D03*
X765010D02*
D03*
X761010D02*
D03*
X757010D02*
D03*
X753010D02*
D03*
X749010D02*
D03*
X745010D02*
D03*
X741010D02*
D03*
X737010D02*
D03*
X733010D02*
D03*
X729010D02*
D03*
X725010D02*
D03*
X721010D02*
D03*
X717010D02*
D03*
X713010D02*
D03*
D26*
X741010Y902979D02*
D03*
D27*
X775510Y930979D02*
D03*
Y926979D02*
D03*
Y922979D02*
D03*
Y918979D02*
D03*
Y914979D02*
D03*
Y910979D02*
D03*
Y906979D02*
D03*
Y902979D02*
D03*
Y898979D02*
D03*
Y894979D02*
D03*
Y890979D02*
D03*
Y886979D02*
D03*
Y882979D02*
D03*
Y878979D02*
D03*
Y874979D02*
D03*
X706510D02*
D03*
Y878979D02*
D03*
Y882979D02*
D03*
Y886979D02*
D03*
Y890979D02*
D03*
Y894979D02*
D03*
Y898979D02*
D03*
Y902979D02*
D03*
Y906979D02*
D03*
Y910979D02*
D03*
Y914979D02*
D03*
Y918979D02*
D03*
Y922979D02*
D03*
Y926979D02*
D03*
Y930979D02*
D03*
D28*
X720550Y774639D02*
D03*
Y797639D02*
D03*
X703050D02*
D03*
Y774639D02*
D03*
D29*
X784480Y828040D02*
D03*
X800480D02*
D03*
X784480Y844550D02*
D03*
X800480D02*
D03*
X809340Y941634D02*
D03*
X825340D02*
D03*
X873470Y924569D02*
D03*
X857470D02*
D03*
X598550Y768350D02*
D03*
X582550D02*
D03*
D30*
X852770Y1116339D02*
D03*
X895950D02*
D03*
X852770Y1060459D02*
D03*
X895950D02*
D03*
D31*
X805780Y1106859D02*
D03*
Y1064859D02*
D03*
D35*
X981964Y750824D02*
D03*
X765302Y1073658D02*
D03*
X922782Y1042670D02*
D03*
X631190Y750570D02*
D03*
X1012952Y827278D02*
D03*
X689610Y691896D02*
D03*
D36*
X1037590Y691830D02*
D03*
Y671830D02*
D03*
X575310Y652780D02*
D03*
Y672780D02*
D03*
D37*
X1037590Y651830D02*
D03*
X575310Y692780D02*
D03*
D38*
X719230Y1079700D02*
D03*
X675230D02*
D03*
D39*
X1064260Y957580D02*
D03*
Y1008380D02*
D03*
D40*
X897890Y867410D02*
D03*
X1031240Y1108710D02*
D03*
Y1069340D02*
D03*
X542290Y887730D02*
D03*
X543560Y925830D02*
D03*
X898490Y905519D02*
D03*
X838200Y779780D02*
D03*
Y817880D02*
D03*
X575310Y1036320D02*
D03*
X838200Y741680D02*
D03*
D41*
X1087120Y1137920D02*
D03*
X525780D02*
D03*
Y582930D02*
D03*
X1087120D02*
D03*
D42*
X786130Y745490D02*
D03*
D43*
Y770890D02*
D03*
Y796290D02*
D03*
D44*
X1073150Y797000D02*
D03*
D45*
Y762000D02*
D03*
%TF.MD5,ebeab22332a76d783d9693396ba5357e*%
M02*
