%TF.GenerationSoftware,Altium Limited,Altium Designer,24.9.1 (31)*%
G04 Layer_Color=0*
%FSLAX44Y44*%
%MOMM*%
%TF.SameCoordinates,6B423169-25D8-4BB9-912F-35ADE512F806*%
%TF.FilePolarity,Positive*%
%TF.FileFunction,Plated,1,2,PTH,Drill*%
%TF.Part,Single*%
G01*
G75*
%TA.AperFunction,ComponentDrill*%
%ADD95C,1.0160*%
%ADD96C,0.8000*%
%ADD97C,1.2000*%
%ADD98C,1.3000*%
%ADD99C,3.5000*%
%ADD100C,1.0700*%
%ADD101C,0.8500*%
%TA.AperFunction,ViaDrill,NotFilled*%
%ADD102C,0.2500*%
D95*
X981964Y750824D02*
D03*
X765302Y1073658D02*
D03*
X922782Y1042670D02*
D03*
X631190Y750570D02*
D03*
X1012952Y827278D02*
D03*
X689610Y691896D02*
D03*
X897890Y867410D02*
D03*
X1031240Y1108710D02*
D03*
Y1069340D02*
D03*
X542290Y887730D02*
D03*
X543560Y925830D02*
D03*
X898490Y905519D02*
D03*
X838200Y779780D02*
D03*
Y817880D02*
D03*
X575310Y1036320D02*
D03*
X838200Y741680D02*
D03*
D96*
X1037590Y691830D02*
D03*
Y651830D02*
D03*
Y671830D02*
D03*
X575310Y652780D02*
D03*
Y692780D02*
D03*
Y672780D02*
D03*
D97*
X719230Y1079700D02*
D03*
X675230D02*
D03*
D98*
X1064260Y957580D02*
D03*
Y1008380D02*
D03*
D99*
X1087120Y1137920D02*
D03*
X525780D02*
D03*
Y582930D02*
D03*
X1087120D02*
D03*
D100*
X786130Y745490D02*
D03*
Y770890D02*
D03*
Y796290D02*
D03*
D101*
X1073150Y797000D02*
D03*
Y762000D02*
D03*
D102*
X590550Y717550D02*
D03*
X719130Y911329D02*
D03*
X691480Y913289D02*
D03*
X650040Y914611D02*
D03*
X680720Y1036320D02*
D03*
X652320Y1003300D02*
D03*
X563935Y833092D02*
D03*
X825500Y1132840D02*
D03*
X1008982Y1113329D02*
D03*
X998822Y1095549D02*
D03*
X1008982Y1104439D02*
D03*
X989932Y1095549D02*
D03*
X650276Y929296D02*
D03*
X909320Y1056640D02*
D03*
Y1064260D02*
D03*
X913130Y1112520D02*
D03*
Y1120140D02*
D03*
X683260Y754380D02*
D03*
X737870Y750570D02*
D03*
X720090Y812800D02*
D03*
X702310Y760730D02*
D03*
X604620Y898447D02*
D03*
X846525Y1005538D02*
D03*
X828745D02*
D03*
X629920Y842010D02*
D03*
X782320Y845820D02*
D03*
X694690Y891540D02*
D03*
X842010Y906310D02*
D03*
X839265Y924795D02*
D03*
X784480Y828040D02*
D03*
X821690Y859790D02*
D03*
X610870Y1040130D02*
D03*
X556260Y963930D02*
D03*
X779462Y981367D02*
D03*
X780380Y996959D02*
D03*
X743360Y990889D02*
D03*
X743360Y997389D02*
D03*
X842010Y871220D02*
D03*
Y889000D02*
D03*
X678180Y834390D02*
D03*
X744220Y840544D02*
D03*
X741130Y881079D02*
D03*
X801134Y906785D02*
D03*
X743550Y924569D02*
D03*
X793080Y932189D02*
D03*
X754380Y917079D02*
D03*
X762380Y907079D02*
D03*
X740742Y902970D02*
D03*
X754380Y889829D02*
D03*
Y902970D02*
D03*
X727130D02*
D03*
Y889829D02*
D03*
X740742D02*
D03*
X740491Y917079D02*
D03*
X798157Y1024568D02*
D03*
X727130Y917079D02*
D03*
%TF.MD5,23241f9a7f0f8d98321b642c7308b5a0*%
M02*
