M48
;Layer_Color=9474304
;FILE_FORMAT=4:3
METRIC,LZ
;TYPE=PLATED
T01F00S00C0.300
T02F00S00C0.900
%
T01
X001Y000975
Y001125
Y00125
Y00135
X001175Y001025
X001525Y000875
X00155Y001175
Y001325
T02
X0002Y000175
Y000429
Y000683
X0002Y000937
X0002Y001191
X001978
X001978Y000937
X001978Y000683
Y000429
Y000175
X001978Y001445
Y001699
Y001953
X0002
Y001699
Y001445
M30
