%TF.GenerationSoftware,Altium Limited,Altium Designer,25.2.1 (25)*%
G04 Layer_Color=2752767*
%FSLAX43Y43*%
%MOMM*%
%TF.SameCoordinates,845350DF-8528-417F-BDD2-0506F51195E0*%
%TF.FilePolarity,Positive*%
%TF.FileFunction,Drawing*%
%TF.Part,Single*%
G01*
G75*
%TA.AperFunction,NonConductor*%
%ADD29C,0.127*%
%ADD30C,0.169*%
D29*
X19272Y3782D02*
Y4798D01*
X20288D01*
Y3782D01*
X19272D01*
Y1242D02*
Y2258D01*
X20288D01*
Y1242D01*
X19272D01*
Y6322D02*
Y7338D01*
X20288D01*
Y6322D01*
X19272D01*
X19272Y19022D02*
Y20038D01*
X20288D01*
Y19022D01*
X19272D01*
Y16482D02*
Y17498D01*
X20288D01*
Y16482D01*
X19272D01*
Y13942D02*
Y14958D01*
X20288D01*
Y13942D01*
X19272D01*
X19272Y11402D02*
Y12418D01*
X20288D01*
Y11402D01*
X19272D01*
X19272Y8862D02*
Y9878D01*
X20288D01*
Y8862D01*
X19272D01*
X1492Y3782D02*
Y4798D01*
X2508D01*
Y3782D01*
X1492D01*
Y1242D02*
Y2258D01*
X2508D01*
Y1242D01*
X1492D01*
Y6322D02*
Y7338D01*
X2508D01*
Y6322D01*
X1492D01*
X1492Y19022D02*
Y20038D01*
X2508D01*
Y19022D01*
X1492D01*
Y16482D02*
Y17498D01*
X2508D01*
Y16482D01*
X1492D01*
Y13942D02*
Y14958D01*
X2508D01*
Y13942D01*
X1492D01*
X1492Y11402D02*
Y12418D01*
X2508D01*
Y11402D01*
X1492D01*
X1492Y8862D02*
Y9878D01*
X2508D01*
Y8862D01*
X1492D01*
D30*
X16008Y13250D02*
G03*
X16008Y13250I-508J0D01*
G01*
Y11750D02*
G03*
X16008Y11750I-508J0D01*
G01*
X15758Y8750D02*
G03*
X15758Y8750I-508J0D01*
G01*
X12258Y10250D02*
G03*
X12258Y10250I-508J0D01*
G01*
X10508Y9750D02*
G03*
X10508Y9750I-508J0D01*
G01*
Y11250D02*
G03*
X10508Y11250I-508J0D01*
G01*
Y12500D02*
G03*
X10508Y12500I-508J0D01*
G01*
Y13500D02*
G03*
X10508Y13500I-508J0D01*
G01*
%TF.MD5,2cf387fab5a90d5530641b27c4b1f2f7*%
M02*
