%TF.GenerationSoftware,Altium Limited,Altium Designer,26.9.1 (10)*%
G04 Layer_Color=32896*
G04 Board_Origin=17440945|968010161*
%FSLAX43Y43*%
%MOMM*%
%TF.SameCoordinates,B4983FAE-E162-4530-9D55-9E570CABCAF8*%
%TF.FilePolarity,Positive*%
%TF.FileFunction,Other,Top_Component_Outline*%
%TF.Part,Single*%
G01*
G75*
%TA.AperFunction,NonConductor*%
%ADD40C,0.100*%
D40*
X-6350Y2800D02*
X-5850D01*
X-4350D02*
X-3850D01*
X-5850D02*
Y3900D01*
X-6350Y2800D02*
Y3900D01*
X-3850Y2800D02*
Y3900D01*
X-4350Y2800D02*
Y3900D01*
X-7300D02*
X-2900D01*
Y7900D01*
X-7300Y3900D02*
Y7900D01*
X-2900D01*
X-6350D02*
Y9000D01*
X-5850Y7900D02*
Y9000D01*
X-3850Y7900D02*
Y9000D01*
X-4350Y7900D02*
Y9000D01*
X-6350D02*
X-5850D01*
X-4350D02*
X-3850D01*
X-6316Y11200D02*
X-5816D01*
Y12300D01*
X-6316Y11200D02*
Y12300D01*
X-5816Y16300D02*
Y17400D01*
X-6316Y16300D02*
Y17400D01*
X-5816D01*
X-4316Y11200D02*
X-3816D01*
X-2316D02*
X-1816D01*
X-3816D02*
Y12300D01*
X-4316Y11200D02*
Y12300D01*
X-2316Y11200D02*
Y12300D01*
X-1816Y11200D02*
Y12300D01*
X-7266D02*
X-866D01*
Y16300D01*
X-7266Y12300D02*
Y16300D01*
X-866D01*
X-3816D02*
Y17400D01*
X-4316Y16300D02*
Y17400D01*
X-1816Y16300D02*
Y17400D01*
X-2316Y16300D02*
Y17400D01*
X-4316D02*
X-3816D01*
X-2316D02*
X-1816D01*
X2184Y11200D02*
X2684D01*
Y12300D01*
X2184Y11200D02*
Y12300D01*
X2684Y16300D02*
Y17400D01*
X2184Y16300D02*
Y17400D01*
X2684D01*
X4184Y11200D02*
X4684D01*
X6184D02*
X6684D01*
X4684D02*
Y12300D01*
X4184Y11200D02*
Y12300D01*
X6184Y11200D02*
Y12300D01*
X6684Y11200D02*
Y12300D01*
X1234D02*
X7634D01*
Y16300D01*
X1234Y12300D02*
Y16300D01*
X7634D01*
X4684D02*
Y17400D01*
X4184Y16300D02*
Y17400D01*
X6684Y16300D02*
Y17400D01*
X6184Y16300D02*
Y17400D01*
X4184D02*
X4684D01*
X6184D02*
X6684D01*
X6169Y9100D02*
X6669D01*
X4169D02*
X4669D01*
X6169Y8000D02*
Y9100D01*
X6669Y8000D02*
Y9100D01*
X4669Y8000D02*
Y9100D01*
X4169Y8000D02*
Y9100D01*
X3219Y8000D02*
X7619D01*
X3219Y4000D02*
Y8000D01*
X7619Y4000D02*
Y8000D01*
X3219Y4000D02*
X7619D01*
X6169Y2900D02*
Y4000D01*
X6669Y2900D02*
Y4000D01*
X4169Y2900D02*
Y4000D01*
X4669Y2900D02*
Y4000D01*
X6169Y2900D02*
X6669D01*
X4169D02*
X4669D01*
%TF.MD5,1bc58fe7ded40a082fb7a9cebe45e069*%
M02*
