%TF.GenerationSoftware,Altium Limited,Altium Designer,26.9.1 (10)*%
G04 Layer_Color=32768*
G04 Board_Origin=17440945|968010161*
%FSLAX43Y43*%
%MOMM*%
%TF.SameCoordinates,B4983FAE-E162-4530-9D55-9E570CABCAF8*%
%TF.FilePolarity,Positive*%
%TF.FileFunction,Other,Top_Courtyard*%
%TF.Part,Single*%
G01*
G75*
%TA.AperFunction,NonConductor*%
%ADD27C,0.200*%
%ADD39C,0.050*%
D27*
X-14525Y11425D02*
Y18575D01*
X-17675Y11425D02*
X-14525D01*
X-17675D02*
Y18575D01*
X-14525D01*
X-13075Y11425D02*
Y18575D01*
X-9925D01*
Y11425D02*
Y18575D01*
X-13075Y11425D02*
X-9925D01*
X3900Y-10383D02*
X5000D01*
Y-8171D01*
X3900D02*
X5000D01*
X3900Y-10383D02*
Y-8171D01*
X7800Y-7950D02*
X9300D01*
X7800Y-10650D02*
Y-7950D01*
Y-10650D02*
X9300D01*
Y-7950D01*
X5700D02*
X7200D01*
X5700Y-10650D02*
Y-7950D01*
Y-10650D02*
X7200D01*
Y-7950D01*
X-12775Y1925D02*
X-9625D01*
Y9075D01*
X-12775D02*
X-9625D01*
X-12775Y1925D02*
Y9075D01*
X-17675D02*
X-14525D01*
X-17675Y1925D02*
Y9075D01*
Y1925D02*
X-14525D01*
Y9075D01*
X15425Y11325D02*
X18575D01*
Y18475D01*
X15425D02*
X18575D01*
X15425Y11325D02*
Y18475D01*
Y2560D02*
X18575D01*
Y9710D01*
X15425D02*
X18575D01*
X15425Y2560D02*
Y9710D01*
X10925Y9775D02*
X14075D01*
X10925Y2625D02*
Y9775D01*
Y2625D02*
X14075D01*
Y9775D01*
X10825Y18475D02*
X13975D01*
X10825Y11325D02*
Y18475D01*
Y11325D02*
X13975D01*
Y18475D01*
D39*
X-7625Y2000D02*
Y9800D01*
Y2000D02*
X-2575D01*
Y9800D01*
X-7625D02*
X-2575D01*
X-7591Y10400D02*
X-541D01*
X-7591D02*
Y18200D01*
X-541D01*
Y10400D02*
Y18200D01*
X909Y10400D02*
X7959D01*
X909D02*
Y18200D01*
X7959D01*
Y10400D02*
Y18200D01*
X2894Y9900D02*
X7944D01*
Y2100D02*
Y9900D01*
X2894Y2100D02*
X7944D01*
X2894D02*
Y9900D01*
%TF.MD5,7401ea7c395f25e86c33e269daa70a21*%
M02*
