%TF.GenerationSoftware,Altium Limited,Altium Designer,26.9.1 (10)*%
G04 Layer_Physical_Order=1*
G04 Layer_Color=255*
G04 Board_Origin=17440945|968010161*
%FSLAX43Y43*%
%MOMM*%
%TF.SameCoordinates,B4983FAE-E162-4530-9D55-9E570CABCAF8*%
%TF.FilePolarity,Positive*%
%TF.FileFunction,Copper,L1,Top,Signal*%
%TF.Part,Single*%
G01*
G75*
%TA.AperFunction,SMDPad,CuDef*%
%ADD10R,0.900X2.100*%
%ADD11C,1.000*%
%TA.AperFunction,ConnectorPad*%
%ADD12R,0.900X2.100*%
%TA.AperFunction,SMDPad,CuDef*%
%ADD13R,1.750X2.650*%
%TA.AperFunction,BGAPad,CuDef*%
%ADD14C,1.000*%
%TA.AperFunction,SMDPad,CuDef*%
%ADD15C,5.500*%
%ADD16R,0.812X0.758*%
%ADD17R,0.900X0.800*%
%TA.AperFunction,Conductor*%
%ADD18C,0.750*%
%ADD19C,0.500*%
%ADD20C,0.254*%
%ADD21C,1.000*%
%TA.AperFunction,ViaPad*%
%ADD22C,5.250*%
%ADD23O,5.250X5.000*%
%ADD24C,3.000*%
%ADD25C,8.000*%
D10*
X-6100Y3250D02*
D03*
Y8550D02*
D03*
X-4100Y3250D02*
D03*
Y8550D02*
D03*
X6419Y8650D02*
D03*
Y3350D02*
D03*
X4419Y8650D02*
D03*
Y3350D02*
D03*
D11*
X-4100Y6900D02*
D03*
X-6100D02*
D03*
X-4100Y4900D02*
D03*
X-6100D02*
D03*
X4419Y5000D02*
D03*
X6419D02*
D03*
X4419Y7000D02*
D03*
X6419D02*
D03*
D12*
X-6066Y11650D02*
D03*
X-4066D02*
D03*
X-2066D02*
D03*
X-6066Y16950D02*
D03*
X-4066D02*
D03*
X-2066D02*
D03*
X2434Y16950D02*
D03*
X4434D02*
D03*
X2434Y11650D02*
D03*
X4434D02*
D03*
X6434D02*
D03*
Y16950D02*
D03*
D13*
X-16100Y17150D02*
D03*
Y12850D02*
D03*
X-11500D02*
D03*
Y17150D02*
D03*
X-11200Y7650D02*
D03*
Y3350D02*
D03*
X-16100D02*
D03*
Y7650D02*
D03*
X17000Y17050D02*
D03*
Y12750D02*
D03*
Y8285D02*
D03*
Y3985D02*
D03*
X12500Y4050D02*
D03*
Y8350D02*
D03*
X12400Y12750D02*
D03*
Y17050D02*
D03*
D14*
X-2066Y15300D02*
D03*
X-4066D02*
D03*
X-6066D02*
D03*
X-2066Y13300D02*
D03*
X-4066D02*
D03*
X-6066D02*
D03*
X2434Y13300D02*
D03*
X4434D02*
D03*
X6434D02*
D03*
Y15300D02*
D03*
X2434D02*
D03*
X4434D02*
D03*
D15*
X8674Y-2300D02*
D03*
X-8586D02*
D03*
D16*
X4450Y-8650D02*
D03*
Y-9904D02*
D03*
D17*
X8550Y-10050D02*
D03*
Y-8550D02*
D03*
X6450Y-10050D02*
D03*
Y-8550D02*
D03*
D18*
X-4120Y3230D02*
X-4100Y3250D01*
X-4120Y1680D02*
Y3230D01*
X-8586Y-2786D02*
X-4120Y1680D01*
X-6523Y8550D02*
X-4100D01*
X-7820Y7253D02*
X-6523Y8550D01*
X-7820Y4339D02*
Y7253D01*
Y3766D02*
Y4339D01*
Y3766D02*
X-7304Y3250D01*
X-6100D01*
X-16200Y17450D02*
X-15900Y17150D01*
X4419Y3300D02*
Y3350D01*
X4369Y3250D02*
X4419Y3300D01*
X3194Y3250D02*
X4369D01*
X2678Y4105D02*
Y7531D01*
Y4105D02*
X3194Y3250D01*
X3697Y8550D02*
X4319D01*
X2678Y7531D02*
X3697Y8550D01*
X4419Y1288D02*
X8554Y-2846D01*
X4419Y1288D02*
Y3185D01*
X8554Y-2846D02*
X11704Y304D01*
X8554Y-8546D02*
Y-2846D01*
X4419Y3350D02*
X6419D01*
X4319Y8550D02*
X4419Y8650D01*
X6419D01*
X11704Y304D02*
Y2404D01*
X-10825Y-1375D02*
X-9414Y-2786D01*
X-10825Y-1375D02*
Y2975D01*
X-9414Y-2786D02*
X-8586D01*
X-6100Y3250D02*
X-4100D01*
X4450Y-8650D02*
X4450Y-8650D01*
X12500Y4050D02*
X12500Y4050D01*
X-11668Y3818D02*
X-10825Y2975D01*
X16935Y4050D02*
X17000Y3985D01*
X12500Y4050D02*
X16935D01*
X4434Y16750D02*
X6376D01*
X12125Y3675D02*
X12500Y4050D01*
X12125Y2825D02*
Y3675D01*
X11704Y2404D02*
X12125Y2825D01*
X6400Y16950D02*
X12300D01*
X2376Y16750D02*
X4434D01*
X-15632Y3818D02*
X-11668D01*
X-16100Y3350D02*
X-15632Y3818D01*
X6450Y-8550D02*
X8550D01*
X6250Y-8650D02*
X6450Y-8550D01*
X4450Y-8650D02*
X6250D01*
X-11500Y17150D02*
X-6100D01*
X-15900D02*
X-11500D01*
X-6124Y16950D02*
X-4124D01*
X-2124D01*
D19*
X-6066Y11650D02*
X-2066D01*
X-16400Y-16600D02*
X-9704Y-9904D01*
X4450D01*
X8550Y-10050D02*
X9950D01*
X16500Y-16600D01*
X2434Y11650D02*
X6434D01*
X6457Y-10057D02*
X8543D01*
X4457Y-9911D02*
X6127D01*
D20*
X-16200Y12550D02*
X-16100Y12450D01*
X-11500Y12850D02*
X-11200Y12550D01*
X16500Y-16600D02*
X16500D01*
X16900Y17050D02*
X17000D01*
X17550Y17600D01*
X16300Y16950D02*
X16400Y17050D01*
X17000D02*
X17700D01*
X6127Y-9911D02*
X6450Y-10050D01*
X12400Y12750D02*
X12500Y12650D01*
X12300Y16950D02*
X12400Y17050D01*
D21*
X17200Y9483D02*
Y13100D01*
X12400Y17050D02*
X16300D01*
X12500Y8350D02*
Y12650D01*
X-11200Y7650D02*
Y12550D01*
X-16100Y7250D02*
Y12450D01*
D22*
X-16400Y-16600D02*
D03*
D23*
X16500D02*
D03*
D24*
X22400Y9000D02*
D03*
X-22400D02*
D03*
D25*
X0Y-2300D02*
D03*
%TF.MD5,c31450163fb548c50b48e2aef71798bb*%
M02*
