%TF.GenerationSoftware,Altium Limited,Altium Designer,26.9.1 (10)*%
G04 Layer_Color=16711935*
G04 Board_Origin=17440945|968010161*
%FSLAX43Y43*%
%MOMM*%
%TF.SameCoordinates,B4983FAE-E162-4530-9D55-9E570CABCAF8*%
%TF.FilePolarity,Positive*%
%TF.FileFunction,Other,Top_Assembly*%
%TF.Part,Single*%
G01*
G75*
%TA.AperFunction,NonConductor*%
%ADD27C,0.200*%
G36*
X-15449Y14761D02*
X-15450Y14754D01*
Y14746D01*
X-15450Y14738D01*
X-15451Y14719D01*
X-15453Y14700D01*
X-15455Y14682D01*
X-15456Y14673D01*
X-15458Y14666D01*
Y14665D01*
X-15459Y14663D01*
X-15460Y14660D01*
X-15461Y14656D01*
X-15462Y14651D01*
X-15464Y14646D01*
X-15466Y14640D01*
X-15469Y14633D01*
X-15475Y14618D01*
X-15483Y14603D01*
X-15493Y14586D01*
X-15505Y14571D01*
X-15505Y14571D01*
X-15506Y14569D01*
X-15509Y14566D01*
X-15512Y14563D01*
X-15516Y14559D01*
X-15521Y14554D01*
X-15528Y14549D01*
X-15534Y14543D01*
X-15541Y14537D01*
X-15550Y14531D01*
X-15559Y14525D01*
X-15568Y14518D01*
X-15579Y14512D01*
X-15590Y14506D01*
X-15614Y14496D01*
X-15615D01*
X-15617Y14495D01*
X-15621Y14493D01*
X-15626Y14492D01*
X-15632Y14490D01*
X-15639Y14488D01*
X-15648Y14485D01*
X-15658Y14483D01*
X-15668Y14481D01*
X-15680Y14478D01*
X-15693Y14476D01*
X-15706Y14474D01*
X-15720Y14473D01*
X-15734Y14471D01*
X-15766Y14470D01*
X-15766D01*
X-15769D01*
X-15773D01*
X-15778D01*
X-15784Y14471D01*
X-15792D01*
X-15800Y14471D01*
X-15809Y14472D01*
X-15819Y14473D01*
X-15829Y14475D01*
X-15851Y14478D01*
X-15874Y14482D01*
X-15896Y14488D01*
X-15896D01*
X-15898Y14488D01*
X-15901Y14490D01*
X-15905Y14491D01*
X-15910Y14493D01*
X-15916Y14495D01*
X-15922Y14497D01*
X-15928Y14500D01*
X-15943Y14506D01*
X-15959Y14513D01*
X-15974Y14522D01*
X-15989Y14531D01*
X-15989D01*
X-15991Y14533D01*
X-15993Y14534D01*
X-15995Y14536D01*
X-16001Y14541D01*
X-16010Y14548D01*
X-16019Y14557D01*
X-16029Y14567D01*
X-16038Y14578D01*
X-16047Y14589D01*
Y14590D01*
X-16048Y14591D01*
X-16049Y14593D01*
X-16051Y14595D01*
X-16052Y14598D01*
X-16054Y14602D01*
X-16059Y14611D01*
X-16064Y14622D01*
X-16069Y14635D01*
X-16074Y14650D01*
X-16079Y14666D01*
Y14667D01*
X-16079Y14668D01*
X-16080Y14671D01*
X-16081Y14674D01*
X-16081Y14678D01*
X-16082Y14683D01*
X-16083Y14689D01*
X-16084Y14696D01*
X-16085Y14703D01*
X-16086Y14711D01*
X-16088Y14728D01*
X-16089Y14748D01*
X-16089Y14769D01*
Y15000D01*
X-15449D01*
Y14761D01*
D02*
G37*
G36*
X-15909Y14306D02*
X-15909D01*
X-15912Y14306D01*
X-15915Y14305D01*
X-15920Y14304D01*
X-15925Y14303D01*
X-15932Y14301D01*
X-15939Y14298D01*
X-15946Y14296D01*
X-15962Y14290D01*
X-15978Y14281D01*
X-15993Y14272D01*
X-15999Y14266D01*
X-16006Y14261D01*
Y14260D01*
X-16007Y14260D01*
X-16008Y14258D01*
X-16010Y14255D01*
X-16013Y14252D01*
X-16015Y14248D01*
X-16020Y14239D01*
X-16026Y14227D01*
X-16031Y14213D01*
X-16034Y14198D01*
X-16034Y14190D01*
X-16035Y14181D01*
Y14176D01*
X-16034Y14172D01*
X-16034Y14167D01*
X-16033Y14162D01*
X-16032Y14156D01*
X-16030Y14149D01*
X-16026Y14134D01*
X-16023Y14126D01*
X-16019Y14118D01*
X-16014Y14110D01*
X-16009Y14103D01*
X-16004Y14095D01*
X-15997Y14088D01*
X-15996Y14087D01*
X-15995Y14086D01*
X-15993Y14084D01*
X-15990Y14082D01*
X-15986Y14079D01*
X-15982Y14076D01*
X-15977Y14072D01*
X-15971Y14068D01*
X-15964Y14065D01*
X-15957Y14061D01*
X-15941Y14055D01*
X-15932Y14053D01*
X-15923Y14052D01*
X-15913Y14050D01*
X-15902Y14050D01*
X-15901D01*
X-15899D01*
X-15897D01*
X-15893Y14050D01*
X-15888Y14051D01*
X-15883Y14052D01*
X-15877Y14053D01*
X-15870Y14054D01*
X-15856Y14058D01*
X-15849Y14061D01*
X-15841Y14065D01*
X-15834Y14069D01*
X-15826Y14073D01*
X-15819Y14079D01*
X-15813Y14085D01*
X-15812Y14086D01*
X-15811Y14087D01*
X-15809Y14089D01*
X-15807Y14091D01*
X-15804Y14095D01*
X-15801Y14100D01*
X-15798Y14104D01*
X-15795Y14110D01*
X-15792Y14116D01*
X-15789Y14123D01*
X-15783Y14138D01*
X-15779Y14156D01*
X-15778Y14165D01*
X-15778Y14175D01*
Y14179D01*
X-15778Y14184D01*
X-15779Y14190D01*
X-15779Y14198D01*
X-15781Y14208D01*
X-15783Y14218D01*
X-15786Y14230D01*
X-15717Y14221D01*
Y14220D01*
X-15718Y14217D01*
X-15718Y14213D01*
Y14204D01*
X-15718Y14200D01*
Y14196D01*
X-15717Y14191D01*
X-15716Y14185D01*
X-15715Y14179D01*
X-15712Y14165D01*
X-15707Y14150D01*
X-15701Y14134D01*
X-15692Y14118D01*
X-15691Y14118D01*
X-15691Y14116D01*
X-15689Y14115D01*
X-15687Y14112D01*
X-15684Y14109D01*
X-15681Y14105D01*
X-15677Y14102D01*
X-15672Y14098D01*
X-15667Y14094D01*
X-15661Y14091D01*
X-15654Y14087D01*
X-15647Y14084D01*
X-15639Y14082D01*
X-15630Y14080D01*
X-15621Y14078D01*
X-15611Y14078D01*
X-15611D01*
X-15610D01*
X-15607D01*
X-15604Y14078D01*
X-15600D01*
X-15596Y14079D01*
X-15586Y14082D01*
X-15575Y14085D01*
X-15563Y14090D01*
X-15551Y14097D01*
X-15545Y14102D01*
X-15540Y14107D01*
X-15539Y14108D01*
X-15538Y14108D01*
X-15537Y14110D01*
X-15535Y14112D01*
X-15530Y14119D01*
X-15525Y14128D01*
X-15520Y14138D01*
X-15515Y14151D01*
X-15512Y14166D01*
X-15511Y14174D01*
Y14187D01*
X-15511Y14190D01*
Y14195D01*
X-15512Y14199D01*
X-15515Y14210D01*
X-15518Y14222D01*
X-15523Y14235D01*
X-15530Y14248D01*
X-15535Y14254D01*
X-15540Y14260D01*
X-15541Y14260D01*
X-15541Y14261D01*
X-15543Y14263D01*
X-15546Y14265D01*
X-15548Y14267D01*
X-15552Y14270D01*
X-15556Y14273D01*
X-15561Y14276D01*
X-15568Y14279D01*
X-15574Y14283D01*
X-15581Y14286D01*
X-15589Y14289D01*
X-15597Y14291D01*
X-15606Y14295D01*
X-15616Y14296D01*
X-15626Y14298D01*
X-15613Y14377D01*
X-15612D01*
X-15609Y14376D01*
X-15605Y14375D01*
X-15600Y14374D01*
X-15593Y14372D01*
X-15585Y14370D01*
X-15577Y14367D01*
X-15568Y14363D01*
X-15558Y14360D01*
X-15548Y14355D01*
X-15538Y14350D01*
X-15528Y14343D01*
X-15518Y14337D01*
X-15508Y14330D01*
X-15499Y14321D01*
X-15490Y14312D01*
X-15490Y14311D01*
X-15488Y14310D01*
X-15486Y14307D01*
X-15483Y14303D01*
X-15480Y14298D01*
X-15476Y14292D01*
X-15472Y14285D01*
X-15468Y14277D01*
X-15464Y14268D01*
X-15460Y14258D01*
X-15456Y14248D01*
X-15453Y14236D01*
X-15450Y14225D01*
X-15448Y14212D01*
X-15447Y14198D01*
X-15446Y14185D01*
Y14180D01*
X-15447Y14176D01*
Y14171D01*
X-15448Y14166D01*
X-15448Y14160D01*
X-15449Y14153D01*
X-15452Y14138D01*
X-15456Y14122D01*
X-15461Y14105D01*
X-15469Y14088D01*
Y14088D01*
X-15470Y14086D01*
X-15471Y14084D01*
X-15473Y14081D01*
X-15475Y14077D01*
X-15478Y14073D01*
X-15485Y14063D01*
X-15494Y14052D01*
X-15505Y14041D01*
X-15517Y14030D01*
X-15531Y14021D01*
X-15531D01*
X-15533Y14020D01*
X-15535Y14018D01*
X-15538Y14017D01*
X-15541Y14015D01*
X-15545Y14013D01*
X-15556Y14009D01*
X-15568Y14005D01*
X-15582Y14001D01*
X-15597Y13998D01*
X-15613Y13997D01*
X-15614D01*
X-15615D01*
X-15617D01*
X-15620Y13998D01*
X-15624D01*
X-15628Y13998D01*
X-15638Y14000D01*
X-15650Y14003D01*
X-15663Y14007D01*
X-15676Y14012D01*
X-15689Y14020D01*
X-15689D01*
X-15690Y14021D01*
X-15692Y14022D01*
X-15694Y14024D01*
X-15701Y14029D01*
X-15708Y14037D01*
X-15717Y14046D01*
X-15726Y14057D01*
X-15734Y14070D01*
X-15743Y14086D01*
Y14085D01*
X-15743Y14083D01*
X-15744Y14080D01*
X-15745Y14076D01*
X-15747Y14071D01*
X-15749Y14066D01*
X-15754Y14053D01*
X-15761Y14040D01*
X-15771Y14025D01*
X-15783Y14010D01*
X-15789Y14004D01*
X-15797Y13998D01*
X-15798Y13997D01*
X-15799Y13997D01*
X-15801Y13995D01*
X-15804Y13993D01*
X-15808Y13990D01*
X-15813Y13988D01*
X-15819Y13985D01*
X-15825Y13982D01*
X-15833Y13979D01*
X-15840Y13976D01*
X-15849Y13973D01*
X-15858Y13971D01*
X-15878Y13967D01*
X-15889Y13967D01*
X-15900Y13966D01*
X-15901D01*
X-15904D01*
X-15908Y13967D01*
X-15914D01*
X-15921Y13968D01*
X-15929Y13969D01*
X-15939Y13971D01*
X-15949Y13973D01*
X-15960Y13977D01*
X-15971Y13981D01*
X-15983Y13986D01*
X-15995Y13992D01*
X-16007Y13999D01*
X-16019Y14007D01*
X-16031Y14017D01*
X-16042Y14027D01*
X-16043Y14028D01*
X-16044Y14030D01*
X-16048Y14033D01*
X-16051Y14038D01*
X-16056Y14044D01*
X-16060Y14052D01*
X-16066Y14060D01*
X-16071Y14070D01*
X-16076Y14080D01*
X-16082Y14092D01*
X-16086Y14105D01*
X-16091Y14118D01*
X-16094Y14133D01*
X-16098Y14148D01*
X-16099Y14165D01*
X-16100Y14182D01*
Y14186D01*
X-16099Y14190D01*
Y14196D01*
X-16099Y14203D01*
X-16098Y14211D01*
X-16096Y14221D01*
X-16094Y14231D01*
X-16091Y14242D01*
X-16088Y14253D01*
X-16084Y14265D01*
X-16079Y14276D01*
X-16073Y14288D01*
X-16066Y14300D01*
X-16059Y14311D01*
X-16050Y14322D01*
X-16049Y14323D01*
X-16048Y14325D01*
X-16045Y14327D01*
X-16041Y14331D01*
X-16036Y14335D01*
X-16030Y14340D01*
X-16023Y14345D01*
X-16015Y14351D01*
X-16006Y14356D01*
X-15996Y14362D01*
X-15986Y14367D01*
X-15974Y14372D01*
X-15961Y14376D01*
X-15948Y14380D01*
X-15934Y14383D01*
X-15919Y14385D01*
X-15909Y14306D01*
D02*
G37*
G36*
X-11500Y15832D02*
X-12000D01*
Y15831D01*
X-11999Y15830D01*
X-11998Y15829D01*
X-11996Y15827D01*
X-11990Y15820D01*
X-11984Y15812D01*
X-11975Y15801D01*
X-11966Y15788D01*
X-11956Y15773D01*
X-11946Y15757D01*
Y15756D01*
X-11945Y15755D01*
X-11944Y15752D01*
X-11942Y15749D01*
X-11939Y15745D01*
X-11937Y15740D01*
X-11931Y15729D01*
X-11925Y15717D01*
X-11918Y15703D01*
X-11912Y15689D01*
X-11906Y15675D01*
X-11982D01*
X-11982Y15675D01*
X-11983Y15678D01*
X-11985Y15681D01*
X-11987Y15686D01*
X-11990Y15692D01*
X-11994Y15698D01*
X-11998Y15705D01*
X-12003Y15714D01*
X-12014Y15732D01*
X-12027Y15751D01*
X-12041Y15770D01*
X-12057Y15790D01*
X-12057Y15790D01*
X-12059Y15792D01*
X-12061Y15795D01*
X-12064Y15798D01*
X-12069Y15802D01*
X-12073Y15807D01*
X-12079Y15812D01*
X-12084Y15817D01*
X-12097Y15829D01*
X-12112Y15840D01*
X-12127Y15850D01*
X-12135Y15855D01*
X-12143Y15859D01*
Y15910D01*
X-11500D01*
Y15832D01*
D02*
G37*
G36*
X-11805Y15529D02*
X-11797D01*
X-11789Y15529D01*
X-11780Y15528D01*
X-11770Y15527D01*
X-11760Y15525D01*
X-11738Y15522D01*
X-11716Y15518D01*
X-11694Y15512D01*
X-11693D01*
X-11691Y15512D01*
X-11688Y15510D01*
X-11684Y15509D01*
X-11679Y15507D01*
X-11674Y15505D01*
X-11667Y15503D01*
X-11661Y15500D01*
X-11646Y15494D01*
X-11631Y15487D01*
X-11615Y15478D01*
X-11601Y15469D01*
X-11600D01*
X-11599Y15467D01*
X-11597Y15466D01*
X-11594Y15464D01*
X-11588Y15459D01*
X-11579Y15452D01*
X-11570Y15443D01*
X-11561Y15433D01*
X-11551Y15422D01*
X-11542Y15411D01*
Y15410D01*
X-11542Y15409D01*
X-11541Y15407D01*
X-11539Y15405D01*
X-11537Y15402D01*
X-11535Y15398D01*
X-11531Y15389D01*
X-11526Y15378D01*
X-11520Y15365D01*
X-11515Y15350D01*
X-11511Y15334D01*
Y15333D01*
X-11510Y15332D01*
X-11509Y15329D01*
X-11509Y15326D01*
X-11508Y15322D01*
X-11507Y15317D01*
X-11506Y15311D01*
X-11506Y15304D01*
X-11504Y15297D01*
X-11503Y15289D01*
X-11502Y15272D01*
X-11501Y15252D01*
X-11500Y15231D01*
Y15000D01*
X-12140D01*
Y15239D01*
X-12140Y15246D01*
Y15254D01*
X-12139Y15262D01*
X-12138Y15281D01*
X-12137Y15300D01*
X-12134Y15318D01*
X-12133Y15327D01*
X-12131Y15334D01*
Y15335D01*
X-12130Y15337D01*
X-12130Y15340D01*
X-12129Y15344D01*
X-12127Y15349D01*
X-12125Y15354D01*
X-12123Y15360D01*
X-12120Y15367D01*
X-12114Y15382D01*
X-12106Y15397D01*
X-12097Y15414D01*
X-12085Y15429D01*
X-12084Y15429D01*
X-12083Y15431D01*
X-12080Y15434D01*
X-12077Y15437D01*
X-12073Y15441D01*
X-12068Y15446D01*
X-12062Y15451D01*
X-12055Y15457D01*
X-12048Y15463D01*
X-12039Y15469D01*
X-12030Y15475D01*
X-12021Y15482D01*
X-12010Y15488D01*
X-11999Y15494D01*
X-11975Y15504D01*
X-11975D01*
X-11972Y15505D01*
X-11969Y15507D01*
X-11964Y15508D01*
X-11957Y15510D01*
X-11950Y15512D01*
X-11941Y15515D01*
X-11932Y15517D01*
X-11921Y15519D01*
X-11909Y15522D01*
X-11897Y15524D01*
X-11884Y15526D01*
X-11869Y15527D01*
X-11855Y15529D01*
X-11824Y15530D01*
X-11823D01*
X-11821D01*
X-11817D01*
X-11811D01*
X-11805Y15529D01*
D02*
G37*
G36*
X4450Y-8447D02*
X3950D01*
Y-8448D01*
X3951Y-8448D01*
X3952Y-8450D01*
X3954Y-8452D01*
X3960Y-8458D01*
X3966Y-8467D01*
X3975Y-8478D01*
X3984Y-8491D01*
X3994Y-8506D01*
X4004Y-8522D01*
Y-8523D01*
X4005Y-8524D01*
X4006Y-8527D01*
X4008Y-8530D01*
X4011Y-8534D01*
X4013Y-8538D01*
X4019Y-8550D01*
X4025Y-8562D01*
X4032Y-8576D01*
X4038Y-8590D01*
X4044Y-8604D01*
X3968D01*
X3968Y-8603D01*
X3967Y-8601D01*
X3965Y-8598D01*
X3963Y-8593D01*
X3960Y-8587D01*
X3956Y-8581D01*
X3952Y-8573D01*
X3947Y-8565D01*
X3936Y-8547D01*
X3923Y-8528D01*
X3909Y-8508D01*
X3893Y-8489D01*
X3893Y-8488D01*
X3891Y-8487D01*
X3889Y-8484D01*
X3886Y-8481D01*
X3881Y-8477D01*
X3877Y-8472D01*
X3871Y-8467D01*
X3866Y-8462D01*
X3853Y-8450D01*
X3838Y-8439D01*
X3823Y-8428D01*
X3815Y-8423D01*
X3807Y-8420D01*
Y-8368D01*
X4450D01*
Y-8447D01*
D02*
G37*
G36*
Y-8820D02*
X4317Y-8905D01*
X4316Y-8905D01*
X4314Y-8906D01*
X4311Y-8908D01*
X4308Y-8911D01*
X4303Y-8914D01*
X4297Y-8918D01*
X4284Y-8926D01*
X4270Y-8936D01*
X4256Y-8946D01*
X4241Y-8956D01*
X4235Y-8961D01*
X4229Y-8966D01*
X4228D01*
X4228Y-8967D01*
X4224Y-8970D01*
X4218Y-8975D01*
X4212Y-8980D01*
X4205Y-8987D01*
X4198Y-8994D01*
X4191Y-9001D01*
X4186Y-9009D01*
X4186Y-9010D01*
X4184Y-9012D01*
X4182Y-9016D01*
X4179Y-9021D01*
X4176Y-9026D01*
X4174Y-9033D01*
X4171Y-9040D01*
X4169Y-9047D01*
Y-9048D01*
X4168Y-9050D01*
X4168Y-9053D01*
X4167Y-9058D01*
Y-9065D01*
X4166Y-9073D01*
X4166Y-9083D01*
Y-9192D01*
X4450D01*
Y-9277D01*
X3810D01*
Y-8979D01*
X3810Y-8972D01*
Y-8964D01*
X3811Y-8955D01*
X3811Y-8945D01*
X3814Y-8924D01*
X3817Y-8902D01*
X3821Y-8881D01*
X3824Y-8872D01*
X3827Y-8863D01*
Y-8863D01*
X3828Y-8861D01*
X3829Y-8859D01*
X3830Y-8856D01*
X3833Y-8852D01*
X3835Y-8848D01*
X3841Y-8838D01*
X3850Y-8826D01*
X3860Y-8815D01*
X3873Y-8803D01*
X3888Y-8792D01*
X3889Y-8792D01*
X3890Y-8791D01*
X3893Y-8790D01*
X3896Y-8788D01*
X3900Y-8786D01*
X3905Y-8783D01*
X3910Y-8781D01*
X3916Y-8778D01*
X3931Y-8774D01*
X3947Y-8770D01*
X3965Y-8767D01*
X3975Y-8765D01*
X3984D01*
X3985D01*
X3988D01*
X3991D01*
X3996Y-8766D01*
X4002Y-8767D01*
X4008Y-8768D01*
X4016Y-8769D01*
X4024Y-8771D01*
X4033Y-8773D01*
X4043Y-8776D01*
X4052Y-8780D01*
X4062Y-8784D01*
X4071Y-8789D01*
X4081Y-8795D01*
X4091Y-8802D01*
X4099Y-8810D01*
X4100Y-8810D01*
X4101Y-8811D01*
X4104Y-8814D01*
X4107Y-8818D01*
X4111Y-8823D01*
X4115Y-8828D01*
X4119Y-8835D01*
X4124Y-8843D01*
X4129Y-8852D01*
X4134Y-8862D01*
X4139Y-8873D01*
X4144Y-8886D01*
X4149Y-8899D01*
X4153Y-8913D01*
X4156Y-8929D01*
X4159Y-8946D01*
Y-8945D01*
X4159Y-8945D01*
X4161Y-8943D01*
X4161Y-8940D01*
X4165Y-8934D01*
X4169Y-8926D01*
X4174Y-8918D01*
X4179Y-8910D01*
X4185Y-8902D01*
X4191Y-8895D01*
X4191Y-8894D01*
X4192Y-8893D01*
X4194Y-8891D01*
X4197Y-8888D01*
X4200Y-8885D01*
X4204Y-8881D01*
X4209Y-8877D01*
X4214Y-8872D01*
X4227Y-8861D01*
X4241Y-8850D01*
X4258Y-8837D01*
X4276Y-8825D01*
X4450Y-8714D01*
Y-8820D01*
D02*
G37*
G36*
X8902Y-9301D02*
X8911Y-9301D01*
X8921Y-9302D01*
X8932Y-9303D01*
X8945Y-9305D01*
X8958Y-9307D01*
X8972Y-9309D01*
X8987Y-9312D01*
X9001Y-9316D01*
X9016Y-9321D01*
X9031Y-9326D01*
X9045Y-9331D01*
X9060Y-9338D01*
X9060Y-9339D01*
X9063Y-9340D01*
X9067Y-9342D01*
X9072Y-9345D01*
X9079Y-9349D01*
X9085Y-9354D01*
X9094Y-9359D01*
X9102Y-9366D01*
X9111Y-9373D01*
X9120Y-9381D01*
X9130Y-9391D01*
X9139Y-9400D01*
X9149Y-9411D01*
X9157Y-9422D01*
X9166Y-9434D01*
X9174Y-9447D01*
X9174Y-9447D01*
X9175Y-9450D01*
X9177Y-9454D01*
X9180Y-9459D01*
X9182Y-9466D01*
X9186Y-9474D01*
X9189Y-9482D01*
X9193Y-9493D01*
X9197Y-9504D01*
X9200Y-9516D01*
X9204Y-9529D01*
X9206Y-9542D01*
X9209Y-9557D01*
X9210Y-9571D01*
X9212Y-9587D01*
X9212Y-9602D01*
Y-9612D01*
X9212Y-9619D01*
X9211Y-9627D01*
X9210Y-9636D01*
X9208Y-9647D01*
X9206Y-9659D01*
X9204Y-9671D01*
X9200Y-9684D01*
X9196Y-9697D01*
X9192Y-9711D01*
X9186Y-9724D01*
X9179Y-9738D01*
X9172Y-9751D01*
X9163Y-9764D01*
X9162Y-9764D01*
X9160Y-9767D01*
X9158Y-9770D01*
X9154Y-9774D01*
X9149Y-9780D01*
X9143Y-9785D01*
X9135Y-9792D01*
X9127Y-9800D01*
X9118Y-9807D01*
X9108Y-9815D01*
X9097Y-9822D01*
X9084Y-9830D01*
X9071Y-9837D01*
X9057Y-9844D01*
X9042Y-9850D01*
X9025Y-9855D01*
X9006Y-9772D01*
X9007D01*
X9009Y-9770D01*
X9013Y-9769D01*
X9017Y-9767D01*
X9023Y-9765D01*
X9030Y-9762D01*
X9037Y-9759D01*
X9045Y-9755D01*
X9061Y-9746D01*
X9078Y-9735D01*
X9094Y-9722D01*
X9101Y-9714D01*
X9107Y-9707D01*
X9108Y-9706D01*
X9109Y-9705D01*
X9110Y-9702D01*
X9112Y-9699D01*
X9115Y-9695D01*
X9117Y-9690D01*
X9120Y-9684D01*
X9124Y-9677D01*
X9127Y-9671D01*
X9130Y-9662D01*
X9132Y-9654D01*
X9135Y-9644D01*
X9139Y-9624D01*
X9139Y-9612D01*
X9140Y-9601D01*
Y-9594D01*
X9139Y-9588D01*
X9139Y-9582D01*
X9138Y-9574D01*
X9137Y-9566D01*
X9135Y-9557D01*
X9131Y-9537D01*
X9129Y-9527D01*
X9125Y-9517D01*
X9120Y-9507D01*
X9116Y-9496D01*
X9110Y-9486D01*
X9104Y-9477D01*
X9104Y-9476D01*
X9102Y-9475D01*
X9100Y-9472D01*
X9098Y-9469D01*
X9094Y-9465D01*
X9090Y-9460D01*
X9085Y-9455D01*
X9079Y-9450D01*
X9072Y-9444D01*
X9065Y-9438D01*
X9057Y-9432D01*
X9049Y-9427D01*
X9040Y-9421D01*
X9030Y-9416D01*
X9020Y-9412D01*
X9009Y-9407D01*
X9008D01*
X9006Y-9407D01*
X9003Y-9406D01*
X8999Y-9404D01*
X8993Y-9403D01*
X8987Y-9401D01*
X8979Y-9399D01*
X8971Y-9397D01*
X8962Y-9396D01*
X8952Y-9394D01*
X8932Y-9391D01*
X8909Y-9388D01*
X8886Y-9387D01*
X8886D01*
X8882D01*
X8878D01*
X8872Y-9388D01*
X8866D01*
X8857Y-9389D01*
X8848Y-9389D01*
X8837Y-9391D01*
X8827Y-9392D01*
X8816Y-9393D01*
X8791Y-9397D01*
X8767Y-9403D01*
X8743Y-9411D01*
X8742D01*
X8741Y-9412D01*
X8737Y-9414D01*
X8733Y-9416D01*
X8728Y-9418D01*
X8722Y-9421D01*
X8709Y-9429D01*
X8694Y-9440D01*
X8679Y-9452D01*
X8665Y-9467D01*
X8659Y-9476D01*
X8652Y-9485D01*
X8652Y-9486D01*
X8651Y-9487D01*
X8650Y-9490D01*
X8648Y-9494D01*
X8646Y-9498D01*
X8643Y-9504D01*
X8641Y-9510D01*
X8637Y-9517D01*
X8635Y-9525D01*
X8632Y-9534D01*
X8627Y-9552D01*
X8624Y-9572D01*
X8623Y-9583D01*
X8622Y-9594D01*
Y-9601D01*
X8623Y-9606D01*
X8624Y-9612D01*
X8624Y-9619D01*
X8626Y-9627D01*
X8627Y-9636D01*
X8632Y-9654D01*
X8636Y-9664D01*
X8639Y-9675D01*
X8644Y-9685D01*
X8650Y-9695D01*
X8656Y-9705D01*
X8663Y-9714D01*
X8664Y-9715D01*
X8665Y-9716D01*
X8667Y-9719D01*
X8671Y-9722D01*
X8675Y-9726D01*
X8681Y-9731D01*
X8687Y-9736D01*
X8694Y-9741D01*
X8702Y-9747D01*
X8711Y-9752D01*
X8721Y-9758D01*
X8732Y-9764D01*
X8744Y-9769D01*
X8757Y-9773D01*
X8771Y-9777D01*
X8785Y-9781D01*
X8764Y-9866D01*
X8762D01*
X8759Y-9865D01*
X8754Y-9863D01*
X8747Y-9861D01*
X8738Y-9858D01*
X8728Y-9854D01*
X8717Y-9849D01*
X8705Y-9844D01*
X8692Y-9838D01*
X8679Y-9831D01*
X8666Y-9823D01*
X8652Y-9814D01*
X8639Y-9804D01*
X8627Y-9794D01*
X8615Y-9782D01*
X8604Y-9770D01*
X8604Y-9769D01*
X8602Y-9767D01*
X8599Y-9763D01*
X8596Y-9757D01*
X8592Y-9750D01*
X8587Y-9742D01*
X8582Y-9733D01*
X8577Y-9723D01*
X8572Y-9711D01*
X8567Y-9698D01*
X8562Y-9684D01*
X8559Y-9669D01*
X8555Y-9653D01*
X8552Y-9637D01*
X8551Y-9619D01*
X8550Y-9601D01*
Y-9591D01*
X8551Y-9583D01*
X8551Y-9574D01*
X8552Y-9564D01*
X8554Y-9553D01*
X8555Y-9541D01*
X8557Y-9527D01*
X8560Y-9514D01*
X8564Y-9500D01*
X8567Y-9486D01*
X8572Y-9472D01*
X8578Y-9457D01*
X8584Y-9444D01*
X8592Y-9432D01*
X8592Y-9431D01*
X8594Y-9429D01*
X8596Y-9426D01*
X8600Y-9421D01*
X8604Y-9416D01*
X8609Y-9410D01*
X8616Y-9403D01*
X8623Y-9396D01*
X8631Y-9387D01*
X8640Y-9379D01*
X8650Y-9371D01*
X8661Y-9363D01*
X8673Y-9356D01*
X8686Y-9347D01*
X8699Y-9341D01*
X8714Y-9334D01*
X8715Y-9333D01*
X8717Y-9332D01*
X8722Y-9331D01*
X8727Y-9329D01*
X8735Y-9326D01*
X8744Y-9323D01*
X8754Y-9320D01*
X8765Y-9317D01*
X8777Y-9314D01*
X8791Y-9311D01*
X8805Y-9308D01*
X8820Y-9305D01*
X8836Y-9303D01*
X8852Y-9301D01*
X8869Y-9301D01*
X8886Y-9300D01*
X8887D01*
X8890D01*
X8896D01*
X8902Y-9301D01*
D02*
G37*
G36*
X8578Y-9929D02*
X8586Y-9930D01*
X8596Y-9932D01*
X8605Y-9934D01*
X8615Y-9937D01*
X8616D01*
X8617Y-9938D01*
X8619Y-9939D01*
X8622Y-9940D01*
X8626Y-9942D01*
X8631Y-9944D01*
X8642Y-9950D01*
X8655Y-9957D01*
X8669Y-9966D01*
X8684Y-9977D01*
X8700Y-9989D01*
X8701Y-9990D01*
X8702Y-9991D01*
X8704Y-9993D01*
X8707Y-9996D01*
X8711Y-10000D01*
X8716Y-10004D01*
X8722Y-10009D01*
X8728Y-10015D01*
X8734Y-10022D01*
X8742Y-10030D01*
X8750Y-10039D01*
X8759Y-10047D01*
X8767Y-10057D01*
X8777Y-10068D01*
X8787Y-10080D01*
X8797Y-10092D01*
X8798Y-10093D01*
X8801Y-10096D01*
X8805Y-10102D01*
X8811Y-10109D01*
X8818Y-10117D01*
X8827Y-10127D01*
X8836Y-10137D01*
X8846Y-10149D01*
X8868Y-10172D01*
X8891Y-10195D01*
X8902Y-10206D01*
X8913Y-10216D01*
X8923Y-10225D01*
X8933Y-10233D01*
X8934Y-10233D01*
X8936Y-10235D01*
X8938Y-10237D01*
X8942Y-10238D01*
X8946Y-10242D01*
X8951Y-10245D01*
X8957Y-10248D01*
X8964Y-10252D01*
X8978Y-10258D01*
X8994Y-10265D01*
X9002Y-10267D01*
X9010Y-10268D01*
X9019Y-10270D01*
X9027Y-10270D01*
X9028D01*
X9029D01*
X9032D01*
X9035Y-10270D01*
X9039Y-10269D01*
X9044Y-10268D01*
X9055Y-10266D01*
X9067Y-10262D01*
X9080Y-10256D01*
X9087Y-10252D01*
X9094Y-10248D01*
X9100Y-10243D01*
X9106Y-10237D01*
X9107Y-10236D01*
X9107Y-10235D01*
X9109Y-10233D01*
X9111Y-10230D01*
X9114Y-10227D01*
X9116Y-10223D01*
X9119Y-10219D01*
X9122Y-10213D01*
X9125Y-10207D01*
X9129Y-10200D01*
X9134Y-10185D01*
X9137Y-10169D01*
X9138Y-10159D01*
X9139Y-10149D01*
Y-10144D01*
X9138Y-10140D01*
X9137Y-10135D01*
X9137Y-10129D01*
X9135Y-10123D01*
X9134Y-10117D01*
X9130Y-10102D01*
X9124Y-10087D01*
X9120Y-10079D01*
X9115Y-10072D01*
X9110Y-10065D01*
X9104Y-10058D01*
X9104Y-10057D01*
X9103Y-10057D01*
X9100Y-10055D01*
X9098Y-10053D01*
X9095Y-10050D01*
X9090Y-10047D01*
X9085Y-10044D01*
X9080Y-10041D01*
X9074Y-10038D01*
X9067Y-10035D01*
X9059Y-10032D01*
X9050Y-10029D01*
X9042Y-10027D01*
X9032Y-10025D01*
X9022Y-10025D01*
X9010Y-10024D01*
X9019Y-9944D01*
X9020D01*
X9022Y-9944D01*
X9027Y-9945D01*
X9034Y-9945D01*
X9041Y-9947D01*
X9050Y-9949D01*
X9059Y-9952D01*
X9070Y-9954D01*
X9080Y-9958D01*
X9092Y-9962D01*
X9103Y-9967D01*
X9115Y-9973D01*
X9126Y-9980D01*
X9137Y-9987D01*
X9147Y-9996D01*
X9156Y-10005D01*
X9157Y-10006D01*
X9158Y-10008D01*
X9160Y-10011D01*
X9164Y-10015D01*
X9167Y-10021D01*
X9171Y-10027D01*
X9175Y-10035D01*
X9180Y-10044D01*
X9184Y-10054D01*
X9189Y-10065D01*
X9192Y-10077D01*
X9196Y-10090D01*
X9199Y-10104D01*
X9202Y-10119D01*
X9203Y-10134D01*
X9204Y-10151D01*
Y-10155D01*
X9203Y-10160D01*
Y-10167D01*
X9202Y-10174D01*
X9201Y-10183D01*
X9199Y-10193D01*
X9197Y-10204D01*
X9194Y-10215D01*
X9191Y-10227D01*
X9187Y-10240D01*
X9182Y-10252D01*
X9176Y-10264D01*
X9169Y-10275D01*
X9161Y-10287D01*
X9152Y-10297D01*
X9152Y-10298D01*
X9150Y-10300D01*
X9147Y-10302D01*
X9143Y-10305D01*
X9138Y-10310D01*
X9132Y-10314D01*
X9125Y-10319D01*
X9117Y-10324D01*
X9109Y-10329D01*
X9099Y-10334D01*
X9089Y-10338D01*
X9077Y-10343D01*
X9065Y-10346D01*
X9052Y-10348D01*
X9039Y-10350D01*
X9025Y-10351D01*
X9025D01*
X9024D01*
X9022D01*
X9019D01*
X9015Y-10350D01*
X9012D01*
X9002Y-10349D01*
X8991Y-10347D01*
X8977Y-10344D01*
X8964Y-10340D01*
X8950Y-10335D01*
X8949D01*
X8948Y-10334D01*
X8946Y-10333D01*
X8944Y-10332D01*
X8940Y-10330D01*
X8936Y-10328D01*
X8926Y-10322D01*
X8915Y-10315D01*
X8901Y-10306D01*
X8887Y-10295D01*
X8872Y-10282D01*
X8871Y-10282D01*
X8870Y-10280D01*
X8867Y-10278D01*
X8864Y-10275D01*
X8860Y-10271D01*
X8855Y-10267D01*
X8849Y-10260D01*
X8842Y-10253D01*
X8835Y-10246D01*
X8826Y-10237D01*
X8817Y-10227D01*
X8807Y-10216D01*
X8796Y-10204D01*
X8784Y-10191D01*
X8772Y-10177D01*
X8759Y-10162D01*
X8759Y-10161D01*
X8757Y-10159D01*
X8754Y-10155D01*
X8750Y-10150D01*
X8745Y-10145D01*
X8739Y-10139D01*
X8727Y-10124D01*
X8714Y-10109D01*
X8701Y-10094D01*
X8694Y-10087D01*
X8688Y-10080D01*
X8683Y-10075D01*
X8679Y-10070D01*
X8678Y-10070D01*
X8675Y-10067D01*
X8671Y-10064D01*
X8666Y-10059D01*
X8659Y-10054D01*
X8652Y-10048D01*
X8644Y-10042D01*
X8636Y-10037D01*
Y-10352D01*
X8561D01*
Y-9929D01*
X8561D01*
X8562D01*
X8566D01*
X8571D01*
X8578Y-9929D01*
D02*
G37*
G36*
X6802Y-9301D02*
X6811Y-9301D01*
X6821Y-9302D01*
X6832Y-9303D01*
X6845Y-9305D01*
X6858Y-9307D01*
X6872Y-9309D01*
X6887Y-9312D01*
X6901Y-9316D01*
X6916Y-9321D01*
X6931Y-9326D01*
X6945Y-9331D01*
X6960Y-9338D01*
X6960Y-9339D01*
X6963Y-9340D01*
X6967Y-9342D01*
X6972Y-9345D01*
X6979Y-9349D01*
X6985Y-9354D01*
X6994Y-9359D01*
X7002Y-9366D01*
X7011Y-9373D01*
X7020Y-9381D01*
X7030Y-9391D01*
X7039Y-9400D01*
X7049Y-9411D01*
X7057Y-9422D01*
X7066Y-9434D01*
X7074Y-9447D01*
X7074Y-9447D01*
X7075Y-9450D01*
X7077Y-9454D01*
X7080Y-9459D01*
X7082Y-9466D01*
X7086Y-9474D01*
X7089Y-9482D01*
X7093Y-9493D01*
X7097Y-9504D01*
X7100Y-9516D01*
X7104Y-9529D01*
X7106Y-9542D01*
X7109Y-9557D01*
X7110Y-9571D01*
X7112Y-9587D01*
X7112Y-9602D01*
Y-9612D01*
X7112Y-9619D01*
X7111Y-9627D01*
X7110Y-9636D01*
X7108Y-9647D01*
X7106Y-9659D01*
X7104Y-9671D01*
X7100Y-9684D01*
X7096Y-9697D01*
X7092Y-9711D01*
X7086Y-9724D01*
X7079Y-9738D01*
X7072Y-9751D01*
X7063Y-9764D01*
X7062Y-9764D01*
X7060Y-9767D01*
X7058Y-9770D01*
X7054Y-9774D01*
X7049Y-9780D01*
X7043Y-9785D01*
X7035Y-9792D01*
X7027Y-9800D01*
X7018Y-9807D01*
X7008Y-9815D01*
X6997Y-9822D01*
X6984Y-9830D01*
X6971Y-9837D01*
X6957Y-9844D01*
X6942Y-9850D01*
X6925Y-9855D01*
X6906Y-9772D01*
X6907D01*
X6909Y-9771D01*
X6913Y-9769D01*
X6917Y-9767D01*
X6923Y-9766D01*
X6930Y-9762D01*
X6937Y-9759D01*
X6945Y-9755D01*
X6961Y-9746D01*
X6978Y-9735D01*
X6994Y-9722D01*
X7001Y-9714D01*
X7007Y-9707D01*
X7008Y-9706D01*
X7009Y-9705D01*
X7010Y-9702D01*
X7012Y-9699D01*
X7015Y-9695D01*
X7017Y-9690D01*
X7020Y-9684D01*
X7024Y-9677D01*
X7027Y-9671D01*
X7030Y-9662D01*
X7032Y-9654D01*
X7035Y-9644D01*
X7039Y-9624D01*
X7039Y-9612D01*
X7040Y-9601D01*
Y-9594D01*
X7039Y-9588D01*
X7039Y-9582D01*
X7038Y-9574D01*
X7037Y-9566D01*
X7035Y-9557D01*
X7031Y-9537D01*
X7029Y-9527D01*
X7025Y-9517D01*
X7020Y-9507D01*
X7016Y-9496D01*
X7010Y-9486D01*
X7004Y-9477D01*
X7004Y-9476D01*
X7002Y-9475D01*
X7000Y-9472D01*
X6998Y-9469D01*
X6994Y-9465D01*
X6990Y-9460D01*
X6985Y-9455D01*
X6979Y-9450D01*
X6972Y-9444D01*
X6965Y-9438D01*
X6957Y-9432D01*
X6949Y-9427D01*
X6940Y-9421D01*
X6930Y-9416D01*
X6920Y-9412D01*
X6909Y-9407D01*
X6908D01*
X6906Y-9407D01*
X6903Y-9406D01*
X6899Y-9404D01*
X6893Y-9403D01*
X6887Y-9401D01*
X6879Y-9399D01*
X6871Y-9397D01*
X6862Y-9396D01*
X6852Y-9394D01*
X6832Y-9391D01*
X6809Y-9388D01*
X6786Y-9387D01*
X6786D01*
X6782D01*
X6778D01*
X6772Y-9388D01*
X6766D01*
X6757Y-9389D01*
X6748Y-9389D01*
X6737Y-9391D01*
X6727Y-9392D01*
X6716Y-9393D01*
X6691Y-9397D01*
X6667Y-9403D01*
X6643Y-9411D01*
X6642D01*
X6641Y-9412D01*
X6637Y-9414D01*
X6633Y-9416D01*
X6628Y-9418D01*
X6622Y-9421D01*
X6609Y-9429D01*
X6594Y-9440D01*
X6579Y-9452D01*
X6565Y-9467D01*
X6559Y-9476D01*
X6552Y-9485D01*
X6552Y-9486D01*
X6551Y-9487D01*
X6550Y-9490D01*
X6548Y-9494D01*
X6546Y-9498D01*
X6543Y-9504D01*
X6541Y-9510D01*
X6537Y-9517D01*
X6535Y-9525D01*
X6532Y-9534D01*
X6527Y-9552D01*
X6524Y-9572D01*
X6523Y-9583D01*
X6522Y-9594D01*
Y-9601D01*
X6523Y-9606D01*
X6524Y-9612D01*
X6524Y-9619D01*
X6526Y-9627D01*
X6527Y-9636D01*
X6532Y-9654D01*
X6536Y-9664D01*
X6539Y-9675D01*
X6544Y-9685D01*
X6550Y-9695D01*
X6556Y-9705D01*
X6563Y-9714D01*
X6564Y-9715D01*
X6565Y-9716D01*
X6567Y-9719D01*
X6571Y-9722D01*
X6575Y-9726D01*
X6581Y-9731D01*
X6587Y-9736D01*
X6594Y-9741D01*
X6602Y-9747D01*
X6611Y-9752D01*
X6621Y-9758D01*
X6632Y-9764D01*
X6644Y-9769D01*
X6657Y-9773D01*
X6671Y-9777D01*
X6685Y-9781D01*
X6664Y-9866D01*
X6662D01*
X6659Y-9865D01*
X6654Y-9863D01*
X6647Y-9861D01*
X6638Y-9858D01*
X6628Y-9854D01*
X6617Y-9849D01*
X6605Y-9844D01*
X6592Y-9838D01*
X6579Y-9831D01*
X6566Y-9823D01*
X6552Y-9814D01*
X6539Y-9804D01*
X6527Y-9794D01*
X6515Y-9782D01*
X6504Y-9770D01*
X6504Y-9769D01*
X6502Y-9767D01*
X6499Y-9763D01*
X6496Y-9757D01*
X6492Y-9750D01*
X6487Y-9742D01*
X6482Y-9733D01*
X6477Y-9723D01*
X6472Y-9711D01*
X6467Y-9698D01*
X6462Y-9684D01*
X6459Y-9669D01*
X6455Y-9653D01*
X6452Y-9637D01*
X6451Y-9619D01*
X6450Y-9601D01*
Y-9591D01*
X6451Y-9583D01*
X6451Y-9574D01*
X6452Y-9564D01*
X6454Y-9553D01*
X6455Y-9541D01*
X6457Y-9527D01*
X6460Y-9514D01*
X6464Y-9500D01*
X6467Y-9486D01*
X6472Y-9472D01*
X6478Y-9457D01*
X6484Y-9444D01*
X6492Y-9432D01*
X6492Y-9431D01*
X6494Y-9429D01*
X6496Y-9426D01*
X6500Y-9421D01*
X6504Y-9416D01*
X6509Y-9410D01*
X6516Y-9403D01*
X6523Y-9396D01*
X6531Y-9387D01*
X6540Y-9379D01*
X6550Y-9371D01*
X6561Y-9363D01*
X6573Y-9356D01*
X6586Y-9347D01*
X6599Y-9341D01*
X6614Y-9334D01*
X6615Y-9333D01*
X6617Y-9332D01*
X6622Y-9331D01*
X6627Y-9329D01*
X6635Y-9326D01*
X6644Y-9323D01*
X6654Y-9320D01*
X6665Y-9317D01*
X6677Y-9314D01*
X6691Y-9311D01*
X6705Y-9308D01*
X6720Y-9305D01*
X6736Y-9303D01*
X6752Y-9301D01*
X6769Y-9301D01*
X6786Y-9300D01*
X6787D01*
X6790D01*
X6796D01*
X6802Y-9301D01*
D02*
G37*
G36*
X6943Y-10000D02*
X6944Y-10002D01*
X6945Y-10005D01*
X6948Y-10010D01*
X6951Y-10016D01*
X6955Y-10022D01*
X6959Y-10030D01*
X6964Y-10038D01*
X6974Y-10056D01*
X6987Y-10075D01*
X7002Y-10095D01*
X7017Y-10114D01*
X7018Y-10115D01*
X7019Y-10116D01*
X7022Y-10119D01*
X7025Y-10122D01*
X7029Y-10126D01*
X7034Y-10131D01*
X7039Y-10136D01*
X7045Y-10142D01*
X7058Y-10153D01*
X7072Y-10164D01*
X7088Y-10175D01*
X7095Y-10180D01*
X7104Y-10184D01*
Y-10235D01*
X6461D01*
Y-10156D01*
X6961D01*
Y-10155D01*
X6960Y-10155D01*
X6959Y-10153D01*
X6957Y-10151D01*
X6951Y-10145D01*
X6944Y-10136D01*
X6936Y-10125D01*
X6927Y-10112D01*
X6917Y-10097D01*
X6907Y-10081D01*
Y-10080D01*
X6905Y-10079D01*
X6904Y-10077D01*
X6902Y-10074D01*
X6900Y-10069D01*
X6897Y-10065D01*
X6892Y-10054D01*
X6885Y-10041D01*
X6879Y-10027D01*
X6872Y-10013D01*
X6867Y-9999D01*
X6942D01*
X6943Y-10000D01*
D02*
G37*
G36*
X-11770Y6533D02*
X-11768Y6532D01*
X-11764Y6528D01*
X-11759Y6523D01*
X-11752Y6518D01*
X-11745Y6512D01*
X-11735Y6504D01*
X-11725Y6496D01*
X-11713Y6487D01*
X-11700Y6477D01*
X-11685Y6467D01*
X-11670Y6457D01*
X-11654Y6446D01*
X-11636Y6435D01*
X-11617Y6424D01*
X-11597Y6412D01*
X-11596Y6412D01*
X-11592Y6410D01*
X-11587Y6407D01*
X-11579Y6402D01*
X-11569Y6397D01*
X-11557Y6392D01*
X-11544Y6385D01*
X-11529Y6379D01*
X-11513Y6371D01*
X-11496Y6364D01*
X-11477Y6355D01*
X-11459Y6348D01*
X-11439Y6340D01*
X-11418Y6333D01*
X-11397Y6326D01*
X-11376Y6320D01*
X-11375D01*
X-11372Y6319D01*
X-11367Y6317D01*
X-11362Y6316D01*
X-11354Y6314D01*
X-11345Y6312D01*
X-11335Y6310D01*
X-11324Y6307D01*
X-11311Y6305D01*
X-11297Y6302D01*
X-11283Y6300D01*
X-11267Y6297D01*
X-11252Y6295D01*
X-11235Y6293D01*
X-11200Y6290D01*
Y6209D01*
X-11201D01*
X-11204D01*
X-11207Y6210D01*
X-11213D01*
X-11221Y6210D01*
X-11229Y6211D01*
X-11239Y6212D01*
X-11251Y6214D01*
X-11264Y6215D01*
X-11277Y6217D01*
X-11292Y6219D01*
X-11308Y6222D01*
X-11326Y6225D01*
X-11343Y6229D01*
X-11362Y6234D01*
X-11382Y6239D01*
X-11382D01*
X-11383Y6239D01*
X-11387Y6240D01*
X-11392Y6242D01*
X-11400Y6244D01*
X-11410Y6247D01*
X-11421Y6250D01*
X-11434Y6254D01*
X-11448Y6259D01*
X-11463Y6265D01*
X-11479Y6271D01*
X-11497Y6277D01*
X-11514Y6285D01*
X-11551Y6301D01*
X-11589Y6320D01*
X-11590Y6320D01*
X-11593Y6322D01*
X-11598Y6325D01*
X-11606Y6329D01*
X-11614Y6334D01*
X-11624Y6340D01*
X-11635Y6347D01*
X-11647Y6354D01*
X-11660Y6362D01*
X-11674Y6371D01*
X-11702Y6390D01*
X-11730Y6411D01*
X-11744Y6422D01*
X-11757Y6433D01*
Y6120D01*
X-11832D01*
Y6534D01*
X-11771D01*
X-11770Y6533D01*
D02*
G37*
G36*
X-11505Y6029D02*
X-11497D01*
X-11489Y6029D01*
X-11480Y6028D01*
X-11470Y6027D01*
X-11460Y6025D01*
X-11438Y6022D01*
X-11416Y6018D01*
X-11394Y6012D01*
X-11393D01*
X-11391Y6012D01*
X-11388Y6010D01*
X-11384Y6009D01*
X-11379Y6007D01*
X-11374Y6005D01*
X-11367Y6003D01*
X-11361Y6000D01*
X-11346Y5994D01*
X-11331Y5987D01*
X-11315Y5978D01*
X-11301Y5969D01*
X-11300D01*
X-11299Y5967D01*
X-11297Y5966D01*
X-11294Y5964D01*
X-11288Y5959D01*
X-11279Y5952D01*
X-11270Y5943D01*
X-11261Y5933D01*
X-11251Y5922D01*
X-11242Y5911D01*
Y5910D01*
X-11242Y5909D01*
X-11241Y5907D01*
X-11239Y5905D01*
X-11237Y5902D01*
X-11235Y5898D01*
X-11231Y5889D01*
X-11226Y5878D01*
X-11220Y5865D01*
X-11215Y5850D01*
X-11211Y5834D01*
Y5833D01*
X-11210Y5832D01*
X-11209Y5829D01*
X-11209Y5826D01*
X-11208Y5822D01*
X-11207Y5817D01*
X-11206Y5811D01*
X-11206Y5804D01*
X-11204Y5797D01*
X-11203Y5789D01*
X-11202Y5772D01*
X-11201Y5752D01*
X-11200Y5731D01*
Y5500D01*
X-11840D01*
Y5739D01*
X-11840Y5746D01*
Y5754D01*
X-11839Y5762D01*
X-11838Y5781D01*
X-11837Y5800D01*
X-11834Y5818D01*
X-11833Y5827D01*
X-11831Y5834D01*
Y5835D01*
X-11830Y5837D01*
X-11830Y5840D01*
X-11829Y5844D01*
X-11827Y5849D01*
X-11825Y5854D01*
X-11823Y5860D01*
X-11820Y5867D01*
X-11814Y5882D01*
X-11806Y5897D01*
X-11797Y5914D01*
X-11785Y5929D01*
X-11784Y5929D01*
X-11783Y5931D01*
X-11780Y5934D01*
X-11777Y5937D01*
X-11773Y5941D01*
X-11768Y5946D01*
X-11762Y5951D01*
X-11755Y5957D01*
X-11748Y5963D01*
X-11739Y5969D01*
X-11730Y5975D01*
X-11721Y5982D01*
X-11710Y5988D01*
X-11699Y5994D01*
X-11675Y6004D01*
X-11675D01*
X-11672Y6005D01*
X-11669Y6007D01*
X-11664Y6008D01*
X-11657Y6010D01*
X-11650Y6012D01*
X-11641Y6015D01*
X-11632Y6017D01*
X-11621Y6019D01*
X-11609Y6022D01*
X-11597Y6024D01*
X-11584Y6026D01*
X-11569Y6027D01*
X-11555Y6029D01*
X-11524Y6030D01*
X-11523D01*
X-11521D01*
X-11517D01*
X-11511D01*
X-11505Y6029D01*
D02*
G37*
G36*
X-15449Y5261D02*
X-15450Y5254D01*
Y5246D01*
X-15450Y5238D01*
X-15451Y5219D01*
X-15453Y5200D01*
X-15455Y5182D01*
X-15456Y5173D01*
X-15458Y5166D01*
Y5165D01*
X-15459Y5163D01*
X-15460Y5160D01*
X-15461Y5156D01*
X-15462Y5151D01*
X-15464Y5146D01*
X-15466Y5140D01*
X-15469Y5133D01*
X-15475Y5118D01*
X-15483Y5103D01*
X-15493Y5086D01*
X-15505Y5071D01*
X-15505Y5071D01*
X-15506Y5069D01*
X-15509Y5066D01*
X-15512Y5063D01*
X-15516Y5059D01*
X-15521Y5054D01*
X-15528Y5049D01*
X-15534Y5043D01*
X-15541Y5037D01*
X-15550Y5031D01*
X-15559Y5025D01*
X-15568Y5018D01*
X-15579Y5012D01*
X-15590Y5006D01*
X-15614Y4996D01*
X-15615D01*
X-15617Y4995D01*
X-15621Y4993D01*
X-15626Y4992D01*
X-15632Y4990D01*
X-15639Y4988D01*
X-15648Y4985D01*
X-15658Y4983D01*
X-15668Y4981D01*
X-15680Y4978D01*
X-15693Y4976D01*
X-15706Y4974D01*
X-15720Y4973D01*
X-15734Y4971D01*
X-15766Y4970D01*
X-15766D01*
X-15769D01*
X-15773D01*
X-15778D01*
X-15784Y4971D01*
X-15792D01*
X-15800Y4971D01*
X-15809Y4972D01*
X-15819Y4973D01*
X-15829Y4975D01*
X-15851Y4978D01*
X-15874Y4982D01*
X-15896Y4988D01*
X-15896D01*
X-15898Y4988D01*
X-15901Y4990D01*
X-15905Y4991D01*
X-15910Y4993D01*
X-15916Y4995D01*
X-15922Y4997D01*
X-15928Y5000D01*
X-15943Y5006D01*
X-15959Y5013D01*
X-15974Y5022D01*
X-15989Y5031D01*
X-15989D01*
X-15991Y5033D01*
X-15993Y5034D01*
X-15995Y5036D01*
X-16001Y5041D01*
X-16010Y5048D01*
X-16019Y5057D01*
X-16029Y5067D01*
X-16038Y5078D01*
X-16047Y5089D01*
Y5090D01*
X-16048Y5091D01*
X-16049Y5093D01*
X-16051Y5095D01*
X-16052Y5098D01*
X-16054Y5102D01*
X-16059Y5111D01*
X-16064Y5122D01*
X-16069Y5135D01*
X-16074Y5150D01*
X-16079Y5166D01*
Y5167D01*
X-16079Y5168D01*
X-16080Y5171D01*
X-16081Y5174D01*
X-16081Y5178D01*
X-16082Y5183D01*
X-16083Y5189D01*
X-16084Y5196D01*
X-16085Y5203D01*
X-16086Y5211D01*
X-16088Y5228D01*
X-16089Y5248D01*
X-16089Y5269D01*
Y5500D01*
X-15449D01*
Y5261D01*
D02*
G37*
G36*
X-15773Y4888D02*
X-15766D01*
X-15759Y4888D01*
X-15753D01*
X-15744Y4887D01*
X-15727Y4885D01*
X-15708Y4883D01*
X-15687Y4880D01*
X-15665Y4877D01*
X-15643Y4872D01*
X-15620Y4867D01*
X-15598Y4860D01*
X-15576Y4853D01*
X-15556Y4843D01*
X-15537Y4833D01*
X-15520Y4821D01*
X-15520Y4820D01*
X-15517Y4818D01*
X-15513Y4815D01*
X-15509Y4810D01*
X-15503Y4804D01*
X-15497Y4796D01*
X-15490Y4788D01*
X-15483Y4778D01*
X-15476Y4767D01*
X-15470Y4755D01*
X-15463Y4742D01*
X-15458Y4728D01*
X-15453Y4712D01*
X-15450Y4696D01*
X-15447Y4678D01*
X-15446Y4660D01*
Y4652D01*
X-15447Y4647D01*
X-15448Y4640D01*
X-15449Y4633D01*
X-15450Y4625D01*
X-15451Y4615D01*
X-15457Y4596D01*
X-15460Y4585D01*
X-15465Y4575D01*
X-15469Y4565D01*
X-15475Y4555D01*
X-15481Y4545D01*
X-15489Y4535D01*
X-15490Y4535D01*
X-15491Y4533D01*
X-15493Y4531D01*
X-15496Y4528D01*
X-15501Y4524D01*
X-15506Y4520D01*
X-15513Y4515D01*
X-15520Y4510D01*
X-15527Y4505D01*
X-15536Y4500D01*
X-15546Y4495D01*
X-15556Y4490D01*
X-15568Y4486D01*
X-15580Y4483D01*
X-15592Y4480D01*
X-15606Y4477D01*
X-15612Y4555D01*
X-15611D01*
X-15610Y4556D01*
X-15608Y4556D01*
X-15605Y4557D01*
X-15601Y4558D01*
X-15596Y4560D01*
X-15586Y4563D01*
X-15575Y4567D01*
X-15564Y4572D01*
X-15553Y4578D01*
X-15545Y4585D01*
X-15544Y4586D01*
X-15543Y4586D01*
X-15541Y4588D01*
X-15540Y4591D01*
X-15536Y4594D01*
X-15534Y4598D01*
X-15528Y4607D01*
X-15521Y4618D01*
X-15516Y4632D01*
X-15512Y4647D01*
X-15511Y4655D01*
X-15511Y4664D01*
Y4670D01*
X-15512Y4677D01*
X-15513Y4686D01*
X-15516Y4696D01*
X-15520Y4708D01*
X-15525Y4719D01*
X-15532Y4730D01*
Y4731D01*
X-15533Y4732D01*
X-15535Y4734D01*
X-15537Y4736D01*
X-15543Y4743D01*
X-15552Y4751D01*
X-15563Y4761D01*
X-15577Y4771D01*
X-15593Y4780D01*
X-15611Y4789D01*
X-15612D01*
X-15614Y4790D01*
X-15617Y4791D01*
X-15621Y4792D01*
X-15626Y4794D01*
X-15633Y4796D01*
X-15641Y4798D01*
X-15649Y4800D01*
X-15660Y4801D01*
X-15670Y4803D01*
X-15683Y4805D01*
X-15696Y4807D01*
X-15710Y4808D01*
X-15726Y4810D01*
X-15742Y4810D01*
X-15759Y4811D01*
X-15759Y4810D01*
X-15758Y4810D01*
X-15755Y4808D01*
X-15753Y4806D01*
X-15749Y4803D01*
X-15744Y4800D01*
X-15735Y4791D01*
X-15724Y4781D01*
X-15714Y4770D01*
X-15704Y4756D01*
X-15695Y4741D01*
Y4741D01*
X-15694Y4740D01*
X-15693Y4737D01*
X-15692Y4735D01*
X-15690Y4730D01*
X-15688Y4726D01*
X-15686Y4721D01*
X-15684Y4715D01*
X-15681Y4702D01*
X-15677Y4688D01*
X-15674Y4672D01*
X-15674Y4655D01*
Y4651D01*
X-15674Y4648D01*
Y4642D01*
X-15676Y4635D01*
X-15677Y4627D01*
X-15679Y4618D01*
X-15681Y4609D01*
X-15684Y4599D01*
X-15688Y4588D01*
X-15693Y4577D01*
X-15698Y4566D01*
X-15705Y4554D01*
X-15713Y4543D01*
X-15722Y4532D01*
X-15732Y4522D01*
X-15733Y4521D01*
X-15734Y4519D01*
X-15738Y4517D01*
X-15743Y4513D01*
X-15748Y4508D01*
X-15755Y4504D01*
X-15763Y4499D01*
X-15773Y4493D01*
X-15783Y4488D01*
X-15794Y4483D01*
X-15806Y4479D01*
X-15819Y4475D01*
X-15834Y4471D01*
X-15849Y4468D01*
X-15864Y4467D01*
X-15881Y4466D01*
X-15882D01*
X-15884D01*
X-15887D01*
X-15891Y4467D01*
X-15897D01*
X-15903Y4467D01*
X-15910Y4468D01*
X-15918Y4469D01*
X-15936Y4472D01*
X-15954Y4477D01*
X-15974Y4483D01*
X-15994Y4492D01*
X-15994D01*
X-15996Y4493D01*
X-15999Y4495D01*
X-16002Y4497D01*
X-16006Y4500D01*
X-16011Y4503D01*
X-16023Y4511D01*
X-16036Y4522D01*
X-16049Y4533D01*
X-16061Y4548D01*
X-16073Y4564D01*
Y4565D01*
X-16074Y4566D01*
X-16075Y4568D01*
X-16077Y4572D01*
X-16079Y4576D01*
X-16081Y4581D01*
X-16084Y4587D01*
X-16086Y4594D01*
X-16089Y4601D01*
X-16091Y4609D01*
X-16096Y4626D01*
X-16099Y4646D01*
X-16099Y4656D01*
X-16100Y4667D01*
Y4671D01*
X-16099Y4676D01*
X-16099Y4683D01*
X-16098Y4691D01*
X-16096Y4701D01*
X-16094Y4712D01*
X-16091Y4724D01*
X-16088Y4736D01*
X-16083Y4749D01*
X-16077Y4763D01*
X-16069Y4776D01*
X-16061Y4790D01*
X-16052Y4803D01*
X-16041Y4815D01*
X-16028Y4827D01*
X-16028Y4828D01*
X-16024Y4830D01*
X-16021Y4833D01*
X-16014Y4836D01*
X-16006Y4841D01*
X-15996Y4846D01*
X-15985Y4852D01*
X-15971Y4858D01*
X-15956Y4864D01*
X-15938Y4870D01*
X-15919Y4875D01*
X-15897Y4879D01*
X-15874Y4883D01*
X-15848Y4886D01*
X-15820Y4888D01*
X-15790Y4889D01*
X-15789D01*
X-15788D01*
X-15786D01*
X-15782D01*
X-15778D01*
X-15773Y4888D01*
D02*
G37*
G36*
X17000Y15504D02*
X16999D01*
X16999D01*
X16995D01*
X16990D01*
X16983Y15505D01*
X16974Y15506D01*
X16965Y15507D01*
X16956Y15510D01*
X16946Y15513D01*
X16945D01*
X16944Y15514D01*
X16941Y15515D01*
X16938Y15516D01*
X16934Y15518D01*
X16930Y15520D01*
X16919Y15525D01*
X16906Y15533D01*
X16891Y15542D01*
X16876Y15552D01*
X16861Y15565D01*
X16860Y15565D01*
X16859Y15567D01*
X16856Y15569D01*
X16853Y15572D01*
X16849Y15575D01*
X16844Y15580D01*
X16839Y15585D01*
X16833Y15591D01*
X16826Y15598D01*
X16819Y15605D01*
X16811Y15614D01*
X16802Y15623D01*
X16793Y15633D01*
X16784Y15644D01*
X16774Y15655D01*
X16764Y15667D01*
X16763Y15669D01*
X16760Y15672D01*
X16756Y15677D01*
X16749Y15684D01*
X16743Y15693D01*
X16734Y15702D01*
X16724Y15713D01*
X16714Y15724D01*
X16693Y15748D01*
X16670Y15771D01*
X16659Y15782D01*
X16648Y15792D01*
X16638Y15801D01*
X16628Y15809D01*
X16627Y15809D01*
X16625Y15810D01*
X16623Y15812D01*
X16619Y15814D01*
X16614Y15817D01*
X16609Y15820D01*
X16603Y15823D01*
X16597Y15827D01*
X16583Y15834D01*
X16567Y15840D01*
X16558Y15842D01*
X16550Y15844D01*
X16541Y15845D01*
X16533Y15846D01*
X16533D01*
X16531D01*
X16529D01*
X16525Y15845D01*
X16521Y15845D01*
X16517Y15844D01*
X16506Y15842D01*
X16493Y15838D01*
X16480Y15832D01*
X16474Y15828D01*
X16467Y15823D01*
X16461Y15818D01*
X16455Y15812D01*
X16454Y15812D01*
X16453Y15811D01*
X16451Y15809D01*
X16450Y15806D01*
X16447Y15803D01*
X16445Y15799D01*
X16441Y15794D01*
X16438Y15789D01*
X16435Y15783D01*
X16432Y15776D01*
X16427Y15761D01*
X16423Y15744D01*
X16423Y15735D01*
X16422Y15725D01*
Y15719D01*
X16423Y15715D01*
X16423Y15710D01*
X16424Y15705D01*
X16425Y15699D01*
X16426Y15692D01*
X16430Y15677D01*
X16436Y15662D01*
X16440Y15655D01*
X16445Y15647D01*
X16450Y15640D01*
X16456Y15634D01*
X16457Y15633D01*
X16458Y15632D01*
X16460Y15630D01*
X16463Y15629D01*
X16466Y15626D01*
X16470Y15623D01*
X16475Y15620D01*
X16481Y15617D01*
X16487Y15614D01*
X16494Y15610D01*
X16502Y15608D01*
X16510Y15605D01*
X16519Y15603D01*
X16529Y15601D01*
X16539Y15600D01*
X16550Y15600D01*
X16542Y15519D01*
X16541D01*
X16538Y15520D01*
X16533Y15520D01*
X16527Y15521D01*
X16520Y15523D01*
X16511Y15525D01*
X16501Y15527D01*
X16491Y15530D01*
X16480Y15534D01*
X16469Y15538D01*
X16458Y15543D01*
X16446Y15549D01*
X16435Y15555D01*
X16424Y15563D01*
X16414Y15572D01*
X16405Y15581D01*
X16404Y15582D01*
X16403Y15584D01*
X16400Y15587D01*
X16397Y15591D01*
X16393Y15597D01*
X16390Y15603D01*
X16385Y15611D01*
X16381Y15620D01*
X16376Y15630D01*
X16372Y15640D01*
X16368Y15652D01*
X16365Y15665D01*
X16361Y15679D01*
X16359Y15694D01*
X16358Y15710D01*
X16357Y15727D01*
Y15731D01*
X16358Y15735D01*
Y15742D01*
X16358Y15750D01*
X16360Y15759D01*
X16361Y15769D01*
X16363Y15780D01*
X16366Y15791D01*
X16370Y15803D01*
X16374Y15815D01*
X16379Y15827D01*
X16385Y15840D01*
X16391Y15851D01*
X16400Y15862D01*
X16408Y15873D01*
X16409Y15873D01*
X16411Y15875D01*
X16413Y15878D01*
X16418Y15881D01*
X16423Y15885D01*
X16428Y15890D01*
X16435Y15895D01*
X16443Y15900D01*
X16452Y15905D01*
X16462Y15910D01*
X16472Y15914D01*
X16483Y15918D01*
X16495Y15922D01*
X16508Y15924D01*
X16521Y15926D01*
X16535Y15927D01*
X16536D01*
X16537D01*
X16539D01*
X16541D01*
X16545Y15926D01*
X16549D01*
X16559Y15925D01*
X16570Y15923D01*
X16583Y15920D01*
X16597Y15916D01*
X16611Y15910D01*
X16611D01*
X16613Y15910D01*
X16614Y15908D01*
X16617Y15907D01*
X16621Y15905D01*
X16624Y15903D01*
X16634Y15898D01*
X16646Y15891D01*
X16659Y15882D01*
X16674Y15871D01*
X16689Y15858D01*
X16689Y15857D01*
X16691Y15856D01*
X16693Y15854D01*
X16696Y15851D01*
X16701Y15847D01*
X16706Y15842D01*
X16711Y15836D01*
X16718Y15829D01*
X16726Y15822D01*
X16734Y15812D01*
X16744Y15803D01*
X16754Y15792D01*
X16764Y15780D01*
X16776Y15767D01*
X16788Y15752D01*
X16801Y15737D01*
X16802Y15737D01*
X16804Y15734D01*
X16807Y15730D01*
X16811Y15726D01*
X16816Y15720D01*
X16821Y15714D01*
X16834Y15699D01*
X16847Y15684D01*
X16860Y15669D01*
X16866Y15662D01*
X16873Y15656D01*
X16878Y15650D01*
X16882Y15646D01*
X16883Y15645D01*
X16886Y15643D01*
X16890Y15639D01*
X16895Y15634D01*
X16902Y15629D01*
X16909Y15624D01*
X16916Y15618D01*
X16924Y15613D01*
Y15927D01*
X17000D01*
Y15504D01*
D02*
G37*
G36*
X16695Y15429D02*
X16703D01*
X16711Y15429D01*
X16720Y15428D01*
X16730Y15427D01*
X16740Y15425D01*
X16762Y15422D01*
X16784Y15418D01*
X16806Y15412D01*
X16807D01*
X16809Y15412D01*
X16812Y15410D01*
X16816Y15409D01*
X16821Y15407D01*
X16826Y15405D01*
X16833Y15403D01*
X16839Y15400D01*
X16854Y15394D01*
X16869Y15387D01*
X16885Y15378D01*
X16899Y15369D01*
X16900D01*
X16901Y15367D01*
X16903Y15366D01*
X16906Y15364D01*
X16912Y15359D01*
X16921Y15352D01*
X16930Y15343D01*
X16939Y15333D01*
X16949Y15322D01*
X16958Y15311D01*
Y15310D01*
X16958Y15309D01*
X16959Y15307D01*
X16961Y15305D01*
X16963Y15302D01*
X16965Y15298D01*
X16969Y15289D01*
X16974Y15278D01*
X16980Y15265D01*
X16985Y15250D01*
X16989Y15234D01*
Y15233D01*
X16990Y15232D01*
X16991Y15229D01*
X16991Y15226D01*
X16992Y15222D01*
X16993Y15217D01*
X16994Y15211D01*
X16994Y15204D01*
X16996Y15197D01*
X16997Y15189D01*
X16998Y15172D01*
X16999Y15152D01*
X17000Y15131D01*
Y14900D01*
X16360D01*
Y15139D01*
X16360Y15146D01*
Y15154D01*
X16361Y15162D01*
X16362Y15181D01*
X16363Y15200D01*
X16366Y15218D01*
X16367Y15227D01*
X16369Y15234D01*
Y15235D01*
X16370Y15237D01*
X16370Y15240D01*
X16371Y15244D01*
X16373Y15249D01*
X16375Y15254D01*
X16377Y15260D01*
X16380Y15267D01*
X16386Y15282D01*
X16394Y15297D01*
X16403Y15314D01*
X16415Y15329D01*
X16416Y15329D01*
X16417Y15331D01*
X16420Y15334D01*
X16423Y15337D01*
X16427Y15341D01*
X16432Y15346D01*
X16438Y15351D01*
X16445Y15357D01*
X16452Y15363D01*
X16461Y15369D01*
X16470Y15375D01*
X16479Y15382D01*
X16490Y15388D01*
X16501Y15394D01*
X16525Y15404D01*
X16525D01*
X16528Y15405D01*
X16531Y15407D01*
X16536Y15408D01*
X16543Y15410D01*
X16550Y15412D01*
X16559Y15415D01*
X16568Y15417D01*
X16579Y15419D01*
X16591Y15422D01*
X16603Y15424D01*
X16616Y15426D01*
X16631Y15427D01*
X16645Y15429D01*
X16676Y15430D01*
X16677D01*
X16679D01*
X16683D01*
X16689D01*
X16695Y15429D01*
D02*
G37*
G36*
X16781Y7174D02*
X16787D01*
X16794Y7173D01*
X16803Y7172D01*
X16813Y7170D01*
X16824Y7168D01*
X16835Y7165D01*
X16848Y7162D01*
X16860Y7157D01*
X16873Y7152D01*
X16885Y7147D01*
X16898Y7140D01*
X16911Y7132D01*
X16923Y7123D01*
X16923Y7122D01*
X16926Y7120D01*
X16929Y7117D01*
X16934Y7112D01*
X16941Y7106D01*
X16947Y7098D01*
X16954Y7089D01*
X16961Y7079D01*
X16969Y7067D01*
X16976Y7055D01*
X16982Y7041D01*
X16988Y7026D01*
X16993Y7010D01*
X16997Y6993D01*
X16999Y6974D01*
X17000Y6955D01*
Y6951D01*
X16999Y6947D01*
Y6941D01*
X16999Y6933D01*
X16998Y6924D01*
X16996Y6915D01*
X16994Y6904D01*
X16991Y6893D01*
X16988Y6882D01*
X16984Y6870D01*
X16979Y6857D01*
X16974Y6846D01*
X16968Y6834D01*
X16960Y6822D01*
X16951Y6812D01*
X16951Y6811D01*
X16949Y6809D01*
X16946Y6807D01*
X16943Y6803D01*
X16938Y6799D01*
X16931Y6794D01*
X16924Y6789D01*
X16917Y6784D01*
X16908Y6778D01*
X16898Y6772D01*
X16888Y6767D01*
X16876Y6762D01*
X16863Y6758D01*
X16850Y6754D01*
X16836Y6751D01*
X16821Y6749D01*
X16814Y6832D01*
X16815D01*
X16817Y6832D01*
X16820Y6833D01*
X16824Y6834D01*
X16829Y6835D01*
X16835Y6836D01*
X16849Y6841D01*
X16863Y6846D01*
X16878Y6853D01*
X16893Y6862D01*
X16899Y6868D01*
X16906Y6874D01*
X16906Y6874D01*
X16907Y6876D01*
X16908Y6877D01*
X16910Y6880D01*
X16913Y6883D01*
X16915Y6887D01*
X16921Y6897D01*
X16926Y6909D01*
X16931Y6922D01*
X16934Y6938D01*
X16935Y6946D01*
X16936Y6955D01*
Y6961D01*
X16935Y6964D01*
X16934Y6969D01*
X16933Y6975D01*
X16932Y6981D01*
X16930Y6988D01*
X16925Y7004D01*
X16922Y7011D01*
X16918Y7019D01*
X16913Y7027D01*
X16907Y7036D01*
X16901Y7044D01*
X16893Y7051D01*
X16893Y7052D01*
X16891Y7053D01*
X16889Y7055D01*
X16885Y7057D01*
X16881Y7061D01*
X16876Y7064D01*
X16869Y7067D01*
X16863Y7071D01*
X16855Y7074D01*
X16846Y7078D01*
X16837Y7081D01*
X16827Y7084D01*
X16816Y7087D01*
X16804Y7089D01*
X16793Y7090D01*
X16779Y7091D01*
X16779D01*
X16776D01*
X16773D01*
X16768Y7090D01*
X16763Y7089D01*
X16756Y7089D01*
X16749Y7087D01*
X16741Y7086D01*
X16724Y7081D01*
X16715Y7078D01*
X16706Y7074D01*
X16698Y7070D01*
X16689Y7065D01*
X16681Y7059D01*
X16673Y7052D01*
X16673Y7052D01*
X16671Y7051D01*
X16669Y7049D01*
X16667Y7046D01*
X16664Y7042D01*
X16661Y7037D01*
X16657Y7032D01*
X16653Y7026D01*
X16650Y7019D01*
X16646Y7012D01*
X16643Y7004D01*
X16640Y6995D01*
X16638Y6985D01*
X16636Y6975D01*
X16634Y6964D01*
X16634Y6953D01*
Y6947D01*
X16634Y6943D01*
Y6939D01*
X16636Y6930D01*
X16638Y6919D01*
X16641Y6908D01*
X16646Y6896D01*
X16651Y6884D01*
Y6884D01*
X16652Y6883D01*
X16654Y6879D01*
X16658Y6874D01*
X16663Y6867D01*
X16670Y6859D01*
X16678Y6852D01*
X16686Y6844D01*
X16696Y6837D01*
X16686Y6763D01*
X16357Y6825D01*
Y7144D01*
X16432D01*
Y6887D01*
X16605Y6853D01*
X16604Y6854D01*
X16603Y6856D01*
X16601Y6859D01*
X16599Y6863D01*
X16596Y6868D01*
X16592Y6875D01*
X16589Y6882D01*
X16584Y6890D01*
X16581Y6899D01*
X16578Y6908D01*
X16571Y6929D01*
X16568Y6939D01*
X16566Y6951D01*
X16565Y6962D01*
X16565Y6974D01*
Y6978D01*
X16565Y6982D01*
Y6989D01*
X16566Y6996D01*
X16568Y7004D01*
X16569Y7014D01*
X16572Y7024D01*
X16575Y7034D01*
X16579Y7046D01*
X16583Y7058D01*
X16589Y7070D01*
X16596Y7082D01*
X16603Y7094D01*
X16613Y7105D01*
X16623Y7116D01*
X16623Y7117D01*
X16625Y7119D01*
X16629Y7122D01*
X16633Y7126D01*
X16639Y7130D01*
X16646Y7134D01*
X16654Y7140D01*
X16663Y7145D01*
X16673Y7150D01*
X16684Y7156D01*
X16697Y7160D01*
X16710Y7165D01*
X16724Y7169D01*
X16739Y7172D01*
X16756Y7174D01*
X16773Y7174D01*
X16774D01*
X16776D01*
X16781Y7174D01*
D02*
G37*
G36*
X16684Y6664D02*
X16692D01*
X16700Y6664D01*
X16709Y6663D01*
X16719Y6662D01*
X16729Y6661D01*
X16751Y6657D01*
X16774Y6653D01*
X16796Y6648D01*
X16796D01*
X16798Y6647D01*
X16801Y6646D01*
X16805Y6644D01*
X16810Y6642D01*
X16816Y6641D01*
X16822Y6638D01*
X16828Y6636D01*
X16843Y6629D01*
X16859Y6622D01*
X16874Y6613D01*
X16889Y6604D01*
X16889D01*
X16891Y6603D01*
X16893Y6601D01*
X16895Y6599D01*
X16901Y6594D01*
X16910Y6587D01*
X16919Y6578D01*
X16929Y6568D01*
X16938Y6558D01*
X16947Y6546D01*
Y6545D01*
X16948Y6544D01*
X16949Y6543D01*
X16951Y6540D01*
X16952Y6537D01*
X16954Y6533D01*
X16959Y6524D01*
X16964Y6513D01*
X16969Y6500D01*
X16974Y6485D01*
X16979Y6469D01*
Y6468D01*
X16979Y6467D01*
X16980Y6464D01*
X16981Y6461D01*
X16981Y6457D01*
X16982Y6452D01*
X16983Y6446D01*
X16984Y6439D01*
X16985Y6432D01*
X16986Y6424D01*
X16988Y6407D01*
X16989Y6388D01*
X16989Y6366D01*
Y6135D01*
X16349D01*
Y6374D01*
X16350Y6381D01*
Y6389D01*
X16350Y6398D01*
X16351Y6416D01*
X16353Y6435D01*
X16355Y6453D01*
X16356Y6462D01*
X16358Y6469D01*
Y6470D01*
X16359Y6472D01*
X16360Y6475D01*
X16361Y6479D01*
X16362Y6484D01*
X16364Y6489D01*
X16366Y6495D01*
X16369Y6502D01*
X16375Y6517D01*
X16383Y6533D01*
X16393Y6549D01*
X16405Y6564D01*
X16405Y6564D01*
X16406Y6566D01*
X16409Y6569D01*
X16412Y6572D01*
X16416Y6576D01*
X16421Y6581D01*
X16428Y6586D01*
X16434Y6593D01*
X16441Y6598D01*
X16450Y6604D01*
X16459Y6611D01*
X16468Y6617D01*
X16479Y6623D01*
X16490Y6629D01*
X16514Y6639D01*
X16515D01*
X16517Y6641D01*
X16521Y6642D01*
X16526Y6643D01*
X16532Y6646D01*
X16540Y6648D01*
X16548Y6650D01*
X16558Y6653D01*
X16568Y6654D01*
X16580Y6657D01*
X16593Y6659D01*
X16606Y6661D01*
X16620Y6662D01*
X16634Y6664D01*
X16666Y6665D01*
X16666D01*
X16669D01*
X16673D01*
X16678D01*
X16684Y6664D01*
D02*
G37*
G36*
X13151Y5961D02*
X13150Y5954D01*
Y5946D01*
X13150Y5938D01*
X13149Y5919D01*
X13147Y5900D01*
X13145Y5882D01*
X13144Y5873D01*
X13142Y5866D01*
Y5865D01*
X13141Y5863D01*
X13140Y5860D01*
X13139Y5856D01*
X13138Y5851D01*
X13136Y5846D01*
X13134Y5840D01*
X13131Y5833D01*
X13125Y5818D01*
X13117Y5803D01*
X13107Y5786D01*
X13095Y5771D01*
X13095Y5771D01*
X13094Y5769D01*
X13091Y5766D01*
X13088Y5763D01*
X13084Y5759D01*
X13079Y5754D01*
X13072Y5749D01*
X13066Y5743D01*
X13059Y5737D01*
X13050Y5731D01*
X13041Y5725D01*
X13032Y5718D01*
X13021Y5712D01*
X13010Y5706D01*
X12986Y5696D01*
X12985D01*
X12983Y5695D01*
X12979Y5693D01*
X12974Y5692D01*
X12968Y5690D01*
X12960Y5688D01*
X12952Y5685D01*
X12942Y5683D01*
X12932Y5681D01*
X12920Y5678D01*
X12907Y5676D01*
X12894Y5674D01*
X12880Y5673D01*
X12866Y5671D01*
X12834Y5670D01*
X12834D01*
X12831D01*
X12827D01*
X12822D01*
X12816Y5671D01*
X12808D01*
X12800Y5671D01*
X12791Y5672D01*
X12781Y5673D01*
X12771Y5675D01*
X12749Y5678D01*
X12726Y5682D01*
X12704Y5688D01*
X12704D01*
X12702Y5688D01*
X12699Y5690D01*
X12695Y5691D01*
X12690Y5693D01*
X12684Y5695D01*
X12678Y5697D01*
X12672Y5700D01*
X12657Y5706D01*
X12641Y5713D01*
X12626Y5722D01*
X12611Y5731D01*
X12611D01*
X12609Y5733D01*
X12607Y5734D01*
X12605Y5736D01*
X12599Y5741D01*
X12590Y5748D01*
X12581Y5757D01*
X12571Y5767D01*
X12562Y5778D01*
X12553Y5790D01*
Y5790D01*
X12552Y5791D01*
X12551Y5793D01*
X12549Y5795D01*
X12548Y5798D01*
X12546Y5802D01*
X12541Y5811D01*
X12536Y5822D01*
X12531Y5835D01*
X12526Y5850D01*
X12521Y5866D01*
Y5867D01*
X12521Y5868D01*
X12520Y5871D01*
X12519Y5874D01*
X12519Y5878D01*
X12518Y5883D01*
X12517Y5889D01*
X12516Y5896D01*
X12515Y5903D01*
X12514Y5911D01*
X12512Y5928D01*
X12511Y5948D01*
X12511Y5969D01*
Y6200D01*
X13151D01*
Y5961D01*
D02*
G37*
G36*
X12706Y5586D02*
X12711Y5585D01*
X12717Y5585D01*
X12724Y5584D01*
X12732Y5583D01*
X12749Y5579D01*
X12766Y5573D01*
X12775Y5570D01*
X12784Y5565D01*
X12792Y5561D01*
X12800Y5555D01*
X12801Y5555D01*
X12802Y5554D01*
X12804Y5552D01*
X12807Y5550D01*
X12811Y5546D01*
X12814Y5542D01*
X12819Y5537D01*
X12823Y5532D01*
X12828Y5526D01*
X12832Y5519D01*
X12837Y5511D01*
X12842Y5503D01*
X12847Y5495D01*
X12851Y5485D01*
X12854Y5475D01*
X12857Y5465D01*
Y5465D01*
X12858Y5466D01*
X12859Y5470D01*
X12861Y5473D01*
X12862Y5476D01*
X12865Y5481D01*
X12871Y5492D01*
X12878Y5504D01*
X12887Y5516D01*
X12897Y5528D01*
X12909Y5538D01*
X12909D01*
X12910Y5539D01*
X12912Y5540D01*
X12914Y5541D01*
X12918Y5543D01*
X12922Y5545D01*
X12931Y5549D01*
X12942Y5553D01*
X12956Y5557D01*
X12971Y5560D01*
X12988Y5561D01*
X12989D01*
X12991D01*
X12995Y5560D01*
X13000D01*
X13005Y5560D01*
X13012Y5558D01*
X13020Y5556D01*
X13029Y5555D01*
X13038Y5552D01*
X13047Y5548D01*
X13057Y5545D01*
X13067Y5540D01*
X13077Y5534D01*
X13087Y5527D01*
X13096Y5520D01*
X13105Y5511D01*
X13106Y5510D01*
X13107Y5508D01*
X13110Y5506D01*
X13113Y5501D01*
X13117Y5496D01*
X13120Y5491D01*
X13125Y5483D01*
X13130Y5475D01*
X13134Y5466D01*
X13139Y5456D01*
X13142Y5445D01*
X13146Y5433D01*
X13149Y5420D01*
X13152Y5407D01*
X13153Y5392D01*
X13154Y5377D01*
Y5369D01*
X13153Y5363D01*
X13152Y5356D01*
X13151Y5348D01*
X13149Y5339D01*
X13147Y5329D01*
X13145Y5318D01*
X13142Y5307D01*
X13138Y5296D01*
X13133Y5285D01*
X13127Y5273D01*
X13121Y5263D01*
X13114Y5252D01*
X13105Y5242D01*
X13104Y5242D01*
X13102Y5240D01*
X13100Y5237D01*
X13096Y5234D01*
X13092Y5230D01*
X13085Y5226D01*
X13079Y5222D01*
X13072Y5217D01*
X13064Y5212D01*
X13054Y5207D01*
X13045Y5203D01*
X13034Y5199D01*
X13023Y5196D01*
X13011Y5193D01*
X12999Y5192D01*
X12986Y5191D01*
X12985D01*
X12984D01*
X12982D01*
X12979Y5192D01*
X12975D01*
X12970Y5192D01*
X12959Y5194D01*
X12947Y5197D01*
X12934Y5201D01*
X12921Y5207D01*
X12908Y5215D01*
X12907D01*
X12907Y5216D01*
X12902Y5219D01*
X12897Y5225D01*
X12889Y5232D01*
X12881Y5242D01*
X12873Y5254D01*
X12865Y5268D01*
X12857Y5285D01*
Y5285D01*
X12857Y5283D01*
X12856Y5280D01*
X12854Y5276D01*
X12852Y5271D01*
X12849Y5265D01*
X12842Y5252D01*
X12834Y5238D01*
X12823Y5223D01*
X12811Y5208D01*
X12803Y5202D01*
X12796Y5196D01*
X12795Y5195D01*
X12794Y5195D01*
X12791Y5193D01*
X12788Y5191D01*
X12784Y5188D01*
X12779Y5186D01*
X12773Y5183D01*
X12767Y5180D01*
X12760Y5177D01*
X12752Y5175D01*
X12735Y5170D01*
X12715Y5166D01*
X12705Y5165D01*
X12694Y5165D01*
X12693D01*
X12690D01*
X12686Y5165D01*
X12680D01*
X12673Y5167D01*
X12665Y5168D01*
X12656Y5170D01*
X12646Y5172D01*
X12635Y5175D01*
X12624Y5179D01*
X12612Y5183D01*
X12601Y5189D01*
X12589Y5196D01*
X12577Y5203D01*
X12566Y5213D01*
X12556Y5223D01*
X12555Y5223D01*
X12553Y5225D01*
X12551Y5229D01*
X12547Y5233D01*
X12542Y5239D01*
X12538Y5246D01*
X12533Y5255D01*
X12528Y5263D01*
X12522Y5274D01*
X12517Y5286D01*
X12513Y5298D01*
X12509Y5312D01*
X12505Y5326D01*
X12502Y5342D01*
X12501Y5358D01*
X12500Y5376D01*
Y5380D01*
X12501Y5385D01*
Y5391D01*
X12502Y5400D01*
X12503Y5409D01*
X12504Y5420D01*
X12507Y5431D01*
X12510Y5443D01*
X12514Y5455D01*
X12518Y5468D01*
X12524Y5480D01*
X12530Y5493D01*
X12537Y5506D01*
X12546Y5518D01*
X12556Y5529D01*
X12556Y5530D01*
X12558Y5531D01*
X12561Y5534D01*
X12566Y5538D01*
X12571Y5542D01*
X12578Y5547D01*
X12586Y5552D01*
X12594Y5558D01*
X12604Y5563D01*
X12614Y5568D01*
X12626Y5573D01*
X12639Y5578D01*
X12652Y5581D01*
X12666Y5584D01*
X12680Y5586D01*
X12696Y5586D01*
X12696D01*
X12698D01*
X12702D01*
X12706Y5586D01*
D02*
G37*
G36*
X13040Y14661D02*
X13040Y14654D01*
Y14646D01*
X13039Y14638D01*
X13038Y14619D01*
X13037Y14600D01*
X13034Y14582D01*
X13033Y14573D01*
X13031Y14566D01*
Y14565D01*
X13030Y14563D01*
X13030Y14560D01*
X13029Y14556D01*
X13027Y14551D01*
X13025Y14546D01*
X13023Y14540D01*
X13020Y14533D01*
X13014Y14518D01*
X13006Y14503D01*
X12997Y14486D01*
X12985Y14471D01*
X12984Y14471D01*
X12983Y14469D01*
X12980Y14466D01*
X12977Y14463D01*
X12973Y14459D01*
X12968Y14454D01*
X12962Y14449D01*
X12955Y14443D01*
X12948Y14437D01*
X12939Y14431D01*
X12930Y14425D01*
X12921Y14418D01*
X12910Y14412D01*
X12899Y14406D01*
X12875Y14396D01*
X12875D01*
X12872Y14395D01*
X12869Y14393D01*
X12864Y14392D01*
X12857Y14390D01*
X12850Y14388D01*
X12841Y14385D01*
X12832Y14383D01*
X12821Y14381D01*
X12809Y14378D01*
X12797Y14376D01*
X12784Y14374D01*
X12769Y14373D01*
X12755Y14371D01*
X12724Y14370D01*
X12723D01*
X12721D01*
X12717D01*
X12711D01*
X12705Y14371D01*
X12697D01*
X12689Y14371D01*
X12680Y14372D01*
X12670Y14373D01*
X12660Y14375D01*
X12638Y14378D01*
X12616Y14382D01*
X12594Y14388D01*
X12593D01*
X12591Y14388D01*
X12588Y14390D01*
X12584Y14391D01*
X12579Y14393D01*
X12574Y14395D01*
X12567Y14397D01*
X12561Y14400D01*
X12546Y14406D01*
X12531Y14413D01*
X12515Y14422D01*
X12501Y14431D01*
X12500D01*
X12499Y14433D01*
X12497Y14434D01*
X12494Y14436D01*
X12488Y14441D01*
X12479Y14448D01*
X12470Y14457D01*
X12461Y14467D01*
X12451Y14478D01*
X12442Y14489D01*
Y14490D01*
X12442Y14491D01*
X12441Y14493D01*
X12439Y14495D01*
X12437Y14498D01*
X12435Y14502D01*
X12431Y14511D01*
X12426Y14522D01*
X12420Y14535D01*
X12415Y14550D01*
X12411Y14566D01*
Y14567D01*
X12410Y14568D01*
X12409Y14571D01*
X12409Y14574D01*
X12408Y14578D01*
X12407Y14583D01*
X12406Y14589D01*
X12406Y14596D01*
X12404Y14603D01*
X12403Y14611D01*
X12402Y14628D01*
X12401Y14648D01*
X12400Y14669D01*
Y14900D01*
X13040D01*
Y14661D01*
D02*
G37*
G36*
Y14019D02*
Y13955D01*
X12625D01*
Y13868D01*
X12553D01*
Y13955D01*
X12400D01*
Y14033D01*
X12553D01*
Y14311D01*
X12625D01*
X13040Y14019D01*
D02*
G37*
%LPC*%
G36*
X-15525Y14915D02*
X-16014D01*
Y14768D01*
X-16013Y14763D01*
Y14757D01*
X-16013Y14750D01*
Y14743D01*
X-16011Y14726D01*
X-16009Y14710D01*
X-16006Y14694D01*
X-16004Y14686D01*
X-16003Y14679D01*
Y14679D01*
X-16002Y14678D01*
X-16001Y14676D01*
X-16000Y14673D01*
X-15998Y14667D01*
X-15994Y14659D01*
X-15989Y14649D01*
X-15983Y14640D01*
X-15976Y14631D01*
X-15969Y14622D01*
X-15968Y14621D01*
X-15968Y14621D01*
X-15966Y14619D01*
X-15963Y14617D01*
X-15960Y14614D01*
X-15957Y14611D01*
X-15948Y14604D01*
X-15936Y14597D01*
X-15922Y14589D01*
X-15906Y14581D01*
X-15888Y14574D01*
X-15888D01*
X-15886Y14574D01*
X-15883Y14573D01*
X-15879Y14572D01*
X-15874Y14571D01*
X-15868Y14569D01*
X-15861Y14568D01*
X-15853Y14566D01*
X-15845Y14564D01*
X-15836Y14563D01*
X-15825Y14561D01*
X-15814Y14560D01*
X-15803Y14559D01*
X-15791Y14558D01*
X-15764Y14558D01*
X-15763D01*
X-15760D01*
X-15755D01*
X-15748Y14558D01*
X-15739Y14559D01*
X-15730Y14559D01*
X-15719Y14560D01*
X-15708Y14562D01*
X-15696Y14563D01*
X-15683Y14566D01*
X-15658Y14571D01*
X-15645Y14575D01*
X-15633Y14579D01*
X-15621Y14585D01*
X-15611Y14591D01*
X-15610Y14591D01*
X-15608Y14592D01*
X-15606Y14594D01*
X-15602Y14596D01*
X-15598Y14600D01*
X-15593Y14604D01*
X-15581Y14613D01*
X-15569Y14625D01*
X-15557Y14639D01*
X-15546Y14654D01*
X-15541Y14663D01*
X-15538Y14671D01*
Y14672D01*
X-15537Y14673D01*
X-15536Y14675D01*
X-15536Y14678D01*
X-15535Y14681D01*
X-15533Y14686D01*
X-15532Y14691D01*
X-15531Y14698D01*
X-15530Y14705D01*
X-15529Y14713D01*
X-15528Y14722D01*
X-15526Y14732D01*
X-15526Y14743D01*
X-15525Y14754D01*
X-15525Y14767D01*
Y14915D01*
D02*
G37*
G36*
X-11825Y15442D02*
X-11826D01*
X-11829D01*
X-11834D01*
X-11841Y15442D01*
X-11850Y15441D01*
X-11859Y15441D01*
X-11870Y15440D01*
X-11882Y15438D01*
X-11894Y15437D01*
X-11906Y15434D01*
X-11932Y15429D01*
X-11944Y15425D01*
X-11957Y15420D01*
X-11968Y15415D01*
X-11979Y15409D01*
X-11979Y15409D01*
X-11981Y15408D01*
X-11984Y15406D01*
X-11987Y15404D01*
X-11992Y15400D01*
X-11997Y15396D01*
X-12008Y15387D01*
X-12020Y15375D01*
X-12032Y15361D01*
X-12043Y15346D01*
X-12048Y15337D01*
X-12052Y15329D01*
Y15328D01*
X-12052Y15327D01*
X-12053Y15325D01*
X-12054Y15322D01*
X-12055Y15319D01*
X-12056Y15314D01*
X-12057Y15309D01*
X-12059Y15302D01*
X-12059Y15295D01*
X-12060Y15287D01*
X-12062Y15278D01*
X-12063Y15268D01*
X-12064Y15257D01*
X-12064Y15246D01*
X-12065Y15233D01*
Y15085D01*
X-11576D01*
Y15232D01*
X-11576Y15237D01*
Y15243D01*
X-11577Y15250D01*
Y15257D01*
X-11578Y15274D01*
X-11581Y15290D01*
X-11583Y15306D01*
X-11585Y15314D01*
X-11587Y15321D01*
Y15321D01*
X-11587Y15322D01*
X-11588Y15324D01*
X-11589Y15327D01*
X-11592Y15333D01*
X-11596Y15341D01*
X-11601Y15351D01*
X-11606Y15360D01*
X-11613Y15369D01*
X-11621Y15378D01*
X-11621Y15379D01*
X-11622Y15379D01*
X-11624Y15381D01*
X-11626Y15383D01*
X-11629Y15386D01*
X-11632Y15389D01*
X-11642Y15396D01*
X-11654Y15403D01*
X-11667Y15411D01*
X-11683Y15419D01*
X-11701Y15425D01*
X-11702D01*
X-11704Y15426D01*
X-11706Y15427D01*
X-11711Y15428D01*
X-11716Y15429D01*
X-11721Y15431D01*
X-11728Y15432D01*
X-11736Y15434D01*
X-11744Y15436D01*
X-11754Y15437D01*
X-11764Y15439D01*
X-11775Y15440D01*
X-11787Y15441D01*
X-11799Y15442D01*
X-11825Y15442D01*
D02*
G37*
G36*
X3984Y-8853D02*
X3984D01*
X3983D01*
X3980D01*
X3977Y-8853D01*
X3973Y-8854D01*
X3968Y-8855D01*
X3958Y-8857D01*
X3946Y-8861D01*
X3934Y-8866D01*
X3927Y-8870D01*
X3921Y-8875D01*
X3915Y-8880D01*
X3910Y-8886D01*
X3909Y-8886D01*
X3908Y-8887D01*
X3907Y-8890D01*
X3905Y-8892D01*
X3903Y-8896D01*
X3900Y-8900D01*
X3898Y-8905D01*
X3895Y-8911D01*
X3892Y-8918D01*
X3890Y-8926D01*
X3887Y-8934D01*
X3885Y-8943D01*
X3883Y-8954D01*
X3881Y-8965D01*
X3880Y-8976D01*
Y-9192D01*
X4093D01*
Y-9001D01*
X4092Y-8996D01*
Y-8990D01*
X4091Y-8984D01*
Y-8977D01*
X4089Y-8963D01*
X4088Y-8948D01*
X4084Y-8933D01*
X4081Y-8920D01*
Y-8919D01*
X4080Y-8918D01*
X4078Y-8914D01*
X4076Y-8908D01*
X4071Y-8901D01*
X4066Y-8893D01*
X4059Y-8885D01*
X4052Y-8877D01*
X4043Y-8870D01*
X4042D01*
X4041Y-8870D01*
X4038Y-8868D01*
X4033Y-8865D01*
X4025Y-8861D01*
X4016Y-8858D01*
X4007Y-8855D01*
X3996Y-8853D01*
X3984Y-8853D01*
D02*
G37*
G36*
X-11525Y5942D02*
X-11526D01*
X-11529D01*
X-11534D01*
X-11541Y5942D01*
X-11550Y5941D01*
X-11559Y5940D01*
X-11570Y5940D01*
X-11582Y5938D01*
X-11594Y5937D01*
X-11606Y5934D01*
X-11632Y5929D01*
X-11644Y5925D01*
X-11657Y5920D01*
X-11668Y5915D01*
X-11679Y5909D01*
X-11679Y5909D01*
X-11681Y5908D01*
X-11684Y5906D01*
X-11687Y5904D01*
X-11692Y5900D01*
X-11697Y5896D01*
X-11708Y5887D01*
X-11720Y5875D01*
X-11732Y5861D01*
X-11743Y5846D01*
X-11748Y5837D01*
X-11752Y5829D01*
Y5828D01*
X-11752Y5827D01*
X-11753Y5825D01*
X-11754Y5822D01*
X-11755Y5819D01*
X-11756Y5814D01*
X-11757Y5809D01*
X-11759Y5802D01*
X-11759Y5795D01*
X-11760Y5787D01*
X-11762Y5778D01*
X-11763Y5768D01*
X-11764Y5757D01*
X-11764Y5746D01*
X-11765Y5733D01*
Y5585D01*
X-11276D01*
Y5732D01*
X-11276Y5737D01*
Y5743D01*
X-11277Y5750D01*
Y5757D01*
X-11278Y5774D01*
X-11281Y5790D01*
X-11283Y5806D01*
X-11285Y5814D01*
X-11287Y5821D01*
Y5821D01*
X-11287Y5822D01*
X-11288Y5824D01*
X-11289Y5827D01*
X-11292Y5833D01*
X-11296Y5841D01*
X-11301Y5851D01*
X-11306Y5860D01*
X-11313Y5869D01*
X-11321Y5878D01*
X-11321Y5879D01*
X-11322Y5879D01*
X-11324Y5881D01*
X-11326Y5883D01*
X-11329Y5886D01*
X-11332Y5889D01*
X-11342Y5896D01*
X-11354Y5903D01*
X-11367Y5911D01*
X-11383Y5919D01*
X-11401Y5925D01*
X-11402D01*
X-11404Y5926D01*
X-11406Y5927D01*
X-11411Y5928D01*
X-11416Y5929D01*
X-11421Y5931D01*
X-11428Y5932D01*
X-11436Y5934D01*
X-11444Y5936D01*
X-11454Y5937D01*
X-11464Y5939D01*
X-11475Y5940D01*
X-11487Y5941D01*
X-11499Y5942D01*
X-11525Y5942D01*
D02*
G37*
G36*
X-15525Y5415D02*
X-16014D01*
Y5268D01*
X-16013Y5263D01*
Y5257D01*
X-16013Y5250D01*
Y5243D01*
X-16011Y5226D01*
X-16009Y5210D01*
X-16006Y5194D01*
X-16004Y5186D01*
X-16003Y5179D01*
Y5179D01*
X-16002Y5178D01*
X-16001Y5176D01*
X-16000Y5173D01*
X-15998Y5167D01*
X-15994Y5159D01*
X-15989Y5149D01*
X-15983Y5140D01*
X-15976Y5131D01*
X-15969Y5122D01*
X-15968Y5121D01*
X-15968Y5121D01*
X-15966Y5119D01*
X-15963Y5117D01*
X-15960Y5114D01*
X-15957Y5111D01*
X-15948Y5104D01*
X-15936Y5097D01*
X-15922Y5089D01*
X-15906Y5081D01*
X-15888Y5074D01*
X-15888D01*
X-15886Y5074D01*
X-15883Y5073D01*
X-15879Y5072D01*
X-15874Y5071D01*
X-15868Y5069D01*
X-15861Y5068D01*
X-15853Y5066D01*
X-15845Y5064D01*
X-15836Y5063D01*
X-15825Y5061D01*
X-15814Y5060D01*
X-15803Y5059D01*
X-15791Y5058D01*
X-15764Y5058D01*
X-15763D01*
X-15760D01*
X-15755D01*
X-15748Y5058D01*
X-15739Y5059D01*
X-15730Y5060D01*
X-15719Y5060D01*
X-15708Y5062D01*
X-15696Y5063D01*
X-15683Y5066D01*
X-15658Y5071D01*
X-15645Y5075D01*
X-15633Y5079D01*
X-15621Y5085D01*
X-15611Y5091D01*
X-15610Y5091D01*
X-15608Y5092D01*
X-15606Y5094D01*
X-15602Y5096D01*
X-15598Y5100D01*
X-15593Y5104D01*
X-15581Y5113D01*
X-15569Y5125D01*
X-15557Y5139D01*
X-15546Y5154D01*
X-15541Y5163D01*
X-15538Y5171D01*
Y5172D01*
X-15537Y5173D01*
X-15536Y5175D01*
X-15536Y5178D01*
X-15535Y5181D01*
X-15533Y5186D01*
X-15532Y5191D01*
X-15531Y5198D01*
X-15530Y5205D01*
X-15529Y5213D01*
X-15528Y5222D01*
X-15526Y5232D01*
X-15526Y5243D01*
X-15525Y5254D01*
X-15525Y5267D01*
Y5415D01*
D02*
G37*
G36*
X-15882Y4798D02*
X-15883D01*
X-15884D01*
X-15886D01*
X-15889D01*
X-15893Y4798D01*
X-15897D01*
X-15907Y4796D01*
X-15919Y4794D01*
X-15932Y4791D01*
X-15946Y4787D01*
X-15960Y4781D01*
X-15961D01*
X-15962Y4781D01*
X-15964Y4780D01*
X-15966Y4778D01*
X-15973Y4775D01*
X-15981Y4769D01*
X-15990Y4762D01*
X-15999Y4754D01*
X-16008Y4744D01*
X-16016Y4733D01*
Y4733D01*
X-16017Y4732D01*
X-16018Y4730D01*
X-16019Y4728D01*
X-16023Y4722D01*
X-16026Y4714D01*
X-16029Y4704D01*
X-16033Y4693D01*
X-16035Y4681D01*
X-16036Y4668D01*
Y4663D01*
X-16035Y4660D01*
X-16034Y4656D01*
X-16034Y4651D01*
X-16031Y4639D01*
X-16026Y4625D01*
X-16023Y4618D01*
X-16019Y4611D01*
X-16014Y4604D01*
X-16009Y4596D01*
X-16003Y4590D01*
X-15996Y4583D01*
X-15995Y4582D01*
X-15994Y4581D01*
X-15991Y4580D01*
X-15988Y4577D01*
X-15984Y4575D01*
X-15979Y4571D01*
X-15974Y4568D01*
X-15967Y4565D01*
X-15959Y4562D01*
X-15951Y4558D01*
X-15943Y4555D01*
X-15933Y4552D01*
X-15922Y4550D01*
X-15911Y4548D01*
X-15899Y4547D01*
X-15886Y4547D01*
X-15886D01*
X-15883D01*
X-15880D01*
X-15875Y4547D01*
X-15870Y4548D01*
X-15863Y4548D01*
X-15856Y4550D01*
X-15848Y4551D01*
X-15832Y4555D01*
X-15823Y4558D01*
X-15814Y4562D01*
X-15806Y4566D01*
X-15798Y4570D01*
X-15789Y4576D01*
X-15782Y4582D01*
X-15781Y4583D01*
X-15780Y4584D01*
X-15778Y4586D01*
X-15776Y4588D01*
X-15773Y4592D01*
X-15769Y4596D01*
X-15766Y4601D01*
X-15763Y4606D01*
X-15759Y4613D01*
X-15756Y4619D01*
X-15749Y4635D01*
X-15747Y4643D01*
X-15745Y4652D01*
X-15744Y4661D01*
X-15743Y4671D01*
Y4676D01*
X-15744Y4680D01*
X-15744Y4685D01*
X-15745Y4690D01*
X-15746Y4696D01*
X-15748Y4703D01*
X-15753Y4716D01*
X-15756Y4724D01*
X-15759Y4732D01*
X-15764Y4740D01*
X-15769Y4747D01*
X-15775Y4755D01*
X-15782Y4761D01*
X-15783Y4762D01*
X-15784Y4763D01*
X-15786Y4765D01*
X-15789Y4767D01*
X-15793Y4770D01*
X-15797Y4773D01*
X-15803Y4776D01*
X-15809Y4780D01*
X-15816Y4783D01*
X-15823Y4786D01*
X-15831Y4790D01*
X-15840Y4793D01*
X-15849Y4795D01*
X-15860Y4796D01*
X-15871Y4798D01*
X-15882Y4798D01*
D02*
G37*
G36*
X16675Y15342D02*
X16674D01*
X16671D01*
X16666D01*
X16659Y15342D01*
X16650Y15341D01*
X16641Y15340D01*
X16630Y15340D01*
X16618Y15338D01*
X16606Y15337D01*
X16594Y15334D01*
X16568Y15329D01*
X16556Y15325D01*
X16543Y15321D01*
X16532Y15315D01*
X16521Y15309D01*
X16521Y15309D01*
X16519Y15308D01*
X16516Y15306D01*
X16513Y15304D01*
X16508Y15300D01*
X16503Y15296D01*
X16492Y15287D01*
X16480Y15275D01*
X16468Y15261D01*
X16457Y15246D01*
X16452Y15237D01*
X16448Y15229D01*
Y15228D01*
X16448Y15227D01*
X16447Y15225D01*
X16446Y15222D01*
X16445Y15219D01*
X16444Y15214D01*
X16443Y15209D01*
X16441Y15202D01*
X16441Y15195D01*
X16440Y15187D01*
X16438Y15178D01*
X16437Y15168D01*
X16436Y15157D01*
X16436Y15146D01*
X16435Y15133D01*
Y14985D01*
X16924D01*
Y15132D01*
X16924Y15137D01*
Y15143D01*
X16923Y15150D01*
Y15157D01*
X16922Y15174D01*
X16919Y15190D01*
X16917Y15206D01*
X16915Y15214D01*
X16913Y15221D01*
Y15221D01*
X16913Y15222D01*
X16912Y15224D01*
X16911Y15227D01*
X16908Y15233D01*
X16904Y15241D01*
X16899Y15251D01*
X16894Y15260D01*
X16887Y15269D01*
X16879Y15278D01*
X16879Y15279D01*
X16878Y15279D01*
X16876Y15281D01*
X16874Y15283D01*
X16871Y15286D01*
X16868Y15289D01*
X16858Y15296D01*
X16846Y15303D01*
X16833Y15311D01*
X16817Y15319D01*
X16799Y15325D01*
X16798D01*
X16796Y15326D01*
X16794Y15327D01*
X16789Y15328D01*
X16784Y15329D01*
X16779Y15331D01*
X16772Y15332D01*
X16764Y15334D01*
X16756Y15335D01*
X16746Y15337D01*
X16736Y15339D01*
X16725Y15340D01*
X16713Y15341D01*
X16701Y15342D01*
X16675Y15342D01*
D02*
G37*
G36*
X16664Y6578D02*
X16663D01*
X16660D01*
X16655D01*
X16648Y6577D01*
X16639Y6576D01*
X16630Y6576D01*
X16619Y6575D01*
X16608Y6573D01*
X16596Y6572D01*
X16583Y6569D01*
X16558Y6564D01*
X16545Y6560D01*
X16533Y6556D01*
X16521Y6550D01*
X16511Y6544D01*
X16510Y6544D01*
X16508Y6543D01*
X16506Y6541D01*
X16502Y6539D01*
X16498Y6535D01*
X16493Y6531D01*
X16481Y6522D01*
X16469Y6510D01*
X16457Y6496D01*
X16446Y6481D01*
X16441Y6473D01*
X16438Y6464D01*
Y6463D01*
X16437Y6462D01*
X16436Y6460D01*
X16436Y6458D01*
X16435Y6454D01*
X16433Y6449D01*
X16432Y6444D01*
X16431Y6438D01*
X16430Y6430D01*
X16429Y6423D01*
X16428Y6413D01*
X16426Y6403D01*
X16426Y6393D01*
X16425Y6381D01*
X16425Y6368D01*
Y6220D01*
X16914D01*
Y6367D01*
X16913Y6372D01*
Y6378D01*
X16913Y6385D01*
Y6393D01*
X16911Y6409D01*
X16909Y6425D01*
X16906Y6441D01*
X16904Y6449D01*
X16903Y6456D01*
Y6456D01*
X16902Y6458D01*
X16901Y6459D01*
X16900Y6462D01*
X16898Y6468D01*
X16894Y6476D01*
X16889Y6486D01*
X16883Y6495D01*
X16876Y6504D01*
X16869Y6513D01*
X16868Y6514D01*
X16868Y6514D01*
X16866Y6516D01*
X16863Y6518D01*
X16860Y6521D01*
X16857Y6524D01*
X16848Y6531D01*
X16836Y6538D01*
X16822Y6546D01*
X16806Y6554D01*
X16788Y6561D01*
X16788D01*
X16786Y6561D01*
X16783Y6563D01*
X16779Y6563D01*
X16774Y6564D01*
X16768Y6566D01*
X16761Y6568D01*
X16753Y6569D01*
X16745Y6571D01*
X16736Y6572D01*
X16725Y6574D01*
X16714Y6575D01*
X16703Y6576D01*
X16691Y6577D01*
X16664Y6578D01*
D02*
G37*
G36*
X13075Y6115D02*
X12586D01*
Y5968D01*
X12587Y5963D01*
Y5957D01*
X12587Y5950D01*
Y5943D01*
X12589Y5926D01*
X12591Y5910D01*
X12594Y5894D01*
X12596Y5886D01*
X12597Y5879D01*
Y5879D01*
X12598Y5878D01*
X12599Y5876D01*
X12600Y5873D01*
X12602Y5867D01*
X12606Y5859D01*
X12611Y5849D01*
X12617Y5840D01*
X12624Y5831D01*
X12631Y5822D01*
X12632Y5821D01*
X12632Y5821D01*
X12634Y5819D01*
X12637Y5817D01*
X12640Y5814D01*
X12643Y5811D01*
X12652Y5804D01*
X12664Y5797D01*
X12678Y5789D01*
X12694Y5781D01*
X12712Y5774D01*
X12712D01*
X12714Y5774D01*
X12717Y5773D01*
X12721Y5772D01*
X12726Y5771D01*
X12732Y5769D01*
X12739Y5768D01*
X12747Y5766D01*
X12755Y5765D01*
X12764Y5763D01*
X12775Y5761D01*
X12786Y5760D01*
X12797Y5759D01*
X12809Y5758D01*
X12836Y5758D01*
X12837D01*
X12840D01*
X12845D01*
X12852Y5758D01*
X12861Y5759D01*
X12870Y5760D01*
X12881Y5760D01*
X12892Y5762D01*
X12904Y5763D01*
X12917Y5766D01*
X12942Y5771D01*
X12955Y5775D01*
X12967Y5780D01*
X12979Y5785D01*
X12989Y5791D01*
X12990Y5791D01*
X12992Y5792D01*
X12994Y5794D01*
X12998Y5796D01*
X13002Y5800D01*
X13007Y5804D01*
X13019Y5813D01*
X13031Y5825D01*
X13043Y5839D01*
X13054Y5854D01*
X13059Y5863D01*
X13062Y5871D01*
Y5872D01*
X13063Y5873D01*
X13064Y5875D01*
X13064Y5878D01*
X13065Y5881D01*
X13067Y5886D01*
X13068Y5891D01*
X13069Y5898D01*
X13070Y5905D01*
X13071Y5913D01*
X13072Y5922D01*
X13074Y5932D01*
X13074Y5943D01*
X13075Y5954D01*
X13075Y5967D01*
Y6115D01*
D02*
G37*
G36*
X12991Y5480D02*
X12990D01*
X12989D01*
X12987D01*
X12984Y5480D01*
X12980D01*
X12975Y5479D01*
X12965Y5476D01*
X12953Y5473D01*
X12941Y5468D01*
X12928Y5461D01*
X12922Y5456D01*
X12917Y5451D01*
Y5451D01*
X12916Y5450D01*
X12914Y5448D01*
X12912Y5446D01*
X12907Y5440D01*
X12902Y5431D01*
X12897Y5420D01*
X12892Y5407D01*
X12889Y5392D01*
X12889Y5384D01*
X12888Y5375D01*
Y5371D01*
X12889Y5368D01*
Y5364D01*
X12889Y5359D01*
X12892Y5349D01*
X12895Y5337D01*
X12900Y5325D01*
X12907Y5312D01*
X12911Y5306D01*
X12916Y5301D01*
X12917Y5300D01*
X12917Y5300D01*
X12919Y5298D01*
X12921Y5297D01*
X12927Y5292D01*
X12936Y5286D01*
X12946Y5281D01*
X12958Y5276D01*
X12972Y5273D01*
X12979Y5272D01*
X12987D01*
X12987D01*
X12989D01*
X12991D01*
X12994Y5272D01*
X12997D01*
X13002Y5273D01*
X13012Y5275D01*
X13024Y5279D01*
X13035Y5284D01*
X13048Y5292D01*
X13054Y5297D01*
X13059Y5301D01*
X13060Y5302D01*
X13060Y5303D01*
X13062Y5305D01*
X13064Y5307D01*
X13069Y5313D01*
X13074Y5322D01*
X13080Y5333D01*
X13085Y5345D01*
X13088Y5360D01*
X13089Y5368D01*
X13089Y5376D01*
Y5380D01*
X13089Y5383D01*
Y5387D01*
X13088Y5392D01*
X13085Y5402D01*
X13082Y5414D01*
X13077Y5426D01*
X13070Y5439D01*
X13065Y5445D01*
X13060Y5451D01*
X13059D01*
X13059Y5452D01*
X13055Y5455D01*
X13049Y5460D01*
X13040Y5465D01*
X13030Y5471D01*
X13019Y5476D01*
X13005Y5479D01*
X12999Y5480D01*
X12991Y5480D01*
D02*
G37*
G36*
X12695Y5506D02*
X12694D01*
X12694D01*
X12692D01*
X12689D01*
X12682Y5505D01*
X12674Y5504D01*
X12664Y5502D01*
X12653Y5499D01*
X12642Y5495D01*
X12630Y5490D01*
X12629D01*
X12629Y5490D01*
X12625Y5487D01*
X12619Y5483D01*
X12612Y5478D01*
X12604Y5472D01*
X12596Y5464D01*
X12588Y5455D01*
X12581Y5443D01*
Y5443D01*
X12581Y5442D01*
X12580Y5440D01*
X12579Y5438D01*
X12576Y5431D01*
X12573Y5423D01*
X12570Y5413D01*
X12567Y5401D01*
X12565Y5388D01*
X12564Y5375D01*
Y5370D01*
X12565Y5366D01*
X12566Y5361D01*
X12566Y5355D01*
X12567Y5349D01*
X12569Y5342D01*
X12573Y5328D01*
X12576Y5320D01*
X12579Y5312D01*
X12584Y5304D01*
X12588Y5297D01*
X12594Y5289D01*
X12600Y5282D01*
X12601Y5281D01*
X12602Y5280D01*
X12604Y5279D01*
X12607Y5277D01*
X12610Y5273D01*
X12614Y5270D01*
X12619Y5267D01*
X12625Y5263D01*
X12631Y5260D01*
X12639Y5257D01*
X12654Y5251D01*
X12663Y5248D01*
X12672Y5247D01*
X12682Y5246D01*
X12692Y5245D01*
X12693D01*
X12695D01*
X12698D01*
X12702Y5246D01*
X12707Y5247D01*
X12712Y5247D01*
X12719Y5248D01*
X12726Y5250D01*
X12741Y5255D01*
X12748Y5258D01*
X12756Y5262D01*
X12764Y5266D01*
X12772Y5271D01*
X12779Y5277D01*
X12786Y5283D01*
X12787Y5284D01*
X12788Y5285D01*
X12790Y5287D01*
X12792Y5290D01*
X12795Y5294D01*
X12798Y5298D01*
X12801Y5303D01*
X12805Y5309D01*
X12809Y5316D01*
X12812Y5323D01*
X12818Y5339D01*
X12820Y5348D01*
X12822Y5357D01*
X12823Y5367D01*
X12824Y5378D01*
Y5383D01*
X12823Y5387D01*
X12822Y5391D01*
X12822Y5397D01*
X12821Y5403D01*
X12819Y5410D01*
X12815Y5425D01*
X12812Y5432D01*
X12808Y5440D01*
X12804Y5448D01*
X12799Y5455D01*
X12793Y5463D01*
X12787Y5470D01*
X12786Y5470D01*
X12785Y5471D01*
X12783Y5473D01*
X12780Y5475D01*
X12777Y5478D01*
X12772Y5481D01*
X12767Y5485D01*
X12762Y5488D01*
X12755Y5491D01*
X12748Y5495D01*
X12732Y5500D01*
X12724Y5503D01*
X12715Y5504D01*
X12705Y5505D01*
X12695Y5506D01*
D02*
G37*
G36*
X12965Y14815D02*
X12476D01*
Y14668D01*
X12476Y14663D01*
Y14657D01*
X12477Y14650D01*
Y14643D01*
X12478Y14626D01*
X12481Y14610D01*
X12483Y14594D01*
X12485Y14586D01*
X12487Y14579D01*
Y14579D01*
X12487Y14578D01*
X12488Y14576D01*
X12489Y14573D01*
X12492Y14567D01*
X12496Y14559D01*
X12501Y14549D01*
X12506Y14540D01*
X12513Y14531D01*
X12521Y14522D01*
X12521Y14521D01*
X12522Y14521D01*
X12524Y14519D01*
X12526Y14517D01*
X12529Y14514D01*
X12532Y14511D01*
X12542Y14504D01*
X12554Y14497D01*
X12567Y14489D01*
X12583Y14481D01*
X12601Y14474D01*
X12602D01*
X12604Y14474D01*
X12606Y14473D01*
X12611Y14472D01*
X12616Y14471D01*
X12621Y14469D01*
X12628Y14468D01*
X12636Y14466D01*
X12644Y14465D01*
X12654Y14463D01*
X12664Y14461D01*
X12675Y14460D01*
X12687Y14459D01*
X12699Y14458D01*
X12725Y14458D01*
X12726D01*
X12729D01*
X12734D01*
X12741Y14458D01*
X12750Y14459D01*
X12759Y14460D01*
X12770Y14460D01*
X12782Y14462D01*
X12794Y14463D01*
X12806Y14466D01*
X12832Y14471D01*
X12844Y14475D01*
X12857Y14479D01*
X12868Y14485D01*
X12879Y14491D01*
X12879Y14491D01*
X12881Y14492D01*
X12884Y14494D01*
X12887Y14496D01*
X12892Y14500D01*
X12897Y14504D01*
X12908Y14513D01*
X12920Y14525D01*
X12932Y14539D01*
X12943Y14554D01*
X12948Y14563D01*
X12952Y14571D01*
Y14572D01*
X12952Y14573D01*
X12953Y14575D01*
X12954Y14578D01*
X12955Y14581D01*
X12956Y14586D01*
X12957Y14591D01*
X12959Y14598D01*
X12959Y14605D01*
X12960Y14613D01*
X12962Y14622D01*
X12963Y14632D01*
X12964Y14643D01*
X12964Y14654D01*
X12965Y14667D01*
Y14815D01*
D02*
G37*
G36*
X12625Y14235D02*
Y14033D01*
X12914D01*
X12625Y14235D01*
D02*
G37*
%LPD*%
D27*
X-14525Y11425D02*
Y18575D01*
X-17675Y11425D02*
X-14525D01*
X-17675D02*
Y18575D01*
X-14525D01*
X-13075Y11425D02*
Y18575D01*
X-9925D01*
Y11425D02*
Y18575D01*
X-13075Y11425D02*
X-9925D01*
X3900Y-10383D02*
X5000D01*
Y-8171D01*
X3900D02*
X5000D01*
X3900Y-10383D02*
Y-8171D01*
X7800Y-7950D02*
X9300D01*
X7800Y-10650D02*
Y-7950D01*
Y-10650D02*
X9300D01*
Y-7950D01*
X5700D02*
X7200D01*
X5700Y-10650D02*
Y-7950D01*
Y-10650D02*
X7200D01*
Y-7950D01*
X-12775Y1925D02*
X-9625D01*
Y9075D01*
X-12775D02*
X-9625D01*
X-12775Y1925D02*
Y9075D01*
X-17675D02*
X-14525D01*
X-17675Y1925D02*
Y9075D01*
Y1925D02*
X-14525D01*
Y9075D01*
X15425Y11325D02*
X18575D01*
Y18475D01*
X15425D02*
X18575D01*
X15425Y11325D02*
Y18475D01*
Y2560D02*
X18575D01*
Y9710D01*
X15425D02*
X18575D01*
X15425Y2560D02*
Y9710D01*
X10925Y9775D02*
X14075D01*
X10925Y2625D02*
Y9775D01*
Y2625D02*
X14075D01*
Y9775D01*
X10825Y18475D02*
X13975D01*
X10825Y11325D02*
Y18475D01*
Y11325D02*
X13975D01*
Y18475D01*
%TF.MD5,8e0b1e596bef8c20400241e96e5a31c5*%
M02*
