%TF.GenerationSoftware,Altium Limited,Altium Designer,26.9.1 (10)*%
G04 Layer_Color=65535*
G04 Board_Origin=17440945|968010161*
%FSLAX43Y43*%
%MOMM*%
%TF.SameCoordinates,B4983FAE-E162-4530-9D55-9E570CABCAF8*%
%TF.FilePolarity,Positive*%
%TF.FileFunction,Legend,Top*%
%TF.Part,Single*%
G01*
G75*
%TA.AperFunction,NonConductor*%
%ADD26C,0.250*%
%ADD27C,0.200*%
%ADD28C,0.254*%
%ADD29C,0.150*%
D26*
X-7125Y3050D02*
G03*
X-7125Y3050I-125J0D01*
G01*
X-16000Y19350D02*
G03*
X-16000Y19350I-125J0D01*
G01*
X-11350Y10650D02*
G03*
X-11350Y10650I-125J0D01*
G01*
X-791Y17150D02*
G03*
X-791Y17150I-125J0D01*
G01*
X7709Y17150D02*
G03*
X7709Y17150I-125J0D01*
G01*
X3394Y3150D02*
G03*
X3394Y3150I-125J0D01*
G01*
X-11050Y1150D02*
G03*
X-11050Y1150I-125J0D01*
G01*
X-16000Y9850D02*
G03*
X-16000Y9850I-125J0D01*
G01*
X17150Y10550D02*
G03*
X17150Y10550I-125J0D01*
G01*
Y1785D02*
G03*
X17150Y1785I-125J0D01*
G01*
X12600Y10550D02*
G03*
X12600Y10550I-125J0D01*
G01*
X12500Y19250D02*
G03*
X12500Y19250I-125J0D01*
G01*
D27*
X-7425Y3800D02*
Y8000D01*
X-6900D01*
X-7425Y3800D02*
X-6900D01*
X-2775D02*
Y8000D01*
X-3300D02*
X-2775D01*
X-3300Y3800D02*
X-2775D01*
X-14625Y12625D02*
Y17375D01*
X-17575Y12625D02*
X-17350D01*
X-14850D02*
X-14625D01*
X-17575D02*
Y17375D01*
X-17350D01*
X-14850D02*
X-14625D01*
X-12975Y12625D02*
Y17375D01*
X-10250D02*
X-10025D01*
X-12975D02*
X-12750D01*
X-10025Y12625D02*
Y17375D01*
X-10250Y12625D02*
X-10025D01*
X-12975D02*
X-12750D01*
X-7391Y16400D02*
X-6866D01*
X-7391Y12200D02*
X-6866D01*
X-7391D02*
Y16400D01*
X-1266D02*
X-741D01*
X-1266Y12200D02*
X-741D01*
Y16400D01*
X1109Y16400D02*
X1634D01*
X1109Y12200D02*
X1634D01*
X1109D02*
Y16400D01*
X7234D02*
X7759D01*
X7234Y12200D02*
X7759D01*
Y16400D01*
X7219Y3900D02*
X7744D01*
X7219Y8100D02*
X7744D01*
Y3900D02*
Y8100D01*
X3094Y3900D02*
X3619D01*
X3094Y8100D02*
X3619D01*
X3094Y3900D02*
Y8100D01*
X3600Y-10283D02*
Y-8271D01*
X5300Y-10283D02*
Y-8271D01*
X7700Y-10150D02*
Y-8450D01*
X9400Y-10150D02*
Y-8450D01*
X5600Y-10150D02*
Y-8450D01*
X7300Y-10150D02*
Y-8450D01*
X-12675Y3125D02*
X-12450D01*
X-9950D02*
X-9725D01*
Y7875D01*
X-12675D02*
X-12450D01*
X-9950D02*
X-9725D01*
X-12675Y3125D02*
Y7875D01*
X-14850D02*
X-14625D01*
X-17575D02*
X-17350D01*
X-17575Y3125D02*
Y7875D01*
X-14850Y3125D02*
X-14625D01*
X-17575D02*
X-17350D01*
X-14625D02*
Y7875D01*
X15525Y12525D02*
X15750D01*
X18250D02*
X18475D01*
Y17275D01*
X15525D02*
X15750D01*
X18250D02*
X18475D01*
X15525Y12525D02*
Y17275D01*
Y3760D02*
X15750D01*
X18250D02*
X18475D01*
Y8510D01*
X15525D02*
X15750D01*
X18250D02*
X18475D01*
X15525Y3760D02*
Y8510D01*
X13750Y8575D02*
X13975D01*
X11025D02*
X11250D01*
X11025Y3825D02*
Y8575D01*
X13750Y3825D02*
X13975D01*
X11025D02*
X11250D01*
X13975D02*
Y8575D01*
X13650Y17275D02*
X13875D01*
X10925D02*
X11150D01*
X10925Y12525D02*
Y17275D01*
X13650Y12525D02*
X13875D01*
X10925D02*
X11150D01*
X13875D02*
Y17275D01*
D28*
X-20430Y-8076D02*
X-20684Y-7822D01*
X-21192D01*
X-21446Y-8076D01*
Y-9092D01*
X-21192Y-9346D01*
X-20684D01*
X-20430Y-9092D01*
X-19669Y-9346D02*
X-19161D01*
X-18907Y-9092D01*
Y-8584D01*
X-19161Y-8330D01*
X-19669D01*
X-19922Y-8584D01*
Y-9092D01*
X-19669Y-9346D01*
X-18399D02*
Y-8330D01*
X-17637D01*
X-17383Y-8584D01*
Y-9346D01*
X-16875D02*
Y-8330D01*
X-16114D01*
X-15860Y-8584D01*
Y-9346D01*
X-14590D02*
X-15098D01*
X-15352Y-9092D01*
Y-8584D01*
X-15098Y-8330D01*
X-14590D01*
X-14336Y-8584D01*
Y-8838D01*
X-15352D01*
X-12813Y-8330D02*
X-13575D01*
X-13828Y-8584D01*
Y-9092D01*
X-13575Y-9346D01*
X-12813D01*
X-12051Y-8076D02*
Y-8330D01*
X-12305D01*
X-11797D01*
X-12051D01*
Y-9092D01*
X-11797Y-9346D01*
X-10781D02*
X-10274D01*
X-10020Y-9092D01*
Y-8584D01*
X-10274Y-8330D01*
X-10781D01*
X-11035Y-8584D01*
Y-9092D01*
X-10781Y-9346D01*
X-9512Y-8330D02*
Y-9346D01*
Y-8838D01*
X-9258Y-8584D01*
X-9004Y-8330D01*
X-8750D01*
X-24146Y-7146D02*
Y-6130D01*
X-23638Y-5622D01*
X-23130Y-6130D01*
Y-7146D01*
Y-6384D01*
X-24146D01*
X-21607Y-6130D02*
X-22369D01*
X-22622Y-6384D01*
Y-6892D01*
X-22369Y-7146D01*
X-21607D01*
X-20845D02*
X-20337D01*
X-20083Y-6892D01*
Y-6384D01*
X-20337Y-6130D01*
X-20845D01*
X-21099Y-6384D01*
Y-6892D01*
X-20845Y-7146D01*
X-19575Y-6130D02*
Y-6892D01*
X-19322Y-7146D01*
X-18560D01*
Y-6130D01*
X-18052Y-7146D02*
X-17290D01*
X-17036Y-6892D01*
X-17290Y-6638D01*
X-17798D01*
X-18052Y-6384D01*
X-17798Y-6130D01*
X-17036D01*
X-16275Y-5876D02*
Y-6130D01*
X-16528D01*
X-16021D01*
X-16275D01*
Y-6892D01*
X-16021Y-7146D01*
X-15259D02*
X-14751D01*
X-15005D01*
Y-6130D01*
X-15259D01*
X-12974D02*
X-13735D01*
X-13989Y-6384D01*
Y-6892D01*
X-13735Y-7146D01*
X-12974D01*
X-10942D02*
Y-5622D01*
X-10434Y-6130D01*
X-9927Y-5622D01*
Y-7146D01*
X-9165D02*
X-8657D01*
X-8403Y-6892D01*
Y-6384D01*
X-8657Y-6130D01*
X-9165D01*
X-9419Y-6384D01*
Y-6892D01*
X-9165Y-7146D01*
X-6880Y-5622D02*
Y-7146D01*
X-7641D01*
X-7895Y-6892D01*
Y-6384D01*
X-7641Y-6130D01*
X-6880D01*
X-5610Y-7146D02*
X-6118D01*
X-6372Y-6892D01*
Y-6384D01*
X-6118Y-6130D01*
X-5610D01*
X-5356Y-6384D01*
Y-6638D01*
X-6372D01*
X-4848Y-7146D02*
Y-6130D01*
X-4594D01*
X-4340Y-6384D01*
Y-7146D01*
Y-6384D01*
X-4086Y-6130D01*
X-3833Y-6384D01*
Y-7146D01*
X-2536Y7748D02*
Y9272D01*
X-1774D01*
X-1520Y9018D01*
Y8510D01*
X-1774Y8256D01*
X-2536D01*
X-1012Y9018D02*
X-759Y9272D01*
X-251D01*
X3Y9018D01*
Y8764D01*
X-251Y8510D01*
X-505D01*
X-251D01*
X3Y8256D01*
Y8002D01*
X-251Y7748D01*
X-759D01*
X-1012Y8002D01*
X-12620Y19337D02*
Y17813D01*
X-11858D01*
X-11604Y18067D01*
Y19083D01*
X-11858Y19337D01*
X-12620D01*
X-11096Y19083D02*
X-10842Y19337D01*
X-10334D01*
X-10080Y19083D01*
Y18829D01*
X-10334Y18575D01*
X-10588D01*
X-10334D01*
X-10080Y18321D01*
Y18067D01*
X-10334Y17813D01*
X-10842D01*
X-11096Y18067D01*
X-17416Y19162D02*
Y17638D01*
X-16654D01*
X-16400Y17892D01*
Y18908D01*
X-16654Y19162D01*
X-17416D01*
X-15892Y17638D02*
X-15384D01*
X-15638D01*
Y19162D01*
X-15892Y18908D01*
X-7368Y19024D02*
Y20548D01*
X-6607D01*
X-6353Y20294D01*
Y19786D01*
X-6607Y19532D01*
X-7368D01*
X-5845Y19024D02*
X-5337D01*
X-5591D01*
Y20548D01*
X-5845Y20294D01*
X-10230Y-15922D02*
X-11246D01*
Y-16684D01*
X-10738D01*
X-11246D01*
Y-17446D01*
X-9722D02*
X-9215D01*
X-9469D01*
Y-16430D01*
X-9722D01*
X-8453D02*
Y-17446D01*
Y-16938D01*
X-8199Y-16684D01*
X-7945Y-16430D01*
X-7691D01*
X-6929Y-17446D02*
X-6168D01*
X-5914Y-17192D01*
X-6168Y-16938D01*
X-6675D01*
X-6929Y-16684D01*
X-6675Y-16430D01*
X-5914D01*
X-5152Y-16176D02*
Y-16430D01*
X-5406D01*
X-4898D01*
X-5152D01*
Y-17192D01*
X-4898Y-17446D01*
X-2613Y-15922D02*
Y-16938D01*
X-2105Y-17446D01*
X-1597Y-16938D01*
Y-15922D01*
X-328Y-17446D02*
X-835D01*
X-1089Y-17192D01*
Y-16684D01*
X-835Y-16430D01*
X-328D01*
X-74Y-16684D01*
Y-16938D01*
X-1089D01*
X434Y-16430D02*
Y-17446D01*
Y-16938D01*
X688Y-16684D01*
X942Y-16430D01*
X1196D01*
X1958Y-17446D02*
X2719D01*
X2973Y-17192D01*
X2719Y-16938D01*
X2212D01*
X1958Y-16684D01*
X2212Y-16430D01*
X2973D01*
X3481Y-17446D02*
X3989D01*
X3735D01*
Y-16430D01*
X3481D01*
X5005Y-17446D02*
X5513D01*
X5766Y-17192D01*
Y-16684D01*
X5513Y-16430D01*
X5005D01*
X4751Y-16684D01*
Y-17192D01*
X5005Y-17446D01*
X6274D02*
Y-16430D01*
X7036D01*
X7290Y-16684D01*
Y-17446D01*
X-5646Y-13546D02*
Y-12022D01*
X-4884D01*
X-4630Y-12276D01*
Y-12784D01*
X-4884Y-13038D01*
X-5646D01*
X-3107Y-12022D02*
X-4122D01*
Y-13546D01*
X-3107D01*
X-4122Y-12784D02*
X-3615D01*
X-2599Y-12022D02*
X-1583D01*
X-2091D01*
Y-13546D01*
X-60Y-12022D02*
X-1075D01*
Y-13546D01*
X-60D01*
X-1075Y-12784D02*
X-568D01*
X448Y-13546D02*
Y-12022D01*
X1210D01*
X1464Y-12276D01*
Y-12784D01*
X1210Y-13038D01*
X448D01*
X956D02*
X1464Y-13546D01*
X12407Y-3862D02*
Y-2338D01*
X13169D01*
X13423Y-2592D01*
Y-3100D01*
X13169Y-3354D01*
X12407D01*
X13930Y-3862D02*
Y-2846D01*
X14438Y-2338D01*
X14946Y-2846D01*
Y-3862D01*
Y-3100D01*
X13930D01*
X15454Y-2338D02*
Y-3862D01*
X16216D01*
X16470Y-3608D01*
Y-2592D01*
X16216Y-2338D01*
X15454D01*
X16977Y-3100D02*
X17993D01*
X-18425Y-3548D02*
Y-2024D01*
X-17663D01*
X-17410Y-2278D01*
Y-2786D01*
X-17663Y-3040D01*
X-18425D01*
X-16902Y-3548D02*
Y-2532D01*
X-16394Y-2024D01*
X-15886Y-2532D01*
Y-3548D01*
Y-2786D01*
X-16902D01*
X-15378Y-2024D02*
Y-3548D01*
X-14616D01*
X-14362Y-3294D01*
Y-2278D01*
X-14616Y-2024D01*
X-15378D01*
X-13855Y-2786D02*
X-12839D01*
X-13347Y-2278D02*
Y-3294D01*
X3121Y10712D02*
Y12235D01*
X3882D01*
X4136Y11981D01*
Y11473D01*
X3882Y11220D01*
X3121D01*
X5406Y10712D02*
Y12235D01*
X4644Y11473D01*
X5660D01*
X130Y6138D02*
Y7662D01*
X892D01*
X1146Y7408D01*
Y6900D01*
X892Y6646D01*
X130D01*
X2670Y6138D02*
X1654D01*
X2670Y7154D01*
Y7408D01*
X2416Y7662D01*
X1908D01*
X1654Y7408D01*
X10996Y-16092D02*
X10742Y-15838D01*
X10234D01*
X9980Y-16092D01*
Y-17108D01*
X10234Y-17362D01*
X10742D01*
X10996Y-17108D01*
X12520Y-17362D02*
X11504D01*
X12520Y-16346D01*
Y-16092D01*
X12266Y-15838D01*
X11758D01*
X11504Y-16092D01*
X11250Y-13692D02*
X10996Y-13438D01*
X10488D01*
X10234Y-13692D01*
Y-14708D01*
X10488Y-14962D01*
X10996D01*
X11250Y-14708D01*
X11758Y-14962D02*
X12266D01*
X12012D01*
Y-13438D01*
X11758Y-13692D01*
X2493Y-3367D02*
X969D01*
Y-2605D01*
X1223Y-2351D01*
X1731D01*
X1985Y-2605D01*
Y-3367D01*
Y-2859D02*
X2493Y-2351D01*
Y-1843D02*
Y-1335D01*
Y-1589D01*
X969D01*
X1223Y-1843D01*
X-17270Y1912D02*
Y388D01*
X-16508D01*
X-16254Y642D01*
Y1658D01*
X-16508Y1912D01*
X-17270D01*
X-15746D02*
X-14730D01*
Y1658D01*
X-15746Y642D01*
Y388D01*
X-13945Y1912D02*
Y388D01*
X-13183D01*
X-12929Y642D01*
Y1658D01*
X-13183Y1912D01*
X-13945D01*
X-11405D02*
X-11913Y1658D01*
X-12421Y1150D01*
Y642D01*
X-12167Y388D01*
X-11659D01*
X-11405Y642D01*
Y896D01*
X-11659Y1150D01*
X-12421D01*
X11130Y19237D02*
Y17713D01*
X11892D01*
X12146Y17967D01*
Y18983D01*
X11892Y19237D01*
X11130D01*
X13670Y17713D02*
X12654D01*
X13670Y18729D01*
Y18983D01*
X13416Y19237D01*
X12908D01*
X12654Y18983D01*
X10730Y2662D02*
Y1138D01*
X11492D01*
X11746Y1392D01*
Y2408D01*
X11492Y2662D01*
X10730D01*
X13270D02*
X12254D01*
Y1900D01*
X12762Y2154D01*
X13016D01*
X13270Y1900D01*
Y1392D01*
X13016Y1138D01*
X12508D01*
X12254Y1392D01*
X18230Y2662D02*
Y1138D01*
X18992D01*
X19246Y1392D01*
Y2408D01*
X18992Y2662D01*
X18230D01*
X19754Y2408D02*
X20008Y2662D01*
X20516D01*
X20770Y2408D01*
Y2154D01*
X20516Y1900D01*
X20770Y1646D01*
Y1392D01*
X20516Y1138D01*
X20008D01*
X19754Y1392D01*
Y1646D01*
X20008Y1900D01*
X19754Y2154D01*
Y2408D01*
X20008Y1900D02*
X20516D01*
X15330Y19237D02*
Y17713D01*
X16092D01*
X16346Y17967D01*
Y18983D01*
X16092Y19237D01*
X15330D01*
X17616Y17713D02*
Y19237D01*
X16854Y18475D01*
X17870D01*
D29*
X3141Y19036D02*
Y20536D01*
X3890D01*
X4140Y20286D01*
Y19786D01*
X3890Y19536D01*
X3141D01*
X5640Y19036D02*
X4640D01*
X5640Y20036D01*
Y20286D01*
X5390Y20536D01*
X4890D01*
X4640Y20286D01*
X150Y3010D02*
Y4510D01*
X900D01*
X1150Y4260D01*
Y3760D01*
X900Y3510D01*
X150D01*
X2400Y3010D02*
Y4510D01*
X1650Y3760D01*
X2650D01*
%TF.MD5,2228cd3578435f3e42a8b732ccae4db1*%
M02*
