%TF.GenerationSoftware,Altium Limited,Altium Designer,25.2.1 (25)*%
G04 Layer_Physical_Order=2*
G04 Layer_Color=36540*
%FSLAX43Y43*%
%MOMM*%
%TF.SameCoordinates,18AA2EC9-8B6F-48E4-AE6E-10463567A699*%
%TF.FilePolarity,Positive*%
%TF.FileFunction,Copper,L2,Inr,Signal*%
%TF.Part,Single*%
G01*
G75*
%TA.AperFunction,ComponentPad*%
%ADD24C,2.500*%
%ADD25C,1.600*%
%ADD26C,3.500*%
%ADD27C,1.400*%
%ADD28C,3.300*%
%ADD29C,6.000*%
%TA.AperFunction,ViaPad*%
%ADD30C,0.700*%
G36*
X50641Y66549D02*
X51267Y66399D01*
X51861Y66153D01*
X52410Y65817D01*
X52899Y65399D01*
X53317Y64910D01*
X53653Y64361D01*
X53899Y63767D01*
X54049Y63141D01*
X54098Y62528D01*
X54092Y62500D01*
Y4500D01*
X54098Y4472D01*
X54049Y3859D01*
X53899Y3233D01*
X53653Y2639D01*
X53317Y2090D01*
X52899Y1601D01*
X52410Y1183D01*
X51861Y847D01*
X51267Y601D01*
X50641Y451D01*
X50028Y402D01*
X50000Y408D01*
X4500D01*
X4472Y402D01*
X3859Y451D01*
X3233Y601D01*
X2639Y847D01*
X2090Y1183D01*
X1601Y1601D01*
X1183Y2090D01*
X847Y2639D01*
X601Y3233D01*
X451Y3859D01*
X402Y4472D01*
X408Y4500D01*
Y62500D01*
X402Y62528D01*
X451Y63141D01*
X601Y63767D01*
X847Y64361D01*
X1183Y64910D01*
X1601Y65399D01*
X2090Y65817D01*
X2639Y66153D01*
X3233Y66399D01*
X3859Y66549D01*
X4472Y66598D01*
X4500Y66592D01*
X50000D01*
X50028Y66598D01*
X50641Y66549D01*
D02*
G37*
%LPC*%
G36*
X50260Y65800D02*
X49740D01*
X49227Y65719D01*
X48733Y65558D01*
X48270Y65322D01*
X47850Y65017D01*
X47483Y64650D01*
X47178Y64230D01*
X46942Y63767D01*
X46781Y63273D01*
X46700Y62760D01*
Y62240D01*
X46781Y61727D01*
X46942Y61233D01*
X47178Y60770D01*
X47483Y60350D01*
X47850Y59983D01*
X48270Y59678D01*
X48733Y59442D01*
X49227Y59281D01*
X49740Y59200D01*
X50260D01*
X50773Y59281D01*
X51267Y59442D01*
X51730Y59678D01*
X52150Y59983D01*
X52517Y60350D01*
X52822Y60770D01*
X53058Y61233D01*
X53219Y61727D01*
X53300Y62240D01*
Y62760D01*
X53219Y63273D01*
X53058Y63767D01*
X52822Y64230D01*
X52517Y64650D01*
X52150Y65017D01*
X51730Y65322D01*
X51267Y65558D01*
X50773Y65719D01*
X50260Y65800D01*
D02*
G37*
G36*
X4760D02*
X4240D01*
X3727Y65719D01*
X3233Y65558D01*
X2770Y65322D01*
X2350Y65017D01*
X1983Y64650D01*
X1678Y64230D01*
X1442Y63767D01*
X1281Y63273D01*
X1200Y62760D01*
Y62240D01*
X1281Y61727D01*
X1442Y61233D01*
X1678Y60770D01*
X1983Y60350D01*
X2350Y59983D01*
X2770Y59678D01*
X3233Y59442D01*
X3727Y59281D01*
X4240Y59200D01*
X4760D01*
X5273Y59281D01*
X5767Y59442D01*
X6230Y59678D01*
X6650Y59983D01*
X7017Y60350D01*
X7322Y60770D01*
X7558Y61233D01*
X7719Y61727D01*
X7800Y62240D01*
Y62760D01*
X7719Y63273D01*
X7558Y63767D01*
X7322Y64230D01*
X7017Y64650D01*
X6650Y65017D01*
X6230Y65322D01*
X5767Y65558D01*
X5273Y65719D01*
X4760Y65800D01*
D02*
G37*
G36*
X24262Y58200D02*
X23878D01*
X23501Y58125D01*
X23146Y57978D01*
X22827Y57765D01*
X22555Y57493D01*
X22342Y57174D01*
X22195Y56819D01*
X22120Y56442D01*
Y56058D01*
X22195Y55681D01*
X22342Y55326D01*
X22555Y55007D01*
X22827Y54735D01*
X23146Y54522D01*
X23501Y54375D01*
X23878Y54300D01*
X24262D01*
X24639Y54375D01*
X24994Y54522D01*
X25313Y54735D01*
X25585Y55007D01*
X25798Y55326D01*
X25945Y55681D01*
X26020Y56058D01*
Y56442D01*
X25945Y56819D01*
X25798Y57174D01*
X25585Y57493D01*
X25313Y57765D01*
X24994Y57978D01*
X24639Y58125D01*
X24262Y58200D01*
D02*
G37*
G36*
X11122D02*
X10738D01*
X10361Y58125D01*
X10006Y57978D01*
X9687Y57765D01*
X9415Y57493D01*
X9202Y57174D01*
X9055Y56819D01*
X8980Y56442D01*
Y56058D01*
X9055Y55681D01*
X9202Y55326D01*
X9415Y55007D01*
X9687Y54735D01*
X10006Y54522D01*
X10361Y54375D01*
X10738Y54300D01*
X11122D01*
X11499Y54375D01*
X11854Y54522D01*
X12173Y54735D01*
X12445Y55007D01*
X12658Y55326D01*
X12805Y55681D01*
X12880Y56058D01*
Y56442D01*
X12805Y56819D01*
X12658Y57174D01*
X12445Y57493D01*
X12173Y57765D01*
X11854Y57978D01*
X11499Y58125D01*
X11122Y58200D01*
D02*
G37*
G36*
X43762Y58170D02*
X43378D01*
X43001Y58095D01*
X42646Y57948D01*
X42327Y57735D01*
X42055Y57463D01*
X41842Y57144D01*
X41695Y56789D01*
X41620Y56412D01*
Y56028D01*
X41695Y55651D01*
X41842Y55296D01*
X42055Y54977D01*
X42327Y54705D01*
X42646Y54492D01*
X43001Y54345D01*
X43378Y54270D01*
X43762D01*
X44139Y54345D01*
X44494Y54492D01*
X44813Y54705D01*
X45085Y54977D01*
X45298Y55296D01*
X45445Y55651D01*
X45520Y56028D01*
Y56412D01*
X45445Y56789D01*
X45298Y57144D01*
X45085Y57463D01*
X44813Y57735D01*
X44494Y57948D01*
X44139Y58095D01*
X43762Y58170D01*
D02*
G37*
G36*
X30622D02*
X30238D01*
X29861Y58095D01*
X29506Y57948D01*
X29187Y57735D01*
X28915Y57463D01*
X28702Y57144D01*
X28555Y56789D01*
X28480Y56412D01*
Y56028D01*
X28555Y55651D01*
X28702Y55296D01*
X28915Y54977D01*
X29187Y54705D01*
X29506Y54492D01*
X29861Y54345D01*
X30238Y54270D01*
X30622D01*
X30999Y54345D01*
X31354Y54492D01*
X31673Y54705D01*
X31945Y54977D01*
X32158Y55296D01*
X32305Y55651D01*
X32380Y56028D01*
Y56412D01*
X32305Y56789D01*
X32158Y57144D01*
X31945Y57463D01*
X31673Y57735D01*
X31354Y57948D01*
X30999Y58095D01*
X30622Y58170D01*
D02*
G37*
G36*
X18632Y54540D02*
X18368D01*
X18114Y54472D01*
X17886Y54340D01*
X17700Y54154D01*
X17568Y53926D01*
X17566Y53917D01*
X17434D01*
X17432Y53926D01*
X17300Y54154D01*
X17114Y54340D01*
X16886Y54472D01*
X16632Y54540D01*
X16368D01*
X16114Y54472D01*
X15886Y54340D01*
X15700Y54154D01*
X15568Y53926D01*
X15500Y53672D01*
Y53408D01*
X15568Y53154D01*
X15700Y52926D01*
X15886Y52740D01*
X16114Y52608D01*
X16368Y52540D01*
X16632D01*
X16886Y52608D01*
X17114Y52740D01*
X17300Y52926D01*
X17432Y53154D01*
X17434Y53163D01*
X17566D01*
X17568Y53154D01*
X17700Y52926D01*
X17886Y52740D01*
X18114Y52608D01*
X18368Y52540D01*
X18632D01*
X18886Y52608D01*
X19114Y52740D01*
X19300Y52926D01*
X19432Y53154D01*
X19500Y53408D01*
Y53672D01*
X19432Y53926D01*
X19300Y54154D01*
X19114Y54340D01*
X18886Y54472D01*
X18632Y54540D01*
D02*
G37*
G36*
X14126Y54494D02*
X13874D01*
X13632Y54429D01*
X13436Y54316D01*
X13643Y54109D01*
X13431Y53897D01*
X13224Y54104D01*
X13111Y53908D01*
X13046Y53666D01*
Y53414D01*
X13111Y53172D01*
X13224Y52976D01*
X13431Y53183D01*
X13643Y52971D01*
X13436Y52764D01*
X13632Y52651D01*
X13874Y52586D01*
X14126D01*
X14368Y52651D01*
X14564Y52764D01*
X14357Y52971D01*
X14569Y53183D01*
X14776Y52976D01*
X14889Y53172D01*
X14954Y53414D01*
Y53666D01*
X14889Y53908D01*
X14776Y54104D01*
X14569Y53897D01*
X14357Y54109D01*
X14564Y54316D01*
X14368Y54429D01*
X14126Y54494D01*
D02*
G37*
G36*
X38132Y54510D02*
X37868D01*
X37614Y54442D01*
X37386Y54310D01*
X37200Y54124D01*
X37068Y53896D01*
X37066Y53887D01*
X36934D01*
X36932Y53896D01*
X36800Y54124D01*
X36614Y54310D01*
X36386Y54442D01*
X36132Y54510D01*
X35868D01*
X35614Y54442D01*
X35386Y54310D01*
X35200Y54124D01*
X35068Y53896D01*
X35000Y53642D01*
Y53378D01*
X35068Y53124D01*
X35200Y52896D01*
X35386Y52710D01*
X35614Y52578D01*
X35868Y52510D01*
X36132D01*
X36386Y52578D01*
X36614Y52710D01*
X36800Y52896D01*
X36932Y53124D01*
X36934Y53133D01*
X37066D01*
X37068Y53124D01*
X37200Y52896D01*
X37386Y52710D01*
X37614Y52578D01*
X37868Y52510D01*
X38132D01*
X38386Y52578D01*
X38614Y52710D01*
X38800Y52896D01*
X38932Y53124D01*
X39000Y53378D01*
Y53642D01*
X38932Y53896D01*
X38800Y54124D01*
X38614Y54310D01*
X38386Y54442D01*
X38132Y54510D01*
D02*
G37*
G36*
X33626Y54464D02*
X33374D01*
X33132Y54399D01*
X32936Y54286D01*
X33143Y54079D01*
X32931Y53867D01*
X32724Y54074D01*
X32611Y53878D01*
X32546Y53636D01*
Y53384D01*
X32611Y53142D01*
X32724Y52946D01*
X32931Y53153D01*
X33143Y52941D01*
X32936Y52734D01*
X33132Y52621D01*
X33374Y52556D01*
X33626D01*
X33868Y52621D01*
X34064Y52734D01*
X33857Y52941D01*
X34069Y53153D01*
X34276Y52946D01*
X34389Y53142D01*
X34454Y53384D01*
Y53636D01*
X34389Y53878D01*
X34276Y54074D01*
X34069Y53867D01*
X33857Y54079D01*
X34064Y54286D01*
X33868Y54399D01*
X33626Y54464D01*
D02*
G37*
G36*
X21132Y54540D02*
X20868D01*
X20614Y54472D01*
X20386Y54340D01*
X20200Y54154D01*
X20068Y53926D01*
X20000Y53672D01*
Y53408D01*
X20068Y53154D01*
X20200Y52926D01*
X20386Y52740D01*
X20614Y52608D01*
X20868Y52540D01*
X21132D01*
X21386Y52608D01*
X21614Y52740D01*
X21800Y52926D01*
X21932Y53154D01*
X22000Y53408D01*
Y53672D01*
X21932Y53926D01*
X21800Y54154D01*
X21614Y54340D01*
X21386Y54472D01*
X21132Y54540D01*
D02*
G37*
G36*
X40632Y54510D02*
X40368D01*
X40114Y54442D01*
X39886Y54310D01*
X39700Y54124D01*
X39568Y53896D01*
X39500Y53642D01*
Y53378D01*
X39568Y53124D01*
X39700Y52896D01*
X39886Y52710D01*
X40114Y52578D01*
X40368Y52510D01*
X40632D01*
X40886Y52578D01*
X41114Y52710D01*
X41300Y52896D01*
X41432Y53124D01*
X41500Y53378D01*
Y53642D01*
X41432Y53896D01*
X41300Y54124D01*
X41114Y54310D01*
X40886Y54442D01*
X40632Y54510D01*
D02*
G37*
G36*
X18632Y51920D02*
X18368D01*
X18114Y51852D01*
X17886Y51720D01*
X17700Y51534D01*
X17568Y51306D01*
X17566Y51297D01*
X17434D01*
X17432Y51306D01*
X17300Y51534D01*
X17114Y51720D01*
X16886Y51852D01*
X16632Y51920D01*
X16368D01*
X16114Y51852D01*
X15886Y51720D01*
X15700Y51534D01*
X15568Y51306D01*
X15500Y51052D01*
Y50788D01*
X15568Y50534D01*
X15700Y50306D01*
X15886Y50120D01*
X16114Y49988D01*
X16368Y49920D01*
X16632D01*
X16886Y49988D01*
X17114Y50120D01*
X17300Y50306D01*
X17432Y50534D01*
X17434Y50543D01*
X17566D01*
X17568Y50534D01*
X17700Y50306D01*
X17886Y50120D01*
X18114Y49988D01*
X18368Y49920D01*
X18632D01*
X18886Y49988D01*
X19114Y50120D01*
X19300Y50306D01*
X19432Y50534D01*
X19500Y50788D01*
Y51052D01*
X19432Y51306D01*
X19300Y51534D01*
X19114Y51720D01*
X18886Y51852D01*
X18632Y51920D01*
D02*
G37*
G36*
X14126Y51874D02*
X13874D01*
X13632Y51809D01*
X13436Y51696D01*
X13643Y51489D01*
X13431Y51277D01*
X13224Y51484D01*
X13111Y51288D01*
X13046Y51046D01*
Y50794D01*
X13111Y50552D01*
X13224Y50356D01*
X13431Y50563D01*
X13643Y50351D01*
X13436Y50144D01*
X13632Y50031D01*
X13874Y49966D01*
X14126D01*
X14368Y50031D01*
X14564Y50144D01*
X14357Y50351D01*
X14569Y50563D01*
X14776Y50356D01*
X14889Y50552D01*
X14954Y50794D01*
Y51046D01*
X14889Y51288D01*
X14776Y51484D01*
X14569Y51277D01*
X14357Y51489D01*
X14564Y51696D01*
X14368Y51809D01*
X14126Y51874D01*
D02*
G37*
G36*
X38132Y51890D02*
X37868D01*
X37614Y51822D01*
X37386Y51690D01*
X37200Y51504D01*
X37068Y51276D01*
X37066Y51267D01*
X36934D01*
X36932Y51276D01*
X36800Y51504D01*
X36614Y51690D01*
X36386Y51822D01*
X36132Y51890D01*
X35868D01*
X35614Y51822D01*
X35386Y51690D01*
X35200Y51504D01*
X35068Y51276D01*
X35000Y51022D01*
Y50758D01*
X35068Y50504D01*
X35200Y50276D01*
X35386Y50090D01*
X35614Y49958D01*
X35868Y49890D01*
X36132D01*
X36386Y49958D01*
X36614Y50090D01*
X36800Y50276D01*
X36932Y50504D01*
X36934Y50513D01*
X37066D01*
X37068Y50504D01*
X37200Y50276D01*
X37386Y50090D01*
X37614Y49958D01*
X37868Y49890D01*
X38132D01*
X38386Y49958D01*
X38614Y50090D01*
X38800Y50276D01*
X38932Y50504D01*
X39000Y50758D01*
Y51022D01*
X38932Y51276D01*
X38800Y51504D01*
X38614Y51690D01*
X38386Y51822D01*
X38132Y51890D01*
D02*
G37*
G36*
X33626Y51844D02*
X33374D01*
X33132Y51779D01*
X32936Y51666D01*
X33143Y51459D01*
X32931Y51247D01*
X32724Y51454D01*
X32611Y51258D01*
X32546Y51016D01*
Y50764D01*
X32611Y50522D01*
X32724Y50326D01*
X32931Y50533D01*
X33143Y50321D01*
X32936Y50114D01*
X33132Y50001D01*
X33374Y49936D01*
X33626D01*
X33868Y50001D01*
X34064Y50114D01*
X33857Y50321D01*
X34069Y50533D01*
X34276Y50326D01*
X34389Y50522D01*
X34454Y50764D01*
Y51016D01*
X34389Y51258D01*
X34276Y51454D01*
X34069Y51247D01*
X33857Y51459D01*
X34064Y51666D01*
X33868Y51779D01*
X33626Y51844D01*
D02*
G37*
G36*
X24262Y52520D02*
X23878D01*
X23501Y52445D01*
X23146Y52298D01*
X22827Y52085D01*
X22555Y51813D01*
X22342Y51494D01*
X22195Y51139D01*
X22144Y50883D01*
X22127Y50797D01*
X22000Y50810D01*
X22000Y50900D01*
Y51052D01*
X21932Y51306D01*
X21800Y51534D01*
X21614Y51720D01*
X21386Y51852D01*
X21132Y51920D01*
X20868D01*
X20614Y51852D01*
X20386Y51720D01*
X20200Y51534D01*
X20068Y51306D01*
X20000Y51052D01*
Y50788D01*
X20068Y50534D01*
X20200Y50306D01*
X20386Y50120D01*
X20614Y49988D01*
X20868Y49920D01*
X21132D01*
X21386Y49988D01*
X21614Y50120D01*
X21800Y50306D01*
X21932Y50534D01*
X21974Y50691D01*
X21997Y50778D01*
X22120Y50762D01*
X22120Y50673D01*
Y50378D01*
X22195Y50001D01*
X22342Y49646D01*
X22555Y49327D01*
X22827Y49055D01*
X23146Y48842D01*
X23501Y48695D01*
X23878Y48620D01*
X24262D01*
X24639Y48695D01*
X24994Y48842D01*
X25313Y49055D01*
X25585Y49327D01*
X25798Y49646D01*
X25945Y50001D01*
X26020Y50378D01*
Y50762D01*
X25945Y51139D01*
X25798Y51494D01*
X25585Y51813D01*
X25313Y52085D01*
X24994Y52298D01*
X24639Y52445D01*
X24262Y52520D01*
D02*
G37*
G36*
X43762Y52490D02*
X43378D01*
X43001Y52415D01*
X42646Y52268D01*
X42327Y52055D01*
X42055Y51783D01*
X41842Y51464D01*
X41695Y51109D01*
X41644Y50853D01*
X41627Y50767D01*
X41500Y50780D01*
X41500Y50870D01*
Y51022D01*
X41432Y51276D01*
X41300Y51504D01*
X41114Y51690D01*
X40886Y51822D01*
X40632Y51890D01*
X40368D01*
X40114Y51822D01*
X39886Y51690D01*
X39700Y51504D01*
X39568Y51276D01*
X39500Y51022D01*
Y50758D01*
X39568Y50504D01*
X39700Y50276D01*
X39886Y50090D01*
X40114Y49958D01*
X40368Y49890D01*
X40632D01*
X40886Y49958D01*
X41114Y50090D01*
X41300Y50276D01*
X41432Y50504D01*
X41474Y50661D01*
X41497Y50748D01*
X41620Y50732D01*
X41620Y50643D01*
Y50348D01*
X41695Y49971D01*
X41842Y49616D01*
X42055Y49297D01*
X42327Y49025D01*
X42646Y48812D01*
X43001Y48665D01*
X43378Y48590D01*
X43762D01*
X44139Y48665D01*
X44494Y48812D01*
X44813Y49025D01*
X45085Y49297D01*
X45298Y49616D01*
X45445Y49971D01*
X45520Y50348D01*
Y50732D01*
X45445Y51109D01*
X45298Y51464D01*
X45085Y51783D01*
X44813Y52055D01*
X44494Y52268D01*
X44139Y52415D01*
X43762Y52490D01*
D02*
G37*
G36*
X11122Y52520D02*
X10738D01*
X10361Y52445D01*
X10006Y52298D01*
X9687Y52085D01*
X9415Y51813D01*
X9202Y51494D01*
X9055Y51139D01*
X8980Y50762D01*
Y50378D01*
X9055Y50001D01*
X9202Y49646D01*
X9415Y49327D01*
X9687Y49055D01*
X10006Y48842D01*
X10361Y48695D01*
X10738Y48620D01*
X11122D01*
X11499Y48695D01*
X11854Y48842D01*
X12173Y49055D01*
X12445Y49327D01*
X12658Y49646D01*
X12805Y50001D01*
X12880Y50378D01*
Y50762D01*
X12805Y51139D01*
X12658Y51494D01*
X12445Y51813D01*
X12173Y52085D01*
X11854Y52298D01*
X11499Y52445D01*
X11122Y52520D01*
D02*
G37*
G36*
X30622Y52490D02*
X30238D01*
X29861Y52415D01*
X29506Y52268D01*
X29187Y52055D01*
X28915Y51783D01*
X28702Y51464D01*
X28555Y51109D01*
X28480Y50732D01*
Y50348D01*
X28555Y49971D01*
X28702Y49616D01*
X28915Y49297D01*
X29187Y49025D01*
X29506Y48812D01*
X29861Y48665D01*
X30238Y48590D01*
X30622D01*
X30999Y48665D01*
X31354Y48812D01*
X31673Y49025D01*
X31945Y49297D01*
X32158Y49616D01*
X32305Y49971D01*
X32380Y50348D01*
Y50732D01*
X32305Y51109D01*
X32158Y51464D01*
X31945Y51783D01*
X31673Y52055D01*
X31354Y52268D01*
X30999Y52415D01*
X30622Y52490D01*
D02*
G37*
G36*
X23036Y37650D02*
X22864D01*
X22699Y37606D01*
X22551Y37520D01*
X22450Y37419D01*
X22349Y37520D01*
X22201Y37606D01*
X22036Y37650D01*
X21864D01*
X21699Y37606D01*
X21551Y37520D01*
X21430Y37399D01*
X21344Y37251D01*
X21300Y37086D01*
Y36914D01*
X21344Y36749D01*
X21430Y36601D01*
X21551Y36480D01*
X21699Y36394D01*
X21864Y36350D01*
X22036D01*
X22201Y36394D01*
X22349Y36480D01*
X22450Y36581D01*
X22551Y36480D01*
X22699Y36394D01*
X22864Y36350D01*
X23036D01*
X23201Y36394D01*
X23349Y36480D01*
X23470Y36601D01*
X23556Y36749D01*
X23600Y36914D01*
Y37086D01*
X23556Y37251D01*
X23470Y37399D01*
X23349Y37520D01*
X23201Y37606D01*
X23036Y37650D01*
D02*
G37*
G36*
X19836D02*
X19664D01*
X19499Y37606D01*
X19351Y37520D01*
X19250Y37419D01*
X19149Y37520D01*
X19001Y37606D01*
X18836Y37650D01*
X18664D01*
X18499Y37606D01*
X18351Y37520D01*
X18230Y37399D01*
X18144Y37251D01*
X18100Y37086D01*
Y36914D01*
X18144Y36749D01*
X18230Y36601D01*
X18351Y36480D01*
X18499Y36394D01*
X18664Y36350D01*
X18836D01*
X19001Y36394D01*
X19149Y36480D01*
X19250Y36581D01*
X19351Y36480D01*
X19499Y36394D01*
X19664Y36350D01*
X19836D01*
X20001Y36394D01*
X20149Y36480D01*
X20270Y36601D01*
X20356Y36749D01*
X20400Y36914D01*
Y37086D01*
X20356Y37251D01*
X20270Y37399D01*
X20149Y37520D01*
X20001Y37606D01*
X19836Y37650D01*
D02*
G37*
G36*
X10620Y37354D02*
X10380D01*
X10188Y37274D01*
X10403Y37060D01*
X10190Y36847D01*
X9976Y37062D01*
X9896Y36870D01*
Y36630D01*
X9976Y36438D01*
X10190Y36653D01*
X10403Y36440D01*
X10188Y36226D01*
X10380Y36146D01*
X10620D01*
X10812Y36226D01*
X10597Y36440D01*
X10810Y36653D01*
X11024Y36438D01*
X11104Y36630D01*
Y36870D01*
X11024Y37062D01*
X10810Y36847D01*
X10597Y37060D01*
X10812Y37274D01*
X10620Y37354D01*
D02*
G37*
G36*
X31586Y35400D02*
X31414D01*
X31249Y35356D01*
X31101Y35270D01*
X30980Y35149D01*
X30894Y35001D01*
X30850Y34836D01*
Y34664D01*
X30894Y34499D01*
X30980Y34351D01*
X31101Y34230D01*
X31249Y34144D01*
X31414Y34100D01*
X31586D01*
X31751Y34144D01*
X31899Y34230D01*
X32020Y34351D01*
X32106Y34499D01*
X32150Y34664D01*
Y34836D01*
X32106Y35001D01*
X32020Y35149D01*
X31899Y35270D01*
X31751Y35356D01*
X31586Y35400D01*
D02*
G37*
G36*
X14086Y33900D02*
X13914D01*
X13749Y33856D01*
X13601Y33770D01*
X13480Y33649D01*
X13394Y33501D01*
X13350Y33336D01*
Y33164D01*
X13394Y32999D01*
X13480Y32851D01*
X13601Y32730D01*
X13749Y32644D01*
X13914Y32600D01*
X14086D01*
X14251Y32644D01*
X14399Y32730D01*
X14520Y32851D01*
X14606Y32999D01*
X14650Y33164D01*
Y33336D01*
X14606Y33501D01*
X14520Y33649D01*
X14399Y33770D01*
X14251Y33856D01*
X14086Y33900D01*
D02*
G37*
G36*
X7890Y32854D02*
X7650D01*
X7458Y32774D01*
X7673Y32559D01*
X7461Y32347D01*
X7246Y32562D01*
X7166Y32370D01*
Y32130D01*
X7246Y31938D01*
X7461Y32152D01*
X7673Y31940D01*
X7458Y31726D01*
X7650Y31646D01*
X7890D01*
X8082Y31726D01*
X7868Y31940D01*
X8080Y32152D01*
X8294Y31938D01*
X8374Y32130D01*
Y32370D01*
X8294Y32562D01*
X8080Y32347D01*
X7868Y32559D01*
X8082Y32774D01*
X7890Y32854D01*
D02*
G37*
G36*
X20120Y32604D02*
X19880D01*
X19688Y32524D01*
X19903Y32310D01*
X19690Y32097D01*
X19476Y32312D01*
X19396Y32120D01*
Y31880D01*
X19476Y31688D01*
X19690Y31903D01*
X19903Y31690D01*
X19688Y31476D01*
X19880Y31396D01*
X20120D01*
X20312Y31476D01*
X20097Y31690D01*
X20310Y31903D01*
X20524Y31688D01*
X20604Y31880D01*
Y32120D01*
X20524Y32312D01*
X20310Y32097D01*
X20097Y32310D01*
X20312Y32524D01*
X20120Y32604D01*
D02*
G37*
G36*
X35836Y33900D02*
X35664D01*
X35499Y33856D01*
X35351Y33770D01*
X35230Y33649D01*
X35144Y33501D01*
X35100Y33336D01*
Y33164D01*
X35144Y32999D01*
X35230Y32851D01*
X35331Y32750D01*
X35230Y32649D01*
X35144Y32501D01*
X35100Y32336D01*
Y32164D01*
X35144Y31999D01*
X35230Y31851D01*
X35351Y31730D01*
X35499Y31644D01*
X35664Y31600D01*
X35836D01*
X36001Y31644D01*
X36149Y31730D01*
X36270Y31851D01*
X36356Y31999D01*
X36400Y32164D01*
Y32336D01*
X36356Y32501D01*
X36270Y32649D01*
X36169Y32750D01*
X36270Y32851D01*
X36356Y32999D01*
X36400Y33164D01*
Y33336D01*
X36356Y33501D01*
X36270Y33649D01*
X36149Y33770D01*
X36001Y33856D01*
X35836Y33900D01*
D02*
G37*
G36*
X14120Y32104D02*
X13880D01*
X13688Y32024D01*
X13903Y31810D01*
X13690Y31597D01*
X13476Y31812D01*
X13396Y31620D01*
Y31380D01*
X13476Y31188D01*
X13690Y31403D01*
X13903Y31190D01*
X13688Y30976D01*
X13880Y30896D01*
X14120D01*
X14312Y30976D01*
X14097Y31190D01*
X14310Y31403D01*
X14524Y31188D01*
X14604Y31380D01*
Y31620D01*
X14524Y31812D01*
X14310Y31597D01*
X14097Y31810D01*
X14312Y32024D01*
X14120Y32104D01*
D02*
G37*
G36*
X41067Y35350D02*
X40896D01*
X40730Y35306D01*
X40582Y35220D01*
X40461Y35099D01*
X40375Y34951D01*
X40331Y34786D01*
Y34614D01*
X40375Y34449D01*
X40461Y34301D01*
X40582Y34180D01*
X40686Y34120D01*
X40688Y34114D01*
Y33986D01*
X40686Y33980D01*
X40582Y33920D01*
X40461Y33799D01*
X40375Y33651D01*
X40331Y33486D01*
Y33314D01*
X40375Y33149D01*
X40461Y33001D01*
X40582Y32880D01*
X40686Y32820D01*
X40688Y32814D01*
Y32686D01*
X40686Y32680D01*
X40582Y32620D01*
X40461Y32499D01*
X40375Y32351D01*
X40331Y32186D01*
Y32014D01*
X40375Y31849D01*
X40461Y31701D01*
X40582Y31580D01*
X40636Y31548D01*
X40638Y31455D01*
X40884Y31210D01*
X40672Y30997D01*
X40457Y31212D01*
X40377Y31020D01*
Y30780D01*
X40457Y30588D01*
X40672Y30803D01*
X40884Y30590D01*
X40669Y30376D01*
X40749Y30342D01*
X40740Y30208D01*
X40730Y30206D01*
X40582Y30120D01*
X40461Y29999D01*
X40375Y29851D01*
X40331Y29686D01*
Y29514D01*
X40375Y29349D01*
X40461Y29201D01*
X40582Y29080D01*
X40730Y28994D01*
X40896Y28950D01*
X41067D01*
X41232Y28994D01*
X41380Y29080D01*
X41501Y29201D01*
X41587Y29349D01*
X41631Y29514D01*
Y29686D01*
X41587Y29851D01*
X41501Y29999D01*
X41380Y30120D01*
X41232Y30206D01*
X41222Y30208D01*
X41213Y30342D01*
X41293Y30376D01*
X41079Y30590D01*
X41291Y30803D01*
X41506Y30588D01*
X41585Y30780D01*
Y31020D01*
X41506Y31212D01*
X41291Y30997D01*
X41079Y31210D01*
X41324Y31455D01*
X41326Y31548D01*
X41380Y31580D01*
X41501Y31701D01*
X41587Y31849D01*
X41631Y32014D01*
Y32186D01*
X41587Y32351D01*
X41501Y32499D01*
X41380Y32620D01*
X41276Y32680D01*
X41274Y32686D01*
Y32814D01*
X41276Y32820D01*
X41380Y32880D01*
X41501Y33001D01*
X41587Y33149D01*
X41631Y33314D01*
Y33486D01*
X41587Y33651D01*
X41501Y33799D01*
X41380Y33920D01*
X41276Y33980D01*
X41274Y33986D01*
Y34114D01*
X41276Y34120D01*
X41380Y34180D01*
X41501Y34301D01*
X41587Y34449D01*
X41631Y34614D01*
Y34786D01*
X41587Y34951D01*
X41501Y35099D01*
X41380Y35220D01*
X41232Y35306D01*
X41067Y35350D01*
D02*
G37*
G36*
X20120Y30854D02*
X19880D01*
X19688Y30774D01*
X19902Y30560D01*
X19690Y30348D01*
X19476Y30562D01*
X19396Y30370D01*
Y30130D01*
X19476Y29938D01*
X19690Y30153D01*
X19902Y29941D01*
X19688Y29726D01*
X19880Y29646D01*
X20120D01*
X20312Y29726D01*
X20097Y29941D01*
X20309Y30153D01*
X20524Y29938D01*
X20604Y30130D01*
Y30370D01*
X20524Y30562D01*
X20309Y30348D01*
X20097Y30560D01*
X20312Y30774D01*
X20120Y30854D01*
D02*
G37*
G36*
X26835Y32150D02*
X26664D01*
X26499Y32106D01*
X26351Y32020D01*
X26230Y31899D01*
X26144Y31751D01*
X26100Y31586D01*
Y31414D01*
X26144Y31249D01*
X26230Y31101D01*
X26331Y31000D01*
X26230Y30899D01*
X26144Y30751D01*
X26100Y30586D01*
Y30414D01*
X26144Y30249D01*
X26230Y30101D01*
X26351Y29980D01*
X26499Y29894D01*
X26664Y29850D01*
X26835D01*
X27001Y29894D01*
X27149Y29980D01*
X27270Y30101D01*
X27356Y30249D01*
X27400Y30414D01*
Y30586D01*
X27356Y30751D01*
X27270Y30899D01*
X27169Y31000D01*
X27270Y31101D01*
X27356Y31249D01*
X27400Y31414D01*
Y31586D01*
X27356Y31751D01*
X27270Y31899D01*
X27149Y32020D01*
X27001Y32106D01*
X26835Y32150D01*
D02*
G37*
G36*
X31586Y31530D02*
X31414D01*
X31249Y31486D01*
X31101Y31400D01*
X30980Y31279D01*
X30894Y31131D01*
X30850Y30966D01*
Y30794D01*
X30894Y30629D01*
X30980Y30481D01*
X31101Y30360D01*
X31246Y30276D01*
X31249Y30262D01*
Y30158D01*
X31246Y30144D01*
X31101Y30060D01*
X30980Y29939D01*
X30894Y29791D01*
X30850Y29626D01*
Y29454D01*
X30894Y29289D01*
X30980Y29141D01*
X31101Y29020D01*
X31249Y28934D01*
X31414Y28890D01*
X31586D01*
X31751Y28934D01*
X31899Y29020D01*
X32020Y29141D01*
X32106Y29289D01*
X32150Y29454D01*
Y29626D01*
X32106Y29791D01*
X32020Y29939D01*
X31899Y30060D01*
X31754Y30144D01*
X31751Y30158D01*
Y30262D01*
X31754Y30276D01*
X31899Y30360D01*
X32020Y30481D01*
X32106Y30629D01*
X32150Y30794D01*
Y30966D01*
X32106Y31131D01*
X32020Y31279D01*
X31899Y31400D01*
X31751Y31486D01*
X31586Y31530D01*
D02*
G37*
G36*
X20120Y29104D02*
X19880D01*
X19688Y29024D01*
X19903Y28810D01*
X19690Y28597D01*
X19476Y28812D01*
X19396Y28620D01*
Y28380D01*
X19476Y28188D01*
X19690Y28403D01*
X19903Y28190D01*
X19688Y27976D01*
X19880Y27896D01*
X20120D01*
X20312Y27976D01*
X20097Y28190D01*
X20310Y28403D01*
X20524Y28188D01*
X20604Y28380D01*
Y28620D01*
X20524Y28812D01*
X20310Y28597D01*
X20097Y28810D01*
X20312Y29024D01*
X20120Y29104D01*
D02*
G37*
G36*
X42586Y27650D02*
X42414D01*
X42249Y27606D01*
X42101Y27520D01*
X41980Y27399D01*
X41894Y27251D01*
X41850Y27086D01*
Y26914D01*
X41894Y26749D01*
X41980Y26601D01*
X42101Y26480D01*
X42249Y26394D01*
X42414Y26350D01*
X42586D01*
X42751Y26394D01*
X42899Y26480D01*
X43020Y26601D01*
X43106Y26749D01*
X43150Y26914D01*
Y27086D01*
X43106Y27251D01*
X43020Y27399D01*
X42899Y27520D01*
X42751Y27606D01*
X42586Y27650D01*
D02*
G37*
G36*
X14120Y26854D02*
X13880D01*
X13688Y26774D01*
X13903Y26560D01*
X13690Y26347D01*
X13476Y26562D01*
X13396Y26370D01*
Y26130D01*
X13476Y25938D01*
X13690Y26153D01*
X13903Y25940D01*
X13688Y25726D01*
X13880Y25646D01*
X14120D01*
X14312Y25726D01*
X14097Y25940D01*
X14310Y26153D01*
X14524Y25938D01*
X14604Y26130D01*
Y26370D01*
X14524Y26562D01*
X14310Y26347D01*
X14097Y26560D01*
X14312Y26774D01*
X14120Y26854D01*
D02*
G37*
G36*
X5350Y26854D02*
X5110D01*
X4918Y26774D01*
X5133Y26559D01*
X4921Y26347D01*
X4706Y26562D01*
X4626Y26370D01*
Y26130D01*
X4706Y25938D01*
X4921Y26152D01*
X5133Y25940D01*
X4918Y25726D01*
X5110Y25646D01*
X5350D01*
X5542Y25726D01*
X5328Y25940D01*
X5540Y26152D01*
X5754Y25938D01*
X5834Y26130D01*
Y26370D01*
X5754Y26562D01*
X5540Y26347D01*
X5328Y26559D01*
X5542Y26774D01*
X5350Y26854D01*
D02*
G37*
G36*
X35836Y28900D02*
X35664D01*
X35499Y28856D01*
X35351Y28770D01*
X35230Y28649D01*
X35144Y28501D01*
X35100Y28336D01*
Y28164D01*
X35144Y27999D01*
X35230Y27851D01*
X35351Y27730D01*
X35499Y27644D01*
X35512Y27641D01*
Y27509D01*
X35499Y27506D01*
X35351Y27420D01*
X35230Y27299D01*
X35144Y27151D01*
X35100Y26986D01*
Y26814D01*
X35144Y26649D01*
X35230Y26501D01*
X35351Y26380D01*
X35499Y26294D01*
X35664Y26250D01*
X35836D01*
X36001Y26294D01*
X36149Y26380D01*
X36270Y26501D01*
X36356Y26649D01*
X36400Y26814D01*
Y26986D01*
X36356Y27151D01*
X36270Y27299D01*
X36149Y27420D01*
X36001Y27506D01*
X35988Y27509D01*
Y27641D01*
X36001Y27644D01*
X36149Y27730D01*
X36270Y27851D01*
X36356Y27999D01*
X36400Y28164D01*
Y28336D01*
X36356Y28501D01*
X36270Y28649D01*
X36149Y28770D01*
X36001Y28856D01*
X35836Y28900D01*
D02*
G37*
G36*
X42620Y26104D02*
X42380D01*
X42188Y26024D01*
X42403Y25810D01*
X42190Y25597D01*
X41976Y25812D01*
X41896Y25620D01*
Y25380D01*
X41976Y25188D01*
X42190Y25403D01*
X42403Y25190D01*
X42188Y24976D01*
X42380Y24896D01*
X42620D01*
X42812Y24976D01*
X42597Y25190D01*
X42810Y25403D01*
X43024Y25188D01*
X43104Y25380D01*
Y25620D01*
X43024Y25812D01*
X42810Y25597D01*
X42597Y25810D01*
X42812Y26024D01*
X42620Y26104D01*
D02*
G37*
G36*
X10620Y25104D02*
X10380D01*
X10188Y25024D01*
X10403Y24810D01*
X10190Y24597D01*
X9976Y24812D01*
X9896Y24620D01*
Y24380D01*
X9976Y24188D01*
X10190Y24403D01*
X10403Y24190D01*
X10188Y23976D01*
X10380Y23896D01*
X10620D01*
X10812Y23976D01*
X10597Y24190D01*
X10810Y24403D01*
X11024Y24188D01*
X11104Y24380D01*
Y24620D01*
X11024Y24812D01*
X10810Y24597D01*
X10597Y24810D01*
X10812Y25024D01*
X10620Y25104D01*
D02*
G37*
G36*
X22889Y24835D02*
X22649D01*
X22456Y24756D01*
X22671Y24541D01*
X22459Y24329D01*
X22244Y24544D01*
X22165Y24351D01*
Y24111D01*
X22244Y23919D01*
X22459Y24134D01*
X22671Y23922D01*
X22456Y23707D01*
X22649Y23627D01*
X22889D01*
X23081Y23707D01*
X22866Y23922D01*
X23078Y24134D01*
X23293Y23919D01*
X23373Y24111D01*
Y24351D01*
X23293Y24544D01*
X23078Y24329D01*
X22866Y24541D01*
X23081Y24756D01*
X22889Y24835D01*
D02*
G37*
G36*
X24336Y21650D02*
X24164D01*
X23999Y21606D01*
X23851Y21520D01*
X23730Y21399D01*
X23644Y21251D01*
X23600Y21086D01*
Y20914D01*
X23644Y20749D01*
X23730Y20601D01*
X23851Y20480D01*
X23956Y20419D01*
X23955Y20285D01*
X23954Y20281D01*
X23938Y20274D01*
X24153Y20060D01*
X23940Y19847D01*
X23726Y20062D01*
X23646Y19870D01*
Y19630D01*
X23726Y19438D01*
X23940Y19653D01*
X24153Y19440D01*
X23938Y19226D01*
X24130Y19146D01*
X24370D01*
X24562Y19226D01*
X24347Y19440D01*
X24560Y19653D01*
X24774Y19438D01*
X24854Y19630D01*
Y19870D01*
X24774Y20062D01*
X24560Y19847D01*
X24347Y20060D01*
X24562Y20274D01*
X24546Y20281D01*
X24545Y20285D01*
X24544Y20419D01*
X24649Y20480D01*
X24770Y20601D01*
X24856Y20749D01*
X24900Y20914D01*
Y21086D01*
X24856Y21251D01*
X24770Y21399D01*
X24649Y21520D01*
X24501Y21606D01*
X24336Y21650D01*
D02*
G37*
G36*
X44620Y17104D02*
X44380D01*
X44188Y17024D01*
X44403Y16810D01*
X44190Y16597D01*
X43976Y16812D01*
X43896Y16620D01*
Y16380D01*
X43976Y16188D01*
X44190Y16403D01*
X44403Y16190D01*
X44188Y15976D01*
X44380Y15896D01*
X44620D01*
X44812Y15976D01*
X44597Y16190D01*
X44810Y16403D01*
X45024Y16188D01*
X45104Y16380D01*
Y16620D01*
X45024Y16812D01*
X44810Y16597D01*
X44597Y16810D01*
X44812Y17024D01*
X44620Y17104D01*
D02*
G37*
G36*
X20145Y15100D02*
X19855D01*
X19575Y15025D01*
X19325Y14880D01*
X19120Y14675D01*
X19063Y14578D01*
X18937D01*
X18880Y14675D01*
X18675Y14880D01*
X18425Y15025D01*
X18145Y15100D01*
X17855D01*
X17575Y15025D01*
X17325Y14880D01*
X17120Y14675D01*
X16975Y14425D01*
X16900Y14145D01*
Y13855D01*
X16975Y13575D01*
X17120Y13325D01*
X17325Y13120D01*
X17575Y12975D01*
X17855Y12900D01*
X18145D01*
X18425Y12975D01*
X18675Y13120D01*
X18880Y13325D01*
X18937Y13422D01*
X19063D01*
X19120Y13325D01*
X19325Y13120D01*
X19575Y12975D01*
X19855Y12900D01*
X20145D01*
X20425Y12975D01*
X20675Y13120D01*
X20880Y13325D01*
X21025Y13575D01*
X21100Y13855D01*
Y14145D01*
X21025Y14425D01*
X20880Y14675D01*
X20675Y14880D01*
X20425Y15025D01*
X20145Y15100D01*
D02*
G37*
G36*
X22639Y15054D02*
X22361D01*
X22093Y14982D01*
X21863Y14849D01*
X22071Y14642D01*
X21858Y14429D01*
X21651Y14637D01*
X21518Y14407D01*
X21446Y14139D01*
Y13861D01*
X21518Y13593D01*
X21651Y13363D01*
X21858Y13571D01*
X22071Y13358D01*
X21863Y13151D01*
X22093Y13018D01*
X22361Y12946D01*
X22639D01*
X22907Y13018D01*
X23137Y13151D01*
X22929Y13358D01*
X23142Y13571D01*
X23349Y13363D01*
X23482Y13593D01*
X23554Y13861D01*
Y14139D01*
X23482Y14407D01*
X23349Y14637D01*
X23142Y14429D01*
X22929Y14642D01*
X23137Y14849D01*
X22907Y14982D01*
X22639Y15054D01*
D02*
G37*
G36*
X38370Y13604D02*
X38130D01*
X37938Y13524D01*
X38153Y13310D01*
X37940Y13097D01*
X37726Y13312D01*
X37646Y13120D01*
Y12880D01*
X37726Y12688D01*
X37940Y12903D01*
X38153Y12690D01*
X37938Y12476D01*
X38130Y12396D01*
X38370D01*
X38562Y12476D01*
X38347Y12690D01*
X38560Y12903D01*
X38774Y12688D01*
X38854Y12880D01*
Y13120D01*
X38774Y13312D01*
X38560Y13097D01*
X38347Y13310D01*
X38562Y13524D01*
X38370Y13604D01*
D02*
G37*
G36*
X15645Y15100D02*
X15355D01*
X15075Y15025D01*
X14825Y14880D01*
X14620Y14675D01*
X14475Y14425D01*
X14400Y14145D01*
Y13855D01*
X14475Y13575D01*
X14620Y13325D01*
X14825Y13120D01*
X15075Y12975D01*
X15355Y12900D01*
X15645D01*
X15925Y12975D01*
X16175Y13120D01*
X16380Y13325D01*
X16525Y13575D01*
X16600Y13855D01*
Y14145D01*
X16525Y14425D01*
X16380Y14675D01*
X16175Y14880D01*
X15925Y15025D01*
X15645Y15100D01*
D02*
G37*
G36*
X32336Y12900D02*
X32164D01*
X31999Y12856D01*
X31851Y12770D01*
X31730Y12649D01*
X31644Y12501D01*
X31600Y12336D01*
Y12164D01*
X31644Y11999D01*
X31730Y11851D01*
X31851Y11730D01*
X31999Y11644D01*
X32164Y11600D01*
X32336D01*
X32501Y11644D01*
X32649Y11730D01*
X32770Y11851D01*
X32856Y11999D01*
X32900Y12164D01*
Y12336D01*
X32856Y12501D01*
X32770Y12649D01*
X32649Y12770D01*
X32501Y12856D01*
X32336Y12900D01*
D02*
G37*
G36*
X48620Y11854D02*
X48380D01*
X48188Y11774D01*
X48403Y11560D01*
X48190Y11347D01*
X47976Y11562D01*
X47896Y11370D01*
Y11130D01*
X47976Y10938D01*
X48190Y11153D01*
X48403Y10940D01*
X48188Y10726D01*
X48380Y10646D01*
X48620D01*
X48812Y10726D01*
X48597Y10940D01*
X48810Y11153D01*
X49024Y10938D01*
X49104Y11130D01*
Y11370D01*
X49024Y11562D01*
X48810Y11347D01*
X48597Y11560D01*
X48812Y11774D01*
X48620Y11854D01*
D02*
G37*
G36*
X44336Y12900D02*
X44164D01*
X43999Y12856D01*
X43851Y12770D01*
X43730Y12649D01*
X43644Y12501D01*
X43600Y12336D01*
Y12164D01*
X43644Y11999D01*
X43730Y11851D01*
X43851Y11730D01*
X43999Y11644D01*
X44007Y11642D01*
X44016Y11508D01*
X43919Y11468D01*
X44134Y11253D01*
X43922Y11041D01*
X43707Y11256D01*
X43627Y11064D01*
Y10824D01*
X43707Y10631D01*
X43922Y10846D01*
X44134Y10634D01*
X43919Y10419D01*
X44111Y10340D01*
X44351D01*
X44544Y10419D01*
X44329Y10634D01*
X44541Y10846D01*
X44756Y10631D01*
X44835Y10824D01*
Y11064D01*
X44756Y11256D01*
X44541Y11041D01*
X44329Y11253D01*
X44544Y11468D01*
X44461Y11502D01*
X44470Y11636D01*
X44501Y11644D01*
X44649Y11730D01*
X44770Y11851D01*
X44856Y11999D01*
X44900Y12164D01*
Y12336D01*
X44856Y12501D01*
X44770Y12649D01*
X44649Y12770D01*
X44501Y12856D01*
X44336Y12900D01*
D02*
G37*
G36*
X32370Y11354D02*
X32130D01*
X31938Y11274D01*
X32153Y11060D01*
X31940Y10847D01*
X31726Y11062D01*
X31646Y10870D01*
Y10630D01*
X31726Y10438D01*
X31940Y10653D01*
X32153Y10440D01*
X31938Y10226D01*
X32130Y10146D01*
X32370D01*
X32562Y10226D01*
X32347Y10440D01*
X32560Y10653D01*
X32774Y10438D01*
X32854Y10630D01*
Y10870D01*
X32774Y11062D01*
X32560Y10847D01*
X32347Y11060D01*
X32562Y11274D01*
X32370Y11354D01*
D02*
G37*
G36*
X25772Y13340D02*
X25368D01*
X24972Y13261D01*
X24599Y13107D01*
X24263Y12882D01*
X23978Y12597D01*
X23753Y12261D01*
X23599Y11888D01*
X23520Y11492D01*
Y11088D01*
X23599Y10692D01*
X23753Y10319D01*
X23978Y9983D01*
X24263Y9698D01*
X24599Y9473D01*
X24972Y9319D01*
X25368Y9240D01*
X25772D01*
X26168Y9319D01*
X26541Y9473D01*
X26877Y9698D01*
X27162Y9983D01*
X27387Y10319D01*
X27541Y10692D01*
X27620Y11088D01*
Y11492D01*
X27541Y11888D01*
X27387Y12261D01*
X27162Y12597D01*
X26877Y12882D01*
X26541Y13107D01*
X26168Y13261D01*
X25772Y13340D01*
D02*
G37*
G36*
X12632D02*
X12228D01*
X11832Y13261D01*
X11459Y13107D01*
X11123Y12882D01*
X10838Y12597D01*
X10613Y12261D01*
X10459Y11888D01*
X10380Y11492D01*
Y11088D01*
X10459Y10692D01*
X10613Y10319D01*
X10838Y9983D01*
X11123Y9698D01*
X11459Y9473D01*
X11832Y9319D01*
X12228Y9240D01*
X12632D01*
X13028Y9319D01*
X13401Y9473D01*
X13737Y9698D01*
X14022Y9983D01*
X14247Y10319D01*
X14401Y10692D01*
X14480Y11088D01*
Y11492D01*
X14401Y11888D01*
X14247Y12261D01*
X14022Y12597D01*
X13737Y12882D01*
X13401Y13107D01*
X13028Y13261D01*
X12632Y13340D01*
D02*
G37*
G36*
X40728Y6004D02*
X40432D01*
X40141Y5946D01*
X39868Y5833D01*
X39623Y5669D01*
X39829Y5463D01*
X39617Y5251D01*
X39411Y5457D01*
X39247Y5212D01*
X39134Y4939D01*
X39076Y4648D01*
Y4352D01*
X39134Y4061D01*
X39247Y3788D01*
X39411Y3543D01*
X39617Y3749D01*
X39829Y3537D01*
X39623Y3331D01*
X39868Y3167D01*
X40141Y3054D01*
X40432Y2996D01*
X40728D01*
X41019Y3054D01*
X41292Y3167D01*
X41537Y3331D01*
X41331Y3537D01*
X41543Y3749D01*
X41749Y3543D01*
X41913Y3788D01*
X42026Y4061D01*
X42084Y4352D01*
Y4648D01*
X42026Y4939D01*
X41913Y5212D01*
X41749Y5457D01*
X41543Y5251D01*
X41331Y5463D01*
X41537Y5669D01*
X41292Y5833D01*
X41019Y5946D01*
X40728Y6004D01*
D02*
G37*
G36*
X35653Y6050D02*
X35347D01*
X35048Y5990D01*
X34766Y5874D01*
X34512Y5704D01*
X34296Y5488D01*
X34126Y5234D01*
X34010Y4952D01*
X33950Y4653D01*
Y4347D01*
X34010Y4048D01*
X34126Y3766D01*
X34296Y3512D01*
X34512Y3296D01*
X34766Y3126D01*
X35048Y3010D01*
X35347Y2950D01*
X35653D01*
X35952Y3010D01*
X36234Y3126D01*
X36488Y3296D01*
X36704Y3512D01*
X36874Y3766D01*
X36990Y4048D01*
X37050Y4347D01*
Y4653D01*
X36990Y4952D01*
X36874Y5234D01*
X36704Y5488D01*
X36488Y5704D01*
X36234Y5874D01*
X35952Y5990D01*
X35653Y6050D01*
D02*
G37*
G36*
X50260Y7800D02*
X49740D01*
X49227Y7719D01*
X48733Y7558D01*
X48270Y7322D01*
X47850Y7017D01*
X47483Y6650D01*
X47178Y6230D01*
X46942Y5767D01*
X46781Y5273D01*
X46700Y4760D01*
Y4240D01*
X46781Y3727D01*
X46942Y3233D01*
X47178Y2770D01*
X47483Y2350D01*
X47850Y1983D01*
X48270Y1678D01*
X48733Y1442D01*
X49227Y1281D01*
X49740Y1200D01*
X50260D01*
X50773Y1281D01*
X51267Y1442D01*
X51730Y1678D01*
X52150Y1983D01*
X52517Y2350D01*
X52822Y2770D01*
X53058Y3233D01*
X53219Y3727D01*
X53300Y4240D01*
Y4760D01*
X53219Y5273D01*
X53058Y5767D01*
X52822Y6230D01*
X52517Y6650D01*
X52150Y7017D01*
X51730Y7322D01*
X51267Y7558D01*
X50773Y7719D01*
X50260Y7800D01*
D02*
G37*
G36*
X4760D02*
X4240D01*
X3727Y7719D01*
X3233Y7558D01*
X2770Y7322D01*
X2350Y7017D01*
X1983Y6650D01*
X1678Y6230D01*
X1442Y5767D01*
X1281Y5273D01*
X1200Y4760D01*
Y4240D01*
X1281Y3727D01*
X1442Y3233D01*
X1678Y2770D01*
X1983Y2350D01*
X2350Y1983D01*
X2770Y1678D01*
X3233Y1442D01*
X3727Y1281D01*
X4240Y1200D01*
X4760D01*
X5273Y1281D01*
X5767Y1442D01*
X6230Y1678D01*
X6650Y1983D01*
X7017Y2350D01*
X7322Y2770D01*
X7558Y3233D01*
X7719Y3727D01*
X7800Y4240D01*
Y4760D01*
X7719Y5273D01*
X7558Y5767D01*
X7322Y6230D01*
X7017Y6650D01*
X6650Y7017D01*
X6230Y7322D01*
X5767Y7558D01*
X5273Y7719D01*
X4760Y7800D01*
D02*
G37*
%LPD*%
D24*
X35500Y4500D02*
D03*
X40580D02*
D03*
D25*
X22500Y14000D02*
D03*
X20000D02*
D03*
X18000D02*
D03*
X15500D02*
D03*
D26*
X12430Y11290D02*
D03*
X25570D02*
D03*
D27*
X21000Y50920D02*
D03*
X18500D02*
D03*
X16500D02*
D03*
X14000D02*
D03*
X21000Y53540D02*
D03*
X18500D02*
D03*
X16500D02*
D03*
X14000D02*
D03*
X40500Y50890D02*
D03*
X38000D02*
D03*
X36000D02*
D03*
X33500D02*
D03*
X40500Y53510D02*
D03*
X38000D02*
D03*
X36000D02*
D03*
X33500D02*
D03*
D28*
X24070Y50570D02*
D03*
X10930D02*
D03*
Y56250D02*
D03*
X24070D02*
D03*
X43570Y50540D02*
D03*
X30430D02*
D03*
Y56220D02*
D03*
X43570D02*
D03*
D29*
X4500Y62500D02*
D03*
X50000D02*
D03*
X4500Y4500D02*
D03*
X50000D02*
D03*
D30*
X22769Y24231D02*
D03*
X20000Y28500D02*
D03*
Y32000D02*
D03*
X20000Y30250D02*
D03*
X48500Y11250D02*
D03*
X44500Y16500D02*
D03*
X24250Y19750D02*
D03*
Y21000D02*
D03*
X44250Y12250D02*
D03*
X32250D02*
D03*
X38250Y13000D02*
D03*
X44231Y10944D02*
D03*
X32250Y10750D02*
D03*
X10500Y24500D02*
D03*
X14000Y26250D02*
D03*
Y31500D02*
D03*
Y33250D02*
D03*
X10500Y36750D02*
D03*
X7770Y32250D02*
D03*
X5230Y26250D02*
D03*
X42500Y25500D02*
D03*
Y27000D02*
D03*
X35750Y32250D02*
D03*
Y26900D02*
D03*
Y28250D02*
D03*
Y33250D02*
D03*
X31500Y34750D02*
D03*
X40981Y34700D02*
D03*
Y32100D02*
D03*
Y33400D02*
D03*
Y29600D02*
D03*
Y30900D02*
D03*
X31500Y30880D02*
D03*
Y29540D02*
D03*
X26750Y31500D02*
D03*
Y30500D02*
D03*
X21950Y37000D02*
D03*
X22950D02*
D03*
X19750D02*
D03*
X18750D02*
D03*
%TF.MD5,ccd749a99642bcc9bdd704deca68484c*%
M02*
