M48
;Layer_Color=9474304
;FILE_FORMAT=4:3
METRIC,LZ
;TYPE=PLATED
T01F00S00C0.300
T02F00S00C0.900
T03F00S00C1.300
T04F00S00C2.300
T05F00S00C3.500
%
T01
X003225Y001075
Y001225
X003825Y0013
X004425Y001225
X0044231Y0010944
X00485Y001125
X00445Y00165
X00425Y00255
Y0027
X0040981Y00296
Y00309
Y00321
Y00334
Y00347
X003575Y003325
Y003225
Y002825
Y00269
X00315Y002954
Y003088
Y003475
X002675Y00315
Y00305
X002Y003025
X002Y0032
Y00285
X0022769Y0024231
X002425Y0021
Y001975
X002295Y0037
X002195
X001975
X001875
X0014Y003325
Y00315
Y002625
X00105Y00245
X000523Y002625
X000777Y003225
X00105Y003675
T02
X00155Y0014
X0018
X002
X00225
X0021Y005092
X00185
X00165
Y005354
X00185
X0021
X00335Y005351
X0036
X0038
X00405
Y005089
X0038
X0036
X00335
X0014Y005092
Y005354
T03
X00355Y00045
X004058
T04
X001243Y001129
X002557
X002407Y005057
X003043Y005054
X004357
X001093Y005057
Y005625
X002407
X003043Y005622
X004357
T05
X00045Y00045
X005
X00045Y00625
X005
M30
