%TF.GenerationSoftware,Altium Limited,Altium Designer,25.2.1 (25)*%
G04 Layer_Color=16711833*
%FSLAX43Y43*%
%MOMM*%
%TF.SameCoordinates,18AA2EC9-8B6F-48E4-AE6E-10463567A699*%
%TF.FilePolarity,Positive*%
%TF.FileFunction,Other,Mechanical_13*%
%TF.Part,Single*%
G01*
G75*
%TA.AperFunction,NonConductor*%
%ADD32C,0.200*%
%ADD35C,0.100*%
%ADD53C,0.127*%
D32*
X32990Y1000D02*
X43090D01*
X32990Y8600D02*
X43090D01*
Y1000D02*
Y8600D01*
X32990Y1000D02*
Y8600D01*
X10250Y49530D02*
X24750D01*
X10250D02*
Y66530D01*
X24750D01*
Y49530D02*
Y66530D01*
X29750Y49500D02*
X44250D01*
X29750D02*
Y66500D01*
X44250D01*
Y49500D02*
Y66500D01*
D35*
X45375Y14500D02*
Y16500D01*
X46625D01*
Y14500D02*
Y16500D01*
X45375Y14500D02*
X46625D01*
X45600Y10950D02*
Y12550D01*
X46400D01*
Y10950D02*
Y12550D01*
X45600Y10950D02*
X46400D01*
X33100Y10700D02*
X33900D01*
Y12300D01*
X33100D02*
X33900D01*
X33100Y10700D02*
Y12300D01*
X42600Y10875D02*
X43400D01*
Y12475D01*
X42600D02*
X43400D01*
X42600Y10875D02*
Y12475D01*
X36325Y14180D02*
X37595Y15450D01*
X36325Y10550D02*
Y15450D01*
Y10550D02*
X40175D01*
Y15450D01*
X36325D02*
X40175D01*
X10100Y27300D02*
X10900D01*
X10100Y25700D02*
Y27300D01*
Y25700D02*
X10900D01*
Y27300D01*
X41150Y40200D02*
Y41800D01*
X40350Y40200D02*
X41150D01*
X40350D02*
Y41800D01*
X41150D01*
X39650Y40200D02*
Y41800D01*
X38850Y40200D02*
X39650D01*
X38850D02*
Y41800D01*
X39650D01*
X37150Y40200D02*
Y41800D01*
X36350Y40200D02*
X37150D01*
X36350D02*
Y41800D01*
X37150D01*
X35650Y40200D02*
Y41800D01*
X34850Y40200D02*
X35650D01*
X34850D02*
Y41800D01*
X35650D01*
X10900Y28450D02*
Y30050D01*
X10100Y28450D02*
X10900D01*
X10100D02*
Y30050D01*
X10900D01*
X22150Y40200D02*
Y41800D01*
X21350Y40200D02*
X22150D01*
X21350D02*
Y41800D01*
X22150D01*
X20650Y40200D02*
Y41800D01*
X19850Y40200D02*
X20650D01*
X19850D02*
Y41800D01*
X20650D01*
X10100Y31200D02*
X10900D01*
Y32800D01*
X10100D02*
X10900D01*
X10100Y31200D02*
Y32800D01*
X16150Y40200D02*
Y41800D01*
X15350Y40200D02*
X16150D01*
X15350D02*
Y41800D01*
X16150D01*
X14650Y40200D02*
Y41800D01*
X13850Y40200D02*
X14650D01*
X13850D02*
Y41800D01*
X14650D01*
X18000Y20950D02*
Y22550D01*
X18800D01*
Y20950D02*
Y22550D01*
X18000Y20950D02*
X18800D01*
X16500D02*
Y22550D01*
X17300D01*
Y20950D02*
Y22550D01*
X16500Y20950D02*
X17300D01*
X22500D02*
Y22550D01*
X23300D01*
Y20950D02*
Y22550D01*
X22500Y20950D02*
X23300D01*
X21000D02*
X21800D01*
Y22550D01*
X21000D02*
X21800D01*
X21000Y20950D02*
Y22550D01*
X10100Y35550D02*
X10900D01*
X10100Y33950D02*
Y35550D01*
Y33950D02*
X10900D01*
Y35550D01*
X19500Y20950D02*
X20300D01*
Y22550D01*
X19500D02*
X20300D01*
X19500Y20950D02*
Y22550D01*
X40850Y25450D02*
X41650D01*
Y27050D01*
X40850D02*
X41650D01*
X40850Y25450D02*
Y27050D01*
X16500Y27550D02*
X17300Y26750D01*
X16500D02*
X23500D01*
Y33750D01*
X16500D02*
X23500D01*
X16500Y26750D02*
Y33750D01*
X49375Y9250D02*
Y11250D01*
X50625D01*
Y9250D02*
Y11250D01*
X49375Y9250D02*
X50625D01*
D53*
X11750Y990D02*
Y15090D01*
Y990D02*
X26250D01*
Y15090D01*
X11750D02*
X26250D01*
X34300Y25300D02*
X38200D01*
X34300Y35200D02*
X38200D01*
Y25300D02*
Y35200D01*
X34300Y25300D02*
Y35200D01*
X9000Y25750D02*
Y32750D01*
X4000D02*
X9000D01*
X4000Y25750D02*
Y32750D01*
Y25750D02*
X9000D01*
%TF.MD5,3b8d0c71c59f04f875a098a23cd67d1d*%
M02*
