%TF.GenerationSoftware,Altium Limited,Altium Designer,25.2.1 (25)*%
G04 Layer_Color=255*
%FSLAX43Y43*%
%MOMM*%
%TF.SameCoordinates,18AA2EC9-8B6F-48E4-AE6E-10463567A699*%
%TF.FilePolarity,Positive*%
%TF.FileFunction,Pads,Top*%
%TF.Part,Single*%
G01*
G75*
%TA.AperFunction,SMDPad,CuDef*%
G04:AMPARAMS|DCode=13|XSize=1.25mm|YSize=0.6mm|CornerRadius=0.06mm|HoleSize=0mm|Usage=FLASHONLY|Rotation=0.000|XOffset=0mm|YOffset=0mm|HoleType=Round|Shape=RoundedRectangle|*
%AMROUNDEDRECTD13*
21,1,1.250,0.480,0,0,0.0*
21,1,1.130,0.600,0,0,0.0*
1,1,0.120,0.565,-0.240*
1,1,0.120,-0.565,-0.240*
1,1,0.120,-0.565,0.240*
1,1,0.120,0.565,0.240*
%
%ADD13ROUNDEDRECTD13*%
%ADD14R,0.700X0.650*%
G04:AMPARAMS|DCode=15|XSize=1.97mm|YSize=0.6mm|CornerRadius=0.075mm|HoleSize=0mm|Usage=FLASHONLY|Rotation=180.000|XOffset=0mm|YOffset=0mm|HoleType=Round|Shape=RoundedRectangle|*
%AMROUNDEDRECTD15*
21,1,1.970,0.450,0,0,180.0*
21,1,1.820,0.600,0,0,180.0*
1,1,0.150,-0.910,0.225*
1,1,0.150,0.910,0.225*
1,1,0.150,0.910,-0.225*
1,1,0.150,-0.910,-0.225*
%
%ADD15ROUNDEDRECTD15*%
%ADD16R,2.710X3.350*%
%ADD17R,1.525X0.650*%
%ADD18R,1.400X2.000*%
%ADD19R,1.475X0.600*%
%ADD20R,0.600X1.475*%
%ADD21R,1.250X0.600*%
%TA.AperFunction,ComponentPad*%
%ADD24C,2.500*%
%ADD25C,1.600*%
%ADD26C,3.500*%
%ADD27C,1.400*%
%ADD28C,3.300*%
%ADD29C,6.000*%
D13*
X46000Y16400D02*
D03*
Y14600D02*
D03*
D14*
X46000Y11075D02*
D03*
Y12425D02*
D03*
X33500Y12175D02*
D03*
Y10825D02*
D03*
X43000Y12350D02*
D03*
Y11000D02*
D03*
X10500Y25825D02*
D03*
Y27175D02*
D03*
X40750Y41675D02*
D03*
Y40325D02*
D03*
X39250Y41675D02*
D03*
Y40325D02*
D03*
X36750Y41675D02*
D03*
Y40325D02*
D03*
X35250Y41675D02*
D03*
Y40325D02*
D03*
X10500Y29925D02*
D03*
Y28575D02*
D03*
X21750Y41675D02*
D03*
Y40325D02*
D03*
X20250Y41675D02*
D03*
Y40325D02*
D03*
X10500Y32675D02*
D03*
Y31325D02*
D03*
X15750Y41675D02*
D03*
Y40325D02*
D03*
X14250Y41675D02*
D03*
Y40325D02*
D03*
X18400Y21075D02*
D03*
Y22425D02*
D03*
X16900Y21075D02*
D03*
Y22425D02*
D03*
X22900Y21075D02*
D03*
Y22425D02*
D03*
X21400D02*
D03*
Y21075D02*
D03*
X10500Y34075D02*
D03*
Y35425D02*
D03*
X19900Y22425D02*
D03*
Y21075D02*
D03*
X41250Y26925D02*
D03*
Y25575D02*
D03*
D15*
X38725Y25805D02*
D03*
Y27075D02*
D03*
Y28345D02*
D03*
Y29615D02*
D03*
Y30885D02*
D03*
Y32155D02*
D03*
Y33425D02*
D03*
Y34695D02*
D03*
X33775D02*
D03*
Y33425D02*
D03*
Y32155D02*
D03*
Y30885D02*
D03*
Y29615D02*
D03*
Y28345D02*
D03*
Y27075D02*
D03*
Y25805D02*
D03*
D16*
X38250Y13000D02*
D03*
D17*
X40938Y14905D02*
D03*
Y13635D02*
D03*
Y12365D02*
D03*
Y11095D02*
D03*
X35562D02*
D03*
Y12365D02*
D03*
Y13635D02*
D03*
Y14905D02*
D03*
D18*
X7770Y32250D02*
D03*
Y26250D02*
D03*
X5230Y32250D02*
D03*
Y26250D02*
D03*
D19*
X15762Y27450D02*
D03*
Y28250D02*
D03*
Y29050D02*
D03*
Y29850D02*
D03*
Y30650D02*
D03*
Y31450D02*
D03*
Y32250D02*
D03*
Y33050D02*
D03*
X24238D02*
D03*
Y32250D02*
D03*
Y31450D02*
D03*
Y30650D02*
D03*
Y29850D02*
D03*
Y29050D02*
D03*
Y28250D02*
D03*
Y27450D02*
D03*
D20*
X17200Y34488D02*
D03*
X18000D02*
D03*
X18800D02*
D03*
X19600D02*
D03*
X20400D02*
D03*
X21200D02*
D03*
X22000D02*
D03*
X22800D02*
D03*
Y26012D02*
D03*
X22000D02*
D03*
X21200D02*
D03*
X20400D02*
D03*
X19600D02*
D03*
X18800D02*
D03*
X18000D02*
D03*
X17200D02*
D03*
D21*
X50000Y9350D02*
D03*
Y11150D02*
D03*
D24*
X35500Y4500D02*
D03*
X40580D02*
D03*
D25*
X22500Y14000D02*
D03*
X20000D02*
D03*
X18000D02*
D03*
X15500D02*
D03*
D26*
X12430Y11290D02*
D03*
X25570D02*
D03*
D27*
X21000Y50920D02*
D03*
X18500D02*
D03*
X16500D02*
D03*
X14000D02*
D03*
X21000Y53540D02*
D03*
X18500D02*
D03*
X16500D02*
D03*
X14000D02*
D03*
X40500Y50890D02*
D03*
X38000D02*
D03*
X36000D02*
D03*
X33500D02*
D03*
X40500Y53510D02*
D03*
X38000D02*
D03*
X36000D02*
D03*
X33500D02*
D03*
D28*
X24070Y50570D02*
D03*
X10930D02*
D03*
Y56250D02*
D03*
X24070D02*
D03*
X43570Y50540D02*
D03*
X30430D02*
D03*
Y56220D02*
D03*
X43570D02*
D03*
D29*
X4500Y62500D02*
D03*
X50000D02*
D03*
X4500Y4500D02*
D03*
X50000D02*
D03*
%TF.MD5,1f844411782d645ff189ed8abaf5c3fe*%
M02*
