%TF.GenerationSoftware,Altium Limited,Altium Designer,25.2.1 (25)*%
G04 Layer_Physical_Order=1*
G04 Layer_Color=255*
%FSLAX43Y43*%
%MOMM*%
%TF.SameCoordinates,18AA2EC9-8B6F-48E4-AE6E-10463567A699*%
%TF.FilePolarity,Positive*%
%TF.FileFunction,Copper,L1,Top,Signal*%
%TF.Part,Single*%
G01*
G75*
%TA.AperFunction,NonConductor*%
%ADD10C,0.203*%
%TA.AperFunction,Conductor*%
%ADD11C,0.230*%
%ADD12C,0.300*%
%TA.AperFunction,SMDPad,CuDef*%
G04:AMPARAMS|DCode=13|XSize=1.25mm|YSize=0.6mm|CornerRadius=0.06mm|HoleSize=0mm|Usage=FLASHONLY|Rotation=0.000|XOffset=0mm|YOffset=0mm|HoleType=Round|Shape=RoundedRectangle|*
%AMROUNDEDRECTD13*
21,1,1.250,0.480,0,0,0.0*
21,1,1.130,0.600,0,0,0.0*
1,1,0.120,0.565,-0.240*
1,1,0.120,-0.565,-0.240*
1,1,0.120,-0.565,0.240*
1,1,0.120,0.565,0.240*
%
%ADD13ROUNDEDRECTD13*%
%ADD14R,0.700X0.650*%
G04:AMPARAMS|DCode=15|XSize=1.97mm|YSize=0.6mm|CornerRadius=0.075mm|HoleSize=0mm|Usage=FLASHONLY|Rotation=180.000|XOffset=0mm|YOffset=0mm|HoleType=Round|Shape=RoundedRectangle|*
%AMROUNDEDRECTD15*
21,1,1.970,0.450,0,0,180.0*
21,1,1.820,0.600,0,0,180.0*
1,1,0.150,-0.910,0.225*
1,1,0.150,0.910,0.225*
1,1,0.150,0.910,-0.225*
1,1,0.150,-0.910,-0.225*
%
%ADD15ROUNDEDRECTD15*%
%ADD16R,2.710X3.350*%
%ADD17R,1.525X0.650*%
%ADD18R,1.400X2.000*%
%ADD19R,1.475X0.600*%
%ADD20R,0.600X1.475*%
%ADD21R,1.250X0.600*%
%TA.AperFunction,NonConductor*%
%ADD22C,0.300*%
%TA.AperFunction,Conductor*%
%ADD23C,0.500*%
%TA.AperFunction,ComponentPad*%
%ADD24C,2.500*%
%ADD25C,1.600*%
%ADD26C,3.500*%
%ADD27C,1.400*%
%ADD28C,3.300*%
%ADD29C,6.000*%
%TA.AperFunction,ViaPad*%
%ADD30C,0.700*%
D10*
X53998Y62500D02*
G03*
X50000Y66498I-3998J0D01*
G01*
X36748Y51795D02*
G03*
X37477Y52408I-390J1205D01*
G01*
X40695Y45929D02*
G03*
X40678Y46204I-2195J0D01*
G01*
X40607Y38225D02*
G03*
X40624Y38500I-2250J275D01*
G01*
X39980Y35249D02*
G03*
X39635Y35397I-345J-329D01*
G01*
X39829Y31494D02*
G03*
X39954Y31576I-194J435D01*
G01*
X40066Y31110D02*
G03*
X39829Y31494I-431J0D01*
G01*
X40678Y46204D02*
G03*
X38500Y48124I-2178J-276D01*
G01*
X37767Y48857D02*
G03*
X38500Y48124I733J0D01*
G01*
X36394Y48581D02*
G03*
X38500Y46733I2106J276D01*
G01*
X39305Y45929D02*
G03*
X38500Y46733I-805J0D01*
G01*
X38357Y37624D02*
G03*
X39233Y38500I0J876D01*
G01*
X38632Y36250D02*
G03*
X40607Y38225I-275J2250D01*
G01*
X38357Y36233D02*
G03*
X38632Y36250I0J2267D01*
G01*
X37815Y35397D02*
G03*
X37338Y34920I0J-477D01*
G01*
Y34470D02*
G03*
X37572Y34060I477J0D01*
G01*
D02*
G03*
X37338Y33650I243J-410D01*
G01*
Y33200D02*
G03*
X37572Y32790I477J0D01*
G01*
D02*
G03*
X37338Y32380I243J-410D01*
G01*
Y31930D02*
G03*
X37621Y31494I477J0D01*
G01*
D02*
G03*
X37384Y31110I194J-385D01*
G01*
X36376Y48857D02*
G03*
X36394Y48581I2124J0D01*
G01*
X36667Y45466D02*
G03*
X35537Y46595I-1417J-287D01*
G01*
X35305Y45179D02*
G03*
X35250Y45233I-55J0D01*
G01*
X36695Y45179D02*
G03*
X36667Y45466I-1445J0D01*
G01*
X35537Y46595D02*
G03*
X35250Y46624I-287J-1417D01*
G01*
X30584Y53275D02*
G03*
X29521Y53124I-154J-2735D01*
G01*
X28250D02*
G03*
X27967Y53099I0J-1624D01*
G01*
X28250Y51733D02*
G03*
X28017Y51500I0J-233D01*
G01*
X27967Y53099D02*
G03*
X26651Y51783I283J-1599D01*
G01*
D02*
G03*
X26626Y51500I1599J-283D01*
G01*
X28017Y47000D02*
G03*
X28393Y46624I376J0D01*
G01*
X26626Y47000D02*
G03*
X26649Y46719I1767J0D01*
G01*
X28112Y45256D02*
G03*
X28393Y45233I281J1744D01*
G01*
X26649Y46719D02*
G03*
X28112Y45256I1744J281D01*
G01*
X36601Y39219D02*
G03*
X36624Y39500I-1744J281D01*
G01*
X34857Y39124D02*
G03*
X35233Y39500I0J376D01*
G01*
X35138Y37756D02*
G03*
X36601Y39219I-281J1744D01*
G01*
X34857Y37733D02*
G03*
X35138Y37756I0J1767D01*
G01*
X35162Y34920D02*
G03*
X34685Y35397I-477J0D01*
G01*
X35162Y31110D02*
G03*
X34928Y31520I-477J0D01*
G01*
X32865Y35397D02*
G03*
X32546Y35274I0J-477D01*
G01*
X32494Y34171D02*
G03*
X32622Y34060I371J299D01*
G01*
X34928D02*
G03*
X35162Y34470I-243J410D01*
G01*
X35032Y33977D02*
G03*
X34928Y34060I-347J-327D01*
G01*
X32622D02*
G03*
X32388Y33650I243J-410D01*
G01*
Y33200D02*
G03*
X32622Y32790I477J0D01*
G01*
D02*
G03*
X32388Y32380I243J-410D01*
G01*
X34928Y31520D02*
G03*
X35071Y31651I-243J410D01*
G01*
X32622Y31520D02*
G03*
X32516Y31434I243J-410D01*
G01*
X32388Y31930D02*
G03*
X32622Y31520I477J0D01*
G01*
X30000Y37624D02*
G03*
X29722Y37605I0J-2017D01*
G01*
D02*
G03*
X28002Y35885I278J-1998D01*
G01*
X30000Y36233D02*
G03*
X29374Y35607I0J-626D01*
G01*
X28500Y39124D02*
G03*
X28225Y39107I0J-2267D01*
G01*
D02*
G03*
X26250Y37132I275J-2250D01*
G01*
D02*
G03*
X26233Y36857I2250J-275D01*
G01*
X28500Y37733D02*
G03*
X27624Y36857I0J-876D01*
G01*
X28002Y35885D02*
G03*
X27983Y35607I1998J-278D01*
G01*
X29357Y30725D02*
G03*
X29374Y31000I-2228J275D01*
G01*
X27602Y33470D02*
G03*
X27624Y33750I-1773J280D01*
G01*
X25829Y33345D02*
G03*
X26233Y33750I0J405D01*
G01*
X26817Y32252D02*
G03*
X27602Y33470I-989J1498D01*
G01*
X46981Y16640D02*
G03*
X46565Y17056I-416J0D01*
G01*
X45435D02*
G03*
X45133Y16926I0J-416D01*
G01*
X46565Y13898D02*
G03*
X47027Y14360I0J462D01*
G01*
X46565Y15744D02*
G03*
X46981Y16160I0J416D01*
G01*
X47027Y14840D02*
G03*
X46565Y15302I-462J0D01*
G01*
X45053Y15995D02*
G03*
X45435Y15744I381J165D01*
G01*
Y15302D02*
G03*
X44973Y14840I0J-462D01*
G01*
Y14360D02*
G03*
X45435Y13898I462J0D01*
G01*
X50000Y502D02*
G03*
X53998Y4500I0J3998D01*
G01*
X39989Y30159D02*
G03*
X39829Y30275I-354J-319D01*
G01*
X37384Y30660D02*
G03*
X37621Y30275I431J0D01*
G01*
X39829D02*
G03*
X40066Y30660I-194J385D01*
G01*
X37621Y30275D02*
G03*
X37338Y29840I194J-435D01*
G01*
X39878Y28980D02*
G03*
X39975Y29056I-243J410D01*
G01*
X40051Y28802D02*
G03*
X39878Y28980I-417J-232D01*
G01*
X37338Y29390D02*
G03*
X37572Y28980I477J0D01*
G01*
X37338Y28120D02*
G03*
X37572Y27710I477J0D01*
G01*
D02*
G03*
X37338Y27300I243J-410D01*
G01*
X37572Y28980D02*
G03*
X37338Y28570I243J-410D01*
G01*
X35162Y29840D02*
G03*
X34928Y30250I-477J0D01*
G01*
D02*
G03*
X35162Y30660I-243J410D01*
G01*
X35032Y28897D02*
G03*
X34928Y28980I-347J-327D01*
G01*
X40066Y26030D02*
G03*
X39829Y26414I-431J0D01*
G01*
X37384Y25580D02*
G03*
X37815Y25149I431J0D01*
G01*
X39635D02*
G03*
X40066Y25580I0J431D01*
G01*
X37338Y26850D02*
G03*
X37621Y26414I477J0D01*
G01*
X34928Y26440D02*
G03*
X35016Y26507I-243J410D01*
G01*
X37621Y26414D02*
G03*
X37384Y26030I194J-385D01*
G01*
X34928Y28980D02*
G03*
X35162Y29390I-243J410D01*
G01*
X32557Y29026D02*
G03*
X32622Y28980I308J364D01*
G01*
D02*
G03*
X32388Y28570I243J-410D01*
G01*
Y28120D02*
G03*
X32622Y27710I477J0D01*
G01*
D02*
G03*
X32388Y27300I243J-410D01*
G01*
X27501Y30231D02*
G03*
X27983Y31000I-373J769D01*
G01*
X27692Y28827D02*
G03*
X29357Y30725I-564J2173D01*
G01*
X32388Y26850D02*
G03*
X32622Y26440I477J0D01*
G01*
X35162Y26030D02*
G03*
X34928Y26440I-477J0D01*
G01*
X32622D02*
G03*
X32516Y26354I243J-410D01*
G01*
X34685Y25103D02*
G03*
X35162Y25580I0J477D01*
G01*
X32520Y25251D02*
G03*
X32865Y25103I345J329D01*
G01*
X21675Y45457D02*
G03*
X20028Y47104I-1925J-278D01*
G01*
X20305Y45179D02*
G03*
X19750Y45733I-555J0D01*
G01*
X20028Y47104D02*
G03*
X19750Y47124I-278J-1925D01*
G01*
X17445Y51628D02*
G03*
X18085Y52438I-588J1122D01*
G01*
X18267Y47750D02*
G03*
X18893Y47124I626J0D01*
G01*
X18615Y45752D02*
G03*
X18893Y45733I278J1998D01*
G01*
X16895Y47472D02*
G03*
X18615Y45752I1998J278D01*
G01*
X16876Y47750D02*
G03*
X16895Y47472I2017J0D01*
G01*
X21695Y45179D02*
G03*
X21675Y45457I-1945J0D01*
G01*
X15695Y44679D02*
G03*
X15675Y44957I-1945J0D01*
G01*
X16701Y38603D02*
G03*
X16421Y38624I-279J-1853D01*
G01*
X18134Y37511D02*
G03*
X16701Y38603I-1712J-761D01*
G01*
X15667Y38707D02*
G03*
X15750Y38624I83J0D01*
G01*
X16905Y36750D02*
G03*
X16421Y37233I-483J0D01*
G01*
X15463Y37261D02*
G03*
X15750Y37233I287J1446D01*
G01*
X12411Y52874D02*
G03*
X9449Y52874I-1481J-2304D01*
G01*
X7750D02*
G03*
X7474Y52856I0J-2124D01*
G01*
X4500Y66498D02*
G03*
X502Y62500I0J-3998D01*
G01*
X7750Y51483D02*
G03*
X7017Y50750I0J-733D01*
G01*
X7474Y52856D02*
G03*
X5644Y51026I276J-2106D01*
G01*
D02*
G03*
X5626Y50750I2106J-276D01*
G01*
X15675Y44957D02*
G03*
X14028Y46604I-1925J-278D01*
G01*
X14305Y44679D02*
G03*
X13750Y45233I-555J0D01*
G01*
X14028Y46604D02*
G03*
X13750Y46624I-278J-1925D01*
G01*
X14276Y38707D02*
G03*
X14304Y38421I1474J0D01*
G01*
D02*
G03*
X15463Y37261I1446J287D01*
G01*
X5626Y47000D02*
G03*
X5649Y46719I1767J0D01*
G01*
X7017Y47000D02*
G03*
X7393Y46624I376J0D01*
G01*
X7112Y45256D02*
G03*
X7393Y45233I281J1744D01*
G01*
X5649Y46719D02*
G03*
X7112Y45256I1744J281D01*
G01*
X19682Y8549D02*
G03*
X19695Y8821I-2682J272D01*
G01*
X18357Y18225D02*
G03*
X18374Y18500I-2250J275D01*
G01*
X16382Y16250D02*
G03*
X18357Y18225I-275J2250D01*
G01*
X16107Y16233D02*
G03*
X16382Y16250I0J2267D01*
G01*
X16107Y17624D02*
G03*
X16983Y18500I0J876D01*
G01*
X17272Y6140D02*
G03*
X19682Y8549I-272J2682D01*
G01*
X17000Y7517D02*
G03*
X18305Y8821I0J1305D01*
G01*
X17000Y6126D02*
G03*
X17272Y6140I0J2695D01*
G01*
X13875Y27180D02*
G03*
X13952Y27532I-775J352D01*
G01*
X13727Y26956D02*
G03*
X13875Y27180I-627J576D01*
G01*
X13445Y26753D02*
G03*
X13727Y26956I-345J779D01*
G01*
X12325Y27180D02*
G03*
X13445Y26753I775J352D01*
G01*
X12248Y27532D02*
G03*
X12325Y27180I852J0D01*
G01*
X10790Y17624D02*
G03*
X10521Y17613I0J-3414D01*
G01*
X10790Y16233D02*
G03*
X8767Y14210I0J-2023D01*
G01*
Y9250D02*
G03*
X10500Y7517I1733J0D01*
G01*
X10230Y6138D02*
G03*
X10500Y6126I270J3112D01*
G01*
X10521Y17613D02*
G03*
X7387Y14479I269J-3403D01*
G01*
D02*
G03*
X7376Y14210I3403J-269D01*
G01*
Y9250D02*
G03*
X7388Y8980I3124J0D01*
G01*
D02*
G03*
X10230Y6138I3112J270D01*
G01*
X502Y4500D02*
G03*
X4500Y502I3998J0D01*
G01*
X53054Y64549D02*
X53285Y64780D01*
X53402Y64178D02*
X53555Y64331D01*
X52695Y64908D02*
X52967Y65180D01*
X53402Y63909D02*
X53891Y63419D01*
X53402Y63459D02*
X53771Y63829D01*
X53402Y60799D02*
Y64201D01*
X51976Y65626D02*
X52193Y65843D01*
X52335Y65267D02*
X52603Y65535D01*
X51533Y65902D02*
X51734Y66103D01*
X51701Y65902D02*
X53402Y64201D01*
X52172Y65857D02*
X53357Y64672D01*
X53402Y63190D02*
X53997Y62595D01*
X53402Y62472D02*
X53998Y61875D01*
X53402Y62023D02*
X53997Y62618D01*
X53402Y61754D02*
X53998Y61157D01*
X53402Y61035D02*
X53998Y60438D01*
X53402Y61304D02*
X53998Y61901D01*
X53402Y62741D02*
X53925Y63264D01*
X53160Y60558D02*
X53998Y59720D01*
X48299Y59098D02*
X51701D01*
X52801Y60199D02*
X53998Y59002D01*
X52442Y59840D02*
X53998Y58283D01*
X51701Y59098D02*
X53402Y60799D01*
X48657Y66498D02*
X49254Y65902D01*
X48659D02*
X49256Y66498D01*
X47938D02*
X48535Y65902D01*
X47220Y66498D02*
X48058Y65660D01*
X49375Y66498D02*
X49972Y65902D01*
X46502Y66498D02*
X47699Y65301D01*
X45065Y66498D02*
X46980Y64583D01*
X45783Y66498D02*
X47340Y64942D01*
X44346Y66498D02*
X46621Y64224D01*
X42909Y66498D02*
X46598Y62809D01*
X42191Y66498D02*
X46598Y62091D01*
X43628Y66498D02*
X46598Y63528D01*
X50095Y66497D02*
X50690Y65902D01*
X48299D02*
X51701D01*
X49378D02*
X49975Y66498D01*
X50919Y66391D02*
X51409Y65902D01*
X50815D02*
X51221Y66308D01*
X50096Y65902D02*
X50641Y66447D01*
X46598Y64201D02*
X48299Y65902D01*
X46598Y60799D02*
X48299Y59098D01*
X46598Y60799D02*
Y64201D01*
X43185Y58272D02*
X46598Y61685D01*
X43903Y58272D02*
X46598Y60967D01*
X42544Y58272D02*
X44596D01*
X51724Y59121D02*
X53998Y56846D01*
X51028Y59098D02*
X53998Y56128D01*
X52083Y59480D02*
X53998Y57565D01*
X49591Y59098D02*
X53998Y54691D01*
X48873Y59098D02*
X53998Y53973D01*
X50309Y59098D02*
X53998Y55409D01*
X45002Y52186D02*
X53998Y61183D01*
X44642Y52545D02*
X51196Y59098D01*
X43971Y52592D02*
X50477Y59098D01*
X45622Y51369D02*
X53998Y59746D01*
X45622Y50651D02*
X53998Y59027D01*
X45361Y51827D02*
X53998Y60464D01*
X45622Y56602D02*
X53998Y48225D01*
X45622Y55884D02*
X53998Y47507D01*
X45622Y49932D02*
X53998Y58309D01*
X45248Y54820D02*
X53998Y46070D01*
X44889Y54461D02*
X53998Y45352D01*
X45607Y55180D02*
X53998Y46788D01*
X43745Y54168D02*
X53998Y43915D01*
X43026Y54168D02*
X53998Y43196D01*
X44463Y54168D02*
X53998Y44633D01*
X41502Y40783D02*
X53998Y53280D01*
X41502Y40065D02*
X53998Y52562D01*
X41502Y41502D02*
X53998Y53998D01*
X45327Y57540D02*
X47592Y59805D01*
X45622Y57116D02*
X47951Y59446D01*
X44968Y57899D02*
X47233Y60165D01*
X45622Y56398D02*
X48322Y59098D01*
X45622Y55680D02*
X49041Y59098D01*
X45622Y55194D02*
Y57246D01*
X44609Y58259D02*
X46874Y60524D01*
X44596Y58272D02*
X45622Y57246D01*
X41518D02*
X42544Y58272D01*
X43252Y52592D02*
X49759Y59098D01*
X41518Y55194D02*
X42544Y54168D01*
X41518Y55194D02*
Y57246D01*
X44596Y54168D02*
X45622Y55194D01*
X42544Y52592D02*
X44596D01*
X42544Y54168D02*
X44596D01*
Y52592D02*
X45622Y51566D01*
Y49514D02*
Y51566D01*
X41602Y53438D02*
X42496Y52543D01*
X41602Y53815D02*
X42250Y54463D01*
X41602Y53096D02*
X42674Y54168D01*
X41602Y52959D02*
Y54061D01*
X41518Y51566D02*
X42544Y52592D01*
X41518Y51524D02*
X41602Y51441D01*
X35725Y66498D02*
X43952Y58272D01*
X41473Y66498D02*
X46598Y61373D01*
X35007Y66498D02*
X43234Y58272D01*
X33731Y54566D02*
X45664Y66498D01*
X34239Y54355D02*
X46383Y66498D01*
X34288D02*
X42530Y58257D01*
X32482Y56908D02*
X42072Y66498D01*
X33570D02*
X42170Y57898D01*
X32852Y66498D02*
X41811Y57539D01*
X32482Y55471D02*
X43509Y66498D01*
X33013Y54566D02*
X44946Y66498D01*
X32482Y56189D02*
X42791Y66498D01*
X40962Y54612D02*
X41531Y55181D01*
X41365Y54297D02*
X41891Y54822D01*
X40243Y54612D02*
X41518Y55887D01*
X40754Y66498D02*
X53998Y53254D01*
X41051Y54612D02*
X41602Y54061D01*
X39038Y54125D02*
X41518Y56605D01*
X35933Y54612D02*
X47819Y66498D01*
X36601Y54561D02*
X48538Y66498D01*
X38088Y54612D02*
X46598Y63122D01*
X34556Y53953D02*
X47101Y66498D01*
X36960Y54202D02*
X46598Y63841D01*
X38679Y54484D02*
X46598Y62404D01*
X30253Y58272D02*
X38480Y66498D01*
X30972Y58272D02*
X39198Y66498D01*
X29535Y58272D02*
X37762Y66498D01*
X28541D02*
X40428Y54612D01*
X31932Y57795D02*
X40635Y66498D01*
X31573Y58154D02*
X39917Y66498D01*
X25667D02*
X37554Y54612D01*
X26386Y66498D02*
X38273Y54612D01*
X26122Y55577D02*
X37043Y66498D01*
X27104D02*
X39470Y54132D01*
X27823Y66498D02*
X39829Y54492D01*
X24949Y66498D02*
X37142Y54305D01*
X38551Y54612D02*
X39102Y54061D01*
X39949Y54612D02*
X41051D01*
X37449D02*
X38551D01*
X39398Y54061D02*
X39949Y54612D01*
X39102Y53470D02*
X39398Y53767D01*
X39102Y53783D02*
X39398Y53486D01*
X32133Y66498D02*
X41518Y57113D01*
X31415Y66498D02*
X41518Y56395D01*
X32291Y57436D02*
X41354Y66498D01*
X30696D02*
X41518Y55676D01*
X37000Y54162D02*
X37449Y54612D01*
X36551D02*
X37000Y54162D01*
X39317Y66498D02*
X53998Y51817D01*
X38599Y66498D02*
X53998Y51099D01*
X40036Y66498D02*
X53998Y52536D01*
X40695Y43569D02*
X53998Y56872D01*
X40695Y42851D02*
X53998Y56154D01*
X40695Y44287D02*
X53998Y57591D01*
X29978Y66498D02*
X43885Y52592D01*
X30981Y53252D02*
X44227Y66498D01*
X29259D02*
X43166Y52592D01*
X37162Y66498D02*
X53998Y49662D01*
X36444Y66498D02*
X53998Y48944D01*
X37880Y66498D02*
X53998Y50380D01*
X41133Y51909D02*
X43392Y54168D01*
X41482Y52839D02*
X42137Y52184D01*
X41122Y52480D02*
X41778Y51825D01*
X41502Y42220D02*
X53998Y54717D01*
X41502Y41502D02*
X53998Y53998D01*
X41492Y51550D02*
X44111Y54168D01*
X41051Y52408D02*
X41602Y52959D01*
X39949Y51992D02*
X41051D01*
X39949Y52408D02*
X41051D01*
X40965Y42402D02*
X53998Y55435D01*
X40624Y38469D02*
X53998Y51843D01*
X41051Y51992D02*
X41518Y51524D01*
X39398Y52959D02*
Y54061D01*
Y52959D02*
X39949Y52408D01*
X39102Y52959D02*
Y54061D01*
Y53064D02*
X40174Y51992D01*
X38805Y51737D02*
X39713Y52645D01*
X38795Y52652D02*
X39702Y51745D01*
X38551Y52408D02*
X39102Y52959D01*
X37477Y52408D02*
X38551D01*
X37602D02*
X38019Y51992D01*
X38342D02*
X39398Y53048D01*
X37623Y51992D02*
X38040Y52408D01*
X40476D02*
X40893Y51992D01*
X40497D02*
X40914Y52408D01*
X38551Y51992D02*
X39102Y51441D01*
Y51315D02*
X40195Y52408D01*
X39398Y51441D02*
X39949Y51992D01*
X39398Y50339D02*
Y51441D01*
X37220Y52072D02*
X37375Y51917D01*
X37449Y51992D02*
X38551D01*
X36771Y51803D02*
X37016Y51558D01*
X38320Y52408D02*
X39398Y51330D01*
X37000Y51542D02*
X37449Y51992D01*
X41518Y49514D02*
Y50256D01*
Y49514D02*
X42544Y48488D01*
X41355Y50092D02*
X41518Y49929D01*
X45622Y50855D02*
X53998Y42478D01*
X45622Y50136D02*
X53998Y41759D01*
X44596Y48488D02*
X45622Y49514D01*
X39337Y47958D02*
X41518Y50139D01*
X39797Y47700D02*
X41565Y49468D01*
X41051Y49788D02*
X41518Y50256D01*
X40940Y49788D02*
X53998Y36730D01*
X40222Y49788D02*
X53998Y36012D01*
X40408Y37534D02*
X53998Y51125D01*
X45214Y49107D02*
X53998Y40323D01*
X44855Y48748D02*
X53998Y39604D01*
X45573Y49466D02*
X53998Y41041D01*
X43677Y48488D02*
X53998Y38167D01*
X42959Y48488D02*
X53998Y37449D01*
X44396Y48488D02*
X53998Y38886D01*
X40457Y46923D02*
X42283Y48749D01*
X42544Y48488D02*
X44596D01*
X40170Y47354D02*
X41924Y49108D01*
X40695Y45724D02*
X43459Y48488D01*
X40695Y45006D02*
X44178Y48488D01*
X40646Y46393D02*
X42741Y48488D01*
X39949Y49788D02*
X41051D01*
X39398Y50339D02*
X39949Y49788D01*
X40695Y42402D02*
Y45929D01*
Y42849D02*
X41143Y42402D01*
X40695Y45929D02*
Y46187D01*
X39102Y50909D02*
X39398Y50612D01*
X39102Y50596D02*
X39398Y50893D01*
X39102Y50339D02*
Y51441D01*
X38768Y48107D02*
X40449Y49788D01*
X39305Y42402D02*
Y45929D01*
X38809Y42402D02*
X39305Y42897D01*
X41502Y41052D02*
Y42402D01*
Y40948D02*
Y41052D01*
X40695Y42402D02*
X41502D01*
Y40948D02*
Y41052D01*
Y39598D02*
Y40948D01*
X40624Y38242D02*
Y38500D01*
Y39187D02*
X41035Y39598D01*
X40624D02*
X41502D01*
X38917D02*
X39233Y39283D01*
X40624Y38500D02*
Y39598D01*
X39233Y38500D02*
Y39598D01*
X41637Y35171D02*
X53998Y47533D01*
X41733Y34549D02*
X53998Y46814D01*
X41199Y35452D02*
X53998Y48251D01*
X41733Y33112D02*
X53998Y45377D01*
X40695Y45005D02*
X53998Y31702D01*
X41706Y33803D02*
X53998Y46096D01*
X39027Y50265D02*
X53998Y35294D01*
X39702Y35392D02*
X53998Y49688D01*
X38989Y35397D02*
X53998Y50406D01*
X40613Y46524D02*
X53998Y33138D01*
X40695Y45723D02*
X53998Y32420D01*
X40278Y35249D02*
X53998Y48969D01*
X41733Y32393D02*
X53998Y44659D01*
X41733Y33024D02*
Y33776D01*
Y34324D02*
Y35076D01*
X41499Y31441D02*
X53998Y43940D01*
X41687Y30910D02*
X53998Y43222D01*
X41474Y31465D02*
X41733Y31724D01*
X41459Y34050D02*
X41733Y34324D01*
X41459Y34050D02*
X41733Y33776D01*
X41357Y35452D02*
X41733Y35076D01*
X40695Y44286D02*
X53998Y30983D01*
X41459Y32750D02*
X41733Y32476D01*
X41459Y32750D02*
X41733Y33024D01*
X40403Y35249D02*
X40605Y35452D01*
X41357D01*
X39980Y35249D02*
X40403D01*
X41733Y31724D02*
Y32476D01*
X40378Y31576D02*
X40488Y31465D01*
X39984Y31363D02*
X40197Y31576D01*
X39692Y36668D02*
X40909Y35452D01*
X39233Y36409D02*
X40393Y35249D01*
X38669Y36255D02*
X39527Y35397D01*
X39954Y31576D02*
X40378D01*
X41474Y31465D02*
X41687Y31253D01*
X40276D02*
X40488Y31465D01*
X41687Y30547D02*
Y31253D01*
X40276Y30547D02*
Y31253D01*
X40010Y31322D02*
X40276Y31056D01*
X40066Y30726D02*
X40276Y30936D01*
X40066Y30660D02*
Y31110D01*
X37816Y48593D02*
X39481Y50257D01*
X38153Y48211D02*
X39840Y49898D01*
X38551Y49788D02*
X39102Y50339D01*
X38231Y46750D02*
X39305Y45677D01*
X37767Y49788D02*
X38551D01*
X37767Y49370D02*
X39095Y48042D01*
X33710Y49834D02*
X39305Y44240D01*
X32992Y49834D02*
X39305Y43522D01*
X34228Y50035D02*
X39305Y44958D01*
X37373Y42402D02*
X39305Y44334D01*
X38498Y42402D02*
X39305D01*
X37502Y41812D02*
X39305Y43615D01*
X38498Y39598D02*
X39233D01*
X38498D02*
Y40948D01*
X36695Y43880D02*
X39178Y46362D01*
X36695Y43161D02*
X39305Y45770D01*
X36695Y44598D02*
X38780Y46683D01*
X36695Y45412D02*
X39305Y42803D01*
X36695Y42443D02*
X39305Y45052D01*
X36695Y44694D02*
X38988Y42402D01*
X37767Y49262D02*
X38294Y49788D01*
X37810Y48608D02*
X38251Y48168D01*
X37767Y48857D02*
Y49788D01*
X38498Y41052D02*
Y42402D01*
X37502Y41094D02*
X38498Y42091D01*
X37502Y41052D02*
Y42402D01*
X36523Y45863D02*
X37596Y46935D01*
X36695Y45316D02*
X38142Y46764D01*
X36205Y46263D02*
X37155Y47213D01*
X36695Y43976D02*
X38498Y42173D01*
X36695Y43257D02*
X38498Y41454D01*
X36695Y42402D02*
X37502D01*
X38498Y40948D02*
Y41052D01*
Y40948D02*
Y41052D01*
X37502Y40948D02*
Y41052D01*
Y41014D02*
X38498Y40017D01*
X37502Y39657D02*
X38498Y40654D01*
X37502Y39598D02*
Y40948D01*
Y41733D02*
X38498Y40736D01*
X37502Y40375D02*
X38498Y41372D01*
X37502Y40948D02*
Y41052D01*
X37443Y39598D02*
X37502Y39657D01*
X36624Y39598D02*
X37502D01*
X37624Y37624D02*
X39233Y39233D01*
X38342Y37624D02*
X39233Y38515D01*
X37624Y37624D02*
X39233Y39233D01*
X38668Y49906D02*
X53998Y34575D01*
X38067Y49788D02*
X53998Y33857D01*
X37502Y40296D02*
X39233Y38564D01*
X37480Y39598D02*
X39077Y38001D01*
X36762Y39598D02*
X38676Y37684D01*
X36187Y37624D02*
X38498Y39935D01*
X36905Y37624D02*
X38880Y39598D01*
X36571Y39071D02*
X38018Y37624D01*
X38357Y36233D02*
X38615D01*
X38270Y35397D02*
X39323Y36449D01*
X37815Y35397D02*
X39635D01*
X37972Y36233D02*
X38809Y35397D01*
X30000Y37624D02*
X38357D01*
X30000Y36233D02*
X38357D01*
X37254D02*
X38090Y35397D01*
X36141Y33986D02*
X38388Y36233D01*
X36535D02*
X37495Y35273D01*
X37338Y34470D02*
Y34920D01*
X36502Y32909D02*
X37351Y33759D01*
X36501Y33627D02*
X37338Y34465D01*
X36218Y38373D02*
X37443Y39598D01*
X35817Y36233D02*
X37338Y34712D01*
X36357Y38566D02*
X37300Y37624D01*
X35098Y36233D02*
X37418Y33914D01*
X35438Y34002D02*
X37670Y36233D01*
X34380D02*
X37338Y33275D01*
Y31930D02*
Y32380D01*
X37384Y30660D02*
Y31110D01*
X36502Y33393D02*
X37363Y32532D01*
X36502Y32191D02*
X37362Y33051D01*
X37338Y33200D02*
Y33650D01*
X36502Y31956D02*
X37384Y31073D01*
X36402Y32774D02*
X37350Y31827D01*
X34898Y54061D02*
X35449Y54612D01*
X36551D01*
X34556Y54018D02*
X34898Y53675D01*
Y53124D02*
Y54061D01*
X34556Y53235D02*
X34898Y53577D01*
X34556Y53124D02*
Y54038D01*
X32482Y56810D02*
X35065Y54227D01*
X32972Y54566D02*
X34028D01*
X32482Y56092D02*
X34008Y54566D01*
X34028D02*
X34556Y54038D01*
X34008Y54566D02*
X34556Y54018D01*
X36748Y51795D02*
X37000Y51542D01*
X34898Y51441D02*
X35191Y51733D01*
X34685D02*
X34938Y51480D01*
X34556Y51079D02*
X34898Y51422D01*
X34556Y51144D02*
X34898Y50802D01*
X34556Y50362D02*
Y51418D01*
Y53124D02*
X34898D01*
X34240Y51733D02*
X35191D01*
X34556Y53300D02*
X34731Y53124D01*
X34366Y51608D02*
X34491Y51733D01*
X34240D02*
X34556Y51418D01*
X32482Y55374D02*
X33290Y54566D01*
X32212Y54925D02*
X32772Y54365D01*
X32482Y55194D02*
Y57246D01*
X32444Y53997D02*
X33013Y54566D01*
X32444Y54038D02*
X32972Y54566D01*
X31456Y58272D02*
X32482Y57246D01*
X31456Y54168D02*
X32482Y55194D01*
X31853Y54565D02*
X32444Y53974D01*
X31494Y54206D02*
X32444Y53256D01*
X30286Y53275D02*
X31179Y54168D01*
X30095D02*
X31012Y53251D01*
X32444Y53170D02*
Y54038D01*
X32488Y51775D02*
X32645Y51618D01*
X32342Y53176D02*
X32444Y53279D01*
X32482Y51455D02*
X32785Y51758D01*
X32482Y51455D02*
Y51566D01*
X31662Y53214D02*
X32444Y53997D01*
X30585Y53275D02*
X32444Y53170D01*
X30813Y54168D02*
X31774Y53208D01*
X32260Y51788D02*
X32482Y51566D01*
X32260Y51788D02*
X32785Y51758D01*
X32325Y51722D02*
X32383Y51781D01*
X35449Y49788D02*
X36376D01*
X35912D02*
X36376Y49324D01*
X34898Y50339D02*
X35449Y49788D01*
X36376Y48599D02*
Y48857D01*
Y49788D01*
X34556Y50426D02*
X36376Y48605D01*
X32482Y49626D02*
X35484Y46624D01*
X32255D02*
X35435Y49803D01*
X33692Y46624D02*
X36376Y49308D01*
X34411Y46624D02*
X36381Y48594D01*
X32974Y46624D02*
X36138Y49788D01*
X35756Y46532D02*
X36803Y47580D01*
X36695Y45179D02*
Y45437D01*
Y42402D02*
Y45179D01*
X35129Y46624D02*
X36541Y48036D01*
X35250Y46624D02*
X35508D01*
X34001Y45233D02*
X35305Y43929D01*
X29784Y39124D02*
X35305Y44644D01*
X34719Y45233D02*
X35305Y44648D01*
X34898Y50339D02*
Y51441D01*
X34028Y49834D02*
X34556Y50362D01*
X32972Y49834D02*
X34028D01*
X32482Y49724D02*
X32782Y50024D01*
X32482Y50325D02*
X32972Y49834D01*
X31456Y48488D02*
X32482Y49514D01*
Y50325D01*
X30819Y46624D02*
X34898Y50704D01*
X31537Y46624D02*
X35075Y50162D01*
X30100Y46624D02*
X33311Y49834D01*
X32178Y49211D02*
X34766Y46624D01*
X33283Y45233D02*
X35305Y43211D01*
X31819Y48852D02*
X34047Y46624D01*
X32564Y45233D02*
X35305Y42493D01*
Y42402D02*
Y45179D01*
X31846Y45233D02*
X34677Y42402D01*
X31460Y48493D02*
X33329Y46624D01*
X30746Y48488D02*
X32610Y46624D01*
X30027Y48488D02*
X31892Y46624D01*
X30409Y45233D02*
X34498Y41144D01*
X31127Y45233D02*
X34498Y41862D01*
X28378Y57115D02*
X29535Y58272D01*
X29404D02*
X31456D01*
X28378Y57246D02*
X29404Y58272D01*
X26122Y57014D02*
X35606Y66498D01*
X26122Y56295D02*
X36325Y66498D01*
X26122Y56705D02*
X29658Y53168D01*
X24536Y58302D02*
X32733Y66498D01*
X25175Y58222D02*
X33451Y66498D01*
X23817Y58302D02*
X32014Y66498D01*
X25893Y57504D02*
X34888Y66498D01*
X24230D02*
X36117Y54612D01*
X25534Y57863D02*
X34169Y66498D01*
X28698Y53124D02*
X29742Y54168D01*
X29404D02*
X31456D01*
X28378Y55194D02*
X29404Y54168D01*
X29416Y53124D02*
X30461Y54168D01*
X28378Y51566D02*
X28546Y51733D01*
X27951Y53096D02*
X29214Y54359D01*
X28250Y53124D02*
X29521D01*
X26122Y55986D02*
X28984Y53124D01*
X25927Y51790D02*
X28855Y54718D01*
X28250Y51733D02*
X28546D01*
X25568Y52149D02*
X28496Y55077D01*
X28378Y55194D02*
Y57246D01*
X26122Y55268D02*
X28266Y53124D01*
X26122Y55224D02*
Y57276D01*
X25209Y52509D02*
X28378Y55678D01*
X25784Y54887D02*
X27659Y53012D01*
X25425Y54528D02*
X27207Y52745D01*
X23885Y52622D02*
X28378Y57115D01*
X25096Y54198D02*
X26122Y55224D01*
X25096Y58302D02*
X26122Y57276D01*
X24603Y52622D02*
X28378Y56397D01*
X24317Y54198D02*
X26665Y51851D01*
X23599Y54198D02*
X26626Y51171D01*
X28221Y51731D02*
X28383Y51570D01*
X27992Y53124D02*
X28250D01*
X28017Y51006D02*
X28378Y51368D01*
X28017Y51217D02*
X28378Y50856D01*
X25036Y54198D02*
X26873Y52361D01*
X25096Y52622D02*
X26122Y51596D01*
Y51266D02*
X26654Y51799D01*
X26626Y51500D02*
Y51758D01*
X28378Y49514D02*
X29404Y48488D01*
X31456D01*
X28017Y47414D02*
X29248Y48645D01*
X28663Y46624D02*
X30528Y48488D01*
X29382Y46624D02*
X31246Y48488D01*
X28093Y46772D02*
X29809Y48488D01*
X28017Y49780D02*
X31173Y46624D01*
X28017Y48133D02*
X28888Y49004D01*
X28017Y48851D02*
X28529Y49363D01*
X23532Y48518D02*
X32926Y39124D01*
X24250Y48518D02*
X33644Y39124D01*
X28017Y49062D02*
X30455Y46624D01*
X28393D02*
X35250D01*
X28393Y45233D02*
X35250D01*
X29690D02*
X34498Y40425D01*
X28972Y45233D02*
X34498Y39707D01*
X29066Y39124D02*
X35175Y45233D01*
X28348Y39124D02*
X34457Y45233D01*
X28017Y48344D02*
X29737Y46624D01*
X28254Y45233D02*
X34363Y39124D01*
X28017Y47625D02*
X29018Y46624D01*
X23702Y36633D02*
X32302Y45233D01*
X27260Y38755D02*
X33738Y45233D01*
X23702Y37352D02*
X31583Y45233D01*
X28017Y50499D02*
X28378Y50137D01*
X28017Y49569D02*
X28378Y49931D01*
X28017Y50288D02*
X28378Y50649D01*
Y49514D02*
Y51566D01*
X28017Y47000D02*
Y51500D01*
X26626Y47000D02*
Y51500D01*
X26122Y50957D02*
X26626Y50453D01*
X26122Y49829D02*
X26626Y50334D01*
X26122Y50548D02*
X26626Y51052D01*
X26122Y50239D02*
X26626Y49734D01*
X25096Y48518D02*
X26122Y49544D01*
Y51596D01*
X28033Y46891D02*
X28283Y46640D01*
X28135Y45233D02*
X28393D01*
X25751Y49173D02*
X26626Y48298D01*
X25391Y48814D02*
X26626Y47579D01*
X26110Y49532D02*
X26626Y49016D01*
Y46742D02*
Y47000D01*
X24968Y48518D02*
X26626Y46861D01*
X36695Y42539D02*
X36833Y42402D01*
X35217D02*
X35305Y42489D01*
X35233Y39500D02*
Y39598D01*
X36624Y39498D02*
X36725Y39598D01*
X36624Y39500D02*
Y39598D01*
X34499Y42402D02*
X35305Y43207D01*
X34498Y42402D02*
X35305D01*
X34498Y39598D02*
X35233D01*
X34813Y39124D02*
X35233Y39544D01*
X34607Y39598D02*
X35036Y39169D01*
X36624Y39242D02*
Y39500D01*
X35035Y37733D02*
X35144Y37624D01*
X36028Y38177D02*
X36581Y37624D01*
X35469D02*
X35984Y38139D01*
X35593Y37894D02*
X35863Y37624D01*
X34857Y37733D02*
X35115D01*
X34750Y37624D02*
X34860Y37733D01*
X33960Y35397D02*
X34796Y36233D01*
X34678Y35397D02*
X35515Y36233D01*
X32865Y35397D02*
X34685D01*
X34498Y40948D02*
Y41052D01*
Y40948D02*
Y41052D01*
Y42402D01*
Y39707D02*
X34607Y39598D01*
X34095Y39124D02*
X34569Y39598D01*
X34498D02*
Y40948D01*
X32658Y39124D02*
X34498Y40964D01*
X33377Y39124D02*
X34498Y40246D01*
X31940Y39124D02*
X34498Y41683D01*
X32161Y37733D02*
X32271Y37624D01*
X32595D02*
X32704Y37733D01*
X31877Y37624D02*
X31986Y37733D01*
X33598D02*
X33708Y37624D01*
X34032D02*
X34141Y37733D01*
X33313Y37624D02*
X33423Y37733D01*
X34317D02*
X34426Y37624D01*
X33661Y36233D02*
X34498Y35397D01*
X33241D02*
X34078Y36233D01*
X32880Y37733D02*
X32989Y37624D01*
X32225Y36233D02*
X33061Y35397D01*
X31893Y35485D02*
X32641Y36233D01*
X32943D02*
X33780Y35397D01*
X32103Y35274D02*
X32546D01*
X31506Y36233D02*
X32465Y35274D01*
X35162Y34733D02*
X35893Y34002D01*
X35374D02*
X36126D01*
X35162Y34470D02*
Y34920D01*
X36126Y34002D02*
X36502Y33626D01*
X35172Y33977D02*
X35349D01*
X35172D02*
X35349D01*
X35118Y35118D02*
X36233Y36233D01*
X35118Y35118D02*
X36233Y36233D01*
X35161Y34442D02*
X36952Y36233D01*
X35032Y34144D02*
X35200Y33977D01*
X35032D02*
X35172D01*
X36377Y32750D02*
X36502Y32874D01*
X36377Y32750D02*
X36502Y32626D01*
Y32874D02*
Y33626D01*
Y31874D02*
Y32626D01*
X36126Y31498D02*
X36502Y31874D01*
X35374Y31498D02*
X36126D01*
X35222Y31651D02*
X35374Y31498D01*
X35030Y31438D02*
X35232Y31640D01*
X35071Y31651D02*
X35222D01*
X35162Y30851D02*
X35809Y31498D01*
X35162Y30660D02*
Y31110D01*
X32400Y35274D02*
X33360Y36233D01*
X32388Y33200D02*
Y33650D01*
X31876Y35502D02*
X32103Y35274D01*
X32048Y34171D02*
X32494D01*
X31876Y33998D02*
X32048Y34171D01*
X32132D02*
X32439Y33864D01*
X31586Y33998D02*
X32388Y33196D01*
X32388Y31930D02*
Y32380D01*
X31632Y31632D02*
X32388Y32388D01*
X31632Y31632D02*
X32388Y32388D01*
X31876Y31632D02*
X32073Y31434D01*
X32516D01*
X32152D02*
X32438Y31719D01*
X30503Y39124D02*
X35305Y43926D01*
X31221Y39124D02*
X34498Y42401D01*
X30440Y37624D02*
X30549Y37733D01*
X31158Y37624D02*
X31267Y37733D01*
X31443D02*
X31552Y37624D01*
X30725Y37733D02*
X30834Y37624D01*
X28500Y39124D02*
X34857D01*
X28500Y37733D02*
X34857D01*
X29742Y37624D02*
X30000D01*
X30006Y37733D02*
X30115Y37624D01*
X29699Y37601D02*
X29831Y37733D01*
X31191Y35502D02*
X31923Y36233D01*
X31124Y35502D02*
X31876D01*
X30788Y36233D02*
X31519Y35502D01*
X30069Y36233D02*
X30963Y35340D01*
X30748Y35126D02*
X31124Y35502D01*
X30748Y34374D02*
Y35126D01*
X29463Y35928D02*
X29679Y36144D01*
X29374Y34403D02*
X31204Y36233D01*
X29546Y36038D02*
X30748Y34836D01*
X29374Y35121D02*
X30486Y36233D01*
X29288Y37733D02*
X29468Y37553D01*
X28242Y39124D02*
X28500D01*
X28569Y37733D02*
X28965Y37338D01*
X28005Y37580D02*
X28562Y37022D01*
X27686Y37180D02*
X28252Y36613D01*
X27631Y36971D02*
X28386Y37726D01*
X27624Y36245D02*
X29112Y37733D01*
X23702Y36624D02*
Y37376D01*
X27624Y34808D02*
X27983Y35167D01*
Y35607D02*
Y35865D01*
X27624Y34090D02*
X27983Y34449D01*
X27624Y34368D02*
X27983Y34009D01*
X27624Y35087D02*
X27983Y34727D01*
X27624Y36523D02*
X28045Y36102D01*
X27624Y35527D02*
X28006Y35908D01*
X26233Y36857D02*
Y37115D01*
X27624Y35805D02*
X27983Y35446D01*
X23702Y36854D02*
X26233Y34322D01*
X29374Y32248D02*
X31125Y33998D01*
X31124D02*
X31876D01*
X30748Y34374D02*
X31124Y33998D01*
X29374Y31529D02*
X31843Y33998D01*
X29374Y30811D02*
X32453Y33890D01*
X29374Y34055D02*
X31797Y31632D01*
X29374Y35492D02*
X32397Y32469D01*
X29374Y32966D02*
X30765Y34357D01*
X29374Y33684D02*
X30748Y35059D01*
X29374Y31000D02*
Y35607D01*
Y34773D02*
X32448Y31700D01*
X27983Y31000D02*
Y35607D01*
X30748Y31256D02*
X31124Y31632D01*
X31876D01*
X29374Y32618D02*
X30748Y31244D01*
X29374Y31900D02*
X30748Y30525D01*
Y30504D02*
Y31256D01*
X29374Y30742D02*
Y31000D01*
X27221Y32616D02*
X27983Y31854D01*
X27501Y31812D02*
X27983Y32294D01*
X27174Y32203D02*
X27983Y33012D01*
X29374Y33337D02*
X31102Y31609D01*
X27501Y31617D02*
X27983Y31135D01*
X27624Y33750D02*
Y36857D01*
Y33492D02*
Y33750D01*
X26233D02*
Y36857D01*
X27571Y33319D02*
X27983Y33731D01*
X24412Y33752D02*
X26233Y35573D01*
X25131Y33752D02*
X26233Y34854D01*
X23694Y33752D02*
X26233Y36291D01*
X25443Y33345D02*
X26233Y34136D01*
X25377Y33741D02*
X25773Y33345D01*
X25377D02*
Y33752D01*
X27624Y33650D02*
X27983Y33290D01*
X27489Y33067D02*
X27983Y32572D01*
X27501Y31124D02*
Y31876D01*
X27393Y30985D02*
X27983Y31575D01*
X27389Y31011D02*
X27853Y30547D01*
X27377Y31000D02*
X27501Y30876D01*
X26817Y32252D02*
X27126D01*
X25377Y33345D02*
X25829D01*
X27377Y31000D02*
X27501Y31124D01*
X27126Y32252D02*
X27501Y31876D01*
X44052Y24654D02*
X53998Y34601D01*
X44052Y27280D02*
X53998Y17333D01*
X44052Y25373D02*
X53998Y35319D01*
X44052Y26561D02*
X53998Y16615D01*
X45038Y17020D02*
X53998Y25980D01*
X44506Y17206D02*
X53998Y26698D01*
X43457Y28370D02*
X53998Y38912D01*
X43816Y28011D02*
X53998Y38193D01*
X43098Y28729D02*
X53998Y39630D01*
X44052Y26809D02*
X53998Y36756D01*
X44052Y26091D02*
X53998Y36038D01*
X44052Y27528D02*
X53998Y37475D01*
X46511Y17056D02*
X53998Y24543D01*
X46956Y16782D02*
X53998Y23825D01*
X46973Y16081D02*
X53998Y23106D01*
X46981Y16160D02*
Y16640D01*
X45793Y17056D02*
X53998Y25262D01*
X45435Y17056D02*
X46565D01*
X44052Y25843D02*
X53998Y15896D01*
X44052Y27224D02*
Y27776D01*
Y25026D02*
Y27224D01*
Y27776D01*
Y24474D02*
Y25026D01*
X43776Y24198D02*
X44052Y24474D01*
Y25026D01*
X43026Y28802D02*
X43302Y28526D01*
X43776Y28052D01*
X43026Y28802D02*
X43302Y28526D01*
X43776Y28052D02*
X44052Y27776D01*
X43776Y28052D02*
X44052Y27776D01*
X42948Y26110D02*
Y26321D01*
X44853Y17206D02*
X45133Y16926D01*
X44147Y17206D02*
X44853D01*
Y15794D02*
X45053Y15995D01*
X43776Y24198D02*
X44052Y24474D01*
X43794Y16853D02*
X44147Y17206D01*
X43052Y23474D02*
X43776Y24198D01*
X43794Y16147D02*
X44147Y15794D01*
X43794Y16147D02*
Y16853D01*
X47027Y14698D02*
X53998Y21669D01*
X46752Y12267D02*
X53998Y19514D01*
X46829Y15219D02*
X53998Y22388D01*
Y4500D02*
Y62500D01*
X46752Y10831D02*
X53998Y18077D01*
X46752Y11549D02*
X53998Y18796D01*
X44018Y24440D02*
X53998Y14459D01*
X43658Y24081D02*
X53998Y13741D01*
X44052Y25125D02*
X53998Y15178D01*
X43299Y23722D02*
X53998Y13023D01*
X46752Y12986D02*
X53998Y20233D01*
X46552Y13504D02*
X53998Y20951D01*
X49164Y11806D02*
X53998Y16640D01*
X49882Y11806D02*
X53998Y15922D01*
X48595Y11956D02*
X53998Y17359D01*
X50981Y11467D02*
X53998Y14485D01*
X50981Y10749D02*
X53998Y13767D01*
X50600Y11806D02*
X53998Y15204D01*
X46851Y15859D02*
X50905Y11806D01*
X46649Y13906D02*
X48600Y11956D01*
X46981Y16448D02*
X53998Y9430D01*
X47001Y14991D02*
X50186Y11806D01*
X47015Y14258D02*
X49468Y11806D01*
X45529Y15744D02*
X45972Y15302D01*
X45475D02*
X45918Y15744D01*
X46248D02*
X46716Y15276D01*
X46194Y15302D02*
X46644Y15752D01*
X45435Y15744D02*
X46565D01*
X44147Y15794D02*
X44853D01*
X45435Y15302D02*
X46565D01*
X44761Y15794D02*
X45280Y15275D01*
X47027Y14360D02*
Y14840D01*
X45448Y13152D02*
Y13898D01*
X45248Y13152D02*
X45448D01*
X46552Y13285D02*
X46685Y13152D01*
X46552D02*
X46752D01*
X46552D02*
Y13898D01*
X43250Y13077D02*
X44973Y14800D01*
Y14360D02*
Y14840D01*
X44612Y13002D02*
X45448Y13838D01*
X43894Y13002D02*
X45030Y14138D01*
X41733Y29520D02*
X53998Y41785D01*
X41733Y28802D02*
X53998Y41067D01*
X41602Y30107D02*
X53998Y42504D01*
X41502Y40606D02*
X53998Y28109D01*
X41502Y39888D02*
X53998Y27391D01*
X42452Y28802D02*
X53998Y40348D01*
X41502Y42043D02*
X53998Y29546D01*
X41502Y41325D02*
X53998Y28828D01*
X40695Y43568D02*
X53998Y30265D01*
X40624Y39329D02*
X53998Y25954D01*
X40624Y38610D02*
X53998Y25236D01*
X41073Y39598D02*
X53998Y26673D01*
X42474Y28802D02*
X43026D01*
X42474D02*
X43026D01*
X42876Y26248D02*
X42948Y26321D01*
X42776Y23198D02*
X43052Y23474D01*
X42776Y23198D02*
X43052Y23474D01*
X42853Y26206D02*
X42948Y26110D01*
X42124Y26248D02*
X42876D01*
X42147Y26206D02*
X42853D01*
X42147Y24794D02*
X42717D01*
X40558Y37958D02*
X53998Y24517D01*
X40360Y37438D02*
X53998Y23799D01*
X42224Y24302D02*
X42717Y24794D01*
X41733Y29599D02*
X42530Y28802D01*
X42002Y26371D02*
X42124Y26248D01*
X41733Y29224D02*
Y29976D01*
X41956Y26150D02*
X42089Y26284D01*
X41956Y26014D02*
X42147Y26206D01*
X42002Y26198D02*
Y26371D01*
X41424Y30285D02*
X41687Y30547D01*
X41424Y30285D02*
X41733Y29976D01*
X41561Y29052D02*
X41811Y28802D01*
X40051D02*
X42474D01*
X41357Y28848D02*
X41733Y29224D01*
X41956Y26014D02*
Y26198D01*
Y24986D02*
X42147Y24794D01*
X42227D02*
X42472Y24549D01*
X41956Y24894D02*
Y24986D01*
X40544Y24894D02*
X41956D01*
X30576Y24302D02*
X42224D01*
X40825D02*
X41418Y24894D01*
X41544Y24302D02*
X42092Y24850D01*
X30576Y23198D02*
X42224D01*
X41408Y24894D02*
X42001Y24302D01*
X41525Y34117D02*
X53998Y21644D01*
X41733Y33191D02*
X53998Y20925D01*
X41733Y34628D02*
X53998Y22362D01*
X41733Y31754D02*
X53998Y19488D01*
X41687Y31082D02*
X53998Y18770D01*
X41733Y32472D02*
X53998Y20207D01*
X35701Y15586D02*
X53998Y33883D01*
X36420Y15586D02*
X53998Y33164D01*
X40067Y37012D02*
X53998Y23080D01*
X37302Y15031D02*
X53998Y31727D01*
X38020Y15031D02*
X53998Y31009D01*
X36680Y15127D02*
X53998Y32446D01*
X41495Y15632D02*
X53998Y28135D01*
X42102Y15521D02*
X53998Y27417D01*
X41595Y30455D02*
X53998Y18052D01*
X42386Y23198D02*
X53998Y11586D01*
X41667Y23198D02*
X53998Y10867D01*
X42940Y23363D02*
X53998Y12304D01*
X40058Y15632D02*
X53998Y29572D01*
X40230Y23198D02*
X46373Y17056D01*
X39512Y23198D02*
X45655Y17056D01*
X38738Y15031D02*
X53998Y30291D01*
X40949Y23198D02*
X53998Y10149D01*
X40776Y15632D02*
X53998Y28854D01*
X42224Y23198D02*
X42776D01*
X38794D02*
X44786Y17206D01*
X42224Y23198D02*
X42776D01*
X38075D02*
X44108Y17166D01*
X42102Y14084D02*
X43980Y15962D01*
X42102Y14802D02*
X43794Y16494D01*
X34983Y15586D02*
X42596Y23198D01*
X37357D02*
X43794Y16761D01*
X34483Y23198D02*
X42050Y15632D01*
X35202Y23198D02*
X45248Y13152D01*
X35920Y23198D02*
X45448Y13670D01*
X36638Y23198D02*
X44974Y14863D01*
X42102Y14178D02*
Y14362D01*
Y13092D02*
Y14178D01*
Y14362D01*
X42532Y13077D02*
X45245Y15790D01*
X42102Y14143D02*
X43168Y13077D01*
X42102Y13424D02*
X42450Y13077D01*
X42102Y13365D02*
X44531Y15794D01*
X42102Y14362D02*
Y15632D01*
X39774D02*
X42102D01*
Y15579D02*
X45248Y12433D01*
X42102Y14861D02*
X43961Y13002D01*
X51002Y10052D02*
X53998Y13048D01*
X50981Y10494D02*
Y11806D01*
X50905D02*
X50981Y11730D01*
X53998Y8712D01*
X50981Y11011D02*
X53998Y7994D01*
X51027Y9358D02*
X53998Y12330D01*
X49019Y11806D02*
X50981D01*
X50652Y8265D02*
X53998Y11612D01*
X48574Y10544D02*
X49067Y10052D01*
X50061Y10494D02*
X50504Y10052D01*
X50283D02*
X50726Y10494D01*
X49565Y10052D02*
X50008Y10494D01*
X51027Y8648D02*
Y10052D01*
X50652Y7902D02*
X51701D01*
X50652Y8648D02*
X51027D01*
X49019Y10494D02*
X50981D01*
X48973Y10052D02*
X51027D01*
X49342Y10494D02*
X49785Y10052D01*
X49033Y8648D02*
X49348Y8333D01*
X48299Y7902D02*
X49348D01*
X48973Y8648D02*
X49348D01*
X48147Y11956D02*
X48853D01*
X49019Y11789D01*
X47794Y11603D02*
X48147Y11956D01*
X46752Y10348D02*
Y11698D01*
Y11802D02*
Y13152D01*
Y13085D02*
X48014Y11823D01*
X46685Y13152D02*
X46752Y13085D01*
Y12367D02*
X47794Y11324D01*
X46752Y11698D02*
Y11802D01*
Y11698D02*
Y11802D01*
X48853Y10544D02*
X49019Y10711D01*
X48147Y10544D02*
X48853D01*
X49019Y10494D02*
Y10711D01*
X48973Y8708D02*
X49033Y8648D01*
X48973D02*
Y10052D01*
X47794Y10897D02*
X48147Y10544D01*
X47794Y10897D02*
Y11603D01*
X46752Y10930D02*
X48973Y8708D01*
X46615Y10348D02*
X49061Y7902D01*
X46752Y11648D02*
X48973Y9427D01*
X52431Y7171D02*
X53998Y8738D01*
X52791Y6812D02*
X53998Y8019D01*
X52072Y7530D02*
X53998Y9456D01*
X53150Y6453D02*
X53998Y7301D01*
X53402Y5986D02*
X53998Y6583D01*
X53402Y2799D02*
Y6201D01*
X50779Y10494D02*
X53998Y7275D01*
X51713Y7889D02*
X53998Y10175D01*
X51007Y7902D02*
X53998Y10893D01*
X51027Y9529D02*
X53998Y6557D01*
X51027Y8810D02*
X53998Y5838D01*
X51701Y7902D02*
X53402Y6201D01*
Y4998D02*
X53997Y4403D01*
X53402Y3831D02*
X53998Y4427D01*
X53402Y4280D02*
X53928Y3753D01*
X53402Y3112D02*
X53898Y3608D01*
X53402Y3561D02*
X53777Y3187D01*
X53402Y2843D02*
X53562Y2683D01*
X53402Y5717D02*
X53998Y5120D01*
X53402Y4549D02*
X53998Y5146D01*
X53402Y5267D02*
X53998Y5864D01*
X51701Y1098D02*
X53402Y2799D01*
X52114Y1106D02*
X53394Y2386D01*
X50652Y8467D02*
X51217Y7902D01*
X53064Y2462D02*
X53293Y2233D01*
X50652Y7902D02*
Y8648D01*
X52705Y2103D02*
X52977Y1831D01*
X52346Y1744D02*
X52615Y1475D01*
X51987Y1384D02*
X52206Y1165D01*
X49348Y7902D02*
Y8648D01*
X48852Y7902D02*
X49348Y8398D01*
X46598Y6201D02*
X48299Y7902D01*
X46598Y2799D02*
X48299Y1098D01*
X47199Y502D02*
X48047Y1350D01*
X46598Y2799D02*
Y6201D01*
X50892Y602D02*
X51388Y1098D01*
X51554D02*
X51748Y904D01*
X50836Y1098D02*
X51237Y698D01*
X50117Y1098D02*
X50659Y556D01*
X50073Y502D02*
X50669Y1098D01*
X49399D02*
X49996Y502D01*
X48636D02*
X49233Y1098D01*
X48299D02*
X51701D01*
X47917Y502D02*
X48514Y1098D01*
X49354Y502D02*
X49951Y1098D01*
X48681D02*
X49277Y502D01*
X44978Y12649D02*
X45248Y12919D01*
X45002Y12326D02*
Y12626D01*
X44626Y13002D02*
X45002Y12626D01*
X45248Y12079D02*
Y13152D01*
X45002Y12326D02*
X45248Y12079D01*
X45187Y12140D02*
X45248Y12201D01*
X43752Y12859D02*
X43894Y13002D01*
X43874D02*
X44626D01*
X43752Y12879D02*
X43874Y13002D01*
X43706Y11476D02*
X43801Y11572D01*
X45149Y10523D02*
X45248D01*
X45149D02*
X45248D01*
X44937Y10736D02*
X45149Y10523D01*
X45248Y10348D02*
X46752D01*
X45896D02*
X48343Y7902D01*
X45248Y10348D02*
Y10523D01*
X44937Y10591D02*
Y10736D01*
X45149Y10523D01*
X44584Y10238D02*
X44937Y10591D01*
X43878Y10238D02*
X44584D01*
X43706Y10411D02*
X43878Y10238D01*
X42248Y13077D02*
X43752D01*
Y12879D02*
Y13077D01*
X42248Y12909D02*
Y13077D01*
Y11623D02*
Y11806D01*
X42294Y10319D02*
Y11623D01*
X42102Y10368D02*
Y11638D01*
Y12909D02*
Y13092D01*
Y12909D02*
X42248D01*
X42102D02*
Y13092D01*
Y11638D02*
Y11806D01*
X42248D01*
X42102Y11638D02*
Y11806D01*
X43706Y11476D02*
Y11623D01*
Y10319D02*
Y10411D01*
X42294Y10319D02*
X43706D01*
X42102Y10550D02*
X42294Y10358D01*
X42102Y11269D02*
X42294Y11077D01*
X42102Y10492D02*
X42294Y10684D01*
X42102Y11210D02*
X42294Y11402D01*
X41979Y10368D02*
X42102Y10492D01*
X39774Y10368D02*
X42102D01*
X44936Y10590D02*
X47962Y7564D01*
X43706Y10384D02*
X47244Y6846D01*
X42333Y10319D02*
X46598Y6054D01*
X42186Y4828D02*
X48025Y10667D01*
X42186Y4109D02*
X48621Y10544D01*
X42064Y5424D02*
X47794Y11155D01*
X38810Y10969D02*
X46598Y3181D01*
X36726Y10898D02*
X47122Y502D01*
X41566Y10368D02*
X46598Y5336D01*
X38091Y10969D02*
X48559Y502D01*
X39296D02*
X49289Y10494D01*
X37373Y10969D02*
X47840Y502D01*
X44570Y10238D02*
X47603Y7205D01*
X44325Y502D02*
X46611Y2787D01*
X43607Y502D02*
X46598Y3493D01*
X45762Y502D02*
X47329Y2069D01*
X46481Y502D02*
X47688Y1709D01*
X45044Y502D02*
X46970Y2428D01*
X40015Y502D02*
X48973Y9460D01*
X40733Y502D02*
X48973Y8742D01*
X43052Y10319D02*
X46884Y6487D01*
X42170Y502D02*
X46598Y4930D01*
X42888Y502D02*
X46598Y4212D01*
X41452Y502D02*
X46598Y5648D01*
X41308Y6106D02*
X45551Y10348D01*
X41705Y5784D02*
X46269Y10348D01*
X40590Y6106D02*
X45078Y10594D01*
X40847Y10368D02*
X46598Y4617D01*
X40129Y10368D02*
X46598Y3899D01*
X41383Y6106D02*
X42186Y5303D01*
X37044Y5433D02*
X41979Y10368D01*
X39871Y6106D02*
X44004Y10238D01*
X39777Y6106D02*
X41383D01*
X37152Y4823D02*
X42648Y10319D01*
X37152Y4104D02*
X43367Y10319D01*
X32550Y10044D02*
X42093Y502D01*
X42186Y3697D02*
Y5303D01*
X41619Y3131D02*
X44248Y502D01*
X42186Y4720D02*
X46404Y502D01*
X42186Y4001D02*
X45685Y502D01*
X41978Y3490D02*
X44967Y502D01*
X41383Y2894D02*
X42186Y3697D01*
X39777Y2894D02*
X41383D01*
X41137D02*
X43530Y502D01*
X40419Y2894D02*
X42812Y502D01*
X40276Y30547D02*
X40538Y30285D01*
X40054Y30559D02*
X40433Y30180D01*
X40217Y30159D02*
X40440Y30382D01*
X40413Y30159D02*
X40538Y30285D01*
X36183Y31556D02*
X37523Y30217D01*
X36156Y28972D02*
X37525Y30341D01*
X35160Y31142D02*
X37439Y28863D01*
X39989Y30159D02*
X40413D01*
X40398Y29056D02*
X40605Y28848D01*
X39975Y29056D02*
X40398D01*
X40296Y28802D02*
X40474Y28979D01*
X40605Y28848D02*
X41357D01*
X40120Y29056D02*
X40375Y28802D01*
X35523Y31498D02*
X37338Y29683D01*
Y29390D02*
Y29840D01*
X35162Y29390D02*
Y29840D01*
X35467Y29002D02*
X37384Y30919D01*
X36502Y28599D02*
X37338Y29436D01*
X35162Y29704D02*
X35864Y29002D01*
X35101Y30072D02*
X37338Y32309D01*
X35162Y29414D02*
X37416Y31669D01*
X35120Y30465D02*
X37338Y28246D01*
X35056Y29091D02*
X35251Y28897D01*
X36502Y27881D02*
X37375Y28754D01*
X37338Y28120D02*
Y28570D01*
X36126Y29002D02*
X36502Y28626D01*
Y28364D02*
X37377Y27489D01*
X36202Y27575D02*
X36502Y27874D01*
Y28626D01*
X35374Y29002D02*
X36126D01*
X35032Y28897D02*
X35172D01*
X35269D02*
X35374Y29002D01*
X35172Y28897D02*
X35269D01*
X35172D02*
X35269D01*
X40498Y26198D02*
Y26448D01*
X40066Y25697D02*
X40544Y26176D01*
X39961Y26311D02*
X40098Y26448D01*
X40544Y24894D02*
Y26198D01*
X40066Y25580D02*
Y26030D01*
X39892Y26448D02*
X40498D01*
X39868Y26434D02*
X40544Y25758D01*
X36344Y26367D02*
X38409Y24302D01*
X40062Y25522D02*
X40544Y25040D01*
X39388Y24302D02*
X40544Y25458D01*
X39710Y25156D02*
X40564Y24302D01*
X38998Y25149D02*
X39846Y24302D01*
X37815Y25149D02*
X39635D01*
X37233Y24302D02*
X38081Y25149D01*
X38280D02*
X39127Y24302D01*
X38670D02*
X39518Y25149D01*
X37952Y24302D02*
X38799Y25149D01*
X36502Y27162D02*
X37351Y28011D01*
X36387Y27760D02*
X37340Y26807D01*
X37338Y26850D02*
Y27300D01*
X36502Y26927D02*
X37385Y26044D01*
X36502Y26524D02*
Y27276D01*
X36202Y27575D02*
X36502Y27276D01*
X35005Y26383D02*
X35072Y26451D01*
X35078Y24302D02*
X37397Y26621D01*
X36126Y26148D02*
X36502Y26524D01*
X35016Y26507D02*
X35374Y26148D01*
X37384Y25580D02*
Y26030D01*
X35844Y26148D02*
X37690Y24302D01*
X36515D02*
X37500Y25287D01*
X35796Y24302D02*
X37384Y25890D01*
X35162Y25822D02*
X35488Y26148D01*
X35374D02*
X36126D01*
X35162Y25580D02*
Y26030D01*
X35153Y26121D02*
X36972Y24302D01*
X35134Y25421D02*
X36254Y24302D01*
X30748Y29916D02*
X31043Y30210D01*
X30748Y30504D02*
X31043Y30210D01*
X31876Y28788D02*
X32113Y29026D01*
X32248D02*
X32457Y28817D01*
X30748Y29164D02*
X31124Y28788D01*
X28893Y29611D02*
X32396Y33114D01*
X28664Y28664D02*
X30748Y30748D01*
X28664Y28664D02*
X30748Y30748D01*
X29321Y30516D02*
X32406Y27430D01*
X29132Y29986D02*
X32410Y26709D01*
X29023Y28304D02*
X30986Y30267D01*
X32388Y28120D02*
Y28570D01*
Y26850D02*
Y27300D01*
X32113Y29026D02*
X32557D01*
X31767Y28788D02*
X32388Y28167D01*
X31124Y28788D02*
X31876D01*
X30460Y26868D02*
X32592Y28999D01*
X30101Y27227D02*
X31662Y28788D01*
X29741Y27586D02*
X31034Y28879D01*
X29374Y31181D02*
X30748Y29807D01*
Y29164D02*
Y29916D01*
X27949Y28827D02*
X28501D01*
X29382Y27945D02*
X30748Y29312D01*
X28108Y28827D02*
X28517Y29236D01*
X28023Y28940D02*
X28136Y28827D01*
X27501Y30375D02*
X27969Y30842D01*
X27501Y30231D02*
Y30876D01*
X27949Y28827D02*
X28501D01*
X27692D02*
X27949D01*
X28501D02*
X28777Y28551D01*
X28501Y28827D02*
X28777Y28551D01*
X27439Y27439D02*
X27723Y27723D01*
X27798Y27079D02*
X28196Y27477D01*
X28157Y26720D02*
X28555Y27118D01*
X27439Y27439D02*
X27723Y27723D01*
X27154D02*
X27226Y27651D01*
X27154Y27723D02*
X27949D01*
X27154D02*
X27226Y27651D01*
X25377Y26823D02*
X26399D01*
X25312Y26748D02*
X25377Y26814D01*
X32101Y26354D02*
X32422Y26674D01*
X31383Y26354D02*
X32393Y27364D01*
X34360Y24302D02*
X37338Y27280D01*
X23749Y26748D02*
X34912Y15586D01*
X30973Y26354D02*
X32516D01*
X30819Y26508D02*
X32390Y28080D01*
X25829Y26823D02*
X37622Y15031D01*
X25186Y26748D02*
X36349Y15586D01*
X24467Y26748D02*
X35630Y15586D01*
X33297Y25103D02*
X34098Y24302D01*
X32923D02*
X33724Y25103D01*
X34731Y25106D02*
X35535Y24302D01*
X34015Y25103D02*
X34817Y24302D01*
X33641D02*
X34443Y25103D01*
X32865D02*
X34685D01*
X30973Y25251D02*
X32520D01*
X31712D02*
X32661Y24302D01*
X32431Y25251D02*
X33380Y24302D01*
X31486D02*
X32435Y25251D01*
X28477Y29205D02*
X31327Y26354D01*
X28777Y28551D02*
X30973Y26354D01*
X28516Y26361D02*
X28914Y26759D01*
X28846Y29554D02*
X32046Y26354D01*
X29235Y25643D02*
X29632Y26040D01*
X28875Y26002D02*
X29273Y26399D01*
X27803Y27723D02*
X31225Y24302D01*
X27226Y27651D02*
X30576Y24302D01*
X27949Y27723D02*
X30146Y25527D01*
X26399Y26823D02*
X29748Y23474D01*
X23652Y22215D02*
X27330Y25893D01*
X23652Y22933D02*
X26970Y26252D01*
X30422Y25251D02*
X30973D01*
X30422D02*
X30973D01*
X30146Y25527D02*
X30422Y25251D01*
X30767Y24302D02*
X31717Y25251D01*
X30994D02*
X31943Y24302D01*
X30312Y24565D02*
X30998Y25251D01*
X30146Y25527D02*
X30422Y25251D01*
X29953Y24924D02*
X30351Y25322D01*
X29594Y25283D02*
X29992Y25681D01*
X24625Y21752D02*
X28048Y25174D01*
X23907Y21752D02*
X27689Y25534D01*
X40107Y24302D02*
X40700Y24894D01*
X40690D02*
X41283Y24302D01*
X40544Y25040D02*
X40690Y24894D01*
X39774Y15031D02*
Y15632D01*
X39457Y15031D02*
X39774Y15348D01*
X36680Y15254D02*
X36904Y15031D01*
X33046Y23198D02*
X40613Y15632D01*
X33765Y23198D02*
X41331Y15632D01*
X34444Y15586D02*
X36680D01*
Y15031D02*
Y15586D01*
X34444Y14362D02*
Y15586D01*
X36726Y10969D02*
X39774D01*
X39528D02*
X39774Y10723D01*
Y10368D02*
Y10969D01*
X36726Y10863D02*
X36833Y10969D01*
X36680Y15031D02*
X39774D01*
X36726Y10368D02*
Y10969D01*
X34398Y10368D02*
X36726D01*
X32399Y13002D02*
X34444Y15047D01*
Y14224D02*
Y14362D01*
X34398Y12908D02*
Y13092D01*
Y14362D01*
Y12727D02*
Y12908D01*
X34279Y12727D02*
X34398Y12845D01*
Y12908D02*
Y13092D01*
X33017Y12902D02*
X34398Y14282D01*
X33736Y12902D02*
X34398Y13564D01*
X32748Y12902D02*
X34252D01*
Y12727D02*
Y12902D01*
Y12727D02*
X34398D01*
X32626Y13002D02*
X32748Y12879D01*
X34252Y11623D02*
X34398D01*
X34206Y11216D02*
X34398Y11408D01*
X34252Y11448D02*
Y11623D01*
X34398Y10368D02*
Y11623D01*
X34206Y10498D02*
X34398Y10690D01*
X34206Y11263D02*
X34398Y11070D01*
X32748Y11448D02*
Y11621D01*
X32603Y11456D02*
X32794Y11264D01*
X32626Y11498D02*
X32748Y11621D01*
X32794Y11264D02*
Y11448D01*
X36537Y10368D02*
X40800Y6106D01*
X36685Y5793D02*
X41261Y10368D01*
X36325Y6152D02*
X40542Y10368D01*
X38974Y5303D02*
X39777Y6106D01*
X38974Y5209D02*
X39871Y6106D01*
X35607Y6152D02*
X39824Y10368D01*
X35818D02*
X40081Y6106D01*
X34888Y6152D02*
X39706Y10969D01*
X34206Y10544D02*
X39211Y5539D01*
X35100Y10368D02*
X39570Y5898D01*
X33169Y10144D02*
X38974Y4339D01*
Y3697D02*
X39777Y2894D01*
X38974Y3697D02*
Y5303D01*
X37152Y4006D02*
X40656Y502D01*
X38578D02*
X40971Y2894D01*
X37860Y502D02*
X40252Y2894D01*
X36423Y502D02*
X39296Y3375D01*
X36599Y3122D02*
X39219Y502D01*
X34986D02*
X38974Y4490D01*
X37152Y4725D02*
X41375Y502D01*
X36958Y3481D02*
X39938Y502D01*
X37141D02*
X39656Y3016D01*
X34674Y6152D02*
X36326D01*
X37152Y5326D01*
X34206Y10144D02*
Y11448D01*
X33887Y10144D02*
X38974Y5057D01*
X37152Y3674D02*
Y5326D01*
X33848Y3674D02*
Y5326D01*
X32794Y10144D02*
Y10236D01*
Y10144D02*
X34206D01*
X33848Y5326D02*
X34674Y6152D01*
X32603Y10044D02*
X32794Y10236D01*
X36326Y2848D02*
X37152Y3674D01*
X34717Y2848D02*
X37064Y502D01*
X34674Y2848D02*
X36326D01*
X35704Y502D02*
X38974Y3772D01*
X36154Y2848D02*
X38501Y502D01*
X35436Y2848D02*
X37783Y502D01*
X33848Y3717D02*
X34717Y2848D01*
X32831Y502D02*
X35177Y2848D01*
X33848Y3674D02*
X34674Y2848D01*
X34267Y502D02*
X38974Y5209D01*
X33549Y502D02*
X35896Y2848D01*
X32204Y24302D02*
X33006Y25103D01*
X29748Y23474D02*
X30024Y23198D01*
X29748Y23474D02*
X30024Y23198D01*
X30576D01*
X25655Y13442D02*
X35412Y23198D01*
X30024D02*
X30576D01*
X25002Y20691D02*
X28766Y24456D01*
X24956Y19927D02*
X29126Y24097D01*
X24985Y21393D02*
X28407Y24815D01*
X23656Y13598D02*
X33256Y23198D01*
X24936Y13442D02*
X34693Y23198D01*
X23656Y14316D02*
X32538Y23198D01*
X31609D02*
X39774Y15034D01*
X32328Y23198D02*
X39895Y15632D01*
X30173Y23198D02*
X38340Y15031D01*
X26869Y13219D02*
X36848Y23198D01*
X30891D02*
X39059Y15031D01*
X31874Y13002D02*
X32626D01*
X25002Y20624D02*
Y21376D01*
X24718Y20340D02*
X25002Y20624D01*
X24626Y21752D02*
X25002Y21376D01*
X26373Y13442D02*
X36130Y23198D01*
X24494Y13442D02*
X26646D01*
X24603Y19044D02*
X24956Y19397D01*
X23712Y21589D02*
X23874Y21752D01*
X24626D01*
X23652Y20348D02*
Y20471D01*
X23782Y20340D01*
X24718Y20340D02*
X24956Y20103D01*
X23652Y20380D02*
X23737Y20295D01*
X23652Y22535D02*
X24435Y21752D01*
X23652Y21698D02*
Y21802D01*
Y23152D01*
Y21817D02*
X23795Y21673D01*
X23652Y21589D02*
Y21698D01*
Y21802D01*
X24956Y19397D02*
Y20103D01*
X23897Y19044D02*
X24603D01*
X23544Y20103D02*
X23782Y20340D01*
X23544Y19397D02*
X23897Y19044D01*
X23544Y19397D02*
Y20103D01*
X23656Y13910D02*
X24309Y13257D01*
X23656Y13422D02*
Y14578D01*
X27722Y10479D02*
X40441Y23198D01*
X27722Y11999D02*
X34122Y5599D01*
X27722Y11281D02*
X33848Y5154D01*
X27802Y502D02*
X38269Y10969D01*
X28520Y502D02*
X38988Y10969D01*
X27722Y10563D02*
X33848Y4436D01*
X27587Y12500D02*
X38285Y23198D01*
X27722Y11916D02*
X39004Y23198D01*
X27228Y12859D02*
X37567Y23198D01*
X27722Y11198D02*
X39722Y23198D01*
X27083Y502D02*
X37551Y10969D01*
X24928Y502D02*
X34795Y10368D01*
X27177Y9670D02*
X36346Y502D01*
X29957D02*
X33848Y4393D01*
X27537Y10029D02*
X33848Y3717D01*
X31394Y502D02*
X34207Y3315D01*
X32112Y502D02*
X34567Y2956D01*
X30675Y502D02*
X33848Y3675D01*
X25646Y502D02*
X35513Y10368D01*
X25554Y9138D02*
X34190Y502D01*
X24209D02*
X33852Y10144D01*
X26365Y502D02*
X36232Y10368D01*
X26818Y9311D02*
X35627Y502D01*
X26272Y9138D02*
X34909Y502D01*
X31498Y12626D02*
X31874Y13002D01*
X31498Y11874D02*
Y12626D01*
X26646Y13442D02*
X27722Y12366D01*
X31498Y11874D02*
X31874Y11498D01*
X32626D01*
X27722Y10214D02*
Y12366D01*
X25002Y21185D02*
X33285Y12902D01*
X24923Y20545D02*
X32467Y13002D01*
X24956Y19794D02*
X31811Y12939D01*
X24795Y19237D02*
X31498Y12533D01*
X24269Y19044D02*
X31877Y11436D01*
X23540Y13307D02*
X23950Y12897D01*
X31897Y11456D02*
X32603D01*
X31544Y10397D02*
Y11103D01*
X31897Y10044D02*
X32603D01*
X31544Y10397D02*
X31897Y10044D01*
X31544Y11103D02*
X31897Y11456D01*
X26646Y9138D02*
X27722Y10214D01*
X24494Y9138D02*
X26646D01*
X29238Y502D02*
X33848Y5112D01*
X24835Y9138D02*
X33472Y502D01*
X22075Y66498D02*
X30302Y58272D01*
X23099Y58302D02*
X31296Y66498D01*
X23044Y58302D02*
X25096D01*
X22794Y66498D02*
X31020Y58272D01*
X23512Y66498D02*
X35424Y54586D01*
X22018Y57221D02*
X23099Y58302D01*
X20638Y66498D02*
X29135Y58002D01*
X21357Y66498D02*
X29584Y58272D01*
X19920Y66498D02*
X28775Y57643D01*
X19202Y66498D02*
X28416Y57284D01*
X18721Y54642D02*
X30577Y66498D01*
X22018Y57276D02*
X23044Y58302D01*
X22102Y52994D02*
X23306Y54198D01*
X23044D02*
X25096D01*
X22102Y53712D02*
X22816Y54427D01*
X23166Y52622D02*
X24743Y54198D01*
X23044Y52622D02*
X25096D01*
X22102Y53540D02*
X23032Y52610D01*
X22018Y55224D02*
X23044Y54198D01*
X21932Y54261D02*
X22457Y54786D01*
X21546Y52438D02*
X22102Y52994D01*
X21699Y51873D02*
X24025Y54198D01*
X22018Y52906D02*
X22673Y52251D01*
X21659Y52546D02*
X22314Y51891D01*
X22018Y55224D02*
Y57276D01*
X20876Y54642D02*
X22018Y55784D01*
X20449Y54642D02*
X21551D01*
X22102Y54091D01*
Y52989D02*
Y54091D01*
X21573Y54620D02*
X22098Y55145D01*
X19245Y54448D02*
X22018Y57221D01*
X19898Y54091D02*
X20449Y54642D01*
X19051D02*
X19602Y54091D01*
Y54086D02*
X22018Y56503D01*
X19898Y52989D02*
Y54091D01*
X19602Y52989D02*
Y54091D01*
X21551Y52438D02*
X22102Y52989D01*
X20449Y52438D02*
X21551D01*
X19898Y52989D02*
X20449Y52438D01*
X21129Y52022D02*
X21546Y52438D01*
X20449Y52022D02*
X21551D01*
X21048Y52438D02*
X21465Y52022D01*
X19602Y53885D02*
X19898Y53588D01*
X19602Y53367D02*
X19898Y53664D01*
X19051Y52438D02*
X19602Y52989D01*
Y53167D02*
X20747Y52022D01*
X19331Y52719D02*
X20239Y51811D01*
X18974Y52022D02*
X19920Y52967D01*
X22018Y51596D02*
X23044Y52622D01*
X22059Y51514D02*
X23166Y52622D01*
X22018Y51554D02*
X22102Y51471D01*
X21513Y49818D02*
X32208Y39124D01*
X21695Y44685D02*
X26626Y49616D01*
X22018Y49544D02*
X23044Y48518D01*
X18639Y49818D02*
X29334Y39124D01*
X19824Y47124D02*
X22131Y49431D01*
X19105Y47124D02*
X22018Y50037D01*
X19564Y50331D02*
X30771Y39124D01*
X20795Y49818D02*
X31489Y39124D01*
X19204Y49972D02*
X30052Y39124D01*
X21695Y43248D02*
X26626Y48179D01*
X21695Y42530D02*
X26626Y47460D01*
X23044Y48518D02*
X25096D01*
X22502Y41899D02*
X26813Y46210D01*
X22502Y41181D02*
X27108Y45787D01*
X22286Y42402D02*
X26626Y46742D01*
X20891Y46754D02*
X22850Y48713D01*
X21260Y46405D02*
X23374Y48518D01*
X20422Y47004D02*
X22490Y49072D01*
X21695Y43966D02*
X26626Y48897D01*
X21695Y45403D02*
X24810Y48518D01*
X21532Y45958D02*
X24092Y48518D01*
X19898Y51471D02*
X20449Y52022D01*
X21551D02*
X22018Y51554D01*
X19602Y51011D02*
X19898Y50715D01*
Y50369D02*
Y51471D01*
Y50369D02*
X20449Y49818D01*
X19602Y50494D02*
X19898Y50791D01*
X19372Y51701D02*
X20279Y52608D01*
X18893Y52438D02*
X19898Y51433D01*
X19051Y52022D02*
X19602Y51471D01*
Y51212D02*
X20828Y52438D01*
X19051Y49818D02*
X19602Y50369D01*
Y51471D01*
X21551Y49818D02*
X22018Y50286D01*
X21891Y50159D02*
X22018Y50032D01*
X20449Y49818D02*
X21551D01*
X22018Y49544D02*
Y50286D01*
X19750Y47124D02*
X20008D01*
X18893D02*
X19750D01*
X19133Y45733D02*
X20305Y44561D01*
X18893Y45733D02*
X19750D01*
X15609Y66498D02*
X23806Y58302D01*
X16328Y66498D02*
X24525Y58302D01*
X14891Y66498D02*
X23088Y58302D01*
X14173Y66498D02*
X22707Y57964D01*
X12982Y55368D02*
X24112Y66498D01*
X13454D02*
X22348Y57605D01*
X12982Y56805D02*
X22675Y66498D01*
X12982Y56087D02*
X23393Y66498D01*
X12736D02*
X22018Y57216D01*
X9862Y66498D02*
X23739Y52622D01*
X10580Y66498D02*
X24457Y52622D01*
X11299Y66498D02*
X22018Y55779D01*
X17765Y66498D02*
X28378Y55885D01*
X16565Y54642D02*
X28422Y66498D01*
X18483D02*
X28378Y56603D01*
X18002Y54642D02*
X29859Y66498D01*
X17046D02*
X30270Y53274D01*
X17167Y54525D02*
X29140Y66498D01*
X14364Y54596D02*
X26267Y66498D01*
X4500D02*
X50000D01*
X13646Y54596D02*
X25548Y66498D01*
X14805Y54318D02*
X26985Y66498D01*
X15056Y53850D02*
X27704Y66498D01*
X11566Y53234D02*
X24830Y66498D01*
X11604Y58302D02*
X19801Y66498D01*
X12139Y58118D02*
X20519Y66498D01*
X10886Y58302D02*
X19083Y66498D01*
X12858Y57400D02*
X21956Y66498D01*
X12017D02*
X22018Y56497D01*
X12498Y57759D02*
X21238Y66498D01*
X10167Y58302D02*
X18364Y66498D01*
X6988D02*
X18845Y54642D01*
X6270Y66498D02*
X18127Y54642D01*
X8425Y66498D02*
X20366Y54558D01*
X9144Y66498D02*
X21000Y54642D01*
X7707Y66498D02*
X20006Y54199D01*
X17949Y54642D02*
X19051D01*
X18085Y52438D02*
X19051D01*
X17500Y54192D02*
X17949Y54642D01*
X18256Y52022D02*
X18673Y52438D01*
X17949Y52022D02*
X19051D01*
X18175Y52438D02*
X18591Y52022D01*
X7902Y63430D02*
X16690Y54642D01*
X15949D02*
X17051D01*
X7902Y62711D02*
X15971Y54642D01*
X7902Y64148D02*
X17679Y54371D01*
X17051Y54642D02*
X17500Y54192D01*
X15398Y54091D02*
X15949Y54642D01*
X18267Y49159D02*
X18926Y49818D01*
X18267D02*
X19051D01*
X18267Y47750D02*
Y49818D01*
X18514Y47251D02*
X21082Y49818D01*
X18267Y49473D02*
X28615Y39124D01*
X18267Y47723D02*
X20406Y49861D01*
X17500Y51572D02*
X17949Y52022D01*
X502Y49354D02*
X17646Y66498D01*
X13564Y49864D02*
X20305Y43124D01*
X12982Y49729D02*
X20305Y42406D01*
X18267Y48440D02*
X20047Y50221D01*
X18267Y48754D02*
X19897Y47124D01*
X18267Y48036D02*
X19179Y47124D01*
X18336Y45812D02*
X20305Y43843D01*
X18635Y45733D02*
X18893D01*
X15695Y42995D02*
X18477Y45777D01*
X15695Y43714D02*
X17949Y45968D01*
X12715Y49277D02*
X19590Y42402D01*
X12356Y48918D02*
X19498Y41775D01*
X15820Y42402D02*
X19152Y45733D01*
X17445Y51628D02*
X17500Y51572D01*
X15949Y49818D02*
X16876D01*
X15398Y50369D02*
X15949Y49818D01*
X14765Y50101D02*
X16876Y47990D01*
X14283Y49864D02*
X16955Y47193D01*
X15056Y50529D02*
X16876Y48708D01*
X502Y50791D02*
X16209Y66498D01*
X502Y50073D02*
X16927Y66498D01*
X12858Y46624D02*
X16053Y49818D01*
X502Y49996D02*
X16498Y33999D01*
X13577Y46624D02*
X16771Y49818D01*
X502Y50714D02*
X16498Y34717D01*
X16876Y47750D02*
Y49818D01*
Y47492D02*
Y47750D01*
X16484Y49818D02*
X16876Y49426D01*
X15648Y45104D02*
X17199Y46655D01*
X15695Y44432D02*
X17528Y46265D01*
X14742Y46352D02*
X16876Y48487D01*
X15144Y46036D02*
X16876Y47768D01*
X14234Y46563D02*
X16876Y49205D01*
X15450Y45624D02*
X16970Y47143D01*
X502Y49277D02*
X16027Y33752D01*
X22502Y39744D02*
X28029Y45271D01*
X22665Y37752D02*
X30146Y45233D01*
X22502Y42364D02*
X26670Y38195D01*
X23354Y37723D02*
X30865Y45233D01*
X23414Y35627D02*
X33020Y45233D01*
X22502Y41646D02*
X26411Y37737D01*
X22502Y40462D02*
X27509Y45470D01*
X21695Y45326D02*
X27962Y39059D01*
X21695Y44607D02*
X27441Y38861D01*
X21495Y38019D02*
X28710Y45233D01*
X21946Y37752D02*
X29428Y45233D01*
X21695Y43889D02*
X27015Y38569D01*
X23326Y37752D02*
X23702Y37376D01*
X23392Y36314D02*
X23702Y36624D01*
X23392Y35627D02*
Y36314D01*
X23502Y34996D02*
X26603Y38097D01*
X23392Y35627D02*
X23502D01*
X23392Y35727D02*
X23491Y35627D01*
X22502Y40927D02*
X26255Y37173D01*
X22574Y37752D02*
X23326D01*
X21495Y39060D02*
X22804Y37752D01*
X22394Y39598D02*
X26233Y35759D01*
X21675Y39598D02*
X26233Y35040D01*
X22502Y40209D02*
X26233Y36477D01*
X21695Y42402D02*
X22502D01*
Y41052D02*
Y42402D01*
X21695Y43170D02*
X22464Y42402D01*
X22502Y40948D02*
Y41052D01*
Y39598D02*
Y40948D01*
Y41052D01*
X21695Y45179D02*
Y45437D01*
X19862Y45722D02*
X20293Y45291D01*
X20305Y42402D02*
Y45179D01*
X21695Y42402D02*
Y45179D01*
X20131Y42402D02*
X20305Y42576D01*
X22356Y39598D02*
X22502Y39744D01*
X21499Y39598D02*
X22502D01*
X21574Y37752D02*
X22326D01*
X22450Y37627D01*
X22574Y37752D01*
X21495Y37673D02*
X21574Y37752D01*
X21495Y39456D02*
X21638Y39598D01*
X21495Y38737D02*
X22356Y39598D01*
X19791Y37752D02*
X20105Y38065D01*
X21495Y37673D02*
Y39553D01*
Y38341D02*
X22085Y37752D01*
X20105D02*
Y39598D01*
X23502Y34278D02*
X26233Y37010D01*
X23502Y35617D02*
X25367Y33752D01*
X23502D02*
Y35627D01*
Y34898D02*
X24648Y33752D01*
X23502D02*
X25377D01*
X23502Y34180D02*
X23930Y33752D01*
X23457Y36380D02*
X26213Y33624D01*
X22098Y33349D02*
X22702D01*
X22098D02*
X22702D01*
X23099Y32952D02*
Y33349D01*
X22177D02*
X23099Y32427D01*
X22896Y33349D02*
X23099Y33146D01*
Y31548D02*
Y32152D01*
Y31548D02*
Y32152D01*
Y32348D01*
Y30748D02*
Y31352D01*
Y30748D02*
Y31352D01*
Y31548D01*
Y32348D02*
Y32952D01*
Y32348D02*
Y32952D01*
X22702Y33349D02*
X23099D01*
X20740D02*
X23099Y30991D01*
X20625Y30683D02*
X23099Y33157D01*
X21459Y33349D02*
X23099Y31709D01*
X21102Y33349D02*
X21298D01*
X21902D01*
X20498D02*
X21102D01*
X21298D02*
X21902D01*
X22098D01*
X20706Y32200D02*
X21854Y33349D01*
X19698D02*
X20302D01*
X20498D01*
X19698D02*
X20302D01*
X20498D02*
X21102D01*
X20423Y32636D02*
X21136Y33349D01*
X19774Y32706D02*
X20417Y33349D01*
X20353Y32706D02*
X20706Y32353D01*
Y31647D02*
Y32353D01*
X20353Y31294D02*
X20706Y31647D01*
X20353Y30956D02*
X20706Y30603D01*
X19647Y32706D02*
X20353D01*
X19647Y31294D02*
X20353D01*
X19647Y30956D02*
X20353D01*
X20179D02*
X22573Y33349D01*
X19921Y31294D02*
X20260Y30956D01*
X16502Y41646D02*
X20258Y45402D01*
X19498Y42402D02*
X20305D01*
X19498Y41052D02*
Y42402D01*
X16502Y40928D02*
X20305Y44731D01*
X16502Y40209D02*
X20305Y44013D01*
X16502Y41898D02*
X20105Y38295D01*
X16502Y42365D02*
X19859Y45722D01*
X15695Y44141D02*
X19498Y40338D01*
X15695Y44860D02*
X19498Y41057D01*
X15677Y38667D02*
X20305Y43294D01*
X16353Y38624D02*
X19498Y41769D01*
X15695Y43423D02*
X19498Y39620D01*
Y40948D02*
Y41052D01*
Y39598D02*
Y40948D01*
Y41052D01*
X19520Y39598D02*
X20105Y39014D01*
X19374Y37752D02*
X20105D01*
X19498Y39598D02*
X20105D01*
X17469Y38304D02*
X19498Y40333D01*
X17849Y37964D02*
X19498Y39614D01*
X16985Y38537D02*
X19498Y41051D01*
X18128Y37525D02*
X20105Y39502D01*
X19073Y37752D02*
X20105Y38784D01*
X16502Y41180D02*
X19930Y37752D01*
X16502Y40948D02*
Y41052D01*
Y40948D02*
Y41052D01*
Y42402D01*
Y40461D02*
X19293Y37670D01*
X16502Y39743D02*
X18493Y37752D01*
X16502Y39598D02*
Y40948D01*
X15695Y42705D02*
X15998Y42402D01*
X15695D02*
X16502D01*
X15667Y39598D02*
X16502D01*
X15928D02*
X16991Y38535D01*
X15667Y39375D02*
X15891Y39598D01*
X18374Y37752D02*
X19126D01*
X19250Y37627D01*
X18134Y37511D02*
X18374Y37752D01*
X19250Y37627D02*
X19374Y37752D01*
X15667Y39141D02*
X16184Y38624D01*
X15750D02*
X16421D01*
X16680D01*
X15750Y37233D02*
X16421D01*
X17902Y33349D02*
X18098D01*
X18702D01*
X17298D02*
X17902D01*
X18702D02*
X18898D01*
X17867D02*
X19294Y31921D01*
X18098Y33349D02*
X18702D01*
X16901D02*
X17298D01*
X17902D01*
X16498Y35627D02*
X16905D01*
X16901Y31988D02*
X18262Y33349D01*
X16855Y31223D02*
X18981Y33349D01*
X16901Y32706D02*
X17544Y33349D01*
X19304D02*
X19947Y32706D01*
X19502Y33349D02*
X19698D01*
X19294Y31647D02*
X19647Y31294D01*
X19294Y31647D02*
Y32353D01*
X18898Y33349D02*
X19502D01*
X18898D02*
X19502D01*
X18585D02*
X19438Y32496D01*
X19294Y32353D02*
X19647Y32706D01*
X19294Y30603D02*
X19647Y30956D01*
X17148Y33349D02*
X19594Y30903D01*
X15492Y37233D02*
X15750D01*
X16138D02*
X16905Y36466D01*
Y35627D02*
Y36750D01*
X16498Y33752D02*
Y35627D01*
X6386Y45548D02*
X16498Y35436D01*
X15369Y37283D02*
X16905Y35748D01*
X13622Y34456D02*
X16399Y37233D01*
X13981Y34097D02*
X16852Y36968D01*
X14490Y33887D02*
X16905Y36302D01*
X15073Y33752D02*
X16498Y35177D01*
X16901Y32348D02*
Y32952D01*
Y32348D02*
Y32952D01*
Y33349D01*
Y31548D02*
Y32348D01*
X16855Y30794D02*
Y31306D01*
Y30794D02*
Y31306D01*
X15791Y33752D02*
X16498Y34459D01*
X14626Y33752D02*
X16498D01*
X16855Y31306D02*
Y31548D01*
X12982Y55476D02*
X13862Y54596D01*
X12748Y54991D02*
X13308Y54431D01*
X12982Y55224D02*
Y57276D01*
Y56913D02*
X15601Y54294D01*
X12982Y56195D02*
X15398Y53778D01*
X12944Y54068D02*
X13472Y54596D01*
X7902Y61065D02*
X13335Y66498D01*
X11956Y58302D02*
X12982Y57276D01*
X7902Y61783D02*
X12617Y66498D01*
X11812Y54198D02*
X12982Y55368D01*
X11956Y54198D02*
X12982Y55224D01*
X12389Y54632D02*
X12949Y54072D01*
X14528Y54596D02*
X15056Y54068D01*
Y53132D02*
X15398Y53475D01*
Y52989D02*
Y54091D01*
X15056Y53402D02*
X15398Y53059D01*
X15056Y53012D02*
Y54068D01*
X13472Y54596D02*
X14528D01*
X12030Y54273D02*
X12944Y53358D01*
Y53012D02*
Y54068D01*
X12098Y53048D02*
X12944Y53894D01*
X7902Y63220D02*
X11180Y66498D01*
X7902Y62502D02*
X11898Y66498D01*
X7902Y60799D02*
Y64201D01*
Y61993D02*
X11593Y58302D01*
X7902Y61275D02*
X10875Y58302D01*
X8878Y57276D02*
X9904Y58302D01*
X7674Y64429D02*
X9743Y66498D01*
X7902Y63938D02*
X10462Y66498D01*
X7314Y64788D02*
X9025Y66498D01*
X7780Y60678D02*
X10156Y58302D01*
X7421Y60319D02*
X9671Y58068D01*
X7062Y59959D02*
X9312Y57709D01*
X9904Y58302D02*
X11956D01*
X9904Y54198D02*
X11956D01*
X10922Y53309D02*
X11812Y54198D01*
X10063Y53168D02*
X11093Y54198D01*
X10667D02*
X11654Y53212D01*
X9949Y54198D02*
X10840Y53308D01*
X8878Y55269D02*
X9949Y54198D01*
X8878Y55224D02*
X9904Y54198D01*
X8878Y55224D02*
Y57276D01*
X8332Y52874D02*
X9780Y54322D01*
X9050Y52874D02*
X10375Y54198D01*
X7750Y52874D02*
X9449D01*
X15398Y52989D02*
X15514Y52874D01*
X15020Y51483D02*
X15411D01*
X15056Y50977D02*
X15398Y51319D01*
Y50369D02*
Y51471D01*
X15056Y51247D02*
X15398Y50904D01*
X15056Y50392D02*
Y51448D01*
X12944Y53012D02*
X13083Y52874D01*
X14917D02*
X15056Y53012D01*
X12411Y52874D02*
X13083D01*
X14917D02*
X15514D01*
X11421Y46624D02*
X15398Y50601D01*
X13472Y49864D02*
X14528D01*
X12982Y50355D02*
X13472Y49864D01*
X14528D02*
X15056Y50392D01*
X12982Y49621D02*
X13349Y49988D01*
X12982Y49544D02*
Y50355D01*
X10703Y46624D02*
X13943Y49864D01*
X11956Y48518D02*
X12982Y49544D01*
X11879Y48518D02*
X12982Y49621D01*
X12140Y46624D02*
X15642Y50126D01*
X11996Y48559D02*
X13931Y46624D01*
X11318Y48518D02*
X13213Y46624D01*
X11386Y54198D02*
X12710Y52874D01*
X12642D02*
X12944Y53176D01*
X7750Y51483D02*
X8878D01*
Y49544D02*
Y51483D01*
X7643Y51475D02*
X8878Y50240D01*
X8354Y51483D02*
X8878Y50958D01*
X7613Y52874D02*
X9421Y54682D01*
X7492Y52874D02*
X7750D01*
X7017Y50122D02*
X8378Y51483D01*
X7184Y51216D02*
X11776Y46624D01*
X7023Y50847D02*
X7653Y51477D01*
X8548Y46624D02*
X10442Y48518D01*
X9904D02*
X11956D01*
X8878Y49544D02*
X9904Y48518D01*
X9984Y46624D02*
X11879Y48518D01*
X10600D02*
X12494Y46624D01*
X9266D02*
X11160Y48518D01*
X7017Y49228D02*
X9621Y46624D01*
X7178Y46691D02*
X9455Y48968D01*
X7017Y47248D02*
X9095Y49327D01*
X7829Y46624D02*
X9814Y48609D01*
X7017Y48509D02*
X8902Y46624D01*
X5552Y66498D02*
X6148Y65902D01*
X5554D02*
X6151Y66498D01*
X4836Y65902D02*
X5433Y66498D01*
X6596Y65506D02*
X7588Y66498D01*
X6955Y65147D02*
X8306Y66498D01*
X6237Y65866D02*
X6869Y66498D01*
X4117Y65902D02*
X4714Y66498D01*
X3519Y66376D02*
X3993Y65902D01*
X3399D02*
X3959Y66462D01*
X4833Y66498D02*
X5430Y65902D01*
X4132Y66481D02*
X4711Y65902D01*
X6148D02*
X7902Y64148D01*
X5935Y59098D02*
X7902Y61065D01*
X6201Y65902D02*
X7902Y64201D01*
X6702Y59600D02*
X8953Y57350D01*
X6343Y59241D02*
X8878Y56706D01*
X6201Y59098D02*
X7902Y60799D01*
X2799Y65902D02*
X6201D01*
X2799Y59098D02*
X6201D01*
X2979Y66198D02*
X3275Y65902D01*
X502Y55820D02*
X3780Y59098D01*
X5767D02*
X8878Y55987D01*
X502Y56538D02*
X3062Y59098D01*
X2497Y65961D02*
X2678Y65780D01*
X2067Y65673D02*
X2319Y65421D01*
X1683Y65338D02*
X1959Y65062D01*
X1098Y64201D02*
X2799Y65902D01*
X1346Y64957D02*
X1600Y64702D01*
X1098Y60799D02*
Y64201D01*
X804Y64025D02*
X2975Y66196D01*
X1055Y64529D02*
X1241Y64343D01*
X815Y64051D02*
X1098Y63767D01*
X538Y63041D02*
X1098Y63601D01*
X522Y62907D02*
X1098Y62330D01*
X633Y63515D02*
X1098Y63049D01*
Y60894D02*
X2894Y59098D01*
X1098Y60799D02*
X2799Y59098D01*
X502Y59412D02*
X1494Y60404D01*
X502Y57975D02*
X2212Y59686D01*
X502Y57257D02*
X2571Y59326D01*
X502Y58694D02*
X1853Y60045D01*
X502Y62209D02*
X1098Y61612D01*
X502Y61567D02*
X1098Y62164D01*
X502Y62286D02*
X1098Y62883D01*
X502Y60849D02*
X1098Y61446D01*
X502Y60131D02*
X1134Y60763D01*
X502Y61490D02*
X1098Y60894D01*
X3612Y59098D02*
X9695Y53015D01*
X4330Y59098D02*
X10215Y53214D01*
X5049Y59098D02*
X8878Y55269D01*
X2894Y59098D02*
X9118Y52874D01*
X502Y47917D02*
X8878Y56294D01*
X502Y48636D02*
X8878Y57013D01*
X502Y52946D02*
X14054Y66498D01*
X502Y60772D02*
X8400Y52874D01*
X502Y60054D02*
X7681Y52874D01*
X502Y52228D02*
X14772Y66498D01*
X502Y51510D02*
X15490Y66498D01*
X502Y59335D02*
X7073Y52763D01*
X7017Y48685D02*
X8878Y50547D01*
X7017Y47967D02*
X8878Y49828D01*
X7017Y49404D02*
X8878Y51265D01*
X7017Y50665D02*
X11058Y46624D01*
X7017Y49946D02*
X10339Y46624D01*
X7017Y47000D02*
Y50750D01*
X6453Y52432D02*
X9062Y55041D01*
X502Y48559D02*
X15309Y33752D01*
X502Y47840D02*
X14340Y34002D01*
X502Y47199D02*
X8878Y55576D01*
X502Y56461D02*
X5691Y51272D01*
X502Y55025D02*
X5626Y49900D01*
X502Y55743D02*
X5626Y50619D01*
X502Y53588D02*
X5626Y48463D01*
X502Y52869D02*
X5626Y47745D01*
X502Y54306D02*
X5626Y49182D01*
X502Y54383D02*
X5217Y59098D01*
X502Y53665D02*
X5935Y59098D01*
X502Y55102D02*
X4498Y59098D01*
X502Y58617D02*
X6590Y52529D01*
X502Y57898D02*
X6199Y52201D01*
X502Y57180D02*
X5896Y51786D01*
X5626Y47000D02*
Y50750D01*
Y51008D01*
X502Y43607D02*
X5626Y48731D01*
X502Y42888D02*
X5626Y48013D01*
X502Y44325D02*
X5626Y49450D01*
X502Y46481D02*
X6068Y52047D01*
X502Y51433D02*
X5941Y45993D01*
X502Y52151D02*
X5626Y47026D01*
X502Y45044D02*
X5626Y50168D01*
X502Y45762D02*
X5626Y50887D01*
X13908Y45210D02*
X14282Y44837D01*
X15695Y44679D02*
Y44937D01*
Y42402D02*
Y44679D01*
X14305Y42402D02*
Y44679D01*
X13167Y45233D02*
X14305Y44095D01*
X13750Y46624D02*
X14008D01*
X12448Y45233D02*
X14305Y43377D01*
X11730Y45233D02*
X14305Y42658D01*
X11011Y45233D02*
X13843Y42402D01*
X14276Y38707D02*
Y39598D01*
X15667Y38707D02*
Y39598D01*
X13773D02*
X14276Y39095D01*
Y38449D02*
Y38707D01*
X13665Y42402D02*
X14305Y43042D01*
X13498Y42402D02*
X14305D01*
X13498Y39598D02*
X14276D01*
X11206Y35632D02*
X14276Y38702D01*
X11206Y34914D02*
X14402Y38110D01*
X10961Y36106D02*
X14276Y39421D01*
X13498Y42235D02*
X13665Y42402D01*
X13498Y40948D02*
Y41052D01*
Y42402D01*
Y39598D02*
Y40948D01*
X11206Y37069D02*
X13735Y39598D01*
X13498Y40948D02*
Y41052D01*
X10293Y45233D02*
X13498Y42028D01*
X10156Y37456D02*
X13498Y40798D01*
X10147Y37456D02*
X10853D01*
X10863Y37445D02*
X13498Y40080D01*
X9794Y37094D02*
X10156Y37456D01*
X9794Y37103D02*
X10147Y37456D01*
X11206Y36397D02*
Y37103D01*
X10914Y36106D02*
X11206Y36397D01*
X10853Y37456D02*
X11206Y37103D01*
X11206Y34802D02*
Y36106D01*
Y34981D02*
X11560Y34627D01*
X10914Y36106D02*
X11206D01*
X13451Y34627D02*
X13727Y34351D01*
X14076Y34002D01*
X13451Y34627D02*
X13727Y34351D01*
X14076Y34002D02*
X14376D01*
X14626Y33752D01*
X13448Y32224D02*
X13557Y32116D01*
X11637Y34627D02*
X14692Y37681D01*
X12356Y34627D02*
X15109Y37380D01*
X12899Y34627D02*
X13451D01*
X13074D02*
X15681Y37233D01*
X11945Y33523D02*
X13455Y32013D01*
X12899Y34627D02*
X13451D01*
X14669Y30794D02*
Y31110D01*
X14513Y30955D02*
X14669Y30800D01*
X14353Y30794D02*
X14669Y31110D01*
Y30794D02*
Y31110D01*
X13294Y31853D02*
X13557Y32116D01*
X13448Y32224D02*
X13557Y32116D01*
X13647Y30794D02*
X14353D01*
X13294Y31147D02*
X13647Y30794D01*
X11252Y34627D02*
X12899D01*
X11252Y33523D02*
X12899D01*
X11252Y33348D02*
Y33523D01*
X12663D02*
X13248Y32938D01*
X11252Y33498D02*
X13294Y31456D01*
X12899Y33523D02*
X13248Y33174D01*
X11206Y36418D02*
X12997Y34627D01*
X11206Y35700D02*
X12279Y34627D01*
X11252D02*
Y34802D01*
X11206Y32758D02*
X11971Y33523D01*
X11217Y32052D02*
X12689Y33523D01*
X11206Y32052D02*
Y33348D01*
X13248Y32874D02*
X13448Y32674D01*
Y32224D02*
Y32674D01*
X13248Y32874D02*
Y33174D01*
X13448Y32224D02*
Y32674D01*
X13294Y31147D02*
Y31853D01*
X11252Y30652D02*
Y32052D01*
Y31367D02*
X13153Y33269D01*
X11252Y30649D02*
X13363Y32760D01*
X11052Y30652D02*
X11252D01*
X7393Y46624D02*
X13750D01*
X7393Y45233D02*
X13750D01*
X9575D02*
X13498Y41309D01*
X8856Y45233D02*
X13498Y40591D01*
X8138Y45233D02*
X13498Y39873D01*
X502Y34267D02*
X11467Y45233D01*
X502Y47122D02*
X10168Y37456D01*
X502Y46404D02*
X9798Y37107D01*
X502Y36423D02*
X9312Y45233D01*
X502Y45685D02*
X10081Y36106D01*
X502Y34986D02*
X10749Y45233D01*
X502Y35704D02*
X10031Y45233D01*
X7419D02*
X14326Y38327D01*
X9794Y36106D02*
X10086D01*
X9794Y36397D02*
Y37103D01*
X6332Y33632D02*
X9794Y37094D01*
Y36397D02*
X10086Y36106D01*
X9794Y34802D02*
Y36106D01*
X502Y44967D02*
X9794Y35674D01*
X502Y44248D02*
X9794Y34956D01*
X502Y43530D02*
X9748Y34283D01*
X4196Y33652D02*
X14305Y43760D01*
X5633Y33652D02*
X13498Y41517D01*
X4915Y33652D02*
X13498Y42235D01*
X7017Y47791D02*
X8184Y46624D01*
X7017Y47073D02*
X7466Y46624D01*
X502Y42170D02*
X5626Y47295D01*
X502Y41452D02*
X5668Y46618D01*
X5626Y46742D02*
Y47000D01*
X502Y40015D02*
X6191Y45705D01*
X502Y39296D02*
X6618Y45412D01*
X502Y40733D02*
X5871Y46103D01*
X7135Y45233D02*
X7393D01*
X502Y39219D02*
X6070Y33652D01*
X502Y38501D02*
X5351Y33652D01*
X4128D02*
X6332D01*
X6714Y33606D02*
X8826D01*
X502Y37783D02*
X4633Y33652D01*
X502Y37860D02*
X7875Y45233D01*
X502Y37141D02*
X8594Y45233D01*
X502Y38578D02*
X7157Y45233D01*
X502Y40656D02*
X7552Y33606D01*
X502Y39938D02*
X6834Y33606D01*
X7024D02*
X9805Y36387D01*
X8461Y33606D02*
X9794Y34939D01*
X7742Y33606D02*
X9794Y35658D01*
X502Y42093D02*
X9794Y32800D01*
X8826Y33252D02*
X9748Y34175D01*
Y33348D02*
Y34802D01*
X502Y33549D02*
X12186Y45233D01*
X502Y32831D02*
X12904Y45233D01*
X502Y42812D02*
X9748Y33565D01*
X502Y31394D02*
X14160Y45052D01*
X502Y30675D02*
X14305Y44478D01*
X502Y32112D02*
X13623Y45233D01*
X9794Y32052D02*
Y33348D01*
X9299Y31877D02*
X9748D01*
X9299D02*
X9748D01*
Y32052D01*
Y30652D02*
X9948D01*
X9606Y31877D02*
X9748Y32019D01*
X8826Y32534D02*
X9748Y33456D01*
X8826Y33051D02*
X9794Y32082D01*
X8826Y32332D02*
X9290Y31868D01*
X8826Y31815D02*
X9794Y32784D01*
X9023Y31601D02*
X9299Y31877D01*
X9023Y31601D02*
X9299Y31877D01*
X6332Y33389D02*
X6714Y33007D01*
X4128Y33584D02*
X4196Y33652D01*
X6714Y31293D02*
Y33606D01*
X8826Y31403D02*
Y33606D01*
X6332Y31676D02*
Y33652D01*
X502Y41375D02*
X8271Y33606D01*
X502Y36346D02*
X4128Y32719D01*
X502Y37064D02*
X4128Y33437D01*
X502Y34909D02*
X4128Y31282D01*
Y30848D02*
Y33652D01*
X502Y35627D02*
X4128Y32000D01*
X6431Y31576D02*
X6714Y31859D01*
X8826Y31614D02*
X8931Y31508D01*
X8826Y31403D02*
X9023Y31601D01*
X6332Y31676D02*
X6714Y31293D01*
X6332Y32671D02*
X6714Y32288D01*
X6332Y32195D02*
X6714Y32578D01*
X6332Y32913D02*
X6714Y33296D01*
X6332Y31952D02*
X6714Y31570D01*
X4128Y30848D02*
X5504D01*
X23099Y29948D02*
Y30552D01*
Y29948D02*
Y30552D01*
Y30748D01*
Y29148D02*
Y29752D01*
Y29148D02*
Y29752D01*
Y29948D01*
X20706Y31947D02*
X23099Y29554D01*
X20469Y29090D02*
X23099Y31720D01*
X20706Y30045D02*
X23099Y32438D01*
X20706Y28608D02*
X23099Y31001D01*
X20685Y27151D02*
X23099Y29565D01*
X20496Y31438D02*
X23099Y28835D01*
X23456Y26329D02*
X23875Y26748D01*
X23456D02*
X25377D01*
X23099Y27105D02*
Y27548D01*
X23456Y24919D02*
Y26748D01*
Y25611D02*
X24593Y26748D01*
X23139Y24919D02*
X23456D01*
X23099Y28348D02*
Y28952D01*
X22076Y27105D02*
X23099Y28128D01*
Y28952D02*
Y29148D01*
X22795Y27105D02*
X23099Y27409D01*
X22656Y27105D02*
X23099D01*
Y28152D02*
Y28348D01*
Y27548D02*
Y28152D01*
Y28348D02*
Y28952D01*
X21404Y27151D02*
X23099Y28846D01*
Y27548D02*
Y28152D01*
X20706Y28355D02*
X21955Y27105D01*
X20706Y30510D02*
X23099Y28117D01*
X20706Y28147D02*
Y28853D01*
X20706Y29897D02*
Y30603D01*
X20653Y29845D02*
X23099Y27399D01*
X20450Y27892D02*
X21191Y27151D01*
X20353Y27794D02*
X20706Y28147D01*
X22144Y27105D02*
X22656D01*
X22144D02*
X22656D01*
X22144Y24919D02*
X22398D01*
X22144D02*
X22398D01*
X20498Y27151D02*
X21102D01*
X21902D01*
X20498D02*
X21102D01*
X21902Y27105D02*
X22144D01*
X21902Y24919D02*
X22144D01*
X23474Y24193D02*
X26105Y26823D01*
X23456Y26323D02*
X34444Y15335D01*
X23474Y23878D02*
Y24584D01*
X23456Y25605D02*
X34444Y14617D01*
X23474Y24149D02*
X34398Y13226D01*
X23423Y24919D02*
X34398Y13944D01*
X23311Y24748D02*
X25312Y26748D01*
X23139Y24919D02*
X23474Y24584D01*
X23152Y23152D02*
X26611Y26611D01*
X23152Y23152D02*
X26611Y26611D01*
X23122Y23526D02*
X23474Y23878D01*
X22661Y23526D02*
X23035Y23152D01*
X23251Y23655D02*
X34004Y12902D01*
X23427Y14806D02*
X31819Y23198D01*
X23058Y15156D02*
X31101Y23198D01*
X22416Y23526D02*
X23122D01*
X22152Y23152D02*
X23652D01*
X22433D02*
X22807Y23526D01*
X21134Y14668D02*
X29844Y23378D01*
X22340Y15156D02*
X30383Y23198D01*
X20775Y15028D02*
X29485Y23738D01*
X21986Y24919D02*
X22192Y24713D01*
X22063Y24584D02*
X22398Y24919D01*
X21102Y24873D02*
X21902D01*
X21314D02*
X22063Y24124D01*
X21227Y24101D02*
X22045Y24919D01*
X20498Y24873D02*
X21102D01*
X20498D02*
X21102D01*
X20508Y24819D02*
X20562Y24873D01*
X20454D02*
X21676Y23652D01*
X20595Y24873D02*
X22317Y23152D01*
X20868Y24460D02*
X21281Y24873D01*
X22063Y23878D02*
Y24584D01*
Y23878D02*
X22416Y23526D01*
X21952Y23152D02*
Y23376D01*
X22148Y22977D02*
Y23152D01*
X22152Y22977D02*
Y23152D01*
X21952D02*
X22148D01*
X21586Y23741D02*
X22063Y24218D01*
X21945Y23382D02*
X22252Y23689D01*
X21676Y23652D02*
X21952Y23376D01*
Y23152D02*
Y23376D01*
X21676Y23652D02*
X21952Y23376D01*
X20022Y33349D02*
X23099Y30272D01*
X19967Y27151D02*
X23099Y30283D01*
X20353Y29544D02*
X20706Y29897D01*
X19866Y29206D02*
X20205Y29544D01*
X16901Y30551D02*
X19699Y33349D01*
X16901Y32159D02*
X19855Y29206D01*
X19647Y29544D02*
X20353D01*
X16901Y28396D02*
X19800Y31294D01*
X20353Y29206D02*
X20706Y28853D01*
X19829Y27794D02*
X20472Y27151D01*
X20302D02*
X20498D01*
X19698D02*
X20302D01*
X19647Y29206D02*
X20353D01*
X19647Y27794D02*
X20353D01*
X19698Y27151D02*
X20302D01*
X19249D02*
X19892Y27794D01*
X19294Y29897D02*
Y30603D01*
Y29897D02*
X19647Y29544D01*
X16901Y29752D02*
Y30552D01*
Y27677D02*
X19294Y30071D01*
X16901Y29148D02*
Y29752D01*
Y29148D02*
Y29752D01*
Y32878D02*
X19294Y30485D01*
X16901Y29833D02*
X19294Y32226D01*
X16855Y30552D02*
Y30794D01*
X16901Y29114D02*
X19364Y31577D01*
X16855Y31487D02*
X19392Y28950D01*
X16855Y30769D02*
X19294Y28329D01*
Y28853D02*
X19647Y29206D01*
X19294Y28147D02*
X19647Y27794D01*
X19294Y28147D02*
Y28853D01*
X18898Y27151D02*
X19502D01*
X19698D01*
X16901D02*
X17298D01*
X16901Y28348D02*
Y29148D01*
X16855Y28152D02*
Y28348D01*
X16901Y29286D02*
X19036Y27151D01*
X16901Y28567D02*
X18317Y27151D01*
X16901Y27849D02*
X17599Y27151D01*
X18530D02*
X19410Y28031D01*
X18098Y27151D02*
X18702D01*
X18098D02*
X18702D01*
X20234Y29544D02*
X22674Y27105D01*
X18898Y27151D02*
X19502D01*
X18702D02*
X18898D01*
X16901Y30004D02*
X19754Y27151D01*
X17093D02*
X19567Y29625D01*
X17298Y27151D02*
X17902D01*
X17812D02*
X19294Y28634D01*
X17902Y27151D02*
X18098D01*
X17298D02*
X17902D01*
X19148Y21698D02*
Y21802D01*
X19152Y21698D02*
Y21802D01*
X16498Y24873D02*
X16955D01*
X18462Y502D02*
X41159Y23198D01*
X19181Y502D02*
X41877Y23198D01*
X19695Y8919D02*
X33975Y23198D01*
X10985Y25144D02*
X16983Y19146D01*
X16148Y23152D02*
X16955D01*
X14706Y26452D02*
X16955Y24203D01*
X9445Y17348D02*
X16955Y24857D01*
X11206Y24205D02*
X16980Y18430D01*
X10420Y17604D02*
X16955Y24139D01*
X16901Y27151D02*
Y28152D01*
X15846Y26748D02*
X16498Y26096D01*
X14623Y26748D02*
X16498D01*
Y24873D02*
Y26748D01*
X14624Y25816D02*
X16955Y23485D01*
X15128Y26748D02*
X16498Y25378D01*
X11252Y27033D02*
X16148Y22136D01*
X11206Y26360D02*
X16148Y21417D01*
X11252Y27751D02*
X16148Y22854D01*
X502Y10559D02*
X16498Y26556D01*
X502Y9841D02*
X16498Y25838D01*
X11206Y25642D02*
X16148Y20699D01*
X16955Y23152D02*
Y24873D01*
X16686Y23152D02*
X16955Y23420D01*
X14177Y25544D02*
X16569Y23152D01*
X16148Y21698D02*
Y21802D01*
Y21698D02*
Y21802D01*
Y23152D01*
X10875Y23817D02*
X16768Y17924D01*
X10179Y23794D02*
X16323Y17651D01*
X11158Y17624D02*
X16148Y22614D01*
X502Y9123D02*
X16498Y25119D01*
X11877Y17624D02*
X16148Y21896D01*
X22106Y20394D02*
Y21017D01*
X22148Y20348D02*
Y20974D01*
X22965Y20348D02*
X23544Y19769D01*
X22148Y20348D02*
X23652D01*
X22148Y20446D02*
X22246Y20348D01*
X20694Y20394D02*
X22106D01*
X19327D02*
X26279Y13442D01*
X18654Y20348D02*
X25561Y13442D01*
X18697Y15105D02*
X23544Y19952D01*
X21922Y15156D02*
X23078D01*
X23656Y14578D01*
X21344D02*
X21922Y15156D01*
X21202Y14017D02*
X21344Y14160D01*
X19512Y15202D02*
X23626Y19316D01*
X20231Y15202D02*
X24073Y19044D01*
X18374Y19192D02*
X22410Y15156D01*
X18374Y18473D02*
X21807Y15040D01*
X21202Y14209D02*
X21344Y14066D01*
X20601Y15202D02*
X21202Y14601D01*
X20606Y21198D02*
X20694D01*
X20606Y20606D02*
X20694Y20694D01*
X20606Y21198D02*
X20694D01*
Y20394D02*
Y21198D01*
X20606Y20606D02*
X20694Y20694D01*
X20606Y20394D02*
Y21198D01*
X19152Y21698D02*
Y21802D01*
X19194Y20394D02*
Y21698D01*
X19152Y20348D02*
Y21698D01*
X20606Y20552D02*
X20694Y20463D01*
X19194Y20394D02*
X20606D01*
X19194Y20527D02*
X19327Y20394D01*
X20694Y20463D02*
X20763Y20394D01*
X19399Y15202D02*
X20601D01*
X19000Y14802D02*
X19399Y15202D01*
X18374Y19092D02*
X19676Y20394D01*
X18374Y20348D02*
X19152D01*
X18374Y19811D02*
X18912Y20348D01*
X18374Y18242D02*
Y18500D01*
X18601Y15202D02*
X19000Y14802D01*
X18374Y18500D02*
Y20348D01*
X20763Y20394D02*
X35006Y6152D01*
X22246Y20348D02*
X31544Y11050D01*
X23418Y12366D02*
X24494Y13442D01*
X21482Y20394D02*
X35725Y6152D01*
X20617Y502D02*
X31744Y11628D01*
X21336Y502D02*
X31544Y10710D01*
X20045Y20394D02*
X34481Y5958D01*
X19695Y12123D02*
X31317Y502D01*
X19695Y11405D02*
X30598Y502D01*
X19738Y12798D02*
X32035Y502D01*
X20457Y12798D02*
X32754Y502D01*
X19899D02*
X31498Y12101D01*
X19695Y9968D02*
X29162Y502D01*
X19695Y9249D02*
X28443Y502D01*
X23418Y10214D02*
X24494Y9138D01*
X23491Y502D02*
X33134Y10144D01*
X22773Y502D02*
X32315Y10044D01*
X22054Y502D02*
X31747Y10194D01*
X19327Y7462D02*
X26288Y502D01*
X19027Y7044D02*
X25569Y502D01*
X18657Y6696D02*
X24851Y502D01*
X19695Y10686D02*
X29880Y502D01*
X19681Y8545D02*
X27725Y502D01*
X19552Y7955D02*
X27006Y502D01*
X21344Y13422D02*
Y14578D01*
X23078Y12844D02*
X23656Y13422D01*
X23181Y12948D02*
X23591Y12538D01*
X21344Y13422D02*
X21922Y12844D01*
X19695Y11793D02*
X21344Y13442D01*
X20601Y12798D02*
X21202Y13399D01*
Y14601D01*
Y13490D02*
X23418Y11274D01*
X20888Y13086D02*
X23418Y10555D01*
X19695Y11074D02*
X21694Y13073D01*
X21922Y12844D02*
X23078D01*
X19695Y12798D02*
X20601D01*
X19695Y12511D02*
X19983Y12798D01*
X22566Y12844D02*
X23418Y11992D01*
Y10214D02*
Y12366D01*
X19695Y8563D02*
Y8821D01*
Y10356D02*
X22184Y12844D01*
X19695Y9637D02*
X22902Y12844D01*
X19695Y8821D02*
Y12798D01*
X19598Y8103D02*
X23418Y11924D01*
X18374Y18374D02*
X20394Y20394D01*
X18374Y18374D02*
X20394Y20394D01*
X18075Y15202D02*
X23222Y20348D01*
X18374Y19910D02*
X24843Y13442D01*
X18279Y17850D02*
X21448Y14681D01*
X18049Y17330D02*
X21113Y20394D01*
X15469Y17624D02*
X16983Y19138D01*
X16370Y14933D02*
X21831Y20394D01*
X16702Y14546D02*
X22504Y20348D01*
X18061Y17350D02*
X20209Y15202D01*
X17752Y16940D02*
X19490Y15202D01*
X17399D02*
X18601D01*
X16885Y16371D02*
X18054Y15202D01*
X17362Y16612D02*
X19086Y14888D01*
X17583Y12798D02*
X18305Y12077D01*
X17399Y12798D02*
X18305D01*
X15920Y15202D02*
X17277Y16558D01*
X16304Y16233D02*
X17367Y15170D01*
X15585Y16233D02*
X17008Y14810D01*
X16798Y13399D02*
X17399Y12798D01*
X16483Y13180D02*
X18305Y11358D01*
X16798Y14601D02*
X17399Y15202D01*
X16148Y20348D02*
X16983D01*
X16499D02*
X16983Y19864D01*
X16148Y20348D02*
Y21698D01*
X16983Y18500D02*
Y20348D01*
X16191Y17628D02*
X16979Y18416D01*
X13313Y17624D02*
X16148Y20459D01*
X14032Y17624D02*
X16756Y20348D01*
X12595Y17624D02*
X16148Y21177D01*
X14750Y17624D02*
X16983Y19857D01*
X10790Y16233D02*
X16107D01*
X16702Y14398D02*
X16798Y14302D01*
X16702Y13828D02*
X16798Y13925D01*
X16107Y16233D02*
X16365D01*
X16798Y13399D02*
Y14601D01*
X16702Y13680D02*
X16798Y13583D01*
X16702Y13399D02*
Y14601D01*
X15202Y15202D02*
X16233Y16233D01*
X16101Y15202D02*
X16702Y14601D01*
X15202Y15202D02*
X16233Y16233D01*
X14582Y10990D02*
X16895Y13303D01*
X16101Y12798D02*
X16702Y13399D01*
X18305Y8821D02*
Y12798D01*
X16138Y7517D02*
X18305Y9684D01*
X16124Y12821D02*
X18305Y10640D01*
X17025Y502D02*
X25662Y9138D01*
X17744Y502D02*
X26381Y9138D01*
X16307Y502D02*
X24944Y9138D01*
X12715Y502D02*
X23418Y11205D01*
X13433Y502D02*
X23418Y10487D01*
X15419Y7517D02*
X18305Y10402D01*
X14870Y502D02*
X24001Y9632D01*
X15588Y502D02*
X24360Y9273D01*
X14152Y502D02*
X23641Y9991D01*
X16353Y6126D02*
X21977Y502D01*
X18217Y6417D02*
X24133Y502D01*
X17698Y6218D02*
X23414Y502D01*
X17071Y6126D02*
X22696Y502D01*
X13479Y6126D02*
X19104Y502D01*
X4500D02*
X50000D01*
X12761Y6126D02*
X18385Y502D01*
X14916Y6126D02*
X20540Y502D01*
X15634Y6126D02*
X21259Y502D01*
X14198Y6126D02*
X19822Y502D01*
X15428Y12798D02*
X18305Y9922D01*
X14582Y12208D02*
X18269Y8520D01*
X14582Y10271D02*
X17254Y12944D01*
X14582Y11489D02*
X18039Y8032D01*
X14701Y7517D02*
X18305Y11120D01*
X14582Y10771D02*
X17658Y7695D01*
X11275Y16233D02*
X18305Y9203D01*
X12546Y7517D02*
X17827Y12798D01*
X14501Y10133D02*
X17113Y7522D01*
X13264Y7517D02*
X18305Y12557D01*
X13983Y7517D02*
X18305Y11839D01*
X14142Y9774D02*
X16399Y7517D01*
X16856D02*
X18305Y8965D01*
X17000Y6126D02*
X17258D01*
X11996Y502D02*
X17718Y6224D01*
X12042Y6126D02*
X17667Y502D01*
X11324Y6126D02*
X16948Y502D01*
X10500Y7517D02*
X17000D01*
X10500Y6126D02*
X17000D01*
X10559Y502D02*
X16184Y6126D01*
X11278Y502D02*
X16902Y6126D01*
X10605D02*
X16230Y502D01*
X14669Y30552D02*
Y30794D01*
X13915Y30439D02*
X14271Y30794D01*
X13197Y30439D02*
X13600Y30842D01*
X14623Y30439D02*
Y30552D01*
X14669Y30439D02*
Y30552D01*
X13956Y30794D02*
X14311Y30439D01*
X11206Y32826D02*
X13592Y30439D01*
X11252D02*
X14623D01*
X11206Y32108D02*
X12874Y30439D01*
X11760D02*
X13497Y32176D01*
X12479Y30439D02*
X13294Y31255D01*
X12026Y28498D02*
X12248D01*
X14669Y28348D02*
Y28498D01*
X14623Y28348D02*
Y28498D01*
X14669Y28152D02*
Y28348D01*
X13952Y27602D02*
X14669Y28319D01*
X14096Y28498D02*
X14623Y27972D01*
X13952Y28320D02*
X14130Y28498D01*
X13952D02*
X14623D01*
X11941D02*
X12248Y28191D01*
X13952Y27532D02*
Y28498D01*
X11252Y28469D02*
X12248Y27473D01*
Y27532D02*
Y28498D01*
X11252Y31343D02*
X12156Y30439D01*
X11252Y30625D02*
X11437Y30439D01*
X11052Y30598D02*
X11252D01*
Y30439D02*
Y30598D01*
X9748Y27902D02*
Y29198D01*
Y29302D01*
Y30598D02*
X9948D01*
X9399Y30322D02*
X9748Y29973D01*
X9302Y30224D02*
X9748Y30671D01*
X9040Y29963D02*
X9748Y29254D01*
Y29198D02*
Y29302D01*
Y30598D01*
X11474Y28498D02*
X12026D01*
X11474D02*
X12026D01*
X11276D02*
X11474D01*
X11252Y27775D02*
X11975Y28498D01*
X11154Y27848D02*
X11252Y27751D01*
Y27902D02*
Y28474D01*
X11052Y27902D02*
X11252D01*
X9748Y27848D02*
X9948D01*
X9748Y27902D02*
X9948D01*
X9748Y27727D02*
Y27848D01*
X11052D02*
X11252D01*
X9048Y27727D02*
X9748Y28427D01*
X13952Y27925D02*
X14623Y27253D01*
X13927Y27231D02*
X14202Y26956D01*
X13952Y27256D02*
Y27532D01*
X14623Y26748D02*
Y28152D01*
X14353Y26956D02*
X14706Y26603D01*
X14024Y26956D02*
X14623Y27554D01*
X13875Y27180D02*
X13952Y27256D01*
X13727Y26956D02*
X14353D01*
X14548Y26761D02*
X14623Y26836D01*
X14706Y26200D02*
X15254Y26748D01*
X14706Y25897D02*
Y26603D01*
X14353Y25544D02*
X14706Y25897D01*
X13294Y26603D02*
X13445Y26753D01*
X13039Y26682D02*
X13294Y26427D01*
X13647Y25544D02*
X14353D01*
X13294Y25897D02*
X13647Y25544D01*
X12248Y27256D02*
X12325Y27180D01*
X12248Y27256D02*
Y27532D01*
X11252Y27057D02*
X12248Y28054D01*
X13294Y25897D02*
Y26603D01*
X11252Y26448D02*
Y27848D01*
X11206Y26292D02*
X12248Y27335D01*
X9506Y26623D02*
X9794Y26335D01*
X9748Y26448D02*
Y26623D01*
X11206Y25574D02*
X12530Y26899D01*
X11204Y24854D02*
X13033Y26683D01*
X9794Y25144D02*
Y26448D01*
X11206Y25144D02*
Y26448D01*
X10914Y25144D02*
X11206D01*
X10914D02*
X11206Y24853D01*
Y24147D02*
Y24853D01*
X9794D02*
X10086Y25144D01*
X9794D02*
X10086D01*
X9794Y24147D02*
Y24853D01*
X8474Y29948D02*
X9026D01*
X8474D02*
X9026D01*
X6956D02*
X8474D01*
X6817Y27652D02*
X9748Y30583D01*
X9026Y29948D02*
X9302Y30224D01*
X9026Y29948D02*
X9302Y30224D01*
X4562Y30848D02*
X7759Y27652D01*
X5281Y30848D02*
X8402Y27727D01*
X502Y34190D02*
X7041Y27652D01*
X5334Y27606D02*
X7677Y29948D01*
X6053Y27606D02*
X8396Y29948D01*
X4616Y27606D02*
X6959Y29948D01*
X8336D02*
X9748Y28536D01*
X8119Y27727D02*
X8671D01*
X8119D02*
X8671D01*
X9748D01*
X8872Y26623D02*
X9748D01*
X8329Y27727D02*
X9748Y29146D01*
X6899Y29948D02*
X9121Y27727D01*
X7617Y29948D02*
X9748Y27817D01*
X6668Y27652D02*
X8044D01*
X7536D02*
X9748Y29864D01*
X8044Y27652D02*
X8119Y27727D01*
X8044Y27652D02*
X8119Y27727D01*
X502Y31317D02*
X4213Y27606D01*
X5504Y30848D02*
X6128Y30224D01*
X502Y27802D02*
X4128Y31428D01*
X502Y27083D02*
X4267Y30848D01*
X502Y26365D02*
X4985Y30848D01*
X502Y30598D02*
X4174Y26925D01*
X502Y29238D02*
X4128Y32865D01*
X502Y28520D02*
X4128Y32147D01*
X502Y29957D02*
X4128Y33584D01*
X502Y33472D02*
X6668Y27305D01*
X502Y32754D02*
X5650Y27606D01*
X502Y32035D02*
X4931Y27606D01*
X6404Y29948D02*
X6956D01*
X6404D02*
X6956D01*
X6668Y27503D02*
X6817Y27652D01*
X6286Y26970D02*
X6668Y26587D01*
X6286Y26401D02*
X6668Y26784D01*
X6286Y27120D02*
X6668Y27503D01*
X6128Y30224D02*
X6404Y29948D01*
X6128Y30224D02*
X6404Y29948D01*
X4174Y27606D02*
X6286D01*
X502Y29880D02*
X4174Y26207D01*
X8872Y26539D02*
X9794Y25616D01*
X8872Y25395D02*
X9794Y26318D01*
X8872Y26114D02*
X9381Y26623D01*
X8872Y24848D02*
Y26623D01*
Y25820D02*
X9817Y24875D01*
X6668Y24848D02*
Y27652D01*
X502Y28443D02*
X11321Y17624D01*
X502Y27725D02*
X10602Y17624D01*
X502Y27006D02*
X9981Y17527D01*
X502Y11278D02*
X15972Y26748D01*
X502Y13433D02*
X13294Y26226D01*
X502Y26288D02*
X9443Y17347D01*
X8872Y25102D02*
X9794Y24179D01*
X4769Y24894D02*
X12039Y17624D01*
X502Y18462D02*
X6888Y24848D01*
X5487Y24894D02*
X12758Y17624D01*
X6206Y24894D02*
X13476Y17624D01*
X502Y17025D02*
X8325Y24848D01*
X502Y16307D02*
X9794Y25600D01*
X502Y25569D02*
X8972Y17099D01*
X502Y24851D02*
X8559Y16794D01*
X502Y12715D02*
X13489Y25702D01*
X502Y11996D02*
X14050Y25544D01*
X502Y15588D02*
X10058Y25144D01*
X6286Y26251D02*
X6668Y25868D01*
X6286Y24894D02*
Y27606D01*
X502Y22773D02*
X4174Y26446D01*
Y24894D02*
Y27606D01*
X502Y25646D02*
X5604Y30749D01*
X502Y24928D02*
X5963Y30389D01*
X502Y29162D02*
X4174Y25489D01*
X502Y24209D02*
X6322Y30030D01*
X502Y23491D02*
X4174Y27164D01*
X502Y4500D02*
Y62500D01*
X6286Y25533D02*
X6668Y25150D01*
X6286Y24965D02*
X6668Y25347D01*
X6286Y25683D02*
X6668Y26066D01*
X6215Y24894D02*
X6286Y24965D01*
X4174Y24894D02*
X6286D01*
X502Y21336D02*
X4174Y25009D01*
X502Y20617D02*
X4779Y24894D01*
X502Y22054D02*
X4174Y25727D01*
X502Y19181D02*
X6215Y24894D01*
X502Y19899D02*
X5497Y24894D01*
X14148Y16233D02*
X15180Y15202D01*
X14867Y16233D02*
X15898Y15202D01*
X13430Y16233D02*
X14680Y14983D01*
X12723Y13442D02*
X15515Y16233D01*
X14298Y14601D02*
X14899Y15202D01*
X12712Y16233D02*
X14321Y14624D01*
X8407Y24848D02*
X15631Y17624D01*
X10790D02*
X16107D01*
X7688Y24848D02*
X14913Y17624D01*
X11993Y16233D02*
X14298Y13928D01*
X12005Y13442D02*
X14796Y16233D01*
X8767Y10922D02*
X14078Y16233D01*
X14899Y15202D02*
X16101D01*
X14298Y13399D02*
X14899Y12798D01*
X14298Y13399D02*
Y14601D01*
X14582Y11708D02*
X15672Y12798D01*
X14899D02*
X16101D01*
X14551Y12396D02*
X14954Y12798D01*
X13442Y13442D02*
X14298Y14298D01*
X13833Y13114D02*
X14298Y13580D01*
X13442Y13442D02*
X14298Y14298D01*
X13506Y13442D02*
X14582Y12366D01*
X13348Y13442D02*
X14582Y12208D01*
X14192Y12755D02*
X14567Y13130D01*
X10147Y23794D02*
X10853D01*
X11206Y24147D01*
X10532Y17624D02*
X10790D01*
X9794Y24179D02*
X10179Y23794D01*
X9794Y24147D02*
X10147Y23794D01*
X8767Y13077D02*
X11923Y16233D01*
X8767Y12359D02*
X12641Y16233D01*
X8767Y13796D02*
X11204Y16233D01*
X10568Y16221D02*
X13348Y13442D01*
X9999Y16072D02*
X12629Y13442D01*
X9547Y15806D02*
X11911Y13442D01*
X10278Y12366D02*
X11354Y13442D01*
X13506D01*
X9188Y15446D02*
X11273Y13361D01*
X8924Y14992D02*
X10914Y13002D01*
X8778Y14420D02*
X10555Y12642D01*
X8794Y14542D02*
X10458Y16206D01*
X8767Y11640D02*
X13360Y16233D01*
X8767Y12994D02*
X10278Y11482D01*
X8767Y13712D02*
X10278Y12201D01*
X13449Y9138D02*
X14582Y10271D01*
X13506Y9138D02*
X14582Y10214D01*
Y12366D01*
X13782Y9415D02*
X15681Y7517D01*
X11827D02*
X13449Y9138D01*
X11109Y7517D02*
X12731Y9138D01*
X10278Y10214D02*
X11354Y9138D01*
X10394Y7520D02*
X12012Y9138D01*
X9814Y7658D02*
X11324Y9169D01*
X8767Y11557D02*
X12807Y7517D01*
X8767Y10838D02*
X12088Y7517D01*
X8767Y10120D02*
X11370Y7517D01*
X11904Y9138D02*
X13525Y7517D01*
X12622Y9138D02*
X14244Y7517D01*
X11354Y9138D02*
X13506D01*
X9810Y6203D02*
X15512Y502D01*
X9841D02*
X15466Y6126D01*
X13341Y9138D02*
X14962Y7517D01*
X7686Y502D02*
X13310Y6126D01*
X7902Y5956D02*
X13356Y502D01*
X7902Y5238D02*
X12638Y502D01*
X8404D02*
X14029Y6126D01*
X9123Y502D02*
X14747Y6126D01*
X7902Y4519D02*
X11919Y502D01*
X8821Y8821D02*
X10278Y10278D01*
X8821Y8821D02*
X10278Y10278D01*
Y10214D02*
Y12366D01*
X9038Y8319D02*
X10606Y9887D01*
X9371Y7935D02*
X10965Y9528D01*
X8926Y8524D02*
X9774Y7676D01*
X8767Y10204D02*
X10278Y11715D01*
X8767Y9485D02*
X10278Y10997D01*
X8767Y12275D02*
X10278Y10764D01*
X8767Y9402D02*
X10652Y7517D01*
X8767Y9250D02*
Y14210D01*
X10242Y6126D02*
X10500D01*
X7902Y3591D02*
X10437Y6126D01*
X7902Y2873D02*
X11155Y6126D01*
X7902Y3801D02*
X11201Y502D01*
X7902Y3083D02*
X10483Y502D01*
X7902Y5746D02*
X8791Y6635D01*
X7902Y5028D02*
X9258Y6384D01*
X7770Y6333D02*
X8386Y6950D01*
X7902Y4310D02*
X9798Y6206D01*
X7902Y2799D02*
Y6201D01*
X6668Y24848D02*
X8872D01*
X6970D02*
X14194Y17624D01*
X502Y21977D02*
X7471Y15008D01*
X502Y8404D02*
X7652Y15555D01*
X502Y16230D02*
X7376Y9355D01*
X502Y24133D02*
X8200Y16434D01*
X502Y23414D02*
X7896Y16020D01*
X502Y17744D02*
X7606Y24848D01*
X502Y14870D02*
X9794Y24163D01*
X502Y14152D02*
X10146Y23796D01*
X502Y22696D02*
X7649Y15548D01*
X7376Y8992D02*
Y9250D01*
Y14210D01*
X7051Y7051D02*
X7756Y7756D01*
X7410Y6692D02*
X8041Y7323D01*
X502Y15512D02*
X7453Y8560D01*
X6333Y7770D02*
X7403Y8840D01*
X502Y7686D02*
X7396Y14580D01*
X6692Y7410D02*
X7538Y8257D01*
X7051Y7051D02*
X7756Y7756D01*
X502Y6967D02*
X7376Y13842D01*
X502Y16948D02*
X7376Y10074D01*
Y14210D02*
Y14468D01*
X502Y13356D02*
X5956Y7902D01*
X502Y12638D02*
X5238Y7902D01*
X2873D02*
X7376Y12405D01*
X502Y11919D02*
X4519Y7902D01*
X502Y20540D02*
X7376Y13666D01*
X502Y19822D02*
X7376Y12948D01*
X502Y21259D02*
X7376Y14384D01*
X502Y18385D02*
X7376Y11511D01*
X502Y17667D02*
X7376Y10792D01*
X502Y19104D02*
X7376Y12229D01*
X3591Y7902D02*
X7376Y11687D01*
X4310Y7902D02*
X7376Y10968D01*
X2799Y7902D02*
X6201D01*
X5028D02*
X7376Y10250D01*
X5746Y7902D02*
X7376Y9531D01*
X502Y7609D02*
X1504Y6606D01*
X502Y11201D02*
X3801Y7902D01*
X502Y10483D02*
X3083Y7902D01*
X502Y9764D02*
X2582Y7684D01*
X502Y9046D02*
X2222Y7325D01*
X502Y8327D02*
X1863Y6966D01*
X6201Y1098D02*
X7902Y2799D01*
X6201Y7902D02*
X7902Y6201D01*
X6249Y502D02*
X11873Y6126D01*
X6967Y502D02*
X12592Y6126D01*
X7684Y2582D02*
X9764Y502D01*
X5956Y7902D02*
X7902Y5956D01*
X6127Y1098D02*
X7902Y2873D01*
X502Y6249D02*
X7376Y13123D01*
X502Y14793D02*
X14793Y502D01*
X502Y14075D02*
X14075Y502D01*
X6247Y1145D02*
X6890Y502D01*
X5575Y1098D02*
X6172Y502D01*
X5531D02*
X6127Y1098D01*
X7325Y2222D02*
X9046Y502D01*
X6966Y1863D02*
X8327Y502D01*
X6606Y1504D02*
X7609Y502D01*
X4113Y520D02*
X4691Y1098D01*
X2799D02*
X6201D01*
X3420D02*
X3983Y535D01*
X4812Y502D02*
X5409Y1098D01*
X4857D02*
X5454Y502D01*
X4138Y1098D02*
X4735Y502D01*
X1098Y6201D02*
X2799Y7902D01*
X1098Y6127D02*
X2873Y7902D01*
X520Y4113D02*
X1098Y4691D01*
Y2799D02*
Y6201D01*
X535Y3983D02*
X1098Y3420D01*
X628Y3502D02*
X1098Y3972D01*
X502Y6890D02*
X1145Y6247D01*
X502Y5531D02*
X1098Y6127D01*
X502Y6172D02*
X1098Y5575D01*
X502Y4812D02*
X1098Y5409D01*
X502Y4735D02*
X1098Y4138D01*
X502Y5454D02*
X1098Y4857D01*
X1673Y1673D02*
X1949Y1949D01*
X2055Y1336D02*
X2308Y1590D01*
X1673Y1673D02*
X1949Y1949D01*
X2964Y808D02*
X3254Y1098D01*
X3502Y628D02*
X3972Y1098D01*
X2484Y1047D02*
X2667Y1230D01*
X1047Y2484D02*
X1230Y2667D01*
X1336Y2055D02*
X1590Y2308D01*
X808Y2964D02*
X1098Y3254D01*
X789Y3011D02*
X3011Y789D01*
X1098Y2799D02*
X2799Y1098D01*
D11*
X18400Y21075D02*
G03*
X17857Y20532I0J-543D01*
G01*
X16107Y16750D02*
G03*
X17857Y18500I0J1750D01*
G01*
X10790Y16750D02*
G03*
X8250Y14210I0J-2540D01*
G01*
Y9250D02*
G03*
X10500Y7000I2250J0D01*
G01*
X17000D02*
G03*
X18821Y8821I0J1821D01*
G01*
Y13179D02*
G03*
X18000Y14000I-821J0D01*
G01*
X17500Y20475D02*
G03*
X16900Y21075I-600J0D01*
G01*
X16107Y17107D02*
G03*
X17500Y18500I0J1393D01*
G01*
X10790Y17107D02*
G03*
X7893Y14210I0J-2897D01*
G01*
Y9250D02*
G03*
X10500Y6643I2607J0D01*
G01*
X17000D02*
G03*
X19179Y8821I0J2179D01*
G01*
X20000Y14000D02*
G03*
X19179Y13179I0J-821D01*
G01*
X18000Y26012D02*
G03*
X17829Y25841I0J-171D01*
G01*
X17471Y25741D02*
G03*
X17200Y26012I-272J0D01*
G01*
X17829Y22996D02*
G03*
X18400Y22425I571J0D01*
G01*
X16900D02*
G03*
X17471Y22996I0J571D01*
G01*
X40750Y40325D02*
G03*
X40107Y39682I0J-643D01*
G01*
X38357Y36750D02*
G03*
X40107Y38500I0J1750D01*
G01*
X30000Y36750D02*
G03*
X28857Y35607I0J-1143D01*
G01*
X27129Y29272D02*
G03*
X28857Y31000I0J1728D01*
G01*
X24459Y29272D02*
G03*
X24238Y29050I0J-221D01*
G01*
X39750Y39825D02*
G03*
X39250Y40325I-500J0D01*
G01*
X38357Y37107D02*
G03*
X39750Y38500I0J1393D01*
G01*
X30000Y37107D02*
G03*
X28500Y35607I0J-1500D01*
G01*
X27129Y29629D02*
G03*
X28500Y31000I0J1371D01*
G01*
X24238Y29850D02*
G03*
X24459Y29629I221J0D01*
G01*
X36750Y40325D02*
G03*
X36107Y39682I0J-643D01*
G01*
X34857Y38250D02*
G03*
X36107Y39500I0J1250D01*
G01*
X28500Y38250D02*
G03*
X27107Y36857I0J-1393D01*
G01*
X25829Y32472D02*
G03*
X27107Y33750I0J1278D01*
G01*
X24459Y32472D02*
G03*
X24238Y32250I0J-221D01*
G01*
X35750Y39825D02*
G03*
X35250Y40325I-500J0D01*
G01*
X34857Y38607D02*
G03*
X35750Y39500I0J893D01*
G01*
X28500Y38607D02*
G03*
X26750Y36857I0J-1750D01*
G01*
X25829Y32829D02*
G03*
X26750Y33750I0J921D01*
G01*
X24238Y33050D02*
G03*
X24459Y32829I221J0D01*
G01*
X36893Y49997D02*
G03*
X36000Y50890I-893J0D01*
G01*
X36893Y48857D02*
G03*
X38500Y47250I1607J0D01*
G01*
X39821Y45929D02*
G03*
X38500Y47250I-1321J0D01*
G01*
X39250Y41675D02*
G03*
X39821Y42246I0J571D01*
G01*
X38000Y50890D02*
G03*
X37250Y50140I0J-750D01*
G01*
Y48857D02*
G03*
X38500Y47607I1250J0D01*
G01*
X40179Y45929D02*
G03*
X38500Y47607I-1679J0D01*
G01*
X40179Y42246D02*
G03*
X40750Y41675I571J0D01*
G01*
X37617Y53510D02*
G03*
X37107Y53000I0J-510D01*
G01*
X36357Y52250D02*
G03*
X37107Y53000I0J750D01*
G01*
X33429Y52240D02*
G03*
X33663Y52248I71J1270D01*
G01*
X30535Y52402D02*
G03*
X29775Y52287I-105J-1862D01*
G01*
X33691Y52250D02*
G03*
X33663Y52248I1J-230D01*
G01*
X29573Y52250D02*
G03*
X29775Y52287I-2J587D01*
G01*
X28250Y52250D02*
G03*
X27500Y51500I0J-750D01*
G01*
Y47000D02*
G03*
X28393Y46107I893J0D01*
G01*
X36179Y45179D02*
G03*
X35250Y46107I-929J0D01*
G01*
X36179Y42246D02*
G03*
X36750Y41675I571J0D01*
G01*
Y53000D02*
G03*
X36240Y53510I-510J0D01*
G01*
X36357Y52607D02*
G03*
X36750Y53000I0J393D01*
G01*
X33690Y52607D02*
G03*
X33618Y52602I1J-587D01*
G01*
X33449Y52596D02*
G03*
X33618Y52602I51J914D01*
G01*
X29572Y52607D02*
G03*
X29651Y52621I-1J230D01*
G01*
X30555Y52759D02*
G03*
X29651Y52621I-125J-2219D01*
G01*
X28250Y52607D02*
G03*
X27143Y51500I0J-1107D01*
G01*
Y47000D02*
G03*
X28393Y45750I1250J0D01*
G01*
X35821Y45179D02*
G03*
X35250Y45750I-571J0D01*
G01*
X35250Y41675D02*
G03*
X35821Y42246I0J571D01*
G01*
X17393Y50027D02*
G03*
X16500Y50920I-893J0D01*
G01*
X17393Y47750D02*
G03*
X18893Y46250I1500J0D01*
G01*
X20821Y45179D02*
G03*
X19750Y46250I-1071J0D01*
G01*
X20250Y41675D02*
G03*
X20821Y42246I0J571D01*
G01*
X18500Y50920D02*
G03*
X17750Y50170I0J-750D01*
G01*
Y47750D02*
G03*
X18893Y46607I1143J0D01*
G01*
X21179Y45179D02*
G03*
X19750Y46607I-1429J0D01*
G01*
X21179Y42246D02*
G03*
X21750Y41675I571J0D01*
G01*
X20621Y39954D02*
G03*
X20250Y40325I-371J0D01*
G01*
X20400Y34488D02*
G03*
X20621Y34710I0J221D01*
G01*
X21750Y40325D02*
G03*
X20978Y39553I0J-772D01*
G01*
Y34710D02*
G03*
X21200Y34488I221J0D01*
G01*
X18397Y53540D02*
G03*
X17607Y52750I0J-790D01*
G01*
X16857Y52000D02*
G03*
X17607Y52750I0J750D01*
G01*
X9537Y52000D02*
G03*
X9869Y52104I-2J587D01*
G01*
X11992Y52103D02*
G03*
X9869Y52104I-1062J-1533D01*
G01*
X11992Y52103D02*
G03*
X12323Y52000I332J484D01*
G01*
X7750D02*
G03*
X6500Y50750I0J-1250D01*
G01*
X17250Y52790D02*
G03*
X16500Y53540I-750J0D01*
G01*
X16857Y52357D02*
G03*
X17250Y52750I0J393D01*
G01*
X9536Y52357D02*
G03*
X9666Y52398I-1J230D01*
G01*
X12195Y52397D02*
G03*
X9666Y52398I-1265J-1827D01*
G01*
X12195Y52397D02*
G03*
X12324Y52357I130J190D01*
G01*
X7750D02*
G03*
X6143Y50750I0J-1607D01*
G01*
X6500Y47000D02*
G03*
X7393Y46107I893J0D01*
G01*
X15179Y44679D02*
G03*
X13750Y46107I-1429J0D01*
G01*
X15179Y42246D02*
G03*
X15750Y41675I571J0D01*
G01*
X6143Y47000D02*
G03*
X7393Y45750I1250J0D01*
G01*
X14821Y44679D02*
G03*
X13750Y45750I-1071J0D01*
G01*
X14250Y41675D02*
G03*
X14821Y42246I0J571D01*
G01*
X14793Y39782D02*
G03*
X14250Y40325I-543J0D01*
G01*
X14793Y38707D02*
G03*
X15750Y37750I957J0D01*
G01*
X17421Y36750D02*
G03*
X16421Y37750I-1000J0D01*
G01*
X17200Y34488D02*
G03*
X17421Y34710I0J221D01*
G01*
X15700Y40325D02*
G03*
X15150Y39775I0J-550D01*
G01*
Y38707D02*
G03*
X15750Y38107I600J0D01*
G01*
X17778Y36750D02*
G03*
X16421Y38107I-1357J0D01*
G01*
X17778Y34710D02*
G03*
X18000Y34488I221J0D01*
G01*
X17857Y18500D02*
Y20532D01*
X10790Y16750D02*
X16107D01*
X8250Y9250D02*
Y14210D01*
X10500Y7000D02*
X17000D01*
X18821Y8821D02*
Y13179D01*
X17500Y18500D02*
Y20475D01*
X10790Y17107D02*
X16107D01*
X7893Y9250D02*
Y14210D01*
X10500Y6643D02*
X17000D01*
X19179Y8821D02*
Y13179D01*
X17829Y22996D02*
Y25841D01*
X17471Y22996D02*
Y25741D01*
X26675Y30575D02*
X26750Y30500D01*
X24313Y30575D02*
X26675D01*
X24238Y30650D02*
X24313Y30575D01*
X26725Y31475D02*
X26750Y31500D01*
X24263Y31475D02*
X26725D01*
X24238Y31450D02*
X24263Y31475D01*
X22875Y36925D02*
X22950Y37000D01*
X22875Y34563D02*
Y36925D01*
X22800Y34488D02*
X22875Y34563D01*
X21950Y37000D02*
X21975Y36975D01*
Y34513D02*
Y36975D01*
Y34513D02*
X22000Y34488D01*
X40107Y38500D02*
Y39682D01*
X30000Y36750D02*
X38357D01*
X28857Y31000D02*
Y35607D01*
X24459Y29272D02*
X27129D01*
X39750Y38500D02*
Y39825D01*
X30000Y37107D02*
X38357D01*
X28500Y31000D02*
Y35607D01*
X24459Y29629D02*
X27129D01*
X36107Y39500D02*
Y39682D01*
X28500Y38250D02*
X34857D01*
X27107Y33750D02*
Y36857D01*
X24459Y32472D02*
X25829D01*
X35750Y39500D02*
Y39825D01*
X28500Y38607D02*
X34857D01*
X26750Y33750D02*
Y36857D01*
X24459Y32829D02*
X25829D01*
X36893Y48857D02*
Y49997D01*
X39821Y42246D02*
Y45929D01*
X37250Y48857D02*
Y50140D01*
X40179Y42246D02*
Y45929D01*
X37617Y53510D02*
X38000D01*
X33691Y52250D02*
X36357D01*
X30535Y52402D02*
X33429Y52240D01*
X28250Y52250D02*
X29573D01*
X27500Y47000D02*
Y51500D01*
X28393Y46107D02*
X35250D01*
X36179Y42246D02*
Y45179D01*
X36000Y53510D02*
X36240D01*
X33690Y52607D02*
X36357D01*
X30555Y52759D02*
X33449Y52596D01*
X28250Y52607D02*
X29572D01*
X27143Y47000D02*
Y51500D01*
X28393Y45750D02*
X35250D01*
X35821Y42246D02*
Y45179D01*
X17393Y47750D02*
Y50027D01*
X18893Y46250D02*
X19750D01*
X20821Y42246D02*
Y45179D01*
X17750Y47750D02*
Y50170D01*
X18893Y46607D02*
X19750D01*
X21179Y42246D02*
Y45179D01*
X20621Y34710D02*
Y39954D01*
X20978Y34710D02*
Y39553D01*
X18397Y53540D02*
X18500D01*
X12323Y52000D02*
X16857D01*
X7750D02*
X9537D01*
X6500Y47000D02*
Y50750D01*
X17250Y52750D02*
Y52790D01*
X12324Y52357D02*
X16857D01*
X7750D02*
X9536D01*
X6143Y47000D02*
Y50750D01*
X7393Y46107D02*
X13750D01*
X15179Y42246D02*
Y44679D01*
X7393Y45750D02*
X13750D01*
X14821Y42246D02*
Y44679D01*
X14793Y38707D02*
Y39782D01*
X15750Y37750D02*
X16421D01*
X17421Y34710D02*
Y36750D01*
X15700Y40325D02*
X15750D01*
X15150Y38707D02*
Y39775D01*
X15750Y38107D02*
X16421D01*
X17778Y34710D02*
Y36750D01*
D12*
X13700Y29050D02*
G03*
X13400Y28750I0J-300D01*
G01*
X12800Y27532D02*
G03*
X13400Y27532I300J0D01*
G01*
X12800Y28750D02*
G03*
X12500Y29050I-300J0D01*
G01*
X22269Y24231D02*
X22769D01*
X22000Y24500D02*
X22269Y24231D01*
X22000Y24500D02*
Y26012D01*
X22769Y24231D02*
X22784Y24247D01*
Y25997D01*
X22800Y26012D01*
X7770Y32250D02*
X8195Y32675D01*
X10500D01*
X10500Y35425D02*
Y36750D01*
X10500Y35425D02*
X10500Y35425D01*
X48500Y11250D02*
X48550Y11200D01*
X49950D01*
X50000Y11150D01*
X45950Y16450D02*
X46000Y16400D01*
X44550Y16450D02*
X45950D01*
X44500Y16500D02*
X44550Y16450D01*
X46000Y14600D02*
X46000Y14600D01*
Y12425D02*
Y14600D01*
X45425Y11075D02*
X46000D01*
X44250Y12250D02*
X45425Y11075D01*
X22750Y19750D02*
X24250D01*
X21425Y21075D02*
X22750Y19750D01*
X21400Y21075D02*
X21425D01*
X19900D02*
X21400D01*
X22912Y21038D02*
X24212D01*
X22200Y21750D02*
X22912Y21038D01*
X20600Y21750D02*
X22200D01*
X19925Y22425D02*
X20600Y21750D01*
X19900Y22425D02*
X19925D01*
X24212Y21038D02*
X24250Y21000D01*
X44200Y12300D02*
X44250Y12250D01*
X43050Y12300D02*
X44200D01*
X43000Y12350D02*
X43050Y12300D01*
X33463Y12212D02*
X33500Y12175D01*
X32287Y12212D02*
X33463D01*
X32250Y12250D02*
X32287Y12212D01*
X44203Y10972D02*
X44231Y10944D01*
X43028Y10972D02*
X44203D01*
X43000Y11000D02*
X43028Y10972D01*
X40938Y12365D02*
Y13635D01*
Y11095D02*
Y12365D01*
X42993Y12358D02*
X43000Y12350D01*
X40945Y12358D02*
X42993D01*
X40938Y12365D02*
X40945Y12358D01*
X32250Y10750D02*
X32287Y10788D01*
X33463D01*
X33500Y10825D01*
X35562Y11095D02*
Y12365D01*
Y13635D01*
X35125Y12365D02*
X35562D01*
X34935Y12175D02*
X35125Y12365D01*
X33500Y12175D02*
X34935D01*
X21400Y22425D02*
X22900D01*
X21400D02*
Y23100D01*
X19600Y24900D02*
X21400Y23100D01*
X19600Y24900D02*
Y26012D01*
X19900Y22425D02*
Y23100D01*
X18800Y24200D02*
X19900Y23100D01*
X18800Y24200D02*
Y26012D01*
X10500Y25825D02*
X10500Y25825D01*
Y24500D02*
Y25825D01*
X14500Y28250D02*
X15762D01*
X14000Y27750D02*
X14500Y28250D01*
X14000Y26250D02*
Y27750D01*
X14350Y30650D02*
X15762D01*
X14077Y30923D02*
X14350Y30650D01*
X14077Y30923D02*
Y31423D01*
X14000Y31500D02*
X14077Y31423D01*
X14000Y31500D02*
X14025Y31475D01*
X15737D01*
X15762Y31450D01*
X14250Y32250D02*
X15762D01*
X14000Y32500D02*
X14250Y32250D01*
X14000Y32500D02*
Y33250D01*
X14108D01*
X14308Y33050D01*
X15762D01*
X13175Y34075D02*
X14000Y33250D01*
X10500Y34075D02*
X13175D01*
X13700Y29050D02*
X15762D01*
X13400Y27532D02*
Y28750D01*
X12800Y27532D02*
Y28750D01*
X11750Y29050D02*
X12500D01*
X11000D02*
X11750D01*
X10525Y28575D02*
X11000Y29050D01*
X5230Y31950D02*
Y32250D01*
Y31950D02*
X6680Y30500D01*
X8750D01*
X9575Y31325D01*
X10500D01*
X7770Y26250D02*
Y26550D01*
X8395Y27175D01*
X10500D01*
Y28575D01*
Y29925D02*
Y31325D01*
Y29925D02*
X10537Y29888D01*
X15724D01*
X15762Y29850D01*
X41225Y25575D02*
X41250D01*
X40995Y25805D02*
X41225Y25575D01*
X38725Y25805D02*
X40995D01*
X42463Y25538D02*
X42500Y25500D01*
X41287Y25538D02*
X42463D01*
X41250Y25575D02*
X41287Y25538D01*
X42463Y26962D02*
X42500Y27000D01*
X41287Y26962D02*
X42463D01*
X41250Y26925D02*
X41287Y26962D01*
X30300Y23750D02*
X42500D01*
X43500Y24750D02*
Y27500D01*
X42500Y23750D02*
X43500Y24750D01*
X42750Y28250D02*
X43500Y27500D01*
X38820Y28250D02*
X42750D01*
X41175Y27000D02*
X41250Y26925D01*
X38800Y27000D02*
X41175D01*
X38725Y27075D02*
X38800Y27000D01*
X26675Y27375D02*
X30300Y23750D01*
X35702Y32202D02*
X35750Y32250D01*
X33822Y32202D02*
X35702D01*
X33775Y32155D02*
X33822Y32202D01*
X35623Y26900D02*
X35750D01*
X35448Y27075D02*
X35623Y26900D01*
X33775Y27075D02*
X35448D01*
X35623Y28170D02*
X35750D01*
X35448Y28345D02*
X35623Y28170D01*
X33775Y28345D02*
X35448D01*
X35623Y33250D02*
X35750D01*
X35448Y33425D02*
X35623Y33250D01*
X33775Y33425D02*
X35448D01*
X33747Y34722D02*
X33775Y34695D01*
X31528Y34722D02*
X33747D01*
X31500Y34750D02*
X31528Y34722D01*
X33772Y33422D02*
X33775Y33425D01*
X38725Y34695D02*
X38727Y34697D01*
X40979D01*
X40981Y34700D01*
X40969Y33412D02*
X40981Y33400D01*
X38737Y33412D02*
X40969D01*
X38725Y33425D02*
X38737Y33412D01*
X40954Y32127D02*
X40981Y32100D01*
X38752Y32127D02*
X40954D01*
X38725Y32155D02*
X38752Y32127D01*
X38725Y30885D02*
X38732Y30892D01*
X40974D01*
X40981Y30900D01*
X40974Y29607D02*
X40981Y29600D01*
X38732Y29607D02*
X40974D01*
X38725Y29615D02*
X38732Y29607D01*
X31500Y30880D02*
X31502Y30882D01*
X33772D01*
X33775Y30885D01*
X31500Y29540D02*
X31537Y29577D01*
X33737D01*
X33775Y29615D01*
X38725Y28345D02*
X38820Y28250D01*
X24263Y28275D02*
X28225D01*
X30698Y25802D01*
X33772D01*
X33775Y25805D01*
X24313Y27375D02*
X26675D01*
X24238Y27450D02*
X24313Y27375D01*
X24238Y28250D02*
X24263Y28275D01*
X19673Y36914D02*
X19746Y36987D01*
X19673Y34561D02*
Y36914D01*
X19600Y34488D02*
X19673Y34561D01*
X18750Y37000D02*
X18775Y36975D01*
Y34513D02*
Y36975D01*
Y34513D02*
X18800Y34488D01*
D13*
X46000Y16400D02*
D03*
Y14600D02*
D03*
D14*
X46000Y11075D02*
D03*
Y12425D02*
D03*
X33500Y12175D02*
D03*
Y10825D02*
D03*
X43000Y12350D02*
D03*
Y11000D02*
D03*
X10500Y25825D02*
D03*
Y27175D02*
D03*
X40750Y41675D02*
D03*
Y40325D02*
D03*
X39250Y41675D02*
D03*
Y40325D02*
D03*
X36750Y41675D02*
D03*
Y40325D02*
D03*
X35250Y41675D02*
D03*
Y40325D02*
D03*
X10500Y29925D02*
D03*
Y28575D02*
D03*
X21750Y41675D02*
D03*
Y40325D02*
D03*
X20250Y41675D02*
D03*
Y40325D02*
D03*
X10500Y32675D02*
D03*
Y31325D02*
D03*
X15750Y41675D02*
D03*
Y40325D02*
D03*
X14250Y41675D02*
D03*
Y40325D02*
D03*
X18400Y21075D02*
D03*
Y22425D02*
D03*
X16900Y21075D02*
D03*
Y22425D02*
D03*
X22900Y21075D02*
D03*
Y22425D02*
D03*
X21400D02*
D03*
Y21075D02*
D03*
X10500Y34075D02*
D03*
Y35425D02*
D03*
X19900Y22425D02*
D03*
Y21075D02*
D03*
X41250Y26925D02*
D03*
Y25575D02*
D03*
D15*
X38725Y25805D02*
D03*
Y27075D02*
D03*
Y28345D02*
D03*
Y29615D02*
D03*
Y30885D02*
D03*
Y32155D02*
D03*
Y33425D02*
D03*
Y34695D02*
D03*
X33775D02*
D03*
Y33425D02*
D03*
Y32155D02*
D03*
Y30885D02*
D03*
Y29615D02*
D03*
Y28345D02*
D03*
Y27075D02*
D03*
Y25805D02*
D03*
D16*
X38250Y13000D02*
D03*
D17*
X40938Y14905D02*
D03*
Y13635D02*
D03*
Y12365D02*
D03*
Y11095D02*
D03*
X35562D02*
D03*
Y12365D02*
D03*
Y13635D02*
D03*
Y14905D02*
D03*
D18*
X7770Y32250D02*
D03*
Y26250D02*
D03*
X5230Y32250D02*
D03*
Y26250D02*
D03*
D19*
X15762Y27450D02*
D03*
Y28250D02*
D03*
Y29050D02*
D03*
Y29850D02*
D03*
Y30650D02*
D03*
Y31450D02*
D03*
Y32250D02*
D03*
Y33050D02*
D03*
X24238D02*
D03*
Y32250D02*
D03*
Y31450D02*
D03*
Y30650D02*
D03*
Y29850D02*
D03*
Y29050D02*
D03*
Y28250D02*
D03*
Y27450D02*
D03*
D20*
X17200Y34488D02*
D03*
X18000D02*
D03*
X18800D02*
D03*
X19600D02*
D03*
X20400D02*
D03*
X21200D02*
D03*
X22000D02*
D03*
X22800D02*
D03*
Y26012D02*
D03*
X22000D02*
D03*
X21200D02*
D03*
X20400D02*
D03*
X19600D02*
D03*
X18800D02*
D03*
X18000D02*
D03*
X17200D02*
D03*
D21*
X50000Y9350D02*
D03*
Y11150D02*
D03*
D22*
X40554Y31327D02*
X40734Y31147D01*
X41229D02*
X41408Y31327D01*
X39710Y30885D02*
X39964D01*
X37486D02*
X37740D01*
X33995Y54005D02*
X34175Y54185D01*
X33995Y51385D02*
X34175Y51565D01*
X32825Y54185D02*
X33005Y54005D01*
X32825Y51565D02*
X33005Y51385D01*
X33995Y50395D02*
X34175Y50215D01*
X32825D02*
X33005Y50395D01*
X46625Y16400D02*
X46879D01*
X46000Y15846D02*
Y16100D01*
Y16700D02*
Y16954D01*
X44747Y16747D02*
X44927Y16927D01*
X44747Y16253D02*
X44927Y16073D01*
X44073D02*
X44253Y16253D01*
X44073Y16927D02*
X44253Y16747D01*
X41229Y30653D02*
X41408Y30473D01*
X42073Y25927D02*
X42253Y25747D01*
X42073Y25073D02*
X42253Y25253D01*
X50625Y11150D02*
X50879D01*
X50000Y11450D02*
Y11704D01*
Y10596D02*
Y10850D01*
X48073Y11677D02*
X48253Y11497D01*
X48747D02*
X48927Y11677D01*
X48747Y11003D02*
X48927Y10823D01*
X48073D02*
X48253Y11003D01*
X43804Y11371D02*
X43984Y11191D01*
X43804Y10517D02*
X43984Y10696D01*
X44479D02*
X44658Y10517D01*
X43000Y10421D02*
Y10675D01*
X42396Y11000D02*
X42650D01*
X41464Y3616D02*
X41643Y3437D01*
X41464Y5384D02*
X41643Y5563D01*
X40554Y30473D02*
X40734Y30653D01*
X40646Y25575D02*
X40900D01*
X39710Y25805D02*
X39964D01*
X41250Y24996D02*
Y25250D01*
X38725Y25251D02*
Y25505D01*
X37486Y25805D02*
X37740D01*
X35562Y15230D02*
Y15484D01*
X38250Y11071D02*
Y11325D01*
Y14675D02*
Y14929D01*
X36325Y14905D02*
X36578D01*
X34546D02*
X34799D01*
X33850Y10825D02*
X34104D01*
X32497Y10997D02*
X32677Y11177D01*
X39517Y5563D02*
X39696Y5384D01*
X39517Y3437D02*
X39696Y3616D01*
X33500Y10246D02*
Y10500D01*
X32497Y10503D02*
X32677Y10323D01*
X24497Y19997D02*
X24677Y20177D01*
X23823D02*
X24003Y19997D01*
X24497Y19503D02*
X24677Y19323D01*
X23823D02*
X24003Y19503D01*
X31823Y11177D02*
X32003Y10997D01*
X31823Y10323D02*
X32003Y10503D01*
X20247Y32247D02*
X20427Y32427D01*
X20247Y31753D02*
X20427Y31573D01*
X19573Y32427D02*
X19753Y32247D01*
X19573Y31573D02*
X19753Y31753D01*
X16499Y31450D02*
X16753D01*
X16499Y30650D02*
X16753D01*
X14495Y54035D02*
X14675Y54215D01*
X13325D02*
X13505Y54035D01*
X13325Y50245D02*
X13505Y50425D01*
X14495D02*
X14675Y50245D01*
X10747Y36997D02*
X10927Y37177D01*
X10073Y36323D02*
X10253Y36503D01*
X10073Y37177D02*
X10253Y36997D01*
X10747Y36503D02*
X10927Y36323D01*
X10850Y35425D02*
X11104D01*
X9896D02*
X10150D01*
X14247Y31253D02*
X14427Y31073D01*
X14770Y30650D02*
X15024D01*
X13573Y31927D02*
X13753Y31747D01*
X13573Y31073D02*
X13753Y31253D01*
X10850Y32675D02*
X11104D01*
X9896D02*
X10150D01*
X7770Y33250D02*
Y33504D01*
X6816Y32250D02*
X7070D01*
X8470D02*
X8724D01*
X23100Y26012D02*
X23354D01*
X22800Y26750D02*
Y27004D01*
X22000Y25021D02*
Y25275D01*
Y26750D02*
Y27004D01*
X23016Y24479D02*
X23196Y24658D01*
X22342Y23804D02*
X22521Y23984D01*
X23016D02*
X23196Y23804D01*
X22342Y24658D02*
X22521Y24479D01*
X20247Y30003D02*
X20427Y29823D01*
X20247Y30498D02*
X20427Y30677D01*
X19573D02*
X19752Y30498D01*
X19573Y29823D02*
X19752Y30003D01*
X20247Y28253D02*
X20427Y28073D01*
X20247Y28747D02*
X20427Y28927D01*
X19573Y28073D02*
X19753Y28253D01*
X19573Y28927D02*
X19753Y28747D01*
X16499Y28250D02*
X16753D01*
X21750Y21075D02*
X22004D01*
X21400Y20496D02*
Y20750D01*
X20796Y21075D02*
X21050D01*
X21755Y14745D02*
X21934Y14566D01*
X23066D02*
X23245Y14745D01*
X19296Y21075D02*
X19550D01*
X20250D02*
X20504D01*
X19900Y20496D02*
Y20750D01*
X21755Y13255D02*
X21934Y13434D01*
X23066D02*
X23245Y13255D01*
X14770Y28250D02*
X15024D01*
X14247Y26497D02*
X14427Y26677D01*
X14247Y26003D02*
X14427Y25823D01*
X13573Y26677D02*
X13753Y26497D01*
X13573Y25823D02*
X13753Y26003D01*
X10850Y25825D02*
X11104D01*
X10747Y24747D02*
X10927Y24927D01*
X9896Y25825D02*
X10150D01*
X10073Y24927D02*
X10253Y24747D01*
X5230Y27250D02*
Y27504D01*
X5930Y26250D02*
X6184D01*
X4276D02*
X4530D01*
X5230Y24996D02*
Y25250D01*
X10747Y24253D02*
X10927Y24073D01*
X10073D02*
X10253Y24253D01*
D23*
X50000Y4500D02*
Y9350D01*
D24*
X35500Y4500D02*
D03*
X40580D02*
D03*
D25*
X22500Y14000D02*
D03*
X20000D02*
D03*
X18000D02*
D03*
X15500D02*
D03*
D26*
X12430Y11290D02*
D03*
X25570D02*
D03*
D27*
X21000Y50920D02*
D03*
X18500D02*
D03*
X16500D02*
D03*
X14000D02*
D03*
X21000Y53540D02*
D03*
X18500D02*
D03*
X16500D02*
D03*
X14000D02*
D03*
X40500Y50890D02*
D03*
X38000D02*
D03*
X36000D02*
D03*
X33500D02*
D03*
X40500Y53510D02*
D03*
X38000D02*
D03*
X36000D02*
D03*
X33500D02*
D03*
D28*
X24070Y50570D02*
D03*
X10930D02*
D03*
Y56250D02*
D03*
X24070D02*
D03*
X43570Y50540D02*
D03*
X30430D02*
D03*
Y56220D02*
D03*
X43570D02*
D03*
D29*
X4500Y62500D02*
D03*
X50000D02*
D03*
X4500Y4500D02*
D03*
X50000D02*
D03*
D30*
X22769Y24231D02*
D03*
X20000Y28500D02*
D03*
Y32000D02*
D03*
X20000Y30250D02*
D03*
X48500Y11250D02*
D03*
X44500Y16500D02*
D03*
X24250Y19750D02*
D03*
Y21000D02*
D03*
X44250Y12250D02*
D03*
X32250D02*
D03*
X38250Y13000D02*
D03*
X44231Y10944D02*
D03*
X32250Y10750D02*
D03*
X10500Y24500D02*
D03*
X14000Y26250D02*
D03*
Y31500D02*
D03*
Y33250D02*
D03*
X10500Y36750D02*
D03*
X7770Y32250D02*
D03*
X5230Y26250D02*
D03*
X42500Y25500D02*
D03*
Y27000D02*
D03*
X35750Y32250D02*
D03*
Y26900D02*
D03*
Y28250D02*
D03*
Y33250D02*
D03*
X31500Y34750D02*
D03*
X40981Y34700D02*
D03*
Y32100D02*
D03*
Y33400D02*
D03*
Y29600D02*
D03*
Y30900D02*
D03*
X31500Y30880D02*
D03*
Y29540D02*
D03*
X26750Y31500D02*
D03*
Y30500D02*
D03*
X21950Y37000D02*
D03*
X22950D02*
D03*
X19750D02*
D03*
X18750D02*
D03*
%TF.MD5,bffce62e3aa5e0bb526d5d97e5440c08*%
M02*
