%TF.GenerationSoftware,Altium Limited,Altium Designer,25.2.1 (25)*%
G04 Layer_Color=32768*
%FSLAX43Y43*%
%MOMM*%
%TF.SameCoordinates,18AA2EC9-8B6F-48E4-AE6E-10463567A699*%
%TF.FilePolarity,Positive*%
%TF.FileFunction,Other,Mechanical_15*%
%TF.Part,Single*%
G01*
G75*
%TA.AperFunction,NonConductor*%
%ADD35C,0.100*%
%ADD54C,0.050*%
D35*
X8000Y62500D02*
G03*
X8000Y62500I-3500J0D01*
G01*
X53500D02*
G03*
X53500Y62500I-3500J0D01*
G01*
X8000Y4500D02*
G03*
X8000Y4500I-3500J0D01*
G01*
X53500D02*
G03*
X53500Y4500I-3500J0D01*
G01*
X32400Y8900D02*
X43400D01*
X32400Y750D02*
X43400D01*
Y8900D01*
X32400Y750D02*
Y8900D01*
X10500Y15500D02*
X27500D01*
X10500Y750D02*
X27500D01*
Y15500D01*
X10500Y750D02*
Y15500D01*
X45100Y16950D02*
X46900D01*
X45100Y14050D02*
X46900D01*
Y16950D01*
X45100Y14050D02*
Y16950D01*
X45400Y10525D02*
Y12975D01*
X46600D01*
Y10525D02*
Y12975D01*
X45400Y10525D02*
X46600D01*
X32540Y25050D02*
X39960D01*
X32540Y35450D02*
X39960D01*
Y25050D02*
Y35450D01*
X32540Y25050D02*
Y35450D01*
X32900Y10275D02*
X34100D01*
Y12725D01*
X32900D02*
X34100D01*
X32900Y10275D02*
Y12725D01*
X42400Y10450D02*
X43600D01*
Y12900D01*
X42400D02*
X43600D01*
X42400Y10450D02*
Y12900D01*
X9000Y66780D02*
X26000D01*
Y48530D02*
Y66780D01*
X9000Y48530D02*
Y66780D01*
Y48530D02*
X26000D01*
X9900Y27725D02*
X11100D01*
X9900Y25275D02*
Y27725D01*
Y25275D02*
X11100D01*
Y27725D01*
X41350Y39775D02*
Y42225D01*
X40150Y39775D02*
X41350D01*
X40150D02*
Y42225D01*
X41350D01*
X39850Y39775D02*
Y42225D01*
X38650Y39775D02*
X39850D01*
X38650D02*
Y42225D01*
X39850D01*
X37350Y39775D02*
Y42225D01*
X36150Y39775D02*
X37350D01*
X36150D02*
Y42225D01*
X37350D01*
X35850Y39775D02*
Y42225D01*
X34650Y39775D02*
X35850D01*
X34650D02*
Y42225D01*
X35850D01*
X28500Y66750D02*
X45500D01*
Y48500D02*
Y66750D01*
X28500Y48500D02*
Y66750D01*
Y48500D02*
X45500D01*
X3750Y25000D02*
X9250D01*
X3750D02*
Y33500D01*
X9250D01*
Y25000D02*
Y33500D01*
X11100Y28025D02*
Y30475D01*
X9900Y28025D02*
X11100D01*
X9900D02*
Y30475D01*
X11100D01*
X22350Y39775D02*
Y42225D01*
X21150Y39775D02*
X22350D01*
X21150D02*
Y42225D01*
X22350D01*
X20850Y39775D02*
Y42225D01*
X19650Y39775D02*
X20850D01*
X19650D02*
Y42225D01*
X20850D01*
X9900Y30775D02*
X11100D01*
Y33225D01*
X9900D02*
X11100D01*
X9900Y30775D02*
Y33225D01*
X16350Y39775D02*
Y42225D01*
X15150Y39775D02*
X16350D01*
X15150D02*
Y42225D01*
X16350D01*
X14850Y39775D02*
Y42225D01*
X13650Y39775D02*
X14850D01*
X13650D02*
Y42225D01*
X14850D01*
X17800Y20525D02*
Y22975D01*
X19000D01*
Y20525D02*
Y22975D01*
X17800Y20525D02*
X19000D01*
X16300D02*
Y22975D01*
X17500D01*
Y20525D02*
Y22975D01*
X16300Y20525D02*
X17500D01*
X22300D02*
Y22975D01*
X23500D01*
Y20525D02*
Y22975D01*
X22300Y20525D02*
X23500D01*
X20800D02*
X22000D01*
Y22975D01*
X20800D02*
X22000D01*
X20800Y20525D02*
Y22975D01*
X9900Y35975D02*
X11100D01*
X9900Y33525D02*
Y35975D01*
Y33525D02*
X11100D01*
Y35975D01*
X19300Y20525D02*
X20500D01*
Y22975D01*
X19300D02*
X20500D01*
X19300Y20525D02*
Y22975D01*
X40650Y25025D02*
X41850D01*
Y27475D01*
X40650D02*
X41850D01*
X40650Y25025D02*
Y27475D01*
X14775Y25025D02*
X25225D01*
Y35475D01*
X14775D02*
X25225D01*
X14775Y25025D02*
Y35475D01*
X49100Y11700D02*
X50900D01*
X49100Y8800D02*
X50900D01*
Y11700D01*
X49100Y8800D02*
Y11700D01*
D54*
X34550Y10275D02*
Y15725D01*
Y10275D02*
X41950D01*
Y15725D01*
X34550D02*
X41950D01*
%TF.MD5,68b06fe7642337d2c9f56ab0088880a9*%
M02*
