%TF.GenerationSoftware,Altium Limited,Altium Designer,25.2.1 (25)*%
G04 Layer_Color=65535*
%FSLAX43Y43*%
%MOMM*%
%TF.SameCoordinates,18AA2EC9-8B6F-48E4-AE6E-10463567A699*%
%TF.FilePolarity,Positive*%
%TF.FileFunction,Legend,Top*%
%TF.Part,Single*%
G01*
G75*
%TA.AperFunction,NonConductor*%
%ADD22C,0.300*%
%ADD32C,0.200*%
%ADD33C,0.400*%
%ADD34C,0.250*%
%ADD35C,0.100*%
G36*
X51584Y45911D02*
X51662D01*
Y45905D01*
X51703D01*
Y45899D01*
X51745D01*
Y45893D01*
X51775D01*
Y45887D01*
X51811D01*
Y45882D01*
X51823D01*
Y45876D01*
X51853D01*
Y45870D01*
X51877D01*
Y45864D01*
X51894D01*
Y45858D01*
X51918D01*
Y45852D01*
X51930D01*
Y45846D01*
X51948D01*
Y45840D01*
X51966D01*
Y45834D01*
X51978D01*
Y45828D01*
X51996D01*
Y45822D01*
X52008D01*
Y45816D01*
X52032D01*
Y45810D01*
X52038D01*
Y45804D01*
X52056D01*
Y45798D01*
X52062D01*
Y45792D01*
X52074D01*
Y45786D01*
X52091D01*
Y45780D01*
X52097D01*
Y45774D01*
X52115D01*
Y45768D01*
X52127D01*
Y45762D01*
X52139D01*
Y45756D01*
X52145D01*
Y45750D01*
X52157D01*
Y45744D01*
X52169D01*
Y45738D01*
X52175D01*
Y45732D01*
X52187D01*
Y45726D01*
X52199D01*
Y45720D01*
X52205D01*
Y45714D01*
X52217D01*
Y45708D01*
X52223D01*
Y45702D01*
X52235D01*
Y45696D01*
X52241D01*
Y45691D01*
X52253D01*
Y45685D01*
X52259D01*
Y45679D01*
X52265D01*
Y45673D01*
X52276D01*
Y45667D01*
X52282D01*
Y45661D01*
X52294D01*
Y45655D01*
X52300D01*
Y45649D01*
X52306D01*
Y45643D01*
X52318D01*
Y45637D01*
X52324D01*
Y45631D01*
X52330D01*
Y45625D01*
X52336D01*
Y45619D01*
X52342D01*
Y45613D01*
X52354D01*
Y45601D01*
X52366D01*
Y45595D01*
X52372D01*
Y45589D01*
X52378D01*
Y45583D01*
X52384D01*
Y45577D01*
X52390D01*
Y45571D01*
X52396D01*
Y45565D01*
X52402D01*
Y45559D01*
X52414D01*
Y45547D01*
X52426D01*
Y45535D01*
X52432D01*
Y45529D01*
X52438D01*
Y45523D01*
X52444D01*
Y45517D01*
X52450D01*
Y45511D01*
X52456D01*
Y45506D01*
X52461D01*
Y45500D01*
X52467D01*
Y45494D01*
X52473D01*
Y45488D01*
X52479D01*
Y45482D01*
X52485D01*
Y45470D01*
X52491D01*
Y45464D01*
X52497D01*
Y45458D01*
X52503D01*
Y45452D01*
X52509D01*
Y45446D01*
X52515D01*
Y45434D01*
X52521D01*
Y45428D01*
X52527D01*
Y45422D01*
X52533D01*
Y45416D01*
X52539D01*
Y45404D01*
X52545D01*
Y45398D01*
X52551D01*
Y45386D01*
X52557D01*
Y45380D01*
X52563D01*
Y45374D01*
X52569D01*
Y45362D01*
X52575D01*
Y45356D01*
X52581D01*
Y45344D01*
X52587D01*
Y45338D01*
X52593D01*
Y45332D01*
X52599D01*
Y45314D01*
X52605D01*
Y45309D01*
X52611D01*
Y45297D01*
X52617D01*
Y45291D01*
X52623D01*
Y45279D01*
X52629D01*
Y45267D01*
X52635D01*
Y45261D01*
X52641D01*
Y45249D01*
X52646D01*
Y45237D01*
X52652D01*
Y45225D01*
X52658D01*
Y45207D01*
X52664D01*
Y45201D01*
X52670D01*
Y45183D01*
X52676D01*
Y45177D01*
X52682D01*
Y45159D01*
X52688D01*
Y45147D01*
X52694D01*
Y45135D01*
X52700D01*
Y45118D01*
X52706D01*
Y45106D01*
X52712D01*
Y45082D01*
X52718D01*
Y45070D01*
X52724D01*
Y45052D01*
X52730D01*
Y45034D01*
X52736D01*
Y45022D01*
X52742D01*
Y44992D01*
X52748D01*
Y44974D01*
X52754D01*
Y44944D01*
X52760D01*
Y44927D01*
X52766D01*
Y44903D01*
X52772D01*
Y44861D01*
X52778D01*
Y44831D01*
X52784D01*
Y44777D01*
X52790D01*
Y44700D01*
X52796D01*
Y39800D01*
X52790D01*
Y39722D01*
X52784D01*
Y39668D01*
X52778D01*
Y39638D01*
X52772D01*
Y39597D01*
X52766D01*
Y39573D01*
X52760D01*
Y39555D01*
X52754D01*
Y39525D01*
X52748D01*
Y39507D01*
X52742D01*
Y39477D01*
X52736D01*
Y39465D01*
X52730D01*
Y39447D01*
X52724D01*
Y39430D01*
X52718D01*
Y39418D01*
X52712D01*
Y39394D01*
X52706D01*
Y39382D01*
X52700D01*
Y39364D01*
X52694D01*
Y39352D01*
X52688D01*
Y39340D01*
X52682D01*
Y39322D01*
X52676D01*
Y39316D01*
X52670D01*
Y39298D01*
X52664D01*
Y39292D01*
X52658D01*
Y39274D01*
X52652D01*
Y39262D01*
X52646D01*
Y39250D01*
X52641D01*
Y39239D01*
X52635D01*
Y39233D01*
X52629D01*
Y39221D01*
X52623D01*
Y39209D01*
X52617D01*
Y39203D01*
X52611D01*
Y39191D01*
X52605D01*
Y39185D01*
X52599D01*
Y39167D01*
X52593D01*
Y39161D01*
X52587D01*
Y39155D01*
X52581D01*
Y39143D01*
X52575D01*
Y39137D01*
X52569D01*
Y39125D01*
X52563D01*
Y39119D01*
X52557D01*
Y39113D01*
X52551D01*
Y39101D01*
X52545D01*
Y39095D01*
X52539D01*
Y39083D01*
X52533D01*
Y39077D01*
X52527D01*
Y39071D01*
X52521D01*
Y39065D01*
X52515D01*
Y39054D01*
X52509D01*
Y39048D01*
X52503D01*
Y39042D01*
X52497D01*
Y39036D01*
X52491D01*
Y39030D01*
X52485D01*
Y39018D01*
X52479D01*
Y39012D01*
X52473D01*
Y39006D01*
X52467D01*
Y39000D01*
X52461D01*
Y38994D01*
X52456D01*
Y38988D01*
X52450D01*
Y38982D01*
X52444D01*
Y38976D01*
X52438D01*
Y38970D01*
X52432D01*
Y38964D01*
X52426D01*
Y38952D01*
X52414D01*
Y38940D01*
X52402D01*
Y38934D01*
X52396D01*
Y38928D01*
X52390D01*
Y38922D01*
X52384D01*
Y38916D01*
X52378D01*
Y38910D01*
X52372D01*
Y38904D01*
X52366D01*
Y38898D01*
X52354D01*
Y38886D01*
X52342D01*
Y38880D01*
X52336D01*
Y38874D01*
X52330D01*
Y38868D01*
X52324D01*
Y38863D01*
X52318D01*
Y38857D01*
X52306D01*
Y38851D01*
X52300D01*
Y38845D01*
X52294D01*
Y38839D01*
X52282D01*
Y38833D01*
X52276D01*
Y38827D01*
X52265D01*
Y38821D01*
X52259D01*
Y38815D01*
X52253D01*
Y38809D01*
X52241D01*
Y38803D01*
X52235D01*
Y38797D01*
X52223D01*
Y38791D01*
X52217D01*
Y38785D01*
X52205D01*
Y38779D01*
X52199D01*
Y38773D01*
X52187D01*
Y38767D01*
X52175D01*
Y38761D01*
X52169D01*
Y38755D01*
X52157D01*
Y38749D01*
X52145D01*
Y38743D01*
X52139D01*
Y38737D01*
X52127D01*
Y38731D01*
X52115D01*
Y38725D01*
X52097D01*
Y38719D01*
X52091D01*
Y38713D01*
X52074D01*
Y38707D01*
X52062D01*
Y38701D01*
X52056D01*
Y38695D01*
X52038D01*
Y38689D01*
X52032D01*
Y38683D01*
X52008D01*
Y38678D01*
X51996D01*
Y38672D01*
X51978D01*
Y38666D01*
X51966D01*
Y38660D01*
X51948D01*
Y38654D01*
X51930D01*
Y38648D01*
X51918D01*
Y38642D01*
X51894D01*
Y38636D01*
X51877D01*
Y38630D01*
X51853D01*
Y38624D01*
X51823D01*
Y38618D01*
X51811D01*
Y38612D01*
X51775D01*
Y38606D01*
X51745D01*
Y38600D01*
X51703D01*
Y38594D01*
X51662D01*
Y38588D01*
X51584D01*
Y38582D01*
X44416D01*
Y38588D01*
X44338D01*
Y38594D01*
X44297D01*
Y38600D01*
X44255D01*
Y38606D01*
X44225D01*
Y38612D01*
X44189D01*
Y38618D01*
X44177D01*
Y38624D01*
X44147D01*
Y38630D01*
X44123D01*
Y38636D01*
X44106D01*
Y38642D01*
X44082D01*
Y38648D01*
X44070D01*
Y38654D01*
X44052D01*
Y38660D01*
X44034D01*
Y38666D01*
X44022D01*
Y38672D01*
X44004D01*
Y38678D01*
X43992D01*
Y38683D01*
X43968D01*
Y38689D01*
X43962D01*
Y38695D01*
X43944D01*
Y38701D01*
X43938D01*
Y38707D01*
X43926D01*
Y38713D01*
X43909D01*
Y38719D01*
X43903D01*
Y38725D01*
X43885D01*
Y38731D01*
X43873D01*
Y38737D01*
X43861D01*
Y38743D01*
X43855D01*
Y38749D01*
X43843D01*
Y38755D01*
X43831D01*
Y38761D01*
X43825D01*
Y38767D01*
X43813D01*
Y38773D01*
X43801D01*
Y38779D01*
X43795D01*
Y38785D01*
X43783D01*
Y38791D01*
X43777D01*
Y38797D01*
X43765D01*
Y38803D01*
X43759D01*
Y38809D01*
X43747D01*
Y38815D01*
X43741D01*
Y38821D01*
X43735D01*
Y38827D01*
X43724D01*
Y38833D01*
X43718D01*
Y38839D01*
X43706D01*
Y38845D01*
X43700D01*
Y38851D01*
X43694D01*
Y38857D01*
X43682D01*
Y38863D01*
X43676D01*
Y38868D01*
X43670D01*
Y38874D01*
X43664D01*
Y38880D01*
X43658D01*
Y38886D01*
X43646D01*
Y38898D01*
X43634D01*
Y38904D01*
X43628D01*
Y38910D01*
X43622D01*
Y38916D01*
X43616D01*
Y38922D01*
X43610D01*
Y38928D01*
X43604D01*
Y38934D01*
X43598D01*
Y38940D01*
X43586D01*
Y38952D01*
X43574D01*
Y38964D01*
X43568D01*
Y38970D01*
X43562D01*
Y38976D01*
X43556D01*
Y38982D01*
X43550D01*
Y38988D01*
X43544D01*
Y38994D01*
X43539D01*
Y39000D01*
X43533D01*
Y39006D01*
X43527D01*
Y39012D01*
X43521D01*
Y39018D01*
X43515D01*
Y39030D01*
X43509D01*
Y39036D01*
X43503D01*
Y39042D01*
X43497D01*
Y39048D01*
X43491D01*
Y39054D01*
X43485D01*
Y39065D01*
X43479D01*
Y39071D01*
X43473D01*
Y39077D01*
X43467D01*
Y39083D01*
X43461D01*
Y39095D01*
X43455D01*
Y39101D01*
X43449D01*
Y39113D01*
X43443D01*
Y39119D01*
X43437D01*
Y39125D01*
X43431D01*
Y39137D01*
X43425D01*
Y39143D01*
X43419D01*
Y39155D01*
X43413D01*
Y39161D01*
X43407D01*
Y39167D01*
X43401D01*
Y39185D01*
X43395D01*
Y39191D01*
X43389D01*
Y39203D01*
X43383D01*
Y39209D01*
X43377D01*
Y39221D01*
X43371D01*
Y39233D01*
X43365D01*
Y39239D01*
X43359D01*
Y39250D01*
X43354D01*
Y39262D01*
X43348D01*
Y39274D01*
X43342D01*
Y39292D01*
X43336D01*
Y39298D01*
X43330D01*
Y39316D01*
X43324D01*
Y39322D01*
X43318D01*
Y39340D01*
X43312D01*
Y39352D01*
X43306D01*
Y39364D01*
X43300D01*
Y39382D01*
X43294D01*
Y39394D01*
X43288D01*
Y39418D01*
X43282D01*
Y39430D01*
X43276D01*
Y39447D01*
X43270D01*
Y39465D01*
X43264D01*
Y39477D01*
X43258D01*
Y39507D01*
X43252D01*
Y39525D01*
X43246D01*
Y39555D01*
X43240D01*
Y39573D01*
X43234D01*
Y39597D01*
X43228D01*
Y39638D01*
X43222D01*
Y39668D01*
X43216D01*
Y39722D01*
X43210D01*
Y39800D01*
X43204D01*
Y44700D01*
X43210D01*
Y44777D01*
X43216D01*
Y44831D01*
X43222D01*
Y44861D01*
X43228D01*
Y44903D01*
X43234D01*
Y44927D01*
X43240D01*
Y44944D01*
X43246D01*
Y44974D01*
X43252D01*
Y44992D01*
X43258D01*
Y45022D01*
X43264D01*
Y45034D01*
X43270D01*
Y45052D01*
X43276D01*
Y45070D01*
X43282D01*
Y45082D01*
X43288D01*
Y45106D01*
X43294D01*
Y45118D01*
X43300D01*
Y45135D01*
X43306D01*
Y45147D01*
X43312D01*
Y45159D01*
X43318D01*
Y45177D01*
X43324D01*
Y45183D01*
X43330D01*
Y45201D01*
X43336D01*
Y45207D01*
X43342D01*
Y45225D01*
X43348D01*
Y45237D01*
X43354D01*
Y45249D01*
X43359D01*
Y45261D01*
X43365D01*
Y45267D01*
X43371D01*
Y45279D01*
X43377D01*
Y45291D01*
X43383D01*
Y45297D01*
X43389D01*
Y45309D01*
X43395D01*
Y45314D01*
X43401D01*
Y45332D01*
X43407D01*
Y45338D01*
X43413D01*
Y45344D01*
X43419D01*
Y45356D01*
X43425D01*
Y45362D01*
X43431D01*
Y45374D01*
X43437D01*
Y45380D01*
X43443D01*
Y45386D01*
X43449D01*
Y45398D01*
X43455D01*
Y45404D01*
X43461D01*
Y45416D01*
X43467D01*
Y45422D01*
X43473D01*
Y45428D01*
X43479D01*
Y45434D01*
X43485D01*
Y45446D01*
X43491D01*
Y45452D01*
X43497D01*
Y45458D01*
X43503D01*
Y45464D01*
X43509D01*
Y45470D01*
X43515D01*
Y45482D01*
X43521D01*
Y45488D01*
X43527D01*
Y45494D01*
X43533D01*
Y45500D01*
X43539D01*
Y45506D01*
X43544D01*
Y45511D01*
X43550D01*
Y45517D01*
X43556D01*
Y45523D01*
X43562D01*
Y45529D01*
X43568D01*
Y45535D01*
X43574D01*
Y45547D01*
X43586D01*
Y45559D01*
X43598D01*
Y45565D01*
X43604D01*
Y45571D01*
X43610D01*
Y45577D01*
X43616D01*
Y45583D01*
X43622D01*
Y45589D01*
X43628D01*
Y45595D01*
X43634D01*
Y45601D01*
X43646D01*
Y45613D01*
X43658D01*
Y45619D01*
X43664D01*
Y45625D01*
X43670D01*
Y45631D01*
X43676D01*
Y45637D01*
X43682D01*
Y45643D01*
X43694D01*
Y45649D01*
X43700D01*
Y45655D01*
X43706D01*
Y45661D01*
X43718D01*
Y45667D01*
X43724D01*
Y45673D01*
X43735D01*
Y45679D01*
X43741D01*
Y45685D01*
X43747D01*
Y45691D01*
X43759D01*
Y45696D01*
X43765D01*
Y45702D01*
X43777D01*
Y45708D01*
X43783D01*
Y45714D01*
X43795D01*
Y45720D01*
X43801D01*
Y45726D01*
X43813D01*
Y45732D01*
X43825D01*
Y45738D01*
X43831D01*
Y45744D01*
X43843D01*
Y45750D01*
X43855D01*
Y45756D01*
X43861D01*
Y45762D01*
X43873D01*
Y45768D01*
X43885D01*
Y45774D01*
X43903D01*
Y45780D01*
X43909D01*
Y45786D01*
X43926D01*
Y45792D01*
X43938D01*
Y45798D01*
X43944D01*
Y45804D01*
X43962D01*
Y45810D01*
X43968D01*
Y45816D01*
X43992D01*
Y45822D01*
X44004D01*
Y45828D01*
X44022D01*
Y45834D01*
X44034D01*
Y45840D01*
X44052D01*
Y45846D01*
X44070D01*
Y45852D01*
X44082D01*
Y45858D01*
X44106D01*
Y45864D01*
X44123D01*
Y45870D01*
X44147D01*
Y45876D01*
X44177D01*
Y45882D01*
X44189D01*
Y45887D01*
X44225D01*
Y45893D01*
X44255D01*
Y45899D01*
X44297D01*
Y45905D01*
X44338D01*
Y45911D01*
X44416D01*
Y45917D01*
X51584D01*
Y45911D01*
D02*
G37*
G36*
X50216Y33955D02*
X51989D01*
Y33070D01*
X51988D01*
Y33068D01*
X51102D01*
Y32182D01*
X51988D01*
Y32181D01*
X51989D01*
Y31296D01*
X52875D01*
Y29523D01*
X51989D01*
Y30409D01*
X51103D01*
Y30410D01*
X51102D01*
Y31296D01*
X50216D01*
Y30410D01*
X50215D01*
Y30409D01*
X49330D01*
Y31296D01*
X46670D01*
Y30409D01*
X47556D01*
Y30408D01*
X47557D01*
Y29523D01*
X46670D01*
Y30409D01*
X45785D01*
Y30410D01*
X45784D01*
Y31296D01*
X44898D01*
Y30410D01*
X44897D01*
Y30409D01*
X44011D01*
Y29523D01*
X43125D01*
Y31296D01*
X44011D01*
Y32181D01*
X44012D01*
Y32182D01*
X44898D01*
Y33068D01*
X44012D01*
Y33070D01*
X44011D01*
Y33955D01*
X43125D01*
Y34592D01*
Y34593D01*
Y34841D01*
X44010D01*
Y34840D01*
X44011D01*
Y33955D01*
X45784D01*
Y32182D01*
X46670D01*
Y33955D01*
X45784D01*
Y35728D01*
X46670D01*
Y34841D01*
X49330D01*
Y35728D01*
X50216D01*
Y33955D01*
D02*
G37*
G36*
X52875D02*
X51989D01*
Y34227D01*
Y34228D01*
Y34840D01*
X51990D01*
Y34841D01*
X52875D01*
Y33955D01*
D02*
G37*
G36*
X49330Y30340D02*
Y30339D01*
Y29523D01*
X48443D01*
Y30408D01*
X48444D01*
Y30409D01*
X49330D01*
Y30340D01*
D02*
G37*
%LPC*%
G36*
X51596Y45350D02*
X44404D01*
Y45344D01*
X44350D01*
Y45338D01*
X44320D01*
Y45332D01*
X44302D01*
Y45326D01*
X44273D01*
Y45320D01*
X44261D01*
Y45314D01*
X44237D01*
Y45309D01*
X44225D01*
Y45303D01*
X44207D01*
Y45297D01*
X44195D01*
Y45291D01*
X44183D01*
Y45285D01*
X44165D01*
Y45279D01*
X44159D01*
Y45273D01*
X44147D01*
Y45267D01*
X44135D01*
Y45261D01*
X44123D01*
Y45255D01*
X44111D01*
Y45249D01*
X44106D01*
Y45243D01*
X44094D01*
Y45237D01*
X44082D01*
Y45231D01*
X44076D01*
Y45225D01*
X44070D01*
Y45219D01*
X44058D01*
Y45213D01*
X44052D01*
Y45207D01*
X44046D01*
Y45201D01*
X44034D01*
Y45195D01*
X44028D01*
Y45189D01*
X44022D01*
Y45183D01*
X44016D01*
Y45177D01*
X44010D01*
Y45171D01*
X43998D01*
Y45165D01*
X43992D01*
Y45159D01*
X43986D01*
Y45153D01*
X43980D01*
Y45147D01*
X43974D01*
Y45141D01*
X43968D01*
Y45135D01*
X43962D01*
Y45129D01*
X43956D01*
Y45124D01*
X43950D01*
Y45112D01*
X43944D01*
Y45106D01*
X43938D01*
Y45100D01*
X43932D01*
Y45094D01*
X43926D01*
Y45088D01*
X43921D01*
Y45082D01*
X43915D01*
Y45070D01*
X43909D01*
Y45064D01*
X43903D01*
Y45052D01*
X43897D01*
Y45046D01*
X43891D01*
Y45040D01*
X43885D01*
Y45028D01*
X43879D01*
Y45016D01*
X43873D01*
Y45010D01*
X43867D01*
Y44998D01*
X43861D01*
Y44986D01*
X43855D01*
Y44980D01*
X43849D01*
Y44968D01*
X43843D01*
Y44950D01*
X43837D01*
Y44944D01*
X43831D01*
Y44927D01*
X43825D01*
Y44921D01*
X43819D01*
Y44897D01*
X43813D01*
Y44885D01*
X43807D01*
Y44867D01*
X43801D01*
Y44843D01*
X43795D01*
Y44825D01*
X43789D01*
Y44795D01*
X43783D01*
Y44771D01*
X43777D01*
Y44730D01*
X43771D01*
Y39770D01*
X43777D01*
Y39728D01*
X43783D01*
Y39704D01*
X43789D01*
Y39674D01*
X43795D01*
Y39656D01*
X43801D01*
Y39632D01*
X43807D01*
Y39615D01*
X43813D01*
Y39603D01*
X43819D01*
Y39579D01*
X43825D01*
Y39573D01*
X43831D01*
Y39555D01*
X43837D01*
Y39549D01*
X43843D01*
Y39531D01*
X43849D01*
Y39519D01*
X43855D01*
Y39513D01*
X43861D01*
Y39501D01*
X43867D01*
Y39489D01*
X43873D01*
Y39483D01*
X43879D01*
Y39471D01*
X43885D01*
Y39459D01*
X43891D01*
Y39453D01*
X43897D01*
Y39447D01*
X43903D01*
Y39436D01*
X43909D01*
Y39430D01*
X43915D01*
Y39418D01*
X43921D01*
Y39412D01*
X43926D01*
Y39406D01*
X43932D01*
Y39400D01*
X43938D01*
Y39394D01*
X43944D01*
Y39382D01*
X43950D01*
Y39376D01*
X43956D01*
Y39370D01*
X43962D01*
Y39364D01*
X43968D01*
Y39358D01*
X43974D01*
Y39352D01*
X43980D01*
Y39346D01*
X43986D01*
Y39340D01*
X43992D01*
Y39334D01*
X43998D01*
Y39328D01*
X44010D01*
Y39322D01*
X44016D01*
Y39316D01*
X44022D01*
Y39310D01*
X44028D01*
Y39304D01*
X44034D01*
Y39298D01*
X44046D01*
Y39292D01*
X44052D01*
Y39286D01*
X44058D01*
Y39280D01*
X44070D01*
Y39274D01*
X44076D01*
Y39268D01*
X44082D01*
Y39262D01*
X44094D01*
Y39256D01*
X44106D01*
Y39250D01*
X44111D01*
Y39245D01*
X44123D01*
Y39239D01*
X44135D01*
Y39233D01*
X44147D01*
Y39227D01*
X44159D01*
Y39221D01*
X44165D01*
Y39215D01*
X44183D01*
Y39209D01*
X44195D01*
Y39203D01*
X44207D01*
Y39197D01*
X44225D01*
Y39191D01*
X44237D01*
Y39185D01*
X44261D01*
Y39179D01*
X44273D01*
Y39173D01*
X44302D01*
Y39167D01*
X44320D01*
Y39161D01*
X44350D01*
Y39155D01*
X44404D01*
Y39149D01*
X51602D01*
Y39155D01*
X51650D01*
Y39161D01*
X51680D01*
Y39167D01*
X51697D01*
Y39173D01*
X51727D01*
Y39179D01*
X51739D01*
Y39185D01*
X51763D01*
Y39191D01*
X51775D01*
Y39197D01*
X51793D01*
Y39203D01*
X51805D01*
Y39209D01*
X51817D01*
Y39215D01*
X51835D01*
Y39221D01*
X51841D01*
Y39227D01*
X51853D01*
Y39233D01*
X51865D01*
Y39239D01*
X51877D01*
Y39245D01*
X51889D01*
Y39250D01*
X51894D01*
Y39256D01*
X51906D01*
Y39262D01*
X51918D01*
Y39268D01*
X51924D01*
Y39274D01*
X51930D01*
Y39280D01*
X51942D01*
Y39286D01*
X51948D01*
Y39292D01*
X51954D01*
Y39298D01*
X51966D01*
Y39304D01*
X51972D01*
Y39310D01*
X51978D01*
Y39316D01*
X51984D01*
Y39322D01*
X51990D01*
Y39328D01*
X52002D01*
Y39334D01*
X52008D01*
Y39340D01*
X52014D01*
Y39346D01*
X52020D01*
Y39352D01*
X52026D01*
Y39358D01*
X52032D01*
Y39364D01*
X52038D01*
Y39370D01*
X52044D01*
Y39376D01*
X52050D01*
Y39382D01*
X52056D01*
Y39394D01*
X52062D01*
Y39400D01*
X52068D01*
Y39406D01*
X52074D01*
Y39412D01*
X52079D01*
Y39418D01*
X52085D01*
Y39430D01*
X52091D01*
Y39436D01*
X52097D01*
Y39447D01*
X52103D01*
Y39453D01*
X52109D01*
Y39459D01*
X52115D01*
Y39471D01*
X52121D01*
Y39483D01*
X52127D01*
Y39489D01*
X52133D01*
Y39495D01*
X52139D01*
Y39513D01*
X52145D01*
Y39519D01*
X52151D01*
Y39531D01*
X52157D01*
Y39549D01*
X52163D01*
Y39555D01*
X52169D01*
Y39573D01*
X52175D01*
Y39579D01*
X52181D01*
Y39603D01*
X52187D01*
Y39615D01*
X52193D01*
Y39632D01*
X52199D01*
Y39656D01*
X52205D01*
Y39674D01*
X52211D01*
Y39704D01*
X52217D01*
Y39728D01*
X52223D01*
Y39770D01*
X52229D01*
Y44730D01*
X52223D01*
Y44771D01*
X52217D01*
Y44795D01*
X52211D01*
Y44825D01*
X52205D01*
Y44843D01*
X52199D01*
Y44867D01*
X52193D01*
Y44885D01*
X52187D01*
Y44897D01*
X52181D01*
Y44921D01*
X52175D01*
Y44927D01*
X52169D01*
Y44944D01*
X52163D01*
Y44950D01*
X52157D01*
Y44968D01*
X52151D01*
Y44980D01*
X52145D01*
Y44986D01*
X52139D01*
Y44998D01*
X52133D01*
Y45010D01*
X52127D01*
Y45016D01*
X52121D01*
Y45028D01*
X52115D01*
Y45040D01*
X52109D01*
Y45046D01*
X52103D01*
Y45052D01*
X52097D01*
Y45064D01*
X52091D01*
Y45070D01*
X52085D01*
Y45082D01*
X52079D01*
Y45088D01*
X52074D01*
Y45094D01*
X52068D01*
Y45100D01*
X52062D01*
Y45106D01*
X52056D01*
Y45118D01*
X52050D01*
Y45124D01*
X52044D01*
Y45129D01*
X52038D01*
Y45135D01*
X52032D01*
Y45141D01*
X52026D01*
Y45147D01*
X52020D01*
Y45153D01*
X52014D01*
Y45159D01*
X52008D01*
Y45165D01*
X52002D01*
Y45171D01*
X51990D01*
Y45177D01*
X51984D01*
Y45183D01*
X51978D01*
Y45189D01*
X51972D01*
Y45195D01*
X51966D01*
Y45201D01*
X51954D01*
Y45207D01*
X51948D01*
Y45213D01*
X51942D01*
Y45219D01*
X51930D01*
Y45225D01*
X51924D01*
Y45231D01*
X51918D01*
Y45237D01*
X51906D01*
Y45243D01*
X51894D01*
Y45249D01*
X51889D01*
Y45255D01*
X51877D01*
Y45261D01*
X51865D01*
Y45267D01*
X51853D01*
Y45273D01*
X51841D01*
Y45279D01*
X51835D01*
Y45285D01*
X51817D01*
Y45291D01*
X51805D01*
Y45297D01*
X51793D01*
Y45303D01*
X51775D01*
Y45309D01*
X51763D01*
Y45314D01*
X51739D01*
Y45320D01*
X51727D01*
Y45326D01*
X51697D01*
Y45332D01*
X51680D01*
Y45338D01*
X51650D01*
Y45344D01*
X51596D01*
Y45350D01*
D02*
G37*
%LPD*%
G36*
X47848Y44927D02*
X47860D01*
Y40003D01*
X47854D01*
Y39997D01*
X47848D01*
Y39991D01*
X47836D01*
Y39997D01*
X47030D01*
Y39991D01*
X47024D01*
Y39997D01*
X47012D01*
Y40271D01*
X47024D01*
Y40277D01*
X47036D01*
Y40271D01*
X47042D01*
Y40277D01*
X47549D01*
Y40271D01*
X47561D01*
Y40277D01*
X47573D01*
Y40283D01*
X47579D01*
Y40874D01*
Y40880D01*
Y42103D01*
X47573D01*
Y42115D01*
X47567D01*
Y42121D01*
X47561D01*
Y42127D01*
X47555D01*
Y42133D01*
X47543D01*
Y42139D01*
X47537D01*
Y42145D01*
X47531D01*
Y42151D01*
X47526D01*
Y42157D01*
X47520D01*
Y42163D01*
X47514D01*
Y42169D01*
X47508D01*
Y42175D01*
X47502D01*
Y42181D01*
X47496D01*
Y42187D01*
X47490D01*
Y42193D01*
X47484D01*
Y42199D01*
X47472D01*
Y42205D01*
X47466D01*
Y42211D01*
X47460D01*
Y42217D01*
X47454D01*
Y42223D01*
X47448D01*
Y42229D01*
X47442D01*
Y42235D01*
X47436D01*
Y42241D01*
X47430D01*
Y42247D01*
X47424D01*
Y42253D01*
X47418D01*
Y42259D01*
X47406D01*
Y42265D01*
X47400D01*
Y42271D01*
X47394D01*
Y42277D01*
X47388D01*
Y42282D01*
X47382D01*
Y42288D01*
X47376D01*
Y42294D01*
X47370D01*
Y42300D01*
X47364D01*
Y42306D01*
X47358D01*
Y42312D01*
X47346D01*
Y42318D01*
X47340D01*
Y42324D01*
X47335D01*
Y42330D01*
X47329D01*
Y42336D01*
X47323D01*
Y42342D01*
X47317D01*
Y42348D01*
X47311D01*
Y42354D01*
X47305D01*
Y42360D01*
X47299D01*
Y42366D01*
X47293D01*
Y42372D01*
X47287D01*
Y42378D01*
X47275D01*
Y42384D01*
X47269D01*
Y42390D01*
X47263D01*
Y42396D01*
X47257D01*
Y42402D01*
X47251D01*
Y42408D01*
X47245D01*
Y42414D01*
X47239D01*
Y42420D01*
X47233D01*
Y42426D01*
X47227D01*
Y42432D01*
X47215D01*
Y42438D01*
X47209D01*
Y42444D01*
X47203D01*
Y42450D01*
X47197D01*
Y42456D01*
X47191D01*
Y42462D01*
X47185D01*
Y42468D01*
X47179D01*
Y42473D01*
X47173D01*
Y42479D01*
X47167D01*
Y42485D01*
X47161D01*
Y42491D01*
X47155D01*
Y42497D01*
X47144D01*
Y42503D01*
X47138D01*
Y42509D01*
X47132D01*
Y42515D01*
X47126D01*
Y42521D01*
X47120D01*
Y42527D01*
X47114D01*
Y42533D01*
X47108D01*
Y42539D01*
X47102D01*
Y42545D01*
X47096D01*
Y42551D01*
X47084D01*
Y42557D01*
X47078D01*
Y42563D01*
X47072D01*
Y42569D01*
X47066D01*
Y42575D01*
X47060D01*
Y42581D01*
X47054D01*
Y42587D01*
X47048D01*
Y42593D01*
X47042D01*
Y42599D01*
X47036D01*
Y42605D01*
X47030D01*
Y42611D01*
X47018D01*
Y42617D01*
X47012D01*
Y42623D01*
X47006D01*
Y42629D01*
X47000D01*
Y42635D01*
X46994D01*
Y42641D01*
X46988D01*
Y42647D01*
X46982D01*
Y42653D01*
X46976D01*
Y42659D01*
X46970D01*
Y42664D01*
X46964D01*
Y42670D01*
X46958D01*
Y42676D01*
X46947D01*
Y42682D01*
X46941D01*
Y42688D01*
X46935D01*
Y42694D01*
X46929D01*
Y42700D01*
X46923D01*
Y42706D01*
X46917D01*
Y42712D01*
X46911D01*
Y42718D01*
X46905D01*
Y42724D01*
X46899D01*
Y42730D01*
X46887D01*
Y42736D01*
X46881D01*
Y42742D01*
X46875D01*
Y42748D01*
X46869D01*
Y42754D01*
X46863D01*
Y42760D01*
X46857D01*
Y42766D01*
X46851D01*
Y42772D01*
X46845D01*
Y42778D01*
X46839D01*
Y42784D01*
X46833D01*
Y42790D01*
X46827D01*
Y42796D01*
X46815D01*
Y42802D01*
X46809D01*
Y42808D01*
X46803D01*
Y42814D01*
X46797D01*
Y42820D01*
X46791D01*
Y42826D01*
X46785D01*
Y42832D01*
X46779D01*
Y42838D01*
X46773D01*
Y42844D01*
X46768D01*
Y42849D01*
X46756D01*
Y42855D01*
X46750D01*
Y42861D01*
X46744D01*
Y42867D01*
X46738D01*
Y42873D01*
X46732D01*
Y42879D01*
X46726D01*
Y42885D01*
X46720D01*
Y42891D01*
X46714D01*
Y42897D01*
X46708D01*
Y42903D01*
X46702D01*
Y42909D01*
X46696D01*
Y42915D01*
X46684D01*
Y42921D01*
X46678D01*
Y42927D01*
X46672D01*
Y42933D01*
X46666D01*
Y42939D01*
X46660D01*
Y42945D01*
X46654D01*
Y42951D01*
X46642D01*
Y42963D01*
X46636D01*
Y42969D01*
X46624D01*
Y42981D01*
X46612D01*
Y42987D01*
X46606D01*
Y42993D01*
X46600D01*
Y42999D01*
X46594D01*
Y43005D01*
X46588D01*
Y43011D01*
X46582D01*
Y43017D01*
X46577D01*
Y43023D01*
X46565D01*
Y43029D01*
X46559D01*
Y43035D01*
X46553D01*
Y43040D01*
X46547D01*
Y43046D01*
X46541D01*
Y43052D01*
X46535D01*
Y43058D01*
X46529D01*
Y43064D01*
X46523D01*
Y43070D01*
X46517D01*
Y43076D01*
X46511D01*
Y43082D01*
X46505D01*
Y43088D01*
X46499D01*
Y43094D01*
X46487D01*
Y43100D01*
X46481D01*
Y43106D01*
X46475D01*
Y43112D01*
X46469D01*
Y43118D01*
X46463D01*
Y43124D01*
X46457D01*
Y43130D01*
X46451D01*
Y43136D01*
X46445D01*
Y43142D01*
X46439D01*
Y43148D01*
X46427D01*
Y43154D01*
X46421D01*
Y43160D01*
X46415D01*
Y43166D01*
X46409D01*
Y43172D01*
X46403D01*
Y43178D01*
X46397D01*
Y43184D01*
X46391D01*
Y43190D01*
X46386D01*
Y43196D01*
X46380D01*
Y43202D01*
X46374D01*
Y43208D01*
X46368D01*
Y43214D01*
X46356D01*
Y43220D01*
X46350D01*
Y43226D01*
X46344D01*
Y43231D01*
X46338D01*
Y43237D01*
X46332D01*
Y43243D01*
X46326D01*
Y43249D01*
X46320D01*
Y43255D01*
X46314D01*
Y43261D01*
X46308D01*
Y43267D01*
X46296D01*
Y43273D01*
X46290D01*
Y43279D01*
X46284D01*
Y43285D01*
X46278D01*
Y43291D01*
X46272D01*
Y43297D01*
X46266D01*
Y43303D01*
X46260D01*
Y43309D01*
X46254D01*
Y43315D01*
X46248D01*
Y43321D01*
X46242D01*
Y43327D01*
X46230D01*
Y43333D01*
X46224D01*
Y43339D01*
X46218D01*
Y43345D01*
X46212D01*
Y43351D01*
X46206D01*
Y43357D01*
X46200D01*
Y43363D01*
X46195D01*
Y43369D01*
X46189D01*
Y43375D01*
X46183D01*
Y43381D01*
X46177D01*
Y43387D01*
X46171D01*
Y43393D01*
X46159D01*
Y43399D01*
X46153D01*
Y43405D01*
X46147D01*
Y43411D01*
X46141D01*
Y43417D01*
X46135D01*
Y43422D01*
X46129D01*
Y43428D01*
X46123D01*
Y43434D01*
X46117D01*
Y43440D01*
X46111D01*
Y43446D01*
X46099D01*
Y43452D01*
X46093D01*
Y43458D01*
X46087D01*
Y43464D01*
X46081D01*
Y43470D01*
X46075D01*
Y43476D01*
X46069D01*
Y43482D01*
X46063D01*
Y43488D01*
X46057D01*
Y43494D01*
X46045D01*
Y43506D01*
X46039D01*
Y43512D01*
X46027D01*
Y43506D01*
X46021D01*
Y43494D01*
X46015D01*
Y43476D01*
X46009D01*
Y43458D01*
X46004D01*
Y43440D01*
X45998D01*
Y43417D01*
X45992D01*
Y43399D01*
X45986D01*
Y43381D01*
X45980D01*
Y43363D01*
X45974D01*
Y43345D01*
X45968D01*
Y43327D01*
X45962D01*
Y43309D01*
X45956D01*
Y43285D01*
X45950D01*
Y43267D01*
X45944D01*
Y43249D01*
X45938D01*
Y43231D01*
X45932D01*
Y43214D01*
X45926D01*
Y43196D01*
X45920D01*
Y43178D01*
X45914D01*
Y43154D01*
X45908D01*
Y43136D01*
X45902D01*
Y43118D01*
X45896D01*
Y43100D01*
X45890D01*
Y43082D01*
X45884D01*
Y43064D01*
X45878D01*
Y43040D01*
X45872D01*
Y43029D01*
X45866D01*
Y43005D01*
X45860D01*
Y42987D01*
X45854D01*
Y42969D01*
X45848D01*
Y42951D01*
X45842D01*
Y42933D01*
X45836D01*
Y42909D01*
X45830D01*
Y42891D01*
X45824D01*
Y42873D01*
X45819D01*
Y42855D01*
X45813D01*
Y42838D01*
X45807D01*
Y42820D01*
X45801D01*
Y42802D01*
X45795D01*
Y42778D01*
X45789D01*
Y42766D01*
X45783D01*
Y42742D01*
X45777D01*
Y42724D01*
X45771D01*
Y42706D01*
X45765D01*
Y42688D01*
X45759D01*
Y42670D01*
X45753D01*
Y42647D01*
X45747D01*
Y42629D01*
X45741D01*
Y42611D01*
X45735D01*
Y42593D01*
X45729D01*
Y42575D01*
X45723D01*
Y42557D01*
X45717D01*
Y42539D01*
X45711D01*
Y42521D01*
X45705D01*
Y42497D01*
X45699D01*
Y42479D01*
X45693D01*
Y42462D01*
X45687D01*
Y42444D01*
X45681D01*
Y42426D01*
X45675D01*
Y42408D01*
X45669D01*
Y42390D01*
X45663D01*
Y42366D01*
X45657D01*
Y42348D01*
X45651D01*
Y42330D01*
X45645D01*
Y42312D01*
X45639D01*
Y42294D01*
X45633D01*
Y42277D01*
X45628D01*
Y42253D01*
X45622D01*
Y42235D01*
X45616D01*
Y42217D01*
X45610D01*
Y42199D01*
X45604D01*
Y42181D01*
X45598D01*
Y42163D01*
X45592D01*
Y42145D01*
X45586D01*
Y42127D01*
X45580D01*
Y42103D01*
X45574D01*
Y42091D01*
X45568D01*
Y42068D01*
X45562D01*
Y42050D01*
X45556D01*
Y42032D01*
X45550D01*
Y42014D01*
X45544D01*
Y41996D01*
X45538D01*
Y41972D01*
X45532D01*
Y41954D01*
X45526D01*
Y41936D01*
X45520D01*
Y41918D01*
X45514D01*
Y41901D01*
X45508D01*
Y41883D01*
X45502D01*
Y41865D01*
X45496D01*
Y41841D01*
X45490D01*
Y41823D01*
X45484D01*
Y41805D01*
X45478D01*
Y41787D01*
X45472D01*
Y41769D01*
X45466D01*
Y41751D01*
X45460D01*
Y41733D01*
X45454D01*
Y41710D01*
X45448D01*
Y41692D01*
X45442D01*
Y41674D01*
X45437D01*
Y41656D01*
X45431D01*
Y41638D01*
X45425D01*
Y41620D01*
X45419D01*
Y41602D01*
X45413D01*
Y41578D01*
X45407D01*
Y41560D01*
X45401D01*
Y41542D01*
X45395D01*
Y41524D01*
X45389D01*
Y41507D01*
X45383D01*
Y41489D01*
X45377D01*
Y41465D01*
X45371D01*
Y41453D01*
X45365D01*
Y41429D01*
X45359D01*
Y41411D01*
X45353D01*
Y41393D01*
X45347D01*
Y41375D01*
X45341D01*
Y41357D01*
X45335D01*
Y41333D01*
X45329D01*
Y41322D01*
X45323D01*
Y41298D01*
X45317D01*
Y41280D01*
X45311D01*
Y41262D01*
X45305D01*
Y41244D01*
X45299D01*
Y41226D01*
X45293D01*
Y41202D01*
X45287D01*
Y41190D01*
X45281D01*
Y41166D01*
X45275D01*
Y41148D01*
X45269D01*
Y41131D01*
X45263D01*
Y41113D01*
X45257D01*
Y41095D01*
X45251D01*
Y41071D01*
X45246D01*
Y41059D01*
X45240D01*
Y41035D01*
X45234D01*
Y41017D01*
X45228D01*
Y40999D01*
X45222D01*
Y40981D01*
X45216D01*
Y40963D01*
X45210D01*
Y40946D01*
X45204D01*
Y40922D01*
X45198D01*
Y40904D01*
X45192D01*
Y40886D01*
X45186D01*
Y40868D01*
X45180D01*
Y40850D01*
X45174D01*
Y40832D01*
X45168D01*
Y40814D01*
X45162D01*
Y40790D01*
X45156D01*
Y40772D01*
X45150D01*
Y40755D01*
X45144D01*
Y40737D01*
X45138D01*
Y40719D01*
X45132D01*
Y40701D01*
X45126D01*
Y40683D01*
X45120D01*
Y40659D01*
X45114D01*
Y40641D01*
X45108D01*
Y40623D01*
X45102D01*
Y40605D01*
X45096D01*
Y40587D01*
X45090D01*
Y40570D01*
X45084D01*
Y40552D01*
X45078D01*
Y40528D01*
X45072D01*
Y40510D01*
X45066D01*
Y40492D01*
X45061D01*
Y40474D01*
X45055D01*
Y40456D01*
X45049D01*
Y40438D01*
X45043D01*
Y40420D01*
X45049D01*
Y40414D01*
X45323D01*
Y40140D01*
X45317D01*
Y40134D01*
X44195D01*
Y40140D01*
X44189D01*
Y40408D01*
X44195D01*
Y40414D01*
X44893D01*
Y40420D01*
X44899D01*
Y40426D01*
X44905D01*
Y40450D01*
X44911D01*
Y40468D01*
X44917D01*
Y40486D01*
X44923D01*
Y40504D01*
X44929D01*
Y40522D01*
X44935D01*
Y40540D01*
X44941D01*
Y40558D01*
X44947D01*
Y40575D01*
X44953D01*
Y40593D01*
X44959D01*
Y40611D01*
X44965D01*
Y40635D01*
X44971D01*
Y40653D01*
X44977D01*
Y40671D01*
X44983D01*
Y40689D01*
X44989D01*
Y40707D01*
X44995D01*
Y40725D01*
X45001D01*
Y40743D01*
X45007D01*
Y40766D01*
X45013D01*
Y40778D01*
X45019D01*
Y40802D01*
X45025D01*
Y40820D01*
X45031D01*
Y40838D01*
X45037D01*
Y40856D01*
X45043D01*
Y40874D01*
X45049D01*
Y40892D01*
X45055D01*
Y40910D01*
X45061D01*
Y40928D01*
X45066D01*
Y40952D01*
X45072D01*
Y40969D01*
X45078D01*
Y40987D01*
X45084D01*
Y41005D01*
X45090D01*
Y41023D01*
X45096D01*
Y41041D01*
X45102D01*
Y41059D01*
X45108D01*
Y41077D01*
X45114D01*
Y41095D01*
X45120D01*
Y41119D01*
X45126D01*
Y41137D01*
X45132D01*
Y41154D01*
X45138D01*
Y41172D01*
X45144D01*
Y41190D01*
X45150D01*
Y41208D01*
X45156D01*
Y41226D01*
X45162D01*
Y41244D01*
X45168D01*
Y41262D01*
X45174D01*
Y41286D01*
X45180D01*
Y41304D01*
X45186D01*
Y41322D01*
X45192D01*
Y41339D01*
X45198D01*
Y41357D01*
X45204D01*
Y41375D01*
X45210D01*
Y41393D01*
X45216D01*
Y41411D01*
X45222D01*
Y41435D01*
X45228D01*
Y41453D01*
X45234D01*
Y41471D01*
X45240D01*
Y41489D01*
X45246D01*
Y41507D01*
X45251D01*
Y41524D01*
X45257D01*
Y41542D01*
X45263D01*
Y41560D01*
X45269D01*
Y41578D01*
X45275D01*
Y41602D01*
X45281D01*
Y41620D01*
X45287D01*
Y41638D01*
X45293D01*
Y41656D01*
X45299D01*
Y41674D01*
X45305D01*
Y41692D01*
X45311D01*
Y41710D01*
X45317D01*
Y41727D01*
X45323D01*
Y41745D01*
X45329D01*
Y41763D01*
X45335D01*
Y41787D01*
X45341D01*
Y41805D01*
X45347D01*
Y41823D01*
X45353D01*
Y41841D01*
X45359D01*
Y41859D01*
X45365D01*
Y41877D01*
X45371D01*
Y41895D01*
X45377D01*
Y41912D01*
X45383D01*
Y41936D01*
X45389D01*
Y41948D01*
X45395D01*
Y41972D01*
X45401D01*
Y41990D01*
X45407D01*
Y42008D01*
X45413D01*
Y42026D01*
X45419D01*
Y42044D01*
X45425D01*
Y42062D01*
X45431D01*
Y42080D01*
X45437D01*
Y42103D01*
X45442D01*
Y42121D01*
X45448D01*
Y42139D01*
X45454D01*
Y42157D01*
X45460D01*
Y42175D01*
X45466D01*
Y42193D01*
X45472D01*
Y42211D01*
X45478D01*
Y42229D01*
X45484D01*
Y42247D01*
X45490D01*
Y42265D01*
X45496D01*
Y42288D01*
X45502D01*
Y42306D01*
X45508D01*
Y42324D01*
X45514D01*
Y42342D01*
X45520D01*
Y42360D01*
X45526D01*
Y42378D01*
X45532D01*
Y42396D01*
X45538D01*
Y42420D01*
X45544D01*
Y42438D01*
X45550D01*
Y42456D01*
X45556D01*
Y42473D01*
X45562D01*
Y42491D01*
X45568D01*
Y42509D01*
X45574D01*
Y42527D01*
X45580D01*
Y42545D01*
X45586D01*
Y42563D01*
X45592D01*
Y42581D01*
X45598D01*
Y42605D01*
X45604D01*
Y42623D01*
X45610D01*
Y42641D01*
X45616D01*
Y42659D01*
X45622D01*
Y42676D01*
X45628D01*
Y42694D01*
X45633D01*
Y42712D01*
X45639D01*
Y42736D01*
X45645D01*
Y42748D01*
X45651D01*
Y42772D01*
X45657D01*
Y42790D01*
X45663D01*
Y42808D01*
X45669D01*
Y42826D01*
X45675D01*
Y42844D01*
X45681D01*
Y42861D01*
X45687D01*
Y42879D01*
X45693D01*
Y42897D01*
X45699D01*
Y42921D01*
X45705D01*
Y42939D01*
X45711D01*
Y42957D01*
X45717D01*
Y42969D01*
X45723D01*
Y42993D01*
X45729D01*
Y43011D01*
X45735D01*
Y43029D01*
X45741D01*
Y43046D01*
X45747D01*
Y43064D01*
X45753D01*
Y43088D01*
X45759D01*
Y43106D01*
X45765D01*
Y43124D01*
X45771D01*
Y43142D01*
X45777D01*
Y43160D01*
X45783D01*
Y43178D01*
X45789D01*
Y43196D01*
X45795D01*
Y43220D01*
X45801D01*
Y43231D01*
X45807D01*
Y43255D01*
X45813D01*
Y43273D01*
X45819D01*
Y43291D01*
X45824D01*
Y43309D01*
X45830D01*
Y43327D01*
X45836D01*
Y43345D01*
X45842D01*
Y43363D01*
X45848D01*
Y43381D01*
X45854D01*
Y43405D01*
X45860D01*
Y43422D01*
X45866D01*
Y43440D01*
X45872D01*
Y43458D01*
X45878D01*
Y43476D01*
X45884D01*
Y43494D01*
X45890D01*
Y43512D01*
X45896D01*
Y43530D01*
X45902D01*
Y43548D01*
X45908D01*
Y43572D01*
X45914D01*
Y43590D01*
X45920D01*
Y43607D01*
X45926D01*
Y43625D01*
X45932D01*
Y43643D01*
X45938D01*
Y43661D01*
X45944D01*
Y43679D01*
X45950D01*
Y43697D01*
X45956D01*
Y43721D01*
X45962D01*
Y43739D01*
X45968D01*
Y43757D01*
X45974D01*
Y43775D01*
X45980D01*
Y43793D01*
X45986D01*
Y43810D01*
X45992D01*
Y43828D01*
X45998D01*
Y43846D01*
X46004D01*
Y43864D01*
X46009D01*
Y43888D01*
X46015D01*
Y43900D01*
X46021D01*
Y43924D01*
X46027D01*
Y43942D01*
X46033D01*
Y43960D01*
X46039D01*
Y43978D01*
X46045D01*
Y43995D01*
X46051D01*
Y44013D01*
X46057D01*
Y44031D01*
X46063D01*
Y44055D01*
X46069D01*
Y44073D01*
X46075D01*
Y44091D01*
X46081D01*
Y44109D01*
X46087D01*
Y44127D01*
X46093D01*
Y44145D01*
X46099D01*
Y44163D01*
X46105D01*
Y44180D01*
X46111D01*
Y44204D01*
X46117D01*
Y44216D01*
X46123D01*
Y44240D01*
X46129D01*
Y44258D01*
X46135D01*
Y44276D01*
X46141D01*
Y44294D01*
X46147D01*
Y44312D01*
X46153D01*
Y44330D01*
X46159D01*
Y44348D01*
X46165D01*
Y44354D01*
X46171D01*
Y44360D01*
X46177D01*
Y44354D01*
X46183D01*
Y44348D01*
X46189D01*
Y44342D01*
X46195D01*
Y44336D01*
X46200D01*
Y44330D01*
X46206D01*
Y44324D01*
X46212D01*
Y44318D01*
X46218D01*
Y44312D01*
X46224D01*
Y44306D01*
X46230D01*
Y44300D01*
X46236D01*
Y44294D01*
X46242D01*
Y44288D01*
X46248D01*
Y44282D01*
X46254D01*
Y44276D01*
X46260D01*
Y44270D01*
X46266D01*
Y44264D01*
X46272D01*
Y44258D01*
X46278D01*
Y44252D01*
X46284D01*
Y44246D01*
X46290D01*
Y44240D01*
X46296D01*
Y44234D01*
X46302D01*
Y44228D01*
X46308D01*
Y44222D01*
X46314D01*
Y44216D01*
X46320D01*
Y44210D01*
X46326D01*
Y44204D01*
X46332D01*
Y44198D01*
X46338D01*
Y44192D01*
X46344D01*
Y44186D01*
X46350D01*
Y44180D01*
X46356D01*
Y44175D01*
X46362D01*
Y44169D01*
X46368D01*
Y44163D01*
X46374D01*
Y44157D01*
X46380D01*
Y44151D01*
X46386D01*
Y44145D01*
X46391D01*
Y44139D01*
X46397D01*
Y44133D01*
X46403D01*
Y44127D01*
X46409D01*
Y44121D01*
X46415D01*
Y44115D01*
X46421D01*
Y44109D01*
X46427D01*
Y44103D01*
X46433D01*
Y44097D01*
X46439D01*
Y44091D01*
X46445D01*
Y44085D01*
X46451D01*
Y44079D01*
X46457D01*
Y44073D01*
X46463D01*
Y44067D01*
X46469D01*
Y44061D01*
X46475D01*
Y44055D01*
X46481D01*
Y44049D01*
X46487D01*
Y44043D01*
X46493D01*
Y44037D01*
X46499D01*
Y44031D01*
X46505D01*
Y44025D01*
X46511D01*
Y44019D01*
X46517D01*
Y44013D01*
X46523D01*
Y44007D01*
X46529D01*
Y44001D01*
X46535D01*
Y43995D01*
X46541D01*
Y43989D01*
X46547D01*
Y43984D01*
X46553D01*
Y43978D01*
X46559D01*
Y43972D01*
X46565D01*
Y43966D01*
X46571D01*
Y43960D01*
X46577D01*
Y43954D01*
X46582D01*
Y43948D01*
X46588D01*
Y43942D01*
X46594D01*
Y43936D01*
X46600D01*
Y43930D01*
X46606D01*
Y43924D01*
X46612D01*
Y43918D01*
X46618D01*
Y43912D01*
X46624D01*
Y43906D01*
X46630D01*
Y43900D01*
X46636D01*
Y43894D01*
X46642D01*
Y43888D01*
X46648D01*
Y43882D01*
X46654D01*
Y43876D01*
X46660D01*
Y43870D01*
X46666D01*
Y43864D01*
X46672D01*
Y43858D01*
X46678D01*
Y43852D01*
X46684D01*
Y43846D01*
X46690D01*
Y43840D01*
X46696D01*
Y43834D01*
X46702D01*
Y43828D01*
X46708D01*
Y43822D01*
X46714D01*
Y43816D01*
X46720D01*
Y43810D01*
X46726D01*
Y43804D01*
X46732D01*
Y43799D01*
X46738D01*
Y43793D01*
X46744D01*
Y43787D01*
X46750D01*
Y43781D01*
X46756D01*
Y43775D01*
X46762D01*
Y43769D01*
X46768D01*
Y43763D01*
X46773D01*
Y43757D01*
X46779D01*
Y43751D01*
X46785D01*
Y43745D01*
X46791D01*
Y43739D01*
X46797D01*
Y43733D01*
X46803D01*
Y43727D01*
X46809D01*
Y43721D01*
X46815D01*
Y43715D01*
X46821D01*
Y43709D01*
X46827D01*
Y43703D01*
X46833D01*
Y43697D01*
X46839D01*
Y43691D01*
X46845D01*
Y43685D01*
X46851D01*
Y43679D01*
X46857D01*
Y43673D01*
X46863D01*
Y43667D01*
X46869D01*
Y43661D01*
X46875D01*
Y43655D01*
X46881D01*
Y43649D01*
X46887D01*
Y43643D01*
X46893D01*
Y43637D01*
X46899D01*
Y43631D01*
X46905D01*
Y43625D01*
X46911D01*
Y43619D01*
X46917D01*
Y43613D01*
X46923D01*
Y43607D01*
X46929D01*
Y43602D01*
X46935D01*
Y43596D01*
X46941D01*
Y43590D01*
X46947D01*
Y43584D01*
X46953D01*
Y43578D01*
X46958D01*
Y43572D01*
X46964D01*
Y43566D01*
X46970D01*
Y43560D01*
X46976D01*
Y43554D01*
X46982D01*
Y43548D01*
X46988D01*
Y43542D01*
X46994D01*
Y43536D01*
X47000D01*
Y43530D01*
X47006D01*
Y43524D01*
X47012D01*
Y43518D01*
X47018D01*
Y43512D01*
X47024D01*
Y43506D01*
X47030D01*
Y43494D01*
X47042D01*
Y43488D01*
X47048D01*
Y43482D01*
X47054D01*
Y43476D01*
X47060D01*
Y43470D01*
X47066D01*
Y43464D01*
X47072D01*
Y43458D01*
X47078D01*
Y43452D01*
X47084D01*
Y43446D01*
X47090D01*
Y43440D01*
X47096D01*
Y43434D01*
X47102D01*
Y43428D01*
X47108D01*
Y43422D01*
X47114D01*
Y43417D01*
X47120D01*
Y43411D01*
X47126D01*
Y43405D01*
X47132D01*
Y43399D01*
X47138D01*
Y43393D01*
X47144D01*
Y43387D01*
X47149D01*
Y43381D01*
X47155D01*
Y43375D01*
X47161D01*
Y43369D01*
X47167D01*
Y43363D01*
X47173D01*
Y43357D01*
X47179D01*
Y43351D01*
X47185D01*
Y43345D01*
X47191D01*
Y43339D01*
X47197D01*
Y43333D01*
X47203D01*
Y43327D01*
X47209D01*
Y43321D01*
X47215D01*
Y43315D01*
X47221D01*
Y43309D01*
X47227D01*
Y43303D01*
X47233D01*
Y43297D01*
X47239D01*
Y43291D01*
X47245D01*
Y43285D01*
X47251D01*
Y43279D01*
X47257D01*
Y43273D01*
X47263D01*
Y43267D01*
X47269D01*
Y43261D01*
X47275D01*
Y43255D01*
X47281D01*
Y43249D01*
X47287D01*
Y43243D01*
X47293D01*
Y43237D01*
X47299D01*
Y43231D01*
X47305D01*
Y43226D01*
X47311D01*
Y43220D01*
X47317D01*
Y43214D01*
X47323D01*
Y43208D01*
X47329D01*
Y43202D01*
X47335D01*
Y43196D01*
X47340D01*
Y43190D01*
X47346D01*
Y43184D01*
X47352D01*
Y43178D01*
X47358D01*
Y43172D01*
X47364D01*
Y43166D01*
X47370D01*
Y43160D01*
X47376D01*
Y43154D01*
X47382D01*
Y43148D01*
X47388D01*
Y43142D01*
X47394D01*
Y43136D01*
X47400D01*
Y43130D01*
X47406D01*
Y43124D01*
X47412D01*
Y43118D01*
X47418D01*
Y43112D01*
X47424D01*
Y43106D01*
X47430D01*
Y43100D01*
X47436D01*
Y43094D01*
X47442D01*
Y43088D01*
X47448D01*
Y43082D01*
X47454D01*
Y43076D01*
X47460D01*
Y43070D01*
X47466D01*
Y43064D01*
X47472D01*
Y43058D01*
X47478D01*
Y43052D01*
X47484D01*
Y43046D01*
X47490D01*
Y43040D01*
X47496D01*
Y43035D01*
X47502D01*
Y43029D01*
X47508D01*
Y43023D01*
X47514D01*
Y43017D01*
X47520D01*
Y43011D01*
X47526D01*
Y43005D01*
X47531D01*
Y42999D01*
X47537D01*
Y42993D01*
X47543D01*
Y42987D01*
X47549D01*
Y42981D01*
X47555D01*
Y42969D01*
X47579D01*
Y44640D01*
X47573D01*
Y44646D01*
X46875D01*
Y44658D01*
X46869D01*
Y44921D01*
X46875D01*
Y44927D01*
X47842D01*
Y44933D01*
X47848D01*
Y44927D01*
D02*
G37*
G36*
X48158D02*
X49131D01*
Y44652D01*
X49125D01*
Y44646D01*
X48427D01*
Y44634D01*
X48421D01*
Y44622D01*
X48427D01*
Y44371D01*
X48421D01*
Y44336D01*
X48427D01*
Y43530D01*
X48421D01*
Y43494D01*
X48427D01*
Y42987D01*
X48421D01*
Y42969D01*
X48427D01*
Y42963D01*
X48433D01*
Y42969D01*
X48445D01*
Y42981D01*
X48451D01*
Y42987D01*
X48457D01*
Y42993D01*
X48463D01*
Y42999D01*
X48469D01*
Y43005D01*
X48474D01*
Y43011D01*
X48480D01*
Y43017D01*
X48486D01*
Y43023D01*
X48492D01*
Y43029D01*
X48498D01*
Y43035D01*
X48504D01*
Y43040D01*
X48510D01*
Y43046D01*
X48516D01*
Y43052D01*
X48522D01*
Y43058D01*
X48528D01*
Y43064D01*
X48534D01*
Y43070D01*
X48540D01*
Y43076D01*
X48546D01*
Y43082D01*
X48552D01*
Y43088D01*
X48558D01*
Y43094D01*
X48564D01*
Y43100D01*
X48570D01*
Y43106D01*
X48576D01*
Y43112D01*
X48582D01*
Y43118D01*
X48588D01*
Y43124D01*
X48594D01*
Y43130D01*
X48600D01*
Y43136D01*
X48606D01*
Y43142D01*
X48612D01*
Y43148D01*
X48618D01*
Y43154D01*
X48624D01*
Y43160D01*
X48630D01*
Y43166D01*
X48636D01*
Y43172D01*
X48642D01*
Y43178D01*
X48648D01*
Y43184D01*
X48654D01*
Y43190D01*
X48660D01*
Y43196D01*
X48665D01*
Y43202D01*
X48671D01*
Y43208D01*
X48677D01*
Y43214D01*
X48683D01*
Y43220D01*
X48689D01*
Y43226D01*
X48695D01*
Y43231D01*
X48701D01*
Y43237D01*
X48707D01*
Y43243D01*
X48713D01*
Y43249D01*
X48719D01*
Y43255D01*
X48725D01*
Y43261D01*
X48731D01*
Y43267D01*
X48737D01*
Y43273D01*
X48743D01*
Y43279D01*
X48749D01*
Y43285D01*
X48755D01*
Y43291D01*
X48761D01*
Y43297D01*
X48767D01*
Y43303D01*
X48773D01*
Y43309D01*
X48779D01*
Y43315D01*
X48785D01*
Y43321D01*
X48791D01*
Y43327D01*
X48797D01*
Y43333D01*
X48803D01*
Y43339D01*
X48809D01*
Y43345D01*
X48815D01*
Y43351D01*
X48821D01*
Y43357D01*
X48827D01*
Y43363D01*
X48833D01*
Y43369D01*
X48839D01*
Y43375D01*
X48845D01*
Y43381D01*
X48851D01*
Y43387D01*
X48856D01*
Y43393D01*
X48862D01*
Y43399D01*
X48868D01*
Y43405D01*
X48874D01*
Y43411D01*
X48880D01*
Y43417D01*
X48886D01*
Y43422D01*
X48892D01*
Y43428D01*
X48898D01*
Y43434D01*
X48904D01*
Y43440D01*
X48910D01*
Y43446D01*
X48916D01*
Y43452D01*
X48922D01*
Y43458D01*
X48928D01*
Y43464D01*
X48934D01*
Y43470D01*
X48940D01*
Y43476D01*
X48946D01*
Y43482D01*
X48952D01*
Y43488D01*
X48958D01*
Y43494D01*
X48970D01*
Y43506D01*
X48976D01*
Y43512D01*
X48982D01*
Y43518D01*
X48988D01*
Y43524D01*
X48994D01*
Y43530D01*
X49000D01*
Y43536D01*
X49006D01*
Y43542D01*
X49012D01*
Y43548D01*
X49018D01*
Y43554D01*
X49024D01*
Y43560D01*
X49030D01*
Y43566D01*
X49036D01*
Y43572D01*
X49042D01*
Y43578D01*
X49047D01*
Y43584D01*
X49053D01*
Y43590D01*
X49059D01*
Y43596D01*
X49065D01*
Y43602D01*
X49071D01*
Y43607D01*
X49077D01*
Y43613D01*
X49083D01*
Y43619D01*
X49089D01*
Y43625D01*
X49095D01*
Y43631D01*
X49101D01*
Y43637D01*
X49107D01*
Y43643D01*
X49113D01*
Y43649D01*
X49119D01*
Y43655D01*
X49125D01*
Y43661D01*
X49131D01*
Y43667D01*
X49137D01*
Y43673D01*
X49143D01*
Y43679D01*
X49149D01*
Y43685D01*
X49155D01*
Y43691D01*
X49161D01*
Y43697D01*
X49167D01*
Y43703D01*
X49173D01*
Y43709D01*
X49179D01*
Y43715D01*
X49185D01*
Y43721D01*
X49191D01*
Y43727D01*
X49197D01*
Y43733D01*
X49203D01*
Y43739D01*
X49209D01*
Y43745D01*
X49215D01*
Y43751D01*
X49221D01*
Y43757D01*
X49227D01*
Y43763D01*
X49232D01*
Y43769D01*
X49238D01*
Y43775D01*
X49244D01*
Y43781D01*
X49250D01*
Y43787D01*
X49256D01*
Y43793D01*
X49262D01*
Y43799D01*
X49268D01*
Y43804D01*
X49274D01*
Y43810D01*
X49280D01*
Y43816D01*
X49286D01*
Y43822D01*
X49292D01*
Y43828D01*
X49298D01*
Y43834D01*
X49304D01*
Y43840D01*
X49310D01*
Y43846D01*
X49316D01*
Y43852D01*
X49322D01*
Y43858D01*
X49328D01*
Y43864D01*
X49334D01*
Y43870D01*
X49340D01*
Y43876D01*
X49346D01*
Y43882D01*
X49352D01*
Y43888D01*
X49358D01*
Y43894D01*
X49364D01*
Y43900D01*
X49370D01*
Y43906D01*
X49376D01*
Y43912D01*
X49382D01*
Y43918D01*
X49388D01*
Y43924D01*
X49394D01*
Y43930D01*
X49400D01*
Y43936D01*
X49406D01*
Y43942D01*
X49412D01*
Y43948D01*
X49418D01*
Y43954D01*
X49423D01*
Y43960D01*
X49429D01*
Y43966D01*
X49435D01*
Y43972D01*
X49441D01*
Y43978D01*
X49447D01*
Y43984D01*
X49453D01*
Y43989D01*
X49459D01*
Y43995D01*
X49465D01*
Y44001D01*
X49471D01*
Y44007D01*
X49477D01*
Y44013D01*
X49483D01*
Y44019D01*
X49489D01*
Y44025D01*
X49495D01*
Y44031D01*
X49501D01*
Y44037D01*
X49507D01*
Y44043D01*
X49513D01*
Y44049D01*
X49519D01*
Y44055D01*
X49525D01*
Y44061D01*
X49531D01*
Y44067D01*
X49537D01*
Y44073D01*
X49543D01*
Y44079D01*
X49549D01*
Y44085D01*
X49555D01*
Y44091D01*
X49561D01*
Y44097D01*
X49567D01*
Y44103D01*
X49573D01*
Y44109D01*
X49579D01*
Y44115D01*
X49585D01*
Y44121D01*
X49591D01*
Y44127D01*
X49597D01*
Y44133D01*
X49603D01*
Y44139D01*
X49609D01*
Y44145D01*
X49614D01*
Y44151D01*
X49620D01*
Y44157D01*
X49626D01*
Y44163D01*
X49632D01*
Y44169D01*
X49638D01*
Y44175D01*
X49644D01*
Y44180D01*
X49650D01*
Y44186D01*
X49656D01*
Y44192D01*
X49662D01*
Y44198D01*
X49668D01*
Y44204D01*
X49674D01*
Y44210D01*
X49680D01*
Y44216D01*
X49686D01*
Y44222D01*
X49692D01*
Y44228D01*
X49698D01*
Y44234D01*
X49704D01*
Y44240D01*
X49710D01*
Y44246D01*
X49716D01*
Y44252D01*
X49722D01*
Y44258D01*
X49728D01*
Y44264D01*
X49734D01*
Y44270D01*
X49740D01*
Y44276D01*
X49746D01*
Y44282D01*
X49752D01*
Y44288D01*
X49758D01*
Y44294D01*
X49764D01*
Y44300D01*
X49770D01*
Y44306D01*
X49776D01*
Y44312D01*
X49782D01*
Y44318D01*
X49788D01*
Y44324D01*
X49794D01*
Y44330D01*
X49800D01*
Y44336D01*
X49805D01*
Y44342D01*
X49811D01*
Y44348D01*
X49817D01*
Y44354D01*
X49823D01*
Y44360D01*
X49829D01*
Y44354D01*
X49835D01*
Y44348D01*
X49841D01*
Y44330D01*
X49847D01*
Y44312D01*
X49853D01*
Y44294D01*
X49859D01*
Y44276D01*
X49865D01*
Y44258D01*
X49871D01*
Y44240D01*
X49877D01*
Y44216D01*
X49883D01*
Y44204D01*
X49889D01*
Y44180D01*
X49895D01*
Y44163D01*
X49901D01*
Y44145D01*
X49907D01*
Y44127D01*
X49913D01*
Y44109D01*
X49919D01*
Y44091D01*
X49925D01*
Y44073D01*
X49931D01*
Y44055D01*
X49937D01*
Y44031D01*
X49943D01*
Y44013D01*
X49949D01*
Y43995D01*
X49955D01*
Y43978D01*
X49961D01*
Y43960D01*
X49967D01*
Y43942D01*
X49973D01*
Y43924D01*
X49979D01*
Y43906D01*
X49985D01*
Y43888D01*
X49991D01*
Y43864D01*
X49996D01*
Y43846D01*
X50002D01*
Y43828D01*
X50008D01*
Y43810D01*
X50014D01*
Y43793D01*
X50020D01*
Y43775D01*
X50026D01*
Y43757D01*
X50032D01*
Y43739D01*
X50038D01*
Y43721D01*
X50044D01*
Y43697D01*
X50050D01*
Y43679D01*
X50056D01*
Y43661D01*
X50062D01*
Y43643D01*
X50068D01*
Y43625D01*
X50074D01*
Y43607D01*
X50080D01*
Y43590D01*
X50086D01*
Y43572D01*
X50092D01*
Y43548D01*
X50098D01*
Y43536D01*
X50104D01*
Y43512D01*
X50110D01*
Y43494D01*
X50116D01*
Y43476D01*
X50122D01*
Y43458D01*
X50128D01*
Y43440D01*
X50134D01*
Y43422D01*
X50140D01*
Y43405D01*
X50146D01*
Y43381D01*
X50152D01*
Y43363D01*
X50158D01*
Y43345D01*
X50164D01*
Y43327D01*
X50170D01*
Y43309D01*
X50176D01*
Y43291D01*
X50181D01*
Y43273D01*
X50187D01*
Y43255D01*
X50193D01*
Y43237D01*
X50199D01*
Y43220D01*
X50205D01*
Y43196D01*
X50211D01*
Y43178D01*
X50217D01*
Y43160D01*
X50223D01*
Y43142D01*
X50229D01*
Y43124D01*
X50235D01*
Y43106D01*
X50241D01*
Y43088D01*
X50247D01*
Y43070D01*
X50253D01*
Y43052D01*
X50259D01*
Y43029D01*
X50265D01*
Y43011D01*
X50271D01*
Y42993D01*
X50277D01*
Y42969D01*
X50283D01*
Y42957D01*
X50289D01*
Y42939D01*
X50295D01*
Y42921D01*
X50301D01*
Y42903D01*
X50307D01*
Y42879D01*
X50313D01*
Y42867D01*
X50319D01*
Y42844D01*
X50325D01*
Y42826D01*
X50331D01*
Y42808D01*
X50337D01*
Y42790D01*
X50343D01*
Y42772D01*
X50349D01*
Y42754D01*
X50355D01*
Y42736D01*
X50361D01*
Y42718D01*
X50367D01*
Y42694D01*
X50372D01*
Y42676D01*
X50378D01*
Y42659D01*
X50384D01*
Y42641D01*
X50390D01*
Y42623D01*
X50396D01*
Y42605D01*
X50402D01*
Y42587D01*
X50408D01*
Y42569D01*
X50414D01*
Y42551D01*
X50420D01*
Y42527D01*
X50426D01*
Y42509D01*
X50432D01*
Y42491D01*
X50438D01*
Y42473D01*
X50444D01*
Y42456D01*
X50450D01*
Y42438D01*
X50456D01*
Y42420D01*
X50462D01*
Y42402D01*
X50468D01*
Y42384D01*
X50474D01*
Y42366D01*
X50480D01*
Y42342D01*
X50486D01*
Y42324D01*
X50492D01*
Y42306D01*
X50498D01*
Y42288D01*
X50504D01*
Y42271D01*
X50510D01*
Y42253D01*
X50516D01*
Y42235D01*
X50522D01*
Y42211D01*
X50528D01*
Y42199D01*
X50534D01*
Y42175D01*
X50540D01*
Y42157D01*
X50546D01*
Y42139D01*
X50552D01*
Y42121D01*
X50558D01*
Y42103D01*
X50563D01*
Y42086D01*
X50569D01*
Y42068D01*
X50575D01*
Y42050D01*
X50581D01*
Y42026D01*
X50587D01*
Y42008D01*
X50593D01*
Y41990D01*
X50599D01*
Y41972D01*
X50605D01*
Y41954D01*
X50611D01*
Y41936D01*
X50617D01*
Y41918D01*
X50623D01*
Y41895D01*
X50629D01*
Y41883D01*
X50635D01*
Y41859D01*
X50641D01*
Y41841D01*
X50647D01*
Y41823D01*
X50653D01*
Y41805D01*
X50659D01*
Y41787D01*
X50665D01*
Y41769D01*
X50671D01*
Y41751D01*
X50677D01*
Y41733D01*
X50683D01*
Y41715D01*
X50689D01*
Y41692D01*
X50695D01*
Y41674D01*
X50701D01*
Y41656D01*
X50707D01*
Y41638D01*
X50713D01*
Y41620D01*
X50719D01*
Y41602D01*
X50725D01*
Y41584D01*
X50731D01*
Y41566D01*
X50737D01*
Y41542D01*
X50743D01*
Y41530D01*
X50749D01*
Y41507D01*
X50754D01*
Y41489D01*
X50760D01*
Y41471D01*
X50766D01*
Y41453D01*
X50772D01*
Y41435D01*
X50778D01*
Y41417D01*
X50784D01*
Y41399D01*
X50790D01*
Y41375D01*
X50796D01*
Y41357D01*
X50802D01*
Y41339D01*
X50808D01*
Y41322D01*
X50814D01*
Y41304D01*
X50820D01*
Y41286D01*
X50826D01*
Y41268D01*
X50832D01*
Y41250D01*
X50838D01*
Y41232D01*
X50844D01*
Y41214D01*
X50850D01*
Y41190D01*
X50856D01*
Y41172D01*
X50862D01*
Y41154D01*
X50868D01*
Y41137D01*
X50874D01*
Y41119D01*
X50880D01*
Y41101D01*
X50886D01*
Y41083D01*
X50892D01*
Y41059D01*
X50898D01*
Y41047D01*
X50904D01*
Y41023D01*
X50910D01*
Y41005D01*
X50916D01*
Y40987D01*
X50922D01*
Y40969D01*
X50928D01*
Y40952D01*
X50934D01*
Y40934D01*
X50939D01*
Y40916D01*
X50945D01*
Y40898D01*
X50951D01*
Y40874D01*
X50957D01*
Y40856D01*
X50963D01*
Y40838D01*
X50969D01*
Y40820D01*
X50975D01*
Y40802D01*
X50981D01*
Y40784D01*
X50987D01*
Y40766D01*
X50993D01*
Y40749D01*
X50999D01*
Y40731D01*
X51005D01*
Y40713D01*
X51011D01*
Y40689D01*
X51017D01*
Y40671D01*
X51023D01*
Y40653D01*
X51029D01*
Y40635D01*
X51035D01*
Y40617D01*
X51041D01*
Y40599D01*
X51047D01*
Y40581D01*
X51053D01*
Y40558D01*
X51059D01*
Y40546D01*
X51065D01*
Y40522D01*
X51071D01*
Y40504D01*
X51077D01*
Y40486D01*
X51083D01*
Y40468D01*
X51089D01*
Y40450D01*
X51095D01*
Y40426D01*
X51101D01*
Y40420D01*
X51107D01*
Y40414D01*
X51811D01*
Y40140D01*
X51805D01*
Y40134D01*
X50683D01*
Y40146D01*
X50677D01*
Y40408D01*
X50683D01*
Y40414D01*
X50951D01*
Y40420D01*
X50957D01*
Y40438D01*
X50951D01*
Y40462D01*
X50945D01*
Y40474D01*
X50939D01*
Y40498D01*
X50934D01*
Y40516D01*
X50928D01*
Y40534D01*
X50922D01*
Y40552D01*
X50916D01*
Y40570D01*
X50910D01*
Y40587D01*
X50904D01*
Y40611D01*
X50898D01*
Y40629D01*
X50892D01*
Y40647D01*
X50886D01*
Y40665D01*
X50880D01*
Y40683D01*
X50874D01*
Y40701D01*
X50868D01*
Y40719D01*
X50862D01*
Y40743D01*
X50856D01*
Y40761D01*
X50850D01*
Y40778D01*
X50844D01*
Y40796D01*
X50838D01*
Y40814D01*
X50832D01*
Y40832D01*
X50826D01*
Y40850D01*
X50820D01*
Y40874D01*
X50814D01*
Y40892D01*
X50808D01*
Y40910D01*
X50802D01*
Y40928D01*
X50796D01*
Y40946D01*
X50790D01*
Y40963D01*
X50784D01*
Y40981D01*
X50778D01*
Y41005D01*
X50772D01*
Y41017D01*
X50766D01*
Y41041D01*
X50760D01*
Y41059D01*
X50754D01*
Y41077D01*
X50749D01*
Y41095D01*
X50743D01*
Y41113D01*
X50737D01*
Y41137D01*
X50731D01*
Y41148D01*
X50725D01*
Y41172D01*
X50719D01*
Y41190D01*
X50713D01*
Y41208D01*
X50707D01*
Y41226D01*
X50701D01*
Y41244D01*
X50695D01*
Y41262D01*
X50689D01*
Y41286D01*
X50683D01*
Y41304D01*
X50677D01*
Y41322D01*
X50671D01*
Y41339D01*
X50665D01*
Y41357D01*
X50659D01*
Y41375D01*
X50653D01*
Y41393D01*
X50647D01*
Y41417D01*
X50641D01*
Y41435D01*
X50635D01*
Y41453D01*
X50629D01*
Y41471D01*
X50623D01*
Y41489D01*
X50617D01*
Y41507D01*
X50611D01*
Y41530D01*
X50605D01*
Y41548D01*
X50599D01*
Y41566D01*
X50593D01*
Y41584D01*
X50587D01*
Y41602D01*
X50581D01*
Y41620D01*
X50575D01*
Y41638D01*
X50569D01*
Y41656D01*
X50563D01*
Y41680D01*
X50558D01*
Y41698D01*
X50552D01*
Y41715D01*
X50546D01*
Y41733D01*
X50540D01*
Y41751D01*
X50534D01*
Y41775D01*
X50528D01*
Y41787D01*
X50522D01*
Y41811D01*
X50516D01*
Y41829D01*
X50510D01*
Y41847D01*
X50504D01*
Y41865D01*
X50498D01*
Y41883D01*
X50492D01*
Y41901D01*
X50486D01*
Y41918D01*
X50480D01*
Y41942D01*
X50474D01*
Y41960D01*
X50468D01*
Y41978D01*
X50462D01*
Y41996D01*
X50456D01*
Y42014D01*
X50450D01*
Y42032D01*
X50444D01*
Y42050D01*
X50438D01*
Y42074D01*
X50432D01*
Y42091D01*
X50426D01*
Y42103D01*
X50420D01*
Y42127D01*
X50414D01*
Y42145D01*
X50408D01*
Y42163D01*
X50402D01*
Y42181D01*
X50396D01*
Y42205D01*
X50390D01*
Y42223D01*
X50384D01*
Y42241D01*
X50378D01*
Y42259D01*
X50372D01*
Y42277D01*
X50367D01*
Y42294D01*
X50361D01*
Y42318D01*
X50355D01*
Y42336D01*
X50349D01*
Y42354D01*
X50343D01*
Y42372D01*
X50337D01*
Y42390D01*
X50331D01*
Y42408D01*
X50325D01*
Y42426D01*
X50319D01*
Y42450D01*
X50313D01*
Y42468D01*
X50307D01*
Y42485D01*
X50301D01*
Y42503D01*
X50295D01*
Y42521D01*
X50289D01*
Y42539D01*
X50283D01*
Y42557D01*
X50277D01*
Y42581D01*
X50271D01*
Y42593D01*
X50265D01*
Y42617D01*
X50259D01*
Y42635D01*
X50253D01*
Y42653D01*
X50247D01*
Y42670D01*
X50241D01*
Y42688D01*
X50235D01*
Y42712D01*
X50229D01*
Y42724D01*
X50223D01*
Y42748D01*
X50217D01*
Y42766D01*
X50211D01*
Y42784D01*
X50205D01*
Y42802D01*
X50199D01*
Y42820D01*
X50193D01*
Y42838D01*
X50187D01*
Y42861D01*
X50181D01*
Y42879D01*
X50176D01*
Y42897D01*
X50170D01*
Y42915D01*
X50164D01*
Y42933D01*
X50158D01*
Y42951D01*
X50152D01*
Y42969D01*
X50146D01*
Y42993D01*
X50140D01*
Y43011D01*
X50134D01*
Y43029D01*
X50128D01*
Y43046D01*
X50122D01*
Y43064D01*
X50116D01*
Y43082D01*
X50110D01*
Y43106D01*
X50104D01*
Y43124D01*
X50098D01*
Y43142D01*
X50092D01*
Y43160D01*
X50086D01*
Y43178D01*
X50080D01*
Y43196D01*
X50074D01*
Y43214D01*
X50068D01*
Y43231D01*
X50062D01*
Y43255D01*
X50056D01*
Y43273D01*
X50050D01*
Y43291D01*
X50044D01*
Y43309D01*
X50038D01*
Y43327D01*
X50032D01*
Y43345D01*
X50026D01*
Y43363D01*
X50020D01*
Y43387D01*
X50014D01*
Y43405D01*
X50008D01*
Y43422D01*
X50002D01*
Y43440D01*
X49996D01*
Y43458D01*
X49991D01*
Y43476D01*
X49985D01*
Y43494D01*
X49979D01*
Y43512D01*
X49961D01*
Y43500D01*
X49955D01*
Y43494D01*
X49943D01*
Y43488D01*
X49937D01*
Y43482D01*
X49931D01*
Y43476D01*
X49925D01*
Y43470D01*
X49919D01*
Y43464D01*
X49913D01*
Y43458D01*
X49907D01*
Y43452D01*
X49901D01*
Y43446D01*
X49895D01*
Y43440D01*
X49889D01*
Y43434D01*
X49877D01*
Y43428D01*
X49871D01*
Y43422D01*
X49865D01*
Y43417D01*
X49859D01*
Y43411D01*
X49853D01*
Y43405D01*
X49847D01*
Y43399D01*
X49841D01*
Y43393D01*
X49835D01*
Y43387D01*
X49829D01*
Y43381D01*
X49817D01*
Y43375D01*
X49811D01*
Y43369D01*
X49805D01*
Y43363D01*
X49800D01*
Y43357D01*
X49794D01*
Y43351D01*
X49788D01*
Y43345D01*
X49782D01*
Y43339D01*
X49776D01*
Y43333D01*
X49770D01*
Y43327D01*
X49764D01*
Y43321D01*
X49758D01*
Y43315D01*
X49746D01*
Y43309D01*
X49740D01*
Y43303D01*
X49734D01*
Y43297D01*
X49728D01*
Y43291D01*
X49722D01*
Y43285D01*
X49716D01*
Y43279D01*
X49710D01*
Y43273D01*
X49704D01*
Y43267D01*
X49698D01*
Y43261D01*
X49692D01*
Y43255D01*
X49680D01*
Y43249D01*
X49674D01*
Y43243D01*
X49668D01*
Y43237D01*
X49662D01*
Y43231D01*
X49656D01*
Y43226D01*
X49650D01*
Y43220D01*
X49644D01*
Y43214D01*
X49638D01*
Y43208D01*
X49632D01*
Y43202D01*
X49620D01*
Y43196D01*
X49614D01*
Y43190D01*
X49609D01*
Y43184D01*
X49603D01*
Y43178D01*
X49597D01*
Y43172D01*
X49591D01*
Y43166D01*
X49585D01*
Y43160D01*
X49579D01*
Y43154D01*
X49573D01*
Y43148D01*
X49567D01*
Y43142D01*
X49561D01*
Y43136D01*
X49549D01*
Y43130D01*
X49543D01*
Y43124D01*
X49537D01*
Y43118D01*
X49531D01*
Y43112D01*
X49525D01*
Y43106D01*
X49519D01*
Y43100D01*
X49513D01*
Y43094D01*
X49507D01*
Y43088D01*
X49501D01*
Y43082D01*
X49489D01*
Y43076D01*
X49483D01*
Y43070D01*
X49477D01*
Y43064D01*
X49471D01*
Y43058D01*
X49465D01*
Y43052D01*
X49459D01*
Y43046D01*
X49453D01*
Y43040D01*
X49447D01*
Y43035D01*
X49441D01*
Y43029D01*
X49435D01*
Y43023D01*
X49429D01*
Y43017D01*
X49418D01*
Y43011D01*
X49412D01*
Y43005D01*
X49406D01*
Y42999D01*
X49400D01*
Y42993D01*
X49394D01*
Y42987D01*
X49388D01*
Y42981D01*
X49382D01*
Y42975D01*
X49376D01*
Y42969D01*
X49370D01*
Y42963D01*
X49358D01*
Y42951D01*
X49346D01*
Y42945D01*
X49340D01*
Y42939D01*
X49334D01*
Y42933D01*
X49328D01*
Y42927D01*
X49322D01*
Y42921D01*
X49316D01*
Y42915D01*
X49310D01*
Y42909D01*
X49304D01*
Y42903D01*
X49292D01*
Y42897D01*
X49286D01*
Y42891D01*
X49280D01*
Y42885D01*
X49274D01*
Y42879D01*
X49268D01*
Y42873D01*
X49262D01*
Y42867D01*
X49256D01*
Y42861D01*
X49250D01*
Y42855D01*
X49244D01*
Y42849D01*
X49238D01*
Y42844D01*
X49232D01*
Y42838D01*
X49221D01*
Y42832D01*
X49215D01*
Y42826D01*
X49209D01*
Y42820D01*
X49203D01*
Y42814D01*
X49197D01*
Y42808D01*
X49191D01*
Y42802D01*
X49185D01*
Y42796D01*
X49179D01*
Y42790D01*
X49173D01*
Y42784D01*
X49161D01*
Y42778D01*
X49155D01*
Y42772D01*
X49149D01*
Y42766D01*
X49143D01*
Y42760D01*
X49137D01*
Y42754D01*
X49131D01*
Y42748D01*
X49125D01*
Y42742D01*
X49119D01*
Y42736D01*
X49113D01*
Y42730D01*
X49107D01*
Y42724D01*
X49101D01*
Y42718D01*
X49089D01*
Y42712D01*
X49083D01*
Y42706D01*
X49077D01*
Y42700D01*
X49071D01*
Y42694D01*
X49065D01*
Y42688D01*
X49059D01*
Y42682D01*
X49053D01*
Y42676D01*
X49047D01*
Y42670D01*
X49042D01*
Y42664D01*
X49030D01*
Y42659D01*
X49024D01*
Y42653D01*
X49018D01*
Y42647D01*
X49012D01*
Y42641D01*
X49006D01*
Y42635D01*
X49000D01*
Y42629D01*
X48994D01*
Y42623D01*
X48988D01*
Y42617D01*
X48982D01*
Y42611D01*
X48976D01*
Y42605D01*
X48964D01*
Y42599D01*
X48958D01*
Y42593D01*
X48952D01*
Y42587D01*
X48946D01*
Y42581D01*
X48940D01*
Y42575D01*
X48934D01*
Y42569D01*
X48928D01*
Y42563D01*
X48922D01*
Y42557D01*
X48916D01*
Y42551D01*
X48910D01*
Y42545D01*
X48898D01*
Y42539D01*
X48892D01*
Y42533D01*
X48886D01*
Y42527D01*
X48880D01*
Y42521D01*
X48874D01*
Y42515D01*
X48868D01*
Y42509D01*
X48862D01*
Y42503D01*
X48856D01*
Y42497D01*
X48851D01*
Y42491D01*
X48845D01*
Y42485D01*
X48833D01*
Y42479D01*
X48827D01*
Y42473D01*
X48821D01*
Y42468D01*
X48815D01*
Y42462D01*
X48809D01*
Y42456D01*
X48803D01*
Y42450D01*
X48797D01*
Y42444D01*
X48791D01*
Y42438D01*
X48785D01*
Y42432D01*
X48779D01*
Y42426D01*
X48773D01*
Y42420D01*
X48761D01*
Y42414D01*
X48755D01*
Y42408D01*
X48749D01*
Y42402D01*
X48743D01*
Y42396D01*
X48737D01*
Y42390D01*
X48731D01*
Y42384D01*
X48725D01*
Y42378D01*
X48719D01*
Y42372D01*
X48707D01*
Y42366D01*
X48701D01*
Y42360D01*
X48695D01*
Y42354D01*
X48689D01*
Y42348D01*
X48683D01*
Y42342D01*
X48677D01*
Y42336D01*
X48671D01*
Y42330D01*
X48665D01*
Y42324D01*
X48660D01*
Y42318D01*
X48654D01*
Y42312D01*
X48648D01*
Y42306D01*
X48636D01*
Y42300D01*
X48630D01*
Y42294D01*
X48624D01*
Y42288D01*
X48618D01*
Y42282D01*
X48612D01*
Y42277D01*
X48606D01*
Y42271D01*
X48600D01*
Y42265D01*
X48594D01*
Y42259D01*
X48588D01*
Y42253D01*
X48576D01*
Y42247D01*
X48570D01*
Y42241D01*
X48564D01*
Y42235D01*
X48558D01*
Y42229D01*
X48552D01*
Y42223D01*
X48546D01*
Y42217D01*
X48540D01*
Y42211D01*
X48534D01*
Y42205D01*
X48528D01*
Y42199D01*
X48522D01*
Y42193D01*
X48516D01*
Y42187D01*
X48504D01*
Y42181D01*
X48498D01*
Y42175D01*
X48492D01*
Y42169D01*
X48486D01*
Y42163D01*
X48480D01*
Y42157D01*
X48474D01*
Y42151D01*
X48469D01*
Y42145D01*
X48463D01*
Y42139D01*
X48457D01*
Y42133D01*
X48451D01*
Y42127D01*
X48439D01*
Y42121D01*
X48433D01*
Y42115D01*
X48427D01*
Y42097D01*
X48421D01*
Y42086D01*
X48427D01*
Y40295D01*
X48421D01*
Y40283D01*
X48427D01*
Y40277D01*
X48439D01*
Y40271D01*
X48451D01*
Y40277D01*
X48958D01*
Y40271D01*
X48964D01*
Y40277D01*
X48982D01*
Y40271D01*
X48988D01*
Y39997D01*
X48976D01*
Y39991D01*
X48970D01*
Y39997D01*
X48164D01*
Y39991D01*
X48152D01*
Y39997D01*
X48146D01*
Y40003D01*
X48140D01*
Y44927D01*
X48152D01*
Y44933D01*
X48158D01*
Y44927D01*
D02*
G37*
G36*
X51805Y39841D02*
X51811D01*
Y39579D01*
X51805D01*
Y39573D01*
X44195D01*
Y39579D01*
X44189D01*
Y39841D01*
X44195D01*
Y39853D01*
X51805D01*
Y39841D01*
D02*
G37*
%LPC*%
G36*
X50216Y33955D02*
X49330D01*
Y32182D01*
X50216D01*
Y33955D01*
D02*
G37*
%LPD*%
D22*
X37350Y25750D02*
G03*
X37350Y25750I-100J0D01*
G01*
D32*
X36850Y15000D02*
G03*
X36850Y15000I-100J0D01*
G01*
X9000Y25350D02*
G03*
X9000Y25350I-100J0D01*
G01*
X32990Y8600D02*
X34490D01*
X32990Y1000D02*
X34490D01*
X32990Y7100D02*
Y8600D01*
X41590D02*
X43090D01*
Y7100D02*
Y8600D01*
X32990Y1000D02*
Y2500D01*
X43090Y1000D02*
Y2500D01*
X41590Y1000D02*
X43090D01*
X34550Y15725D02*
X36550D01*
X34550Y14725D02*
Y15725D01*
X9000Y64780D02*
Y66700D01*
X34550Y10275D02*
Y11275D01*
X41950Y14725D02*
Y15725D01*
X40950D02*
X41950D01*
Y10275D02*
Y11275D01*
X34550Y10275D02*
X35550D01*
X40950D02*
X41950D01*
X26000Y64780D02*
Y66700D01*
X36350Y41000D02*
X37150D01*
X38850D02*
X39650D01*
X34850D02*
X35650D01*
X28500Y64750D02*
Y66700D01*
X40350Y41000D02*
X41150D01*
X24000Y48530D02*
X26000D01*
X26000Y48530D02*
Y50530D01*
X9000Y48530D02*
X11000D01*
X10100Y26500D02*
X10900D01*
X9000Y48530D02*
Y50530D01*
X42600Y11675D02*
X43400D01*
X10500Y13500D02*
Y15500D01*
X12500D01*
X25500D02*
X27500D01*
X10500Y750D02*
X12500D01*
X10500D02*
Y2750D01*
X25500Y750D02*
X27500D01*
Y13500D02*
Y15500D01*
Y750D02*
Y2750D01*
X39960Y34450D02*
Y35450D01*
X38960D02*
X39960D01*
Y25050D02*
Y27050D01*
X33100Y11500D02*
X33900D01*
X37960Y25050D02*
X39960D01*
X32540Y35450D02*
X33540D01*
X45600Y11750D02*
X46400D01*
X32540Y25050D02*
X33540D01*
X32540Y34450D02*
Y35450D01*
Y25050D02*
Y26050D01*
X14775Y25025D02*
X15775D01*
X14775D02*
Y26025D01*
X25225Y34475D02*
Y35475D01*
X14775D02*
X15775D01*
X24225D02*
X25225D01*
X16850Y27100D02*
Y33400D01*
X40850Y26250D02*
X41650D01*
X19500Y21750D02*
X20300D01*
X16850Y27100D02*
X23150D01*
X16850Y33400D02*
X23150D01*
Y27100D02*
Y33400D01*
X14775Y34475D02*
Y35475D01*
X25225Y25025D02*
Y26025D01*
X24225Y25025D02*
X25225D01*
X49475Y10250D02*
X50525D01*
X10100Y34750D02*
X10900D01*
X3750Y33500D02*
X4750D01*
X8250D02*
X9250D01*
X3750Y32500D02*
Y33500D01*
Y25000D02*
X4750D01*
X3750D02*
Y26000D01*
X9250Y32500D02*
Y33500D01*
X45500Y48500D02*
Y50500D01*
X45500Y64750D02*
Y66700D01*
X43500Y48500D02*
X45500D01*
X28500Y48500D02*
Y50500D01*
X28500Y48500D02*
X30500D01*
X7250Y25000D02*
X9250D01*
X18000Y21750D02*
X18800D01*
X13850Y41000D02*
X14650D01*
X16500Y21750D02*
X17300D01*
X21000D02*
X21800D01*
X22500D02*
X23300D01*
X15350Y41000D02*
X16150D01*
X10100Y29250D02*
X10900D01*
X9250Y25000D02*
Y27000D01*
X21350Y41000D02*
X22150D01*
X10100Y32000D02*
X10900D01*
X19850Y41000D02*
X20650D01*
X8134Y15300D02*
X8800Y14300D01*
Y15300D02*
X8134Y14300D01*
X9134Y15133D02*
X9300Y15300D01*
X9633D01*
X9800Y15133D01*
Y14967D01*
X9633Y14800D01*
X9467D01*
X9633D01*
X9800Y14634D01*
Y14467D01*
X9633Y14300D01*
X9300D01*
X9134Y14467D01*
X5334Y24500D02*
Y24333D01*
X5667Y24000D01*
X6000Y24333D01*
Y24500D01*
X5667Y24000D02*
Y23500D01*
X6333D02*
X6666D01*
X6500D01*
Y24500D01*
X6333Y24333D01*
X30534Y1950D02*
X31200Y950D01*
Y1950D02*
X30534Y950D01*
X32033D02*
Y1950D01*
X31534Y1450D01*
X32200D01*
X16667Y48330D02*
X17333Y47330D01*
Y48330D02*
X16667Y47330D01*
X18333D02*
X17667D01*
X18333Y47997D01*
Y48163D01*
X18166Y48330D01*
X17833D01*
X17667Y48163D01*
X36334Y48300D02*
X37000Y47300D01*
Y48300D02*
X36334Y47300D01*
X37333D02*
X37666D01*
X37500D01*
Y48300D01*
X37333Y48133D01*
X37417Y16925D02*
Y16092D01*
X37584Y15925D01*
X37917D01*
X38083Y16092D01*
Y16925D01*
X38417Y16758D02*
X38583Y16925D01*
X38916D01*
X39083Y16758D01*
Y16591D01*
X38916Y16425D01*
X38750D01*
X38916D01*
X39083Y16258D01*
Y16092D01*
X38916Y15925D01*
X38583D01*
X38417Y16092D01*
X26200Y26200D02*
Y25367D01*
X26367Y25200D01*
X26700D01*
X26866Y25367D01*
Y26200D01*
X27866Y25200D02*
X27200D01*
X27866Y25866D01*
Y26033D01*
X27700Y26200D01*
X27366D01*
X27200Y26033D01*
X35583Y24850D02*
Y24017D01*
X35750Y23850D01*
X36083D01*
X36250Y24017D01*
Y24850D01*
X36583Y23850D02*
X36916D01*
X36750D01*
Y24850D01*
X36583Y24683D01*
X46500Y7826D02*
X45500D01*
Y8326D01*
X45667Y8492D01*
X46000D01*
X46167Y8326D01*
Y7826D01*
Y8159D02*
X46500Y8492D01*
Y8825D02*
Y9159D01*
Y8992D01*
X45500D01*
X45667Y8825D01*
Y9659D02*
X45500Y9825D01*
Y10158D01*
X45667Y10325D01*
X45833D01*
X46000Y10158D01*
Y9992D01*
Y10158D01*
X46167Y10325D01*
X46333D01*
X46500Y10158D01*
Y9825D01*
X46333Y9659D01*
X18900Y17826D02*
X17900D01*
Y18326D01*
X18067Y18492D01*
X18400D01*
X18567Y18326D01*
Y17826D01*
Y18159D02*
X18900Y18492D01*
Y18825D02*
Y19159D01*
Y18992D01*
X17900D01*
X18067Y18825D01*
X18900Y20325D02*
Y19659D01*
X18233Y20325D01*
X18067D01*
X17900Y20158D01*
Y19825D01*
X18067Y19659D01*
X17400Y18159D02*
X16400D01*
Y18659D01*
X16567Y18825D01*
X16900D01*
X17067Y18659D01*
Y18159D01*
Y18492D02*
X17400Y18825D01*
Y19159D02*
Y19492D01*
Y19325D01*
X16400D01*
X16567Y19159D01*
X17400Y19992D02*
Y20325D01*
Y20158D01*
X16400D01*
X16567Y19992D01*
X16250Y42425D02*
X15250D01*
Y42925D01*
X15417Y43091D01*
X15750D01*
X15917Y42925D01*
Y42425D01*
Y42758D02*
X16250Y43091D01*
Y43425D02*
Y43758D01*
Y43591D01*
X15250D01*
X15417Y43425D01*
Y44258D02*
X15250Y44424D01*
Y44758D01*
X15417Y44924D01*
X16083D01*
X16250Y44758D01*
Y44424D01*
X16083Y44258D01*
X15417D01*
X14750Y42425D02*
X13750D01*
Y42925D01*
X13917Y43091D01*
X14250D01*
X14417Y42925D01*
Y42425D01*
Y42758D02*
X14750Y43091D01*
X14583Y43425D02*
X14750Y43591D01*
Y43925D01*
X14583Y44091D01*
X13917D01*
X13750Y43925D01*
Y43591D01*
X13917Y43425D01*
X14083D01*
X14250Y43591D01*
Y44091D01*
X22250Y42425D02*
X21250D01*
Y42925D01*
X21417Y43091D01*
X21750D01*
X21917Y42925D01*
Y42425D01*
Y42758D02*
X22250Y43091D01*
X21417Y43425D02*
X21250Y43591D01*
Y43925D01*
X21417Y44091D01*
X21583D01*
X21750Y43925D01*
X21917Y44091D01*
X22083D01*
X22250Y43925D01*
Y43591D01*
X22083Y43425D01*
X21917D01*
X21750Y43591D01*
X21583Y43425D01*
X21417D01*
X21750Y43591D02*
Y43925D01*
X20750Y42425D02*
X19750D01*
Y42925D01*
X19917Y43091D01*
X20250D01*
X20417Y42925D01*
Y42425D01*
Y42758D02*
X20750Y43091D01*
X19750Y43425D02*
Y44091D01*
X19917D01*
X20583Y43425D01*
X20750D01*
X23400Y18659D02*
X22400D01*
Y19159D01*
X22567Y19325D01*
X22900D01*
X23067Y19159D01*
Y18659D01*
Y18992D02*
X23400Y19325D01*
X22400Y20325D02*
X22567Y19992D01*
X22900Y19659D01*
X23233D01*
X23400Y19825D01*
Y20158D01*
X23233Y20325D01*
X23067D01*
X22900Y20158D01*
Y19659D01*
X11300Y28750D02*
Y29750D01*
X11800D01*
X11966Y29583D01*
Y29250D01*
X11800Y29083D01*
X11300D01*
X11633D02*
X11966Y28750D01*
X12966Y29750D02*
X12300D01*
Y29250D01*
X12633Y29417D01*
X12800D01*
X12966Y29250D01*
Y28917D01*
X12800Y28750D01*
X12466D01*
X12300Y28917D01*
X37250Y42425D02*
X36250D01*
Y42925D01*
X36417Y43091D01*
X36750D01*
X36917Y42925D01*
Y42425D01*
Y42758D02*
X37250Y43091D01*
Y43925D02*
X36250D01*
X36750Y43425D01*
Y44091D01*
X35750Y42425D02*
X34750D01*
Y42925D01*
X34917Y43091D01*
X35250D01*
X35417Y42925D01*
Y42425D01*
Y42758D02*
X35750Y43091D01*
X34917Y43425D02*
X34750Y43591D01*
Y43925D01*
X34917Y44091D01*
X35083D01*
X35250Y43925D01*
Y43758D01*
Y43925D01*
X35417Y44091D01*
X35583D01*
X35750Y43925D01*
Y43591D01*
X35583Y43425D01*
X41250Y42425D02*
X40250D01*
Y42925D01*
X40417Y43091D01*
X40750D01*
X40917Y42925D01*
Y42425D01*
Y42758D02*
X41250Y43091D01*
Y44091D02*
Y43425D01*
X40583Y44091D01*
X40417D01*
X40250Y43925D01*
Y43591D01*
X40417Y43425D01*
X39750Y42425D02*
X38750D01*
Y42925D01*
X38917Y43091D01*
X39250D01*
X39417Y42925D01*
Y42425D01*
Y42758D02*
X39750Y43091D01*
Y43425D02*
Y43758D01*
Y43591D01*
X38750D01*
X38917Y43425D01*
X49334Y13250D02*
Y12250D01*
X50000D01*
X50333D02*
X50666D01*
X50500D01*
Y13250D01*
X50333Y13083D01*
X47100Y14834D02*
X48100D01*
Y15333D01*
X47933Y15500D01*
X47267D01*
X47100Y15333D01*
Y14834D01*
X48100Y15833D02*
Y16167D01*
Y16000D01*
X47100D01*
X47267Y15833D01*
X42667Y13833D02*
X42500Y13667D01*
Y13334D01*
X42667Y13167D01*
X43333D01*
X43500Y13334D01*
Y13667D01*
X43333Y13833D01*
X42667Y14167D02*
X42500Y14333D01*
Y14666D01*
X42667Y14833D01*
X42833D01*
X43000Y14666D01*
X43167Y14833D01*
X43333D01*
X43500Y14666D01*
Y14333D01*
X43333Y14167D01*
X43167D01*
X43000Y14333D01*
X42833Y14167D01*
X42667D01*
X43000Y14333D02*
Y14666D01*
X33167Y13833D02*
X33000Y13667D01*
Y13334D01*
X33167Y13167D01*
X33833D01*
X34000Y13334D01*
Y13667D01*
X33833Y13833D01*
X33000Y14167D02*
Y14833D01*
X33167D01*
X33833Y14167D01*
X34000D01*
X40917Y23825D02*
X40750Y23659D01*
Y23325D01*
X40917Y23159D01*
X41583D01*
X41750Y23325D01*
Y23659D01*
X41583Y23825D01*
X40750Y24825D02*
X40917Y24492D01*
X41250Y24159D01*
X41583D01*
X41750Y24325D01*
Y24658D01*
X41583Y24825D01*
X41417D01*
X41250Y24658D01*
Y24159D01*
X12083Y35083D02*
X11917Y35250D01*
X11584D01*
X11417Y35083D01*
Y34417D01*
X11584Y34250D01*
X11917D01*
X12083Y34417D01*
X13083Y35250D02*
X12417D01*
Y34750D01*
X12750Y34917D01*
X12916D01*
X13083Y34750D01*
Y34417D01*
X12916Y34250D01*
X12583D01*
X12417Y34417D01*
X19567Y19325D02*
X19400Y19159D01*
Y18825D01*
X19567Y18659D01*
X20233D01*
X20400Y18825D01*
Y19159D01*
X20233Y19325D01*
X20400Y20158D02*
X19400D01*
X19900Y19659D01*
Y20325D01*
X21067Y19325D02*
X20900Y19159D01*
Y18825D01*
X21067Y18659D01*
X21733D01*
X21900Y18825D01*
Y19159D01*
X21733Y19325D01*
X21067Y19659D02*
X20900Y19825D01*
Y20158D01*
X21067Y20325D01*
X21233D01*
X21400Y20158D01*
Y19992D01*
Y20158D01*
X21567Y20325D01*
X21733D01*
X21900Y20158D01*
Y19825D01*
X21733Y19659D01*
X11966Y32333D02*
X11800Y32500D01*
X11467D01*
X11300Y32333D01*
Y31667D01*
X11467Y31500D01*
X11800D01*
X11966Y31667D01*
X12966Y31500D02*
X12300D01*
X12966Y32167D01*
Y32333D01*
X12800Y32500D01*
X12466D01*
X12300Y32333D01*
X11966Y26833D02*
X11800Y27000D01*
X11467D01*
X11300Y26833D01*
Y26167D01*
X11467Y26000D01*
X11800D01*
X11966Y26167D01*
X12300Y26000D02*
X12633D01*
X12466D01*
Y27000D01*
X12300Y26833D01*
D33*
X15962Y26012D02*
G03*
X15962Y26012I-200J0D01*
G01*
D34*
X46750Y22250D02*
X49750D01*
X46750Y24250D02*
X49750D01*
Y22250D02*
Y24250D01*
X46750Y22250D02*
Y24250D01*
X44668Y28299D02*
Y27466D01*
X44834Y27300D01*
X45168D01*
X45334Y27466D01*
Y28299D01*
X46334Y28133D02*
X46167Y28299D01*
X45834D01*
X45667Y28133D01*
Y27966D01*
X45834Y27800D01*
X46167D01*
X46334Y27633D01*
Y27466D01*
X46167Y27300D01*
X45834D01*
X45667Y27466D01*
X46667Y28299D02*
Y27300D01*
X47167D01*
X47334Y27466D01*
Y27633D01*
X47167Y27800D01*
X46667D01*
X47167D01*
X47334Y27966D01*
Y28133D01*
X47167Y28299D01*
X46667D01*
X48666D02*
Y27300D01*
Y27800D01*
X49333D01*
Y28299D01*
Y27300D01*
X49666Y27966D02*
Y27466D01*
X49833Y27300D01*
X50333D01*
Y27966D01*
X50666Y28299D02*
Y27300D01*
X51166D01*
X51332Y27466D01*
Y27633D01*
Y27800D01*
X51166Y27966D01*
X50666D01*
X44335Y26500D02*
Y25500D01*
X44834D01*
X45001Y25667D01*
Y25833D01*
X44834Y26000D01*
X44335D01*
X44834D01*
X45001Y26167D01*
Y26333D01*
X44834Y26500D01*
X44335D01*
X45334Y26167D02*
Y25500D01*
Y25833D01*
X45501Y26000D01*
X45667Y26167D01*
X45834D01*
X46834Y25500D02*
X46500D01*
X46334Y25667D01*
Y26000D01*
X46500Y26167D01*
X46834D01*
X47000Y26000D01*
Y25833D01*
X46334D01*
X47500Y26167D02*
X47833D01*
X48000Y26000D01*
Y25500D01*
X47500D01*
X47334Y25667D01*
X47500Y25833D01*
X48000D01*
X48333Y25500D02*
Y26500D01*
Y25833D02*
X48833Y26167D01*
X48333Y25833D02*
X48833Y25500D01*
X49500D02*
X49833D01*
X49999Y25667D01*
Y26000D01*
X49833Y26167D01*
X49500D01*
X49333Y26000D01*
Y25667D01*
X49500Y25500D01*
X50333Y26167D02*
Y25667D01*
X50499Y25500D01*
X50999D01*
Y26167D01*
X51499Y26333D02*
Y26167D01*
X51332D01*
X51665D01*
X51499D01*
Y25667D01*
X51665Y25500D01*
X47417Y23750D02*
Y23083D01*
X47750Y22750D01*
X48083Y23083D01*
Y23750D01*
X48417Y23583D02*
X48583Y23750D01*
X48916D01*
X49083Y23583D01*
Y22917D01*
X48916Y22750D01*
X48583D01*
X48417Y22917D01*
Y23583D01*
X45500Y17700D02*
Y17367D01*
X45667Y17200D01*
X46333D01*
X46500Y17367D01*
Y17700D01*
X46333Y17867D01*
X45667D01*
X45500Y17700D01*
X46500Y18200D02*
X45500D01*
X46500Y18866D01*
X45500D01*
D35*
X46000Y15724D02*
X46508Y15216D01*
X45502Y15868D02*
X45692Y15678D01*
X45492Y15216D02*
X46000Y15724D01*
X45502Y15668D02*
Y15868D01*
X45702D01*
%TF.MD5,f71c86c2fb135db3df2ec7c97a3bd0c7*%
M02*
