%TF.GenerationSoftware,Altium Limited,Altium Designer,25.2.1 (25)*%
G04 Layer_Physical_Order=1*
G04 Layer_Color=255*
%FSLAX43Y43*%
%MOMM*%
%TF.SameCoordinates,B664DB7D-B6DB-4AC9-9DB7-209C64ECDA10*%
%TF.FilePolarity,Positive*%
%TF.FileFunction,Copper,L1,Top,Signal*%
%TF.Part,Single*%
G01*
G75*
%TA.AperFunction,NonConductor*%
%ADD10C,0.203*%
%TA.AperFunction,BGAPad,CuDef*%
%ADD11R,0.500X0.500*%
%TA.AperFunction,SMDPad,CuDef*%
%AMCUSTOMSHAPE12*
4,1,8,0.775,-5.250,0.775,-3.500,5.500,-3.500,5.500,3.500,0.775,3.500,0.775,5.250,-5.500,5.250,-5.500,-5.250,0.775,-5.250,0.0*%
%ADD12CUSTOMSHAPE12*%

%TA.AperFunction,Conductor*%
%ADD13C,0.200*%
%ADD14C,0.400*%
%TA.AperFunction,ComponentPad*%
%ADD15C,1.500*%
%ADD16R,1.500X1.500*%
%ADD17C,3.000*%
%ADD18C,1.524*%
%ADD19C,2.775*%
%ADD20C,2.000*%
%ADD21C,5.000*%
%ADD22O,1.900X1.550*%
%ADD23O,2.000X1.580*%
%ADD24C,6.000*%
%TA.AperFunction,ViaPad*%
%ADD25C,0.700*%
D10*
X59971Y84000D02*
G03*
X56000Y87971I-3971J0D01*
G01*
Y529D02*
G03*
X59971Y4500I0J3971D01*
G01*
X30682Y28480D02*
G03*
X30465Y29362I-1902J0D01*
G01*
X30682Y75430D02*
G03*
X30682Y75430I-1902J0D01*
G01*
X4500Y87971D02*
G03*
X529Y84000I0J-3971D01*
G01*
X6172Y75430D02*
G03*
X6172Y75430I-1902J0D01*
G01*
X29662Y30165D02*
G03*
X26878Y28484I-882J-1685D01*
G01*
X28784Y26578D02*
G03*
X30682Y28480I-4J1902D01*
G01*
X6172D02*
G03*
X6172Y28480I-1902J0D01*
G01*
X529Y4500D02*
G03*
X4500Y529I3971J0D01*
G01*
X55202Y87971D02*
X59971Y83202D01*
X54484Y87971D02*
X59971Y82484D01*
X55921Y87971D02*
X59971Y83921D01*
X56932Y76329D02*
X59971Y79369D01*
X57650Y76329D02*
X59971Y78650D01*
X53765Y87971D02*
X59971Y81765D01*
X53047Y87971D02*
X59971Y81047D01*
X50892Y87971D02*
X59971Y78892D01*
X50173Y87971D02*
X59971Y78173D01*
X52329Y87971D02*
X59971Y80329D01*
X51610Y87971D02*
X59971Y79610D01*
X49317Y70152D02*
X59971Y80806D01*
X49906Y70022D02*
X59971Y80087D01*
X49455Y87971D02*
X59971Y77455D01*
X58870Y73527D02*
X59971Y72426D01*
X58565Y70778D02*
X59971Y72185D01*
X58989Y74845D02*
X59971Y73863D01*
X58989Y74127D02*
X59971Y73144D01*
X58989Y69765D02*
X59971Y70748D01*
X58989Y69047D02*
X59971Y70029D01*
X58924Y70419D02*
X59971Y71466D01*
X57599Y71249D02*
X59971Y73621D01*
X58206Y71138D02*
X59971Y72903D01*
X56881Y71249D02*
X59971Y74340D01*
X58511Y73168D02*
X59971Y71707D01*
X57491Y72751D02*
X59971Y70271D01*
X56773Y72751D02*
X59971Y69552D01*
X58152Y72808D02*
X59971Y70989D01*
X58591Y75833D02*
X59971Y77214D01*
X58950Y75474D02*
X59971Y76495D01*
X57777Y87551D02*
X59551Y85777D01*
X58232Y76192D02*
X59971Y77932D01*
X58989Y74794D02*
X59971Y75777D01*
X58989Y73645D02*
Y75435D01*
X58095Y76329D02*
X58989Y75435D01*
X56702Y87909D02*
X59909Y84702D01*
X49488Y75352D02*
X59665Y85529D01*
X55411Y75435D02*
X56305Y76329D01*
X58095D01*
X49991Y75136D02*
X59846Y84991D01*
X50152Y74578D02*
X59953Y84380D01*
X55411Y73645D02*
Y75435D01*
X58989Y74076D02*
X59971Y75058D01*
X58095Y72751D02*
X58989Y73645D01*
X55411D02*
X56305Y72751D01*
X58095D01*
X56305Y71249D02*
X58095D01*
X58989Y70355D01*
X55411D02*
X56305Y71249D01*
X49776Y73848D02*
X50152Y74224D01*
X49776Y70152D02*
X50152Y69776D01*
X49776Y75352D02*
X50152Y74976D01*
Y74224D02*
Y74976D01*
Y69549D02*
X55411Y74808D01*
X50152Y74343D02*
X55411Y69084D01*
X50152Y69024D02*
Y69776D01*
X58537Y68113D02*
X59971Y66679D01*
X58178Y67754D02*
X59971Y65960D01*
X58989Y69816D02*
X59971Y68834D01*
X58896Y68472D02*
X59971Y67397D01*
X56824Y67671D02*
X59971Y64523D01*
X53299Y60483D02*
X59971Y67156D01*
X57542Y67671D02*
X59971Y65242D01*
X52581Y61202D02*
X59971Y68592D01*
X52940Y60843D02*
X59971Y67874D01*
X49852Y73924D02*
X59971Y63805D01*
X52221Y61561D02*
X59971Y69311D01*
X49937Y68810D02*
X59971Y58776D01*
X49380Y68648D02*
X59971Y58057D01*
X50152Y69314D02*
X59971Y59494D01*
X56382Y56382D02*
X59971Y59971D01*
X56382Y56382D02*
X59971Y59971D01*
X56173Y57610D02*
X59971Y61408D01*
X56382Y57100D02*
X59971Y60690D01*
X56382Y54945D02*
X59971Y58535D01*
X56382Y54226D02*
X59971Y57816D01*
X56382Y55663D02*
X59971Y59253D01*
X54377Y59406D02*
X59971Y65000D01*
X54736Y59046D02*
X59971Y64282D01*
X53658Y60124D02*
X59971Y66437D01*
X54018Y59765D02*
X59971Y65719D01*
X55454Y58328D02*
X59971Y62845D01*
X55814Y57969D02*
X59971Y62127D01*
X55095Y58687D02*
X59971Y63564D01*
X58989Y68565D02*
Y70355D01*
Y69098D02*
X59971Y68115D01*
X55411Y68565D02*
Y70355D01*
Y68565D02*
X56305Y67671D01*
X58095D02*
X58989Y68565D01*
X51862Y61920D02*
X57613Y67671D01*
X51503Y62279D02*
X56895Y67671D01*
X49348Y64435D02*
X57664Y72751D01*
X50066Y63716D02*
X55411Y69061D01*
X49707Y64075D02*
X55411Y69779D01*
X49776Y68648D02*
X50152Y69024D01*
X50785Y62998D02*
X55882Y68095D01*
X51144Y62639D02*
X56241Y67736D01*
X50425Y63357D02*
X55522Y68454D01*
X56305Y67671D02*
X58095D01*
X56131Y57652D02*
X56382Y57401D01*
X53691Y58002D02*
X53984Y58294D01*
X54276Y58002D02*
X54652Y57626D01*
X56131Y57652D02*
X56382Y57401D01*
Y56899D02*
Y57401D01*
X54652Y56874D02*
Y57626D01*
X49524Y64259D02*
X56131Y57652D01*
X53524Y58002D02*
X54276D01*
X53148Y57626D02*
X53524Y58002D01*
X53148Y56874D02*
Y57626D01*
X51004Y56752D02*
X53265Y59012D01*
X51549Y56578D02*
X53624Y58653D01*
X51752Y56062D02*
X53148Y57459D01*
X45863Y87971D02*
X57505Y76329D01*
X48736Y87971D02*
X59971Y76736D01*
X45777Y78106D02*
X55642Y87971D01*
X45144D02*
X56787Y76329D01*
X43707Y87971D02*
X55828Y75851D01*
X44426Y87971D02*
X56187Y76210D01*
X42271Y87971D02*
X55411Y74831D01*
X42989Y87971D02*
X55468Y75492D01*
X40115Y87971D02*
X56838Y71249D01*
X40834Y87971D02*
X57556Y71249D01*
X41552Y87971D02*
X55411Y74113D01*
X39397Y87971D02*
X56212Y71156D01*
X37960Y87971D02*
X55494Y70438D01*
X38679Y87971D02*
X55853Y70797D01*
X37242Y87971D02*
X55411Y69802D01*
X48018Y87971D02*
X59971Y76018D01*
X46289Y76463D02*
X57503Y87676D01*
X46137Y77747D02*
X56346Y87956D01*
X46289Y77181D02*
X56961Y87853D01*
X46581Y87971D02*
X59971Y74581D01*
X46289Y67842D02*
X59971Y81524D01*
X47300Y87971D02*
X59971Y75300D01*
X45747Y68737D02*
X59971Y82961D01*
X46106Y68377D02*
X59971Y82242D01*
X39052Y68507D02*
X57985Y87440D01*
X45381Y69089D02*
X59971Y83679D01*
X39770Y67789D02*
X58799Y86817D01*
X40130Y67430D02*
X59136Y86436D01*
X39411Y68148D02*
X58416Y87152D01*
X44723Y78489D02*
X54206Y87971D01*
X45418Y78466D02*
X54924Y87971D01*
X36523D02*
X49143Y75352D01*
X44005Y78489D02*
X53487Y87971D01*
X46289Y77487D02*
X48724Y75052D01*
X48648Y74976D02*
X49024Y75352D01*
X46289Y76769D02*
X48648Y74409D01*
X31885Y69962D02*
X49895Y87971D01*
X32604Y69962D02*
X50613Y87971D01*
X30448Y69962D02*
X48458Y87971D01*
X31167Y69962D02*
X49177Y87971D01*
X34041Y69962D02*
X52050Y87971D01*
X34759Y69962D02*
X52769Y87971D01*
X33322Y69962D02*
X51332Y87971D01*
X49024Y73848D02*
X49776D01*
X49024Y70152D02*
X49776D01*
X49024Y75352D02*
X49776D01*
X48648Y69776D02*
X49024Y70152D01*
X48648Y69024D02*
X49024Y68648D01*
X49776D01*
X48648Y69024D02*
Y69776D01*
X44555Y74911D02*
X49314Y70152D01*
X48648Y74224D02*
X49024Y73848D01*
X48648Y74224D02*
Y74976D01*
X43836Y74911D02*
X48810Y69937D01*
X43944Y69089D02*
X48864Y74009D01*
X44663Y69089D02*
X49422Y73848D01*
X46289Y67123D02*
X48648Y69483D01*
X47986Y64510D02*
X56266Y72790D01*
X48704Y64510D02*
X56946Y72751D01*
X46549Y64510D02*
X55548Y73508D01*
X47267Y64510D02*
X55907Y73149D01*
X46289Y76050D02*
X59971Y62368D01*
X46289Y68148D02*
X59971Y54465D01*
X49209Y73848D02*
X59971Y63086D01*
X46052Y75569D02*
X59971Y61650D01*
X45693Y75209D02*
X59971Y60931D01*
X40489Y67070D02*
X59426Y86008D01*
X45831Y64510D02*
X55411Y74090D01*
X45273Y74911D02*
X59971Y60213D01*
X44465Y63506D02*
X51219Y56752D01*
X43746Y63506D02*
X50563Y56690D01*
X48057Y63506D02*
X53561Y58002D01*
X48771Y63506D02*
X55378Y56899D01*
X46620Y63506D02*
X53148Y56978D01*
X47338Y63506D02*
X53184Y57661D01*
X45901Y63506D02*
X55378Y54029D01*
X46836Y53302D02*
X52906Y59372D01*
X46117Y53302D02*
X52547Y59731D01*
X45472Y55530D02*
X51110Y61168D01*
X45652Y54991D02*
X51469Y60809D01*
X44754Y56249D02*
X50391Y61886D01*
X45113Y55889D02*
X50751Y61527D01*
X45183Y63506D02*
X55378Y53311D01*
X45652Y53554D02*
X52187Y60090D01*
X45652Y54273D02*
X51828Y60449D01*
X44394Y64510D02*
X48778Y68894D01*
X45112Y64510D02*
X49251Y68648D01*
X46083Y66199D02*
X47772Y64510D01*
X45723Y65840D02*
X47053Y64510D01*
X46289Y67429D02*
X49209Y64510D01*
X48771D02*
X49273D01*
X46289Y66711D02*
X48490Y64510D01*
X36139Y68958D02*
X49422Y55675D01*
X36857Y68958D02*
X49782Y56034D01*
X40848Y66711D02*
X48648Y74512D01*
X43050Y64510D02*
X48771D01*
X34702Y68958D02*
X48704Y54956D01*
X35420Y68958D02*
X49063Y55316D01*
X33984Y68958D02*
X48345Y54597D01*
X49273Y64510D02*
X49524Y64259D01*
X49273Y64510D02*
X49524Y64259D01*
X48771Y64510D02*
X49273D01*
X43050Y63506D02*
X48771D01*
X43028D02*
X50141Y56393D01*
X44582Y56795D02*
X50032Y62245D01*
X44070Y57002D02*
X49673Y62605D01*
X39152Y63072D02*
X47986Y54238D01*
X39152Y62354D02*
X47848Y53657D01*
X36978Y53502D02*
X46983Y63506D01*
X37696Y53502D02*
X47701Y63506D01*
X38594Y52963D02*
X48955Y63323D01*
X38954Y52604D02*
X49314Y62964D01*
X38235Y53322D02*
X48420Y63506D01*
X56382Y57337D02*
X59971Y53747D01*
X56382Y53508D02*
X59971Y57098D01*
X56382Y56899D02*
Y57401D01*
X54652Y56911D02*
X55378Y56185D01*
X56382Y56618D02*
X59971Y53029D01*
X56382Y52789D02*
X59971Y56379D01*
X55378Y52194D02*
Y56899D01*
X56382Y52194D02*
Y56899D01*
X54311Y56534D02*
X55378Y55466D01*
X53628Y56498D02*
X55378Y54748D01*
X54276Y56498D02*
X54652Y56874D01*
X53524Y56498D02*
X54276D01*
X51752Y53188D02*
X55378Y56815D01*
X51752Y56219D02*
X55378Y52593D01*
X51736Y53891D02*
X55061Y57216D01*
X56382Y55900D02*
X59971Y52310D01*
X56382Y52071D02*
X59971Y55661D01*
X56382Y51692D02*
Y52194D01*
Y51692D02*
Y52194D01*
Y55181D02*
X59971Y51592D01*
X56382Y54463D02*
X59971Y50873D01*
X56131Y51441D02*
X56382Y51692D01*
X51502Y52220D02*
X55378Y56097D01*
X56131Y51441D02*
X56382Y51692D01*
X51690Y55563D02*
X55219Y52034D01*
X51286Y55248D02*
X54859Y51675D01*
X50534Y55282D02*
X54500Y51316D01*
X51752Y53346D02*
X54141Y50956D01*
X51503Y52876D02*
X53782Y50597D01*
X53148Y56874D02*
X53524Y56498D01*
X51376Y55248D02*
X51752Y55624D01*
X51376Y56752D02*
X51752Y56376D01*
Y55624D02*
Y56376D01*
X50659Y54252D02*
X53215Y56807D01*
X51377Y54251D02*
X53625Y56498D01*
X51376Y54252D02*
X51752Y53876D01*
X50624Y56752D02*
X51376D01*
X50624Y55248D02*
X51376D01*
X50369Y56496D02*
X50624Y56752D01*
X50562Y55310D02*
X50624Y55248D01*
X50248Y53840D02*
X50659Y54252D01*
X50624D02*
X51376D01*
X50248Y53876D02*
X50624Y54252D01*
X51752Y53124D02*
Y53876D01*
X51502Y52874D02*
X51752Y53124D01*
X51502Y52140D02*
Y52874D01*
Y51638D02*
Y52140D01*
Y52159D02*
X53423Y50238D01*
X51251Y51387D02*
X51502Y51638D01*
Y52140D01*
X50498D02*
Y52874D01*
X51251Y51387D02*
X51502Y51638D01*
X50248Y53124D02*
Y53876D01*
Y53124D02*
X50498Y52874D01*
X50813Y50949D02*
X51251Y51387D01*
X50562Y50698D02*
X50813Y50949D01*
X50562Y50698D02*
X50813Y50949D01*
X56382Y52308D02*
X59971Y48718D01*
X56330Y51641D02*
X59971Y48000D01*
X56382Y53745D02*
X59971Y50155D01*
X56382Y53026D02*
X59971Y49436D01*
X55094Y47191D02*
X59971Y52069D01*
X55812Y47191D02*
X59971Y51350D01*
X55971Y51282D02*
X59971Y47281D01*
X52939Y47191D02*
X59971Y54224D01*
X53611Y47146D02*
X59971Y53506D01*
X50295Y47421D02*
X55378Y52505D01*
X50450Y47265D02*
X55378Y52194D01*
X51602Y46573D02*
X59971Y54942D01*
X53971Y46786D02*
X59971Y52787D01*
X51453Y46764D02*
X56131Y51441D01*
X55612Y50922D02*
X59971Y46563D01*
X56678Y46620D02*
X59971Y49914D01*
X56318Y46979D02*
X59971Y50632D01*
X56106Y47191D02*
X56682Y46616D01*
Y45905D02*
X59971Y49195D01*
X56106Y44888D02*
X56682Y45464D01*
Y46616D01*
X55253Y50563D02*
X59971Y45844D01*
X54954Y47191D02*
X56106D01*
X53816Y49126D02*
X55751Y47191D01*
X53457Y48767D02*
X55032Y47191D01*
X54893Y50204D02*
X59971Y45126D01*
X54534Y49845D02*
X59971Y44407D01*
X54954Y44888D02*
X56106D01*
X53097Y48408D02*
X54634Y46871D01*
X52414Y47191D02*
X53566D01*
X52379Y47689D02*
X52877Y47191D01*
X52020Y47330D02*
X52286Y47064D01*
X52738Y48049D02*
X54378Y46408D01*
Y46616D02*
X54954Y47191D01*
X53566D02*
X54142Y46616D01*
X51403Y51539D02*
X53063Y49879D01*
X51043Y51180D02*
X52704Y49520D01*
X50684Y50821D02*
X52345Y49160D01*
X51660Y46971D02*
X51927Y46704D01*
X51838Y46616D02*
X52414Y47191D01*
X51602Y45464D02*
Y46616D01*
X51453Y46764D02*
X51602Y46616D01*
X54142Y45927D02*
X54378Y45690D01*
X54142Y45521D02*
X54378Y45757D01*
X54142Y45464D02*
Y46616D01*
Y46239D02*
X54378Y46476D01*
Y45464D02*
Y46616D01*
Y45464D02*
X54954Y44888D01*
X53566D02*
X54142Y45464D01*
X51838D02*
Y46616D01*
X51602Y45854D02*
X51838Y46091D01*
X51602Y46312D02*
X51838Y46075D01*
X51026Y44888D02*
X51602Y45464D01*
X53509Y44888D02*
X54142Y45521D01*
X52414Y44888D02*
X53566D01*
X51838Y45464D02*
X52414Y44888D01*
X50244Y56496D02*
X50369D01*
X50244D02*
X50369D01*
X49993Y56245D02*
X50244Y56496D01*
X49993Y56245D02*
X50244Y56496D01*
X50175Y54922D02*
X50846Y54252D01*
X49816Y54563D02*
X50376Y54003D01*
X49456Y54204D02*
X50248Y53412D01*
X48852Y53599D02*
X50562Y55310D01*
X49002Y53312D02*
X50938Y55248D01*
X48099Y54352D02*
X49993Y56245D01*
X49002Y52594D02*
X50248Y53840D01*
X49097Y53845D02*
X50498Y52444D01*
X49002Y53222D02*
X50291Y51932D01*
X49002Y52148D02*
Y53452D01*
X49546Y51702D02*
X50498Y52654D01*
X50060Y51702D02*
X50498Y52140D01*
X49002Y51702D02*
X50060D01*
X49002Y50698D02*
X50060D01*
X50562D01*
X50060D02*
X50562D01*
X49002Y50548D02*
Y50698D01*
X48978Y51852D02*
X50249Y53123D01*
X48935Y51852D02*
X49002Y51785D01*
X48852Y52148D02*
X49002D01*
X48852Y51852D02*
X49002D01*
Y52504D02*
X49804Y51702D01*
X49002Y51785D02*
X49085Y51702D01*
X49002D02*
Y51852D01*
X47848Y54101D02*
X48099Y54352D01*
X47848Y54101D02*
X48099Y54352D01*
X47848Y53599D02*
Y54101D01*
Y53599D02*
Y54101D01*
X48852Y53452D02*
Y53599D01*
Y53452D02*
X49002D01*
X47848D02*
Y53599D01*
X47704Y53452D02*
X47848Y53596D01*
X47698Y53452D02*
X47848D01*
X45652Y55135D02*
X47485Y53302D01*
X45652Y54417D02*
X46767Y53302D01*
X47698D02*
Y53452D01*
X47554Y53302D02*
X47698Y53446D01*
X46499Y53302D02*
X47001D01*
X48852Y51852D02*
Y52148D01*
Y51935D02*
X48935Y51852D01*
X47402Y50548D02*
X47698D01*
X48202D01*
X47698D02*
X48202D01*
X49002D01*
X47421Y50295D02*
X47675Y50548D01*
X47299Y53302D02*
X47698D01*
X47299D02*
X47698D01*
X46499D02*
X47001D01*
X47299D01*
X47252Y50548D02*
X47402D01*
X47252D02*
X47402D01*
X47252Y50464D02*
Y50548D01*
X48858Y48858D02*
X55378Y55378D01*
X49217Y48498D02*
X55378Y54660D01*
X48858Y48858D02*
X55378Y55378D01*
X50088Y50698D02*
X51986Y48801D01*
X49576Y48139D02*
X55378Y53942D01*
X49935Y47780D02*
X55378Y53223D01*
X49370Y50698D02*
X51626Y48442D01*
X48083Y50548D02*
X50908Y47723D01*
X48802Y50548D02*
X51267Y48083D01*
X48139Y49576D02*
X49262Y50698D01*
X48498Y49217D02*
X49980Y50698D01*
X47365Y50548D02*
X50549Y47364D01*
X47252Y50464D02*
X50450Y47265D01*
X48412Y47799D02*
X49447Y46764D01*
X49298Y46616D02*
X49447Y46764D01*
X49062Y45470D02*
X49298Y45706D01*
X49062Y46188D02*
X49298Y46425D01*
X49062Y45978D02*
X49298Y45741D01*
Y45464D02*
X49874Y44888D01*
X51026D01*
X49298Y45464D02*
Y46616D01*
X48412Y47346D02*
X49298Y46459D01*
X48916Y46761D02*
X49183Y47028D01*
X49062Y45464D02*
Y46616D01*
X48481Y44888D02*
X49062Y45470D01*
X48724Y44413D02*
X49536Y45226D01*
X48486Y44652D02*
X49062Y44076D01*
X48486Y44888D02*
X49062Y45464D01*
X47780Y49935D02*
X48393Y50548D01*
X47408Y47294D02*
Y48045D01*
X47351Y47351D02*
X47408Y47408D01*
X47351Y47351D02*
X47408Y47408D01*
X48557Y47120D02*
X48824Y47387D01*
X48486Y47192D02*
X49062Y46616D01*
X48412Y47192D02*
Y47799D01*
X45699Y49754D02*
X47408Y48045D01*
X46992Y47710D02*
X47368Y48086D01*
X46274Y48429D02*
X46649Y48804D01*
X46633Y48070D02*
X47008Y48445D01*
X44233Y50806D02*
X47408Y47631D01*
X45176Y49527D02*
X47408Y47294D01*
X44423Y48774D02*
X46758Y46439D01*
X47334Y44888D02*
X48486D01*
X47334Y44652D02*
X48486D01*
X46758Y45464D02*
X47334Y44888D01*
X47525Y44652D02*
X47762Y44888D01*
X47996D02*
X48233Y44652D01*
X48244D02*
X48481Y44888D01*
X46758Y44076D02*
X47334Y44652D01*
X46758Y45464D02*
Y46439D01*
X46522Y45644D02*
X47514Y44652D01*
X46522Y46362D02*
X46758Y46126D01*
X46522Y45803D02*
X46758Y46040D01*
X46252Y45195D02*
X47065Y44382D01*
X46376Y44221D02*
X47189Y45034D01*
X46017Y44580D02*
X46830Y45393D01*
X45287Y78489D02*
X46289Y77487D01*
Y75805D02*
Y77595D01*
X43605Y78489D02*
X45395D01*
X46289Y77595D01*
X45395Y74911D02*
X46289Y75805D01*
X43605Y74911D02*
X45395D01*
X42711Y75805D02*
X43605Y74911D01*
X42711Y68195D02*
X43605Y69089D01*
X35086Y87971D02*
X44569Y78489D01*
X35805Y87971D02*
X45287Y78489D01*
X42711Y77595D02*
X43605Y78489D01*
X37615Y69944D02*
X43094Y75423D01*
X38334Y69226D02*
X44019Y74911D01*
X38693Y68867D02*
X44737Y74911D01*
X37974Y69585D02*
X43453Y75063D01*
X46289Y66405D02*
Y68195D01*
X45395Y65511D02*
X46289Y66405D01*
X45395Y69089D02*
X46289Y68195D01*
X45348Y69089D02*
X46289Y68148D01*
X44615Y65511D02*
X45617Y64510D01*
X45334Y65511D02*
X46335Y64510D01*
X43897Y65511D02*
X44898Y64510D01*
X43605Y69089D02*
X45395D01*
X43605Y65511D02*
X45395D01*
X42711Y66405D02*
X43605Y65511D01*
X42285Y65274D02*
X43063Y66053D01*
X43003Y64556D02*
X43958Y65511D01*
X43675Y64510D02*
X44677Y65511D01*
X42644Y64915D02*
X43423Y65694D01*
X42711Y75805D02*
Y77595D01*
Y66405D02*
Y68195D01*
X37598Y69962D02*
X37849Y69711D01*
X37598Y69962D02*
X37849Y69711D01*
X43050Y64510D01*
X41567Y65993D02*
X42711Y67137D01*
X41207Y66352D02*
X42711Y67856D01*
X36196Y69962D02*
X42711Y76477D01*
X36914Y69962D02*
X42734Y75782D01*
X35477Y69962D02*
X42711Y77195D01*
X37096Y69962D02*
X37598D01*
X37096Y68958D02*
X42297Y63757D01*
X34538Y64711D02*
X37940Y68114D01*
X37096Y69962D02*
X37598D01*
X41926Y65634D02*
X42711Y66419D01*
X42548Y63506D02*
X43050D01*
X42297Y63757D02*
X42548Y63506D01*
X42297Y63757D02*
X42548Y63506D01*
X39152Y62141D02*
X41533Y64522D01*
X42548Y63506D02*
X43050D01*
X39152Y62860D02*
X41173Y64881D01*
X38507Y63652D02*
X40455Y65600D01*
X38901Y63327D02*
X40814Y65240D01*
X37788Y63652D02*
X40096Y65959D01*
X37424Y63652D02*
X38576D01*
X39152Y63076D01*
X38572Y63652D02*
X39152Y63072D01*
X36848Y63076D02*
X37424Y63652D01*
X39152Y57831D02*
X44827Y63506D01*
X44376Y57002D02*
X44752Y56626D01*
X43248D02*
X43624Y57002D01*
X44376D01*
X44752Y56251D02*
Y56626D01*
Y56251D02*
X45401Y55602D01*
X43248Y55874D02*
Y56626D01*
X39152Y58549D02*
X44109Y63506D01*
X39007Y61780D02*
X43785Y57002D01*
X38806Y58922D02*
X43391Y63506D01*
X38648Y61420D02*
X43345Y56723D01*
X35791Y53752D02*
X45546Y63506D01*
X36443Y53685D02*
X46264Y63506D01*
X34538Y63375D02*
X44498Y53415D01*
X45401Y55602D02*
X45652Y55351D01*
Y54849D02*
Y55351D01*
X45401Y55602D02*
X45652Y55351D01*
X43999Y55498D02*
X44648Y54849D01*
X45652D02*
Y55351D01*
Y53452D02*
Y54849D01*
X44648Y53452D02*
Y54849D01*
X43852Y55498D02*
X44648Y54702D01*
X42757Y54252D02*
X44001Y55496D01*
X43248Y55874D02*
X43624Y55498D01*
X43999D01*
X39672Y51885D02*
X43455Y55668D01*
X43426Y54202D02*
X44361Y55137D01*
X39313Y52244D02*
X43248Y56180D01*
X39152Y61924D02*
Y63076D01*
X38576Y61348D02*
X39152Y61924D01*
X36848D02*
X37424Y61348D01*
X38576D01*
X38317Y59152D02*
X42672Y63506D01*
X38002Y61348D02*
X43248Y56102D01*
X37599Y59152D02*
X42251Y63804D01*
X34538Y62657D02*
X38043Y59152D01*
X34538Y59682D02*
X36848Y61993D01*
Y61924D02*
Y63076D01*
X34538Y60401D02*
X36848Y62712D01*
X34538Y61939D02*
X37374Y59102D01*
X34538Y57527D02*
X38359Y61348D01*
X34538Y58964D02*
X37173Y61599D01*
X39152Y58043D02*
X42943Y54252D01*
X38576Y56848D02*
X39152Y57424D01*
X38576Y59152D02*
X39152Y58576D01*
Y57424D02*
Y58576D01*
X39102Y57374D02*
X42424Y54052D01*
X38191Y56848D02*
X42498Y52541D01*
X38743Y57015D02*
X42248Y53509D01*
X37424Y59152D02*
X38576D01*
X36848Y57473D02*
X37473Y56848D01*
X36848Y58576D02*
X37424Y59152D01*
X36848Y57424D02*
Y58576D01*
X37424Y56848D02*
X38576D01*
X37473D02*
X42498Y51823D01*
X36848Y57424D02*
X37424Y56848D01*
X33650Y87971D02*
X43369Y78252D01*
X34368Y87971D02*
X43850Y78489D01*
X32213Y87971D02*
X42711Y77473D01*
X32931Y87971D02*
X43009Y77893D01*
X31494Y87971D02*
X42711Y76755D01*
X33214Y66980D02*
X35193Y68958D01*
X32855Y67339D02*
X34474Y68958D01*
X30776Y87971D02*
X42711Y76036D01*
X30669Y75211D02*
X43429Y87971D01*
X30418Y76397D02*
X41992Y87971D01*
X30626Y75887D02*
X42711Y87971D01*
X30619Y75916D02*
X36573Y69962D01*
X30662Y75154D02*
X35854Y69962D01*
X30493Y74604D02*
X35136Y69962D01*
X34291Y65902D02*
X37222Y68833D01*
X34538Y65430D02*
X37581Y68473D01*
X34287Y65907D02*
X34538Y65656D01*
Y65154D02*
Y65656D01*
Y63993D02*
X38300Y67755D01*
X34538Y63274D02*
X38659Y67396D01*
X34538Y65154D02*
Y65656D01*
X33573Y66620D02*
X35911Y68958D01*
X33932Y66261D02*
X36629Y68958D01*
X33023Y67171D02*
X34287Y65907D01*
X34538Y65656D01*
X32547Y68958D02*
X37854Y63652D01*
X33265Y68958D02*
X38572Y63652D01*
X31828Y68958D02*
X37280Y63507D01*
X32219Y67422D02*
X33756Y68958D01*
X32772Y67422D02*
X33023Y67171D01*
X32270Y67422D02*
X32772D01*
X32270D02*
X32772D01*
X32270Y66418D02*
X33534Y65154D01*
X32213Y66418D02*
X33534Y65097D01*
X32772Y67422D02*
X33023Y67171D01*
X31110Y68958D02*
X32647Y67422D01*
X31501D02*
X33037Y68958D01*
X30392D02*
X31928Y67422D01*
X30782D02*
X32319Y68958D01*
X30397Y64882D02*
X31934Y66418D01*
X31495D02*
X33534Y64379D01*
X30364Y66338D02*
Y66418D01*
X32767Y64378D02*
X33534Y65145D01*
X33127Y64019D02*
X33534Y64427D01*
X32408Y64737D02*
X33180Y65509D01*
X32515Y64631D02*
X33144Y64002D01*
X33395Y63751D01*
Y63568D02*
X33534Y63708D01*
X33144Y64002D02*
X33395Y63751D01*
X31116Y64882D02*
X32461Y66227D01*
X31834Y64882D02*
X32821Y65868D01*
X31762Y64882D02*
X32264D01*
X31762D02*
X32264D01*
X30776Y66418D02*
X33534Y63660D01*
X32264Y64882D02*
X32515Y64631D01*
X32264Y64882D02*
X32515Y64631D01*
X34538Y58245D02*
X37640Y61348D01*
X34538Y61220D02*
X37015Y58743D01*
X34538Y60502D02*
X36848Y58191D01*
X34538Y59783D02*
X36848Y57473D01*
X34538Y64094D02*
X44648Y53983D01*
X34538Y59065D02*
X43825Y49778D01*
X34538Y56809D02*
X41892Y64163D01*
X34538Y62556D02*
X39018Y67037D01*
X34538Y65531D02*
X36920Y63148D01*
X33395Y63082D02*
X33534Y62942D01*
X33395Y62850D02*
X33534Y62990D01*
X34538Y61838D02*
X39377Y66677D01*
X34538Y61119D02*
X39737Y66318D01*
X34538Y64812D02*
X36848Y62502D01*
X34538Y56910D02*
X37946Y53502D01*
X34538Y53935D02*
X37451Y56848D01*
X34538Y54653D02*
X37078Y57194D01*
X34538Y55473D02*
X36259Y53752D01*
X34538Y57628D02*
X42388Y49778D01*
X34538Y53217D02*
X38169Y56848D01*
X34538Y56191D02*
X37227Y53502D01*
X34538Y56090D02*
X36848Y58401D01*
X34538Y55372D02*
X36848Y57683D01*
X33395Y55897D02*
X33534Y55758D01*
X33395Y55666D02*
X33534Y55805D01*
X34538Y58347D02*
X43107Y49778D01*
X33395Y54947D02*
X33534Y55087D01*
X33395Y55179D02*
X33534Y55039D01*
X33395Y61413D02*
X33534Y61553D01*
X33395Y60926D02*
X33534Y60787D01*
X33395Y62131D02*
X33534Y62271D01*
X33395Y61645D02*
X33534Y61505D01*
X33395Y60208D02*
X33534Y60068D01*
X33395Y59976D02*
X33534Y60116D01*
X33395Y60695D02*
X33534Y60834D01*
X33395Y63249D02*
Y63751D01*
Y63249D02*
Y63751D01*
X31762Y63878D02*
X32391Y63249D01*
X31161Y63878D02*
X32391Y62648D01*
X30443Y63878D02*
X32391Y61930D01*
X33395Y62363D02*
X33534Y62223D01*
X30364Y61258D02*
Y62422D01*
X33395Y57821D02*
X33534Y57961D01*
X33395Y57334D02*
X33534Y57194D01*
X33395Y58539D02*
X33534Y58679D01*
X33395Y58053D02*
X33534Y57913D01*
X33395Y56616D02*
X33534Y56476D01*
X33395Y56384D02*
X33534Y56524D01*
X33395Y57103D02*
X33534Y57242D01*
X33395Y59258D02*
X33534Y59398D01*
X33395Y58771D02*
X33534Y58631D01*
X30364Y58718D02*
Y59882D01*
X33395Y59490D02*
X33534Y59350D01*
X30364Y56773D02*
X32391Y54745D01*
X30364Y54071D02*
X32391Y56099D01*
X30364Y59647D02*
X32391Y57619D01*
X45652Y53698D02*
X46048Y53302D01*
X45802D02*
Y53452D01*
X44498D02*
X44648D01*
X45652D02*
X45802D01*
Y53302D02*
X46201D01*
X46499D01*
X44498Y52502D02*
Y53452D01*
X45802Y53302D02*
X46201D01*
X43752Y53810D02*
X44648Y54706D01*
X43502Y52841D02*
X44648Y53988D01*
X43752Y53443D02*
X44498Y52696D01*
X43881Y52502D02*
X44498Y53119D01*
X43515Y50806D02*
X44543Y49778D01*
X44030D02*
X44801Y50548D01*
X43685Y50806D02*
X44498D01*
X45209Y50548D02*
X45448Y50309D01*
Y50005D02*
Y50507D01*
X45298Y50548D02*
X45448D01*
X45298D02*
X45448D01*
Y50005D02*
X45699Y49754D01*
X45448Y50005D02*
X45699Y49754D01*
X45448Y50005D02*
Y50507D01*
X44498Y50548D02*
X45298D01*
X44749Y49778D02*
X45448Y50477D01*
X44423Y49778D02*
X44925D01*
X44423D02*
X44925D01*
X45196Y49506D02*
X45571Y49882D01*
X44925Y49778D02*
X45176Y49527D01*
X44925Y49778D02*
X45176Y49527D01*
X43502Y52874D02*
X43752Y53124D01*
X43552Y52924D02*
X43975Y52502D01*
X43376Y54252D02*
X43752Y53876D01*
Y53124D02*
Y53876D01*
X43502Y52254D02*
X43749Y52502D01*
X44498D01*
X43502Y52254D02*
Y52874D01*
X42248Y53876D02*
X42624Y54252D01*
X43376D01*
X42248Y53124D02*
Y53876D01*
Y53124D02*
X42498Y52874D01*
Y51491D02*
Y51993D01*
Y51491D02*
Y51993D01*
Y52874D01*
X42932Y51057D02*
X43183Y50806D01*
X43685D01*
X42749Y51240D02*
X42932Y51057D01*
X43183Y50806D01*
X43312Y49778D02*
X44341Y50806D01*
X44498Y50548D02*
Y50806D01*
X43183D02*
X43685D01*
X42498Y51491D02*
X42749Y51240D01*
X42498Y51491D02*
X42749Y51240D01*
X41109Y50448D02*
X42498Y51838D01*
X41468Y50089D02*
X42684Y51305D01*
X42593Y49778D02*
X43622Y50806D01*
X41780Y49778D02*
X44423D01*
X41875D02*
X43043Y50946D01*
X45914Y48788D02*
X46290Y49164D01*
X44794Y47192D02*
X45946D01*
X45555Y49147D02*
X45931Y49523D01*
X45037Y47192D02*
X45521Y47676D01*
X45755Y47192D02*
X45880Y47317D01*
X45946Y47192D02*
X46522Y46616D01*
X44218D02*
X44794Y47192D01*
X43391Y48774D02*
X44974Y47192D01*
X44110Y48774D02*
X45692Y47192D01*
X41780Y48774D02*
X44423D01*
X42881Y47192D02*
X44444Y48754D01*
X43503Y47095D02*
X44803Y48395D01*
X43862Y46736D02*
X45162Y48036D01*
X42673Y48774D02*
X44525Y46922D01*
X46522Y46522D02*
X46599Y46599D01*
X46522Y46522D02*
X46599Y46599D01*
X46522Y45464D02*
Y46616D01*
X44794Y44889D02*
X45946D01*
X46522Y45464D01*
X45370Y44652D02*
X45607Y44889D01*
X45122D02*
X45359Y44652D01*
X44218Y45464D02*
X44794Y44889D01*
X44794Y44652D02*
X45946D01*
X44218Y45464D02*
Y46616D01*
X43215Y44652D02*
X44218Y45655D01*
X43905Y45387D02*
X44717Y44575D01*
X43669Y44388D02*
X44482Y45201D01*
X43546Y45028D02*
X44358Y44215D01*
X41954Y48774D02*
X44218Y46510D01*
X43406Y47192D02*
X43982Y46616D01*
X41678D02*
X42254Y47192D01*
X43406D01*
X41678Y45464D02*
Y46616D01*
X43982Y45464D02*
Y46616D01*
X41442Y46414D02*
X41678Y46177D01*
X41278Y48774D02*
X41780D01*
X41278D02*
X41780D01*
X41027Y49025D02*
X41278Y48774D01*
X41027Y49025D02*
X41278Y48774D01*
X41155Y46902D02*
X43027Y48774D01*
X41442Y46471D02*
X43745Y48774D01*
X41442Y45464D02*
Y46616D01*
X43982Y46137D02*
X44218Y46374D01*
X43982Y46029D02*
X44218Y45792D01*
X43406Y44888D02*
X43982Y45464D01*
X42254Y44652D02*
X43406D01*
X42967Y44888D02*
X43204Y44652D01*
X43406D02*
X43982Y44076D01*
X42496Y44652D02*
X42733Y44888D01*
X41442Y45695D02*
X42485Y44652D01*
X42254Y44888D02*
X43406D01*
X41442Y45752D02*
X41678Y45989D01*
Y45464D02*
X42254Y44888D01*
X41322Y44196D02*
X42134Y45008D01*
X41678Y44076D02*
X42254Y44652D01*
X41198Y45220D02*
X42010Y44408D01*
X40031Y51526D02*
X42248Y53743D01*
X38056Y53502D02*
X38307Y53251D01*
X37554Y53502D02*
X38056D01*
X38307Y53251D01*
X40391Y51167D02*
X42298Y53074D01*
X40750Y50808D02*
X42498Y52556D01*
X38307Y53251D02*
X41780Y49778D01*
X36626Y53502D02*
X37554D01*
X38056D01*
X35624Y53752D02*
X36376D01*
X36626Y53502D01*
X34538Y53318D02*
X40664Y47192D01*
X34538Y52599D02*
X39945Y47192D01*
X35248Y52624D02*
X35624Y52248D01*
X36626Y52498D02*
X37554D01*
X41027Y49025D01*
X36376Y52248D02*
X36626Y52498D01*
X35624Y52248D02*
X36376D01*
X37512Y52498D02*
X42819Y47192D01*
X37852D02*
X40357Y49696D01*
X37174Y47192D02*
X38326D01*
X34538Y49624D02*
X37412Y52498D01*
X34538Y48906D02*
X37842Y52211D01*
X34538Y50343D02*
X36693Y52498D01*
X34538Y51061D02*
X35725Y52248D01*
X34538Y48188D02*
X38201Y51851D01*
X34538Y47469D02*
X38561Y51492D01*
X34538Y50444D02*
X37790Y47192D01*
X34538Y54754D02*
X35582Y53710D01*
X35248Y53376D02*
X35624Y53752D01*
X34538Y54036D02*
X35248Y53325D01*
X33395Y52792D02*
X33534Y52932D01*
X34538Y52498D02*
X35248Y53209D01*
X34538Y51780D02*
X35315Y52557D01*
X35248Y52624D02*
Y53376D01*
X33395Y54229D02*
X33534Y54369D01*
X33395Y53742D02*
X33534Y53602D01*
X30364Y53638D02*
Y54802D01*
X33395Y54461D02*
X33534Y54321D01*
X33395Y53510D02*
X33534Y53650D01*
X33395Y53024D02*
X33534Y52884D01*
X30364Y54618D02*
X32391Y52590D01*
X33395Y49200D02*
X33534Y49340D01*
X33395Y48713D02*
X33534Y48573D01*
X33395Y49918D02*
X33534Y50058D01*
X33395Y49432D02*
X33534Y49292D01*
X33395Y47995D02*
X33534Y47855D01*
X33395Y47763D02*
X33534Y47903D01*
X33395Y48481D02*
X33534Y48621D01*
X33395Y51587D02*
X33534Y51447D01*
X33395Y51355D02*
X33534Y51495D01*
X33395Y52305D02*
X33534Y52166D01*
X33395Y52074D02*
X33534Y52213D01*
X33395Y50637D02*
X33534Y50777D01*
X33395Y50150D02*
X33534Y50010D01*
X33395Y50868D02*
X33534Y50729D01*
X40007Y47192D02*
X41590Y48774D01*
X40726Y47192D02*
X42309Y48774D01*
X38448Y47069D02*
X40716Y49337D01*
X39714Y47192D02*
X40866D01*
X38807Y46710D02*
X41075Y48978D01*
X40866Y47192D02*
X41442Y46616D01*
X39138D02*
X39714Y47192D01*
X36794Y52498D02*
X42177Y47115D01*
X36325Y52248D02*
X41818Y46756D01*
X34538Y51881D02*
X39470Y46948D01*
X34538Y51162D02*
X39138Y46562D01*
X34538Y45314D02*
X39638Y50414D01*
X34538Y44596D02*
X39997Y50055D01*
X34538Y46032D02*
X39279Y50774D01*
X40866Y44888D02*
X41442Y45464D01*
X39714Y44652D02*
X40866D01*
X39138Y45464D02*
X39714Y44888D01*
X40866D01*
X40963Y44555D02*
X41775Y45367D01*
X40341Y44652D02*
X40578Y44888D01*
X40093D02*
X40330Y44652D01*
X39138Y45464D02*
Y46616D01*
X38186Y44652D02*
X39138Y45604D01*
X38902Y46086D02*
X39138Y46323D01*
X38902Y46080D02*
X39138Y45843D01*
X38850Y45413D02*
X39663Y44600D01*
X38615Y44362D02*
X39428Y45175D01*
X38491Y45054D02*
X39304Y44241D01*
X36598Y46616D02*
X37174Y47192D01*
X38326D02*
X38902Y46616D01*
X34538Y48289D02*
X36598Y46228D01*
X34538Y47570D02*
X36598Y45509D01*
X34538Y46852D02*
X36956Y44433D01*
X38902Y45464D02*
Y46616D01*
X36598Y45464D02*
Y46616D01*
X34538Y49725D02*
X37123Y47140D01*
X34538Y49007D02*
X36764Y46781D01*
X33395Y47276D02*
X33534Y47137D01*
X33395Y47045D02*
X33534Y47184D01*
X34538Y46751D02*
X38920Y51133D01*
X33395Y46326D02*
X33534Y46466D01*
X33395Y46558D02*
X33534Y46418D01*
X38326Y44888D02*
X38902Y45464D01*
X37174Y44652D02*
X38326D01*
X36598Y45464D02*
X37174Y44888D01*
X38326D01*
X37467Y44652D02*
X37704Y44888D01*
X37938D02*
X38175Y44652D01*
X37219Y44888D02*
X37456Y44652D01*
X33395Y45121D02*
X33534Y44981D01*
X33395Y44889D02*
X33534Y45029D01*
X33395Y45840D02*
X33534Y45700D01*
X33395Y45608D02*
X33534Y45748D01*
X36598Y45509D02*
X37219Y44888D01*
X33395Y44171D02*
X33534Y44311D01*
X33395Y44403D02*
X33534Y44263D01*
X56682Y45542D02*
X59971Y42252D01*
X56361Y45144D02*
X59971Y41534D01*
X54175Y49486D02*
X59971Y43689D01*
X56682Y46260D02*
X59971Y42971D01*
X51602Y45593D02*
X59971Y37223D01*
X51307Y45169D02*
X59971Y36505D01*
X54014Y45336D02*
X59971Y39379D01*
X53655Y44977D02*
X59971Y38660D01*
X47829Y34898D02*
X59971Y47040D01*
X48402Y34752D02*
X59971Y46321D01*
X46896Y35402D02*
X59971Y48477D01*
X47470Y35257D02*
X59971Y47758D01*
X48959Y45362D02*
X59971Y34350D01*
X48600Y45003D02*
X59971Y33631D01*
X49120Y34752D02*
X59971Y45603D01*
X53025Y44888D02*
X59971Y37942D01*
X53362Y35402D02*
X59971Y42011D01*
X55899Y44888D02*
X59971Y40815D01*
X55180Y44888D02*
X59971Y40097D01*
X51994Y34752D02*
X59971Y42729D01*
X54402Y34286D02*
X59971Y39856D01*
X54312Y34915D02*
X59971Y40574D01*
X49838Y34752D02*
X59971Y44885D01*
X50557Y34752D02*
X59971Y44166D01*
X50870Y44888D02*
X59971Y35786D01*
X50151Y44888D02*
X59971Y35068D01*
X49062Y43823D02*
X59971Y32913D01*
X49062Y43104D02*
X59971Y32194D01*
X51275Y34752D02*
X59971Y43448D01*
X49062Y44033D02*
X49917Y44888D01*
X49062Y43314D02*
X50636Y44888D01*
X49062Y42924D02*
Y44076D01*
X47511Y42348D02*
X48486D01*
X49062Y42924D01*
X53953Y35274D02*
X59971Y41292D01*
X47326Y35402D02*
X47902Y34826D01*
X46758Y43101D02*
Y44076D01*
X46522Y42930D02*
X46758Y43166D01*
X46522Y43648D02*
X46758Y43885D01*
X46522Y43489D02*
X46758Y43252D01*
X46868Y41706D02*
X53172Y35402D01*
X46509Y41346D02*
X52564Y35291D01*
X46522Y42924D02*
Y44076D01*
X53826Y35402D02*
X54402Y34826D01*
Y33674D02*
Y34826D01*
X52098D02*
X52674Y35402D01*
X53826D01*
Y33098D02*
X54402Y33674D01*
X52674Y33098D02*
X53826D01*
X52098Y33674D02*
X52674Y33098D01*
X47902Y34752D02*
X52098D01*
X47902Y33748D02*
X52098D01*
X47565Y33197D02*
X48117Y33748D01*
X47495Y33268D02*
X47902Y33674D01*
X47925Y32838D02*
X48835Y33748D01*
X48284Y32479D02*
X49554Y33748D01*
X46248Y33009D02*
X46499Y32758D01*
X56076Y31650D02*
X59971Y35545D01*
X56164Y31019D02*
X59971Y34827D01*
X55133Y32144D02*
X59971Y36982D01*
X55717Y32009D02*
X59971Y36264D01*
Y4500D02*
Y84000D01*
X54291Y33564D02*
X59971Y27884D01*
X54402Y34172D02*
X59971Y28602D01*
X48380Y42348D02*
X59971Y30757D01*
X47662Y42348D02*
X59971Y30039D01*
X48792Y42655D02*
X59971Y31476D01*
X51952Y33748D02*
X53987Y31713D01*
X49796Y33748D02*
X59971Y23573D01*
X49078Y33748D02*
X59971Y22855D01*
X47227Y42065D02*
X59971Y29321D01*
X55582Y32144D02*
X56164Y31562D01*
Y30398D02*
Y31562D01*
X53932Y33205D02*
X54993Y32144D01*
X54418D02*
X55582D01*
X56164Y30973D02*
X59971Y27165D01*
X56092Y30326D02*
X59971Y26447D01*
X55582Y29816D02*
X56164Y30398D01*
X53836Y30427D02*
X54447Y29816D01*
X53836Y30398D02*
X54418Y29816D01*
X53320Y33098D02*
X54346Y32072D01*
X53836Y31562D02*
X54418Y32144D01*
X51037Y30352D02*
X59971Y21418D01*
X48331Y30185D02*
X59971Y18544D01*
X51084Y31024D02*
X59971Y22136D01*
X50662Y31983D02*
X52226Y33547D01*
X51021Y31624D02*
X52585Y33188D01*
X49386Y32144D02*
X50991Y33748D01*
X50104Y32144D02*
X51709Y33748D01*
X51233D02*
X53836Y31145D01*
X50515Y33748D02*
X53836Y30427D01*
X51084Y30968D02*
X53214Y33098D01*
X48359Y33748D02*
X49964Y32144D01*
X48643Y32119D02*
X50272Y33748D01*
X46499Y32758D02*
X47114Y32144D01*
X46798D02*
X47114D01*
X47808Y33581D02*
X49292Y32097D01*
X48979Y31784D02*
X49338Y32144D01*
X47495Y33268D02*
X48979Y31784D01*
X51084Y30398D02*
Y31562D01*
X53836Y30398D02*
Y31562D01*
X49338Y32144D02*
X50502D01*
X51084Y31562D01*
X48756Y30478D02*
X49418Y29816D01*
X50502D02*
X51084Y30398D01*
X48756D02*
X49338Y29816D01*
X48544Y30714D02*
X48738Y30519D01*
X48544Y30691D02*
X48756Y30478D01*
X48544Y30714D02*
X48738Y30519D01*
X48544Y30583D02*
X48609Y30649D01*
X48756Y30398D02*
Y30519D01*
X47962Y29816D02*
X48544Y30398D01*
Y30714D01*
X45840Y44889D02*
X46758Y43970D01*
X45946Y42348D02*
X46522Y42924D01*
X45946Y44652D02*
X46522Y44076D01*
X45941Y42348D02*
X46522Y42930D01*
X45143Y35085D02*
X54950Y44892D01*
X46178Y35402D02*
X55665Y44888D01*
X45507Y42348D02*
X45756Y42099D01*
X44741Y35402D02*
X54591Y45251D01*
X44023Y35402D02*
X53509Y44888D01*
X44672Y41015D02*
X46758Y43101D01*
X44607Y41015D02*
X45941Y42348D01*
X41936Y34752D02*
X52243Y45059D01*
X42654Y34752D02*
X52791Y44888D01*
X41217Y34752D02*
X51884Y45418D01*
X45425Y40262D02*
X47511Y42348D01*
X46150Y40987D02*
X52205Y34932D01*
X45598Y34826D02*
X46174Y35402D01*
X47326D01*
X45790Y40628D02*
X51667Y34752D01*
X45431Y40269D02*
X50948Y34752D01*
X45598Y34822D02*
X46178Y35402D01*
X40499Y34752D02*
X48096Y42348D01*
X42096Y40011D02*
X46706Y35402D01*
X44971Y42348D02*
X45946D01*
X41378Y40011D02*
X46081Y35308D01*
X43533Y40011D02*
X48793Y34752D01*
X44252Y40011D02*
X49511Y34752D01*
X42815Y40011D02*
X48075Y34752D01*
X44218Y44076D02*
X44794Y44652D01*
X44218Y43101D02*
Y44076D01*
X43982Y43874D02*
X44218Y43637D01*
X43982Y43263D02*
X44218Y43500D01*
X44879Y42257D02*
X45397Y41740D01*
X44520Y41898D02*
X45038Y41380D01*
X43982Y43155D02*
X44127Y43010D01*
X43982Y43982D02*
X44889Y44889D01*
X43982Y43982D02*
X44889Y44889D01*
X43982Y42924D02*
Y44076D01*
X43406Y42348D02*
X43982Y42924D01*
X43646Y41024D02*
X44971Y42348D01*
X43888Y41015D02*
X45222Y42348D01*
X42894Y41777D02*
X44218Y43101D01*
X44672Y40011D02*
X45174D01*
X44672D02*
X45174D01*
X44161Y41539D02*
X44679Y41021D01*
X43802Y41180D02*
X43967Y41015D01*
X45174Y40011D02*
X45425Y40262D01*
X45174Y40011D02*
X45425Y40262D01*
X44826Y35402D02*
X45402Y34826D01*
X35303Y40011D02*
X44672D01*
X43674Y35402D02*
X44826D01*
X43637Y41015D02*
X44672D01*
X39941Y40011D02*
X44551Y35402D01*
X39781Y34752D02*
X45040Y40011D01*
X40660D02*
X45722Y34949D01*
X39062Y34752D02*
X44322Y40011D01*
X44970D02*
X50230Y34752D01*
X45402Y33833D02*
X47091Y32144D01*
X46248Y33009D02*
X46499Y32758D01*
X45608Y31958D02*
X46454Y32804D01*
X45967Y31598D02*
X46813Y32445D01*
X46216Y31562D02*
X46798Y32144D01*
X45122Y33394D02*
X46585Y31931D01*
X42802Y20531D02*
X59971Y37700D01*
X42802Y16938D02*
X59971Y34108D01*
X42543Y21709D02*
X59971Y39137D01*
X42802Y21249D02*
X59971Y38419D01*
X42802Y16220D02*
X59971Y33390D01*
X42802Y15502D02*
X59971Y32671D01*
X30364Y35939D02*
X53836Y12466D01*
X45983Y30378D02*
X59971Y16389D01*
X45624Y30018D02*
X59971Y15671D01*
X46216Y30398D02*
X46798Y29816D01*
X42802Y19094D02*
X53971Y30263D01*
X43250Y13795D02*
X59971Y30516D01*
X43276Y30211D02*
X59971Y13515D01*
X42891Y14154D02*
X59971Y31235D01*
X42802Y14783D02*
X59971Y31953D01*
X42802Y19812D02*
X53836Y30847D01*
X41466Y22787D02*
X48917Y30238D01*
X40388Y23864D02*
X46569Y30045D01*
X40924Y30408D02*
X59971Y11360D01*
X40569Y30044D02*
X59971Y10642D01*
X38222Y30236D02*
X54356Y14102D01*
X45402Y34551D02*
X45598Y34354D01*
X45402Y33907D02*
X45598Y34104D01*
X45402Y33674D02*
Y34826D01*
Y34625D02*
X45598Y34822D01*
Y33674D02*
X46174Y33098D01*
X45075Y32144D02*
X46102Y33171D01*
X45598Y33674D02*
Y34826D01*
X44826Y33098D02*
X45402Y33674D01*
X44357Y32144D02*
X45743Y33530D01*
X43674Y33098D02*
X44826D01*
X43980D02*
X44935Y32144D01*
X42612Y33748D02*
X44238Y32123D01*
X43260Y31765D02*
X44593Y33098D01*
X41894Y33748D02*
X43878Y31764D01*
X46248Y33009D02*
Y33098D01*
Y33009D02*
Y33098D01*
X46004Y30917D02*
X46216Y31130D01*
X46004Y31075D02*
X46216Y30862D01*
Y30398D02*
Y31562D01*
X45422Y29816D02*
X46004Y30398D01*
Y31562D01*
X44699Y33098D02*
X46226Y31571D01*
X45422Y32144D02*
X46004Y31562D01*
X43676D02*
X44258Y32144D01*
X45422D01*
X43676Y31463D02*
X44357Y32144D01*
X40029Y24224D02*
X46216Y30411D01*
X43676Y30398D02*
X44258Y29816D01*
X55165D02*
X59971Y25010D01*
X54447Y29816D02*
X59971Y24292D01*
X55733Y29967D02*
X59971Y25729D01*
X54418Y29816D02*
X55582D01*
X51012Y13654D02*
X59971Y22614D01*
X51084Y13007D02*
X59971Y21895D01*
X50678Y29993D02*
X59971Y20700D01*
X50652Y14013D02*
X59971Y23332D01*
X47971Y29826D02*
X59971Y17826D01*
X49366Y14164D02*
X59971Y24769D01*
X50136Y29816D02*
X59971Y19981D01*
X49418Y29816D02*
X59971Y19263D01*
X48305Y13821D02*
X59971Y25487D01*
X50522Y11727D02*
X59971Y21177D01*
X50085Y14164D02*
X59971Y24050D01*
X56066Y13679D02*
X59971Y17585D01*
X56164Y13058D02*
X59971Y16866D01*
X55707Y14038D02*
X59971Y18303D01*
X56164Y12418D02*
Y13582D01*
X55602Y11856D02*
X56164Y12418D01*
X55602Y11319D02*
Y11856D01*
Y11319D02*
Y11856D01*
X55114Y14164D02*
X59971Y19021D01*
X55582Y14164D02*
X56164Y13582D01*
X53836D02*
X54418Y14164D01*
X55582D01*
X55602Y11778D02*
X59971Y16148D01*
X55301Y11018D02*
X55602Y11319D01*
X55301Y11018D02*
X55602Y11319D01*
X49338Y14164D02*
X50502D01*
X51084Y13582D01*
X49338Y29816D02*
X50502D01*
X48756Y12418D02*
Y13582D01*
X53836Y12418D02*
Y13582D01*
X51084Y13064D02*
X53312Y10835D01*
X51084Y12418D02*
Y13582D01*
X48756D02*
X49338Y14164D01*
X48756Y13554D02*
X49366Y14164D01*
X47962D02*
X48544Y13582D01*
Y13341D02*
X48756Y13554D01*
X48544Y13448D02*
X48756Y13236D01*
X48544Y12623D02*
X48756Y12835D01*
X48544Y12418D02*
Y13582D01*
X53836Y12466D02*
X54390Y11912D01*
X53836Y12418D02*
X54366Y11889D01*
X50522Y11856D02*
X51084Y12418D01*
X50522Y11319D02*
Y11856D01*
X51047Y12382D02*
X52953Y10476D01*
X50688Y12023D02*
X52594Y10116D01*
X50522Y11319D02*
Y11856D01*
X48756Y12418D02*
X49286Y11889D01*
X48340Y12215D02*
X48976Y11579D01*
X48544Y12730D02*
X48756Y12517D01*
X47962Y11836D02*
X48544Y12418D01*
X50221Y11018D02*
X50522Y11319D01*
X50221Y11018D02*
X50522Y11319D01*
X47981Y11856D02*
X48617Y11220D01*
X55742Y11997D02*
X59971Y7768D01*
X55602Y11419D02*
X59971Y7050D01*
X56164Y13013D02*
X59971Y9205D01*
X56102Y12356D02*
X59971Y8486D01*
X54933Y10651D02*
X59971Y5613D01*
X54574Y10292D02*
X59971Y4894D01*
X55292Y11010D02*
X59971Y6331D01*
X48982Y3721D02*
X59971Y14711D01*
X47944Y529D02*
X59971Y12556D01*
X48982Y4439D02*
X59971Y15429D01*
X54215Y9932D02*
X59959Y4188D01*
X49381Y529D02*
X59971Y11119D01*
X50100Y529D02*
X59971Y10400D01*
X48663Y529D02*
X59971Y11837D01*
X54410Y529D02*
X59971Y6090D01*
X56613Y576D02*
X59924Y3887D01*
X53856Y9573D02*
X59861Y3568D01*
X57637Y882D02*
X59618Y2863D01*
X55847Y529D02*
X59971Y4653D01*
X55129Y529D02*
X59971Y5371D01*
X50818Y529D02*
X59971Y9682D01*
X51537Y529D02*
X59971Y8963D01*
X53496Y9214D02*
X59687Y3024D01*
X53137Y8855D02*
X59453Y2539D01*
X52973Y529D02*
X59971Y7527D01*
X53692Y529D02*
X59971Y6808D01*
X52255Y529D02*
X59971Y8245D01*
X50522Y11470D02*
X52235Y9757D01*
X50238Y11036D02*
X51876Y9398D01*
X49879Y10676D02*
X51516Y9039D01*
X49520Y10317D02*
X51157Y8680D01*
X52778Y8496D02*
X59168Y2105D01*
X52419Y8136D02*
X58836Y1720D01*
X52060Y7777D02*
X58457Y1380D01*
X49160Y9958D02*
X50798Y8320D01*
X48801Y9599D02*
X50439Y7961D01*
X48442Y9240D02*
X50080Y7602D01*
X48083Y8880D02*
X49720Y7243D01*
X48079Y5602D02*
X54366Y11889D01*
X48982Y4699D02*
X55301Y11018D01*
X47988Y5602D02*
X54321Y11934D01*
X51700Y7418D02*
X58031Y1087D01*
X51341Y7059D02*
X57555Y845D01*
X50982Y6700D02*
X57020Y662D01*
X50623Y6340D02*
X56413Y550D01*
X50264Y5981D02*
X55716Y529D01*
X49904Y5622D02*
X54998Y529D01*
X49545Y5263D02*
X54279Y529D01*
X48708Y3226D02*
X51406Y529D01*
X48349Y2867D02*
X50687Y529D01*
X48982Y3499D02*
Y4699D01*
X48281Y2798D02*
X48982Y3499D01*
X49186Y4904D02*
X53561Y529D01*
X48982Y4389D02*
X52842Y529D01*
X48982Y3671D02*
X52124Y529D01*
X42802Y17657D02*
X54961Y29816D01*
X47262D02*
X59971Y17107D01*
X42802Y18375D02*
X54330Y29904D01*
X46798Y29816D02*
X47962D01*
X42917Y29851D02*
X59971Y12797D01*
X44389Y29816D02*
X59971Y14234D01*
X45107Y29816D02*
X59971Y14952D01*
X37862Y29877D02*
X53997Y13742D01*
X39360Y29816D02*
X55013Y14164D01*
X41825Y22428D02*
X49276Y29879D01*
X42184Y22068D02*
X49932Y29816D01*
X42234D02*
X59971Y12079D01*
X40078Y29816D02*
X59971Y9923D01*
X37205Y29816D02*
X53836Y13185D01*
X45957Y13628D02*
X59971Y27642D01*
X47929Y14164D02*
X59971Y26206D01*
X47211Y14164D02*
X59971Y26924D01*
X46798Y14164D02*
X47962D01*
X46798Y11836D02*
X47962D01*
X47282D02*
X48258Y10860D01*
X45993Y12407D02*
X47899Y10501D01*
X44337Y14164D02*
X59971Y29798D01*
X45056Y14164D02*
X59971Y29079D01*
X42802Y21346D02*
X49984Y14164D01*
X42802Y19190D02*
X47828Y14164D01*
X45598Y13987D02*
X59971Y28361D01*
X42802Y20627D02*
X49302Y14127D01*
X42802Y19909D02*
X48943Y13768D01*
X44258Y29816D02*
X45422D01*
X44258Y14164D02*
X45422D01*
X42802Y16317D02*
X44955Y14164D01*
X42802Y15598D02*
X44247Y14153D01*
X43676Y13582D02*
X44258Y14164D01*
X43676Y13503D02*
X44337Y14164D01*
X42802Y14880D02*
X43888Y13793D01*
X40747Y23505D02*
X47059Y29816D01*
X41106Y23146D02*
X47777Y29816D01*
X39310Y24942D02*
X44222Y29853D01*
X39670Y24583D02*
X44903Y29816D01*
X42802Y18472D02*
X47110Y14164D01*
X42802Y17754D02*
X46595Y13960D01*
X42802Y17035D02*
X46236Y13601D01*
X46216Y13582D02*
X46798Y14164D01*
X46004Y13115D02*
X46216Y12902D01*
X46004Y12418D02*
Y13582D01*
Y12956D02*
X46216Y13169D01*
Y12418D02*
X46798Y11836D01*
X45633Y12048D02*
X47540Y10142D01*
X46216Y12418D02*
Y13582D01*
X45422Y14164D02*
X46004Y13582D01*
X45422Y11836D02*
X46004Y12418D01*
X43676D02*
X44258Y11836D01*
X45422D01*
X44408D02*
X46821Y9424D01*
X45127Y11836D02*
X47180Y9783D01*
X43286Y12240D02*
X46462Y9064D01*
X47270Y5602D02*
X53962Y12293D01*
X43902Y4699D02*
X50221Y11018D01*
X47724Y8521D02*
X49361Y6884D01*
X47364Y8162D02*
X49002Y6524D01*
X46508Y529D02*
X59971Y13992D01*
X47226Y529D02*
X59971Y13274D01*
X43902Y3670D02*
X59971Y19740D01*
X43902Y4388D02*
X59971Y20458D01*
X42999Y5602D02*
X49286Y11889D01*
X42241Y5602D02*
X48907Y12268D01*
X42959Y5602D02*
X49266Y11908D01*
X41479Y529D02*
X53836Y12886D01*
X36450Y529D02*
X47757Y11836D01*
X35731Y529D02*
X47039Y11836D01*
X47005Y7803D02*
X48643Y6165D01*
X46646Y7444D02*
X48284Y5806D01*
X46287Y7084D02*
X47769Y5602D01*
X46879D02*
X48079D01*
X46981Y2798D02*
X49250Y529D01*
X47699Y2798D02*
X49969Y529D01*
X46879Y2798D02*
X48281D01*
X43902Y4440D02*
X47813Y529D01*
X43902Y3722D02*
X47095Y529D01*
X45928Y6725D02*
X47051Y5602D01*
X46178Y3601D02*
X46981Y2798D01*
X44131Y4929D02*
X48532Y529D01*
X45789D02*
X48059Y2798D01*
X45071Y529D02*
X47341Y2798D01*
X42927Y11881D02*
X46103Y8705D01*
X42253Y11836D02*
X45744Y8346D01*
X40924Y12447D02*
X45384Y7987D01*
X40579Y12074D02*
X45025Y7628D01*
X45568Y6366D02*
X46606Y5328D01*
X45209Y6007D02*
X46247Y4969D01*
X44850Y5647D02*
X46178Y4319D01*
X39379Y11836D02*
X44307Y6909D01*
X40098Y11836D02*
X44666Y7268D01*
X38231Y12266D02*
X43947Y6550D01*
X36481Y4152D02*
X44212Y11883D01*
X34294Y529D02*
X46216Y12451D01*
X35013Y529D02*
X46559Y12075D01*
X33576Y529D02*
X44884Y11836D01*
X46178Y4901D02*
X46879Y5602D01*
X46178Y3499D02*
Y4901D01*
X44491Y5288D02*
X46178Y3601D01*
X43902Y3499D02*
Y4699D01*
X46178Y3499D02*
X46879Y2798D01*
X44352Y529D02*
X46751Y2927D01*
X43654Y3251D02*
X46377Y529D01*
X42197D02*
X46178Y4510D01*
X42670Y2798D02*
X44940Y529D01*
X43201Y2798D02*
X43902Y3499D01*
X41952Y2798D02*
X44221Y529D01*
X42915D02*
X46178Y3792D01*
X43634Y529D02*
X46391Y3286D01*
X43295Y2892D02*
X45658Y529D01*
X41678Y42924D02*
Y44076D01*
Y42924D02*
X42254Y42348D01*
X41442Y43597D02*
X41678Y43834D01*
X41442Y43540D02*
X41678Y43303D01*
X42633Y42348D02*
X43049Y41932D01*
X42495Y41777D02*
X43067Y42348D01*
X41777Y41777D02*
X42348Y42348D01*
X41777Y41777D02*
X42348Y42348D01*
X40812Y44888D02*
X41678Y44022D01*
X40340Y41777D02*
X41678Y43115D01*
X41442Y42924D02*
Y44076D01*
X40866Y42348D02*
X41442Y42924D01*
X41390Y42873D02*
X42486Y41777D01*
X41058D02*
X41942Y42661D01*
X41031Y42514D02*
X41768Y41777D01*
X39223Y40011D02*
X43833Y35402D01*
X43098Y34826D02*
X43674Y35402D01*
X42254Y42348D02*
X43406D01*
X43352D02*
X43409Y42291D01*
X43098Y33674D02*
X43674Y33098D01*
X42201Y32144D02*
X43415Y33357D01*
X40046Y32144D02*
X41651Y33748D01*
X38504Y40011D02*
X43394Y35122D01*
X38660Y35068D02*
X43604Y40011D01*
X37557Y35402D02*
X42167Y40011D01*
X38275Y35402D02*
X42885Y40011D01*
X38902Y34752D02*
X43098D01*
X38902Y33748D02*
X43098D01*
X37786Y40011D02*
X43046Y34752D01*
X39138Y44076D02*
X39714Y44652D01*
X40866D02*
X41442Y44076D01*
X38902Y43212D02*
X39138Y43449D01*
X38902Y43206D02*
X39138Y42969D01*
X39759Y42348D01*
X39138Y42924D02*
X39714Y42348D01*
X39138Y42924D02*
Y44076D01*
X38902Y43931D02*
X39859Y44888D01*
X38902Y43925D02*
X39138Y43688D01*
X38326Y44652D02*
X38902Y44076D01*
Y42924D02*
Y44076D01*
X38184Y41777D02*
X39235Y42827D01*
X38683Y42706D02*
X39613Y41777D01*
X38326Y42348D02*
X38902Y42924D01*
X39759Y42348D02*
X40331Y41777D01*
X39714Y42348D02*
X40866D01*
X38903Y41777D02*
X39594Y42468D01*
X39621Y41777D02*
X40193Y42348D01*
X40478D02*
X41050Y41777D01*
X38326Y33098D02*
X38902Y33674D01*
X38326Y35402D02*
X38902Y34826D01*
X37174Y42348D02*
X38326D01*
X38323D02*
X38894Y41777D01*
X37466D02*
X38038Y42348D01*
X37604D02*
X38176Y41777D01*
X37174Y33098D02*
X38326D01*
X38233D02*
X39188Y32144D01*
X37174Y35402D02*
X38326D01*
X42901Y32125D02*
X43875Y33098D01*
X42882Y32144D02*
X43464Y31562D01*
X41175Y33748D02*
X42780Y32144D01*
X41718D02*
X42882D01*
X43464Y30398D02*
Y31562D01*
X43676Y30398D02*
Y31562D01*
X41136Y30398D02*
Y31562D01*
X40457Y33748D02*
X42062Y32144D01*
X40553Y31932D02*
X42369Y33748D01*
X39328Y32144D02*
X40933Y33748D01*
X39738D02*
X41531Y31956D01*
X40912Y31573D02*
X43088Y33748D01*
X41136Y31562D02*
X41718Y32144D01*
X39020Y33748D02*
X41171Y31597D01*
X43464Y30532D02*
X43676Y30745D01*
X43464Y30742D02*
X43676Y30529D01*
X43464Y31250D02*
X43676Y31463D01*
X43464Y31460D02*
X43676Y31247D01*
X42882Y29816D02*
X43464Y30398D01*
X41718Y29816D02*
X42882D01*
X41136Y30398D02*
X41718Y29816D01*
X37514Y26738D02*
X41155Y30379D01*
X37874Y26379D02*
X41515Y30020D01*
X40924Y31126D02*
X41136Y30914D01*
X40924Y30866D02*
X41136Y31079D01*
X38951Y25301D02*
X43862Y30212D01*
X38592Y25660D02*
X42748Y29816D01*
X38233Y26020D02*
X42030Y29816D01*
X39178Y32144D02*
X40342D01*
X40924Y31562D01*
X38639Y33411D02*
X39906Y32144D01*
X38596Y31562D02*
X39178Y32144D01*
X38596Y30398D02*
Y31562D01*
X40924Y30398D02*
Y31562D01*
X38384Y31511D02*
X38596Y31298D01*
X37846Y32099D02*
X39496Y33748D01*
X38206Y31740D02*
X40214Y33748D01*
X37173Y32144D02*
X38127Y33098D01*
X37515D02*
X38824Y31789D01*
X37751Y32144D02*
X38384Y31511D01*
Y30398D02*
Y31562D01*
X37802Y32144D02*
X38384Y31562D01*
X38596Y30398D02*
X39178Y29816D01*
X40342D01*
X38384Y30793D02*
X38596Y30580D01*
X38384Y30481D02*
X38596Y30694D01*
X40342Y29816D02*
X40924Y30398D01*
X38928Y22404D02*
X39636Y23112D01*
X38568Y22763D02*
X39276Y23471D01*
X38384Y31199D02*
X38596Y31412D01*
X37155Y27097D02*
X39874Y29816D01*
X37719D02*
X38384Y30481D01*
X37802Y29816D02*
X38384Y30398D01*
X37850Y23481D02*
X38558Y24190D01*
X38209Y23122D02*
X38917Y23830D01*
X37491Y23841D02*
X38199Y24549D01*
X36598Y44076D02*
X37174Y44652D01*
X36598Y42924D02*
X37174Y42348D01*
X36598Y42924D02*
Y44076D01*
X35688Y42154D02*
X36598Y43064D01*
X36748Y41777D02*
X37319Y42348D01*
X36065Y41777D02*
X42894D01*
X36047Y41794D02*
X36888Y42635D01*
X34969Y42872D02*
X37080Y44983D01*
X34538Y44697D02*
X37458Y41777D01*
X34610Y43231D02*
X36721Y45342D01*
X34538Y43978D02*
X36739Y41777D01*
X30364Y43842D02*
X39454Y34752D01*
X30364Y41686D02*
X36911Y35139D01*
X30364Y40968D02*
X36598Y34733D01*
X36349Y40011D02*
X41609Y34752D01*
X37067Y40011D02*
X42327Y34752D01*
X35631Y40011D02*
X40890Y34752D01*
X36598Y34826D02*
X37174Y35402D01*
X36598Y33674D02*
X37174Y33098D01*
X36638Y32144D02*
X37802D01*
X36598Y33674D02*
Y34826D01*
X31408Y32845D02*
X38575Y40011D01*
X34912D02*
X40172Y34752D01*
X30689Y33563D02*
X37138Y40011D01*
X31049Y33204D02*
X37856Y40011D01*
X32126Y32126D02*
X40011Y40011D01*
X32126Y32126D02*
X40011Y40011D01*
X31767Y32485D02*
X39293Y40011D01*
X34538Y43877D02*
X36598Y45938D01*
X34538Y45415D02*
X36598Y43354D01*
X34538Y43304D02*
Y65154D01*
Y46133D02*
X36598Y44073D01*
X35329Y42513D02*
X36598Y43783D01*
X34538Y43304D02*
X36065Y41777D01*
X33534Y42802D02*
Y43304D01*
Y65154D01*
X33395Y43452D02*
X33534Y43592D01*
X32391Y42923D02*
Y63249D01*
X33395Y43684D02*
X33534Y43544D01*
Y42802D02*
Y43304D01*
X33395Y42966D02*
X33534Y42826D01*
X33395Y42923D02*
Y63249D01*
X33785Y42551D02*
X35312Y41024D01*
X34550Y40262D02*
X34801Y40011D01*
X33534Y42802D02*
X33785Y42551D01*
X33534Y42802D02*
X33785Y42551D01*
X34801Y40011D02*
X35303D01*
X34801D02*
X35303D01*
X34550Y40262D02*
X34801Y40011D01*
X32391Y42421D02*
X32642Y42170D01*
X32391Y42421D02*
X32642Y42170D01*
X32391Y42421D02*
Y42923D01*
Y42421D02*
Y42923D01*
X33395D02*
X35303Y41015D01*
X32642Y42170D02*
X34550Y40262D01*
X30364Y35858D02*
Y37022D01*
X36056Y31562D02*
X36638Y32144D01*
X36056Y30398D02*
X36638Y29816D01*
X36056Y30398D02*
Y31562D01*
X34641Y29612D02*
X36056Y31027D01*
X36437Y27816D02*
X38808Y30187D01*
X35359Y28893D02*
X36460Y29994D01*
X35000Y29253D02*
X36101Y30354D01*
X32485Y31767D02*
X40730Y40011D01*
X32845Y31408D02*
X41448Y40011D01*
X30364Y36657D02*
X36056Y30965D01*
X33204Y31049D02*
X36598Y34443D01*
X33922Y30330D02*
X36932Y33340D01*
X34281Y29971D02*
X37409Y33098D01*
X33563Y30689D02*
X36598Y33725D01*
X36796Y27456D02*
X39167Y29828D01*
X36638Y29816D02*
X37802D01*
X36078Y28175D02*
X37719Y29816D01*
X36054Y25278D02*
X36762Y25986D01*
X36772Y24559D02*
X37480Y25267D01*
X37131Y24200D02*
X37840Y24908D01*
X36413Y24918D02*
X37121Y25626D01*
X35718Y28534D02*
X37001Y29816D01*
X35695Y25637D02*
X36403Y26345D01*
X35335Y25996D02*
X36044Y26704D01*
X34147Y21215D02*
X36379Y23448D01*
X30681Y28437D02*
X39258Y19860D01*
X30568Y27832D02*
X39258Y19142D01*
X30465Y29362D02*
X39258Y20568D01*
X32103Y29229D02*
X32811Y29937D01*
X32462Y28870D02*
X33170Y29578D01*
X31384Y29947D02*
X32092Y30655D01*
X31743Y29588D02*
X32451Y30296D01*
X33180Y28151D02*
X33888Y28859D01*
X33539Y27792D02*
X34247Y28500D01*
X32821Y28510D02*
X33529Y29219D01*
X30666Y30666D02*
X31374Y31374D01*
X31025Y30306D02*
X31733Y31015D01*
X30666Y30666D02*
X31374Y31374D01*
X30567Y29130D02*
X30632Y29195D01*
X30681Y28526D02*
X30991Y28836D01*
X30457Y27583D02*
X31350Y28476D01*
X34617Y26714D02*
X35325Y27422D01*
X34976Y26355D02*
X35684Y27063D01*
X33899Y27433D02*
X34607Y28141D01*
X34258Y27074D02*
X34966Y27782D01*
X33429Y21934D02*
X35661Y24166D01*
X33788Y21575D02*
X36020Y23807D01*
X33069Y22293D02*
X35301Y24525D01*
X31273Y24089D02*
X33505Y26321D01*
X31633Y23730D02*
X33865Y25962D01*
X30555Y24808D02*
X32787Y27040D01*
X30914Y24448D02*
X33146Y26680D01*
X32351Y23011D02*
X34583Y25244D01*
X32710Y22652D02*
X34942Y24884D01*
X31992Y23371D02*
X34224Y25603D01*
X42802Y20949D02*
Y21451D01*
Y20949D02*
Y21451D01*
X42551Y21702D02*
X42802Y21451D01*
X42551Y21702D02*
X42802Y21451D01*
X41798Y14164D02*
Y20949D01*
X42802Y14164D02*
Y20949D01*
X40262Y17272D02*
X41798Y18809D01*
X40262Y18138D02*
X41798Y16602D01*
X40262Y20294D02*
X41798Y18757D01*
X40262Y18709D02*
X41798Y20246D01*
X40262Y21012D02*
X41798Y19475D01*
X40262Y19427D02*
X41791Y20957D01*
X40262Y17991D02*
X41798Y19527D01*
X40262Y18857D02*
X41798Y17320D01*
X40262Y19575D02*
X41798Y18038D01*
X40543Y13962D02*
X41798Y15217D01*
X42802Y14164D02*
X42882D01*
X40262Y15265D02*
X41540Y13986D01*
X41718Y14164D02*
X41798D01*
X40903Y13603D02*
X41798Y14498D01*
X42882Y14164D02*
X43464Y13582D01*
X41136D02*
X41718Y14164D01*
X40262Y15835D02*
X41798Y17372D01*
X40262Y16702D02*
X41798Y15165D01*
X40262Y16554D02*
X41798Y18090D01*
X40262Y17420D02*
X41798Y15883D01*
X40262Y15983D02*
X41798Y14446D01*
X40262Y14398D02*
X41798Y15935D01*
X40262Y15117D02*
X41798Y16654D01*
X40262Y20864D02*
X41072Y21675D01*
X40262Y20568D02*
Y21070D01*
X40011Y21321D02*
X40262Y21070D01*
X40011Y21321D02*
X40262Y21070D01*
Y20146D02*
X41432Y21316D01*
X40262Y14164D02*
Y20568D01*
Y21070D01*
X39646Y21685D02*
X40354Y22394D01*
X40005Y21326D02*
X40713Y22034D01*
X39287Y22045D02*
X39995Y22753D01*
X35581Y19776D02*
X37816Y22011D01*
X39258Y14164D02*
Y20568D01*
X35581Y14747D02*
X39258Y18424D01*
X35581Y19058D02*
X38175Y21651D01*
X38196Y13770D02*
X39258Y14832D01*
X40262Y14164D02*
X40342D01*
X37837Y14129D02*
X39258Y15550D01*
X39178Y14164D02*
X39258D01*
X40262Y14546D02*
X41181Y13627D01*
X40342Y14164D02*
X40924Y13582D01*
X38596D02*
X39178Y14164D01*
X35581Y17790D02*
X39207Y14164D01*
X37153D02*
X39258Y16269D01*
X35581Y16353D02*
X37771Y14164D01*
X36638D02*
X37802D01*
X35581Y17071D02*
X38834Y13819D01*
X37802Y14164D02*
X38384Y13582D01*
X36056D02*
X36638Y14164D01*
X43464Y12571D02*
X43676Y12784D01*
X43464Y12781D02*
X43676Y12568D01*
X43464Y13290D02*
X43676Y13503D01*
X43464Y13500D02*
X43676Y13287D01*
Y12418D02*
Y13582D01*
X42882Y11836D02*
X43464Y12418D01*
Y13582D01*
X41136Y12418D02*
Y13582D01*
Y12418D02*
X41718Y11836D01*
X40924Y13166D02*
X41136Y12953D01*
X40924Y12905D02*
X41136Y13118D01*
X36481Y4871D02*
X43853Y12242D01*
X37872Y11907D02*
X43588Y6191D01*
X35828Y5654D02*
X42010Y11836D01*
X41718D02*
X42882D01*
X41799Y5602D02*
X42999D01*
X41098Y4901D02*
X41799Y5602D01*
X41098Y3499D02*
X41799Y2798D01*
X40760Y529D02*
X43030Y2798D01*
X41799D02*
X43201D01*
X40042Y529D02*
X42312Y2798D01*
X36187Y5295D02*
X42729Y11836D01*
X37224D02*
X43229Y5831D01*
X35581Y10605D02*
X41192Y4995D01*
X35581Y9887D02*
X41098Y4370D01*
X38605Y529D02*
X41337Y3261D01*
X39323Y529D02*
X41696Y2901D01*
X37168Y529D02*
X41098Y4459D01*
X38596Y12418D02*
Y13582D01*
X38384Y12520D02*
X38596Y12733D01*
X38384Y13239D02*
X38596Y13452D01*
X38384Y12832D02*
X38596Y12619D01*
X40924Y12418D02*
Y13582D01*
X40342Y11836D02*
X40924Y12418D01*
X38596D02*
X39178Y11836D01*
X35581Y13310D02*
X39258Y16987D01*
X38384Y13551D02*
X38596Y13338D01*
X37771Y14164D02*
X38384Y13551D01*
X36056Y12418D02*
Y13582D01*
X38384Y12418D02*
Y13582D01*
X37802Y11836D02*
X38384Y12418D01*
X36056D02*
X36638Y11836D01*
X39178D02*
X40342D01*
X41098Y3499D02*
Y4901D01*
X36638Y11836D02*
X37802D01*
X36481Y3599D02*
Y5001D01*
Y4676D02*
X40629Y529D01*
X37887D02*
X41098Y3740D01*
X36481Y3958D02*
X39911Y529D01*
X35581Y9169D02*
X41098Y3652D01*
X35781Y5702D02*
X36481Y5001D01*
X35581Y11874D02*
X36091Y12383D01*
X35581Y5702D02*
X35781D01*
X36302Y3420D02*
X39192Y529D01*
X35942Y3060D02*
X38474Y529D01*
X35781Y2899D02*
X36481Y3599D01*
X35581Y16902D02*
X39253Y20574D01*
X35581Y16184D02*
X39258Y19861D01*
X35581Y19279D02*
Y19781D01*
Y19279D02*
Y19781D01*
Y15466D02*
X39258Y19143D01*
X35581Y18508D02*
X39258Y14831D01*
X35581Y19226D02*
X39258Y15549D01*
X34865Y20497D02*
X37098Y22729D01*
X35225Y20138D02*
X37457Y22370D01*
X34506Y20856D02*
X36738Y23088D01*
X35331Y20032D02*
X35581Y19781D01*
Y18339D02*
X38534Y21292D01*
X35581Y17621D02*
X38894Y20933D01*
X35331Y20032D02*
X35581Y19781D01*
Y14916D02*
X36486Y14011D01*
X35581Y14197D02*
X36127Y13652D01*
X35581Y13479D02*
X36056Y13004D01*
X35581Y12592D02*
X36056Y13067D01*
X35581Y10437D02*
X36981Y11836D01*
X35581Y9718D02*
X37700Y11836D01*
X35581Y11155D02*
X36450Y12024D01*
X35581Y14029D02*
X39258Y17706D01*
X35581Y15634D02*
X37052Y14164D01*
X34411Y11776D02*
X34578Y11609D01*
X34411Y11058D02*
X34578Y10890D01*
X34411Y10339D02*
X34578Y10172D01*
X34411Y9984D02*
X34578Y10152D01*
X34411Y10703D02*
X34578Y10870D01*
X33889Y16647D02*
X34578Y17336D01*
X34248Y16288D02*
X34578Y16618D01*
X33171Y17366D02*
X34578Y18773D01*
X33530Y17006D02*
X34578Y18055D01*
X34160Y16377D02*
X34411Y16126D01*
Y15624D02*
Y16126D01*
X34160Y16377D02*
X34411Y16126D01*
X31375Y19162D02*
X33035Y20822D01*
X31734Y18802D02*
X33395Y20463D01*
X30656Y19880D02*
X32317Y21541D01*
X31016Y19521D02*
X32676Y21181D01*
X32452Y18084D02*
X34113Y19745D01*
X32812Y17725D02*
X34472Y19385D01*
X32093Y18443D02*
X33754Y20104D01*
X34411Y13213D02*
X34578Y13045D01*
X34411Y12858D02*
X34578Y13026D01*
X34411Y13931D02*
X34578Y13764D01*
X34411Y13576D02*
X34578Y13744D01*
X34411Y12140D02*
X34578Y12307D01*
X34411Y11421D02*
X34578Y11589D01*
X34411Y12495D02*
X34578Y12327D01*
X34411Y15732D02*
X34578Y15899D01*
X34411Y15368D02*
X34578Y15201D01*
X34411Y15624D02*
Y16126D01*
Y16087D02*
X34578Y15919D01*
X34411Y14650D02*
X34578Y14482D01*
X34411Y14295D02*
X34578Y14462D01*
X34411Y15013D02*
X34578Y15181D01*
X35581Y6126D02*
X41505Y12050D01*
X35581Y7563D02*
X39855Y11836D01*
X35581Y9000D02*
X38798Y12217D01*
X35581Y8281D02*
X39157Y11857D01*
X35581Y12042D02*
X42022Y5602D01*
X35581Y8450D02*
X43503Y529D01*
X35581Y11324D02*
X41551Y5354D01*
X34411Y8903D02*
X34578Y8735D01*
X34411Y8547D02*
X34578Y8715D01*
X34411Y9621D02*
X34578Y9453D01*
X34411Y9266D02*
X34578Y9434D01*
X35581Y12761D02*
X42740Y5602D01*
X35581Y6845D02*
X41146Y12409D01*
X35581Y5702D02*
Y19279D01*
X34667Y2899D02*
X37037Y529D01*
X35386Y2899D02*
X37756Y529D01*
X34379Y5702D02*
X34578D01*
X34379Y2899D02*
X35781D01*
X35581Y7732D02*
X42785Y529D01*
X35581Y7013D02*
X42066Y529D01*
X35581Y6295D02*
X41348Y529D01*
X31401Y4101D02*
X34578Y7278D01*
X31401Y4727D02*
X35600Y529D01*
X31401Y4820D02*
X34578Y7997D01*
X34164Y7712D02*
X34578Y7298D01*
X31650Y5198D02*
X36319Y529D01*
X32858D02*
X35228Y2899D01*
X31401Y4009D02*
X34882Y529D01*
X34411Y7959D02*
Y8460D01*
Y8184D02*
X34578Y8016D01*
X34411Y8460D02*
Y15624D01*
Y7959D02*
Y8460D01*
X34578Y5702D02*
Y19279D01*
X34160Y7708D02*
X34411Y7959D01*
X34160Y7708D02*
X34411Y7959D01*
X33805Y7353D02*
X34578Y6580D01*
X33446Y6994D02*
X34578Y5861D01*
X33407Y8460D02*
Y15624D01*
X30649Y5702D02*
X33407Y8460D01*
X31401Y4949D02*
X34160Y7708D01*
X33087Y6635D02*
X34199Y5522D01*
X32727Y6275D02*
X33840Y5163D01*
X34439Y5702D02*
X34578Y5841D01*
X33678Y4941D02*
X34439Y5702D01*
X32368Y5916D02*
X33678Y4606D01*
Y5001D02*
X34379Y5702D01*
X33678Y3599D02*
X34379Y2899D01*
X32139Y529D02*
X34509Y2899D01*
X33678Y3599D02*
Y5001D01*
X32009Y5557D02*
X33678Y3888D01*
X30702Y529D02*
X33726Y3552D01*
X31401Y3599D02*
Y4949D01*
X30701Y2899D02*
X31401Y3599D01*
X31247Y3445D02*
X34163Y529D01*
X31421D02*
X34085Y3193D01*
X30888Y3086D02*
X33445Y529D01*
X30279Y72666D02*
X45585Y87971D01*
X30364Y72032D02*
X46303Y87971D01*
X30101Y76798D02*
X41274Y87971D01*
X29920Y73025D02*
X44866Y87971D01*
X30087Y70318D02*
X47740Y87971D01*
X30057D02*
X48648Y69380D01*
X30206Y74172D02*
X34417Y69962D01*
X29821Y73839D02*
X33699Y69962D01*
X29159Y77293D02*
X39837Y87971D01*
X29686Y77102D02*
X40556Y87971D01*
X28450Y77303D02*
X39119Y87971D01*
X26465D02*
X45348Y69089D01*
X29674Y70624D02*
X47021Y87971D01*
X29340Y73164D02*
X44148Y87971D01*
X30364Y69962D02*
X37096D01*
X30364Y68958D02*
X37096D01*
X30364Y72578D02*
X32980Y69962D01*
X30364Y71860D02*
X32262Y69962D01*
X30364Y67422D02*
X32270D01*
X30364Y66418D02*
X32270D01*
X30364Y67422D02*
Y67502D01*
X30225Y71280D02*
X31544Y69962D01*
X29895Y67971D02*
X30882Y68958D01*
X29782Y70836D02*
X30364Y71418D01*
X29866Y70921D02*
X30825Y69962D01*
X30254Y67612D02*
X31601Y68958D01*
X30058Y68573D02*
X31210Y67422D01*
X29617Y68296D02*
X30491Y67422D01*
X29782Y73164D02*
X30364Y72582D01*
X29778Y73164D02*
X30364Y72578D01*
X29332Y73610D02*
X29778Y73164D01*
X28693Y73530D02*
X29060Y73164D01*
X30364Y71418D02*
Y72582D01*
X29232Y70836D02*
X29445Y70624D01*
X28955D02*
X29168Y70836D01*
X28621Y73164D02*
X28999Y73541D01*
X28618Y73164D02*
X29782D01*
X28036Y72582D02*
X28618Y73164D01*
X28036Y72579D02*
X28621Y73164D01*
X28036Y71418D02*
X28618Y70836D01*
X29782D01*
X28036Y71418D02*
Y72582D01*
X30364Y68878D02*
Y68958D01*
X29782Y68296D02*
X30364Y68878D01*
X29782Y70624D02*
X30364Y70042D01*
Y69962D02*
Y70042D01*
X29289Y68084D02*
X29502Y68296D01*
X29782Y68084D02*
X30364Y67502D01*
X28898Y68296D02*
X29111Y68084D01*
X28618Y70624D02*
X29782D01*
X28036Y68878D02*
X28618Y68296D01*
X28036Y70042D02*
X28618Y70624D01*
X28036Y68878D02*
Y70042D01*
X28618Y68296D02*
X29782D01*
X28618Y68084D02*
X29782D01*
X28036Y67502D02*
X28618Y68084D01*
X30364Y64882D02*
X31762D01*
X30364Y63878D02*
X31762D01*
X30061Y65264D02*
X31216Y66418D01*
X30251Y66225D02*
X31595Y64882D01*
X30228Y62557D02*
X31549Y63878D01*
X30364Y61974D02*
X32015Y63626D01*
X30364Y63798D02*
Y63878D01*
X29339Y87971D02*
X59971Y57339D01*
X29892Y65866D02*
X30876Y64882D01*
X29623Y65544D02*
X30497Y66418D01*
X29869Y62916D02*
X30831Y63878D01*
X27902Y87971D02*
X59971Y55902D01*
X27184Y87971D02*
X59971Y55184D01*
X28621Y87971D02*
X59971Y56621D01*
X30276Y61171D02*
X32391Y59056D01*
X30364Y59100D02*
X32391Y61128D01*
X30364Y59819D02*
X32391Y61847D01*
X30364Y61802D02*
X32391Y59774D01*
X30364Y56945D02*
X32391Y58973D01*
X30364Y58928D02*
X32391Y56901D01*
X30203Y57503D02*
X32391Y59691D01*
X29668Y63216D02*
X32391Y60493D01*
X30036Y60210D02*
X32391Y62565D01*
X30084Y63519D02*
X32391Y61211D01*
X29571Y60464D02*
X32374Y63266D01*
X29917Y60812D02*
X32391Y58337D01*
X29843Y57862D02*
X32391Y60410D01*
X29782Y60464D02*
X30364Y59882D01*
X29782Y65756D02*
X30364Y66338D01*
X29782Y65544D02*
X30364Y64962D01*
X28904Y65544D02*
X29117Y65756D01*
X29283D02*
X29496Y65544D01*
X30364Y64882D02*
Y64962D01*
X29782Y63216D02*
X30364Y63798D01*
X28949Y63216D02*
X29162Y63004D01*
X28618Y65756D02*
X29782D01*
X28618Y65544D02*
X29782D01*
X28036Y66338D02*
Y67502D01*
Y66338D02*
X28618Y65756D01*
X28036Y64962D02*
X28618Y65544D01*
X28036Y63798D02*
X28618Y63216D01*
X28036Y63798D02*
Y64962D01*
X29782Y63004D02*
X30364Y62422D01*
X29782Y60676D02*
X30364Y61258D01*
X29238Y63004D02*
X29451Y63216D01*
X28618Y60676D02*
X29782D01*
X29334D02*
X29547Y60464D01*
X28618D02*
X29782D01*
X28853D02*
X29066Y60676D01*
X28618Y63216D02*
X29782D01*
X28618Y63004D02*
X29782D01*
X28036Y62422D02*
X28618Y63004D01*
X28036Y61258D02*
Y62422D01*
Y61258D02*
X28618Y60676D01*
X28036Y59882D02*
X28618Y60464D01*
X28036Y58718D02*
Y59882D01*
X17844Y87971D02*
X28504Y77312D01*
X18563Y87971D02*
X29266Y77269D01*
X12815Y87971D02*
X28121Y72666D01*
X13534Y87971D02*
X28480Y73025D01*
X10660Y87971D02*
X28313Y70318D01*
X11379Y87971D02*
X28726Y70624D01*
X9942Y87971D02*
X28036Y69877D01*
X9223Y87971D02*
X28036Y69158D01*
X8505Y87971D02*
X28505Y67971D01*
X6350Y87971D02*
X28777Y65544D01*
X7068Y87971D02*
X28036Y67003D01*
X7786Y87971D02*
X28146Y67612D01*
X4964Y64593D02*
X28342Y87971D01*
X4964Y63874D02*
X29061Y87971D01*
X5631D02*
X28339Y65264D01*
X25029Y87971D02*
X43911Y69089D01*
X25747Y87971D02*
X44629Y69089D01*
X23592Y87971D02*
X43040Y68523D01*
X24310Y87971D02*
X43399Y68883D01*
X22873Y87971D02*
X42711Y68134D01*
X22557Y68890D02*
X28531Y62916D01*
X22360Y62592D02*
X28342Y68573D01*
X21436Y87971D02*
X42711Y66697D01*
X4500Y87971D02*
X56000D01*
X19281D02*
X37291Y69962D01*
X22155Y87971D02*
X42711Y67415D01*
X20000Y87971D02*
X43461Y64510D01*
X20718Y87971D02*
X44180Y64510D01*
X4597Y62789D02*
X29779Y87971D01*
X16407D02*
X27522Y76856D01*
X17126Y87971D02*
X27954Y77143D01*
X14971Y87971D02*
X26960Y75982D01*
X15689Y87971D02*
X27189Y76471D01*
X4964Y66748D02*
X26187Y87971D01*
X14252D02*
X26880Y75343D01*
X4964Y67466D02*
X25469Y87971D01*
X4964Y69622D02*
X23313Y87971D01*
X4964Y68903D02*
X24032Y87971D01*
X4455Y70550D02*
X21877Y87971D01*
X4815Y70191D02*
X22595Y87971D01*
X4430Y65496D02*
X26906Y87971D01*
X4789Y65136D02*
X27624Y87971D01*
X4622Y67843D02*
X24750Y87971D01*
X22586Y70002D02*
X27108Y74524D01*
X22752Y69449D02*
X27412Y74109D01*
X22077Y70212D02*
X26917Y75051D01*
X22376Y70212D02*
X22752Y69836D01*
Y69414D02*
X28036Y64129D01*
X22376Y68708D02*
X22752Y69084D01*
Y69836D01*
X12097Y87971D02*
X28036Y72032D01*
X21624Y68708D02*
X22376D01*
X4205Y87960D02*
X21954Y70212D01*
X21624D02*
X22376D01*
X4913Y87971D02*
X28036Y64848D01*
X21642Y62592D02*
X28036Y68986D01*
X21624Y62592D02*
X22376D01*
X7357Y59802D02*
X35527Y87971D01*
X8075Y59802D02*
X36245Y87971D01*
X5920Y59802D02*
X34090Y87971D01*
X6638Y59802D02*
X34808Y87971D01*
X9512Y59802D02*
X37682Y87971D01*
X10071Y59642D02*
X38400Y87971D01*
X8794Y59802D02*
X36963Y87971D01*
X4964Y61719D02*
X31216Y87971D01*
X4404Y60441D02*
X31935Y87971D01*
X4956Y62430D02*
X30498Y87971D01*
X2116Y87176D02*
X28828Y60464D01*
X4763Y60082D02*
X32653Y87971D01*
X5202Y59802D02*
X33371Y87971D01*
X1729Y86845D02*
X28364Y60209D01*
X22727Y62240D02*
X28783Y68296D01*
X22777Y57262D02*
X28732Y63216D01*
X22020Y68708D02*
X28172Y62557D01*
X22059Y57262D02*
X28316Y63519D01*
X24214Y57262D02*
X28124Y61171D01*
X24933Y57262D02*
X28483Y60812D01*
X16502Y53141D02*
X28036Y64676D01*
X851Y85567D02*
X28556Y57862D01*
X12226Y57487D02*
X28323Y73584D01*
X666Y85034D02*
X28197Y57503D01*
X13304Y56409D02*
X28175Y71280D01*
X13663Y56050D02*
X28534Y70921D01*
X16178Y53536D02*
X28508Y65866D01*
X15819Y53895D02*
X28149Y66225D01*
X10430Y59283D02*
X26907Y75760D01*
X11867Y57846D02*
X27813Y73792D01*
X6073Y76035D02*
X24846Y57262D01*
X6161Y75229D02*
X24128Y57262D01*
X12945Y56769D02*
X28036Y71860D01*
X14022Y55691D02*
X28036Y69705D01*
X12586Y57128D02*
X28036Y72579D01*
X1388Y86467D02*
X28036Y59819D01*
X1094Y86043D02*
X28036Y59100D01*
X2550Y87460D02*
X28036Y61974D01*
X552Y84430D02*
X27720Y57262D01*
X6009Y74662D02*
X23409Y57262D01*
X5735Y74218D02*
X22691Y57262D01*
X5361Y73873D02*
X21973Y57262D01*
X22752Y61546D02*
X28036Y66831D01*
X22752Y61511D02*
X27001Y57262D01*
X22752Y61464D02*
Y62216D01*
X22416Y61129D02*
X26283Y57262D01*
X25651D02*
X28036Y59647D01*
X26369Y57262D02*
X28036Y58929D01*
X23496Y57262D02*
X28036Y61802D01*
X22376Y62592D02*
X22752Y62216D01*
X22376Y61088D02*
X22752Y61464D01*
X11508Y58205D02*
X22011Y68708D01*
X21624Y61088D02*
X22376D01*
X16502Y52423D02*
X28036Y63957D01*
X21738Y61088D02*
X25565Y57262D01*
X15459Y54254D02*
X22294Y61088D01*
X30110Y58464D02*
X32391Y56182D01*
X30364Y56227D02*
X32391Y58255D01*
X30364Y56178D02*
Y57342D01*
X29782Y55596D02*
X30364Y56178D01*
X30302Y56116D02*
X32391Y54027D01*
X29943Y55757D02*
X32391Y53309D01*
X30010Y55155D02*
X32391Y57536D01*
X30364Y54790D02*
X32391Y56818D01*
X29782Y58136D02*
X30364Y58718D01*
X29782Y57924D02*
X30364Y57342D01*
X28618Y58136D02*
X29782D01*
X28618Y57924D02*
X29782D01*
X29719Y58136D02*
X32391Y55464D01*
X29733Y55596D02*
X30364Y56227D01*
X29520Y55384D02*
X29733Y55596D01*
X30364Y51916D02*
X32391Y53944D01*
X30364Y53899D02*
X32391Y51872D01*
X29818Y52807D02*
X32391Y55381D01*
X30177Y52448D02*
X32391Y54662D01*
X30135Y53410D02*
X32391Y51153D01*
X30364Y51198D02*
X32391Y53226D01*
X30364Y51098D02*
Y52262D01*
X29782Y55384D02*
X30364Y54802D01*
X28618Y53056D02*
X29782D01*
X28618Y55596D02*
X29782D01*
X28618Y55384D02*
X29782D01*
Y53056D02*
X30364Y53638D01*
X29782Y52844D02*
X30364Y52262D01*
X28618Y52844D02*
X29782D01*
X29000Y58136D02*
X29213Y57924D01*
X29187D02*
X29400Y58136D01*
X28036Y56178D02*
Y56258D01*
Y56227D02*
X28667Y55596D01*
X28879Y55384D01*
X28802D02*
X29015Y55596D01*
X28036Y56178D02*
X28618Y55596D01*
X27806Y57262D02*
X28681Y58136D01*
X28036Y57342D02*
X28618Y57924D01*
X28036Y58718D02*
X28618Y58136D01*
X27088Y57262D02*
X28290Y58464D01*
X27286Y56258D02*
X28390Y55155D01*
X27422Y54722D02*
X28457Y55757D01*
X28036Y57262D02*
Y57342D01*
X29385Y55596D02*
X29598Y55384D01*
X29136Y52844D02*
X29348Y53056D01*
X28036Y53638D02*
X28618Y53056D01*
X29051D02*
X29264Y52844D01*
X28036Y52262D02*
X28618Y52844D01*
X28036Y51098D02*
Y51178D01*
Y52182D02*
Y52262D01*
Y54802D02*
X28618Y55384D01*
X27671Y53718D02*
X28582Y52807D01*
X28036Y54722D02*
Y54802D01*
Y53638D02*
Y53718D01*
X27037Y52182D02*
X28265Y53410D01*
X27755Y52182D02*
X28630Y53056D01*
X26953Y53718D02*
X28223Y52448D01*
X30364Y51744D02*
X32391Y49716D01*
X30364Y49043D02*
X32391Y51070D01*
X29985Y50101D02*
X32391Y52507D01*
X30344Y49741D02*
X32391Y51789D01*
X30327Y51062D02*
X32391Y48998D01*
X29968Y50703D02*
X32391Y48280D01*
X30364Y48558D02*
Y49722D01*
X29770Y53056D02*
X32391Y50435D01*
X29782Y50516D02*
X30364Y51098D01*
X29682Y50516D02*
X30364Y51198D01*
X28618Y50516D02*
X29782D01*
X29792Y47753D02*
X32391Y50352D01*
X29782Y50304D02*
X30364Y49722D01*
X28618Y50304D02*
X29782D01*
X30364Y46887D02*
X32391Y48915D01*
X30364Y48871D02*
X32391Y46843D01*
X30152Y47394D02*
X32391Y49634D01*
X30364Y49589D02*
X32391Y47561D01*
X30161Y48355D02*
X32391Y46124D01*
X30364Y46169D02*
X32391Y48197D01*
X30364Y46018D02*
Y47182D01*
X29782Y47976D02*
X30364Y48558D01*
X29782Y47764D02*
X30364Y47182D01*
X28618Y47976D02*
X29782D01*
X28618Y47764D02*
X29782D01*
X29801Y47996D02*
X32391Y45406D01*
X29782Y45436D02*
X30364Y46018D01*
X28618Y45436D02*
X29782D01*
X28751Y50304D02*
X28964Y50516D01*
X29436D02*
X29649Y50304D01*
X28036Y51098D02*
X28618Y50516D01*
X28718D02*
X28931Y50304D01*
X29469D02*
X29682Y50516D01*
X28036Y49722D02*
X28618Y50304D01*
X28036Y49642D02*
Y49722D01*
X27337Y51178D02*
X28415Y50101D01*
X27371Y49642D02*
X28432Y50703D01*
X27172Y49642D02*
X27674D01*
X27172D02*
X27674D01*
X26921Y49391D02*
X27172Y49642D01*
X27674D02*
X28036D01*
X26921Y49391D02*
X27172Y49642D01*
X29085Y47764D02*
X29297Y47976D01*
X29102D02*
X29315Y47764D01*
X28036Y48558D02*
Y48638D01*
Y48558D02*
X28618Y47976D01*
X28036Y47182D02*
X28618Y47764D01*
X28036Y46018D02*
X28618Y45436D01*
X28036Y46018D02*
Y47182D01*
X27722Y48638D02*
X28608Y47753D01*
X27339Y48303D02*
X28248Y47394D01*
X26918Y47752D02*
X27804Y48638D01*
X27674D02*
X28036D01*
X26918Y47288D02*
X28036Y46169D01*
X26918Y45597D02*
X28036Y46715D01*
X26979Y47944D02*
X28036Y46887D01*
X25266Y54722D02*
X26803Y56258D01*
X26568D02*
X28036Y54790D01*
X24548Y54722D02*
X26085Y56258D01*
X25131D02*
X26668Y54722D01*
X25985D02*
X27522Y56258D01*
X26703Y54722D02*
X28098Y56117D01*
X25849Y56258D02*
X27386Y54722D01*
X21959Y57262D02*
X28036D01*
X21959Y56258D02*
X28036D01*
X23694D02*
X25231Y54722D01*
X23829D02*
X25366Y56258D01*
X24413D02*
X25949Y54722D01*
X23991D02*
X28036D01*
X22727Y51463D02*
X24982Y53718D01*
X26234D02*
X27771Y52182D01*
X26318D02*
X27855Y53718D01*
X26029Y52182D02*
X26531D01*
X26029D02*
X26531D01*
X28036D01*
X26531Y51178D02*
X28036D01*
X25778Y51931D02*
X26029Y52182D01*
X25516Y53718D02*
X27053Y52182D01*
X23991Y53718D02*
X28036D01*
X24079D02*
X25822Y51975D01*
X24797Y53718D02*
X26334Y52182D01*
X23676Y53403D02*
X25463Y51616D01*
X25778Y51931D02*
X26029Y52182D01*
X23316Y53044D02*
X25104Y51256D01*
X22257Y56258D02*
X23794Y54722D01*
X22976Y56258D02*
X24513Y54722D01*
X21457Y57262D02*
X21959D01*
X21457D02*
X21959D01*
X21749Y56048D02*
X23282Y54515D01*
X23238Y54471D02*
X23489Y54722D01*
X21390Y55689D02*
X22923Y54156D01*
X20568Y53615D02*
X23211Y56258D01*
X21030Y55330D02*
X22564Y53796D01*
X20568Y54867D02*
X21959Y56258D01*
X20568Y54333D02*
X22493Y56258D01*
X20568Y52897D02*
X23929Y56258D01*
X20568Y52178D02*
X24648Y56258D01*
X20671Y54971D02*
X22205Y53437D01*
X23489Y54722D02*
X23991D01*
X23489D02*
X23991D01*
X23238Y54471D02*
X23489Y54722D01*
X21974Y53207D02*
X23238Y54471D01*
X22727Y52454D02*
X23991Y53718D01*
X22727Y52182D02*
X24263Y53718D01*
X21723Y52454D02*
Y52956D01*
X21974Y53207D01*
X21723Y52956D02*
X21974Y53207D01*
X20568Y54356D02*
X21846Y53078D01*
X21723Y52454D02*
Y52956D01*
X20568Y51460D02*
X21723Y52616D01*
X20568Y52201D02*
X21723Y51045D01*
X20568Y52919D02*
X21723Y51763D01*
X26619Y51178D02*
X28056Y49741D01*
X26216Y50863D02*
X27437Y49642D01*
X25856Y50504D02*
X26946Y49415D01*
X25497Y50145D02*
X26586Y49056D01*
X24378Y47367D02*
X28073Y51062D01*
X25138Y49786D02*
X26227Y48696D01*
X24779Y49426D02*
X25914Y48291D01*
X22727Y50027D02*
X26418Y53718D01*
X22727Y49308D02*
X27137Y53718D01*
X22727Y50745D02*
X25700Y53718D01*
X23625Y49778D02*
X25778Y51931D01*
X24378Y48804D02*
X26752Y51178D01*
X24378Y48085D02*
X27471Y51178D01*
X24378Y49025D02*
X26531Y51178D01*
X26165Y48635D02*
X26921Y49391D01*
X25914Y48384D02*
X26165Y48635D01*
X25914Y47882D02*
Y48384D01*
Y47882D02*
Y48384D01*
X26918Y47033D02*
X28239Y48355D01*
X26918Y46315D02*
X28599Y47996D01*
X26918Y47882D02*
X27674Y48638D01*
X25914Y48384D02*
X26165Y48635D01*
X24378Y46649D02*
X25914Y48185D01*
X24420Y49067D02*
X25914Y47572D01*
X24378Y48391D02*
X25914Y46854D01*
X24378Y45930D02*
X25914Y47467D01*
X24378Y46954D02*
X25914Y45417D01*
X24378Y47672D02*
X25914Y46136D01*
X22957Y52685D02*
X24745Y50897D01*
X23374Y49527D02*
X23625Y49778D01*
X22727Y50042D02*
X23374Y49394D01*
Y49527D02*
X23625Y49778D01*
X23374Y49025D02*
Y49527D01*
X22727Y49323D02*
X23374Y48676D01*
Y49025D02*
Y49527D01*
X22727Y52197D02*
X24386Y50538D01*
X22727Y51479D02*
X24026Y50179D01*
X20568Y51482D02*
X21723Y50327D01*
X22727Y50760D02*
X23667Y49820D01*
X20568Y48586D02*
X21723Y49742D01*
X20568Y49327D02*
X21723Y48171D01*
X20568Y50764D02*
X21723Y49608D01*
X22727Y47153D02*
X23374Y47801D01*
X22727Y47168D02*
X23374Y46520D01*
X22727Y47871D02*
X23374Y48519D01*
X22727Y47886D02*
X23374Y47239D01*
X22727Y46450D02*
X23374Y45802D01*
X22727Y45716D02*
X23374Y46364D01*
X22727Y46435D02*
X23374Y47082D01*
X22727Y48590D02*
X23374Y49238D01*
X22727Y48605D02*
X23374Y47957D01*
X20568Y47868D02*
X21723Y49023D01*
X20568Y48609D02*
X21723Y47453D01*
X20568Y46431D02*
X21723Y47587D01*
X20568Y45712D02*
X21723Y46868D01*
X20568Y47149D02*
X21723Y48305D01*
X5938Y76343D02*
X17566Y87971D01*
X6132Y75818D02*
X18285Y87971D01*
X5230Y77072D02*
X16129Y87971D01*
X5633Y76756D02*
X16848Y87971D01*
X21248Y69836D02*
X21624Y70212D01*
X21248Y69084D02*
X21624Y68708D01*
X6145Y75114D02*
X19003Y87971D01*
X21248Y69084D02*
Y69836D01*
X4648Y72898D02*
X19721Y87971D01*
X4964Y72495D02*
X20440Y87971D01*
X4038Y77317D02*
X14692Y87971D01*
X4718Y77278D02*
X15411Y87971D01*
X4964Y71777D02*
X21158Y87971D01*
X3583Y87864D02*
X21430Y70017D01*
X4382Y68296D02*
X4964Y68878D01*
X4382Y63004D02*
X4964Y62422D01*
X21248Y62216D02*
X21624Y62592D01*
X4964Y66338D02*
Y67502D01*
Y63798D02*
Y64962D01*
X21248Y62198D02*
X21642Y62592D01*
X21248Y61464D02*
X21624Y61088D01*
X21248Y61464D02*
Y62216D01*
X4382Y65544D02*
X4964Y64962D01*
X4351Y65544D02*
X4964Y64931D01*
X4382Y68084D02*
X4964Y67502D01*
X4382Y65756D02*
X4964Y66338D01*
X4382Y63216D02*
X4964Y63798D01*
X4189Y60676D02*
X5064Y59802D01*
X4306Y63216D02*
X4964Y63874D01*
X4382Y70836D02*
X4964Y71418D01*
X4382Y70624D02*
X4964Y70042D01*
X4382Y73164D02*
X4964Y72582D01*
Y71418D02*
Y72582D01*
Y68878D02*
Y70042D01*
X4357Y68296D02*
X4964Y68903D01*
X4300Y70624D02*
X4964Y69960D01*
X4195Y73164D02*
X4586Y73555D01*
X3218Y70624D02*
X4382D01*
X3260Y73819D02*
X3915Y73164D01*
X3477D02*
X3882Y73568D01*
X3810Y70624D02*
X4023Y70836D01*
X4087D02*
X4300Y70624D01*
X3369Y70836D02*
X3582Y70624D01*
X4144Y68084D02*
X4357Y68296D01*
X4138Y65756D02*
X4351Y65544D01*
X3805Y63216D02*
X4017Y63004D01*
X4093D02*
X4306Y63216D01*
X4382Y60676D02*
X4964Y61258D01*
X4382Y60464D02*
X4964Y59882D01*
Y61258D02*
Y62422D01*
X3754Y68296D02*
X3966Y68084D01*
X3759Y65544D02*
X3972Y65756D01*
X3426Y68084D02*
X3638Y68296D01*
X3420Y65756D02*
X3633Y65544D01*
X3471Y60676D02*
X3684Y60464D01*
X3708D02*
X3921Y60676D01*
X3375Y63004D02*
X3587Y63216D01*
X10790Y58924D02*
X21248Y69383D01*
X11149Y58565D02*
X21458Y68874D01*
X4964Y72115D02*
X20637Y56442D01*
X4964Y69960D02*
X19564Y55359D01*
X4964Y67086D02*
X19564Y52486D01*
X4964Y66368D02*
X19564Y51767D01*
X4964Y69242D02*
X19564Y54641D01*
X4885Y73631D02*
X21356Y57160D01*
X4269Y73528D02*
X20996Y56801D01*
X4953Y71408D02*
X20278Y56082D01*
X4594Y71048D02*
X19919Y55723D01*
X4427Y68341D02*
X19564Y53204D01*
X4619Y65994D02*
X19564Y51049D01*
X4786Y68701D02*
X19564Y53922D01*
X14382Y55332D02*
X21248Y62198D01*
X14741Y54972D02*
X21248Y61480D01*
X9912Y59802D02*
X10163Y59551D01*
X9912Y59802D02*
X10163Y59551D01*
X15100Y54613D02*
X21600Y61113D01*
X10163Y59551D02*
X16251Y53463D01*
X9410Y58798D02*
X15498Y52710D01*
X9410Y59802D02*
X9912D01*
X9127Y57262D02*
X10037Y58171D01*
X9410Y59802D02*
X9912D01*
X8409Y57262D02*
X9678Y58531D01*
X4964Y64931D02*
X19564Y50330D01*
X8223Y58798D02*
X15498Y51523D01*
X8941Y58798D02*
X15498Y52241D01*
X4964Y61339D02*
X6501Y59802D01*
X4964D02*
X9410D01*
X4964D02*
Y59882D01*
Y58718D02*
Y58798D01*
X5535Y57262D02*
X7072Y58798D01*
X6067D02*
X7604Y57262D01*
X5349Y58798D02*
X6886Y57262D01*
X4964Y64213D02*
X9375Y59802D01*
X4812Y63646D02*
X8656Y59802D01*
X4452Y63287D02*
X7938Y59802D01*
X4645Y60939D02*
X5783Y59802D01*
X4964Y62057D02*
X7219Y59802D01*
X4930Y57375D02*
X6354Y58798D01*
X4571Y57734D02*
X5635Y58798D01*
X6786D02*
X8323Y57262D01*
X4964Y58798D02*
X9410D01*
X6254Y57262D02*
X7790Y58798D01*
X4837Y58592D02*
X6167Y57262D01*
X7504Y58798D02*
X9041Y57262D01*
X7691D02*
X9227Y58798D01*
X6972Y57262D02*
X8509Y58798D01*
X4382Y58136D02*
X4964Y58718D01*
X3218Y58136D02*
X4382D01*
X3324Y57924D02*
X3536Y58136D01*
X3856D02*
X4068Y57924D01*
X4478Y58233D02*
X5449Y57262D01*
X4382Y57924D02*
X4964Y57342D01*
X4042Y57924D02*
X4255Y58136D01*
X529Y78118D02*
X10382Y87971D01*
X529Y77400D02*
X11100Y87971D01*
X529Y79555D02*
X8945Y87971D01*
X529Y78837D02*
X9663Y87971D01*
X529Y75963D02*
X12537Y87971D01*
X529Y75244D02*
X13256Y87971D01*
X529Y76681D02*
X11819Y87971D01*
X529Y83147D02*
X5353Y87971D01*
X529Y82429D02*
X6071Y87971D01*
X529Y83865D02*
X4635Y87971D01*
X529Y80992D02*
X7508Y87971D01*
X529Y80273D02*
X8227Y87971D01*
X529Y81710D02*
X6790Y87971D01*
X3218Y70836D02*
X4382D01*
X580Y84635D02*
X3865Y87920D01*
X3218Y73164D02*
X4382D01*
X3037Y87692D02*
X21248Y69480D01*
X3218Y68084D02*
X4382D01*
X3218Y68296D02*
X4382D01*
X529Y74526D02*
X13974Y87971D01*
X529Y81579D02*
X4875Y77233D01*
X529Y80861D02*
X4069Y77321D01*
X529Y80142D02*
X3502Y77169D01*
X529Y70934D02*
X3357Y73762D01*
X529Y68060D02*
X3305Y70836D01*
X529Y70803D02*
X3248Y68084D01*
X897Y85671D02*
X2829Y87603D01*
X529Y75113D02*
X2848Y72794D01*
X529Y73089D02*
X2422Y74982D01*
X529Y72371D02*
X2628Y74470D01*
X529Y71652D02*
X2944Y74067D01*
X529Y73677D02*
X2636Y71569D01*
X529Y74395D02*
X2636Y72287D01*
X529Y79424D02*
X3058Y76895D01*
X529Y78706D02*
X2713Y76521D01*
X529Y77987D02*
X2471Y76045D01*
X529Y77269D02*
X2368Y75429D01*
X529Y76550D02*
X2659Y74420D01*
X529Y75832D02*
X3208Y73153D01*
X529Y73808D02*
X2383Y75662D01*
X2636Y71418D02*
X3218Y70836D01*
X2636Y70042D02*
X3218Y70624D01*
X2636Y72582D02*
X3218Y73164D01*
X2636Y71418D02*
Y72582D01*
Y68878D02*
X3218Y68296D01*
X2636Y67502D02*
X3218Y68084D01*
X2636Y68878D02*
Y70042D01*
X529Y72958D02*
X3041Y70446D01*
X529Y72240D02*
X2681Y70087D01*
X529Y70215D02*
X2636Y72323D01*
X529Y69497D02*
X2636Y71605D01*
X529Y68779D02*
X2902Y71152D01*
X529Y70084D02*
X2874Y67739D01*
X529Y71521D02*
X2636Y69414D01*
X3218Y65756D02*
X4382D01*
X3218Y65544D02*
X4382D01*
X2636Y66338D02*
X3218Y65756D01*
X2636Y64962D02*
X3218Y65544D01*
X2636Y63798D02*
X3218Y63216D01*
X4382D01*
X529Y60876D02*
X3044Y63391D01*
X529Y65774D02*
X3299Y63004D01*
X529Y63031D02*
X3254Y65756D01*
X529Y65905D02*
X3069Y68445D01*
X529Y67929D02*
X3066Y65392D01*
X529Y83734D02*
X21671Y62592D01*
X529Y83016D02*
X21289Y62256D01*
X529Y82298D02*
X21248Y61578D01*
X3218Y60676D02*
X4382D01*
X3218Y60464D02*
X4382D01*
X3218Y63004D02*
X4382D01*
X2636Y59882D02*
X3218Y60464D01*
X2636Y57342D02*
X3218Y57924D01*
X4382D01*
X2636Y58718D02*
X3218Y58136D01*
X2636Y62422D02*
X3218Y63004D01*
X2636Y61258D02*
X3218Y60676D01*
X529Y62900D02*
X3092Y60337D01*
X529Y58002D02*
X3210Y60684D01*
X529Y60745D02*
X3350Y57924D01*
X529Y57871D02*
X3117Y55283D01*
X529Y55847D02*
X3018Y58337D01*
X529Y63750D02*
X2877Y66098D01*
X2636Y63798D02*
Y64962D01*
Y66338D02*
Y67502D01*
X529Y66492D02*
X2636Y64385D01*
X529Y65056D02*
X2899Y62685D01*
X529Y64337D02*
X2636Y62229D01*
X529Y62313D02*
X2636Y64421D01*
X529Y66623D02*
X2710Y68805D01*
X529Y68648D02*
X2636Y66540D01*
X529Y67342D02*
X2636Y69450D01*
X529Y69366D02*
X2636Y67258D01*
X529Y67211D02*
X2707Y65032D01*
X529Y64468D02*
X2636Y66576D01*
X529Y65187D02*
X2636Y67294D01*
X529Y60027D02*
X2925Y57630D01*
X529Y57284D02*
X2636Y59392D01*
Y61258D02*
Y62422D01*
Y58718D02*
Y59882D01*
X529Y56565D02*
X2659Y58696D01*
X529Y58590D02*
X2636Y56482D01*
X529Y59308D02*
X2636Y57200D01*
X529Y61594D02*
X2684Y63750D01*
X529Y62182D02*
X2733Y59978D01*
X529Y63619D02*
X2636Y61511D01*
X529Y60158D02*
X2636Y62265D01*
X529Y61463D02*
X2636Y59356D01*
X529Y58721D02*
X2851Y61043D01*
X529Y59439D02*
X2636Y61547D01*
X21206Y57011D02*
X21457Y57262D01*
X21206Y57011D02*
X21457Y57262D01*
X19815Y55620D02*
X21206Y57011D01*
X19564Y55369D02*
X19815Y55620D01*
X19564Y55369D02*
X19815Y55620D01*
X19564Y54867D02*
Y55369D01*
Y54867D02*
Y55369D01*
X12435Y54103D02*
X13270Y54939D01*
X11717Y54822D02*
X12552Y55657D01*
X12076Y54463D02*
X12911Y55298D01*
X10998Y55540D02*
X11833Y56375D01*
X11357Y55181D02*
X12192Y56016D01*
X9528Y57011D02*
X13251Y53288D01*
X8607Y56258D02*
X12498Y52367D01*
X8775Y56258D02*
X12498Y52535D01*
X16502Y52710D02*
Y53212D01*
Y52710D02*
Y53212D01*
X16251Y53463D02*
X16502Y53212D01*
X16251Y53463D02*
X16502Y53212D01*
Y51704D02*
X19564Y54767D01*
X20568Y53638D02*
X21723Y52482D01*
X13502Y52535D02*
Y53037D01*
X12794Y53744D02*
X13629Y54579D01*
X13153Y53385D02*
X13989Y54220D01*
X13251Y53288D02*
X13502Y53037D01*
X13251Y53288D02*
X13502Y53037D01*
Y53015D02*
X14348Y53861D01*
X13502Y52296D02*
X14707Y53502D01*
X13502Y52535D02*
Y53037D01*
X9561Y56977D02*
X10396Y57812D01*
X9921Y56618D02*
X10756Y57453D01*
X9277Y57262D02*
X9528Y57011D01*
X9277Y57262D02*
X9528Y57011D01*
X10280Y56259D02*
X11115Y57094D01*
X10639Y55899D02*
X11474Y56735D01*
X9411Y53953D02*
X10246Y54788D01*
X8775Y57262D02*
X9277D01*
X8775D02*
X9277D01*
X7306Y54722D02*
X8809Y56225D01*
X8024Y54722D02*
X9168Y55865D01*
X8692Y54671D02*
X9527Y55506D01*
X9051Y54312D02*
X9887Y55147D01*
X8140Y54722D02*
X8642D01*
X10129Y53234D02*
X10964Y54069D01*
X10488Y52875D02*
X11323Y53710D01*
X10284Y53080D02*
X10535Y52829D01*
X10284Y53080D02*
X10535Y52829D01*
Y52203D02*
X11683Y53351D01*
X10535Y52327D02*
Y52829D01*
Y52327D02*
Y52829D01*
X8642Y54722D02*
X8893Y54471D01*
X9770Y53594D02*
X10605Y54429D01*
X8140Y54722D02*
X8642D01*
X8893Y54471D01*
X10284Y53080D01*
X7555Y53718D02*
X9531Y51742D01*
X8140Y53718D02*
X9531Y52327D01*
X20568Y50023D02*
X21723Y51179D01*
X20568Y49304D02*
X21723Y50460D01*
X20568Y50741D02*
X21723Y51897D01*
X16502Y51238D02*
X19564Y48175D01*
X16502Y50519D02*
X19564Y47457D01*
X16502Y47394D02*
X19564Y50457D01*
X16502Y48112D02*
X19564Y51175D01*
X16502Y52675D02*
X19564Y49612D01*
X16502Y49549D02*
X19564Y52612D01*
X16502Y50986D02*
X19564Y54049D01*
X16502Y50267D02*
X19564Y53330D01*
X16502Y51956D02*
X19564Y48893D01*
X16502Y48831D02*
X19564Y51893D01*
X13502Y49423D02*
X15498Y51419D01*
X20568Y50045D02*
X21723Y48890D01*
X20568Y47890D02*
X21723Y46734D01*
X16502Y46675D02*
X19564Y49738D01*
X16502Y49083D02*
X19564Y46020D01*
X16502Y48364D02*
X19564Y45301D01*
X20568Y47172D02*
X21723Y46016D01*
X16502Y45957D02*
X19564Y49020D01*
X16502Y49801D02*
X19564Y46738D01*
X13502Y46549D02*
X15498Y48546D01*
X13502Y47267D02*
X15498Y49264D01*
X13502Y49209D02*
X15498Y47212D01*
X13502Y45831D02*
X15498Y47827D01*
X13502Y47772D02*
X15498Y45775D01*
X13502Y48490D02*
X15498Y46494D01*
X13502Y52801D02*
X15498Y50804D01*
X13502Y50141D02*
X15498Y52138D01*
X13502Y51578D02*
X15066Y53142D01*
X13502Y50860D02*
X15425Y52783D01*
X13502Y52083D02*
X15498Y50086D01*
X13502Y51364D02*
X15498Y49367D01*
X10535Y49329D02*
X12498Y51293D01*
X7889Y56258D02*
X12498Y51649D01*
X7170Y56258D02*
X12498Y50930D01*
X10535Y51485D02*
X12042Y52992D01*
X10535Y50766D02*
X12401Y52633D01*
X10535Y50048D02*
X12498Y52012D01*
X10535Y51457D02*
X12498Y49494D01*
X10535Y52176D02*
X12498Y50212D01*
X13502Y47986D02*
X15498Y49983D01*
X13502Y49927D02*
X15498Y47930D01*
X13502Y48704D02*
X15498Y50701D01*
X13502Y50646D02*
X15498Y48649D01*
X10535Y47865D02*
X12498Y45902D01*
X10535Y45737D02*
X12498Y47701D01*
X10535Y46456D02*
X12498Y48419D01*
X10535Y50021D02*
X12498Y48057D01*
X10535Y47893D02*
X12498Y49856D01*
X10535Y50739D02*
X12498Y48775D01*
X10535Y48611D02*
X12498Y50575D01*
X10535Y47174D02*
X12498Y49138D01*
X10535Y48584D02*
X12498Y46620D01*
X10535Y49302D02*
X12498Y47338D01*
X5734Y56258D02*
X7270Y54722D01*
X4964Y56258D02*
X8775D01*
X5015D02*
X6552Y54722D01*
X5151D02*
X6687Y56258D01*
X6452D02*
X7989Y54722D01*
X6587D02*
X8124Y56258D01*
X5869Y54722D02*
X7406Y56258D01*
X4964Y57262D02*
X8775D01*
X4382Y55596D02*
X4964Y56178D01*
Y57262D02*
Y57342D01*
Y56178D02*
Y56258D01*
X4738Y55027D02*
X5969Y56258D01*
X4670Y55885D02*
X5834Y54722D01*
X4376Y55384D02*
X5250Y56258D01*
X4964Y54722D02*
X8140D01*
X4964Y53718D02*
X8140D01*
X4964Y54722D02*
Y54802D01*
Y53638D02*
Y53718D01*
Y51661D02*
X7021Y53718D01*
X6837D02*
X9531Y51024D01*
X4964Y51098D02*
Y52262D01*
X4240Y55596D02*
X5115Y54722D01*
X4382Y53056D02*
X4964Y53638D01*
X4382Y55384D02*
X4964Y54802D01*
X3218Y53056D02*
X4382D01*
X4546Y52680D02*
X5584Y53718D01*
X4905Y52321D02*
X6303Y53718D01*
X4382Y52844D02*
X4964Y52262D01*
X3218Y55596D02*
X4382D01*
X3218Y55384D02*
X4382D01*
X2636Y56178D02*
Y57342D01*
Y56178D02*
X3218Y55596D01*
X3522D02*
X3735Y55384D01*
X3657D02*
X3870Y55596D01*
X2636Y54802D02*
X3218Y55384D01*
X529Y57153D02*
X2758Y54923D01*
X529Y56435D02*
X2636Y54327D01*
X529Y55129D02*
X2636Y57236D01*
X529Y54410D02*
X2636Y56518D01*
X529Y55716D02*
X3401Y52844D01*
X529Y52973D02*
X3185Y55630D01*
X529Y53692D02*
X2826Y55989D01*
X3991Y52844D02*
X4204Y53056D01*
X3218Y52844D02*
X4382D01*
X3273D02*
X3485Y53056D01*
X3907D02*
X4120Y52844D01*
X2636Y52262D02*
X3218Y52844D01*
X2636Y52207D02*
X3273Y52844D01*
X2636Y51098D02*
Y52262D01*
X529Y54998D02*
X2950Y52576D01*
X2636Y53638D02*
X3218Y53056D01*
X2636Y53638D02*
Y54802D01*
X529Y52255D02*
X2636Y54363D01*
X529Y51537D02*
X2636Y53644D01*
X529Y53561D02*
X2636Y51453D01*
X529Y54279D02*
X2636Y52171D01*
X6118Y53718D02*
X9531Y50305D01*
X5400Y53718D02*
X9531Y49587D01*
X4964Y49506D02*
X8658Y53200D01*
X4964Y48787D02*
X9017Y52841D01*
X4964Y51281D02*
X9531Y46713D01*
X4964Y46632D02*
X9531Y51200D01*
X4964Y52000D02*
X9531Y47432D01*
X4712Y49973D02*
X8299Y53560D01*
X4863Y53537D02*
X9531Y48869D01*
X4325Y50304D02*
X7739Y53718D01*
X4382Y50516D02*
X4964Y51098D01*
X4503Y53178D02*
X9531Y48150D01*
X4879Y47266D02*
X9531Y51918D01*
X4520Y47625D02*
X9377Y52482D01*
X4382Y47976D02*
X4964Y48558D01*
X4382Y47764D02*
X4964Y47182D01*
X4382Y50304D02*
X4964Y49722D01*
Y48558D02*
Y49722D01*
X4696Y50830D02*
X9531Y45995D01*
X4382Y45436D02*
X4964Y46018D01*
Y47182D01*
X3218Y47976D02*
X4382D01*
X3218Y47764D02*
X4382D01*
X3218Y50516D02*
X4382D01*
X3218Y50304D02*
X4382D01*
X3958Y47976D02*
X4171Y47764D01*
X3218Y45436D02*
X4382D01*
X3940Y47764D02*
X4153Y47976D01*
X3573Y50516D02*
X3786Y50304D01*
X3606D02*
X3819Y50516D01*
X2636Y51098D02*
X3218Y50516D01*
X2636Y49722D02*
X3218Y50304D01*
X529Y47944D02*
X3159Y50575D01*
X529Y49969D02*
X2976Y47521D01*
X529Y50687D02*
X2636Y48579D01*
X529Y50818D02*
X2993Y53282D01*
X529Y52842D02*
X3143Y50228D01*
X529Y50100D02*
X2636Y52207D01*
X529Y52124D02*
X2784Y49869D01*
X529Y51406D02*
X2636Y49298D01*
X529Y48663D02*
X2800Y50934D01*
X529Y49381D02*
X2636Y51489D01*
X3221Y47764D02*
X3434Y47976D01*
X3239D02*
X3452Y47764D01*
X2636Y48558D02*
X3218Y47976D01*
X2636Y47182D02*
X3218Y47764D01*
X2636Y47179D02*
X3221Y47764D01*
X2636Y46018D02*
X3218Y45436D01*
X2636Y46018D02*
Y47182D01*
X529Y49250D02*
X2636Y47143D01*
Y48579D02*
X3239Y47976D01*
X2636Y48558D02*
Y49722D01*
X529Y47226D02*
X2636Y49334D01*
X529Y48532D02*
X2636Y46424D01*
X529Y45789D02*
X2967Y48228D01*
X529Y46508D02*
X2636Y48615D01*
X30318Y44687D02*
X32391Y46760D01*
X30364Y46715D02*
X32391Y44687D01*
X29959Y45046D02*
X32391Y47478D01*
X29782Y45224D02*
X30364Y44642D01*
X30353Y46008D02*
X32391Y43969D01*
X29994Y45648D02*
X32391Y43251D01*
X30364Y44014D02*
X32391Y46041D01*
X30364Y43478D02*
Y44642D01*
X29418Y45224D02*
X29631Y45436D01*
X28618Y45224D02*
X29782D01*
X28700D02*
X28913Y45436D01*
X28769D02*
X28982Y45224D01*
X29752Y42684D02*
X32391Y45323D01*
X29700Y45224D02*
X30364Y44560D01*
X29487Y45436D02*
X29700Y45224D01*
X30126Y42339D02*
X32391Y44605D01*
X30364Y41858D02*
X32391Y43886D01*
X30364Y44560D02*
X32391Y42532D01*
X29782Y42684D02*
X30364Y42102D01*
Y41140D02*
X32391Y43168D01*
X29782Y40356D02*
X30364Y40938D01*
Y42102D01*
X29782Y42896D02*
X30364Y43478D01*
X28618Y42684D02*
X29782D01*
X29034D02*
X29246Y42896D01*
X28618D02*
X29782D01*
X26918Y37694D02*
X29580Y40356D01*
X28618D02*
X29782D01*
X29154Y42896D02*
X29366Y42684D01*
X28036Y44560D02*
X28700Y45224D01*
X28036Y43478D02*
X28618Y42896D01*
X28036Y44642D02*
X28618Y45224D01*
X28036Y43478D02*
Y44642D01*
X26918Y43695D02*
X28274Y42339D01*
X26918Y42004D02*
X28214Y43301D01*
X26918Y42723D02*
X28036Y43842D01*
X26918Y46569D02*
X28441Y45046D01*
X26918Y44160D02*
X28406Y45648D01*
X26918Y44878D02*
X28047Y46008D01*
X26918Y45851D02*
X28081Y44687D01*
X26918Y43441D02*
X28036Y44560D01*
X26918Y44414D02*
X28648Y42684D01*
X26918Y45132D02*
X28036Y44014D01*
Y42102D02*
X28618Y42684D01*
X28036Y40938D02*
X28618Y40356D01*
X28036Y40938D02*
Y42102D01*
X26918Y40568D02*
X28036Y41686D01*
X26918Y39131D02*
X28381Y40594D01*
X26918Y38412D02*
X28862Y40356D01*
X26918Y39849D02*
X28036Y40968D01*
X26918Y41286D02*
X28573Y42942D01*
X26918Y42259D02*
X28036Y41140D01*
X26918Y42977D02*
X28036Y41858D01*
X24378Y40488D02*
X25914Y38951D01*
X24378Y39770D02*
X25914Y38233D01*
X24378Y38028D02*
X25914Y39564D01*
X24378Y38746D02*
X25914Y40283D01*
X30364Y36829D02*
X34173Y40639D01*
X30364Y36111D02*
X34533Y40280D01*
X29701Y37604D02*
X33455Y41358D01*
X30101Y37285D02*
X33814Y40998D01*
X30186Y43301D02*
X38085Y35402D01*
X29827Y42941D02*
X37367Y35402D01*
X30019Y40594D02*
X36598Y34015D01*
X28983Y37604D02*
X33096Y41717D01*
X28820Y40356D02*
X37033Y32144D01*
X27097Y37155D02*
X32391Y42449D01*
X27456Y36796D02*
X32737Y42076D01*
X26918Y41540D02*
X36476Y31982D01*
X29538Y40356D02*
X37751Y32144D01*
X26918Y40822D02*
X36117Y31622D01*
X29612Y34641D02*
X34982Y40011D01*
X29971Y34281D02*
X35701Y40011D01*
X29782Y37604D02*
X30364Y37022D01*
X29782Y35276D02*
X30364Y35858D01*
X30045Y35539D02*
X54031Y11553D01*
X29589Y35276D02*
X53672Y11194D01*
X30330Y33922D02*
X36419Y40011D01*
X28618Y37604D02*
X29782D01*
X28976Y35276D02*
X29782D01*
X26918Y40103D02*
X29417Y37604D01*
X29253Y35000D02*
X29529Y35276D01*
X26165Y36582D02*
X41798Y20949D01*
X28976Y35276D02*
X42551Y21702D01*
X28870Y32462D02*
X29578Y33170D01*
X26918Y39385D02*
X28699Y37604D01*
X28036Y37022D02*
X28618Y37604D01*
X26918Y37335D02*
Y47882D01*
Y38667D02*
X28299Y37285D01*
X26918Y37335D02*
X28036Y36216D01*
Y37022D01*
X26918Y37948D02*
X28036Y36829D01*
X24378Y37309D02*
X25914Y38846D01*
Y36833D02*
Y37335D01*
Y47882D01*
X24378Y39051D02*
X25914Y37514D01*
X24559Y36772D02*
X25914Y38128D01*
X24918Y36413D02*
X25914Y37409D01*
Y36833D02*
Y37335D01*
X27816Y36437D02*
X28036Y36657D01*
X27433Y33899D02*
X28141Y34607D01*
X26714Y34617D02*
X27422Y35325D01*
X27074Y34258D02*
X27782Y34966D01*
X28151Y33180D02*
X28859Y33888D01*
X28510Y32821D02*
X29219Y33529D01*
X27792Y33539D02*
X28500Y34247D01*
X25914Y36833D02*
X26165Y36582D01*
X25637Y35695D02*
X26345Y36403D01*
X25914Y36833D02*
X26165Y36582D01*
X25278Y36054D02*
X25986Y36762D01*
X25996Y35335D02*
X26704Y36044D01*
X26355Y34976D02*
X27063Y35684D01*
X24448Y30914D02*
X26680Y33146D01*
X24378Y42338D02*
X25914Y43875D01*
X24378Y43362D02*
X25914Y41825D01*
X24378Y43057D02*
X25914Y44593D01*
X24378Y44080D02*
X25914Y42543D01*
X24378Y42643D02*
X25914Y41107D01*
X24378Y40901D02*
X25914Y42438D01*
X24378Y41620D02*
X25914Y43157D01*
X24378Y44493D02*
X25914Y46030D01*
X24378Y45517D02*
X25914Y43980D01*
X24378Y45212D02*
X25914Y46749D01*
X24378Y46235D02*
X25914Y44699D01*
X24378Y43775D02*
X25914Y45312D01*
X24378Y44799D02*
X25914Y43262D01*
X22727Y42842D02*
X23374Y43490D01*
X24378Y41207D02*
X25914Y39670D01*
X24378Y39464D02*
X25914Y41001D01*
X24378Y41925D02*
X25914Y40388D01*
X24378Y40183D02*
X25914Y41720D01*
X22727Y39265D02*
X23374Y38618D01*
X22727Y38532D02*
X23374Y39180D01*
X22727Y39250D02*
X23374Y39898D01*
X22727Y41421D02*
X23374Y40773D01*
X22727Y40687D02*
X23374Y41335D01*
X22727Y42139D02*
X23374Y41491D01*
X22727Y41406D02*
X23374Y42053D01*
X22727Y39969D02*
X23374Y40617D01*
X22727Y39984D02*
X23374Y39336D01*
X22727Y40702D02*
X23374Y40054D01*
X22727Y45013D02*
X23374Y44365D01*
X22727Y44279D02*
X23374Y44927D01*
X22727Y45731D02*
X23374Y45083D01*
X22727Y44998D02*
X23374Y45645D01*
X22727Y44294D02*
X23374Y43647D01*
X22727Y43561D02*
X23374Y44209D01*
X20568Y42839D02*
X21723Y43994D01*
X20568Y45735D02*
X21723Y44579D01*
X20568Y44276D02*
X21723Y45431D01*
X20568Y46453D02*
X21723Y45298D01*
X20568Y44994D02*
X21723Y46150D01*
X20568Y43557D02*
X21723Y44713D01*
X20568Y44298D02*
X21723Y43142D01*
X20568Y45017D02*
X21723Y43861D01*
X22727Y42858D02*
X23374Y42210D01*
X22727Y42124D02*
X23374Y42772D01*
X22727Y43576D02*
X23374Y42928D01*
X20568Y39965D02*
X21723Y41121D01*
X20568Y39247D02*
X21723Y40402D01*
X20568Y39988D02*
X21723Y38832D01*
X20568Y40706D02*
X21723Y39550D01*
X20568Y42861D02*
X21723Y41705D01*
X20568Y41402D02*
X21723Y42558D01*
X20568Y43580D02*
X21723Y42424D01*
X20568Y42120D02*
X21723Y43276D01*
X20568Y40683D02*
X21723Y41839D01*
X20568Y41424D02*
X21723Y40269D01*
X20568Y42143D02*
X21723Y40987D01*
X24378Y36954D02*
Y49025D01*
X23374Y36452D02*
X23625Y36201D01*
X23374Y36452D02*
Y36954D01*
Y36452D02*
X23625Y36201D01*
X24378Y38333D02*
X41798Y20912D01*
X24378Y37614D02*
X41798Y20194D01*
X24378Y36954D02*
X40011Y21321D01*
X22727Y37829D02*
X23374Y37181D01*
X22727Y37095D02*
X23374Y37743D01*
X22727Y38547D02*
X23374Y37899D01*
X22727Y37813D02*
X23374Y38461D01*
X22727Y37110D02*
X23374Y36462D01*
X22727Y36392D02*
X28737Y30381D01*
X23374Y36954D02*
Y49025D01*
X23730Y31633D02*
X25962Y33865D01*
X24089Y31273D02*
X26321Y33505D01*
X23011Y32351D02*
X25244Y34583D01*
X23371Y31992D02*
X25603Y34224D01*
X23625Y36201D02*
X29662Y30165D01*
X22727Y34237D02*
X27295Y29668D01*
X22727Y33518D02*
X27027Y29217D01*
X22727Y34221D02*
X24166Y35661D01*
X22727Y33503D02*
X24525Y35301D01*
X22727Y35658D02*
X23448Y36379D01*
X22727Y34940D02*
X23807Y36020D01*
X22727Y35673D02*
X28132Y30268D01*
X22727Y34955D02*
X27663Y30019D01*
X22727Y32785D02*
X24884Y34942D01*
X22727Y36377D02*
X23374Y37024D01*
Y36452D02*
Y36954D01*
X20568Y37832D02*
X21723Y36677D01*
X20568Y36373D02*
X21723Y37529D01*
Y32636D02*
Y52454D01*
X22727Y32636D02*
Y52454D01*
X20568Y37114D02*
X21723Y35958D01*
X20568Y37810D02*
X21723Y38966D01*
X20568Y38551D02*
X21723Y37395D01*
X20568Y38528D02*
X21723Y39684D01*
X20568Y39269D02*
X21723Y38113D01*
X20568Y37091D02*
X21723Y38247D01*
X529Y37037D02*
X21669Y15897D01*
X529Y37756D02*
X21461Y16823D01*
X20568Y33499D02*
X21723Y34655D01*
X20568Y34240D02*
X21723Y33084D01*
X20568Y34218D02*
X21723Y35373D01*
X20568Y34959D02*
X21723Y33803D01*
X20568Y33522D02*
X21723Y32366D01*
X20568Y32062D02*
X21723Y33218D01*
X20568Y32781D02*
X21723Y33937D01*
X20568Y34936D02*
X21723Y36092D01*
X20568Y35677D02*
X21723Y34521D01*
X20568Y35654D02*
X21723Y36810D01*
X20568Y36396D02*
X21723Y35240D01*
X4413Y35308D02*
X21897Y17824D01*
X3726Y35276D02*
X21538Y17465D01*
X529Y36319D02*
X21461Y15386D01*
X29947Y31384D02*
X30655Y32092D01*
X30306Y31025D02*
X31015Y31733D01*
X29229Y32103D02*
X29937Y32811D01*
X29588Y31743D02*
X30296Y32451D01*
X29836Y25526D02*
X32069Y27758D01*
X30196Y25167D02*
X32428Y27399D01*
X29477Y25885D02*
X31709Y28117D01*
X29118Y26244D02*
X29677Y26803D01*
X28101Y30256D02*
X28836Y30991D01*
X28938Y30375D02*
X29195Y30632D01*
X25526Y29836D02*
X27758Y32069D01*
X25885Y29477D02*
X28117Y31709D01*
X26244Y29118D02*
X28476Y31350D01*
X29220Y21317D02*
X30880Y22977D01*
X29579Y20958D02*
X31239Y22618D01*
X28501Y22035D02*
X30162Y23696D01*
X28860Y21676D02*
X30521Y23337D01*
X28784Y26578D02*
X35331Y20032D01*
X30297Y20239D02*
X31958Y21900D01*
X29938Y20598D02*
X31599Y22259D01*
X26705Y23831D02*
X28366Y25492D01*
X27064Y23472D02*
X28725Y25133D01*
X25987Y24550D02*
X27647Y26210D01*
X26346Y24191D02*
X28006Y25851D01*
X27783Y22754D02*
X29443Y24414D01*
X28142Y22395D02*
X29802Y24055D01*
X27423Y23113D02*
X29084Y24774D01*
X24808Y30555D02*
X27040Y32787D01*
X25167Y30196D02*
X27399Y32428D01*
X26604Y28759D02*
X27004Y29159D01*
X24191Y26346D02*
X25851Y28006D01*
X24909Y25627D02*
X26570Y27288D01*
X25268Y25268D02*
X26929Y26929D01*
X24550Y25987D02*
X26210Y27647D01*
X22727Y32800D02*
X26885Y28641D01*
X22727Y32636D02*
X26878Y28484D01*
X22395Y28142D02*
X24055Y29802D01*
X22754Y27783D02*
X24414Y29443D01*
X23472Y27064D02*
X25133Y28725D01*
X23831Y26705D02*
X25492Y28366D01*
X23113Y27423D02*
X24774Y29084D01*
X25268Y25268D02*
X26929Y26929D01*
X25627Y24909D02*
X27288Y26570D01*
X24045Y22608D02*
X25234Y23797D01*
X24164Y22009D02*
X25593Y23438D01*
X23942Y21068D02*
X25953Y23079D01*
X24214Y20622D02*
X26312Y22720D01*
X24164Y21312D02*
Y22488D01*
X23077Y23077D02*
X24516Y24516D01*
X23685Y22967D02*
X24875Y24157D01*
X22358Y23077D02*
X24157Y24875D01*
X23077Y23077D02*
X24516Y24516D01*
X23931Y21079D02*
X24164Y21312D01*
X23931Y21079D02*
X24214Y20796D01*
X23576Y23077D02*
X24164Y22488D01*
X29517Y26727D02*
X39258Y16986D01*
X28941Y26585D02*
X39258Y16268D01*
X30319Y27363D02*
X39258Y18423D01*
X29968Y26995D02*
X39258Y17705D01*
X24214Y20536D02*
X33407Y11343D01*
X24214Y19817D02*
X33407Y10624D01*
X24164Y15557D02*
X32334Y7387D01*
X23962Y19352D02*
X33407Y9906D01*
X23586Y19008D02*
X33407Y9187D01*
X24164Y22023D02*
X33407Y12779D01*
X24160Y21308D02*
X33407Y12061D01*
X22868Y19008D02*
X33407Y8469D01*
X24164Y16994D02*
X33053Y8105D01*
X24164Y16275D02*
X32693Y7746D01*
X30128Y5702D02*
X33407Y8981D01*
X29265Y529D02*
X33678Y4941D01*
X29410Y5702D02*
X33407Y9700D01*
X29299Y2899D02*
X30701D01*
X29984Y529D02*
X33678Y4223D01*
X30357Y2899D02*
X32727Y529D01*
X29638Y2899D02*
X32008Y529D01*
X24164Y14839D02*
X31975Y7028D01*
X23968Y14316D02*
X31616Y6668D01*
X23609Y13957D02*
X31256Y6309D01*
X22924Y13923D02*
X30897Y5950D01*
X23518Y529D02*
X33407Y10418D01*
X28547Y529D02*
X34578Y6560D01*
X22800Y529D02*
X33407Y11136D01*
X24164Y16980D02*
X28108Y20924D01*
X24164Y16261D02*
X28467Y20564D01*
X24214Y19904D02*
X26671Y22361D01*
X24214Y19604D02*
Y20796D01*
X24164Y15543D02*
X28826Y20205D01*
X24164Y14825D02*
X29186Y19846D01*
X24164Y16212D02*
Y17388D01*
X23006Y17977D02*
X27030Y22001D01*
X23650Y17903D02*
X27389Y21642D01*
X23618Y19008D02*
X24214Y19604D01*
X22287Y17977D02*
X23319Y19008D01*
X24009Y17543D02*
X27749Y21283D01*
X23902Y15950D02*
X24164Y16212D01*
X23576Y17977D02*
X24164Y17388D01*
X28598Y4890D02*
X29410Y5702D01*
X29299D02*
X30649D01*
X28598Y5001D02*
X29299Y5702D01*
X28598Y3599D02*
Y5001D01*
X27110Y529D02*
X29480Y2899D01*
X27829Y529D02*
X30199Y2899D01*
X28598Y3599D02*
X29299Y2899D01*
X23576Y13923D02*
X24164Y14512D01*
X24236Y529D02*
X28598Y4890D01*
X23902Y15950D02*
X24164Y15688D01*
Y14512D02*
Y15688D01*
X25673Y529D02*
X28671Y3526D01*
X26392Y529D02*
X29030Y3167D01*
X24955Y529D02*
X28598Y4172D01*
X21317Y29220D02*
X22977Y30880D01*
X21676Y28860D02*
X23337Y30521D01*
X20598Y29938D02*
X22259Y31599D01*
X20958Y29579D02*
X22618Y31239D01*
X20568Y31367D02*
X34578Y17356D01*
X20568Y30648D02*
X34578Y16638D01*
X21974Y31883D02*
X34578Y19279D01*
X20568Y32803D02*
X34578Y18793D01*
X20568Y32085D02*
X34578Y18074D01*
X13502Y31967D02*
X22392Y23077D01*
X15938Y30248D02*
X23110Y23077D01*
X16502Y31840D02*
X33407Y14935D01*
X16752Y30872D02*
X33407Y14216D01*
X10191Y30248D02*
X22463Y17977D01*
X22035Y28501D02*
X23696Y30162D01*
X22007Y19008D02*
X23618D01*
X21461Y22488D02*
X22049Y23077D01*
X23576D01*
X22149Y19008D02*
X23181Y17977D01*
X22049D02*
X23576D01*
X21461Y14512D02*
X22049Y13923D01*
X20568Y29969D02*
X34160Y16377D01*
X14149Y17022D02*
X23079Y25953D01*
X14149Y18459D02*
X22361Y26671D01*
X14149Y17741D02*
X22720Y26312D01*
X19815Y29216D02*
X33407Y15624D01*
X14149Y15585D02*
X23797Y25234D01*
X14149Y16304D02*
X23438Y25593D01*
X21723Y32134D02*
X21974Y31883D01*
X21723Y32134D02*
X21974Y31883D01*
X21723Y32134D02*
Y32636D01*
Y32134D02*
Y32636D01*
X20568Y31344D02*
X21723Y32500D01*
X20568Y30625D02*
X21900Y31958D01*
X14149Y20614D02*
X21283Y27749D01*
X13752Y30998D02*
X21861Y22889D01*
X13579Y30452D02*
X21502Y22529D01*
X13065Y30248D02*
X21461Y21852D01*
X14149Y21333D02*
X20924Y28108D01*
X10535Y32060D02*
X21605Y20990D01*
X10643Y30515D02*
X21411Y19747D01*
X10752Y31125D02*
X21411Y20465D01*
X21461Y21312D02*
X21694Y21079D01*
X21461Y17388D02*
X22049Y17977D01*
X21461Y21312D02*
Y22488D01*
Y16212D02*
Y17388D01*
Y16212D02*
X21723Y15950D01*
X21461Y15688D02*
X21723Y15950D01*
X21461Y14512D02*
Y15688D01*
X14149Y19178D02*
X22001Y27030D01*
X21411Y20796D02*
X21694Y21079D01*
X14149Y19896D02*
X21642Y27389D01*
X21411Y19604D02*
Y20796D01*
X14149Y21980D02*
X21461Y14668D01*
X21411Y19604D02*
X22007Y19008D01*
X14102Y14821D02*
X21461Y22179D01*
X16516Y30389D02*
X33407Y13498D01*
X14149Y17670D02*
X31290Y529D01*
X14149Y19825D02*
X28785Y5188D01*
X14149Y19107D02*
X28598Y4657D01*
X14897Y529D02*
X31700Y17332D01*
X15615Y529D02*
X32059Y16972D01*
X14179Y529D02*
X31341Y17691D01*
X14149Y21262D02*
X29709Y5702D01*
X11305Y529D02*
X29904Y19128D01*
X14149Y20544D02*
X29145Y5547D01*
X10587Y529D02*
X29545Y19487D01*
X12742Y529D02*
X30622Y18409D01*
X13460Y529D02*
X30982Y18050D01*
X12023Y529D02*
X30263Y18768D01*
X19208Y529D02*
X33407Y14728D01*
X19926Y529D02*
X33407Y14010D01*
X18489Y529D02*
X33407Y15447D01*
X22206Y13923D02*
X30427Y5702D01*
X21363Y529D02*
X33407Y12573D01*
X22081Y529D02*
X33407Y11855D01*
X20644Y529D02*
X33407Y13292D01*
X14149Y16951D02*
X30571Y529D01*
X4500D02*
X56000D01*
X14149Y16233D02*
X29853Y529D01*
X14149Y15515D02*
X29135Y529D01*
X17052D02*
X32778Y16254D01*
X17771Y529D02*
X33137Y15895D01*
X16334Y529D02*
X32418Y16613D01*
X14494Y10902D02*
X22601Y19008D01*
X15800Y10053D02*
X21710Y15963D01*
X15081Y10771D02*
X21461Y17150D01*
X15441Y10412D02*
X21461Y16432D01*
X14149Y18388D02*
X28598Y3939D01*
X14111Y14834D02*
X28416Y529D01*
X15902Y9436D02*
X21461Y14995D01*
X13057Y10902D02*
X21585Y19430D01*
X13775Y10902D02*
X21944Y19071D01*
X1692Y1692D02*
X21461Y21461D01*
X1692Y1692D02*
X21461Y21461D01*
X2504Y1067D02*
X21411Y19974D01*
X11480Y14591D02*
X25542Y529D01*
X2074Y1356D02*
X21411Y20692D01*
X22049Y13923D02*
X23576D01*
X15525Y7672D02*
X22669Y529D01*
X15902Y8717D02*
X21578Y14394D01*
X15166Y7313D02*
X21950Y529D01*
X15902Y9451D02*
X24824Y529D01*
X15902Y8733D02*
X24106Y529D01*
X15884Y8032D02*
X23387Y529D01*
X12199Y14591D02*
X26261Y529D01*
X9868D02*
X23263Y13923D01*
X8431Y529D02*
X21938Y14035D01*
X9150Y529D02*
X22544Y13923D01*
X12917Y14591D02*
X26979Y529D01*
X13636Y14591D02*
X27698Y529D01*
X14662Y7098D02*
X21232Y529D01*
X16502Y45490D02*
X19564Y42428D01*
X16502Y42365D02*
X19564Y45428D01*
X16502Y46209D02*
X19564Y43146D01*
X16502Y43083D02*
X19564Y46146D01*
X16502Y44054D02*
X19564Y40991D01*
X16502Y40928D02*
X19564Y43991D01*
X16502Y44772D02*
X19564Y41709D01*
X16502Y41646D02*
X19564Y44709D01*
X16502Y44520D02*
X19564Y47583D01*
X16502Y46927D02*
X19564Y43864D01*
X16502Y45238D02*
X19564Y48301D01*
X16502Y47646D02*
X19564Y44583D01*
X16502Y43802D02*
X19564Y46864D01*
X13502Y43462D02*
X15498Y41465D01*
X13502Y41520D02*
X15498Y43517D01*
X16502Y39491D02*
X19564Y42554D01*
X16502Y41898D02*
X19564Y38836D01*
X16502Y40209D02*
X19564Y43272D01*
X16502Y42617D02*
X19564Y39554D01*
X16502Y41180D02*
X19564Y38117D01*
X16502Y38054D02*
X19564Y41117D01*
X16502Y38773D02*
X19564Y41835D01*
X16502Y43335D02*
X19564Y40272D01*
X13502Y40083D02*
X15498Y42080D01*
X13502Y40802D02*
X15498Y42798D01*
X13502Y42743D02*
X15498Y40746D01*
X13502Y39365D02*
X15498Y41362D01*
X13502Y41306D02*
X15498Y39309D01*
X13502Y42025D02*
X15498Y40028D01*
X13502Y44394D02*
X15498Y46391D01*
X13502Y46335D02*
X15498Y44338D01*
X13502Y45112D02*
X15498Y47109D01*
X13502Y47054D02*
X15498Y45057D01*
X13502Y45617D02*
X15498Y43620D01*
X13502Y42957D02*
X15498Y44954D01*
X13502Y43675D02*
X15498Y45672D01*
X10535Y46429D02*
X12498Y44465D01*
X10535Y44300D02*
X12498Y46264D01*
X10535Y47147D02*
X12498Y45183D01*
X10535Y45019D02*
X12498Y46983D01*
X10535Y43582D02*
X12498Y45546D01*
X10535Y44992D02*
X12498Y43028D01*
X10535Y45710D02*
X12498Y43746D01*
X13502Y42238D02*
X15498Y44235D01*
X13502Y44180D02*
X15498Y42183D01*
X13502Y44898D02*
X15498Y42902D01*
X10535Y40681D02*
X12498Y38717D01*
X13502Y38646D02*
X15498Y40643D01*
X13502Y40588D02*
X15498Y38591D01*
X10535Y38553D02*
X12498Y40517D01*
X10535Y41427D02*
X12498Y43391D01*
X10535Y42118D02*
X12498Y40154D01*
X10535Y42864D02*
X12498Y44827D01*
X10535Y43555D02*
X12498Y41591D01*
X10535Y41400D02*
X12498Y39436D01*
X10535Y39271D02*
X12498Y41235D01*
X10535Y39990D02*
X12498Y41954D01*
X16502Y35181D02*
X19564Y38243D01*
X16502Y37588D02*
X19564Y34525D01*
X16502Y35899D02*
X19564Y38962D01*
X16502Y38306D02*
X19564Y35243D01*
Y29969D02*
Y54867D01*
X20568Y29969D02*
Y54867D01*
X16502Y34462D02*
X19564Y37525D01*
X16502Y39743D02*
X19564Y36680D01*
X16502Y36617D02*
X19564Y39680D01*
X16502Y40462D02*
X19564Y37399D01*
X16502Y37336D02*
X19564Y40399D01*
X16502Y31626D02*
Y52710D01*
Y39025D02*
X19564Y35962D01*
X15498Y31626D02*
Y52710D01*
X16502Y33025D02*
X19564Y36088D01*
X16502Y35433D02*
X19564Y32370D01*
X16502Y33744D02*
X19564Y36807D01*
X16502Y36151D02*
X19564Y33088D01*
X16502Y34714D02*
X19564Y31651D01*
X16520Y31607D02*
X19564Y34651D01*
X16502Y32307D02*
X19564Y35370D01*
X16502Y36869D02*
X19564Y33807D01*
X13502Y33617D02*
X15498Y35614D01*
X13502Y34336D02*
X15498Y36333D01*
X13502Y36277D02*
X15498Y34281D01*
X13502Y32899D02*
X15498Y34896D01*
X13502Y34840D02*
X15498Y32844D01*
X13502Y35559D02*
X15498Y33562D01*
X13502Y37209D02*
X15498Y39206D01*
X13502Y39151D02*
X15498Y37154D01*
X13502Y37928D02*
X15498Y39925D01*
X13502Y39869D02*
X15498Y37873D01*
X13502Y36491D02*
X15498Y38488D01*
X13502Y38433D02*
X15498Y36436D01*
X13502Y31626D02*
Y52535D01*
X10535Y38526D02*
X12498Y36562D01*
X10535Y36398D02*
X12498Y38362D01*
X10535Y39963D02*
X12498Y37999D01*
X10535Y37116D02*
X12498Y39080D01*
Y31626D02*
Y52535D01*
X10535Y37807D02*
X12498Y35844D01*
X10535Y31593D02*
Y52327D01*
X13502Y35054D02*
X15498Y37051D01*
X13502Y36996D02*
X15498Y34999D01*
X13502Y35773D02*
X15498Y37769D01*
X13502Y37714D02*
X15498Y35717D01*
X10535Y32806D02*
X12498Y34769D01*
X10535Y34215D02*
X12498Y32252D01*
X10535Y34934D02*
X12498Y32970D01*
X10535Y34961D02*
X12498Y36925D01*
X10535Y36371D02*
X12498Y34407D01*
X10535Y35679D02*
X12498Y37643D01*
X10535Y37089D02*
X12498Y35125D01*
X10535Y35652D02*
X12498Y33688D01*
X10535Y33524D02*
X12498Y35488D01*
X10535Y34243D02*
X12498Y36206D01*
X4888Y48483D02*
X9531Y43840D01*
X4964Y43758D02*
X9531Y48326D01*
X4964Y49126D02*
X9531Y44558D01*
X4964Y44477D02*
X9531Y49045D01*
X4964Y46252D02*
X9531Y41684D01*
X4964Y41603D02*
X9531Y46171D01*
X4964Y46971D02*
X9531Y42403D01*
X4687Y44918D02*
X9531Y49763D01*
X4529Y48124D02*
X9531Y43121D01*
X4291Y50516D02*
X9531Y45276D01*
X4274Y45224D02*
X9531Y50481D01*
X4854Y42212D02*
X9531Y46889D01*
X4721Y45776D02*
X9531Y40966D01*
X4495Y42571D02*
X9531Y47608D01*
X10535Y44273D02*
X12498Y42309D01*
X10535Y42145D02*
X12498Y44109D01*
X4964Y43478D02*
Y44642D01*
Y40938D02*
Y42102D01*
X10535Y42836D02*
X12498Y40873D01*
X10535Y40708D02*
X12498Y42672D01*
X4382Y40356D02*
X4964Y40938D01*
X4382Y45224D02*
X4964Y44642D01*
X4382Y42896D02*
X4964Y43478D01*
X3218Y42896D02*
X4382D01*
X3218Y42684D02*
X4382D01*
X4343Y45436D02*
X9531Y40248D01*
X4382Y42684D02*
X4964Y42102D01*
X3218Y40356D02*
X4382D01*
X3624Y45436D02*
X3837Y45224D01*
X3218D02*
X4382D01*
X3555D02*
X3768Y45436D01*
X2636Y44642D02*
X3218Y45224D01*
X529Y42915D02*
X3134Y45521D01*
X529Y44940D02*
X3001Y42467D01*
X2636Y43478D02*
Y44642D01*
X529Y47813D02*
X3168Y45174D01*
X529Y47095D02*
X2809Y44815D01*
X529Y45071D02*
X2636Y47179D01*
X529Y44352D02*
X2636Y46460D01*
X529Y43634D02*
X2775Y45880D01*
X529Y45658D02*
X2636Y43550D01*
X529Y46377D02*
X2636Y44269D01*
X3889Y42684D02*
X4102Y42896D01*
X4009D02*
X4222Y42684D01*
X2636Y43478D02*
X3218Y42896D01*
X3290D02*
X3503Y42684D01*
X2636Y42102D02*
X3218Y42684D01*
X2636Y40938D02*
X3218Y40356D01*
X2636Y40938D02*
Y42102D01*
X529Y44221D02*
X2642Y42108D01*
X2636Y43550D02*
X3290Y42896D01*
X529Y42197D02*
X2636Y44305D01*
X529Y41479D02*
X2636Y43586D01*
X529Y40760D02*
X2942Y43173D01*
X529Y40042D02*
X3383Y42896D01*
X529Y43503D02*
X2636Y41395D01*
X4964Y41942D02*
X9531Y37374D01*
X4828Y37157D02*
X9531Y41860D01*
X4964Y44097D02*
X9531Y39529D01*
X4914Y43428D02*
X9531Y38811D01*
Y31659D02*
Y52327D01*
X4964Y36574D02*
X9531Y41142D01*
X4964Y41223D02*
X9531Y36655D01*
X529Y35013D02*
X9531Y44016D01*
X4469Y37516D02*
X9531Y42579D01*
X3838Y37604D02*
X9531Y43297D01*
X4555Y43069D02*
X9531Y38092D01*
X529Y42066D02*
X9531Y33063D01*
X529Y31421D02*
X9531Y40424D01*
X529Y42785D02*
X9531Y33782D01*
X10535Y37835D02*
X12498Y39798D01*
X10535Y39244D02*
X12498Y37281D01*
X4388Y40362D02*
X9531Y35219D01*
X4964Y36913D02*
X9531Y32345D01*
X3718Y30300D02*
X9531Y36113D01*
X5063Y30208D02*
X9531Y34676D01*
X4504Y30367D02*
X9531Y35395D01*
X529Y29984D02*
X9531Y38987D01*
X529Y29265D02*
X9531Y38268D01*
X3675Y40356D02*
X9531Y34500D01*
X529Y30702D02*
X9531Y39705D01*
X529Y27829D02*
X9531Y36831D01*
X529Y35600D02*
X13719Y22409D01*
X529Y28547D02*
X9531Y37550D01*
X529Y37887D02*
X3108Y40466D01*
X529Y37168D02*
X3717Y40356D01*
X529Y39911D02*
X3027Y37412D01*
X529Y39192D02*
X2668Y37053D01*
X4747Y40722D02*
X9531Y35937D01*
X2636Y37022D02*
X3218Y37604D01*
X529Y38474D02*
X2636Y36366D01*
X529Y41348D02*
X4273Y37604D01*
X529Y40629D02*
X3554Y37604D01*
X529Y39323D02*
X2636Y41431D01*
X529Y38605D02*
X2749Y40825D01*
X529Y36450D02*
X9531Y45452D01*
X529Y35731D02*
X9531Y44734D01*
X529Y4500D02*
Y84000D01*
X4382Y37604D02*
X4964Y37022D01*
Y35858D02*
Y37022D01*
X3218Y37604D02*
X4382D01*
X3218Y35276D02*
X4382D01*
X4964Y36194D02*
X9515Y31643D01*
X4772Y35667D02*
X9248Y31191D01*
X4382Y35276D02*
X4964Y35858D01*
X2636D02*
X3218Y35276D01*
X529Y33576D02*
X2724Y35771D01*
X2636Y35858D02*
Y37022D01*
X529Y34294D02*
X2636Y36402D01*
X529Y32139D02*
X3666Y35276D01*
X529Y34882D02*
X5404Y30006D01*
X529Y32858D02*
X3083Y35412D01*
X16752Y31120D02*
X19564Y33933D01*
X16502Y31626D02*
X16752Y31376D01*
X13752Y30994D02*
X15498Y32741D01*
X15248Y31376D02*
X15498Y31626D01*
X16502Y33277D02*
X19564Y30215D01*
X16502Y32559D02*
X19564Y29496D01*
X16502Y33996D02*
X19564Y30933D01*
X13752Y30624D02*
Y31376D01*
X13502Y34122D02*
X15498Y32125D01*
X13583Y31544D02*
X15498Y33459D01*
X13502Y32181D02*
X15498Y34177D01*
X13502Y33404D02*
X15389Y31516D01*
X9424Y23074D02*
X19564Y33214D01*
X7636Y24159D02*
X15498Y32022D01*
X13502Y32685D02*
X15248Y30938D01*
X16376Y30248D02*
X16752Y30624D01*
X19564Y29467D02*
Y29969D01*
X16752Y30624D02*
Y31376D01*
X15624Y30248D02*
X16376D01*
X19564Y29467D02*
X19815Y29216D01*
X19564Y29467D02*
X19815Y29216D01*
X19564Y29467D02*
Y29969D01*
X8354Y24159D02*
X15248Y31054D01*
Y30624D02*
X15624Y30248D01*
X15248Y30624D02*
Y31376D01*
X13376Y30248D02*
X13752Y30624D01*
X10915Y22409D02*
X19564Y31059D01*
X9417Y23785D02*
X15880Y30248D01*
X9063Y24150D02*
X15393Y30480D01*
X12248Y31376D02*
X12498Y31626D01*
X13502D02*
X13752Y31376D01*
X10647Y31481D02*
X12498Y33333D01*
X10535Y31593D02*
X10752Y31376D01*
X10535Y32779D02*
X12248Y31065D01*
X10752Y30867D02*
X12498Y32614D01*
X10752Y30624D02*
Y31376D01*
X10535Y32087D02*
X12498Y34051D01*
X10535Y33497D02*
X12452Y31579D01*
X9248Y31376D02*
X9531Y31659D01*
X9248Y30624D02*
Y31376D01*
X6078Y29068D02*
X9531Y32521D01*
X6171Y28442D02*
X9531Y31802D01*
X5842Y29550D02*
X9531Y33239D01*
X12248Y30624D02*
Y31376D01*
Y30624D02*
X12624Y30248D01*
X10376D02*
X10752Y30624D01*
X9624Y30248D02*
X10376D01*
X12624D02*
X13376D01*
X9392Y23907D02*
X9424Y23750D01*
X9304Y24040D02*
X9392Y23907D01*
X6199Y24159D02*
X12456Y30417D01*
X6917Y24159D02*
X13006Y30248D01*
X5805Y27358D02*
X9248Y30801D01*
Y30624D02*
X9624Y30248D01*
X9014Y24159D02*
X9171Y24128D01*
X9304Y24040D01*
X5843Y27412D02*
X9116Y24139D01*
X14140Y22043D02*
X20564Y28467D01*
X14117Y22157D02*
X14149Y22000D01*
X13896Y22378D02*
X14029Y22290D01*
X14117Y22157D01*
X14149Y15000D02*
Y22000D01*
X14117Y14843D02*
X14149Y15000D01*
X14029Y14710D02*
X14117Y14843D01*
X11633Y22409D02*
X19564Y30341D01*
X12352Y22409D02*
X19564Y29622D01*
X9478Y22409D02*
X19564Y32496D01*
X10196Y22409D02*
X19564Y31778D01*
X13070Y22409D02*
X19846Y29186D01*
X13780Y22401D02*
X20205Y28826D01*
X13739Y22409D02*
X13896Y22378D01*
X14951Y10902D02*
X15902Y9951D01*
Y8049D02*
Y9951D01*
X13896Y14622D02*
X14029Y14710D01*
X13739Y14591D02*
X13896Y14622D01*
X13225Y7098D02*
X19795Y529D01*
X13944Y7098D02*
X20513Y529D01*
X14951Y7098D02*
X15902Y8049D01*
X13049Y10902D02*
X14951D01*
X13049Y7098D02*
X14951D01*
X9424Y14591D02*
X13739D01*
X10762D02*
X14451Y10902D01*
X6046Y12841D02*
X18358Y529D01*
X6765Y12841D02*
X19077Y529D01*
X7713D02*
X14283Y7098D01*
X9424Y22409D02*
X13739D01*
X9424Y13734D02*
X10280Y14591D01*
X9424Y13250D02*
Y14591D01*
Y14453D02*
X9562Y14591D01*
X10044D02*
X13733Y10902D01*
X9424Y14492D02*
X13032Y10884D01*
X9424Y13774D02*
X12672Y10525D01*
X5796Y29614D02*
X13001Y22409D01*
X6171Y28521D02*
X12283Y22409D01*
X6079Y27894D02*
X11564Y22409D01*
X9403Y23852D02*
X10846Y22409D01*
X9424Y23113D02*
X10127Y22409D01*
X9392Y13093D02*
X9424Y13250D01*
Y22409D02*
Y23750D01*
X9390Y13089D02*
X12313Y10166D01*
X12098Y9951D02*
X13049Y10902D01*
X9304Y12960D02*
X9392Y13093D01*
X9171Y12872D02*
X9304Y12960D01*
X12098Y9943D02*
X13057Y10902D01*
X12098Y8049D02*
X13049Y7098D01*
X12098Y8049D02*
Y9951D01*
X8202Y12841D02*
X12098Y8944D01*
X7483Y12841D02*
X12098Y8225D01*
X9014Y12841D02*
X9171Y12872D01*
X8920Y12841D02*
X12098Y9662D01*
X6276Y529D02*
X12947Y7200D01*
X6994Y529D02*
X13564Y7098D01*
X5558Y529D02*
X12588Y7559D01*
X5502Y29928D02*
X9531Y33958D01*
X3325Y24159D02*
X9519Y30353D01*
X529Y27698D02*
X4067Y24159D01*
X4762D02*
X12498Y31896D01*
X5481Y24159D02*
X12248Y30927D01*
X4044Y24159D02*
X10133Y30248D01*
X529Y34163D02*
X4311Y30381D01*
X529Y33445D02*
X3684Y30289D01*
X529Y32727D02*
X3202Y30053D01*
X529Y32008D02*
X2823Y29714D01*
X529Y29135D02*
X5504Y24159D01*
X529Y28416D02*
X4785Y24159D01*
X529Y31290D02*
X2543Y29276D01*
X5066Y26753D02*
X7659Y24159D01*
X2739D02*
X9014D01*
X3723Y26659D02*
X6222Y24159D01*
X4507Y26593D02*
X6940Y24159D01*
X5504Y27033D02*
X8377Y24159D01*
X2562Y24115D02*
X5392Y26945D01*
X2582Y24128D02*
X2739Y24159D01*
X529Y26979D02*
X3348Y24159D01*
X529Y24236D02*
X3200Y26908D01*
X529Y24955D02*
X2822Y27248D01*
X529Y26261D02*
X2648Y24141D01*
X529Y23518D02*
X3682Y26672D01*
X529Y22800D02*
X4308Y26579D01*
X2450Y24040D02*
X2582Y24128D01*
X2361Y23907D02*
X2450Y24040D01*
X529Y22081D02*
X2374Y23927D01*
X529Y24106D02*
X2330Y22305D01*
Y23750D02*
X2361Y23907D01*
X529Y21363D02*
X2330Y23164D01*
X529Y22669D02*
X2330Y20868D01*
X529Y23387D02*
X2330Y21586D01*
X529Y29853D02*
X2449Y27933D01*
X529Y27110D02*
X2450Y29032D01*
X529Y30571D02*
X2383Y28717D01*
X529Y26392D02*
X2383Y28246D01*
X529Y25673D02*
X2542Y27687D01*
X529Y24824D02*
X2330Y23023D01*
X529Y25542D02*
X2330Y23741D01*
X529Y19077D02*
X2330Y17276D01*
X529Y17052D02*
X2330Y18853D01*
X529Y19795D02*
X2330Y17994D01*
X529Y17771D02*
X2330Y19572D01*
X529Y16334D02*
X2330Y18135D01*
X529Y17640D02*
X2330Y15839D01*
X529Y18358D02*
X2330Y16557D01*
X529Y19926D02*
X2330Y21727D01*
X529Y21232D02*
X2330Y19431D01*
X529Y20644D02*
X2330Y22445D01*
X529Y21950D02*
X2330Y20149D01*
X529Y20513D02*
X2330Y18712D01*
X529Y18489D02*
X2330Y20290D01*
X529Y19208D02*
X2330Y21009D01*
X829Y2984D02*
X12435Y14591D01*
X1067Y2504D02*
X13154Y14591D01*
X650Y3524D02*
X11717Y14591D01*
X2739Y12841D02*
X9014D01*
X3173D02*
X15485Y529D01*
X3891Y12841D02*
X16203Y529D01*
X1356Y2074D02*
X13918Y14637D01*
X545Y4137D02*
X10998Y14591D01*
X529Y4839D02*
X8530Y12841D01*
X529Y6276D02*
X7093Y12841D01*
X529Y5558D02*
X7812Y12841D01*
X529Y14766D02*
X14766Y529D01*
X529Y14048D02*
X14048Y529D01*
X529Y13329D02*
X13329Y529D01*
X3524Y650D02*
X12098Y9225D01*
X4137Y545D02*
X12098Y8506D01*
X2984Y829D02*
X12098Y9943D01*
X529Y7582D02*
X7582Y529D01*
X4609Y12841D02*
X16921Y529D01*
X5328Y12841D02*
X17640Y529D01*
X4839D02*
X12229Y7919D01*
X529Y12611D02*
X12611Y529D01*
X529Y11892D02*
X11892Y529D01*
X529Y11174D02*
X11174Y529D01*
X529Y10456D02*
X10456Y529D01*
X529Y9737D02*
X9737Y529D01*
X529Y9019D02*
X9019Y529D01*
X529Y8300D02*
X8300Y529D01*
X2361Y13093D02*
X2450Y12960D01*
X2582Y12872D01*
X2330Y13250D02*
Y23750D01*
Y13250D02*
X2361Y13093D01*
X529Y12023D02*
X2330Y13824D01*
X529Y11305D02*
X2354Y13130D01*
X529Y12742D02*
X2330Y14543D01*
X529Y14897D02*
X2330Y16698D01*
X529Y16203D02*
X2330Y14402D01*
X529Y15615D02*
X2330Y17416D01*
X529Y16921D02*
X2330Y15120D01*
X529Y15485D02*
X2330Y13683D01*
X529Y13460D02*
X2330Y15261D01*
X529Y14179D02*
X2330Y15980D01*
X529Y6145D02*
X6145Y529D01*
X567Y3952D02*
X3952Y567D01*
X2582Y12872D02*
X2739Y12841D01*
X839Y2961D02*
X2961Y839D01*
X529Y5427D02*
X5427Y529D01*
X529Y4708D02*
X4708Y529D01*
X529Y9150D02*
X4219Y12841D01*
X529Y8431D02*
X4938Y12841D01*
X529Y10587D02*
X2783Y12841D01*
X529Y9868D02*
X3501Y12841D01*
X529Y6994D02*
X6375Y12841D01*
X529Y6863D02*
X6863Y529D01*
X529Y7713D02*
X5656Y12841D01*
D11*
X45150Y52800D02*
D03*
X45950D02*
D03*
X46750D02*
D03*
X47550D02*
D03*
X48350D02*
D03*
Y52000D02*
D03*
Y51200D02*
D03*
X47550D02*
D03*
X46750D02*
D03*
X45950D02*
D03*
X45150D02*
D03*
Y52000D02*
D03*
D12*
X8239Y18500D02*
D03*
D13*
X22225Y32385D02*
X35080Y19530D01*
Y4300D02*
Y19530D01*
X22225Y32385D02*
Y52705D01*
X44000Y56250D02*
X45150Y55100D01*
Y52800D02*
Y55100D01*
X48350Y53850D02*
X50495Y55995D01*
X50995D01*
X51000Y56000D01*
X50311Y51200D02*
X51000Y51889D01*
X48350Y51200D02*
X50311D01*
X51000Y51889D02*
Y53500D01*
X44000Y52000D02*
X45150D01*
X49022Y64008D02*
X55880Y57150D01*
Y51943D02*
Y57150D01*
X50699Y46762D02*
X55880Y51943D01*
X43000Y51742D02*
Y53500D01*
Y51742D02*
X43434Y51308D01*
X45042D01*
X45150Y51200D01*
X45720Y51943D02*
X45950Y52173D01*
Y52800D01*
X45207Y51943D02*
X45720D01*
X45150Y52000D02*
X45207Y51943D01*
X47550Y52272D02*
Y52800D01*
Y52272D02*
X47820Y52002D01*
X48348D01*
X48350Y52000D01*
X45950Y52800D02*
X46750D01*
X47550D01*
X48350D02*
Y53850D01*
X44674Y49276D02*
X47910Y46040D01*
X41529Y49276D02*
X44674D01*
X47910Y46040D02*
Y48296D01*
X50201Y46640D02*
Y46762D01*
X46750Y50213D02*
X50201Y46762D01*
X50329Y46513D02*
X50450D01*
X46750Y50213D02*
Y51200D01*
X50201Y46640D02*
X50329Y46513D01*
X50450D02*
X50571D01*
X50699Y46640D01*
X50450Y46040D02*
Y46513D01*
X50699Y46640D02*
Y46762D01*
X44923Y40513D02*
X47910Y43500D01*
X35052Y40513D02*
X44923D01*
X43145Y41275D02*
X45370Y43500D01*
X35814Y41275D02*
X43145D01*
X33909Y8209D02*
Y15875D01*
X20066Y29718D02*
X33909Y15875D01*
X20066Y29718D02*
Y55118D01*
X30000Y4300D02*
X33909Y8209D01*
X15875Y30988D02*
X16002Y30861D01*
X9661Y59300D02*
X16000Y52961D01*
Y31000D02*
Y52961D01*
X13000Y31000D02*
Y52786D01*
X9026Y56760D02*
X13000Y52786D01*
X3800Y59300D02*
X9661D01*
X3800Y56760D02*
X9026D01*
X10033Y30988D02*
Y52578D01*
X8391Y54220D02*
X10033Y52578D01*
X3800Y54220D02*
X8391D01*
X21708Y56760D02*
X29200D01*
X20066Y55118D02*
X21708Y56760D01*
X22225Y52705D02*
X23740Y54220D01*
X29200D01*
X42300Y13000D02*
Y21200D01*
X26416Y37084D02*
Y48133D01*
Y37084D02*
X42300Y21200D01*
X23876Y49276D02*
X26280Y51680D01*
X29200D01*
X23876Y36703D02*
Y49276D01*
Y36703D02*
X39760Y20819D01*
Y13000D02*
Y20819D01*
X26416Y48133D02*
X27423Y49140D01*
X29200D01*
X37805Y53000D02*
X41529Y49276D01*
X36000Y53000D02*
X37805D01*
X32893Y42672D02*
X35052Y40513D01*
X32893Y42672D02*
Y63500D01*
X32013Y64380D02*
X32893Y63500D01*
X29200Y64380D02*
X32013D01*
X34036Y43053D02*
X35814Y41275D01*
X34036Y43053D02*
Y65405D01*
X32521Y66920D02*
X34036Y65405D01*
X29200Y66920D02*
X32521D01*
X37347Y69460D02*
X42799Y64008D01*
X49022D01*
X29200Y69460D02*
X37347D01*
X45950Y50256D02*
Y51200D01*
Y50256D02*
X47910Y48296D01*
X49879Y31021D02*
X49920Y30980D01*
X48989Y31021D02*
X49879D01*
X46750Y33260D02*
X48989Y31021D01*
X46750Y33260D02*
Y34250D01*
X53250D01*
X37750D02*
X44250D01*
D14*
X55000Y11620D02*
Y13000D01*
X47580Y4200D02*
X55000Y11620D01*
X49920D02*
Y13000D01*
X42500Y4200D02*
X49920Y11620D01*
D15*
X52990Y46040D02*
D03*
X55530D02*
D03*
X50450D02*
D03*
X37750Y46040D02*
D03*
X40290D02*
D03*
X42830D02*
D03*
X45370Y46040D02*
D03*
X47910Y46040D02*
D03*
X40290Y43500D02*
D03*
X37750D02*
D03*
X45370D02*
D03*
X42830D02*
D03*
X50450D02*
D03*
X47910D02*
D03*
X55530Y43500D02*
D03*
X52990D02*
D03*
X38000Y58000D02*
D03*
X53250Y34250D02*
D03*
X46750D02*
D03*
X53250Y38750D02*
D03*
X46750D02*
D03*
X37750D02*
D03*
X44250D02*
D03*
X37750Y34250D02*
D03*
X44250D02*
D03*
X38000Y62500D02*
D03*
D16*
X35460Y58000D02*
D03*
Y62500D02*
D03*
D17*
X28780Y75430D02*
D03*
Y28480D02*
D03*
X4270Y75430D02*
D03*
Y28480D02*
D03*
X18700Y6000D02*
D03*
X14000Y9000D02*
D03*
Y3000D02*
D03*
D18*
X29200Y69460D02*
D03*
Y66920D02*
D03*
Y72000D02*
D03*
Y36440D02*
D03*
Y38980D02*
D03*
Y41520D02*
D03*
Y44060D02*
D03*
Y46600D02*
D03*
Y49140D02*
D03*
Y51680D02*
D03*
Y54220D02*
D03*
Y56760D02*
D03*
Y59300D02*
D03*
Y61840D02*
D03*
Y64380D02*
D03*
X3800Y36440D02*
D03*
Y44060D02*
D03*
Y46600D02*
D03*
Y49140D02*
D03*
Y51680D02*
D03*
Y54220D02*
D03*
Y56760D02*
D03*
Y59300D02*
D03*
Y61840D02*
D03*
Y64380D02*
D03*
Y66920D02*
D03*
Y69460D02*
D03*
Y72000D02*
D03*
Y38980D02*
D03*
Y41520D02*
D03*
X55000Y13000D02*
D03*
X52460D02*
D03*
X49920D02*
D03*
X47380D02*
D03*
X44840D02*
D03*
X42300D02*
D03*
X39760D02*
D03*
X37220D02*
D03*
X55000Y30980D02*
D03*
X52460D02*
D03*
X49920D02*
D03*
X47380D02*
D03*
X44840D02*
D03*
X42300D02*
D03*
X39760D02*
D03*
X37220D02*
D03*
D19*
X57200Y69460D02*
D03*
Y74540D02*
D03*
X44500Y67300D02*
D03*
Y72000D02*
D03*
Y76700D02*
D03*
D20*
X35080Y4300D02*
D03*
X30000D02*
D03*
X24920D02*
D03*
X47580Y4200D02*
D03*
X42500D02*
D03*
D21*
X5438Y18500D02*
D03*
D22*
X22812Y15100D02*
D03*
Y16800D02*
D03*
Y21900D02*
D03*
Y18500D02*
D03*
D23*
Y20200D02*
D03*
D24*
X4500Y84000D02*
D03*
X56000D02*
D03*
X4500Y4500D02*
D03*
X56000D02*
D03*
D25*
X44000Y56250D02*
D03*
X36000Y53000D02*
D03*
X51000Y56000D02*
D03*
X44000Y52000D02*
D03*
X37220Y20200D02*
D03*
X33400Y38100D02*
D03*
X53900Y57250D02*
D03*
X51000Y53500D02*
D03*
X43000D02*
D03*
X32500Y14000D02*
D03*
Y21200D02*
D03*
X16000Y31000D02*
D03*
X13000D02*
D03*
X10000D02*
D03*
X49400Y74600D02*
D03*
Y69400D02*
D03*
X22000Y69460D02*
D03*
Y61840D02*
D03*
%TF.MD5,6c5e0cccfc97fd15ac468230e038b139*%
M02*
