%TF.GenerationSoftware,Altium Limited,Altium Designer,25.2.1 (25)*%
G04 Layer_Color=128*
%FSLAX43Y43*%
%MOMM*%
%TF.SameCoordinates,B664DB7D-B6DB-4AC9-9DB7-209C64ECDA10*%
%TF.FilePolarity,Positive*%
%TF.FileFunction,Drillmap*%
%TF.Part,Single*%
G01*
G75*
%TA.AperFunction,NonConductor*%
%ADD55C,0.127*%
D55*
X52540Y46040D02*
X53440D01*
X52990Y45590D02*
Y46490D01*
X55080Y46040D02*
X55980D01*
X55530Y45590D02*
Y46490D01*
X50000Y46040D02*
X50900D01*
X50450Y45590D02*
Y46490D01*
X37300Y46040D02*
X38200D01*
X37750Y45590D02*
Y46490D01*
X39840Y46040D02*
X40740D01*
X40290Y45590D02*
Y46490D01*
X42380Y46040D02*
X43280D01*
X42830Y45590D02*
Y46490D01*
X44920Y46040D02*
X45820D01*
X45370Y45590D02*
Y46490D01*
X47460Y46040D02*
X48360D01*
X47910Y45590D02*
Y46490D01*
X39840Y43500D02*
X40740D01*
X40290Y43050D02*
Y43950D01*
X37300Y43500D02*
X38200D01*
X37750Y43050D02*
Y43950D01*
X44920Y43500D02*
X45820D01*
X45370Y43050D02*
Y43950D01*
X42380Y43500D02*
X43280D01*
X42830Y43050D02*
Y43950D01*
X50000Y43500D02*
X50900D01*
X50450Y43050D02*
Y43950D01*
X47460Y43500D02*
X48360D01*
X47910Y43050D02*
Y43950D01*
X55080Y43500D02*
X55980D01*
X55530Y43050D02*
Y43950D01*
X52540Y43500D02*
X53440D01*
X52990Y43050D02*
Y43950D01*
X37550Y58000D02*
X38450D01*
X38000Y57550D02*
Y58450D01*
X35010Y58000D02*
X35910D01*
X35460Y57550D02*
Y58450D01*
X27280Y75430D02*
X30280D01*
X28780Y73930D02*
Y76930D01*
X28819Y69460D02*
X29581D01*
X29200Y69079D02*
Y69841D01*
X28819Y66920D02*
X29581D01*
X29200Y66539D02*
Y67301D01*
X28819Y72000D02*
X29581D01*
X29200Y71619D02*
Y72381D01*
X27280Y28480D02*
X30280D01*
X28780Y26980D02*
Y29980D01*
X28819Y36440D02*
X29581D01*
X29200Y36059D02*
Y36821D01*
X28819Y38980D02*
X29581D01*
X29200Y38599D02*
Y39361D01*
X28819Y41520D02*
X29581D01*
X29200Y41139D02*
Y41901D01*
X28819Y44060D02*
X29581D01*
X29200Y43679D02*
Y44441D01*
X28819Y46600D02*
X29581D01*
X29200Y46219D02*
Y46981D01*
X28819Y49140D02*
X29581D01*
X29200Y48759D02*
Y49521D01*
X28819Y51680D02*
X29581D01*
X29200Y51299D02*
Y52061D01*
X28819Y54220D02*
X29581D01*
X29200Y53839D02*
Y54601D01*
X28819Y56760D02*
X29581D01*
X29200Y56379D02*
Y57141D01*
X28819Y59300D02*
X29581D01*
X29200Y58919D02*
Y59681D01*
X28819Y61840D02*
X29581D01*
X29200Y61459D02*
Y62221D01*
X28819Y64380D02*
X29581D01*
X29200Y63999D02*
Y64761D01*
X3419Y36440D02*
X4181D01*
X3800Y36059D02*
Y36821D01*
X3419Y44060D02*
X4181D01*
X3800Y43679D02*
Y44441D01*
X3419Y46600D02*
X4181D01*
X3800Y46219D02*
Y46981D01*
X3419Y49140D02*
X4181D01*
X3800Y48759D02*
Y49521D01*
X3419Y51680D02*
X4181D01*
X3800Y51299D02*
Y52061D01*
X3419Y54220D02*
X4181D01*
X3800Y53839D02*
Y54601D01*
X3419Y56760D02*
X4181D01*
X3800Y56379D02*
Y57141D01*
X3419Y59300D02*
X4181D01*
X3800Y58919D02*
Y59681D01*
X3419Y61840D02*
X4181D01*
X3800Y61459D02*
Y62221D01*
X3419Y64380D02*
X4181D01*
X3800Y63999D02*
Y64761D01*
X3419Y66920D02*
X4181D01*
X3800Y66539D02*
Y67301D01*
X3419Y69460D02*
X4181D01*
X3800Y69079D02*
Y69841D01*
X3419Y72000D02*
X4181D01*
X3800Y71619D02*
Y72381D01*
X2770Y75430D02*
X5770D01*
X4270Y73930D02*
Y76930D01*
X2770Y28480D02*
X5770D01*
X4270Y26980D02*
Y29980D01*
X3419Y38980D02*
X4181D01*
X3800Y38599D02*
Y39361D01*
X3419Y41520D02*
X4181D01*
X3800Y41139D02*
Y41901D01*
X52750Y34250D02*
X53750D01*
X53250Y33750D02*
Y34750D01*
X46250Y34250D02*
X47250D01*
X46750Y33750D02*
Y34750D01*
X52750Y38750D02*
X53750D01*
X53250Y38250D02*
Y39250D01*
X46250Y38750D02*
X47250D01*
X46750Y38250D02*
Y39250D01*
X56275Y69460D02*
X58125D01*
X57200Y68535D02*
Y70385D01*
X56275Y74540D02*
X58125D01*
X57200Y73615D02*
Y75465D01*
X43575Y67300D02*
X45425D01*
X44500Y66375D02*
Y68225D01*
X43575Y72000D02*
X45425D01*
X44500Y71075D02*
Y72925D01*
X43575Y76700D02*
X45425D01*
X44500Y75775D02*
Y77625D01*
X34430Y4300D02*
X35730D01*
X35080Y3650D02*
Y4950D01*
X29350Y4300D02*
X30650D01*
X30000Y3650D02*
Y4950D01*
X24270Y4300D02*
X25570D01*
X24920Y3650D02*
Y4950D01*
X54619Y13000D02*
X55381D01*
X55000Y12619D02*
Y13381D01*
X52079Y13000D02*
X52841D01*
X52460Y12619D02*
Y13381D01*
X49539Y13000D02*
X50301D01*
X49920Y12619D02*
Y13381D01*
X46999Y13000D02*
X47761D01*
X47380Y12619D02*
Y13381D01*
X44459Y13000D02*
X45221D01*
X44840Y12619D02*
Y13381D01*
X41919Y13000D02*
X42681D01*
X42300Y12619D02*
Y13381D01*
X39379Y13000D02*
X40141D01*
X39760Y12619D02*
Y13381D01*
X36839Y13000D02*
X37601D01*
X37220Y12619D02*
Y13381D01*
X54619Y30980D02*
X55381D01*
X55000Y30599D02*
Y31361D01*
X52079Y30980D02*
X52841D01*
X52460Y30599D02*
Y31361D01*
X49539Y30980D02*
X50301D01*
X49920Y30599D02*
Y31361D01*
X46999Y30980D02*
X47761D01*
X47380Y30599D02*
Y31361D01*
X44459Y30980D02*
X45221D01*
X44840Y30599D02*
Y31361D01*
X41919Y30980D02*
X42681D01*
X42300Y30599D02*
Y31361D01*
X39379Y30980D02*
X40141D01*
X39760Y30599D02*
Y31361D01*
X36839Y30980D02*
X37601D01*
X37220Y30599D02*
Y31361D01*
X37250Y38750D02*
X38250D01*
X37750Y38250D02*
Y39250D01*
X43750Y38750D02*
X44750D01*
X44250Y38250D02*
Y39250D01*
X37250Y34250D02*
X38250D01*
X37750Y33750D02*
Y34750D01*
X43750Y34250D02*
X44750D01*
X44250Y33750D02*
Y34750D01*
X35010Y62500D02*
X35910D01*
X35460Y62050D02*
Y62950D01*
X37550Y62500D02*
X38450D01*
X38000Y62050D02*
Y62950D01*
X3562Y18500D02*
X7312D01*
X5438Y16625D02*
Y20375D01*
X22263Y15100D02*
X23362D01*
X22812Y14550D02*
Y15650D01*
X22263Y16800D02*
X23362D01*
X22812Y16250D02*
Y17350D01*
X22263Y20200D02*
X23362D01*
X22812Y19650D02*
Y20750D01*
X22263Y21900D02*
X23362D01*
X22812Y21350D02*
Y22450D01*
X22263Y18500D02*
X23362D01*
X22812Y17950D02*
Y19050D01*
X17750Y6000D02*
X19650D01*
X18700Y5050D02*
Y6950D01*
X13050Y9000D02*
X14950D01*
X14000Y8050D02*
Y9950D01*
X13050Y3000D02*
X14950D01*
X14000Y2050D02*
Y3950D01*
X46930Y4200D02*
X48230D01*
X47580Y3550D02*
Y4850D01*
X41850Y4200D02*
X43150D01*
X42500Y3550D02*
Y4850D01*
X2750Y84000D02*
X6250D01*
X4500Y82250D02*
Y85750D01*
X54250Y84000D02*
X57750D01*
X56000Y82250D02*
Y85750D01*
X2750Y4500D02*
X6250D01*
X4500Y2750D02*
Y6250D01*
X54250Y4500D02*
X57750D01*
X56000Y2750D02*
Y6250D01*
X43850Y56250D02*
X44150D01*
X44000Y56100D02*
Y56400D01*
X35850Y53000D02*
X36150D01*
X36000Y52850D02*
Y53150D01*
X50850Y56000D02*
X51150D01*
X51000Y55850D02*
Y56150D01*
X43850Y52000D02*
X44150D01*
X44000Y51850D02*
Y52150D01*
X37070Y20200D02*
X37370D01*
X37220Y20050D02*
Y20350D01*
X33250Y38100D02*
X33550D01*
X33400Y37950D02*
Y38250D01*
X53750Y57250D02*
X54050D01*
X53900Y57100D02*
Y57400D01*
X50850Y53500D02*
X51150D01*
X51000Y53350D02*
Y53650D01*
X42850Y53500D02*
X43150D01*
X43000Y53350D02*
Y53650D01*
X32350Y14000D02*
X32650D01*
X32500Y13850D02*
Y14150D01*
X32350Y21200D02*
X32650D01*
X32500Y21050D02*
Y21350D01*
X15850Y31000D02*
X16150D01*
X16000Y30850D02*
Y31150D01*
X12850Y31000D02*
X13150D01*
X13000Y30850D02*
Y31150D01*
X9850Y31000D02*
X10150D01*
X10000Y30850D02*
Y31150D01*
X49250Y74600D02*
X49550D01*
X49400Y74450D02*
Y74750D01*
X49250Y69400D02*
X49550D01*
X49400Y69250D02*
Y69550D01*
X21850Y69460D02*
X22150D01*
X22000Y69310D02*
Y69610D01*
X21850Y61840D02*
X22150D01*
X22000Y61690D02*
Y61990D01*
%TF.MD5,56ec0fa1b717ceb4adc9601a8b103081*%
M02*
