%TF.GenerationSoftware,Altium Limited,Altium Designer,25.2.1 (25)*%
G04 Layer_Physical_Order=2*
G04 Layer_Color=36540*
%FSLAX43Y43*%
%MOMM*%
%TF.SameCoordinates,B664DB7D-B6DB-4AC9-9DB7-209C64ECDA10*%
%TF.FilePolarity,Positive*%
%TF.FileFunction,Copper,L2,Inr,Signal*%
%TF.Part,Single*%
G01*
G75*
%TA.AperFunction,ComponentPad*%
%ADD15C,1.500*%
%ADD16R,1.500X1.500*%
%ADD17C,3.000*%
%ADD18C,1.524*%
%ADD19C,2.775*%
%ADD20C,2.000*%
%ADD21C,5.000*%
%ADD22O,1.900X1.550*%
%ADD23O,2.000X1.580*%
%ADD24C,6.000*%
%TA.AperFunction,ViaPad*%
%ADD25C,0.700*%
G36*
X56637Y88023D02*
X57259Y87874D01*
X57849Y87629D01*
X58394Y87295D01*
X58880Y86880D01*
X59295Y86394D01*
X59629Y85849D01*
X59874Y85259D01*
X60023Y84637D01*
X60071Y84030D01*
X60065Y84000D01*
Y4500D01*
X60071Y4470D01*
X60023Y3863D01*
X59874Y3241D01*
X59629Y2651D01*
X59295Y2106D01*
X58880Y1620D01*
X58394Y1205D01*
X57849Y871D01*
X57259Y626D01*
X56637Y477D01*
X56030Y429D01*
X56000Y435D01*
X4500D01*
X4470Y429D01*
X3863Y477D01*
X3241Y626D01*
X2651Y871D01*
X2106Y1205D01*
X1620Y1620D01*
X1205Y2106D01*
X871Y2651D01*
X626Y3241D01*
X477Y3863D01*
X429Y4470D01*
X435Y4500D01*
Y84000D01*
X429Y84030D01*
X477Y84637D01*
X626Y85259D01*
X871Y85849D01*
X1205Y86394D01*
X1620Y86880D01*
X2106Y87295D01*
X2651Y87629D01*
X3241Y87874D01*
X3863Y88023D01*
X4470Y88071D01*
X4500Y88065D01*
X56000D01*
X56030Y88071D01*
X56637Y88023D01*
D02*
G37*
%LPC*%
G36*
X44666Y78387D02*
X44334D01*
X44008Y78323D01*
X43701Y78195D01*
X43424Y78011D01*
X43189Y77776D01*
X43005Y77499D01*
X42877Y77192D01*
X42812Y76866D01*
Y76534D01*
X42877Y76208D01*
X43005Y75901D01*
X43189Y75624D01*
X43424Y75389D01*
X43701Y75205D01*
X44008Y75077D01*
X44334Y75012D01*
X44666D01*
X44992Y75077D01*
X45299Y75205D01*
X45576Y75389D01*
X45811Y75624D01*
X45995Y75901D01*
X46123Y76208D01*
X46188Y76534D01*
Y76866D01*
X46123Y77192D01*
X45995Y77499D01*
X45811Y77776D01*
X45576Y78011D01*
X45299Y78195D01*
X44992Y78323D01*
X44666Y78387D01*
D02*
G37*
G36*
X49486Y75250D02*
X49314D01*
X49149Y75206D01*
X49001Y75120D01*
X48880Y74999D01*
X48794Y74851D01*
X48750Y74686D01*
Y74514D01*
X48794Y74349D01*
X48880Y74201D01*
X49001Y74080D01*
X49149Y73994D01*
X49314Y73950D01*
X49486D01*
X49651Y73994D01*
X49799Y74080D01*
X49920Y74201D01*
X50006Y74349D01*
X50050Y74514D01*
Y74686D01*
X50006Y74851D01*
X49920Y74999D01*
X49799Y75120D01*
X49651Y75206D01*
X49486Y75250D01*
D02*
G37*
G36*
X28957Y77230D02*
X28603D01*
X28255Y77161D01*
X27927Y77025D01*
X27633Y76828D01*
X27382Y76577D01*
X27185Y76283D01*
X27049Y75955D01*
X26980Y75607D01*
Y75253D01*
X27049Y74905D01*
X27185Y74577D01*
X27382Y74283D01*
X27633Y74032D01*
X27927Y73835D01*
X28255Y73699D01*
X28603Y73630D01*
X28957D01*
X29305Y73699D01*
X29633Y73835D01*
X29927Y74032D01*
X30178Y74283D01*
X30375Y74577D01*
X30511Y74905D01*
X30580Y75253D01*
Y75607D01*
X30511Y75955D01*
X30375Y76283D01*
X30178Y76577D01*
X29927Y76828D01*
X29633Y77025D01*
X29305Y77161D01*
X28957Y77230D01*
D02*
G37*
G36*
X4447D02*
X4093D01*
X3745Y77161D01*
X3417Y77025D01*
X3123Y76828D01*
X2872Y76577D01*
X2675Y76283D01*
X2539Y75955D01*
X2470Y75607D01*
Y75253D01*
X2539Y74905D01*
X2675Y74577D01*
X2872Y74283D01*
X3123Y74032D01*
X3417Y73835D01*
X3745Y73699D01*
X4093Y73630D01*
X4447D01*
X4795Y73699D01*
X5123Y73835D01*
X5417Y74032D01*
X5668Y74283D01*
X5865Y74577D01*
X6001Y74905D01*
X6070Y75253D01*
Y75607D01*
X6001Y75955D01*
X5865Y76283D01*
X5668Y76577D01*
X5417Y76828D01*
X5123Y77025D01*
X4795Y77161D01*
X4447Y77230D01*
D02*
G37*
G36*
X57366Y76228D02*
X57034D01*
X56708Y76163D01*
X56401Y76035D01*
X56124Y75851D01*
X55889Y75616D01*
X55705Y75339D01*
X55577Y75032D01*
X55513Y74706D01*
Y74374D01*
X55577Y74048D01*
X55705Y73741D01*
X55889Y73464D01*
X56124Y73229D01*
X56401Y73045D01*
X56708Y72917D01*
X57034Y72853D01*
X57366D01*
X57692Y72917D01*
X57999Y73045D01*
X58276Y73229D01*
X58511Y73464D01*
X58695Y73741D01*
X58823Y74048D01*
X58888Y74374D01*
Y74706D01*
X58823Y75032D01*
X58695Y75339D01*
X58511Y75616D01*
X58276Y75851D01*
X57999Y76035D01*
X57692Y76163D01*
X57366Y76228D01*
D02*
G37*
G36*
X29340Y73062D02*
X29060D01*
X28790Y72990D01*
X28548Y72850D01*
X28350Y72652D01*
X28210Y72410D01*
X28138Y72140D01*
Y71860D01*
X28210Y71590D01*
X28350Y71348D01*
X28548Y71150D01*
X28790Y71010D01*
X29060Y70938D01*
X29340D01*
X29610Y71010D01*
X29852Y71150D01*
X30050Y71348D01*
X30190Y71590D01*
X30262Y71860D01*
Y72140D01*
X30190Y72410D01*
X30050Y72652D01*
X29852Y72850D01*
X29610Y72990D01*
X29340Y73062D01*
D02*
G37*
G36*
X3940D02*
X3660D01*
X3390Y72990D01*
X3148Y72850D01*
X2950Y72652D01*
X2810Y72410D01*
X2738Y72140D01*
Y71860D01*
X2810Y71590D01*
X2950Y71348D01*
X3148Y71150D01*
X3390Y71010D01*
X3660Y70938D01*
X3940D01*
X4210Y71010D01*
X4452Y71150D01*
X4650Y71348D01*
X4790Y71590D01*
X4862Y71860D01*
Y72140D01*
X4790Y72410D01*
X4650Y72652D01*
X4452Y72850D01*
X4210Y72990D01*
X3940Y73062D01*
D02*
G37*
G36*
X22086Y70110D02*
X21914D01*
X21749Y70066D01*
X21601Y69980D01*
X21480Y69859D01*
X21394Y69711D01*
X21350Y69546D01*
Y69374D01*
X21394Y69209D01*
X21480Y69061D01*
X21601Y68940D01*
X21749Y68854D01*
X21914Y68810D01*
X22086D01*
X22251Y68854D01*
X22399Y68940D01*
X22520Y69061D01*
X22606Y69209D01*
X22650Y69374D01*
Y69546D01*
X22606Y69711D01*
X22520Y69859D01*
X22399Y69980D01*
X22251Y70066D01*
X22086Y70110D01*
D02*
G37*
G36*
X49486Y70050D02*
X49314D01*
X49149Y70006D01*
X49001Y69920D01*
X48880Y69799D01*
X48794Y69651D01*
X48750Y69486D01*
Y69314D01*
X48794Y69149D01*
X48880Y69001D01*
X49001Y68880D01*
X49149Y68794D01*
X49314Y68750D01*
X49486D01*
X49651Y68794D01*
X49799Y68880D01*
X49920Y69001D01*
X50006Y69149D01*
X50050Y69314D01*
Y69486D01*
X50006Y69651D01*
X49920Y69799D01*
X49799Y69920D01*
X49651Y70006D01*
X49486Y70050D01*
D02*
G37*
G36*
X29340Y70522D02*
X29060D01*
X28790Y70450D01*
X28548Y70310D01*
X28350Y70112D01*
X28210Y69870D01*
X28138Y69600D01*
Y69320D01*
X28210Y69050D01*
X28350Y68808D01*
X28548Y68610D01*
X28790Y68470D01*
X29060Y68398D01*
X29340D01*
X29610Y68470D01*
X29852Y68610D01*
X30050Y68808D01*
X30190Y69050D01*
X30262Y69320D01*
Y69600D01*
X30190Y69870D01*
X30050Y70112D01*
X29852Y70310D01*
X29610Y70450D01*
X29340Y70522D01*
D02*
G37*
G36*
X3940D02*
X3660D01*
X3390Y70450D01*
X3148Y70310D01*
X2950Y70112D01*
X2810Y69870D01*
X2738Y69600D01*
Y69320D01*
X2810Y69050D01*
X2950Y68808D01*
X3148Y68610D01*
X3390Y68470D01*
X3660Y68398D01*
X3940D01*
X4210Y68470D01*
X4452Y68610D01*
X4650Y68808D01*
X4790Y69050D01*
X4862Y69320D01*
Y69600D01*
X4790Y69870D01*
X4650Y70112D01*
X4452Y70310D01*
X4210Y70450D01*
X3940Y70522D01*
D02*
G37*
G36*
X57366Y71147D02*
X57034D01*
X56708Y71083D01*
X56401Y70955D01*
X56124Y70771D01*
X55889Y70536D01*
X55705Y70259D01*
X55577Y69952D01*
X55513Y69626D01*
Y69294D01*
X55577Y68968D01*
X55705Y68661D01*
X55889Y68384D01*
X56124Y68149D01*
X56401Y67965D01*
X56708Y67837D01*
X57034Y67772D01*
X57366D01*
X57692Y67837D01*
X57999Y67965D01*
X58276Y68149D01*
X58511Y68384D01*
X58695Y68661D01*
X58823Y68968D01*
X58888Y69294D01*
Y69626D01*
X58823Y69952D01*
X58695Y70259D01*
X58511Y70536D01*
X58276Y70771D01*
X57999Y70955D01*
X57692Y71083D01*
X57366Y71147D01*
D02*
G37*
G36*
X29340Y67982D02*
X29060D01*
X28790Y67910D01*
X28548Y67770D01*
X28350Y67572D01*
X28210Y67330D01*
X28138Y67060D01*
Y66780D01*
X28210Y66510D01*
X28350Y66268D01*
X28548Y66070D01*
X28790Y65930D01*
X29060Y65858D01*
X29340D01*
X29610Y65930D01*
X29852Y66070D01*
X30050Y66268D01*
X30190Y66510D01*
X30262Y66780D01*
Y67060D01*
X30190Y67330D01*
X30050Y67572D01*
X29852Y67770D01*
X29610Y67910D01*
X29340Y67982D01*
D02*
G37*
G36*
X3940D02*
X3660D01*
X3390Y67910D01*
X3148Y67770D01*
X2950Y67572D01*
X2810Y67330D01*
X2738Y67060D01*
Y66780D01*
X2810Y66510D01*
X2950Y66268D01*
X3148Y66070D01*
X3390Y65930D01*
X3660Y65858D01*
X3940D01*
X4210Y65930D01*
X4452Y66070D01*
X4650Y66268D01*
X4790Y66510D01*
X4862Y66780D01*
Y67060D01*
X4790Y67330D01*
X4650Y67572D01*
X4452Y67770D01*
X4210Y67910D01*
X3940Y67982D01*
D02*
G37*
G36*
X44666Y68988D02*
X44334D01*
X44008Y68923D01*
X43701Y68795D01*
X43424Y68611D01*
X43189Y68376D01*
X43005Y68099D01*
X42877Y67792D01*
X42812Y67466D01*
Y67134D01*
X42877Y66808D01*
X43005Y66501D01*
X43189Y66224D01*
X43424Y65989D01*
X43701Y65805D01*
X44008Y65677D01*
X44334Y65613D01*
X44666D01*
X44992Y65677D01*
X45299Y65805D01*
X45576Y65989D01*
X45811Y66224D01*
X45995Y66501D01*
X46123Y66808D01*
X46188Y67134D01*
Y67466D01*
X46123Y67792D01*
X45995Y68099D01*
X45811Y68376D01*
X45576Y68611D01*
X45299Y68795D01*
X44992Y68923D01*
X44666Y68988D01*
D02*
G37*
G36*
X29340Y65442D02*
X29060D01*
X28790Y65370D01*
X28548Y65230D01*
X28350Y65032D01*
X28210Y64790D01*
X28138Y64520D01*
Y64240D01*
X28210Y63970D01*
X28350Y63728D01*
X28548Y63530D01*
X28790Y63390D01*
X29060Y63318D01*
X29340D01*
X29610Y63390D01*
X29852Y63530D01*
X30050Y63728D01*
X30190Y63970D01*
X30262Y64240D01*
Y64520D01*
X30190Y64790D01*
X30050Y65032D01*
X29852Y65230D01*
X29610Y65370D01*
X29340Y65442D01*
D02*
G37*
G36*
X3940D02*
X3660D01*
X3390Y65370D01*
X3148Y65230D01*
X2950Y65032D01*
X2810Y64790D01*
X2738Y64520D01*
Y64240D01*
X2810Y63970D01*
X2950Y63728D01*
X3148Y63530D01*
X3390Y63390D01*
X3660Y63318D01*
X3940D01*
X4210Y63390D01*
X4452Y63530D01*
X4650Y63728D01*
X4790Y63970D01*
X4862Y64240D01*
Y64520D01*
X4790Y64790D01*
X4650Y65032D01*
X4452Y65230D01*
X4210Y65370D01*
X3940Y65442D01*
D02*
G37*
G36*
X38138Y63550D02*
X37862D01*
X37595Y63478D01*
X37355Y63340D01*
X37160Y63145D01*
X37022Y62905D01*
X36950Y62638D01*
Y62362D01*
X37022Y62095D01*
X37160Y61855D01*
X37355Y61660D01*
X37595Y61522D01*
X37862Y61450D01*
X38138D01*
X38405Y61522D01*
X38645Y61660D01*
X38840Y61855D01*
X38978Y62095D01*
X39050Y62362D01*
Y62638D01*
X38978Y62905D01*
X38840Y63145D01*
X38645Y63340D01*
X38405Y63478D01*
X38138Y63550D01*
D02*
G37*
G36*
X22086Y62490D02*
X21914D01*
X21749Y62446D01*
X21601Y62360D01*
X21480Y62239D01*
X21394Y62091D01*
X21350Y61926D01*
Y61754D01*
X21394Y61589D01*
X21480Y61441D01*
X21601Y61320D01*
X21749Y61234D01*
X21914Y61190D01*
X22086D01*
X22251Y61234D01*
X22399Y61320D01*
X22520Y61441D01*
X22606Y61589D01*
X22650Y61754D01*
Y61926D01*
X22606Y62091D01*
X22520Y62239D01*
X22399Y62360D01*
X22251Y62446D01*
X22086Y62490D01*
D02*
G37*
G36*
X29340Y62902D02*
X29060D01*
X28790Y62830D01*
X28548Y62690D01*
X28350Y62492D01*
X28210Y62250D01*
X28138Y61980D01*
Y61700D01*
X28210Y61430D01*
X28350Y61188D01*
X28548Y60990D01*
X28790Y60850D01*
X29060Y60778D01*
X29340D01*
X29610Y60850D01*
X29852Y60990D01*
X30050Y61188D01*
X30190Y61430D01*
X30262Y61700D01*
Y61980D01*
X30190Y62250D01*
X30050Y62492D01*
X29852Y62690D01*
X29610Y62830D01*
X29340Y62902D01*
D02*
G37*
G36*
X3940D02*
X3660D01*
X3390Y62830D01*
X3148Y62690D01*
X2950Y62492D01*
X2810Y62250D01*
X2738Y61980D01*
Y61700D01*
X2810Y61430D01*
X2950Y61188D01*
X3148Y60990D01*
X3390Y60850D01*
X3660Y60778D01*
X3940D01*
X4210Y60850D01*
X4452Y60990D01*
X4650Y61188D01*
X4790Y61430D01*
X4862Y61700D01*
Y61980D01*
X4790Y62250D01*
X4650Y62492D01*
X4452Y62690D01*
X4210Y62830D01*
X3940Y62902D01*
D02*
G37*
G36*
X29340Y60362D02*
X29060D01*
X28790Y60290D01*
X28548Y60150D01*
X28350Y59952D01*
X28210Y59710D01*
X28138Y59440D01*
Y59160D01*
X28210Y58890D01*
X28350Y58648D01*
X28548Y58450D01*
X28790Y58310D01*
X29060Y58238D01*
X29340D01*
X29610Y58310D01*
X29852Y58450D01*
X30050Y58648D01*
X30190Y58890D01*
X30262Y59160D01*
Y59440D01*
X30190Y59710D01*
X30050Y59952D01*
X29852Y60150D01*
X29610Y60290D01*
X29340Y60362D01*
D02*
G37*
G36*
X3940D02*
X3660D01*
X3390Y60290D01*
X3148Y60150D01*
X2950Y59952D01*
X2810Y59710D01*
X2738Y59440D01*
Y59160D01*
X2810Y58890D01*
X2950Y58648D01*
X3148Y58450D01*
X3390Y58310D01*
X3660Y58238D01*
X3940D01*
X4210Y58310D01*
X4452Y58450D01*
X4650Y58648D01*
X4790Y58890D01*
X4862Y59160D01*
Y59440D01*
X4790Y59710D01*
X4650Y59952D01*
X4452Y60150D01*
X4210Y60290D01*
X3940Y60362D01*
D02*
G37*
G36*
X38138Y59050D02*
X37862D01*
X37595Y58978D01*
X37355Y58840D01*
X37160Y58645D01*
X37022Y58405D01*
X36950Y58138D01*
Y57862D01*
X37022Y57595D01*
X37160Y57355D01*
X37355Y57160D01*
X37595Y57022D01*
X37862Y56950D01*
X38138D01*
X38405Y57022D01*
X38645Y57160D01*
X38840Y57355D01*
X38978Y57595D01*
X39050Y57862D01*
Y58138D01*
X38978Y58405D01*
X38840Y58645D01*
X38645Y58840D01*
X38405Y58978D01*
X38138Y59050D01*
D02*
G37*
G36*
X53986Y57900D02*
X53814D01*
X53649Y57856D01*
X53501Y57770D01*
X53380Y57649D01*
X53294Y57501D01*
X53250Y57336D01*
Y57164D01*
X53294Y56999D01*
X53380Y56851D01*
X53501Y56730D01*
X53649Y56644D01*
X53814Y56600D01*
X53986D01*
X54151Y56644D01*
X54299Y56730D01*
X54420Y56851D01*
X54506Y56999D01*
X54550Y57164D01*
Y57336D01*
X54506Y57501D01*
X54420Y57649D01*
X54299Y57770D01*
X54151Y57856D01*
X53986Y57900D01*
D02*
G37*
G36*
X29340Y57822D02*
X29060D01*
X28790Y57750D01*
X28548Y57610D01*
X28350Y57412D01*
X28210Y57170D01*
X28138Y56900D01*
Y56620D01*
X28210Y56350D01*
X28350Y56108D01*
X28548Y55910D01*
X28790Y55770D01*
X29060Y55698D01*
X29340D01*
X29610Y55770D01*
X29852Y55910D01*
X30050Y56108D01*
X30190Y56350D01*
X30262Y56620D01*
Y56900D01*
X30190Y57170D01*
X30050Y57412D01*
X29852Y57610D01*
X29610Y57750D01*
X29340Y57822D01*
D02*
G37*
G36*
X3940D02*
X3660D01*
X3390Y57750D01*
X3148Y57610D01*
X2950Y57412D01*
X2810Y57170D01*
X2738Y56900D01*
Y56620D01*
X2810Y56350D01*
X2950Y56108D01*
X3148Y55910D01*
X3390Y55770D01*
X3660Y55698D01*
X3940D01*
X4210Y55770D01*
X4452Y55910D01*
X4650Y56108D01*
X4790Y56350D01*
X4862Y56620D01*
Y56900D01*
X4790Y57170D01*
X4650Y57412D01*
X4452Y57610D01*
X4210Y57750D01*
X3940Y57822D01*
D02*
G37*
G36*
X44086Y56900D02*
X43914D01*
X43749Y56856D01*
X43601Y56770D01*
X43480Y56649D01*
X43394Y56501D01*
X43350Y56336D01*
Y56164D01*
X43394Y55999D01*
X43480Y55851D01*
X43601Y55730D01*
X43749Y55644D01*
X43914Y55600D01*
X44086D01*
X44251Y55644D01*
X44399Y55730D01*
X44520Y55851D01*
X44606Y55999D01*
X44650Y56164D01*
Y56336D01*
X44606Y56501D01*
X44520Y56649D01*
X44399Y56770D01*
X44251Y56856D01*
X44086Y56900D01*
D02*
G37*
G36*
X51086Y56650D02*
X50914D01*
X50749Y56606D01*
X50601Y56520D01*
X50480Y56399D01*
X50394Y56251D01*
X50350Y56086D01*
Y55914D01*
X50394Y55749D01*
X50480Y55601D01*
X50601Y55480D01*
X50749Y55394D01*
X50914Y55350D01*
X51086D01*
X51251Y55394D01*
X51399Y55480D01*
X51520Y55601D01*
X51606Y55749D01*
X51650Y55914D01*
Y56086D01*
X51606Y56251D01*
X51520Y56399D01*
X51399Y56520D01*
X51251Y56606D01*
X51086Y56650D01*
D02*
G37*
G36*
X29340Y55282D02*
X29060D01*
X28790Y55210D01*
X28548Y55070D01*
X28350Y54872D01*
X28210Y54630D01*
X28138Y54360D01*
Y54080D01*
X28210Y53810D01*
X28350Y53568D01*
X28548Y53370D01*
X28790Y53230D01*
X29060Y53158D01*
X29340D01*
X29610Y53230D01*
X29852Y53370D01*
X30050Y53568D01*
X30190Y53810D01*
X30262Y54080D01*
Y54360D01*
X30190Y54630D01*
X30050Y54872D01*
X29852Y55070D01*
X29610Y55210D01*
X29340Y55282D01*
D02*
G37*
G36*
X3940D02*
X3660D01*
X3390Y55210D01*
X3148Y55070D01*
X2950Y54872D01*
X2810Y54630D01*
X2738Y54360D01*
Y54080D01*
X2810Y53810D01*
X2950Y53568D01*
X3148Y53370D01*
X3390Y53230D01*
X3660Y53158D01*
X3940D01*
X4210Y53230D01*
X4452Y53370D01*
X4650Y53568D01*
X4790Y53810D01*
X4862Y54080D01*
Y54360D01*
X4790Y54630D01*
X4650Y54872D01*
X4452Y55070D01*
X4210Y55210D01*
X3940Y55282D01*
D02*
G37*
G36*
X51086Y54150D02*
X50914D01*
X50749Y54106D01*
X50601Y54020D01*
X50480Y53899D01*
X50394Y53751D01*
X50350Y53586D01*
Y53414D01*
X50394Y53249D01*
X50480Y53101D01*
X50601Y52980D01*
X50749Y52894D01*
X50914Y52850D01*
X51086D01*
X51251Y52894D01*
X51399Y52980D01*
X51520Y53101D01*
X51606Y53249D01*
X51650Y53414D01*
Y53586D01*
X51606Y53751D01*
X51520Y53899D01*
X51399Y54020D01*
X51251Y54106D01*
X51086Y54150D01*
D02*
G37*
G36*
X43086D02*
X42914D01*
X42749Y54106D01*
X42601Y54020D01*
X42480Y53899D01*
X42394Y53751D01*
X42350Y53586D01*
Y53414D01*
X42394Y53249D01*
X42480Y53101D01*
X42601Y52980D01*
X42749Y52894D01*
X42914Y52850D01*
X43086D01*
X43251Y52894D01*
X43399Y52980D01*
X43520Y53101D01*
X43606Y53249D01*
X43650Y53414D01*
Y53586D01*
X43606Y53751D01*
X43520Y53899D01*
X43399Y54020D01*
X43251Y54106D01*
X43086Y54150D01*
D02*
G37*
G36*
X36086Y53650D02*
X35914D01*
X35749Y53606D01*
X35601Y53520D01*
X35480Y53399D01*
X35394Y53251D01*
X35350Y53086D01*
Y52914D01*
X35394Y52749D01*
X35480Y52601D01*
X35601Y52480D01*
X35749Y52394D01*
X35914Y52350D01*
X36086D01*
X36251Y52394D01*
X36399Y52480D01*
X36520Y52601D01*
X36606Y52749D01*
X36650Y52914D01*
Y53086D01*
X36606Y53251D01*
X36520Y53399D01*
X36399Y53520D01*
X36251Y53606D01*
X36086Y53650D01*
D02*
G37*
G36*
X29340Y52742D02*
X29060D01*
X28790Y52670D01*
X28548Y52530D01*
X28350Y52332D01*
X28210Y52090D01*
X28138Y51820D01*
Y51540D01*
X28210Y51270D01*
X28350Y51028D01*
X28548Y50830D01*
X28790Y50690D01*
X29060Y50618D01*
X29340D01*
X29610Y50690D01*
X29852Y50830D01*
X30050Y51028D01*
X30190Y51270D01*
X30262Y51540D01*
Y51820D01*
X30190Y52090D01*
X30050Y52332D01*
X29852Y52530D01*
X29610Y52670D01*
X29340Y52742D01*
D02*
G37*
G36*
X3940D02*
X3660D01*
X3390Y52670D01*
X3148Y52530D01*
X2950Y52332D01*
X2810Y52090D01*
X2738Y51820D01*
Y51540D01*
X2810Y51270D01*
X2950Y51028D01*
X3148Y50830D01*
X3390Y50690D01*
X3660Y50618D01*
X3940D01*
X4210Y50690D01*
X4452Y50830D01*
X4650Y51028D01*
X4790Y51270D01*
X4862Y51540D01*
Y51820D01*
X4790Y52090D01*
X4650Y52332D01*
X4452Y52530D01*
X4210Y52670D01*
X3940Y52742D01*
D02*
G37*
G36*
X29340Y50202D02*
X29060D01*
X28790Y50130D01*
X28548Y49990D01*
X28350Y49792D01*
X28210Y49550D01*
X28138Y49280D01*
Y49000D01*
X28210Y48730D01*
X28350Y48488D01*
X28548Y48290D01*
X28790Y48150D01*
X29060Y48078D01*
X29340D01*
X29610Y48150D01*
X29852Y48290D01*
X30050Y48488D01*
X30190Y48730D01*
X30262Y49000D01*
Y49280D01*
X30190Y49550D01*
X30050Y49792D01*
X29852Y49990D01*
X29610Y50130D01*
X29340Y50202D01*
D02*
G37*
G36*
X3940D02*
X3660D01*
X3390Y50130D01*
X3148Y49990D01*
X2950Y49792D01*
X2810Y49550D01*
X2738Y49280D01*
Y49000D01*
X2810Y48730D01*
X2950Y48488D01*
X3148Y48290D01*
X3390Y48150D01*
X3660Y48078D01*
X3940D01*
X4210Y48150D01*
X4452Y48290D01*
X4650Y48488D01*
X4790Y48730D01*
X4862Y49000D01*
Y49280D01*
X4790Y49550D01*
X4650Y49792D01*
X4452Y49990D01*
X4210Y50130D01*
X3940Y50202D01*
D02*
G37*
G36*
X29340Y47662D02*
X29060D01*
X28790Y47590D01*
X28548Y47450D01*
X28350Y47252D01*
X28210Y47010D01*
X28138Y46740D01*
Y46460D01*
X28210Y46190D01*
X28350Y45948D01*
X28548Y45750D01*
X28790Y45610D01*
X29060Y45538D01*
X29340D01*
X29610Y45610D01*
X29852Y45750D01*
X30050Y45948D01*
X30190Y46190D01*
X30262Y46460D01*
Y46740D01*
X30190Y47010D01*
X30050Y47252D01*
X29852Y47450D01*
X29610Y47590D01*
X29340Y47662D01*
D02*
G37*
G36*
X3940D02*
X3660D01*
X3390Y47590D01*
X3148Y47450D01*
X2950Y47252D01*
X2810Y47010D01*
X2738Y46740D01*
Y46460D01*
X2810Y46190D01*
X2950Y45948D01*
X3148Y45750D01*
X3390Y45610D01*
X3660Y45538D01*
X3940D01*
X4210Y45610D01*
X4452Y45750D01*
X4650Y45948D01*
X4790Y46190D01*
X4862Y46460D01*
Y46740D01*
X4790Y47010D01*
X4650Y47252D01*
X4452Y47450D01*
X4210Y47590D01*
X3940Y47662D01*
D02*
G37*
G36*
X45508Y47090D02*
X45232D01*
X44965Y47019D01*
X44725Y46880D01*
X44530Y46685D01*
X44392Y46445D01*
X44320Y46178D01*
Y45902D01*
X44392Y45635D01*
X44530Y45395D01*
X44725Y45200D01*
X44965Y45062D01*
X45232Y44990D01*
X45508D01*
X45775Y45062D01*
X46015Y45200D01*
X46210Y45395D01*
X46348Y45635D01*
X46420Y45902D01*
Y46178D01*
X46348Y46445D01*
X46210Y46685D01*
X46015Y46880D01*
X45775Y47019D01*
X45508Y47090D01*
D02*
G37*
G36*
X48048Y47090D02*
X47772D01*
X47505Y47018D01*
X47265Y46880D01*
X47070Y46685D01*
X46932Y46445D01*
X46860Y46178D01*
Y45902D01*
X46932Y45635D01*
X47070Y45395D01*
X47265Y45200D01*
X47505Y45062D01*
X47772Y44990D01*
X48048D01*
X48315Y45062D01*
X48555Y45200D01*
X48750Y45395D01*
X48888Y45635D01*
X48960Y45902D01*
Y46178D01*
X48888Y46445D01*
X48750Y46685D01*
X48555Y46880D01*
X48315Y47018D01*
X48048Y47090D01*
D02*
G37*
G36*
X42968D02*
X42692D01*
X42425Y47018D01*
X42185Y46880D01*
X41990Y46685D01*
X41852Y46445D01*
X41780Y46178D01*
Y45902D01*
X41852Y45635D01*
X41990Y45395D01*
X42185Y45200D01*
X42425Y45062D01*
X42692Y44990D01*
X42968D01*
X43235Y45062D01*
X43475Y45200D01*
X43670Y45395D01*
X43808Y45635D01*
X43880Y45902D01*
Y46178D01*
X43808Y46445D01*
X43670Y46685D01*
X43475Y46880D01*
X43235Y47018D01*
X42968Y47090D01*
D02*
G37*
G36*
X40428D02*
X40152D01*
X39885Y47018D01*
X39645Y46880D01*
X39450Y46685D01*
X39312Y46445D01*
X39240Y46178D01*
Y45902D01*
X39312Y45635D01*
X39450Y45395D01*
X39645Y45200D01*
X39885Y45062D01*
X40152Y44990D01*
X40428D01*
X40695Y45062D01*
X40935Y45200D01*
X41130Y45395D01*
X41268Y45635D01*
X41340Y45902D01*
Y46178D01*
X41268Y46445D01*
X41130Y46685D01*
X40935Y46880D01*
X40695Y47018D01*
X40428Y47090D01*
D02*
G37*
G36*
X37888D02*
X37612D01*
X37345Y47018D01*
X37105Y46880D01*
X36910Y46685D01*
X36772Y46445D01*
X36700Y46178D01*
Y45902D01*
X36772Y45635D01*
X36910Y45395D01*
X37105Y45200D01*
X37345Y45062D01*
X37612Y44990D01*
X37888D01*
X38155Y45062D01*
X38395Y45200D01*
X38590Y45395D01*
X38728Y45635D01*
X38800Y45902D01*
Y46178D01*
X38728Y46445D01*
X38590Y46685D01*
X38395Y46880D01*
X38155Y47018D01*
X37888Y47090D01*
D02*
G37*
G36*
X55668Y47090D02*
X55392D01*
X55125Y47018D01*
X54885Y46880D01*
X54690Y46685D01*
X54552Y46445D01*
X54480Y46178D01*
Y45902D01*
X54552Y45635D01*
X54690Y45395D01*
X54885Y45200D01*
X55125Y45061D01*
X55392Y44990D01*
X55668D01*
X55935Y45061D01*
X56175Y45200D01*
X56370Y45395D01*
X56508Y45635D01*
X56580Y45902D01*
Y46178D01*
X56508Y46445D01*
X56370Y46685D01*
X56175Y46880D01*
X55935Y47018D01*
X55668Y47090D01*
D02*
G37*
G36*
X53128D02*
X52852D01*
X52585Y47018D01*
X52345Y46880D01*
X52150Y46685D01*
X52012Y46445D01*
X51940Y46178D01*
Y45902D01*
X52012Y45635D01*
X52150Y45395D01*
X52345Y45200D01*
X52585Y45061D01*
X52852Y44990D01*
X53128D01*
X53395Y45061D01*
X53635Y45200D01*
X53830Y45395D01*
X53968Y45635D01*
X54040Y45902D01*
Y46178D01*
X53968Y46445D01*
X53830Y46685D01*
X53635Y46880D01*
X53395Y47018D01*
X53128Y47090D01*
D02*
G37*
G36*
X50588D02*
X50312D01*
X50045Y47018D01*
X49805Y46880D01*
X49610Y46685D01*
X49472Y46445D01*
X49400Y46178D01*
Y45902D01*
X49472Y45635D01*
X49610Y45395D01*
X49805Y45200D01*
X50045Y45061D01*
X50312Y44990D01*
X50588D01*
X50855Y45061D01*
X51095Y45200D01*
X51290Y45395D01*
X51428Y45635D01*
X51500Y45902D01*
Y46178D01*
X51428Y46445D01*
X51290Y46685D01*
X51095Y46880D01*
X50855Y47018D01*
X50588Y47090D01*
D02*
G37*
G36*
X29340Y45122D02*
X29060D01*
X28790Y45050D01*
X28548Y44910D01*
X28350Y44712D01*
X28210Y44470D01*
X28138Y44200D01*
Y43920D01*
X28210Y43650D01*
X28350Y43408D01*
X28548Y43210D01*
X28790Y43070D01*
X29060Y42998D01*
X29340D01*
X29610Y43070D01*
X29852Y43210D01*
X30050Y43408D01*
X30190Y43650D01*
X30262Y43920D01*
Y44200D01*
X30190Y44470D01*
X30050Y44712D01*
X29852Y44910D01*
X29610Y45050D01*
X29340Y45122D01*
D02*
G37*
G36*
X3940D02*
X3660D01*
X3390Y45050D01*
X3148Y44910D01*
X2950Y44712D01*
X2810Y44470D01*
X2738Y44200D01*
Y43920D01*
X2810Y43650D01*
X2950Y43408D01*
X3148Y43210D01*
X3390Y43070D01*
X3660Y42998D01*
X3940D01*
X4210Y43070D01*
X4452Y43210D01*
X4650Y43408D01*
X4790Y43650D01*
X4862Y43920D01*
Y44200D01*
X4790Y44470D01*
X4650Y44712D01*
X4452Y44910D01*
X4210Y45050D01*
X3940Y45122D01*
D02*
G37*
G36*
X48048Y44550D02*
X47772D01*
X47505Y44478D01*
X47265Y44340D01*
X47070Y44145D01*
X46932Y43905D01*
X46860Y43638D01*
Y43362D01*
X46932Y43095D01*
X47070Y42855D01*
X47265Y42660D01*
X47505Y42522D01*
X47772Y42450D01*
X48048D01*
X48315Y42522D01*
X48555Y42660D01*
X48750Y42855D01*
X48888Y43095D01*
X48960Y43362D01*
Y43638D01*
X48888Y43905D01*
X48750Y44145D01*
X48555Y44340D01*
X48315Y44478D01*
X48048Y44550D01*
D02*
G37*
G36*
X45508D02*
X45232D01*
X44965Y44478D01*
X44725Y44340D01*
X44530Y44145D01*
X44392Y43905D01*
X44320Y43638D01*
Y43362D01*
X44392Y43095D01*
X44530Y42855D01*
X44725Y42660D01*
X44965Y42522D01*
X45232Y42450D01*
X45508D01*
X45775Y42522D01*
X46015Y42660D01*
X46210Y42855D01*
X46348Y43095D01*
X46420Y43362D01*
Y43638D01*
X46348Y43905D01*
X46210Y44145D01*
X46015Y44340D01*
X45775Y44478D01*
X45508Y44550D01*
D02*
G37*
G36*
X42968D02*
X42692D01*
X42425Y44478D01*
X42185Y44340D01*
X41990Y44145D01*
X41852Y43905D01*
X41780Y43638D01*
Y43362D01*
X41852Y43095D01*
X41990Y42855D01*
X42185Y42660D01*
X42425Y42522D01*
X42692Y42450D01*
X42968D01*
X43235Y42522D01*
X43475Y42660D01*
X43670Y42855D01*
X43808Y43095D01*
X43880Y43362D01*
Y43638D01*
X43808Y43905D01*
X43670Y44145D01*
X43475Y44340D01*
X43235Y44478D01*
X42968Y44550D01*
D02*
G37*
G36*
X40428D02*
X40152D01*
X39885Y44478D01*
X39645Y44340D01*
X39450Y44145D01*
X39312Y43905D01*
X39240Y43638D01*
Y43362D01*
X39312Y43095D01*
X39450Y42855D01*
X39645Y42660D01*
X39885Y42522D01*
X40152Y42450D01*
X40428D01*
X40695Y42522D01*
X40935Y42660D01*
X41130Y42855D01*
X41268Y43095D01*
X41340Y43362D01*
Y43638D01*
X41268Y43905D01*
X41130Y44145D01*
X40935Y44340D01*
X40695Y44478D01*
X40428Y44550D01*
D02*
G37*
G36*
X37888D02*
X37612D01*
X37345Y44478D01*
X37105Y44340D01*
X36910Y44145D01*
X36772Y43905D01*
X36700Y43638D01*
Y43362D01*
X36772Y43095D01*
X36910Y42855D01*
X37105Y42660D01*
X37345Y42522D01*
X37612Y42450D01*
X37888D01*
X38155Y42522D01*
X38395Y42660D01*
X38590Y42855D01*
X38728Y43095D01*
X38800Y43362D01*
Y43638D01*
X38728Y43905D01*
X38590Y44145D01*
X38395Y44340D01*
X38155Y44478D01*
X37888Y44550D01*
D02*
G37*
G36*
X29340Y42582D02*
X29060D01*
X28790Y42510D01*
X28548Y42370D01*
X28350Y42172D01*
X28210Y41930D01*
X28138Y41660D01*
Y41380D01*
X28210Y41110D01*
X28350Y40868D01*
X28548Y40670D01*
X28790Y40530D01*
X29060Y40458D01*
X29340D01*
X29610Y40530D01*
X29852Y40670D01*
X30050Y40868D01*
X30190Y41110D01*
X30262Y41380D01*
Y41660D01*
X30190Y41930D01*
X30050Y42172D01*
X29852Y42370D01*
X29610Y42510D01*
X29340Y42582D01*
D02*
G37*
G36*
X3940D02*
X3660D01*
X3390Y42510D01*
X3148Y42370D01*
X2950Y42172D01*
X2810Y41930D01*
X2738Y41660D01*
Y41380D01*
X2810Y41110D01*
X2950Y40868D01*
X3148Y40670D01*
X3390Y40530D01*
X3660Y40458D01*
X3940D01*
X4210Y40530D01*
X4452Y40670D01*
X4650Y40868D01*
X4790Y41110D01*
X4862Y41380D01*
Y41660D01*
X4790Y41930D01*
X4650Y42172D01*
X4452Y42370D01*
X4210Y42510D01*
X3940Y42582D01*
D02*
G37*
G36*
X29340Y37502D02*
X29060D01*
X28790Y37430D01*
X28548Y37290D01*
X28350Y37092D01*
X28210Y36850D01*
X28138Y36580D01*
Y36300D01*
X28210Y36030D01*
X28350Y35788D01*
X28548Y35590D01*
X28790Y35450D01*
X29060Y35378D01*
X29340D01*
X29610Y35450D01*
X29852Y35590D01*
X30050Y35788D01*
X30190Y36030D01*
X30262Y36300D01*
Y36580D01*
X30190Y36850D01*
X30050Y37092D01*
X29852Y37290D01*
X29610Y37430D01*
X29340Y37502D01*
D02*
G37*
G36*
X3940D02*
X3660D01*
X3390Y37430D01*
X3148Y37290D01*
X2950Y37092D01*
X2810Y36850D01*
X2738Y36580D01*
Y36300D01*
X2810Y36030D01*
X2950Y35788D01*
X3148Y35590D01*
X3390Y35450D01*
X3660Y35378D01*
X3940D01*
X4210Y35450D01*
X4452Y35590D01*
X4650Y35788D01*
X4790Y36030D01*
X4862Y36300D01*
Y36580D01*
X4790Y36850D01*
X4650Y37092D01*
X4452Y37290D01*
X4210Y37430D01*
X3940Y37502D01*
D02*
G37*
G36*
X53388Y35300D02*
X53112D01*
X52845Y35228D01*
X52605Y35090D01*
X52410Y34895D01*
X52272Y34655D01*
X52200Y34388D01*
Y34112D01*
X52272Y33845D01*
X52410Y33605D01*
X52605Y33410D01*
X52845Y33272D01*
X53112Y33200D01*
X53388D01*
X53655Y33272D01*
X53895Y33410D01*
X54090Y33605D01*
X54228Y33845D01*
X54300Y34112D01*
Y34388D01*
X54228Y34655D01*
X54090Y34895D01*
X53895Y35090D01*
X53655Y35228D01*
X53388Y35300D01*
D02*
G37*
G36*
X46888D02*
X46612D01*
X46345Y35228D01*
X46105Y35090D01*
X45910Y34895D01*
X45772Y34655D01*
X45700Y34388D01*
Y34112D01*
X45772Y33845D01*
X45910Y33605D01*
X46105Y33410D01*
X46345Y33272D01*
X46612Y33200D01*
X46888D01*
X47155Y33272D01*
X47395Y33410D01*
X47590Y33605D01*
X47728Y33845D01*
X47800Y34112D01*
Y34388D01*
X47728Y34655D01*
X47590Y34895D01*
X47395Y35090D01*
X47155Y35228D01*
X46888Y35300D01*
D02*
G37*
G36*
X44388D02*
X44112D01*
X43845Y35228D01*
X43605Y35090D01*
X43410Y34895D01*
X43272Y34655D01*
X43200Y34388D01*
Y34112D01*
X43272Y33845D01*
X43410Y33605D01*
X43605Y33410D01*
X43845Y33272D01*
X44112Y33200D01*
X44388D01*
X44655Y33272D01*
X44895Y33410D01*
X45090Y33605D01*
X45228Y33845D01*
X45300Y34112D01*
Y34388D01*
X45228Y34655D01*
X45090Y34895D01*
X44895Y35090D01*
X44655Y35228D01*
X44388Y35300D01*
D02*
G37*
G36*
X37888D02*
X37612D01*
X37345Y35228D01*
X37105Y35090D01*
X36910Y34895D01*
X36772Y34655D01*
X36700Y34388D01*
Y34112D01*
X36772Y33845D01*
X36910Y33605D01*
X37105Y33410D01*
X37345Y33272D01*
X37612Y33200D01*
X37888D01*
X38155Y33272D01*
X38395Y33410D01*
X38590Y33605D01*
X38728Y33845D01*
X38800Y34112D01*
Y34388D01*
X38728Y34655D01*
X38590Y34895D01*
X38395Y35090D01*
X38155Y35228D01*
X37888Y35300D01*
D02*
G37*
G36*
X16086Y31650D02*
X15914D01*
X15749Y31606D01*
X15601Y31520D01*
X15480Y31399D01*
X15394Y31251D01*
X15350Y31086D01*
Y30914D01*
X15394Y30749D01*
X15480Y30601D01*
X15601Y30480D01*
X15749Y30394D01*
X15914Y30350D01*
X16086D01*
X16251Y30394D01*
X16399Y30480D01*
X16520Y30601D01*
X16606Y30749D01*
X16650Y30914D01*
Y31086D01*
X16606Y31251D01*
X16520Y31399D01*
X16399Y31520D01*
X16251Y31606D01*
X16086Y31650D01*
D02*
G37*
G36*
X13086D02*
X12914D01*
X12749Y31606D01*
X12601Y31520D01*
X12480Y31399D01*
X12394Y31251D01*
X12350Y31086D01*
Y30914D01*
X12394Y30749D01*
X12480Y30601D01*
X12601Y30480D01*
X12749Y30394D01*
X12914Y30350D01*
X13086D01*
X13251Y30394D01*
X13399Y30480D01*
X13520Y30601D01*
X13606Y30749D01*
X13650Y30914D01*
Y31086D01*
X13606Y31251D01*
X13520Y31399D01*
X13399Y31520D01*
X13251Y31606D01*
X13086Y31650D01*
D02*
G37*
G36*
X10086D02*
X9914D01*
X9749Y31606D01*
X9601Y31520D01*
X9480Y31399D01*
X9394Y31251D01*
X9350Y31086D01*
Y30914D01*
X9394Y30749D01*
X9480Y30601D01*
X9601Y30480D01*
X9749Y30394D01*
X9914Y30350D01*
X10086D01*
X10251Y30394D01*
X10399Y30480D01*
X10520Y30601D01*
X10606Y30749D01*
X10650Y30914D01*
Y31086D01*
X10606Y31251D01*
X10520Y31399D01*
X10399Y31520D01*
X10251Y31606D01*
X10086Y31650D01*
D02*
G37*
G36*
X55140Y32042D02*
X54860D01*
X54590Y31970D01*
X54348Y31830D01*
X54150Y31632D01*
X54010Y31390D01*
X53938Y31120D01*
Y30840D01*
X54010Y30570D01*
X54150Y30328D01*
X54348Y30130D01*
X54590Y29990D01*
X54860Y29918D01*
X55140D01*
X55410Y29990D01*
X55652Y30130D01*
X55850Y30328D01*
X55990Y30570D01*
X56062Y30840D01*
Y31120D01*
X55990Y31390D01*
X55850Y31632D01*
X55652Y31830D01*
X55410Y31970D01*
X55140Y32042D01*
D02*
G37*
G36*
X50060D02*
X49780D01*
X49510Y31970D01*
X49268Y31830D01*
X49070Y31632D01*
X48930Y31390D01*
X48858Y31120D01*
Y30840D01*
X48930Y30570D01*
X49070Y30328D01*
X49268Y30130D01*
X49510Y29990D01*
X49780Y29918D01*
X50060D01*
X50330Y29990D01*
X50572Y30130D01*
X50770Y30328D01*
X50910Y30570D01*
X50982Y30840D01*
Y31120D01*
X50910Y31390D01*
X50770Y31632D01*
X50572Y31830D01*
X50330Y31970D01*
X50060Y32042D01*
D02*
G37*
G36*
X47520D02*
X47240D01*
X46970Y31970D01*
X46728Y31830D01*
X46530Y31632D01*
X46390Y31390D01*
X46318Y31120D01*
Y30840D01*
X46390Y30570D01*
X46530Y30328D01*
X46728Y30130D01*
X46970Y29990D01*
X47240Y29918D01*
X47520D01*
X47790Y29990D01*
X48032Y30130D01*
X48230Y30328D01*
X48370Y30570D01*
X48442Y30840D01*
Y31120D01*
X48370Y31390D01*
X48230Y31632D01*
X48032Y31830D01*
X47790Y31970D01*
X47520Y32042D01*
D02*
G37*
G36*
X44980D02*
X44700D01*
X44430Y31970D01*
X44188Y31830D01*
X43990Y31632D01*
X43850Y31390D01*
X43778Y31120D01*
Y30840D01*
X43850Y30570D01*
X43990Y30328D01*
X44188Y30130D01*
X44430Y29990D01*
X44700Y29918D01*
X44980D01*
X45250Y29990D01*
X45492Y30130D01*
X45690Y30328D01*
X45830Y30570D01*
X45902Y30840D01*
Y31120D01*
X45830Y31390D01*
X45690Y31632D01*
X45492Y31830D01*
X45250Y31970D01*
X44980Y32042D01*
D02*
G37*
G36*
X42440D02*
X42160D01*
X41890Y31970D01*
X41648Y31830D01*
X41450Y31632D01*
X41310Y31390D01*
X41238Y31120D01*
Y30840D01*
X41310Y30570D01*
X41450Y30328D01*
X41648Y30130D01*
X41890Y29990D01*
X42160Y29918D01*
X42440D01*
X42710Y29990D01*
X42952Y30130D01*
X43150Y30328D01*
X43290Y30570D01*
X43362Y30840D01*
Y31120D01*
X43290Y31390D01*
X43150Y31632D01*
X42952Y31830D01*
X42710Y31970D01*
X42440Y32042D01*
D02*
G37*
G36*
X39900D02*
X39620D01*
X39350Y31970D01*
X39108Y31830D01*
X38910Y31632D01*
X38770Y31390D01*
X38698Y31120D01*
Y30840D01*
X38770Y30570D01*
X38910Y30328D01*
X39108Y30130D01*
X39350Y29990D01*
X39620Y29918D01*
X39900D01*
X40170Y29990D01*
X40412Y30130D01*
X40610Y30328D01*
X40750Y30570D01*
X40822Y30840D01*
Y31120D01*
X40750Y31390D01*
X40610Y31632D01*
X40412Y31830D01*
X40170Y31970D01*
X39900Y32042D01*
D02*
G37*
G36*
X37360D02*
X37080D01*
X36810Y31970D01*
X36568Y31830D01*
X36370Y31632D01*
X36230Y31390D01*
X36158Y31120D01*
Y30840D01*
X36230Y30570D01*
X36370Y30328D01*
X36568Y30130D01*
X36810Y29990D01*
X37080Y29918D01*
X37360D01*
X37630Y29990D01*
X37872Y30130D01*
X38070Y30328D01*
X38210Y30570D01*
X38282Y30840D01*
Y31120D01*
X38210Y31390D01*
X38070Y31632D01*
X37872Y31830D01*
X37630Y31970D01*
X37360Y32042D01*
D02*
G37*
G36*
X28957Y30280D02*
X28603D01*
X28255Y30211D01*
X27927Y30075D01*
X27633Y29878D01*
X27382Y29627D01*
X27185Y29333D01*
X27049Y29005D01*
X26980Y28657D01*
Y28303D01*
X27049Y27955D01*
X27185Y27627D01*
X27382Y27333D01*
X27633Y27082D01*
X27927Y26885D01*
X28255Y26749D01*
X28603Y26680D01*
X28957D01*
X29305Y26749D01*
X29633Y26885D01*
X29927Y27082D01*
X30178Y27333D01*
X30375Y27627D01*
X30511Y27955D01*
X30580Y28303D01*
Y28657D01*
X30511Y29005D01*
X30375Y29333D01*
X30178Y29627D01*
X29927Y29878D01*
X29633Y30075D01*
X29305Y30211D01*
X28957Y30280D01*
D02*
G37*
G36*
X4447D02*
X4093D01*
X3745Y30211D01*
X3417Y30075D01*
X3123Y29878D01*
X2872Y29627D01*
X2675Y29333D01*
X2539Y29005D01*
X2470Y28657D01*
Y28303D01*
X2539Y27955D01*
X2675Y27627D01*
X2872Y27333D01*
X3123Y27082D01*
X3417Y26885D01*
X3745Y26749D01*
X4093Y26680D01*
X4447D01*
X4795Y26749D01*
X5123Y26885D01*
X5417Y27082D01*
X5668Y27333D01*
X5865Y27627D01*
X6001Y27955D01*
X6070Y28303D01*
Y28657D01*
X6001Y29005D01*
X5865Y29333D01*
X5668Y29627D01*
X5417Y29878D01*
X5123Y30075D01*
X4795Y30211D01*
X4447Y30280D01*
D02*
G37*
G36*
X22987Y22984D02*
X22638D01*
X22357Y22947D01*
X22095Y22839D01*
X21871Y22667D01*
X21698Y22442D01*
X21590Y22181D01*
X21553Y21900D01*
X21590Y21619D01*
X21698Y21358D01*
X21871Y21133D01*
Y21012D01*
X21825Y20977D01*
X21650Y20750D01*
X21541Y20485D01*
X21503Y20200D01*
X21541Y19915D01*
X21650Y19650D01*
X21825Y19423D01*
X22053Y19248D01*
X22318Y19138D01*
X22603Y19101D01*
X23022D01*
X23307Y19138D01*
X23572Y19248D01*
X23800Y19423D01*
X23975Y19650D01*
X24084Y19915D01*
X24122Y20200D01*
X24084Y20485D01*
X23975Y20750D01*
X23800Y20977D01*
X23754Y21012D01*
Y21133D01*
X23927Y21358D01*
X24035Y21619D01*
X24072Y21900D01*
X24035Y22181D01*
X23927Y22442D01*
X23754Y22667D01*
X23530Y22839D01*
X23268Y22947D01*
X22987Y22984D01*
D02*
G37*
G36*
X5658Y21300D02*
X5217D01*
X4782Y21231D01*
X4363Y21095D01*
X3970Y20895D01*
X3613Y20636D01*
X3302Y20324D01*
X3043Y19968D01*
X2843Y19575D01*
X2706Y19156D01*
X2638Y18720D01*
Y18280D01*
X2706Y17844D01*
X2843Y17425D01*
X3043Y17032D01*
X3302Y16676D01*
X3613Y16364D01*
X3970Y16105D01*
X4363Y15905D01*
X4782Y15769D01*
X5217Y15700D01*
X5658D01*
X6093Y15769D01*
X6512Y15905D01*
X6905Y16105D01*
X7262Y16364D01*
X7573Y16676D01*
X7832Y17032D01*
X8032Y17425D01*
X8169Y17844D01*
X8238Y18280D01*
Y18720D01*
X8169Y19156D01*
X8032Y19575D01*
X7832Y19968D01*
X7573Y20324D01*
X7262Y20636D01*
X6905Y20895D01*
X6512Y21095D01*
X6093Y21231D01*
X5658Y21300D01*
D02*
G37*
G36*
X22987Y17884D02*
X22638D01*
X22357Y17847D01*
X22095Y17739D01*
X21871Y17567D01*
X21698Y17342D01*
X21590Y17081D01*
X21553Y16800D01*
X21590Y16519D01*
X21698Y16258D01*
X21871Y16033D01*
X21897Y16014D01*
Y15887D01*
X21871Y15867D01*
X21698Y15642D01*
X21590Y15381D01*
X21553Y15100D01*
X21590Y14819D01*
X21698Y14558D01*
X21871Y14333D01*
X22095Y14161D01*
X22357Y14053D01*
X22638Y14016D01*
X22987D01*
X23268Y14053D01*
X23530Y14161D01*
X23754Y14333D01*
X23927Y14558D01*
X24035Y14819D01*
X24072Y15100D01*
X24035Y15381D01*
X23927Y15642D01*
X23754Y15867D01*
X23728Y15887D01*
Y16014D01*
X23754Y16033D01*
X23927Y16258D01*
X24035Y16519D01*
X24072Y16800D01*
X24035Y17081D01*
X23927Y17342D01*
X23754Y17567D01*
X23530Y17739D01*
X23268Y17847D01*
X22987Y17884D01*
D02*
G37*
G36*
X55140Y14062D02*
X54860D01*
X54590Y13990D01*
X54348Y13850D01*
X54150Y13652D01*
X54010Y13410D01*
X53938Y13140D01*
Y12860D01*
X54010Y12590D01*
X54150Y12348D01*
X54348Y12150D01*
X54590Y12010D01*
X54860Y11938D01*
X55140D01*
X55410Y12010D01*
X55652Y12150D01*
X55850Y12348D01*
X55990Y12590D01*
X56062Y12860D01*
Y13140D01*
X55990Y13410D01*
X55850Y13652D01*
X55652Y13850D01*
X55410Y13990D01*
X55140Y14062D01*
D02*
G37*
G36*
X50060D02*
X49780D01*
X49510Y13990D01*
X49268Y13850D01*
X49070Y13652D01*
X48930Y13410D01*
X48858Y13140D01*
Y12860D01*
X48930Y12590D01*
X49070Y12348D01*
X49268Y12150D01*
X49510Y12010D01*
X49780Y11938D01*
X50060D01*
X50330Y12010D01*
X50572Y12150D01*
X50770Y12348D01*
X50910Y12590D01*
X50982Y12860D01*
Y13140D01*
X50910Y13410D01*
X50770Y13652D01*
X50572Y13850D01*
X50330Y13990D01*
X50060Y14062D01*
D02*
G37*
G36*
X47520D02*
X47240D01*
X46970Y13990D01*
X46728Y13850D01*
X46530Y13652D01*
X46390Y13410D01*
X46318Y13140D01*
Y12860D01*
X46390Y12590D01*
X46530Y12348D01*
X46728Y12150D01*
X46970Y12010D01*
X47240Y11938D01*
X47520D01*
X47790Y12010D01*
X48032Y12150D01*
X48230Y12348D01*
X48370Y12590D01*
X48442Y12860D01*
Y13140D01*
X48370Y13410D01*
X48230Y13652D01*
X48032Y13850D01*
X47790Y13990D01*
X47520Y14062D01*
D02*
G37*
G36*
X44980D02*
X44700D01*
X44430Y13990D01*
X44188Y13850D01*
X43990Y13652D01*
X43850Y13410D01*
X43778Y13140D01*
Y12860D01*
X43850Y12590D01*
X43990Y12348D01*
X44188Y12150D01*
X44430Y12010D01*
X44700Y11938D01*
X44980D01*
X45250Y12010D01*
X45492Y12150D01*
X45690Y12348D01*
X45830Y12590D01*
X45902Y12860D01*
Y13140D01*
X45830Y13410D01*
X45690Y13652D01*
X45492Y13850D01*
X45250Y13990D01*
X44980Y14062D01*
D02*
G37*
G36*
X42440D02*
X42160D01*
X41890Y13990D01*
X41648Y13850D01*
X41450Y13652D01*
X41310Y13410D01*
X41238Y13140D01*
Y12860D01*
X41310Y12590D01*
X41450Y12348D01*
X41648Y12150D01*
X41890Y12010D01*
X42160Y11938D01*
X42440D01*
X42710Y12010D01*
X42952Y12150D01*
X43150Y12348D01*
X43290Y12590D01*
X43362Y12860D01*
Y13140D01*
X43290Y13410D01*
X43150Y13652D01*
X42952Y13850D01*
X42710Y13990D01*
X42440Y14062D01*
D02*
G37*
G36*
X39900D02*
X39620D01*
X39350Y13990D01*
X39108Y13850D01*
X38910Y13652D01*
X38770Y13410D01*
X38698Y13140D01*
Y12860D01*
X38770Y12590D01*
X38910Y12348D01*
X39108Y12150D01*
X39350Y12010D01*
X39620Y11938D01*
X39900D01*
X40170Y12010D01*
X40412Y12150D01*
X40610Y12348D01*
X40750Y12590D01*
X40822Y12860D01*
Y13140D01*
X40750Y13410D01*
X40610Y13652D01*
X40412Y13850D01*
X40170Y13990D01*
X39900Y14062D01*
D02*
G37*
G36*
X37360D02*
X37080D01*
X36810Y13990D01*
X36568Y13850D01*
X36370Y13652D01*
X36230Y13410D01*
X36158Y13140D01*
Y12860D01*
X36230Y12590D01*
X36370Y12348D01*
X36568Y12150D01*
X36810Y12010D01*
X37080Y11938D01*
X37360D01*
X37630Y12010D01*
X37872Y12150D01*
X38070Y12348D01*
X38210Y12590D01*
X38282Y12860D01*
Y13140D01*
X38210Y13410D01*
X38070Y13652D01*
X37872Y13850D01*
X37630Y13990D01*
X37360Y14062D01*
D02*
G37*
G36*
X14177Y10800D02*
X13823D01*
X13475Y10731D01*
X13147Y10595D01*
X12853Y10398D01*
X12602Y10147D01*
X12405Y9853D01*
X12269Y9525D01*
X12200Y9177D01*
Y8823D01*
X12269Y8475D01*
X12405Y8147D01*
X12602Y7853D01*
X12853Y7602D01*
X13147Y7405D01*
X13475Y7269D01*
X13823Y7200D01*
X14177D01*
X14525Y7269D01*
X14853Y7405D01*
X15147Y7602D01*
X15398Y7853D01*
X15595Y8147D01*
X15731Y8475D01*
X15800Y8823D01*
Y9177D01*
X15731Y9525D01*
X15595Y9853D01*
X15398Y10147D01*
X15147Y10398D01*
X14853Y10595D01*
X14525Y10731D01*
X14177Y10800D01*
D02*
G37*
G36*
X35251Y5600D02*
X34909D01*
X34578Y5512D01*
X34282Y5340D01*
X34040Y5098D01*
X33868Y4802D01*
X33780Y4471D01*
Y4129D01*
X33868Y3798D01*
X34040Y3502D01*
X34282Y3260D01*
X34578Y3089D01*
X34909Y3000D01*
X35251D01*
X35582Y3089D01*
X35878Y3260D01*
X36120Y3502D01*
X36291Y3798D01*
X36380Y4129D01*
Y4471D01*
X36291Y4802D01*
X36120Y5098D01*
X35878Y5340D01*
X35582Y5512D01*
X35251Y5600D01*
D02*
G37*
G36*
X30171D02*
X29829D01*
X29498Y5512D01*
X29202Y5340D01*
X28960Y5098D01*
X28788Y4802D01*
X28700Y4471D01*
Y4129D01*
X28788Y3798D01*
X28960Y3502D01*
X29202Y3260D01*
X29498Y3089D01*
X29829Y3000D01*
X30171D01*
X30502Y3089D01*
X30798Y3260D01*
X31040Y3502D01*
X31211Y3798D01*
X31300Y4129D01*
Y4471D01*
X31211Y4802D01*
X31040Y5098D01*
X30798Y5340D01*
X30502Y5512D01*
X30171Y5600D01*
D02*
G37*
G36*
X47751Y5500D02*
X47409D01*
X47078Y5411D01*
X46782Y5240D01*
X46540Y4998D01*
X46369Y4702D01*
X46280Y4371D01*
Y4029D01*
X46369Y3698D01*
X46540Y3402D01*
X46782Y3160D01*
X47078Y2989D01*
X47409Y2900D01*
X47751D01*
X48082Y2989D01*
X48378Y3160D01*
X48620Y3402D01*
X48791Y3698D01*
X48880Y4029D01*
Y4371D01*
X48791Y4702D01*
X48620Y4998D01*
X48378Y5240D01*
X48082Y5411D01*
X47751Y5500D01*
D02*
G37*
G36*
X42671D02*
X42329D01*
X41998Y5411D01*
X41702Y5240D01*
X41460Y4998D01*
X41289Y4702D01*
X41200Y4371D01*
Y4029D01*
X41289Y3698D01*
X41460Y3402D01*
X41702Y3160D01*
X41998Y2989D01*
X42329Y2900D01*
X42671D01*
X43002Y2989D01*
X43298Y3160D01*
X43540Y3402D01*
X43711Y3698D01*
X43800Y4029D01*
Y4371D01*
X43711Y4702D01*
X43540Y4998D01*
X43298Y5240D01*
X43002Y5411D01*
X42671Y5500D01*
D02*
G37*
%LPD*%
D15*
X52990Y46040D02*
D03*
X55530D02*
D03*
X50450D02*
D03*
X37750Y46040D02*
D03*
X40290D02*
D03*
X42830D02*
D03*
X45370Y46040D02*
D03*
X47910Y46040D02*
D03*
X40290Y43500D02*
D03*
X37750D02*
D03*
X45370D02*
D03*
X42830D02*
D03*
X50450D02*
D03*
X47910D02*
D03*
X55530Y43500D02*
D03*
X52990D02*
D03*
X38000Y58000D02*
D03*
X53250Y34250D02*
D03*
X46750D02*
D03*
X53250Y38750D02*
D03*
X46750D02*
D03*
X37750D02*
D03*
X44250D02*
D03*
X37750Y34250D02*
D03*
X44250D02*
D03*
X38000Y62500D02*
D03*
D16*
X35460Y58000D02*
D03*
Y62500D02*
D03*
D17*
X28780Y75430D02*
D03*
Y28480D02*
D03*
X4270Y75430D02*
D03*
Y28480D02*
D03*
X18700Y6000D02*
D03*
X14000Y9000D02*
D03*
Y3000D02*
D03*
D18*
X29200Y69460D02*
D03*
Y66920D02*
D03*
Y72000D02*
D03*
Y36440D02*
D03*
Y38980D02*
D03*
Y41520D02*
D03*
Y44060D02*
D03*
Y46600D02*
D03*
Y49140D02*
D03*
Y51680D02*
D03*
Y54220D02*
D03*
Y56760D02*
D03*
Y59300D02*
D03*
Y61840D02*
D03*
Y64380D02*
D03*
X3800Y36440D02*
D03*
Y44060D02*
D03*
Y46600D02*
D03*
Y49140D02*
D03*
Y51680D02*
D03*
Y54220D02*
D03*
Y56760D02*
D03*
Y59300D02*
D03*
Y61840D02*
D03*
Y64380D02*
D03*
Y66920D02*
D03*
Y69460D02*
D03*
Y72000D02*
D03*
Y38980D02*
D03*
Y41520D02*
D03*
X55000Y13000D02*
D03*
X52460D02*
D03*
X49920D02*
D03*
X47380D02*
D03*
X44840D02*
D03*
X42300D02*
D03*
X39760D02*
D03*
X37220D02*
D03*
X55000Y30980D02*
D03*
X52460D02*
D03*
X49920D02*
D03*
X47380D02*
D03*
X44840D02*
D03*
X42300D02*
D03*
X39760D02*
D03*
X37220D02*
D03*
D19*
X57200Y69460D02*
D03*
Y74540D02*
D03*
X44500Y67300D02*
D03*
Y72000D02*
D03*
Y76700D02*
D03*
D20*
X35080Y4300D02*
D03*
X30000D02*
D03*
X24920D02*
D03*
X47580Y4200D02*
D03*
X42500D02*
D03*
D21*
X5438Y18500D02*
D03*
D22*
X22812Y15100D02*
D03*
Y16800D02*
D03*
Y21900D02*
D03*
Y18500D02*
D03*
D23*
Y20200D02*
D03*
D24*
X4500Y84000D02*
D03*
X56000D02*
D03*
X4500Y4500D02*
D03*
X56000D02*
D03*
D25*
X44000Y56250D02*
D03*
X36000Y53000D02*
D03*
X51000Y56000D02*
D03*
X44000Y52000D02*
D03*
X37220Y20200D02*
D03*
X33400Y38100D02*
D03*
X53900Y57250D02*
D03*
X51000Y53500D02*
D03*
X43000D02*
D03*
X32500Y14000D02*
D03*
Y21200D02*
D03*
X16000Y31000D02*
D03*
X13000D02*
D03*
X10000D02*
D03*
X49400Y74600D02*
D03*
Y69400D02*
D03*
X22000Y69460D02*
D03*
Y61840D02*
D03*
%TF.MD5,117f6b5ffb82067b110fa80ac238289c*%
M02*
