%TF.GenerationSoftware,Altium Limited,Altium Designer,25.2.1 (25)*%
G04 Layer_Color=2752767*
%FSLAX43Y43*%
%MOMM*%
%TF.SameCoordinates,B664DB7D-B6DB-4AC9-9DB7-209C64ECDA10*%
%TF.FilePolarity,Positive*%
%TF.FileFunction,Drawing*%
%TF.Part,Single*%
G01*
G75*
%TA.AperFunction,NonConductor*%
%ADD55C,0.127*%
%ADD73C,0.169*%
%ADD74C,0.102*%
D55*
X52482Y45532D02*
X52736D01*
X52990Y45786D01*
X53244Y45532D01*
X53498D01*
Y45786D01*
X53244Y46040D01*
X53498Y46294D01*
Y46548D01*
X53244D01*
X52990Y46294D01*
X52736Y46548D01*
X52482D01*
Y46294D01*
X52736Y46040D01*
X52482Y45786D01*
Y45532D01*
X55022D02*
X55276D01*
X55530Y45786D01*
X55784Y45532D01*
X56038D01*
Y45786D01*
X55784Y46040D01*
X56038Y46294D01*
Y46548D01*
X55784D01*
X55530Y46294D01*
X55276Y46548D01*
X55022D01*
Y46294D01*
X55276Y46040D01*
X55022Y45786D01*
Y45532D01*
X49942D02*
X50196D01*
X50450Y45786D01*
X50704Y45532D01*
X50958D01*
Y45786D01*
X50704Y46040D01*
X50958Y46294D01*
Y46548D01*
X50704D01*
X50450Y46294D01*
X50196Y46548D01*
X49942D01*
Y46294D01*
X50196Y46040D01*
X49942Y45786D01*
Y45532D01*
X37242Y45532D02*
X37496D01*
X37750Y45786D01*
X38004Y45532D01*
X38258D01*
Y45786D01*
X38004Y46040D01*
X38258Y46294D01*
Y46548D01*
X38004D01*
X37750Y46294D01*
X37496Y46548D01*
X37242D01*
Y46294D01*
X37496Y46040D01*
X37242Y45786D01*
Y45532D01*
X39782D02*
X40036D01*
X40290Y45786D01*
X40544Y45532D01*
X40798D01*
Y45786D01*
X40544Y46040D01*
X40798Y46294D01*
Y46548D01*
X40544D01*
X40290Y46294D01*
X40036Y46548D01*
X39782D01*
Y46294D01*
X40036Y46040D01*
X39782Y45786D01*
Y45532D01*
X42322D02*
X42576D01*
X42830Y45786D01*
X43084Y45532D01*
X43338D01*
Y45786D01*
X43084Y46040D01*
X43338Y46294D01*
Y46548D01*
X43084D01*
X42830Y46294D01*
X42576Y46548D01*
X42322D01*
Y46294D01*
X42576Y46040D01*
X42322Y45786D01*
Y45532D01*
X44862Y45532D02*
X45116D01*
X45370Y45786D01*
X45624Y45532D01*
X45878D01*
Y45786D01*
X45624Y46040D01*
X45878Y46294D01*
Y46548D01*
X45624D01*
X45370Y46294D01*
X45116Y46548D01*
X44862D01*
Y46294D01*
X45116Y46040D01*
X44862Y45786D01*
Y45532D01*
X47402Y45532D02*
X47656D01*
X47910Y45786D01*
X48164Y45532D01*
X48418D01*
Y45786D01*
X48164Y46040D01*
X48418Y46294D01*
Y46548D01*
X48164D01*
X47910Y46294D01*
X47656Y46548D01*
X47402D01*
Y46294D01*
X47656Y46040D01*
X47402Y45786D01*
Y45532D01*
X39782Y42992D02*
X40036D01*
X40290Y43246D01*
X40544Y42992D01*
X40798D01*
Y43246D01*
X40544Y43500D01*
X40798Y43754D01*
Y44008D01*
X40544D01*
X40290Y43754D01*
X40036Y44008D01*
X39782D01*
Y43754D01*
X40036Y43500D01*
X39782Y43246D01*
Y42992D01*
X37242D02*
X37496D01*
X37750Y43246D01*
X38004Y42992D01*
X38258D01*
Y43246D01*
X38004Y43500D01*
X38258Y43754D01*
Y44008D01*
X38004D01*
X37750Y43754D01*
X37496Y44008D01*
X37242D01*
Y43754D01*
X37496Y43500D01*
X37242Y43246D01*
Y42992D01*
X44862D02*
X45116D01*
X45370Y43246D01*
X45624Y42992D01*
X45878D01*
Y43246D01*
X45624Y43500D01*
X45878Y43754D01*
Y44008D01*
X45624D01*
X45370Y43754D01*
X45116Y44008D01*
X44862D01*
Y43754D01*
X45116Y43500D01*
X44862Y43246D01*
Y42992D01*
X42322D02*
X42576D01*
X42830Y43246D01*
X43084Y42992D01*
X43338D01*
Y43246D01*
X43084Y43500D01*
X43338Y43754D01*
Y44008D01*
X43084D01*
X42830Y43754D01*
X42576Y44008D01*
X42322D01*
Y43754D01*
X42576Y43500D01*
X42322Y43246D01*
Y42992D01*
X49942D02*
X50196D01*
X50450Y43246D01*
X50704Y42992D01*
X50958D01*
Y43246D01*
X50704Y43500D01*
X50958Y43754D01*
Y44008D01*
X50704D01*
X50450Y43754D01*
X50196Y44008D01*
X49942D01*
Y43754D01*
X50196Y43500D01*
X49942Y43246D01*
Y42992D01*
X47402D02*
X47656D01*
X47910Y43246D01*
X48164Y42992D01*
X48418D01*
Y43246D01*
X48164Y43500D01*
X48418Y43754D01*
Y44008D01*
X48164D01*
X47910Y43754D01*
X47656Y44008D01*
X47402D01*
Y43754D01*
X47656Y43500D01*
X47402Y43246D01*
Y42992D01*
X55022Y42992D02*
X55276D01*
X55530Y43246D01*
X55784Y42992D01*
X56038D01*
Y43246D01*
X55784Y43500D01*
X56038Y43754D01*
Y44008D01*
X55784D01*
X55530Y43754D01*
X55276Y44008D01*
X55022D01*
Y43754D01*
X55276Y43500D01*
X55022Y43246D01*
Y42992D01*
X52482D02*
X52736D01*
X52990Y43246D01*
X53244Y42992D01*
X53498D01*
Y43246D01*
X53244Y43500D01*
X53498Y43754D01*
Y44008D01*
X53244D01*
X52990Y43754D01*
X52736Y44008D01*
X52482D01*
Y43754D01*
X52736Y43500D01*
X52482Y43246D01*
Y42992D01*
X37492Y57492D02*
X37746D01*
X38000Y57746D01*
X38254Y57492D01*
X38508D01*
Y57746D01*
X38254Y58000D01*
X38508Y58254D01*
Y58508D01*
X38254D01*
X38000Y58254D01*
X37746Y58508D01*
X37492D01*
Y58254D01*
X37746Y58000D01*
X37492Y57746D01*
Y57492D01*
X34952D02*
X35206D01*
X35460Y57746D01*
X35714Y57492D01*
X35968D01*
Y57746D01*
X35714Y58000D01*
X35968Y58254D01*
Y58508D01*
X35714D01*
X35460Y58254D01*
X35206Y58508D01*
X34952D01*
Y58254D01*
X35206Y58000D01*
X34952Y57746D01*
Y57492D01*
X28780Y74922D02*
X29034Y75176D01*
X29288D01*
X29034Y75430D01*
X29288Y75684D01*
X29034D01*
X28780Y75938D01*
X28526Y75684D01*
X28272D01*
X28526Y75430D01*
X28272Y75176D01*
X28526D01*
X28780Y74922D01*
X29200Y68952D02*
X28692Y69968D01*
X29708D01*
X29200Y68952D01*
Y66412D02*
X28692Y67428D01*
X29708D01*
X29200Y66412D01*
Y71492D02*
X28692Y72508D01*
X29708D01*
X29200Y71492D01*
X28780Y27972D02*
X29034Y28226D01*
X29288D01*
X29034Y28480D01*
X29288Y28734D01*
X29034D01*
X28780Y28988D01*
X28526Y28734D01*
X28272D01*
X28526Y28480D01*
X28272Y28226D01*
X28526D01*
X28780Y27972D01*
X29200Y35932D02*
X28692Y36948D01*
X29708D01*
X29200Y35932D01*
Y38472D02*
X28692Y39488D01*
X29708D01*
X29200Y38472D01*
Y41012D02*
X28692Y42028D01*
X29708D01*
X29200Y41012D01*
Y43552D02*
X28692Y44568D01*
X29708D01*
X29200Y43552D01*
Y46092D02*
X28692Y47108D01*
X29708D01*
X29200Y46092D01*
Y48632D02*
X28692Y49648D01*
X29708D01*
X29200Y48632D01*
Y51172D02*
X28692Y52188D01*
X29708D01*
X29200Y51172D01*
Y53712D02*
X28692Y54728D01*
X29708D01*
X29200Y53712D01*
Y56252D02*
X28692Y57268D01*
X29708D01*
X29200Y56252D01*
Y58792D02*
X28692Y59808D01*
X29708D01*
X29200Y58792D01*
Y61332D02*
X28692Y62348D01*
X29708D01*
X29200Y61332D01*
Y63872D02*
X28692Y64888D01*
X29708D01*
X29200Y63872D01*
X3800Y35932D02*
X3292Y36948D01*
X4308D01*
X3800Y35932D01*
Y43552D02*
X3292Y44568D01*
X4308D01*
X3800Y43552D01*
Y46092D02*
X3292Y47108D01*
X4308D01*
X3800Y46092D01*
Y48632D02*
X3292Y49648D01*
X4308D01*
X3800Y48632D01*
Y51172D02*
X3292Y52188D01*
X4308D01*
X3800Y51172D01*
Y53712D02*
X3292Y54728D01*
X4308D01*
X3800Y53712D01*
Y56252D02*
X3292Y57268D01*
X4308D01*
X3800Y56252D01*
Y58792D02*
X3292Y59808D01*
X4308D01*
X3800Y58792D01*
Y61332D02*
X3292Y62348D01*
X4308D01*
X3800Y61332D01*
Y63872D02*
X3292Y64888D01*
X4308D01*
X3800Y63872D01*
Y66412D02*
X3292Y67428D01*
X4308D01*
X3800Y66412D01*
Y68952D02*
X3292Y69968D01*
X4308D01*
X3800Y68952D01*
Y71492D02*
X3292Y72508D01*
X4308D01*
X3800Y71492D01*
X4270Y74922D02*
X4524Y75176D01*
X4778D01*
X4524Y75430D01*
X4778Y75684D01*
X4524D01*
X4270Y75938D01*
X4016Y75684D01*
X3762D01*
X4016Y75430D01*
X3762Y75176D01*
X4016D01*
X4270Y74922D01*
Y27972D02*
X4524Y28226D01*
X4778D01*
X4524Y28480D01*
X4778Y28734D01*
X4524D01*
X4270Y28988D01*
X4016Y28734D01*
X3762D01*
X4016Y28480D01*
X3762Y28226D01*
X4016D01*
X4270Y27972D01*
X3800Y38472D02*
X3292Y39488D01*
X4308D01*
X3800Y38472D01*
Y41012D02*
X3292Y42028D01*
X4308D01*
X3800Y41012D01*
X52742Y33742D02*
X52996Y34250D01*
X52742Y34758D01*
X53250Y34504D01*
X53758Y34758D01*
X53504Y34250D01*
X53758Y33742D01*
X53250Y33996D01*
X52742Y33742D01*
X46242D02*
X46496Y34250D01*
X46242Y34758D01*
X46750Y34504D01*
X47258Y34758D01*
X47004Y34250D01*
X47258Y33742D01*
X46750Y33996D01*
X46242Y33742D01*
X52742Y38242D02*
X52996Y38750D01*
X52742Y39258D01*
X53250Y39004D01*
X53758Y39258D01*
X53504Y38750D01*
X53758Y38242D01*
X53250Y38496D01*
X52742Y38242D01*
X46242D02*
X46496Y38750D01*
X46242Y39258D01*
X46750Y39004D01*
X47258Y39258D01*
X47004Y38750D01*
X47258Y38242D01*
X46750Y38496D01*
X46242Y38242D01*
X56946Y69206D02*
Y68952D01*
X57454D01*
Y69206D01*
X57708D01*
Y69714D01*
X57454D01*
Y69968D01*
X56946D01*
Y69714D01*
X56692D01*
Y69206D01*
X56946D01*
Y74286D02*
Y74032D01*
X57454D01*
Y74286D01*
X57708D01*
Y74794D01*
X57454D01*
Y75048D01*
X56946D01*
Y74794D01*
X56692D01*
Y74286D01*
X56946D01*
X44246Y67046D02*
Y66792D01*
X44754D01*
Y67046D01*
X45008D01*
Y67554D01*
X44754D01*
Y67808D01*
X44246D01*
Y67554D01*
X43992D01*
Y67046D01*
X44246D01*
Y71746D02*
Y71492D01*
X44754D01*
Y71746D01*
X45008D01*
Y72254D01*
X44754D01*
Y72508D01*
X44246D01*
Y72254D01*
X43992D01*
Y71746D01*
X44246D01*
Y76446D02*
Y76192D01*
X44754D01*
Y76446D01*
X45008D01*
Y76954D01*
X44754D01*
Y77208D01*
X44246D01*
Y76954D01*
X43992D01*
Y76446D01*
X44246D01*
X34572Y3792D02*
Y4808D01*
X35588D01*
Y3792D01*
X34572D01*
X34775Y3995D02*
Y4605D01*
X35385D01*
Y3995D01*
X34775D01*
X29492Y3792D02*
Y4808D01*
X30508D01*
Y3792D01*
X29492D01*
X29695Y3995D02*
Y4605D01*
X30305D01*
Y3995D01*
X29695D01*
X24412Y3792D02*
Y4808D01*
X25428D01*
Y3792D01*
X24412D01*
X24615Y3995D02*
Y4605D01*
X25225D01*
Y3995D01*
X24615D01*
X55000Y12492D02*
X54492Y13508D01*
X55508D01*
X55000Y12492D01*
X52460D02*
X51952Y13508D01*
X52968D01*
X52460Y12492D01*
X49920D02*
X49412Y13508D01*
X50428D01*
X49920Y12492D01*
X47380D02*
X46872Y13508D01*
X47888D01*
X47380Y12492D01*
X44840D02*
X44332Y13508D01*
X45348D01*
X44840Y12492D01*
X42300D02*
X41792Y13508D01*
X42808D01*
X42300Y12492D01*
X39760D02*
X39252Y13508D01*
X40268D01*
X39760Y12492D01*
X37220D02*
X36712Y13508D01*
X37728D01*
X37220Y12492D01*
X55000Y30472D02*
X54492Y31488D01*
X55508D01*
X55000Y30472D01*
X52460D02*
X51952Y31488D01*
X52968D01*
X52460Y30472D01*
X49920D02*
X49412Y31488D01*
X50428D01*
X49920Y30472D01*
X47380D02*
X46872Y31488D01*
X47888D01*
X47380Y30472D01*
X44840D02*
X44332Y31488D01*
X45348D01*
X44840Y30472D01*
X42300D02*
X41792Y31488D01*
X42808D01*
X42300Y30472D01*
X39760D02*
X39252Y31488D01*
X40268D01*
X39760Y30472D01*
X37220D02*
X36712Y31488D01*
X37728D01*
X37220Y30472D01*
X37242Y38242D02*
X37496Y38750D01*
X37242Y39258D01*
X37750Y39004D01*
X38258Y39258D01*
X38004Y38750D01*
X38258Y38242D01*
X37750Y38496D01*
X37242Y38242D01*
X43742D02*
X43996Y38750D01*
X43742Y39258D01*
X44250Y39004D01*
X44758Y39258D01*
X44504Y38750D01*
X44758Y38242D01*
X44250Y38496D01*
X43742Y38242D01*
X37242Y33742D02*
X37496Y34250D01*
X37242Y34758D01*
X37750Y34504D01*
X38258Y34758D01*
X38004Y34250D01*
X38258Y33742D01*
X37750Y33996D01*
X37242Y33742D01*
X43742D02*
X43996Y34250D01*
X43742Y34758D01*
X44250Y34504D01*
X44758Y34758D01*
X44504Y34250D01*
X44758Y33742D01*
X44250Y33996D01*
X43742Y33742D01*
X34952Y61992D02*
X35206D01*
X35460Y62246D01*
X35714Y61992D01*
X35968D01*
Y62246D01*
X35714Y62500D01*
X35968Y62754D01*
Y63008D01*
X35714D01*
X35460Y62754D01*
X35206Y63008D01*
X34952D01*
Y62754D01*
X35206Y62500D01*
X34952Y62246D01*
Y61992D01*
X37492D02*
X37746D01*
X38000Y62246D01*
X38254Y61992D01*
X38508D01*
Y62246D01*
X38254Y62500D01*
X38508Y62754D01*
Y63008D01*
X38254D01*
X38000Y62754D01*
X37746Y63008D01*
X37492D01*
Y62754D01*
X37746Y62500D01*
X37492Y62246D01*
Y61992D01*
X4930Y17992D02*
Y19008D01*
X5945D01*
Y17992D01*
X4930D01*
X18192Y6000D02*
X18700Y6508D01*
X19208Y6000D01*
X18700Y5492D01*
X18192Y6000D01*
X13492Y9000D02*
X14000Y9508D01*
X14508Y9000D01*
X14000Y8492D01*
X13492Y9000D01*
Y3000D02*
X14000Y3508D01*
X14508Y3000D01*
X14000Y2492D01*
X13492Y3000D01*
X47072Y3692D02*
Y4708D01*
X48088D01*
Y3692D01*
X47072D01*
X47275Y3895D02*
Y4505D01*
X47885D01*
Y3895D01*
X47275D01*
X41992Y3692D02*
Y4708D01*
X43008D01*
Y3692D01*
X41992D01*
X42195Y3895D02*
Y4505D01*
X42805D01*
Y3895D01*
X42195D01*
X44000Y55742D02*
X43492Y56758D01*
X44508D01*
X44000Y55742D01*
Y55945D02*
X43695Y56555D01*
X44305D01*
X44000Y55945D01*
X36000Y52492D02*
X35492Y53508D01*
X36508D01*
X36000Y52492D01*
Y52695D02*
X35695Y53305D01*
X36305D01*
X36000Y52695D01*
X51000Y55492D02*
X50492Y56508D01*
X51508D01*
X51000Y55492D01*
Y55695D02*
X50695Y56305D01*
X51305D01*
X51000Y55695D01*
X44000Y51492D02*
X43492Y52508D01*
X44508D01*
X44000Y51492D01*
Y51695D02*
X43695Y52305D01*
X44305D01*
X44000Y51695D01*
X37220Y19692D02*
X36712Y20708D01*
X37728D01*
X37220Y19692D01*
Y19895D02*
X36915Y20505D01*
X37525D01*
X37220Y19895D01*
X33400Y37592D02*
X32892Y38608D01*
X33908D01*
X33400Y37592D01*
Y37795D02*
X33095Y38405D01*
X33705D01*
X33400Y37795D01*
X53900Y56742D02*
X53392Y57758D01*
X54408D01*
X53900Y56742D01*
Y56945D02*
X53595Y57555D01*
X54205D01*
X53900Y56945D01*
X51000Y52992D02*
X50492Y54008D01*
X51508D01*
X51000Y52992D01*
Y53195D02*
X50695Y53805D01*
X51305D01*
X51000Y53195D01*
X43000Y52992D02*
X42492Y54008D01*
X43508D01*
X43000Y52992D01*
Y53195D02*
X42695Y53805D01*
X43305D01*
X43000Y53195D01*
X32500Y13492D02*
X31992Y14508D01*
X33008D01*
X32500Y13492D01*
Y13695D02*
X32195Y14305D01*
X32805D01*
X32500Y13695D01*
Y20692D02*
X31992Y21708D01*
X33008D01*
X32500Y20692D01*
Y20895D02*
X32195Y21505D01*
X32805D01*
X32500Y20895D01*
X16000Y30492D02*
X15492Y31508D01*
X16508D01*
X16000Y30492D01*
Y30695D02*
X15695Y31305D01*
X16305D01*
X16000Y30695D01*
X13000Y30492D02*
X12492Y31508D01*
X13508D01*
X13000Y30492D01*
Y30695D02*
X12695Y31305D01*
X13305D01*
X13000Y30695D01*
X10000Y30492D02*
X9492Y31508D01*
X10508D01*
X10000Y30492D01*
Y30695D02*
X9695Y31305D01*
X10305D01*
X10000Y30695D01*
X49400Y74092D02*
X48892Y75108D01*
X49908D01*
X49400Y74092D01*
Y74295D02*
X49095Y74905D01*
X49705D01*
X49400Y74295D01*
Y68892D02*
X48892Y69908D01*
X49908D01*
X49400Y68892D01*
Y69095D02*
X49095Y69705D01*
X49705D01*
X49400Y69095D01*
X22000Y68952D02*
X21492Y69968D01*
X22508D01*
X22000Y68952D01*
Y69155D02*
X21695Y69765D01*
X22305D01*
X22000Y69155D01*
Y61332D02*
X21492Y62348D01*
X22508D01*
X22000Y61332D01*
Y61535D02*
X21695Y62145D01*
X22305D01*
X22000Y61535D01*
D73*
X23320Y15100D02*
G03*
X23320Y15100I-508J0D01*
G01*
Y16800D02*
G03*
X23320Y16800I-508J0D01*
G01*
Y20200D02*
G03*
X23320Y20200I-508J0D01*
G01*
Y21900D02*
G03*
X23320Y21900I-508J0D01*
G01*
Y18500D02*
G03*
X23320Y18500I-508J0D01*
G01*
X5008Y84000D02*
G03*
X5008Y84000I-508J0D01*
G01*
X56508D02*
G03*
X56508Y84000I-508J0D01*
G01*
X5008Y4500D02*
G03*
X5008Y4500I-508J0D01*
G01*
X56508D02*
G03*
X56508Y4500I-508J0D01*
G01*
D74*
X4805Y84000D02*
G03*
X4805Y84000I-305J0D01*
G01*
X56305D02*
G03*
X56305Y84000I-305J0D01*
G01*
X4805Y4500D02*
G03*
X4805Y4500I-305J0D01*
G01*
X56305D02*
G03*
X56305Y4500I-305J0D01*
G01*
%TF.MD5,0d3acba29c41e46c221e91531ae55dc1*%
M02*
