M48
;Layer_Color=9474304
;FILE_FORMAT=4:3
METRIC,LZ
;TYPE=PLATED
T01F00S00C0.300
T02F00S00C0.762
T03F00S00C0.900
T04F00S00C1.000
T05F00S00C1.100
T06F00S00C1.300
T07F00S00C1.850
T08F00S00C1.900
T09F00S00C3.500
T10F00S00C3.750
;TYPE=NON_PLATED
T11F00S00C3.000
%
T01
X00325Y0014
Y00212
X003722Y00202
X00334Y00381
X0036Y0053
X0043Y00535
X0044Y0052
X0051Y00535
X0016Y0031
X0013
X001
X0022Y006184
Y006946
X00494Y00694
Y00746
X0051Y0056
X00539Y005725
X0044Y005625
T02
X003722Y0013
X003976
X00423
X004484
X004738
X004992
X005246
X0055
Y003098
X005246
X004992
X004738
X004484
X00423
X003976
X003722
X00292Y003644
Y003898
Y004152
Y004406
Y00466
Y004914
Y005168
X00038
Y004914
Y00466
Y004406
Y004152
Y003898
Y003644
Y005422
Y005676
Y00593
Y006184
Y006438
Y006692
Y006946
Y0072
X00292
Y006946
Y006692
Y006438
Y006184
Y00593
Y005676
Y005422
T03
X005553Y00435
Y004604
X005299
X005045
X005045Y00435
X004791
Y004604
X004537Y004604
X004283Y004604
X004029
X003775
Y00435
X004029
X004283
X004537
X005299Y00435
X0038Y0058
X003546
Y00625
X0038
T04
X003775Y003425
Y003875
X004425
X004675
Y003425
X004425
X005325
Y003875
T05
X0022812Y00151
Y00168
Y00185
Y00202
Y00219
T06
X002492Y00043
X003
X003508
X00425Y00042
X004758
T07
X00445Y00673
Y0072
Y00767
X00572Y007454
Y006946
T08
X0014Y0003
Y0009
X00187Y0006
T09
X00045Y00045
X0056
X00045Y0084
X0056
T10
X0005438Y00185
T11
X002878Y002848
X000427
Y007543
X002878
M30
