%TF.GenerationSoftware,Altium Limited,Altium Designer,25.2.1 (25)*%
G04 Layer_Color=16711833*
%FSLAX43Y43*%
%MOMM*%
%TF.SameCoordinates,B664DB7D-B6DB-4AC9-9DB7-209C64ECDA10*%
%TF.FilePolarity,Positive*%
%TF.FileFunction,Other,Mechanical_13*%
%TF.Part,Single*%
G01*
G75*
%TA.AperFunction,NonConductor*%
%ADD30C,0.200*%
%ADD31C,0.254*%
%ADD54C,0.100*%
%ADD55C,0.127*%
D30*
X9300Y-4700D02*
X18300D01*
Y9700D01*
X9300D02*
X18300D01*
X9300Y-4700D02*
Y9700D01*
D31*
X47005Y33505D02*
X52995D01*
X47005D02*
Y39495D01*
X52995D01*
Y33505D02*
Y39495D01*
X43995Y33505D02*
Y39495D01*
X38005D02*
X43995D01*
X38005Y33505D02*
Y39495D01*
Y33505D02*
X43995D01*
D54*
X25350Y12500D02*
X26500Y11350D01*
X25350Y12500D02*
Y15500D01*
X26500Y16650D01*
X30650D01*
Y11350D02*
Y16650D01*
X26500Y11350D02*
X30650D01*
X25350Y12500D02*
X26500Y11350D01*
X25350Y19700D02*
X26500Y18550D01*
X25350Y19700D02*
Y22700D01*
X26500Y23850D01*
X30650D01*
Y18550D02*
Y23850D01*
X26500Y18550D02*
X30650D01*
X25350Y19700D02*
X26500Y18550D01*
X52000Y52875D02*
X54000D01*
Y54125D01*
X52000D02*
X54000D01*
X52000Y52875D02*
Y54125D01*
Y54875D02*
X54000D01*
Y56125D01*
X52000D02*
X54000D01*
X52000Y54875D02*
Y56125D01*
X2400Y25405D02*
Y77855D01*
Y25405D02*
X30600D01*
Y77855D01*
X2400D02*
X30600D01*
X48950Y50800D02*
Y53200D01*
X44550Y50800D02*
X48950D01*
X44550D02*
Y53200D01*
X48950D01*
X26000Y61215D02*
Y62465D01*
X24000Y61215D02*
X26000D01*
X24000D02*
Y62465D01*
X26000D01*
X31500Y37065D02*
X33500D01*
X31500Y35815D02*
Y37065D01*
Y35815D02*
X33500D01*
Y37065D01*
X36595Y15250D02*
Y17250D01*
Y15250D02*
X37845D01*
Y17250D01*
X36595D02*
X37845D01*
X26000Y68835D02*
Y70085D01*
X24000Y68835D02*
X26000D01*
X24000D02*
Y70085D01*
X26000D01*
X40000Y54875D02*
X42000D01*
Y56125D01*
X40000D02*
X42000D01*
X40000Y54875D02*
Y56125D01*
Y52875D02*
X42000D01*
Y54125D01*
X40000D02*
X42000D01*
X40000Y52875D02*
Y54125D01*
X71015Y68915D02*
Y75085D01*
X47500Y66675D02*
Y67925D01*
X49500D01*
Y66675D02*
Y67925D01*
X47500Y66675D02*
X49500D01*
X34455Y6500D02*
X35705D01*
X34455D02*
Y8500D01*
X35705D01*
Y6500D02*
Y8500D01*
X29375Y6500D02*
X30625D01*
X29375D02*
Y8500D01*
X30625D01*
Y6500D02*
Y8500D01*
X47500Y76075D02*
Y77325D01*
X49500D01*
Y76075D02*
Y77325D01*
X47500Y76075D02*
X49500D01*
X41500Y57375D02*
Y58625D01*
X39500Y57375D02*
X41500D01*
X39500D02*
Y58625D01*
X41500D01*
Y61875D02*
Y63125D01*
X39500Y61875D02*
X41500D01*
X39500D02*
Y63125D01*
X41500D01*
X16438Y13250D02*
Y23750D01*
X8438Y13250D02*
X16438D01*
X8438Y23750D02*
X16438D01*
X8438Y13250D02*
Y23750D01*
X2688Y13250D02*
Y23750D01*
X2688D02*
X8438D01*
X2688Y13250D02*
X8438D01*
X16438Y18500D02*
X22812D01*
X16438Y16800D02*
X22812D01*
X16438Y15100D02*
X22812D01*
X16438Y20200D02*
X22812D01*
X16438Y21900D02*
X22812D01*
X20125Y25892D02*
X21375D01*
Y23892D02*
Y25892D01*
X20125Y23892D02*
X21375D01*
X20125D02*
Y25892D01*
X18250Y19575D02*
X20250D01*
Y20825D01*
X18250D02*
X20250D01*
X18250Y19575D02*
Y20825D01*
Y16175D02*
X20250D01*
Y17425D01*
X18250D02*
X20250D01*
X18250Y16175D02*
Y17425D01*
X22125Y23881D02*
X23375D01*
X22125D02*
Y25881D01*
X23375D01*
Y23881D02*
Y25881D01*
D55*
X25345Y71365D02*
Y77855D01*
Y58735D02*
Y71365D01*
X7655Y58735D02*
X25345D01*
X7655D02*
Y71365D01*
Y77855D01*
Y71365D02*
X25345D01*
X13144Y25405D02*
Y29295D01*
X19856Y25405D02*
Y29295D01*
X13144D02*
X19855D01*
X57200Y68915D02*
X71015D01*
X57200Y75085D02*
X71015D01*
X43865Y78350D02*
X57200D01*
Y75085D02*
Y78350D01*
Y68915D02*
Y75085D01*
Y65650D02*
Y68915D01*
X43865Y65650D02*
X57200D01*
X43865D02*
Y78350D01*
%TF.MD5,585ce3bbd1a68e6a7597fce135b67556*%
M02*
