%TF.GenerationSoftware,Altium Limited,Altium Designer,25.2.1 (25)*%
G04 Layer_Color=0*
%FSLAX43Y43*%
%MOMM*%
%TF.SameCoordinates,B664DB7D-B6DB-4AC9-9DB7-209C64ECDA10*%
%TF.FilePolarity,Positive*%
%TF.FileFunction,Plated,1,4,PTH,Drill*%
%TF.Part,Single*%
G01*
G75*
%TA.AperFunction,ComponentDrill*%
%ADD59C,0.900*%
%ADD60C,0.900*%
%ADD61C,0.762*%
%ADD62C,1.000*%
%ADD63C,1.850*%
%ADD64C,1.300*%
%ADD65C,0.762*%
%ADD66C,3.750*%
%ADD67C,1.100*%
%ADD68C,1.900*%
%ADD69C,3.500*%
%ADD70C,3.500*%
%TA.AperFunction,ViaDrill,NotFilled*%
%ADD71C,0.300*%
D59*
X52990Y46040D02*
D03*
X55530D02*
D03*
X50450D02*
D03*
X37750Y46040D02*
D03*
X40290D02*
D03*
X42830D02*
D03*
X45370Y46040D02*
D03*
X47910Y46040D02*
D03*
X38000Y58000D02*
D03*
X35460D02*
D03*
Y62500D02*
D03*
X38000D02*
D03*
D60*
X40290Y43500D02*
D03*
X37750D02*
D03*
X45370D02*
D03*
X42830D02*
D03*
X50450D02*
D03*
X47910D02*
D03*
X55530Y43500D02*
D03*
X52990D02*
D03*
D61*
X29200Y69460D02*
D03*
Y66920D02*
D03*
Y72000D02*
D03*
Y36440D02*
D03*
Y38980D02*
D03*
Y41520D02*
D03*
Y44060D02*
D03*
Y46600D02*
D03*
Y49140D02*
D03*
Y51680D02*
D03*
Y54220D02*
D03*
Y56760D02*
D03*
Y59300D02*
D03*
Y61840D02*
D03*
Y64380D02*
D03*
X3800Y36440D02*
D03*
Y44060D02*
D03*
Y46600D02*
D03*
Y49140D02*
D03*
Y51680D02*
D03*
Y54220D02*
D03*
Y56760D02*
D03*
Y59300D02*
D03*
Y61840D02*
D03*
Y64380D02*
D03*
Y66920D02*
D03*
Y69460D02*
D03*
Y72000D02*
D03*
Y38980D02*
D03*
Y41520D02*
D03*
D62*
X53250Y34250D02*
D03*
X46750D02*
D03*
X53250Y38750D02*
D03*
X46750D02*
D03*
X37750D02*
D03*
X44250D02*
D03*
X37750Y34250D02*
D03*
X44250D02*
D03*
D63*
X57200Y69460D02*
D03*
Y74540D02*
D03*
X44500Y67300D02*
D03*
Y72000D02*
D03*
Y76700D02*
D03*
D64*
X35080Y4300D02*
D03*
X30000D02*
D03*
X24920D02*
D03*
X47580Y4200D02*
D03*
X42500D02*
D03*
D65*
X55000Y13000D02*
D03*
X52460D02*
D03*
X49920D02*
D03*
X47380D02*
D03*
X44840D02*
D03*
X42300D02*
D03*
X39760D02*
D03*
X37220D02*
D03*
X55000Y30980D02*
D03*
X52460D02*
D03*
X49920D02*
D03*
X47380D02*
D03*
X44840D02*
D03*
X42300D02*
D03*
X39760D02*
D03*
X37220D02*
D03*
D66*
X5438Y18500D02*
D03*
D67*
X22812Y15100D02*
D03*
Y16800D02*
D03*
Y20200D02*
D03*
Y21900D02*
D03*
Y18500D02*
D03*
D68*
X18700Y6000D02*
D03*
X14000Y9000D02*
D03*
Y3000D02*
D03*
D69*
X4500Y84000D02*
D03*
D70*
X56000D02*
D03*
X4500Y4500D02*
D03*
X56000D02*
D03*
D71*
X44000Y56250D02*
D03*
X36000Y53000D02*
D03*
X51000Y56000D02*
D03*
X44000Y52000D02*
D03*
X37220Y20200D02*
D03*
X33400Y38100D02*
D03*
X53900Y57250D02*
D03*
X51000Y53500D02*
D03*
X43000D02*
D03*
X32500Y14000D02*
D03*
Y21200D02*
D03*
X16000Y31000D02*
D03*
X13000D02*
D03*
X10000D02*
D03*
X49400Y74600D02*
D03*
Y69400D02*
D03*
X22000Y69460D02*
D03*
Y61840D02*
D03*
%TF.MD5,0ee4a8c2959b1624e0fd0140335db832*%
M02*
