%TF.GenerationSoftware,Altium Limited,Altium Designer,25.2.1 (25)*%
G04 Layer_Physical_Order=4*
G04 Layer_Color=16711680*
%FSLAX43Y43*%
%MOMM*%
%TF.SameCoordinates,B664DB7D-B6DB-4AC9-9DB7-209C64ECDA10*%
%TF.FilePolarity,Positive*%
%TF.FileFunction,Copper,L4,Bot,Signal*%
%TF.Part,Single*%
G01*
G75*
%TA.AperFunction,NonConductor*%
%ADD10C,0.203*%
%TA.AperFunction,Conductor*%
%ADD13C,0.200*%
%ADD14C,0.400*%
%TA.AperFunction,ComponentPad*%
%ADD15C,1.500*%
%ADD16R,1.500X1.500*%
%ADD17C,3.000*%
%ADD18C,1.524*%
%ADD19C,2.775*%
%ADD20C,2.000*%
%ADD21C,5.000*%
%ADD22O,1.900X1.550*%
%ADD23O,2.000X1.580*%
%ADD24C,6.000*%
%TA.AperFunction,ViaPad*%
%ADD25C,0.700*%
%TA.AperFunction,SMDPad,CuDef*%
%ADD26R,2.800X1.600*%
%ADD27R,0.600X1.250*%
%ADD28R,1.250X0.600*%
%TA.AperFunction,Conductor*%
%ADD29C,0.300*%
D10*
X59971Y84000D02*
G03*
X56000Y87971I-3971J0D01*
G01*
Y529D02*
G03*
X59971Y4500I0J3971D01*
G01*
X30682Y75430D02*
G03*
X30682Y75430I-1902J0D01*
G01*
X6172D02*
G03*
X6172Y75430I-1902J0D01*
G01*
X4500Y87971D02*
G03*
X529Y84000I0J-3971D01*
G01*
X30682Y28480D02*
G03*
X27696Y26918I-1902J0D01*
G01*
X29864D02*
G03*
X30682Y28480I-1084J1562D01*
G01*
X6172D02*
G03*
X6172Y28480I-1902J0D01*
G01*
X529Y4500D02*
G03*
X4500Y529I3971J0D01*
G01*
X55921Y87971D02*
X59971Y83921D01*
X55202Y87971D02*
X59971Y83202D01*
X56702Y87909D02*
X59909Y84702D01*
X57777Y87551D02*
X59551Y85777D01*
X54484Y87971D02*
X59971Y82484D01*
X53765Y87971D02*
X59971Y81765D01*
X53528Y80828D02*
X59136Y86436D01*
X53887Y80469D02*
X59426Y86008D01*
X52810Y81547D02*
X58416Y87152D01*
X52451Y81906D02*
X57985Y87440D01*
X53169Y81187D02*
X58799Y86817D01*
X51732Y82624D02*
X56961Y87853D01*
X52091Y82265D02*
X57503Y87676D01*
X51610Y87971D02*
X59971Y79610D01*
X50892Y87971D02*
X59971Y78892D01*
X53047Y87971D02*
X59971Y81047D01*
X52329Y87971D02*
X59971Y80329D01*
X57650Y76329D02*
X59971Y78650D01*
X56932Y76329D02*
X59971Y79369D01*
X58232Y76192D02*
X59971Y77932D01*
X54350Y78766D02*
X56787Y76329D01*
X56305D02*
X58095D01*
X58950Y75474D02*
X59971Y76495D01*
X58989Y74794D02*
X59971Y75777D01*
X58591Y75833D02*
X59971Y77214D01*
X58095Y76329D02*
X58989Y75435D01*
X54350Y78058D02*
X59971Y83679D01*
X54350Y78776D02*
X59953Y84380D01*
X54350Y77339D02*
X59971Y82961D01*
X54247Y80110D02*
X59665Y85529D01*
X54350Y79494D02*
X59846Y84991D01*
X54350Y75902D02*
X59971Y81524D01*
X54350Y75184D02*
X59971Y80806D01*
X54350Y76621D02*
X59971Y82242D01*
X54350Y79485D02*
X57505Y76329D01*
X54350Y79505D02*
Y80007D01*
X54099Y80258D02*
X54350Y80007D01*
Y79505D02*
Y80007D01*
X54099Y80258D02*
X54350Y80007D01*
X52195Y79495D02*
X52776Y80076D01*
X52445Y79026D02*
X53135Y79717D01*
X52445Y78743D02*
Y79245D01*
X52194Y79496D02*
X52445Y79245D01*
X52194Y79496D02*
X52445Y79245D01*
X51373Y82983D02*
X56346Y87956D01*
X51305Y83052D02*
X51556Y82801D01*
X51305Y83052D02*
X51556Y82801D01*
X50803Y83052D02*
X51305D01*
X50803D02*
X51305D01*
X51556Y82801D02*
X54099Y80258D01*
X51835Y79854D02*
X52417Y80435D01*
X51117Y80572D02*
X51698Y81153D01*
X51476Y80213D02*
X52057Y80794D01*
X54350Y77329D02*
X55828Y75851D01*
X54350Y78048D02*
X56187Y76210D01*
X54350Y76611D02*
X55468Y75492D01*
X52445Y76152D02*
X53346Y77054D01*
X52445Y76361D02*
X53346Y75459D01*
X55411Y75435D02*
X56305Y76329D01*
X54350Y75892D02*
X55411Y74831D01*
X52445Y75434D02*
X53346Y76336D01*
X52445Y75642D02*
X53346Y74740D01*
X52445Y78308D02*
X53346Y79210D01*
X52445Y78516D02*
X53346Y77614D01*
X52445Y78743D02*
Y79245D01*
Y79234D02*
X53346Y78332D01*
X52445Y76871D02*
X53346Y77773D01*
X52445Y77079D02*
X53346Y76177D01*
X52445Y77589D02*
X53346Y78491D01*
X52445Y77797D02*
X53346Y76896D01*
X58989Y74845D02*
X59971Y73863D01*
X58989Y74076D02*
X59971Y75058D01*
X58989Y74127D02*
X59971Y73144D01*
X58989Y73645D02*
Y75435D01*
X58095Y72751D02*
X58989Y73645D01*
X58206Y71138D02*
X59971Y72903D01*
X58152Y72808D02*
X59971Y70989D01*
X58870Y73527D02*
X59971Y72426D01*
X58511Y73168D02*
X59971Y71707D01*
X54350Y74456D02*
X57556Y71249D01*
X54350Y74465D02*
X59971Y80087D01*
X54350Y73737D02*
X56838Y71249D01*
X55411Y73645D02*
X56305Y72751D01*
X54350Y71592D02*
X55907Y73149D01*
X56881Y71249D02*
X59971Y74340D01*
X57599Y71249D02*
X59971Y73621D01*
X54350Y73019D02*
X56212Y71156D01*
X54350Y70873D02*
X56266Y72790D01*
X58924Y70419D02*
X59971Y71466D01*
X57491Y72751D02*
X59971Y70271D01*
X58989Y69765D02*
X59971Y70748D01*
X58565Y70778D02*
X59971Y72185D01*
X58095Y71249D02*
X58989Y70355D01*
Y69816D02*
X59971Y68834D01*
X58989Y69098D02*
X59971Y68115D01*
X58989Y68565D02*
Y70355D01*
Y69047D02*
X59971Y70029D01*
X56773Y72751D02*
X59971Y69552D01*
X56305Y72751D02*
X58095D01*
X56305Y71249D02*
X58095D01*
X54350Y70155D02*
X56946Y72751D01*
X55411Y70355D02*
X56305Y71249D01*
X54350Y63689D02*
X59971Y69311D01*
X54350Y68708D02*
X59971Y63086D01*
X54350Y69436D02*
X57664Y72751D01*
X54350Y69427D02*
X59971Y63805D01*
X55411Y73645D02*
Y75435D01*
X54350Y73029D02*
X55411Y74090D01*
X54350Y72310D02*
X55548Y73508D01*
X54350Y75174D02*
X55411Y74113D01*
X54350Y73747D02*
X55411Y74808D01*
X53346Y62894D02*
Y79505D01*
X54350Y62894D02*
Y79505D01*
X52445Y72768D02*
X53346Y71867D01*
X52445Y71842D02*
X53346Y72744D01*
X52445Y74205D02*
X53346Y73304D01*
X52445Y73997D02*
X53346Y74899D01*
X52445Y73279D02*
X53346Y74181D01*
X52445Y74716D02*
X53346Y75617D01*
X52445Y74924D02*
X53346Y74022D01*
X52445Y73487D02*
X53346Y72585D01*
X52445Y72560D02*
X53346Y73462D01*
X51441Y66545D02*
Y78743D01*
X52445Y66545D02*
Y78743D01*
X54350Y71582D02*
X55494Y70438D01*
X54350Y72300D02*
X55853Y70797D01*
X54350Y68718D02*
X55411Y69779D01*
X54350Y70863D02*
X55411Y69802D01*
X54350Y70145D02*
X55411Y69084D01*
Y68565D02*
Y70355D01*
X54350Y68000D02*
X55411Y69061D01*
X52445Y69176D02*
X53346Y68275D01*
X52445Y68250D02*
X53346Y69152D01*
X52445Y71332D02*
X53346Y70430D01*
X52445Y70405D02*
X53346Y71307D01*
X52445Y72050D02*
X53346Y71148D01*
X52445Y71124D02*
X53346Y72025D01*
X52445Y69895D02*
X53346Y68993D01*
X52445Y68968D02*
X53346Y69870D01*
X52445Y70613D02*
X53346Y69711D01*
X52445Y69687D02*
X53346Y70589D01*
X50723Y83052D02*
X55642Y87971D01*
X50004Y83052D02*
X54924Y87971D01*
X50399Y81291D02*
X50980Y81872D01*
X49630Y82048D02*
X50151Y81528D01*
X49917D02*
X50438Y82048D01*
X50173Y87971D02*
X59971Y78173D01*
X49455Y87971D02*
X59971Y77455D01*
X50803Y82048D02*
X53346Y79505D01*
X50349Y82048D02*
X53346Y79051D01*
X47131Y83052D02*
X52050Y87971D01*
X46412Y83052D02*
X51332Y87971D01*
X47849Y83052D02*
X52769Y87971D01*
X45694Y83052D02*
X50613Y87971D01*
X45863D02*
X50783Y83052D01*
X48736Y87971D02*
X59971Y76736D01*
X48018Y87971D02*
X59971Y76018D01*
X48567Y83052D02*
X53487Y87971D01*
X49286Y83052D02*
X54206Y87971D01*
X50758Y80932D02*
X51339Y81513D01*
X50151Y81528D02*
X52445Y79234D01*
X50413Y81277D02*
X52194Y79496D01*
X50162Y81528D02*
X50413Y81277D01*
X50162Y81528D02*
X50413Y81277D01*
X50102Y76683D02*
X51441Y78023D01*
X50102Y75965D02*
X51441Y77305D01*
X49708Y77727D02*
X51083Y79102D01*
X50102Y77402D02*
X51441Y78741D01*
X49660Y80524D02*
X51441Y78743D01*
X48999Y80524D02*
X51441Y78082D01*
X48271Y77727D02*
X50365Y79820D01*
X49660Y81528D02*
X50162D01*
X49660D02*
X50162D01*
X48281Y80524D02*
X51441Y77364D01*
X47562Y80524D02*
X51441Y76645D01*
X48990Y77727D02*
X50724Y79461D01*
X48698Y77727D02*
X50102D01*
X47475Y82048D02*
X47996Y81528D01*
X45144Y87971D02*
X50064Y83052D01*
X47762Y81528D02*
X48283Y82048D01*
X46757D02*
X47278Y81528D01*
X47043D02*
X47564Y82048D01*
X48912D02*
X49433Y81528D01*
X49199D02*
X49719Y82048D01*
X48194D02*
X48714Y81528D01*
X48480D02*
X49001Y82048D01*
X42989Y87971D02*
X47909Y83052D01*
X42820D02*
X47740Y87971D01*
X43538Y83052D02*
X48458Y87971D01*
X42102Y83052D02*
X47021Y87971D01*
X42271D02*
X47190Y83052D01*
X44426Y87971D02*
X49346Y83052D01*
X44975D02*
X49895Y87971D01*
X43707D02*
X48627Y83052D01*
X44257D02*
X49177Y87971D01*
X47553Y77727D02*
X50005Y80179D01*
X46844Y80524D02*
X49642Y77727D01*
X48205D02*
X48302Y77630D01*
X46898Y77252D02*
Y77727D01*
X48302D01*
Y76911D02*
X48698Y76515D01*
X48302Y76320D02*
X48698Y76717D01*
X48302Y77630D02*
X48698Y77233D01*
X48302Y77038D02*
X48698Y77435D01*
X45777Y78106D02*
X48195Y80524D01*
X46137Y77747D02*
X48914Y80524D01*
X45418Y78466D02*
X47477Y80524D01*
X44689D02*
X47486Y77727D01*
X46126Y80524D02*
X48923Y77727D01*
X46359Y77252D02*
X49632Y80524D01*
X45407D02*
X48205Y77727D01*
X46289Y77252D02*
X46898D01*
X50102Y77267D02*
X51441Y75927D01*
X49991Y75136D02*
X51441Y76586D01*
X50102Y76548D02*
X51441Y75209D01*
X50102Y75673D02*
Y77727D01*
X49902Y75226D02*
X50152Y74976D01*
X50102Y75830D02*
X51441Y74490D01*
X49902Y75311D02*
X51441Y73772D01*
X50152Y74578D02*
X51441Y75868D01*
X50152Y74224D02*
Y74976D01*
X47300Y87971D02*
X59971Y75300D01*
X46581Y87971D02*
X59971Y74581D01*
X46289Y76050D02*
X51441Y70898D01*
X49902Y75226D02*
Y75673D01*
X50102D01*
X45381Y69089D02*
X51441Y75149D01*
X45273Y74911D02*
X51441Y68743D01*
X46052Y75569D02*
X51441Y70180D01*
X45693Y75209D02*
X51441Y69461D01*
X50152Y74343D02*
X51441Y73053D01*
X49906Y70022D02*
X51441Y71557D01*
X50152Y69549D02*
X51441Y70839D01*
X50152Y69024D02*
Y69776D01*
X49902Y68774D02*
X50152Y69024D01*
Y69314D02*
X51441Y68024D01*
X49937Y68810D02*
X51441Y67306D01*
X50102Y68062D02*
X51441Y69402D01*
X49902Y68327D02*
Y68774D01*
X49852Y73924D02*
X51441Y72335D01*
X49209Y73848D02*
X51441Y71616D01*
X49317Y70152D02*
X51441Y72276D01*
X49776Y73848D02*
X50152Y74224D01*
X49776Y70152D02*
X50152Y69776D01*
X46106Y68377D02*
X51441Y73712D01*
X46299Y67852D02*
X51441Y72994D01*
X45747Y68737D02*
X51441Y74431D01*
X49902Y68581D02*
X51441Y70120D01*
X48698Y75796D02*
X48821Y75673D01*
X48698D02*
Y77727D01*
Y75673D02*
X48898D01*
X48302D02*
Y77727D01*
Y76193D02*
X48698Y75796D01*
X48821Y75673D02*
X48898Y75596D01*
Y75226D02*
Y75673D01*
X47384D02*
X48648Y74409D01*
X48103Y75673D02*
X48724Y75052D01*
X42626Y69926D02*
X48698Y75998D01*
X42267Y70285D02*
X47655Y75673D01*
X46898D02*
X48302D01*
X46898D02*
Y76148D01*
X41908Y70645D02*
X46937Y75673D01*
X37802Y79508D02*
X48898Y68412D01*
X42985Y69567D02*
X48898Y75480D01*
X38520Y79508D02*
X48648Y69380D01*
X41142Y75450D02*
X48265Y68327D01*
X49024Y73848D02*
X49776D01*
X48648Y74224D02*
X49024Y73848D01*
Y70152D02*
X49776D01*
X48648Y74976D02*
X48898Y75226D01*
X48648Y74224D02*
Y74976D01*
Y69776D02*
X49024Y70152D01*
X48898Y68327D02*
Y68774D01*
X48648Y69024D02*
Y69776D01*
Y69024D02*
X48898Y68774D01*
X44555Y74911D02*
X49314Y70152D01*
X43944Y69089D02*
X48864Y74009D01*
X43836Y74911D02*
X48810Y69937D01*
X43345Y69208D02*
X48648Y74512D01*
X44663Y69089D02*
X49422Y73848D01*
X48211Y68327D02*
X48778Y68894D01*
X41142Y74732D02*
X47547Y68327D01*
X47492D02*
X48648Y69483D01*
X58896Y68472D02*
X59971Y67397D01*
X58095Y67671D02*
X58989Y68565D01*
X58537Y68113D02*
X59971Y66679D01*
X55411Y68565D02*
X56305Y67671D01*
X58095D01*
X56824D02*
X59971Y64523D01*
X54350Y65835D02*
X59971Y60213D01*
X58178Y67754D02*
X59971Y65960D01*
X57542Y67671D02*
X59971Y65242D01*
X54350Y65126D02*
X56895Y67671D01*
X54350Y65844D02*
X56241Y67736D01*
X54350Y64408D02*
X57613Y67671D01*
X54350Y67281D02*
X55522Y68454D01*
X54350Y66563D02*
X55882Y68095D01*
X54350Y67271D02*
X59971Y61650D01*
X54350Y66553D02*
X59971Y60931D01*
X54350Y62971D02*
X59971Y68592D01*
X54350Y67990D02*
X59971Y62368D01*
X54652Y57525D02*
X59971Y62845D01*
X54350Y62961D02*
X59971Y57339D01*
X54402Y56557D02*
X59971Y62127D01*
X54350Y63679D02*
X59971Y58057D01*
X54652Y56874D02*
Y57626D01*
X54602Y54602D02*
X59971Y59971D01*
X54602Y54602D02*
X59971Y59971D01*
X54602Y56038D02*
X59971Y61408D01*
X54602Y55320D02*
X59971Y60690D01*
X54350Y64398D02*
X59971Y58776D01*
X53691Y58002D02*
X59971Y64282D01*
X54343Y57935D02*
X59971Y63564D01*
X54350Y65116D02*
X59971Y59494D01*
X54276Y58002D02*
X54652Y57626D01*
X53915Y61958D02*
X59971Y55902D01*
X53556Y61599D02*
X59971Y55184D01*
X51549Y56578D02*
X59971Y65000D01*
X54275Y62318D02*
X59971Y56621D01*
X52445Y66095D02*
X53346Y66996D01*
X52445Y67021D02*
X53346Y66119D01*
X52445Y66303D02*
X53346Y65401D01*
X52445Y66043D02*
Y66545D01*
Y66043D02*
Y66545D01*
X54099Y62142D02*
X54350Y62393D01*
X54099Y62142D02*
X54350Y62393D01*
Y62894D01*
Y62393D02*
Y62894D01*
X52445Y67740D02*
X53346Y66838D01*
X52445Y67531D02*
X53346Y68433D01*
X52445Y66813D02*
X53346Y67715D01*
X52445Y68458D02*
X53346Y67556D01*
X52194Y65792D02*
X52445Y66043D01*
X51856Y65455D02*
X53346Y63964D01*
X51760Y59803D02*
X53561Y58002D01*
X52194Y65792D02*
X52445Y66043D01*
X52215Y65814D02*
X53346Y64682D01*
X54402Y56624D02*
X54652Y56874D01*
X53524Y58002D02*
X54276D01*
X53198Y56527D02*
X53398D01*
X53148Y56874D02*
Y57626D01*
Y56874D02*
X53398Y56624D01*
X54402Y56527D02*
Y56624D01*
Y56527D02*
X54602D01*
X53398D02*
Y56624D01*
X53198Y54527D02*
Y56527D01*
X53148Y57626D02*
X53524Y58002D01*
X52802Y56394D02*
X53215Y56807D01*
X52216Y56527D02*
X53148Y57459D01*
X51601Y56527D02*
X52802D01*
Y54957D02*
X53198Y55354D01*
X52802Y55169D02*
X53198Y54773D01*
X52802Y55675D02*
X53198Y56072D01*
X52802Y55888D02*
X53198Y55491D01*
X54602Y55525D02*
X59971Y50155D01*
X54602Y56243D02*
X59971Y50873D01*
X54602Y54806D02*
X59971Y49436D01*
X54602Y53165D02*
X59971Y58535D01*
X54652Y56911D02*
X59971Y51592D01*
X54602Y53369D02*
X59971Y48000D01*
X55438Y48254D02*
X59971Y52787D01*
X54602Y54088D02*
X59971Y48718D01*
X54719Y48254D02*
X59971Y53506D01*
X52838Y60881D02*
X59971Y53747D01*
X52478Y60521D02*
X59971Y53029D01*
X52119Y60162D02*
X59971Y52310D01*
X53197Y61240D02*
X59971Y54465D01*
X54602Y53883D02*
X59971Y59253D01*
X53283Y48254D02*
X59971Y54942D01*
X54001Y48254D02*
X59971Y54224D01*
X51846Y48254D02*
X59971Y56379D01*
X52564Y48254D02*
X59971Y55661D01*
X59811Y46005D02*
X59971Y45844D01*
X59811Y46161D02*
X59971Y46321D01*
X59811Y45442D02*
X59971Y45603D01*
X59674Y46742D02*
X59971Y47040D01*
X59811Y46104D02*
Y46606D01*
Y44568D02*
X59971Y44407D01*
X59811Y44005D02*
X59971Y44166D01*
X59811Y45287D02*
X59971Y45126D01*
X59811Y44724D02*
X59971Y44885D01*
X58237Y48179D02*
X59971Y49914D01*
X57593Y48254D02*
X59971Y50632D01*
X58596Y47820D02*
X59971Y49195D01*
X56156Y48254D02*
X59971Y52069D01*
X56875Y48254D02*
X59971Y51350D01*
X54061Y52473D02*
X59971Y46563D01*
X59315Y47102D02*
X59971Y47758D01*
X54602Y52651D02*
X59971Y47281D01*
X58956Y47461D02*
X59971Y48477D01*
X54602Y54527D02*
Y56527D01*
X54527Y54527D02*
X54602Y54602D01*
X54527Y54527D02*
X54602Y54602D01*
X53198Y54527D02*
X53398D01*
X54402D02*
X54602D01*
X54402Y54473D02*
X54602D01*
Y52473D02*
Y54473D01*
X53198Y52473D02*
Y54473D01*
X53398D01*
X52802Y53520D02*
X53198Y53917D01*
X52802Y54451D02*
X53198Y54054D01*
X52802Y53733D02*
X53198Y53336D01*
X52802Y54527D02*
Y56527D01*
Y54238D02*
X53198Y54635D01*
X52802Y52802D02*
X53198Y53198D01*
X52802Y53014D02*
X53198Y52617D01*
X52802Y52473D02*
Y54473D01*
Y52802D02*
X53198Y53198D01*
X58163Y48254D02*
X58414Y48003D01*
X57661Y48254D02*
X58163D01*
X58414Y48003D01*
X53342Y52473D02*
X57562Y48254D01*
X57661D02*
X58163D01*
X59560Y46857D02*
X59811Y46606D01*
Y46104D02*
Y46606D01*
X58414Y48003D02*
X59560Y46857D01*
X59811Y46606D01*
X53198Y52617D02*
X53342Y52473D01*
X53198D02*
X54602D01*
X51502Y52220D02*
X51755Y52473D01*
X51502D02*
X52802D01*
X51905D02*
X56125Y48254D01*
X52624Y52473D02*
X56844Y48254D01*
X51502Y52140D02*
Y52473D01*
Y52159D02*
X55407Y48254D01*
X50102Y66625D02*
X51441Y67965D01*
X50102Y67344D02*
X51441Y68684D01*
X50102Y67927D02*
X51441Y66587D01*
X49902Y68327D02*
X50102D01*
Y66273D02*
Y68327D01*
Y67209D02*
X51104Y66207D01*
X51497Y65095D02*
X53346Y63246D01*
X50102Y66490D02*
X50744Y65848D01*
X49600Y66273D02*
X50385Y65489D01*
X48882Y66273D02*
X50026Y65129D01*
X47196Y63002D02*
X51441Y67247D01*
X48698Y66273D02*
X50102D01*
X48163D02*
X49667Y64770D01*
X46478Y63002D02*
X49750Y66273D01*
X45570Y58502D02*
X53346Y66278D01*
X46288Y58502D02*
X53346Y65560D01*
X47898Y63002D02*
X51441Y66545D01*
X48651Y62249D02*
X52194Y65792D01*
X51138Y64736D02*
X53163Y62711D01*
X50778Y64377D02*
X52804Y62352D01*
X50419Y64018D02*
X52444Y61992D01*
X50060Y63658D02*
X52085Y61633D01*
X49701Y63299D02*
X51726Y61274D01*
X49706Y57749D02*
X54099Y62142D01*
X51401Y59444D02*
X53184Y57661D01*
X49341Y62940D02*
X51367Y60915D01*
X48982Y62581D02*
X51008Y60555D01*
X48623Y62222D02*
X50648Y60196D01*
X47007Y58502D02*
X53346Y64841D01*
X48128Y61998D02*
X50289Y59837D01*
X46691Y61998D02*
X49571Y59119D01*
X47409Y61998D02*
X49930Y59478D01*
X48444Y58502D02*
X53346Y63404D01*
X48954Y58502D02*
X53346Y62894D01*
X47725Y58502D02*
X53346Y64123D01*
X48954Y57498D02*
X49455D01*
X48698Y68327D02*
X48898D01*
X48302Y67572D02*
X48698Y67175D01*
X48302Y66981D02*
X48698Y67377D01*
X48302Y68290D02*
X48698Y67894D01*
X48302Y67699D02*
X48698Y68096D01*
Y66273D02*
Y68327D01*
Y66457D02*
X48882Y66273D01*
X48302D02*
Y68327D01*
Y66854D02*
X48698Y66457D01*
X46898Y66273D02*
X48302D01*
X46289Y66711D02*
X48948Y64052D01*
X47445Y66273D02*
X49307Y64411D01*
X46898Y67852D02*
Y68327D01*
X48302D01*
X45041Y63002D02*
X48698Y66659D01*
X45759Y63002D02*
X49031Y66273D01*
X44323Y63002D02*
X47594Y66273D01*
X46083Y66199D02*
X48589Y63692D01*
X48400Y61998D02*
X48651Y62249D01*
X47898Y61998D02*
X48400D01*
X47898D02*
X48400D01*
X45723Y65840D02*
X48230Y63333D01*
X45334Y65511D02*
X47843Y63002D01*
X45254Y61998D02*
X48751Y58502D01*
X45973Y61998D02*
X49212Y58759D01*
X48400Y61998D02*
X48651Y62249D01*
X44852Y58502D02*
X48348Y61998D01*
X42102D02*
X47898D01*
X42102Y58502D02*
X48954D01*
X44615Y65511D02*
X47125Y63002D01*
X42102D02*
X47898D01*
X44133Y58502D02*
X47630Y61998D01*
X44536D02*
X48033Y58502D01*
X43415D02*
X46912Y61998D01*
X43817D02*
X47314Y58502D01*
X51042Y59085D02*
X53148Y56978D01*
X51004Y56752D02*
X59971Y65719D01*
X50323Y58366D02*
X52163Y56527D01*
X50624Y56752D02*
X51376D01*
X51601Y56527D01*
X50409Y48254D02*
X59971Y57816D01*
X51127Y48254D02*
X59971Y57098D01*
X50682Y58725D02*
X53198Y56209D01*
X50248Y56001D02*
Y56376D01*
X49964Y58007D02*
X51219Y56752D01*
X49605Y57648D02*
X50563Y56690D01*
X50248Y56376D02*
X50624Y56752D01*
X49036Y57498D02*
X50248Y56286D01*
X50041Y55794D02*
X50248Y56001D01*
X42784Y49968D02*
X59971Y67156D01*
X43502Y49968D02*
X59971Y66437D01*
X42065Y49968D02*
X59971Y67874D01*
X49790Y55543D02*
X50041Y55794D01*
X51251Y51387D02*
X51502Y51638D01*
X51251Y51387D02*
X51502Y51638D01*
X49966Y50102D02*
X51815Y48254D01*
X51502Y51638D02*
Y52140D01*
Y51638D02*
Y52140D01*
X51403Y51539D02*
X54688Y48254D01*
X51043Y51180D02*
X53970Y48254D01*
X50684Y50821D02*
X53252Y48254D01*
X50325Y50462D02*
X52533Y48254D01*
X48972D02*
X53198Y52480D01*
X48254Y48254D02*
X52473Y52473D01*
X48117Y48254D02*
X57661D01*
X48254D02*
X52473Y52473D01*
X48320Y48456D02*
X51251Y51387D01*
X49690Y48254D02*
X53910Y52473D01*
X49062Y44075D02*
X56518D01*
X49607Y49743D02*
X51096Y48254D01*
X49247Y49384D02*
X50378Y48254D01*
X49455Y57498D02*
X49706Y57749D01*
X48317Y57498D02*
X50032Y55784D01*
X49790Y55543D02*
X50041Y55794D01*
X49455Y57498D02*
X49706Y57749D01*
X48954Y57498D02*
X49455D01*
X46880D02*
X49790Y54588D01*
X46162Y57498D02*
X49790Y53870D01*
X47599Y57498D02*
X49790Y55307D01*
Y55041D02*
Y55543D01*
X44725Y57498D02*
X49720Y52504D01*
X44007Y57498D02*
X49360Y52145D01*
X45444Y57498D02*
X49790Y53152D01*
X43752Y53810D02*
X47440Y57498D01*
X42102D02*
X48954D01*
X41347Y49968D02*
X48877Y57498D01*
X44752Y56035D02*
X49001Y51786D01*
X40629Y49968D02*
X48159Y57498D01*
X44473Y55595D02*
X48642Y51426D01*
X47094Y49968D02*
X49790Y52664D01*
X46376Y49968D02*
X49790Y53383D01*
X47184Y49968D02*
X49790Y52575D01*
Y55041D02*
Y55543D01*
Y52575D02*
Y55041D01*
X48888Y49025D02*
X49659Y48254D01*
X48529Y48666D02*
X48941Y48254D01*
X48117D02*
X48320Y48456D01*
X48117Y48254D02*
X48320Y48456D01*
X43108Y55523D02*
X47924Y50708D01*
X43852Y55498D02*
X48283Y51067D01*
X42602Y55311D02*
X47564Y50349D01*
X43752Y53443D02*
X47205Y49990D01*
X44939Y49968D02*
X49790Y54819D01*
X45658Y49968D02*
X49790Y54101D01*
X44221Y49968D02*
X49790Y55538D01*
X35493Y49968D02*
X47184D01*
X44602Y82048D02*
X45122Y81528D01*
X44170D02*
X44690Y82048D01*
X44888Y81528D02*
X45409Y82048D01*
X43451Y81528D02*
X43972Y82048D01*
X43883D02*
X44404Y81528D01*
X46038Y82048D02*
X46559Y81528D01*
X46325D02*
X46846Y82048D01*
X45320D02*
X45841Y81528D01*
X45607D02*
X46127Y82048D01*
X40665Y83052D02*
X45585Y87971D01*
X40115D02*
X45035Y83052D01*
X40834Y87971D02*
X45754Y83052D01*
X39397Y87971D02*
X44317Y83052D01*
X39946D02*
X44866Y87971D01*
X41383Y83052D02*
X46303Y87971D01*
X41552D02*
X46472Y83052D01*
X43165Y82048D02*
X43685Y81528D01*
X41815Y80524D02*
X43850Y78489D01*
X45287D02*
X46289Y77487D01*
X44723Y78489D02*
X46759Y80524D01*
X46289Y77252D02*
Y77595D01*
X44005Y78489D02*
X46040Y80524D01*
X45395Y78489D02*
X46289Y77595D01*
Y77487D02*
X46525Y77252D01*
X46289Y76148D02*
X46898D01*
X46289Y75805D02*
Y76148D01*
X45395Y74911D02*
X46289Y75805D01*
X43252Y80524D02*
X45287Y78489D01*
X43016Y78937D02*
X44603Y80524D01*
X43375Y78578D02*
X45322Y80524D01*
X42656Y79296D02*
X43885Y80524D01*
X42533D02*
X44569Y78489D01*
X43970Y80524D02*
X46898Y77596D01*
X43605Y74911D02*
X45395D01*
X43605Y78489D02*
X45395D01*
X42711Y75805D02*
X43605Y74911D01*
X42446Y82048D02*
X42967Y81528D01*
X42014D02*
X42535Y82048D01*
X42733Y81528D02*
X43254Y82048D01*
X41728D02*
X42249Y81528D01*
X41579Y80374D02*
X41730Y80524D01*
X42297Y79655D02*
X43167Y80524D01*
X41692Y80261D02*
X43534Y78418D01*
X41938Y80014D02*
X42448Y80524D01*
X41441Y80512D02*
X41692Y80261D01*
X40578Y81528D02*
X41098Y82048D01*
X40291D02*
X40812Y81528D01*
X41009Y82048D02*
X41530Y81528D01*
X39573Y82048D02*
X40093Y81528D01*
X39859D02*
X40380Y82048D01*
X41296Y81528D02*
X41817Y82048D01*
X41441Y80512D02*
X41692Y80261D01*
X40939Y80512D02*
X41441D01*
X40939D02*
X41441D01*
X43534Y78418D02*
X43605Y78489D01*
X40939Y79508D02*
X42782Y77666D01*
X42711Y77595D02*
X42782Y77666D01*
X41004Y76207D02*
X42622Y77825D01*
X42711Y75805D02*
Y77595D01*
X41142Y75626D02*
X42711Y77195D01*
X41142Y74907D02*
X42711Y76477D01*
X41142Y75568D02*
Y76070D01*
Y75568D02*
Y76070D01*
X40676Y79508D02*
X42711Y77473D01*
X40286Y76925D02*
X41904Y78544D01*
X39568Y77644D02*
X41186Y79262D01*
X39927Y77285D02*
X41545Y78903D01*
X39957Y79508D02*
X42711Y76755D01*
X40645Y76566D02*
X42263Y78184D01*
X40891Y76321D02*
X41142Y76070D01*
X40891Y76321D02*
X41142Y76070D01*
X45395Y69089D02*
X46289Y68195D01*
X45348Y69089D02*
X46289Y68148D01*
Y67852D02*
Y68195D01*
X43534Y69018D02*
X43605Y69089D01*
X45395D01*
X46289Y66748D02*
X46898D01*
Y66273D02*
Y66748D01*
X46289Y68148D02*
X46585Y67852D01*
X46289D02*
X46898D01*
X41549Y71004D02*
X46693Y76148D01*
X41189Y71363D02*
X44737Y74911D01*
X41142Y73295D02*
X45348Y69089D01*
X41142Y72752D02*
X43453Y75063D01*
X41142Y72034D02*
X44019Y74911D01*
X41142Y74014D02*
X46898Y68257D01*
X41142Y72577D02*
X44629Y69089D01*
X41142Y71858D02*
X43911Y69089D01*
X41142Y71411D02*
X43534Y69018D01*
X46289Y66405D02*
Y66748D01*
X42886Y63002D02*
X46633Y66748D01*
X45395Y65511D02*
X46289Y66405D01*
X42711D02*
X43605Y65511D01*
X45395D01*
X43604Y63002D02*
X46898Y66296D01*
X43099Y61998D02*
X46596Y58502D01*
X43897Y65511D02*
X46406Y63002D01*
X42696Y58502D02*
X46193Y61998D01*
X42167Y63002D02*
X44677Y65511D01*
X41784Y59027D02*
X44756Y61998D01*
X42102Y58625D02*
X45475Y61998D01*
X41974Y63527D02*
X43958Y65511D01*
X41066Y59027D02*
X44038Y61998D01*
X42380D02*
X45877Y58502D01*
X42102Y61559D02*
X45159Y58502D01*
X40750Y61473D02*
X43722Y58502D01*
X41469Y61473D02*
X44440Y58502D01*
X41142Y73471D02*
X43094Y75423D01*
X40389Y70658D02*
X42782Y68266D01*
X42711Y68195D02*
X42782Y68266D01*
X41142Y74189D02*
X42734Y75782D01*
X41142Y71411D02*
Y75568D01*
X42711Y66405D02*
Y68195D01*
X41256Y63527D02*
X43423Y65694D01*
X40698Y61473D02*
Y63527D01*
X42102D01*
X40138Y70909D02*
X40389Y70658D01*
X40138Y70909D02*
Y71411D01*
Y70909D02*
X40389Y70658D01*
X40138Y71411D02*
Y75568D01*
Y70909D02*
Y71411D01*
X39819Y63527D02*
X42711Y66419D01*
X40302Y63291D02*
X43063Y66053D01*
X40134Y63527D02*
X40302Y63359D01*
Y61473D02*
Y63527D01*
X42102Y61499D02*
X42601Y61998D01*
X42102Y61473D02*
Y61998D01*
X40698Y59027D02*
X42102D01*
Y63002D02*
Y63527D01*
X40698Y61473D02*
X42102D01*
Y58502D02*
Y59027D01*
Y58685D02*
X42285Y58502D01*
X40302Y56973D02*
Y59027D01*
X40698Y56973D02*
Y59027D01*
X40302Y62640D02*
X40698Y62244D01*
X40302Y61854D02*
X40698Y62251D01*
X40302Y63359D02*
X40698Y62962D01*
X40302Y62573D02*
X40698Y62969D01*
X40302Y58981D02*
X43319Y61998D01*
X40032Y61473D02*
X43004Y58502D01*
X40302Y61922D02*
X40698Y61525D01*
X39629Y59027D02*
X42076Y61473D01*
X37242Y87971D02*
X42161Y83052D01*
X37073D02*
X41992Y87971D01*
X37791Y83052D02*
X42711Y87971D01*
X36354Y83052D02*
X41274Y87971D01*
X36523D02*
X41443Y83052D01*
X38679Y87971D02*
X43598Y83052D01*
X39228D02*
X44148Y87971D01*
X37960D02*
X42880Y83052D01*
X38509D02*
X43429Y87971D01*
X33481Y83052D02*
X38400Y87971D01*
X32931D02*
X37851Y83052D01*
X33650Y87971D02*
X38569Y83052D01*
X32213Y87971D02*
X37133Y83052D01*
X32762D02*
X37682Y87971D01*
X35636Y83052D02*
X40556Y87971D01*
X35805D02*
X40725Y83052D01*
X34917D02*
X39837Y87971D01*
X35086D02*
X40006Y83052D01*
X38854Y82048D02*
X39375Y81528D01*
X38422D02*
X38943Y82048D01*
X39141Y81528D02*
X39662Y82048D01*
X37704Y81528D02*
X38225Y82048D01*
X38136D02*
X38657Y81528D01*
X38131Y79081D02*
X38558Y79508D01*
X38490Y78721D02*
X39277Y79508D01*
X37970Y79242D02*
X38221Y78991D01*
X37970Y79242D02*
X38221Y78991D01*
X34368Y87971D02*
X39288Y83052D01*
X34199D02*
X39119Y87971D01*
X37417Y82048D02*
X37938Y81528D01*
X36699Y82048D02*
X37220Y81528D01*
X36985D02*
X37506Y82048D01*
X37468Y79242D02*
X37970D01*
X37468D02*
X37970D01*
X37084Y79508D02*
X37350Y79242D01*
X37573D02*
X37840Y79508D01*
X34544Y82048D02*
X35064Y81528D01*
X34112D02*
X34633Y82048D01*
X34830Y81528D02*
X35351Y82048D01*
X33393Y81528D02*
X33914Y82048D01*
X33825D02*
X34346Y81528D01*
X35980Y82048D02*
X36501Y81528D01*
X36267D02*
X36788Y82048D01*
X35262D02*
X35783Y81528D01*
X35549D02*
X36069Y82048D01*
X31494Y87971D02*
X36414Y83052D01*
X31325D02*
X36245Y87971D01*
X32044Y83052D02*
X36963Y87971D01*
X31238Y81528D02*
X31759Y82048D01*
X31670D02*
X32191Y81528D01*
X32675D02*
X33196Y82048D01*
X33107D02*
X33628Y81528D01*
X31957D02*
X32477Y82048D01*
X32388D02*
X32909Y81528D01*
X34928Y79508D02*
X35195Y79242D01*
X34699D02*
X34966Y79508D01*
X35418Y79242D02*
X35685Y79508D01*
X33981Y79242D02*
X34248Y79508D01*
X34210D02*
X34477Y79242D01*
X36365Y79508D02*
X36632Y79242D01*
X36855D02*
X37122Y79508D01*
X35647D02*
X35914Y79242D01*
X36136D02*
X36403Y79508D01*
X31826Y79242D02*
X32093Y79508D01*
X32055D02*
X32321Y79242D01*
X31107D02*
X31374Y79508D01*
X31336D02*
X31603Y79242D01*
X33263D02*
X33529Y79508D01*
X33492D02*
X33758Y79242D01*
X32544D02*
X32811Y79508D01*
X32773D02*
X33040Y79242D01*
X39239Y79508D02*
X42711Y76036D01*
X39208Y78003D02*
X40714Y79508D01*
X38221Y78991D02*
X40891Y76321D01*
X38849Y78362D02*
X39995Y79508D01*
X37468Y78238D02*
X40138Y75568D01*
X35480Y78238D02*
X40138Y73580D01*
X34762Y78238D02*
X40138Y72862D01*
X36917Y78238D02*
X40138Y75017D01*
X36198Y78238D02*
X40138Y74298D01*
X32606Y78238D02*
X42711Y68134D01*
X31888Y78238D02*
X42711Y67415D01*
X31169Y78238D02*
X42711Y66697D01*
X34043Y78238D02*
X40138Y72143D01*
X33325Y78238D02*
X40138Y71425D01*
X32886Y62342D02*
X40796Y70251D01*
X33252Y61989D02*
X41155Y69892D01*
X31449Y62342D02*
X40138Y71031D01*
X32168Y62342D02*
X40437Y70611D01*
X39100Y63527D02*
X42711Y67137D01*
X38898Y63527D02*
X40302D01*
X38898Y61473D02*
X40302D01*
X38576Y63652D02*
X38898Y63329D01*
Y63527D01*
X38911Y59027D02*
X41358Y61473D01*
X39313D02*
X41760Y59027D01*
X38648Y61420D02*
X41042Y59027D01*
X38898D02*
X40302D01*
X37788Y63652D02*
X42592Y68455D01*
X33903Y60484D02*
X42233Y68815D01*
X38507Y63652D02*
X42711Y67856D01*
X33611Y61629D02*
X41515Y69533D01*
X33903Y61203D02*
X41874Y69174D01*
X38317Y59152D02*
X40698Y61533D01*
X38002Y61348D02*
X40698Y58652D01*
X35971Y58242D02*
X39202Y61473D01*
X37599Y59152D02*
X39921Y61473D01*
X37424Y63652D02*
X38576D01*
X36848Y61924D02*
X37424Y61348D01*
X38898Y61473D02*
Y61671D01*
X36848Y63076D02*
X37424Y63652D01*
X36848Y61924D02*
Y63076D01*
X38576Y61348D02*
X38898Y61671D01*
X35512Y58502D02*
X38359Y61348D01*
X33903Y58329D02*
X37173Y61599D01*
X33903Y57611D02*
X37640Y61348D01*
X32899Y62342D02*
X33150Y62091D01*
X32899Y62342D02*
X33150Y62091D01*
X33652Y61589D01*
X32397Y62342D02*
X32899D01*
X32397D02*
X32899D01*
X33903Y59766D02*
X36848Y62712D01*
X33903Y59047D02*
X36848Y61993D01*
X33652Y61589D02*
X33903Y61338D01*
X33652Y61589D02*
X33903Y61338D01*
X38898Y58829D02*
Y59027D01*
X38576Y59152D02*
X38898Y58829D01*
X38806Y58922D02*
X38898Y59014D01*
X37424Y61348D02*
X38576D01*
X37424Y59152D02*
X38576D01*
X33903Y60418D02*
X36848Y57473D01*
Y58576D02*
X37424Y59152D01*
X33903Y59700D02*
X35155Y58447D01*
X33903Y58982D02*
X34958Y57926D01*
X33903Y60836D02*
Y61338D01*
Y60836D02*
Y61338D01*
X32397Y61338D02*
X32899Y60836D01*
X32264Y61338D02*
X32899Y60703D01*
X33903Y61137D02*
X36848Y58191D01*
X33903Y55850D02*
Y60836D01*
X31546Y61338D02*
X32899Y59985D01*
Y55850D02*
Y60836D01*
X44582Y56795D02*
X45285Y57498D01*
X44070Y57002D02*
X44567Y57498D01*
X44376Y57002D02*
X44752Y56626D01*
X43288Y57498D02*
X43785Y57002D01*
X43624D02*
X44376D01*
X44752Y56246D02*
X46004Y57498D01*
X43426Y54202D02*
X46722Y57498D01*
X43248Y56527D02*
Y56626D01*
X44752Y55874D02*
Y56626D01*
X42570Y57498D02*
X43345Y56723D01*
X42102Y57188D02*
X42412Y57498D01*
X43248Y56626D02*
X43624Y57002D01*
X41658Y56973D02*
X42105Y56527D01*
X41849D02*
X42351D01*
X42158D02*
X43130Y57498D01*
X42877Y56527D02*
X43848Y57498D01*
X42102Y57248D02*
X42823Y56527D01*
X41849D02*
X42351D01*
X44376Y55498D02*
X44752Y55874D01*
X43389Y55523D02*
X43599D01*
X43624Y55498D02*
X44376D01*
X43389Y55523D02*
X43599D01*
X42624Y54252D02*
X43376D01*
X42757D02*
X44004Y55498D01*
X43376Y52748D02*
X43752Y53124D01*
X43376Y54252D02*
X43752Y53876D01*
Y53124D02*
Y53876D01*
X42602Y56527D02*
X43248D01*
X42351D02*
X42602D01*
Y55523D02*
X43389D01*
X41849Y56527D02*
X42351D01*
X42602D01*
Y54815D02*
X43310Y55523D01*
X42602Y54593D02*
X42943Y54252D01*
X42602Y54527D02*
Y55523D01*
Y54229D02*
Y54473D01*
X42102Y56973D02*
Y57498D01*
X41887Y56973D02*
X42102Y57188D01*
X40698Y56973D02*
X42102D01*
X40302Y57611D02*
X40698Y57215D01*
X40940Y56973D02*
X41386Y56527D01*
X41440D02*
X41887Y56973D01*
X41198Y56527D02*
X41849D01*
X41198Y54527D02*
Y56527D01*
X40602Y55688D02*
X41198Y56285D01*
X40302Y57544D02*
X40698Y57941D01*
X40302Y58330D02*
X40698Y57933D01*
X39478Y56002D02*
X40698Y57222D01*
X40302Y58262D02*
X40698Y58659D01*
X39849Y56002D02*
X40351D01*
X40221Y56973D02*
X41198Y55996D01*
X39503Y56973D02*
X41198Y55278D01*
X40196Y56002D02*
X41168Y56973D01*
X39849Y56002D02*
X40351D01*
X40602Y55156D02*
X41198Y54559D01*
X40602Y54970D02*
X41198Y55567D01*
X40602Y54252D02*
X41198Y54848D01*
X40602Y55249D02*
Y55751D01*
Y55249D02*
Y55751D01*
Y53533D02*
X41198Y54130D01*
X40602Y53719D02*
X41198Y53123D01*
X40602Y53249D02*
Y55249D01*
Y54438D02*
X41198Y53841D01*
X40351Y56002D02*
X40602Y55751D01*
X40351Y56002D02*
X40602Y55751D01*
X39323Y54998D02*
X39598Y54723D01*
Y53249D02*
Y54998D01*
X40351Y52998D02*
X40602Y53249D01*
X39849Y52998D02*
X40351D01*
X39598Y53286D02*
X39886Y52998D01*
X39598Y53249D02*
X39849Y52998D01*
X43552Y52924D02*
X46508Y49968D01*
X43009Y52748D02*
X45790Y49968D01*
X44679Y48205D02*
X45251Y47633D01*
X42624Y52748D02*
X43376D01*
X43960Y48205D02*
X44892Y47274D01*
X43503Y47095D02*
X44613Y48205D01*
X43862Y46736D02*
X45332Y48205D01*
X42881Y47192D02*
X43895Y48205D01*
X43242D02*
X44525Y46922D01*
X40477Y53125D02*
X43634Y49968D01*
X39886Y52998D02*
X42916Y49968D01*
X41848Y52473D02*
X44353Y49968D01*
X42602Y52660D02*
X42690Y52748D01*
X41198Y52473D02*
X42602D01*
X42566D02*
X45071Y49968D01*
X42523Y48205D02*
X44218Y46510D01*
X41805Y48205D02*
X42819Y47192D01*
X41442Y46471D02*
X43176Y48205D01*
X45620Y48003D02*
X45823Y48205D01*
X45620Y48003D02*
X45823Y48205D01*
X45119Y47502D02*
X45620Y48003D01*
X45397Y48205D02*
X45610Y47993D01*
X44868Y47251D02*
X45119Y47502D01*
X44868Y47251D02*
X45119Y47502D01*
X46522Y44075D02*
X46758D01*
X44218Y46616D02*
X44794Y47192D01*
X44218Y45587D02*
Y46616D01*
X43982Y46137D02*
X44218Y46374D01*
X43982Y45641D02*
Y46616D01*
Y46029D02*
X44218Y45792D01*
X42254Y47192D02*
X43406D01*
X43982Y46616D01*
X44150Y45587D02*
X44218Y45655D01*
X44036Y45587D02*
X44218D01*
X43982Y45641D02*
X44036Y45587D01*
X43982Y44075D02*
X44218D01*
X42602Y52473D02*
Y52771D01*
X42416Y52473D02*
X42602Y52660D01*
X41087Y48205D02*
X42177Y47115D01*
X41198Y52473D02*
Y54473D01*
X40726Y47192D02*
X41740Y48205D01*
X41155Y46902D02*
X42458Y48205D01*
X41678Y46616D02*
X42254Y47192D01*
X40866D02*
X41442Y46616D01*
Y45464D02*
Y46616D01*
X39910Y49968D02*
X42416Y52473D01*
X39192Y49968D02*
X41697Y52473D01*
X39714Y47192D02*
X40866D01*
X38931Y48205D02*
X39945Y47192D01*
X39650Y48205D02*
X40664Y47192D01*
X40007D02*
X41021Y48205D01*
X40368D02*
X41818Y46756D01*
X39138Y46616D02*
X39714Y47192D01*
X39138Y45464D02*
Y46616D01*
X41678Y45464D02*
Y46616D01*
X41442Y45752D02*
X41678Y45989D01*
X41056Y45079D02*
X42064D01*
X41442Y46414D02*
X41678Y46177D01*
X41056Y45079D02*
X41442Y45464D01*
Y45695D02*
X42058Y45079D01*
X41678Y45464D02*
X42064Y45079D01*
X41486D02*
X41775Y45367D01*
X41198Y45220D02*
X41340Y45079D01*
X39832Y44759D02*
Y44888D01*
Y44759D02*
Y44888D01*
X39138Y45464D02*
X39714Y44888D01*
X39832D01*
Y44759D02*
X39940Y44652D01*
X39832Y44759D02*
X39940Y44652D01*
X39138Y44076D02*
X39714Y44652D01*
X39940D01*
X38576Y56848D02*
X38898Y57171D01*
X38126Y56086D02*
X39013Y56973D01*
X38898D02*
X40302D01*
X38898D02*
Y57171D01*
X37767Y56446D02*
X38169Y56848D01*
X38743Y57015D02*
X39756Y56002D01*
X38211D02*
X39849D01*
X38759D02*
X39731Y56973D01*
X38191Y56848D02*
X39038Y56002D01*
X37473Y56848D02*
X38319Y56002D01*
X35711Y58502D02*
X38211Y56002D01*
X37424Y56848D02*
X38576D01*
X36848Y57473D02*
X37473Y56848D01*
X36848Y57424D02*
X37424Y56848D01*
X33903Y58263D02*
X42198Y49968D01*
X33903Y57545D02*
X41479Y49968D01*
X34958Y57749D02*
X37458Y55249D01*
X33903Y56826D02*
X40761Y49968D01*
X37709Y54998D02*
X38211D01*
X37709D02*
X38211D01*
X39598D01*
X37458Y55249D02*
X37709Y54998D01*
X37458Y55249D02*
X37709Y54998D01*
X37755Y49968D02*
X41198Y53412D01*
X38473Y49968D02*
X41198Y52693D01*
X38604Y54998D02*
X39598Y54004D01*
X37886Y54998D02*
X39598Y53286D01*
X36318Y49968D02*
X39599Y53249D01*
X35600Y49968D02*
X39598Y53967D01*
X36325Y52248D02*
X38606Y49968D01*
X36443Y53685D02*
X37756Y54998D01*
X36752Y53275D02*
X38475Y54998D01*
X37037Y49968D02*
X40067Y52998D01*
X36385Y48205D02*
X45823D01*
X36752Y53259D02*
X40042Y49968D01*
X36710Y52582D02*
X39324Y49968D01*
X36330Y57883D02*
X36848Y58401D01*
X35209Y58502D02*
X35711D01*
X36689Y57523D02*
X36848Y57683D01*
X34958Y58251D02*
X35209Y58502D01*
X34958Y57749D02*
Y58251D01*
X36848Y57424D02*
Y58576D01*
X35537Y54216D02*
X37014Y55693D01*
X34818Y54934D02*
X36296Y56412D01*
X35178Y54575D02*
X36655Y56052D01*
X33903Y56174D02*
X35218Y57489D01*
X33903Y56892D02*
X34958Y57948D01*
X34100Y55653D02*
X35577Y57130D01*
X32899Y55348D02*
Y55850D01*
Y55348D02*
Y55850D01*
X33903Y56108D02*
X36259Y53752D01*
X33903Y55850D02*
X36001Y53752D01*
X34459Y55293D02*
X35937Y56771D01*
X32899Y55348D02*
X33150Y55097D01*
X36376Y53752D02*
X36752Y53376D01*
X35896Y53856D02*
X37374Y55334D01*
X36752Y52624D02*
Y53376D01*
X36001Y53752D02*
X36376D01*
X35248Y52624D02*
X35624Y52248D01*
X36376D02*
X36752Y52624D01*
X35624Y52248D02*
X36376D01*
X35493Y48965D02*
X35639D01*
X35396Y48867D02*
X35469Y48794D01*
X35248Y52624D02*
Y52999D01*
X34992Y49968D02*
X35493D01*
X32899Y55348D02*
X33150Y55097D01*
X35248Y52999D01*
X34992Y49968D02*
X35493D01*
X35037Y48508D02*
X35110Y48435D01*
X34741Y49717D02*
X34992Y49968D01*
X34741Y49717D02*
X34992Y49968D01*
X38448Y47069D02*
X39584Y48205D01*
X38213D02*
X39470Y46948D01*
X38807Y46710D02*
X40303Y48205D01*
X37852Y47192D02*
X38866Y48205D01*
X38326Y47192D02*
X38902Y46616D01*
Y46086D02*
X39138Y46323D01*
X38902Y46080D02*
X39138Y45843D01*
X37495Y48205D02*
X39138Y46562D01*
X38902Y45464D02*
Y46616D01*
X32015Y47102D02*
X39598Y54685D01*
X31296Y47102D02*
X39193Y54998D01*
X37174Y47192D02*
X38326D01*
X36776Y48205D02*
X37790Y47192D01*
X36221Y48042D02*
X37123Y47140D01*
X35765Y46542D02*
X37429Y48205D01*
X36484Y46542D02*
X38147Y48205D01*
X35862Y47683D02*
X36764Y46781D01*
X36598Y46616D02*
X37174Y47192D01*
X38326Y44888D02*
X38902Y45464D01*
X38186Y44652D02*
X39138Y45604D01*
X37938Y44888D02*
X38175Y44652D01*
X37219Y44888D02*
X37456Y44652D01*
X37467D02*
X37704Y44888D01*
X38850Y45413D02*
X39663Y44600D01*
X38615Y44362D02*
X39428Y45175D01*
X38491Y45054D02*
X39304Y44241D01*
X38326Y44652D02*
X38902Y44076D01*
X37174Y44888D02*
X38326D01*
X37174Y44652D02*
X38326D01*
X36598Y45509D02*
X37219Y44888D01*
X36598Y45464D02*
X37174Y44888D01*
X36099Y44002D02*
X37080Y44983D01*
X36598Y44076D02*
X37174Y44652D01*
X35991Y45398D02*
X36956Y44433D01*
X35381Y44002D02*
X36721Y45342D01*
X35629Y46542D02*
X36131D01*
X35503Y47323D02*
X36285Y46542D01*
X36131D02*
X36598D01*
X34677Y48149D02*
X34750Y48076D01*
X35629Y46542D02*
X36131D01*
X35378Y46291D02*
X35629Y46542D01*
X35378Y46291D02*
X35629Y46542D01*
X35144Y46964D02*
X35598Y46510D01*
X34784Y46605D02*
X35238Y46151D01*
X34318Y47790D02*
X34391Y47717D01*
X32125Y47102D02*
X34741Y49717D01*
X33959Y47431D02*
X34032Y47357D01*
X33600Y47071D02*
X33673Y46998D01*
X33240Y46712D02*
X33314Y46639D01*
X32878Y46349D02*
X35493Y48965D01*
X31236Y44562D02*
X35632Y48958D01*
X32881Y46353D02*
X32954Y46280D01*
X32627Y46098D02*
X32878Y46349D01*
X36131Y45538D02*
X36598D01*
X35632Y45039D02*
X36598Y44073D01*
X34740Y44002D02*
X35242D01*
X34425Y46246D02*
X34879Y45792D01*
X34066Y45887D02*
X34520Y45432D01*
X35272Y44680D02*
X35951Y44002D01*
X35242D02*
X36598D01*
X34913Y44321D02*
X35233Y44002D01*
X34740D02*
X35242D01*
X32627Y46098D02*
X32878Y46349D01*
X32125Y46098D02*
X32627D01*
X32417D02*
X32595Y45921D01*
X32125Y46098D02*
X32627D01*
X33707Y45527D02*
X34161Y45073D01*
X33348Y45168D02*
X33802Y44714D01*
X31699Y46098D02*
X32236Y45561D01*
X32988Y44809D02*
X33442Y44355D01*
X59811Y40413D02*
X59971Y40574D01*
X59811Y40976D02*
X59971Y40815D01*
X59811Y40258D02*
X59971Y40097D01*
X59811Y41695D02*
X59971Y41534D01*
X59811Y41132D02*
X59971Y41292D01*
X59811Y38976D02*
X59971Y39137D01*
X59811Y38821D02*
X59971Y38660D01*
X59811Y39695D02*
X59971Y39856D01*
X59811Y39539D02*
X59971Y39379D01*
X59811Y42568D02*
X59971Y42729D01*
X59811Y43131D02*
X59971Y42971D01*
X59811Y42413D02*
X59971Y42252D01*
X59811Y43850D02*
X59971Y43689D01*
X59811Y43287D02*
X59971Y43448D01*
X59811Y41850D02*
X59971Y42011D01*
X57779Y39416D02*
X58172Y39022D01*
X57779Y42290D02*
X58172Y41896D01*
X57779Y39100D02*
X58172Y39493D01*
X59811Y36821D02*
X59971Y36982D01*
X59811Y37384D02*
X59971Y37223D01*
X59811Y36666D02*
X59971Y36505D01*
X59811Y38102D02*
X59971Y37942D01*
X59811Y37540D02*
X59971Y37700D01*
X59811Y35384D02*
X59971Y35545D01*
X59811Y35229D02*
X59971Y35068D01*
X59811Y36103D02*
X59971Y36264D01*
X59811Y35947D02*
X59971Y35786D01*
X59811Y38258D02*
X59971Y38419D01*
X57779Y37663D02*
X58172Y38057D01*
X57779Y37979D02*
X58172Y37585D01*
X57779Y38381D02*
X58172Y38775D01*
X57779Y38698D02*
X58172Y38304D01*
X57779Y36226D02*
X58172Y36620D01*
X57779Y36542D02*
X58172Y36149D01*
X57779Y36944D02*
X58172Y37338D01*
X57779Y37261D02*
X58172Y36867D01*
X57779Y43958D02*
X58172Y43564D01*
X57779Y43818D02*
Y43958D01*
Y43410D02*
X58053Y43684D01*
X56518Y44075D02*
X56775Y43818D01*
X57779D02*
Y43958D01*
Y43008D02*
X58172Y42614D01*
X57779Y41973D02*
X58172Y42367D01*
X57779Y43727D02*
X58172Y43333D01*
X57779Y42692D02*
X58172Y43086D01*
X54556Y44075D02*
X56775Y41856D01*
X53838Y44075D02*
X56775Y41138D01*
X53119Y44075D02*
X56775Y40419D01*
X55993Y44075D02*
X56775Y43293D01*
X55275Y44075D02*
X56775Y42575D01*
X52902Y39252D02*
X56775Y43125D01*
X53560Y39192D02*
X56775Y42407D01*
X52401Y44075D02*
X56775Y39701D01*
X52183Y39252D02*
X56763Y43831D01*
X57779Y40853D02*
X58172Y40459D01*
X57779Y40536D02*
X58172Y40930D01*
X57779Y39818D02*
X58172Y40212D01*
X57779Y41255D02*
X58172Y41649D01*
X57779Y41571D02*
X58172Y41178D01*
X57779Y35508D02*
X58172Y35901D01*
X57779Y35824D02*
X58172Y35430D01*
X57779Y40134D02*
X58172Y39741D01*
X54312Y34915D02*
X56775Y37378D01*
X53752Y38665D02*
X56775Y41689D01*
X53501Y38248D02*
X53752Y38499D01*
X53501Y39252D02*
X53752Y39001D01*
Y38499D02*
Y39001D01*
X53709Y38457D02*
X56775Y35390D01*
X53953Y35274D02*
X56775Y38096D01*
X53362Y35402D02*
X56775Y38815D01*
X52674Y35402D02*
X53826D01*
X59811Y33792D02*
X59971Y33631D01*
X59811Y33947D02*
X59971Y34108D01*
X59811Y33229D02*
X59971Y33390D01*
X59811Y34666D02*
X59971Y34827D01*
X59811Y34510D02*
X59971Y34350D01*
Y4500D02*
Y84000D01*
X59811Y33074D02*
X59971Y32913D01*
X59811Y29207D02*
Y46104D01*
X58172Y29588D02*
Y43564D01*
X57779Y34387D02*
X58172Y33993D01*
X57779Y34071D02*
X58172Y34465D01*
X57779Y33352D02*
X58172Y33746D01*
X57779Y34789D02*
X58172Y35183D01*
X57779Y35106D02*
X58172Y34712D01*
X57779Y33669D02*
X58172Y33275D01*
X57779Y32634D02*
X58172Y33028D01*
X57779Y30604D02*
Y43818D01*
X54143Y32590D02*
X56775Y35223D01*
X59811Y31637D02*
X59971Y31476D01*
X59811Y31792D02*
X59971Y31953D01*
X59811Y31074D02*
X59971Y31235D01*
X59811Y32511D02*
X59971Y32671D01*
X59811Y32355D02*
X59971Y32194D01*
X59811Y30918D02*
X59971Y30757D01*
X59811Y30355D02*
X59971Y30516D01*
X57779Y30102D02*
Y30604D01*
Y30102D02*
Y30604D01*
Y31197D02*
X58172Y31591D01*
X57779Y32232D02*
X58172Y31838D01*
X57779Y31513D02*
X58172Y31120D01*
X57779Y32950D02*
X58172Y32556D01*
X57779Y31915D02*
X58172Y32309D01*
X57779Y30479D02*
X58172Y30872D01*
X57779Y30795D02*
X58172Y30401D01*
X52781Y26918D02*
X56775Y30912D01*
X53089Y26918D02*
X56775Y30604D01*
X54502Y32231D02*
X56775Y34504D01*
X54402Y34286D02*
X56775Y36660D01*
X55133Y32144D02*
X56775Y33786D01*
X54402Y33674D02*
Y34826D01*
X53932Y33205D02*
X54993Y32144D01*
X56775Y30604D02*
Y43818D01*
X54291Y33564D02*
X56775Y31080D01*
X54402Y34172D02*
X56775Y31798D01*
X55717Y32009D02*
X56775Y33068D01*
X53199Y38248D02*
X56775Y34672D01*
X52480Y38248D02*
X56775Y33953D01*
X53826Y33098D02*
X54402Y33674D01*
X53826Y35402D02*
X54402Y34826D01*
X52674Y33098D02*
X53826D01*
X53783Y32949D02*
X56775Y35941D01*
X53320Y33098D02*
X53405Y33014D01*
X52411D02*
X52585Y33188D01*
X53129Y33014D02*
X53214Y33098D01*
X56076Y31650D02*
X56775Y32349D01*
X55582Y32144D02*
X56164Y31562D01*
Y31019D02*
X56775Y31631D01*
X53970Y32763D02*
X54589Y32144D01*
X55582D01*
X56164Y30973D02*
X56654Y30483D01*
X55582Y29816D02*
X56164Y30398D01*
Y31562D01*
X53836Y30427D02*
X54447Y29816D01*
X53719Y33014D02*
X53970Y32763D01*
X53719Y33014D02*
X53970Y32763D01*
X53217Y33014D02*
X53719D01*
X53217D02*
X53719D01*
X52253Y32010D02*
X53836Y30427D01*
Y30398D02*
Y31391D01*
X53217Y32010D02*
X53836Y31391D01*
X52971Y32010D02*
X53836Y31145D01*
X50746Y39252D02*
X55570Y44075D01*
X50028Y39252D02*
X54852Y44075D01*
X51465Y39252D02*
X56289Y44075D01*
X49310Y39252D02*
X54133Y44075D01*
X49062Y43104D02*
X52914Y39252D01*
X50246Y44075D02*
X56775Y37546D01*
X49527Y44075D02*
X56775Y36827D01*
X51682Y44075D02*
X56775Y38982D01*
X50964Y44075D02*
X56775Y38264D01*
X49062Y43314D02*
X49823Y44075D01*
X47154Y39252D02*
X51978Y44075D01*
X46445Y42847D02*
X50040Y39252D01*
X49062Y42924D02*
Y44075D01*
X48486Y42348D02*
X49062Y42924D01*
X48591Y39252D02*
X53415Y44075D01*
X49062Y43823D02*
X56775Y36109D01*
X47873Y39252D02*
X52696Y44075D01*
X48792Y42655D02*
X52196Y39252D01*
X49607Y38248D02*
X52564Y35291D01*
X48888Y38248D02*
X52205Y34932D01*
X50325Y38248D02*
X53172Y35402D01*
X47662Y42348D02*
X50759Y39252D01*
X48380Y42348D02*
X51477Y39252D01*
X48170Y38248D02*
X52098Y34320D01*
Y34826D02*
X52674Y35402D01*
X47829Y34898D02*
X51180Y38248D01*
X47902Y34252D02*
X51898Y38248D01*
X46499Y39252D02*
X53501D01*
X46085Y42488D02*
X49322Y39252D01*
X46499Y38248D02*
X53501D01*
X47334Y42348D02*
X48486D01*
X45507D02*
X48604Y39252D01*
X46896Y35402D02*
X49743Y38248D01*
X47470Y35257D02*
X50462Y38248D01*
X45143Y35085D02*
X48306Y38248D01*
X46178Y35402D02*
X49025Y38248D01*
X46522Y43489D02*
X46758Y43252D01*
X46522Y43648D02*
X46758Y43885D01*
X46522Y42930D02*
X46758Y43166D01*
X46522Y42924D02*
Y44075D01*
X46653D02*
X46758Y43970D01*
Y42924D02*
Y44075D01*
Y42924D02*
X47334Y42348D01*
X45941D02*
X46522Y42930D01*
X45946Y42348D02*
X46522Y42924D01*
X43982Y43155D02*
X47885Y39252D01*
X43562D02*
X46997Y42686D01*
X43738Y42680D02*
X47167Y39252D01*
X42844D02*
X45941Y42348D01*
X44794D02*
X45946D01*
X44281Y39252D02*
X47377Y42348D01*
X44750Y39003D02*
X48096Y42348D01*
X42633D02*
X46248Y38733D01*
X43352Y42348D02*
X46474Y39226D01*
X46248Y38499D02*
X46499Y38248D01*
X46248Y39001D02*
X46499Y39252D01*
X46174Y35402D02*
X47326D01*
X46248Y38499D02*
Y39001D01*
X45598Y34826D02*
X46174Y35402D01*
X45598Y34822D02*
X46178Y35402D01*
X47326D02*
X47902Y34826D01*
X45598Y33674D02*
Y34826D01*
X45402Y33907D02*
X45598Y34104D01*
X44023Y35402D02*
X46869Y38248D01*
X44741Y35402D02*
X47588Y38248D01*
X43141D02*
X46081Y35308D01*
X43859Y38248D02*
X46706Y35402D01*
X42423Y38248D02*
X45722Y34949D01*
X45402Y34551D02*
X45598Y34354D01*
X44826Y35402D02*
X45402Y34826D01*
Y34625D02*
X45598Y34822D01*
X48819Y33014D02*
X56775Y40970D01*
X48100Y33014D02*
X53335Y38248D01*
X51762D02*
X56775Y33235D01*
X52098Y33674D02*
Y34826D01*
Y33674D02*
X52674Y33098D01*
X50256Y33014D02*
X56775Y39533D01*
X51044Y38248D02*
X56775Y32517D01*
X49537Y33014D02*
X56775Y40252D01*
X50974Y33014D02*
X52098Y34138D01*
X46733Y38248D02*
X51968Y33014D01*
X42173Y42090D02*
X51249Y33014D01*
X47382D02*
X52617Y38248D01*
X44752Y38793D02*
X50531Y33014D01*
X44539Y38287D02*
X49813Y33014D01*
X39328Y32144D02*
X51260Y44075D01*
X47452Y38248D02*
X52686Y33014D01*
X38206Y31740D02*
X50541Y44075D01*
X47902Y34206D02*
X49094Y33014D01*
X51693D02*
X52226Y33547D01*
X51084Y30968D02*
X52126Y32010D01*
X50635D02*
X53217D01*
X50635D02*
X51084Y31562D01*
X51021Y31624D02*
X51408Y32010D01*
X50816D02*
X54499Y28327D01*
X51534Y32010D02*
X54858Y28687D01*
X51084Y30398D02*
Y31562D01*
Y31024D02*
X54140Y27968D01*
X48756Y31562D02*
X49205Y32010D01*
X45082Y33014D02*
X53217D01*
X48756Y30478D02*
X49418Y29816D01*
X48661Y32010D02*
X48933Y31738D01*
X48095Y32010D02*
X49205D01*
X49189Y26918D02*
X53749Y31478D01*
X49907Y26918D02*
X53836Y30847D01*
X47752Y26918D02*
X52845Y32010D01*
X48470Y26918D02*
X53390Y31837D01*
X47902Y33674D02*
Y34826D01*
X47326Y33098D02*
X47902Y33674D01*
X46174Y33098D02*
X47326D01*
X46664Y33014D02*
X46748Y33098D01*
X46854D02*
X46939Y33014D01*
X47808Y33581D02*
X48376Y33014D01*
X47449Y33222D02*
X47657Y33014D01*
X46505Y32010D02*
X46585Y31931D01*
X46216Y31562D02*
X46665Y32010D01*
X45598Y33674D02*
X46174Y33098D01*
X45402Y33833D02*
X46221Y33014D01*
X45227D02*
X45743Y33530D01*
X45402Y33674D02*
Y34826D01*
X45122Y33394D02*
X45502Y33014D01*
X45967Y31598D02*
X46379Y32010D01*
X45555D02*
X46665D01*
X40046Y32144D02*
X46325Y38422D01*
X45945Y33014D02*
X46102Y33171D01*
X48544Y31409D02*
X48756Y31196D01*
X48544Y31301D02*
X48756Y31514D01*
X48544Y30583D02*
X48756Y30796D01*
X48315Y31791D02*
X48534Y32010D01*
X48095D02*
X48544Y31562D01*
X48756Y30398D02*
Y31562D01*
X48544Y30691D02*
X48756Y30478D01*
X48544Y30398D02*
Y31562D01*
X47962Y29816D02*
X48544Y30398D01*
X45787Y32010D02*
X46226Y31571D01*
X46004Y31075D02*
X46216Y30862D01*
X45555Y32010D02*
X46004Y31562D01*
Y30917D02*
X46216Y31130D01*
X42723Y26918D02*
X46216Y30411D01*
Y30398D02*
X46798Y29816D01*
X46004Y30398D02*
Y31562D01*
X46216Y30398D02*
Y31562D01*
X59811Y30200D02*
X59971Y30039D01*
X57766Y30089D02*
X58172Y29683D01*
X59811Y29637D02*
X59971Y29798D01*
X57528Y29851D02*
X57779Y30102D01*
X57528Y29851D02*
X57779Y30102D01*
X59811Y29481D02*
X59971Y29321D01*
X59811Y28918D02*
X59971Y29079D01*
X59811Y28705D02*
Y29207D01*
Y28705D02*
Y29207D01*
X56092Y30326D02*
X56295Y30123D01*
X55733Y29967D02*
X55936Y29764D01*
X57407Y29730D02*
X57861Y29276D01*
X55165Y29816D02*
X55577Y29405D01*
X54418Y29816D02*
X55582D01*
X53539Y25521D02*
X58172Y30154D01*
X54105Y25521D02*
X58172Y29588D01*
X53842Y26165D02*
X57528Y29851D01*
X57047Y29371D02*
X57501Y28917D01*
X59811Y28763D02*
X59971Y28602D01*
X59480Y28375D02*
X59971Y27884D01*
X59121Y28016D02*
X59971Y27165D01*
X59560Y28454D02*
X59811Y28705D01*
X59560Y28454D02*
X59811Y28705D01*
X58043Y26938D02*
X59971Y25010D01*
X57684Y26579D02*
X59971Y24292D01*
X58762Y27656D02*
X59971Y26447D01*
X58403Y27297D02*
X59971Y25729D01*
X56688Y29012D02*
X57142Y28558D01*
X56329Y28653D02*
X56783Y28198D01*
X55970Y28293D02*
X56424Y27839D01*
X55611Y27934D02*
X56065Y27480D01*
X55251Y27575D02*
X55705Y27121D01*
X55366Y24260D02*
X59560Y28454D01*
X57325Y26220D02*
X59971Y23573D01*
X55115Y24009D02*
X55366Y24260D01*
X55115Y24009D02*
X55366Y24260D01*
X54892Y27216D02*
X55346Y26762D01*
X54447Y29816D02*
X55217Y29046D01*
X54533Y26857D02*
X54987Y26402D01*
X53836Y30398D02*
X54418Y29816D01*
X52062Y26918D02*
X54961Y29816D01*
X54174Y26497D02*
X54628Y26043D01*
X53814Y26138D02*
X54269Y25684D01*
X53591Y25914D02*
X53842Y26165D01*
X53591Y25914D02*
X53842Y26165D01*
X51037Y30352D02*
X53780Y27609D01*
X50502Y29816D02*
X51084Y30398D01*
X50678Y29993D02*
X53421Y27250D01*
X48756Y30398D02*
X49338Y29816D01*
X50502D01*
X50625Y26918D02*
X53971Y30263D01*
X51344Y26918D02*
X54330Y29904D01*
X49418Y29816D02*
X52317Y26918D01*
X50136Y29816D02*
X53035Y26918D01*
X53089Y25914D02*
X53591D01*
X52601D02*
X52995Y25521D01*
X53089Y25914D02*
X53591D01*
X51883D02*
X52277Y25521D01*
X52102D02*
X52496Y25914D01*
X54613Y24009D02*
X55115D01*
X54613D02*
X55115D01*
X52821Y25521D02*
X53214Y25914D01*
X53320D02*
X53714Y25521D01*
X49728Y25914D02*
X50121Y25521D01*
X49947D02*
X50341Y25914D01*
X49009D02*
X49403Y25521D01*
X49229D02*
X49622Y25914D01*
X51164D02*
X51558Y25521D01*
X51384D02*
X51778Y25914D01*
X50446D02*
X50840Y25521D01*
X50665D02*
X51059Y25914D01*
X56247Y25142D02*
X59971Y21418D01*
X55888Y24783D02*
X59971Y20700D01*
X55529Y24424D02*
X59971Y19981D01*
X56966Y25860D02*
X59971Y22855D01*
X56607Y25501D02*
X59971Y22136D01*
X53788Y24009D02*
X59971Y17826D01*
X55114Y14164D02*
X59971Y19021D01*
X55170Y24064D02*
X59971Y19263D01*
X54506Y24009D02*
X59971Y18544D01*
X51633Y24009D02*
X59971Y15671D01*
X50914Y24009D02*
X59971Y14952D01*
X50196Y24009D02*
X59971Y14234D01*
X53069Y24009D02*
X59971Y17107D01*
X52351Y24009D02*
X59971Y16389D01*
X49477Y24009D02*
X59971Y13515D01*
X48853Y5029D02*
X59971Y16148D01*
X49366Y14164D02*
X59971Y24769D01*
X50085Y14164D02*
X59971Y24050D01*
X55742Y11997D02*
X59971Y7768D01*
X55185Y11836D02*
X59971Y7050D01*
X54466Y11836D02*
X59971Y6331D01*
X56164Y13013D02*
X59971Y9205D01*
X56102Y12356D02*
X59971Y8486D01*
X55847Y529D02*
X59971Y4653D01*
X54410Y529D02*
X59971Y6090D01*
X55129Y529D02*
X59971Y5371D01*
X50100Y529D02*
X59971Y10400D01*
X49381Y529D02*
X59971Y11119D01*
X50818Y529D02*
X59971Y9682D01*
X48982Y4439D02*
X59971Y15429D01*
X48982Y3721D02*
X59971Y14711D01*
X52973Y529D02*
X59971Y7527D01*
X53692Y529D02*
X59971Y6808D01*
X51537Y529D02*
X59971Y8963D01*
X52255Y529D02*
X59971Y8245D01*
X56066Y13679D02*
X59971Y17585D01*
X55707Y14038D02*
X59971Y18303D01*
X55582Y14164D02*
X56164Y13582D01*
X53836D02*
X54418Y14164D01*
X55582D01*
X56164Y13058D02*
X59971Y16866D01*
X56164Y12418D02*
Y13582D01*
X51084Y12418D02*
Y13582D01*
X53836Y12418D02*
Y13582D01*
X51012Y13654D02*
X59971Y22614D01*
X50652Y14013D02*
X59971Y23332D01*
X50502Y14164D02*
X51084Y13582D01*
X48756D02*
X49338Y14164D01*
X50502D01*
X48759Y24009D02*
X59971Y12797D01*
X51084Y13007D02*
X59971Y21895D01*
X48756Y13554D02*
X49366Y14164D01*
X48756Y12418D02*
Y13582D01*
X55582Y11836D02*
X56164Y12418D01*
X51084Y13064D02*
X59959Y4188D01*
X54418Y11836D02*
X55582D01*
X53836Y12466D02*
X54466Y11836D01*
X53836Y12418D02*
X54418Y11836D01*
X51047Y12382D02*
X59861Y3568D01*
X56613Y576D02*
X59924Y3887D01*
X50688Y12023D02*
X59687Y3024D01*
X57637Y882D02*
X59618Y2863D01*
X50502Y11836D02*
X51084Y12418D01*
X49338Y11836D02*
X50502D01*
X48756Y12517D02*
X49437Y11836D01*
X48982Y3499D02*
Y4901D01*
X49437Y11836D02*
X59168Y2105D01*
X50156Y11836D02*
X59453Y2539D01*
X48982Y4389D02*
X52842Y529D01*
X48982Y3671D02*
X52124Y529D01*
X48331Y30185D02*
X51598Y26918D01*
X47971Y29826D02*
X50880Y26918D01*
X47262Y29816D02*
X50161Y26918D01*
X47033D02*
X49932Y29816D01*
X48291Y25914D02*
X48685Y25521D01*
X47929Y14164D02*
X59971Y26206D01*
X48305Y13821D02*
X59971Y25487D01*
X47211Y14164D02*
X59971Y26924D01*
X48510Y25521D02*
X48904Y25914D01*
X46315Y26918D02*
X49276Y29879D01*
X45983Y30378D02*
X49443Y26918D01*
X40027Y14164D02*
X49873Y24009D01*
X45597Y26918D02*
X48917Y30238D01*
X45624Y30018D02*
X48724Y26918D01*
X45598Y13987D02*
X59971Y28361D01*
X45957Y13628D02*
X59971Y27642D01*
X40138Y24009D02*
X49984Y14164D01*
X40903Y13603D02*
X51309Y24009D01*
X45056Y14164D02*
X54902Y24009D01*
X44448D02*
X54356Y14102D01*
X45167Y24009D02*
X55013Y14164D01*
X43730Y24009D02*
X53997Y13742D01*
X44337Y14164D02*
X54183Y24009D01*
X48544Y12623D02*
X48756Y12835D01*
X48544Y12730D02*
X48756Y12517D01*
X48544Y13341D02*
X48756Y13554D01*
X48544Y13448D02*
X48756Y13236D01*
X42182Y14164D02*
X52028Y24009D01*
X40543Y13962D02*
X50591Y24009D01*
X42891Y14154D02*
X52746Y24009D01*
X39308Y14164D02*
X49154Y24009D01*
X39419D02*
X49302Y14127D01*
X43012Y24009D02*
X53836Y13185D01*
X42293Y24009D02*
X53836Y12466D01*
X38701Y24009D02*
X48943Y13768D01*
X43250Y13795D02*
X53465Y24009D01*
X46798Y29816D02*
X47962D01*
X46136Y25914D02*
X46529Y25521D01*
X46355D02*
X46749Y25914D01*
X45422Y29816D02*
X46004Y30398D01*
X45636Y25521D02*
X46030Y25914D01*
X47572D02*
X47966Y25521D01*
X47792D02*
X48185Y25914D01*
X46854D02*
X47248Y25521D01*
X47073D02*
X47467Y25914D01*
X43441Y26918D02*
X46569Y30045D01*
X43276Y30211D02*
X46569Y26918D01*
X44160D02*
X47059Y29816D01*
X42917Y29851D02*
X45851Y26918D01*
X44258Y29816D02*
X45422D01*
X44878Y26918D02*
X47777Y29816D01*
X45107D02*
X48006Y26918D01*
X44389Y29816D02*
X47288Y26918D01*
X45417Y25914D02*
X45811Y25521D01*
X46216Y13582D02*
X46798Y14164D01*
X38247Y15976D02*
X46280Y24009D01*
X46798Y14164D02*
X47962D01*
X44258D02*
X45422D01*
X46004Y13582D01*
X47962Y14164D02*
X48544Y13582D01*
Y12418D02*
Y13582D01*
X46004Y12956D02*
X46216Y13169D01*
X46004Y13115D02*
X46216Y12902D01*
X37264Y24009D02*
X47110Y14164D01*
X37983Y24009D02*
X47828Y14164D01*
X37604Y16052D02*
X45562Y24009D01*
X38247Y15257D02*
X46999Y24009D01*
X37837Y14129D02*
X47717Y24009D01*
X38196Y13770D02*
X48436Y24009D01*
X35827D02*
X46236Y13601D01*
X36546Y24009D02*
X46595Y13960D01*
X48041Y24009D02*
X59971Y12079D01*
X47322Y24009D02*
X59971Y11360D01*
X46604Y24009D02*
X59971Y10642D01*
X48756Y12418D02*
X49338Y11836D01*
X47270Y5602D02*
X53962Y12293D01*
X47226Y529D02*
X59971Y13274D01*
X47944Y529D02*
X59971Y12556D01*
X46508Y529D02*
X59971Y13992D01*
X48340Y12215D02*
X58836Y1720D01*
X43799Y5004D02*
X59971Y21177D01*
X40856Y24009D02*
X59971Y4894D01*
X43902Y4388D02*
X59971Y20458D01*
X45885Y24009D02*
X59971Y9923D01*
X41575Y24009D02*
X59971Y5613D01*
X43902Y3670D02*
X59971Y19740D01*
X45993Y12407D02*
X57555Y845D01*
X41479Y529D02*
X53836Y12886D01*
X43286Y12240D02*
X54998Y529D01*
X47988Y5602D02*
X54321Y11934D01*
X47981Y11856D02*
X58457Y1380D01*
X48494Y5389D02*
X54942Y11836D01*
X48281Y5602D02*
X48982Y4901D01*
X48281Y2798D02*
X48982Y3499D01*
X48663Y529D02*
X59971Y11837D01*
X48708Y3226D02*
X51406Y529D01*
X48349Y2867D02*
X50687Y529D01*
X47699Y2798D02*
X49969Y529D01*
X45633Y12048D02*
X57020Y662D01*
X45127Y11836D02*
X56413Y550D01*
X47282Y11836D02*
X58031Y1087D01*
X42959Y5602D02*
X49266Y11908D01*
X43439Y5363D02*
X49913Y11836D01*
X42927Y11881D02*
X54279Y529D01*
X44408Y11836D02*
X55716Y529D01*
X42253Y11836D02*
X53561Y529D01*
X46981Y2798D02*
X49250Y529D01*
X46216Y12418D02*
Y13582D01*
X45422Y11836D02*
X46004Y12418D01*
X46216D02*
X46798Y11836D01*
X46004Y12418D02*
Y13582D01*
X44258Y11836D02*
X45422D01*
X47962D02*
X48544Y12418D01*
X42241Y5602D02*
X48907Y12268D01*
X40924Y12447D02*
X47769Y5602D01*
X46798Y11836D02*
X47962D01*
X40579Y12074D02*
X47051Y5602D01*
X39379Y11836D02*
X46247Y4969D01*
X40098Y11836D02*
X46606Y5328D01*
X38231Y12266D02*
X46178Y4319D01*
X37872Y11907D02*
X46178Y3601D01*
X35731Y529D02*
X47039Y11836D01*
X36450Y529D02*
X47757Y11836D01*
X34294Y529D02*
X46216Y12451D01*
X35013Y529D02*
X46559Y12075D01*
X46879Y5602D02*
X48281D01*
X46178Y3601D02*
X46981Y2798D01*
X46178Y3499D02*
X46879Y2798D01*
X46178Y4901D02*
X46879Y5602D01*
X46178Y3499D02*
Y4901D01*
X45789Y529D02*
X48059Y2798D01*
X46879D02*
X48281D01*
X44352Y529D02*
X46751Y2927D01*
X45071Y529D02*
X47341Y2798D01*
X37722Y11339D02*
X48532Y529D01*
X42915D02*
X46178Y3792D01*
X42197Y529D02*
X46178Y4510D01*
X43295Y2892D02*
X45658Y529D01*
X43902Y4440D02*
X47813Y529D01*
X43902Y3722D02*
X47095Y529D01*
X43634D02*
X46391Y3286D01*
X43654Y3251D02*
X46377Y529D01*
X43982Y43874D02*
X44218Y43637D01*
X43982Y43982D02*
X44075Y44075D01*
X43982Y43263D02*
X44218Y43500D01*
X43982Y42924D02*
Y44075D01*
Y43982D02*
X44075Y44075D01*
X44218Y42924D02*
Y44075D01*
Y42924D02*
X44794Y42348D01*
X43406D02*
X43982Y42924D01*
X42431Y42348D02*
X43406D01*
X40688Y39252D02*
X44290Y42853D01*
X39970Y39252D02*
X43067Y42348D01*
X41095Y41013D02*
X42856Y39252D01*
X40218Y40135D02*
X42431Y42348D01*
X40736Y40653D02*
X42138Y39252D01*
X41407D02*
X44649Y42494D01*
X42125Y39252D02*
X45222Y42348D01*
X41814Y41731D02*
X44293Y39252D01*
X41454Y41372D02*
X43575Y39252D01*
X44752Y38499D02*
Y39001D01*
X44501Y39252D02*
X44752Y39001D01*
X44501Y38248D02*
X44752Y38499D01*
X40377Y40294D02*
X41419Y39252D01*
X40017Y39935D02*
X40701Y39252D01*
X41704Y38248D02*
X44551Y35402D01*
X43674D02*
X44826D01*
X40267Y38248D02*
X43394Y35122D01*
X40986Y38248D02*
X43833Y35402D01*
X39967Y39884D02*
X40218Y40135D01*
X39967Y39884D02*
X40218Y40135D01*
X37499Y39252D02*
X44501D01*
X39465Y39884D02*
X39967D01*
X39350D02*
X39983Y39252D01*
X38660Y35068D02*
X41841Y38248D01*
X37499D02*
X44501D01*
X37557Y35402D02*
X40404Y38248D01*
X38275Y35402D02*
X41122Y38248D01*
X39138Y43828D02*
Y44076D01*
X39009Y43828D02*
X39138D01*
X39009D02*
X39138D01*
X38902Y43925D02*
X39003Y43823D01*
X38902Y43721D02*
X39009Y43828D01*
X39252Y39252D02*
X39884Y39884D01*
X39465D02*
X39967D01*
X38902Y43721D02*
X39009Y43828D01*
X39252Y39252D02*
X39884Y39884D01*
X38902Y43721D02*
Y44076D01*
Y43931D02*
X39832Y44861D01*
X37589Y39884D02*
X39465D01*
X36598Y42924D02*
X37174Y42348D01*
X37529D01*
X37815Y39252D02*
X38448Y39884D01*
X38631D02*
X39264Y39252D01*
X36570Y38865D02*
X37589Y39884D01*
X36570Y38725D02*
X37729Y39884D01*
X38533Y39252D02*
X39166Y39884D01*
X37913D02*
X38546Y39252D01*
X37392Y39687D02*
X37827Y39252D01*
X37032Y39328D02*
X37304Y39056D01*
X37248Y39001D02*
X37499Y39252D01*
X37248Y38499D02*
X37499Y38248D01*
X37174Y35402D02*
X38326D01*
X37248Y38499D02*
Y39001D01*
X36570Y35480D02*
X36911Y35139D01*
X36570Y36570D02*
X38248Y38248D01*
X36570Y36570D02*
X38248Y38248D01*
X36570Y38006D02*
X37248Y38685D01*
X36570Y37288D02*
X37530Y38248D01*
X36570Y35851D02*
X38967Y38248D01*
X36570Y35133D02*
X39685Y38248D01*
X36570Y36917D02*
X38085Y35402D01*
X36570Y36199D02*
X37367Y35402D01*
X44911Y33184D02*
X45402Y33674D01*
X43098D02*
X43674Y33098D01*
X44911Y33184D02*
X45082Y33014D01*
X43098Y34826D02*
X43674Y35402D01*
X43098Y33674D02*
Y34826D01*
X43748Y32842D02*
Y33098D01*
Y32842D02*
Y33098D01*
X40912Y31573D02*
X43098Y33759D01*
X42201Y32144D02*
X43415Y33357D01*
X39549Y38248D02*
X43098Y34699D01*
X38830Y38248D02*
X43098Y33980D01*
X38902Y33873D02*
X43277Y38248D01*
X36570Y38354D02*
X42780Y32144D01*
X38902Y34591D02*
X42559Y38248D01*
X37846Y32099D02*
X43996Y38248D01*
X38112D02*
X44238Y32123D01*
X36673Y38969D02*
X43878Y31764D01*
X40553Y31932D02*
X43098Y34477D01*
X44329Y32261D02*
X44447Y32144D01*
X43999Y32591D02*
X44329Y32261D01*
X44258Y32144D02*
X44447D01*
X43748Y32842D02*
X43999Y32591D01*
X43748Y32842D02*
X43999Y32591D01*
X44329Y32261D02*
X44447Y32144D01*
X43676Y31463D02*
X44357Y32144D01*
X43676Y31562D02*
X44258Y32144D01*
X43676Y30398D02*
Y31562D01*
X43260Y31765D02*
X44043Y32548D01*
X42901Y32125D02*
X43748Y32972D01*
X43464Y31250D02*
X43676Y31463D01*
X41718Y32144D02*
X42882D01*
X43464Y31562D01*
Y30532D02*
X43676Y30745D01*
X43464Y30742D02*
X43676Y30529D01*
X43464Y30398D02*
Y31562D01*
Y31460D02*
X43676Y31247D01*
X38902Y33674D02*
Y34826D01*
X38326Y33098D02*
X38902Y33674D01*
X38233Y33098D02*
X39188Y32144D01*
X38326Y35402D02*
X38902Y34826D01*
X37174Y33098D02*
X38326D01*
X38902Y34585D02*
X41531Y31956D01*
X38902Y33867D02*
X41171Y31597D01*
X38639Y33411D02*
X39906Y32144D01*
X37515Y33098D02*
X38824Y31789D01*
X36598Y33674D02*
Y34826D01*
X37174Y35402D01*
X36570Y33658D02*
Y34160D01*
Y38865D01*
Y33658D02*
Y34160D01*
Y37636D02*
X42062Y32144D01*
X37173D02*
X38127Y33098D01*
X36598Y33674D02*
X37174Y33098D01*
X36403Y33492D02*
X37751Y32144D01*
X41136Y31562D02*
X41718Y32144D01*
X40342D02*
X40924Y31562D01*
Y31126D02*
X41136Y30914D01*
X38596Y31562D02*
X39178Y32144D01*
X40342D01*
X41136Y30398D02*
Y31562D01*
X40924Y30866D02*
X41136Y31079D01*
X38596Y30398D02*
Y31562D01*
X40924Y30398D02*
Y31562D01*
X37751Y32144D02*
X38384Y31511D01*
X38596Y31298D01*
X36638Y32144D02*
X37802D01*
X38384Y31562D01*
Y30793D02*
X38596Y30580D01*
X38384Y30481D02*
X38596Y30694D01*
X38384Y30398D02*
Y31562D01*
Y31199D02*
X38596Y31412D01*
X35242Y42998D02*
X36598D01*
X34489Y43751D02*
X34740Y44002D01*
X36236Y42998D02*
X37207Y42027D01*
X34489Y43751D02*
X34740Y44002D01*
X34554Y43962D02*
X34627Y43889D01*
X35517Y42998D02*
X36848Y41667D01*
X34674Y39493D02*
X37529Y42348D01*
X35020Y42777D02*
X36489Y41308D01*
X34661Y42418D02*
X36130Y40949D01*
X31989Y43809D02*
X36385Y48205D01*
X31862Y41269D02*
X36131Y45538D01*
X31421Y40761D02*
X36199Y45538D01*
X31109Y42022D02*
X35378Y46291D01*
X31499Y40761D02*
X34489Y43751D01*
X31719Y37467D02*
X36888Y42635D01*
X33573Y38602D02*
X37319Y42348D01*
X32252Y40008D02*
X35242Y42998D01*
X34302Y42059D02*
X35771Y40590D01*
X35445Y38760D02*
X35566Y38639D01*
X35427Y38741D02*
X35566Y38881D01*
X35427Y38300D02*
X35566Y38440D01*
X34423Y38741D02*
Y39243D01*
Y38741D02*
Y39243D01*
X35427Y37342D02*
X35566Y37202D01*
X35427Y36863D02*
X35566Y37003D01*
X35427Y38060D02*
X35566Y37920D01*
X35427Y37582D02*
X35566Y37722D01*
X33943Y41699D02*
X35411Y40231D01*
X33583Y41340D02*
X35052Y39871D01*
X33224Y40981D02*
X34693Y39512D01*
X34423Y39243D02*
X34674Y39493D01*
X34423Y39243D02*
X34674Y39493D01*
X33902Y38148D02*
X34423Y37627D01*
X33902Y37494D02*
X34423Y38016D01*
X32506Y40262D02*
X34423Y38345D01*
X33902Y38212D02*
X34423Y38734D01*
X34195Y43602D02*
X34268Y43529D01*
X33836Y43243D02*
X33909Y43170D01*
X33476Y42884D02*
X33550Y42811D01*
X32629Y44450D02*
X33083Y43996D01*
X32270Y44091D02*
X32724Y43636D01*
X33117Y42525D02*
X33190Y42452D01*
X32758Y42166D02*
X32831Y42092D01*
X32399Y41806D02*
X32472Y41733D01*
X32040Y41447D02*
X32113Y41374D01*
X31738Y43558D02*
X31989Y43809D01*
X31738Y43558D02*
X31989Y43809D01*
X31911Y43731D02*
X32365Y43277D01*
X31236Y43558D02*
X31738D01*
X31236D02*
X31738D01*
X31365D02*
X32006Y42918D01*
X31611Y41018D02*
X31862Y41269D01*
X31611Y41018D02*
X31862Y41269D01*
X31680Y41088D02*
X31753Y41015D01*
X33149Y38602D02*
X33651D01*
X32865Y40622D02*
X34423Y39063D01*
X33651Y38602D02*
X33902Y38351D01*
X32147Y39903D02*
X33448Y38602D01*
X32898Y38351D02*
X33149Y38602D01*
X33902Y37430D02*
X34423Y36908D01*
X33902Y36775D02*
X34423Y37297D01*
X32302Y37331D02*
X32898Y37927D01*
X32302Y36612D02*
X32898Y37209D01*
X31109Y41018D02*
X31611D01*
X31499Y39757D02*
X32001D01*
X31032Y41018D02*
X31289Y40761D01*
X31109Y41018D02*
X31611D01*
X32001Y39757D02*
X32252Y40008D01*
X31574Y39757D02*
X32940Y38392D01*
X32001Y39757D02*
X32252Y40008D01*
X31499Y39757D02*
X32001D01*
X35427Y35427D02*
X35566Y35566D01*
X35427Y35905D02*
X35566Y35765D01*
X35427Y35427D02*
X35566Y35566D01*
X35427Y35055D02*
Y35557D01*
Y35055D02*
Y35557D01*
X35646Y32772D02*
X36570Y33696D01*
X36319Y33407D02*
X36570Y33658D01*
X35566Y34160D02*
Y38865D01*
X35427Y35186D02*
X35566Y35047D01*
X35427Y36145D02*
X35566Y36285D01*
X35427Y36623D02*
X35566Y36484D01*
X35176Y34804D02*
X35427Y35055D01*
Y35557D02*
Y38741D01*
X35176Y34804D02*
X35427Y35055D01*
X34494Y33776D02*
X35566Y34848D01*
X35182Y33776D02*
X35566Y34160D01*
X35133Y34762D02*
X35566Y34328D01*
X34774Y34402D02*
X35291Y33885D01*
X36319Y33407D02*
X36570Y33658D01*
X35935Y33023D02*
X36319Y33407D01*
X35684Y32772D02*
X35935Y33023D01*
X35684Y32772D02*
X35935Y33023D01*
X35182Y32772D02*
X35684D01*
X36044Y33132D02*
X37033Y32144D01*
X36056Y31562D02*
X36638Y32144D01*
X35685Y32773D02*
X36476Y31982D01*
X36056Y30398D02*
Y31562D01*
X34967Y32772D02*
X36117Y31622D01*
X31228Y26918D02*
X37409Y33098D01*
X31375Y32772D02*
X37230Y26918D01*
X35182Y32772D02*
X35684D01*
X34249D02*
X36056Y30965D01*
X32812Y32772D02*
X38667Y26918D01*
X33530Y32772D02*
X39385Y26918D01*
X32093Y32772D02*
X37948Y26918D01*
X31947D02*
X36056Y31027D01*
X34423Y35557D02*
Y38741D01*
X33902Y36711D02*
X34423Y36190D01*
X33651Y35938D02*
X33902Y36189D01*
Y38351D01*
X33149Y35938D02*
X33651D01*
X33482Y34919D02*
X34423Y35860D01*
X33785Y34919D02*
X34423Y35557D01*
X33804Y36091D02*
X34381Y35514D01*
X33238Y35938D02*
X34021Y35155D01*
X32898Y36189D02*
Y38351D01*
X32302Y35894D02*
X32898Y36491D01*
Y36189D02*
X33149Y35938D01*
X32302Y35413D02*
Y37467D01*
Y36875D02*
X32898Y36278D01*
X32763Y34919D02*
X34423Y36579D01*
X32302Y36156D02*
X33539Y34919D01*
X32045D02*
X33107Y35981D01*
X32302Y35438D02*
X32821Y34919D01*
X34538Y34166D02*
X35176Y34804D01*
X34287Y33915D02*
X34538Y34166D01*
X34287Y33915D02*
X34538Y34166D01*
X33785Y33915D02*
X34287D01*
X33785D02*
X34287D01*
X34415Y34043D02*
X34682Y33776D01*
X33824Y33915D02*
X33964Y33776D01*
X33776D02*
X33915Y33915D01*
X33776Y33776D02*
X33915Y33915D01*
X31326Y34919D02*
X31821Y35413D01*
X31608D02*
X32102Y34919D01*
X31620Y33776D02*
X31760Y33915D01*
X31669D02*
X31809Y33776D01*
X33057D02*
X33197Y33915D01*
X33106D02*
X33245Y33776D01*
X32339D02*
X32479Y33915D01*
X32387D02*
X32527Y33776D01*
X43676Y30398D02*
X44258Y29816D01*
X42882D02*
X43464Y30398D01*
X41286Y26918D02*
X44222Y29853D01*
X41136Y30398D02*
X41718Y29816D01*
X42882D01*
X42234D02*
X45132Y26918D01*
X44918Y25521D02*
X45312Y25914D01*
X42004Y26918D02*
X44903Y29816D01*
X42543Y25914D02*
X42937Y25521D01*
X39360Y29816D02*
X42259Y26918D01*
X39131D02*
X42030Y29816D01*
X39849Y26918D02*
X42748Y29816D01*
X38222Y30236D02*
X41540Y26918D01*
X38412D02*
X41515Y30020D01*
X40924Y30408D02*
X44414Y26918D01*
X40568D02*
X43862Y30212D01*
X40569Y30044D02*
X43695Y26918D01*
X40078Y29816D02*
X42977Y26918D01*
X43262Y25914D02*
X43656Y25521D01*
X42763D02*
X43157Y25914D01*
X43481Y25521D02*
X43875Y25914D01*
X41825D02*
X42219Y25521D01*
X42044D02*
X42438Y25914D01*
X44200Y25521D02*
X44593Y25914D01*
X44699D02*
X45092Y25521D01*
X43980Y25914D02*
X44374Y25521D01*
X41718Y14164D02*
X42882D01*
X41326Y25521D02*
X41720Y25914D01*
X37722Y19761D02*
X41970Y24009D01*
X37722Y19043D02*
X42688Y24009D01*
X41107Y25914D02*
X41500Y25521D01*
X37707Y20465D02*
X41252Y24009D01*
X37722Y17606D02*
X44125Y24009D01*
X36886Y16052D02*
X44844Y24009D01*
X37722Y18324D02*
X43407Y24009D01*
X37722Y18523D02*
X42081Y14164D01*
X40342Y29816D02*
X40924Y30398D01*
X37862Y29877D02*
X40822Y26918D01*
X39178Y29816D02*
X40342D01*
X38596Y30398D02*
X39178Y29816D01*
X38233Y25914D02*
X38627Y25521D01*
X40388Y25914D02*
X40782Y25521D01*
X40607D02*
X41001Y25914D01*
X39670D02*
X40064Y25521D01*
X39889D02*
X40283Y25914D01*
X37694Y26918D02*
X41155Y30379D01*
X36975Y26918D02*
X39874Y29816D01*
X37205D02*
X40103Y26918D01*
X37719Y29816D02*
X38384Y30481D01*
X37802Y29816D02*
X38384Y30398D01*
X37514Y25914D02*
X37908Y25521D01*
X37734D02*
X38128Y25914D01*
X36796D02*
X37190Y25521D01*
X37015D02*
X37409Y25914D01*
X38951D02*
X39345Y25521D01*
X38452D02*
X38846Y25914D01*
X39171Y25521D02*
X39564Y25914D01*
X37722Y16899D02*
Y20451D01*
X38038Y16052D02*
X38247Y15843D01*
X39926Y14164D01*
X38247Y15124D02*
X39207Y14164D01*
X38247Y14648D02*
Y16052D01*
X37722Y14648D02*
X38247D01*
X37225Y20702D02*
X40533Y24009D01*
X37471Y20702D02*
X37722Y20451D01*
X36718D02*
X36969Y20702D01*
X37471D01*
Y16648D02*
X37722Y16899D01*
X37441Y16648D02*
X38038Y16052D01*
X36718Y16899D02*
Y20451D01*
X36969Y16648D02*
X37471D01*
X43676Y13503D02*
X44337Y14164D01*
X43676Y13582D02*
X44258Y14164D01*
X43464Y12571D02*
X43676Y12784D01*
X43464Y13290D02*
X43676Y13503D01*
X43464Y13500D02*
X43676Y13287D01*
Y12418D02*
Y13582D01*
Y12418D02*
X44258Y11836D01*
X43464Y12418D02*
Y13582D01*
Y12781D02*
X43676Y12568D01*
X37722Y19242D02*
X42800Y14164D01*
X37722Y19960D02*
X43888Y13793D01*
X41136Y13582D02*
X41718Y14164D01*
X37722Y17805D02*
X41540Y13986D01*
X37722Y17086D02*
X41181Y13627D01*
X42800Y14164D02*
X43464Y13500D01*
X42882Y11836D02*
X43464Y12418D01*
X42882Y14164D02*
X43464Y13582D01*
X41136Y12418D02*
X41718Y11836D01*
X43201Y5602D02*
X43902Y4901D01*
X41799Y5602D02*
X43201D01*
X43902Y3499D02*
Y4901D01*
X41718Y11836D02*
X42882D01*
X41098Y3499D02*
X41799Y2798D01*
X41952D02*
X44221Y529D01*
X42670Y2798D02*
X44940Y529D01*
X43201Y2798D02*
X43902Y3499D01*
X41799Y2798D02*
X43201D01*
X37722Y10620D02*
X42740Y5602D01*
X37690Y9933D02*
X42022Y5602D01*
X41098Y4901D02*
X41799Y5602D01*
X37331Y9574D02*
X41551Y5354D01*
X36972Y9215D02*
X41192Y4995D01*
X40042Y529D02*
X42312Y2798D01*
X40760Y529D02*
X43030Y2798D01*
X38605Y529D02*
X41337Y3261D01*
X39323Y529D02*
X41696Y2901D01*
X40924Y13166D02*
X41136Y12953D01*
X40342Y14164D02*
X40924Y13582D01*
Y12905D02*
X41136Y13118D01*
X38596Y13582D02*
X39178Y14164D01*
X40342D01*
X40924Y12418D02*
Y13582D01*
X41136Y12418D02*
Y13582D01*
X38596Y12418D02*
Y13582D01*
X38384Y12832D02*
X38596Y12619D01*
X38004Y14648D02*
X38834Y13819D01*
X37722Y14164D02*
X37802D01*
X38384Y13582D01*
X36718Y14164D02*
Y14648D01*
X37722Y14164D02*
Y14648D01*
X38384Y13551D02*
X38596Y13338D01*
X38384Y13239D02*
X38596Y13452D01*
X37771Y14164D02*
X38384Y13551D01*
Y12418D02*
Y13582D01*
X40342Y11836D02*
X40924Y12418D01*
X38596D02*
X39178Y11836D01*
X40342D01*
X38384Y12520D02*
X38596Y12733D01*
X37802Y11836D02*
X38384Y12418D01*
X41098Y3499D02*
Y4901D01*
X37887Y529D02*
X41098Y3740D01*
X37722Y9964D02*
Y10466D01*
Y9964D02*
Y10466D01*
Y11140D02*
X38798Y12217D01*
X37722Y11836D02*
X37802D01*
X36718Y10466D02*
Y11836D01*
X37722Y10466D02*
Y11836D01*
Y10422D02*
X39157Y11857D01*
X37168Y529D02*
X41098Y4459D01*
X37471Y9714D02*
X37722Y9964D01*
X37471Y9714D02*
X37722Y9964D01*
X36257Y26918D02*
X39167Y29828D01*
X35539Y26918D02*
X38808Y30187D01*
X36638Y29816D02*
X37802D01*
X36056Y30398D02*
X36638Y29816D01*
X34820Y26918D02*
X37719Y29816D01*
X34391Y24009D02*
X44247Y14153D01*
X35109Y24009D02*
X44955Y14164D01*
X36078Y25914D02*
X36471Y25521D01*
X36297D02*
X36691Y25914D01*
X34102Y26918D02*
X37001Y29816D01*
X32235Y24009D02*
X36718Y19526D01*
X33672Y24009D02*
X36980Y20702D01*
X33383Y26918D02*
X36460Y29994D01*
X32954Y24009D02*
X36718Y20245D01*
X33102Y20988D02*
X36718Y17371D01*
X32773Y20598D02*
X37319Y16052D01*
X31517Y24009D02*
X36718Y18808D01*
X32054Y20598D02*
X36601Y16052D01*
X36718Y16899D02*
X36969Y16648D01*
X36193Y16052D02*
X38247D01*
X36638Y14164D02*
X36718D01*
X36193Y14648D02*
X36718D01*
X36567D02*
X36718Y14497D01*
X36638Y11836D02*
X36718D01*
X35354Y9102D02*
X36718Y10466D01*
X36056Y13582D02*
X36638Y14164D01*
X36056Y12418D02*
X36638Y11836D01*
X33041Y14362D02*
X36718Y18039D01*
X32562Y14602D02*
X36718Y18758D01*
X33102Y13704D02*
X36718Y17321D01*
X31125Y14602D02*
X36718Y20195D01*
X31844Y14602D02*
X36718Y19476D01*
X31173Y8902D02*
X36718Y14447D01*
X34965Y9102D02*
X36718Y10855D01*
X33102Y13804D02*
X36579Y10326D01*
X34246Y9102D02*
X36718Y11574D01*
X34142Y25521D02*
X34535Y25914D01*
X33922D02*
X34316Y25521D01*
X34641Y25914D02*
X35035Y25521D01*
X33204Y25914D02*
X33598Y25521D01*
X33423D02*
X33817Y25914D01*
X35359D02*
X35753Y25521D01*
X35578D02*
X35972Y25914D01*
X34860Y25521D02*
X35254Y25914D01*
X33049Y21554D02*
X35504Y24009D01*
X32665Y26918D02*
X36101Y30354D01*
X31767Y25914D02*
X32161Y25521D01*
X31986D02*
X32380Y25914D01*
X31049D02*
X31443Y25521D01*
X31268D02*
X31662Y25914D01*
X31141Y21802D02*
X33349Y24009D01*
X31860Y21802D02*
X34067Y24009D01*
X32486Y25914D02*
X32879Y25521D01*
X32705D02*
X33099Y25914D01*
X36193Y14648D02*
Y16052D01*
X33102Y13699D02*
Y14301D01*
X32801Y13398D02*
X33102Y13699D01*
Y20899D02*
Y21501D01*
X32801Y14602D02*
X33102Y14301D01*
X36056Y12418D02*
Y13582D01*
X34053Y9102D02*
X35354D01*
X34053Y8902D02*
Y9102D01*
Y8908D02*
X34246Y9102D01*
X32578Y21802D02*
X34786Y24009D01*
X31336Y20598D02*
X36193Y15741D01*
X32801Y21802D02*
X33102Y21501D01*
X32801Y20598D02*
X33102Y20899D01*
X32070Y13398D02*
X35860Y9608D01*
X32788Y13398D02*
X36220Y9967D01*
X32796Y13398D02*
X33102Y13704D01*
X31352Y13398D02*
X35501Y9249D01*
X36481Y4871D02*
X43853Y12242D01*
X36106Y5933D02*
X42010Y11836D01*
X36187Y5295D02*
X42729Y11836D01*
X36106Y8349D02*
X37471Y9714D01*
X36106Y7698D02*
Y8349D01*
X36481Y4152D02*
X44212Y11883D01*
X36106Y7925D02*
X43503Y529D01*
X36613Y8856D02*
X41098Y4370D01*
X36254Y8496D02*
X41098Y3652D01*
X36106Y8088D02*
X39855Y11836D01*
X33328Y8902D02*
X36450Y12024D01*
X34053Y7698D02*
X36106D01*
X31891Y8902D02*
X36056Y13067D01*
X32610Y8902D02*
X36091Y12383D01*
X36106Y6651D02*
X41505Y12050D01*
X33576Y529D02*
X44884Y11836D01*
X36038Y7302D02*
X41146Y12409D01*
X35615Y7698D02*
X36012Y7302D01*
X36106Y7207D02*
X42785Y529D01*
X35978Y5898D02*
X41348Y529D01*
X36481Y3599D02*
Y5001D01*
X36012Y7302D02*
X36106Y7207D01*
Y5898D02*
Y7302D01*
Y6488D02*
X42066Y529D01*
X36481Y4676D02*
X40629Y529D01*
X36481Y3958D02*
X39911Y529D01*
X36302Y3420D02*
X39192Y529D01*
X35581Y5898D02*
X36106D01*
X35781Y5702D02*
X36481Y5001D01*
X34053Y7302D02*
X36106D01*
X35828Y5654D02*
X36072Y5898D01*
X35942Y3060D02*
X38474Y529D01*
X35386Y2899D02*
X37756Y529D01*
X35781Y2899D02*
X36481Y3599D01*
X34667Y2899D02*
X37037Y529D01*
X34178Y7698D02*
X34575Y7302D01*
X34053Y7823D02*
X34178Y7698D01*
X34602Y7302D02*
X34998Y7698D01*
X33978Y7898D02*
X34053Y7823D01*
Y7698D02*
Y7898D01*
X34896Y7698D02*
X35293Y7302D01*
X35320D02*
X35717Y7698D01*
X34053Y5898D02*
Y7302D01*
Y5898D02*
X34578D01*
X33259Y7898D02*
X34053Y7105D01*
X32541Y7898D02*
X34053Y6386D01*
X31823Y7898D02*
X34199Y5522D01*
X31026Y6600D02*
X32325Y7898D01*
X31133Y5270D02*
X33762Y7898D01*
X31401Y4820D02*
X34280Y7698D01*
X31401Y4101D02*
X34053Y6753D01*
X31104Y7898D02*
X33840Y5163D01*
X31026Y7258D02*
X33678Y4606D01*
X35581Y5702D02*
Y5898D01*
X34578Y5702D02*
Y5898D01*
X35581Y5702D02*
X35781D01*
X34439D02*
X34578Y5841D01*
X34379Y5702D02*
X34578D01*
X33678Y4941D02*
X34439Y5702D01*
X34379Y2899D02*
X35781D01*
X33678Y3599D02*
Y5001D01*
Y3599D02*
X34379Y2899D01*
X33678Y5001D02*
X34379Y5702D01*
X31401Y4727D02*
X35600Y529D01*
X31401Y3599D02*
Y5001D01*
X31247Y3445D02*
X34163Y529D01*
X31401Y4009D02*
X34882Y529D01*
X32858D02*
X35228Y2899D01*
X31421Y529D02*
X34085Y3193D01*
X32139Y529D02*
X34509Y2899D01*
X29170Y83052D02*
X34090Y87971D01*
X28621D02*
X33540Y83052D01*
X29339Y87971D02*
X34259Y83052D01*
X27902Y87971D02*
X32822Y83052D01*
X28452D02*
X33371Y87971D01*
X30607Y83052D02*
X35527Y87971D01*
X30776D02*
X35696Y83052D01*
X29888D02*
X34808Y87971D01*
X30057D02*
X34977Y83052D01*
X25029Y87971D02*
X29948Y83052D01*
X24859D02*
X29779Y87971D01*
X25578Y83052D02*
X30498Y87971D01*
X24141Y83052D02*
X29061Y87971D01*
X24310D02*
X29230Y83052D01*
X27184Y87971D02*
X32104Y83052D01*
X27733D02*
X32653Y87971D01*
X25747D02*
X30667Y83052D01*
X27015D02*
X31935Y87971D01*
X30520Y81528D02*
X31040Y82048D01*
X30233D02*
X30754Y81528D01*
X30952Y82048D02*
X31472Y81528D01*
X29515Y82048D02*
X30035Y81528D01*
X29801D02*
X30322Y82048D01*
X30389Y79242D02*
X30656Y79508D01*
X30618D02*
X30885Y79242D01*
X29671D02*
X29937Y79508D01*
X29899D02*
X30166Y79242D01*
X26465Y87971D02*
X31385Y83052D01*
X26296D02*
X31216Y87971D01*
X28796Y82048D02*
X29317Y81528D01*
X28078Y82048D02*
X28599Y81528D01*
X28364D02*
X28885Y82048D01*
X29083Y81528D02*
X29604Y82048D01*
X29181Y79508D02*
X29448Y79242D01*
X28463Y79508D02*
X28729Y79242D01*
X28952D02*
X29219Y79508D01*
X25491Y81528D02*
X26012Y82048D01*
X25204D02*
X25725Y81528D01*
X26209D02*
X26730Y82048D01*
X24486D02*
X25007Y81528D01*
X24772D02*
X25293Y82048D01*
X27359D02*
X27880Y81528D01*
X27646D02*
X28167Y82048D01*
X26641D02*
X27162Y81528D01*
X26928D02*
X27448Y82048D01*
X23423Y83052D02*
X28342Y87971D01*
X22873D02*
X27793Y83052D01*
X23592Y87971D02*
X28511Y83052D01*
X22704D02*
X27624Y87971D01*
X22617Y81528D02*
X23138Y82048D01*
X23767D02*
X24288Y81528D01*
X24054D02*
X24575Y82048D01*
X23049D02*
X23570Y81528D01*
X23335D02*
X23856Y82048D01*
X26307Y79508D02*
X26574Y79242D01*
X25923Y82048D02*
X26443Y81528D01*
X26797Y79242D02*
X27064Y79508D01*
X25589D02*
X25856Y79242D01*
X26078D02*
X26345Y79508D01*
X27744D02*
X28011Y79242D01*
X28234D02*
X28500Y79508D01*
X27026D02*
X27293Y79242D01*
X27515D02*
X27782Y79508D01*
X23434D02*
X23700Y79242D01*
X23923D02*
X24190Y79508D01*
X22715D02*
X22982Y79242D01*
X23205D02*
X23472Y79508D01*
X24870D02*
X25137Y79242D01*
X25360D02*
X25627Y79508D01*
X24152D02*
X24419Y79242D01*
X24642D02*
X24908Y79508D01*
X30669Y75211D02*
X33696Y78238D01*
X30626Y75887D02*
X32978Y78238D01*
X30279Y72666D02*
X35852Y78238D01*
X30101Y76798D02*
X31541Y78238D01*
X30418Y76397D02*
X32259Y78238D01*
X30451D02*
X45688Y63002D01*
X30364Y69158D02*
X38456Y77251D01*
X30364Y72032D02*
X36570Y78238D01*
X30364Y69877D02*
X38097Y77610D01*
X29920Y73025D02*
X35133Y78238D01*
X29340Y73164D02*
X34415Y78238D01*
X29674Y70624D02*
X37288Y78238D01*
X29686Y77102D02*
X30823Y78238D01*
X29014D02*
X44251Y63002D01*
X29733Y78238D02*
X44969Y63002D01*
X30087Y70318D02*
X37738Y77969D01*
X29895Y67971D02*
X38815Y76891D01*
X30364Y64848D02*
X40138Y74623D01*
X30364Y67003D02*
X39534Y76173D01*
X30364Y64129D02*
X40138Y73904D01*
X30364Y72578D02*
X39415Y63527D01*
X30364Y71860D02*
X38572Y63652D01*
X30619Y75916D02*
X43533Y63002D01*
X30662Y75154D02*
X42814Y63002D01*
X30493Y74604D02*
X41571Y63527D01*
X30731Y62342D02*
X40138Y71749D01*
X30061Y65264D02*
X40138Y75341D01*
X29623Y65544D02*
X39893Y75814D01*
X29821Y73839D02*
X40134Y63527D01*
X30254Y67612D02*
X39174Y76532D01*
X30225Y71280D02*
X37854Y63652D01*
X30206Y74172D02*
X40852Y63527D01*
X30228Y62557D02*
X40138Y72467D01*
X29869Y62916D02*
X40138Y73186D01*
X29866Y70921D02*
X37280Y63507D01*
X28450Y77303D02*
X29386Y78238D01*
X28296D02*
X29266Y77269D01*
X29159Y77293D02*
X30104Y78238D01*
X26859D02*
X27954Y77143D01*
X27577Y78238D02*
X28504Y77312D01*
X29332Y73610D02*
X29778Y73164D01*
X29782D02*
X30364Y72582D01*
X28621Y73164D02*
X28999Y73541D01*
X28693Y73530D02*
X29060Y73164D01*
X26140Y78238D02*
X27522Y76856D01*
X25422Y78238D02*
X27189Y76471D01*
X23267Y78238D02*
X28480Y73025D01*
X23985Y78238D02*
X26880Y75343D01*
X24704Y78238D02*
X26960Y75982D01*
X24508Y70487D02*
X27813Y73792D01*
X25226Y70487D02*
X28323Y73584D01*
X22586Y70002D02*
X27108Y74524D01*
X23789Y70487D02*
X27412Y74109D01*
X30364Y71418D02*
Y72582D01*
X29778Y73164D02*
X30364Y72578D01*
X29782Y70836D02*
X30364Y71418D01*
X28618Y73164D02*
X29782D01*
X28618Y70836D02*
X29782D01*
X29232D02*
X29445Y70624D01*
X29782D02*
X30364Y70042D01*
X28955Y70624D02*
X29168Y70836D01*
X28036Y70042D02*
X28618Y70624D01*
X28036Y72579D02*
X28621Y73164D01*
X28036Y71418D02*
X28618Y70836D01*
X28036Y72582D02*
X28618Y73164D01*
X28036Y71418D02*
Y72582D01*
X26856Y69962D02*
X28175Y71280D01*
X27575Y69962D02*
X28534Y70921D01*
X25944Y70487D02*
X28036Y72579D01*
X26602Y70425D02*
X28036Y71860D01*
X20549Y83052D02*
X25469Y87971D01*
X20000D02*
X24919Y83052D01*
X20718Y87971D02*
X25638Y83052D01*
X18563Y87971D02*
X23483Y83052D01*
X19831D02*
X24750Y87971D01*
X21986Y83052D02*
X26906Y87971D01*
X22155D02*
X27075Y83052D01*
X21267D02*
X26187Y87971D01*
X21436D02*
X26356Y83052D01*
X16957D02*
X21877Y87971D01*
X16407D02*
X21327Y83052D01*
X4500Y87971D02*
X56000D01*
X15689D02*
X20609Y83052D01*
X16238D02*
X21158Y87971D01*
X17844D02*
X22764Y83052D01*
X18394D02*
X23313Y87971D01*
X17126D02*
X22046Y83052D01*
X17675D02*
X22595Y87971D01*
X21180Y81528D02*
X21701Y82048D01*
X20894D02*
X21414Y81528D01*
X21612Y82048D02*
X22133Y81528D01*
X20175Y82048D02*
X20696Y81528D01*
X20462D02*
X20983Y82048D01*
X21899Y81528D02*
X22419Y82048D01*
X22330D02*
X22851Y81528D01*
X20331Y79242D02*
X20598Y79508D01*
X20560D02*
X20827Y79242D01*
X14983Y82048D02*
X50803D01*
X14983Y83052D02*
X50803D01*
X15872Y81528D02*
X49660D01*
X19112Y83052D02*
X24032Y87971D01*
X19281D02*
X24201Y83052D01*
X15872Y80524D02*
X49660D01*
X17777Y79508D02*
X40939D01*
X17777Y80512D02*
X40939D01*
X18285Y79242D02*
X37468D01*
X16870Y81528D02*
X17390Y82048D01*
X16583D02*
X17104Y81528D01*
X17302Y82048D02*
X17822Y81528D01*
X15865Y82048D02*
X16385Y81528D01*
X16151D02*
X16672Y82048D01*
X19457D02*
X19978Y81528D01*
X19743D02*
X20264Y82048D01*
X18738D02*
X19259Y81528D01*
X19025D02*
X19546Y82048D01*
X13534Y87971D02*
X18454Y83052D01*
X12815Y87971D02*
X17735Y83052D01*
X14252Y87971D02*
X19172Y83052D01*
X11379Y87971D02*
X16298Y83052D01*
X12097Y87971D02*
X17017Y83052D01*
X14971Y87971D02*
X19890Y83052D01*
X15520D02*
X20440Y87971D01*
X14802Y83052D02*
X19721Y87971D01*
X15433Y81528D02*
X15954Y82048D01*
X18307Y81528D02*
X18827Y82048D01*
X18020D02*
X18541Y81528D01*
X18176Y79242D02*
X18443Y79508D01*
X17588Y81528D02*
X18109Y82048D01*
X17275Y80512D02*
X17777D01*
X19613Y79242D02*
X19879Y79508D01*
X19842D02*
X20108Y79242D01*
X18405Y79508D02*
X18671Y79242D01*
X19123Y79508D02*
X19390Y79242D01*
X17024Y80261D02*
X17275Y80512D01*
X17777D01*
X15370Y81528D02*
X15872D01*
X15370D02*
X15872D01*
X16670Y80524D02*
X16979Y80216D01*
X17024Y80261D02*
X17275Y80512D01*
X15952Y80524D02*
X16620Y79856D01*
X15553Y80205D02*
X16261Y79497D01*
X22486Y79242D02*
X22753Y79508D01*
X21997D02*
X22264Y79242D01*
X18285Y78238D02*
X37468D01*
X21278Y79508D02*
X21545Y79242D01*
X21768D02*
X22035Y79508D01*
X19675Y78238D02*
X27951Y69962D01*
X21830Y78238D02*
X28036Y72032D01*
X16758Y69202D02*
X25794Y78238D01*
X18956D02*
X27233Y69962D01*
X16758Y71358D02*
X23638Y78238D01*
X16758Y72076D02*
X22920Y78238D01*
X16758Y70639D02*
X24357Y78238D01*
X16758Y73513D02*
X21483Y78238D01*
X16758Y72794D02*
X22202Y78238D01*
X16758Y67766D02*
X27230Y78238D01*
X16758Y67047D02*
X27949Y78238D01*
X16758Y69921D02*
X25075Y78238D01*
X16758Y68484D02*
X26512Y78238D01*
X22548D02*
X28121Y72666D01*
X21112Y78238D02*
X28726Y70624D01*
X17902Y77856D02*
X25271Y70487D01*
X17543Y77496D02*
X24553Y70487D01*
X17184Y77137D02*
X23834Y70487D01*
X20393Y78238D02*
X28313Y70318D01*
X22077Y70212D02*
X26917Y75051D01*
X18261Y78215D02*
X25990Y70487D01*
X16824Y76778D02*
X23398Y70204D01*
X16758Y76127D02*
X22923Y69962D01*
X16758Y66329D02*
X28667Y78238D01*
X16758Y65610D02*
X26907Y75760D01*
X16758Y75408D02*
X21954Y70212D01*
X16758Y74690D02*
X21430Y70017D01*
X16758Y73253D02*
X27669Y62342D01*
X16758Y72534D02*
X26425Y62867D01*
X16758Y71816D02*
X25707Y62867D01*
X16758Y71098D02*
X25198Y62657D01*
X21049Y79242D02*
X21316Y79508D01*
X18894Y79242D02*
X19161Y79508D01*
X17783Y79242D02*
X18285D01*
X17732Y79463D02*
X17953Y79242D01*
X17783D02*
X18285D01*
X17532Y78991D02*
X17783Y79242D01*
X17532Y78991D02*
X17783Y79242D01*
X15193Y79846D02*
X15901Y79138D01*
X14980Y76711D02*
X17777Y79508D01*
X13976Y77197D02*
X17291Y80512D01*
X5633Y76756D02*
X16848Y87971D01*
X14227Y77464D02*
X17024Y80261D01*
X5230Y77072D02*
X16129Y87971D01*
X12567Y77219D02*
X15872Y80524D01*
X6132Y75818D02*
X18285Y87971D01*
X6145Y75114D02*
X19003Y87971D01*
X5938Y76343D02*
X17566Y87971D01*
X12567Y76506D02*
X16585Y80524D01*
X16758Y76387D02*
X18609Y78238D01*
X16758Y76711D02*
X18285Y78238D01*
X16758Y75668D02*
X19328Y78238D01*
X17372Y79104D02*
X17509Y78967D01*
X17013Y78745D02*
X17150Y78608D01*
X16758Y74231D02*
X20765Y78238D01*
X16758Y73971D02*
X21248Y69480D01*
X16758Y74950D02*
X20046Y78238D01*
X16758Y60322D02*
Y76711D01*
X16005Y77464D02*
X17532Y78991D01*
X16654Y78385D02*
X16791Y78249D01*
X16295Y78026D02*
X16431Y77890D01*
X15935Y77667D02*
X16072Y77530D01*
X15754Y77213D02*
X16005Y77464D01*
X15754Y77213D02*
X16005Y77464D01*
X15754Y76711D02*
Y77213D01*
X14980Y70720D02*
X15754Y69946D01*
X30364Y64676D02*
X32698Y62342D01*
X30364Y68986D02*
X36848Y62502D01*
X30364Y62342D02*
X32397D01*
X30364Y63957D02*
X31979Y62342D01*
X30364D02*
Y62422D01*
Y66831D02*
X38043Y59152D01*
X30827Y61338D02*
X32899Y59266D01*
X30364Y61258D02*
Y61338D01*
X32397D01*
X30364Y69705D02*
X36920Y63148D01*
X30084Y63519D02*
X31261Y62342D01*
X29668Y63216D02*
X30543Y62342D01*
X29782Y63216D02*
X30364Y63798D01*
X29782Y63004D02*
X30364Y62422D01*
X30058Y68573D02*
X39605Y59027D01*
X29617Y68296D02*
X38898Y59015D01*
X30251Y66225D02*
X37374Y59102D01*
X29892Y65866D02*
X37015Y58743D01*
X30364Y59100D02*
X32499Y61236D01*
X30276Y61171D02*
X32899Y58548D01*
X30364Y59647D02*
X32899Y57111D01*
X30364Y59819D02*
X31883Y61338D01*
X30364Y58718D02*
Y59882D01*
Y58928D02*
X32899Y56393D01*
X30364Y56227D02*
X32899Y58763D01*
X30364Y56945D02*
X32899Y59481D01*
X30364Y56178D02*
Y57342D01*
X30036Y60210D02*
X31165Y61338D01*
X29571Y60464D02*
X30446Y61338D01*
X29782Y58136D02*
X30364Y58718D01*
X29782Y60676D02*
X30364Y61258D01*
X29782Y60464D02*
X30364Y59882D01*
X29917Y60812D02*
X32899Y57829D01*
X30203Y57503D02*
X32899Y60199D01*
X29843Y57862D02*
X32859Y60877D01*
X29782Y57924D02*
X30364Y57342D01*
X29782Y68084D02*
X30364Y67502D01*
X29782Y68296D02*
X30364Y68878D01*
Y66338D02*
Y67502D01*
Y68878D02*
Y70042D01*
X29289Y68084D02*
X29502Y68296D01*
X29782Y65756D02*
X30364Y66338D01*
X29782Y65544D02*
X30364Y64962D01*
X28904Y65544D02*
X29117Y65756D01*
X29283D02*
X29496Y65544D01*
X28618Y68296D02*
X29782D01*
X28618Y70624D02*
X29782D01*
X28618Y68084D02*
X29782D01*
X28898Y68296D02*
X29111Y68084D01*
X28036Y66338D02*
X28618Y65756D01*
X29782D01*
X28618Y65544D02*
X29782D01*
X28036Y64962D02*
X28618Y65544D01*
X28036Y63798D02*
Y64962D01*
X30364Y63798D02*
Y64962D01*
X29238Y63004D02*
X29451Y63216D01*
X29334Y60676D02*
X29547Y60464D01*
X28949Y63216D02*
X29162Y63004D01*
X28853Y60464D02*
X29066Y60676D01*
X28618Y58136D02*
X29782D01*
X28618Y57924D02*
X29782D01*
X29000Y58136D02*
X29213Y57924D01*
X29187D02*
X29400Y58136D01*
X28618Y63004D02*
X29782D01*
X28618Y60676D02*
X29782D01*
X28618Y63216D02*
X29782D01*
X28036Y62422D02*
X28618Y63004D01*
Y60464D02*
X29782D01*
X28036Y57342D02*
X28618Y57924D01*
X28036Y59882D02*
X28618Y60464D01*
X28036Y58718D02*
X28618Y58136D01*
X30364Y51916D02*
X33347Y54900D01*
X30364Y56773D02*
X37169Y49968D01*
X30364Y51198D02*
X33707Y54541D01*
X30364Y54790D02*
X32899Y57326D01*
X30364Y54071D02*
X32899Y56607D01*
X30364Y54618D02*
X35013Y49968D01*
X30364Y49043D02*
X34784Y53463D01*
X30364Y53899D02*
X34643Y49620D01*
X30344Y49741D02*
X34425Y53822D01*
X30177Y52448D02*
X32988Y55259D01*
X29818Y52807D02*
X32899Y55889D01*
X29985Y50101D02*
X34066Y54182D01*
X30110Y58464D02*
X32899Y55674D01*
X30010Y55155D02*
X32899Y58044D01*
X29719Y58136D02*
X37887Y49968D01*
X30302Y56116D02*
X36450Y49968D01*
X29943Y55757D02*
X35732Y49968D01*
X30135Y53410D02*
X34284Y49261D01*
X30364Y51744D02*
X33566Y48542D01*
X30327Y51062D02*
X33207Y48183D01*
X30364Y49589D02*
X32488Y47464D01*
X30364Y51098D02*
Y52262D01*
Y48558D02*
Y49722D01*
X30578Y47102D02*
X35725Y52248D01*
X30364Y48871D02*
X32129Y47105D01*
X30364Y47102D02*
Y47182D01*
Y47102D02*
X32125D01*
X29792Y47753D02*
X35144Y53104D01*
X29770Y53056D02*
X33925Y48901D01*
X29968Y50703D02*
X32847Y47824D01*
X29782Y50304D02*
X30364Y49722D01*
X29782Y47976D02*
X30364Y48558D01*
X30152Y47394D02*
X35315Y52557D01*
X30161Y48355D02*
X31414Y47102D01*
X29801Y47996D02*
X30696Y47102D01*
X29782Y47764D02*
X30364Y47182D01*
X29782Y55596D02*
X30364Y56178D01*
X29733Y55596D02*
X30364Y56227D01*
X29782Y55384D02*
X30364Y54802D01*
X29385Y55596D02*
X29598Y55384D01*
X29520D02*
X29733Y55596D01*
X30364Y53638D02*
Y54802D01*
X29782Y53056D02*
X30364Y53638D01*
X29051Y53056D02*
X29264Y52844D01*
X29136D02*
X29348Y53056D01*
X28667Y55596D02*
X28879Y55384D01*
X28618Y55596D02*
X29782D01*
X28618Y55384D02*
X29782D01*
X28036Y56227D02*
X28667Y55596D01*
X28036Y56178D02*
X28618Y55596D01*
Y53056D02*
X29782D01*
X28618Y52844D02*
X29782D01*
X28802Y55384D02*
X29015Y55596D01*
X28036Y52262D02*
X28618Y52844D01*
X29782D02*
X30364Y52262D01*
X29682Y50516D02*
X30364Y51198D01*
X29782Y50516D02*
X30364Y51098D01*
X28718Y50516D02*
X28931Y50304D01*
X28751D02*
X28964Y50516D01*
X29436D02*
X29649Y50304D01*
X29469D02*
X29682Y50516D01*
X29085Y47764D02*
X29297Y47976D01*
X29102D02*
X29315Y47764D01*
X28618Y50516D02*
X29782D01*
X28618Y50304D02*
X29782D01*
X28036Y49722D02*
X28618Y50304D01*
X28036Y48558D02*
Y49722D01*
X28618Y47976D02*
X29782D01*
X28618Y47764D02*
X29782D01*
X28036Y48558D02*
X28618Y47976D01*
X28036Y47182D02*
X28618Y47764D01*
X28036Y69962D02*
Y70042D01*
X26602Y68958D02*
X28036D01*
Y68878D02*
Y68958D01*
X26602Y69962D02*
X28036D01*
X26602Y68433D02*
Y68958D01*
X27518D02*
X28505Y67971D01*
X28036Y68878D02*
X28618Y68296D01*
X26799Y68958D02*
X28146Y67612D01*
X26602Y68438D02*
X28036Y67003D01*
X26602Y69962D02*
Y70487D01*
X25198D02*
X26602D01*
X24802Y68801D02*
X28339Y65264D01*
X24802Y70238D02*
X25198Y69841D01*
X24802Y68625D02*
X25198Y69022D01*
X22557Y68890D02*
X28531Y62916D01*
X22360Y62592D02*
X28342Y68573D01*
X21642Y62592D02*
X28008Y68958D01*
X22020Y68708D02*
X28172Y62557D01*
X28036Y67502D02*
X28618Y68084D01*
X26227Y62867D02*
X28036Y64676D01*
Y63798D02*
X28618Y63216D01*
X28036Y66338D02*
Y67502D01*
X26425Y62867D02*
X26602Y62690D01*
X27139Y62342D02*
X28316Y63519D01*
X27857Y62342D02*
X28732Y63216D01*
X26602Y62523D02*
X28036Y63957D01*
Y62342D02*
Y62422D01*
X25888Y68433D02*
X28777Y65544D01*
X23732Y68433D02*
X28036Y64129D01*
X24072Y62867D02*
X28036Y66831D01*
X25198Y68433D02*
X26602D01*
X24451D02*
X28036Y64848D01*
X22828Y62342D02*
X28783Y68296D01*
X25509Y62867D02*
X28508Y65866D01*
X24790Y62867D02*
X28149Y66225D01*
X25198Y62867D02*
X26602D01*
X24802Y70062D02*
X25198Y70459D01*
X23398Y70487D02*
X24802D01*
Y69344D02*
X25198Y69741D01*
X23398Y69962D02*
Y70487D01*
X23264Y69962D02*
X23398Y70096D01*
X25198Y68433D02*
Y70487D01*
X24802Y69519D02*
X25198Y69123D01*
X24802Y68433D02*
Y70487D01*
X22626Y68958D02*
X23398D01*
X22376Y70212D02*
X22626Y69962D01*
X21624Y70212D02*
X22376D01*
X22626Y69962D02*
X23398D01*
X21248Y69836D02*
X21624Y70212D01*
X21248Y69084D02*
Y69836D01*
X16758Y70379D02*
X24270Y62867D01*
X16758Y69661D02*
X23552Y62867D01*
X16758Y64892D02*
X21248Y69383D01*
Y69084D02*
X21624Y68708D01*
X24610Y68433D02*
X24802Y68625D01*
X23398Y68433D02*
Y68958D01*
Y68433D02*
X24802D01*
X22376Y68708D02*
X22626Y68958D01*
X23207D02*
X23398Y68767D01*
Y62867D02*
X24802D01*
X22626Y62342D02*
X23398D01*
X21624Y62592D02*
X22376D01*
X22626Y62342D01*
X16758Y63455D02*
X22011Y68708D01*
X21624D02*
X22376D01*
X16758Y64173D02*
X21458Y68874D01*
X14980Y63536D02*
X15754Y62761D01*
X16758Y62737D02*
X22979Y68958D01*
X16758Y68942D02*
X23358Y62342D01*
X16758Y68224D02*
X22640Y62342D01*
X16758Y67505D02*
X21671Y62592D01*
X26602Y61338D02*
X28036D01*
X26602Y62342D02*
X28036D01*
Y61258D02*
Y61338D01*
X26602Y62690D02*
X26950Y62342D01*
X26602Y61086D02*
X26854Y61338D01*
X27954D02*
X28828Y60464D01*
X28036Y61258D02*
X28618Y60676D01*
X27235Y61338D02*
X28364Y60209D01*
X26602Y61254D02*
X28036Y59819D01*
X16758Y63913D02*
X28223Y52448D01*
X16758Y64632D02*
X28582Y52807D01*
X22416Y61129D02*
X28390Y55155D01*
X16758Y65350D02*
X28036Y54071D01*
X21738Y61088D02*
X28036Y54790D01*
X16758Y61758D02*
X28415Y50101D01*
X16758Y61040D02*
X28056Y49741D01*
X16758Y63195D02*
X28036Y51916D01*
X16758Y62477D02*
X28036Y51198D01*
Y54802D02*
X28618Y55384D01*
X28036Y56178D02*
Y57342D01*
Y53638D02*
Y54802D01*
X26323Y60813D02*
X28036Y59100D01*
Y58718D02*
Y59882D01*
Y51198D02*
X28718Y50516D01*
X28036Y51098D02*
X28618Y50516D01*
X28036Y53638D02*
X28618Y53056D01*
X28036Y51098D02*
Y52262D01*
X24802Y60898D02*
X28197Y57503D01*
X23450Y60813D02*
X28036Y56227D01*
X25605Y60813D02*
X28556Y57862D01*
X25198Y60813D02*
X26602D01*
X24168D02*
X28036Y56945D01*
X16649Y59712D02*
X28608Y47753D01*
X16290Y59352D02*
X28248Y47394D01*
X16758Y60321D02*
X28036Y49042D01*
X15931Y58993D02*
X28036Y46887D01*
X26602Y62342D02*
Y62867D01*
X24802Y62160D02*
X25198Y62556D01*
X24802Y62335D02*
X25198Y61938D01*
X23398Y62342D02*
Y62867D01*
X21248Y62198D02*
X21642Y62592D01*
X25198Y60813D02*
Y62867D01*
X24802Y61441D02*
X25198Y61838D01*
X24802Y60813D02*
Y62867D01*
X21248Y61464D02*
Y62216D01*
X16758Y61300D02*
X23891Y68433D01*
X16758Y62018D02*
X23398Y68659D01*
X21248Y62216D02*
X21624Y62592D01*
X16758Y66787D02*
X21289Y62256D01*
X16758Y66069D02*
X21248Y61578D01*
X16758Y59863D02*
X25328Y68433D01*
X4879Y47266D02*
X26047Y68433D01*
X16758Y60581D02*
X24610Y68433D01*
X5898Y46848D02*
X21248Y62198D01*
X24802Y61617D02*
X25198Y61220D01*
X22376Y61088D02*
X22626Y61338D01*
X23398D01*
X21248Y61464D02*
X21624Y61088D01*
X22376D01*
X26602Y60813D02*
Y61338D01*
X23398Y60813D02*
X24802D01*
X22925Y61338D02*
X23398Y60865D01*
Y60813D02*
Y61338D01*
X16507Y59569D02*
X16758Y59820D01*
X16507Y59569D02*
X16758Y59820D01*
Y60322D01*
Y59820D02*
Y60322D01*
X6617Y46848D02*
X21248Y61480D01*
X5533Y48638D02*
X16758Y59863D01*
X5074Y49642D02*
X15754Y60322D01*
X5827Y48889D02*
X16507Y59569D01*
X14481Y83052D02*
X14983D01*
X14481D02*
X14983D01*
X15146Y82048D02*
X15667Y81528D01*
X14230Y82801D02*
X14481Y83052D01*
X14230Y82801D02*
X14481Y83052D01*
X15119Y81277D02*
X15370Y81528D01*
X15119Y81277D02*
X15370Y81528D01*
X14705Y81771D02*
X15159Y81317D01*
X14346Y81412D02*
X14800Y80958D01*
X10660Y87971D02*
X15580Y83052D01*
X9942Y87971D02*
X14861Y83052D01*
X13987Y81052D02*
X14441Y80598D01*
X9223Y87971D02*
X14312Y82883D01*
X13628Y80693D02*
X14082Y80239D01*
X10154Y76967D02*
X15235Y82048D01*
X11814Y77972D02*
X15119Y81277D01*
X9401Y77972D02*
X14230Y82801D01*
X10154Y77219D02*
X14983Y82048D01*
X15217Y76949D02*
X15754Y76411D01*
X14980Y75327D02*
X15754Y76102D01*
X14980Y75749D02*
X15754Y74974D01*
X15576Y77308D02*
X15754Y77130D01*
Y76711D02*
Y77213D01*
X14980Y73890D02*
X15754Y74665D01*
X14980Y74312D02*
X15754Y73538D01*
X14980Y74609D02*
X15754Y75383D01*
X14980Y75031D02*
X15754Y74256D01*
X14834Y79487D02*
X15542Y78779D01*
X14475Y79128D02*
X15183Y78419D01*
X14116Y78768D02*
X14824Y78060D01*
X13757Y78409D02*
X14465Y77701D01*
X13397Y78050D02*
X14105Y77342D01*
X14980Y76045D02*
X15754Y76820D01*
X14980Y76468D02*
X15754Y75693D01*
X13976Y77213D02*
X14227Y77464D01*
X13976Y77213D02*
X14227Y77464D01*
X13268Y80334D02*
X13723Y79880D01*
X12909Y79975D02*
X13363Y79521D01*
X12550Y79616D02*
X13004Y79162D01*
X12191Y79256D02*
X12645Y78802D01*
X11832Y78897D02*
X12286Y78443D01*
X11563Y77721D02*
X11814Y77972D01*
X13038Y77691D02*
X13976Y76752D01*
X11563Y77219D02*
Y77721D01*
Y77219D02*
Y77721D01*
X11472Y78538D02*
X11927Y78084D01*
X11113Y78179D02*
X11567Y77725D01*
X11563Y77721D02*
X11814Y77972D01*
X9150Y77721D02*
X9401Y77972D01*
X9150Y77219D02*
Y77721D01*
X10154Y76248D02*
X11563Y77658D01*
X10395Y77460D02*
X11563Y76292D01*
X10754Y77820D02*
X11563Y77010D01*
X9150Y77219D02*
Y77721D01*
X12679Y77332D02*
X13976Y76034D01*
X12567Y76725D02*
X13976Y75316D01*
X12567Y75069D02*
X13976Y76479D01*
Y76711D02*
Y77213D01*
Y76711D02*
Y77213D01*
X12567Y75289D02*
X13976Y73879D01*
X12567Y73632D02*
X13976Y75042D01*
X12567Y76007D02*
X13976Y74597D01*
X12567Y74351D02*
X13976Y75761D01*
X12567Y75788D02*
X13976Y77197D01*
X10154Y76265D02*
X11563Y74855D01*
X10154Y76983D02*
X11563Y75573D01*
X10154Y75530D02*
X11563Y76940D01*
X10154Y74093D02*
X11563Y75503D01*
X10154Y74828D02*
X11563Y73418D01*
X10154Y74812D02*
X11563Y76221D01*
X10154Y75546D02*
X11563Y74137D01*
X14980Y72876D02*
X15754Y72101D01*
X14980Y72453D02*
X15754Y73228D01*
X14980Y71735D02*
X15754Y72510D01*
X14980Y73172D02*
X15754Y73947D01*
X14980Y73594D02*
X15754Y72819D01*
Y60322D02*
Y76711D01*
X14980Y71016D02*
X15754Y71791D01*
X14980Y60576D02*
Y76711D01*
Y72157D02*
X15754Y71382D01*
X12567Y72196D02*
X13976Y73605D01*
X12567Y73852D02*
X13976Y72442D01*
X12567Y73133D02*
X13976Y71724D01*
X12567Y74570D02*
X13976Y73160D01*
X12567Y72914D02*
X13976Y74324D01*
Y60576D02*
Y76711D01*
X12567Y70040D02*
X13976Y71450D01*
X12567Y71477D02*
X13976Y72887D01*
X12567Y72415D02*
X13976Y71005D01*
X14980Y69283D02*
X15754Y68509D01*
X14980Y68861D02*
X15754Y69636D01*
X14980Y68143D02*
X15754Y68918D01*
X14980Y69580D02*
X15754Y70354D01*
X14980Y70002D02*
X15754Y69227D01*
X14980Y67847D02*
X15754Y67072D01*
X14980Y66706D02*
X15754Y67481D01*
X14980Y68565D02*
X15754Y67790D01*
X14980Y67424D02*
X15754Y68199D01*
X14980Y70298D02*
X15754Y71073D01*
X14980Y71439D02*
X15754Y70664D01*
X12567Y69541D02*
X13976Y68131D01*
X12567Y70260D02*
X13976Y68850D01*
X12567Y68603D02*
X13976Y70013D01*
X12222Y67731D02*
X13976Y65976D01*
X11863Y67371D02*
X13976Y65258D01*
X12567Y68823D02*
X13976Y67413D01*
X12567Y68104D02*
X13976Y66695D01*
X12567Y71696D02*
X13976Y70287D01*
X12567Y70759D02*
X13976Y72169D01*
X10154Y71236D02*
X11563Y69826D01*
X10154Y71954D02*
X11563Y70544D01*
X10154Y70501D02*
X11563Y71911D01*
X12567Y68577D02*
Y77219D01*
Y70978D02*
X13976Y69568D01*
X11563Y68577D02*
Y77219D01*
X10154Y69783D02*
X11563Y71192D01*
X10154Y73391D02*
X11563Y71981D01*
X10154Y72656D02*
X11563Y74066D01*
X10154Y71938D02*
X11563Y73348D01*
X10154Y73375D02*
X11563Y74784D01*
X10154Y74109D02*
X11563Y72700D01*
X10154Y72673D02*
X11563Y71263D01*
X10154Y71219D02*
X11563Y72629D01*
X9150Y68577D02*
Y77219D01*
X10154Y68577D02*
Y77219D01*
X12567Y69322D02*
X13976Y70732D01*
X10154Y69081D02*
X11110Y68124D01*
X12567Y68075D02*
Y68577D01*
X10154Y68075D02*
Y68577D01*
Y68075D02*
Y68577D01*
X12316Y67824D02*
X12567Y68075D01*
X12316Y67824D02*
X12567Y68075D01*
Y68577D01*
X10154Y68362D02*
X10751Y67765D01*
X10154Y69064D02*
X11563Y70474D01*
X10154Y68346D02*
X11563Y69756D01*
X10154Y70517D02*
X11563Y69108D01*
X10154Y69799D02*
X11470Y68483D01*
X9903Y67824D02*
X10154Y68075D01*
X9938Y67859D02*
X10392Y67405D01*
X9903Y67824D02*
X10154Y68075D01*
X9579Y67500D02*
X10033Y67046D01*
X7786Y87971D02*
X13594Y82164D01*
X7068Y87971D02*
X13234Y81805D01*
X8505Y87971D02*
X13953Y82523D01*
X5631Y87971D02*
X12516Y81086D01*
X6350Y87971D02*
X12875Y81446D01*
X4038Y77317D02*
X14692Y87971D01*
X4718Y77278D02*
X15411Y87971D01*
X4913D02*
X12157Y80727D01*
X4205Y87960D02*
X11798Y80368D01*
X3583Y87864D02*
X11438Y80009D01*
X529Y77400D02*
X11100Y87971D01*
X3037Y87692D02*
X11079Y79650D01*
X529Y78837D02*
X9663Y87971D01*
X529Y78118D02*
X10382Y87971D01*
X529Y75244D02*
X13256Y87971D01*
X529Y74526D02*
X13974Y87971D01*
X529Y76681D02*
X11819Y87971D01*
X529Y75963D02*
X12537Y87971D01*
X2550Y87460D02*
X10720Y79290D01*
X2116Y87176D02*
X10361Y78931D01*
X9150Y77721D02*
X9401Y77972D01*
X4648Y72898D02*
X9150Y77400D01*
X6073Y76035D02*
X9150Y72957D01*
X4964Y71777D02*
X9150Y75964D01*
X6009Y74662D02*
X9150Y71521D01*
X4964Y72495D02*
X9150Y76682D01*
X6161Y75229D02*
X9150Y72239D01*
X1729Y86845D02*
X10002Y78572D01*
X1388Y86467D02*
X9642Y78213D01*
X1094Y86043D02*
X9283Y77854D01*
X851Y85567D02*
X9150Y77268D01*
X666Y85034D02*
X9150Y76550D01*
X529Y83016D02*
X9150Y74394D01*
X529Y82298D02*
X9150Y73676D01*
X552Y84430D02*
X9150Y75831D01*
X529Y83734D02*
X9150Y75113D01*
X580Y84635D02*
X3865Y87920D01*
X529Y80861D02*
X4069Y77321D01*
X529Y80142D02*
X3502Y77169D01*
X897Y85671D02*
X2829Y87603D01*
X529Y79424D02*
X3058Y76895D01*
X529Y78706D02*
X2713Y76521D01*
X529Y77987D02*
X2471Y76045D01*
X529Y77269D02*
X2368Y75429D01*
X529Y82429D02*
X6071Y87971D01*
X529Y83147D02*
X5353Y87971D01*
X529Y81710D02*
X6790Y87971D01*
X529Y83865D02*
X4635Y87971D01*
X529Y80273D02*
X8227Y87971D01*
X529Y79555D02*
X8945Y87971D01*
X529Y80992D02*
X7508Y87971D01*
X529Y81579D02*
X4875Y77233D01*
X4195Y73164D02*
X4586Y73555D01*
X3260Y73819D02*
X3915Y73164D01*
X3218D02*
X4382D01*
X3477D02*
X3882Y73568D01*
X2636Y72582D02*
X3218Y73164D01*
X4382D02*
X4964Y72582D01*
Y71418D02*
Y72582D01*
X529Y73677D02*
X2636Y71569D01*
Y71418D02*
Y72582D01*
X529Y76550D02*
X2659Y74420D01*
X529Y75832D02*
X3208Y73153D01*
X529Y73808D02*
X2383Y75662D01*
X529Y73089D02*
X2422Y74982D01*
X529Y75113D02*
X2848Y72794D01*
X529Y71652D02*
X2944Y74067D01*
X529Y72371D02*
X2628Y74470D01*
X529Y74395D02*
X2636Y72287D01*
X5361Y73873D02*
X9150Y70084D01*
X4964Y69622D02*
X9150Y73808D01*
X4964Y68903D02*
X9150Y73090D01*
X5735Y74218D02*
X9150Y70802D01*
X4964Y68878D02*
Y70042D01*
Y67466D02*
X9150Y71653D01*
X4964Y66748D02*
X9150Y70935D01*
X4964Y72115D02*
X8826Y68253D01*
X4953Y71408D02*
X8467Y67893D01*
X4815Y70191D02*
X9150Y74527D01*
X4455Y70550D02*
X9150Y75245D01*
X4885Y73631D02*
X9150Y69365D01*
X4382Y70624D02*
X4964Y70042D01*
X4300Y70624D02*
X4964Y69960D01*
X4622Y67843D02*
X9150Y72371D01*
X4430Y65496D02*
X9150Y70216D01*
X4269Y73528D02*
X9150Y68647D01*
X4594Y71048D02*
X8108Y67534D01*
X5455Y64882D02*
X9150Y68577D01*
X5253Y64882D02*
X9150Y68779D01*
X6208Y64129D02*
X9903Y67824D01*
X4964Y69242D02*
X7389Y66816D01*
X4964Y66338D02*
Y67502D01*
Y59564D02*
X13976Y68576D01*
X4964Y58845D02*
X13976Y67858D01*
X5328Y62342D02*
X11563Y68577D01*
X6081Y61589D02*
X12316Y67824D01*
X4964Y69960D02*
X7749Y67175D01*
X4786Y68701D02*
X7030Y66457D01*
X4382Y68084D02*
X4964Y67502D01*
X4357Y68296D02*
X4964Y68903D01*
X4382Y68296D02*
X4964Y68878D01*
X4763Y60082D02*
X13976Y69295D01*
X4956Y62430D02*
X11563Y69037D01*
X4789Y65136D02*
X9150Y69498D01*
X4427Y68341D02*
X6671Y66097D01*
X4382Y70836D02*
X4964Y71418D01*
X3218Y70836D02*
X4382D01*
X3218Y70624D02*
X4382D01*
X2636Y71418D02*
X3218Y70836D01*
X3369D02*
X3582Y70624D01*
X3810D02*
X4023Y70836D01*
X4087D02*
X4300Y70624D01*
X2636Y70042D02*
X3218Y70624D01*
X529Y70084D02*
X2874Y67739D01*
X529Y72958D02*
X3041Y70446D01*
X529Y70934D02*
X3357Y73762D01*
X529Y72240D02*
X2681Y70087D01*
X529Y70215D02*
X2636Y72323D01*
X529Y69497D02*
X2636Y71605D01*
X529Y68060D02*
X3305Y70836D01*
X529Y70803D02*
X3248Y68084D01*
X529Y71521D02*
X2636Y69414D01*
X529Y68779D02*
X2902Y71152D01*
X3426Y68084D02*
X3638Y68296D01*
X3218D02*
X4382D01*
X3218Y68084D02*
X4382D01*
X2636Y68878D02*
Y70042D01*
Y68878D02*
X3218Y68296D01*
X3754D02*
X3966Y68084D01*
X4144D02*
X4357Y68296D01*
X2636Y67502D02*
X3218Y68084D01*
X2636Y66338D02*
Y67502D01*
X529Y66623D02*
X2710Y68805D01*
X529Y68648D02*
X2636Y66540D01*
X529Y67342D02*
X2636Y69450D01*
X529Y69366D02*
X2636Y67258D01*
X529Y65905D02*
X3069Y68445D01*
X529Y67929D02*
X3066Y65392D01*
X529Y65187D02*
X2636Y67294D01*
X529Y67211D02*
X2707Y65032D01*
X14980Y65269D02*
X15754Y66044D01*
X14980Y66410D02*
X15754Y65635D01*
X14980Y65691D02*
X15754Y64917D01*
X14980Y67128D02*
X15754Y66353D01*
X14980Y65988D02*
X15754Y66762D01*
X14980Y63832D02*
X15754Y64607D01*
X14980Y64255D02*
X15754Y63480D01*
X14980Y64551D02*
X15754Y65325D01*
X14980Y64973D02*
X15754Y64198D01*
X10785Y66294D02*
X13976Y63102D01*
X10426Y65935D02*
X13976Y62384D01*
X10067Y65575D02*
X13976Y61666D01*
X11504Y67012D02*
X13976Y64539D01*
X11144Y66653D02*
X13976Y63821D01*
X9708Y65216D02*
X13976Y60947D01*
X9348Y64857D02*
X13803Y60402D01*
X8989Y64498D02*
X13444Y60043D01*
X8630Y64138D02*
X13084Y59684D01*
X14980Y60959D02*
X15754Y61733D01*
X14980Y62099D02*
X15754Y61324D01*
X14980Y61381D02*
X15754Y60606D01*
X14980Y62818D02*
X15754Y62043D01*
X14980Y61677D02*
X15754Y62452D01*
X14980Y60240D02*
X15754Y61015D01*
X14980Y60662D02*
X15537Y60105D01*
X14980Y60074D02*
Y60576D01*
Y60074D02*
Y60576D01*
Y62395D02*
X15754Y63170D01*
X14980Y63114D02*
X15754Y63889D01*
X14915Y60009D02*
X15178Y59745D01*
X14729Y59823D02*
X14980Y60074D01*
X14729Y59823D02*
X14980Y60074D01*
X14555Y59650D02*
X14819Y59386D01*
X14196Y59291D02*
X14460Y59027D01*
X8271Y63779D02*
X12725Y59325D01*
X13837Y58931D02*
X14100Y58668D01*
X9219Y67141D02*
X9674Y66687D01*
X8860Y66782D02*
X9314Y66328D01*
X8501Y66423D02*
X8955Y65968D01*
X8142Y66063D02*
X8596Y65609D01*
X7783Y65704D02*
X8237Y65250D01*
X7423Y65345D02*
X7877Y64891D01*
X7064Y64986D02*
X7518Y64532D01*
X6705Y64627D02*
X7159Y64172D01*
X6346Y64267D02*
X6800Y63813D01*
X4964Y66368D02*
X5953Y65379D01*
X4964Y67086D02*
X6312Y65738D01*
X4619Y65994D02*
X5593Y65020D01*
X4964Y64882D02*
Y64962D01*
Y64882D02*
X5455D01*
X5957Y63878D02*
X6208Y64129D01*
X5987Y63908D02*
X6441Y63454D01*
X5957Y63878D02*
X6208Y64129D01*
X4964Y63798D02*
Y63878D01*
X5455D02*
X5957D01*
X5455D02*
X5957D01*
X5298D02*
X6081Y63095D01*
X5328Y61338D02*
X5830D01*
X5328D02*
X5830D01*
X7911Y63420D02*
X12366Y58965D01*
X7552Y63061D02*
X12007Y58606D01*
X5830Y61338D02*
X6081Y61589D01*
X5830Y61338D02*
X6081Y61589D01*
X4597Y62789D02*
X5686Y63878D01*
X4812Y63646D02*
X5722Y62736D01*
X4964Y63878D02*
X5455D01*
X4964Y62342D02*
Y62422D01*
Y62342D02*
X5328D01*
X4964Y61338D02*
X5328D01*
X4964Y61258D02*
Y61338D01*
Y58718D02*
Y59882D01*
X7193Y62702D02*
X11648Y58247D01*
X6834Y62342D02*
X11288Y57888D01*
X6475Y61983D02*
X10929Y57529D01*
X6115Y61624D02*
X10570Y57169D01*
X5683Y61338D02*
X10211Y56810D01*
X5582Y52182D02*
X13976Y60576D01*
X6335Y51429D02*
X14729Y59823D01*
X4964Y61338D02*
X9852Y56451D01*
X5484Y52182D02*
X13976Y60674D01*
X4964Y56690D02*
X13976Y65703D01*
X4930Y57375D02*
X13976Y66421D01*
X4738Y55027D02*
X13976Y64266D01*
X4571Y57734D02*
X13976Y67140D01*
X4645Y60939D02*
X9492Y56092D01*
X4546Y52680D02*
X13976Y62111D01*
X4905Y52321D02*
X13976Y61392D01*
X4964Y54535D02*
X13976Y63547D01*
X4964Y53816D02*
X13976Y62829D01*
X13478Y58572D02*
X13741Y58309D01*
X13118Y58213D02*
X13382Y57949D01*
X12759Y57854D02*
X13023Y57590D01*
X12400Y57495D02*
X12664Y57231D01*
X12041Y57135D02*
X12304Y56872D01*
X11682Y56776D02*
X11945Y56513D01*
X11322Y56417D02*
X11586Y56153D01*
X10963Y56058D02*
X11227Y55794D01*
X10604Y55699D02*
X10868Y55435D01*
X10245Y55339D02*
X10508Y55076D01*
X9886Y54980D02*
X10149Y54717D01*
X9526Y54621D02*
X9790Y54357D01*
X4964Y59184D02*
X8774Y55373D01*
X4837Y58592D02*
X8415Y55014D01*
X9167Y54262D02*
X9431Y53998D01*
X8808Y53903D02*
X9072Y53639D01*
X8449Y53543D02*
X8712Y53280D01*
X8090Y53184D02*
X8353Y52921D01*
X7730Y52825D02*
X7994Y52561D01*
X7371Y52466D02*
X7635Y52202D01*
X7012Y52106D02*
X7275Y51843D01*
X6653Y51747D02*
X6916Y51484D01*
X4964Y51178D02*
X5582D01*
X6084D02*
X6335Y51429D01*
X6293Y51388D02*
X6557Y51124D01*
X6084Y51178D02*
X6335Y51429D01*
X4964Y51098D02*
Y51178D01*
Y56310D02*
X7337Y53937D01*
X4964Y57028D02*
X7696Y54296D01*
X4670Y55885D02*
X6978Y53577D01*
X4964Y56178D02*
Y57342D01*
Y53638D02*
Y54802D01*
Y54155D02*
X6260Y52859D01*
X4863Y53537D02*
X5900Y52500D01*
X4964Y52182D02*
Y52262D01*
Y52182D02*
X5582D01*
Y51178D02*
X6084D01*
X5582D02*
X6084D01*
X5785D02*
X6198Y50765D01*
X5066Y51178D02*
X5839Y50406D01*
X5074Y48638D02*
X5576D01*
X5873Y48935D02*
X7960Y46848D01*
X5576Y48638D02*
X5827Y48889D01*
X5576Y48638D02*
X5827Y48889D01*
X5074Y48638D02*
X5576D01*
X4712Y49973D02*
X5918Y51178D01*
X4696Y50830D02*
X5479Y50047D01*
X4964Y49642D02*
Y49722D01*
Y49642D02*
X5074D01*
X4520Y47625D02*
X5533Y48638D01*
X4888Y48483D02*
X6523Y46848D01*
X4964Y48558D02*
Y48638D01*
X5074D01*
X4382Y65544D02*
X4964Y64962D01*
X4351Y65544D02*
X4964Y64931D01*
X4306Y63216D02*
X4964Y63874D01*
X4382Y65756D02*
X4964Y66338D01*
X4138Y65756D02*
X4351Y65544D01*
X4382Y63216D02*
X4964Y63798D01*
X4452Y63287D02*
X5363Y62376D01*
X3805Y63216D02*
X4017Y63004D01*
X4093D02*
X4306Y63216D01*
X3218Y65544D02*
X4382D01*
X3218Y65756D02*
X4382D01*
X3218Y63216D02*
X4382D01*
X3420Y65756D02*
X3633Y65544D01*
X3759D02*
X3972Y65756D01*
X3375Y63004D02*
X3587Y63216D01*
X3218Y63004D02*
X4382D01*
X529Y65774D02*
X3299Y63004D01*
X529Y63031D02*
X3254Y65756D01*
X4404Y60441D02*
X5302Y61338D01*
X4382Y60464D02*
X4964Y59882D01*
X4382Y58136D02*
X4964Y58718D01*
X4382Y63004D02*
X4964Y62422D01*
X4382Y60676D02*
X4964Y61258D01*
X4189Y60676D02*
X9133Y55733D01*
X4382Y57924D02*
X4964Y57342D01*
X3856Y58136D02*
X4068Y57924D01*
X4042D02*
X4255Y58136D01*
X3218Y60464D02*
X4382D01*
X3218Y60676D02*
X4382D01*
X3218Y58136D02*
X4382D01*
X3471Y60676D02*
X3684Y60464D01*
X3708D02*
X3921Y60676D01*
X3218Y57924D02*
X4382D01*
X3218Y55596D02*
X4382D01*
X529Y60745D02*
X3350Y57924D01*
X3324D02*
X3536Y58136D01*
X2636Y63798D02*
X3218Y63216D01*
X2636Y64962D02*
X3218Y65544D01*
X2636Y62422D02*
X3218Y63004D01*
X2636Y66338D02*
X3218Y65756D01*
X2636Y63798D02*
Y64962D01*
X529Y62900D02*
X3092Y60337D01*
X529Y62182D02*
X2733Y59978D01*
X2636Y61258D02*
Y62422D01*
X529Y60158D02*
X2636Y62265D01*
X529Y65056D02*
X2899Y62685D01*
X529Y63750D02*
X2877Y66098D01*
X529Y62313D02*
X2636Y64421D01*
X529Y64468D02*
X2636Y66576D01*
X529Y66492D02*
X2636Y64385D01*
X529Y61594D02*
X2684Y63750D01*
X529Y60876D02*
X3044Y63391D01*
X529Y64337D02*
X2636Y62229D01*
X529Y63619D02*
X2636Y61511D01*
Y58718D02*
X3218Y58136D01*
X2636Y59882D02*
X3218Y60464D01*
X2636Y57342D02*
X3218Y57924D01*
X2636Y61258D02*
X3218Y60676D01*
X2636Y58718D02*
Y59882D01*
X529Y55847D02*
X3018Y58337D01*
X2636Y56178D02*
X3218Y55596D01*
X529Y58590D02*
X2636Y56482D01*
Y56178D02*
Y57342D01*
X529Y58721D02*
X2851Y61043D01*
X529Y58002D02*
X3210Y60684D01*
X529Y59439D02*
X2636Y61547D01*
X529Y61463D02*
X2636Y59356D01*
X529Y60027D02*
X2925Y57630D01*
X529Y56565D02*
X2659Y58696D01*
X529Y57284D02*
X2636Y59392D01*
X529Y59308D02*
X2636Y57200D01*
X4478Y58233D02*
X8056Y54655D01*
X4376Y55384D02*
X13976Y64984D01*
X4240Y55596D02*
X6619Y53218D01*
X4382Y55596D02*
X4964Y56178D01*
X4382Y55384D02*
X4964Y54802D01*
X4503Y53178D02*
X5500Y52182D01*
X4382Y52844D02*
X4964Y52262D01*
X4382Y53056D02*
X4964Y53638D01*
X3991Y52844D02*
X4204Y53056D01*
X3657Y55384D02*
X3870Y55596D01*
X3218Y55384D02*
X4382D01*
X3218Y53056D02*
X4382D01*
X529Y55716D02*
X3401Y52844D01*
X3522Y55596D02*
X3735Y55384D01*
X3907Y53056D02*
X4120Y52844D01*
X3218D02*
X4382D01*
X3273D02*
X3485Y53056D01*
X2636Y52207D02*
X3273Y52844D01*
X4325Y50304D02*
X5199Y51178D01*
X4291Y50516D02*
X5120Y49688D01*
X4382Y50304D02*
X4964Y49722D01*
X4382Y50516D02*
X4964Y51098D01*
X3606Y50304D02*
X3819Y50516D01*
X4382Y47976D02*
X4964Y48558D01*
X4382Y47764D02*
X4964Y47182D01*
X3940Y47764D02*
X4153Y47976D01*
X3958D02*
X4171Y47764D01*
X3218Y50516D02*
X4382D01*
X3218Y50304D02*
X4382D01*
X3573Y50516D02*
X3786Y50304D01*
X2636Y48579D02*
X3239Y47976D01*
X3218D02*
X4382D01*
X3218Y47764D02*
X4382D01*
X3221D02*
X3434Y47976D01*
X3239D02*
X3452Y47764D01*
X2636Y53638D02*
X3218Y53056D01*
X2636Y54802D02*
X3218Y55384D01*
X2636Y52262D02*
X3218Y52844D01*
X2636Y53638D02*
Y54802D01*
X529Y54279D02*
X2636Y52171D01*
X529Y50818D02*
X2993Y53282D01*
X529Y52842D02*
X3143Y50228D01*
X529Y51537D02*
X2636Y53644D01*
X529Y53561D02*
X2636Y51453D01*
X529Y57153D02*
X2758Y54923D01*
X529Y57871D02*
X3117Y55283D01*
X529Y56435D02*
X2636Y54327D01*
X529Y55129D02*
X2636Y57236D01*
X529Y54410D02*
X2636Y56518D01*
X529Y52973D02*
X3185Y55630D01*
X529Y54998D02*
X2950Y52576D01*
X529Y53692D02*
X2826Y55989D01*
X529Y52255D02*
X2636Y54363D01*
Y49722D02*
X3218Y50304D01*
X2636Y51098D02*
X3218Y50516D01*
X2636Y48558D02*
X3218Y47976D01*
X2636Y51098D02*
Y52262D01*
Y48558D02*
Y49722D01*
Y47182D02*
X3218Y47764D01*
X2636Y47179D02*
X3221Y47764D01*
X529Y47226D02*
X2636Y49334D01*
X529Y49250D02*
X2636Y47143D01*
X529Y52124D02*
X2784Y49869D01*
X529Y51406D02*
X2636Y49298D01*
X529Y50100D02*
X2636Y52207D01*
X529Y49381D02*
X2636Y51489D01*
X529Y47944D02*
X3159Y50575D01*
X529Y49969D02*
X2976Y47521D01*
X529Y48663D02*
X2800Y50934D01*
X529Y50687D02*
X2636Y48579D01*
X30980Y46098D02*
X31877Y45202D01*
X30364Y46098D02*
X32125D01*
X30912Y44562D02*
X32448Y46098D01*
X30353Y46008D02*
X31518Y44843D01*
X30364Y44562D02*
X31236D01*
X30527Y42022D02*
X36711Y48205D01*
X31001Y37467D02*
X36533Y42998D01*
X30364Y43558D02*
X31236D01*
X30647D02*
X31646Y42559D01*
X30318Y44687D02*
X31730Y46098D01*
X29959Y45046D02*
X31012Y46098D01*
X29994Y45648D02*
X31080Y44562D01*
X29752Y42684D02*
X30627Y43558D01*
X29782Y42896D02*
X30364Y43478D01*
X30126Y42339D02*
X31345Y43558D01*
X30101Y37285D02*
X35814Y42998D01*
X30186Y43301D02*
X31287Y42200D01*
X29827Y42941D02*
X30747Y42022D01*
X30703Y40761D02*
X30961Y41018D01*
X30364D02*
X31109D01*
X30856Y39757D02*
X32898Y37715D01*
X30364Y40938D02*
Y41018D01*
Y40968D02*
X30571Y40761D01*
X30898Y37364D02*
X31001Y37467D01*
X30898D02*
X32302D01*
X30898Y37042D02*
Y37467D01*
X30576Y37042D02*
X30898Y37364D01*
X30186Y40761D02*
X31499D01*
X28983Y37604D02*
X31136Y39757D01*
X29701Y37604D02*
X31855Y39757D01*
X30364Y42022D02*
Y42102D01*
Y42022D02*
X31109D01*
X28700Y39757D02*
X30991Y37467D01*
X29419Y39757D02*
X31710Y37467D01*
X27982Y39757D02*
X30698Y37042D01*
X30344D02*
X30898D01*
X30364Y46018D02*
Y46098D01*
X29782Y45436D02*
X30364Y46018D01*
X29418Y45224D02*
X29631Y45436D01*
X28700Y45224D02*
X28913Y45436D01*
X28769D02*
X28982Y45224D01*
X30364Y44562D02*
Y44642D01*
Y43478D02*
Y43558D01*
X29487Y45436D02*
X29700Y45224D01*
X29782D02*
X30364Y44642D01*
X28618Y45436D02*
X29782D01*
X28036Y44642D02*
X28618Y45224D01*
X29782D01*
X28036Y46018D02*
Y47182D01*
Y46018D02*
X28618Y45436D01*
X28036Y44560D02*
X28700Y45224D01*
X28036Y43478D02*
X28618Y42896D01*
X28036Y43478D02*
Y44642D01*
X25674Y40761D02*
X28214Y43301D01*
X28618Y42684D02*
X29782D01*
X28618Y42896D02*
X29782D01*
Y42684D02*
X30364Y42102D01*
X29034Y42684D02*
X29246Y42896D01*
X29154D02*
X29366Y42684D01*
X30186Y40761D02*
X30364Y40938D01*
X29782Y37604D02*
X30344Y37042D01*
X28036Y40938D02*
X28214Y40761D01*
X28618Y37604D02*
X29782D01*
X26392Y40761D02*
X28573Y42942D01*
X28036Y42102D02*
X28618Y42684D01*
X28036Y40938D02*
Y42102D01*
X27111Y40761D02*
X28036Y41686D01*
X26545Y39757D02*
X28699Y37604D01*
X27264Y39757D02*
X29417Y37604D01*
X27829Y40761D02*
X28036Y40968D01*
X25827Y39757D02*
X28299Y37285D01*
X30608Y34919D02*
X31103Y35413D01*
X30464Y35838D02*
X31384Y34919D01*
X30898Y35413D02*
X32302D01*
X30344Y35838D02*
X30898D01*
Y35413D02*
Y35838D01*
X30950Y33915D02*
X31090Y33776D01*
X30510Y26918D02*
X36932Y33340D01*
X30232Y33915D02*
X30372Y33776D01*
X30902D02*
X31042Y33915D01*
X30137Y39757D02*
X32898Y36996D01*
X25579Y34919D02*
X30418Y39757D01*
X29890Y34919D02*
X30809Y35838D01*
X29782Y35276D02*
X30344Y35838D01*
X29589Y35276D02*
X29947Y34919D01*
X30045Y35539D02*
X30666Y34919D01*
X29515Y30234D02*
X32054Y32772D01*
X30183Y33776D02*
X30323Y33915D01*
X28101Y30256D02*
X30617Y32772D01*
X30681Y28526D02*
X34928Y32772D01*
X30567Y29130D02*
X34209Y32772D01*
X30457Y27583D02*
X35646Y32772D01*
X30317Y29599D02*
X33491Y32772D01*
X30319Y27363D02*
X30764Y26918D01*
X30656Y32772D02*
X36511Y26918D01*
X30453Y29384D02*
X32919Y26918D01*
X30681Y28437D02*
X32201Y26918D01*
X30568Y27832D02*
X31482Y26918D01*
X29966Y29966D02*
X32772Y32772D01*
X29966Y29966D02*
X32772Y32772D01*
X27783D02*
X33638Y26918D01*
X28938Y30375D02*
X31336Y32772D01*
X29220D02*
X35074Y26918D01*
X29938Y32772D02*
X35793Y26918D01*
X28501Y32772D02*
X34356Y26918D01*
X28036Y35858D02*
X28618Y35276D01*
X28036Y37022D02*
X28618Y37604D01*
Y35276D02*
X29782D01*
X28036Y35858D02*
Y37022D01*
X27734Y34919D02*
X28355Y35539D01*
X28871Y35276D02*
X29229Y34919D01*
X29171D02*
X29529Y35276D01*
X28453Y34919D02*
X28811Y35276D01*
X28077Y33915D02*
X28216Y33776D01*
X26298Y34919D02*
X28036Y36657D01*
X25108Y39757D02*
X28036Y36829D01*
X27016Y34919D02*
X28036Y35939D01*
X25155Y33776D02*
X25294Y33915D01*
X25203D02*
X25343Y33776D01*
X26591D02*
X26731Y33915D01*
X26640D02*
X26780Y33776D01*
X25873D02*
X26013Y33915D01*
X25921D02*
X26061Y33776D01*
X28747D02*
X28886Y33915D01*
X28028Y33776D02*
X28168Y33915D01*
X28795D02*
X28935Y33776D01*
X27310D02*
X27450Y33915D01*
X27358D02*
X27498Y33776D01*
X29513Y33915D02*
X29653Y33776D01*
X27064Y32772D02*
X29684Y30153D01*
X29465Y33776D02*
X29605Y33915D01*
X27110Y27110D02*
X27294Y27294D01*
X25314Y28906D02*
X29180Y32772D01*
X25673Y28547D02*
X29899Y32772D01*
X25628D02*
X28132Y30268D01*
X26346Y32772D02*
X28737Y30381D01*
X26032Y28187D02*
X27004Y29159D01*
X26750Y27469D02*
X27026Y27745D01*
X26391Y27828D02*
X26885Y28322D01*
X25016Y27171D02*
X25280Y27435D01*
X15212Y58275D02*
X28441Y45046D01*
X14134Y57197D02*
X28648Y42684D01*
X13777Y41077D02*
X28457Y55757D01*
X14853Y57915D02*
X28081Y44687D01*
X13775Y56838D02*
X28274Y42339D01*
X15616Y40761D02*
X28265Y53410D01*
X16334Y40761D02*
X28630Y53056D01*
X14897Y40761D02*
X28036Y53900D01*
X17053Y40761D02*
X28036Y51744D01*
X11263Y43592D02*
X28483Y60812D01*
X10904Y43951D02*
X28124Y61171D01*
X12340Y42514D02*
X28290Y58464D01*
X11622Y43232D02*
X28036Y59647D01*
X11981Y42873D02*
X28036Y58929D01*
X12700Y42155D02*
X28681Y58136D01*
X13418Y41436D02*
X28098Y56117D01*
X13416Y56479D02*
X28036Y41858D01*
X13057Y56119D02*
X28036Y41140D01*
X23518Y40761D02*
X28406Y45648D01*
X22800Y40761D02*
X28047Y46008D01*
X24390Y39757D02*
X28036Y36111D01*
X22082Y40761D02*
X28036Y46715D01*
X24955Y40761D02*
X28036Y43842D01*
X24142Y34919D02*
X28981Y39757D01*
X24861Y34919D02*
X29699Y39757D01*
X23424Y34919D02*
X28263Y39757D01*
X23671D02*
X28510Y34919D01*
X18490Y40761D02*
X28432Y50703D01*
X17771Y40761D02*
X28073Y51062D01*
X14094Y40761D02*
X28214D01*
X19208D02*
X28036Y49589D01*
X19926Y40761D02*
X28036Y48871D01*
X14094Y39757D02*
X31499D01*
X14983Y34919D02*
X33785D01*
X20645Y40761D02*
X28239Y48355D01*
X21363Y40761D02*
X28599Y47996D01*
X15571Y58634D02*
X28036Y46169D01*
X14494Y57556D02*
X28036Y44014D01*
X13059Y41796D02*
X28036Y56773D01*
X11620Y54683D02*
X25542Y40761D01*
X11261Y54323D02*
X24824Y40761D01*
X12698Y55760D02*
X27697Y40761D01*
X14179D02*
X28036Y54618D01*
X12338Y55401D02*
X26979Y40761D01*
X11979Y55042D02*
X26260Y40761D01*
X8748Y46106D02*
X23455Y60813D01*
X5180Y46848D02*
X27290Y68958D01*
X9107Y45747D02*
X24174Y60813D01*
X8389Y46465D02*
X23262Y61338D01*
X8030Y46825D02*
X22294Y61088D01*
X10544Y44310D02*
X27573Y61338D01*
X10185Y44669D02*
X26329Y60813D01*
X9467Y45388D02*
X25198Y61119D01*
X9826Y45029D02*
X25611Y60813D01*
X24237Y40761D02*
X28036Y44560D01*
X19113Y34919D02*
X23952Y39757D01*
X19361D02*
X24200Y34919D01*
X18395D02*
X23234Y39757D01*
X18643D02*
X23481Y34919D01*
X20550D02*
X25389Y39757D01*
X22953D02*
X27792Y34919D01*
X19832D02*
X24671Y39757D01*
X20079D02*
X24918Y34919D01*
X10902Y53964D02*
X24105Y40761D01*
X10542Y53605D02*
X23387Y40761D01*
X10183Y53246D02*
X22668Y40761D01*
X9824Y52887D02*
X21950Y40761D01*
X17676Y34919D02*
X22515Y39757D01*
X17924D02*
X22763Y34919D01*
X16958D02*
X21797Y39757D01*
X17206D02*
X22045Y34919D01*
X24436Y33776D02*
X24576Y33915D01*
X22705Y34919D02*
X27544Y39757D01*
X24485Y33915D02*
X24624Y33776D01*
X23718D02*
X23858Y33915D01*
X23766D02*
X23906Y33776D01*
X23518Y30702D02*
X25588Y32772D01*
X23877Y30343D02*
X26307Y32772D01*
X22799Y31420D02*
X24151Y32772D01*
X23158Y31061D02*
X24870Y32772D01*
X21987Y34919D02*
X26826Y39757D01*
X21516D02*
X26355Y34919D01*
X22235Y39757D02*
X27073Y34919D01*
X20798Y39757D02*
X25637Y34919D01*
X21269D02*
X26107Y39757D01*
X13586Y33776D02*
X35182D01*
X13586Y32772D02*
X35182D01*
X14983Y33915D02*
X33785D01*
X22162Y31502D02*
X23433Y32772D01*
X24909D02*
X27663Y30019D01*
X24595Y29624D02*
X27743Y32772D01*
X24954Y29265D02*
X28462Y32772D01*
X24236Y29983D02*
X27025Y32772D01*
X24191D02*
X27295Y29668D01*
X24298Y27890D02*
X24561Y28153D01*
X24657Y27531D02*
X24920Y27794D01*
X23579Y28608D02*
X23843Y28872D01*
X23938Y28249D02*
X24202Y28513D01*
X23472Y32772D02*
X27027Y29217D01*
X22035Y32772D02*
X27002Y27806D01*
X22969Y31251D02*
X27302Y26918D01*
X22754Y32772D02*
X26885Y28641D01*
X23220Y28967D02*
X23484Y29231D01*
X22154Y30498D02*
X27132Y25521D01*
X22473Y29715D02*
X26667Y25521D01*
X22216Y30498D02*
X26549Y26165D01*
X21720Y28200D02*
X23438Y26483D01*
X22999Y33776D02*
X23139Y33915D01*
X22329D02*
X22469Y33776D01*
X23048Y33915D02*
X23188Y33776D01*
X21611Y33915D02*
X21751Y33776D01*
X22281D02*
X22421Y33915D01*
X22718Y31502D02*
X22969Y31251D01*
X22718Y31502D02*
X22969Y31251D01*
X22216Y31502D02*
X22718D01*
X22216D02*
X22718D01*
X21317Y32772D02*
X22588Y31502D01*
X20725D02*
X21996Y32772D01*
X16626Y31502D02*
X22216D01*
X21562Y33776D02*
X21702Y33915D01*
X20599Y32772D02*
X21869Y31502D01*
X21444D02*
X22715Y32772D01*
X16626Y30498D02*
X22216D01*
X21345Y29966D02*
X21877Y30498D01*
X21436D02*
X21969Y29966D01*
X22222D02*
X22473Y29715D01*
X22063Y29966D02*
X22406Y30309D01*
X22222Y29966D02*
X22473Y29715D01*
X21720Y29966D02*
X22222D01*
X21720D02*
X22222D01*
X22861Y29327D02*
X23124Y29590D01*
X21579Y28200D02*
X23296Y26483D01*
X22502Y29686D02*
X22765Y29949D01*
X20860Y28200D02*
X22578Y26483D01*
X19423Y28200D02*
X21723Y25900D01*
X20142Y28200D02*
X21859Y26483D01*
X14787Y29966D02*
X21720D01*
X12549Y28200D02*
X21720D01*
X529Y6276D02*
X22087Y27834D01*
X529Y5558D02*
X22446Y27475D01*
X18705Y28200D02*
X21723Y25182D01*
X529Y6994D02*
X21727Y28193D01*
X29968Y26995D02*
X30046Y26918D01*
X29864D02*
X53089D01*
X29612Y25914D02*
X30006Y25521D01*
X28893Y25914D02*
X29287Y25521D01*
X29113D02*
X29507Y25914D01*
X30550Y25521D02*
X30943Y25914D01*
X28643Y24009D02*
X30851Y21802D01*
X29831Y25521D02*
X30225Y25914D01*
X30330D02*
X30724Y25521D01*
X27302Y25914D02*
X53089D01*
X26667Y25521D02*
X54105D01*
X26413Y24009D02*
X54613D01*
X27652Y21904D02*
X29757Y24009D01*
X27925D02*
X30133Y21802D01*
X27652Y20467D02*
X31194Y24009D01*
X27652Y14720D02*
X36941Y24009D01*
X27206D02*
X29657Y21559D01*
X27652Y21186D02*
X30475Y24009D01*
X30423Y21802D02*
X32630Y24009D01*
X30080D02*
X32288Y21802D01*
X29899D02*
X32801D01*
X29598Y20899D02*
Y21501D01*
Y20899D02*
X29899Y20598D01*
X30798Y24009D02*
X36718Y18089D01*
X30617Y20598D02*
X36193Y15022D01*
X29899Y20598D02*
X32801D01*
X29899Y14602D02*
X32801D01*
X29362Y24009D02*
X31569Y21802D01*
X25978Y15202D02*
X31375Y20598D01*
X26696Y15202D02*
X32093Y20598D01*
X29598Y21501D02*
X29899Y21802D01*
X25260Y15202D02*
X30656Y20598D01*
X27415Y15202D02*
X36223Y24009D01*
X26907Y19998D02*
X32304Y14602D01*
X25470Y19998D02*
X30867Y14602D01*
X26188Y19998D02*
X31585Y14602D01*
X27302Y26918D02*
X27696D01*
X26800Y25914D02*
X27302D01*
X26957Y25521D02*
X27351Y25914D01*
X27110Y27110D02*
X27294Y27294D01*
X26800Y25914D02*
X27302D01*
X28175D02*
X28569Y25521D01*
X28394D02*
X28788Y25914D01*
X27457D02*
X27850Y25521D01*
X27676D02*
X28070Y25914D01*
X26094Y26094D02*
X26357Y26357D01*
X26094Y26094D02*
X26357Y26357D01*
X26549Y26165D02*
X26800Y25914D01*
X25375Y26812D02*
X25639Y27076D01*
X25734Y26453D02*
X25998Y26717D01*
X26549Y26165D02*
X26800Y25914D01*
X26453Y25734D02*
X26717Y25998D01*
X25163Y24445D02*
X25320Y24601D01*
X25660Y24260D02*
X25911Y24009D01*
X26302Y22402D02*
Y22805D01*
Y22709D02*
X27602Y24009D01*
X26302Y22759D02*
X26659Y22402D01*
X26302Y22805D02*
Y23307D01*
Y22805D02*
Y23307D01*
X26712Y22402D02*
X28320Y24009D01*
X27431Y22402D02*
X29038Y24009D01*
X26302Y22402D02*
X27652D01*
Y19998D02*
Y22402D01*
X25911Y24009D02*
X26413D01*
X25911D02*
X26413D01*
X25660Y24260D02*
X25911Y24009D01*
X25523Y24086D02*
X25679Y24242D01*
X26241Y23367D02*
X26883Y24009D01*
X26051Y23558D02*
X26302Y23307D01*
X25882Y23727D02*
X26165Y24009D01*
X26051Y23558D02*
X26302Y23307D01*
X30407Y14602D02*
X39815Y24009D01*
X29217Y9102D02*
X36867Y16751D01*
X29936Y9102D02*
X36193Y15359D01*
X29899Y13398D02*
X32801D01*
X29915D02*
X34212Y9102D01*
X30654D02*
X36201Y14648D01*
X30633Y13398D02*
X34930Y9102D01*
X27652Y14225D02*
X32975Y8902D01*
X27652Y13506D02*
X32256Y8902D01*
X27652Y14002D02*
X37659Y24009D01*
X26488D02*
X36486Y14011D01*
X27652Y13283D02*
X38378Y24009D01*
X27652Y22127D02*
X36127Y13652D01*
X27652Y21409D02*
X36056Y13004D01*
X27652Y20690D02*
X36718Y11624D01*
X27625Y19998D02*
X36718Y10905D01*
X27652Y14943D02*
X33693Y8902D01*
X27641Y12798D02*
X31538Y8902D01*
X31026D02*
X34053D01*
X31010Y7302D02*
X31606Y7898D01*
X31026D02*
X34053D01*
X31026Y8902D02*
Y9102D01*
Y5898D02*
Y7302D01*
Y6539D02*
X33678Y3888D01*
X30949Y5898D02*
X36319Y529D01*
X30774Y5629D02*
X33043Y7898D01*
X30888Y3086D02*
X33445Y529D01*
X29265D02*
X33678Y4941D01*
X28547Y529D02*
X34053Y6035D01*
X30701Y2899D02*
X31401Y3599D01*
X30501Y5898D02*
X31026D01*
X30701Y5702D02*
X31401Y5001D01*
X29984Y529D02*
X33678Y4223D01*
X30702Y529D02*
X33726Y3552D01*
X29638Y2899D02*
X32008Y529D01*
X30357Y2899D02*
X32727Y529D01*
X29598Y13699D02*
X29899Y13398D01*
X29598Y13715D02*
X29915Y13398D01*
X31026Y7698D02*
Y7898D01*
X29598Y14301D02*
X29899Y14602D01*
X29598Y13699D02*
Y14301D01*
X30291Y7302D02*
X30688Y7698D01*
X30586D02*
X30983Y7302D01*
X29573D02*
X29969Y7698D01*
X29867D02*
X30264Y7302D01*
X26923Y12798D02*
X30619Y9102D01*
X26204Y12798D02*
X29901Y9102D01*
X28973D02*
X31026D01*
X27652Y12798D02*
Y15202D01*
X25486Y12798D02*
X29183Y9102D01*
X29149Y7698D02*
X29546Y7302D01*
X28973Y7698D02*
X31026D01*
X28973D02*
Y9102D01*
Y7874D02*
X29149Y7698D01*
X29410Y5702D02*
X29498Y5790D01*
X28973Y7302D02*
X31026D01*
X29299Y5702D02*
X29498D01*
X28973Y5898D02*
Y7302D01*
Y5898D02*
X29498D01*
X30501Y5702D02*
X30701D01*
X29299Y2899D02*
X30701D01*
X29498Y5702D02*
Y5898D01*
X30501Y5702D02*
Y5898D01*
X28598Y4890D02*
X29410Y5702D01*
X28598Y3599D02*
X29299Y2899D01*
X28598Y5001D02*
X29299Y5702D01*
X28598Y3599D02*
Y5001D01*
X27110Y529D02*
X29480Y2899D01*
X27829Y529D02*
X30199Y2899D01*
X25673Y529D02*
X28671Y3526D01*
X26392Y529D02*
X29030Y3167D01*
X24804Y24804D02*
X24960Y24960D01*
X23777Y25832D02*
X26051Y23558D01*
X24804Y24804D02*
X24960Y24960D01*
X24086Y25523D02*
X24242Y25679D01*
X24445Y25163D02*
X24601Y25320D01*
X23777Y26002D02*
X27377Y22402D01*
X24164Y16261D02*
X31912Y24009D01*
X24852Y19899D02*
X24951Y19998D01*
X24009Y17543D02*
X26464Y19998D01*
X23777Y25832D02*
Y26144D01*
X21723Y26483D02*
X23438D01*
X23777Y25932D02*
X23883Y26038D01*
X23024Y25079D02*
X23421Y24683D01*
X21777D02*
X23421D01*
X23777Y26144D02*
X25660Y24260D01*
X23650Y17903D02*
X25746Y19998D01*
X23246Y24683D02*
X23333Y24770D01*
X23314Y18285D02*
X25027Y19998D01*
X24951D02*
X27652D01*
X24551Y19598D02*
X24852Y19899D01*
X24551Y19598D02*
X24852Y19899D01*
X24208Y19598D02*
X24551D01*
X24208D02*
X24551D01*
X24164Y16980D02*
X27183Y19998D01*
X23902Y15950D02*
X24164Y15688D01*
Y16212D02*
Y17388D01*
X23902Y15950D02*
X24164Y16212D01*
X23618Y19008D02*
X24208Y19598D01*
X23188Y18877D02*
X23319Y19008D01*
X22007D02*
X23618D01*
X23063Y19002D02*
X23314Y18751D01*
Y18249D02*
Y18751D01*
X22049Y17977D02*
X23576D01*
X24164Y17388D01*
X23027Y17998D02*
X23314Y18285D01*
X23063Y17998D02*
X23314Y18249D01*
X22890Y26483D02*
X23164Y26756D01*
X22172Y26483D02*
X22805Y27116D01*
X22527Y24683D02*
X22924Y25079D01*
X21809Y24683D02*
X22206Y25079D01*
X21826D02*
X22223Y24683D01*
X22544Y25079D02*
X22941Y24683D01*
X21777Y23290D02*
Y23435D01*
Y24538D02*
Y24683D01*
X21723Y23290D02*
Y23435D01*
Y25079D02*
X23024D01*
X21723Y25182D02*
X21826Y25079D01*
X19723Y24694D02*
X21777D01*
X21723Y25079D02*
Y26483D01*
X20383Y24694D02*
X21723Y26034D01*
X19723Y23290D02*
X21723D01*
X21460D02*
X21861Y22889D01*
X21101Y24694D02*
X21723Y25316D01*
Y24538D02*
Y24683D01*
X22261Y23077D02*
Y23279D01*
X22189D02*
X22261Y23207D01*
X22049Y23077D02*
X22261D01*
X21723Y23279D02*
X22261D01*
X21875Y19002D02*
X21944Y19071D01*
X23111Y18046D02*
X23181Y17977D01*
X21474Y17402D02*
X22049Y17977D01*
X21723Y17998D02*
X21897Y17824D01*
X21474Y16198D02*
X21723Y15950D01*
X19790Y21227D02*
X21843Y23279D01*
X21461Y22488D02*
X22049Y23077D01*
X21461Y21312D02*
X21694Y21079D01*
X21417Y20802D02*
X21694Y21079D01*
X20301Y19002D02*
X23063D01*
X20301Y17998D02*
X23063D01*
X21417Y19598D02*
X22007Y19008D01*
X21461Y15688D02*
X21723Y15950D01*
X24851Y19899D02*
X30148Y14602D01*
X24541Y15202D02*
X29938Y20598D01*
X24433Y19598D02*
X29665Y14367D01*
X24164Y15543D02*
X29598Y20977D01*
X23962Y19352D02*
X29598Y13715D01*
X20656Y14754D02*
X28973Y6437D01*
X20297Y14395D02*
X29145Y5547D01*
X19938Y14036D02*
X28785Y5188D01*
X22206Y13923D02*
X28973Y7156D01*
X16334Y529D02*
X29598Y13793D01*
X15615Y529D02*
X39096Y24009D01*
X17052Y529D02*
X29922Y13398D01*
X19579Y13676D02*
X28598Y4657D01*
X19220Y13317D02*
X28598Y3939D01*
X19208Y529D02*
X32077Y13398D01*
X19926Y529D02*
X32796Y13398D01*
X17771Y529D02*
X30641Y13398D01*
X18489Y529D02*
X31359Y13398D01*
X24049Y12798D02*
X28973Y7874D01*
X21363Y529D02*
X28973Y8139D01*
X22081Y529D02*
X29251Y7698D01*
X24048Y12798D02*
X27652D01*
X24767D02*
X28973Y8593D01*
X22800Y529D02*
X28973Y6702D01*
X23518Y529D02*
X28973Y5984D01*
X24236Y529D02*
X28598Y4890D01*
X24955Y529D02*
X28598Y4172D01*
X17783Y11880D02*
X29135Y529D01*
X4500D02*
X56000D01*
X17424Y11521D02*
X28416Y529D01*
X17064Y11162D02*
X27698Y529D01*
X18860Y12958D02*
X31290Y529D01*
X18501Y12599D02*
X30571Y529D01*
X18142Y12240D02*
X29853Y529D01*
X20644D02*
X28973Y8857D01*
X23586Y19008D02*
X27393Y15202D01*
X23314Y18562D02*
X26675Y15202D01*
X24164Y16994D02*
X25956Y15202D01*
X24164Y16275D02*
X25238Y15202D01*
X24164D02*
Y15688D01*
Y15557D02*
X24519Y15202D01*
X24164D02*
X27652D01*
X23468Y13699D02*
X23769Y13398D01*
X23468Y13699D02*
X23769Y13398D01*
X23244Y13923D02*
X23468Y13699D01*
X22049Y13923D02*
X23244D01*
X22924D02*
X24048Y12799D01*
X20752Y15004D02*
X21710Y15963D01*
X21461Y14512D02*
X22049Y13923D01*
X9868Y529D02*
X23254Y13914D01*
X10587Y529D02*
X23613Y13555D01*
X8431Y529D02*
X21938Y14035D01*
X9150Y529D02*
X22544Y13923D01*
X24048Y12798D02*
Y13398D01*
X23769D02*
X24048D01*
X15902Y9451D02*
X24824Y529D01*
X23769Y13398D02*
X24048D01*
X15884Y8032D02*
X23387Y529D01*
X16705Y10803D02*
X26979Y529D01*
X16346Y10444D02*
X26261Y529D01*
X15987Y10084D02*
X25542Y529D01*
X15902Y8733D02*
X24106Y529D01*
X12742D02*
X25012Y12798D01*
X13460Y529D02*
X25730Y12798D01*
X11305Y529D02*
X24048Y13272D01*
X12023Y529D02*
X24293Y12798D01*
X14179Y529D02*
X26448Y12798D01*
X14897Y529D02*
X27167Y12798D01*
X15525Y7672D02*
X22669Y529D01*
X15166Y7313D02*
X21950Y529D01*
X9465Y52527D02*
X21231Y40761D01*
X9106Y52168D02*
X20513Y40761D01*
X8746Y51809D02*
X19795Y40761D01*
X8387Y51450D02*
X19076Y40761D01*
X13341Y40008D02*
X13592Y39757D01*
X13456Y36445D02*
X16768Y39757D01*
X13815Y36086D02*
X17486Y39757D01*
X13341Y40008D02*
X13592Y39757D01*
X11660Y38241D02*
X13384Y39966D01*
X7669Y50731D02*
X17639Y40761D01*
X7335Y46848D02*
X21600Y61113D01*
X7309Y50372D02*
X16921Y40761D01*
X6950Y50013D02*
X16203Y40761D01*
X6591Y49654D02*
X15484Y40761D01*
X8028Y51090D02*
X18358Y40761D01*
X6808Y45845D02*
X17734Y34919D01*
X8257Y46597D02*
X14094Y40761D01*
X7505Y45845D02*
X13341Y40008D01*
X14893Y35009D02*
X19642Y39757D01*
X14332D02*
X19171Y34919D01*
X15050Y39757D02*
X19889Y34919D01*
X14174Y35727D02*
X18205Y39757D01*
X14534Y35368D02*
X18923Y39757D01*
X16240Y34919D02*
X21078Y39757D01*
X16487D02*
X21326Y34919D01*
X15521D02*
X20360Y39757D01*
X15769D02*
X20608Y34919D01*
X13592Y39757D02*
X14094D01*
X12378Y37523D02*
X14613Y39757D01*
X12738Y37164D02*
X15331Y39757D01*
X12019Y37882D02*
X13894Y39757D01*
X13592D02*
X14094D01*
X13097Y36805D02*
X16049Y39757D01*
X13614D02*
X18452Y34919D01*
X12545Y34816D02*
X13063Y35334D01*
X12904Y34457D02*
X13422Y34975D01*
X8786Y41115D02*
X10510Y42839D01*
X8427Y41474D02*
X10151Y43198D01*
X9145Y40756D02*
X10870Y42480D01*
X8006Y46848D02*
X8257Y46597D01*
X8068Y41834D02*
X9792Y43558D01*
X10223Y39678D02*
X11947Y41402D01*
X10582Y39319D02*
X12306Y41043D01*
X9505Y40397D02*
X11229Y42121D01*
X9864Y40038D02*
X11588Y41762D01*
X8006Y46848D02*
X8257Y46597D01*
X6631Y43270D02*
X8355Y44995D01*
X6990Y42911D02*
X8714Y44635D01*
X7505Y46848D02*
X8006D01*
X7505D02*
X8006D01*
X7349Y42552D02*
X9073Y44276D01*
X7709Y42193D02*
X9433Y43917D01*
X6439Y40923D02*
X6956Y41440D01*
X6798Y40564D02*
X7315Y41081D01*
X11301Y38601D02*
X13025Y40325D01*
X10941Y38960D02*
X12666Y40684D01*
X10749Y36612D02*
X11267Y37130D01*
X10031Y37331D02*
X10548Y37848D01*
X10390Y36971D02*
X10908Y37489D01*
X11827Y35535D02*
X12344Y36052D01*
X12186Y35175D02*
X12704Y35693D01*
X11108Y36253D02*
X11626Y36771D01*
X11468Y35894D02*
X11985Y36411D01*
X7875Y39486D02*
X8393Y40004D01*
X8235Y39127D02*
X8752Y39644D01*
X7157Y40204D02*
X7675Y40722D01*
X7516Y39845D02*
X8034Y40363D01*
X9312Y38049D02*
X9830Y38567D01*
X9671Y37690D02*
X10189Y38208D01*
X8594Y38768D02*
X9111Y39285D01*
X8953Y38408D02*
X9471Y38926D01*
X19407Y33776D02*
X19547Y33915D01*
X18737D02*
X18877Y33776D01*
X19456Y33915D02*
X19595Y33776D01*
X18019Y33915D02*
X18159Y33776D01*
X18689D02*
X18829Y33915D01*
X20844Y33776D02*
X20984Y33915D01*
X20892D02*
X21032Y33776D01*
X20126D02*
X20265Y33915D01*
X20174D02*
X20314Y33776D01*
X16582Y33915D02*
X16722Y33776D01*
X16533D02*
X16673Y33915D01*
X17252Y33776D02*
X17392Y33915D01*
X15815Y33776D02*
X15955Y33915D01*
X15864D02*
X16003Y33776D01*
X17970D02*
X18110Y33915D01*
X16520Y31607D02*
X17686Y32772D01*
X17300Y33915D02*
X17440Y33776D01*
X13755Y30997D02*
X15530Y32772D01*
X18443D02*
X19714Y31502D01*
X17852D02*
X19122Y32772D01*
X18570Y31502D02*
X19841Y32772D01*
X17133Y31502D02*
X18404Y32772D01*
X17725D02*
X18996Y31502D01*
X19880Y32772D02*
X21151Y31502D01*
X20007D02*
X21278Y32772D01*
X19162D02*
X20433Y31502D01*
X19288D02*
X20559Y32772D01*
X15946Y31752D02*
X16967Y32772D01*
X15570D02*
X16840Y31502D01*
X16288Y32772D02*
X17559Y31502D01*
X14851Y32772D02*
X15872Y31752D01*
X15624D02*
X16376D01*
X17007Y32772D02*
X18277Y31502D01*
X16376Y31752D02*
X16626Y31502D01*
X14114Y30638D02*
X16249Y32772D01*
X15248Y31376D02*
X15624Y31752D01*
X14481Y33915D02*
X14983D01*
X14230Y34166D02*
X14481Y33915D01*
X14983D01*
X13660Y33776D02*
X14140Y34256D01*
X14230Y34166D02*
X14481Y33915D01*
X15145D02*
X15285Y33776D01*
X14133Y32772D02*
X15389Y31516D01*
X14378Y33776D02*
X14518Y33915D01*
X15097Y33776D02*
X15236Y33915D01*
X13264Y34098D02*
X13781Y34615D01*
X13084Y32772D02*
X13586D01*
X13084D02*
X13586D01*
X12833Y33023D02*
X13084Y32772D01*
X12833Y33023D02*
X13084Y32772D01*
X10818Y30934D02*
X12870Y32986D01*
X11178Y30575D02*
X13375Y32772D01*
X10199Y31752D02*
X12152Y33705D01*
X10647Y31481D02*
X12511Y33345D01*
X13583Y31544D02*
X14812Y32772D01*
X13073Y31752D02*
X14093Y32772D01*
X13752Y31001D02*
Y31376D01*
X12624Y31752D02*
X13376D01*
X13752Y31376D01*
X15248Y30624D02*
Y31376D01*
X14474Y30279D02*
X15248Y31054D01*
X13414Y32772D02*
X15248Y30938D01*
X12248Y30624D02*
Y31376D01*
X10376Y31752D02*
X10752Y31376D01*
X12248D02*
X12624Y31752D01*
X9248Y31376D02*
X9624Y31752D01*
X10376D01*
X10752Y31125D02*
X12673Y29204D01*
X10752Y31001D02*
X12549Y29204D01*
X9248Y30624D02*
Y31376D01*
X10752Y31001D02*
Y31376D01*
X5451Y48638D02*
X7241Y46848D01*
X4964D02*
X7505D01*
X5048Y44562D02*
X6332Y45845D01*
X4964Y44562D02*
Y44642D01*
Y44562D02*
X5340D01*
X6232Y49294D02*
X14766Y40761D01*
X6272Y43630D02*
X7996Y45354D01*
X5553Y44348D02*
X7050Y45845D01*
X5913Y43989D02*
X7637Y45713D01*
X4964Y46971D02*
X5086Y46848D01*
X4529Y48124D02*
X5804Y46848D01*
X4790Y45845D02*
X7505D01*
X4964Y46848D02*
Y47182D01*
X4382Y45436D02*
X4790Y45845D01*
X4687Y44918D02*
X5613Y45845D01*
X4343Y45436D02*
X5217Y44562D01*
X4274Y45224D02*
X4895Y45845D01*
X4382Y45224D02*
X4964Y44642D01*
X5340Y44562D02*
X5591Y44311D01*
X5340Y44562D02*
X5591Y44311D01*
X5361Y42000D02*
X5879Y42518D01*
X4964Y42022D02*
X5340D01*
X4964D02*
X5340D01*
X5720Y41641D02*
X6238Y42159D01*
X6079Y41282D02*
X6597Y41800D01*
X5340Y42022D02*
X5591Y41771D01*
X5340Y42022D02*
X5591Y41771D01*
X4964Y44562D02*
X5340D01*
X4495Y42571D02*
X5160Y43236D01*
X4854Y42212D02*
X5519Y42877D01*
X4382Y42896D02*
X4941Y43456D01*
X3218Y42684D02*
X4382D01*
X4964Y42102D01*
Y42022D02*
Y42102D01*
X4382Y40356D02*
X4941Y40916D01*
X3218Y40356D02*
X4382D01*
X3555Y45224D02*
X3768Y45436D01*
X3218D02*
X4382D01*
X3218Y45224D02*
X4382D01*
X2636Y46018D02*
Y47182D01*
Y46018D02*
X3218Y45436D01*
X3624D02*
X3837Y45224D01*
X2636Y44642D02*
X3218Y45224D01*
X529Y45658D02*
X2636Y43550D01*
X529Y42915D02*
X3134Y45521D01*
X529Y47813D02*
X3168Y45174D01*
X529Y45789D02*
X2967Y48228D01*
X529Y45071D02*
X2636Y47179D01*
X529Y46508D02*
X2636Y48615D01*
X529Y48532D02*
X2636Y46424D01*
X529Y47095D02*
X2809Y44815D01*
X529Y43634D02*
X2775Y45880D01*
X529Y44352D02*
X2636Y46460D01*
X529Y46377D02*
X2636Y44269D01*
X3889Y42684D02*
X4102Y42896D01*
X3290D02*
X3503Y42684D01*
X3218Y42896D02*
X4382D01*
X2636Y43550D02*
X3290Y42896D01*
X2636Y43478D02*
X3218Y42896D01*
X4009D02*
X4222Y42684D01*
X2636Y40938D02*
X3218Y40356D01*
X2636Y42102D02*
X3218Y42684D01*
X2636Y40938D02*
Y42102D01*
X529Y44940D02*
X3001Y42467D01*
X529Y44221D02*
X2642Y42108D01*
X2636Y43478D02*
Y44642D01*
X529Y42197D02*
X2636Y44305D01*
X529Y40760D02*
X2942Y43173D01*
X529Y40042D02*
X3383Y42896D01*
X529Y41479D02*
X2636Y43586D01*
X529Y43503D02*
X2636Y41395D01*
X6089Y45845D02*
X17016Y34919D01*
X5371Y45845D02*
X16297Y34919D01*
X4721Y45776D02*
X15579Y34919D01*
X5591Y44311D02*
X14983Y34919D01*
X4941Y43456D02*
X14230Y34166D01*
X4914Y43428D02*
X14566Y33776D01*
X4747Y40722D02*
X15503Y29966D01*
X5591Y41771D02*
X13586Y33776D01*
X4941Y40916D02*
X12833Y33023D01*
X4555Y43069D02*
X13848Y33776D01*
X4388Y40362D02*
X12998Y31752D01*
X3675Y40356D02*
X12452Y31579D01*
X529Y42785D02*
X12248Y31065D01*
X529Y31421D02*
X7482Y38374D01*
X529Y42066D02*
X13391Y29204D01*
X529Y37756D02*
X17848Y20436D01*
X529Y30702D02*
X7841Y38015D01*
X529Y29984D02*
X8201Y37656D01*
X4964Y36913D02*
X10125Y31752D01*
X4504Y30367D02*
X9997Y35860D01*
X5063Y30208D02*
X10356Y35501D01*
X4964Y36194D02*
X9515Y31643D01*
X4772Y35667D02*
X9248Y31191D01*
X6078Y29068D02*
X11434Y34423D01*
X6171Y28442D02*
X11793Y34064D01*
X5502Y29928D02*
X10715Y35141D01*
X5842Y29550D02*
X11074Y34782D01*
X3718Y30300D02*
X9638Y36219D01*
X529Y27829D02*
X9278Y36578D01*
X3726Y35276D02*
X18301Y20702D01*
X529Y29265D02*
X8560Y37297D01*
X529Y28547D02*
X8919Y36938D01*
X529Y35600D02*
X17848Y18281D01*
X4413Y35308D02*
X19448Y20273D01*
X529Y37037D02*
X17848Y19717D01*
X529Y36319D02*
X17848Y18999D01*
X4469Y37516D02*
X6405Y39452D01*
X3838Y37604D02*
X6045Y39811D01*
X4828Y37157D02*
X6764Y39093D01*
X529Y39911D02*
X3027Y37412D01*
X529Y39192D02*
X2668Y37053D01*
X529Y35013D02*
X5686Y40170D01*
X4964Y36574D02*
X7123Y38734D01*
X529Y38474D02*
X2636Y36366D01*
Y37022D02*
X3218Y37604D01*
X529Y40629D02*
X3554Y37604D01*
X529Y41348D02*
X4273Y37604D01*
X529Y37887D02*
X3108Y40466D01*
X529Y39323D02*
X2636Y41431D01*
X529Y38605D02*
X2749Y40825D01*
X529Y36450D02*
X4968Y40889D01*
X529Y35731D02*
X5327Y40530D01*
X529Y4500D02*
Y84000D01*
Y37168D02*
X3717Y40356D01*
X4382Y37604D02*
X4964Y37022D01*
X3218Y37604D02*
X4382D01*
X4964Y35858D02*
Y37022D01*
X2636Y35858D02*
Y37022D01*
Y35858D02*
X3218Y35276D01*
X4382D02*
X4964Y35858D01*
X3218Y35276D02*
X4382D01*
X529Y32008D02*
X2823Y29714D01*
X529Y31290D02*
X2543Y29276D01*
X529Y32858D02*
X3083Y35412D01*
X529Y32139D02*
X3666Y35276D01*
X529Y34294D02*
X2636Y36402D01*
X529Y33576D02*
X2724Y35771D01*
X529Y34882D02*
X5404Y30006D01*
X529Y34163D02*
X4311Y30381D01*
X529Y33445D02*
X3684Y30289D01*
X529Y32727D02*
X3202Y30053D01*
X20717Y30498D02*
X21250Y29966D01*
X20626D02*
X21159Y30498D01*
X20741Y23290D02*
X21502Y22529D01*
X19908Y29966D02*
X20441Y30498D01*
X19999D02*
X20532Y29966D01*
X20508Y21227D02*
X21461Y22179D01*
X20852Y20852D02*
X21461Y21461D01*
X20023Y23290D02*
X21461Y21852D01*
Y21312D02*
Y22488D01*
X17268Y28200D02*
X20775Y24694D01*
X16550Y28200D02*
X20056Y24694D01*
X17986Y28200D02*
X21493Y24694D01*
X19281Y30498D02*
X19813Y29966D01*
X19723Y23290D02*
Y24694D01*
X14394Y28200D02*
X21605Y20990D01*
X18546Y20702D02*
X21135Y23290D01*
X12957Y28200D02*
X19931Y21227D01*
X13676Y28200D02*
X20650Y21227D01*
X20852Y20802D02*
X21417D01*
X20852Y20852D02*
X21461Y21461D01*
X20852Y19598D02*
X21417D01*
X20852Y20802D02*
Y21227D01*
Y21025D02*
X21075Y20802D01*
X20852Y19588D02*
X21438Y19002D01*
X21157D02*
X21585Y19430D01*
X20852Y19173D02*
Y19598D01*
Y19415D02*
X21035Y19598D01*
X20650Y21227D02*
X20852Y21025D01*
X19448Y21227D02*
X20852D01*
X19448Y19173D02*
X20852D01*
X19799Y19002D02*
X20301D01*
X19799D02*
X20301D01*
X20438D02*
X20610Y19173D01*
X20548D02*
X20719Y19002D01*
X19829Y19173D02*
X20001Y19002D01*
X19548Y18751D02*
X19799Y19002D01*
X17125Y30498D02*
X17658Y29966D01*
X17034D02*
X17567Y30498D01*
X17752Y29966D02*
X18285Y30498D01*
X16376Y30248D02*
X16626Y30498D01*
X16516Y30389D02*
X16940Y29966D01*
X18562Y30498D02*
X19095Y29966D01*
X19189D02*
X19722Y30498D01*
X17844D02*
X18376Y29966D01*
X18471D02*
X19004Y30498D01*
X15248Y30624D02*
X15624Y30248D01*
X13752Y31001D02*
X14787Y29966D01*
X14879D02*
X15393Y30480D01*
X12248Y30624D02*
X12624Y30248D01*
X12999D01*
X16316Y29966D02*
X16848Y30498D01*
X15938Y30248D02*
X16221Y29966D01*
X12999Y30248D02*
X14034Y29213D01*
X15597Y29966D02*
X15880Y30248D01*
X18852Y20288D02*
X19448Y20885D01*
X18601Y20702D02*
X18852Y20451D01*
Y19570D02*
X19448Y20167D01*
X17848Y20451D02*
X18099Y20702D01*
X18601D01*
X18852Y18852D02*
X19448Y19448D01*
X18852Y18852D02*
X19448Y19448D01*
Y19173D02*
Y21227D01*
X18852Y20151D02*
X19448Y19554D01*
X15624Y30248D02*
X16376D01*
X12549Y29204D02*
X14044D01*
X12255Y29497D02*
X13003Y30245D01*
X12680Y29204D02*
X13362Y29886D01*
X15831Y28200D02*
X19723Y24308D01*
X15113Y28200D02*
X19723Y23590D01*
X13398Y29204D02*
X13721Y29526D01*
X12239Y28200D02*
X19448Y20991D01*
X21004Y17998D02*
X21538Y17465D01*
X20994Y17402D02*
X21591Y17998D01*
X20852Y16198D02*
X21474D01*
X20852Y17402D02*
Y17827D01*
Y17402D02*
X21474D01*
X21367Y16198D02*
X21669Y15897D01*
X20852Y15996D02*
X21461Y15386D01*
X20852Y15773D02*
Y16198D01*
Y15823D02*
X21227Y16198D01*
X19548Y18751D02*
X19799Y19002D01*
X18852Y18133D02*
X19892Y19173D01*
X20129Y17827D02*
X20301Y17998D01*
X18852Y19433D02*
X19541Y18743D01*
X18852Y18054D02*
X19548Y18751D01*
X20700Y17827D02*
X20872Y17998D01*
X20129Y17827D02*
X20852D01*
X20293Y17991D02*
X20458Y17827D01*
X13775Y10902D02*
X19448Y16575D01*
X20752Y14849D02*
Y15451D01*
Y15773D02*
X20852D01*
X20752Y14849D02*
Y15451D01*
X19548D02*
Y15773D01*
X20752Y15451D02*
Y15773D01*
X21461Y14512D02*
Y15688D01*
X20752Y15377D02*
X21461Y14668D01*
X20451Y14548D02*
X20752Y14849D01*
X20451Y14548D02*
X20752Y14849D01*
X15902Y9436D02*
X21461Y14995D01*
X14975Y10877D02*
X19548Y15451D01*
X15877Y9975D02*
X20451Y14548D01*
X14494Y10902D02*
X19448Y15856D01*
Y15773D02*
X19548D01*
X15902Y8717D02*
X21578Y14394D01*
X14662Y7098D02*
X21232Y529D01*
X13225Y7098D02*
X19795Y529D01*
X13944Y7098D02*
X20513Y529D01*
X19320Y17018D02*
X19448Y17146D01*
X19069Y16767D02*
X19320Y17018D01*
X19069Y16767D02*
X19320Y17018D01*
X18852Y16696D02*
X18922Y16767D01*
X18852D02*
X19069D01*
X19448Y15773D02*
Y17146D01*
X19216Y16913D02*
X19448Y16681D01*
X18852Y16549D02*
Y16767D01*
Y16549D02*
Y16767D01*
Y18714D02*
X19182Y18384D01*
X18852Y18054D02*
Y20451D01*
X17848Y16818D02*
Y17319D01*
Y20451D01*
Y16818D02*
Y17319D01*
Y16549D02*
Y16818D01*
X18852Y16767D02*
X19069D01*
X17848Y16818D02*
Y17319D01*
Y16549D02*
Y16818D01*
X18601Y16298D02*
X18852Y16549D01*
X18099Y16298D02*
X18601D01*
X18099D02*
X18601D01*
X17848Y16549D02*
X18099Y16298D01*
X17848Y16549D02*
X18099Y16298D01*
X18852Y16559D02*
X19448Y15962D01*
X18394Y16298D02*
X19395Y15297D01*
X18601Y16298D02*
X18852Y16549D01*
X15902Y8049D02*
Y9951D01*
X13057Y10902D02*
X18454Y16298D01*
X13049Y10902D02*
X14951D01*
X12098Y9951D02*
X13049Y10902D01*
X12098Y9943D02*
X13057Y10902D01*
X14951Y7098D02*
X15902Y8049D01*
X13049Y7098D02*
X14951D01*
X12098Y8049D02*
Y9951D01*
Y8049D02*
X13049Y7098D01*
X11896Y29856D02*
X12456Y30417D01*
X11537Y30216D02*
X12248Y30927D01*
X9999Y30248D02*
X11796Y28451D01*
X9248Y30624D02*
X9624Y30248D01*
X9999D01*
X6171Y28521D02*
X17848Y16844D01*
X12047Y28200D02*
X12549D01*
X11796Y28451D02*
X12047Y28200D01*
X11796Y28451D02*
X12047Y28200D01*
X4159Y21402D02*
X11503Y28745D01*
X529Y20644D02*
X10066Y30182D01*
X4878Y21402D02*
X11862Y28386D01*
X5805Y27358D02*
X9248Y30801D01*
X529Y21363D02*
X9519Y30353D01*
X5796Y29614D02*
X17848Y17562D01*
X529Y18489D02*
X11144Y29104D01*
X529Y19926D02*
X10425Y29822D01*
X529Y19208D02*
X10784Y29463D01*
X8038Y20252D02*
X15987Y28200D01*
X7679Y20611D02*
X15269Y28200D01*
X8339Y19834D02*
X16706Y28200D01*
X12047D02*
X12549D01*
X7320Y20970D02*
X14550Y28200D01*
X8339Y18397D02*
X18142Y28200D01*
X8339Y17679D02*
X18861Y28200D01*
X8339Y19115D02*
X17424Y28200D01*
X8339Y17049D02*
Y19951D01*
X6315Y21402D02*
X13114Y28200D01*
X5596Y21402D02*
X12395Y28200D01*
X6961Y21329D02*
X13832Y28200D01*
X6888Y21402D02*
X8339Y19951D01*
X6825Y21402D02*
X8339Y19887D01*
X6079Y27894D02*
X19036Y14938D01*
X5843Y27412D02*
X18676Y14579D01*
X6888Y15598D02*
X8339Y17049D01*
X3987Y15598D02*
X6888D01*
X529Y22800D02*
X4308Y26579D01*
X529Y26261D02*
X5388Y21402D01*
X529Y24236D02*
X3200Y26908D01*
X529Y23518D02*
X3682Y26672D01*
X529Y25542D02*
X4669Y21402D01*
X529Y24824D02*
X3969Y21384D01*
X529Y24106D02*
X3610Y21025D01*
X529Y23387D02*
X3250Y20665D01*
X529Y27110D02*
X2450Y29032D01*
X529Y29853D02*
X2449Y27933D01*
X529Y25673D02*
X2542Y27687D01*
X529Y30571D02*
X2383Y28717D01*
X529Y26392D02*
X2383Y28246D01*
X529Y27698D02*
X6825Y21402D01*
X529Y26979D02*
X6106Y21402D01*
X529Y24955D02*
X2822Y27248D01*
X529Y22081D02*
X5392Y26945D01*
X2536Y19778D02*
X4159Y21402D01*
X2536Y19951D02*
X3987Y21402D01*
X6888D01*
X2536Y17049D02*
Y19951D01*
X529Y16334D02*
X2536Y18341D01*
Y17069D02*
X4007Y15598D01*
X2536Y17049D02*
X3987Y15598D01*
X529Y15615D02*
X2536Y17623D01*
X529Y14897D02*
X2608Y16977D01*
X529Y22669D02*
X2891Y20306D01*
X529Y20513D02*
X2536Y18506D01*
X529Y21950D02*
X2536Y19943D01*
X529Y21232D02*
X2536Y19225D01*
X529Y19077D02*
X2536Y17069D01*
X529Y17052D02*
X2536Y19060D01*
X529Y19795D02*
X2536Y17788D01*
X529Y17771D02*
X2536Y19778D01*
X5504Y27033D02*
X18317Y14220D01*
X5066Y26753D02*
X17958Y13860D01*
X4507Y26593D02*
X17599Y13501D01*
X3723Y26659D02*
X17240Y13142D01*
X8339Y19887D02*
X16162Y12064D01*
X1067Y2504D02*
X17848Y19285D01*
X1356Y2074D02*
X17848Y18567D01*
X8339Y19169D02*
X15803Y11705D01*
X8339Y18450D02*
X15444Y11346D01*
X529Y8431D02*
X20298Y28200D01*
X529Y9150D02*
X19579Y28200D01*
X529Y7713D02*
X21016Y28200D01*
X529Y29135D02*
X16880Y12783D01*
X529Y28416D02*
X16521Y12424D01*
X545Y4137D02*
X19723Y23316D01*
X650Y3524D02*
X20417Y23290D01*
X529Y4839D02*
X19723Y24034D01*
X829Y2984D02*
X17848Y20004D01*
X8339Y17732D02*
X15084Y10987D01*
X1692Y1692D02*
X17848Y17848D01*
X2074Y1356D02*
X17848Y17130D01*
X8321Y17031D02*
X14451Y10902D01*
X7962Y16672D02*
X13733Y10902D01*
X2504Y1067D02*
X17917Y16480D01*
X4007Y15598D02*
X19077Y529D01*
X6994D02*
X13564Y7098D01*
X7713Y529D02*
X14283Y7098D01*
X529Y18358D02*
X18358Y529D01*
X1692Y1692D02*
X17848Y17848D01*
X529Y17640D02*
X17640Y529D01*
X529Y16921D02*
X16921Y529D01*
X529Y16203D02*
X16203Y529D01*
X529Y15485D02*
X15485Y529D01*
X529Y14766D02*
X14766Y529D01*
X529Y14048D02*
X14048Y529D01*
X7603Y16313D02*
X13032Y10884D01*
X7244Y15954D02*
X12672Y10525D01*
X6881Y15598D02*
X12313Y10166D01*
X6162Y15598D02*
X12098Y9662D01*
X5444Y15598D02*
X12098Y8944D01*
X4725Y15598D02*
X12098Y8225D01*
X529Y11892D02*
X11892Y529D01*
X529Y11174D02*
X11174Y529D01*
X529Y10456D02*
X10456Y529D01*
X529Y12023D02*
X4104Y15598D01*
X529Y12742D02*
X3686Y15899D01*
X529Y11305D02*
X4822Y15598D01*
X529Y14179D02*
X2968Y16618D01*
X529Y13460D02*
X3327Y16258D01*
X529Y13329D02*
X13329Y529D01*
X529Y12611D02*
X12611Y529D01*
X529Y10587D02*
X5541Y15598D01*
X529Y9868D02*
X6259Y15598D01*
X3524Y650D02*
X12098Y9225D01*
X2984Y829D02*
X12098Y9943D01*
X4137Y545D02*
X12098Y8506D01*
X567Y3952D02*
X3952Y567D01*
X839Y2961D02*
X2961Y839D01*
X5558Y529D02*
X12588Y7559D01*
X6276Y529D02*
X12947Y7200D01*
X4839Y529D02*
X12229Y7919D01*
X529Y9737D02*
X9737Y529D01*
X529Y9019D02*
X9019Y529D01*
X529Y8300D02*
X8300Y529D01*
X529Y7582D02*
X7582Y529D01*
X529Y6863D02*
X6863Y529D01*
X529Y6145D02*
X6145Y529D01*
X529Y5427D02*
X5427Y529D01*
X529Y4708D02*
X4708Y529D01*
D13*
X54356Y25019D02*
X58674Y29337D01*
X21971Y29464D02*
X26416Y25019D01*
X54356D01*
X57404Y45085D02*
X58674Y43815D01*
Y29337D02*
Y43815D01*
X14536Y29464D02*
X21971D01*
X13000Y31000D02*
X14536Y29464D01*
X25800Y21250D02*
X25850Y21200D01*
X25800Y21250D02*
Y23056D01*
X41900Y55500D02*
Y55825D01*
X42100Y56025D01*
X43640D01*
X43865Y56250D01*
X44000D01*
X46122Y47752D02*
X57912D01*
X45370Y47000D02*
X46122Y47752D01*
X57912D02*
X59309Y46355D01*
X22750Y25781D02*
X23075D01*
X25800Y23056D01*
X35460Y58000D02*
X37960Y55500D01*
X40100D01*
Y53500D02*
Y55500D01*
X33401Y55599D02*
X36000Y53000D01*
Y53000D02*
Y53000D01*
X20050Y18500D02*
X22812D01*
X18350Y17069D02*
X18550Y17269D01*
X18350Y16800D02*
Y20200D01*
Y16800D02*
Y17069D01*
X18550Y17269D02*
X18819D01*
X20050Y18500D01*
X50292Y52324D02*
Y55292D01*
X47435Y49466D02*
X50292Y52324D01*
Y55292D02*
X50963Y55963D01*
Y55963D01*
X51000Y56000D02*
X51500Y55500D01*
X52100D01*
X47818Y48707D02*
X51000Y51889D01*
Y53500D01*
X52100D01*
X53900D02*
Y55500D01*
X37220Y17150D02*
Y20200D01*
X33400Y36440D02*
Y38100D01*
X53900Y55500D02*
Y57250D01*
X29200Y46600D02*
X32376D01*
X35243Y49466D01*
X47435D01*
X31487Y44060D02*
X36134Y48707D01*
X47818D01*
X41900Y53500D02*
X43000D01*
X56769Y44577D02*
X57277Y44069D01*
X40334Y45010D02*
X40767Y44577D01*
X56769D01*
X42830Y46040D02*
X43785Y45085D01*
X57404D01*
X40334Y45010D02*
Y45996D01*
X40290Y46040D02*
X40334Y45996D01*
X31360Y41520D02*
X35880Y46040D01*
X37750D01*
X45370Y46040D02*
Y47000D01*
X34925Y35306D02*
Y38992D01*
X39260Y43327D01*
X39716Y40386D02*
X42830Y43500D01*
X37338Y40386D02*
X39716D01*
X39260Y43327D02*
X40117D01*
X40290Y43500D01*
X15621Y81026D02*
X49911D01*
X51943Y78994D01*
Y66294D02*
Y78994D01*
X12065Y77470D02*
X15621Y81026D01*
X12065Y68326D02*
Y77470D01*
X5579Y61840D02*
X12065Y68326D01*
X3800Y61840D02*
X5579D01*
X48149Y62500D02*
X51943Y66294D01*
X41400Y62500D02*
X48149D01*
X49205Y58000D02*
X53848Y62643D01*
Y79756D01*
X41400Y58000D02*
X49205D01*
X38000D02*
X39600D01*
X38000Y62500D02*
X39600D01*
X30000Y8400D02*
X35080D01*
X35405D01*
X37220Y10215D01*
Y13000D01*
X54864Y24511D02*
X59309Y28956D01*
Y46355D01*
X26162Y24511D02*
X54864D01*
X57277Y30353D02*
Y44069D01*
X53340Y26416D02*
X57277Y30353D01*
X21971Y28702D02*
X26162Y24511D01*
X12298Y28702D02*
X21971D01*
X10000Y31000D02*
X12298Y28702D01*
X27051Y26416D02*
X53340D01*
X22467Y31000D02*
X27051Y26416D01*
X16000Y31000D02*
X22467D01*
X49400Y67300D02*
Y69400D01*
Y74600D02*
Y76700D01*
X22000Y69460D02*
X24100D01*
X22000Y61840D02*
X24100D01*
X33401Y55599D02*
Y61087D01*
X32648Y61840D02*
X33401Y61087D01*
X29200Y61840D02*
X32648D01*
X29200Y41520D02*
X31360D01*
X4053Y46347D02*
X7755D01*
X13843Y40259D02*
X31750D01*
X7755Y46347D02*
X13843Y40259D01*
X51054Y82550D02*
X53848Y79756D01*
X40640Y71160D02*
X44500Y67300D01*
X40640Y71160D02*
Y75819D01*
X37719Y78740D02*
X40640Y75819D01*
X18034Y78740D02*
X37719D01*
X16256Y76962D02*
X18034Y78740D01*
X16256Y60071D02*
Y76962D01*
X5325Y49140D02*
X16256Y60071D01*
X3800Y49140D02*
X5325D01*
X41190Y80010D02*
X44500Y76700D01*
X17526Y80010D02*
X41190D01*
X14478Y76962D02*
X17526Y80010D01*
X14478Y60325D02*
Y76962D01*
X5833Y51680D02*
X14478Y60325D01*
X3800Y51680D02*
X5833D01*
X29200Y44060D02*
X31487D01*
X3800Y46600D02*
X4053Y46347D01*
X34991Y43500D02*
X37750D01*
X31750Y40259D02*
X34991Y43500D01*
X5089Y44060D02*
X14732Y34417D01*
X34036D02*
X34925Y35306D01*
X14732Y34417D02*
X34036D01*
X3800Y44060D02*
X5089D01*
X5089Y41520D02*
X13335Y33274D01*
X3800Y41520D02*
X5089D01*
X13335Y33274D02*
X35433D01*
X36068Y39116D02*
X37338Y40386D01*
X36068Y33909D02*
Y39116D01*
X35433Y33274D02*
X36068Y33909D01*
X9652Y68326D02*
Y77470D01*
X14732Y82550D02*
X51054D01*
X9652Y77470D02*
X14732Y82550D01*
X5706Y64380D02*
X9652Y68326D01*
X3800Y64380D02*
X5706D01*
X25900Y69460D02*
X29200D01*
X25900Y61840D02*
X29200D01*
X30000Y4300D02*
Y6600D01*
X35080Y4300D02*
Y6600D01*
X37220Y13000D02*
Y15350D01*
X46750Y38750D02*
X53250D01*
X37750D02*
X44250D01*
X53468Y32512D02*
X55000Y30980D01*
X44831Y32512D02*
X53468D01*
X44250Y33093D02*
X44831Y32512D01*
X44250Y33093D02*
Y34250D01*
D14*
X22812Y20200D02*
X24250D01*
X25250Y21200D01*
X25850D01*
X22812Y15100D02*
X22970D01*
X24070Y14000D01*
X25850D01*
X30200Y21200D02*
X32500D01*
X30200Y14000D02*
X32500D01*
X29200Y36440D02*
X31600D01*
X20150Y20200D02*
X22812D01*
Y15100D02*
Y16800D01*
X20150D02*
X22812D01*
X20150Y15150D02*
Y16800D01*
X14000Y9000D02*
X20150Y15150D01*
D15*
X52990Y46040D02*
D03*
X55530D02*
D03*
X50450D02*
D03*
X37750Y46040D02*
D03*
X40290D02*
D03*
X42830D02*
D03*
X45370Y46040D02*
D03*
X47910Y46040D02*
D03*
X40290Y43500D02*
D03*
X37750D02*
D03*
X45370D02*
D03*
X42830D02*
D03*
X50450D02*
D03*
X47910D02*
D03*
X55530Y43500D02*
D03*
X52990D02*
D03*
X38000Y58000D02*
D03*
X53250Y34250D02*
D03*
X46750D02*
D03*
X53250Y38750D02*
D03*
X46750D02*
D03*
X37750D02*
D03*
X44250D02*
D03*
X37750Y34250D02*
D03*
X44250D02*
D03*
X38000Y62500D02*
D03*
D16*
X35460Y58000D02*
D03*
Y62500D02*
D03*
D17*
X28780Y75430D02*
D03*
Y28480D02*
D03*
X4270Y75430D02*
D03*
Y28480D02*
D03*
X18700Y6000D02*
D03*
X14000Y9000D02*
D03*
Y3000D02*
D03*
D18*
X29200Y69460D02*
D03*
Y66920D02*
D03*
Y72000D02*
D03*
Y36440D02*
D03*
Y38980D02*
D03*
Y41520D02*
D03*
Y44060D02*
D03*
Y46600D02*
D03*
Y49140D02*
D03*
Y51680D02*
D03*
Y54220D02*
D03*
Y56760D02*
D03*
Y59300D02*
D03*
Y61840D02*
D03*
Y64380D02*
D03*
X3800Y36440D02*
D03*
Y44060D02*
D03*
Y46600D02*
D03*
Y49140D02*
D03*
Y51680D02*
D03*
Y54220D02*
D03*
Y56760D02*
D03*
Y59300D02*
D03*
Y61840D02*
D03*
Y64380D02*
D03*
Y66920D02*
D03*
Y69460D02*
D03*
Y72000D02*
D03*
Y38980D02*
D03*
Y41520D02*
D03*
X55000Y13000D02*
D03*
X52460D02*
D03*
X49920D02*
D03*
X47380D02*
D03*
X44840D02*
D03*
X42300D02*
D03*
X39760D02*
D03*
X37220D02*
D03*
X55000Y30980D02*
D03*
X52460D02*
D03*
X49920D02*
D03*
X47380D02*
D03*
X44840D02*
D03*
X42300D02*
D03*
X39760D02*
D03*
X37220D02*
D03*
D19*
X57200Y69460D02*
D03*
Y74540D02*
D03*
X44500Y67300D02*
D03*
Y72000D02*
D03*
Y76700D02*
D03*
D20*
X35080Y4300D02*
D03*
X30000D02*
D03*
X24920D02*
D03*
X47580Y4200D02*
D03*
X42500D02*
D03*
D21*
X5438Y18500D02*
D03*
D22*
X22812Y15100D02*
D03*
Y16800D02*
D03*
Y21900D02*
D03*
Y18500D02*
D03*
D23*
Y20200D02*
D03*
D24*
X4500Y84000D02*
D03*
X56000D02*
D03*
X4500Y4500D02*
D03*
X56000D02*
D03*
D25*
X44000Y56250D02*
D03*
X36000Y53000D02*
D03*
X51000Y56000D02*
D03*
X44000Y52000D02*
D03*
X37220Y20200D02*
D03*
X33400Y38100D02*
D03*
X53900Y57250D02*
D03*
X51000Y53500D02*
D03*
X43000D02*
D03*
X32500Y14000D02*
D03*
Y21200D02*
D03*
X16000Y31000D02*
D03*
X13000D02*
D03*
X10000D02*
D03*
X49400Y74600D02*
D03*
Y69400D02*
D03*
X22000Y69460D02*
D03*
Y61840D02*
D03*
D26*
X30150Y14000D02*
D03*
X25850D02*
D03*
X30150Y21200D02*
D03*
X25850D02*
D03*
D27*
X52100Y53500D02*
D03*
X53900D02*
D03*
X52100Y55500D02*
D03*
X53900D02*
D03*
X24100Y61840D02*
D03*
X25900D02*
D03*
X33400Y36440D02*
D03*
X31600D02*
D03*
X24100Y69460D02*
D03*
X25900D02*
D03*
X40100Y55500D02*
D03*
X41900D02*
D03*
X40100Y53500D02*
D03*
X41900D02*
D03*
X49400Y67300D02*
D03*
X47600D02*
D03*
X49400Y76700D02*
D03*
X47600D02*
D03*
X39600Y58000D02*
D03*
X41400D02*
D03*
X39600Y62500D02*
D03*
X41400D02*
D03*
X18350Y20200D02*
D03*
X20150D02*
D03*
X18350Y16800D02*
D03*
X20150D02*
D03*
D28*
X37220Y17150D02*
D03*
Y15350D02*
D03*
X35080Y8400D02*
D03*
Y6600D02*
D03*
X30000Y8400D02*
D03*
Y6600D02*
D03*
X20750Y23992D02*
D03*
Y25792D02*
D03*
X22750Y25781D02*
D03*
Y23981D02*
D03*
D29*
X44500Y76700D02*
X47600D01*
X44500Y67300D02*
X47600D01*
X20750Y23992D02*
X20756Y23986D01*
X22744D01*
X22750Y23981D01*
X22812Y23919D01*
Y21900D02*
Y23919D01*
%TF.MD5,eb06b33f529e34653d31eaa1a70ba88f*%
M02*
