%TF.GenerationSoftware,Altium Limited,Altium Designer,25.2.1 (25)*%
G04 Layer_Color=8388736*
%FSLAX43Y43*%
%MOMM*%
%TF.SameCoordinates,F457C3C9-6880-4064-B818-50B76E06CF19*%
%TF.FilePolarity,Negative*%
%TF.FileFunction,Soldermask,Top*%
%TF.Part,Single*%
G01*
G75*
%TA.AperFunction,BGAPad,CuDef*%
%ADD42R,0.650X0.650*%
%TA.AperFunction,ComponentPad*%
%ADD43C,2.650*%
%ADD44C,5.150*%
%ADD45O,2.650X1.750*%
%ADD46C,1.650*%
%ADD47C,3.150*%
%ADD48C,1.674*%
%ADD49C,6.150*%
%ADD50R,1.650X1.650*%
%ADD51C,2.925*%
%TA.AperFunction,ViaPad*%
%ADD52C,0.850*%
G36*
X9026Y23824D02*
X9037Y23822D01*
X9048Y23817D01*
X9058Y23811D01*
X9067Y23803D01*
X9075Y23794D01*
X9081Y23784D01*
X9086Y23773D01*
X9088Y23762D01*
X9089Y23750D01*
Y22075D01*
X13739D01*
X13751Y22074D01*
X13762Y22072D01*
X13773Y22067D01*
X13783Y22061D01*
X13792Y22053D01*
X13800Y22044D01*
X13806Y22034D01*
X13811Y22023D01*
X13813Y22012D01*
X13814Y22000D01*
Y15000D01*
X13813Y14988D01*
X13811Y14977D01*
X13806Y14966D01*
X13800Y14956D01*
X13792Y14947D01*
X13783Y14939D01*
X13773Y14933D01*
X13762Y14928D01*
X13751Y14926D01*
X13739Y14925D01*
X9089D01*
Y13250D01*
X9088Y13238D01*
X9086Y13227D01*
X9081Y13216D01*
X9075Y13206D01*
X9067Y13197D01*
X9058Y13189D01*
X9048Y13183D01*
X9037Y13178D01*
X9026Y13176D01*
X9014Y13175D01*
X2739D01*
X2727Y13176D01*
X2716Y13178D01*
X2705Y13183D01*
X2695Y13189D01*
X2686Y13197D01*
X2678Y13206D01*
X2672Y13216D01*
X2668Y13227D01*
X2665Y13238D01*
X2664Y13250D01*
Y23750D01*
X2665Y23762D01*
X2668Y23773D01*
X2672Y23784D01*
X2678Y23794D01*
X2686Y23803D01*
X2695Y23811D01*
X2705Y23817D01*
X2716Y23822D01*
X2727Y23824D01*
X2739Y23825D01*
X9014D01*
X9026Y23824D01*
D02*
G37*
G36*
Y35224D02*
X9037Y35222D01*
X9048Y35217D01*
X9058Y35211D01*
X9067Y35203D01*
X9075Y35194D01*
X9081Y35184D01*
X9086Y35173D01*
X9088Y35162D01*
X9089Y35150D01*
Y33475D01*
X13739D01*
X13751Y33474D01*
X13762Y33472D01*
X13773Y33467D01*
X13783Y33461D01*
X13792Y33453D01*
X13800Y33444D01*
X13806Y33434D01*
X13811Y33423D01*
X13813Y33412D01*
X13814Y33400D01*
Y26400D01*
X13813Y26388D01*
X13811Y26377D01*
X13806Y26366D01*
X13800Y26356D01*
X13792Y26347D01*
X13783Y26339D01*
X13773Y26333D01*
X13762Y26328D01*
X13751Y26326D01*
X13739Y26325D01*
X9089D01*
Y24650D01*
X9088Y24638D01*
X9086Y24627D01*
X9081Y24616D01*
X9075Y24606D01*
X9067Y24597D01*
X9058Y24589D01*
X9048Y24583D01*
X9037Y24578D01*
X9026Y24576D01*
X9014Y24575D01*
X2739D01*
X2727Y24576D01*
X2716Y24578D01*
X2705Y24583D01*
X2695Y24589D01*
X2686Y24597D01*
X2678Y24606D01*
X2672Y24616D01*
X2668Y24627D01*
X2665Y24638D01*
X2664Y24650D01*
Y35150D01*
X2665Y35162D01*
X2668Y35173D01*
X2672Y35184D01*
X2678Y35194D01*
X2686Y35203D01*
X2695Y35211D01*
X2705Y35217D01*
X2716Y35222D01*
X2727Y35224D01*
X2739Y35225D01*
X9014D01*
X9026Y35224D01*
D02*
G37*
D42*
X45150Y58000D02*
D03*
Y57200D02*
D03*
X45950D02*
D03*
X46750D02*
D03*
X47550D02*
D03*
X48350D02*
D03*
Y58000D02*
D03*
Y58800D02*
D03*
X47550D02*
D03*
X46750D02*
D03*
X45950D02*
D03*
X45150D02*
D03*
D43*
X47580Y4200D02*
D03*
X42500D02*
D03*
X24920Y4300D02*
D03*
X30000D02*
D03*
X35080D02*
D03*
D44*
X5438Y18500D02*
D03*
Y29900D02*
D03*
D45*
X22812Y15100D02*
D03*
Y16800D02*
D03*
Y20200D02*
D03*
Y21900D02*
D03*
Y18500D02*
D03*
Y26500D02*
D03*
Y28200D02*
D03*
Y31600D02*
D03*
Y33300D02*
D03*
Y29900D02*
D03*
D46*
X52990Y45500D02*
D03*
X55530D02*
D03*
X47910Y45500D02*
D03*
X50450D02*
D03*
X42830D02*
D03*
X45370D02*
D03*
X37750D02*
D03*
X40290D02*
D03*
X47910Y48040D02*
D03*
X45370Y48040D02*
D03*
X42830Y48040D02*
D03*
X40290D02*
D03*
X37750D02*
D03*
X50450Y48040D02*
D03*
X55530D02*
D03*
X52990D02*
D03*
X51000Y68000D02*
D03*
X53250Y34250D02*
D03*
X46750D02*
D03*
X53250Y38750D02*
D03*
X46750D02*
D03*
X37750D02*
D03*
X44250D02*
D03*
X37750Y34250D02*
D03*
X44250D02*
D03*
X51000Y72250D02*
D03*
D47*
X14000Y3000D02*
D03*
Y9000D02*
D03*
X18700Y6000D02*
D03*
D48*
X37220Y30980D02*
D03*
X39760D02*
D03*
X42300D02*
D03*
X44840D02*
D03*
X47380D02*
D03*
X49920D02*
D03*
X52460D02*
D03*
X55000D02*
D03*
X37220Y13000D02*
D03*
X39760D02*
D03*
X42300D02*
D03*
X44840D02*
D03*
X47380D02*
D03*
X49920D02*
D03*
X52460D02*
D03*
X55000D02*
D03*
X22890Y38590D02*
D03*
Y41130D02*
D03*
Y43670D02*
D03*
Y46210D02*
D03*
Y48750D02*
D03*
Y51290D02*
D03*
Y53830D02*
D03*
Y56370D02*
D03*
Y58910D02*
D03*
Y61450D02*
D03*
Y63990D02*
D03*
Y66530D02*
D03*
Y69070D02*
D03*
Y71610D02*
D03*
Y74150D02*
D03*
Y76690D02*
D03*
Y79230D02*
D03*
Y81770D02*
D03*
Y84310D02*
D03*
Y86850D02*
D03*
X5110D02*
D03*
Y84310D02*
D03*
Y81770D02*
D03*
Y79230D02*
D03*
Y76690D02*
D03*
Y74150D02*
D03*
Y71610D02*
D03*
Y69070D02*
D03*
Y66530D02*
D03*
Y63990D02*
D03*
Y61450D02*
D03*
Y58910D02*
D03*
Y56370D02*
D03*
Y53830D02*
D03*
Y51290D02*
D03*
Y48750D02*
D03*
Y46210D02*
D03*
Y43670D02*
D03*
Y41130D02*
D03*
Y38590D02*
D03*
D49*
X4500Y94500D02*
D03*
X56000D02*
D03*
X4500Y4500D02*
D03*
X56000D02*
D03*
D50*
X53540Y68000D02*
D03*
Y72250D02*
D03*
D51*
X57200Y79460D02*
D03*
Y84540D02*
D03*
X44500Y77300D02*
D03*
Y82000D02*
D03*
Y86700D02*
D03*
D52*
X49000Y85500D02*
D03*
Y78500D02*
D03*
X43000Y65000D02*
D03*
X31150Y29350D02*
D03*
Y35350D02*
D03*
Y16950D02*
D03*
Y22950D02*
D03*
X28250Y64750D02*
D03*
X35000Y63250D02*
D03*
X36000Y55000D02*
D03*
X30000Y49000D02*
D03*
X32250Y46500D02*
D03*
X27750D02*
D03*
X33250Y51250D02*
D03*
X33500Y63250D02*
D03*
X29500D02*
D03*
X28500Y54000D02*
D03*
X10750Y41000D02*
D03*
Y38500D02*
D03*
X38250Y8750D02*
D03*
X37250Y17250D02*
D03*
X46750Y58000D02*
D03*
X54000Y59000D02*
D03*
X39500D02*
D03*
X43000Y55000D02*
D03*
Y56000D02*
D03*
X50500Y59000D02*
D03*
X43000D02*
D03*
Y57250D02*
D03*
X50500D02*
D03*
X16438Y26500D02*
D03*
X30000Y38000D02*
D03*
X34650Y39600D02*
D03*
%TF.MD5,66e3b27cad5f378ad2206f0dca02e40f*%
M02*
