%TF.GenerationSoftware,Altium Limited,Altium Designer,25.2.1 (25)*%
G04 Layer_Physical_Order=4*
G04 Layer_Color=16711680*
%FSLAX43Y43*%
%MOMM*%
%TF.SameCoordinates,73B19FC9-5684-49D0-80EE-29C7FECE4A2C*%
%TF.FilePolarity,Positive*%
%TF.FileFunction,Copper,L4,Bot,Signal*%
%TF.Part,Single*%
G01*
G75*
%TA.AperFunction,NonConductor*%
%ADD10C,0.203*%
%TA.AperFunction,Conductor*%
%ADD11C,0.230*%
%ADD12C,0.200*%
%TA.AperFunction,SMDPad,CuDef*%
%ADD17R,0.700X0.650*%
%TA.AperFunction,NonConductor*%
%ADD18C,0.300*%
%TA.AperFunction,ComponentPad*%
%ADD19C,1.500*%
%ADD20C,3.316*%
%ADD21C,1.408*%
%ADD22R,1.408X1.408*%
%ADD23C,2.000*%
%TA.AperFunction,ViaPad*%
%ADD24C,0.700*%
%TA.AperFunction,SMDPad,CuDef*%
%ADD25R,1.600X1.000*%
%ADD26R,0.650X1.600*%
%ADD27R,0.650X0.700*%
%ADD28R,0.600X1.250*%
%ADD29R,1.525X0.650*%
%ADD30R,2.710X3.350*%
%TA.AperFunction,Conductor*%
%ADD31C,0.400*%
D10*
X36171Y65334D02*
X36498Y65007D01*
X36171Y64908D02*
X36498Y65235D01*
X36444Y66498D02*
X36498Y66444D01*
X36171Y62752D02*
X36498Y63080D01*
X36171Y62461D02*
X36498Y62133D01*
X36171Y63179D02*
X36498Y62852D01*
X36171Y65626D02*
X36498Y65954D01*
X36142Y64645D02*
X36498Y64288D01*
X35725Y66498D02*
X36498Y65725D01*
X35783Y64286D02*
X36498Y63570D01*
X36078Y63378D02*
X36498Y63798D01*
X35719Y63737D02*
X36498Y64517D01*
X36171Y60305D02*
X36498Y59978D01*
X36171Y59879D02*
X36498Y60206D01*
X36171Y60597D02*
X36498Y60925D01*
X36053Y58324D02*
X36498Y58769D01*
X36171Y58150D02*
X36498Y57823D01*
X36167Y59591D02*
X36498Y59259D01*
X35458Y61322D02*
X36498Y62362D01*
X35886Y61031D02*
X36498Y61643D01*
X35975Y61938D02*
X36498Y61415D01*
X35693Y58683D02*
X36498Y59488D01*
X35808Y59231D02*
X36498Y58541D01*
X35616Y61579D02*
X36498Y60696D01*
X35911Y66085D02*
X36325Y66498D01*
X35595Y66402D02*
X36171Y65826D01*
X35509Y66402D02*
X35606Y66498D01*
X35595Y64098D02*
X36171Y64674D01*
X35595Y63862D02*
X36171Y63286D01*
Y64674D02*
Y65826D01*
X35007Y66498D02*
X35104Y66402D01*
X34443Y63862D02*
X35595D01*
X34791Y66402D02*
X34888Y66498D01*
X35125Y63862D02*
X35361Y64098D01*
X35252D02*
X35488Y63862D01*
X34533Y64098D02*
X34770Y63862D01*
X35595Y61558D02*
X36171Y62134D01*
X35595Y61322D02*
X36171Y60746D01*
Y62134D02*
Y63286D01*
Y59594D02*
Y60746D01*
X35595Y59018D02*
X36171Y59594D01*
X35595Y58782D02*
X36171Y58206D01*
X34740Y61322D02*
X34977Y61558D01*
X34918D02*
X35155Y61322D01*
X34584Y59018D02*
X34821Y58782D01*
X35303Y59018D02*
X35539Y58782D01*
X36171Y58150D01*
X35074Y58782D02*
X35310Y59018D01*
X36171Y57432D02*
X36498Y57104D01*
X36171Y55568D02*
X36498Y55896D01*
X36171Y57723D02*
X36498Y58051D01*
X36171Y54850D02*
X36498Y55177D01*
X36171Y54558D02*
X36498Y54230D01*
X36171Y55277D02*
X36498Y54949D01*
X35407Y56242D02*
X36498Y57333D01*
X35860Y55976D02*
X36498Y56614D01*
X36000Y56884D02*
X36498Y56386D01*
X35668Y53629D02*
X36498Y54459D01*
X35834Y54177D02*
X36498Y53512D01*
X35641Y56525D02*
X36498Y55667D01*
X36171Y51976D02*
X36498Y52304D01*
X36171Y50539D02*
X36498Y50867D01*
X36171Y52403D02*
X36498Y52075D01*
X36171Y49821D02*
X36498Y50148D01*
X36171Y49529D02*
X36498Y49202D01*
X36171Y50247D02*
X36498Y49920D01*
X36171Y53121D02*
X36498Y52794D01*
X36171Y52695D02*
X36498Y53022D01*
X36027Y53269D02*
X36498Y53741D01*
X35835Y50922D02*
X36498Y51585D01*
X35667Y51470D02*
X36498Y50638D01*
X36026Y51829D02*
X36498Y51357D01*
X35595Y56478D02*
X36171Y57054D01*
X35595Y56242D02*
X36171Y55666D01*
X36171Y57054D02*
Y58206D01*
X35595Y53938D02*
X36171Y54514D01*
X35595Y53702D02*
X36171Y53126D01*
X36171Y54514D02*
Y55666D01*
X34969Y56478D02*
X35206Y56242D01*
X34444Y53702D02*
X35595D01*
X34689Y56242D02*
X34926Y56478D01*
X35023Y53702D02*
X35259Y53938D01*
X35354D02*
X35590Y53702D01*
X34635Y53938D02*
X34872Y53702D01*
X36171Y51974D02*
Y53126D01*
X35593Y51398D02*
X36171Y51976D01*
X35590Y53702D02*
X36171Y53121D01*
X35595Y51162D02*
X36171Y50586D01*
Y49434D02*
Y50586D01*
X35595Y51398D02*
X36171Y51974D01*
X34444Y51398D02*
X35595D01*
X34444Y51162D02*
X35595D01*
X34638D02*
X34875Y51398D01*
X35356Y51162D02*
X35593Y51398D01*
X35020D02*
X35257Y51162D01*
X34443Y66402D02*
X35595D01*
X33868Y64764D02*
X34533Y64098D01*
X34288Y66498D02*
X34414Y66372D01*
X34443Y64098D02*
X35595D01*
X33868Y63286D02*
X34443Y63862D01*
X33868Y64674D02*
X34443Y64098D01*
X29259Y66498D02*
X34440Y61318D01*
X33868Y65826D02*
X34443Y66402D01*
X31415Y66498D02*
X34247Y63666D01*
X24230Y66498D02*
X34487Y56242D01*
X26580Y56035D02*
X34643Y64098D01*
X26386Y66498D02*
X34273Y58611D01*
X34443Y61322D02*
X35595D01*
X34443Y59018D02*
X35595D01*
X34443Y61558D02*
X35595D01*
X34443Y56478D02*
X35595D01*
X34443Y56242D02*
X35595D01*
X34443Y58782D02*
X35595D01*
X33868Y60746D02*
X34443Y61322D01*
X33868Y59594D02*
X34443Y59018D01*
X33868Y62134D02*
X34443Y61558D01*
X33867Y57054D02*
X34443Y56478D01*
X33868Y55666D02*
X34443Y56242D01*
X33867Y58206D02*
X34443Y58782D01*
X32133Y66498D02*
X33868Y64764D01*
X30696Y66498D02*
X33888Y63306D01*
X32852Y66498D02*
X33868Y65482D01*
X27823Y66498D02*
X33868Y60453D01*
X27104Y66498D02*
X33868Y59735D01*
X29978Y66498D02*
X33868Y62609D01*
X24712Y57760D02*
X33451Y66498D01*
X25667D02*
X33914Y58252D01*
X23994Y57760D02*
X32733Y66498D01*
X22794D02*
X33868Y55424D01*
X22075Y66498D02*
X33868Y54706D01*
X24949Y66498D02*
X33867Y57580D01*
X33570Y66498D02*
X34055Y66013D01*
X33868Y62134D02*
Y63286D01*
Y64674D02*
Y65826D01*
X28541Y66498D02*
X34081Y60959D01*
X33868Y59594D02*
Y60746D01*
X33867Y57054D02*
Y58206D01*
X25431Y57760D02*
X34169Y66498D01*
X26209Y57101D02*
X33868Y64760D01*
X25849Y57460D02*
X33868Y65478D01*
X23512Y66498D02*
X34106Y55904D01*
X26568Y56742D02*
X34184Y64358D01*
X26580Y55316D02*
X33868Y62604D01*
X26455Y50882D02*
X34592Y59018D01*
X33868Y54514D02*
X34443Y53938D01*
X30766Y50882D02*
X34133Y54249D01*
X28010Y50281D02*
X34325Y56596D01*
X31484Y50882D02*
X34541Y53938D01*
X27291Y50281D02*
X33966Y56955D01*
X21357Y66498D02*
X34299Y53557D01*
X19202Y66498D02*
X34538Y51162D01*
X20638Y66498D02*
X33939Y53197D01*
X22217Y49517D02*
X34351Y61651D01*
X25737Y50882D02*
X34158Y59303D01*
X21498Y49517D02*
X33992Y62010D01*
X34443Y53938D02*
X35595D01*
X33868Y51974D02*
X34444Y51398D01*
X33868Y53126D02*
X34444Y53702D01*
X33868Y50586D02*
X34444Y51162D01*
X33868Y49434D02*
Y50586D01*
X33711Y49834D02*
X33868Y49677D01*
X33041Y51002D02*
X33941Y51901D01*
X33568Y50810D02*
X34300Y51542D01*
X32203Y50882D02*
X33868Y52547D01*
X32459Y49648D02*
X33965Y48143D01*
X33328Y49498D02*
X34324Y48502D01*
X32352Y48157D02*
X33868Y49673D01*
X33868Y54514D02*
Y55666D01*
X33868Y51974D02*
Y53126D01*
X32624Y51002D02*
X33376D01*
X30047Y50882D02*
X33868Y54702D01*
X33376Y51002D02*
X33752Y50626D01*
X32474Y50852D02*
X32624Y51002D01*
X19920Y66498D02*
X33868Y52551D01*
X25018Y50882D02*
X33868Y59731D01*
X30024Y50882D02*
X32352D01*
X22935Y49517D02*
X33868Y60449D01*
X28728Y50281D02*
X33868Y55420D01*
X26976Y50684D02*
X33867Y57575D01*
X33752Y50512D02*
X33868Y50395D01*
X33752Y50275D02*
X33868Y50391D01*
X33752Y49874D02*
Y50626D01*
X33376Y49498D02*
X33752Y49874D01*
X32624Y49498D02*
X33376D01*
X32474Y49648D02*
X32624Y49498D01*
X32352Y50852D02*
X32474D01*
X32352Y49648D02*
X32474D01*
X32352Y49594D02*
X32406Y49648D01*
X32352Y49428D02*
Y49612D01*
Y49428D02*
Y49612D01*
X36171Y47374D02*
X36498Y47046D01*
X36171Y46947D02*
X36498Y47275D01*
X36171Y47666D02*
X36498Y47993D01*
X36169Y45508D02*
X36498Y45838D01*
X36171Y44500D02*
X36498Y44173D01*
X36052Y46775D02*
X36498Y46328D01*
X35859Y49122D02*
X36498Y48483D01*
X36002Y48215D02*
X36498Y48712D01*
X35643Y48574D02*
X36498Y49430D01*
X35809Y45867D02*
X36498Y46556D01*
X35692Y46416D02*
X36498Y45609D01*
X35405Y48858D02*
X36498Y47765D01*
X36171Y42345D02*
X36498Y42017D01*
X36171Y41918D02*
X36498Y42246D01*
X36171Y42637D02*
X36498Y42964D01*
X36143Y40454D02*
X36498Y40809D01*
X36171Y40189D02*
X36498Y39862D01*
X36077Y41720D02*
X36498Y41299D01*
X35885Y44068D02*
X36498Y43454D01*
X35976Y43160D02*
X36498Y43683D01*
X35617Y43520D02*
X36498Y44401D01*
X35784Y40813D02*
X36498Y41527D01*
X35718Y41361D02*
X36498Y40580D01*
X35456Y43778D02*
X36498Y42736D01*
X35595Y48622D02*
X36171Y48046D01*
Y46894D02*
Y48046D01*
X35595Y48858D02*
X36171Y49434D01*
X35595Y46318D02*
X36171Y46894D01*
X36171Y44354D02*
Y45506D01*
X35595Y46082D02*
X36171Y45506D01*
X34972Y48622D02*
X35208Y48858D01*
X35542Y46318D02*
X36171Y46947D01*
X34686Y48858D02*
X34923Y48622D01*
X35071Y46318D02*
X35308Y46082D01*
X35305D02*
X35542Y46318D01*
X34587Y46082D02*
X34824Y46318D01*
X36171Y45219D02*
X36498Y44891D01*
X36171Y44792D02*
X36498Y45119D01*
X35595Y43542D02*
X36171Y42966D01*
X35595Y41238D02*
X36171Y41814D01*
X35595Y41002D02*
X36171Y40426D01*
X36171Y41814D02*
Y42966D01*
X35595Y43778D02*
X36171Y44354D01*
X34921Y43542D02*
X35157Y43778D01*
X34737D02*
X34974Y43542D01*
X35122Y41238D02*
X35359Y41002D01*
X35254D02*
X35491Y41238D01*
X34536Y41002D02*
X34773Y41238D01*
X36171Y39471D02*
X36498Y39144D01*
X36171Y37608D02*
X36498Y37935D01*
X36171Y39763D02*
X36498Y40091D01*
X36171Y36890D02*
X36498Y37217D01*
X36171Y35160D02*
X36498Y34833D01*
X36171Y37316D02*
X36498Y36988D01*
X35910Y39013D02*
X36498Y38425D01*
X35951Y38106D02*
X36498Y38654D01*
X35588Y38462D02*
X36498Y39372D01*
X36103Y36666D02*
X36498Y36270D01*
X35758Y35758D02*
X36498Y36498D01*
X35507Y38698D02*
X36498Y37707D01*
X36171Y34442D02*
X36498Y34115D01*
X36171Y32579D02*
X36498Y32906D01*
X36171Y34734D02*
X36498Y35062D01*
X36171Y31860D02*
X36498Y32188D01*
X36128Y31611D02*
X36498Y31241D01*
X36171Y32287D02*
X36498Y31959D01*
X35537Y33382D02*
X36498Y34343D01*
X35925Y33052D02*
X36498Y33625D01*
X35936Y33959D02*
X36498Y33396D01*
X35733Y30704D02*
X36498Y31469D01*
X35769Y31252D02*
X36498Y30523D01*
X35558Y33618D02*
X36498Y32678D01*
X36171Y36734D02*
Y37886D01*
X35595Y36158D02*
X36171Y36734D01*
Y39274D02*
Y40426D01*
X35758Y35758D02*
X36498Y36498D01*
X35743Y36306D02*
X36498Y35552D01*
X35595Y35922D02*
X36171Y35346D01*
X35595Y38698D02*
X36171Y39274D01*
X34869Y38462D02*
X35106Y38698D01*
X34788D02*
X35025Y38462D01*
X35595D02*
X36171Y37886D01*
X35203Y35922D02*
X35440Y36158D01*
X35173D02*
X35410Y35922D01*
X36118Y35399D02*
X36498Y35780D01*
X35595Y33618D02*
X36171Y34194D01*
Y35346D01*
X36171Y31654D02*
Y32806D01*
X35595Y31078D02*
X36171Y31654D01*
X35595Y33382D02*
X36171Y32806D01*
X34818Y33382D02*
X35055Y33618D01*
X34839D02*
X35076Y33382D01*
X34506Y31078D02*
X34743Y30842D01*
X35224Y31078D02*
X35461Y30842D01*
X35152D02*
X35389Y31078D01*
X34444Y48858D02*
X35595D01*
X34444Y48622D02*
X35595D01*
X33868Y49434D02*
X34444Y48858D01*
X33868Y46894D02*
X34444Y46318D01*
X35595D01*
X33868Y48046D02*
X34444Y48622D01*
X32352Y46721D02*
X34490Y48858D01*
X32352Y48319D02*
X34589Y46082D01*
X33868Y45506D02*
X34443Y46082D01*
X30502Y42715D02*
X34274Y46488D01*
X29423Y46219D02*
X34640Y41002D01*
X28704Y46219D02*
X34183Y40741D01*
X34443Y43778D02*
X35595D01*
X34444Y43542D02*
X35595D01*
X34443Y46082D02*
X35595D01*
X34444Y41238D02*
X35595D01*
X34444Y41002D02*
X35595D01*
X33868Y40334D02*
X34536Y41002D01*
X33868Y44354D02*
X34443Y43778D01*
X33868Y42966D02*
X34444Y43542D01*
X32179Y45618D02*
X34350Y43448D01*
X33868Y41814D02*
X34444Y41238D01*
X33868Y40426D02*
X34444Y41002D01*
X30752Y40091D02*
X34441Y43781D01*
X33868Y46894D02*
Y48046D01*
X32352Y46888D02*
Y47072D01*
Y46888D02*
Y47072D01*
Y46002D02*
X33868Y47518D01*
X32352Y46882D02*
X33868Y45367D01*
X32352Y45618D02*
Y46888D01*
Y48876D02*
X32975Y49498D01*
X32352Y49037D02*
X33868Y47522D01*
X32352Y48342D02*
Y49428D01*
Y47439D02*
X34108Y49194D01*
X32352Y47600D02*
X34157Y45795D01*
X32352Y47072D02*
Y48158D01*
X31460Y45618D02*
X33990Y43088D01*
X33868Y44354D02*
Y45506D01*
X32352Y46164D02*
X33868Y44648D01*
X30706Y40764D02*
X34082Y44140D01*
X33868Y41814D02*
Y42966D01*
X30742Y45618D02*
X33868Y42493D01*
X30410Y43342D02*
X33915Y46847D01*
X30502Y41996D02*
X33868Y45362D01*
X30024Y45618D02*
X32352D01*
X27986Y46219D02*
X33868Y40337D01*
X30706Y41482D02*
X33868Y44644D01*
X34444Y38698D02*
X35595D01*
X34444Y38462D02*
X35595D01*
X33868Y36745D02*
X34455Y36158D01*
X34692Y35922D01*
X34485D02*
X34722Y36158D01*
X33868Y36734D02*
X34444Y36158D01*
X33868Y39274D02*
X34444Y38698D01*
X33868Y37886D02*
X34444Y38462D01*
X30502Y42267D02*
X34375Y38393D01*
X27395Y31706D02*
X34416Y38726D01*
X29933Y37806D02*
X34401Y33339D01*
X28271Y35456D02*
X34249Y41433D01*
X34444Y35922D02*
X35595D01*
X34444Y33618D02*
X35595D01*
X34444Y36158D02*
X35595D01*
X34444Y31078D02*
X35595D01*
X34444Y30842D02*
X35595D01*
X34444Y33382D02*
X35595D01*
X33868Y35305D02*
X34485Y35922D01*
X33868Y34194D02*
X34444Y33618D01*
X33868Y35346D02*
X34444Y35922D01*
X33868Y31716D02*
X34506Y31078D01*
X33868Y31654D02*
X34444Y31078D01*
X33868Y32806D02*
X34444Y33382D01*
X30706Y41344D02*
X34016Y38034D01*
X33868Y39274D02*
Y40426D01*
X30752Y39373D02*
X33868Y42489D01*
X30752Y39861D02*
X33868Y36745D01*
X30752Y39143D02*
X34208Y35686D01*
X30706Y40626D02*
X33868Y37464D01*
X30252Y38154D02*
X33890Y41792D01*
X30078Y39098D02*
X33868Y35308D01*
X30502Y42985D02*
X33868Y39619D01*
X28356Y34103D02*
X33868Y39615D01*
X26723Y31752D02*
X34057Y39086D01*
X28356Y34821D02*
X33868Y40334D01*
X30252Y38206D02*
X33868Y34590D01*
Y34194D02*
Y35346D01*
Y36734D02*
Y37886D01*
X29273Y37748D02*
X34042Y32979D01*
X33868Y31654D02*
Y32806D01*
X28554Y37748D02*
X33868Y32435D01*
X28113Y31706D02*
X33868Y37460D01*
X28356Y31229D02*
X33868Y36742D01*
X27571Y38013D02*
X33868Y31716D01*
X28456Y36410D02*
X34234Y30632D01*
X28356Y30511D02*
X34223Y36379D01*
X26580Y54810D02*
X30508Y50882D01*
X26976Y50281D02*
Y50882D01*
X26916D02*
X26976Y50821D01*
X30024Y50281D02*
Y50882D01*
X29446Y50281D02*
X30024Y50858D01*
X26976Y50821D02*
X27517Y50281D01*
X26580Y56247D02*
X31945Y50882D01*
X26580Y55528D02*
X31226Y50882D01*
X26290Y54381D02*
X30024Y50647D01*
X25931Y54022D02*
X29672Y50281D01*
X25572Y53662D02*
X28954Y50281D01*
X24875Y53640D02*
X28235Y50281D01*
X32352Y48158D02*
Y48342D01*
Y48158D02*
Y48342D01*
X28408Y45650D02*
X28977Y46219D01*
X30024Y45618D02*
Y46219D01*
X26976Y50281D02*
X30024D01*
X26930Y46219D02*
X30024D01*
X27267D02*
X27781Y45706D01*
X27745D02*
X28259Y46219D01*
X27647Y45706D02*
X28353D01*
X26930Y45838D02*
X27355Y45413D01*
X26580Y54670D02*
Y56730D01*
X25550Y53640D02*
X26580Y54670D01*
X25550Y57760D02*
X26580Y56730D01*
X24648Y49517D02*
Y49612D01*
Y48342D02*
Y48483D01*
Y49517D02*
Y49612D01*
Y50882D02*
X26976D01*
X24372Y49517D02*
X24648Y49793D01*
Y49612D02*
Y50882D01*
X24367Y48402D02*
X24502Y48267D01*
Y48162D02*
Y48402D01*
X24285Y48483D02*
X24367Y48402D01*
X24648Y48162D02*
Y48342D01*
X26930Y45664D02*
Y46219D01*
X24694Y45664D02*
X26930D01*
X24694D02*
Y45823D01*
X24502Y48209D02*
X24648Y48356D01*
X24502Y48162D02*
X24648D01*
X24502Y48267D02*
X24607Y48162D01*
X24648D02*
Y48342D01*
X24456Y45823D02*
X24694D01*
X24456Y45644D02*
Y45823D01*
X28974Y44779D02*
X30024Y45829D01*
X29333Y44420D02*
X30532Y45618D01*
X28706Y45047D02*
Y45353D01*
X29692Y44060D02*
X31250Y45618D01*
X30051Y43701D02*
X31968Y45618D01*
X28706Y45047D02*
X30251Y43502D01*
X28706Y45229D02*
X29696Y46219D01*
X27953Y44294D02*
X29498Y42749D01*
X28353Y45706D02*
X28706Y45353D01*
X25667Y45664D02*
X29476Y41856D01*
X27756Y44294D02*
X29498Y42552D01*
X24949Y45664D02*
X28712Y41902D01*
X30251Y43502D02*
X30502Y43251D01*
Y42749D02*
Y43251D01*
X30251Y43502D02*
X30502Y43251D01*
Y42749D02*
Y43251D01*
Y41856D02*
Y42749D01*
X29498Y41856D02*
Y42749D01*
X27533Y41902D02*
X28940Y43308D01*
X27752Y41902D02*
X29252D01*
X26815D02*
X28580Y43667D01*
X28252Y41902D02*
X29299Y42949D01*
X28970Y41902D02*
X29498Y42430D01*
X29252Y41201D02*
Y41902D01*
X27294Y45353D02*
X27647Y45706D01*
X27294Y44647D02*
X27647Y44294D01*
X27294Y44647D02*
Y45353D01*
X24456Y45290D02*
X24830Y45664D01*
X26386D02*
X27294Y44756D01*
X24456Y44647D02*
Y45353D01*
X24252Y45643D02*
X27993Y41902D01*
X24441Y42402D02*
X27294Y45255D01*
X24456Y44721D02*
X27275Y41902D01*
X27647Y44294D02*
X27953D01*
X26248Y41902D02*
X27748D01*
X26202Y42256D02*
X26556Y41902D01*
X27748Y41677D02*
Y41902D01*
X27752Y41677D02*
Y41902D01*
X26248Y40448D02*
Y41902D01*
X25159Y42402D02*
X27350Y44592D01*
X25878Y42402D02*
X27771Y44294D01*
X26056Y42402D02*
X26202Y42256D01*
Y42007D02*
X28221Y44026D01*
X26202Y40598D02*
Y42402D01*
X21733Y56217D02*
X32014Y66498D01*
X23490Y57760D02*
X25550D01*
X22460Y56730D02*
X23490Y57760D01*
X21177Y55183D02*
X25479Y50882D01*
X21896Y55183D02*
X26197Y50882D01*
X22460Y54670D02*
X23490Y53640D01*
X20296Y56217D02*
X30577Y66498D01*
X21014Y56217D02*
X31296Y66498D01*
X19577Y56217D02*
X29859Y66498D01*
X19740Y55183D02*
X24648Y50276D01*
X20459Y55183D02*
X24760Y50882D01*
X20856Y51029D02*
X23478Y53652D01*
X23490Y53640D02*
X25550D01*
X24157D02*
X26916Y50882D01*
X23654Y49517D02*
X24648Y50511D01*
X23567Y48483D02*
X23648Y48402D01*
X23975D02*
X24057Y48483D01*
X23257Y48402D02*
X23338Y48483D01*
X20062Y49517D02*
X24185Y53640D01*
X20856Y53350D02*
X24648Y49557D01*
X20588Y52180D02*
X23252Y49517D01*
X20780D02*
X24904Y53640D01*
X22998Y48402D02*
X24502D01*
X20856Y52631D02*
X23970Y49517D01*
X22460Y54670D02*
Y55183D01*
X20856Y53185D02*
X22460Y54789D01*
Y56217D02*
Y56730D01*
X20856Y52466D02*
X22760Y54371D01*
X20758Y51650D02*
X23119Y54011D01*
X20856Y52447D02*
Y53553D01*
X19621Y54106D02*
X20699Y55183D01*
X19197Y54106D02*
X20303D01*
X19022Y55183D02*
X20100Y54106D01*
X20321Y54087D02*
X21417Y55183D01*
X20681Y53728D02*
X22136Y55183D01*
X20303Y54106D02*
X20856Y53553D01*
Y50447D02*
Y51553D01*
X20511Y50102D02*
X21096Y49517D01*
X20408Y52000D02*
X20856Y51553D01*
Y51194D02*
X22533Y49517D01*
X22848Y48483D02*
X22998Y48333D01*
X20856Y50476D02*
X21815Y49517D01*
X20408Y52000D02*
X20856Y52447D01*
X20303Y49894D02*
X20856Y50447D01*
X19197Y49894D02*
X20303D01*
X19343Y49517D02*
X19721Y49894D01*
X20000D02*
X20378Y49517D01*
X19282Y49894D02*
X19659Y49517D01*
X24252Y45644D02*
X24456D01*
X24252Y45557D02*
X24456Y45353D01*
X24252Y45557D02*
Y45644D01*
X24103Y44294D02*
X24456Y44647D01*
X23044Y45353D02*
X23248Y45557D01*
X23502Y42181D02*
X27540Y46219D01*
X23502Y42899D02*
X26267Y45664D01*
X23502Y43617D02*
X25549Y45664D01*
X23621Y44119D02*
X25338Y42402D01*
X23798D02*
X26202D01*
X23797Y44294D02*
X24103D01*
X24133Y44325D02*
X26056Y42402D01*
X23798Y40598D02*
Y42402D01*
X23706Y40552D02*
Y41856D01*
X23502Y43519D02*
X24619Y42402D01*
X23502Y42801D02*
X23901Y42402D01*
X23502Y43999D02*
X23797Y44294D01*
X23502Y42083D02*
X23798Y41786D01*
X23502Y41856D02*
X23706D01*
X23502D02*
Y43999D01*
X23044Y45644D02*
Y46948D01*
Y45644D02*
X23248D01*
X22998Y46948D02*
Y48402D01*
X23248Y45557D02*
Y45644D01*
X22749Y44752D02*
X23044Y45047D01*
Y45353D01*
X21411Y48483D02*
X23044Y46850D01*
X20693Y48483D02*
X23044Y46132D01*
X22130Y48483D02*
X22998Y47615D01*
X19256Y48483D02*
X22869Y44871D01*
X19975Y48483D02*
X23075Y45383D01*
X22498Y44501D02*
X22749Y44752D01*
X22498Y44501D02*
X22749Y44752D01*
X22498Y43999D02*
Y44501D01*
Y43999D02*
Y44501D01*
Y41856D02*
Y43999D01*
X22294Y41856D02*
X22498D01*
X22294Y41692D02*
X22458Y41856D01*
X21021D02*
X22498Y43333D01*
X21740Y41856D02*
X22498Y42614D01*
X20794Y41856D02*
X22206D01*
Y41677D02*
Y41856D01*
X20794Y40552D02*
Y41856D01*
X30502D02*
X30706D01*
X29294D02*
X29498D01*
X30706Y40552D02*
Y41856D01*
X30752Y39098D02*
Y40552D01*
X29294Y41158D02*
Y41856D01*
X27752Y40552D02*
Y40673D01*
X27748Y40552D02*
Y40673D01*
Y40448D02*
Y40552D01*
X27752Y40448D02*
Y40552D01*
X27748Y40448D02*
Y40552D01*
X27748Y39126D02*
Y39349D01*
X30029Y39098D02*
X30752D01*
X27748Y39349D02*
Y39851D01*
X30252Y38873D02*
X30477Y39098D01*
X30252Y38124D02*
Y38876D01*
X30029Y39098D02*
X30252Y38876D01*
X27748Y39349D02*
Y39851D01*
X27650Y39144D02*
X27706Y39200D01*
X27502Y39144D02*
X27706D01*
X27748Y39126D02*
Y40448D01*
X27590Y38968D02*
X27748Y39126D01*
X27706Y39144D02*
Y40448D01*
X26294Y39144D02*
Y40448D01*
Y39290D02*
X26440Y39144D01*
X26498Y39057D02*
Y39144D01*
X26202Y39133D02*
X26294Y39226D01*
X26033Y40402D02*
X26248Y40617D01*
X26202Y40101D02*
X26294Y40008D01*
X25704Y40598D02*
X25901Y40402D01*
X26202Y39852D02*
X26294Y39944D01*
X26202Y39383D02*
X26294Y39290D01*
X26202Y38598D02*
Y40402D01*
X27532Y39027D02*
X27650Y39144D01*
X27502Y39057D02*
X27590Y38968D01*
X27502Y39057D02*
Y39144D01*
X26440D02*
X26498Y39086D01*
X26294Y38853D02*
X26498Y39057D01*
X26294Y39144D02*
X26498D01*
X26294Y38147D02*
Y38853D01*
X26202Y38664D02*
X26294Y38571D01*
X28875Y37998D02*
X29124Y37748D01*
X29876D01*
X28626D02*
X28875Y37998D01*
X29846Y37748D02*
X30252Y38154D01*
X29876Y37748D02*
X30252Y38124D01*
X28456Y36397D02*
Y37103D01*
X27874Y37748D02*
X28626D01*
X28103Y37456D02*
X28456Y37103D01*
X28109Y37449D02*
X28409Y37748D01*
X28456Y37077D02*
X29127Y37748D01*
X28252Y36154D02*
X29846Y37748D01*
X28252Y36193D02*
X28456Y36397D01*
X28252Y35456D02*
X28356D01*
X28252D02*
Y36193D01*
X28356Y34044D02*
Y35456D01*
X28297Y34044D02*
X28356Y34103D01*
X27052Y34044D02*
X28356D01*
X26004Y31752D02*
X28297Y34044D01*
X27052Y31706D02*
X28356D01*
X25838Y33998D02*
X28131Y31706D01*
X27590Y38032D02*
X27874Y37748D01*
X27397Y37456D02*
X28103D01*
X27353Y37794D02*
X27590Y38032D01*
X27398Y37456D02*
X27782Y37840D01*
X26647Y37794D02*
X27353D01*
X27071D02*
X27410Y37456D01*
X26294Y38147D02*
X26647Y37794D01*
X27044Y37103D02*
X27397Y37456D01*
X27044Y37102D02*
X27398Y37456D01*
X27044Y36397D02*
Y37103D01*
X26881Y35502D02*
X27248Y35869D01*
X27052Y35456D02*
X27248D01*
X27044Y36397D02*
X27248Y36193D01*
Y35456D02*
Y36193D01*
X26162Y35502D02*
X27051Y36391D01*
X25598Y31752D02*
X26076D01*
X25598D02*
X26076D01*
X27052D01*
X25598D02*
X26076D01*
X24267Y40598D02*
X24464Y40402D01*
X24596D02*
X24793Y40598D01*
X23878Y40402D02*
X24075Y40598D01*
X24986D02*
X25183Y40402D01*
X25315D02*
X25512Y40598D01*
X23798Y39602D02*
Y40402D01*
X23706Y41666D02*
X23798Y41759D01*
X23706Y41160D02*
X23798Y41067D01*
X23706Y40948D02*
X23798Y41041D01*
Y40598D02*
X26202D01*
X23752Y39602D02*
Y40552D01*
X24101Y38598D02*
X24349D01*
X24851D01*
X24101D02*
X24349D01*
X24851D01*
X26202D01*
X24349D02*
X24851D01*
X23798Y40402D02*
X26202D01*
X24002Y38499D02*
X24101Y38598D01*
X23798Y40322D02*
X23878Y40402D01*
X24002Y38370D02*
X24230Y38598D01*
X23626Y37748D02*
X24002Y38124D01*
Y38499D01*
X22294Y41677D02*
Y41856D01*
X22206Y41677D02*
X22294D01*
X20748Y39252D02*
Y40552D01*
X20624Y39252D02*
X20748D01*
X19354Y38752D02*
X20748Y40146D01*
X19849Y38528D02*
X20748Y39427D01*
X20248Y38876D02*
X20624Y39252D01*
X20248Y38124D02*
Y38876D01*
X20002Y37624D02*
Y38376D01*
X19626Y38752D02*
X20002Y38376D01*
X21500Y37873D02*
X21624Y37748D01*
X22376D01*
X21376D02*
X21500Y37873D01*
X22625Y37998D02*
X22874Y37748D01*
X23626D01*
X22376D02*
X22625Y37998D01*
X20248Y38152D02*
X20652Y37748D01*
X20248Y38124D02*
X20624Y37748D01*
X20002Y37962D02*
X20248Y38209D01*
X20624Y37748D02*
X21376D01*
X19626Y37248D02*
X20002Y37624D01*
X25549Y38598D02*
X27044Y37103D01*
X24830Y38598D02*
X27248Y36180D01*
X24624Y35502D02*
X25376D01*
X24112Y38598D02*
X27248Y35462D01*
X25410Y35468D02*
X27044Y37102D01*
X24725Y35502D02*
X27018Y37794D01*
X23935Y38057D02*
X26490Y35502D01*
X20002Y37680D02*
X25930Y31752D01*
X23525Y37748D02*
X25772Y35502D01*
X19206Y30700D02*
X26473Y37968D01*
X20652Y37748D02*
X26648Y31752D01*
X19173Y31386D02*
X26294Y38508D01*
X25598Y35279D02*
Y35502D01*
X27052D01*
X25376D02*
X25598Y35279D01*
Y33998D02*
Y34221D01*
Y33998D02*
X27052D01*
X25376D02*
X25598Y34221D01*
X23131Y31752D02*
X25598Y34219D01*
X23849Y31752D02*
X26096Y33998D01*
X22626Y31752D02*
X25574D01*
X25286D02*
X27579Y34044D01*
X25120Y33998D02*
X27413Y31706D01*
X24567Y31752D02*
X26814Y33998D01*
X22591Y37964D02*
X25054Y35502D01*
X24248Y35126D02*
X24624Y35502D01*
X24248Y34374D02*
Y35126D01*
X22519Y31858D02*
X24659Y33998D01*
X24624D02*
X25376D01*
X24248Y34374D02*
X24624Y33998D01*
X22088Y37748D02*
X24480Y35357D01*
X21944Y32002D02*
X24282Y34340D01*
X21370Y37748D02*
X24248Y34870D01*
X19670Y37293D02*
X25211Y31752D01*
X19725Y30502D02*
X24248Y35025D01*
X21248Y31626D02*
X21624Y32002D01*
X22376D01*
X22626Y31752D01*
X21248Y30874D02*
Y31626D01*
Y30874D02*
X21373Y30750D01*
X21248Y30626D02*
X21373Y30750D01*
X19249Y30502D02*
X19751D01*
X19060D02*
X19206Y30647D01*
X19060Y30502D02*
X19249D01*
X19206Y30647D02*
Y31353D01*
X19249Y30502D02*
X19751D01*
X19169Y30610D02*
X19277Y30502D01*
X36171Y29413D02*
X36498Y29086D01*
X36171Y27550D02*
X36498Y27877D01*
X36171Y29705D02*
X36498Y30033D01*
X36171Y26832D02*
X36498Y27159D01*
X36154Y26557D02*
X36498Y26212D01*
X36171Y27257D02*
X36498Y26930D01*
X35486Y28302D02*
X36498Y29314D01*
X35961Y28904D02*
X36498Y28367D01*
X36092Y30345D02*
X36498Y30751D01*
X35602Y28545D02*
X36498Y27649D01*
X35708Y25650D02*
X36498Y26441D01*
X35900Y27997D02*
X36498Y28596D01*
X36171Y24677D02*
X36498Y25004D01*
X36171Y24384D02*
X36498Y24057D01*
X36171Y25102D02*
X36498Y24775D01*
X36171Y22229D02*
X36498Y21902D01*
X36171Y21803D02*
X36498Y22130D01*
X36171Y22521D02*
X36498Y22848D01*
X36067Y25290D02*
X36498Y25722D01*
X35987Y23850D02*
X36498Y23338D01*
X35795Y26197D02*
X36498Y25494D01*
X35874Y22943D02*
X36498Y23567D01*
X35628Y23491D02*
X36498Y22620D01*
X35435Y23222D02*
X36498Y24285D01*
X36171Y30131D02*
X36498Y29804D01*
X35595Y28538D02*
X36171Y29114D01*
Y30266D01*
X36171Y26574D02*
Y27726D01*
X35596Y25998D02*
X36171Y26574D01*
X35596Y28302D02*
X36171Y27726D01*
X35595Y30842D02*
X36171Y30266D01*
X34444Y28302D02*
X35596D01*
X34767D02*
X35004Y28538D01*
X34890D02*
X35127Y28302D01*
X35101Y25762D02*
X35338Y25998D01*
X34557D02*
X34794Y25762D01*
X35596D02*
X36171Y25186D01*
X35512Y25762D02*
X36171Y25102D01*
X35275Y25998D02*
X35512Y25762D01*
X35596Y23458D02*
X36171Y24034D01*
X35596Y23222D02*
X36171Y22646D01*
Y24034D02*
Y25186D01*
X34444Y25762D02*
X35596D01*
X34444Y23458D02*
X35596D01*
X34444Y25998D02*
X35596D01*
X34942Y23458D02*
X35178Y23222D01*
X34444D02*
X35596D01*
X34716D02*
X34953Y23458D01*
X36041Y20236D02*
X36498Y20693D01*
X36171Y20073D02*
X36498Y19746D01*
X36171Y21510D02*
X36498Y21183D01*
Y502D02*
Y66498D01*
X36171Y19355D02*
X36498Y19028D01*
X36171Y19647D02*
X36498Y19975D01*
X35820Y21143D02*
X36498Y20465D01*
X36012Y18795D02*
X36498Y18309D01*
X35682Y20595D02*
X36498Y21412D01*
X35849Y17888D02*
X36498Y18538D01*
X35653Y18436D02*
X36498Y17591D01*
X35384Y18142D02*
X36498Y19256D01*
X36171Y16774D02*
X36498Y17101D01*
X36171Y16481D02*
X36498Y16154D01*
X36171Y17200D02*
X36498Y16873D01*
X36172Y14326D02*
X36498Y13999D01*
X36172Y13901D02*
X36498Y14227D01*
X36172Y14619D02*
X36498Y14946D01*
X35657Y15541D02*
X36498Y16383D01*
X35846Y16088D02*
X36498Y15436D01*
X36171Y17492D02*
X36498Y17819D01*
X35377Y15838D02*
X36498Y14717D01*
X36016Y15182D02*
X36498Y15664D01*
X35596Y13298D02*
X36172Y13874D01*
X36171Y21494D02*
Y22646D01*
X35596Y20918D02*
X36171Y21494D01*
X35595Y20682D02*
X36171Y20106D01*
Y18954D02*
Y20106D01*
X35595Y18378D02*
X36171Y18954D01*
X35563Y20682D02*
X36171Y20073D01*
X35050Y20682D02*
X35287Y20918D01*
X34444D02*
X35596D01*
X34608D02*
X34845Y20682D01*
X35326Y20918D02*
X35563Y20682D01*
X34993Y18378D02*
X35229Y18142D01*
X34665D02*
X34902Y18378D01*
X36171Y16414D02*
Y17566D01*
X35596Y15838D02*
X36171Y16414D01*
X35596Y18142D02*
X36171Y17566D01*
X36172Y13874D02*
Y15026D01*
X35570Y13298D02*
X36172Y13901D01*
X35596Y15602D02*
X36172Y15026D01*
X34444Y15838D02*
X35596D01*
X34444Y15602D02*
X35596D01*
X34444Y18142D02*
X35596D01*
X34999Y15602D02*
X35236Y15838D01*
X34659D02*
X34896Y15602D01*
X33868Y30266D02*
X34444Y30842D01*
X33868Y29114D02*
X34444Y28538D01*
X28356Y34355D02*
X34426Y28284D01*
X28356Y27637D02*
X34390Y33672D01*
X28356Y29326D02*
X34460Y23222D01*
X28356Y31481D02*
X34260Y25577D01*
X27948Y34044D02*
X34067Y27925D01*
X28177Y28177D02*
X34031Y34031D01*
X28177Y28177D02*
X34031Y34031D01*
X24516Y21642D02*
X34198Y31324D01*
X24875Y21283D02*
X34670Y31078D01*
X25593Y20564D02*
X34006Y28977D01*
X34444Y28538D02*
X35595D01*
X33868Y24034D02*
X34444Y23458D01*
X33868Y25186D02*
X34444Y25762D01*
X33868Y21494D02*
X34444Y20918D01*
X34444Y20682D02*
X35595D01*
X33868Y22646D02*
X34444Y23222D01*
X33868Y27726D02*
X34444Y28302D01*
X33868Y26574D02*
X34444Y25998D01*
X28177Y28787D02*
X34093Y22870D01*
X25952Y20205D02*
X34365Y28617D01*
X33868Y20106D02*
X34444Y20682D01*
X28456Y26352D02*
X34285Y20523D01*
X28356Y29074D02*
X33868Y34586D01*
Y29114D02*
Y30266D01*
X28356Y26919D02*
X33868Y32431D01*
X28356Y30763D02*
X33900Y25218D01*
X28356Y30044D02*
X33868Y24532D01*
X28456Y26300D02*
X33868Y31713D01*
X28252Y35896D02*
X33875Y30273D01*
X28356Y29792D02*
X33868Y35305D01*
X28194Y30206D02*
X28356Y30044D01*
X27229Y34044D02*
X33868Y27405D01*
X26557Y33998D02*
X33868Y26687D01*
X28356Y35073D02*
X33868Y29561D01*
X33868Y26574D02*
Y27726D01*
Y24034D02*
Y25186D01*
X28456Y25647D02*
Y26353D01*
X28449Y25640D02*
X33926Y20164D01*
X33868Y21494D02*
Y22646D01*
X28356Y27171D02*
X33868Y21658D01*
X28263Y26544D02*
X28456Y26352D01*
X28103Y25294D02*
X28456Y25647D01*
X28264Y26544D02*
X28456Y26353D01*
X28356Y27889D02*
X33868Y22376D01*
X26312Y19846D02*
X33868Y27402D01*
X25234Y20923D02*
X33868Y29557D01*
X27030Y19127D02*
X34173Y26270D01*
X27389Y18768D02*
X34619Y25998D01*
X28108Y18050D02*
X33980Y23922D01*
X28467Y17691D02*
X34339Y23563D01*
X29904Y16254D02*
X34568Y20918D01*
X29545Y16613D02*
X34147Y21215D01*
X27002Y25651D02*
X34511Y18142D01*
X24280Y25498D02*
X34311Y15468D01*
X26656Y25278D02*
X34118Y17816D01*
X21407Y25498D02*
X34144Y12761D01*
X22125Y25498D02*
X34562Y13062D01*
X23562Y25498D02*
X33951Y15109D01*
X34444Y18378D02*
X35595D01*
X33868Y17566D02*
X34444Y18142D01*
X33868Y18954D02*
X34444Y18378D01*
X33868Y15026D02*
X34444Y15602D01*
X33868Y13874D02*
X34444Y13298D01*
X33868Y16414D02*
X34444Y15838D01*
X30981Y15176D02*
X34314Y18508D01*
X32059Y14098D02*
X34121Y16161D01*
X30622Y15535D02*
X33955Y18868D01*
X32418Y13739D02*
X34517Y15838D01*
X32934Y12818D02*
X33929Y13813D01*
X32642Y13244D02*
X33868Y14471D01*
X27748Y18409D02*
X33868Y24529D01*
X33868Y18954D02*
Y20106D01*
X28077Y25294D02*
X33868Y19503D01*
X28826Y17331D02*
X33868Y22373D01*
X29185Y16972D02*
X33868Y21655D01*
X30263Y15895D02*
X33868Y19500D01*
X25967Y25248D02*
X33868Y17348D01*
X25249Y25248D02*
X33868Y16629D01*
X26671Y19487D02*
X33868Y26684D01*
X20688Y25498D02*
X33775Y12412D01*
X22844Y25498D02*
X33868Y14474D01*
X20659Y25498D02*
X32391Y13767D01*
X31341Y14817D02*
X33868Y17345D01*
X31700Y14458D02*
X33868Y16626D01*
Y16414D02*
Y17566D01*
X33868Y13874D02*
Y15026D01*
X27252Y13906D02*
X30678Y10479D01*
X27252Y12165D02*
X29191Y14104D01*
X27252Y16043D02*
X30678Y12617D01*
X27252Y12883D02*
X28832Y14463D01*
X27252Y13602D02*
X28473Y14823D01*
X27252Y14625D02*
X30678Y11198D01*
X27252Y15343D02*
X30678Y11916D01*
X36172Y12464D02*
X36498Y12790D01*
X36172Y12170D02*
X36498Y11844D01*
X36038Y13741D02*
X36498Y13280D01*
X36172Y11745D02*
X36498Y12072D01*
X36172Y11452D02*
X36498Y11125D01*
X36172Y11334D02*
Y12486D01*
X35823Y12834D02*
X36498Y13509D01*
X35679Y13382D02*
X36498Y12562D01*
X35596Y10758D02*
X36172Y11334D01*
X35871Y11034D02*
X36498Y10407D01*
X35428Y10758D02*
X36498Y9688D01*
X35631Y10486D02*
X36498Y11354D01*
X36172Y9297D02*
X36498Y8970D01*
X36172Y8872D02*
X36498Y9198D01*
X36172Y9590D02*
X36498Y9917D01*
X36171Y7142D02*
X36498Y6815D01*
X36171Y6716D02*
X36498Y7043D01*
X36157Y7420D02*
X36498Y7762D01*
X35990Y10127D02*
X36498Y10635D01*
X36064Y8686D02*
X36498Y8252D01*
X35518Y8218D02*
X36172Y8872D01*
X35798Y7779D02*
X36498Y8480D01*
X35704Y8327D02*
X36498Y7533D01*
X35596Y8218D02*
X36172Y8794D01*
X35044Y13298D02*
X35280Y13062D01*
X35333D02*
X35570Y13298D01*
X34614Y13062D02*
X34851Y13298D01*
X35596Y13062D02*
X36172Y12486D01*
X34948Y10522D02*
X35185Y10758D01*
X34710D02*
X34947Y10522D01*
X34444Y13298D02*
X35596D01*
X34444Y13062D02*
X35596D01*
X33868Y12486D02*
X34444Y13062D01*
X33955Y10247D02*
X34466Y10758D01*
X34444D02*
X35596D01*
X33868Y11334D02*
X34444Y10758D01*
X35596Y10522D02*
X36172Y9946D01*
Y8794D02*
Y9946D01*
X34621Y7982D02*
X35596D01*
X35282D02*
X35518Y8218D01*
X35596Y7982D02*
X36171Y7406D01*
X35095Y8218D02*
X35331Y7982D01*
X34062Y10140D02*
X34444Y10522D01*
X35596D01*
X33868Y8794D02*
Y8958D01*
X34592Y8010D02*
X34800Y8218D01*
X34444D02*
X35596D01*
X33868Y8794D02*
X34444Y8218D01*
X36171Y6423D02*
X36498Y6096D01*
X36171Y4561D02*
X36498Y4888D01*
X36171Y6254D02*
Y7406D01*
Y4268D02*
X36498Y3941D01*
X36171Y3842D02*
X36498Y4169D01*
X36171Y3714D02*
Y4866D01*
X35605Y5432D02*
X36498Y6325D01*
X35897Y5980D02*
X36498Y5378D01*
X35596Y5678D02*
X36171Y6254D01*
X35479Y5678D02*
X36498Y4659D01*
X35965Y5073D02*
X36498Y5606D01*
X35596Y5442D02*
X36171Y4866D01*
X36097Y2331D02*
X36498Y2733D01*
X36125Y2159D02*
X36498Y1786D01*
X36089Y3632D02*
X36498Y3223D01*
X36125Y1441D02*
X36498Y1067D01*
X36423Y502D02*
X36498Y577D01*
X36125Y1641D02*
X36498Y2014D01*
X35738Y2690D02*
X36498Y3451D01*
X35730Y3273D02*
X36498Y2504D01*
X35596Y3138D02*
X36171Y3714D01*
X35704Y502D02*
X36498Y1296D01*
X35888Y960D02*
X36346Y502D01*
X35572Y644D02*
X36125Y1197D01*
X34897Y5442D02*
X35134Y5678D01*
X34621Y5442D02*
X35596D01*
X34761Y5678D02*
X34998Y5442D01*
X35185Y2856D02*
X35467Y3138D01*
X35572Y2856D02*
X36125Y2303D01*
X35146Y3138D02*
X35429Y2856D01*
X34444Y5678D02*
X35596D01*
X34444Y3138D02*
X35596D01*
X33868Y3714D02*
Y4689D01*
X34467Y2856D02*
X35572D01*
X33914Y2303D02*
X34467Y2856D01*
X36125Y1197D02*
Y2303D01*
X34986Y502D02*
X35129Y644D01*
X35485D02*
X35627Y502D01*
X34766Y644D02*
X34909Y502D01*
X33914Y1197D02*
X34467Y644D01*
X33914Y1197D02*
Y2303D01*
X34467Y644D02*
X35572D01*
X34267Y502D02*
X34438Y673D01*
X33293Y12459D02*
X34288Y13454D01*
X33341Y11408D02*
X33868D01*
X33341Y12412D02*
X33868D01*
X33237Y10966D02*
X33680Y11408D01*
X33341D02*
X34336Y10414D01*
X32878Y11325D02*
X32961Y11408D01*
X32642Y13111D02*
X33341Y12412D01*
X32588Y11659D02*
X32839Y11408D01*
X32588Y11659D02*
X32839Y11408D01*
X32352Y11851D02*
X34062Y10140D01*
X32839Y11408D02*
X33341D01*
X32839D02*
X33341D01*
X33596Y10606D02*
X34096Y11107D01*
X33488Y9209D02*
X33739Y8958D01*
X33488Y9209D02*
X33739Y8958D01*
X33868D01*
X33739D02*
X33868D01*
X33322Y6740D02*
X33840Y7258D01*
X32002Y10696D02*
X33488Y9209D01*
X32002Y10601D02*
X34621Y7982D01*
X32244Y7818D02*
X32762Y8336D01*
X31682Y9416D02*
X33868Y7229D01*
X32963Y7100D02*
X33480Y7617D01*
X32603Y7459D02*
X33121Y7976D01*
X32391Y13767D02*
X32642Y13516D01*
Y13111D02*
Y13516D01*
X32391Y13767D02*
X32642Y13516D01*
Y13111D02*
Y13516D01*
X30678Y8381D02*
Y12617D01*
X27252Y8573D02*
X30678Y11999D01*
X27252Y10728D02*
X29909Y13386D01*
X27252Y10009D02*
X30269Y13026D01*
X27252Y11446D02*
X29550Y13745D01*
X27252Y13188D02*
X30678Y9761D01*
X27252Y12469D02*
X30678Y9043D01*
X27252Y9291D02*
X30628Y12667D01*
X32352Y11896D02*
X32588Y11659D01*
X31682Y8692D02*
X32043Y9054D01*
X32002Y10601D02*
Y10696D01*
X31682Y8381D02*
Y9416D01*
X31885Y8177D02*
X32403Y8695D01*
X30678Y7879D02*
X30929Y7628D01*
X30678Y7879D02*
Y8381D01*
Y7879D02*
Y8381D01*
X27252Y11751D02*
X30678Y8324D01*
Y7879D02*
X30929Y7628D01*
X27252Y7854D02*
X30678Y11281D01*
X33868Y6254D02*
Y7229D01*
X33681Y6381D02*
X33868Y6568D01*
X31682Y8758D02*
X33868Y6571D01*
X31682Y8381D02*
X34621Y5442D01*
X27252Y7440D02*
X34190Y502D01*
X30929Y7628D02*
X33868Y4689D01*
X27252Y10314D02*
X34710Y2856D01*
X27252Y9596D02*
X34229Y2618D01*
X27252Y11033D02*
X33868Y4416D01*
X27252Y8877D02*
X33914Y2215D01*
X27252Y8159D02*
X33914Y1497D01*
X26932Y7041D02*
X33472Y502D01*
X33868Y6254D02*
X34444Y5678D01*
X33868Y3714D02*
X34444Y3138D01*
X31394Y502D02*
X34237Y3345D01*
X32112Y502D02*
X34749Y3138D01*
X33549Y502D02*
X34079Y1032D01*
X32831Y502D02*
X33914Y1585D01*
X27802Y502D02*
X32929Y5629D01*
X28520Y502D02*
X33288Y5269D01*
X28651Y4604D02*
X32754Y502D01*
X29957D02*
X33868Y4413D01*
X30675Y502D02*
X33878Y3704D01*
X29238Y502D02*
X33647Y4910D01*
X28651Y4944D02*
X31133Y7425D01*
X28651Y4225D02*
X31492Y7066D01*
X28368Y5379D02*
X30773Y7784D01*
X28501Y2638D02*
X32210Y6347D01*
X28605Y2024D02*
X32570Y5988D01*
X28651Y3944D02*
Y5096D01*
X27224Y5672D02*
X30678Y9126D01*
X27943Y5672D02*
X30678Y8407D01*
X28076Y5672D02*
X28651Y5096D01*
X21336Y502D02*
X30678Y9844D01*
X28141Y2997D02*
X31851Y6706D01*
X22192Y2076D02*
X30678Y10563D01*
X28263Y3556D02*
X31317Y502D01*
X28421Y1242D02*
X29162Y502D01*
X28605Y1427D02*
Y2533D01*
X28622Y3915D02*
X32035Y502D01*
X28605Y2495D02*
X30598Y502D01*
X28605Y1776D02*
X29880Y502D01*
X28076Y3368D02*
X28651Y3944D01*
X28014Y3086D02*
X28605Y2495D01*
X28053Y3086D02*
X28605Y2533D01*
X28053Y874D02*
X28605Y1427D01*
X28061Y883D02*
X28443Y502D01*
X28356Y30294D02*
Y31706D01*
X28177Y30206D02*
X28356D01*
X28177Y30294D02*
X28356D01*
Y28794D02*
Y30206D01*
X28177Y28794D02*
X28356D01*
X28177Y27956D02*
Y28794D01*
Y30206D02*
Y30294D01*
X27052Y28794D02*
X27173D01*
Y27956D02*
Y28794D01*
X26778Y28748D02*
X27173Y28353D01*
X25598Y28748D02*
X27052D01*
X28177Y27956D02*
X28356D01*
X28289D02*
X28356Y27889D01*
X28177Y28068D02*
X28289Y27956D01*
X28356Y26544D02*
Y27956D01*
X28264Y26544D02*
X28356D01*
X26565Y28002D02*
X27173Y28610D01*
X27052Y27956D02*
X27173D01*
X25598Y28002D02*
X27052D01*
Y26544D02*
X27236D01*
X27044Y26353D02*
X27236Y26544D01*
X26879Y26498D02*
X27052D01*
X25059Y29748D02*
X25598Y29209D01*
Y28748D02*
Y29474D01*
X25324Y29748D02*
X25573Y29499D01*
X24341Y29748D02*
X26088Y28002D01*
X22909Y26502D02*
X25598Y29191D01*
X23623Y29748D02*
X25598Y27773D01*
X22002Y28467D02*
X23283Y29748D01*
X22626D02*
X25324D01*
X22376Y29498D02*
X22626Y29748D01*
X22904D02*
X25598Y27054D01*
X22191Y26502D02*
X25381Y29692D01*
X22406Y29528D02*
X25183Y26752D01*
X25846Y28002D02*
X26593Y28748D01*
X26059D02*
X26806Y28002D01*
X25315Y26752D02*
X25598Y27035D01*
Y26529D02*
Y28002D01*
X26879Y26498D02*
X27002Y26376D01*
X25376Y26752D02*
X25598Y26529D01*
X22002Y28496D02*
X23996Y26502D01*
X24624Y26752D02*
X25376D01*
X22002Y27874D02*
Y28626D01*
X23628Y26502D02*
X25875Y28748D01*
X24346Y26502D02*
X25598Y27754D01*
X24374Y26502D02*
X24624Y26752D01*
X27044Y25647D02*
Y26353D01*
Y25647D02*
X27397Y25294D01*
X27002Y25624D02*
Y26376D01*
X25625Y25498D02*
X25874Y25248D01*
X25376D02*
X25625Y25498D01*
X23797Y22360D02*
X27064Y25627D01*
X24156Y22001D02*
X27450Y25294D01*
X26626Y25248D02*
X27002Y25624D01*
X27397Y25294D02*
X28103D01*
X25874Y25248D02*
X26626D01*
X25096Y16652D02*
X25648Y16100D01*
X27252Y15757D02*
X27395Y15900D01*
X27252Y15038D02*
X27754Y15541D01*
X27252Y7862D02*
Y16043D01*
X23079Y23079D02*
X25248Y25248D01*
X24624D02*
X25376D01*
X23079Y23079D02*
X25248Y25248D01*
X23438Y22720D02*
X25967Y25248D01*
X23799Y16652D02*
X25096D01*
X23069Y18678D02*
X25096Y16652D01*
X24374Y25498D02*
X24624Y25248D01*
X22720Y23438D02*
X24577Y25296D01*
X22778Y17031D02*
X23747Y18000D01*
X22956Y16490D02*
X24107Y17641D01*
X23836Y16652D02*
X24466Y17282D01*
X22603Y17206D02*
X22956Y16853D01*
X22001Y24156D02*
X23343Y25498D01*
X22360Y23797D02*
X24062Y25498D01*
X22407Y20252D02*
X22725Y20570D01*
X22479Y18678D02*
X24506Y16652D01*
X22235Y17206D02*
X23388Y18359D01*
X24554Y16652D02*
X24825Y16922D01*
X22956Y16765D02*
X23434Y16287D01*
X22956Y16147D02*
Y16853D01*
X23098Y15951D02*
X23799Y16652D01*
X23098Y15914D02*
X23836Y16652D01*
X23098Y14549D02*
Y15951D01*
X22603Y15794D02*
X22956Y16147D01*
X22905Y16097D02*
X23098Y15904D01*
X22358Y14456D02*
X23098Y15196D01*
X22490Y15794D02*
X23098Y15186D01*
X21248Y29874D02*
X21624Y29498D01*
X22376D01*
X21248Y29874D02*
Y30626D01*
X21473Y26502D02*
X24719Y29748D01*
X21722Y28906D02*
X22314Y29498D01*
X21175Y29078D02*
X21610Y29513D01*
X20456Y29796D02*
X21248Y30588D01*
X20816Y29437D02*
X21251Y29872D01*
X20097Y30155D02*
X21248Y31306D01*
X19206Y31292D02*
X21496Y29002D01*
X20754Y26502D02*
X24001Y29748D01*
X20002Y30251D02*
X21251Y29002D01*
X21717Y29498D02*
X24544Y26672D01*
X21626Y27498D02*
X22002Y27874D01*
X21626Y29002D02*
X22002Y28626D01*
X21953Y27826D02*
X23277Y26502D01*
X21642Y24516D02*
X22625Y25498D01*
X21562Y27498D02*
X22559Y26502D01*
X20735Y27607D02*
X21840Y26502D01*
X20874Y27498D02*
X21626D01*
X21251Y29002D02*
X21626D01*
X20751Y26502D02*
X24374D01*
X20751Y25498D02*
X24374D01*
X21283Y24875D02*
X21906Y25498D01*
X20750Y27623D02*
X20874Y27498D01*
X20626D02*
X20750Y27623D01*
X20034Y27218D02*
X20314Y27498D01*
X20393Y26859D02*
X21033Y27498D01*
X20125D02*
X21122Y26502D01*
X20659Y25498D02*
X20751D01*
X19751Y30502D02*
X20002Y30251D01*
X19751Y30502D02*
X20002Y30251D01*
X19752Y27501D02*
Y27621D01*
Y27501D02*
X20751Y26502D01*
X19874Y27498D02*
X20626D01*
X19752Y27621D02*
X19874Y27498D01*
X20659Y25498D02*
X20751D01*
X20923Y25234D02*
X21188Y25498D01*
X20023Y22856D02*
X20439D01*
X19670Y22503D02*
X20023Y22856D01*
X19252Y22625D02*
X19670Y22206D01*
X19002Y23312D02*
X19492Y23803D01*
X19002Y22902D02*
X19252D01*
X19002D02*
Y24293D01*
X20439Y22856D01*
X19252Y22125D02*
X20211Y23084D01*
X19252Y22844D02*
X19851Y23444D01*
X20939Y21656D02*
X22343Y20252D01*
X20970D02*
X22007Y21288D01*
X20431Y21445D02*
X21625Y20252D01*
X21081Y22214D02*
X23043Y20252D01*
X21043Y18678D02*
X22515Y17206D01*
X21688Y20252D02*
X22366Y20929D01*
X20252Y20252D02*
X21648Y21648D01*
X19206Y20252D02*
X23043D01*
X20252D02*
X21648Y21648D01*
X20324Y18678D02*
X21847Y17155D01*
X20244Y16652D02*
X22271Y18678D01*
X19525Y16652D02*
X21552Y18678D01*
X21761D02*
X23794Y16646D01*
X21897Y17206D02*
X22603D01*
X21897Y15794D02*
X22603D01*
X21544Y16147D02*
X21897Y15794D01*
X20831Y16521D02*
X22989Y18678D01*
X21544Y16853D02*
X21897Y17206D01*
X21402Y15654D02*
X21719Y15972D01*
X20502Y13317D02*
X23098Y15914D01*
X21402Y15446D02*
X22392Y14456D01*
X21402Y14936D02*
X22260Y15794D01*
X21081Y21798D02*
Y22214D01*
Y21799D02*
X21288Y22007D01*
X20726Y21445D02*
X21081Y21799D01*
X20728Y21445D02*
X21081Y21798D01*
X19670D02*
Y22503D01*
Y21798D02*
X20023Y21445D01*
X19252Y21448D02*
Y22902D01*
Y21906D02*
X20906Y20252D01*
X19206Y20642D02*
X20015Y21452D01*
X19206Y21361D02*
X19670Y21825D01*
X19606Y18678D02*
X21544Y16740D01*
X21191Y16162D02*
X21544Y16515D01*
X20023Y21445D02*
X20728D01*
X21544Y16147D02*
Y16853D01*
X21402Y14549D02*
Y15951D01*
X20701Y16652D02*
X21402Y15951D01*
X19206Y21234D02*
X20188Y20252D01*
X19206Y20515D02*
X19469Y20252D01*
X19206D02*
Y21448D01*
X19533Y20252D02*
X20726Y21445D01*
X19299Y16652D02*
X20701D01*
X27252Y14320D02*
X28113Y15182D01*
X23002Y10788D02*
X23998Y11785D01*
X23799Y13848D02*
X23998D01*
Y10152D02*
Y13848D01*
X23002Y11690D02*
X23998Y10694D01*
X23002Y10972D02*
X23822Y10152D01*
X22956Y13892D02*
X23998Y12849D01*
X22956Y12179D02*
X23998Y13222D01*
X22956Y12898D02*
X23906Y13848D01*
X23002Y11507D02*
X23998Y12504D01*
X22956Y12455D02*
X23998Y11412D01*
X22956Y13173D02*
X23998Y12131D01*
X27252Y7360D02*
Y7862D01*
Y7360D02*
Y7862D01*
X24470Y7348D02*
X24567Y7252D01*
X27001Y7110D02*
X27252Y7360D01*
X24899Y7252D02*
X24995Y7348D01*
X24494Y7252D02*
X24591Y7348D01*
X23802Y10152D02*
X23998Y10348D01*
X23799Y10152D02*
X23998D01*
X23098Y9448D02*
X23802Y10152D01*
X23775Y7252D02*
X23872Y7348D01*
X23799D02*
X24995D01*
X23098Y8049D02*
X23799Y7348D01*
X23098Y14549D02*
X23799Y13848D01*
X22956Y13616D02*
X23494Y14154D01*
X22840Y14219D02*
X23134Y14513D01*
X22956Y12052D02*
Y13356D01*
X23002Y10598D02*
Y12052D01*
X22956Y13397D02*
Y14103D01*
X22603Y14456D02*
X22956Y14103D01*
X21897Y14456D02*
X22603D01*
X22812Y10598D02*
X23002Y10788D01*
X22502Y10598D02*
X23002D01*
X22657D02*
X23451Y9804D01*
X22502Y10499D02*
Y10598D01*
X23098Y9451D02*
X23799Y10152D01*
X23057Y7252D02*
X23476Y7671D01*
X23098Y8049D02*
Y9451D01*
X22251Y10248D02*
X22502Y10499D01*
X22251Y10248D02*
X22502Y10499D01*
Y10598D01*
X21910Y9908D02*
X23098Y8720D01*
X22338Y7252D02*
X23117Y8030D01*
X22270Y10267D02*
X23098Y9438D01*
X26573Y6682D02*
X27584Y5672D01*
X26924D02*
X28076D01*
X27001Y7110D02*
X27252Y7360D01*
X27512Y3086D02*
X27795Y3368D01*
X27732D02*
X28014Y3086D01*
X27013Y3368D02*
X27296Y3086D01*
X25890Y5999D02*
X27001Y7110D01*
X26348Y5096D02*
X26924Y5672D01*
X26214Y6323D02*
X26895Y5642D01*
X26348Y4033D02*
X27013Y3368D01*
X24209Y502D02*
X27076Y3368D01*
X26348Y3944D02*
X26924Y3368D01*
X26947Y3086D02*
X28053D01*
X27352Y874D02*
X27725Y502D01*
X26947Y874D02*
X28053D01*
X27083Y502D02*
X27456Y874D01*
X26924Y3368D02*
X28076D01*
X26394Y2533D02*
X26947Y3086D01*
X26394Y1427D02*
X26947Y874D01*
X26365Y502D02*
X26842Y979D01*
X25639Y5748D02*
X25890Y5999D01*
X25138Y5748D02*
X25639D01*
X25138D02*
X25639D01*
X25855Y5964D02*
X26535Y5283D01*
X25352Y5748D02*
X26348Y4752D01*
X25639Y5748D02*
X25890Y5999D01*
X24633Y5748D02*
X26348Y4033D01*
X23915Y5748D02*
X26762Y2901D01*
X21826Y5748D02*
X25138D01*
X22478D02*
X26394Y1832D01*
X23196Y5748D02*
X26403Y2542D01*
X22082Y2685D02*
X25146Y5748D01*
X22773Y502D02*
X26348Y4077D01*
X26394Y1427D02*
Y2533D01*
X26348Y3944D02*
Y5096D01*
X23491Y502D02*
X26641Y3651D01*
X25646Y502D02*
X26483Y1338D01*
X24928Y502D02*
X26394Y1968D01*
X22054Y502D02*
X26348Y4796D01*
X21982Y1215D02*
X22696Y502D01*
X22192Y1424D02*
Y2576D01*
Y2443D02*
X24133Y502D01*
X22192Y1724D02*
X23414Y502D01*
X21544Y14103D02*
X21897Y14456D01*
X21402Y14727D02*
X21785Y14344D01*
X21544Y12052D02*
Y13356D01*
Y13397D02*
Y14103D01*
X20772Y13920D02*
X21544Y13148D01*
X20502Y12599D02*
X21544Y13642D01*
X21131Y14279D02*
X21544Y13866D01*
X20502Y13472D02*
X21544Y12429D01*
X20502Y11881D02*
X21544Y12923D01*
X20502Y12754D02*
X21498Y11757D01*
X21402Y8980D02*
X23130Y7252D01*
X21498Y11001D02*
Y11351D01*
X21551Y9549D02*
X23848Y7252D01*
X21620D02*
X23098Y8730D01*
X21402Y8262D02*
X22412Y7252D01*
X21402Y9188D02*
X22812Y10598D01*
X21402Y9399D02*
X22251Y10248D01*
X20502Y11162D02*
X21544Y12205D01*
X21402Y8470D02*
X23998Y11067D01*
X20902Y7252D02*
X23098Y9448D01*
X21149Y7796D02*
X21693Y7252D01*
X21498Y11351D02*
Y12052D01*
Y11001D02*
Y11351D01*
X20701Y13848D02*
X21402Y14549D01*
X20502Y10444D02*
X21498Y11441D01*
Y11001D02*
Y11351D01*
X20502Y11317D02*
X21158Y10660D01*
X19407Y13848D02*
X19498Y13757D01*
X20502Y13848D02*
X20701D01*
X19299D02*
X19498D01*
X20502Y10152D02*
Y13848D01*
Y12035D02*
X21498Y11038D01*
X19498Y10152D02*
Y13848D01*
X20649Y10152D02*
X21498Y11001D01*
X20502Y10598D02*
X20799Y10301D01*
X20502Y10152D02*
X20649D01*
X21402Y8049D02*
Y9399D01*
X20701Y7348D02*
X21402Y8049D01*
X20789Y7437D02*
X20975Y7252D01*
X19441Y7348D02*
X19538Y7252D01*
X19299Y7348D02*
X20701D01*
X19299Y10152D02*
X19498D01*
X20159Y7348D02*
X20256Y7252D01*
X19465D02*
X19562Y7348D01*
X21752Y4948D02*
Y5052D01*
Y3598D02*
Y4948D01*
Y5052D01*
X21793Y5715D02*
X27006Y502D01*
X21752Y5038D02*
X26288Y502D01*
X21752Y4319D02*
X25569Y502D01*
X21752Y5674D02*
X21826Y5748D01*
X21752Y5228D02*
X22272Y5748D01*
X21752Y5052D02*
Y5674D01*
Y3791D02*
X23709Y5748D01*
X21723Y3044D02*
X24427Y5748D01*
X21752Y4509D02*
X22991Y5748D01*
X21559Y3598D02*
X21752Y3791D01*
X21616Y3152D02*
X22192Y2576D01*
X21542Y3598D02*
X21752D01*
Y3601D02*
X24851Y502D01*
X21616Y848D02*
X22192Y1424D01*
X21623Y856D02*
X21977Y502D01*
X21542Y3152D02*
Y3598D01*
X20464Y848D02*
X21616D01*
X20317Y3598D02*
X20538Y3377D01*
X20617Y502D02*
X20964Y848D01*
X20912D02*
X21259Y502D01*
X19600Y1442D02*
X20540Y502D01*
X20248Y4948D02*
Y5052D01*
Y3598D02*
Y4948D01*
Y5052D01*
Y3598D02*
X20538D01*
Y3152D02*
Y3598D01*
X20248Y3667D02*
X20317Y3598D01*
X20183Y7252D02*
X20280Y7348D01*
X19104Y6248D02*
X20248Y5104D01*
X19823Y6248D02*
X20248Y5823D01*
X19341Y2817D02*
X20248Y3725D01*
X19606Y2363D02*
X20538Y3296D01*
X20248Y5052D02*
Y6248D01*
X19888Y2576D02*
X20464Y3152D01*
X19606Y1645D02*
X19888Y1928D01*
X19606Y2155D02*
X19888Y1872D01*
Y1424D02*
X20464Y848D01*
X19899Y502D02*
X20355Y958D01*
X19888Y1424D02*
Y2576D01*
X19606Y1447D02*
Y2553D01*
X19053Y894D02*
X19606Y1447D01*
X19053Y3106D02*
X19606Y2553D01*
X19181Y502D02*
X19996Y1317D01*
X19241Y1083D02*
X19822Y502D01*
X16328Y66498D02*
X25067Y57760D01*
X15267Y56217D02*
X25548Y66498D01*
X15609D02*
X24348Y57760D01*
X16704Y56217D02*
X26985Y66498D01*
X17422Y56217D02*
X27704Y66498D01*
X15985Y56217D02*
X26267Y66498D01*
X14173D02*
X23201Y57470D01*
X14891Y66498D02*
X23630Y57760D01*
X13723Y57547D02*
X22675Y66498D01*
X14441Y56828D02*
X24112Y66498D01*
X14548Y56217D02*
X24830Y66498D01*
X14082Y57187D02*
X23393Y66498D01*
X18859Y56217D02*
X29140Y66498D01*
X18304Y55183D02*
X19381Y54106D01*
X18644Y53553D02*
X19197Y54106D01*
X18310Y53512D02*
X19981Y55183D01*
X18340Y52106D02*
X18663Y52429D01*
X18310Y52794D02*
X18644Y53129D01*
X18140Y56217D02*
X28422Y66498D01*
X14540Y55183D02*
X22460D01*
X14540Y56217D02*
X22460D01*
X17585Y55183D02*
X18930Y53838D01*
X17959Y53880D02*
X19262Y55183D01*
X16867D02*
X18644Y53406D01*
X17420Y54060D02*
X18544Y55183D01*
X16720Y54060D02*
X17780D01*
X16148Y55183D02*
X17272Y54060D01*
X16190Y53530D02*
X16720Y54060D01*
X17780D02*
X18310Y53530D01*
X15430Y55183D02*
X16637Y53976D01*
X14540Y54670D02*
Y55183D01*
Y54771D02*
X14952Y55183D01*
X14540Y56217D02*
Y56730D01*
X14711Y55183D02*
X16278Y53617D01*
X14164Y54294D02*
X16352Y52106D01*
X14523Y54653D02*
X16190Y52986D01*
X18644Y52447D02*
Y53553D01*
X18310Y53022D02*
X18644Y52687D01*
X18310Y52470D02*
Y53530D01*
X17945Y52106D02*
X18310Y52470D01*
X17945Y52106D02*
X18356D01*
X16190Y52470D02*
Y53530D01*
Y52470D02*
X16555Y52106D01*
X16144D02*
X16555D01*
X18483Y66498D02*
X34132Y50850D01*
X18644Y51553D02*
X19092Y52000D01*
X18644Y52447D02*
X19092Y52000D01*
X18644Y50447D02*
Y51553D01*
X18356Y50821D02*
X18644Y50532D01*
X18356Y50685D02*
X18644Y50973D01*
X18226Y52387D02*
X18852Y51761D01*
X18356Y51403D02*
X19022Y52069D01*
X18356Y51539D02*
X18644Y51250D01*
X17046Y66498D02*
X32584Y50961D01*
X17765Y66498D02*
X33262Y51002D01*
X18356Y49894D02*
Y52106D01*
X18644Y50532D02*
X19282Y49894D01*
X18356Y49966D02*
X18741Y50351D01*
X18284Y49894D02*
X18356Y49966D01*
X18644Y50447D02*
X19197Y49894D01*
X18625Y49517D02*
X19100Y49992D01*
X18356Y50102D02*
X18941Y49517D01*
X17957Y49568D02*
X18284Y49894D01*
X17767D02*
X18356D01*
X17767Y49758D02*
X18008Y49517D01*
X17845Y49894D02*
X18223Y49517D01*
X18008D02*
X24648D01*
X17492Y48483D02*
X18008D01*
X16144Y49894D02*
X16733D01*
Y49758D02*
Y49894D01*
X16185Y52106D02*
X16370Y52291D01*
X17767Y49758D02*
Y49894D01*
X16733Y49242D02*
Y49758D01*
X16408Y49894D02*
X16733Y49569D01*
X16144Y49894D02*
Y52106D01*
X14767Y49252D02*
X16144Y50629D01*
X13804Y53935D02*
X16144Y51595D01*
X15181Y48947D02*
X16144Y49910D01*
X15252Y48299D02*
X16733Y49781D01*
X13902Y49104D02*
X16144Y51347D01*
X16733Y49242D02*
X16992Y48983D01*
X16733Y49242D02*
X16992Y48983D01*
X16733Y49242D02*
Y49758D01*
X17233Y48742D02*
X17492Y48483D01*
X17233Y48742D02*
X17492Y48483D01*
X16992Y48983D02*
X17233Y48742D01*
X13902Y49029D02*
X14124Y49252D01*
X14876D01*
X13902Y49029D02*
Y49252D01*
X15252Y48124D02*
Y48876D01*
X14876Y49252D02*
X15252Y48876D01*
X7878Y56731D02*
X17646Y66498D01*
X9361Y56777D02*
X19083Y66498D01*
X7160Y56731D02*
X16927Y66498D01*
X8256Y56390D02*
X18364Y66498D01*
X8425D02*
X18707Y56217D01*
X7707Y66498D02*
X17988Y56217D01*
X5552Y66498D02*
X15833Y56217D01*
X6166Y56456D02*
X16209Y66498D01*
X4833D02*
X15115Y56217D01*
X6270Y66498D02*
X16552Y56217D01*
X6988Y66498D02*
X17270Y56217D01*
X3151Y54877D02*
X14772Y66498D01*
X12499Y57760D02*
X21238Y66498D01*
X13217Y57760D02*
X21956Y66498D01*
X11781Y57760D02*
X20519Y66498D01*
X12736D02*
X22482Y56752D01*
X13454Y66498D02*
X22842Y57111D01*
X12017Y66498D02*
X22299Y56217D01*
X10079Y56777D02*
X19801Y66498D01*
X502D02*
X36498D01*
X9144D02*
X19425Y56217D01*
X10580Y66498D02*
X20862Y56217D01*
X11299Y66498D02*
X21581Y56217D01*
X9862Y66498D02*
X20144Y56217D01*
X3396Y66498D02*
X12135Y57760D01*
X4115Y66498D02*
X12854Y57760D01*
X3151Y57751D02*
X11898Y66498D01*
X3151Y55596D02*
X14054Y66498D01*
X3151Y65307D02*
X11074Y57384D01*
X3108Y64631D02*
X10715Y57024D01*
X3019Y58337D02*
X11180Y66498D01*
X2678D02*
X11433Y57743D01*
X2660Y58697D02*
X10462Y66498D01*
X2360Y56242D02*
X12617Y66498D01*
X2827Y55990D02*
X13335Y66498D01*
X2749Y64272D02*
X10420Y56601D01*
X11450Y57760D02*
X13510D01*
X14540Y56730D01*
X10420D02*
X11450Y57760D01*
X10420Y56217D02*
Y56730D01*
Y54670D02*
Y55183D01*
X10238Y56217D02*
X10420Y56399D01*
X10102Y56217D02*
Y56777D01*
Y56217D02*
X10420D01*
X8698Y56777D02*
X10102D01*
Y54723D02*
Y55183D01*
X10420D01*
X8698Y54723D02*
X10102D01*
X10411Y49206D02*
X16388Y55183D01*
X13510Y53640D02*
X14540Y54670D01*
X13409Y53640D02*
X14540Y54771D01*
X11848Y49206D02*
X17825Y55183D01*
X10102Y54764D02*
X22498Y42367D01*
X10991Y49067D02*
X17107Y55183D01*
X2634Y53642D02*
X15490Y66498D01*
X7941Y54769D02*
X13459Y49252D01*
X7223Y54769D02*
X12740Y49252D01*
X3151Y42664D02*
X15670Y55183D01*
X9424Y54723D02*
X22294Y41853D01*
X8705Y54723D02*
X14177Y49252D01*
X12662Y53640D02*
X16144Y50158D01*
X12612Y49252D02*
X16190Y52830D01*
X13381Y53640D02*
X16144Y50877D01*
X13632Y45961D02*
X16823Y49152D01*
X13265Y42002D02*
X19746Y48483D01*
X13331Y49252D02*
X16144Y52065D01*
X11450Y53640D02*
X13510D01*
X12448Y49252D02*
X13902D01*
X2943Y43174D02*
X13409Y53640D01*
X11944D02*
X22498Y43086D01*
X10993Y41885D02*
X17591Y48483D01*
X10391Y42002D02*
X17182Y48793D01*
X6229Y55044D02*
X12068Y49206D01*
X10420Y54670D02*
X11450Y53640D01*
X3151Y54531D02*
X9930Y47752D01*
X3151Y46975D02*
X10633Y54457D01*
X3151Y44819D02*
X11972Y53640D01*
X3151Y47693D02*
X10420Y54963D01*
X3151Y57405D02*
X11350Y49206D01*
X2967Y56870D02*
X10631Y49206D01*
X2607Y56511D02*
X10030Y49088D01*
X3135Y45522D02*
X11352Y53739D01*
X2583Y43533D02*
X12690Y53640D01*
X2776Y45881D02*
X10993Y54098D01*
X11144Y49206D02*
X12448D01*
X11057Y49002D02*
X11144D01*
X10853Y49206D02*
X11057Y49002D01*
X11144D02*
Y49206D01*
X10147D02*
X10853D01*
X9794Y48853D02*
X10147Y49206D01*
X3151Y49502D02*
X10651Y42002D01*
X2825Y49109D02*
X10028Y41906D01*
X18538Y48483D02*
X22509Y44512D01*
X18008Y48483D02*
X24648D01*
X17492D02*
X18008D01*
X15492Y41356D02*
X22620Y48483D01*
X16206Y41350D02*
X22998Y48143D01*
X17819Y48483D02*
X22498Y43804D01*
X15252Y48177D02*
X21573Y41856D01*
X14919Y47792D02*
X20855Y41856D01*
X13679Y41698D02*
X20465Y48483D01*
X14156Y41456D02*
X21183Y48483D01*
X14738Y41320D02*
X21902Y48483D01*
X14244Y47748D02*
X20794Y41198D01*
X17648Y41356D02*
X23044Y46752D01*
X17706Y40695D02*
X23044Y46034D01*
X17752Y40023D02*
X23044Y45315D01*
X17706Y40052D02*
Y41356D01*
X16929D02*
X22998Y47425D01*
X16294Y41356D02*
X17706D01*
X16206Y41177D02*
Y41356D01*
X13632Y47642D02*
X20748Y40525D01*
X16294Y41177D02*
Y41356D01*
X16206Y41177D02*
X16294D01*
X13902Y47971D02*
X14124Y47748D01*
X14876D01*
X13902D02*
Y47971D01*
X14876Y47748D02*
X15252Y48124D01*
X14603Y41456D02*
X14794Y41264D01*
X13897Y41456D02*
X14603D01*
X13632Y47397D02*
X14053Y47819D01*
X13632Y46679D02*
X14701Y47748D01*
X13632D02*
X13902D01*
X13752Y41310D02*
Y41626D01*
Y41310D02*
X13897Y41456D01*
X13632Y45348D02*
Y47748D01*
X14794Y41356D02*
X16206D01*
X14794Y41264D02*
Y41356D01*
Y40052D02*
Y40236D01*
X14603Y40044D02*
X14794Y40236D01*
X14683Y40125D02*
X14756Y40052D01*
X13897Y40044D02*
X14603D01*
X13632Y40310D02*
X13897Y40044D01*
X17834Y38668D02*
X20794Y41629D01*
X18874Y38752D02*
X19626D01*
X17752Y39930D02*
X18930Y38752D01*
X18386Y38502D02*
X20794Y40910D01*
X18624Y38502D02*
X18874Y38752D01*
X17752Y39211D02*
X18461Y38502D01*
X13632Y46924D02*
X20748Y39807D01*
X17752Y39304D02*
X22498Y44051D01*
X13632Y46205D02*
X20605Y39232D01*
X13632Y45487D02*
X20248Y38870D01*
X17706Y40694D02*
X20248Y38152D01*
X17752Y38751D02*
Y40052D01*
X18001Y38502D02*
X18624D01*
X17499Y37498D02*
X18001D01*
X17752Y38751D02*
X18001Y38502D01*
X18624Y37498D02*
X18874Y37248D01*
X19626D01*
X18001Y37498D02*
X18624D01*
X17248Y37749D02*
X17499Y37498D01*
X18001D01*
X17248Y37749D02*
X17499Y37498D01*
X15224Y33903D02*
X18722Y37401D01*
X15502Y33462D02*
X19288Y37248D01*
X14604Y34002D02*
X18101Y37498D01*
X14998Y38469D02*
Y38598D01*
Y38469D02*
Y38598D01*
X14748D02*
X14998D01*
X14773D02*
X15248Y38123D01*
X14998Y38469D02*
X15248Y38219D01*
X14998Y38469D02*
X15248Y38219D01*
X14045Y40044D02*
X14748Y39341D01*
X13632Y38776D02*
X14748Y39893D01*
X13632Y39495D02*
X14181Y40044D01*
X14748Y38598D02*
Y40052D01*
X13632Y39739D02*
X14748Y38623D01*
X13632Y38248D02*
Y40310D01*
X16752Y37874D02*
Y38246D01*
X17248Y37749D01*
X15248Y37874D02*
X15624Y37498D01*
X16376D02*
X16752Y37874D01*
X15624Y37498D02*
X16376D01*
X15502Y32874D02*
Y33626D01*
X15248Y37874D02*
Y38219D01*
X13636Y33752D02*
X17441Y37557D01*
X14374Y34002D02*
X15126D01*
X15502Y33626D01*
X14124Y33752D02*
X14374Y34002D01*
X13407Y47748D02*
X13632D01*
X13525D02*
X13632Y47642D01*
X12279Y45348D02*
X12362D01*
X12336Y41791D02*
X19028Y48483D01*
X12279Y45348D02*
X12502Y45126D01*
X12279Y45348D02*
X12362D01*
X11144Y47794D02*
X12403D01*
X11092Y47752D02*
X12178D01*
X11828Y42002D02*
X18310Y48483D01*
X12178Y47752D02*
X12362D01*
X12178D02*
X12362D01*
X12502Y44831D02*
X13020Y45348D01*
X12362D02*
X13632D01*
X12502Y44374D02*
Y45126D01*
X12375Y41752D02*
X12624Y42002D01*
X13376D01*
X12126D02*
X12375Y41752D01*
X12126Y43998D02*
X12502Y44374D01*
X11374Y43998D02*
X12126D01*
X9858Y44231D02*
X12088Y42002D01*
X10809Y43998D02*
X12806Y42002D01*
X11374D02*
X12126D01*
X9615Y41944D02*
X11669Y43998D01*
X11057Y47998D02*
X11144D01*
Y47794D02*
Y47998D01*
X10853Y47794D02*
X11057Y47998D01*
X11144Y47974D02*
X11324Y47794D01*
X10908Y47752D02*
X11092D01*
X10908D02*
X11092D01*
X9794Y48147D02*
X10147Y47794D01*
X10853D01*
X9822Y47752D02*
X10908D01*
X9675D02*
X9933Y48009D01*
X10876Y43998D02*
X11125Y44248D01*
X11374Y43998D01*
X10124D02*
X10876D01*
Y42002D02*
X11125Y41752D01*
X11374Y42002D01*
X10124D02*
X10876D01*
X9875Y44248D02*
X10124Y43998D01*
X9373D02*
X11372Y41999D01*
X9626Y43998D02*
X9875Y44248D01*
X8908Y41956D02*
X11163Y44210D01*
X9840Y41718D02*
X10124Y42002D01*
X13051Y45348D02*
X17044Y41356D01*
X12502Y44461D02*
X15607Y41356D01*
X13376Y42002D02*
X13752Y41626D01*
X13234Y38248D02*
X13632D01*
X12983Y37980D02*
X13234Y38231D01*
X12983Y37980D02*
X13234Y38231D01*
X12333Y45348D02*
X16326Y41356D01*
X12186Y44059D02*
X14889Y41356D01*
X11528Y43998D02*
X14071Y41456D01*
X9279Y33706D02*
X14748Y39175D01*
X10044Y33752D02*
X14891Y38598D01*
X7499Y34002D02*
X11746Y38248D01*
X11481Y33752D02*
X15426Y37697D01*
X12031Y37029D02*
X15059Y34002D01*
X11672Y36670D02*
X14357Y33985D01*
X12917Y33752D02*
X17082Y37916D01*
X12199Y33752D02*
X15946Y37498D01*
X11402Y32748D02*
X14124D01*
X10762Y33752D02*
X15239Y38229D01*
X10954Y35951D02*
X13154Y33752D01*
X10595Y35592D02*
X12435Y33752D01*
X11313Y36311D02*
X13872Y33752D01*
X11402D02*
X14124D01*
X8708Y33706D02*
X12983Y37980D01*
X9840Y40782D02*
X9971Y40652D01*
X9760D02*
X9865Y40757D01*
X9778Y40719D02*
X9846Y40652D01*
X10908Y38248D02*
X11092D01*
X10908D02*
X11092D01*
X10094D02*
X10920Y37422D01*
X9329Y38294D02*
X10561Y37063D01*
X9638Y38248D02*
X10908D01*
X9752Y40652D02*
X9971D01*
X3151Y36917D02*
X10233Y43998D01*
X8611Y38294D02*
X10201Y36704D01*
X2408Y43778D02*
X9842Y36345D01*
X11530Y38248D02*
X11638Y38141D01*
X11092Y38248D02*
X11746D01*
X10812D02*
X11279Y37781D01*
X10649Y33752D02*
X11151D01*
X11402D01*
X10649D02*
X11151D01*
X9876Y34874D02*
X10998Y33752D01*
X9948D02*
X11402D01*
X9517Y34515D02*
X10280Y33752D01*
X10235Y35233D02*
X11717Y33752D01*
X8708Y33706D02*
X9948D01*
X3151Y60624D02*
X9025Y66498D01*
X3151Y59906D02*
X9743Y66498D01*
X3151Y62780D02*
X6869Y66498D01*
X3151Y63152D02*
X9526Y56777D01*
X3151Y62433D02*
X8808Y56777D01*
X3151Y60278D02*
X6944Y56484D01*
X2411Y61322D02*
X7588Y66498D01*
X2852Y61044D02*
X8306Y66498D01*
X3045Y63392D02*
X6151Y66498D01*
X2941Y61925D02*
X8135Y56731D01*
X2582Y61565D02*
X7417Y56731D01*
X3134Y59577D02*
X6255Y56456D01*
X6944Y56731D02*
X8256D01*
X8135D02*
X8256Y56610D01*
X6944Y56252D02*
Y56731D01*
X8256Y56610D02*
X8698Y56167D01*
X6807Y56252D02*
X6944D01*
X6744Y56315D02*
X6944Y56515D01*
X6603Y56456D02*
X6807Y56252D01*
X5897Y56456D02*
X6603D01*
X5544Y56103D02*
X5897Y56456D01*
X3151Y65653D02*
X3996Y66498D01*
X3151Y64935D02*
X4714Y66498D01*
X2878Y66099D02*
X3277Y66498D01*
X2685Y63751D02*
X5433Y66498D01*
X3151Y62134D02*
Y63286D01*
Y64674D02*
Y65826D01*
X2575Y66402D02*
X3151Y65826D01*
X2575Y64098D02*
X3151Y64674D01*
X2462Y66402D02*
X2559Y66498D01*
X2204Y64098D02*
X2441Y63862D01*
X2575D02*
X3151Y63286D01*
X2077Y63862D02*
X2314Y64098D01*
X3151Y59594D02*
Y60746D01*
X2575Y59018D02*
X3151Y59594D01*
X2575Y61322D02*
X3151Y60746D01*
X2774Y59218D02*
X5717Y56275D01*
X3151Y58123D02*
X5544Y55729D01*
X3151Y57054D02*
Y58206D01*
X2575Y61558D02*
X3151Y62134D01*
X2255Y59018D02*
X2492Y58782D01*
X2026D02*
X2263Y59018D01*
X2492Y58782D02*
X3151Y58123D01*
X2575Y56478D02*
X3151Y57054D01*
X2575Y58782D02*
X3151Y58206D01*
X8256Y55892D02*
X8698Y55449D01*
X8256Y54953D02*
X8698Y55396D01*
X8256Y55671D02*
X8698Y56114D01*
Y54723D02*
Y56777D01*
X8256Y55173D02*
X8698Y54730D01*
X8256Y54769D02*
Y56731D01*
X6775Y55217D02*
X6944Y55048D01*
X6807Y55248D02*
X6944D01*
X3151Y55249D02*
X9794Y48606D01*
X2801Y50935D02*
X6944Y55079D01*
X8072Y54769D02*
X8256Y54953D01*
X6944Y54769D02*
X8256D01*
X3151Y49848D02*
X8072Y54769D01*
X3151Y53094D02*
X8493Y47752D01*
X3151Y50220D02*
X8498Y44873D01*
X3151Y52375D02*
X8368Y47158D01*
X2609Y48588D02*
X8744Y54723D01*
X2968Y48229D02*
X9463Y54723D01*
X3151Y50567D02*
X7354Y54769D01*
X2800Y54163D02*
X9211Y47752D01*
X2633Y51456D02*
X8368Y45721D01*
X2992Y51816D02*
X8368Y46439D01*
X5544Y55397D02*
X5897Y55044D01*
X6603D02*
X6807Y55248D01*
X6944Y54769D02*
Y55248D01*
X5897Y55044D02*
X6603D01*
X5544Y55397D02*
Y56103D01*
X3151Y54514D02*
Y55666D01*
X2575Y56242D02*
X3151Y55666D01*
X3151Y52722D02*
X5685Y55256D01*
X3151Y52004D02*
X6192Y55044D01*
X2994Y53283D02*
X5544Y55834D01*
X2575Y53702D02*
X3151Y53126D01*
Y51974D02*
Y53126D01*
X2575Y53938D02*
X3151Y54514D01*
X2575Y51162D02*
X3151Y50586D01*
Y49434D02*
Y50586D01*
X2575Y51398D02*
X3151Y51974D01*
X2306Y53938D02*
X2543Y53702D01*
X3151Y53094D01*
X1975Y53702D02*
X2212Y53938D01*
X2546Y51398D02*
X3151Y52004D01*
X2309Y51162D02*
X2546Y51398D01*
X1959Y66498D02*
X2056Y66402D01*
X1423D02*
X2575D01*
X1744D02*
X1840Y66498D01*
X1423Y64098D02*
X2575D01*
X1423Y63862D02*
X2575D01*
X1486Y64098D02*
X1723Y63862D01*
X848Y65826D02*
X1423Y66402D01*
X848Y64737D02*
X1486Y64098D01*
X1241Y66498D02*
X1381Y66359D01*
X502Y63004D02*
X1596Y64098D01*
X848Y63286D02*
X1423Y63862D01*
X848Y64674D02*
X1423Y64098D01*
Y61558D02*
X2575D01*
X1423Y61322D02*
X2575D01*
X1693D02*
X1929Y61558D01*
X1871D02*
X2107Y61322D01*
X1423Y59018D02*
X2575D01*
X1537D02*
X1774Y58782D01*
X848Y62134D02*
X1423Y61558D01*
X848Y60746D02*
X1423Y61322D01*
X502Y62209D02*
X1406Y61304D01*
X848Y59594D02*
X1423Y59018D01*
X1423Y58782D02*
X2575D01*
X847Y58206D02*
X1423Y58782D01*
X523Y66498D02*
X1021Y66000D01*
X502Y64364D02*
X1214Y63652D01*
X848Y64674D02*
Y65826D01*
X502Y63646D02*
X855Y63293D01*
X848Y62134D02*
Y63286D01*
X502Y62927D02*
X848Y62581D01*
X502Y65878D02*
X1122Y66498D01*
X502Y65160D02*
X848Y65505D01*
X502Y65801D02*
X848Y65455D01*
X502Y64441D02*
X848Y64787D01*
X502Y63723D02*
X1150Y64371D01*
X502Y65083D02*
X848Y64737D01*
Y59594D02*
Y60746D01*
X502Y59412D02*
X848Y59758D01*
X502Y60054D02*
X848Y59708D01*
X502Y59335D02*
X1239Y58598D01*
X502Y58694D02*
X1125Y59317D01*
X502Y58617D02*
X880Y58238D01*
X502Y61567D02*
X958Y62024D01*
X502Y61490D02*
X1047Y60945D01*
X502Y62286D02*
X848Y62632D01*
X502Y60849D02*
X1317Y61665D01*
X502Y60131D02*
X848Y60477D01*
X502Y60772D02*
X848Y60426D01*
X1423Y56478D02*
X2575D01*
X1423Y56242D02*
X2575D01*
X1642D02*
X1878Y56478D01*
X1922D02*
X2158Y56242D01*
X1588Y53938D02*
X1825Y53702D01*
X848Y54514D02*
X1423Y53938D01*
X502Y57975D02*
X1545Y59018D01*
X502Y57180D02*
X1440Y56242D01*
X847Y57054D02*
X1423Y56478D01*
X848Y55666D02*
X1423Y56242D01*
X502Y52946D02*
X1494Y53938D01*
X502Y55820D02*
X1292Y56610D01*
X1424Y53702D02*
X2575D01*
X1424Y51398D02*
X2575D01*
X1423Y53938D02*
X2575D01*
X1973Y51398D02*
X2209Y51162D01*
X1424D02*
X2575D01*
X1590D02*
X1827Y51398D01*
X502Y52151D02*
X1491Y51162D01*
X848Y51974D02*
X1424Y51398D01*
X848Y53126D02*
X1424Y53702D01*
X848Y50586D02*
X1424Y51162D01*
X848Y49434D02*
X1424Y48858D01*
X502Y50791D02*
X1266Y51556D01*
X848Y54514D02*
Y55666D01*
X502Y55025D02*
X848Y54679D01*
X847Y57054D02*
Y58206D01*
X502Y54306D02*
X1265Y53543D01*
X502Y53665D02*
X1099Y54262D01*
X502Y54383D02*
X848Y54729D01*
X502Y57257D02*
X847Y57603D01*
X502Y56538D02*
X932Y56969D01*
X502Y57898D02*
X847Y57553D01*
X502Y56461D02*
X1072Y55891D01*
X502Y55102D02*
X848Y55448D01*
X502Y55743D02*
X848Y55397D01*
X502Y50714D02*
X848Y50368D01*
X502Y50073D02*
X848Y50419D01*
Y51974D02*
Y53126D01*
Y49434D02*
Y50586D01*
X502Y49354D02*
X848Y49700D01*
X502Y49996D02*
X848Y49650D01*
X502Y53588D02*
X906Y53184D01*
X502Y52228D02*
X848Y52574D01*
X502Y52869D02*
X848Y52523D01*
X502Y51433D02*
X1098Y50836D01*
X502Y51510D02*
X907Y51915D01*
X8957Y47752D02*
X9794Y48589D01*
X9638Y47752D02*
X9822D01*
X9794Y48147D02*
Y48853D01*
X9638Y47752D02*
X9822D01*
X8874Y43998D02*
X9626D01*
X8544Y41603D02*
X8897Y41956D01*
X8368Y47752D02*
X9638D01*
X8498Y45126D02*
X8721Y45348D01*
X8368D02*
X8721D01*
X2357Y48858D02*
X9260Y41956D01*
X8498Y44374D02*
X8874Y43998D01*
X3151Y47346D02*
X8719Y41778D01*
X9603Y41956D02*
X9840Y41718D01*
X8897Y41956D02*
X9603D01*
X9752Y40693D02*
X9840Y40782D01*
X8544Y41592D02*
X8908Y41956D01*
X8544Y40897D02*
X8748Y40693D01*
Y40606D02*
Y40693D01*
X8414Y40606D02*
X8748D01*
X8368Y45348D02*
Y47752D01*
X3151Y41946D02*
X8368Y47163D01*
X3151Y46894D02*
Y48046D01*
X3018Y46761D02*
X8544Y41234D01*
X2659Y46402D02*
X8455Y40606D01*
X2750Y40827D02*
X8368Y46445D01*
X2575Y48622D02*
X3151Y48046D01*
X2495Y46318D02*
X3151Y46975D01*
X2575Y48858D02*
X3151Y49434D01*
X2575Y46318D02*
X3151Y46894D01*
X2575Y46082D02*
X3151Y45506D01*
X2258Y46082D02*
X2495Y46318D01*
X8498Y44374D02*
Y45126D01*
X3151Y41814D02*
Y42966D01*
X3151Y44354D02*
Y45506D01*
X3151Y39791D02*
X8709Y45348D01*
X8544Y40897D02*
Y41603D01*
X3151Y45191D02*
X8414Y39928D01*
X2575Y43542D02*
X3151Y42966D01*
X2575Y41238D02*
X3151Y41814D01*
X2575Y43778D02*
X3151Y44354D01*
X3110Y40467D02*
X8368Y45726D01*
X2575Y41002D02*
X3151Y40426D01*
X2207Y41002D02*
X2444Y41238D01*
X3151Y37635D02*
X9514Y43998D01*
X3151Y42317D02*
X9483Y35985D01*
X3043Y41707D02*
X9124Y35626D01*
X3084Y35413D02*
X8556Y40885D01*
X3151Y34762D02*
X8414Y40025D01*
X2917Y38120D02*
X8835Y44038D01*
X2725Y35772D02*
X8544Y41592D01*
X2541Y38462D02*
X8498Y44419D01*
X2684Y41347D02*
X8765Y35267D01*
X2892Y33065D02*
X8414Y38588D01*
X2489Y33382D02*
X8414Y39307D01*
X9638Y38294D02*
X9776D01*
X9158Y34155D02*
X9607Y33706D01*
X8799Y33796D02*
X8889Y33706D01*
X8644Y33642D02*
X8708Y33706D01*
X8414Y38294D02*
X9638D01*
X8252Y33249D02*
X8644Y33642D01*
X8414Y38491D02*
X8611Y38294D01*
X3151Y32606D02*
X8839Y38294D01*
X8252Y32678D02*
X8644Y33071D01*
X8439Y33437D02*
X8644Y33232D01*
X8414Y38294D02*
Y40606D01*
X3151Y36734D02*
Y37886D01*
Y39274D02*
Y40426D01*
Y40162D02*
X8405Y34908D01*
X3151Y39443D02*
X8046Y34549D01*
X3151Y37288D02*
X7248Y33191D01*
X3151Y44473D02*
X8414Y39209D01*
X2851Y44054D02*
X8414Y38491D01*
X2575Y38698D02*
X3151Y39274D01*
X2877Y39000D02*
X7687Y34189D01*
X2459Y38698D02*
X7328Y33830D01*
X2575Y38462D02*
X3151Y37886D01*
X7248Y33751D02*
X7499Y34002D01*
X7248Y33751D02*
X7499Y34002D01*
X3151Y34194D02*
Y35346D01*
X7248Y33249D02*
Y33751D01*
Y33249D02*
Y33751D01*
X2575Y33618D02*
X3151Y34194D01*
X2575Y36158D02*
X3151Y36734D01*
X2156Y35922D02*
X2393Y36158D01*
X2126D02*
X2363Y35922D01*
X2575D02*
X3151Y35346D01*
X2575Y33382D02*
X3151Y32806D01*
X1924Y48622D02*
X2161Y48858D01*
X1424Y48622D02*
X2575D01*
X1639Y48858D02*
X1876Y48622D01*
X2024Y46318D02*
X2260Y46082D01*
X1424Y46318D02*
X2575D01*
X1539Y46082D02*
X1776Y46318D01*
X502Y47917D02*
X1443Y48858D01*
X1424D02*
X2575D01*
X848Y48046D02*
X1424Y48622D01*
X502Y47122D02*
X1542Y46082D01*
X1423D02*
X2575D01*
X848Y46894D02*
X1424Y46318D01*
X1873Y43542D02*
X2110Y43778D01*
X1424Y41238D02*
X2575D01*
X1690Y43778D02*
X1927Y43542D01*
X2075Y41238D02*
X2311Y41002D01*
X1424D02*
X2575D01*
X1488D02*
X1725Y41238D01*
X1423Y43778D02*
X2575D01*
X1424Y43542D02*
X2575D01*
X848Y44354D02*
X1423Y43778D01*
X502Y42093D02*
X1593Y41002D01*
X848Y41814D02*
X1424Y41238D01*
X848Y42966D02*
X1424Y43542D01*
X502Y45762D02*
X1241Y46501D01*
X502Y46404D02*
X1124Y45782D01*
X848Y46894D02*
Y48046D01*
X848Y45506D02*
X1423Y46082D01*
X848Y44354D02*
Y45506D01*
X502Y45685D02*
X848Y45339D01*
X502Y49277D02*
X1290Y48488D01*
X502Y48636D02*
X1074Y49208D01*
X502Y48559D02*
X931Y48129D01*
X502Y47199D02*
X848Y47545D01*
X502Y46481D02*
X882Y46860D01*
X502Y47840D02*
X848Y47494D01*
X502Y42888D02*
X1407Y43794D01*
X502Y43530D02*
X957Y43075D01*
X502Y42811D02*
X848Y42465D01*
Y41814D02*
Y42966D01*
X502Y41452D02*
X856Y41806D01*
X502Y42170D02*
X848Y42516D01*
X502Y44967D02*
X848Y44621D01*
X502Y44325D02*
X848Y44671D01*
X502Y45044D02*
X848Y45390D01*
X502Y44248D02*
X1316Y43434D01*
X502Y43607D02*
X1048Y44153D01*
X1424Y38698D02*
X2575D01*
X1424Y38462D02*
X2575D01*
X1741Y38698D02*
X1978Y38462D01*
X1822D02*
X2059Y38698D01*
X1437Y35922D02*
X1674Y36158D01*
X848Y36734D02*
X1424Y36158D01*
X848Y40361D02*
X1488Y41002D01*
X848Y39274D02*
X1424Y38698D01*
X848Y40426D02*
X1424Y41002D01*
X848Y37886D02*
X1424Y38462D01*
X502Y37064D02*
X1644Y35922D01*
X502Y37860D02*
X1382Y38740D01*
X1424Y35922D02*
X2575D01*
X1424Y33618D02*
X2575D01*
X1424Y36158D02*
X2575D01*
X1792Y33618D02*
X2029Y33382D01*
X1424D02*
X2575D01*
X1771D02*
X2008Y33618D01*
X848Y35332D02*
X1437Y35922D01*
X848Y34194D02*
X1424Y33618D01*
X848Y35346D02*
X1424Y35922D01*
X502Y34190D02*
X1367Y33325D01*
X848Y32806D02*
X1424Y33382D01*
X502Y32831D02*
X1357Y33686D01*
X502Y39219D02*
X1342Y38379D01*
X502Y38578D02*
X1023Y39099D01*
X848Y39274D02*
Y40426D01*
X502Y38501D02*
X982Y38020D01*
X848Y36734D02*
Y37886D01*
X502Y37783D02*
X848Y37436D01*
X502Y40733D02*
X1215Y41447D01*
X502Y41375D02*
X1149Y40727D01*
X502Y40656D02*
X848Y40310D01*
X502Y39938D02*
X848Y39591D01*
X502Y39296D02*
X848Y39643D01*
X502Y40015D02*
X848Y40361D01*
X502Y34909D02*
X848Y34563D01*
X502Y34267D02*
X848Y34614D01*
X502Y34986D02*
X848Y35332D01*
X502Y33549D02*
X997Y34045D01*
X502Y33472D02*
X1008Y32966D01*
X848Y34194D02*
Y35346D01*
X502Y36423D02*
X848Y36769D01*
X502Y35704D02*
X1190Y36392D01*
X502Y37141D02*
X848Y37487D01*
X502Y36346D02*
X1175Y35673D01*
X502Y35627D02*
X848Y35281D01*
X16752Y38056D02*
X23056Y31752D01*
X18028Y37498D02*
X23775Y31752D01*
X16483Y37606D02*
X22088Y32002D01*
X16852Y30502D02*
X24948Y38598D01*
X18774Y31706D02*
X25667Y38598D01*
X18996Y37248D02*
X24493Y31752D01*
X15302Y31826D02*
X21225Y37748D01*
X15873Y37498D02*
X21497Y31874D01*
X14759Y32002D02*
X20565Y37807D01*
X15415Y30502D02*
X22768Y37855D01*
X16133Y30502D02*
X23380Y37748D01*
X15502Y31307D02*
X21943Y37748D01*
X18853Y31706D02*
X19206Y31353D01*
X18147Y31706D02*
X18853D01*
X19002Y24031D02*
X19133Y24162D01*
X17794Y31353D02*
X18147Y31706D01*
X17794Y30647D02*
Y31353D01*
Y30647D02*
X17940Y30502D01*
X15129D02*
X17940D01*
X15485Y32857D02*
X17840Y30502D01*
X15502Y33559D02*
X17794Y31266D01*
X15129Y30502D02*
X15502Y30874D01*
Y31626D01*
Y31404D02*
X16404Y30502D01*
X17570D02*
X17794Y30726D01*
X15407Y30780D02*
X15685Y30502D01*
X15126Y32498D02*
X15502Y32874D01*
X14374Y32002D02*
X15126D01*
X14374Y32498D02*
X15126D01*
X15125D02*
X17122Y30502D01*
X15126Y32002D02*
X15502Y31626D01*
X14407Y32498D02*
X14904Y32002D01*
X15751Y25248D02*
X15871D01*
X15498Y24876D02*
X15871Y25248D01*
X15249D02*
X15751D01*
X15498Y24124D02*
X15748Y23874D01*
Y23676D02*
Y23874D01*
X15498Y24124D02*
Y24876D01*
X14998Y25499D02*
X15249Y25248D01*
X14998Y25499D02*
X15249Y25248D01*
X14249Y26248D02*
X14998Y25499D01*
X15249Y25248D02*
X15751D01*
X14999Y22927D02*
X15748Y23676D01*
X14281Y22902D02*
X15501Y24122D01*
X19002Y23593D02*
X19881Y22714D01*
X17451Y18678D02*
X19477Y16652D01*
X18169Y18678D02*
X20196Y16652D01*
X18254Y16099D02*
X20834Y18678D01*
X17895Y16458D02*
X20115Y18678D01*
X16652Y16652D02*
X18678Y18678D01*
X17370Y16652D02*
X19397Y18678D01*
X16652Y16652D02*
X18678Y18678D01*
X16014D02*
X18670Y16022D01*
X16732Y18678D02*
X19029Y16381D01*
X15252Y15970D02*
X17960Y18678D01*
X18598Y15951D02*
X19299Y16652D01*
X18402Y14854D02*
X18598Y14657D01*
X18402Y14809D02*
X18598Y15006D01*
X18887Y18678D02*
X23998Y13567D01*
X18598Y14657D02*
X19407Y13848D01*
X18598Y14549D02*
Y15951D01*
X14574Y18678D02*
X23069D01*
X18402Y15528D02*
X18598Y15725D01*
X17701Y16652D02*
X18402Y15951D01*
Y15572D02*
X18598Y15375D01*
X17701Y13848D02*
X18402Y14549D01*
Y15951D01*
X15189Y18063D02*
X15805Y18678D01*
X15252Y17499D02*
Y18001D01*
Y17499D02*
Y18001D01*
Y16688D02*
X17242Y18678D01*
X15295D02*
X17322Y16652D01*
X15252Y17407D02*
X16523Y18678D01*
X14830Y18422D02*
X15086Y18678D01*
X15001Y18252D02*
X15252Y18001D01*
X14574Y18678D02*
X15001Y18252D01*
X14577Y18678D02*
X16604Y16652D01*
X15001Y18252D02*
X15252Y18001D01*
X14248Y13402D02*
Y17499D01*
X15598Y15951D02*
X16299Y16652D01*
X17701D01*
X15252Y15252D02*
X15598Y15598D01*
Y14549D02*
Y15951D01*
X15252Y14533D02*
X15598Y14880D01*
X15252Y15130D02*
X15598Y14783D01*
X15252Y17285D02*
X16092Y16445D01*
X15252Y16567D02*
X15733Y16085D01*
X15252Y15848D02*
X15598Y15502D01*
X15252Y15252D02*
X15598Y15598D01*
X15252Y13402D02*
Y17499D01*
X13791Y31752D02*
X14538Y32498D01*
X14124Y31752D02*
X14374Y32002D01*
X14124Y32748D02*
X14374Y32498D01*
X13632Y38302D02*
X21278Y30656D01*
X13998Y28751D02*
X14246Y28998D01*
X13998Y28751D02*
X14246Y28998D01*
X12750Y37747D02*
X18792Y31706D01*
X12391Y37388D02*
X18110Y31669D01*
X13438Y32748D02*
X14280Y31907D01*
X13632Y39021D02*
X21248Y31404D01*
X13109Y38107D02*
X21248Y29967D01*
X13251Y28998D02*
X14246D01*
X13998Y26499D02*
X14249Y26248D01*
X12752Y24814D02*
X14664Y22902D01*
X13998Y26499D02*
X14249Y26248D01*
X12752Y22809D02*
X15220Y25278D01*
X14248Y22902D02*
X14974D01*
X14085Y22706D02*
X14248Y22869D01*
X12752Y27688D02*
X15531Y24908D01*
X12752Y26969D02*
X15498Y24223D01*
X12752Y24246D02*
X14501Y25996D01*
X12752Y26251D02*
X15538Y23465D01*
X12752Y25533D02*
X15178Y23106D01*
X12752Y23528D02*
X14861Y25637D01*
X13073Y31752D02*
X14069Y32748D01*
X13596Y28998D02*
X13998Y28596D01*
X12720Y32748D02*
X13717Y31752D01*
X12752Y27838D02*
X13912Y28998D01*
X13064Y28812D02*
X13998Y27878D01*
X12752Y28499D02*
X13251Y28998D01*
X11402Y32630D02*
X12280Y31752D01*
X11402D02*
X14124D01*
X11167Y32002D02*
X11914Y32748D01*
X12002D02*
X12998Y31752D01*
X12354D02*
X13351Y32748D01*
X11636Y31752D02*
X12633Y32748D01*
X13998Y28249D02*
Y28751D01*
Y27001D02*
Y28249D01*
Y28751D01*
Y26499D02*
Y27001D01*
X13397Y22706D02*
X14103D01*
X13998Y26499D02*
Y27001D01*
X12752Y27120D02*
X13998Y28367D01*
X12752Y26402D02*
X13998Y27648D01*
X12752Y28406D02*
X13998Y27159D01*
X12752Y25683D02*
X13998Y26930D01*
X12752Y24965D02*
X14142Y26355D01*
X12752Y23377D02*
X13423Y22706D01*
X14248Y22560D02*
Y22902D01*
X14103Y22706D02*
X14248Y22560D01*
X12752Y24096D02*
X14248Y22599D01*
X12831Y22171D02*
X15498Y24838D01*
X13013Y16606D02*
X14078Y17670D01*
X2562Y28538D02*
X14248Y16852D01*
X3151Y27230D02*
X14248Y16133D01*
X7499Y24248D02*
X14248Y17499D01*
X3146Y21489D02*
X13998Y10636D01*
X2786Y21129D02*
X15598Y8317D01*
X3151Y22201D02*
X13998Y11354D01*
X13856Y15808D02*
X14248Y15415D01*
X13856Y15292D02*
X14248Y15685D01*
X13814Y15969D02*
X14248Y16404D01*
X13856Y15089D02*
X14248Y14696D01*
X13856Y14574D02*
X14248Y14967D01*
X13856Y14572D02*
Y15928D01*
X13455Y16329D02*
X14248Y17122D01*
X13176Y13894D02*
X13856Y14574D01*
X13178Y16606D02*
X13856Y15928D01*
X2812Y16075D02*
X15248Y3638D01*
X3152Y15017D02*
X15201Y2968D01*
X13178Y13894D02*
X13856Y14572D01*
X13044Y22353D02*
X13397Y22706D01*
X12752Y22659D02*
X13051Y22359D01*
X12752Y22251D02*
Y28499D01*
X13044Y21958D02*
Y22353D01*
X12752Y22251D02*
X13044Y21958D01*
X3120Y26543D02*
X13058Y16606D01*
X2761Y26184D02*
X12339Y16606D01*
X2597Y10500D02*
X11922Y19825D01*
X3151Y20046D02*
X13092Y10106D01*
X3151Y19328D02*
X12373Y10106D01*
X2957Y10141D02*
X12282Y19466D01*
X12295Y16606D02*
X13719Y18029D01*
X11822Y16606D02*
X13178D01*
X3152Y9617D02*
X12641Y19107D01*
X11144Y14572D02*
X11822Y13894D01*
X11144Y15928D02*
X11822Y16606D01*
X2764Y7793D02*
X13359Y18388D01*
X3152Y8899D02*
X13000Y18747D01*
X18195Y14342D02*
X19498Y13038D01*
X17835Y13983D02*
X19498Y12320D01*
X18598Y14549D02*
X19299Y13848D01*
X17878Y9975D02*
X19498Y11596D01*
X18237Y9616D02*
X19498Y10877D01*
X17336Y10152D02*
X19498Y12314D01*
X15941Y10912D02*
X19088Y14059D01*
X17252Y13848D02*
X19498Y11602D01*
X15581Y11271D02*
X18729Y14419D01*
X16300Y10553D02*
X19498Y13751D01*
X16659Y10193D02*
X19498Y13033D01*
X16533Y13848D02*
X19498Y10883D01*
X18598Y9451D02*
X19299Y10152D01*
X18402Y8388D02*
X18598Y8191D01*
X18402Y8344D02*
X18598Y8540D01*
Y8049D02*
X19299Y7348D01*
X18746Y7252D02*
X19071Y7576D01*
X18598Y8049D02*
Y9451D01*
X18402Y9106D02*
X18598Y8909D01*
X17326Y7252D02*
X24899D01*
X18402Y9062D02*
X18598Y9259D01*
X18212Y7859D02*
X18819Y7252D01*
X17326Y6248D02*
X20248D01*
X18028Y7252D02*
X18712Y7936D01*
X16701Y10152D02*
X17701D01*
X18402Y9451D01*
X16299Y13848D02*
X17701D01*
X18402Y8049D02*
Y9451D01*
X17701Y7348D02*
X18402Y8049D01*
X17853Y7500D02*
X18101Y7252D01*
X15598Y14549D02*
X16299Y13848D01*
X15502Y11351D02*
X16701Y10152D01*
X15502Y12052D02*
Y13402D01*
X15598Y9451D02*
X15748Y9600D01*
X15598Y8049D02*
X16299Y7348D01*
X15598Y8049D02*
Y9451D01*
X17286Y7348D02*
X17383Y7252D01*
X16824D02*
X17326D01*
X16824D02*
X17326D01*
X17309D02*
X17406Y7348D01*
X16752Y5257D02*
X17743Y6248D01*
X16752Y5674D02*
X17326Y6248D01*
X16299Y7348D02*
X17701D01*
X16573Y7001D02*
X16824Y7252D01*
X16567Y7348D02*
X16744Y7172D01*
X15741Y6402D02*
X16688Y7348D01*
X16573Y7001D02*
X16824Y7252D01*
X15974Y6402D02*
X16573Y7001D01*
X17667Y6248D02*
X20248Y3667D01*
X18192Y3106D02*
X20248Y5162D01*
X18386Y6248D02*
X20248Y4386D01*
X17137Y6060D02*
X20255Y2942D01*
X18911Y3106D02*
X20248Y4443D01*
X17394Y2553D02*
X17947Y3106D01*
X16752Y3820D02*
X19180Y6248D01*
X16752Y5009D02*
X18655Y3106D01*
X16752Y4538D02*
X18462Y6248D01*
X16669Y3019D02*
X19898Y6248D01*
X17028Y2659D02*
X20248Y5880D01*
X16778Y5701D02*
X19896Y2583D01*
X17947Y894D02*
X19053D01*
X18462Y502D02*
X18855Y894D01*
X18711D02*
X19104Y502D01*
X17992Y894D02*
X18385Y502D01*
X17947Y3106D02*
X19053D01*
X17394Y1492D02*
X17992Y894D01*
X17744Y502D02*
X18137Y894D01*
X17394Y1447D02*
X17947Y894D01*
X16752Y4948D02*
Y5052D01*
Y4948D02*
Y5052D01*
Y5674D01*
Y4290D02*
X17942Y3100D01*
X17112Y1424D02*
Y2576D01*
X16752Y3598D02*
Y4948D01*
X16530Y3598D02*
X16752Y3820D01*
X16462Y3598D02*
X16752D01*
X16462Y3530D02*
X16530Y3598D01*
X16725D02*
X17583Y2741D01*
X16536Y3151D02*
X17112Y2576D01*
X16462Y3151D02*
Y3598D01*
X17112Y2025D02*
X17394Y2308D01*
X17112Y1775D02*
X17394Y1492D01*
X17112Y2494D02*
X17394Y2211D01*
X16928Y1240D02*
X17667Y502D01*
X17025D02*
X17683Y1159D01*
X17394Y1447D02*
Y2553D01*
X16536Y848D02*
X17112Y1424D01*
X15883Y848D02*
X16230Y502D01*
X15588D02*
X15935Y848D01*
X16307Y502D02*
X17394Y1589D01*
X16569Y881D02*
X16948Y502D01*
X15502Y13346D02*
X16151Y13996D01*
X15502Y12628D02*
X16722Y13848D01*
X15252Y13402D02*
X15502D01*
X15252Y13693D02*
X19046Y9899D01*
X15502Y12725D02*
X18687Y9539D01*
X15502Y11910D02*
X17441Y13848D01*
X15252Y13815D02*
X15792Y14355D01*
X13998Y13402D02*
X14248D01*
X13755Y14471D02*
X14248Y13978D01*
X15252Y14412D02*
X19498Y10165D01*
X14120Y13402D02*
X14248Y13530D01*
X13998Y13280D02*
X14120Y13402D01*
X15502Y11948D02*
Y12052D01*
Y11351D02*
Y11948D01*
Y12052D01*
Y12006D02*
X17356Y10152D01*
X14749Y10598D02*
X15748Y9600D01*
X14036Y10598D02*
X15598Y9036D01*
X13998Y10598D02*
X14749D01*
X13797Y9486D02*
X14829Y10519D01*
X13438Y9846D02*
X14191Y10598D01*
X13856Y8108D02*
X15547Y9800D01*
X13856Y9342D02*
X16385Y6812D01*
X13856Y8827D02*
X15188Y10159D01*
X13396Y14112D02*
X14106Y13402D01*
X13998Y11948D02*
Y12052D01*
Y13402D01*
Y10598D02*
Y11948D01*
X12979Y10106D02*
X13998Y11125D01*
Y11948D02*
Y12052D01*
X12895Y13894D02*
X13998Y12791D01*
X12177Y13894D02*
X13998Y12073D01*
X11822Y13894D02*
X13178D01*
X12261Y10106D02*
X13998Y11843D01*
X11822Y10106D02*
X13178D01*
X11144Y9428D02*
X11822Y10106D01*
X13178D02*
X13856Y9428D01*
Y8072D02*
Y9428D01*
X13142Y7394D02*
X13856Y8108D01*
X13178Y7394D02*
X13856Y8072D01*
X13092Y10106D02*
X13856Y9342D01*
X11822Y7394D02*
X13178D01*
X11144Y8072D02*
X11822Y7394D01*
X13856Y8623D02*
X16026Y6453D01*
X15248Y6402D02*
X15974D01*
X13772Y7989D02*
X15359Y6402D01*
X12211Y7394D02*
X15248Y4357D01*
X10559Y502D02*
X15248Y5190D01*
Y4948D02*
Y5052D01*
X6967Y502D02*
X15598Y9133D01*
X7686Y502D02*
X15598Y8414D01*
X2645Y13368D02*
X15512Y502D01*
X8404D02*
X15775Y7872D01*
X9123Y502D02*
X16134Y7513D01*
X9841Y502D02*
X15248Y5909D01*
Y3598D02*
X15458D01*
X15288D02*
X15458Y3428D01*
X15248Y3598D02*
Y4948D01*
X15458Y3151D02*
Y3598D01*
X15384Y848D02*
X16536D01*
X14870Y502D02*
X15300Y932D01*
X14808Y1424D02*
X15384Y848D01*
X502Y502D02*
X36498D01*
X14808Y2576D02*
X15384Y3151D01*
X11996Y502D02*
X15248Y3754D01*
X12715Y502D02*
X15458Y3245D01*
X11278Y502D02*
X15248Y4472D01*
X3152Y14298D02*
X14841Y2609D01*
X3151Y3870D02*
X13176Y13894D01*
X3151Y4588D02*
X12458Y13894D01*
X3152Y12143D02*
X14793Y502D01*
X3152Y11425D02*
X14075Y502D01*
X3105Y1668D02*
X13998Y12562D01*
X2704Y2704D02*
X14248Y14248D01*
X2704Y2704D02*
X14248Y14248D01*
X2931Y5086D02*
X11781Y13936D01*
X3004Y13727D02*
X14808Y1923D01*
X3063Y2345D02*
X13998Y13280D01*
X2838Y11020D02*
X13356Y502D01*
X15248Y5052D02*
Y6402D01*
Y4948D02*
Y5052D01*
X13413Y7629D02*
X15248Y5794D01*
X13433Y502D02*
X14808Y1877D01*
X14152Y502D02*
X14941Y1291D01*
X14808Y1424D02*
Y2576D01*
X2381Y10758D02*
X12638Y502D01*
X12929Y7394D02*
X15248Y5075D01*
X3152Y9269D02*
X11919Y502D01*
X6249D02*
X13142Y7394D01*
X5531Y502D02*
X12423Y7394D01*
X11402Y32248D02*
Y32748D01*
X11065Y32248D02*
X11311Y32002D01*
X10449D02*
X10696Y32248D01*
X11402Y31752D02*
Y32002D01*
Y31911D02*
X11561Y31752D01*
X11311Y32002D02*
X11402Y31911D01*
X10031Y32248D02*
X11402D01*
X10031Y32002D02*
X11402D01*
X10031D02*
Y32248D01*
X3151Y29733D02*
X11667Y38248D01*
X10346Y32248D02*
X10593Y32002D01*
X3151Y31888D02*
X9558Y38294D01*
X9271Y28294D02*
X10498Y27067D01*
X10036Y28248D02*
X10498Y27786D01*
X9948Y28248D02*
X10498D01*
X8252Y30751D02*
X8823Y30179D01*
X8252Y29804D02*
X8823Y30376D01*
X8644Y30544D02*
X8823D01*
X8252Y26931D02*
X9615Y28294D01*
X8644D02*
X9948D01*
X8252Y27649D02*
X8897Y28294D01*
X8644Y32503D02*
Y33642D01*
X8252Y32906D02*
X8644Y32513D01*
X8252Y31959D02*
X8619Y32327D01*
Y31772D02*
Y32478D01*
X8644Y30544D02*
Y31747D01*
X8252Y32188D02*
X8619Y31820D01*
X3069Y36652D02*
X7248Y32473D01*
X3151Y35133D02*
X7248Y31036D01*
X3151Y31654D02*
Y32806D01*
Y32260D02*
X7248Y28162D01*
X3151Y27578D02*
X7248Y31675D01*
X3151Y34415D02*
X7248Y30317D01*
X8823Y29706D02*
Y30544D01*
X8644Y29706D02*
X8823D01*
X8252Y29086D02*
X8644Y29479D01*
Y28294D02*
Y29706D01*
X8252Y28367D02*
X8644Y28760D01*
X8252Y29314D02*
X8644Y28921D01*
X8252Y31469D02*
X8644Y31077D01*
X8252Y30523D02*
X8644Y30915D01*
X8252Y31241D02*
X8644Y31634D01*
X3094Y31598D02*
X7248Y27444D01*
X8252Y30033D02*
X8644Y29640D01*
X3151Y29114D02*
Y30266D01*
X8364Y24888D02*
X10498Y27022D01*
X10248Y25876D02*
X10498Y26126D01*
Y28248D01*
X10248Y25162D02*
X10662Y24748D01*
X10248Y25124D02*
X10624Y24748D01*
X8724Y24529D02*
X10498Y26304D01*
X8252Y28596D02*
X10498Y26349D01*
X8252Y26212D02*
X10288Y28248D01*
X8252Y27877D02*
X10251Y25878D01*
X8252Y26440D02*
X11248Y23444D01*
X8252Y25722D02*
X11248Y22725D01*
X8252Y25494D02*
X10498Y27741D01*
X10662Y24748D02*
X11248Y24162D01*
X10160Y23092D02*
X11248Y24180D01*
X10624Y24748D02*
X11248D01*
Y22004D02*
Y24748D01*
X10879Y22374D02*
X11248Y22743D01*
X10520Y22733D02*
X11248Y23462D01*
X8252Y25004D02*
X11248Y22007D01*
X9801Y23451D02*
X11098Y24748D01*
X9442Y23810D02*
X10502Y24871D01*
X3151Y25075D02*
X11721Y16505D01*
X3151Y24356D02*
X11362Y16146D01*
X8252Y25001D02*
X11248Y22004D01*
X8252Y27159D02*
X10248Y25162D01*
Y25124D02*
Y25876D01*
X7248Y25001D02*
Y33249D01*
X8252Y25001D02*
Y33249D01*
X9083Y24170D02*
X10248Y25335D01*
X3151Y21830D02*
X7248Y25927D01*
X3151Y26859D02*
X7248Y30956D01*
X3151Y30104D02*
X7248Y26007D01*
X3151Y26574D02*
Y27726D01*
Y24704D02*
X7248Y28801D01*
X3151Y22549D02*
X7248Y26646D01*
X3151Y29386D02*
X7248Y25288D01*
Y24499D02*
Y25001D01*
Y24499D02*
X7499Y24248D01*
X7248Y24499D02*
Y25001D01*
Y24499D02*
X7499Y24248D01*
X3152Y14646D02*
X10126Y21621D01*
X3151Y21494D02*
Y22646D01*
X3151Y19675D02*
X7612Y24136D01*
X3151Y18956D02*
X7971Y23776D01*
X3151Y24034D02*
Y25186D01*
Y16801D02*
X9049Y22699D01*
X3151Y17520D02*
X8690Y23058D01*
X2699Y30718D02*
X10230Y38248D01*
X3058Y30358D02*
X10948Y38248D01*
X2710Y36293D02*
X7248Y31754D01*
X2866Y28011D02*
X7248Y32393D01*
X2735Y31238D02*
X7248Y26725D01*
X2902Y33945D02*
X7248Y29599D01*
X2575Y31078D02*
X3151Y31654D01*
X1458Y31078D02*
X1695Y30842D01*
X848Y31689D02*
X1458Y31078D01*
X2511Y33618D02*
X7248Y28881D01*
X2438Y28302D02*
X7248Y33112D01*
X502Y29957D02*
X1623Y31078D01*
X2177D02*
X2414Y30842D01*
X2575D02*
X3151Y30266D01*
X2105Y30842D02*
X2342Y31078D01*
X2575Y28538D02*
X3151Y29114D01*
X2576Y28302D02*
X3151Y27726D01*
X1843Y28538D02*
X2080Y28302D01*
X1424Y30842D02*
X2575D01*
X1424Y28538D02*
X2575D01*
X1424Y31078D02*
X2575D01*
X1720Y28302D02*
X1957Y28538D01*
X1424Y28302D02*
X2576D01*
X848Y27726D02*
X1424Y28302D01*
X848Y31654D02*
X1424Y31078D01*
X848Y30266D02*
X1424Y30842D01*
X848Y31654D02*
Y32806D01*
X848Y29114D02*
Y30266D01*
X502Y29880D02*
X848Y29534D01*
X502Y30598D02*
X848Y30252D01*
X502Y32112D02*
X848Y32458D01*
X502Y32035D02*
X848Y31689D01*
X502Y32754D02*
X848Y32407D01*
X502Y30675D02*
X1164Y31338D01*
X502Y31317D02*
X1200Y30618D01*
X502Y31394D02*
X848Y31740D01*
X848Y29114D02*
X1424Y28538D01*
X502Y27083D02*
X848Y27430D01*
X502Y27725D02*
X848Y27378D01*
Y26574D02*
Y27726D01*
X502Y26365D02*
X848Y26711D01*
X502Y27006D02*
X848Y26660D01*
X502Y29162D02*
X1393Y28270D01*
X502Y28520D02*
X972Y28990D01*
X502Y29238D02*
X848Y29585D01*
X502Y27802D02*
X1331Y28631D01*
X502Y28443D02*
X1034Y27911D01*
X2674Y25663D02*
X7248Y30238D01*
X3033Y25304D02*
X7248Y29519D01*
X2576Y25762D02*
X3151Y25186D01*
X2841Y22957D02*
X7248Y27364D01*
X2648Y20609D02*
X7248Y25209D01*
X2928Y28891D02*
X7248Y24570D01*
X2576Y25998D02*
X3151Y26574D01*
X1424Y25762D02*
X2576D01*
X1424Y25998D02*
X2576D01*
X2387Y23222D02*
X7248Y28083D01*
X2228Y25998D02*
X2465Y25762D01*
X2054D02*
X2291Y25998D01*
X2953Y23836D02*
X11144Y15645D01*
X2815Y17902D02*
X8330Y23417D01*
X3007Y20250D02*
X7253Y24495D01*
X2594Y23477D02*
X11144Y14927D01*
X2982Y15195D02*
X9767Y21980D01*
X2623Y15555D02*
X9408Y22340D01*
X2576Y23458D02*
X3151Y24034D01*
X1424Y23222D02*
X2576D01*
X1424Y23458D02*
X2576D01*
X1894D02*
X2131Y23222D01*
X2576D02*
X3151Y22646D01*
X1669Y23222D02*
X1906Y23458D01*
X848Y26660D02*
X1509Y25998D01*
X1746Y25762D01*
X848Y26574D02*
X1424Y25998D01*
X848Y25186D02*
X1424Y25762D01*
X848Y24034D02*
Y25186D01*
X502Y24209D02*
X848Y24556D01*
X502Y26288D02*
X1226Y25564D01*
X502Y25646D02*
X1139Y26284D01*
X502Y25569D02*
X867Y25204D01*
X502Y24928D02*
X1572Y25998D01*
X502Y24851D02*
X848Y24504D01*
X502Y502D02*
Y66498D01*
X848Y24034D02*
X1424Y23458D01*
X848Y22646D02*
X1424Y23222D01*
X502Y22054D02*
X848Y22401D01*
Y21494D02*
Y22646D01*
X502Y21336D02*
X848Y21682D01*
X502Y21977D02*
X848Y21631D01*
X502Y24133D02*
X1418Y23216D01*
X502Y23414D02*
X1059Y22857D01*
X502Y23491D02*
X946Y23936D01*
X502Y22773D02*
X1306Y23577D01*
X502Y22696D02*
X848Y22349D01*
X3152Y13928D02*
X10486Y21262D01*
X3149Y12488D02*
X11204Y20544D01*
X3151Y16414D02*
Y17566D01*
X3152Y11773D02*
X11563Y20184D01*
X3151Y16454D02*
X11144Y8461D01*
X3151Y17172D02*
X11144Y9179D01*
X2576Y18142D02*
X3151Y17566D01*
X2576Y15838D02*
X3151Y16414D01*
X2576Y20918D02*
X3151Y21494D01*
X2979Y18782D02*
X11739Y10022D01*
X2620Y18423D02*
X11379Y9663D01*
X2790Y12848D02*
X10845Y20903D01*
X11144Y14572D02*
Y15928D01*
X3152Y11334D02*
Y12486D01*
Y13874D02*
Y15026D01*
Y8794D02*
Y9946D01*
X2576Y8218D02*
X3152Y8794D01*
X2576Y10522D02*
X3152Y9946D01*
X2567Y15602D02*
X3152Y15017D01*
X2522Y13298D02*
X3152Y13928D01*
X2576Y15602D02*
X3152Y15026D01*
X2576Y13062D02*
X3152Y12486D01*
X2576Y10758D02*
X3152Y11334D01*
X2576Y13298D02*
X3152Y13874D01*
X2516Y20682D02*
X3151Y20046D01*
Y18954D02*
Y20106D01*
X2575Y20682D02*
X3151Y20106D01*
X2573Y18378D02*
X3151Y18956D01*
X2575Y18378D02*
X3151Y18954D01*
X2336Y18142D02*
X2573Y18378D01*
X2003Y20682D02*
X2239Y20918D01*
X2279D02*
X2516Y20682D01*
X1560Y20918D02*
X1797Y20682D01*
X1618Y18142D02*
X1855Y18378D01*
X1945D02*
X2182Y18142D01*
X1612Y15838D02*
X1848Y15602D01*
X2330Y15838D02*
X2567Y15602D01*
X1996Y13298D02*
X2233Y13062D01*
X1952Y15602D02*
X2188Y15838D01*
X2285Y13062D02*
X2522Y13298D01*
X1901Y10522D02*
X2137Y10758D01*
X1663D02*
X1899Y10522D01*
X1424Y13298D02*
X2576D01*
X1424Y13062D02*
X2576D01*
X1424Y15602D02*
X2576D01*
X1424Y10758D02*
X2576D01*
X1424Y10522D02*
X2576D01*
X1567Y13062D02*
X1804Y13298D01*
X3151Y6744D02*
X11144Y14737D01*
Y8072D02*
Y9428D01*
X3151Y6254D02*
Y7406D01*
X4094Y502D02*
X11404Y7812D01*
X4812Y502D02*
X11764Y7453D01*
X3375Y502D02*
X11144Y8271D01*
X3123Y7434D02*
X11144Y15455D01*
X2568Y5442D02*
X11421Y14295D01*
X2576Y7982D02*
X3151Y7406D01*
X2657Y502D02*
X11144Y8989D01*
X3030Y8673D02*
X11201Y502D01*
X2671Y8313D02*
X10483Y502D01*
X3055Y3618D02*
X6172Y502D01*
X3105Y2132D02*
X4735Y502D01*
X3105Y1413D02*
X4017Y502D01*
X3151Y7114D02*
X9764Y502D01*
X3151Y6396D02*
X9046Y502D01*
X3151Y4241D02*
X6890Y502D01*
X2432Y5678D02*
X7609Y502D01*
X2576Y3138D02*
X3151Y3714D01*
X2576Y5678D02*
X3151Y6254D01*
X2863Y5966D02*
X8327Y502D01*
X2696Y3259D02*
X5454Y502D01*
X2854Y946D02*
X3298Y502D01*
X2047Y8218D02*
X2284Y7982D01*
X2234D02*
X2471Y8218D01*
X1850Y5442D02*
X2086Y5678D01*
X2576Y5442D02*
X3151Y4866D01*
Y3714D02*
Y4866D01*
X2098Y3138D02*
X2381Y2856D01*
X1424Y8218D02*
X2576D01*
X1424Y7982D02*
X2576D01*
X1516D02*
X1753Y8218D01*
X1424Y5678D02*
X2576D01*
X1424Y5442D02*
X2576D01*
X1714Y5678D02*
X1950Y5442D01*
X2552Y2856D02*
X3105Y2303D01*
Y1197D02*
Y2303D01*
X2552Y644D02*
X3105Y1197D01*
X2437Y644D02*
X2580Y502D01*
X1447Y2856D02*
X2552D01*
X1447Y644D02*
X2552D01*
X2137Y2856D02*
X2420Y3138D01*
X1938Y502D02*
X2081Y644D01*
X1719D02*
X1862Y502D01*
X1424Y20918D02*
X2576D01*
X1424Y20682D02*
X2575D01*
X848Y21494D02*
X1424Y20918D01*
X1424Y18378D02*
X2575D01*
X848Y17566D02*
X1424Y18142D01*
X848Y18954D02*
X1424Y18378D01*
X502Y21259D02*
X1251Y20509D01*
X848Y20106D02*
X1424Y20682D01*
X502Y20617D02*
X1113Y21229D01*
X502Y19899D02*
X1521Y20918D01*
X502Y19104D02*
X1464Y18142D01*
X502Y17744D02*
X1280Y18522D01*
X1424Y18142D02*
X2576D01*
X1424Y15838D02*
X2576D01*
X848Y15026D02*
X1424Y15602D01*
X848Y12486D02*
X1424Y13062D01*
X848Y11334D02*
X1424Y10758D01*
X848Y13874D02*
X1424Y13298D01*
X848Y16414D02*
X1424Y15838D01*
X502Y14870D02*
X1470Y15838D01*
X502Y16230D02*
X1277Y15455D01*
X502Y14075D02*
X1515Y13062D01*
X502Y12715D02*
X1255Y13468D01*
X502Y13356D02*
X1110Y12748D01*
X502Y17025D02*
X848Y17372D01*
X502Y16948D02*
X848Y16602D01*
X848Y18954D02*
Y20106D01*
X502Y16307D02*
X848Y16653D01*
X502Y15588D02*
X1088Y16175D01*
X848Y16414D02*
Y17566D01*
X502Y20540D02*
X892Y20150D01*
X502Y19181D02*
X848Y19527D01*
X502Y19822D02*
X848Y19476D01*
X502Y18462D02*
X921Y18881D01*
X502Y18385D02*
X1085Y17802D01*
X502Y17667D02*
X848Y17320D01*
X502Y11996D02*
X848Y12343D01*
X502Y11919D02*
X848Y11573D01*
Y13874D02*
Y15026D01*
X502Y11278D02*
X848Y11625D01*
X502Y10559D02*
X1062Y11120D01*
X848Y11334D02*
Y12486D01*
X502Y15512D02*
X918Y15095D01*
X502Y14152D02*
X848Y14498D01*
X502Y14793D02*
X848Y14446D01*
X502Y13433D02*
X896Y13827D01*
X502Y12638D02*
X848Y12291D01*
Y9946D02*
X1424Y10522D01*
X848Y8794D02*
X1424Y8218D01*
X848Y7406D02*
X1424Y7982D01*
X848Y7314D02*
X1516Y7982D01*
X848Y4866D02*
X1424Y5442D01*
X848Y6254D02*
X1424Y5678D01*
X502Y9841D02*
X1422Y10761D01*
X502Y9046D02*
X1566Y7982D01*
X502Y11201D02*
X1303Y10400D01*
X502Y6172D02*
X1328Y5346D01*
X502Y4812D02*
X1396Y5706D01*
X502Y7686D02*
X1229Y8413D01*
X1424Y3138D02*
X2576D01*
X894Y2303D02*
X1447Y2856D01*
X894Y1197D02*
X1447Y644D01*
X1220Y502D02*
X1405Y686D01*
X502Y4017D02*
X1663Y2856D01*
X848Y3714D02*
X1424Y3138D01*
X502Y2657D02*
X1204Y3359D01*
X502Y3298D02*
X1196Y2604D01*
X502Y1938D02*
X1702Y3138D01*
X502Y1143D02*
X1143Y502D01*
X848Y8794D02*
Y9946D01*
X502Y6890D02*
X848Y6544D01*
X502Y6967D02*
X848Y7314D01*
X502Y6249D02*
X848Y6596D01*
X502Y5531D02*
X1037Y6066D01*
X848Y6254D02*
Y7406D01*
X502Y10483D02*
X943Y10041D01*
X502Y9123D02*
X848Y9469D01*
X502Y9764D02*
X848Y9417D01*
X502Y8404D02*
X870Y8773D01*
X502Y8327D02*
X1136Y7693D01*
X502Y7609D02*
X848Y7262D01*
X502Y1862D02*
X894Y1469D01*
X502Y1220D02*
X894Y1612D01*
X848Y3714D02*
Y4866D01*
X502Y502D02*
X1046Y1046D01*
X502Y502D02*
X1046Y1046D01*
X894Y1197D02*
Y2303D01*
X502Y5454D02*
X969Y4986D01*
X502Y4094D02*
X848Y4440D01*
X502Y4735D02*
X848Y4389D01*
X502Y2580D02*
X894Y2188D01*
X502Y3375D02*
X848Y3722D01*
D11*
X25697Y49000D02*
X25812Y48885D01*
X17750Y49000D02*
X25697D01*
X17250Y49500D02*
X17750Y49000D01*
X17250Y49500D02*
Y51000D01*
X23750Y47675D02*
X23780Y47645D01*
X25782D01*
X25812Y47615D01*
Y48885D01*
Y50155D01*
X9400Y55750D02*
X9450Y55700D01*
X12480D01*
X24520D01*
D12*
X28000Y45000D02*
X30000Y43000D01*
Y41175D02*
Y43000D01*
X29750Y40050D02*
X29975Y39825D01*
X29650Y40050D02*
X29750D01*
X28525Y41175D02*
X29650Y40050D01*
X28500Y41175D02*
X28525D01*
X27000D02*
X28500D01*
X23000Y44250D02*
X23750Y45000D01*
X23000Y41175D02*
Y44250D01*
X21500Y41175D02*
X23000D01*
X29750Y39600D02*
X29975Y39825D01*
X29750Y39575D02*
Y39600D01*
X29500Y39325D02*
X29750Y39575D01*
X29500Y38500D02*
Y39325D01*
X28475Y39825D02*
X28500D01*
X28250Y39600D02*
X28475Y39825D01*
X28250Y38500D02*
Y39600D01*
X27000Y38500D02*
Y39825D01*
X9325Y32125D02*
Y33000D01*
Y31250D02*
Y32125D01*
X15000Y20825D02*
X16750D01*
X14425D02*
X15000D01*
X22750Y39600D02*
X22975Y39825D01*
X22093Y38918D02*
X22750Y39575D01*
X22093Y38593D02*
Y38918D01*
X22750Y39575D02*
Y39600D01*
X22000Y38500D02*
X22093Y38593D01*
X22975Y39825D02*
X23000D01*
X23850Y39100D02*
X24600D01*
X25000Y39500D01*
X23250Y38500D02*
X23850Y39100D01*
X21379Y39704D02*
X21500Y39825D01*
X21379Y39012D02*
Y39704D01*
X21000Y38634D02*
X21379Y39012D01*
X21000Y38500D02*
Y38634D01*
X9325Y29000D02*
Y31250D01*
X6250Y55750D02*
X7600D01*
X27675Y34750D02*
X27750Y34825D01*
Y36750D01*
X27675Y29500D02*
Y31000D01*
Y27250D02*
Y29500D01*
X27750Y26000D02*
Y27175D01*
X27675Y27250D02*
X27750Y27175D01*
X20500Y26000D02*
X25000D01*
X26100Y31000D02*
X26325Y30775D01*
X19250Y27250D02*
X20500Y26000D01*
X19250Y27250D02*
Y28250D01*
X22250Y12675D02*
Y13750D01*
X13750Y22000D02*
X13755Y21995D01*
Y21495D02*
X14425Y20825D01*
X13755Y21495D02*
Y21995D01*
X16750Y20825D02*
X18500D01*
X25792Y46325D02*
X25812Y46345D01*
X23750Y46325D02*
X25792D01*
X23750Y45000D02*
Y46325D01*
X10675Y28975D02*
Y29000D01*
Y28975D02*
X11000Y28650D01*
Y25500D02*
Y28650D01*
X26250Y27175D02*
X26325Y27250D01*
X26250Y26000D02*
Y27175D01*
X12250Y28750D02*
X13000Y29500D01*
X12250Y22000D02*
Y28750D01*
X13000Y29500D02*
X19000D01*
X12250Y22000D02*
X14500Y19750D01*
X11750Y29250D02*
X12500Y30000D01*
X11750Y21750D02*
Y29250D01*
X12500Y30000D02*
X19500D01*
X11750Y21750D02*
X14320Y19180D01*
X15000Y29000D02*
X18500D01*
X14500Y28500D02*
X15000Y29000D01*
X14500Y26750D02*
Y28500D01*
Y26750D02*
X15500Y25750D01*
X10675Y31250D02*
X14750D01*
X10675Y33000D02*
Y33025D01*
X10900Y33250D01*
X14750D01*
X19500Y30000D02*
X21250Y28250D01*
X19000Y29500D02*
X20250Y28250D01*
X18500Y29000D02*
X19250Y28250D01*
X14500Y19750D02*
X23500D01*
X14320Y19180D02*
X23320D01*
X23500Y19750D02*
X26750Y16500D01*
X21000Y5675D02*
X21575Y6250D01*
X25389D01*
X26750Y7611D01*
X25149Y6750D02*
X26149Y7750D01*
X23320Y19180D02*
X26149Y16351D01*
X17075Y6750D02*
X25149D01*
X26149Y7750D02*
Y16351D01*
X16000Y5675D02*
X17075Y6750D01*
X26750Y7611D02*
Y16500D01*
X15500Y25750D02*
X17750D01*
X18500Y25000D01*
Y22175D02*
Y25000D01*
X15250Y28250D02*
X16750Y26750D01*
X31180Y8130D02*
Y12867D01*
X16750Y26750D02*
X17297D01*
X31180Y12867D01*
X18250Y27155D02*
Y28250D01*
Y27155D02*
X32140Y13265D01*
X33090Y11910D02*
X35020D01*
X32140Y12860D02*
X33090Y11910D01*
X32140Y12860D02*
Y13265D01*
X31820Y12680D02*
X31850Y12650D01*
X31820Y12680D02*
Y13133D01*
X31850Y11600D02*
Y12650D01*
X17346Y27607D02*
X31820Y13133D01*
X17346Y27607D02*
Y28154D01*
X31180Y8130D02*
X35020Y4290D01*
X16250Y28250D02*
X31500Y13000D01*
Y10350D02*
Y13000D01*
Y10350D02*
X35020Y6830D01*
X31850Y11600D02*
X33990Y9460D01*
X34930D01*
X35020Y9370D01*
X17250Y28250D02*
X17346Y28154D01*
X34961Y9429D02*
X35020Y9370D01*
X15000Y22175D02*
X15025D01*
X15250Y22400D01*
Y22425D01*
X16250Y23425D01*
Y24500D01*
X16750Y22175D02*
X16775D01*
X17000Y22400D01*
Y22425D01*
X17500Y22925D01*
Y24500D01*
X15960Y2000D02*
Y4285D01*
X16000Y4325D01*
X21040Y2000D02*
Y4285D01*
X21000Y4325D02*
X21040Y4285D01*
X14250Y40750D02*
X15425D01*
X15500Y40675D01*
X17000D01*
X9250Y39605D02*
Y41250D01*
X9095Y39450D02*
X9250Y39605D01*
X10500Y48500D02*
X11825D01*
X13175D02*
X14500D01*
X13175Y48475D02*
Y48500D01*
X12905Y48205D02*
X13175Y48475D01*
X12905Y46550D02*
Y48205D01*
X12732Y39277D02*
X13000Y39545D01*
X7750Y33500D02*
X12732Y38482D01*
X7750Y24750D02*
Y33500D01*
X12732Y38482D02*
Y39277D01*
X7750Y24750D02*
X14750Y17750D01*
Y12675D02*
Y17750D01*
X24500Y8750D02*
Y15250D01*
X20000Y8750D02*
Y15250D01*
X22225Y11325D02*
X22250D01*
X22000Y11100D02*
X22225Y11325D01*
X22000Y10750D02*
Y11100D01*
X20000Y8750D02*
X22000Y10750D01*
X14750Y11325D02*
X14775D01*
X17000Y9100D01*
Y8750D02*
Y9100D01*
X26325Y29500D02*
Y29525D01*
X26100Y29750D02*
X26325Y29525D01*
X26075Y29750D02*
X26100D01*
X25575Y30250D02*
X26075Y29750D01*
X22000Y30250D02*
X25575D01*
X26325Y30750D02*
Y30775D01*
X26075Y31000D02*
X26100D01*
X25825Y31250D02*
X26075Y31000D01*
X22000Y31250D02*
X25825D01*
X25000Y34750D02*
X26325D01*
X9095Y46550D02*
X9250Y46395D01*
Y44750D02*
Y46395D01*
X15500Y38720D02*
Y39325D01*
X15970Y38250D02*
X16000D01*
X15500Y38720D02*
X15970Y38250D01*
X11750Y44750D02*
Y46435D01*
X11635Y46550D02*
X11750Y46435D01*
X10500Y44750D02*
Y46415D01*
X10365Y46550D02*
X10500Y46415D01*
X10365Y39450D02*
X10500Y39585D01*
Y41250D01*
X11635Y39450D02*
X11750Y39565D01*
Y41250D01*
X13000Y39545D02*
Y41250D01*
X17000Y38750D02*
Y39325D01*
X17750Y38000D02*
X19250D01*
X17000Y38750D02*
X17750Y38000D01*
D17*
X30000Y41175D02*
D03*
Y39825D02*
D03*
X28500Y41175D02*
D03*
Y39825D02*
D03*
X27000Y41175D02*
D03*
Y39825D02*
D03*
X23000D02*
D03*
Y41175D02*
D03*
X21500D02*
D03*
Y39825D02*
D03*
X15500Y39325D02*
D03*
Y40675D02*
D03*
X15000Y22175D02*
D03*
Y20825D02*
D03*
X17000Y39325D02*
D03*
Y40675D02*
D03*
X16750Y22175D02*
D03*
Y20825D02*
D03*
X23750Y47675D02*
D03*
Y46325D02*
D03*
X21000Y4325D02*
D03*
Y5675D02*
D03*
X16000Y4325D02*
D03*
Y5675D02*
D03*
X22250Y12675D02*
D03*
Y11325D02*
D03*
X14750Y12675D02*
D03*
Y11325D02*
D03*
X18500Y22175D02*
D03*
Y20825D02*
D03*
D18*
X28500Y49925D02*
Y50179D01*
Y46321D02*
Y46575D01*
X26574Y46345D02*
X26829D01*
X25812Y45766D02*
Y46020D01*
X27573Y45427D02*
X27753Y45247D01*
X28247D02*
X28427Y45427D01*
X27573Y44573D02*
X27753Y44753D01*
X23997D02*
X24177Y44573D01*
X23997Y45247D02*
X24177Y45427D01*
X23146Y46325D02*
X23400D01*
X23323Y45427D02*
X23503Y45247D01*
X29396Y41175D02*
X29650D01*
X30350D02*
X30604D01*
X26396Y39825D02*
X26650D01*
X27350D02*
X27604D01*
X27247Y38747D02*
X27427Y38927D01*
X27247Y38253D02*
X27427Y38073D01*
X26573D02*
X26753Y38253D01*
X26573Y38927D02*
X26753Y38747D01*
X27997Y36997D02*
X28177Y37177D01*
X28000Y31000D02*
X28254D01*
X28000Y34750D02*
X28254D01*
X27997Y36503D02*
X28177Y36323D01*
X27323D02*
X27503Y36503D01*
X27323Y37177D02*
X27503Y36997D01*
X27675Y34146D02*
Y34400D01*
Y31350D02*
Y31604D01*
X23350Y41175D02*
X23604D01*
X21500Y41500D02*
Y41754D01*
X20896Y41175D02*
X21150D01*
X34310Y2460D02*
X34489Y2280D01*
X35550Y1220D02*
X35730Y1040D01*
X35550Y2280D02*
X35730Y2460D01*
X34310Y1040D02*
X34489Y1220D01*
X28000Y29500D02*
X28254D01*
X28000Y27250D02*
X28254D01*
X27323Y26427D02*
X27503Y26247D01*
X27997D02*
X28177Y26427D01*
X27323Y25573D02*
X27503Y25753D01*
X27997D02*
X28177Y25573D01*
X22497Y16747D02*
X22677Y16927D01*
X22497Y16253D02*
X22677Y16073D01*
X19948Y22577D02*
X20128Y22398D01*
X21823Y16927D02*
X22003Y16747D01*
X21823Y16073D02*
X22003Y16253D01*
X19948Y21723D02*
X20128Y21903D01*
X20623D02*
X20803Y21723D01*
X22497Y13997D02*
X22677Y14177D01*
X22600Y12675D02*
X22854D01*
X22497Y13503D02*
X22677Y13323D01*
X28030Y2510D02*
X28210Y2690D01*
X28030Y1450D02*
X28210Y1270D01*
X26790Y2690D02*
X26969Y2510D01*
X26790Y1270D02*
X26969Y1450D01*
X21823Y14177D02*
X22003Y13997D01*
X21823Y13323D02*
X22003Y13503D01*
X21646Y12675D02*
X21900D01*
X17748Y52502D02*
X17927Y52323D01*
X16573Y53677D02*
X16752Y53498D01*
X17748D02*
X17927Y53677D01*
X16573Y52323D02*
X16752Y52502D01*
X11825Y48850D02*
Y49104D01*
X10747Y48747D02*
X10927Y48927D01*
X10073D02*
X10253Y48747D01*
X17000Y41000D02*
Y41254D01*
X17350Y40675D02*
X17604D01*
X15500Y41000D02*
Y41254D01*
X14497Y40997D02*
X14677Y41177D01*
X13823Y40323D02*
X14003Y40503D01*
X13823Y41177D02*
X14003Y40997D01*
X14497Y40503D02*
X14677Y40323D01*
X11825Y47896D02*
Y48150D01*
X10073Y48073D02*
X10253Y48253D01*
X10747D02*
X10927Y48073D01*
X7600Y56375D02*
Y56629D01*
X5823Y56177D02*
X6003Y55997D01*
X6497D02*
X6677Y56177D01*
X7900Y55750D02*
X8154D01*
X7600Y54871D02*
Y55125D01*
X5823Y55323D02*
X6003Y55503D01*
X6497D02*
X6677Y55323D01*
X9497Y41497D02*
X9677Y41677D01*
X9497Y41003D02*
X9677Y40823D01*
X8823D02*
X9003Y41003D01*
X8823Y41677D02*
X9003Y41497D01*
X8516Y39450D02*
X8770D01*
X9095Y38396D02*
Y38650D01*
X9325Y33350D02*
Y33604D01*
X8746Y33000D02*
X9000D01*
X18747Y31247D02*
X18927Y31427D01*
X18747Y30753D02*
X18927Y30573D01*
X18073D02*
X18253Y30753D01*
X18073Y31427D02*
X18253Y31247D01*
X18850Y20825D02*
X19104D01*
X13997Y22247D02*
X14177Y22427D01*
X13323D02*
X13503Y22247D01*
X11613Y16137D02*
X11793Y15957D01*
X13207D02*
X13387Y16137D01*
X13207Y14543D02*
X13387Y14363D01*
X11613D02*
X11793Y14543D01*
X19030Y2530D02*
X19210Y2710D01*
X19030Y1470D02*
X19210Y1290D01*
X17790D02*
X17970Y1470D01*
X17790Y2710D02*
X17970Y2530D01*
X13207Y9457D02*
X13387Y9637D01*
X13207Y8043D02*
X13387Y7863D01*
X11613D02*
X11793Y8043D01*
X11613Y9637D02*
X11793Y9457D01*
X8746Y29000D02*
X9000D01*
X9325Y28396D02*
Y28650D01*
X8746Y31250D02*
X9000D01*
X2530Y2280D02*
X2710Y2460D01*
X2530Y1220D02*
X2710Y1040D01*
X1290Y2460D02*
X1469Y2280D01*
X1290Y1040D02*
X1469Y1220D01*
D19*
X21040Y2000D02*
D03*
X18500D02*
D03*
X15960Y2000D02*
D03*
X27500Y4520D02*
D03*
Y1980D02*
D03*
X2000Y4290D02*
D03*
X2000Y1750D02*
D03*
X1999Y50010D02*
D03*
Y47470D02*
D03*
X1999Y44930D02*
D03*
X1999Y42390D02*
D03*
Y52550D02*
D03*
X1999Y65250D02*
D03*
Y62710D02*
D03*
Y60170D02*
D03*
X1999Y57630D02*
D03*
X1999Y55090D02*
D03*
X2000Y37310D02*
D03*
Y34770D02*
D03*
X1999Y32230D02*
D03*
X2000Y29690D02*
D03*
Y39850D02*
D03*
X2000Y24610D02*
D03*
Y22070D02*
D03*
X2000Y19530D02*
D03*
X2000Y16990D02*
D03*
Y27150D02*
D03*
X2000Y11910D02*
D03*
Y9370D02*
D03*
X2000Y6830D02*
D03*
X2000Y14450D02*
D03*
X35020Y4290D02*
D03*
X35020Y1750D02*
D03*
X35019Y50010D02*
D03*
Y47470D02*
D03*
X35019Y44930D02*
D03*
X35019Y42390D02*
D03*
Y52550D02*
D03*
X35019Y65250D02*
D03*
Y62710D02*
D03*
Y60170D02*
D03*
X35019Y57630D02*
D03*
X35019Y55090D02*
D03*
X35020Y37310D02*
D03*
Y34770D02*
D03*
X35019Y32230D02*
D03*
X35020Y29690D02*
D03*
Y39850D02*
D03*
X35020Y24610D02*
D03*
Y22070D02*
D03*
X35020Y19530D02*
D03*
X35020Y16990D02*
D03*
Y27150D02*
D03*
X35020Y11910D02*
D03*
Y9370D02*
D03*
X35020Y6830D02*
D03*
X35020Y14450D02*
D03*
D20*
X12480Y55700D02*
D03*
X24520D02*
D03*
D21*
X17250Y53000D02*
D03*
X19750D02*
D03*
Y51000D02*
D03*
D22*
X17250D02*
D03*
D23*
X24500Y15250D02*
D03*
Y8750D02*
D03*
X20000Y15250D02*
D03*
Y8750D02*
D03*
X17000Y15250D02*
D03*
Y8750D02*
D03*
X12500Y15250D02*
D03*
Y8750D02*
D03*
D24*
X25000Y41500D02*
D03*
X28250Y38500D02*
D03*
X27000D02*
D03*
X23250D02*
D03*
X22000D02*
D03*
X21000D02*
D03*
X9325Y32125D02*
D03*
X6250Y55750D02*
D03*
X22250Y16500D02*
D03*
X20375Y22150D02*
D03*
X27750Y36750D02*
D03*
Y26000D02*
D03*
X25000D02*
D03*
X22250Y13750D02*
D03*
X13750Y22000D02*
D03*
X28000Y45000D02*
D03*
X33000Y50250D02*
D03*
X23750Y45000D02*
D03*
X26250Y26000D02*
D03*
X11000Y25500D02*
D03*
X14750Y31250D02*
D03*
X18500Y31000D02*
D03*
X21250Y28250D02*
D03*
X20250D02*
D03*
X19250D02*
D03*
X17500Y24500D02*
D03*
X16250D02*
D03*
X15250Y28250D02*
D03*
X18250D02*
D03*
X17250D02*
D03*
X16250D02*
D03*
X14250Y40750D02*
D03*
X9250Y41250D02*
D03*
X10500Y48500D02*
D03*
X14500D02*
D03*
X28500Y48250D02*
D03*
X22000Y30250D02*
D03*
Y31250D02*
D03*
X29500Y38500D02*
D03*
X25000Y34750D02*
D03*
X14750Y33250D02*
D03*
X9250Y44750D02*
D03*
X16000Y38250D02*
D03*
X19250Y38000D02*
D03*
X13000Y41250D02*
D03*
X11750D02*
D03*
X10500D02*
D03*
Y44750D02*
D03*
X11750D02*
D03*
D25*
X25000Y41500D02*
D03*
Y39500D02*
D03*
D26*
X12905Y39450D02*
D03*
X11635D02*
D03*
X10365D02*
D03*
X9095D02*
D03*
Y46550D02*
D03*
X10365D02*
D03*
X11635D02*
D03*
X12905D02*
D03*
D27*
X10675Y31250D02*
D03*
X9325D02*
D03*
X10675Y29000D02*
D03*
X9325D02*
D03*
X26325Y34750D02*
D03*
X27675D02*
D03*
X10675Y33000D02*
D03*
X9325D02*
D03*
X26325Y29500D02*
D03*
X27675D02*
D03*
X26325Y27250D02*
D03*
X27675D02*
D03*
X13175Y48500D02*
D03*
X11825D02*
D03*
X26325Y31000D02*
D03*
X27675D02*
D03*
D28*
X7600Y55750D02*
D03*
X9400D02*
D03*
D29*
X25812Y46345D02*
D03*
Y47615D02*
D03*
Y48885D02*
D03*
Y50155D02*
D03*
X31188D02*
D03*
Y48885D02*
D03*
Y47615D02*
D03*
Y46345D02*
D03*
D30*
X28500Y48250D02*
D03*
D31*
X31283Y50250D02*
X33000D01*
X31188Y50155D02*
X31283Y50250D01*
X31188Y48885D02*
Y50155D01*
Y47615D02*
Y48885D01*
%TF.MD5,2b10615f80c227ec4927fcf96d8ef6d3*%
M02*
