%TF.GenerationSoftware,Altium Limited,Altium Designer,25.2.1 (25)*%
G04 Layer_Physical_Order=2*
G04 Layer_Color=36540*
%FSLAX43Y43*%
%MOMM*%
%TF.SameCoordinates,73B19FC9-5684-49D0-80EE-29C7FECE4A2C*%
%TF.FilePolarity,Positive*%
%TF.FileFunction,Copper,L2,Inr,Signal*%
%TF.Part,Single*%
G01*
G75*
%TA.AperFunction,ComponentPad*%
%ADD19C,1.500*%
%ADD20C,3.316*%
%ADD21C,1.408*%
%ADD22R,1.408X1.408*%
%ADD23C,2.000*%
%TA.AperFunction,ViaPad*%
%ADD24C,0.700*%
G36*
X36592Y408D02*
X408D01*
Y66592D01*
X36592D01*
Y408D01*
D02*
G37*
%LPC*%
G36*
X35157Y66300D02*
X34881D01*
X34614Y66228D01*
X34374Y66090D01*
X34179Y65895D01*
X34041Y65655D01*
X33969Y65388D01*
Y65112D01*
X34041Y64845D01*
X34179Y64605D01*
X34374Y64410D01*
X34614Y64271D01*
X34881Y64200D01*
X35157D01*
X35424Y64271D01*
X35664Y64410D01*
X35859Y64605D01*
X35998Y64845D01*
X36069Y65112D01*
Y65388D01*
X35998Y65655D01*
X35859Y65895D01*
X35664Y66090D01*
X35424Y66228D01*
X35157Y66300D01*
D02*
G37*
G36*
X2137D02*
X1861D01*
X1594Y66228D01*
X1354Y66090D01*
X1159Y65895D01*
X1021Y65655D01*
X949Y65388D01*
Y65112D01*
X1021Y64845D01*
X1159Y64605D01*
X1354Y64410D01*
X1594Y64271D01*
X1861Y64200D01*
X2137D01*
X2404Y64271D01*
X2644Y64410D01*
X2839Y64605D01*
X2978Y64845D01*
X3049Y65112D01*
Y65388D01*
X2978Y65655D01*
X2839Y65895D01*
X2644Y66090D01*
X2404Y66228D01*
X2137Y66300D01*
D02*
G37*
G36*
X35157Y63760D02*
X34881D01*
X34614Y63688D01*
X34374Y63550D01*
X34179Y63355D01*
X34041Y63115D01*
X33969Y62848D01*
Y62572D01*
X34041Y62305D01*
X34179Y62065D01*
X34374Y61870D01*
X34614Y61731D01*
X34881Y61660D01*
X35157D01*
X35424Y61731D01*
X35664Y61870D01*
X35859Y62065D01*
X35998Y62305D01*
X36069Y62572D01*
Y62848D01*
X35998Y63115D01*
X35859Y63355D01*
X35664Y63550D01*
X35424Y63688D01*
X35157Y63760D01*
D02*
G37*
G36*
X2137D02*
X1861D01*
X1594Y63688D01*
X1354Y63550D01*
X1159Y63355D01*
X1021Y63115D01*
X949Y62848D01*
Y62572D01*
X1021Y62305D01*
X1159Y62065D01*
X1354Y61870D01*
X1594Y61731D01*
X1861Y61660D01*
X2137D01*
X2404Y61731D01*
X2644Y61870D01*
X2839Y62065D01*
X2978Y62305D01*
X3049Y62572D01*
Y62848D01*
X2978Y63115D01*
X2839Y63355D01*
X2644Y63550D01*
X2404Y63688D01*
X2137Y63760D01*
D02*
G37*
G36*
X35157Y61220D02*
X34881D01*
X34614Y61148D01*
X34374Y61010D01*
X34179Y60815D01*
X34041Y60575D01*
X33969Y60308D01*
Y60032D01*
X34041Y59765D01*
X34179Y59525D01*
X34374Y59330D01*
X34614Y59192D01*
X34881Y59120D01*
X35157D01*
X35424Y59192D01*
X35664Y59330D01*
X35859Y59525D01*
X35998Y59765D01*
X36069Y60032D01*
Y60308D01*
X35998Y60575D01*
X35859Y60815D01*
X35664Y61010D01*
X35424Y61148D01*
X35157Y61220D01*
D02*
G37*
G36*
X2137D02*
X1861D01*
X1594Y61148D01*
X1354Y61010D01*
X1159Y60815D01*
X1021Y60575D01*
X949Y60308D01*
Y60032D01*
X1021Y59765D01*
X1159Y59525D01*
X1354Y59330D01*
X1594Y59192D01*
X1861Y59120D01*
X2137D01*
X2404Y59192D01*
X2644Y59330D01*
X2839Y59525D01*
X2978Y59765D01*
X3049Y60032D01*
Y60308D01*
X2978Y60575D01*
X2839Y60815D01*
X2644Y61010D01*
X2404Y61148D01*
X2137Y61220D01*
D02*
G37*
G36*
X35157Y58680D02*
X34881D01*
X34614Y58608D01*
X34374Y58470D01*
X34179Y58275D01*
X34041Y58035D01*
X33969Y57768D01*
Y57492D01*
X34041Y57225D01*
X34179Y56985D01*
X34374Y56790D01*
X34614Y56651D01*
X34881Y56580D01*
X35157D01*
X35424Y56651D01*
X35664Y56790D01*
X35859Y56985D01*
X35997Y57225D01*
X36069Y57492D01*
Y57768D01*
X35997Y58035D01*
X35859Y58275D01*
X35664Y58470D01*
X35424Y58608D01*
X35157Y58680D01*
D02*
G37*
G36*
X2137D02*
X1861D01*
X1594Y58608D01*
X1354Y58470D01*
X1159Y58275D01*
X1021Y58035D01*
X949Y57768D01*
Y57492D01*
X1021Y57225D01*
X1159Y56985D01*
X1354Y56790D01*
X1594Y56651D01*
X1861Y56580D01*
X2137D01*
X2404Y56651D01*
X2644Y56790D01*
X2839Y56985D01*
X2977Y57225D01*
X3049Y57492D01*
Y57768D01*
X2977Y58035D01*
X2839Y58275D01*
X2644Y58470D01*
X2404Y58608D01*
X2137Y58680D01*
D02*
G37*
G36*
X6370Y56354D02*
X6130D01*
X5938Y56274D01*
X6153Y56060D01*
X5940Y55847D01*
X5726Y56062D01*
X5646Y55870D01*
Y55630D01*
X5726Y55438D01*
X5940Y55653D01*
X6153Y55440D01*
X5938Y55226D01*
X6130Y55146D01*
X6370D01*
X6562Y55226D01*
X6347Y55440D01*
X6560Y55653D01*
X6774Y55438D01*
X6854Y55630D01*
Y55870D01*
X6774Y56062D01*
X6560Y55847D01*
X6347Y56060D01*
X6562Y56274D01*
X6370Y56354D01*
D02*
G37*
G36*
X35157Y56140D02*
X34881D01*
X34614Y56068D01*
X34374Y55930D01*
X34179Y55735D01*
X34041Y55495D01*
X33969Y55228D01*
Y54952D01*
X34041Y54685D01*
X34179Y54445D01*
X34374Y54250D01*
X34614Y54111D01*
X34881Y54040D01*
X35157D01*
X35424Y54111D01*
X35664Y54250D01*
X35859Y54445D01*
X35998Y54685D01*
X36069Y54952D01*
Y55228D01*
X35998Y55495D01*
X35859Y55735D01*
X35664Y55930D01*
X35424Y56068D01*
X35157Y56140D01*
D02*
G37*
G36*
X2137D02*
X1861D01*
X1594Y56068D01*
X1354Y55930D01*
X1159Y55735D01*
X1021Y55495D01*
X949Y55228D01*
Y54952D01*
X1021Y54685D01*
X1159Y54445D01*
X1354Y54250D01*
X1594Y54111D01*
X1861Y54040D01*
X2137D01*
X2404Y54111D01*
X2644Y54250D01*
X2839Y54445D01*
X2978Y54685D01*
X3049Y54952D01*
Y55228D01*
X2978Y55495D01*
X2839Y55735D01*
X2644Y55930D01*
X2404Y56068D01*
X2137Y56140D01*
D02*
G37*
G36*
X24713Y57658D02*
X24327D01*
X23949Y57583D01*
X23593Y57435D01*
X23272Y57221D01*
X22999Y56948D01*
X22785Y56627D01*
X22637Y56271D01*
X22562Y55893D01*
Y55507D01*
X22637Y55129D01*
X22785Y54773D01*
X22999Y54452D01*
X23272Y54179D01*
X23593Y53965D01*
X23949Y53817D01*
X24327Y53742D01*
X24713D01*
X25091Y53817D01*
X25447Y53965D01*
X25768Y54179D01*
X26041Y54452D01*
X26255Y54773D01*
X26403Y55129D01*
X26478Y55507D01*
Y55893D01*
X26403Y56271D01*
X26255Y56627D01*
X26041Y56948D01*
X25768Y57221D01*
X25447Y57435D01*
X25091Y57583D01*
X24713Y57658D01*
D02*
G37*
G36*
X12673D02*
X12287D01*
X11909Y57583D01*
X11553Y57435D01*
X11232Y57221D01*
X10959Y56948D01*
X10745Y56627D01*
X10597Y56271D01*
X10522Y55893D01*
Y55507D01*
X10597Y55129D01*
X10745Y54773D01*
X10959Y54452D01*
X11232Y54179D01*
X11553Y53965D01*
X11909Y53817D01*
X12287Y53742D01*
X12673D01*
X13051Y53817D01*
X13407Y53965D01*
X13728Y54179D01*
X14001Y54452D01*
X14215Y54773D01*
X14363Y55129D01*
X14438Y55507D01*
Y55893D01*
X14363Y56271D01*
X14215Y56627D01*
X14001Y56948D01*
X13728Y57221D01*
X13407Y57435D01*
X13051Y57583D01*
X12673Y57658D01*
D02*
G37*
G36*
X17376Y53958D02*
X17124D01*
X16880Y53893D01*
X16683Y53779D01*
X16890Y53572D01*
X16678Y53360D01*
X16471Y53567D01*
X16357Y53370D01*
X16292Y53126D01*
Y52874D01*
X16357Y52630D01*
X16471Y52433D01*
X16678Y52640D01*
X16890Y52428D01*
X16683Y52221D01*
X16839Y52131D01*
X16805Y52004D01*
X16246D01*
Y49996D01*
X18254D01*
Y52004D01*
X17695D01*
X17661Y52131D01*
X17817Y52221D01*
X17610Y52428D01*
X17822Y52640D01*
X18029Y52433D01*
X18143Y52630D01*
X18208Y52874D01*
Y53126D01*
X18143Y53370D01*
X18029Y53567D01*
X17822Y53360D01*
X17610Y53572D01*
X17817Y53779D01*
X17620Y53893D01*
X17376Y53958D01*
D02*
G37*
G36*
X35158Y53600D02*
X34881D01*
X34614Y53528D01*
X34375Y53390D01*
X34179Y53195D01*
X34041Y52955D01*
X33969Y52688D01*
Y52412D01*
X34041Y52145D01*
X34179Y51905D01*
X34375Y51710D01*
X34614Y51572D01*
X34881Y51500D01*
X35158D01*
X35425Y51572D01*
X35664Y51710D01*
X35860Y51905D01*
X35998Y52145D01*
X36069Y52412D01*
Y52688D01*
X35998Y52955D01*
X35860Y53195D01*
X35664Y53390D01*
X35425Y53528D01*
X35158Y53600D01*
D02*
G37*
G36*
X2138D02*
X1861D01*
X1594Y53528D01*
X1355Y53390D01*
X1159Y53195D01*
X1021Y52955D01*
X949Y52688D01*
Y52412D01*
X1021Y52145D01*
X1159Y51905D01*
X1355Y51710D01*
X1594Y51572D01*
X1861Y51500D01*
X2138D01*
X2405Y51572D01*
X2644Y51710D01*
X2840Y51905D01*
X2978Y52145D01*
X3049Y52412D01*
Y52688D01*
X2978Y52955D01*
X2840Y53195D01*
X2644Y53390D01*
X2405Y53528D01*
X2138Y53600D01*
D02*
G37*
G36*
X19882Y54004D02*
X19618D01*
X19362Y53936D01*
X19134Y53803D01*
X18947Y53616D01*
X18814Y53388D01*
X18746Y53132D01*
Y52868D01*
X18814Y52612D01*
X18947Y52384D01*
X19134Y52197D01*
X19359Y52066D01*
X19366Y52039D01*
Y51961D01*
X19359Y51934D01*
X19134Y51803D01*
X18947Y51616D01*
X18814Y51388D01*
X18746Y51132D01*
Y50868D01*
X18814Y50612D01*
X18947Y50384D01*
X19134Y50197D01*
X19362Y50064D01*
X19618Y49996D01*
X19882D01*
X20138Y50064D01*
X20366Y50197D01*
X20553Y50384D01*
X20686Y50612D01*
X20754Y50868D01*
Y51132D01*
X20686Y51388D01*
X20553Y51616D01*
X20366Y51803D01*
X20141Y51934D01*
X20134Y51961D01*
Y52039D01*
X20141Y52066D01*
X20366Y52197D01*
X20553Y52384D01*
X20686Y52612D01*
X20754Y52868D01*
Y53132D01*
X20686Y53388D01*
X20553Y53616D01*
X20366Y53803D01*
X20138Y53936D01*
X19882Y54004D01*
D02*
G37*
G36*
X33086Y50900D02*
X32914D01*
X32749Y50856D01*
X32601Y50770D01*
X32480Y50649D01*
X32394Y50501D01*
X32350Y50336D01*
Y50164D01*
X32394Y49999D01*
X32480Y49851D01*
X32601Y49730D01*
X32749Y49644D01*
X32914Y49600D01*
X33086D01*
X33251Y49644D01*
X33399Y49730D01*
X33520Y49851D01*
X33606Y49999D01*
X33650Y50164D01*
Y50336D01*
X33606Y50501D01*
X33520Y50649D01*
X33399Y50770D01*
X33251Y50856D01*
X33086Y50900D01*
D02*
G37*
G36*
X35158Y51060D02*
X34881D01*
X34614Y50988D01*
X34375Y50850D01*
X34179Y50655D01*
X34041Y50415D01*
X33969Y50148D01*
Y49872D01*
X34041Y49605D01*
X34179Y49365D01*
X34375Y49170D01*
X34614Y49032D01*
X34881Y48960D01*
X35158D01*
X35425Y49032D01*
X35664Y49170D01*
X35860Y49365D01*
X35998Y49605D01*
X36069Y49872D01*
Y50148D01*
X35998Y50415D01*
X35860Y50655D01*
X35664Y50850D01*
X35425Y50988D01*
X35158Y51060D01*
D02*
G37*
G36*
X2138D02*
X1861D01*
X1594Y50988D01*
X1355Y50850D01*
X1159Y50655D01*
X1021Y50415D01*
X949Y50148D01*
Y49872D01*
X1021Y49605D01*
X1159Y49365D01*
X1355Y49170D01*
X1594Y49032D01*
X1861Y48960D01*
X2138D01*
X2405Y49032D01*
X2644Y49170D01*
X2840Y49365D01*
X2978Y49605D01*
X3049Y49872D01*
Y50148D01*
X2978Y50415D01*
X2840Y50655D01*
X2644Y50850D01*
X2405Y50988D01*
X2138Y51060D01*
D02*
G37*
G36*
X10620Y49104D02*
X10380D01*
X10188Y49024D01*
X10403Y48810D01*
X10190Y48597D01*
X9976Y48812D01*
X9896Y48620D01*
Y48380D01*
X9976Y48188D01*
X10190Y48403D01*
X10403Y48190D01*
X10188Y47976D01*
X10380Y47896D01*
X10620D01*
X10812Y47976D01*
X10597Y48190D01*
X10810Y48403D01*
X11024Y48188D01*
X11104Y48380D01*
Y48620D01*
X11024Y48812D01*
X10810Y48597D01*
X10597Y48810D01*
X10812Y49024D01*
X10620Y49104D01*
D02*
G37*
G36*
X28620Y48854D02*
X28380D01*
X28188Y48774D01*
X28403Y48560D01*
X28190Y48347D01*
X27976Y48562D01*
X27896Y48370D01*
Y48130D01*
X27976Y47938D01*
X28190Y48153D01*
X28403Y47940D01*
X28188Y47726D01*
X28380Y47646D01*
X28620D01*
X28812Y47726D01*
X28597Y47940D01*
X28810Y48153D01*
X29024Y47938D01*
X29104Y48130D01*
Y48370D01*
X29024Y48562D01*
X28810Y48347D01*
X28597Y48560D01*
X28812Y48774D01*
X28620Y48854D01*
D02*
G37*
G36*
X14586Y49150D02*
X14414D01*
X14249Y49106D01*
X14101Y49020D01*
X13980Y48899D01*
X13894Y48751D01*
X13850Y48586D01*
Y48414D01*
X13894Y48249D01*
X13980Y48101D01*
X14101Y47980D01*
X14249Y47894D01*
X14414Y47850D01*
X14586D01*
X14751Y47894D01*
X14899Y47980D01*
X15020Y48101D01*
X15106Y48249D01*
X15150Y48414D01*
Y48586D01*
X15106Y48751D01*
X15020Y48899D01*
X14899Y49020D01*
X14751Y49106D01*
X14586Y49150D01*
D02*
G37*
G36*
X35158Y48520D02*
X34881D01*
X34614Y48448D01*
X34375Y48310D01*
X34179Y48115D01*
X34041Y47875D01*
X33969Y47608D01*
Y47332D01*
X34041Y47065D01*
X34179Y46825D01*
X34375Y46630D01*
X34614Y46492D01*
X34881Y46420D01*
X35158D01*
X35425Y46492D01*
X35664Y46630D01*
X35860Y46825D01*
X35998Y47065D01*
X36069Y47332D01*
Y47608D01*
X35998Y47875D01*
X35860Y48115D01*
X35664Y48310D01*
X35425Y48448D01*
X35158Y48520D01*
D02*
G37*
G36*
X2138D02*
X1861D01*
X1594Y48448D01*
X1355Y48310D01*
X1159Y48115D01*
X1021Y47875D01*
X949Y47608D01*
Y47332D01*
X1021Y47065D01*
X1159Y46825D01*
X1355Y46630D01*
X1594Y46492D01*
X1861Y46420D01*
X2138D01*
X2405Y46492D01*
X2644Y46630D01*
X2840Y46825D01*
X2978Y47065D01*
X3049Y47332D01*
Y47608D01*
X2978Y47875D01*
X2840Y48115D01*
X2644Y48310D01*
X2405Y48448D01*
X2138Y48520D01*
D02*
G37*
G36*
X28120Y45604D02*
X27880D01*
X27688Y45524D01*
X27903Y45310D01*
X27690Y45097D01*
X27476Y45312D01*
X27396Y45120D01*
Y44880D01*
X27476Y44688D01*
X27690Y44903D01*
X27903Y44690D01*
X27688Y44476D01*
X27880Y44396D01*
X28120D01*
X28312Y44476D01*
X28097Y44690D01*
X28310Y44903D01*
X28524Y44688D01*
X28604Y44880D01*
Y45120D01*
X28524Y45312D01*
X28310Y45097D01*
X28097Y45310D01*
X28312Y45524D01*
X28120Y45604D01*
D02*
G37*
G36*
X23870D02*
X23630D01*
X23438Y45524D01*
X23653Y45310D01*
X23440Y45097D01*
X23226Y45312D01*
X23146Y45120D01*
Y44880D01*
X23226Y44688D01*
X23440Y44903D01*
X23653Y44690D01*
X23438Y44476D01*
X23630Y44396D01*
X23870D01*
X24062Y44476D01*
X23847Y44690D01*
X24060Y44903D01*
X24274Y44688D01*
X24354Y44880D01*
Y45120D01*
X24274Y45312D01*
X24060Y45097D01*
X23847Y45310D01*
X24062Y45524D01*
X23870Y45604D01*
D02*
G37*
G36*
X11836Y45400D02*
X11664D01*
X11499Y45356D01*
X11351Y45270D01*
X11230Y45149D01*
X11198Y45094D01*
X11052D01*
X11020Y45149D01*
X10899Y45270D01*
X10751Y45356D01*
X10586Y45400D01*
X10414D01*
X10249Y45356D01*
X10101Y45270D01*
X9980Y45149D01*
X9948Y45094D01*
X9802D01*
X9770Y45149D01*
X9649Y45270D01*
X9501Y45356D01*
X9336Y45400D01*
X9164D01*
X8999Y45356D01*
X8851Y45270D01*
X8730Y45149D01*
X8644Y45001D01*
X8600Y44836D01*
Y44664D01*
X8644Y44499D01*
X8730Y44351D01*
X8851Y44230D01*
X8999Y44144D01*
X9164Y44100D01*
X9336D01*
X9501Y44144D01*
X9649Y44230D01*
X9770Y44351D01*
X9802Y44406D01*
X9948D01*
X9980Y44351D01*
X10101Y44230D01*
X10249Y44144D01*
X10414Y44100D01*
X10586D01*
X10751Y44144D01*
X10899Y44230D01*
X11020Y44351D01*
X11052Y44406D01*
X11198D01*
X11230Y44351D01*
X11351Y44230D01*
X11499Y44144D01*
X11664Y44100D01*
X11836D01*
X12001Y44144D01*
X12149Y44230D01*
X12270Y44351D01*
X12356Y44499D01*
X12400Y44664D01*
Y44836D01*
X12356Y45001D01*
X12270Y45149D01*
X12149Y45270D01*
X12001Y45356D01*
X11836Y45400D01*
D02*
G37*
G36*
X35157Y45980D02*
X34881D01*
X34614Y45908D01*
X34374Y45770D01*
X34179Y45575D01*
X34041Y45335D01*
X33969Y45068D01*
Y44792D01*
X34041Y44525D01*
X34179Y44285D01*
X34374Y44090D01*
X34614Y43951D01*
X34881Y43880D01*
X35157D01*
X35424Y43951D01*
X35664Y44090D01*
X35859Y44285D01*
X35998Y44525D01*
X36069Y44792D01*
Y45068D01*
X35998Y45335D01*
X35859Y45575D01*
X35664Y45770D01*
X35424Y45908D01*
X35157Y45980D01*
D02*
G37*
G36*
X2137D02*
X1861D01*
X1594Y45908D01*
X1354Y45770D01*
X1159Y45575D01*
X1021Y45335D01*
X949Y45068D01*
Y44792D01*
X1021Y44525D01*
X1159Y44285D01*
X1354Y44090D01*
X1594Y43951D01*
X1861Y43880D01*
X2137D01*
X2404Y43951D01*
X2644Y44090D01*
X2839Y44285D01*
X2978Y44525D01*
X3049Y44792D01*
Y45068D01*
X2978Y45335D01*
X2839Y45575D01*
X2644Y45770D01*
X2404Y45908D01*
X2137Y45980D01*
D02*
G37*
G36*
X13086Y41900D02*
X12914D01*
X12749Y41856D01*
X12601Y41770D01*
X12480Y41649D01*
X12448Y41594D01*
X12302D01*
X12270Y41649D01*
X12149Y41770D01*
X12001Y41856D01*
X11836Y41900D01*
X11664D01*
X11499Y41856D01*
X11351Y41770D01*
X11230Y41649D01*
X11198Y41594D01*
X11052D01*
X11020Y41649D01*
X10899Y41770D01*
X10751Y41856D01*
X10586Y41900D01*
X10414D01*
X10249Y41856D01*
X10101Y41770D01*
X9980Y41649D01*
X9919Y41544D01*
X9785Y41545D01*
X9781Y41546D01*
X9774Y41562D01*
X9560Y41347D01*
X9347Y41560D01*
X9562Y41774D01*
X9370Y41854D01*
X9130D01*
X8938Y41774D01*
X9153Y41560D01*
X8940Y41347D01*
X8726Y41562D01*
X8646Y41370D01*
Y41130D01*
X8726Y40938D01*
X8940Y41153D01*
X9153Y40940D01*
X8938Y40726D01*
X9130Y40646D01*
X9370D01*
X9562Y40726D01*
X9347Y40940D01*
X9560Y41153D01*
X9774Y40938D01*
X9781Y40954D01*
X9785Y40955D01*
X9919Y40956D01*
X9980Y40851D01*
X10101Y40730D01*
X10249Y40644D01*
X10414Y40600D01*
X10586D01*
X10751Y40644D01*
X10899Y40730D01*
X11020Y40851D01*
X11052Y40906D01*
X11198D01*
X11230Y40851D01*
X11351Y40730D01*
X11499Y40644D01*
X11664Y40600D01*
X11836D01*
X12001Y40644D01*
X12149Y40730D01*
X12270Y40851D01*
X12302Y40906D01*
X12448D01*
X12480Y40851D01*
X12601Y40730D01*
X12749Y40644D01*
X12914Y40600D01*
X13086D01*
X13251Y40644D01*
X13399Y40730D01*
X13519Y40850D01*
X13524Y40850D01*
X13646Y40815D01*
Y40630D01*
X13726Y40438D01*
X13940Y40653D01*
X14153Y40440D01*
X13938Y40226D01*
X14130Y40146D01*
X14370D01*
X14562Y40226D01*
X14347Y40440D01*
X14560Y40653D01*
X14774Y40438D01*
X14854Y40630D01*
Y40870D01*
X14774Y41062D01*
X14560Y40847D01*
X14347Y41060D01*
X14562Y41274D01*
X14370Y41354D01*
X14130D01*
X13908Y41262D01*
X13771Y41125D01*
X13697Y41149D01*
X13650Y41184D01*
Y41336D01*
X13606Y41501D01*
X13520Y41649D01*
X13399Y41770D01*
X13251Y41856D01*
X13086Y41900D01*
D02*
G37*
G36*
X35158Y43440D02*
X34881D01*
X34614Y43368D01*
X34375Y43230D01*
X34179Y43035D01*
X34041Y42795D01*
X33969Y42528D01*
Y42252D01*
X34041Y41985D01*
X34179Y41745D01*
X34375Y41550D01*
X34614Y41412D01*
X34881Y41340D01*
X35158D01*
X35425Y41412D01*
X35664Y41550D01*
X35860Y41745D01*
X35998Y41985D01*
X36069Y42252D01*
Y42528D01*
X35998Y42795D01*
X35860Y43035D01*
X35664Y43230D01*
X35425Y43368D01*
X35158Y43440D01*
D02*
G37*
G36*
X2138D02*
X1861D01*
X1594Y43368D01*
X1355Y43230D01*
X1159Y43035D01*
X1021Y42795D01*
X949Y42528D01*
Y42252D01*
X1021Y41985D01*
X1159Y41745D01*
X1355Y41550D01*
X1594Y41412D01*
X1861Y41340D01*
X2138D01*
X2405Y41412D01*
X2644Y41550D01*
X2840Y41745D01*
X2978Y41985D01*
X3049Y42252D01*
Y42528D01*
X2978Y42795D01*
X2840Y43035D01*
X2644Y43230D01*
X2405Y43368D01*
X2138Y43440D01*
D02*
G37*
G36*
X25086Y42150D02*
X24914D01*
X24749Y42106D01*
X24601Y42020D01*
X24480Y41899D01*
X24394Y41751D01*
X24350Y41586D01*
Y41414D01*
X24394Y41249D01*
X24480Y41101D01*
X24601Y40980D01*
X24749Y40894D01*
X24914Y40850D01*
X25086D01*
X25251Y40894D01*
X25399Y40980D01*
X25520Y41101D01*
X25606Y41249D01*
X25650Y41414D01*
Y41586D01*
X25606Y41751D01*
X25520Y41899D01*
X25399Y42020D01*
X25251Y42106D01*
X25086Y42150D01*
D02*
G37*
G36*
X29586Y39150D02*
X29414D01*
X29249Y39106D01*
X29101Y39020D01*
X28980Y38899D01*
X28948Y38844D01*
X28802D01*
X28770Y38899D01*
X28649Y39020D01*
X28501Y39106D01*
X28336Y39150D01*
X28164D01*
X27999Y39106D01*
X27851Y39020D01*
X27730Y38899D01*
X27669Y38794D01*
X27535Y38795D01*
X27531Y38796D01*
X27524Y38812D01*
X27310Y38597D01*
X27097Y38810D01*
X27312Y39024D01*
X27120Y39104D01*
X26880D01*
X26688Y39024D01*
X26903Y38810D01*
X26690Y38597D01*
X26476Y38812D01*
X26396Y38620D01*
Y38380D01*
X26476Y38188D01*
X26690Y38403D01*
X26903Y38190D01*
X26688Y37976D01*
X26880Y37896D01*
X27120D01*
X27312Y37976D01*
X27097Y38190D01*
X27310Y38403D01*
X27524Y38188D01*
X27531Y38204D01*
X27535Y38205D01*
X27669Y38206D01*
X27730Y38101D01*
X27851Y37980D01*
X27999Y37894D01*
X28164Y37850D01*
X28336D01*
X28501Y37894D01*
X28649Y37980D01*
X28770Y38101D01*
X28802Y38156D01*
X28948D01*
X28980Y38101D01*
X29101Y37980D01*
X29249Y37894D01*
X29414Y37850D01*
X29586D01*
X29751Y37894D01*
X29899Y37980D01*
X30020Y38101D01*
X30106Y38249D01*
X30150Y38414D01*
Y38586D01*
X30106Y38751D01*
X30020Y38899D01*
X29899Y39020D01*
X29751Y39106D01*
X29586Y39150D01*
D02*
G37*
G36*
X23336D02*
X23164D01*
X22999Y39106D01*
X22851Y39020D01*
X22730Y38899D01*
X22698Y38844D01*
X22552D01*
X22520Y38899D01*
X22399Y39020D01*
X22251Y39106D01*
X22086Y39150D01*
X21914D01*
X21749Y39106D01*
X21601Y39020D01*
X21500Y38919D01*
X21399Y39020D01*
X21251Y39106D01*
X21086Y39150D01*
X20914D01*
X20749Y39106D01*
X20601Y39020D01*
X20480Y38899D01*
X20394Y38751D01*
X20350Y38586D01*
Y38414D01*
X20394Y38249D01*
X20480Y38101D01*
X20601Y37980D01*
X20749Y37894D01*
X20914Y37850D01*
X21086D01*
X21251Y37894D01*
X21399Y37980D01*
X21500Y38081D01*
X21601Y37980D01*
X21749Y37894D01*
X21914Y37850D01*
X22086D01*
X22251Y37894D01*
X22399Y37980D01*
X22520Y38101D01*
X22552Y38156D01*
X22698D01*
X22730Y38101D01*
X22851Y37980D01*
X22999Y37894D01*
X23164Y37850D01*
X23336D01*
X23501Y37894D01*
X23649Y37980D01*
X23770Y38101D01*
X23856Y38249D01*
X23900Y38414D01*
Y38586D01*
X23856Y38751D01*
X23770Y38899D01*
X23649Y39020D01*
X23501Y39106D01*
X23336Y39150D01*
D02*
G37*
G36*
X35158Y40900D02*
X34881D01*
X34614Y40828D01*
X34375Y40690D01*
X34179Y40495D01*
X34041Y40255D01*
X33970Y39988D01*
Y39712D01*
X34041Y39445D01*
X34179Y39205D01*
X34375Y39010D01*
X34614Y38872D01*
X34881Y38800D01*
X35158D01*
X35425Y38872D01*
X35664Y39010D01*
X35860Y39205D01*
X35998Y39445D01*
X36070Y39712D01*
Y39988D01*
X35998Y40255D01*
X35860Y40495D01*
X35664Y40690D01*
X35425Y40828D01*
X35158Y40900D01*
D02*
G37*
G36*
X2138D02*
X1861D01*
X1594Y40828D01*
X1355Y40690D01*
X1159Y40495D01*
X1021Y40255D01*
X950Y39988D01*
Y39712D01*
X1021Y39445D01*
X1159Y39205D01*
X1355Y39010D01*
X1594Y38872D01*
X1861Y38800D01*
X2138D01*
X2405Y38872D01*
X2644Y39010D01*
X2840Y39205D01*
X2978Y39445D01*
X3050Y39712D01*
Y39988D01*
X2978Y40255D01*
X2840Y40495D01*
X2644Y40690D01*
X2405Y40828D01*
X2138Y40900D01*
D02*
G37*
G36*
X16086Y38900D02*
X15914D01*
X15749Y38856D01*
X15601Y38770D01*
X15480Y38649D01*
X15394Y38501D01*
X15350Y38336D01*
Y38164D01*
X15394Y37999D01*
X15480Y37851D01*
X15601Y37730D01*
X15749Y37644D01*
X15914Y37600D01*
X16086D01*
X16251Y37644D01*
X16399Y37730D01*
X16520Y37851D01*
X16606Y37999D01*
X16650Y38164D01*
Y38336D01*
X16606Y38501D01*
X16520Y38649D01*
X16399Y38770D01*
X16251Y38856D01*
X16086Y38900D01*
D02*
G37*
G36*
X19336Y38650D02*
X19164D01*
X18999Y38606D01*
X18851Y38520D01*
X18730Y38399D01*
X18644Y38251D01*
X18600Y38086D01*
Y37914D01*
X18644Y37749D01*
X18730Y37601D01*
X18851Y37480D01*
X18999Y37394D01*
X19164Y37350D01*
X19336D01*
X19501Y37394D01*
X19649Y37480D01*
X19770Y37601D01*
X19856Y37749D01*
X19900Y37914D01*
Y38086D01*
X19856Y38251D01*
X19770Y38399D01*
X19649Y38520D01*
X19501Y38606D01*
X19336Y38650D01*
D02*
G37*
G36*
X27870Y37354D02*
X27630D01*
X27438Y37274D01*
X27653Y37060D01*
X27440Y36847D01*
X27226Y37062D01*
X27146Y36870D01*
Y36630D01*
X27226Y36438D01*
X27440Y36653D01*
X27653Y36440D01*
X27438Y36226D01*
X27630Y36146D01*
X27870D01*
X28062Y36226D01*
X27847Y36440D01*
X28060Y36653D01*
X28274Y36438D01*
X28354Y36630D01*
Y36870D01*
X28274Y37062D01*
X28060Y36847D01*
X27847Y37060D01*
X28062Y37274D01*
X27870Y37354D01*
D02*
G37*
G36*
X35158Y38360D02*
X34881D01*
X34614Y38288D01*
X34375Y38150D01*
X34179Y37955D01*
X34041Y37715D01*
X33970Y37448D01*
Y37172D01*
X34041Y36905D01*
X34179Y36665D01*
X34375Y36470D01*
X34614Y36332D01*
X34881Y36260D01*
X35158D01*
X35425Y36332D01*
X35664Y36470D01*
X35860Y36665D01*
X35998Y36905D01*
X36070Y37172D01*
Y37448D01*
X35998Y37715D01*
X35860Y37955D01*
X35664Y38150D01*
X35425Y38288D01*
X35158Y38360D01*
D02*
G37*
G36*
X2138D02*
X1861D01*
X1594Y38288D01*
X1355Y38150D01*
X1159Y37955D01*
X1021Y37715D01*
X950Y37448D01*
Y37172D01*
X1021Y36905D01*
X1159Y36665D01*
X1355Y36470D01*
X1594Y36332D01*
X1861Y36260D01*
X2138D01*
X2405Y36332D01*
X2644Y36470D01*
X2840Y36665D01*
X2978Y36905D01*
X3050Y37172D01*
Y37448D01*
X2978Y37715D01*
X2840Y37955D01*
X2644Y38150D01*
X2405Y38288D01*
X2138Y38360D01*
D02*
G37*
G36*
X25086Y35400D02*
X24914D01*
X24749Y35356D01*
X24601Y35270D01*
X24480Y35149D01*
X24394Y35001D01*
X24350Y34836D01*
Y34664D01*
X24394Y34499D01*
X24480Y34351D01*
X24601Y34230D01*
X24749Y34144D01*
X24914Y34100D01*
X25086D01*
X25251Y34144D01*
X25399Y34230D01*
X25520Y34351D01*
X25606Y34499D01*
X25650Y34664D01*
Y34836D01*
X25606Y35001D01*
X25520Y35149D01*
X25399Y35270D01*
X25251Y35356D01*
X25086Y35400D01*
D02*
G37*
G36*
X35158Y35820D02*
X34881D01*
X34614Y35748D01*
X34375Y35610D01*
X34179Y35415D01*
X34041Y35175D01*
X33970Y34908D01*
Y34632D01*
X34041Y34365D01*
X34179Y34125D01*
X34375Y33930D01*
X34614Y33792D01*
X34881Y33720D01*
X35158D01*
X35425Y33792D01*
X35664Y33930D01*
X35860Y34125D01*
X35998Y34365D01*
X36070Y34632D01*
Y34908D01*
X35998Y35175D01*
X35860Y35415D01*
X35664Y35610D01*
X35425Y35748D01*
X35158Y35820D01*
D02*
G37*
G36*
X2138D02*
X1861D01*
X1594Y35748D01*
X1355Y35610D01*
X1159Y35415D01*
X1021Y35175D01*
X950Y34908D01*
Y34632D01*
X1021Y34365D01*
X1159Y34125D01*
X1355Y33930D01*
X1594Y33792D01*
X1861Y33720D01*
X2138D01*
X2405Y33792D01*
X2644Y33930D01*
X2840Y34125D01*
X2978Y34365D01*
X3050Y34632D01*
Y34908D01*
X2978Y35175D01*
X2840Y35415D01*
X2644Y35610D01*
X2405Y35748D01*
X2138Y35820D01*
D02*
G37*
G36*
X14836Y33900D02*
X14664D01*
X14499Y33856D01*
X14351Y33770D01*
X14230Y33649D01*
X14144Y33501D01*
X14100Y33336D01*
Y33164D01*
X14144Y32999D01*
X14230Y32851D01*
X14351Y32730D01*
X14499Y32644D01*
X14664Y32600D01*
X14836D01*
X15001Y32644D01*
X15149Y32730D01*
X15270Y32851D01*
X15356Y32999D01*
X15400Y33164D01*
Y33336D01*
X15356Y33501D01*
X15270Y33649D01*
X15149Y33770D01*
X15001Y33856D01*
X14836Y33900D01*
D02*
G37*
G36*
X9445Y32729D02*
X9205D01*
X9013Y32649D01*
X9228Y32435D01*
X9015Y32222D01*
X8801Y32437D01*
X8721Y32245D01*
Y32005D01*
X8801Y31813D01*
X9015Y32028D01*
X9228Y31815D01*
X9013Y31601D01*
X9205Y31521D01*
X9445D01*
X9637Y31601D01*
X9422Y31815D01*
X9635Y32028D01*
X9849Y31813D01*
X9929Y32005D01*
Y32245D01*
X9849Y32437D01*
X9635Y32222D01*
X9422Y32435D01*
X9637Y32649D01*
X9445Y32729D01*
D02*
G37*
G36*
X35158Y33280D02*
X34881D01*
X34614Y33208D01*
X34375Y33070D01*
X34179Y32875D01*
X34041Y32635D01*
X33969Y32368D01*
Y32092D01*
X34041Y31825D01*
X34179Y31585D01*
X34375Y31390D01*
X34614Y31252D01*
X34881Y31180D01*
X35158D01*
X35425Y31252D01*
X35664Y31390D01*
X35860Y31585D01*
X35998Y31825D01*
X36069Y32092D01*
Y32368D01*
X35998Y32635D01*
X35860Y32875D01*
X35664Y33070D01*
X35425Y33208D01*
X35158Y33280D01*
D02*
G37*
G36*
X2138D02*
X1861D01*
X1594Y33208D01*
X1355Y33070D01*
X1159Y32875D01*
X1021Y32635D01*
X949Y32368D01*
Y32092D01*
X1021Y31825D01*
X1159Y31585D01*
X1355Y31390D01*
X1594Y31252D01*
X1861Y31180D01*
X2138D01*
X2405Y31252D01*
X2644Y31390D01*
X2840Y31585D01*
X2978Y31825D01*
X3049Y32092D01*
Y32368D01*
X2978Y32635D01*
X2840Y32875D01*
X2644Y33070D01*
X2405Y33208D01*
X2138Y33280D01*
D02*
G37*
G36*
X18620Y31604D02*
X18380D01*
X18188Y31524D01*
X18403Y31310D01*
X18190Y31097D01*
X17976Y31312D01*
X17896Y31120D01*
Y30880D01*
X17976Y30688D01*
X18190Y30903D01*
X18403Y30690D01*
X18188Y30476D01*
X18380Y30396D01*
X18620D01*
X18812Y30476D01*
X18597Y30690D01*
X18810Y30903D01*
X19024Y30688D01*
X19104Y30880D01*
Y31120D01*
X19024Y31312D01*
X18810Y31097D01*
X18597Y31310D01*
X18812Y31524D01*
X18620Y31604D01*
D02*
G37*
G36*
X14836Y31900D02*
X14664D01*
X14499Y31856D01*
X14351Y31770D01*
X14230Y31649D01*
X14144Y31501D01*
X14100Y31336D01*
Y31164D01*
X14144Y30999D01*
X14230Y30851D01*
X14351Y30730D01*
X14499Y30644D01*
X14664Y30600D01*
X14836D01*
X15001Y30644D01*
X15149Y30730D01*
X15270Y30851D01*
X15356Y30999D01*
X15400Y31164D01*
Y31336D01*
X15356Y31501D01*
X15270Y31649D01*
X15149Y31770D01*
X15001Y31856D01*
X14836Y31900D01*
D02*
G37*
G36*
X22086D02*
X21914D01*
X21749Y31856D01*
X21601Y31770D01*
X21480Y31649D01*
X21394Y31501D01*
X21350Y31336D01*
Y31164D01*
X21394Y30999D01*
X21480Y30851D01*
X21581Y30750D01*
X21480Y30649D01*
X21394Y30501D01*
X21350Y30336D01*
Y30164D01*
X21394Y29999D01*
X21480Y29851D01*
X21601Y29730D01*
X21749Y29644D01*
X21914Y29600D01*
X22086D01*
X22251Y29644D01*
X22399Y29730D01*
X22520Y29851D01*
X22606Y29999D01*
X22650Y30164D01*
Y30336D01*
X22606Y30501D01*
X22520Y30649D01*
X22419Y30750D01*
X22520Y30851D01*
X22606Y30999D01*
X22650Y31164D01*
Y31336D01*
X22606Y31501D01*
X22520Y31649D01*
X22399Y31770D01*
X22251Y31856D01*
X22086Y31900D01*
D02*
G37*
G36*
X21336Y28900D02*
X21164D01*
X20999Y28856D01*
X20851Y28770D01*
X20750Y28669D01*
X20649Y28770D01*
X20501Y28856D01*
X20336Y28900D01*
X20164D01*
X19999Y28856D01*
X19851Y28770D01*
X19750Y28669D01*
X19649Y28770D01*
X19501Y28856D01*
X19336Y28900D01*
X19164D01*
X18999Y28856D01*
X18851Y28770D01*
X18750Y28669D01*
X18649Y28770D01*
X18501Y28856D01*
X18336Y28900D01*
X18164D01*
X17999Y28856D01*
X17851Y28770D01*
X17750Y28669D01*
X17649Y28770D01*
X17501Y28856D01*
X17336Y28900D01*
X17164D01*
X16999Y28856D01*
X16851Y28770D01*
X16750Y28669D01*
X16649Y28770D01*
X16501Y28856D01*
X16336Y28900D01*
X16164D01*
X15999Y28856D01*
X15851Y28770D01*
X15750Y28669D01*
X15649Y28770D01*
X15501Y28856D01*
X15336Y28900D01*
X15164D01*
X14999Y28856D01*
X14851Y28770D01*
X14730Y28649D01*
X14644Y28501D01*
X14600Y28336D01*
Y28164D01*
X14644Y27999D01*
X14730Y27851D01*
X14851Y27730D01*
X14999Y27644D01*
X15164Y27600D01*
X15336D01*
X15501Y27644D01*
X15649Y27730D01*
X15750Y27831D01*
X15851Y27730D01*
X15999Y27644D01*
X16164Y27600D01*
X16336D01*
X16501Y27644D01*
X16649Y27730D01*
X16750Y27831D01*
X16851Y27730D01*
X16999Y27644D01*
X17164Y27600D01*
X17336D01*
X17501Y27644D01*
X17649Y27730D01*
X17750Y27831D01*
X17851Y27730D01*
X17999Y27644D01*
X18164Y27600D01*
X18336D01*
X18501Y27644D01*
X18649Y27730D01*
X18750Y27831D01*
X18851Y27730D01*
X18999Y27644D01*
X19164Y27600D01*
X19336D01*
X19501Y27644D01*
X19649Y27730D01*
X19750Y27831D01*
X19851Y27730D01*
X19999Y27644D01*
X20164Y27600D01*
X20336D01*
X20501Y27644D01*
X20649Y27730D01*
X20750Y27831D01*
X20851Y27730D01*
X20999Y27644D01*
X21164Y27600D01*
X21336D01*
X21501Y27644D01*
X21649Y27730D01*
X21770Y27851D01*
X21856Y27999D01*
X21900Y28164D01*
Y28336D01*
X21856Y28501D01*
X21770Y28649D01*
X21649Y28770D01*
X21501Y28856D01*
X21336Y28900D01*
D02*
G37*
G36*
X35158Y30740D02*
X34881D01*
X34614Y30668D01*
X34375Y30530D01*
X34179Y30335D01*
X34041Y30095D01*
X33970Y29828D01*
Y29552D01*
X34041Y29285D01*
X34179Y29045D01*
X34375Y28850D01*
X34614Y28712D01*
X34881Y28640D01*
X35158D01*
X35425Y28712D01*
X35664Y28850D01*
X35860Y29045D01*
X35998Y29285D01*
X36070Y29552D01*
Y29828D01*
X35998Y30095D01*
X35860Y30335D01*
X35664Y30530D01*
X35425Y30668D01*
X35158Y30740D01*
D02*
G37*
G36*
X2138D02*
X1861D01*
X1594Y30668D01*
X1355Y30530D01*
X1159Y30335D01*
X1021Y30095D01*
X950Y29828D01*
Y29552D01*
X1021Y29285D01*
X1159Y29045D01*
X1355Y28850D01*
X1594Y28712D01*
X1861Y28640D01*
X2138D01*
X2405Y28712D01*
X2644Y28850D01*
X2840Y29045D01*
X2978Y29285D01*
X3050Y29552D01*
Y29828D01*
X2978Y30095D01*
X2840Y30335D01*
X2644Y30530D01*
X2405Y30668D01*
X2138Y30740D01*
D02*
G37*
G36*
X26336Y26650D02*
X26164D01*
X25999Y26606D01*
X25851Y26520D01*
X25730Y26399D01*
X25698Y26344D01*
X25552D01*
X25520Y26399D01*
X25399Y26520D01*
X25251Y26606D01*
X25086Y26650D01*
X24914D01*
X24749Y26606D01*
X24601Y26520D01*
X24480Y26399D01*
X24394Y26251D01*
X24350Y26086D01*
Y25914D01*
X24394Y25749D01*
X24480Y25601D01*
X24601Y25480D01*
X24749Y25394D01*
X24914Y25350D01*
X25086D01*
X25251Y25394D01*
X25399Y25480D01*
X25520Y25601D01*
X25552Y25656D01*
X25698D01*
X25730Y25601D01*
X25851Y25480D01*
X25999Y25394D01*
X26164Y25350D01*
X26336D01*
X26501Y25394D01*
X26649Y25480D01*
X26770Y25601D01*
X26856Y25749D01*
X26900Y25914D01*
Y26086D01*
X26856Y26251D01*
X26770Y26399D01*
X26649Y26520D01*
X26501Y26606D01*
X26336Y26650D01*
D02*
G37*
G36*
X35158Y28200D02*
X34882D01*
X34615Y28128D01*
X34375Y27990D01*
X34180Y27795D01*
X34041Y27555D01*
X33970Y27288D01*
Y27012D01*
X34041Y26745D01*
X34180Y26505D01*
X34375Y26310D01*
X34615Y26172D01*
X34882Y26100D01*
X35158D01*
X35425Y26172D01*
X35665Y26310D01*
X35860Y26505D01*
X35998Y26745D01*
X36070Y27012D01*
Y27288D01*
X35998Y27555D01*
X35860Y27795D01*
X35665Y27990D01*
X35425Y28128D01*
X35158Y28200D01*
D02*
G37*
G36*
X2138D02*
X1862D01*
X1595Y28128D01*
X1355Y27990D01*
X1160Y27795D01*
X1021Y27555D01*
X950Y27288D01*
Y27012D01*
X1021Y26745D01*
X1160Y26505D01*
X1355Y26310D01*
X1595Y26172D01*
X1862Y26100D01*
X2138D01*
X2405Y26172D01*
X2645Y26310D01*
X2840Y26505D01*
X2978Y26745D01*
X3050Y27012D01*
Y27288D01*
X2978Y27555D01*
X2840Y27795D01*
X2645Y27990D01*
X2405Y28128D01*
X2138Y28200D01*
D02*
G37*
G36*
X27870Y26604D02*
X27630D01*
X27438Y26524D01*
X27653Y26310D01*
X27440Y26097D01*
X27226Y26312D01*
X27146Y26120D01*
Y25880D01*
X27226Y25688D01*
X27440Y25903D01*
X27653Y25690D01*
X27438Y25476D01*
X27630Y25396D01*
X27870D01*
X28062Y25476D01*
X27847Y25690D01*
X28060Y25903D01*
X28274Y25688D01*
X28354Y25880D01*
Y26120D01*
X28274Y26312D01*
X28060Y26097D01*
X27847Y26310D01*
X28062Y26524D01*
X27870Y26604D01*
D02*
G37*
G36*
X11086Y26150D02*
X10914D01*
X10749Y26106D01*
X10601Y26020D01*
X10480Y25899D01*
X10394Y25751D01*
X10350Y25586D01*
Y25414D01*
X10394Y25249D01*
X10480Y25101D01*
X10601Y24980D01*
X10749Y24894D01*
X10914Y24850D01*
X11086D01*
X11251Y24894D01*
X11399Y24980D01*
X11520Y25101D01*
X11606Y25249D01*
X11650Y25414D01*
Y25586D01*
X11606Y25751D01*
X11520Y25899D01*
X11399Y26020D01*
X11251Y26106D01*
X11086Y26150D01*
D02*
G37*
G36*
X17586Y25150D02*
X17414D01*
X17249Y25106D01*
X17101Y25020D01*
X16980Y24899D01*
X16948Y24844D01*
X16802D01*
X16770Y24899D01*
X16649Y25020D01*
X16501Y25106D01*
X16336Y25150D01*
X16164D01*
X15999Y25106D01*
X15851Y25020D01*
X15730Y24899D01*
X15644Y24751D01*
X15600Y24586D01*
Y24414D01*
X15644Y24249D01*
X15730Y24101D01*
X15851Y23980D01*
X15999Y23894D01*
X16164Y23850D01*
X16336D01*
X16501Y23894D01*
X16649Y23980D01*
X16770Y24101D01*
X16802Y24156D01*
X16948D01*
X16980Y24101D01*
X17101Y23980D01*
X17249Y23894D01*
X17414Y23850D01*
X17586D01*
X17751Y23894D01*
X17899Y23980D01*
X18020Y24101D01*
X18106Y24249D01*
X18150Y24414D01*
Y24586D01*
X18106Y24751D01*
X18020Y24899D01*
X17899Y25020D01*
X17751Y25106D01*
X17586Y25150D01*
D02*
G37*
G36*
X35158Y25660D02*
X34882D01*
X34615Y25588D01*
X34375Y25450D01*
X34180Y25255D01*
X34041Y25015D01*
X33970Y24748D01*
Y24472D01*
X34041Y24205D01*
X34180Y23965D01*
X34375Y23770D01*
X34615Y23632D01*
X34882Y23560D01*
X35158D01*
X35425Y23632D01*
X35665Y23770D01*
X35860Y23965D01*
X35998Y24205D01*
X36070Y24472D01*
Y24748D01*
X35998Y25015D01*
X35860Y25255D01*
X35665Y25450D01*
X35425Y25588D01*
X35158Y25660D01*
D02*
G37*
G36*
X2138D02*
X1862D01*
X1595Y25588D01*
X1355Y25450D01*
X1160Y25255D01*
X1021Y25015D01*
X950Y24748D01*
Y24472D01*
X1021Y24205D01*
X1160Y23965D01*
X1355Y23770D01*
X1595Y23632D01*
X1862Y23560D01*
X2138D01*
X2405Y23632D01*
X2645Y23770D01*
X2840Y23965D01*
X2978Y24205D01*
X3050Y24472D01*
Y24748D01*
X2978Y25015D01*
X2840Y25255D01*
X2645Y25450D01*
X2405Y25588D01*
X2138Y25660D01*
D02*
G37*
G36*
X20496Y22754D02*
X20255D01*
X20063Y22675D01*
X20278Y22460D01*
X20066Y22248D01*
X19851Y22463D01*
X19771Y22271D01*
Y22030D01*
X19851Y21838D01*
X20066Y22053D01*
X20278Y21841D01*
X20063Y21626D01*
X20255Y21546D01*
X20496D01*
X20688Y21626D01*
X20473Y21841D01*
X20685Y22053D01*
X20900Y21838D01*
X20979Y22030D01*
Y22271D01*
X20900Y22463D01*
X20685Y22248D01*
X20473Y22460D01*
X20688Y22675D01*
X20496Y22754D01*
D02*
G37*
G36*
X13870Y22604D02*
X13630D01*
X13438Y22524D01*
X13653Y22310D01*
X13440Y22097D01*
X13226Y22312D01*
X13146Y22120D01*
Y21880D01*
X13226Y21688D01*
X13440Y21903D01*
X13653Y21690D01*
X13438Y21476D01*
X13630Y21396D01*
X13870D01*
X14062Y21476D01*
X13847Y21690D01*
X14060Y21903D01*
X14274Y21688D01*
X14354Y21880D01*
Y22120D01*
X14274Y22312D01*
X14060Y22097D01*
X13847Y22310D01*
X14062Y22524D01*
X13870Y22604D01*
D02*
G37*
G36*
X35158Y23120D02*
X34882D01*
X34615Y23048D01*
X34375Y22910D01*
X34180Y22715D01*
X34041Y22475D01*
X33970Y22208D01*
Y21932D01*
X34041Y21665D01*
X34180Y21425D01*
X34375Y21230D01*
X34615Y21092D01*
X34882Y21020D01*
X35158D01*
X35425Y21092D01*
X35665Y21230D01*
X35860Y21425D01*
X35998Y21665D01*
X36070Y21932D01*
Y22208D01*
X35998Y22475D01*
X35860Y22715D01*
X35665Y22910D01*
X35425Y23048D01*
X35158Y23120D01*
D02*
G37*
G36*
X2138D02*
X1862D01*
X1595Y23048D01*
X1355Y22910D01*
X1160Y22715D01*
X1021Y22475D01*
X950Y22208D01*
Y21932D01*
X1021Y21665D01*
X1160Y21425D01*
X1355Y21230D01*
X1595Y21092D01*
X1862Y21020D01*
X2138D01*
X2405Y21092D01*
X2645Y21230D01*
X2840Y21425D01*
X2978Y21665D01*
X3050Y21932D01*
Y22208D01*
X2978Y22475D01*
X2840Y22715D01*
X2645Y22910D01*
X2405Y23048D01*
X2138Y23120D01*
D02*
G37*
G36*
X35158Y20580D02*
X34881D01*
X34614Y20508D01*
X34375Y20370D01*
X34179Y20175D01*
X34041Y19935D01*
X33970Y19668D01*
Y19392D01*
X34041Y19125D01*
X34179Y18885D01*
X34375Y18690D01*
X34614Y18552D01*
X34881Y18480D01*
X35158D01*
X35425Y18552D01*
X35664Y18690D01*
X35860Y18885D01*
X35998Y19125D01*
X36070Y19392D01*
Y19668D01*
X35998Y19935D01*
X35860Y20175D01*
X35664Y20370D01*
X35425Y20508D01*
X35158Y20580D01*
D02*
G37*
G36*
X2138D02*
X1861D01*
X1594Y20508D01*
X1355Y20370D01*
X1159Y20175D01*
X1021Y19935D01*
X950Y19668D01*
Y19392D01*
X1021Y19125D01*
X1159Y18885D01*
X1355Y18690D01*
X1594Y18552D01*
X1861Y18480D01*
X2138D01*
X2405Y18552D01*
X2644Y18690D01*
X2840Y18885D01*
X2978Y19125D01*
X3050Y19392D01*
Y19668D01*
X2978Y19935D01*
X2840Y20175D01*
X2644Y20370D01*
X2405Y20508D01*
X2138Y20580D01*
D02*
G37*
G36*
X22370Y17104D02*
X22130D01*
X21938Y17024D01*
X22153Y16810D01*
X21940Y16597D01*
X21726Y16812D01*
X21646Y16620D01*
Y16380D01*
X21726Y16188D01*
X21940Y16403D01*
X22153Y16190D01*
X21938Y15976D01*
X22130Y15896D01*
X22370D01*
X22562Y15976D01*
X22347Y16190D01*
X22560Y16403D01*
X22774Y16188D01*
X22854Y16380D01*
Y16620D01*
X22774Y16812D01*
X22560Y16597D01*
X22347Y16810D01*
X22562Y17024D01*
X22370Y17104D01*
D02*
G37*
G36*
X35158Y18040D02*
X34882D01*
X34615Y17968D01*
X34375Y17830D01*
X34180Y17635D01*
X34041Y17395D01*
X33970Y17128D01*
Y16852D01*
X34041Y16585D01*
X34180Y16345D01*
X34375Y16150D01*
X34615Y16012D01*
X34882Y15940D01*
X35158D01*
X35425Y16012D01*
X35665Y16150D01*
X35860Y16345D01*
X35998Y16585D01*
X36070Y16852D01*
Y17128D01*
X35998Y17395D01*
X35860Y17635D01*
X35665Y17830D01*
X35425Y17968D01*
X35158Y18040D01*
D02*
G37*
G36*
X2138D02*
X1862D01*
X1595Y17968D01*
X1355Y17830D01*
X1160Y17635D01*
X1021Y17395D01*
X950Y17128D01*
Y16852D01*
X1021Y16585D01*
X1160Y16345D01*
X1355Y16150D01*
X1595Y16012D01*
X1862Y15940D01*
X2138D01*
X2405Y16012D01*
X2645Y16150D01*
X2840Y16345D01*
X2978Y16585D01*
X3050Y16852D01*
Y17128D01*
X2978Y17395D01*
X2840Y17635D01*
X2645Y17830D01*
X2405Y17968D01*
X2138Y18040D01*
D02*
G37*
G36*
X12665Y16504D02*
X12335D01*
X12016Y16419D01*
X11730Y16253D01*
X11719Y16243D01*
X11927Y16035D01*
X11715Y15823D01*
X11507Y16031D01*
X11497Y16020D01*
X11331Y15734D01*
X11246Y15415D01*
Y15085D01*
X11331Y14766D01*
X11497Y14480D01*
X11507Y14469D01*
X11715Y14677D01*
X11927Y14465D01*
X11719Y14257D01*
X11730Y14247D01*
X12016Y14081D01*
X12335Y13996D01*
X12665D01*
X12984Y14081D01*
X13270Y14247D01*
X13281Y14257D01*
X13073Y14465D01*
X13285Y14677D01*
X13493Y14469D01*
X13503Y14480D01*
X13669Y14766D01*
X13754Y15085D01*
Y15415D01*
X13669Y15734D01*
X13503Y16020D01*
X13493Y16031D01*
X13285Y15823D01*
X13073Y16035D01*
X13281Y16243D01*
X13270Y16253D01*
X12984Y16419D01*
X12665Y16504D01*
D02*
G37*
G36*
X24671Y16550D02*
X24329D01*
X23998Y16461D01*
X23702Y16290D01*
X23460Y16048D01*
X23289Y15752D01*
X23200Y15421D01*
Y15079D01*
X23289Y14748D01*
X23460Y14452D01*
X23702Y14210D01*
X23998Y14039D01*
X24329Y13950D01*
X24671D01*
X25002Y14039D01*
X25298Y14210D01*
X25540Y14452D01*
X25711Y14748D01*
X25800Y15079D01*
Y15421D01*
X25711Y15752D01*
X25540Y16048D01*
X25298Y16290D01*
X25002Y16461D01*
X24671Y16550D01*
D02*
G37*
G36*
X20171D02*
X19829D01*
X19498Y16461D01*
X19202Y16290D01*
X18960Y16048D01*
X18789Y15752D01*
X18700Y15421D01*
Y15079D01*
X18789Y14748D01*
X18960Y14452D01*
X19202Y14210D01*
X19498Y14039D01*
X19829Y13950D01*
X20171D01*
X20502Y14039D01*
X20798Y14210D01*
X21040Y14452D01*
X21211Y14748D01*
X21300Y15079D01*
Y15421D01*
X21211Y15752D01*
X21040Y16048D01*
X20798Y16290D01*
X20502Y16461D01*
X20171Y16550D01*
D02*
G37*
G36*
X17171D02*
X16829D01*
X16498Y16461D01*
X16202Y16290D01*
X15960Y16048D01*
X15789Y15752D01*
X15700Y15421D01*
Y15079D01*
X15789Y14748D01*
X15960Y14452D01*
X16202Y14210D01*
X16498Y14039D01*
X16829Y13950D01*
X17171D01*
X17502Y14039D01*
X17798Y14210D01*
X18040Y14452D01*
X18211Y14748D01*
X18300Y15079D01*
Y15421D01*
X18211Y15752D01*
X18040Y16048D01*
X17798Y16290D01*
X17502Y16461D01*
X17171Y16550D01*
D02*
G37*
G36*
X22370Y14354D02*
X22130D01*
X21938Y14274D01*
X22153Y14060D01*
X21940Y13847D01*
X21726Y14062D01*
X21646Y13870D01*
Y13630D01*
X21726Y13438D01*
X21940Y13653D01*
X22153Y13440D01*
X21938Y13226D01*
X22130Y13146D01*
X22370D01*
X22562Y13226D01*
X22347Y13440D01*
X22560Y13653D01*
X22774Y13438D01*
X22854Y13630D01*
Y13870D01*
X22774Y14062D01*
X22560Y13847D01*
X22347Y14060D01*
X22562Y14274D01*
X22370Y14354D01*
D02*
G37*
G36*
X35158Y15500D02*
X34882D01*
X34615Y15429D01*
X34375Y15290D01*
X34180Y15095D01*
X34042Y14855D01*
X33970Y14588D01*
Y14312D01*
X34042Y14045D01*
X34180Y13805D01*
X34375Y13610D01*
X34615Y13472D01*
X34882Y13400D01*
X35158D01*
X35425Y13472D01*
X35665Y13610D01*
X35860Y13805D01*
X35998Y14045D01*
X36070Y14312D01*
Y14588D01*
X35998Y14855D01*
X35860Y15095D01*
X35665Y15290D01*
X35425Y15429D01*
X35158Y15500D01*
D02*
G37*
G36*
X2138D02*
X1862D01*
X1595Y15429D01*
X1355Y15290D01*
X1160Y15095D01*
X1022Y14855D01*
X950Y14588D01*
Y14312D01*
X1022Y14045D01*
X1160Y13805D01*
X1355Y13610D01*
X1595Y13472D01*
X1862Y13400D01*
X2138D01*
X2405Y13472D01*
X2645Y13610D01*
X2840Y13805D01*
X2978Y14045D01*
X3050Y14312D01*
Y14588D01*
X2978Y14855D01*
X2840Y15095D01*
X2645Y15290D01*
X2405Y15429D01*
X2138Y15500D01*
D02*
G37*
G36*
X35158Y12960D02*
X34882D01*
X34615Y12889D01*
X34375Y12750D01*
X34180Y12555D01*
X34042Y12315D01*
X33970Y12048D01*
Y11772D01*
X34042Y11505D01*
X34180Y11265D01*
X34375Y11070D01*
X34615Y10932D01*
X34882Y10860D01*
X35158D01*
X35425Y10932D01*
X35665Y11070D01*
X35860Y11265D01*
X35998Y11505D01*
X36070Y11772D01*
Y12048D01*
X35998Y12315D01*
X35860Y12555D01*
X35665Y12750D01*
X35425Y12889D01*
X35158Y12960D01*
D02*
G37*
G36*
X2138D02*
X1862D01*
X1595Y12889D01*
X1355Y12750D01*
X1160Y12555D01*
X1022Y12315D01*
X950Y12048D01*
Y11772D01*
X1022Y11505D01*
X1160Y11265D01*
X1355Y11070D01*
X1595Y10932D01*
X1862Y10860D01*
X2138D01*
X2405Y10932D01*
X2645Y11070D01*
X2840Y11265D01*
X2978Y11505D01*
X3050Y11772D01*
Y12048D01*
X2978Y12315D01*
X2840Y12555D01*
X2645Y12750D01*
X2405Y12889D01*
X2138Y12960D01*
D02*
G37*
G36*
X12665Y10004D02*
X12335D01*
X12016Y9919D01*
X11730Y9753D01*
X11719Y9743D01*
X11927Y9535D01*
X11715Y9323D01*
X11507Y9531D01*
X11497Y9520D01*
X11331Y9234D01*
X11246Y8915D01*
Y8585D01*
X11331Y8266D01*
X11497Y7980D01*
X11507Y7969D01*
X11715Y8177D01*
X11927Y7965D01*
X11719Y7757D01*
X11730Y7747D01*
X12016Y7581D01*
X12335Y7496D01*
X12665D01*
X12984Y7581D01*
X13270Y7747D01*
X13281Y7757D01*
X13073Y7965D01*
X13285Y8177D01*
X13493Y7969D01*
X13503Y7980D01*
X13669Y8266D01*
X13754Y8585D01*
Y8915D01*
X13669Y9234D01*
X13503Y9520D01*
X13493Y9531D01*
X13285Y9323D01*
X13073Y9535D01*
X13281Y9743D01*
X13270Y9753D01*
X12984Y9919D01*
X12665Y10004D01*
D02*
G37*
G36*
X35158Y10420D02*
X34882D01*
X34615Y10349D01*
X34375Y10210D01*
X34180Y10015D01*
X34042Y9775D01*
X33970Y9508D01*
Y9232D01*
X34042Y8965D01*
X34180Y8725D01*
X34375Y8530D01*
X34615Y8392D01*
X34882Y8320D01*
X35158D01*
X35425Y8392D01*
X35665Y8530D01*
X35860Y8725D01*
X35998Y8965D01*
X36070Y9232D01*
Y9508D01*
X35998Y9775D01*
X35860Y10015D01*
X35665Y10210D01*
X35425Y10349D01*
X35158Y10420D01*
D02*
G37*
G36*
X2138D02*
X1862D01*
X1595Y10349D01*
X1355Y10210D01*
X1160Y10015D01*
X1022Y9775D01*
X950Y9508D01*
Y9232D01*
X1022Y8965D01*
X1160Y8725D01*
X1355Y8530D01*
X1595Y8392D01*
X1862Y8320D01*
X2138D01*
X2405Y8392D01*
X2645Y8530D01*
X2840Y8725D01*
X2978Y8965D01*
X3050Y9232D01*
Y9508D01*
X2978Y9775D01*
X2840Y10015D01*
X2645Y10210D01*
X2405Y10349D01*
X2138Y10420D01*
D02*
G37*
G36*
X24671Y10050D02*
X24329D01*
X23998Y9961D01*
X23702Y9790D01*
X23460Y9548D01*
X23289Y9252D01*
X23200Y8921D01*
Y8579D01*
X23289Y8248D01*
X23460Y7952D01*
X23702Y7710D01*
X23998Y7539D01*
X24329Y7450D01*
X24671D01*
X25002Y7539D01*
X25298Y7710D01*
X25540Y7952D01*
X25711Y8248D01*
X25800Y8579D01*
Y8921D01*
X25711Y9252D01*
X25540Y9548D01*
X25298Y9790D01*
X25002Y9961D01*
X24671Y10050D01*
D02*
G37*
G36*
X20171D02*
X19829D01*
X19498Y9961D01*
X19202Y9790D01*
X18960Y9548D01*
X18789Y9252D01*
X18700Y8921D01*
Y8579D01*
X18789Y8248D01*
X18960Y7952D01*
X19202Y7710D01*
X19498Y7539D01*
X19829Y7450D01*
X20171D01*
X20502Y7539D01*
X20798Y7710D01*
X21040Y7952D01*
X21211Y8248D01*
X21300Y8579D01*
Y8921D01*
X21211Y9252D01*
X21040Y9548D01*
X20798Y9790D01*
X20502Y9961D01*
X20171Y10050D01*
D02*
G37*
G36*
X17171D02*
X16829D01*
X16498Y9961D01*
X16202Y9790D01*
X15960Y9548D01*
X15789Y9252D01*
X15700Y8921D01*
Y8579D01*
X15789Y8248D01*
X15960Y7952D01*
X16202Y7710D01*
X16498Y7539D01*
X16829Y7450D01*
X17171D01*
X17502Y7539D01*
X17798Y7710D01*
X18040Y7952D01*
X18211Y8248D01*
X18300Y8579D01*
Y8921D01*
X18211Y9252D01*
X18040Y9548D01*
X17798Y9790D01*
X17502Y9961D01*
X17171Y10050D01*
D02*
G37*
G36*
X35158Y7880D02*
X34882D01*
X34615Y7808D01*
X34375Y7670D01*
X34180Y7475D01*
X34041Y7235D01*
X33970Y6968D01*
Y6692D01*
X34041Y6425D01*
X34180Y6185D01*
X34375Y5990D01*
X34615Y5852D01*
X34882Y5780D01*
X35158D01*
X35425Y5852D01*
X35665Y5990D01*
X35860Y6185D01*
X35998Y6425D01*
X36070Y6692D01*
Y6968D01*
X35998Y7235D01*
X35860Y7475D01*
X35665Y7670D01*
X35425Y7808D01*
X35158Y7880D01*
D02*
G37*
G36*
X2138D02*
X1862D01*
X1595Y7808D01*
X1355Y7670D01*
X1160Y7475D01*
X1021Y7235D01*
X950Y6968D01*
Y6692D01*
X1021Y6425D01*
X1160Y6185D01*
X1355Y5990D01*
X1595Y5852D01*
X1862Y5780D01*
X2138D01*
X2405Y5852D01*
X2645Y5990D01*
X2840Y6185D01*
X2978Y6425D01*
X3050Y6692D01*
Y6968D01*
X2978Y7235D01*
X2840Y7475D01*
X2645Y7670D01*
X2405Y7808D01*
X2138Y7880D01*
D02*
G37*
G36*
X27638Y5570D02*
X27362D01*
X27095Y5498D01*
X26855Y5360D01*
X26660Y5165D01*
X26521Y4925D01*
X26450Y4658D01*
Y4382D01*
X26521Y4115D01*
X26660Y3875D01*
X26855Y3680D01*
X27095Y3542D01*
X27362Y3470D01*
X27638D01*
X27905Y3542D01*
X28145Y3680D01*
X28340Y3875D01*
X28478Y4115D01*
X28550Y4382D01*
Y4658D01*
X28478Y4925D01*
X28340Y5165D01*
X28145Y5360D01*
X27905Y5498D01*
X27638Y5570D01*
D02*
G37*
G36*
X35158Y5340D02*
X34882D01*
X34615Y5268D01*
X34375Y5130D01*
X34180Y4935D01*
X34041Y4695D01*
X33970Y4428D01*
Y4152D01*
X34041Y3885D01*
X34180Y3645D01*
X34375Y3450D01*
X34615Y3312D01*
X34882Y3240D01*
X35158D01*
X35425Y3312D01*
X35665Y3450D01*
X35860Y3645D01*
X35998Y3885D01*
X36070Y4152D01*
Y4428D01*
X35998Y4695D01*
X35860Y4935D01*
X35665Y5130D01*
X35425Y5268D01*
X35158Y5340D01*
D02*
G37*
G36*
X2138D02*
X1862D01*
X1595Y5268D01*
X1355Y5130D01*
X1160Y4935D01*
X1021Y4695D01*
X950Y4428D01*
Y4152D01*
X1021Y3885D01*
X1160Y3645D01*
X1355Y3450D01*
X1595Y3312D01*
X1862Y3240D01*
X2138D01*
X2405Y3312D01*
X2645Y3450D01*
X2840Y3645D01*
X2978Y3885D01*
X3050Y4152D01*
Y4428D01*
X2978Y4695D01*
X2840Y4935D01*
X2645Y5130D01*
X2405Y5268D01*
X2138Y5340D01*
D02*
G37*
G36*
X18632Y3004D02*
X18368D01*
X18112Y2936D01*
X17899Y2813D01*
X18107Y2606D01*
X17894Y2393D01*
X17687Y2600D01*
X17564Y2388D01*
X17496Y2132D01*
Y1868D01*
X17564Y1612D01*
X17687Y1400D01*
X17894Y1607D01*
X18107Y1394D01*
X17899Y1187D01*
X18112Y1064D01*
X18368Y996D01*
X18632D01*
X18887Y1064D01*
X19100Y1187D01*
X18893Y1394D01*
X19106Y1607D01*
X19313Y1400D01*
X19436Y1612D01*
X19504Y1868D01*
Y2132D01*
X19436Y2388D01*
X19313Y2600D01*
X19106Y2393D01*
X18893Y2606D01*
X19100Y2813D01*
X18887Y2936D01*
X18632Y3004D01*
D02*
G37*
G36*
X27632Y2984D02*
X27368D01*
X27112Y2916D01*
X26899Y2793D01*
X27106Y2586D01*
X26894Y2373D01*
X26687Y2581D01*
X26564Y2368D01*
X26496Y2112D01*
Y1848D01*
X26564Y1592D01*
X26687Y1380D01*
X26894Y1587D01*
X27106Y1374D01*
X26899Y1167D01*
X27112Y1044D01*
X27368Y976D01*
X27632D01*
X27887Y1044D01*
X28100Y1167D01*
X27893Y1374D01*
X28105Y1587D01*
X28312Y1380D01*
X28435Y1592D01*
X28504Y1848D01*
Y2112D01*
X28435Y2368D01*
X28312Y2581D01*
X28105Y2373D01*
X27893Y2586D01*
X28100Y2793D01*
X27887Y2916D01*
X27632Y2984D01*
D02*
G37*
G36*
X35152Y2754D02*
X34887D01*
X34632Y2686D01*
X34419Y2563D01*
X34626Y2356D01*
X34414Y2143D01*
X34207Y2350D01*
X34084Y2138D01*
X34016Y1882D01*
Y1618D01*
X34084Y1362D01*
X34207Y1150D01*
X34414Y1357D01*
X34626Y1144D01*
X34419Y937D01*
X34632Y814D01*
X34887Y746D01*
X35152D01*
X35407Y814D01*
X35620Y937D01*
X35413Y1144D01*
X35625Y1357D01*
X35832Y1150D01*
X35955Y1362D01*
X36024Y1618D01*
Y1882D01*
X35955Y2138D01*
X35832Y2350D01*
X35625Y2143D01*
X35413Y2356D01*
X35620Y2563D01*
X35407Y2686D01*
X35152Y2754D01*
D02*
G37*
G36*
X2132D02*
X1867D01*
X1612Y2686D01*
X1399Y2563D01*
X1606Y2356D01*
X1394Y2143D01*
X1187Y2350D01*
X1064Y2138D01*
X996Y1882D01*
Y1618D01*
X1064Y1362D01*
X1187Y1150D01*
X1394Y1357D01*
X1606Y1144D01*
X1399Y937D01*
X1612Y814D01*
X1867Y746D01*
X2132D01*
X2387Y814D01*
X2600Y937D01*
X2393Y1144D01*
X2605Y1357D01*
X2812Y1150D01*
X2935Y1362D01*
X3004Y1618D01*
Y1882D01*
X2935Y2138D01*
X2812Y2350D01*
X2605Y2143D01*
X2393Y2356D01*
X2600Y2563D01*
X2387Y2686D01*
X2132Y2754D01*
D02*
G37*
G36*
X21178Y3050D02*
X20902D01*
X20635Y2978D01*
X20395Y2840D01*
X20200Y2645D01*
X20062Y2405D01*
X19990Y2138D01*
Y1862D01*
X20062Y1595D01*
X20200Y1355D01*
X20395Y1160D01*
X20635Y1022D01*
X20902Y950D01*
X21178D01*
X21445Y1022D01*
X21685Y1160D01*
X21880Y1355D01*
X22018Y1595D01*
X22090Y1862D01*
Y2138D01*
X22018Y2405D01*
X21880Y2645D01*
X21685Y2840D01*
X21445Y2978D01*
X21178Y3050D01*
D02*
G37*
G36*
X16098Y3050D02*
X15822D01*
X15555Y2978D01*
X15315Y2840D01*
X15120Y2645D01*
X14981Y2405D01*
X14910Y2138D01*
Y1862D01*
X14981Y1595D01*
X15120Y1355D01*
X15315Y1160D01*
X15555Y1021D01*
X15822Y950D01*
X16098D01*
X16365Y1021D01*
X16605Y1160D01*
X16800Y1355D01*
X16938Y1595D01*
X17010Y1862D01*
Y2138D01*
X16938Y2405D01*
X16800Y2645D01*
X16605Y2840D01*
X16365Y2978D01*
X16098Y3050D01*
D02*
G37*
%LPD*%
D19*
X21040Y2000D02*
D03*
X18500D02*
D03*
X15960Y2000D02*
D03*
X27500Y4520D02*
D03*
Y1980D02*
D03*
X2000Y4290D02*
D03*
X2000Y1750D02*
D03*
X1999Y50010D02*
D03*
Y47470D02*
D03*
X1999Y44930D02*
D03*
X1999Y42390D02*
D03*
Y52550D02*
D03*
X1999Y65250D02*
D03*
Y62710D02*
D03*
Y60170D02*
D03*
X1999Y57630D02*
D03*
X1999Y55090D02*
D03*
X2000Y37310D02*
D03*
Y34770D02*
D03*
X1999Y32230D02*
D03*
X2000Y29690D02*
D03*
Y39850D02*
D03*
X2000Y24610D02*
D03*
Y22070D02*
D03*
X2000Y19530D02*
D03*
X2000Y16990D02*
D03*
Y27150D02*
D03*
X2000Y11910D02*
D03*
Y9370D02*
D03*
X2000Y6830D02*
D03*
X2000Y14450D02*
D03*
X35020Y4290D02*
D03*
X35020Y1750D02*
D03*
X35019Y50010D02*
D03*
Y47470D02*
D03*
X35019Y44930D02*
D03*
X35019Y42390D02*
D03*
Y52550D02*
D03*
X35019Y65250D02*
D03*
Y62710D02*
D03*
Y60170D02*
D03*
X35019Y57630D02*
D03*
X35019Y55090D02*
D03*
X35020Y37310D02*
D03*
Y34770D02*
D03*
X35019Y32230D02*
D03*
X35020Y29690D02*
D03*
Y39850D02*
D03*
X35020Y24610D02*
D03*
Y22070D02*
D03*
X35020Y19530D02*
D03*
X35020Y16990D02*
D03*
Y27150D02*
D03*
X35020Y11910D02*
D03*
Y9370D02*
D03*
X35020Y6830D02*
D03*
X35020Y14450D02*
D03*
D20*
X12480Y55700D02*
D03*
X24520D02*
D03*
D21*
X17250Y53000D02*
D03*
X19750D02*
D03*
Y51000D02*
D03*
D22*
X17250D02*
D03*
D23*
X24500Y15250D02*
D03*
Y8750D02*
D03*
X20000Y15250D02*
D03*
Y8750D02*
D03*
X17000Y15250D02*
D03*
Y8750D02*
D03*
X12500Y15250D02*
D03*
Y8750D02*
D03*
D24*
X25000Y41500D02*
D03*
X28250Y38500D02*
D03*
X27000D02*
D03*
X23250D02*
D03*
X22000D02*
D03*
X21000D02*
D03*
X9325Y32125D02*
D03*
X6250Y55750D02*
D03*
X22250Y16500D02*
D03*
X20375Y22150D02*
D03*
X27750Y36750D02*
D03*
Y26000D02*
D03*
X25000D02*
D03*
X22250Y13750D02*
D03*
X13750Y22000D02*
D03*
X28000Y45000D02*
D03*
X33000Y50250D02*
D03*
X23750Y45000D02*
D03*
X26250Y26000D02*
D03*
X11000Y25500D02*
D03*
X14750Y31250D02*
D03*
X18500Y31000D02*
D03*
X21250Y28250D02*
D03*
X20250D02*
D03*
X19250D02*
D03*
X17500Y24500D02*
D03*
X16250D02*
D03*
X15250Y28250D02*
D03*
X18250D02*
D03*
X17250D02*
D03*
X16250D02*
D03*
X14250Y40750D02*
D03*
X9250Y41250D02*
D03*
X10500Y48500D02*
D03*
X14500D02*
D03*
X28500Y48250D02*
D03*
X22000Y30250D02*
D03*
Y31250D02*
D03*
X29500Y38500D02*
D03*
X25000Y34750D02*
D03*
X14750Y33250D02*
D03*
X9250Y44750D02*
D03*
X16000Y38250D02*
D03*
X19250Y38000D02*
D03*
X13000Y41250D02*
D03*
X11750D02*
D03*
X10500D02*
D03*
Y44750D02*
D03*
X11750D02*
D03*
%TF.MD5,306e3ddec0cfc59a346f163e6364ee68*%
M02*
