%TF.GenerationSoftware,Altium Limited,Altium Designer,25.2.1 (25)*%
G04 Layer_Color=16711833*
%FSLAX43Y43*%
%MOMM*%
%TF.SameCoordinates,73B19FC9-5684-49D0-80EE-29C7FECE4A2C*%
%TF.FilePolarity,Positive*%
%TF.FileFunction,Other,Mechanical_13*%
%TF.Part,Single*%
G01*
G75*
%TA.AperFunction,NonConductor*%
%ADD32C,0.100*%
%ADD34C,0.254*%
D32*
X24200Y39500D02*
Y41500D01*
Y39500D02*
X25800D01*
Y41500D01*
X24200D02*
X25800D01*
X29600Y39700D02*
X30400D01*
X29600D02*
Y41300D01*
X30400D01*
Y39700D02*
Y41300D01*
X28100Y39700D02*
Y41300D01*
Y39700D02*
X28900D01*
Y41300D01*
X28100D02*
X28900D01*
X26600Y39700D02*
X27400D01*
X26600D02*
Y41300D01*
X27400D01*
Y39700D02*
Y41300D01*
X22600D02*
X23400D01*
Y39700D02*
Y41300D01*
X22600Y39700D02*
X23400D01*
X22600D02*
Y41300D01*
X21100Y39700D02*
X21900D01*
X21100D02*
Y41300D01*
X21900D01*
Y39700D02*
Y41300D01*
X15100Y40800D02*
X15900D01*
Y39200D02*
Y40800D01*
X15100Y39200D02*
X15900D01*
X15100D02*
Y40800D01*
X13615Y40385D02*
Y45615D01*
X8385D02*
X13615D01*
X8385Y40385D02*
Y45615D01*
Y40385D02*
X13615D01*
X12345D02*
X13615Y41655D01*
X9200Y30850D02*
Y31650D01*
X10800D01*
Y30850D02*
Y31650D01*
X9200Y30850D02*
X10800D01*
X14600Y20700D02*
X15400D01*
X14600D02*
Y22300D01*
X15400D01*
Y20700D02*
Y22300D01*
X9200Y28600D02*
Y29400D01*
X10800D01*
Y28600D02*
Y29400D01*
X9200Y28600D02*
X10800D01*
X27800Y34350D02*
Y35150D01*
X26200Y34350D02*
X27800D01*
X26200D02*
Y35150D01*
X27800D01*
X9200Y32600D02*
Y33400D01*
X10800D01*
Y32600D02*
Y33400D01*
X9200Y32600D02*
X10800D01*
X27800Y29100D02*
Y29900D01*
X26200Y29100D02*
X27800D01*
X26200D02*
Y29900D01*
X27800D01*
X16600Y40800D02*
X17400D01*
Y39200D02*
Y40800D01*
X16600Y39200D02*
X17400D01*
X16600D02*
Y40800D01*
X16350Y20700D02*
X17150D01*
X16350D02*
Y22300D01*
X17150D01*
Y20700D02*
Y22300D01*
X27800Y26850D02*
Y27650D01*
X26200Y26850D02*
X27800D01*
X26200D02*
Y27650D01*
X27800D01*
X23350Y46200D02*
X24150D01*
X23350D02*
Y47800D01*
X24150D01*
Y46200D02*
Y47800D01*
X21400Y4200D02*
Y5800D01*
X20600D02*
X21400D01*
X20600Y4200D02*
Y5800D01*
Y4200D02*
X21400D01*
X16400D02*
Y5800D01*
X15600D02*
X16400D01*
X15600Y4200D02*
Y5800D01*
Y4200D02*
X16400D01*
X9500Y55125D02*
Y56375D01*
X7500Y55125D02*
X9500D01*
X7500D02*
Y56375D01*
X9500D01*
X26575Y45800D02*
X30425D01*
Y50700D01*
X26575D02*
X30425D01*
X26575Y45800D02*
Y50700D01*
Y47070D02*
X27845Y45800D01*
X11700Y48100D02*
Y48900D01*
X13300D01*
Y48100D02*
Y48900D01*
X11700Y48100D02*
X13300D01*
X18250Y22600D02*
X20750D01*
X18250Y19400D02*
Y22600D01*
Y19400D02*
X20750D01*
Y22600D01*
X21850Y11200D02*
Y12800D01*
Y11200D02*
X22650D01*
Y12800D01*
X21850D02*
X22650D01*
X14350Y11200D02*
Y12800D01*
Y11200D02*
X15150D01*
Y12800D01*
X14350D02*
X15150D01*
X24550Y49900D02*
Y66100D01*
X12450D02*
X24550D01*
X12450Y49900D02*
Y66100D01*
Y49900D02*
X24550D01*
X27800Y30600D02*
Y31400D01*
X26200Y30600D02*
X27800D01*
X26200D02*
Y31400D01*
X27800D01*
X18100Y20700D02*
X18900D01*
X18100D02*
Y22300D01*
X18900D01*
Y20700D02*
Y22300D01*
X21850Y20700D02*
X22650D01*
Y22300D01*
X21850D02*
X22650D01*
X21850Y20700D02*
Y22300D01*
Y17700D02*
Y19300D01*
X22650D01*
Y17700D02*
Y19300D01*
X21850Y17700D02*
X22650D01*
X16350Y20700D02*
Y22300D01*
X17150D01*
Y20700D02*
Y22300D01*
X16350Y20700D02*
X17150D01*
X17350Y48050D02*
X18150D01*
X17350Y46450D02*
Y48050D01*
Y46450D02*
X18150D01*
Y48050D01*
X18850D02*
X19650D01*
X18850Y46450D02*
Y48050D01*
Y46450D02*
X19650D01*
Y48050D01*
D34*
X25245Y9005D02*
Y14995D01*
X19255Y9005D02*
X25245D01*
X19255D02*
Y14995D01*
X25245D01*
X17745Y9005D02*
Y14995D01*
X11755Y9005D02*
X17745D01*
X11755D02*
Y14995D01*
X17745D01*
%TF.MD5,e657a39b834b3b910bccb49ad7f644a3*%
M02*
