%TF.GenerationSoftware,Altium Limited,Altium Designer,25.2.1 (25)*%
G04 Layer_Color=65535*
%FSLAX43Y43*%
%MOMM*%
%TF.SameCoordinates,73B19FC9-5684-49D0-80EE-29C7FECE4A2C*%
%TF.FilePolarity,Positive*%
%TF.FileFunction,Legend,Top*%
%TF.Part,Single*%
G01*
G75*
%TA.AperFunction,NonConductor*%
%ADD18C,0.300*%
%ADD32C,0.100*%
%ADD33C,0.200*%
%ADD34C,0.254*%
%ADD35C,0.250*%
D18*
X12850Y36750D02*
G03*
X12850Y36750I-100J0D01*
G01*
D32*
X17700Y22150D02*
G03*
X17600Y22150I-50J0D01*
G01*
D02*
G03*
X17700Y22150I50J0D01*
G01*
X23750Y35500D02*
Y36250D01*
X23000D02*
X23750D01*
X23000Y25750D02*
X23750D01*
Y26500D01*
X13250Y25750D02*
Y26500D01*
Y25750D02*
X14000D01*
X13250Y36250D02*
X14000D01*
X13250Y35500D02*
Y36250D01*
D33*
X22310Y730D02*
Y3270D01*
X14690Y730D02*
Y3270D01*
Y730D02*
X22310D01*
X14690Y3270D02*
X22310D01*
X26230Y5790D02*
X28770D01*
X26230Y710D02*
X28770D01*
Y710D02*
Y5790D01*
X26230Y710D02*
Y5790D01*
X729Y480D02*
X3269D01*
Y66520D01*
X729Y480D02*
Y66520D01*
X729Y66520D02*
X3269D01*
X33749Y480D02*
X36289D01*
Y66520D01*
X33749Y480D02*
Y66520D01*
X33749Y66520D02*
X36289D01*
X18250Y20800D02*
Y21200D01*
X20750Y20800D02*
Y21200D01*
X23800Y66350D02*
X24800D01*
Y65350D02*
Y66350D01*
X12200Y65350D02*
Y66350D01*
X13200D01*
X12200Y49650D02*
X13200D01*
X12200D02*
Y50650D01*
X24800Y49650D02*
Y50650D01*
X23800Y49650D02*
X24800D01*
X25430Y53790D02*
X26430D01*
Y54790D01*
Y56610D02*
Y57610D01*
X25430D02*
X26430D01*
X10570Y53790D02*
Y54790D01*
Y53790D02*
X11570D01*
X10570Y57610D02*
X11570D01*
X10570Y56610D02*
Y57610D01*
X21850Y21500D02*
X22650D01*
X21850Y18500D02*
X22650D01*
X16350Y21500D02*
X17150D01*
X17350Y47250D02*
X18150D01*
X18850D02*
X19650D01*
X24167Y1750D02*
Y750D01*
Y1250D01*
X24833D01*
Y1750D01*
Y750D01*
X25666D02*
Y1750D01*
X25167Y1250D01*
X25833D01*
X18834Y18500D02*
Y18334D01*
X19167Y18001D01*
X19500Y18334D01*
Y18500D01*
X19167Y18001D02*
Y17501D01*
X19834D02*
X20167D01*
X20000D01*
Y18500D01*
X19834Y18334D01*
X10667Y62480D02*
X11334Y61480D01*
Y62480D02*
X10667Y61480D01*
X11667D02*
X12000D01*
X11833D01*
Y62480D01*
X11667Y62313D01*
X12950Y25050D02*
Y24217D01*
X13117Y24050D01*
X13450D01*
X13616Y24217D01*
Y25050D01*
X13950Y24050D02*
X14283D01*
X14116D01*
Y25050D01*
X13950Y24883D01*
X14750Y8383D02*
X14583Y8550D01*
X14250D01*
X14084Y8383D01*
Y8217D01*
X14250Y8050D01*
X14583D01*
X14750Y7884D01*
Y7717D01*
X14583Y7550D01*
X14250D01*
X14084Y7717D01*
X15083Y7550D02*
X15416D01*
X15250D01*
Y8550D01*
X15083Y8383D01*
X22083D02*
X21917Y8550D01*
X21584D01*
X21417Y8383D01*
Y8217D01*
X21584Y8050D01*
X21917D01*
X22083Y7884D01*
Y7717D01*
X21917Y7550D01*
X21584D01*
X21417Y7717D01*
X23083Y7550D02*
X22417D01*
X23083Y8217D01*
Y8383D01*
X22916Y8550D01*
X22583D01*
X22417Y8383D01*
X21250Y46417D02*
X20250D01*
Y46917D01*
X20417Y47083D01*
X20750D01*
X20917Y46917D01*
Y46417D01*
Y46750D02*
X21250Y47083D01*
Y48083D02*
Y47417D01*
X20583Y48083D01*
X20417D01*
X20250Y47916D01*
Y47583D01*
X20417Y47417D01*
X16750Y46584D02*
X15750D01*
Y47083D01*
X15917Y47250D01*
X16250D01*
X16417Y47083D01*
Y46584D01*
Y46917D02*
X16750Y47250D01*
Y47583D02*
Y47916D01*
Y47750D01*
X15750D01*
X15917Y47583D01*
X23050Y21000D02*
Y22000D01*
X23550D01*
X23716Y21833D01*
Y21500D01*
X23550Y21333D01*
X23050D01*
X23383D02*
X23716Y21000D01*
X24050Y21833D02*
X24216Y22000D01*
X24550D01*
X24716Y21833D01*
Y21667D01*
X24550Y21500D01*
X24383D01*
X24550D01*
X24716Y21333D01*
Y21167D01*
X24550Y21000D01*
X24216D01*
X24050Y21167D01*
X12717Y4700D02*
Y3700D01*
Y4200D01*
X13384D01*
Y4700D01*
Y3700D01*
X13717D02*
X14050D01*
X13883D01*
Y4700D01*
X13717Y4533D01*
X23716Y18833D02*
X23550Y19000D01*
X23217D01*
X23050Y18833D01*
Y18167D01*
X23217Y18000D01*
X23550D01*
X23716Y18167D01*
X24716Y18000D02*
X24050D01*
X24716Y18667D01*
Y18833D01*
X24550Y19000D01*
X24216D01*
X24050Y18833D01*
X15284Y21833D02*
X15117Y22000D01*
X14784D01*
X14617Y21833D01*
Y21167D01*
X14784Y21000D01*
X15117D01*
X15284Y21167D01*
X15617Y21000D02*
X15950D01*
X15783D01*
Y22000D01*
X15617Y21833D01*
D34*
X25250Y10000D02*
Y14000D01*
X21500Y9000D02*
X23000D01*
X19255Y10000D02*
Y14000D01*
X21500Y15000D02*
X23000D01*
X17750Y10000D02*
Y14000D01*
X14000Y9000D02*
X15500D01*
X11755Y10000D02*
Y14000D01*
X14000Y15000D02*
X15500D01*
D35*
X25250Y2750D02*
Y3416D01*
X24917Y3083D02*
X25583D01*
X25750Y3750D02*
Y4083D01*
Y3916D01*
X24750D01*
X24917Y3750D01*
X24750Y4583D02*
X25417D01*
X25750Y4916D01*
X25417Y5249D01*
X24750D01*
X25750Y5582D02*
Y5916D01*
Y5749D01*
X24750D01*
X24917Y5582D01*
X26750Y9667D02*
X25750D01*
Y10167D01*
X25917Y10334D01*
X26250D01*
X26416Y10167D01*
Y9667D01*
Y10001D02*
X26750Y10334D01*
X25750Y11334D02*
Y10667D01*
X26750D01*
Y11334D01*
X26250Y10667D02*
Y11000D01*
X25917Y12333D02*
X25750Y12167D01*
Y11833D01*
X25917Y11667D01*
X26083D01*
X26250Y11833D01*
Y12167D01*
X26416Y12333D01*
X26583D01*
X26750Y12167D01*
Y11833D01*
X26583Y11667D01*
X25750Y13333D02*
Y12666D01*
X26750D01*
Y13333D01*
X26250Y12666D02*
Y13000D01*
X25750Y13666D02*
Y14333D01*
Y13999D01*
X26750D01*
X10250Y10167D02*
X11250D01*
Y10667D01*
X11083Y10834D01*
X10917D01*
X10750Y10667D01*
Y10167D01*
Y10667D01*
X10584Y10834D01*
X10417D01*
X10250Y10667D01*
Y10167D01*
Y11667D02*
Y11334D01*
X10417Y11167D01*
X11083D01*
X11250Y11334D01*
Y11667D01*
X11083Y11833D01*
X10417D01*
X10250Y11667D01*
Y12666D02*
Y12333D01*
X10417Y12167D01*
X11083D01*
X11250Y12333D01*
Y12666D01*
X11083Y12833D01*
X10417D01*
X10250Y12666D01*
Y13166D02*
Y13833D01*
Y13500D01*
X11250D01*
X12251Y2333D02*
X12084Y2500D01*
X11751D01*
X11584Y2333D01*
Y2167D01*
X11751Y2000D01*
X12084D01*
X12251Y1833D01*
Y1667D01*
X12084Y1500D01*
X11751D01*
X11584Y1667D01*
X12584Y2500D02*
Y1500D01*
X12917Y1833D01*
X13250Y1500D01*
Y2500D01*
X13584D02*
Y1500D01*
X14083D01*
X14250Y1667D01*
Y2333D01*
X14083Y2500D01*
X13584D01*
X18167Y4666D02*
X18000Y4500D01*
Y4167D01*
X18167Y4000D01*
X18833D01*
X19000Y4167D01*
Y4500D01*
X18833Y4666D01*
X18500D01*
Y4333D01*
X19000Y5000D02*
X18000D01*
X19000Y5666D01*
X18000D01*
Y5999D02*
X19000D01*
Y6499D01*
X18833Y6666D01*
X18167D01*
X18000Y6499D01*
Y5999D01*
X15460Y4000D02*
Y4333D01*
Y4167D01*
X16460D01*
Y4000D01*
Y4333D01*
X15460Y5333D02*
Y5000D01*
X15627Y4833D01*
X16293D01*
X16460Y5000D01*
Y5333D01*
X16293Y5500D01*
X15627D01*
X15460Y5333D01*
X20707Y4666D02*
X20540Y4500D01*
Y4167D01*
X20707Y4000D01*
X21373D01*
X21540Y4167D01*
Y4500D01*
X21373Y4666D01*
X20540Y5000D02*
X21540D01*
Y5666D01*
X20540Y5999D02*
X21540D01*
X21207D01*
X20540Y6666D01*
X21040Y6166D01*
X21540Y6666D01*
X31250Y2083D02*
X31084Y2250D01*
X30751D01*
X30584Y2083D01*
Y1417D01*
X30751Y1250D01*
X31084D01*
X31250Y1417D01*
Y1750D01*
X30917D01*
X31584Y1250D02*
Y2250D01*
X32250Y1250D01*
Y2250D01*
X32583D02*
Y1250D01*
X33083D01*
X33250Y1417D01*
Y2083D01*
X33083Y2250D01*
X32583D01*
X29585Y65250D02*
X30251D01*
X29918Y65583D02*
Y64917D01*
X30584Y65583D02*
X30751Y65750D01*
X31084D01*
X31251Y65583D01*
Y65417D01*
X31084Y65250D01*
X30917D01*
X31084D01*
X31251Y65083D01*
Y64917D01*
X31084Y64750D01*
X30751D01*
X30584Y64917D01*
X31584Y65750D02*
Y65083D01*
X31917Y64750D01*
X32250Y65083D01*
Y65750D01*
X32584Y65583D02*
X32750Y65750D01*
X33083D01*
X33250Y65583D01*
Y65417D01*
X33083Y65250D01*
X32917D01*
X33083D01*
X33250Y65083D01*
Y64917D01*
X33083Y64750D01*
X32750D01*
X32584Y64917D01*
X30251Y63043D02*
X30084Y63210D01*
X29751D01*
X29585Y63043D01*
Y62377D01*
X29751Y62210D01*
X30084D01*
X30251Y62377D01*
Y62710D01*
X29918D01*
X30584Y62210D02*
Y63210D01*
X31084D01*
X31251Y63043D01*
Y62710D01*
X31084Y62543D01*
X30584D01*
X32084Y62210D02*
Y63210D01*
X31584Y62710D01*
X32250D01*
X32584Y63210D02*
X33250D01*
Y63043D01*
X32584Y62377D01*
Y62210D01*
X30251Y60503D02*
X30084Y60670D01*
X29751D01*
X29585Y60503D01*
Y59837D01*
X29751Y59670D01*
X30084D01*
X30251Y59837D01*
Y60170D01*
X29918D01*
X30584Y59670D02*
Y60670D01*
X31084D01*
X31251Y60503D01*
Y60170D01*
X31084Y60003D01*
X30584D01*
X32084Y59670D02*
Y60670D01*
X31584Y60170D01*
X32250D01*
X33250Y60670D02*
X32917Y60503D01*
X32584Y60170D01*
Y59837D01*
X32750Y59670D01*
X33083D01*
X33250Y59837D01*
Y60003D01*
X33083Y60170D01*
X32584D01*
X30251Y57963D02*
X30084Y58130D01*
X29751D01*
X29585Y57963D01*
Y57297D01*
X29751Y57130D01*
X30084D01*
X30251Y57297D01*
Y57630D01*
X29918D01*
X30584Y57130D02*
Y58130D01*
X31084D01*
X31251Y57963D01*
Y57630D01*
X31084Y57463D01*
X30584D01*
X32084Y57130D02*
Y58130D01*
X31584Y57630D01*
X32250D01*
X33250Y58130D02*
X32584D01*
Y57630D01*
X32917Y57797D01*
X33083D01*
X33250Y57630D01*
Y57297D01*
X33083Y57130D01*
X32750D01*
X32584Y57297D01*
X30251Y55423D02*
X30084Y55590D01*
X29751D01*
X29585Y55423D01*
Y54757D01*
X29751Y54590D01*
X30084D01*
X30251Y54757D01*
Y55090D01*
X29918D01*
X30584Y54590D02*
Y55590D01*
X31084D01*
X31251Y55423D01*
Y55090D01*
X31084Y54923D01*
X30584D01*
X32084Y54590D02*
Y55590D01*
X31584Y55090D01*
X32250D01*
X33083Y54590D02*
Y55590D01*
X32584Y55090D01*
X33250D01*
X30251Y52883D02*
X30084Y53050D01*
X29751D01*
X29585Y52883D01*
Y52217D01*
X29751Y52050D01*
X30084D01*
X30251Y52217D01*
Y52550D01*
X29918D01*
X30584Y52050D02*
Y53050D01*
X31084D01*
X31251Y52883D01*
Y52550D01*
X31084Y52383D01*
X30584D01*
X32084Y52050D02*
Y53050D01*
X31584Y52550D01*
X32250D01*
X32584Y52883D02*
X32750Y53050D01*
X33083D01*
X33250Y52883D01*
Y52717D01*
X33083Y52550D01*
X32917D01*
X33083D01*
X33250Y52383D01*
Y52217D01*
X33083Y52050D01*
X32750D01*
X32584Y52217D01*
X30251Y50343D02*
X30084Y50510D01*
X29751D01*
X29585Y50343D01*
Y49677D01*
X29751Y49510D01*
X30084D01*
X30251Y49677D01*
Y50010D01*
X29918D01*
X30584Y49510D02*
Y50510D01*
X31084D01*
X31251Y50343D01*
Y50010D01*
X31084Y49843D01*
X30584D01*
X32084Y49510D02*
Y50510D01*
X31584Y50010D01*
X32250D01*
X33250Y49510D02*
X32584D01*
X33250Y50177D01*
Y50343D01*
X33083Y50510D01*
X32750D01*
X32584Y50343D01*
X30584Y47803D02*
X30418Y47970D01*
X30084D01*
X29918Y47803D01*
Y47137D01*
X30084Y46970D01*
X30418D01*
X30584Y47137D01*
Y47470D01*
X30251D01*
X30917Y46970D02*
Y47970D01*
X31417D01*
X31584Y47803D01*
Y47470D01*
X31417Y47303D01*
X30917D01*
X32417Y46970D02*
Y47970D01*
X31917Y47470D01*
X32584D01*
X32917Y46970D02*
X33250D01*
X33083D01*
Y47970D01*
X32917Y47803D01*
X30251Y45263D02*
X30084Y45430D01*
X29751D01*
X29585Y45263D01*
Y44597D01*
X29751Y44430D01*
X30084D01*
X30251Y44597D01*
Y44930D01*
X29918D01*
X30584Y44430D02*
Y45430D01*
X31084D01*
X31251Y45263D01*
Y44930D01*
X31084Y44763D01*
X30584D01*
X32084Y44430D02*
Y45430D01*
X31584Y44930D01*
X32250D01*
X32584Y45263D02*
X32750Y45430D01*
X33083D01*
X33250Y45263D01*
Y44597D01*
X33083Y44430D01*
X32750D01*
X32584Y44597D01*
Y45263D01*
X30251Y42723D02*
X30084Y42890D01*
X29751D01*
X29585Y42723D01*
Y42057D01*
X29751Y41890D01*
X30084D01*
X30251Y42057D01*
Y42390D01*
X29918D01*
X30584Y41890D02*
Y42890D01*
X31084D01*
X31251Y42723D01*
Y42390D01*
X31084Y42223D01*
X30584D01*
X31584Y42723D02*
X31750Y42890D01*
X32084D01*
X32250Y42723D01*
Y42557D01*
X32084Y42390D01*
X31917D01*
X32084D01*
X32250Y42223D01*
Y42057D01*
X32084Y41890D01*
X31750D01*
X31584Y42057D01*
X32584D02*
X32750Y41890D01*
X33083D01*
X33250Y42057D01*
Y42723D01*
X33083Y42890D01*
X32750D01*
X32584Y42723D01*
Y42557D01*
X32750Y42390D01*
X33250D01*
X30251Y40183D02*
X30084Y40350D01*
X29751D01*
X29585Y40183D01*
Y39517D01*
X29751Y39350D01*
X30084D01*
X30251Y39517D01*
Y39850D01*
X29918D01*
X30584Y39350D02*
Y40350D01*
X31084D01*
X31251Y40183D01*
Y39850D01*
X31084Y39683D01*
X30584D01*
X31584Y40183D02*
X31750Y40350D01*
X32084D01*
X32250Y40183D01*
Y40017D01*
X32084Y39850D01*
X31917D01*
X32084D01*
X32250Y39683D01*
Y39517D01*
X32084Y39350D01*
X31750D01*
X31584Y39517D01*
X32584Y40183D02*
X32750Y40350D01*
X33083D01*
X33250Y40183D01*
Y40017D01*
X33083Y39850D01*
X33250Y39683D01*
Y39517D01*
X33083Y39350D01*
X32750D01*
X32584Y39517D01*
Y39683D01*
X32750Y39850D01*
X32584Y40017D01*
Y40183D01*
X32750Y39850D02*
X33083D01*
X30251Y37643D02*
X30084Y37810D01*
X29751D01*
X29585Y37643D01*
Y36977D01*
X29751Y36810D01*
X30084D01*
X30251Y36977D01*
Y37310D01*
X29918D01*
X30584Y36810D02*
Y37810D01*
X31084D01*
X31251Y37643D01*
Y37310D01*
X31084Y37143D01*
X30584D01*
X31584Y37643D02*
X31750Y37810D01*
X32084D01*
X32250Y37643D01*
Y37477D01*
X32084Y37310D01*
X31917D01*
X32084D01*
X32250Y37143D01*
Y36977D01*
X32084Y36810D01*
X31750D01*
X31584Y36977D01*
X32584Y37810D02*
X33250D01*
Y37643D01*
X32584Y36977D01*
Y36810D01*
X30251Y35103D02*
X30084Y35270D01*
X29751D01*
X29585Y35103D01*
Y34437D01*
X29751Y34270D01*
X30084D01*
X30251Y34437D01*
Y34770D01*
X29918D01*
X30584Y34270D02*
Y35270D01*
X31084D01*
X31251Y35103D01*
Y34770D01*
X31084Y34603D01*
X30584D01*
X31584Y35103D02*
X31750Y35270D01*
X32084D01*
X32250Y35103D01*
Y34937D01*
X32084Y34770D01*
X31917D01*
X32084D01*
X32250Y34603D01*
Y34437D01*
X32084Y34270D01*
X31750D01*
X31584Y34437D01*
X33250Y35270D02*
X32917Y35103D01*
X32584Y34770D01*
Y34437D01*
X32750Y34270D01*
X33083D01*
X33250Y34437D01*
Y34603D01*
X33083Y34770D01*
X32584D01*
X30251Y32563D02*
X30084Y32730D01*
X29751D01*
X29585Y32563D01*
Y31897D01*
X29751Y31730D01*
X30084D01*
X30251Y31897D01*
Y32230D01*
X29918D01*
X30584Y31730D02*
Y32730D01*
X31084D01*
X31251Y32563D01*
Y32230D01*
X31084Y32063D01*
X30584D01*
X31584Y32563D02*
X31750Y32730D01*
X32084D01*
X32250Y32563D01*
Y32397D01*
X32084Y32230D01*
X31917D01*
X32084D01*
X32250Y32063D01*
Y31897D01*
X32084Y31730D01*
X31750D01*
X31584Y31897D01*
X33250Y32730D02*
X32584D01*
Y32230D01*
X32917Y32397D01*
X33083D01*
X33250Y32230D01*
Y31897D01*
X33083Y31730D01*
X32750D01*
X32584Y31897D01*
X30251Y30023D02*
X30084Y30190D01*
X29751D01*
X29585Y30023D01*
Y29357D01*
X29751Y29190D01*
X30084D01*
X30251Y29357D01*
Y29690D01*
X29918D01*
X30584Y29190D02*
Y30190D01*
X31084D01*
X31251Y30023D01*
Y29690D01*
X31084Y29523D01*
X30584D01*
X31584Y30023D02*
X31750Y30190D01*
X32084D01*
X32250Y30023D01*
Y29857D01*
X32084Y29690D01*
X31917D01*
X32084D01*
X32250Y29523D01*
Y29357D01*
X32084Y29190D01*
X31750D01*
X31584Y29357D01*
X33083Y29190D02*
Y30190D01*
X32584Y29690D01*
X33250D01*
X30251Y27483D02*
X30084Y27650D01*
X29751D01*
X29585Y27483D01*
Y26817D01*
X29751Y26650D01*
X30084D01*
X30251Y26817D01*
Y27150D01*
X29918D01*
X30584Y26650D02*
Y27650D01*
X31084D01*
X31251Y27483D01*
Y27150D01*
X31084Y26983D01*
X30584D01*
X31584Y27483D02*
X31750Y27650D01*
X32084D01*
X32250Y27483D01*
Y27317D01*
X32084Y27150D01*
X31917D01*
X32084D01*
X32250Y26983D01*
Y26817D01*
X32084Y26650D01*
X31750D01*
X31584Y26817D01*
X32584Y27483D02*
X32750Y27650D01*
X33083D01*
X33250Y27483D01*
Y27317D01*
X33083Y27150D01*
X32917D01*
X33083D01*
X33250Y26983D01*
Y26817D01*
X33083Y26650D01*
X32750D01*
X32584Y26817D01*
X30251Y24943D02*
X30084Y25110D01*
X29751D01*
X29585Y24943D01*
Y24277D01*
X29751Y24110D01*
X30084D01*
X30251Y24277D01*
Y24610D01*
X29918D01*
X30584Y24110D02*
Y25110D01*
X31084D01*
X31251Y24943D01*
Y24610D01*
X31084Y24443D01*
X30584D01*
X31584Y24943D02*
X31750Y25110D01*
X32084D01*
X32250Y24943D01*
Y24777D01*
X32084Y24610D01*
X31917D01*
X32084D01*
X32250Y24443D01*
Y24277D01*
X32084Y24110D01*
X31750D01*
X31584Y24277D01*
X33250Y24110D02*
X32584D01*
X33250Y24777D01*
Y24943D01*
X33083Y25110D01*
X32750D01*
X32584Y24943D01*
X30584Y22403D02*
X30418Y22570D01*
X30084D01*
X29918Y22403D01*
Y21737D01*
X30084Y21570D01*
X30418D01*
X30584Y21737D01*
Y22070D01*
X30251D01*
X30917Y21570D02*
Y22570D01*
X31417D01*
X31584Y22403D01*
Y22070D01*
X31417Y21903D01*
X30917D01*
X31917Y22403D02*
X32084Y22570D01*
X32417D01*
X32584Y22403D01*
Y22237D01*
X32417Y22070D01*
X32250D01*
X32417D01*
X32584Y21903D01*
Y21737D01*
X32417Y21570D01*
X32084D01*
X31917Y21737D01*
X32917Y21570D02*
X33250D01*
X33083D01*
Y22570D01*
X32917Y22403D01*
X30251Y19863D02*
X30084Y20030D01*
X29751D01*
X29585Y19863D01*
Y19197D01*
X29751Y19030D01*
X30084D01*
X30251Y19197D01*
Y19530D01*
X29918D01*
X30584Y19030D02*
Y20030D01*
X31084D01*
X31251Y19863D01*
Y19530D01*
X31084Y19363D01*
X30584D01*
X31584Y19863D02*
X31750Y20030D01*
X32084D01*
X32250Y19863D01*
Y19697D01*
X32084Y19530D01*
X31917D01*
X32084D01*
X32250Y19363D01*
Y19197D01*
X32084Y19030D01*
X31750D01*
X31584Y19197D01*
X32584Y19863D02*
X32750Y20030D01*
X33083D01*
X33250Y19863D01*
Y19197D01*
X33083Y19030D01*
X32750D01*
X32584Y19197D01*
Y19863D01*
X30251Y17323D02*
X30084Y17490D01*
X29751D01*
X29585Y17323D01*
Y16657D01*
X29751Y16490D01*
X30084D01*
X30251Y16657D01*
Y16990D01*
X29918D01*
X30584Y16490D02*
Y17490D01*
X31084D01*
X31251Y17323D01*
Y16990D01*
X31084Y16823D01*
X30584D01*
X32250Y16490D02*
X31584D01*
X32250Y17157D01*
Y17323D01*
X32084Y17490D01*
X31750D01*
X31584Y17323D01*
X32584Y16657D02*
X32750Y16490D01*
X33083D01*
X33250Y16657D01*
Y17323D01*
X33083Y17490D01*
X32750D01*
X32584Y17323D01*
Y17157D01*
X32750Y16990D01*
X33250D01*
X30251Y14783D02*
X30084Y14950D01*
X29751D01*
X29585Y14783D01*
Y14117D01*
X29751Y13950D01*
X30084D01*
X30251Y14117D01*
Y14450D01*
X29918D01*
X30584Y13950D02*
Y14950D01*
X31084D01*
X31251Y14783D01*
Y14450D01*
X31084Y14283D01*
X30584D01*
X32250Y13950D02*
X31584D01*
X32250Y14617D01*
Y14783D01*
X32084Y14950D01*
X31750D01*
X31584Y14783D01*
X32584D02*
X32750Y14950D01*
X33083D01*
X33250Y14783D01*
Y14617D01*
X33083Y14450D01*
X33250Y14283D01*
Y14117D01*
X33083Y13950D01*
X32750D01*
X32584Y14117D01*
Y14283D01*
X32750Y14450D01*
X32584Y14617D01*
Y14783D01*
X32750Y14450D02*
X33083D01*
X30251Y12243D02*
X30084Y12410D01*
X29751D01*
X29585Y12243D01*
Y11577D01*
X29751Y11410D01*
X30084D01*
X30251Y11577D01*
Y11910D01*
X29918D01*
X30584Y11410D02*
Y12410D01*
X31084D01*
X31251Y12243D01*
Y11910D01*
X31084Y11743D01*
X30584D01*
X32250Y11410D02*
X31584D01*
X32250Y12077D01*
Y12243D01*
X32084Y12410D01*
X31750D01*
X31584Y12243D01*
X32584Y12410D02*
X33250D01*
Y12243D01*
X32584Y11577D01*
Y11410D01*
X30251Y9703D02*
X30084Y9870D01*
X29751D01*
X29585Y9703D01*
Y9037D01*
X29751Y8870D01*
X30084D01*
X30251Y9037D01*
Y9370D01*
X29918D01*
X30584Y8870D02*
Y9870D01*
X31084D01*
X31251Y9703D01*
Y9370D01*
X31084Y9203D01*
X30584D01*
X32250Y8870D02*
X31584D01*
X32250Y9537D01*
Y9703D01*
X32084Y9870D01*
X31750D01*
X31584Y9703D01*
X33250Y9870D02*
X32917Y9703D01*
X32584Y9370D01*
Y9037D01*
X32750Y8870D01*
X33083D01*
X33250Y9037D01*
Y9203D01*
X33083Y9370D01*
X32584D01*
X30251Y7163D02*
X30084Y7330D01*
X29751D01*
X29585Y7163D01*
Y6497D01*
X29751Y6330D01*
X30084D01*
X30251Y6497D01*
Y6830D01*
X29918D01*
X30584Y6330D02*
Y7330D01*
X31084D01*
X31251Y7163D01*
Y6830D01*
X31084Y6663D01*
X30584D01*
X32250Y6330D02*
X31584D01*
X32250Y6997D01*
Y7163D01*
X32084Y7330D01*
X31750D01*
X31584Y7163D01*
X33250Y7330D02*
X32584D01*
Y6830D01*
X32917Y6997D01*
X33083D01*
X33250Y6830D01*
Y6497D01*
X33083Y6330D01*
X32750D01*
X32584Y6497D01*
X30251Y4623D02*
X30084Y4790D01*
X29751D01*
X29585Y4623D01*
Y3957D01*
X29751Y3790D01*
X30084D01*
X30251Y3957D01*
Y4290D01*
X29918D01*
X30584Y3790D02*
Y4790D01*
X31084D01*
X31251Y4623D01*
Y4290D01*
X31084Y4123D01*
X30584D01*
X32250Y3790D02*
X31584D01*
X32250Y4457D01*
Y4623D01*
X32084Y4790D01*
X31750D01*
X31584Y4623D01*
X33083Y3790D02*
Y4790D01*
X32584Y4290D01*
X33250D01*
X4416Y2083D02*
X4250Y2250D01*
X3917D01*
X3750Y2083D01*
Y1417D01*
X3917Y1250D01*
X4250D01*
X4416Y1417D01*
Y1750D01*
X4083D01*
X4750Y1250D02*
Y2250D01*
X5416Y1250D01*
Y2250D01*
X5749D02*
Y1250D01*
X6249D01*
X6416Y1417D01*
Y2083D01*
X6249Y2250D01*
X5749D01*
X4416Y12243D02*
X4250Y12410D01*
X3917D01*
X3750Y12243D01*
Y11577D01*
X3917Y11410D01*
X4250D01*
X4416Y11577D01*
Y11910D01*
X4083D01*
X4750Y11410D02*
Y12410D01*
X5250D01*
X5416Y12243D01*
Y11910D01*
X5250Y11743D01*
X4750D01*
X6416Y11410D02*
X5749D01*
X6416Y12077D01*
Y12243D01*
X6249Y12410D01*
X5916D01*
X5749Y12243D01*
X6749D02*
X6916Y12410D01*
X7249D01*
X7415Y12243D01*
Y11577D01*
X7249Y11410D01*
X6916D01*
X6749Y11577D01*
Y12243D01*
X4416Y9703D02*
X4250Y9870D01*
X3917D01*
X3750Y9703D01*
Y9037D01*
X3917Y8870D01*
X4250D01*
X4416Y9037D01*
Y9370D01*
X4083D01*
X4750Y8870D02*
Y9870D01*
X5250D01*
X5416Y9703D01*
Y9370D01*
X5250Y9203D01*
X4750D01*
X6416Y8870D02*
X5749D01*
X6416Y9537D01*
Y9703D01*
X6249Y9870D01*
X5916D01*
X5749Y9703D01*
X6749Y8870D02*
X7082D01*
X6916D01*
Y9870D01*
X6749Y9703D01*
X4416Y7163D02*
X4250Y7330D01*
X3917D01*
X3750Y7163D01*
Y6497D01*
X3917Y6330D01*
X4250D01*
X4416Y6497D01*
Y6830D01*
X4083D01*
X4750Y6330D02*
Y7330D01*
X5250D01*
X5416Y7163D01*
Y6830D01*
X5250Y6663D01*
X4750D01*
X6416Y6330D02*
X5749D01*
X6416Y6997D01*
Y7163D01*
X6249Y7330D01*
X5916D01*
X5749Y7163D01*
X7415Y6330D02*
X6749D01*
X7415Y6997D01*
Y7163D01*
X7249Y7330D01*
X6916D01*
X6749Y7163D01*
X3750Y65250D02*
X4416D01*
X4083Y65583D02*
Y64917D01*
X4750Y65583D02*
X4916Y65750D01*
X5250D01*
X5416Y65583D01*
Y65417D01*
X5250Y65250D01*
X5083D01*
X5250D01*
X5416Y65083D01*
Y64917D01*
X5250Y64750D01*
X4916D01*
X4750Y64917D01*
X5749Y65750D02*
Y65083D01*
X6083Y64750D01*
X6416Y65083D01*
Y65750D01*
X6749Y65583D02*
X6916Y65750D01*
X7249D01*
X7415Y65583D01*
Y65417D01*
X7249Y65250D01*
X7082D01*
X7249D01*
X7415Y65083D01*
Y64917D01*
X7249Y64750D01*
X6916D01*
X6749Y64917D01*
X4416Y63043D02*
X4250Y63210D01*
X3917D01*
X3750Y63043D01*
Y62377D01*
X3917Y62210D01*
X4250D01*
X4416Y62377D01*
Y62710D01*
X4083D01*
X4750Y62210D02*
Y63210D01*
X5250D01*
X5416Y63043D01*
Y62710D01*
X5250Y62543D01*
X4750D01*
X5749Y63043D02*
X5916Y63210D01*
X6249D01*
X6416Y63043D01*
Y62377D01*
X6249Y62210D01*
X5916D01*
X5749Y62377D01*
Y63043D01*
X4416Y60503D02*
X4250Y60670D01*
X3917D01*
X3750Y60503D01*
Y59837D01*
X3917Y59670D01*
X4250D01*
X4416Y59837D01*
Y60170D01*
X4083D01*
X4750Y59670D02*
Y60670D01*
X5250D01*
X5416Y60503D01*
Y60170D01*
X5250Y60003D01*
X4750D01*
X5749Y59670D02*
X6083D01*
X5916D01*
Y60670D01*
X5749Y60503D01*
X4416Y57963D02*
X4250Y58130D01*
X3917D01*
X3750Y57963D01*
Y57297D01*
X3917Y57130D01*
X4250D01*
X4416Y57297D01*
Y57630D01*
X4083D01*
X4750Y57130D02*
Y58130D01*
X5250D01*
X5416Y57963D01*
Y57630D01*
X5250Y57463D01*
X4750D01*
X6416Y57130D02*
X5749D01*
X6416Y57797D01*
Y57963D01*
X6249Y58130D01*
X5916D01*
X5749Y57963D01*
X4416Y55423D02*
X4250Y55590D01*
X3917D01*
X3750Y55423D01*
Y54757D01*
X3917Y54590D01*
X4250D01*
X4416Y54757D01*
Y55090D01*
X4083D01*
X4750Y54590D02*
Y55590D01*
X5250D01*
X5416Y55423D01*
Y55090D01*
X5250Y54923D01*
X4750D01*
X5749Y55423D02*
X5916Y55590D01*
X6249D01*
X6416Y55423D01*
Y55257D01*
X6249Y55090D01*
X6083D01*
X6249D01*
X6416Y54923D01*
Y54757D01*
X6249Y54590D01*
X5916D01*
X5749Y54757D01*
X4416Y52883D02*
X4250Y53050D01*
X3917D01*
X3750Y52883D01*
Y52217D01*
X3917Y52050D01*
X4250D01*
X4416Y52217D01*
Y52550D01*
X4083D01*
X4750Y52050D02*
Y53050D01*
X5250D01*
X5416Y52883D01*
Y52550D01*
X5250Y52383D01*
X4750D01*
X6249Y52050D02*
Y53050D01*
X5749Y52550D01*
X6416D01*
X4416Y35103D02*
X4250Y35270D01*
X3917D01*
X3750Y35103D01*
Y34437D01*
X3917Y34270D01*
X4250D01*
X4416Y34437D01*
Y34770D01*
X4083D01*
X4750Y34270D02*
Y35270D01*
X5250D01*
X5416Y35103D01*
Y34770D01*
X5250Y34603D01*
X4750D01*
X5749Y34270D02*
X6083D01*
X5916D01*
Y35270D01*
X5749Y35103D01*
X6582Y34270D02*
X6916D01*
X6749D01*
Y35270D01*
X6582Y35103D01*
X4416Y45263D02*
X4250Y45430D01*
X3917D01*
X3750Y45263D01*
Y44597D01*
X3917Y44430D01*
X4250D01*
X4416Y44597D01*
Y44930D01*
X4083D01*
X4750Y44430D02*
Y45430D01*
X5250D01*
X5416Y45263D01*
Y44930D01*
X5250Y44763D01*
X4750D01*
X5749Y45430D02*
X6416D01*
Y45263D01*
X5749Y44597D01*
Y44430D01*
X4416Y50343D02*
X4250Y50510D01*
X3917D01*
X3750Y50343D01*
Y49677D01*
X3917Y49510D01*
X4250D01*
X4416Y49677D01*
Y50010D01*
X4083D01*
X4750Y49510D02*
Y50510D01*
X5250D01*
X5416Y50343D01*
Y50010D01*
X5250Y49843D01*
X4750D01*
X6416Y50510D02*
X5749D01*
Y50010D01*
X6083Y50177D01*
X6249D01*
X6416Y50010D01*
Y49677D01*
X6249Y49510D01*
X5916D01*
X5749Y49677D01*
X4416Y47803D02*
X4250Y47970D01*
X3917D01*
X3750Y47803D01*
Y47137D01*
X3917Y46970D01*
X4250D01*
X4416Y47137D01*
Y47470D01*
X4083D01*
X4750Y46970D02*
Y47970D01*
X5250D01*
X5416Y47803D01*
Y47470D01*
X5250Y47303D01*
X4750D01*
X6416Y47970D02*
X6083Y47803D01*
X5749Y47470D01*
Y47137D01*
X5916Y46970D01*
X6249D01*
X6416Y47137D01*
Y47303D01*
X6249Y47470D01*
X5749D01*
X4416Y42723D02*
X4250Y42890D01*
X3917D01*
X3750Y42723D01*
Y42057D01*
X3917Y41890D01*
X4250D01*
X4416Y42057D01*
Y42390D01*
X4083D01*
X4750Y41890D02*
Y42890D01*
X5250D01*
X5416Y42723D01*
Y42390D01*
X5250Y42223D01*
X4750D01*
X5749Y42723D02*
X5916Y42890D01*
X6249D01*
X6416Y42723D01*
Y42557D01*
X6249Y42390D01*
X6416Y42223D01*
Y42057D01*
X6249Y41890D01*
X5916D01*
X5749Y42057D01*
Y42223D01*
X5916Y42390D01*
X5749Y42557D01*
Y42723D01*
X5916Y42390D02*
X6249D01*
X4416Y40183D02*
X4250Y40350D01*
X3917D01*
X3750Y40183D01*
Y39517D01*
X3917Y39350D01*
X4250D01*
X4416Y39517D01*
Y39850D01*
X4083D01*
X4750Y39350D02*
Y40350D01*
X5250D01*
X5416Y40183D01*
Y39850D01*
X5250Y39683D01*
X4750D01*
X5749Y39517D02*
X5916Y39350D01*
X6249D01*
X6416Y39517D01*
Y40183D01*
X6249Y40350D01*
X5916D01*
X5749Y40183D01*
Y40017D01*
X5916Y39850D01*
X6416D01*
X4416Y37643D02*
X4250Y37810D01*
X3917D01*
X3750Y37643D01*
Y36977D01*
X3917Y36810D01*
X4250D01*
X4416Y36977D01*
Y37310D01*
X4083D01*
X4750Y36810D02*
Y37810D01*
X5250D01*
X5416Y37643D01*
Y37310D01*
X5250Y37143D01*
X4750D01*
X5749Y36810D02*
X6083D01*
X5916D01*
Y37810D01*
X5749Y37643D01*
X6582D02*
X6749Y37810D01*
X7082D01*
X7249Y37643D01*
Y36977D01*
X7082Y36810D01*
X6749D01*
X6582Y36977D01*
Y37643D01*
X4416Y32563D02*
X4250Y32730D01*
X3917D01*
X3750Y32563D01*
Y31897D01*
X3917Y31730D01*
X4250D01*
X4416Y31897D01*
Y32230D01*
X4083D01*
X4750Y31730D02*
Y32730D01*
X5250D01*
X5416Y32563D01*
Y32230D01*
X5250Y32063D01*
X4750D01*
X5749Y31730D02*
X6083D01*
X5916D01*
Y32730D01*
X5749Y32563D01*
X7249Y31730D02*
X6582D01*
X7249Y32397D01*
Y32563D01*
X7082Y32730D01*
X6749D01*
X6582Y32563D01*
X4416Y30023D02*
X4250Y30190D01*
X3917D01*
X3750Y30023D01*
Y29357D01*
X3917Y29190D01*
X4250D01*
X4416Y29357D01*
Y29690D01*
X4083D01*
X4750Y29190D02*
Y30190D01*
X5250D01*
X5416Y30023D01*
Y29690D01*
X5250Y29523D01*
X4750D01*
X5749Y29190D02*
X6083D01*
X5916D01*
Y30190D01*
X5749Y30023D01*
X6582D02*
X6749Y30190D01*
X7082D01*
X7249Y30023D01*
Y29857D01*
X7082Y29690D01*
X6916D01*
X7082D01*
X7249Y29523D01*
Y29357D01*
X7082Y29190D01*
X6749D01*
X6582Y29357D01*
X4416Y27483D02*
X4250Y27650D01*
X3917D01*
X3750Y27483D01*
Y26817D01*
X3917Y26650D01*
X4250D01*
X4416Y26817D01*
Y27150D01*
X4083D01*
X4750Y26650D02*
Y27650D01*
X5250D01*
X5416Y27483D01*
Y27150D01*
X5250Y26983D01*
X4750D01*
X5749Y26650D02*
X6083D01*
X5916D01*
Y27650D01*
X5749Y27483D01*
X7082Y26650D02*
Y27650D01*
X6582Y27150D01*
X7249D01*
X4416Y24943D02*
X4250Y25110D01*
X3917D01*
X3750Y24943D01*
Y24277D01*
X3917Y24110D01*
X4250D01*
X4416Y24277D01*
Y24610D01*
X4083D01*
X4750Y24110D02*
Y25110D01*
X5250D01*
X5416Y24943D01*
Y24610D01*
X5250Y24443D01*
X4750D01*
X5749Y24110D02*
X6083D01*
X5916D01*
Y25110D01*
X5749Y24943D01*
X7249Y25110D02*
X6582D01*
Y24610D01*
X6916Y24777D01*
X7082D01*
X7249Y24610D01*
Y24277D01*
X7082Y24110D01*
X6749D01*
X6582Y24277D01*
X4416Y22403D02*
X4250Y22570D01*
X3917D01*
X3750Y22403D01*
Y21737D01*
X3917Y21570D01*
X4250D01*
X4416Y21737D01*
Y22070D01*
X4083D01*
X4750Y21570D02*
Y22570D01*
X5250D01*
X5416Y22403D01*
Y22070D01*
X5250Y21903D01*
X4750D01*
X5749Y21570D02*
X6083D01*
X5916D01*
Y22570D01*
X5749Y22403D01*
X7249Y22570D02*
X6916Y22403D01*
X6582Y22070D01*
Y21737D01*
X6749Y21570D01*
X7082D01*
X7249Y21737D01*
Y21903D01*
X7082Y22070D01*
X6582D01*
X4416Y19863D02*
X4250Y20030D01*
X3917D01*
X3750Y19863D01*
Y19197D01*
X3917Y19030D01*
X4250D01*
X4416Y19197D01*
Y19530D01*
X4083D01*
X4750Y19030D02*
Y20030D01*
X5250D01*
X5416Y19863D01*
Y19530D01*
X5250Y19363D01*
X4750D01*
X5749Y19030D02*
X6083D01*
X5916D01*
Y20030D01*
X5749Y19863D01*
X6582Y20030D02*
X7249D01*
Y19863D01*
X6582Y19197D01*
Y19030D01*
X4416Y17323D02*
X4250Y17490D01*
X3917D01*
X3750Y17323D01*
Y16657D01*
X3917Y16490D01*
X4250D01*
X4416Y16657D01*
Y16990D01*
X4083D01*
X4750Y16490D02*
Y17490D01*
X5250D01*
X5416Y17323D01*
Y16990D01*
X5250Y16823D01*
X4750D01*
X5749Y16490D02*
X6083D01*
X5916D01*
Y17490D01*
X5749Y17323D01*
X6582D02*
X6749Y17490D01*
X7082D01*
X7249Y17323D01*
Y17157D01*
X7082Y16990D01*
X7249Y16823D01*
Y16657D01*
X7082Y16490D01*
X6749D01*
X6582Y16657D01*
Y16823D01*
X6749Y16990D01*
X6582Y17157D01*
Y17323D01*
X6749Y16990D02*
X7082D01*
X4416Y14783D02*
X4250Y14950D01*
X3917D01*
X3750Y14783D01*
Y14117D01*
X3917Y13950D01*
X4250D01*
X4416Y14117D01*
Y14450D01*
X4083D01*
X4750Y13950D02*
Y14950D01*
X5250D01*
X5416Y14783D01*
Y14450D01*
X5250Y14283D01*
X4750D01*
X5749Y13950D02*
X6083D01*
X5916D01*
Y14950D01*
X5749Y14783D01*
X6582Y14117D02*
X6749Y13950D01*
X7082D01*
X7249Y14117D01*
Y14783D01*
X7082Y14950D01*
X6749D01*
X6582Y14783D01*
Y14617D01*
X6749Y14450D01*
X7249D01*
X4416Y4623D02*
X4250Y4790D01*
X3917D01*
X3750Y4623D01*
Y3957D01*
X3917Y3790D01*
X4250D01*
X4416Y3957D01*
Y4290D01*
X4083D01*
X4750Y3790D02*
Y4790D01*
X5250D01*
X5416Y4623D01*
Y4290D01*
X5250Y4123D01*
X4750D01*
X6416Y3790D02*
X5749D01*
X6416Y4457D01*
Y4623D01*
X6249Y4790D01*
X5916D01*
X5749Y4623D01*
X6749D02*
X6916Y4790D01*
X7249D01*
X7415Y4623D01*
Y4457D01*
X7249Y4290D01*
X7082D01*
X7249D01*
X7415Y4123D01*
Y3957D01*
X7249Y3790D01*
X6916D01*
X6749Y3957D01*
%TF.MD5,094ecf27bc8489e4de1ad1da8efcbfd2*%
M02*
