M48
;Layer_Color=9474304
;FILE_FORMAT=4:3
METRIC,LZ
;TYPE=PLATED
T01F00S00C0.300
T02F00S00C0.900
T03F00S00C1.000
T04F00S00C2.300
%
T01
X002225Y001375
Y00165
X0020375Y002215
X00175Y00245
X001625
Y002825
X001525
X001725
X001825
X001925
X002025
X002125
X0022Y003025
Y003125
X00185Y0031
X001475Y003125
Y003325
X0016Y003825
X001925Y0038
X0021Y00385
X0022
X002325
X0027
X002825
X00295
X002775Y003675
X0025Y003475
X0025Y00415
X002375Y0045
X0028
X00285Y004825
X0033Y005025
X00145Y00485
X0025Y0026
X002625
X002775
X0011Y00255
X001375Y0022
X0009325Y0032125
X000925Y004125
X00105
X001175
X0013
X001425Y004075
X001175Y004475
X00105
X000925
X00105Y00485
X000625Y005575
T02
X0002Y000175
X0002Y000429
Y000683
X0002Y000937
Y001191
X001596Y0002
X00185Y0002
X002104
X00275Y000198
Y000452
X003502Y000429
Y000683
X003502Y000937
Y001191
X003502Y000175
X003502Y001445
X003502Y001699
X003502Y001953
X003502Y002207
Y002461
Y002715
X003502Y002969
X0035019Y003223
X003502Y003477
Y003731
Y003985
X0035019Y004239
X0035019Y004493
X0035019Y004747
Y005001
Y005255
X001975Y0053
Y0051
X001725
Y0053
X0001999Y005255
Y005001
Y004747
X0001999Y004493
X0001999Y004239
X0002Y003985
Y003731
Y003477
X0001999Y003223
X0002Y002969
X0002Y002715
Y002461
Y002207
X0002Y001953
X0002Y001699
X0002Y001445
X0001999Y005509
X0001999Y005763
X0001999Y006017
Y006271
Y006525
X0035019
Y006271
Y006017
X0035019Y005763
X0035019Y005509
T03
X00125Y000875
X0017
X002
X00245
Y001525
X002
X0017
X00125
T04
X001248Y00557
X002452
M30
