%TF.GenerationSoftware,Altium Limited,Altium Designer,25.2.1 (25)*%
G04 Layer_Color=255*
%FSLAX43Y43*%
%MOMM*%
%TF.SameCoordinates,73B19FC9-5684-49D0-80EE-29C7FECE4A2C*%
%TF.FilePolarity,Positive*%
%TF.FileFunction,Pads,Top*%
%TF.Part,Single*%
G01*
G75*
%TA.AperFunction,SMDPad,CuDef*%
G04:AMPARAMS|DCode=13|XSize=0.78mm|YSize=0.22mm|CornerRadius=0.028mm|HoleSize=0mm|Usage=FLASHONLY|Rotation=270.000|XOffset=0mm|YOffset=0mm|HoleType=Round|Shape=RoundedRectangle|*
%AMROUNDEDRECTD13*
21,1,0.780,0.165,0,0,270.0*
21,1,0.725,0.220,0,0,270.0*
1,1,0.055,-0.083,-0.363*
1,1,0.055,-0.083,0.363*
1,1,0.055,0.083,0.363*
1,1,0.055,0.083,-0.363*
%
%ADD13ROUNDEDRECTD13*%
G04:AMPARAMS|DCode=14|XSize=0.78mm|YSize=0.22mm|CornerRadius=0.028mm|HoleSize=0mm|Usage=FLASHONLY|Rotation=180.000|XOffset=0mm|YOffset=0mm|HoleType=Round|Shape=RoundedRectangle|*
%AMROUNDEDRECTD14*
21,1,0.780,0.165,0,0,180.0*
21,1,0.725,0.220,0,0,180.0*
1,1,0.055,-0.363,0.083*
1,1,0.055,0.363,0.083*
1,1,0.055,0.363,-0.083*
1,1,0.055,-0.363,-0.083*
%
%ADD14ROUNDEDRECTD14*%
G04:AMPARAMS|DCode=15|XSize=3.4mm|YSize=3.4mm|CornerRadius=0.425mm|HoleSize=0mm|Usage=FLASHONLY|Rotation=90.000|XOffset=0mm|YOffset=0mm|HoleType=Round|Shape=RoundedRectangle|*
%AMROUNDEDRECTD15*
21,1,3.400,2.550,0,0,90.0*
21,1,2.550,3.400,0,0,90.0*
1,1,0.850,1.275,1.275*
1,1,0.850,1.275,-1.275*
1,1,0.850,-1.275,-1.275*
1,1,0.850,-1.275,1.275*
%
%ADD15ROUNDEDRECTD15*%
%ADD16R,1.050X1.300*%
%ADD17R,0.700X0.650*%
%TA.AperFunction,ComponentPad*%
%ADD19C,1.500*%
%ADD20C,3.316*%
%ADD21C,1.408*%
%ADD22R,1.408X1.408*%
%ADD23C,2.000*%
D13*
X14700Y36000D02*
D03*
X15100D02*
D03*
X15500D02*
D03*
X15900D02*
D03*
X16300D02*
D03*
X16700D02*
D03*
X17100D02*
D03*
X17500D02*
D03*
X17900D02*
D03*
X22300D02*
D03*
X21900D02*
D03*
X21500D02*
D03*
X21100D02*
D03*
X20700D02*
D03*
X20300D02*
D03*
X19900D02*
D03*
X19500D02*
D03*
X19100D02*
D03*
X18700D02*
D03*
X18300D02*
D03*
X22300Y26000D02*
D03*
X21900D02*
D03*
X21500D02*
D03*
X21100D02*
D03*
X20700D02*
D03*
X20300D02*
D03*
X19900D02*
D03*
X19500D02*
D03*
X19100D02*
D03*
X14700D02*
D03*
X15100D02*
D03*
X15500D02*
D03*
X15900D02*
D03*
X16300D02*
D03*
X16700D02*
D03*
X17100D02*
D03*
X17500D02*
D03*
X17900D02*
D03*
X18300D02*
D03*
X18700D02*
D03*
D14*
X23500Y34800D02*
D03*
Y34400D02*
D03*
Y34000D02*
D03*
Y33600D02*
D03*
Y33200D02*
D03*
Y32800D02*
D03*
Y32400D02*
D03*
Y32000D02*
D03*
Y31600D02*
D03*
Y27200D02*
D03*
Y27600D02*
D03*
Y28000D02*
D03*
Y28400D02*
D03*
Y28800D02*
D03*
Y29200D02*
D03*
Y29600D02*
D03*
Y30000D02*
D03*
Y30400D02*
D03*
Y30800D02*
D03*
Y31200D02*
D03*
X13500Y27200D02*
D03*
Y27600D02*
D03*
Y28000D02*
D03*
Y28400D02*
D03*
Y28800D02*
D03*
Y29200D02*
D03*
Y29600D02*
D03*
Y30000D02*
D03*
Y30400D02*
D03*
Y34800D02*
D03*
Y34400D02*
D03*
Y34000D02*
D03*
Y33600D02*
D03*
Y33200D02*
D03*
Y32800D02*
D03*
Y32400D02*
D03*
Y32000D02*
D03*
Y31600D02*
D03*
Y31200D02*
D03*
Y30800D02*
D03*
D15*
X18500Y31000D02*
D03*
D16*
X20375Y22150D02*
D03*
Y19850D02*
D03*
X18625D02*
D03*
Y22150D02*
D03*
D17*
X22250Y22175D02*
D03*
Y20825D02*
D03*
Y17825D02*
D03*
Y19175D02*
D03*
X16750Y20825D02*
D03*
Y22175D02*
D03*
X17750Y46575D02*
D03*
Y47925D02*
D03*
X19250Y46575D02*
D03*
Y47925D02*
D03*
D19*
X21040Y2000D02*
D03*
X18500D02*
D03*
X15960Y2000D02*
D03*
X27500Y4520D02*
D03*
Y1980D02*
D03*
X2000Y4290D02*
D03*
X2000Y1750D02*
D03*
X1999Y50010D02*
D03*
Y47470D02*
D03*
X1999Y44930D02*
D03*
X1999Y42390D02*
D03*
Y52550D02*
D03*
X1999Y65250D02*
D03*
Y62710D02*
D03*
Y60170D02*
D03*
X1999Y57630D02*
D03*
X1999Y55090D02*
D03*
X2000Y37310D02*
D03*
Y34770D02*
D03*
X1999Y32230D02*
D03*
X2000Y29690D02*
D03*
Y39850D02*
D03*
X2000Y24610D02*
D03*
Y22070D02*
D03*
X2000Y19530D02*
D03*
X2000Y16990D02*
D03*
Y27150D02*
D03*
X2000Y11910D02*
D03*
Y9370D02*
D03*
X2000Y6830D02*
D03*
X2000Y14450D02*
D03*
X35020Y4290D02*
D03*
X35020Y1750D02*
D03*
X35019Y50010D02*
D03*
Y47470D02*
D03*
X35019Y44930D02*
D03*
X35019Y42390D02*
D03*
Y52550D02*
D03*
X35019Y65250D02*
D03*
Y62710D02*
D03*
Y60170D02*
D03*
X35019Y57630D02*
D03*
X35019Y55090D02*
D03*
X35020Y37310D02*
D03*
Y34770D02*
D03*
X35019Y32230D02*
D03*
X35020Y29690D02*
D03*
Y39850D02*
D03*
X35020Y24610D02*
D03*
Y22070D02*
D03*
X35020Y19530D02*
D03*
X35020Y16990D02*
D03*
Y27150D02*
D03*
X35020Y11910D02*
D03*
Y9370D02*
D03*
X35020Y6830D02*
D03*
X35020Y14450D02*
D03*
D20*
X12480Y55700D02*
D03*
X24520D02*
D03*
D21*
X17250Y53000D02*
D03*
X19750D02*
D03*
Y51000D02*
D03*
D22*
X17250D02*
D03*
D23*
X24500Y15250D02*
D03*
Y8750D02*
D03*
X20000Y15250D02*
D03*
Y8750D02*
D03*
X17000Y15250D02*
D03*
Y8750D02*
D03*
X12500Y15250D02*
D03*
Y8750D02*
D03*
%TF.MD5,c311eb36a92e9cf3646d14620ac199f5*%
M02*
