%TF.GenerationSoftware,Altium Limited,Altium Designer,25.2.1 (25)*%
G04 Layer_Color=255*
%FSLAX43Y43*%
%MOMM*%
%TF.SameCoordinates,73B19FC9-5684-49D0-80EE-29C7FECE4A2C*%
%TF.FilePolarity,Positive*%
%TF.FileFunction,Pads,Bot*%
%TF.Part,Single*%
G01*
G75*
%TA.AperFunction,SMDPad,CuDef*%
%ADD17R,0.700X0.650*%
%TA.AperFunction,ComponentPad*%
%ADD19C,1.500*%
%ADD20C,3.316*%
%ADD21C,1.408*%
%ADD22R,1.408X1.408*%
%ADD23C,2.000*%
%TA.AperFunction,SMDPad,CuDef*%
%ADD25R,1.600X1.000*%
%ADD26R,0.650X1.600*%
%ADD27R,0.650X0.700*%
%ADD28R,0.600X1.250*%
%ADD29R,1.525X0.650*%
%ADD30R,2.710X3.350*%
D17*
X30000Y41175D02*
D03*
Y39825D02*
D03*
X28500Y41175D02*
D03*
Y39825D02*
D03*
X27000Y41175D02*
D03*
Y39825D02*
D03*
X23000D02*
D03*
Y41175D02*
D03*
X21500D02*
D03*
Y39825D02*
D03*
X15500Y39325D02*
D03*
Y40675D02*
D03*
X15000Y22175D02*
D03*
Y20825D02*
D03*
X17000Y39325D02*
D03*
Y40675D02*
D03*
X16750Y22175D02*
D03*
Y20825D02*
D03*
X23750Y47675D02*
D03*
Y46325D02*
D03*
X21000Y4325D02*
D03*
Y5675D02*
D03*
X16000Y4325D02*
D03*
Y5675D02*
D03*
X22250Y12675D02*
D03*
Y11325D02*
D03*
X14750Y12675D02*
D03*
Y11325D02*
D03*
X18500Y22175D02*
D03*
Y20825D02*
D03*
D19*
X21040Y2000D02*
D03*
X18500D02*
D03*
X15960Y2000D02*
D03*
X27500Y4520D02*
D03*
Y1980D02*
D03*
X2000Y4290D02*
D03*
X2000Y1750D02*
D03*
X1999Y50010D02*
D03*
Y47470D02*
D03*
X1999Y44930D02*
D03*
X1999Y42390D02*
D03*
Y52550D02*
D03*
X1999Y65250D02*
D03*
Y62710D02*
D03*
Y60170D02*
D03*
X1999Y57630D02*
D03*
X1999Y55090D02*
D03*
X2000Y37310D02*
D03*
Y34770D02*
D03*
X1999Y32230D02*
D03*
X2000Y29690D02*
D03*
Y39850D02*
D03*
X2000Y24610D02*
D03*
Y22070D02*
D03*
X2000Y19530D02*
D03*
X2000Y16990D02*
D03*
Y27150D02*
D03*
X2000Y11910D02*
D03*
Y9370D02*
D03*
X2000Y6830D02*
D03*
X2000Y14450D02*
D03*
X35020Y4290D02*
D03*
X35020Y1750D02*
D03*
X35019Y50010D02*
D03*
Y47470D02*
D03*
X35019Y44930D02*
D03*
X35019Y42390D02*
D03*
Y52550D02*
D03*
X35019Y65250D02*
D03*
Y62710D02*
D03*
Y60170D02*
D03*
X35019Y57630D02*
D03*
X35019Y55090D02*
D03*
X35020Y37310D02*
D03*
Y34770D02*
D03*
X35019Y32230D02*
D03*
X35020Y29690D02*
D03*
Y39850D02*
D03*
X35020Y24610D02*
D03*
Y22070D02*
D03*
X35020Y19530D02*
D03*
X35020Y16990D02*
D03*
Y27150D02*
D03*
X35020Y11910D02*
D03*
Y9370D02*
D03*
X35020Y6830D02*
D03*
X35020Y14450D02*
D03*
D20*
X12480Y55700D02*
D03*
X24520D02*
D03*
D21*
X17250Y53000D02*
D03*
X19750D02*
D03*
Y51000D02*
D03*
D22*
X17250D02*
D03*
D23*
X24500Y15250D02*
D03*
Y8750D02*
D03*
X20000Y15250D02*
D03*
Y8750D02*
D03*
X17000Y15250D02*
D03*
Y8750D02*
D03*
X12500Y15250D02*
D03*
Y8750D02*
D03*
D25*
X25000Y41500D02*
D03*
Y39500D02*
D03*
D26*
X12905Y39450D02*
D03*
X11635D02*
D03*
X10365D02*
D03*
X9095D02*
D03*
Y46550D02*
D03*
X10365D02*
D03*
X11635D02*
D03*
X12905D02*
D03*
D27*
X10675Y31250D02*
D03*
X9325D02*
D03*
X10675Y29000D02*
D03*
X9325D02*
D03*
X26325Y34750D02*
D03*
X27675D02*
D03*
X10675Y33000D02*
D03*
X9325D02*
D03*
X26325Y29500D02*
D03*
X27675D02*
D03*
X26325Y27250D02*
D03*
X27675D02*
D03*
X13175Y48500D02*
D03*
X11825D02*
D03*
X26325Y31000D02*
D03*
X27675D02*
D03*
D28*
X7600Y55750D02*
D03*
X9400D02*
D03*
D29*
X25812Y46345D02*
D03*
Y47615D02*
D03*
Y48885D02*
D03*
Y50155D02*
D03*
X31188D02*
D03*
Y48885D02*
D03*
Y47615D02*
D03*
Y46345D02*
D03*
D30*
X28500Y48250D02*
D03*
%TF.MD5,2a5732de6b93ca7019af5c65a61925e5*%
M02*
