G04*
G04 #@! TF.GenerationSoftware,Altium Limited,Altium Designer,25.8.1 (18)*
G04*
G04 Layer_Physical_Order=1*
G04 Layer_Color=255*
%FSLAX44Y44*%
%MOMM*%
G71*
G04*
G04 #@! TF.SameCoordinates,A8765012-30DD-40E1-B8F3-8E4BD0165297*
G04*
G04*
G04 #@! TF.FilePolarity,Positive*
G04*
G01*
G75*
%ADD18R,0.9000X1.5000*%
%ADD24C,0.3810*%
%ADD25C,1.2750*%
%ADD26R,1.2750X1.2750*%
%ADD27C,1.6002*%
%ADD28C,6.0000*%
%ADD29C,0.7000*%
G36*
X45000Y696115D02*
X605000D01*
X606158Y696346D01*
X610407Y696067D01*
X615721Y695010D01*
X620851Y693269D01*
X625711Y690872D01*
X630216Y687862D01*
X634290Y684290D01*
X637862Y680216D01*
X640872Y675711D01*
X643269Y670851D01*
X645010Y665721D01*
X646067Y660407D01*
X646346Y656158D01*
X646115Y655000D01*
Y44000D01*
X646336Y42893D01*
X645958Y38092D01*
X644457Y31842D01*
X641998Y25904D01*
X638639Y20423D01*
X634465Y15535D01*
X629577Y11361D01*
X624096Y8002D01*
X618158Y5543D01*
X611908Y4042D01*
X606391Y3608D01*
X605000Y3885D01*
X45000D01*
X43842Y3654D01*
X39593Y3933D01*
X34279Y4990D01*
X29149Y6731D01*
X24289Y9128D01*
X19784Y12138D01*
X15711Y15710D01*
X12138Y19784D01*
X9128Y24289D01*
X6731Y29149D01*
X4990Y34279D01*
X3933Y39593D01*
X3654Y43842D01*
X3885Y45000D01*
Y655000D01*
X3654Y656159D01*
X3933Y660407D01*
X4990Y665721D01*
X6731Y670851D01*
X9128Y675711D01*
X12138Y680216D01*
X15710Y684290D01*
X19784Y687862D01*
X24289Y690872D01*
X29149Y693269D01*
X34279Y695010D01*
X39593Y696067D01*
X43842Y696346D01*
X45000Y696115D01*
D02*
G37*
%LPC*%
G36*
X195060Y676090D02*
X189290D01*
Y667320D01*
X195060D01*
Y676090D01*
D02*
G37*
G36*
X186750D02*
X180980D01*
Y667320D01*
X186750D01*
Y676090D01*
D02*
G37*
G36*
X255040Y676040D02*
X249270D01*
Y667270D01*
X255040D01*
Y676040D01*
D02*
G37*
G36*
X246730D02*
X240960D01*
Y667270D01*
X246730D01*
Y676040D01*
D02*
G37*
G36*
X556040Y676040D02*
X550270D01*
Y667270D01*
X556040D01*
Y676040D01*
D02*
G37*
G36*
X496040D02*
X490270D01*
Y667270D01*
X496040D01*
Y676040D01*
D02*
G37*
G36*
X436040D02*
X430270D01*
Y667270D01*
X436040D01*
Y676040D01*
D02*
G37*
G36*
X376040D02*
X370270D01*
Y667270D01*
X376040D01*
Y676040D01*
D02*
G37*
G36*
X315040Y676040D02*
X309270D01*
Y667270D01*
X315040D01*
Y676040D01*
D02*
G37*
G36*
X129270D02*
Y667270D01*
X135040D01*
Y676040D01*
X129270D01*
D02*
G37*
G36*
X547730Y676040D02*
X541960D01*
Y667270D01*
X547730D01*
Y676040D01*
D02*
G37*
G36*
X487730D02*
X481960D01*
Y667270D01*
X487730D01*
Y676040D01*
D02*
G37*
G36*
X427730D02*
X421960D01*
Y667270D01*
X427730D01*
Y676040D01*
D02*
G37*
G36*
X367730D02*
X361960D01*
Y667270D01*
X367730D01*
Y676040D01*
D02*
G37*
G36*
X306730Y676040D02*
X300960D01*
Y667270D01*
X306730D01*
Y676040D01*
D02*
G37*
G36*
X556040Y664730D02*
X549000D01*
X541960D01*
Y655960D01*
X544035D01*
X544148Y654690D01*
X542879Y653421D01*
X541988Y651270D01*
X554012D01*
X553292Y653007D01*
Y655960D01*
X556040D01*
Y664730D01*
D02*
G37*
G36*
X315040D02*
X308000D01*
X300960D01*
Y655960D01*
X303468D01*
Y654010D01*
X302880Y653421D01*
X301988Y651270D01*
X314012D01*
X313120Y653421D01*
X312532Y654010D01*
Y655960D01*
X315040D01*
Y664730D01*
D02*
G37*
G36*
X255040Y664730D02*
X248000D01*
X240960D01*
Y655960D01*
X243468D01*
Y654010D01*
X242880Y653421D01*
X241988Y651270D01*
X254012D01*
X253120Y653421D01*
X252532Y654010D01*
Y655960D01*
X255040D01*
Y664730D01*
D02*
G37*
G36*
X195060Y664780D02*
X188020D01*
X180980D01*
Y656010D01*
X183978D01*
Y653520D01*
X183880Y653421D01*
X182988Y651270D01*
X195012D01*
X194121Y653421D01*
X193042Y654500D01*
Y656010D01*
X195060D01*
Y664780D01*
D02*
G37*
G36*
X496040Y664730D02*
X489000D01*
X481960D01*
Y655960D01*
X484968D01*
Y652510D01*
X484879Y652421D01*
X483988Y650270D01*
X496012D01*
X495121Y652421D01*
X494032Y653510D01*
Y655960D01*
X496040D01*
Y664730D01*
D02*
G37*
G36*
X436040D02*
X429000D01*
X421960D01*
Y655960D01*
X424468D01*
Y653010D01*
X423880Y652421D01*
X422988Y650270D01*
X435012D01*
X434120Y652421D01*
X433532Y653010D01*
Y655960D01*
X436040D01*
Y664730D01*
D02*
G37*
G36*
X376040D02*
X369000D01*
X361960D01*
Y655960D01*
X364468D01*
Y653010D01*
X363880Y652421D01*
X362988Y650270D01*
X375012D01*
X374120Y652421D01*
X373532Y653010D01*
Y655960D01*
X376040D01*
Y664730D01*
D02*
G37*
G36*
X554012Y648730D02*
X549270D01*
Y643988D01*
X551421Y644880D01*
X553120Y646579D01*
X554012Y648730D01*
D02*
G37*
G36*
X546730D02*
X541988D01*
X542879Y646579D01*
X544579Y644880D01*
X546730Y643988D01*
Y648730D01*
D02*
G37*
G36*
X314012D02*
X309270D01*
Y643988D01*
X311421Y644880D01*
X313120Y646579D01*
X314012Y648730D01*
D02*
G37*
G36*
X306730D02*
X301988D01*
X302880Y646579D01*
X304579Y644880D01*
X306730Y643988D01*
Y648730D01*
D02*
G37*
G36*
X254012D02*
X249270D01*
Y643988D01*
X251421Y644880D01*
X253120Y646579D01*
X254012Y648730D01*
D02*
G37*
G36*
X246730D02*
X241988D01*
X242880Y646579D01*
X244579Y644880D01*
X246730Y643988D01*
Y648730D01*
D02*
G37*
G36*
X134012D02*
X129270D01*
Y643988D01*
X131421Y644880D01*
X133120Y646579D01*
X134012Y648730D01*
D02*
G37*
G36*
X126730D02*
X121988D01*
X122879Y646579D01*
X124579Y644880D01*
X126730Y643988D01*
Y648730D01*
D02*
G37*
G36*
X496012Y647730D02*
X491270D01*
Y642988D01*
X493421Y643879D01*
X495121Y645579D01*
X496012Y647730D01*
D02*
G37*
G36*
X488730D02*
X483988D01*
X484879Y645579D01*
X486579Y643879D01*
X488730Y642988D01*
Y647730D01*
D02*
G37*
G36*
X435012D02*
X430270D01*
Y642988D01*
X432421Y643879D01*
X434120Y645579D01*
X435012Y647730D01*
D02*
G37*
G36*
X427730D02*
X422988D01*
X423880Y645579D01*
X425579Y643879D01*
X427730Y642988D01*
Y647730D01*
D02*
G37*
G36*
X375012D02*
X370270D01*
Y642988D01*
X372421Y643879D01*
X374120Y645579D01*
X375012Y647730D01*
D02*
G37*
G36*
X367730D02*
X362988D01*
X363880Y645579D01*
X365579Y643879D01*
X367730Y642988D01*
Y647730D01*
D02*
G37*
G36*
X607561Y687540D02*
X602439D01*
X597380Y686739D01*
X592509Y685156D01*
X587945Y682831D01*
X583802Y679820D01*
X580180Y676198D01*
X577169Y672055D01*
X574844Y667491D01*
X573261Y662620D01*
X572460Y657561D01*
Y652439D01*
X573261Y647380D01*
X574730Y642860D01*
X574086Y641590D01*
X535672D01*
Y681000D01*
X535475Y681991D01*
X534914Y682831D01*
X534074Y683393D01*
X533083Y683590D01*
X503083D01*
X502091Y683393D01*
X501251Y682831D01*
X500690Y681991D01*
X500493Y681000D01*
Y646073D01*
X496010Y641590D01*
X475672D01*
Y681000D01*
X475475Y681991D01*
X474914Y682831D01*
X474074Y683393D01*
X473083Y683590D01*
X443083D01*
X442091Y683393D01*
X441251Y682831D01*
X440690Y681991D01*
X440493Y681000D01*
Y649073D01*
X433010Y641590D01*
X415672Y641590D01*
Y681000D01*
X415475Y681991D01*
X414914Y682831D01*
X414074Y683393D01*
X413083Y683590D01*
X383083D01*
X382091Y683393D01*
X381251Y682831D01*
X380690Y681991D01*
X380493Y681000D01*
Y650073D01*
X372010Y641590D01*
X355672Y641590D01*
Y681000D01*
X355475Y681991D01*
X354914Y682831D01*
X354074Y683393D01*
X353083Y683590D01*
X322385D01*
X321394Y683393D01*
X320554Y682831D01*
X319992Y681991D01*
X319795Y681000D01*
Y644113D01*
X319984Y643165D01*
X319878Y643017D01*
X319063Y642274D01*
X319041Y642259D01*
X319023Y642262D01*
X319003Y642275D01*
X318526Y642352D01*
X318051Y642438D01*
X318028Y642433D01*
X318005Y642437D01*
X297586Y641715D01*
X296672Y642597D01*
Y681000D01*
X296475Y681991D01*
X295914Y682831D01*
X295074Y683393D01*
X294083Y683590D01*
X263083D01*
X262092Y683393D01*
X261251Y682831D01*
X260690Y681991D01*
X260493Y681000D01*
Y650073D01*
X253010Y642590D01*
X235672Y642590D01*
Y681000D01*
X235475Y681991D01*
X234914Y682831D01*
X234074Y683393D01*
X233083Y683590D01*
X202083D01*
X201091Y683393D01*
X200251Y682831D01*
X199690Y681991D01*
X199493Y681000D01*
X199493Y650073D01*
X193770Y644350D01*
X193707Y644369D01*
X193347Y645805D01*
X194121Y646579D01*
X195012Y648730D01*
X182988D01*
X183880Y646579D01*
X185579Y644880D01*
X185626Y644860D01*
X185374Y643590D01*
X172672D01*
Y681000D01*
X172475Y681991D01*
X171914Y682831D01*
X171074Y683393D01*
X170082Y683590D01*
X143083D01*
X142092Y683393D01*
X141251Y682831D01*
X140690Y681991D01*
X140493Y681000D01*
X140493Y650727D01*
X131356Y641590D01*
X120590D01*
Y654843D01*
X120960Y655960D01*
X121860Y655960D01*
X123468D01*
Y654010D01*
X122879Y653421D01*
X121988Y651270D01*
X134012D01*
X133120Y653421D01*
X132532Y654010D01*
Y655960D01*
X135040D01*
Y664730D01*
X128000D01*
Y666000D01*
X126730D01*
Y676040D01*
X120960Y676040D01*
X120590Y677157D01*
Y681000D01*
X120393Y681991D01*
X119831Y682831D01*
X118991Y683393D01*
X118000Y683590D01*
X71000D01*
X70009Y683393D01*
X69169Y682831D01*
X68607Y681991D01*
X68410Y681000D01*
Y679268D01*
X67237Y678782D01*
X66198Y679820D01*
X62055Y682831D01*
X57491Y685156D01*
X52620Y686739D01*
X47561Y687540D01*
X42439D01*
X37380Y686739D01*
X32509Y685156D01*
X27945Y682831D01*
X23802Y679820D01*
X20180Y676198D01*
X17169Y672055D01*
X14844Y667491D01*
X13261Y662620D01*
X12460Y657561D01*
Y652439D01*
X13261Y647380D01*
X14844Y642509D01*
X17169Y637945D01*
X20180Y633802D01*
X23802Y630180D01*
X27945Y627169D01*
X32509Y624844D01*
X37380Y623261D01*
X42439Y622460D01*
X47561D01*
X52620Y623261D01*
X57491Y624844D01*
X62055Y627169D01*
X66198Y630180D01*
X67237Y631218D01*
X68410Y630732D01*
Y601000D01*
Y563000D01*
X68607Y562009D01*
X69169Y561169D01*
X70009Y560607D01*
X71000Y560410D01*
X94374D01*
X94626Y559140D01*
X94579Y559120D01*
X92879Y557421D01*
X91988Y555270D01*
X104012D01*
X103120Y557421D01*
X101421Y559120D01*
X101374Y559140D01*
X101626Y560410D01*
X111410D01*
Y522000D01*
X111607Y521009D01*
X112169Y520169D01*
X113009Y519607D01*
X114000Y519410D01*
X144000D01*
X144991Y519607D01*
X145831Y520169D01*
X146393Y521009D01*
X146590Y522000D01*
Y555927D01*
X151073Y560410D01*
X171410D01*
Y522000D01*
X171607Y521009D01*
X172169Y520169D01*
X173009Y519607D01*
X174000Y519410D01*
X204000D01*
X204991Y519607D01*
X205831Y520169D01*
X206393Y521009D01*
X206590Y522000D01*
Y552927D01*
X208690Y555028D01*
X209960Y554501D01*
Y552799D01*
X210879Y550579D01*
X211968Y549490D01*
Y545040D01*
X209960D01*
Y536270D01*
X217000D01*
X224040D01*
Y545040D01*
X221032D01*
Y550490D01*
X221120Y550579D01*
X222012Y552730D01*
X216000D01*
Y555270D01*
X222012D01*
X221120Y557421D01*
X219421Y559120D01*
X219374Y559140D01*
X219626Y560410D01*
X231410Y560410D01*
Y522000D01*
X231607Y521009D01*
X232169Y520169D01*
X233009Y519607D01*
X234000Y519410D01*
X264000D01*
X264991Y519607D01*
X265831Y520169D01*
X266393Y521009D01*
X266590Y522000D01*
Y551927D01*
X268690Y554027D01*
X269960Y553502D01*
Y551799D01*
X270879Y549579D01*
X271968Y548490D01*
Y545040D01*
X269960D01*
Y536270D01*
X277000D01*
X284040D01*
Y545040D01*
X281032D01*
Y549490D01*
X281120Y549579D01*
X282012Y551730D01*
X276000D01*
Y554270D01*
X282012D01*
X281120Y556421D01*
X279421Y558120D01*
X277201Y559040D01*
X276918D01*
X276239Y560310D01*
X276306Y560410D01*
X291410Y560410D01*
Y522000D01*
X291607Y521009D01*
X292169Y520169D01*
X293009Y519607D01*
X294000Y519410D01*
X324698D01*
X325689Y519607D01*
X326529Y520169D01*
X327090Y521009D01*
X327287Y522000D01*
Y557970D01*
X327131Y558756D01*
X327618Y559339D01*
X328123Y559701D01*
X328471Y559645D01*
X328946Y559559D01*
X328969Y559564D01*
X328992Y559560D01*
X349496Y560285D01*
X350410Y559403D01*
Y522000D01*
X350607Y521009D01*
X351169Y520169D01*
X352009Y519607D01*
X353000Y519410D01*
X384000D01*
X384991Y519607D01*
X385831Y520169D01*
X386393Y521009D01*
X386590Y522000D01*
Y551927D01*
X391981Y557319D01*
X392879Y556421D01*
X391988Y554270D01*
X404012D01*
X403120Y556421D01*
X401421Y558120D01*
X401374Y558140D01*
X401626Y559410D01*
X411410Y559410D01*
Y522000D01*
X411607Y521009D01*
X412169Y520169D01*
X413009Y519607D01*
X414000Y519410D01*
X445000D01*
X445991Y519607D01*
X446831Y520169D01*
X447393Y521009D01*
X447590Y522000D01*
Y551927D01*
X454073Y558410D01*
X474410D01*
Y522000D01*
X474607Y521009D01*
X475169Y520169D01*
X476009Y519607D01*
X477000Y519410D01*
X504000D01*
X504991Y519607D01*
X505831Y520169D01*
X506393Y521009D01*
X506590Y522000D01*
X506590Y551273D01*
X515727Y560410D01*
X531410D01*
Y552346D01*
Y521000D01*
X531607Y520009D01*
X532169Y519169D01*
X533009Y518607D01*
X534000Y518410D01*
X549927D01*
X555675Y512662D01*
X555609Y506490D01*
X551750D01*
Y496450D01*
X550480D01*
Y495180D01*
X543440D01*
Y486410D01*
X545708D01*
Y482250D01*
X544879Y481421D01*
X543988Y479270D01*
X550000D01*
Y478000D01*
X551270D01*
Y471988D01*
X553421Y472879D01*
X553983Y473442D01*
X555248Y472910D01*
X555223Y470590D01*
X535590D01*
Y510000D01*
X535393Y510991D01*
X534831Y511831D01*
X533991Y512393D01*
X533000Y512590D01*
X503000D01*
X502009Y512393D01*
X501169Y511831D01*
X500607Y510991D01*
X500410Y510000D01*
Y475073D01*
X495927Y470590D01*
X475590D01*
Y510000D01*
X475393Y510991D01*
X474831Y511831D01*
X473991Y512393D01*
X473000Y512590D01*
X443000D01*
X442009Y512393D01*
X441169Y511831D01*
X440607Y510991D01*
X440410Y510000D01*
Y478073D01*
X432927Y470590D01*
X415590Y470590D01*
Y510000D01*
X415393Y510991D01*
X414831Y511831D01*
X413991Y512393D01*
X413000Y512590D01*
X383000D01*
X382009Y512393D01*
X381169Y511831D01*
X380607Y510991D01*
X380410Y510000D01*
Y479073D01*
X377905Y476567D01*
X376828Y477286D01*
X377012Y477730D01*
X372270D01*
Y472988D01*
X372714Y473172D01*
X373433Y472095D01*
X371927Y470590D01*
X355590Y470590D01*
Y510000D01*
X355393Y510991D01*
X354831Y511831D01*
X353991Y512393D01*
X353000Y512590D01*
X322302D01*
X321311Y512393D01*
X320471Y511831D01*
X319910Y510991D01*
X319713Y510000D01*
Y473000D01*
X319857Y472272D01*
X319406Y471686D01*
X319367Y471650D01*
X318853Y471309D01*
X318560Y471356D01*
X318085Y471442D01*
X318062Y471437D01*
X318039Y471441D01*
X297504Y470715D01*
X296590Y471597D01*
Y510000D01*
X296393Y510991D01*
X295831Y511831D01*
X294991Y512393D01*
X294000Y512590D01*
X263000D01*
X262009Y512393D01*
X261169Y511831D01*
X260607Y510991D01*
X260410Y510000D01*
Y479073D01*
X252927Y471590D01*
X235590Y471590D01*
Y510000D01*
X235393Y510991D01*
X234831Y511831D01*
X233991Y512393D01*
X233000Y512590D01*
X202000D01*
X201009Y512393D01*
X200169Y511831D01*
X199607Y510991D01*
X199410Y510000D01*
X199410Y479073D01*
X192927Y472590D01*
X172590D01*
Y510000D01*
X172393Y510991D01*
X171831Y511831D01*
X170991Y512393D01*
X170000Y512590D01*
X143000D01*
X142009Y512393D01*
X141169Y511831D01*
X140607Y510991D01*
X140410Y510000D01*
X140410Y479727D01*
X131273Y470590D01*
X115590D01*
Y510000D01*
X115393Y510991D01*
X114831Y511831D01*
X113991Y512393D01*
X113000Y512590D01*
X71000D01*
X70009Y512393D01*
X69169Y511831D01*
X68607Y510991D01*
X68410Y510000D01*
Y430946D01*
Y392946D01*
X68607Y391955D01*
X69169Y391115D01*
X70009Y390554D01*
X71000Y390357D01*
X110330D01*
Y352000D01*
X110527Y351009D01*
X111089Y350169D01*
X111929Y349607D01*
X112920Y349410D01*
X142920D01*
X143911Y349607D01*
X144751Y350169D01*
X145313Y351009D01*
X145510Y352000D01*
Y385874D01*
X149993Y390357D01*
X170330D01*
Y352000D01*
X170527Y351009D01*
X171089Y350169D01*
X171929Y349607D01*
X172920Y349410D01*
X202920D01*
X203911Y349607D01*
X204751Y350169D01*
X205313Y351009D01*
X205510Y352000D01*
Y382874D01*
X212993Y390357D01*
X230330Y390357D01*
Y352000D01*
X230527Y351009D01*
X231089Y350169D01*
X231929Y349607D01*
X232920Y349410D01*
X262920D01*
X263911Y349607D01*
X264751Y350169D01*
X265313Y351009D01*
X265510Y352000D01*
Y381874D01*
X273993Y390357D01*
X290330Y390357D01*
Y352000D01*
X290527Y351009D01*
X291089Y350169D01*
X291929Y349607D01*
X292920Y349410D01*
X323618D01*
X324609Y349607D01*
X325449Y350169D01*
X326010Y351009D01*
X326208Y352000D01*
Y387195D01*
X326010Y388186D01*
X325449Y389026D01*
X324609Y389587D01*
X324513Y389627D01*
X324262Y390885D01*
X324863Y391489D01*
X326123Y391250D01*
X326193Y391088D01*
X326207Y391069D01*
X326212Y391046D01*
X326495Y390654D01*
X326769Y390258D01*
X326789Y390245D01*
X326803Y390227D01*
X327214Y389972D01*
X327619Y389711D01*
X327642Y389707D01*
X327662Y389695D01*
X328139Y389618D01*
X328614Y389532D01*
X328637Y389537D01*
X328660Y389533D01*
X335231Y389765D01*
X335505Y388504D01*
X334579Y388120D01*
X332879Y386421D01*
X331988Y384270D01*
X344012D01*
X343120Y386421D01*
X341421Y388120D01*
X340103Y388667D01*
X340334Y389946D01*
X348416Y390231D01*
X349330Y389349D01*
Y352000D01*
X349527Y351009D01*
X350089Y350169D01*
X350929Y349607D01*
X351920Y349410D01*
X382920D01*
X383911Y349607D01*
X384751Y350169D01*
X385313Y351009D01*
X385510Y352000D01*
Y381874D01*
X392993Y389357D01*
X410330Y389357D01*
Y352000D01*
X410527Y351009D01*
X411089Y350169D01*
X411929Y349607D01*
X412920Y349410D01*
X443920D01*
X444911Y349607D01*
X445751Y350169D01*
X446313Y351009D01*
X446510Y352000D01*
Y381874D01*
X452039Y387403D01*
X452061Y387399D01*
X452251Y387172D01*
X452696Y385978D01*
X451988Y384270D01*
X464012D01*
X463120Y386421D01*
X462455Y387087D01*
X462981Y388357D01*
X473330D01*
Y352000D01*
X473527Y351009D01*
X474089Y350169D01*
X474929Y349607D01*
X475920Y349410D01*
X502920D01*
X503911Y349607D01*
X504751Y350169D01*
X505313Y351009D01*
X505510Y352000D01*
X505510Y381220D01*
X514647Y390357D01*
X530330D01*
Y352000D01*
X530527Y351009D01*
X531089Y350169D01*
X531929Y349607D01*
X532920Y349410D01*
X552927D01*
X558410Y343927D01*
Y337000D01*
Y302590D01*
X535672D01*
Y342000D01*
X535475Y342991D01*
X534914Y343831D01*
X534074Y344393D01*
X533083Y344590D01*
X503083D01*
X502091Y344393D01*
X501251Y343831D01*
X500690Y342991D01*
X500493Y342000D01*
Y307073D01*
X496010Y302590D01*
X475672D01*
Y342000D01*
X475475Y342991D01*
X474914Y343831D01*
X474074Y344393D01*
X473083Y344590D01*
X443083D01*
X442091Y344393D01*
X441251Y343831D01*
X440690Y342991D01*
X440493Y342000D01*
Y310073D01*
X433010Y302590D01*
X415672Y302590D01*
Y342000D01*
X415475Y342991D01*
X414914Y343831D01*
X414074Y344393D01*
X413083Y344590D01*
X383083D01*
X382091Y344393D01*
X381251Y343831D01*
X380690Y342991D01*
X380493Y342000D01*
Y311073D01*
X378310Y308890D01*
X377040Y309416D01*
Y311201D01*
X376120Y313421D01*
X375032Y314510D01*
Y317460D01*
X377040D01*
Y326230D01*
X370000D01*
X362960D01*
Y317460D01*
X365968D01*
Y313510D01*
X365880Y313421D01*
X364988Y311270D01*
X371000D01*
Y308730D01*
X364988D01*
X365880Y306579D01*
X367579Y304879D01*
X369799Y303960D01*
X370165D01*
X370844Y302690D01*
X370777Y302590D01*
X355672Y302590D01*
Y342000D01*
X355475Y342991D01*
X354914Y343831D01*
X354074Y344393D01*
X353083Y344590D01*
X322385D01*
X321394Y344393D01*
X320554Y343831D01*
X319992Y342991D01*
X319795Y342000D01*
Y304613D01*
X319816Y304510D01*
X319806Y304468D01*
X319422Y303915D01*
X318736Y303426D01*
X318569Y303456D01*
X318547Y303451D01*
X318524Y303455D01*
X297586Y302715D01*
X296672Y303597D01*
Y342000D01*
X296475Y342991D01*
X295914Y343831D01*
X295074Y344393D01*
X294083Y344590D01*
X263083D01*
X262092Y344393D01*
X261251Y343831D01*
X260690Y342991D01*
X260493Y342000D01*
Y311073D01*
X253770Y304350D01*
X253707Y304369D01*
X253347Y305805D01*
X254121Y306579D01*
X255012Y308730D01*
X242988D01*
X243880Y306579D01*
X245579Y304879D01*
X245626Y304860D01*
X245374Y303590D01*
X235672Y303590D01*
Y342000D01*
X235475Y342991D01*
X234914Y343831D01*
X234074Y344393D01*
X233083Y344590D01*
X202083D01*
X201091Y344393D01*
X200251Y343831D01*
X199690Y342991D01*
X199493Y342000D01*
X199493Y311073D01*
X193770Y305350D01*
X193707Y305369D01*
X193347Y306805D01*
X194121Y307579D01*
X195012Y309730D01*
X182988D01*
X183880Y307579D01*
X185579Y305879D01*
X185626Y305860D01*
X185374Y304590D01*
X172672D01*
Y342000D01*
X172475Y342991D01*
X171914Y343831D01*
X171074Y344393D01*
X170082Y344590D01*
X143083D01*
X142092Y344393D01*
X141251Y343831D01*
X140690Y342991D01*
X140493Y342000D01*
X140493Y311727D01*
X131356Y302590D01*
X115672D01*
Y342000D01*
X115475Y342991D01*
X114914Y343831D01*
X114074Y344393D01*
X113083Y344590D01*
X72000D01*
X71009Y344393D01*
X70169Y343831D01*
X69607Y342991D01*
X69410Y342000D01*
Y262000D01*
Y224000D01*
X69607Y223009D01*
X70169Y222169D01*
X71009Y221607D01*
X72000Y221410D01*
X111410D01*
Y183000D01*
X111607Y182009D01*
X112169Y181169D01*
X113009Y180607D01*
X114000Y180410D01*
X144000D01*
X144991Y180607D01*
X145831Y181169D01*
X146393Y182009D01*
X146590Y183000D01*
Y216927D01*
X151073Y221410D01*
X171410D01*
Y183000D01*
X171607Y182009D01*
X172169Y181169D01*
X173009Y180607D01*
X174000Y180410D01*
X204000D01*
X204991Y180607D01*
X205831Y181169D01*
X206393Y182009D01*
X206590Y183000D01*
Y213927D01*
X214073Y221410D01*
X231410Y221410D01*
Y183000D01*
X231607Y182009D01*
X232169Y181169D01*
X233009Y180607D01*
X234000Y180410D01*
X264000D01*
X264991Y180607D01*
X265831Y181169D01*
X266393Y182009D01*
X266590Y183000D01*
Y212927D01*
X275073Y221410D01*
X291410Y221410D01*
Y183000D01*
X291607Y182009D01*
X292169Y181169D01*
X293009Y180607D01*
X294000Y180410D01*
X324698D01*
X325689Y180607D01*
X326529Y181169D01*
X327090Y182009D01*
X327287Y183000D01*
Y218255D01*
X327090Y219246D01*
X326529Y220086D01*
X325689Y220647D01*
X325609Y220680D01*
X325357Y221945D01*
X325936Y222527D01*
X327203Y222288D01*
X327267Y222141D01*
X327280Y222122D01*
X327285Y222100D01*
X327568Y221708D01*
X327843Y221311D01*
X327862Y221299D01*
X327876Y221280D01*
X328287Y221026D01*
X328693Y220765D01*
X328716Y220761D01*
X328735Y220749D01*
X329212Y220671D01*
X329687Y220585D01*
X329710Y220590D01*
X329733Y220587D01*
X335272Y220782D01*
X335546Y219521D01*
X334579Y219121D01*
X332879Y217421D01*
X331988Y215270D01*
X344012D01*
X343120Y217421D01*
X341421Y219121D01*
X340068Y219681D01*
X340299Y220960D01*
X349496Y221285D01*
X350410Y220403D01*
Y183000D01*
X350607Y182009D01*
X351169Y181169D01*
X352009Y180607D01*
X353000Y180410D01*
X384000D01*
X384991Y180607D01*
X385831Y181169D01*
X386393Y182009D01*
X386590Y183000D01*
Y212927D01*
X394073Y220410D01*
X411410Y220410D01*
Y183000D01*
X411607Y182009D01*
X412169Y181169D01*
X413009Y180607D01*
X414000Y180410D01*
X445000D01*
X445991Y180607D01*
X446831Y181169D01*
X447393Y182009D01*
X447590Y183000D01*
Y212927D01*
X454073Y219410D01*
X474410D01*
Y183000D01*
X474607Y182009D01*
X475169Y181169D01*
X476009Y180607D01*
X477000Y180410D01*
X504000D01*
X504991Y180607D01*
X505831Y181169D01*
X506393Y182009D01*
X506590Y183000D01*
X506590Y212273D01*
X515727Y221410D01*
X531410D01*
Y183000D01*
X531607Y182009D01*
X532169Y181169D01*
X533009Y180607D01*
X534000Y180410D01*
X551927D01*
X558410Y173927D01*
Y169391D01*
X557520Y168490D01*
X551750D01*
Y158450D01*
X550480D01*
Y157180D01*
X543440D01*
Y148410D01*
X545708D01*
Y141882D01*
X546053Y140148D01*
X546382Y139655D01*
X552874D01*
Y137115D01*
X546863D01*
X547754Y134963D01*
X549453Y133264D01*
X550429Y132860D01*
X550176Y131590D01*
X535590D01*
Y174000D01*
X535393Y174991D01*
X534831Y175831D01*
X533991Y176393D01*
X533000Y176590D01*
X503000D01*
X502009Y176393D01*
X501169Y175831D01*
X500607Y174991D01*
X500410Y174000D01*
Y136073D01*
X495927Y131590D01*
X475590D01*
Y174000D01*
X475393Y174991D01*
X474831Y175831D01*
X473991Y176393D01*
X473000Y176590D01*
X443000D01*
X442009Y176393D01*
X441169Y175831D01*
X440607Y174991D01*
X440410Y174000D01*
Y139073D01*
X432927Y131590D01*
X415590Y131590D01*
Y174000D01*
X415393Y174991D01*
X414831Y175831D01*
X413991Y176393D01*
X413000Y176590D01*
X383000D01*
X382009Y176393D01*
X381169Y175831D01*
X380607Y174991D01*
X380410Y174000D01*
Y140073D01*
X371927Y131590D01*
X355590Y131590D01*
Y174000D01*
X355393Y174991D01*
X354831Y175831D01*
X353991Y176393D01*
X353000Y176590D01*
X322302D01*
X321311Y176393D01*
X320471Y175831D01*
X319910Y174991D01*
X319713Y174000D01*
Y135000D01*
X319910Y134009D01*
X320471Y133169D01*
X321311Y132608D01*
X321611Y132484D01*
X321859Y131238D01*
X320873Y130253D01*
X319626Y130489D01*
X319469Y130849D01*
X319456Y130868D01*
X319450Y130891D01*
X319168Y131282D01*
X318893Y131679D01*
X318873Y131692D01*
X318860Y131711D01*
X318449Y131965D01*
X318043Y132226D01*
X318020Y132230D01*
X318000Y132242D01*
X317524Y132319D01*
X317049Y132405D01*
X317026Y132400D01*
X317003Y132404D01*
X297504Y131715D01*
X296590Y132597D01*
Y174000D01*
X296393Y174991D01*
X295831Y175831D01*
X294991Y176393D01*
X294000Y176590D01*
X263000D01*
X262009Y176393D01*
X261169Y175831D01*
X260607Y174991D01*
X260410Y174000D01*
Y140073D01*
X252927Y132590D01*
X235590Y132590D01*
Y174000D01*
X235393Y174991D01*
X234831Y175831D01*
X233991Y176393D01*
X233000Y176590D01*
X202000D01*
X201009Y176393D01*
X200169Y175831D01*
X199607Y174991D01*
X199410Y174000D01*
X199410Y140073D01*
X192927Y133590D01*
X172590D01*
Y174000D01*
X172393Y174991D01*
X171831Y175831D01*
X170991Y176393D01*
X170000Y176590D01*
X143000D01*
X142009Y176393D01*
X141169Y175831D01*
X140607Y174991D01*
X140410Y174000D01*
X140410Y140727D01*
X131273Y131590D01*
X115590D01*
Y174000D01*
X115393Y174991D01*
X114831Y175831D01*
X113991Y176393D01*
X113000Y176590D01*
X71000D01*
X70009Y176393D01*
X69169Y175831D01*
X68607Y174991D01*
X68410Y174000D01*
Y91946D01*
Y69268D01*
X67237Y68782D01*
X66198Y69820D01*
X62055Y72831D01*
X57491Y75156D01*
X52620Y76739D01*
X47561Y77540D01*
X42439D01*
X37380Y76739D01*
X32509Y75156D01*
X27945Y72831D01*
X23802Y69820D01*
X20180Y66198D01*
X17169Y62055D01*
X14844Y57491D01*
X13261Y52620D01*
X12460Y47561D01*
Y42439D01*
X13261Y37380D01*
X14844Y32509D01*
X17169Y27945D01*
X20180Y23802D01*
X23802Y20180D01*
X27945Y17169D01*
X32509Y14844D01*
X37380Y13261D01*
X42439Y12460D01*
X47561D01*
X52620Y13261D01*
X57491Y14844D01*
X62055Y17169D01*
X66198Y20180D01*
X69820Y23802D01*
X72831Y27945D01*
X75156Y32509D01*
X76739Y37380D01*
X77540Y42439D01*
Y47561D01*
X77092Y50391D01*
X77917Y51357D01*
X95244D01*
X95538Y50271D01*
X95545Y50087D01*
X93879Y48421D01*
X92988Y46270D01*
X105012D01*
X104121Y48421D01*
X102455Y50087D01*
X102462Y50271D01*
X102756Y51357D01*
X110330D01*
Y9946D01*
X110527Y8955D01*
X111089Y8115D01*
X111929Y7554D01*
X112920Y7357D01*
X142920D01*
X143911Y7554D01*
X144751Y8115D01*
X145313Y8955D01*
X145510Y9946D01*
Y46874D01*
X149993Y51357D01*
X170330D01*
Y9946D01*
X170527Y8955D01*
X171089Y8115D01*
X171929Y7554D01*
X172920Y7357D01*
X202920D01*
X203911Y7554D01*
X204751Y8115D01*
X205313Y8955D01*
X205510Y9946D01*
Y43874D01*
X212993Y51357D01*
X214244D01*
X214538Y50271D01*
X214545Y50087D01*
X212880Y48421D01*
X211988Y46270D01*
X224012D01*
X223120Y48421D01*
X221455Y50087D01*
X221462Y50271D01*
X221756Y51357D01*
X230330D01*
Y9946D01*
X230527Y8955D01*
X231089Y8115D01*
X231929Y7554D01*
X232920Y7357D01*
X262920D01*
X263911Y7554D01*
X264751Y8115D01*
X265313Y8955D01*
X265510Y9946D01*
Y42874D01*
X273155Y50519D01*
X273177Y50515D01*
X273606Y49148D01*
X272880Y48421D01*
X271988Y46270D01*
X284012D01*
X283120Y48421D01*
X281455Y50087D01*
X281462Y50271D01*
X281756Y51357D01*
X290330Y51357D01*
Y9946D01*
X290527Y8955D01*
X291089Y8115D01*
X291929Y7554D01*
X292920Y7357D01*
X323618D01*
X324609Y7554D01*
X325449Y8115D01*
X326010Y8955D01*
X326208Y9946D01*
Y47920D01*
X326010Y48911D01*
X325449Y49751D01*
X324609Y50312D01*
X324309Y50436D01*
X324061Y51682D01*
X325074Y52695D01*
X326322Y52458D01*
X326478Y52098D01*
X326492Y52079D01*
X326497Y52056D01*
X326780Y51664D01*
X327054Y51268D01*
X327074Y51255D01*
X327088Y51237D01*
X327499Y50982D01*
X327904Y50722D01*
X327927Y50718D01*
X327947Y50705D01*
X328424Y50628D01*
X328899Y50542D01*
X328922Y50547D01*
X328945Y50543D01*
X334398Y50736D01*
X334943Y49484D01*
X333880Y48421D01*
X332988Y46270D01*
X345012D01*
X344120Y48421D01*
X342780Y49761D01*
X343247Y51049D01*
X348416Y51231D01*
X349330Y50349D01*
Y9946D01*
X349527Y8955D01*
X350089Y8115D01*
X350929Y7554D01*
X351920Y7357D01*
X382920D01*
X383911Y7554D01*
X384751Y8115D01*
X385313Y8955D01*
X385510Y9946D01*
Y42874D01*
X392993Y50357D01*
X395019D01*
X395545Y49087D01*
X394879Y48421D01*
X393988Y46270D01*
X406012D01*
X405120Y48421D01*
X404455Y49087D01*
X404981Y50357D01*
X410330Y50357D01*
Y9946D01*
X410527Y8955D01*
X411089Y8115D01*
X411929Y7554D01*
X412920Y7357D01*
X443920D01*
X444911Y7554D01*
X445751Y8115D01*
X446313Y8955D01*
X446510Y9946D01*
X446510Y42874D01*
X452993Y49357D01*
X455244D01*
X455538Y48271D01*
X455545Y48087D01*
X453880Y46421D01*
X452988Y44270D01*
X465012D01*
X464120Y46421D01*
X462455Y48087D01*
X462462Y48271D01*
X462756Y49357D01*
X473330D01*
Y9946D01*
X473527Y8955D01*
X474089Y8115D01*
X474929Y7554D01*
X475920Y7357D01*
X502920D01*
X503911Y7554D01*
X504751Y8115D01*
X505313Y8955D01*
X505510Y9946D01*
X505510Y42220D01*
X511787Y48497D01*
X511992Y48445D01*
X512288Y48270D01*
X525012D01*
X524259Y50087D01*
X524844Y51357D01*
X530330D01*
Y9946D01*
X530527Y8955D01*
X531089Y8115D01*
X531929Y7554D01*
X532920Y7357D01*
X586000D01*
X586991Y7554D01*
X587831Y8115D01*
X588393Y8955D01*
X588590Y9946D01*
Y15626D01*
X589673Y16289D01*
X592509Y14844D01*
X597380Y13261D01*
X602439Y12460D01*
X607561D01*
X612620Y13261D01*
X617491Y14844D01*
X622055Y17169D01*
X626198Y20180D01*
X629820Y23802D01*
X632831Y27945D01*
X635156Y32509D01*
X636739Y37380D01*
X637540Y42439D01*
Y47561D01*
X636739Y52620D01*
X635156Y57491D01*
X632831Y62055D01*
X629820Y66198D01*
X626198Y69820D01*
X622055Y72831D01*
X617491Y75156D01*
X612620Y76739D01*
X607561Y77540D01*
X602439D01*
X597380Y76739D01*
X592509Y75156D01*
X589673Y73711D01*
X588590Y74374D01*
Y91946D01*
Y129000D01*
Y182000D01*
X588490Y182500D01*
X588590Y183000D01*
Y262000D01*
Y349410D01*
X603000D01*
X603991Y349607D01*
X604831Y350169D01*
X605393Y351009D01*
X605590Y352000D01*
X605590Y430000D01*
Y468000D01*
X605393Y468991D01*
X604831Y469831D01*
X603991Y470393D01*
X603000Y470590D01*
X582090D01*
Y514500D01*
X582084Y514531D01*
X582089Y514562D01*
X581985Y515025D01*
X581893Y515491D01*
X581875Y515517D01*
X581868Y515548D01*
X581595Y515936D01*
X581331Y516331D01*
X581305Y516349D01*
X581287Y516374D01*
X564783Y532109D01*
Y548765D01*
X570378D01*
X570707Y547538D01*
X570528Y547435D01*
X568565Y545472D01*
X567177Y543069D01*
X566459Y540388D01*
Y540270D01*
X577000D01*
X587541D01*
Y540388D01*
X586823Y543069D01*
X585435Y545472D01*
X583472Y547435D01*
X583293Y547538D01*
X583622Y548765D01*
X614000D01*
X614991Y548962D01*
X615831Y549524D01*
X616393Y550364D01*
X616590Y551355D01*
Y601000D01*
Y621355D01*
X616542Y621596D01*
X616543Y621842D01*
X616444Y622087D01*
X616393Y622346D01*
X616256Y622551D01*
X616163Y622779D01*
X615978Y622967D01*
X615950Y623008D01*
X616096Y624166D01*
X616100Y624180D01*
X616243Y624439D01*
X617491Y624844D01*
X622055Y627169D01*
X626198Y630180D01*
X629820Y633802D01*
X632831Y637945D01*
X635156Y642509D01*
X636739Y647380D01*
X637540Y652439D01*
Y657561D01*
X636739Y662620D01*
X635156Y667491D01*
X632831Y672055D01*
X629820Y676198D01*
X626198Y679820D01*
X622055Y682831D01*
X617491Y685156D01*
X612620Y686739D01*
X607561Y687540D01*
D02*
G37*
G36*
X158270Y559012D02*
Y554270D01*
X163012D01*
X162120Y556421D01*
X160421Y558120D01*
X158270Y559012D01*
D02*
G37*
G36*
X155730D02*
X153579Y558120D01*
X151880Y556421D01*
X150988Y554270D01*
X155730D01*
Y559012D01*
D02*
G37*
G36*
X519270Y558012D02*
Y553270D01*
X524012D01*
X523120Y555421D01*
X521421Y557121D01*
X519270Y558012D01*
D02*
G37*
G36*
X516730D02*
X514579Y557121D01*
X512879Y555421D01*
X511988Y553270D01*
X516730D01*
Y558012D01*
D02*
G37*
G36*
X339270D02*
Y553270D01*
X344012D01*
X343120Y555421D01*
X341421Y557121D01*
X339270Y558012D01*
D02*
G37*
G36*
X336730D02*
X334579Y557121D01*
X332879Y555421D01*
X331988Y553270D01*
X336730D01*
Y558012D01*
D02*
G37*
G36*
X459270Y556012D02*
Y551270D01*
X464012D01*
X463120Y553421D01*
X461421Y555121D01*
X459270Y556012D01*
D02*
G37*
G36*
X456730D02*
X454579Y555121D01*
X452879Y553421D01*
X451988Y551270D01*
X456730D01*
Y556012D01*
D02*
G37*
G36*
X404012Y551730D02*
X391988D01*
X392879Y549579D01*
X393468Y548990D01*
Y545040D01*
X390960D01*
Y536270D01*
X398000D01*
X405040D01*
Y545040D01*
X402532D01*
Y548990D01*
X403120Y549579D01*
X404012Y551730D01*
D02*
G37*
G36*
X344012Y550730D02*
X331988D01*
X332879Y548579D01*
X333468Y547990D01*
Y545040D01*
X330960D01*
Y536270D01*
X338000D01*
X345040D01*
Y545040D01*
X342532D01*
Y547990D01*
X343120Y548579D01*
X344012Y550730D01*
D02*
G37*
G36*
X524012D02*
X511988D01*
X512879Y548579D01*
X513468Y547990D01*
Y545040D01*
X510960D01*
Y536270D01*
X518000D01*
X525040D01*
Y545040D01*
X522532D01*
Y547990D01*
X523120Y548579D01*
X524012Y550730D01*
D02*
G37*
G36*
X163012Y551730D02*
X150988D01*
X151880Y549579D01*
X152208Y549250D01*
Y545040D01*
X149960D01*
Y536270D01*
X157000D01*
X164040D01*
Y545040D01*
X161272D01*
Y548730D01*
X162120Y549579D01*
X163012Y551730D01*
D02*
G37*
G36*
X104012Y552730D02*
X91988D01*
X92708Y550993D01*
Y545040D01*
X89960D01*
Y536270D01*
X97000D01*
X104040D01*
Y545040D01*
X101772D01*
Y549230D01*
X103120Y550579D01*
X104012Y552730D01*
D02*
G37*
G36*
X464012Y548730D02*
X451988D01*
X452879Y546579D01*
X453198Y546260D01*
X452831Y544990D01*
X450940D01*
Y536220D01*
X457980D01*
X465020D01*
Y544990D01*
X463198D01*
X462802Y546260D01*
X463120Y546579D01*
X464012Y548730D01*
D02*
G37*
G36*
X587541Y537730D02*
X578270D01*
Y528459D01*
X578388D01*
X581069Y529177D01*
X583472Y530565D01*
X585435Y532528D01*
X586823Y534931D01*
X587541Y537612D01*
Y537730D01*
D02*
G37*
G36*
X575730D02*
X566459D01*
Y537612D01*
X567177Y534931D01*
X568565Y532528D01*
X570528Y530565D01*
X572931Y529177D01*
X575612Y528459D01*
X575730D01*
Y537730D01*
D02*
G37*
G36*
X525040Y533730D02*
X519270D01*
Y524960D01*
X525040D01*
Y533730D01*
D02*
G37*
G36*
X516730D02*
X510960D01*
Y524960D01*
X516730D01*
Y533730D01*
D02*
G37*
G36*
X405040Y533730D02*
X399270D01*
Y524960D01*
X405040D01*
Y533730D01*
D02*
G37*
G36*
X396730D02*
X390960D01*
Y524960D01*
X396730D01*
Y533730D01*
D02*
G37*
G36*
X345040Y533730D02*
X339270D01*
Y524960D01*
X345040D01*
Y533730D01*
D02*
G37*
G36*
X336730D02*
X330960D01*
Y524960D01*
X336730D01*
Y533730D01*
D02*
G37*
G36*
X284040Y533730D02*
X278270D01*
Y524960D01*
X284040D01*
Y533730D01*
D02*
G37*
G36*
X275730D02*
X269960D01*
Y524960D01*
X275730D01*
Y533730D01*
D02*
G37*
G36*
X224040D02*
X218270D01*
Y524960D01*
X224040D01*
Y533730D01*
D02*
G37*
G36*
X215730D02*
X209960D01*
Y524960D01*
X215730D01*
Y533730D01*
D02*
G37*
G36*
X164040D02*
X158270D01*
Y524960D01*
X164040D01*
Y533730D01*
D02*
G37*
G36*
X155730D02*
X149960D01*
Y524960D01*
X155730D01*
Y533730D01*
D02*
G37*
G36*
X104040D02*
X98270D01*
Y524960D01*
X104040D01*
Y533730D01*
D02*
G37*
G36*
X95730D02*
X89960D01*
Y524960D01*
X95730D01*
Y533730D01*
D02*
G37*
G36*
X465020Y533680D02*
X459250D01*
Y524910D01*
X465020D01*
Y533680D01*
D02*
G37*
G36*
X456710D02*
X450940D01*
Y524910D01*
X456710D01*
Y533680D01*
D02*
G37*
G36*
X196540Y506540D02*
X190770D01*
Y497770D01*
X196540D01*
Y506540D01*
D02*
G37*
G36*
X188230D02*
X182460D01*
Y497770D01*
X188230D01*
Y506540D01*
D02*
G37*
G36*
X256520Y506490D02*
X250750D01*
Y497720D01*
X256520D01*
Y506490D01*
D02*
G37*
G36*
X248210D02*
X242440D01*
Y497720D01*
X248210D01*
Y506490D01*
D02*
G37*
G36*
X497520Y506490D02*
X491750D01*
Y497720D01*
X497520D01*
Y506490D01*
D02*
G37*
G36*
X437520D02*
X431750D01*
Y497720D01*
X437520D01*
Y506490D01*
D02*
G37*
G36*
X377520D02*
X371750D01*
Y497720D01*
X377520D01*
Y506490D01*
D02*
G37*
G36*
X316520Y506490D02*
X310750D01*
Y497720D01*
X316520D01*
Y506490D01*
D02*
G37*
G36*
X136520D02*
X130750D01*
Y497720D01*
X136520D01*
Y506490D01*
D02*
G37*
G36*
X549210Y506490D02*
X543440D01*
Y497720D01*
X549210D01*
Y506490D01*
D02*
G37*
G36*
X489210D02*
X483440D01*
Y497720D01*
X489210D01*
Y506490D01*
D02*
G37*
G36*
X429210D02*
X423440D01*
Y497720D01*
X429210D01*
Y506490D01*
D02*
G37*
G36*
X369210D02*
X363440D01*
Y497720D01*
X369210D01*
Y506490D01*
D02*
G37*
G36*
X308210Y506490D02*
X302440D01*
Y497720D01*
X308210D01*
Y506490D01*
D02*
G37*
G36*
X128210D02*
X122440D01*
Y497720D01*
X128210D01*
Y506490D01*
D02*
G37*
G36*
X196540Y495230D02*
X189500D01*
X182460D01*
Y486460D01*
X185218D01*
Y484760D01*
X184879Y484421D01*
X183988Y482270D01*
X196012D01*
X195121Y484421D01*
X194352Y485190D01*
X194451Y486460D01*
X196540D01*
Y495230D01*
D02*
G37*
G36*
X256520Y495180D02*
X249480D01*
X242440D01*
Y486410D01*
X244708D01*
Y484250D01*
X243880Y483421D01*
X242988Y481270D01*
X255012D01*
X254121Y483421D01*
X253772Y483770D01*
Y486410D01*
X256520D01*
Y495180D01*
D02*
G37*
G36*
X136520Y495180D02*
X129480D01*
X122440D01*
Y486410D01*
X125208D01*
Y483750D01*
X124880Y483421D01*
X123988Y481270D01*
X136012D01*
X135120Y483421D01*
X134272Y484270D01*
Y486410D01*
X136520D01*
Y495180D01*
D02*
G37*
G36*
X437520D02*
X430480D01*
X423440D01*
Y486410D01*
X426208D01*
Y482750D01*
X425880Y482421D01*
X424988Y480270D01*
X437012D01*
X436120Y482421D01*
X435272Y483270D01*
Y486410D01*
X437520D01*
Y495180D01*
D02*
G37*
G36*
X377520D02*
X370480D01*
X363440D01*
Y486410D01*
X366208D01*
Y482750D01*
X365880Y482421D01*
X364988Y480270D01*
X377012D01*
X376120Y482421D01*
X375272Y483270D01*
Y486410D01*
X377520D01*
Y495180D01*
D02*
G37*
G36*
X316520D02*
X309480D01*
X302440D01*
Y486410D01*
X305208D01*
Y482750D01*
X304879Y482421D01*
X303988Y480270D01*
X316012D01*
X315121Y482421D01*
X314272Y483270D01*
Y486410D01*
X316520D01*
Y495180D01*
D02*
G37*
G36*
X497520D02*
X490480D01*
X483440D01*
Y486410D01*
X486208D01*
Y482750D01*
X484879Y481421D01*
X483988Y479270D01*
X496012D01*
X495272Y481055D01*
Y486410D01*
X497520D01*
Y495180D01*
D02*
G37*
G36*
X196012Y479730D02*
X191270D01*
Y474988D01*
X193421Y475880D01*
X195121Y477579D01*
X196012Y479730D01*
D02*
G37*
G36*
X188730D02*
X183988D01*
X184879Y477579D01*
X186579Y475880D01*
X188730Y474988D01*
Y479730D01*
D02*
G37*
G36*
X255012Y478730D02*
X250270D01*
Y473988D01*
X252421Y474879D01*
X254121Y476579D01*
X255012Y478730D01*
D02*
G37*
G36*
X247730D02*
X242988D01*
X243880Y476579D01*
X245579Y474879D01*
X247730Y473988D01*
Y478730D01*
D02*
G37*
G36*
X136012D02*
X131270D01*
Y473988D01*
X133421Y474879D01*
X135120Y476579D01*
X136012Y478730D01*
D02*
G37*
G36*
X128730D02*
X123988D01*
X124880Y476579D01*
X126579Y474879D01*
X128730Y473988D01*
Y478730D01*
D02*
G37*
G36*
X437012Y477730D02*
X432270D01*
Y472988D01*
X434421Y473880D01*
X436120Y475579D01*
X437012Y477730D01*
D02*
G37*
G36*
X429730D02*
X424988D01*
X425880Y475579D01*
X427579Y473880D01*
X429730Y472988D01*
Y477730D01*
D02*
G37*
G36*
X369730D02*
X364988D01*
X365880Y475579D01*
X367579Y473880D01*
X369730Y472988D01*
Y477730D01*
D02*
G37*
G36*
X316012D02*
X311270D01*
Y472988D01*
X313421Y473880D01*
X315121Y475579D01*
X316012Y477730D01*
D02*
G37*
G36*
X308730D02*
X303988D01*
X304879Y475579D01*
X306579Y473880D01*
X308730Y472988D01*
Y477730D01*
D02*
G37*
G36*
X548730Y476730D02*
X543988D01*
X544879Y474579D01*
X546579Y472879D01*
X548730Y471988D01*
Y476730D01*
D02*
G37*
G36*
X496012D02*
X491270D01*
Y471988D01*
X493421Y472879D01*
X495121Y474579D01*
X496012Y476730D01*
D02*
G37*
G36*
X488730D02*
X483988D01*
X484879Y474579D01*
X486579Y472879D01*
X488730Y471988D01*
Y476730D01*
D02*
G37*
G36*
X626270Y416889D02*
Y409270D01*
X633889D01*
X633307Y411441D01*
X632134Y413474D01*
X630474Y415134D01*
X628441Y416307D01*
X626270Y416889D01*
D02*
G37*
G36*
X623730Y416889D02*
X621559Y416307D01*
X619526Y415134D01*
X617866Y413474D01*
X616693Y411441D01*
X616111Y409270D01*
X623730D01*
Y416889D01*
D02*
G37*
G36*
Y406730D02*
X616111D01*
X616693Y404559D01*
X617866Y402526D01*
X619526Y400866D01*
X621559Y399692D01*
X623730Y399111D01*
Y406730D01*
D02*
G37*
G36*
X633889D02*
X626270D01*
Y399111D01*
X628441Y399692D01*
X630474Y400866D01*
X632134Y402526D01*
X633307Y404559D01*
X633889Y406730D01*
D02*
G37*
G36*
X278270Y389012D02*
Y384270D01*
X283012D01*
X282120Y386421D01*
X280421Y388120D01*
X278270Y389012D01*
D02*
G37*
G36*
X275730D02*
X273579Y388120D01*
X271880Y386421D01*
X270988Y384270D01*
X275730D01*
Y389012D01*
D02*
G37*
G36*
X218270D02*
Y384270D01*
X223012D01*
X222120Y386421D01*
X220421Y388120D01*
X218270Y389012D01*
D02*
G37*
G36*
X215730D02*
X213579Y388120D01*
X211880Y386421D01*
X210988Y384270D01*
X215730D01*
Y389012D01*
D02*
G37*
G36*
X400270Y388012D02*
Y383270D01*
X405012D01*
X404120Y385421D01*
X402421Y387121D01*
X400270Y388012D01*
D02*
G37*
G36*
X397730D02*
X395579Y387121D01*
X393880Y385421D01*
X392988Y383270D01*
X397730D01*
Y388012D01*
D02*
G37*
G36*
X157270D02*
Y383270D01*
X162012D01*
X161120Y385421D01*
X159421Y387121D01*
X157270Y388012D01*
D02*
G37*
G36*
X154730D02*
X152579Y387121D01*
X150879Y385421D01*
X149988Y383270D01*
X154730D01*
Y388012D01*
D02*
G37*
G36*
X519270Y387012D02*
Y382270D01*
X524012D01*
X523120Y384421D01*
X521421Y386120D01*
X519270Y387012D01*
D02*
G37*
G36*
X516730D02*
X514579Y386120D01*
X512879Y384421D01*
X511988Y382270D01*
X516730D01*
Y387012D01*
D02*
G37*
G36*
X98270D02*
Y382270D01*
X103012D01*
X102121Y384421D01*
X100421Y386120D01*
X98270Y387012D01*
D02*
G37*
G36*
X95730D02*
X93579Y386120D01*
X91880Y384421D01*
X90988Y382270D01*
X95730D01*
Y387012D01*
D02*
G37*
G36*
X524012Y379730D02*
X511988D01*
X512879Y377579D01*
X513488Y376970D01*
Y375385D01*
X511000D01*
Y366615D01*
X518040D01*
X525080D01*
Y375385D01*
X522552D01*
Y377010D01*
X523120Y377579D01*
X524012Y379730D01*
D02*
G37*
G36*
X405012Y380730D02*
X392988D01*
X393880Y378579D01*
X393988Y378470D01*
Y375385D01*
X391000D01*
Y366615D01*
X398040D01*
X405080D01*
Y375385D01*
X403052D01*
Y377510D01*
X404120Y378579D01*
X405012Y380730D01*
D02*
G37*
G36*
X283012Y381730D02*
X270988D01*
X271880Y379579D01*
X272488Y378970D01*
Y375385D01*
X270000D01*
Y366615D01*
X277040D01*
X284080D01*
Y375385D01*
X281552D01*
Y379010D01*
X282120Y379579D01*
X283012Y381730D01*
D02*
G37*
G36*
X223012D02*
X210988D01*
X211880Y379579D01*
X212488Y378970D01*
Y375385D01*
X210000D01*
Y366615D01*
X217040D01*
X224080D01*
Y375385D01*
X221552D01*
Y379010D01*
X222120Y379579D01*
X223012Y381730D01*
D02*
G37*
G36*
X344012D02*
X331988D01*
X332879Y379579D01*
X333488Y378970D01*
Y375385D01*
X331000D01*
Y366615D01*
X338040D01*
X345080D01*
Y375385D01*
X342552D01*
Y379010D01*
X343120Y379579D01*
X344012Y381730D01*
D02*
G37*
G36*
X162012Y380730D02*
X149988D01*
X150879Y378579D01*
X151988Y377470D01*
Y375385D01*
X150000D01*
Y366615D01*
X157040D01*
X164080D01*
Y375385D01*
X161052D01*
Y378510D01*
X161120Y378579D01*
X162012Y380730D01*
D02*
G37*
G36*
X103012Y379730D02*
X90988D01*
X91880Y377579D01*
X92748Y376710D01*
Y375385D01*
X90000D01*
Y366615D01*
X97040D01*
X104080D01*
Y375385D01*
X101812D01*
Y377270D01*
X102121Y377579D01*
X103012Y379730D01*
D02*
G37*
G36*
X464012Y381730D02*
X451988D01*
X452879Y379579D01*
X453478Y378980D01*
Y375335D01*
X450980D01*
Y366565D01*
X458020D01*
X465060D01*
Y375335D01*
X462542D01*
Y379000D01*
X463120Y379579D01*
X464012Y381730D01*
D02*
G37*
G36*
X525080Y364075D02*
X519310D01*
Y355305D01*
X525080D01*
Y364075D01*
D02*
G37*
G36*
X516770D02*
X511000D01*
Y355305D01*
X516770D01*
Y364075D01*
D02*
G37*
G36*
X405080D02*
X399310D01*
Y355305D01*
X405080D01*
Y364075D01*
D02*
G37*
G36*
X396770D02*
X391000D01*
Y355305D01*
X396770D01*
Y364075D01*
D02*
G37*
G36*
X345080Y364075D02*
X339310D01*
Y355305D01*
X345080D01*
Y364075D01*
D02*
G37*
G36*
X336770D02*
X331000D01*
Y355305D01*
X336770D01*
Y364075D01*
D02*
G37*
G36*
X284080D02*
X278310D01*
Y355305D01*
X284080D01*
Y364075D01*
D02*
G37*
G36*
X275770D02*
X270000D01*
Y355305D01*
X275770D01*
Y364075D01*
D02*
G37*
G36*
X224080D02*
X218310D01*
Y355305D01*
X224080D01*
Y364075D01*
D02*
G37*
G36*
X215770D02*
X210000D01*
Y355305D01*
X215770D01*
Y364075D01*
D02*
G37*
G36*
X164080Y364075D02*
X158310D01*
Y355305D01*
X164080D01*
Y364075D01*
D02*
G37*
G36*
X155770D02*
X150000D01*
Y355305D01*
X155770D01*
Y364075D01*
D02*
G37*
G36*
X104080D02*
X98310D01*
Y355305D01*
X104080D01*
Y364075D01*
D02*
G37*
G36*
X95770D02*
X90000D01*
Y355305D01*
X95770D01*
Y364075D01*
D02*
G37*
G36*
X465060Y364025D02*
X459290D01*
Y355255D01*
X465060D01*
Y364025D01*
D02*
G37*
G36*
X456750D02*
X450980D01*
Y355255D01*
X456750D01*
Y364025D01*
D02*
G37*
G36*
X196060Y337590D02*
X190290D01*
Y328820D01*
X196060D01*
Y337590D01*
D02*
G37*
G36*
X187750D02*
X181980D01*
Y328820D01*
X187750D01*
Y337590D01*
D02*
G37*
G36*
X497040Y337540D02*
X491270D01*
Y328770D01*
X497040D01*
Y337540D01*
D02*
G37*
G36*
X437040D02*
X431270D01*
Y328770D01*
X437040D01*
Y337540D01*
D02*
G37*
G36*
X377040D02*
X371270D01*
Y328770D01*
X377040D01*
Y337540D01*
D02*
G37*
G36*
X488730D02*
X482960D01*
Y328770D01*
X488730D01*
Y337540D01*
D02*
G37*
G36*
X428730D02*
X422960D01*
Y328770D01*
X428730D01*
Y337540D01*
D02*
G37*
G36*
X368730D02*
X362960D01*
Y328770D01*
X368730D01*
Y337540D01*
D02*
G37*
G36*
X557040D02*
X551270D01*
Y328770D01*
X557040D01*
Y337540D01*
D02*
G37*
G36*
X548730D02*
X542960D01*
Y328770D01*
X548730D01*
Y337540D01*
D02*
G37*
G36*
X256040Y337540D02*
X250270D01*
Y328770D01*
X256040D01*
Y337540D01*
D02*
G37*
G36*
X136040D02*
X130270D01*
Y328770D01*
X136040D01*
Y337540D01*
D02*
G37*
G36*
X247730D02*
X241960D01*
Y328770D01*
X247730D01*
Y337540D01*
D02*
G37*
G36*
X127730D02*
X121960D01*
Y328770D01*
X127730D01*
Y337540D01*
D02*
G37*
G36*
X316040D02*
X310270D01*
Y328770D01*
X316040D01*
Y337540D01*
D02*
G37*
G36*
X307730D02*
X301960D01*
Y328770D01*
X307730D01*
Y337540D01*
D02*
G37*
G36*
X497040Y326230D02*
X490000D01*
X482960D01*
Y317460D01*
X485968D01*
Y315510D01*
X485880Y315421D01*
X484988Y313270D01*
X497012D01*
X496120Y315421D01*
X495352Y316190D01*
X495804Y317460D01*
X497040D01*
Y326230D01*
D02*
G37*
G36*
X136040Y326230D02*
X129000D01*
X121960D01*
Y317460D01*
X124468D01*
Y316010D01*
X123879Y315421D01*
X122988Y313270D01*
X135012D01*
X134121Y315421D01*
X133532Y316010D01*
Y317460D01*
X136040D01*
Y326230D01*
D02*
G37*
G36*
X557040Y326230D02*
X550000D01*
X542960D01*
Y317460D01*
X545468D01*
Y315010D01*
X544879Y314421D01*
X543988Y312270D01*
X556012D01*
X555121Y314421D01*
X554532Y315010D01*
Y317460D01*
X557040D01*
Y326230D01*
D02*
G37*
G36*
X316040Y326230D02*
X309000D01*
X301960D01*
Y317460D01*
X304468D01*
Y315010D01*
X303880Y314421D01*
X302988Y312270D01*
X315012D01*
X314121Y314421D01*
X313532Y315010D01*
Y317460D01*
X316040D01*
Y326230D01*
D02*
G37*
G36*
X196060Y326280D02*
X189020D01*
X181980D01*
Y317510D01*
X184478D01*
Y315020D01*
X183880Y314421D01*
X182988Y312270D01*
X195012D01*
X194121Y314421D01*
X193542Y315000D01*
Y317510D01*
X196060D01*
Y326280D01*
D02*
G37*
G36*
X437040Y326230D02*
X430000D01*
X422960D01*
Y317460D01*
X425468D01*
Y314010D01*
X424879Y313421D01*
X423988Y311270D01*
X436012D01*
X435121Y313421D01*
X434532Y314010D01*
Y317460D01*
X437040D01*
Y326230D01*
D02*
G37*
G36*
X256040Y326230D02*
X249000D01*
X241960D01*
Y317460D01*
X244468D01*
Y314010D01*
X243880Y313421D01*
X242988Y311270D01*
X255012D01*
X254121Y313421D01*
X253532Y314010D01*
Y317460D01*
X256040D01*
Y326230D01*
D02*
G37*
G36*
X497012Y310730D02*
X492270D01*
Y305988D01*
X494421Y306880D01*
X496120Y308579D01*
X497012Y310730D01*
D02*
G37*
G36*
X489730D02*
X484988D01*
X485880Y308579D01*
X487579Y306880D01*
X489730Y305988D01*
Y310730D01*
D02*
G37*
G36*
X135012D02*
X130270D01*
Y305988D01*
X132421Y306880D01*
X134121Y308579D01*
X135012Y310730D01*
D02*
G37*
G36*
X127730D02*
X122988D01*
X123879Y308579D01*
X125579Y306880D01*
X127730Y305988D01*
Y310730D01*
D02*
G37*
G36*
X556012Y309730D02*
X551270D01*
Y304988D01*
X553421Y305879D01*
X555121Y307579D01*
X556012Y309730D01*
D02*
G37*
G36*
X548730D02*
X543988D01*
X544879Y307579D01*
X546579Y305879D01*
X548730Y304988D01*
Y309730D01*
D02*
G37*
G36*
X315012D02*
X310270D01*
Y304988D01*
X312421Y305879D01*
X314121Y307579D01*
X315012Y309730D01*
D02*
G37*
G36*
X307730D02*
X302988D01*
X303880Y307579D01*
X305579Y305879D01*
X307730Y304988D01*
Y309730D01*
D02*
G37*
G36*
X436012Y308730D02*
X431270D01*
Y303988D01*
X433421Y304879D01*
X435121Y306579D01*
X436012Y308730D01*
D02*
G37*
G36*
X428730D02*
X423988D01*
X424879Y306579D01*
X426579Y304879D01*
X428730Y303988D01*
Y308730D01*
D02*
G37*
G36*
X218270Y220012D02*
Y215270D01*
X223012D01*
X222120Y217421D01*
X220421Y219121D01*
X218270Y220012D01*
D02*
G37*
G36*
X215730D02*
X213579Y219121D01*
X211880Y217421D01*
X210988Y215270D01*
X215730D01*
Y220012D01*
D02*
G37*
G36*
X98270D02*
Y215270D01*
X103012D01*
X102121Y217421D01*
X100421Y219121D01*
X98270Y220012D01*
D02*
G37*
G36*
X95730D02*
X93579Y219121D01*
X91880Y217421D01*
X90988Y215270D01*
X95730D01*
Y220012D01*
D02*
G37*
G36*
X278270Y219012D02*
Y214270D01*
X283012D01*
X282120Y216421D01*
X280421Y218120D01*
X278270Y219012D01*
D02*
G37*
G36*
X275730D02*
X273579Y218120D01*
X271880Y216421D01*
X270988Y214270D01*
X275730D01*
Y219012D01*
D02*
G37*
G36*
X159270D02*
Y214270D01*
X164012D01*
X163120Y216421D01*
X161421Y218120D01*
X159270Y219012D01*
D02*
G37*
G36*
X156730D02*
X154579Y218120D01*
X152879Y216421D01*
X151988Y214270D01*
X156730D01*
Y219012D01*
D02*
G37*
G36*
X519270Y218012D02*
Y213270D01*
X524012D01*
X523120Y215421D01*
X521421Y217120D01*
X519270Y218012D01*
D02*
G37*
G36*
X516730D02*
X514579Y217120D01*
X512879Y215421D01*
X511988Y213270D01*
X516730D01*
Y218012D01*
D02*
G37*
G36*
X459270D02*
Y213270D01*
X464012D01*
X463120Y215421D01*
X461421Y217120D01*
X459270Y218012D01*
D02*
G37*
G36*
X456730D02*
X454579Y217120D01*
X452879Y215421D01*
X451988Y213270D01*
X456730D01*
Y218012D01*
D02*
G37*
G36*
X400270D02*
Y213270D01*
X405012D01*
X404120Y215421D01*
X402421Y217120D01*
X400270Y218012D01*
D02*
G37*
G36*
X397730D02*
X395579Y217120D01*
X393880Y215421D01*
X392988Y213270D01*
X397730D01*
Y218012D01*
D02*
G37*
G36*
X405012Y210730D02*
X392988D01*
X393880Y208579D01*
X394228Y208230D01*
Y205845D01*
X391480D01*
Y197075D01*
X398520D01*
X405560D01*
Y205845D01*
X403292D01*
Y207750D01*
X404120Y208579D01*
X405012Y210730D01*
D02*
G37*
G36*
X344012Y212730D02*
X331988D01*
X332879Y210579D01*
X333728Y209730D01*
Y205845D01*
X331480D01*
Y197075D01*
X338520D01*
X345560D01*
Y205845D01*
X342792D01*
Y210250D01*
X343120Y210579D01*
X344012Y212730D01*
D02*
G37*
G36*
X524012Y210730D02*
X511988D01*
X512879Y208579D01*
X513728Y207730D01*
Y205845D01*
X511480D01*
Y197075D01*
X518520D01*
X525560D01*
Y205845D01*
X522792D01*
Y208250D01*
X523120Y208579D01*
X524012Y210730D01*
D02*
G37*
G36*
X283012Y211730D02*
X270988D01*
X271880Y209579D01*
X272728Y208730D01*
Y205845D01*
X270480D01*
Y197075D01*
X277520D01*
X284560D01*
Y205845D01*
X281792D01*
Y209250D01*
X282120Y209579D01*
X283012Y211730D01*
D02*
G37*
G36*
X223012Y212730D02*
X210988D01*
X211880Y210579D01*
X212728Y209730D01*
Y205845D01*
X210480D01*
Y197075D01*
X217520D01*
X224560D01*
Y205845D01*
X221792D01*
Y210250D01*
X222120Y210579D01*
X223012Y212730D01*
D02*
G37*
G36*
X164012Y211730D02*
X151988D01*
X152728Y209944D01*
Y205845D01*
X150480D01*
Y197075D01*
X157520D01*
X164560D01*
Y205845D01*
X161792D01*
Y208250D01*
X163120Y209579D01*
X164012Y211730D01*
D02*
G37*
G36*
X103012Y212730D02*
X90988D01*
X91880Y210579D01*
X93228Y209230D01*
Y205845D01*
X90480D01*
Y197075D01*
X97520D01*
X104560D01*
Y205845D01*
X102292D01*
Y210993D01*
X103012Y212730D01*
D02*
G37*
G36*
X464012Y210730D02*
X451988D01*
X452879Y208579D01*
X453718Y207740D01*
Y205795D01*
X451460D01*
Y197025D01*
X458500D01*
X465540D01*
Y205795D01*
X462782D01*
Y208240D01*
X463120Y208579D01*
X464012Y210730D01*
D02*
G37*
G36*
X525560Y194535D02*
X519790D01*
Y185765D01*
X525560D01*
Y194535D01*
D02*
G37*
G36*
X517250D02*
X511480D01*
Y185765D01*
X517250D01*
Y194535D01*
D02*
G37*
G36*
X405560Y194535D02*
X399790D01*
Y185765D01*
X405560D01*
Y194535D01*
D02*
G37*
G36*
X397250D02*
X391480D01*
Y185765D01*
X397250D01*
Y194535D01*
D02*
G37*
G36*
X345560Y194535D02*
X339790D01*
Y185765D01*
X345560D01*
Y194535D01*
D02*
G37*
G36*
X337250D02*
X331480D01*
Y185765D01*
X337250D01*
Y194535D01*
D02*
G37*
G36*
X284560Y194535D02*
X278790D01*
Y185765D01*
X284560D01*
Y194535D01*
D02*
G37*
G36*
X276250D02*
X270480D01*
Y185765D01*
X276250D01*
Y194535D01*
D02*
G37*
G36*
X224560D02*
X218790D01*
Y185765D01*
X224560D01*
Y194535D01*
D02*
G37*
G36*
X216250D02*
X210480D01*
Y185765D01*
X216250D01*
Y194535D01*
D02*
G37*
G36*
X164560D02*
X158790D01*
Y185765D01*
X164560D01*
Y194535D01*
D02*
G37*
G36*
X156250D02*
X150480D01*
Y185765D01*
X156250D01*
Y194535D01*
D02*
G37*
G36*
X104560D02*
X98790D01*
Y185765D01*
X104560D01*
Y194535D01*
D02*
G37*
G36*
X96250D02*
X90480D01*
Y185765D01*
X96250D01*
Y194535D01*
D02*
G37*
G36*
X465540Y194485D02*
X459770D01*
Y185715D01*
X465540D01*
Y194485D01*
D02*
G37*
G36*
X457230D02*
X451460D01*
Y185715D01*
X457230D01*
Y194485D01*
D02*
G37*
G36*
X196540Y168540D02*
X190770D01*
Y159770D01*
X196540D01*
Y168540D01*
D02*
G37*
G36*
X188230D02*
X182460D01*
Y159770D01*
X188230D01*
Y168540D01*
D02*
G37*
G36*
X497520Y168490D02*
X491750D01*
Y159720D01*
X497520D01*
Y168490D01*
D02*
G37*
G36*
X437520D02*
X431750D01*
Y159720D01*
X437520D01*
Y168490D01*
D02*
G37*
G36*
X377520D02*
X371750D01*
Y159720D01*
X377520D01*
Y168490D01*
D02*
G37*
G36*
X549210D02*
X543440D01*
Y159720D01*
X549210D01*
Y168490D01*
D02*
G37*
G36*
X489210D02*
X483440D01*
Y159720D01*
X489210D01*
Y168490D01*
D02*
G37*
G36*
X429210D02*
X423440D01*
Y159720D01*
X429210D01*
Y168490D01*
D02*
G37*
G36*
X369210D02*
X363440D01*
Y159720D01*
X369210D01*
Y168490D01*
D02*
G37*
G36*
X256520Y168490D02*
X250750D01*
Y159720D01*
X256520D01*
Y168490D01*
D02*
G37*
G36*
X248210D02*
X242440D01*
Y159720D01*
X248210D01*
Y168490D01*
D02*
G37*
G36*
X136520D02*
X130750D01*
Y159720D01*
X136520D01*
Y168490D01*
D02*
G37*
G36*
X316520D02*
X310750D01*
Y159720D01*
X316520D01*
Y168490D01*
D02*
G37*
G36*
X128210D02*
X122440D01*
Y159720D01*
X128210D01*
Y168490D01*
D02*
G37*
G36*
X308210D02*
X302440D01*
Y159720D01*
X308210D01*
Y168490D01*
D02*
G37*
G36*
X196540Y157230D02*
X189500D01*
X182460D01*
Y148460D01*
X185218D01*
Y146760D01*
X184879Y146421D01*
X183988Y144270D01*
X196012D01*
X195121Y146421D01*
X194352Y147190D01*
X194451Y148460D01*
X196540D01*
Y157230D01*
D02*
G37*
G36*
X136520Y157180D02*
X129480D01*
X122440D01*
Y148410D01*
X125208D01*
Y146750D01*
X124880Y146421D01*
X123988Y144270D01*
X136012D01*
X135120Y146421D01*
X134402Y147140D01*
X134586Y148410D01*
X136520D01*
Y157180D01*
D02*
G37*
G36*
X437520Y157180D02*
X430480D01*
X423440D01*
Y148410D01*
X426208D01*
Y145750D01*
X425880Y145421D01*
X424988Y143270D01*
X437012D01*
X436120Y145421D01*
X435272Y146270D01*
Y148410D01*
X437520D01*
Y157180D01*
D02*
G37*
G36*
X377520D02*
X370480D01*
X363440D01*
Y148410D01*
X365708D01*
Y146250D01*
X364879Y145421D01*
X363988Y143270D01*
X376012D01*
X375121Y145421D01*
X374772Y145770D01*
Y148410D01*
X377520D01*
Y157180D01*
D02*
G37*
G36*
X316520Y157180D02*
X309480D01*
X302440D01*
Y148410D01*
X305208D01*
Y144750D01*
X304879Y144421D01*
X303988Y142270D01*
X316012D01*
X315121Y144421D01*
X314272Y145270D01*
Y148410D01*
X316520D01*
Y157180D01*
D02*
G37*
G36*
X256520Y157180D02*
X249480D01*
X242440D01*
Y148410D01*
X244708D01*
Y145250D01*
X243880Y144421D01*
X242988Y142270D01*
X255012D01*
X254121Y144421D01*
X253772Y144770D01*
Y148410D01*
X256520D01*
Y157180D01*
D02*
G37*
G36*
X497520Y157180D02*
X490480D01*
X483440D01*
Y148410D01*
X486208D01*
Y142123D01*
X486251Y141905D01*
X485988Y141270D01*
X498012D01*
X497121Y143421D01*
X495421Y145120D01*
X495272Y145182D01*
Y148410D01*
X497520D01*
Y157180D01*
D02*
G37*
G36*
X196012Y141730D02*
X191270D01*
Y136988D01*
X193421Y137879D01*
X195121Y139579D01*
X196012Y141730D01*
D02*
G37*
G36*
X188730D02*
X183988D01*
X184879Y139579D01*
X186579Y137879D01*
X188730Y136988D01*
Y141730D01*
D02*
G37*
G36*
X136012D02*
X131270D01*
Y136988D01*
X133421Y137879D01*
X135120Y139579D01*
X136012Y141730D01*
D02*
G37*
G36*
X128730D02*
X123988D01*
X124880Y139579D01*
X126579Y137879D01*
X128730Y136988D01*
Y141730D01*
D02*
G37*
G36*
X437012Y140730D02*
X432270D01*
Y135988D01*
X434421Y136880D01*
X436120Y138579D01*
X437012Y140730D01*
D02*
G37*
G36*
X429730D02*
X424988D01*
X425880Y138579D01*
X427579Y136880D01*
X429730Y135988D01*
Y140730D01*
D02*
G37*
G36*
X376012D02*
X371270D01*
Y135988D01*
X373421Y136880D01*
X375121Y138579D01*
X376012Y140730D01*
D02*
G37*
G36*
X368730D02*
X363988D01*
X364879Y138579D01*
X366579Y136880D01*
X368730Y135988D01*
Y140730D01*
D02*
G37*
G36*
X316012Y139730D02*
X311270D01*
Y134988D01*
X313421Y135879D01*
X315121Y137579D01*
X316012Y139730D01*
D02*
G37*
G36*
X308730D02*
X303988D01*
X304879Y137579D01*
X306579Y135879D01*
X308730Y134988D01*
Y139730D01*
D02*
G37*
G36*
X255012D02*
X250270D01*
Y134988D01*
X252421Y135879D01*
X254121Y137579D01*
X255012Y139730D01*
D02*
G37*
G36*
X247730D02*
X242988D01*
X243880Y137579D01*
X245579Y135879D01*
X247730Y134988D01*
Y139730D01*
D02*
G37*
G36*
X498012Y138730D02*
X493270D01*
Y133988D01*
X495421Y134880D01*
X497121Y136579D01*
X498012Y138730D01*
D02*
G37*
G36*
X490730D02*
X485988D01*
X486880Y136579D01*
X488579Y134880D01*
X490730Y133988D01*
Y138730D01*
D02*
G37*
G36*
X160270Y50012D02*
Y45270D01*
X165012D01*
X164121Y47421D01*
X162421Y49120D01*
X160270Y50012D01*
D02*
G37*
G36*
X157730D02*
X155579Y49120D01*
X153879Y47421D01*
X152988Y45270D01*
X157730D01*
Y50012D01*
D02*
G37*
G36*
X525012Y45730D02*
X512988D01*
X513880Y43579D01*
X514728Y42730D01*
Y37590D01*
X512480D01*
Y28820D01*
X519520D01*
X526560D01*
Y37590D01*
X523792D01*
Y43250D01*
X524120Y43579D01*
X525012Y45730D01*
D02*
G37*
G36*
X284012Y43730D02*
X271988D01*
X272880Y41579D01*
X273728Y40730D01*
Y37590D01*
X271480D01*
Y28820D01*
X278520D01*
X285560D01*
Y37590D01*
X282792D01*
Y41250D01*
X283120Y41579D01*
X284012Y43730D01*
D02*
G37*
G36*
X224012D02*
X211988D01*
X212880Y41579D01*
X213728Y40730D01*
Y37590D01*
X211480D01*
Y28820D01*
X218520D01*
X225560D01*
Y37590D01*
X222792D01*
Y41250D01*
X223120Y41579D01*
X224012Y43730D01*
D02*
G37*
G36*
X345012D02*
X332988D01*
X333880Y41579D01*
X334728Y40730D01*
Y37590D01*
X332480D01*
Y28820D01*
X339520D01*
X346560D01*
Y37590D01*
X343792D01*
Y41250D01*
X344120Y41579D01*
X345012Y43730D01*
D02*
G37*
G36*
X165012Y42730D02*
X152988D01*
X153728Y40944D01*
Y37590D01*
X151480D01*
Y28820D01*
X158520D01*
X165560D01*
Y37590D01*
X162792D01*
Y39250D01*
X164121Y40579D01*
X165012Y42730D01*
D02*
G37*
G36*
X105012Y43730D02*
X92988D01*
X93879Y41579D01*
X94228Y41230D01*
Y37590D01*
X91480D01*
Y28820D01*
X98520D01*
X105560D01*
Y37590D01*
X103292D01*
Y40750D01*
X104121Y41579D01*
X105012Y43730D01*
D02*
G37*
G36*
X465012Y41730D02*
X452988D01*
X453880Y39579D01*
X454648Y38810D01*
X454549Y37540D01*
X452460D01*
Y28770D01*
X459500D01*
X466540D01*
Y37540D01*
X463782D01*
Y39240D01*
X464120Y39579D01*
X465012Y41730D01*
D02*
G37*
G36*
X406012Y43730D02*
X393988D01*
X394879Y41579D01*
X395228Y41230D01*
Y37590D01*
X392480D01*
Y28820D01*
X399520D01*
Y27550D01*
D01*
Y28820D01*
X406560D01*
Y37590D01*
X404292D01*
Y40750D01*
X405120Y41579D01*
X406012Y43730D01*
D02*
G37*
G36*
X526560Y26280D02*
X520790D01*
Y17510D01*
X526560D01*
Y26280D01*
D02*
G37*
G36*
X518250D02*
X512480D01*
Y17510D01*
X518250D01*
Y26280D01*
D02*
G37*
G36*
X406560D02*
X400790D01*
Y17510D01*
X406560D01*
Y26280D01*
D02*
G37*
G36*
X398250D02*
X392480D01*
Y17510D01*
X398250D01*
Y26280D01*
D02*
G37*
G36*
X346560Y26280D02*
X340790D01*
Y17510D01*
X346560D01*
Y26280D01*
D02*
G37*
G36*
X338250D02*
X332480D01*
Y17510D01*
X338250D01*
Y26280D01*
D02*
G37*
G36*
X285560D02*
X279790D01*
Y17510D01*
X285560D01*
Y26280D01*
D02*
G37*
G36*
X277250D02*
X271480D01*
Y17510D01*
X277250D01*
Y26280D01*
D02*
G37*
G36*
X225560D02*
X219790D01*
Y17510D01*
X225560D01*
Y26280D01*
D02*
G37*
G36*
X217250D02*
X211480D01*
Y17510D01*
X217250D01*
Y26280D01*
D02*
G37*
G36*
X165560Y26280D02*
X159790D01*
Y17510D01*
X165560D01*
Y26280D01*
D02*
G37*
G36*
X157250D02*
X151480D01*
Y17510D01*
X157250D01*
Y26280D01*
D02*
G37*
G36*
X105560D02*
X99790D01*
Y17510D01*
X105560D01*
Y26280D01*
D02*
G37*
G36*
X97250D02*
X91480D01*
Y17510D01*
X97250D01*
Y26280D01*
D02*
G37*
G36*
X466540Y26230D02*
X460770D01*
Y17460D01*
X466540D01*
Y26230D01*
D02*
G37*
G36*
X458230D02*
X452460D01*
Y17460D01*
X458230D01*
Y26230D01*
D02*
G37*
%LPD*%
G36*
X533083Y639000D02*
X576632D01*
X577169Y637945D01*
X580180Y633802D01*
X583802Y630180D01*
X587945Y627169D01*
X592509Y624844D01*
X597380Y623261D01*
X602439Y622460D01*
X603730D01*
Y655000D01*
X606270D01*
Y622460D01*
X607561D01*
X611460Y623078D01*
X614000Y621355D01*
Y601000D01*
Y551355D01*
X580349D01*
X580014Y553895D01*
X581069Y554177D01*
X583472Y555565D01*
X585435Y557528D01*
X586823Y559931D01*
X587541Y562612D01*
Y565388D01*
X586961Y567552D01*
X592651Y573241D01*
X592651Y573241D01*
X593633Y574712D01*
X593978Y576446D01*
X593978Y576446D01*
Y594155D01*
X593633Y595890D01*
X592651Y597360D01*
X591357Y598653D01*
X592329Y601000D01*
X589011D01*
X575401Y614610D01*
X573931Y615592D01*
X572196Y615937D01*
X556040D01*
Y627040D01*
X541960D01*
Y606960D01*
X551157D01*
X551595Y606873D01*
X551595Y606873D01*
X570319D01*
X573845Y603347D01*
X572873Y601000D01*
X571623D01*
X572303Y598460D01*
X570528Y597435D01*
X568565Y595472D01*
X567177Y593069D01*
X566459Y590388D01*
Y590270D01*
X577000D01*
Y589000D01*
X578270D01*
Y578459D01*
X578388D01*
X580285Y578967D01*
X582385Y578026D01*
X583088Y577411D01*
X583208Y576618D01*
X580552Y573961D01*
X578388Y574541D01*
X575612D01*
X572931Y573823D01*
X570528Y572435D01*
X568565Y570472D01*
X567177Y568069D01*
X566459Y565388D01*
Y562612D01*
X567177Y559931D01*
X568565Y557528D01*
X570528Y555565D01*
X572931Y554177D01*
X573986Y553895D01*
X573651Y551355D01*
X562193D01*
Y531000D01*
X579500Y514500D01*
Y468000D01*
X603000D01*
Y430000D01*
D01*
X603000Y352000D01*
X586000D01*
Y262000D01*
Y183000D01*
X585000D01*
X586000Y182000D01*
Y95000D01*
Y91000D01*
Y71417D01*
X583802Y69820D01*
X580180Y66198D01*
X577169Y62055D01*
X574844Y57491D01*
X573261Y52620D01*
X572460Y47561D01*
Y46270D01*
X605000D01*
Y43730D01*
X572460D01*
Y42439D01*
X573261Y37380D01*
X574844Y32509D01*
X577169Y27945D01*
X580180Y23802D01*
X583802Y20180D01*
X586000Y18583D01*
Y9946D01*
X532920D01*
Y53947D01*
X513574D01*
X502920Y43292D01*
X502920Y9946D01*
X475920D01*
Y50946D01*
X474920Y51946D01*
X451920D01*
X443920Y43946D01*
X443920Y9946D01*
X412920D01*
Y52946D01*
X391920Y52946D01*
X382920Y43946D01*
Y9946D01*
X351920D01*
Y53946D01*
X328853Y53131D01*
X327840Y55461D01*
X338889Y66510D01*
X346560D01*
Y86590D01*
X332480D01*
Y72919D01*
X319580Y60019D01*
X318716Y60081D01*
X316785Y60817D01*
X316120Y62421D01*
X315792Y62750D01*
Y66510D01*
X318560D01*
Y75280D01*
X311520D01*
X304480D01*
Y66510D01*
X306728D01*
Y63270D01*
X305879Y62421D01*
X304988Y60270D01*
X311000D01*
Y57730D01*
X304988D01*
X305879Y55579D01*
X307579Y53879D01*
X309183Y53215D01*
X309919Y51284D01*
X309981Y50420D01*
X308315Y48755D01*
X307333Y47284D01*
X306988Y45550D01*
Y37590D01*
X304480D01*
Y17510D01*
X318560D01*
Y37590D01*
X316052D01*
Y43673D01*
X321271Y48892D01*
X323618Y47920D01*
Y9946D01*
X292920D01*
Y53946D01*
X272920Y53946D01*
X262920Y43946D01*
Y9946D01*
X232920D01*
Y51821D01*
X232920Y52946D01*
X231920Y53946D01*
X230794Y53946D01*
X211920Y53946D01*
X202920Y44946D01*
Y9946D01*
X172920D01*
Y52946D01*
X171920Y53946D01*
X148920D01*
X142920Y47946D01*
Y9946D01*
X112920D01*
Y53946D01*
X76308D01*
X75156Y57491D01*
X72831Y62055D01*
X71000Y64574D01*
Y91000D01*
Y174000D01*
X113000D01*
Y129000D01*
X132346D01*
X143000Y139654D01*
X143000Y174000D01*
X170000D01*
Y132000D01*
X171000Y131000D01*
X194000D01*
X202000Y139000D01*
X202000Y174000D01*
X233000D01*
Y130000D01*
X254000Y130000D01*
X263000Y139000D01*
Y174000D01*
X294000D01*
Y129000D01*
X317094Y129816D01*
X318108Y127487D01*
X310111Y119490D01*
X302440D01*
Y99410D01*
X316520D01*
Y113081D01*
X329420Y125981D01*
X330284Y125919D01*
X332215Y125183D01*
X332879Y123579D01*
X333208Y123250D01*
Y119490D01*
X330440D01*
Y110720D01*
X337480D01*
X344520D01*
Y119490D01*
X342272D01*
Y122730D01*
X343120Y123579D01*
X344012Y125730D01*
X338000D01*
Y128270D01*
X344012D01*
X343120Y130421D01*
X341421Y132121D01*
X339817Y132785D01*
X339081Y134716D01*
X339019Y135580D01*
X340685Y137245D01*
X340685Y137245D01*
X341667Y138716D01*
X342012Y140450D01*
Y148410D01*
X344520D01*
Y168490D01*
X330440D01*
Y148410D01*
X332948D01*
Y142327D01*
X324649Y134028D01*
X322302Y135000D01*
Y174000D01*
X353000D01*
Y129000D01*
X373000Y129000D01*
X383000Y139000D01*
Y174000D01*
X413000D01*
Y131126D01*
X413000Y130000D01*
X414000Y129000D01*
X415126Y129000D01*
X434000Y129000D01*
X443000Y138000D01*
Y174000D01*
X473000D01*
Y130000D01*
X474000Y129000D01*
X497000D01*
X503000Y135000D01*
Y174000D01*
X533000D01*
Y129000D01*
X557302D01*
X558274Y126653D01*
X551111Y119490D01*
X543440D01*
Y99410D01*
X557520D01*
Y113081D01*
X561000Y116561D01*
X576205Y131765D01*
X577187Y133236D01*
X577532Y134970D01*
Y180000D01*
X577187Y181734D01*
X576341Y183000D01*
X576205Y183205D01*
X576205Y183205D01*
X562708Y196702D01*
X561237Y197684D01*
X559503Y198029D01*
X558560D01*
Y205845D01*
X544480D01*
Y185765D01*
X558560D01*
Y186371D01*
X559733Y186857D01*
X568468Y178123D01*
Y136847D01*
X562173Y130553D01*
X561000Y131039D01*
Y172000D01*
Y175000D01*
X553000Y183000D01*
X534000D01*
Y224000D01*
X514654D01*
X504000Y213346D01*
X504000Y183000D01*
X477000D01*
Y221000D01*
X476000Y222000D01*
X453000D01*
X445000Y214000D01*
Y183000D01*
X414000D01*
Y223000D01*
X393000Y223000D01*
X384000Y214000D01*
Y183000D01*
X353000D01*
Y224000D01*
X329641Y223175D01*
X328628Y225504D01*
X337889Y234765D01*
X345560D01*
Y254845D01*
X331480D01*
Y241174D01*
X318121Y227815D01*
X315125Y228411D01*
X315121Y228421D01*
X314792Y228750D01*
Y234765D01*
X317560D01*
Y243535D01*
X310520D01*
X303480D01*
Y234765D01*
X305728D01*
Y229270D01*
X304879Y228421D01*
X303988Y226270D01*
X310000D01*
Y223730D01*
X303988D01*
X304879Y221579D01*
X306579Y219879D01*
X306589Y219875D01*
X307298Y217077D01*
X307219Y216865D01*
X306333Y215539D01*
X305988Y213805D01*
Y205845D01*
X303480D01*
Y185765D01*
X317560D01*
Y205845D01*
X315052D01*
Y211928D01*
X322351Y219227D01*
X324698Y218255D01*
Y183000D01*
X294000D01*
Y224000D01*
X274000Y224000D01*
X264000Y214000D01*
Y183000D01*
X234000D01*
Y221874D01*
X234000Y223000D01*
X233000Y224000D01*
X231874Y224000D01*
X213000Y224000D01*
X204000Y215000D01*
Y183000D01*
X174000D01*
Y223000D01*
X173000Y224000D01*
X150000D01*
X144000Y218000D01*
Y183000D01*
X114000D01*
Y224000D01*
X72000D01*
Y262000D01*
Y342000D01*
X113083D01*
Y300000D01*
X132428D01*
X143083Y310654D01*
X143083Y342000D01*
X170082D01*
Y303000D01*
X171082Y302000D01*
X194083D01*
X202083Y310000D01*
X202083Y342000D01*
X233083D01*
Y301000D01*
X254083Y301000D01*
X263083Y310000D01*
Y342000D01*
X294083D01*
Y300000D01*
X318615Y300867D01*
X319628Y298538D01*
X309631Y288540D01*
X301960D01*
Y268460D01*
X316040D01*
Y282131D01*
X328420Y294511D01*
X330960Y293458D01*
Y293054D01*
X331777Y291080D01*
X331344Y289889D01*
X330581Y288540D01*
X329960D01*
Y279770D01*
X337000D01*
X344040D01*
Y288540D01*
X343180D01*
X343019Y288887D01*
X342223Y291080D01*
X343012Y292985D01*
X337000D01*
Y295525D01*
X343012D01*
X342120Y297676D01*
X340421Y299375D01*
X338201Y300295D01*
X337797D01*
X336744Y302835D01*
X340205Y306295D01*
X340205Y306295D01*
X341187Y307766D01*
X341532Y309500D01*
Y317460D01*
X344040D01*
Y337540D01*
X329960D01*
Y317460D01*
X332468D01*
Y311377D01*
X324731Y303641D01*
X322385Y304613D01*
Y342000D01*
X353083D01*
Y300000D01*
X373083Y300000D01*
X383083Y310000D01*
Y342000D01*
X413083D01*
Y302126D01*
X413083Y301000D01*
X414082Y300000D01*
X415208Y300000D01*
X434083Y300000D01*
X443083Y309000D01*
Y342000D01*
X473083D01*
Y301000D01*
X474082Y300000D01*
X497083D01*
X503083Y306000D01*
Y342000D01*
X533083D01*
Y300000D01*
X561000D01*
Y337000D01*
Y345000D01*
X554000Y352000D01*
X532920D01*
Y392947D01*
X513574D01*
X502920Y382292D01*
X502920Y352000D01*
X475920D01*
Y389946D01*
X474920Y390946D01*
X451920D01*
X443920Y382946D01*
Y352000D01*
X412920D01*
Y391946D01*
X391920Y391946D01*
X382920Y382946D01*
Y352000D01*
X351920D01*
Y392946D01*
X328568Y392121D01*
X327555Y394450D01*
X337409Y404305D01*
X345080D01*
Y424385D01*
X331000D01*
Y410714D01*
X318387Y398101D01*
X315412Y398718D01*
X315121Y399421D01*
X314552Y399990D01*
Y404305D01*
X317080D01*
Y413075D01*
X310040D01*
X303000D01*
Y404305D01*
X305488D01*
Y400030D01*
X304879Y399421D01*
X303988Y397270D01*
X310000D01*
Y394730D01*
X303988D01*
X304879Y392579D01*
X306579Y390880D01*
X307282Y390588D01*
X307899Y387613D01*
X306835Y386550D01*
X305853Y385079D01*
X305508Y383345D01*
Y375385D01*
X303000D01*
Y355305D01*
X317080D01*
Y375385D01*
X314572D01*
Y381468D01*
X321271Y388167D01*
X323618Y387195D01*
Y352000D01*
X292920D01*
Y392946D01*
X272920Y392946D01*
X262920Y382946D01*
Y352000D01*
X232920D01*
Y390821D01*
X232920Y391946D01*
X231920Y392947D01*
X230794Y392946D01*
X211920Y392946D01*
X202920Y383946D01*
Y352000D01*
X172920D01*
Y391946D01*
X171920Y392946D01*
X148920D01*
X142920Y386946D01*
Y352000D01*
X112920D01*
Y392946D01*
X71000D01*
Y430000D01*
Y510000D01*
X113000D01*
Y468000D01*
X132346D01*
X143000Y478654D01*
X143000Y510000D01*
X170000D01*
Y471000D01*
X171000Y470000D01*
X194000D01*
X202000Y478000D01*
X202000Y510000D01*
X233000D01*
Y469000D01*
X254000Y469000D01*
X263000Y478000D01*
Y510000D01*
X294000D01*
Y468000D01*
X318131Y468853D01*
X319144Y466524D01*
X310111Y457490D01*
X302440D01*
Y437410D01*
X316520D01*
Y451081D01*
X329804Y464365D01*
X332801Y463769D01*
X332879Y463579D01*
X333208Y463250D01*
Y457490D01*
X330440D01*
Y448720D01*
X337480D01*
X344520D01*
Y457490D01*
X342272D01*
Y462730D01*
X343120Y463579D01*
X344012Y465730D01*
X338000D01*
Y468270D01*
X344012D01*
X343120Y470421D01*
X341421Y472121D01*
X341231Y472199D01*
X340635Y475196D01*
X340685Y475245D01*
X340685Y475245D01*
X341667Y476716D01*
X342012Y478450D01*
Y486410D01*
X344520D01*
Y506490D01*
X330440D01*
Y486410D01*
X332948D01*
Y480327D01*
X324649Y472028D01*
X322302Y473000D01*
Y510000D01*
X353000D01*
Y468000D01*
X373000Y468000D01*
X383000Y478000D01*
Y510000D01*
X413000D01*
Y470126D01*
X413000Y469000D01*
X414000Y468000D01*
X415126Y468000D01*
X434000Y468000D01*
X443000Y477000D01*
Y510000D01*
X473000D01*
Y469000D01*
X474000Y468000D01*
X497000D01*
X503000Y474000D01*
Y510000D01*
X533000D01*
Y468000D01*
X557785D01*
X558277Y513723D01*
X551000Y521000D01*
X534000D01*
Y551355D01*
Y552346D01*
Y563000D01*
X514654D01*
X504000Y552346D01*
X504000Y522000D01*
X477000D01*
Y560000D01*
X476000Y561000D01*
X453000D01*
X445000Y553000D01*
Y522000D01*
X414000D01*
Y562000D01*
X393000Y562000D01*
X384000Y553000D01*
Y522000D01*
X353000D01*
Y563000D01*
X328900Y562149D01*
X327887Y564478D01*
X337369Y573960D01*
X345040D01*
Y594040D01*
X330960D01*
Y580369D01*
X317580Y566989D01*
X316693Y567063D01*
X314794Y567795D01*
X314121Y569421D01*
X314032Y569510D01*
Y573960D01*
X317040D01*
Y582730D01*
X310000D01*
X302960D01*
Y573960D01*
X304968D01*
Y570510D01*
X303880Y569421D01*
X302988Y567270D01*
X309000D01*
Y564730D01*
X302988D01*
X303880Y562579D01*
X305579Y560880D01*
X307205Y560206D01*
X307937Y558307D01*
X308011Y557420D01*
X306795Y556205D01*
X305813Y554734D01*
X305468Y553000D01*
Y545040D01*
X302960D01*
Y524960D01*
X317040D01*
Y545040D01*
X314532D01*
Y551123D01*
X322351Y558942D01*
X324698Y557970D01*
Y522000D01*
X294000D01*
Y563000D01*
X274000Y563000D01*
X264000Y553000D01*
Y522000D01*
X234000D01*
Y560874D01*
X234000Y562000D01*
X233000Y563000D01*
X231874Y563000D01*
X213000Y563000D01*
X204000Y554000D01*
Y522000D01*
X174000D01*
Y562000D01*
X173000Y563000D01*
X150000D01*
X144000Y557000D01*
Y522000D01*
X114000D01*
Y563000D01*
X71000D01*
Y601000D01*
Y635426D01*
X72831Y637945D01*
X75156Y642509D01*
X76739Y647380D01*
X77540Y652439D01*
Y653730D01*
X45000D01*
Y656270D01*
X77540D01*
Y657561D01*
X76739Y662620D01*
X75156Y667491D01*
X72831Y672055D01*
X71000Y674574D01*
Y681000D01*
X118000D01*
Y639000D01*
X132428D01*
X143083Y649654D01*
X143083Y681000D01*
X170082D01*
Y642000D01*
X171082Y641000D01*
X194083D01*
X202083Y649000D01*
X202083Y681000D01*
X233083D01*
Y640000D01*
X254083Y640000D01*
X263083Y649000D01*
Y681000D01*
X294083D01*
Y639000D01*
X318097Y639849D01*
X319110Y637519D01*
X308631Y627040D01*
X300960D01*
Y606960D01*
X315040D01*
Y620631D01*
X328420Y634011D01*
X329307Y633937D01*
X331206Y633204D01*
X331880Y631579D01*
X331968Y631490D01*
Y627040D01*
X328960D01*
Y618270D01*
X336000D01*
X343040D01*
Y627040D01*
X341032D01*
Y630490D01*
X342121Y631579D01*
X343012Y633730D01*
X337000D01*
Y636270D01*
X343012D01*
X342121Y638421D01*
X340421Y640120D01*
X338796Y640794D01*
X338064Y642693D01*
X337989Y643580D01*
X339205Y644795D01*
X339205Y644795D01*
X340187Y646266D01*
X340532Y648000D01*
Y655960D01*
X343040D01*
Y676040D01*
X328960D01*
Y655960D01*
X331468D01*
Y649877D01*
X324731Y643141D01*
X322385Y644113D01*
Y681000D01*
X353083D01*
Y639000D01*
X373083Y639000D01*
X383083Y649000D01*
Y681000D01*
X413083D01*
Y641126D01*
X413083Y640000D01*
X414082Y639000D01*
X415208Y639000D01*
X434083Y639000D01*
X443083Y648000D01*
Y681000D01*
X473083D01*
Y640000D01*
X474082Y639000D01*
X497083D01*
X503083Y645000D01*
Y681000D01*
X533083D01*
Y639000D01*
D02*
G37*
%LPC*%
G36*
X93730Y639012D02*
X91579Y638120D01*
X89880Y636421D01*
X88988Y634270D01*
X93730D01*
Y639012D01*
D02*
G37*
G36*
X102040Y676040D02*
X87960D01*
Y655960D01*
X97157D01*
X97595Y655873D01*
X97595Y655873D01*
X98718D01*
X103468Y651123D01*
Y634472D01*
X101040Y634201D01*
X100120Y636421D01*
X98421Y638120D01*
X96270Y639012D01*
Y633000D01*
X95000D01*
Y631730D01*
X88988D01*
X89880Y629579D01*
X89384Y627040D01*
X87960D01*
Y618270D01*
X95000D01*
Y617000D01*
X96270D01*
Y606960D01*
X100928D01*
X102040Y606960D01*
X103468Y605011D01*
Y601000D01*
X100999D01*
X102051Y598460D01*
X97631Y594040D01*
X89960D01*
Y573960D01*
X104040D01*
Y587631D01*
X111205Y594795D01*
X111205Y594795D01*
X112187Y596266D01*
X112532Y598000D01*
Y601000D01*
Y653000D01*
X112532Y653000D01*
X112187Y654734D01*
X111205Y656205D01*
X103800Y663610D01*
X102329Y664592D01*
X102040Y664650D01*
Y676040D01*
D02*
G37*
G36*
X162060Y676090D02*
X147980D01*
Y656010D01*
X150488D01*
Y648927D01*
X128601Y627040D01*
X120960D01*
Y606960D01*
X135040D01*
Y619157D01*
X135127Y619595D01*
X135127Y619595D01*
Y620748D01*
X147613Y633234D01*
X150490Y632519D01*
X150879Y631579D01*
X150978Y631480D01*
Y627090D01*
X147980D01*
Y618320D01*
X155020D01*
X162060D01*
Y627090D01*
X160042D01*
Y630500D01*
X161120Y631579D01*
X162012Y633730D01*
X156000D01*
Y636270D01*
X162012D01*
X161120Y638421D01*
X159421Y640120D01*
X158481Y640510D01*
X157766Y643387D01*
X158225Y643845D01*
X158225Y643845D01*
X159207Y645316D01*
X159552Y647050D01*
X159552Y647050D01*
Y656010D01*
X162060D01*
Y676090D01*
D02*
G37*
G36*
X523040Y676040D02*
X508960D01*
Y655960D01*
X511468D01*
Y646907D01*
X491688Y627127D01*
X491595D01*
X491595Y627127D01*
X491157Y627040D01*
X481960D01*
Y606960D01*
X496040D01*
Y618903D01*
X496770Y619390D01*
X508950Y631571D01*
X510862Y631190D01*
X511715Y630743D01*
X511769Y630689D01*
Y627040D01*
X508960D01*
Y618270D01*
X516000D01*
X523040D01*
Y627040D01*
X520834D01*
Y630086D01*
X521724Y630976D01*
X522615Y633127D01*
X516603D01*
Y635667D01*
X522615D01*
X521724Y637818D01*
X520024Y639518D01*
X519994Y639530D01*
X519613Y642437D01*
X520187Y643296D01*
X520532Y645030D01*
X520532Y645030D01*
Y655960D01*
X523040D01*
Y676040D01*
D02*
G37*
G36*
X463040D02*
X448960D01*
Y655960D01*
X451455D01*
Y647894D01*
X430601Y627040D01*
X421960D01*
Y606960D01*
X436040D01*
Y619661D01*
X448688Y632309D01*
X451228Y631256D01*
Y627040D01*
X448960D01*
Y618270D01*
X456000D01*
X463040D01*
Y627040D01*
X460292D01*
Y629826D01*
X460421Y629879D01*
X462121Y631579D01*
X463012Y633730D01*
X457000D01*
Y636270D01*
X463012D01*
X462121Y638421D01*
X460421Y640120D01*
X460188Y640217D01*
X459659Y641596D01*
X459488Y643256D01*
X460174Y644283D01*
X460519Y646017D01*
X460519Y646017D01*
Y655960D01*
X463040D01*
Y676040D01*
D02*
G37*
G36*
X403040D02*
X388960D01*
Y655960D01*
X390455D01*
Y647894D01*
X369601Y627040D01*
X361960D01*
Y606960D01*
X376040D01*
Y619157D01*
X376127Y619595D01*
X376127Y619595D01*
Y620748D01*
X387787Y632407D01*
X390783Y631811D01*
X390880Y631579D01*
X391468Y630990D01*
Y627040D01*
X388960D01*
Y618270D01*
X396000D01*
X403040D01*
Y627040D01*
X400532D01*
Y630990D01*
X401120Y631579D01*
X402012Y633730D01*
X396000D01*
Y636270D01*
X402012D01*
X401120Y638421D01*
X399421Y640120D01*
X399188Y640217D01*
X398659Y641596D01*
X398488Y643256D01*
X399174Y644283D01*
X399519Y646017D01*
Y655960D01*
X403040D01*
Y676040D01*
D02*
G37*
G36*
X282040Y676040D02*
X267960D01*
Y655960D01*
X268722D01*
Y648161D01*
X247601Y627040D01*
X240960D01*
Y606960D01*
X255040D01*
Y619157D01*
X255127Y619595D01*
X255127Y619595D01*
Y621748D01*
X267787Y634408D01*
X270783Y633812D01*
X270879Y633579D01*
X270968Y633490D01*
Y627040D01*
X267960D01*
Y618270D01*
X275000D01*
X282040D01*
Y627040D01*
X280032D01*
Y632490D01*
X281120Y633579D01*
X282012Y635730D01*
X276000D01*
Y638270D01*
X282012D01*
X281120Y640421D01*
X279421Y642121D01*
X278992Y642298D01*
X278915Y642356D01*
X277458Y644523D01*
X277612Y645410D01*
X277786Y646284D01*
X277786Y646284D01*
Y655960D01*
X282040D01*
Y676040D01*
D02*
G37*
G36*
X222040D02*
X207960D01*
Y655960D01*
X208722D01*
Y649161D01*
X187410Y627850D01*
X186903Y627090D01*
X180980D01*
Y607010D01*
X195060D01*
Y619207D01*
X195147Y619645D01*
X195147Y619645D01*
Y622768D01*
X206613Y634234D01*
X209490Y633519D01*
X209879Y632579D01*
X210468Y631990D01*
Y627040D01*
X207960D01*
Y618270D01*
X215000D01*
X222040D01*
Y627040D01*
X219532D01*
Y631990D01*
X220121Y632579D01*
X221012Y634730D01*
X215000D01*
Y637270D01*
X221012D01*
X220121Y639421D01*
X218421Y641121D01*
X217481Y641510D01*
X216873Y643039D01*
X216664Y644385D01*
X216665Y644388D01*
X217441Y645549D01*
X217786Y647284D01*
X217786Y647284D01*
Y655960D01*
X222040D01*
Y676040D01*
D02*
G37*
G36*
X162060Y615780D02*
X156290D01*
Y607010D01*
X162060D01*
Y615780D01*
D02*
G37*
G36*
X153750D02*
X147980D01*
Y607010D01*
X153750D01*
Y615780D01*
D02*
G37*
G36*
X523040Y615730D02*
X517270D01*
Y606960D01*
X523040D01*
Y615730D01*
D02*
G37*
G36*
X514730D02*
X508960D01*
Y606960D01*
X514730D01*
Y615730D01*
D02*
G37*
G36*
X463040D02*
X457270D01*
Y606960D01*
X463040D01*
Y615730D01*
D02*
G37*
G36*
X454730D02*
X448960D01*
Y606960D01*
X454730D01*
Y615730D01*
D02*
G37*
G36*
X403040D02*
X397270D01*
Y606960D01*
X403040D01*
Y615730D01*
D02*
G37*
G36*
X394730D02*
X388960D01*
Y606960D01*
X394730D01*
Y615730D01*
D02*
G37*
G36*
X343040D02*
X337270D01*
Y606960D01*
X343040D01*
Y615730D01*
D02*
G37*
G36*
X334730D02*
X328960D01*
Y606960D01*
X334730D01*
Y615730D01*
D02*
G37*
G36*
X282040Y615730D02*
X276270D01*
Y606960D01*
X282040D01*
Y615730D01*
D02*
G37*
G36*
X273730D02*
X267960D01*
Y606960D01*
X273730D01*
Y615730D01*
D02*
G37*
G36*
X222040Y615730D02*
X216270D01*
Y606960D01*
X222040D01*
Y615730D01*
D02*
G37*
G36*
X213730D02*
X207960D01*
Y606960D01*
X213730D01*
Y615730D01*
D02*
G37*
G36*
X93730Y615730D02*
X87960D01*
Y606960D01*
X93730D01*
Y615730D01*
D02*
G37*
G36*
X558040Y594040D02*
X552270D01*
Y585270D01*
X558040D01*
Y594040D01*
D02*
G37*
G36*
X549730D02*
X543960D01*
Y585270D01*
X549730D01*
Y594040D01*
D02*
G37*
G36*
X378040D02*
X372270D01*
Y585270D01*
X378040D01*
Y594040D01*
D02*
G37*
G36*
X137040Y594040D02*
X131270D01*
Y585270D01*
X137040D01*
Y594040D01*
D02*
G37*
G36*
X317040D02*
X311270D01*
Y585270D01*
X317040D01*
Y594040D01*
D02*
G37*
G36*
X257040D02*
X251270D01*
Y585270D01*
X257040D01*
Y594040D01*
D02*
G37*
G36*
X197040D02*
X191270D01*
Y585270D01*
X197040D01*
Y594040D01*
D02*
G37*
G36*
X128730D02*
X122960D01*
Y585270D01*
X128730D01*
Y594040D01*
D02*
G37*
G36*
X369730Y594040D02*
X363960D01*
Y585270D01*
X369730D01*
Y594040D01*
D02*
G37*
G36*
X308730Y594040D02*
X302960D01*
Y585270D01*
X308730D01*
Y594040D01*
D02*
G37*
G36*
X248730D02*
X242960D01*
Y585270D01*
X248730D01*
Y594040D01*
D02*
G37*
G36*
X188730D02*
X182960D01*
Y585270D01*
X188730D01*
Y594040D01*
D02*
G37*
G36*
X438040Y594040D02*
X432270D01*
Y585270D01*
X438040D01*
Y594040D01*
D02*
G37*
G36*
X429730D02*
X423960D01*
Y585270D01*
X429730D01*
Y594040D01*
D02*
G37*
G36*
X498020Y593990D02*
X492250D01*
Y585220D01*
X498020D01*
Y593990D01*
D02*
G37*
G36*
X489710D02*
X483940D01*
Y585220D01*
X489710D01*
Y593990D01*
D02*
G37*
G36*
X575730Y587730D02*
X566459D01*
Y587612D01*
X567177Y584931D01*
X568565Y582528D01*
X570528Y580565D01*
X572931Y579177D01*
X575612Y578459D01*
X575730D01*
Y587730D01*
D02*
G37*
G36*
X164040Y594040D02*
X149960D01*
Y582097D01*
X149230Y581610D01*
X149230Y581610D01*
X137550Y569929D01*
X135059Y570425D01*
X135017Y570524D01*
X134481Y571061D01*
Y573960D01*
X137040D01*
Y582730D01*
X130000D01*
X122960D01*
Y573960D01*
X125416D01*
Y571164D01*
X124777Y570524D01*
X123885Y568373D01*
X129897D01*
Y565833D01*
X123885D01*
X124777Y563682D01*
X126243Y562215D01*
X126691Y561362D01*
X127044Y559582D01*
X126757Y559117D01*
X125813Y557704D01*
X125468Y555970D01*
Y545040D01*
X122960D01*
Y524960D01*
X137040D01*
Y545040D01*
X134532D01*
Y554093D01*
X154312Y573873D01*
X154405D01*
X154843Y573960D01*
X164040D01*
Y594040D01*
D02*
G37*
G36*
X224040D02*
X209960D01*
Y581339D01*
X198050Y569429D01*
X195559Y569925D01*
X195518Y570024D01*
X194731Y570811D01*
Y573960D01*
X197040D01*
Y582730D01*
X190000D01*
X182960D01*
Y573960D01*
X185667D01*
Y570414D01*
X185277Y570024D01*
X184386Y567873D01*
X190397D01*
Y565333D01*
X184386D01*
X185277Y563182D01*
X186743Y561715D01*
X187190Y560862D01*
X187571Y558950D01*
X186808Y558188D01*
X185826Y556717D01*
X185481Y554983D01*
Y545040D01*
X182960D01*
Y524960D01*
X197040D01*
Y545040D01*
X194545D01*
Y553106D01*
X215399Y573960D01*
X224040D01*
Y594040D01*
D02*
G37*
G36*
X558040Y582730D02*
X551000D01*
X543960D01*
Y573960D01*
X544826D01*
X545880Y571421D01*
X544988Y569270D01*
X557012D01*
X556120Y571421D01*
X556616Y573960D01*
X558040D01*
Y582730D01*
D02*
G37*
G36*
X284040Y594040D02*
X269960D01*
Y581843D01*
X269873Y581405D01*
Y580252D01*
X258213Y568592D01*
X255217Y569188D01*
X255121Y569421D01*
X254772Y569770D01*
Y573960D01*
X257040D01*
Y582730D01*
X250000D01*
X242960D01*
Y573960D01*
X245708D01*
Y570250D01*
X244879Y569421D01*
X243988Y567270D01*
X250000D01*
Y564730D01*
X243988D01*
X244879Y562579D01*
X246579Y560880D01*
X246812Y560783D01*
X247341Y559403D01*
X247512Y557744D01*
X246826Y556717D01*
X246481Y554983D01*
Y545040D01*
X242960D01*
Y524960D01*
X257040D01*
Y545040D01*
X255545D01*
Y553106D01*
X276399Y573960D01*
X284040D01*
Y594040D01*
D02*
G37*
G36*
X525040Y594040D02*
X510960D01*
Y581843D01*
X510873Y581405D01*
Y580252D01*
X499213Y568592D01*
X496217Y569188D01*
X496120Y569421D01*
X495522Y570020D01*
Y573910D01*
X498020D01*
Y582680D01*
X490980D01*
X483940D01*
Y573910D01*
X486458D01*
Y570000D01*
X485880Y569421D01*
X484988Y567270D01*
X491000D01*
Y564730D01*
X484988D01*
X485880Y562579D01*
X487579Y560880D01*
X487812Y560783D01*
X488408Y557787D01*
X487775Y557155D01*
X486793Y555684D01*
X486448Y553950D01*
Y544990D01*
X483940D01*
Y524910D01*
X498020D01*
Y544990D01*
X495512D01*
Y552073D01*
X517399Y573960D01*
X525040D01*
Y594040D01*
D02*
G37*
G36*
X405040D02*
X390960D01*
Y581843D01*
X390873Y581405D01*
Y579252D01*
X379387Y567766D01*
X376510Y568481D01*
X376120Y569421D01*
X375532Y570010D01*
Y573960D01*
X378040D01*
Y582730D01*
X371000D01*
X363960D01*
Y573960D01*
X366468D01*
Y570010D01*
X365880Y569421D01*
X364988Y567270D01*
X371000D01*
Y564730D01*
X364988D01*
X365880Y562579D01*
X367579Y560880D01*
X368519Y560490D01*
X369128Y558960D01*
X369336Y557615D01*
X369335Y557612D01*
X368559Y556451D01*
X368214Y554716D01*
Y545040D01*
X363960D01*
Y524960D01*
X378040D01*
Y545040D01*
X377278D01*
Y552839D01*
X398399Y573960D01*
X405040D01*
Y594040D01*
D02*
G37*
G36*
X465020Y593990D02*
X450940D01*
Y581793D01*
X450853Y581355D01*
Y578232D01*
X439580Y566959D01*
X438668Y567046D01*
X436803Y567774D01*
X436120Y569421D01*
X435532Y570010D01*
Y573960D01*
X438040D01*
Y582730D01*
X431000D01*
X423960D01*
Y573960D01*
X426468D01*
Y570010D01*
X425880Y569421D01*
X424988Y567270D01*
X431000D01*
Y564730D01*
X424988D01*
X425880Y562579D01*
X427579Y560880D01*
X429226Y560197D01*
X429954Y558332D01*
X430041Y557420D01*
X429542Y556921D01*
X428559Y555451D01*
X428214Y553716D01*
Y545040D01*
X423960D01*
Y524960D01*
X438040D01*
Y545040D01*
X437278D01*
Y551839D01*
X458590Y573150D01*
X458590Y573150D01*
X459097Y573910D01*
X465020D01*
Y593990D01*
D02*
G37*
G36*
X557012Y566730D02*
X552270D01*
Y561988D01*
X554421Y562879D01*
X556120Y564579D01*
X557012Y566730D01*
D02*
G37*
G36*
X549730D02*
X544988D01*
X545880Y564579D01*
X547579Y562879D01*
X549730Y561988D01*
Y566730D01*
D02*
G37*
G36*
X97270Y470012D02*
Y465270D01*
X102012D01*
X101121Y467421D01*
X99421Y469120D01*
X97270Y470012D01*
D02*
G37*
G36*
X94730D02*
X92579Y469120D01*
X90879Y467421D01*
X89988Y465270D01*
X94730D01*
Y470012D01*
D02*
G37*
G36*
X558040Y545040D02*
X543960D01*
Y524960D01*
X551631D01*
X564468Y512123D01*
Y467847D01*
X561621Y465000D01*
D01*
X554198Y457577D01*
X553075D01*
X553075Y457577D01*
X552637Y457490D01*
X543440D01*
Y437410D01*
X557520D01*
Y448800D01*
X557809Y448858D01*
X559280Y449840D01*
X572205Y462765D01*
X572205Y462765D01*
X573187Y464236D01*
X573532Y465970D01*
Y465970D01*
Y514000D01*
X573187Y515734D01*
X572205Y517205D01*
X572205Y517205D01*
X558040Y531369D01*
Y545040D01*
D02*
G37*
G36*
X163540Y506540D02*
X149460D01*
Y486460D01*
X151968D01*
Y479377D01*
X130081Y457490D01*
X122440D01*
Y437410D01*
X136520D01*
Y449607D01*
X136607Y450045D01*
X136607Y450045D01*
Y451198D01*
X148465Y463056D01*
X150377Y462676D01*
X151230Y462228D01*
X151777Y461681D01*
Y457540D01*
X149460D01*
Y448770D01*
X156500D01*
X163540D01*
Y457540D01*
X160841D01*
Y462063D01*
X161238Y462461D01*
X162130Y464612D01*
X156118D01*
Y467152D01*
X162130D01*
X161238Y469303D01*
X159539Y471003D01*
X159440Y471044D01*
X158944Y473535D01*
X159705Y474295D01*
X159705Y474295D01*
X160687Y475766D01*
X161032Y477500D01*
X161032Y477500D01*
Y486460D01*
X163540D01*
Y506540D01*
D02*
G37*
G36*
X524520Y506490D02*
X510440D01*
Y486410D01*
X512948D01*
Y477357D01*
X493168Y457577D01*
X493075D01*
X493075Y457577D01*
X492637Y457490D01*
X483440D01*
Y437410D01*
X497520D01*
Y449353D01*
X498250Y449840D01*
X510965Y462556D01*
X512481Y462254D01*
X513517Y461516D01*
Y457490D01*
X510440D01*
Y448720D01*
X517480D01*
X524520D01*
Y457490D01*
X522581D01*
Y460803D01*
X523738Y461961D01*
X524630Y464112D01*
X518618D01*
Y466652D01*
X524630D01*
X523738Y468803D01*
X522209Y470333D01*
X522028Y470563D01*
X521489Y473480D01*
X521667Y473746D01*
X522012Y475480D01*
X522012Y475480D01*
Y486410D01*
X524520D01*
Y506490D01*
D02*
G37*
G36*
X464520D02*
X450440D01*
Y486410D01*
X452935D01*
Y478344D01*
X432081Y457490D01*
X423440D01*
Y437410D01*
X437520D01*
Y450111D01*
X450465Y463056D01*
X452377Y462676D01*
X453230Y462228D01*
X453267Y462191D01*
Y457490D01*
X450440D01*
Y448720D01*
X457480D01*
X464520D01*
Y457490D01*
X462331D01*
Y461553D01*
X463238Y462461D01*
X464130Y464612D01*
X458118D01*
Y467152D01*
X464130D01*
X463238Y469303D01*
X461539Y471003D01*
X461523Y471009D01*
X461116Y473927D01*
X461654Y474733D01*
X461999Y476467D01*
X461999Y476467D01*
Y486410D01*
X464520D01*
Y506490D01*
D02*
G37*
G36*
X404520D02*
X390440D01*
Y486410D01*
X391935D01*
Y478344D01*
X371081Y457490D01*
X363440D01*
Y437410D01*
X377520D01*
Y449607D01*
X377607Y450045D01*
X377607Y450045D01*
Y451198D01*
X389965Y463556D01*
X392312Y463089D01*
X392708Y462706D01*
Y457490D01*
X390440D01*
Y448720D01*
X397480D01*
X404520D01*
Y457490D01*
X401772D01*
Y461994D01*
X402738Y462961D01*
X403630Y465112D01*
X397618D01*
Y467652D01*
X403630D01*
X402738Y469803D01*
X401039Y471502D01*
X400486Y474481D01*
X400654Y474733D01*
X400999Y476467D01*
Y486410D01*
X404520D01*
Y506490D01*
D02*
G37*
G36*
X102012Y462730D02*
X89988D01*
X90879Y460579D01*
X91428Y460030D01*
X91033Y457490D01*
X89440D01*
Y448720D01*
X96480D01*
X103520D01*
Y457490D01*
X100772D01*
Y460230D01*
X101121Y460579D01*
X102012Y462730D01*
D02*
G37*
G36*
X223520Y506490D02*
X209440D01*
Y486410D01*
X210202D01*
Y479611D01*
X188890Y458300D01*
X188383Y457540D01*
X182460D01*
Y437460D01*
X196540D01*
Y449657D01*
X196627Y450095D01*
X196627Y450095D01*
Y453218D01*
X208420Y465011D01*
X210960Y463959D01*
Y462799D01*
X211880Y460579D01*
X212208Y460250D01*
Y457490D01*
X209440D01*
Y448720D01*
X216480D01*
X223520D01*
Y457490D01*
X221996D01*
X221572Y460030D01*
X222120Y460579D01*
X223012Y462730D01*
X217000D01*
Y465270D01*
X223012D01*
X222120Y467421D01*
X220421Y469120D01*
X218201Y470040D01*
X217041D01*
X215989Y472580D01*
X217938Y474529D01*
X217939Y474529D01*
X218921Y475999D01*
X219266Y477734D01*
X219266Y477734D01*
Y486410D01*
X223520D01*
Y506490D01*
D02*
G37*
G36*
X283520D02*
X269440D01*
Y486410D01*
X270202D01*
Y478611D01*
X249081Y457490D01*
X242440D01*
Y437410D01*
X256520D01*
Y449607D01*
X256607Y450045D01*
X256607Y450045D01*
Y452198D01*
X268796Y464386D01*
X271792Y463790D01*
X271880Y463579D01*
X272208Y463250D01*
Y457490D01*
X269440D01*
Y448720D01*
X276480D01*
Y447450D01*
D01*
Y448720D01*
X283520D01*
Y457490D01*
X281272D01*
Y462730D01*
X282120Y463579D01*
X283012Y465730D01*
X277000D01*
Y468270D01*
X283012D01*
X282120Y470421D01*
X280421Y472121D01*
X280132Y472240D01*
X279679Y472779D01*
X278921Y475000D01*
X279266Y476734D01*
X279266Y476734D01*
Y486410D01*
X283520D01*
Y506490D01*
D02*
G37*
G36*
X163540Y446230D02*
X157770D01*
Y437460D01*
X163540D01*
Y446230D01*
D02*
G37*
G36*
X155230D02*
X149460D01*
Y437460D01*
X155230D01*
Y446230D01*
D02*
G37*
G36*
X524520Y446180D02*
X518750D01*
Y437410D01*
X524520D01*
Y446180D01*
D02*
G37*
G36*
X516210D02*
X510440D01*
Y437410D01*
X516210D01*
Y446180D01*
D02*
G37*
G36*
X464520D02*
X458750D01*
Y437410D01*
X464520D01*
Y446180D01*
D02*
G37*
G36*
X456210D02*
X450440D01*
Y437410D01*
X456210D01*
Y446180D01*
D02*
G37*
G36*
X404520D02*
X398750D01*
Y437410D01*
X404520D01*
Y446180D01*
D02*
G37*
G36*
X396210D02*
X390440D01*
Y437410D01*
X396210D01*
Y446180D01*
D02*
G37*
G36*
X344520D02*
X338750D01*
Y437410D01*
X344520D01*
Y446180D01*
D02*
G37*
G36*
X336210D02*
X330440D01*
Y437410D01*
X336210D01*
Y446180D01*
D02*
G37*
G36*
X283520Y446180D02*
X277750D01*
Y437410D01*
X283520D01*
Y446180D01*
D02*
G37*
G36*
X275210D02*
X269440D01*
Y437410D01*
X275210D01*
Y446180D01*
D02*
G37*
G36*
X223520Y446180D02*
X217750D01*
Y437410D01*
X223520D01*
Y446180D01*
D02*
G37*
G36*
X215210D02*
X209440D01*
Y437410D01*
X215210D01*
Y446180D01*
D02*
G37*
G36*
X103520Y446180D02*
X97750D01*
Y437410D01*
X103520D01*
Y446180D01*
D02*
G37*
G36*
X95210D02*
X89440D01*
Y437410D01*
X95210D01*
Y446180D01*
D02*
G37*
G36*
X378080Y424385D02*
X372310D01*
Y415615D01*
X378080D01*
Y424385D01*
D02*
G37*
G36*
X369770D02*
X364000D01*
Y415615D01*
X369770D01*
Y424385D01*
D02*
G37*
G36*
X558080D02*
X552310D01*
Y415615D01*
X558080D01*
Y424385D01*
D02*
G37*
G36*
X438080D02*
X432310D01*
Y415615D01*
X438080D01*
Y424385D01*
D02*
G37*
G36*
X549770D02*
X544000D01*
Y415615D01*
X549770D01*
Y424385D01*
D02*
G37*
G36*
X429770D02*
X424000D01*
Y415615D01*
X429770D01*
Y424385D01*
D02*
G37*
G36*
X137080Y424385D02*
X131310D01*
Y415615D01*
X137080D01*
Y424385D01*
D02*
G37*
G36*
X128770D02*
X123000D01*
Y415615D01*
X128770D01*
Y424385D01*
D02*
G37*
G36*
X317080D02*
X311310D01*
Y415615D01*
X317080D01*
Y424385D01*
D02*
G37*
G36*
X257080D02*
X251310D01*
Y415615D01*
X257080D01*
Y424385D01*
D02*
G37*
G36*
X197080D02*
X191310D01*
Y415615D01*
X197080D01*
Y424385D01*
D02*
G37*
G36*
X308770D02*
X303000D01*
Y415615D01*
X308770D01*
Y424385D01*
D02*
G37*
G36*
X248770D02*
X243000D01*
Y415615D01*
X248770D01*
Y424385D01*
D02*
G37*
G36*
X188770D02*
X183000D01*
Y415615D01*
X188770D01*
Y424385D01*
D02*
G37*
G36*
X498060Y424335D02*
X492290D01*
Y415565D01*
X498060D01*
Y424335D01*
D02*
G37*
G36*
X489750D02*
X483980D01*
Y415565D01*
X489750D01*
Y424335D01*
D02*
G37*
G36*
X598915Y416915D02*
X591270D01*
Y409270D01*
X598915D01*
Y416915D01*
D02*
G37*
G36*
X588730D02*
X581085D01*
Y409270D01*
X588730D01*
Y416915D01*
D02*
G37*
G36*
X103520Y506490D02*
X89440D01*
Y492819D01*
X78795Y482175D01*
X77813Y480704D01*
X77468Y478970D01*
Y433000D01*
X77559Y432540D01*
X76478Y430946D01*
X78026D01*
X78795Y429795D01*
X89913Y418678D01*
Y416940D01*
X90000Y416502D01*
Y404305D01*
X104080D01*
Y424385D01*
X97024D01*
X92810Y428600D01*
X93390Y430000D01*
X91409D01*
X86532Y434877D01*
Y477093D01*
X95849Y486410D01*
X103520D01*
Y506490D01*
D02*
G37*
G36*
X224080Y424385D02*
X210000D01*
Y411684D01*
X200488Y402172D01*
X197546Y402656D01*
X197080Y404305D01*
X197080Y404305D01*
X197080Y404305D01*
Y413075D01*
X190040D01*
X183000D01*
Y404305D01*
X183876D01*
X184468Y403571D01*
X185251Y401765D01*
X184588Y400165D01*
X190600D01*
Y397625D01*
X184588D01*
X185480Y395474D01*
X187179Y393774D01*
X188112Y393388D01*
X188824Y390508D01*
X186849Y388533D01*
X185866Y387062D01*
X185521Y385328D01*
Y375385D01*
X183000D01*
Y355305D01*
X197080D01*
Y375385D01*
X194585D01*
Y383451D01*
X215439Y404305D01*
X224080D01*
Y424385D01*
D02*
G37*
G36*
X164080D02*
X150000D01*
Y412442D01*
X149270Y411955D01*
X149270Y411954D01*
X138124Y400808D01*
X135128Y401404D01*
X135120Y401421D01*
X134812Y401730D01*
Y404305D01*
X137080D01*
Y413075D01*
X130040D01*
X123000D01*
Y404305D01*
X124481D01*
X125223Y401765D01*
X124880Y401421D01*
X123988Y399270D01*
X130000D01*
Y396730D01*
X123988D01*
X124880Y394579D01*
X126579Y392879D01*
X126596Y392872D01*
X127192Y389876D01*
X126835Y389520D01*
X125853Y388049D01*
X125508Y386315D01*
Y375385D01*
X123000D01*
Y355305D01*
X137080D01*
Y375385D01*
X134572D01*
Y384438D01*
X154352Y404218D01*
X154445D01*
X154883Y404305D01*
X164080D01*
Y424385D01*
D02*
G37*
G36*
X525080Y424385D02*
X511000D01*
Y412188D01*
X510913Y411750D01*
Y410597D01*
X500238Y399922D01*
X497596Y400606D01*
X496988Y402084D01*
X498060Y404255D01*
X498060D01*
Y413025D01*
X491020D01*
X483980D01*
Y404255D01*
X484121D01*
X484657Y403696D01*
X485587Y401715D01*
X484988Y400270D01*
X491000D01*
Y397730D01*
X484988D01*
X485880Y395579D01*
X487579Y393880D01*
X489799Y392960D01*
X490736Y390420D01*
X487815Y387500D01*
X486833Y386029D01*
X486488Y384295D01*
Y375335D01*
X483980D01*
Y355255D01*
X498060D01*
Y375335D01*
X495552D01*
Y382418D01*
X517439Y404305D01*
X525080D01*
Y424385D01*
D02*
G37*
G36*
X598915Y406730D02*
X591270D01*
Y399085D01*
X598915D01*
Y406730D01*
D02*
G37*
G36*
X588730D02*
X581085D01*
Y399085D01*
X588730D01*
Y406730D01*
D02*
G37*
G36*
X284080Y424385D02*
X270000D01*
Y412188D01*
X269913Y411750D01*
Y410597D01*
X258387Y399071D01*
X255420Y399697D01*
X255121Y400421D01*
X254812Y400730D01*
Y404305D01*
X257080D01*
Y413075D01*
X250040D01*
X243000D01*
Y404305D01*
X245748D01*
Y401290D01*
X244879Y400421D01*
X243988Y398270D01*
X250000D01*
Y395730D01*
X243988D01*
X244879Y393579D01*
X246579Y391880D01*
X247303Y391580D01*
X247929Y388613D01*
X247848Y388533D01*
X246866Y387062D01*
X246521Y385328D01*
Y375385D01*
X243000D01*
Y355305D01*
X257080D01*
Y375385D01*
X255585D01*
Y383451D01*
X276439Y404305D01*
X284080D01*
Y424385D01*
D02*
G37*
G36*
X558080Y413075D02*
X551040D01*
X544000D01*
Y404305D01*
X546748D01*
Y401290D01*
X545880Y400421D01*
X544988Y398270D01*
X557012D01*
X556120Y400421D01*
X555812Y400730D01*
Y404305D01*
X558080D01*
Y413075D01*
D02*
G37*
G36*
X405080Y424385D02*
X391000D01*
Y412188D01*
X390913Y411750D01*
Y409597D01*
X379562Y398246D01*
X378911Y398234D01*
X376713Y398990D01*
X376120Y400421D01*
X375552Y400990D01*
Y404305D01*
X378080D01*
Y413075D01*
X371040D01*
X364000D01*
Y404305D01*
X366488D01*
Y401030D01*
X365880Y400421D01*
X364988Y398270D01*
X371000D01*
Y395730D01*
X364988D01*
X365880Y393579D01*
X367579Y391880D01*
X369010Y391287D01*
X369766Y389089D01*
X369754Y388438D01*
X369581Y388266D01*
X368599Y386796D01*
X368254Y385061D01*
Y375385D01*
X364000D01*
Y355305D01*
X378080D01*
Y375385D01*
X377318D01*
Y383184D01*
X398439Y404305D01*
X405080D01*
Y424385D01*
D02*
G37*
G36*
X465060Y424335D02*
X450980D01*
Y412138D01*
X450893Y411700D01*
Y408577D01*
X439580Y397264D01*
X437040Y398201D01*
X436120Y400421D01*
X435552Y400990D01*
Y404305D01*
X438080D01*
Y413075D01*
X431040D01*
X424000D01*
Y404305D01*
X426488D01*
Y401030D01*
X425880Y400421D01*
X424988Y398270D01*
X431000D01*
Y395730D01*
X424988D01*
X425880Y393579D01*
X427579Y391880D01*
X429799Y390960D01*
X430736Y388420D01*
X429581Y387266D01*
X428599Y385796D01*
X428254Y384061D01*
Y375385D01*
X424000D01*
Y355305D01*
X438080D01*
Y375385D01*
X437318D01*
Y382184D01*
X458630Y403495D01*
X458630Y403495D01*
X459137Y404255D01*
X465060D01*
Y424335D01*
D02*
G37*
G36*
X557012Y395730D02*
X552270D01*
Y390988D01*
X554421Y391880D01*
X556120Y393579D01*
X557012Y395730D01*
D02*
G37*
G36*
X549730D02*
X544988D01*
X545880Y393579D01*
X547579Y391880D01*
X549730Y390988D01*
Y395730D01*
D02*
G37*
G36*
X97270Y302012D02*
Y297270D01*
X102012D01*
X101121Y299421D01*
X99421Y301120D01*
X97270Y302012D01*
D02*
G37*
G36*
X558080Y375385D02*
X544000D01*
Y355305D01*
X558080D01*
Y355851D01*
X559253Y356337D01*
X571468Y344123D01*
Y305350D01*
X562173Y296056D01*
X554745Y288627D01*
X552595D01*
X552595Y288627D01*
X552157Y288540D01*
X542960D01*
Y276686D01*
X542293Y275687D01*
X541948Y273953D01*
X542293Y272218D01*
X542960Y271220D01*
Y268460D01*
X557040D01*
Y279646D01*
X558357Y279908D01*
X559827Y280890D01*
X561000Y282064D01*
X579205Y300268D01*
X580187Y301738D01*
X580532Y303473D01*
Y346000D01*
X580532Y346000D01*
X580187Y347734D01*
X579205Y349205D01*
X579205Y349205D01*
X564384Y364025D01*
X562228Y366181D01*
D01*
X561714Y366525D01*
D01*
X560757Y367164D01*
X559023Y367509D01*
X558080D01*
Y375385D01*
D02*
G37*
G36*
X163060Y337590D02*
X148980D01*
Y317510D01*
X151488D01*
Y310427D01*
X129601Y288540D01*
X121960D01*
Y268460D01*
X136040D01*
Y280657D01*
X136127Y281095D01*
X136127Y281095D01*
Y282248D01*
X148420Y294541D01*
X150960Y293489D01*
Y293054D01*
X151478Y291803D01*
Y288590D01*
X148980D01*
Y279820D01*
X156020D01*
X163060D01*
Y288590D01*
X163060Y288590D01*
X162243Y291130D01*
X163012Y292985D01*
X157000D01*
Y295525D01*
X163012D01*
X162120Y297676D01*
X160421Y299375D01*
X158201Y300295D01*
X157766D01*
X156714Y302835D01*
X159225Y305345D01*
X159225Y305345D01*
X160207Y306816D01*
X160552Y308550D01*
X160552Y308550D01*
Y317510D01*
X163060D01*
Y337590D01*
D02*
G37*
G36*
X524040Y337540D02*
X509960D01*
Y317460D01*
X512468D01*
Y308407D01*
X492688Y288627D01*
X492595D01*
X492595Y288627D01*
X492157Y288540D01*
X482960D01*
Y268460D01*
X497040D01*
Y280403D01*
X497770Y280890D01*
X507550Y290671D01*
X509957Y290016D01*
X509960Y288540D01*
X509960D01*
Y279770D01*
X517000D01*
X524040D01*
Y288540D01*
X523419D01*
X522655Y289889D01*
X522223Y291080D01*
X523012Y292985D01*
X517000D01*
Y295525D01*
X523012D01*
X522120Y297676D01*
X520421Y299375D01*
X520015Y299544D01*
X519419Y302540D01*
X520205Y303325D01*
X520205Y303325D01*
X521187Y304796D01*
X521532Y306530D01*
X521532Y306530D01*
Y317460D01*
X524040D01*
Y337540D01*
D02*
G37*
G36*
X283040Y337540D02*
X268960D01*
Y317460D01*
X269722D01*
Y309661D01*
X248601Y288540D01*
X241960D01*
Y268460D01*
X256040D01*
Y280657D01*
X256127Y281095D01*
X256127Y281095D01*
Y283248D01*
X267420Y294541D01*
X268581Y294318D01*
X270126Y293654D01*
X270879Y291834D01*
X271468Y291245D01*
Y288540D01*
X268960D01*
Y279770D01*
X276000D01*
X283040D01*
Y288540D01*
X280532D01*
Y291245D01*
X281120Y291834D01*
X282012Y293985D01*
X276000D01*
Y296525D01*
X282012D01*
X281120Y298676D01*
X279421Y300375D01*
X277601Y301129D01*
X276937Y302674D01*
X276714Y303835D01*
X277458Y304579D01*
X277458Y304579D01*
X278441Y306049D01*
X278786Y307784D01*
X278786Y307784D01*
Y317460D01*
X283040D01*
Y337540D01*
D02*
G37*
G36*
X464040Y337540D02*
X449960D01*
Y317460D01*
X452455D01*
Y309394D01*
X431601Y288540D01*
X422960D01*
Y268460D01*
X437040D01*
Y281161D01*
X447507Y291628D01*
X450464Y291077D01*
X449960Y288540D01*
X449960D01*
Y279770D01*
X457000D01*
X464040D01*
Y288540D01*
X463419D01*
X462655Y289889D01*
X462223Y291080D01*
X463012Y292985D01*
X457000D01*
Y295525D01*
X463012D01*
X462120Y297676D01*
X460421Y299375D01*
X459308Y299837D01*
X458521Y302642D01*
X460191Y304312D01*
X460191Y304312D01*
X461174Y305783D01*
X461519Y307517D01*
X461519Y307517D01*
Y317460D01*
X464040D01*
Y337540D01*
D02*
G37*
G36*
X404040D02*
X389960D01*
Y317460D01*
X391455D01*
Y309394D01*
X370601Y288540D01*
X362960D01*
Y268460D01*
X377040D01*
Y280657D01*
X377127Y281095D01*
X377127Y281095D01*
Y282248D01*
X388420Y293541D01*
X389581Y293318D01*
X391125Y292654D01*
X391725Y291206D01*
X391750Y291080D01*
X391505Y290279D01*
X390405Y288540D01*
X389960D01*
Y279770D01*
X397000D01*
X404040D01*
Y288540D01*
X403419D01*
X402655Y289889D01*
X402223Y291080D01*
X403012Y292985D01*
X397000D01*
Y295525D01*
X403012D01*
X402121Y297676D01*
X400421Y299375D01*
X398601Y300130D01*
X397937Y301674D01*
X397714Y302835D01*
X399192Y304312D01*
X400174Y305783D01*
X400519Y307517D01*
Y317460D01*
X404040D01*
Y337540D01*
D02*
G37*
G36*
X223040Y337540D02*
X208960D01*
Y317460D01*
X209722D01*
Y310661D01*
X188410Y289350D01*
X187903Y288590D01*
X181980D01*
Y268510D01*
X196060D01*
Y280707D01*
X196147Y281145D01*
X196147Y281145D01*
Y284268D01*
X207479Y295600D01*
X209960Y294489D01*
Y293054D01*
X210777Y291080D01*
X210345Y289889D01*
X209581Y288540D01*
X208960D01*
Y279770D01*
X216000D01*
X223040D01*
Y288540D01*
X222419D01*
X221655Y289889D01*
X221222Y291080D01*
X222012Y292985D01*
X216000D01*
Y295525D01*
X222012D01*
X221120Y297676D01*
X219421Y299375D01*
X217201Y300295D01*
X215766D01*
X214655Y302775D01*
X217458Y305579D01*
X217458Y305579D01*
X218441Y307050D01*
X218786Y308784D01*
X218786Y308784D01*
Y317460D01*
X223040D01*
Y337540D01*
D02*
G37*
G36*
X163060Y277280D02*
X157290D01*
Y268510D01*
X163060D01*
Y277280D01*
D02*
G37*
G36*
X154750D02*
X148980D01*
Y268510D01*
X154750D01*
Y277280D01*
D02*
G37*
G36*
X524040Y277230D02*
X518270D01*
Y268460D01*
X524040D01*
Y277230D01*
D02*
G37*
G36*
X515730D02*
X509960D01*
Y268460D01*
X515730D01*
Y277230D01*
D02*
G37*
G36*
X464040Y277230D02*
X458270D01*
Y268460D01*
X464040D01*
Y277230D01*
D02*
G37*
G36*
X455730D02*
X449960D01*
Y268460D01*
X455730D01*
Y277230D01*
D02*
G37*
G36*
X404040D02*
X398270D01*
Y268460D01*
X404040D01*
Y277230D01*
D02*
G37*
G36*
X395730D02*
X389960D01*
Y268460D01*
X395730D01*
Y277230D01*
D02*
G37*
G36*
X344040D02*
X338270D01*
Y268460D01*
X344040D01*
Y277230D01*
D02*
G37*
G36*
X335730D02*
X329960D01*
Y268460D01*
X335730D01*
Y277230D01*
D02*
G37*
G36*
X283040D02*
X277270D01*
Y268460D01*
X283040D01*
Y277230D01*
D02*
G37*
G36*
X274730D02*
X268960D01*
Y268460D01*
X274730D01*
Y277230D01*
D02*
G37*
G36*
X223040Y277230D02*
X217270D01*
Y268460D01*
X223040D01*
Y277230D01*
D02*
G37*
G36*
X214730D02*
X208960D01*
Y268460D01*
X214730D01*
Y277230D01*
D02*
G37*
G36*
X103040D02*
X97270D01*
Y268460D01*
X103040D01*
Y277230D01*
D02*
G37*
G36*
X558560Y254845D02*
X552790D01*
Y246075D01*
X558560D01*
Y254845D01*
D02*
G37*
G36*
X550250D02*
X544480D01*
Y246075D01*
X550250D01*
Y254845D01*
D02*
G37*
G36*
X378560D02*
X372790D01*
Y246075D01*
X378560D01*
Y254845D01*
D02*
G37*
G36*
X137560Y254845D02*
X131790D01*
Y246075D01*
X137560D01*
Y254845D01*
D02*
G37*
G36*
X317560D02*
X311790D01*
Y246075D01*
X317560D01*
Y254845D01*
D02*
G37*
G36*
X257560D02*
X251790D01*
Y246075D01*
X257560D01*
Y254845D01*
D02*
G37*
G36*
X197560D02*
X191790D01*
Y246075D01*
X197560D01*
Y254845D01*
D02*
G37*
G36*
X370250Y254845D02*
X364480D01*
Y246075D01*
X370250D01*
Y254845D01*
D02*
G37*
G36*
X309250Y254845D02*
X303480D01*
Y246075D01*
X309250D01*
Y254845D01*
D02*
G37*
G36*
X249250D02*
X243480D01*
Y246075D01*
X249250D01*
Y254845D01*
D02*
G37*
G36*
X189250D02*
X183480D01*
Y246075D01*
X189250D01*
Y254845D01*
D02*
G37*
G36*
X129250D02*
X123480D01*
Y246075D01*
X129250D01*
Y254845D01*
D02*
G37*
G36*
X438560Y254845D02*
X432790D01*
Y246075D01*
X438560D01*
Y254845D01*
D02*
G37*
G36*
X430250D02*
X424480D01*
Y246075D01*
X430250D01*
Y254845D01*
D02*
G37*
G36*
X498540Y254795D02*
X492770D01*
Y246025D01*
X498540D01*
Y254795D01*
D02*
G37*
G36*
X490230D02*
X484460D01*
Y246025D01*
X490230D01*
Y254795D01*
D02*
G37*
G36*
X103040Y337540D02*
X88960D01*
Y323869D01*
X81795Y316705D01*
X80813Y315234D01*
X80468Y313500D01*
Y262000D01*
Y252232D01*
X80813Y250497D01*
X81795Y249027D01*
X84027Y246795D01*
X85498Y245813D01*
X87232Y245468D01*
X90480D01*
Y234765D01*
X104560D01*
Y254845D01*
X90480D01*
X89532Y256992D01*
Y262000D01*
Y268460D01*
X94730D01*
Y278500D01*
X96000D01*
Y279770D01*
X103040D01*
Y288540D01*
X100292D01*
Y291750D01*
X101121Y292579D01*
X102012Y294730D01*
X96000D01*
Y296000D01*
X94730D01*
Y302012D01*
X92579Y301120D01*
X92072Y300614D01*
X89532Y301666D01*
Y311623D01*
X95369Y317460D01*
X103040D01*
Y337540D01*
D02*
G37*
G36*
X164560Y254845D02*
X150480D01*
Y242902D01*
X149750Y242415D01*
X149750Y242415D01*
X137832Y230496D01*
X135292Y231549D01*
Y234765D01*
X137560D01*
Y243535D01*
X130520D01*
X123480D01*
Y234765D01*
X126228D01*
Y232029D01*
X125833Y231866D01*
X124134Y230167D01*
X123243Y228015D01*
X129255D01*
Y225476D01*
X123243D01*
X124134Y223324D01*
X125601Y221857D01*
X125839Y221597D01*
X126416Y218634D01*
X126333Y218509D01*
X125988Y216775D01*
Y205845D01*
X123480D01*
Y185765D01*
X137560D01*
Y205845D01*
X135052D01*
Y214898D01*
X154832Y234678D01*
X154925D01*
X155363Y234765D01*
X164560D01*
Y254845D01*
D02*
G37*
G36*
X224560D02*
X210480D01*
Y242144D01*
X198407Y230072D01*
X195916Y230567D01*
X195875Y230667D01*
X195169Y231373D01*
Y234765D01*
X197560D01*
Y243535D01*
X190520D01*
X183480D01*
Y234765D01*
X186105D01*
Y231138D01*
X185634Y230667D01*
X184743Y228515D01*
X190755D01*
Y225975D01*
X184743D01*
X185634Y223824D01*
X187101Y222357D01*
X187548Y221504D01*
X187928Y219593D01*
X187328Y218993D01*
X186346Y217523D01*
X186001Y215788D01*
Y205845D01*
X183480D01*
Y185765D01*
X197560D01*
Y205845D01*
X195065D01*
Y213911D01*
X215919Y234765D01*
X224560D01*
Y254845D01*
D02*
G37*
G36*
X284560D02*
X270480D01*
Y242648D01*
X270393Y242210D01*
Y241057D01*
X259130Y229794D01*
X256133Y230390D01*
X256120Y230421D01*
X255292Y231250D01*
Y234765D01*
X257560D01*
Y243535D01*
X250520D01*
X243480D01*
Y234765D01*
X246228D01*
Y230770D01*
X245879Y230421D01*
X244988Y228270D01*
X251000D01*
Y225730D01*
X244988D01*
X245879Y223579D01*
X247579Y221880D01*
X247610Y221866D01*
X248314Y219049D01*
X248238Y218857D01*
X247346Y217523D01*
X247001Y215788D01*
Y205845D01*
X243480D01*
Y185765D01*
X257560D01*
Y205845D01*
X256065D01*
Y213911D01*
X276919Y234765D01*
X284560D01*
Y254845D01*
D02*
G37*
G36*
X525560Y254845D02*
X511480D01*
Y242648D01*
X511393Y242210D01*
Y241057D01*
X500130Y229794D01*
X497133Y230390D01*
X497121Y230421D01*
X496282Y231260D01*
Y234715D01*
X498540D01*
Y243485D01*
X491500D01*
X484460D01*
Y234715D01*
X487218D01*
Y230760D01*
X486880Y230421D01*
X485988Y228270D01*
X492000D01*
Y225730D01*
X485988D01*
X486880Y223579D01*
X488579Y221880D01*
X488610Y221866D01*
X489206Y218870D01*
X488295Y217960D01*
X487313Y216489D01*
X486968Y214755D01*
Y205795D01*
X484460D01*
Y185715D01*
X498540D01*
Y205795D01*
X496032D01*
Y212878D01*
X517919Y234765D01*
X525560D01*
Y254845D01*
D02*
G37*
G36*
X465540Y254795D02*
X451460D01*
Y242598D01*
X451373Y242160D01*
Y239037D01*
X440567Y228232D01*
X439889Y228224D01*
X437719Y228976D01*
X437121Y230421D01*
X436292Y231250D01*
Y234765D01*
X438560D01*
Y243535D01*
X431520D01*
X424480D01*
Y234765D01*
X427228D01*
Y230770D01*
X426880Y230421D01*
X425988Y228270D01*
X432000D01*
Y225730D01*
X425988D01*
X426880Y223579D01*
X428579Y221880D01*
X430024Y221281D01*
X430776Y219111D01*
X430768Y218433D01*
X430061Y217726D01*
X429079Y216255D01*
X428734Y214521D01*
Y205845D01*
X424480D01*
Y185765D01*
X438560D01*
Y205845D01*
X437798D01*
Y212644D01*
X459110Y233955D01*
X459110Y233955D01*
X459617Y234715D01*
X465540D01*
Y254795D01*
D02*
G37*
G36*
X405560Y254845D02*
X391480D01*
Y242648D01*
X391393Y242210D01*
Y240057D01*
X379387Y228051D01*
X376426Y228683D01*
X376120Y229421D01*
X375792Y229750D01*
Y234765D01*
X378560D01*
Y243535D01*
X371520D01*
X364480D01*
Y234765D01*
X366728D01*
Y230270D01*
X365880Y229421D01*
X364988Y227270D01*
X371000D01*
Y224730D01*
X364988D01*
X365880Y222579D01*
X367579Y220879D01*
X368317Y220574D01*
X368540Y220337D01*
X369318Y217613D01*
X369079Y217255D01*
X368734Y215521D01*
Y205845D01*
X364480D01*
Y185765D01*
X378560D01*
Y205845D01*
X377798D01*
Y213644D01*
X398919Y234765D01*
X405560D01*
Y254845D01*
D02*
G37*
G36*
X558560Y243535D02*
X551520D01*
X544480D01*
Y234765D01*
X547228D01*
Y228770D01*
X546880Y228421D01*
X545988Y226270D01*
X558012D01*
X557121Y228421D01*
X556292Y229250D01*
Y234765D01*
X558560D01*
Y243535D01*
D02*
G37*
G36*
X558012Y223730D02*
X553270D01*
Y218988D01*
X555421Y219879D01*
X557121Y221579D01*
X558012Y223730D01*
D02*
G37*
G36*
X550730D02*
X545988D01*
X546880Y221579D01*
X548579Y219879D01*
X550730Y218988D01*
Y223730D01*
D02*
G37*
G36*
X98270Y132012D02*
Y127270D01*
X103012D01*
X102121Y129421D01*
X100421Y131121D01*
X98270Y132012D01*
D02*
G37*
G36*
X95730D02*
X93579Y131121D01*
X91880Y129421D01*
X90988Y127270D01*
X95730D01*
Y132012D01*
D02*
G37*
G36*
X163540Y168540D02*
X149460D01*
Y148460D01*
X151968D01*
Y141377D01*
X130081Y119490D01*
X122440D01*
Y99410D01*
X136520D01*
Y111607D01*
X136607Y112045D01*
X136607Y112045D01*
Y113198D01*
X148796Y125386D01*
X151792Y124790D01*
X151880Y124579D01*
X152218Y124240D01*
Y119540D01*
X149460D01*
Y110770D01*
X156500D01*
X163540D01*
Y119540D01*
X161282D01*
Y123740D01*
X162120Y124579D01*
X163012Y126730D01*
X157000D01*
Y129270D01*
X163012D01*
X162120Y131421D01*
X160421Y133120D01*
X160210Y133208D01*
X159614Y136204D01*
X159705Y136295D01*
X159705Y136295D01*
X160687Y137766D01*
X161032Y139500D01*
X161032Y139500D01*
Y148460D01*
X163540D01*
Y168540D01*
D02*
G37*
G36*
X524520Y168490D02*
X510440D01*
Y148410D01*
X512948D01*
Y139357D01*
X493168Y119577D01*
X493075D01*
X493075Y119577D01*
X492637Y119490D01*
X483440D01*
Y99410D01*
X497520D01*
Y111353D01*
X498250Y111840D01*
X510228Y123818D01*
X511051Y123672D01*
X512708Y122706D01*
Y119490D01*
X510440D01*
Y110720D01*
X517480D01*
X524520D01*
Y119490D01*
X522572D01*
X521941Y122030D01*
X522195Y122410D01*
X522196Y122419D01*
X523738Y123961D01*
X524630Y126112D01*
X518618D01*
Y128652D01*
X524630D01*
X523738Y130803D01*
X522209Y132333D01*
X522028Y132563D01*
X521489Y135480D01*
X521667Y135746D01*
X522012Y137480D01*
X522012Y137480D01*
Y148410D01*
X524520D01*
Y168490D01*
D02*
G37*
G36*
X464520D02*
X450440D01*
Y148410D01*
X452935D01*
Y140344D01*
X432081Y119490D01*
X423440D01*
Y99410D01*
X437520D01*
Y112111D01*
X448796Y123386D01*
X451792Y122790D01*
X451880Y122579D01*
X452428Y122030D01*
X452033Y119490D01*
X450440D01*
Y110720D01*
X457480D01*
X464520D01*
Y119490D01*
X461772D01*
Y122230D01*
X462121Y122579D01*
X463012Y124730D01*
X457000D01*
Y127270D01*
X463012D01*
X462121Y129421D01*
X460421Y131121D01*
X460210Y131208D01*
X459614Y134204D01*
X460672Y135262D01*
X460672Y135262D01*
X461654Y136733D01*
X461999Y138467D01*
X461999Y138467D01*
Y148410D01*
X464520D01*
Y168490D01*
D02*
G37*
G36*
X404520D02*
X390440D01*
Y148410D01*
X391935D01*
Y140344D01*
X371081Y119490D01*
X363440D01*
Y99410D01*
X377520D01*
Y111607D01*
X377607Y112045D01*
X377607Y112045D01*
Y113198D01*
X389796Y125386D01*
X392275Y125051D01*
X392708Y124706D01*
Y119490D01*
X390440D01*
Y110720D01*
X397480D01*
X404520D01*
Y119490D01*
X401772D01*
Y123230D01*
X403120Y124579D01*
X404012Y126730D01*
X398000D01*
Y129270D01*
X404012D01*
X403120Y131421D01*
X401421Y133120D01*
X401210Y133208D01*
X400910Y133609D01*
X400369Y136306D01*
X400654Y136733D01*
X400999Y138467D01*
Y148410D01*
X404520D01*
Y168490D01*
D02*
G37*
G36*
X103012Y124730D02*
X90988D01*
X91880Y122579D01*
X92208Y122250D01*
Y119490D01*
X89440D01*
Y110720D01*
X96480D01*
X103520D01*
Y119490D01*
X101995D01*
X101572Y122030D01*
X102121Y122579D01*
X103012Y124730D01*
D02*
G37*
G36*
X283520Y168490D02*
X269440D01*
Y148410D01*
X270202D01*
Y140611D01*
X249081Y119490D01*
X242440D01*
Y99410D01*
X256520D01*
Y111607D01*
X256607Y112045D01*
X256607Y112045D01*
Y114198D01*
X268613Y126204D01*
X271499Y125498D01*
X271880Y124579D01*
X272208Y124250D01*
Y119490D01*
X269440D01*
Y110720D01*
X276480D01*
X283520D01*
Y119490D01*
X281272D01*
Y123730D01*
X282120Y124579D01*
X283012Y126730D01*
X277000D01*
Y129270D01*
X283012D01*
X282120Y131421D01*
X280421Y133120D01*
X279503Y133501D01*
X279162Y133943D01*
X278568Y135826D01*
X278522Y136278D01*
X278545Y136438D01*
X278921Y137000D01*
X279266Y138734D01*
X279266Y138734D01*
Y148410D01*
X283520D01*
Y168490D01*
D02*
G37*
G36*
X223520D02*
X209440D01*
Y148410D01*
X210202D01*
Y141611D01*
X188890Y120300D01*
X188383Y119540D01*
X182460D01*
Y99460D01*
X196540D01*
Y111657D01*
X196627Y112095D01*
X196627Y112095D01*
Y115218D01*
X207796Y126386D01*
X210792Y125790D01*
X210879Y125579D01*
X211708Y124750D01*
Y119490D01*
X209440D01*
Y110720D01*
X216480D01*
X223520D01*
Y119490D01*
X220772D01*
Y125230D01*
X221120Y125579D01*
X222012Y127730D01*
X216000D01*
Y130270D01*
X222012D01*
X221120Y132421D01*
X219421Y134121D01*
X219210Y134208D01*
X218788Y134977D01*
X218430Y137264D01*
X218921Y137999D01*
X219266Y139734D01*
X219266Y139734D01*
Y148410D01*
X223520D01*
Y168490D01*
D02*
G37*
G36*
X163540Y108230D02*
X157770D01*
Y99460D01*
X163540D01*
Y108230D01*
D02*
G37*
G36*
X155230D02*
X149460D01*
Y99460D01*
X155230D01*
Y108230D01*
D02*
G37*
G36*
X524520Y108180D02*
X518750D01*
Y99410D01*
X524520D01*
Y108180D01*
D02*
G37*
G36*
X516210D02*
X510440D01*
Y99410D01*
X516210D01*
Y108180D01*
D02*
G37*
G36*
X464520D02*
X458750D01*
Y99410D01*
X464520D01*
Y108180D01*
D02*
G37*
G36*
X456210D02*
X450440D01*
Y99410D01*
X456210D01*
Y108180D01*
D02*
G37*
G36*
X404520D02*
X398750D01*
Y99410D01*
X404520D01*
Y108180D01*
D02*
G37*
G36*
X396210D02*
X390440D01*
Y99410D01*
X396210D01*
Y108180D01*
D02*
G37*
G36*
X344520D02*
X338750D01*
Y99410D01*
X344520D01*
Y108180D01*
D02*
G37*
G36*
X336210D02*
X330440D01*
Y99410D01*
X336210D01*
Y108180D01*
D02*
G37*
G36*
X283520Y108180D02*
X277750D01*
Y99410D01*
X283520D01*
Y108180D01*
D02*
G37*
G36*
X275210D02*
X269440D01*
Y99410D01*
X275210D01*
Y108180D01*
D02*
G37*
G36*
X223520Y108180D02*
X217750D01*
Y99410D01*
X223520D01*
Y108180D01*
D02*
G37*
G36*
X215210D02*
X209440D01*
Y99410D01*
X215210D01*
Y108180D01*
D02*
G37*
G36*
X103520Y108180D02*
X97750D01*
Y99410D01*
X103520D01*
Y108180D01*
D02*
G37*
G36*
X95210D02*
X89440D01*
Y99410D01*
X95210D01*
Y108180D01*
D02*
G37*
G36*
X379560Y86590D02*
X373790D01*
Y77820D01*
X379560D01*
Y86590D01*
D02*
G37*
G36*
X371250D02*
X365480D01*
Y77820D01*
X371250D01*
Y86590D01*
D02*
G37*
G36*
X559560D02*
X553790D01*
Y77820D01*
X559560D01*
Y86590D01*
D02*
G37*
G36*
X439560D02*
X433790D01*
Y77820D01*
X439560D01*
Y86590D01*
D02*
G37*
G36*
X551250D02*
X545480D01*
Y77820D01*
X551250D01*
Y86590D01*
D02*
G37*
G36*
X431250D02*
X425480D01*
Y77820D01*
X431250D01*
Y86590D01*
D02*
G37*
G36*
X138560Y86590D02*
X132790D01*
Y77820D01*
X138560D01*
Y86590D01*
D02*
G37*
G36*
X130250D02*
X124480D01*
Y77820D01*
X130250D01*
Y86590D01*
D02*
G37*
G36*
X318560D02*
X312790D01*
Y77820D01*
X318560D01*
Y86590D01*
D02*
G37*
G36*
X258560D02*
X252790D01*
Y77820D01*
X258560D01*
Y86590D01*
D02*
G37*
G36*
X198560D02*
X192790D01*
Y77820D01*
X198560D01*
Y86590D01*
D02*
G37*
G36*
X310250D02*
X304480D01*
Y77820D01*
X310250D01*
Y86590D01*
D02*
G37*
G36*
X250250D02*
X244480D01*
Y77820D01*
X250250D01*
Y86590D01*
D02*
G37*
G36*
X190250D02*
X184480D01*
Y77820D01*
X190250D01*
Y86590D01*
D02*
G37*
G36*
X499540Y86540D02*
X493770D01*
Y77770D01*
X499540D01*
Y86540D01*
D02*
G37*
G36*
X491230D02*
X485460D01*
Y77770D01*
X491230D01*
Y86540D01*
D02*
G37*
G36*
X103520Y168490D02*
X89440D01*
Y154819D01*
X78795Y144175D01*
X77813Y142704D01*
X77468Y140970D01*
Y96070D01*
X77813Y94336D01*
X78344Y93540D01*
X77729Y91946D01*
X79714D01*
X91480Y80181D01*
Y66510D01*
X105560D01*
Y86590D01*
X97889D01*
X94880Y89600D01*
X95460Y91000D01*
X93479D01*
X86532Y97947D01*
Y139093D01*
X95849Y148410D01*
X103520D01*
Y168490D01*
D02*
G37*
G36*
X165560Y86590D02*
X151480D01*
Y74647D01*
X150750Y74160D01*
X150750Y74159D01*
X139535Y62944D01*
X137044Y63440D01*
X137002Y63539D01*
X136572Y63970D01*
X137051Y66510D01*
X138560D01*
Y75280D01*
X131520D01*
X124480D01*
Y66510D01*
X127169D01*
Y63947D01*
X126762Y63539D01*
X125871Y61388D01*
X131882D01*
Y58848D01*
X125871D01*
X126762Y56697D01*
X128228Y55230D01*
X128675Y54377D01*
X129056Y52465D01*
X128315Y51725D01*
X127333Y50254D01*
X126988Y48520D01*
Y37590D01*
X124480D01*
Y17510D01*
X138560D01*
Y37590D01*
X136052D01*
Y46643D01*
X155832Y66423D01*
X155925D01*
X156363Y66510D01*
X165560D01*
Y86590D01*
D02*
G37*
G36*
X225560D02*
X211480D01*
Y73889D01*
X200204Y62614D01*
X197208Y63210D01*
X197120Y63421D01*
X196572Y63970D01*
X196968Y66510D01*
X198560D01*
Y75280D01*
X191520D01*
X184480D01*
Y66510D01*
X187228D01*
Y63770D01*
X186880Y63421D01*
X185988Y61270D01*
X192000D01*
Y58730D01*
X185988D01*
X186880Y56579D01*
X188579Y54879D01*
X188790Y54792D01*
X189386Y51796D01*
X188328Y50738D01*
X187346Y49268D01*
X187001Y47533D01*
Y37590D01*
X184480D01*
Y17510D01*
X198560D01*
Y37590D01*
X196065D01*
Y45656D01*
X216919Y66510D01*
X225560D01*
Y86590D01*
D02*
G37*
G36*
X559560Y75280D02*
X552520D01*
X545480D01*
Y66510D01*
X546376D01*
X547013Y65626D01*
X547693Y63970D01*
X546988Y62270D01*
X559012D01*
X558307Y63970D01*
X558484Y64400D01*
X559560Y66510D01*
X559560Y66510D01*
X559560Y66510D01*
Y75280D01*
D02*
G37*
G36*
X285560Y86590D02*
X271480D01*
Y74393D01*
X271393Y73955D01*
Y72802D01*
X260204Y61614D01*
X257208Y62210D01*
X257120Y62421D01*
X256292Y63250D01*
Y66510D01*
X258560D01*
Y75280D01*
X251520D01*
X244480D01*
Y66510D01*
X247228D01*
Y62770D01*
X246880Y62421D01*
X245988Y60270D01*
X252000D01*
Y57730D01*
X245988D01*
X246880Y55579D01*
X248579Y53879D01*
X248790Y53792D01*
X249386Y50796D01*
X249328Y50738D01*
X248346Y49268D01*
X248001Y47533D01*
Y37590D01*
X244480D01*
Y17510D01*
X258560D01*
Y37590D01*
X257065D01*
Y45656D01*
X277919Y66510D01*
X285560D01*
Y86590D01*
D02*
G37*
G36*
X526560Y86590D02*
X512480D01*
Y74393D01*
X512393Y73955D01*
Y72802D01*
X500387Y60796D01*
X497501Y61502D01*
X497121Y62421D01*
X496782Y62760D01*
Y66460D01*
X499540D01*
Y75230D01*
X492500D01*
X485460D01*
Y66460D01*
X487718D01*
Y63260D01*
X486880Y62421D01*
X485988Y60270D01*
X492000D01*
Y57730D01*
X485988D01*
X486880Y55579D01*
X488579Y53879D01*
X489497Y53499D01*
X490204Y50613D01*
X489295Y49705D01*
X488313Y48234D01*
X487968Y46500D01*
Y37540D01*
X485460D01*
Y17460D01*
X499540D01*
Y37540D01*
X497032D01*
Y44623D01*
X518919Y66510D01*
X526560D01*
Y86590D01*
D02*
G37*
G36*
X406560D02*
X392480D01*
Y74393D01*
X392393Y73955D01*
Y71802D01*
X381204Y60614D01*
X378208Y61210D01*
X378120Y61421D01*
X377292Y62250D01*
Y66510D01*
X379560D01*
Y75280D01*
X372520D01*
X365480D01*
Y66510D01*
X368228D01*
Y61770D01*
X367879Y61421D01*
X366988Y59270D01*
X373000D01*
Y56730D01*
X366988D01*
X367879Y54579D01*
X369579Y52880D01*
X369790Y52792D01*
X370209Y52028D01*
X370562Y49723D01*
X370079Y49001D01*
X369734Y47266D01*
Y37590D01*
X365480D01*
Y17510D01*
X379560D01*
Y37590D01*
X378798D01*
Y45389D01*
X399919Y66510D01*
X406560D01*
Y86590D01*
D02*
G37*
G36*
X466540Y86540D02*
X452460D01*
Y74343D01*
X452373Y73905D01*
Y70782D01*
X441387Y59796D01*
X438501Y60503D01*
X438120Y61421D01*
X437292Y62250D01*
Y66510D01*
X439560D01*
Y75280D01*
X432520D01*
X425480D01*
Y66510D01*
X428228D01*
Y61770D01*
X427879Y61421D01*
X426988Y59270D01*
X433000D01*
Y56730D01*
X426988D01*
X427879Y54579D01*
X429579Y52880D01*
X430498Y52499D01*
X431204Y49613D01*
X431062Y49471D01*
X430079Y48000D01*
X429734Y46266D01*
Y37590D01*
X425480D01*
Y17510D01*
X439560D01*
Y37590D01*
X438798D01*
Y44389D01*
X460110Y65700D01*
X460110Y65700D01*
X460617Y66460D01*
X466540D01*
Y86540D01*
D02*
G37*
G36*
X559012Y59730D02*
X554270D01*
Y54988D01*
X556421Y55880D01*
X558120Y57579D01*
X559012Y59730D01*
D02*
G37*
G36*
X551730D02*
X546988D01*
X547879Y57579D01*
X549579Y55880D01*
X551730Y54988D01*
Y59730D01*
D02*
G37*
G36*
X559560Y37590D02*
X545480D01*
Y17510D01*
X559560D01*
Y37590D01*
D02*
G37*
%LPD*%
D18*
X250000Y535000D02*
D03*
X217000D02*
D03*
Y584000D02*
D03*
X250000D02*
D03*
X190000Y535000D02*
D03*
X489000Y666000D02*
D03*
X549000D02*
D03*
X550480Y496450D02*
D03*
X518000Y535000D02*
D03*
X490480Y496450D02*
D03*
X457980Y534950D02*
D03*
X550000Y327500D02*
D03*
X518040Y365345D02*
D03*
X490000Y327500D02*
D03*
X458020Y365295D02*
D03*
X429000Y666000D02*
D03*
X430480Y496450D02*
D03*
X398000Y535000D02*
D03*
X369000Y666000D02*
D03*
X370480Y496450D02*
D03*
X338000Y535000D02*
D03*
X430000Y327500D02*
D03*
X398040Y365345D02*
D03*
X370000Y327500D02*
D03*
X338040Y365345D02*
D03*
X550480Y158450D02*
D03*
X518520Y195805D02*
D03*
X490480Y158450D02*
D03*
X458500Y195755D02*
D03*
X519520Y27550D02*
D03*
X459500Y27500D02*
D03*
X430480Y158450D02*
D03*
X398520Y195805D02*
D03*
X370480Y158450D02*
D03*
X338520Y195805D02*
D03*
X399520Y27550D02*
D03*
X339520D02*
D03*
X308000Y666000D02*
D03*
X248000D02*
D03*
X309480Y496450D02*
D03*
X277000Y535000D02*
D03*
X188020Y666050D02*
D03*
X249480Y496450D02*
D03*
X189500Y496500D02*
D03*
X277040Y365345D02*
D03*
X309000Y327500D02*
D03*
X249000D02*
D03*
X217040Y365345D02*
D03*
X189020Y327550D02*
D03*
X157000Y535000D02*
D03*
X128000Y666000D02*
D03*
X97000Y535000D02*
D03*
X129480Y496450D02*
D03*
X157040Y365345D02*
D03*
X129000Y327500D02*
D03*
X97040Y365345D02*
D03*
X309480Y158450D02*
D03*
X277520Y195805D02*
D03*
X249480Y158450D02*
D03*
X217520Y195805D02*
D03*
X189500Y158500D02*
D03*
X278520Y27550D02*
D03*
X218520D02*
D03*
X157520Y195805D02*
D03*
X97520D02*
D03*
X129480Y158450D02*
D03*
X158520Y27550D02*
D03*
X98520D02*
D03*
X277000Y584000D02*
D03*
X456000Y617000D02*
D03*
X551000Y584000D02*
D03*
X516000Y617000D02*
D03*
X490980Y583950D02*
D03*
X431000Y584000D02*
D03*
X551040Y414345D02*
D03*
X517480Y447450D02*
D03*
X457480D02*
D03*
X491020Y414295D02*
D03*
X431040Y414345D02*
D03*
X396000Y617000D02*
D03*
X371000Y584000D02*
D03*
X336000Y617000D02*
D03*
X337480Y447450D02*
D03*
X397480D02*
D03*
X371040Y414345D02*
D03*
X551520Y244805D02*
D03*
X517000Y278500D02*
D03*
X457000D02*
D03*
X431520Y244805D02*
D03*
X491500Y244755D02*
D03*
X552520Y76550D02*
D03*
X517480Y109450D02*
D03*
X457480D02*
D03*
X432520Y76550D02*
D03*
X492500Y76500D02*
D03*
X397000Y278500D02*
D03*
X337000D02*
D03*
X371520Y244805D02*
D03*
X337480Y109450D02*
D03*
X397480D02*
D03*
X372520Y76550D02*
D03*
X275000Y617000D02*
D03*
X310000Y584000D02*
D03*
X215000Y617000D02*
D03*
X310040Y414345D02*
D03*
X276480Y447450D02*
D03*
X250040Y414345D02*
D03*
X216480Y447450D02*
D03*
X190000Y584000D02*
D03*
X155020Y617050D02*
D03*
X130000Y584000D02*
D03*
X95000Y617000D02*
D03*
X190040Y414345D02*
D03*
X156500Y447500D02*
D03*
X96480Y447450D02*
D03*
X130040Y414345D02*
D03*
X310520Y244805D02*
D03*
X276000Y278500D02*
D03*
X250520Y244805D02*
D03*
X216000Y278500D02*
D03*
X311520Y76550D02*
D03*
X276480Y109450D02*
D03*
X251520Y76550D02*
D03*
X216480Y109450D02*
D03*
X156020Y278550D02*
D03*
X190520Y244805D02*
D03*
X96000Y278500D02*
D03*
X130520Y244805D02*
D03*
X191520Y76550D02*
D03*
X156500Y109500D02*
D03*
X96480Y109450D02*
D03*
X131520Y76550D02*
D03*
X518040Y414345D02*
D03*
X551040Y365345D02*
D03*
X550000Y278500D02*
D03*
X491020Y365295D02*
D03*
X398040Y414345D02*
D03*
X431040Y365345D02*
D03*
X490000Y278500D02*
D03*
X457000Y327500D02*
D03*
X517000D02*
D03*
X310040Y365345D02*
D03*
X277040Y414345D02*
D03*
X338040Y414345D02*
D03*
X371040Y365345D02*
D03*
X188020Y617050D02*
D03*
X155020Y666050D02*
D03*
X129480Y447450D02*
D03*
X96480Y496450D02*
D03*
X130000Y535000D02*
D03*
X97000Y584000D02*
D03*
X189500Y447500D02*
D03*
X156500Y496500D02*
D03*
X157000Y584000D02*
D03*
X249480Y447450D02*
D03*
X216480Y496450D02*
D03*
X309480Y447450D02*
D03*
X276480Y496450D02*
D03*
X310000Y535000D02*
D03*
X128000Y617000D02*
D03*
X95000Y666000D02*
D03*
X248000Y617000D02*
D03*
X215000Y666000D02*
D03*
X308000Y617000D02*
D03*
X275000Y666000D02*
D03*
X370480Y447450D02*
D03*
X337480Y496450D02*
D03*
X430480Y447450D02*
D03*
X397480Y496450D02*
D03*
X338000Y584000D02*
D03*
X371000Y535000D02*
D03*
X369000Y617000D02*
D03*
X336000Y666000D02*
D03*
X398000Y584000D02*
D03*
X431000Y535000D02*
D03*
X396000Y666000D02*
D03*
X429000Y617000D02*
D03*
X489000D02*
D03*
X456000Y666000D02*
D03*
X490480Y447450D02*
D03*
X457480Y496450D02*
D03*
X517480D02*
D03*
X550480Y447450D02*
D03*
X490980Y534950D02*
D03*
X457980Y583950D02*
D03*
X551000Y535000D02*
D03*
X518000Y584000D02*
D03*
X549000Y617000D02*
D03*
X516000Y666000D02*
D03*
X249000Y278500D02*
D03*
X216000Y327500D02*
D03*
X309000Y278500D02*
D03*
X276000Y327500D02*
D03*
X430000Y278500D02*
D03*
X397000Y327500D02*
D03*
X250040Y365345D02*
D03*
X217040Y414345D02*
D03*
X218520Y76550D02*
D03*
X251520Y27550D02*
D03*
X311520D02*
D03*
X278520Y76550D02*
D03*
X339520Y76550D02*
D03*
X372520Y27550D02*
D03*
X459500Y76500D02*
D03*
X492500Y27500D02*
D03*
X399520Y76550D02*
D03*
X432520Y27550D02*
D03*
X519520Y76550D02*
D03*
X552520Y27550D02*
D03*
X156500Y158500D02*
D03*
X189500Y109500D02*
D03*
X157520Y244805D02*
D03*
X190520Y195805D02*
D03*
X98520Y76550D02*
D03*
X131520Y27550D02*
D03*
X158520Y76550D02*
D03*
X191520Y27550D02*
D03*
X96480Y158450D02*
D03*
X129480Y109450D02*
D03*
X130520Y195805D02*
D03*
X97520Y244805D02*
D03*
X129000Y278500D02*
D03*
X96000Y327500D02*
D03*
X97040Y414345D02*
D03*
X130040Y365345D02*
D03*
X189020Y278550D02*
D03*
X156020Y327550D02*
D03*
X157040Y414345D02*
D03*
X190040Y365345D02*
D03*
X276480Y158450D02*
D03*
X309480Y109450D02*
D03*
X249480D02*
D03*
X216480Y158450D02*
D03*
X217520Y244805D02*
D03*
X250520Y195805D02*
D03*
X277520Y244805D02*
D03*
X310520Y195805D02*
D03*
X337480Y158450D02*
D03*
X370480Y109450D02*
D03*
X338520Y244805D02*
D03*
X371520Y195805D02*
D03*
X457480Y158450D02*
D03*
X490480Y109450D02*
D03*
X430480D02*
D03*
X397480Y158450D02*
D03*
X458500Y244755D02*
D03*
X491500Y195755D02*
D03*
X398520Y244805D02*
D03*
X431520Y195805D02*
D03*
X517480Y158450D02*
D03*
X550480Y109450D02*
D03*
X518520Y244805D02*
D03*
X551520Y195805D02*
D03*
X370000Y278500D02*
D03*
X337000Y327500D02*
D03*
X458020Y414295D02*
D03*
D24*
X191760Y60240D02*
Y76310D01*
X191520Y76550D02*
X191760Y76310D01*
Y60240D02*
X192000Y60000D01*
X158260Y42397D02*
X159000Y43137D01*
X158260Y27810D02*
Y42397D01*
X159000Y43137D02*
Y44000D01*
X158260Y27810D02*
X158520Y27550D01*
X98760Y44760D02*
X99000Y45000D01*
X98760Y27790D02*
Y44760D01*
X131701Y60299D02*
Y76369D01*
Y60299D02*
X131882Y60118D01*
X131520Y76550D02*
X131701Y76369D01*
X490740Y142123D02*
Y158190D01*
Y142123D02*
X492000Y140863D01*
Y140000D02*
Y140863D01*
X457240Y109690D02*
Y125760D01*
Y109690D02*
X457480Y109450D01*
X457000Y126000D02*
X457240Y125760D01*
X518008Y126772D02*
X518618Y127382D01*
X517240Y123377D02*
X518008Y124144D01*
Y126772D01*
X517240Y109690D02*
Y123377D01*
Y109690D02*
X517480Y109450D01*
X550240Y141882D02*
Y158210D01*
X552874Y138385D02*
Y139248D01*
X550240Y141882D02*
X552874Y139248D01*
X551760Y225240D02*
X552000Y225000D01*
X551760Y225240D02*
Y244565D01*
X190637Y227363D02*
Y244688D01*
Y227363D02*
X190755Y227246D01*
X190520Y244805D02*
X190637Y244688D01*
X97000Y213137D02*
Y214000D01*
Y213137D02*
X97760Y212377D01*
Y196045D02*
Y212377D01*
X129255Y226745D02*
Y227609D01*
X130760Y229114D02*
Y244565D01*
X129255Y227609D02*
X130760Y229114D01*
X130520Y244805D02*
X130760Y244565D01*
X95760Y278740D02*
Y295760D01*
X96000Y296000D01*
X97000Y381000D02*
X97280Y380720D01*
Y365585D02*
Y380720D01*
X156309Y447691D02*
X156500Y447500D01*
X156309Y447691D02*
Y465691D01*
X156118Y465882D02*
X156309Y465691D01*
X276480Y447450D02*
X276740Y447710D01*
Y466740D02*
X277000Y467000D01*
X276740Y447710D02*
Y466740D01*
X518049Y448019D02*
Y464813D01*
X518618Y465382D01*
X517480Y447450D02*
X518049Y448019D01*
X550000Y478000D02*
X550240Y478240D01*
Y496210D01*
X250240Y566240D02*
Y583760D01*
X250000Y566000D02*
X250240Y566240D01*
X217000Y581000D02*
Y584000D01*
X213435Y578405D02*
X214405D01*
X217000Y581000D01*
X190013Y554983D02*
X213435Y578405D01*
X190013Y535013D02*
Y554983D01*
X190000Y535000D02*
X190013Y535013D01*
X97240Y552377D02*
X98000Y553137D01*
Y554000D01*
X97240Y535240D02*
Y552377D01*
X97000Y535000D02*
X97240Y535240D01*
X548000Y650000D02*
Y650863D01*
X548760Y651623D02*
Y665760D01*
X548000Y650863D02*
X548760Y651623D01*
X489500Y649500D02*
X490000Y649000D01*
X489500Y649500D02*
Y665500D01*
X489000Y666000D02*
X489500Y665500D01*
X156740Y535260D02*
Y552740D01*
X157000Y553000D01*
X156740Y535260D02*
X157000Y535000D01*
X490740Y479603D02*
Y496190D01*
X490000Y478863D02*
X490740Y479603D01*
X490000Y478000D02*
Y478863D01*
X156000Y382000D02*
X156520Y381480D01*
Y365865D02*
X157040Y365345D01*
X156520Y365865D02*
Y381480D01*
X490500Y312500D02*
Y327000D01*
Y312500D02*
X491000Y312000D01*
X490000Y327500D02*
X490500Y327000D01*
X430000Y310000D02*
X430000Y310000D01*
X430000Y310000D02*
Y327500D01*
X157260Y211397D02*
X158000Y212137D01*
X157260Y196065D02*
Y211397D01*
X158000Y212137D02*
Y213000D01*
X217260Y196065D02*
Y213740D01*
X217000Y214000D02*
X217260Y213740D01*
X430740Y142260D02*
X431000Y142000D01*
X430740Y142260D02*
Y158190D01*
X218260Y27810D02*
Y44740D01*
Y27810D02*
X218520Y27550D01*
X218000Y45000D02*
X218260Y44740D01*
X429000Y649000D02*
Y666000D01*
X216500Y535500D02*
Y553500D01*
Y535500D02*
X217000Y535000D01*
X216000Y554000D02*
X216500Y553500D01*
X430740Y479260D02*
Y496190D01*
Y479260D02*
X431000Y479000D01*
X370500Y310500D02*
X371000Y310000D01*
X370500Y310500D02*
Y327000D01*
X370000Y327500D02*
X370500Y327000D01*
X277000Y213000D02*
X277260Y212740D01*
Y196065D02*
Y212740D01*
X370240Y142240D02*
Y158210D01*
X370480Y158450D01*
X370000Y142000D02*
X370240Y142240D01*
X369000Y649000D02*
Y666000D01*
X369000Y666000D01*
X276500Y535500D02*
X277000Y535000D01*
X276000Y553000D02*
X276500Y552500D01*
Y535500D02*
Y552500D01*
X370480Y496450D02*
X370740Y496190D01*
Y479260D02*
Y496190D01*
Y479260D02*
X371000Y479000D01*
X277020Y365365D02*
X277040Y365345D01*
X277000Y383000D02*
X277020Y382980D01*
Y365365D02*
Y382980D01*
X309000Y311000D02*
Y327500D01*
X309000Y311000D02*
X309000Y311000D01*
X338260Y196065D02*
Y213740D01*
X338000Y214000D02*
X338260Y213740D01*
Y196065D02*
X338520Y195805D01*
X309480Y158450D02*
X309740Y158190D01*
Y141260D02*
X310000Y141000D01*
X309740Y141260D02*
Y158190D01*
X339260Y27810D02*
Y44740D01*
X339000Y45000D02*
X339260Y44740D01*
Y27810D02*
X339520Y27550D01*
X338000Y535000D02*
Y552000D01*
X338000Y552000D01*
X309740Y479260D02*
X310000Y479000D01*
X309740Y479260D02*
Y496190D01*
X309480Y496450D02*
X309740Y496190D01*
X338020Y365365D02*
X338040Y365345D01*
X338000Y383000D02*
X338020Y382980D01*
Y365365D02*
Y382980D01*
X249000Y310000D02*
Y327500D01*
Y141000D02*
X249240Y141240D01*
Y158210D01*
X249480Y158450D01*
X399520Y27550D02*
X399760Y27790D01*
Y44760D01*
X400000Y45000D01*
X398000Y535000D02*
Y553000D01*
X249240Y480240D02*
Y496210D01*
X249000Y480000D02*
X249240Y480240D01*
Y496210D02*
X249480Y496450D01*
X398520Y381520D02*
X399000Y382000D01*
X398040Y365345D02*
X398520Y365825D01*
Y381520D01*
X189010Y327540D02*
X189020Y327550D01*
X189010Y311010D02*
Y327540D01*
X189000Y311000D02*
X189010Y311010D01*
X188510Y650490D02*
Y665560D01*
Y650490D02*
X189000Y650000D01*
X188020Y666050D02*
X188510Y665560D01*
X458010Y365305D02*
Y382990D01*
Y365305D02*
X458020Y365295D01*
X458000Y383000D02*
X458010Y382990D01*
X519260Y27810D02*
Y46740D01*
X519000Y47000D02*
X519260Y46740D01*
Y27810D02*
X519520Y27550D01*
X217020Y365365D02*
X217040Y365345D01*
X217020Y365365D02*
Y382980D01*
X217000Y383000D02*
X217020Y382980D01*
X278260Y27810D02*
Y44740D01*
Y27810D02*
X278520Y27550D01*
X278000Y45000D02*
X278260Y44740D01*
X308000Y666000D02*
X308000Y666000D01*
X308000Y650000D02*
X308000Y650000D01*
Y666000D01*
X398760Y196045D02*
Y211760D01*
X398520Y195805D02*
X398760Y196045D01*
Y211760D02*
X399000Y212000D01*
X248000Y650000D02*
Y666000D01*
X248000Y650000D02*
X248000Y650000D01*
X458250Y196005D02*
Y211750D01*
Y196005D02*
X458500Y195755D01*
X458000Y212000D02*
X458250Y211750D01*
X189750Y143250D02*
Y158250D01*
Y143250D02*
X190000Y143000D01*
X459000Y43000D02*
X459250Y42750D01*
Y27750D02*
Y42750D01*
Y27750D02*
X459500Y27500D01*
X457990Y549990D02*
X458000Y550000D01*
X457980Y534950D02*
X457990Y534960D01*
Y549990D01*
X189750Y481250D02*
X190000Y481000D01*
X189750Y481250D02*
Y496250D01*
X129000Y312000D02*
Y327500D01*
X518260Y196065D02*
Y211740D01*
X518000Y212000D02*
X518260Y211740D01*
Y196065D02*
X518520Y195805D01*
X128000Y650000D02*
Y666000D01*
X128000Y650000D02*
X128000Y650000D01*
X129740Y143260D02*
Y158190D01*
Y143260D02*
X130000Y143000D01*
X518000Y535000D02*
Y552000D01*
X129740Y480260D02*
X130000Y480000D01*
X129480Y496450D02*
X129740Y496190D01*
Y480260D02*
Y496190D01*
X518020Y365365D02*
Y380980D01*
Y365365D02*
X518040Y365345D01*
X518000Y381000D02*
X518020Y380980D01*
X550000Y311000D02*
Y327500D01*
X548760Y665760D02*
X549000Y666000D01*
X550240Y496210D02*
X550480Y496450D01*
X490480D02*
X490740Y496190D01*
X430480Y496450D02*
X430740Y496190D01*
X550240Y158210D02*
X550480Y158450D01*
X490480D02*
X490740Y158190D01*
X430480Y158450D02*
X430740Y158190D01*
X189500Y496500D02*
X189750Y496250D01*
X97040Y365345D02*
X97280Y365585D01*
X277260Y196065D02*
X277520Y195805D01*
X217260Y196065D02*
X217520Y195805D01*
X189500Y158500D02*
X189750Y158250D01*
X157260Y196065D02*
X157520Y195805D01*
X129480Y158450D02*
X129740Y158190D01*
X97520Y195805D02*
X97760Y196045D01*
X98520Y27550D02*
X98760Y27790D01*
X274405Y581405D02*
X277000Y584000D01*
X274405Y578375D02*
Y581405D01*
X251013Y536013D02*
Y554983D01*
X274405Y578375D01*
X250000Y535000D02*
X251013Y536013D01*
X129897Y567103D02*
X129949Y567154D01*
Y583949D02*
X130000Y584000D01*
X129949Y567154D02*
Y583949D01*
X516301Y634095D02*
X516603Y634397D01*
X516301Y617301D02*
Y634095D01*
X516000Y617000D02*
X516301Y617301D01*
X455760Y617240D02*
Y632897D01*
X457000Y634137D01*
Y635000D01*
X190000Y584000D02*
X190199Y583801D01*
Y566801D02*
Y583801D01*
Y566801D02*
X190397Y566603D01*
X457799Y465563D02*
X458118Y465882D01*
X457799Y447769D02*
Y465563D01*
X457480Y447450D02*
X457799Y447769D01*
X250760Y227240D02*
Y244565D01*
Y227240D02*
X251000Y227000D01*
X397240Y126377D02*
X398000Y127137D01*
X397240Y109690D02*
Y126377D01*
X398000Y127137D02*
Y128000D01*
X251760Y59240D02*
Y76310D01*
Y59240D02*
X252000Y59000D01*
X251520Y76550D02*
X251760Y76310D01*
X396000Y617000D02*
X396000Y617000D01*
X396000Y617000D02*
Y635000D01*
X397240Y447690D02*
Y466004D01*
X397618Y466382D01*
X250000Y397000D02*
X250280Y397280D01*
Y414105D01*
X310000Y225000D02*
X310260Y225260D01*
Y244545D01*
X310520Y244805D01*
X276740Y127740D02*
X277000Y128000D01*
X276740Y109710D02*
Y127740D01*
X276480Y109450D02*
X276740Y109710D01*
X337740Y109710D02*
Y126740D01*
X338000Y127000D01*
X311000Y59000D02*
X311260Y59260D01*
Y76290D02*
X311520Y76550D01*
X311260Y59260D02*
Y76290D01*
X336500Y617500D02*
Y634500D01*
X336000Y617000D02*
X336500Y617500D01*
Y634500D02*
X337000Y635000D01*
X309500Y583500D02*
X310000Y584000D01*
X309500Y566500D02*
Y583500D01*
X309000Y566000D02*
X309500Y566500D01*
X310020Y396020D02*
Y414325D01*
X310000Y396000D02*
X310020Y396020D01*
Y414325D02*
X310040Y414345D01*
X372760Y58240D02*
X373000Y58000D01*
X372520Y76550D02*
X372760Y76310D01*
Y58240D02*
Y76310D01*
X275500Y617500D02*
Y636500D01*
X275000Y617000D02*
X275500Y617500D01*
Y636500D02*
X276000Y637000D01*
X371000Y566000D02*
X371000Y566000D01*
X371000Y566000D02*
Y584000D01*
X431520Y244805D02*
X431760Y244565D01*
Y227240D02*
Y244565D01*
Y227240D02*
X432000Y227000D01*
X216240Y109690D02*
Y128760D01*
X216000Y129000D02*
X216240Y128760D01*
X432520Y76550D02*
X432760Y76310D01*
Y58240D02*
X433000Y58000D01*
X432760Y58240D02*
Y76310D01*
X215000Y617000D02*
Y636000D01*
X215000Y636000D02*
X215000Y636000D01*
Y617000D02*
X215000Y617000D01*
X431000Y566000D02*
Y584000D01*
Y566000D02*
X431000Y566000D01*
X491500Y244755D02*
X491750Y244505D01*
Y227250D02*
X492000Y227000D01*
X491750Y227250D02*
Y244505D01*
X156500Y109500D02*
X156750Y109750D01*
Y127750D02*
X157000Y128000D01*
X156750Y109750D02*
Y127750D01*
X492250Y59250D02*
Y76250D01*
X492500Y76500D01*
X492000Y59000D02*
X492250Y59250D01*
X337740Y447710D02*
Y466740D01*
X338000Y467000D01*
X337480Y447450D02*
X337740Y447710D01*
X371260Y244545D02*
X371520Y244805D01*
X371000Y226000D02*
X371260Y226260D01*
Y244545D01*
X371020Y414325D02*
X371040Y414345D01*
X371020Y397020D02*
Y414325D01*
X371000Y397000D02*
X371020Y397020D01*
X216740Y463740D02*
X217000Y464000D01*
X216480Y447450D02*
X216740Y447710D01*
Y463740D01*
X431000Y397000D02*
X431020Y397020D01*
Y414325D01*
X431040Y414345D01*
X155020Y617050D02*
X155510Y617540D01*
Y634510D02*
X156000Y635000D01*
X155510Y617540D02*
Y634510D01*
X490990Y566010D02*
Y583940D01*
Y566010D02*
X491000Y566000D01*
X491010Y414285D02*
X491020Y414295D01*
X491010Y399010D02*
Y414285D01*
X491000Y399000D02*
X491010Y399010D01*
X551520Y244805D02*
X551760Y244565D01*
X96740Y109710D02*
Y125740D01*
X97000Y126000D01*
X96480Y109450D02*
X96740Y109710D01*
X552760Y61240D02*
X553000Y61000D01*
X552520Y76550D02*
X552760Y76310D01*
Y61240D02*
Y76310D01*
X94760Y632760D02*
X95000Y633000D01*
X94760Y617240D02*
Y632760D01*
Y617240D02*
X95000Y617000D01*
X96000Y464000D02*
X96240Y463760D01*
Y447690D02*
Y463760D01*
Y447690D02*
X96480Y447450D01*
X551280Y397280D02*
Y414105D01*
X551000Y397000D02*
X551280Y397280D01*
X551040Y414345D02*
X551280Y414105D01*
X455760Y617240D02*
X456000Y617000D01*
X551240Y569760D02*
Y583760D01*
Y569760D02*
X551550Y569450D01*
X551480D02*
X551550D01*
X551000Y584000D02*
X551240Y583760D01*
X490980Y583950D02*
X490990Y583940D01*
X397240Y447690D02*
X397480Y447450D01*
X517000Y278500D02*
Y294255D01*
Y278500D02*
X517000Y278500D01*
X456760Y278740D02*
Y292810D01*
X456520Y293050D02*
X456760Y292810D01*
Y278740D02*
X457000Y278500D01*
X396520Y293020D02*
Y293050D01*
X396000Y292500D02*
X396760Y291740D01*
X396000Y292500D02*
X396520Y293020D01*
X396760Y278740D02*
X397000Y278500D01*
X396760Y278740D02*
Y291740D01*
X337260Y292790D02*
X337520Y293050D01*
X337260Y278760D02*
Y292790D01*
X337000Y278500D02*
X337260Y278760D01*
X397240Y109690D02*
X397480Y109450D01*
X337480D02*
X337740Y109710D01*
X250000Y584000D02*
X250240Y583760D01*
X250040Y414345D02*
X250280Y414105D01*
X190280Y400035D02*
Y414105D01*
X190040Y414345D02*
X190280Y414105D01*
Y400035D02*
X190520Y399795D01*
X216000Y294255D02*
X216000Y294255D01*
X130040Y414345D02*
X130280Y414105D01*
Y400035D02*
Y414105D01*
Y400035D02*
X130520Y399795D01*
X276000Y293500D02*
X276000Y293500D01*
Y278500D02*
X276000Y278500D01*
X276000Y278500D02*
Y293500D01*
X250520Y244805D02*
X250760Y244565D01*
X216000Y278500D02*
Y294255D01*
Y278500D02*
X216000Y278500D01*
X156000Y293500D02*
X156010Y293490D01*
Y278560D02*
X156020Y278550D01*
X156010Y278560D02*
Y293490D01*
X95760Y278740D02*
X96000Y278500D01*
X216240Y109690D02*
X216480Y109450D01*
X551040Y365345D02*
X553408Y362977D01*
X559023D02*
X576000Y346000D01*
Y303473D02*
Y346000D01*
X553408Y362977D02*
X559023D01*
X556622Y284095D02*
X576000Y303473D01*
X546480Y273953D02*
X550514Y277986D01*
Y282014D02*
X552595Y284095D01*
X556622D01*
X550514Y277986D02*
Y282014D01*
X491020Y365295D02*
Y384295D01*
X515445Y408720D01*
Y411750D01*
X518040Y414345D01*
X549000Y614000D02*
Y617000D01*
Y614000D02*
X551595Y611405D01*
X572196D01*
X589446Y594155D01*
Y576446D02*
Y594155D01*
X577000Y564000D02*
X589446Y576446D01*
X559503Y193497D02*
X573000Y180000D01*
Y134970D02*
Y180000D01*
X550480Y112450D02*
X573000Y134970D01*
X551520Y195805D02*
X553828Y193497D01*
X559503D01*
X97000Y587000D02*
X108000Y598000D01*
X100595Y660405D02*
X108000Y653000D01*
Y598000D02*
Y653000D01*
X95000Y663000D02*
Y666000D01*
X97595Y660405D02*
X100595D01*
X95000Y663000D02*
X97595Y660405D01*
X97000Y584000D02*
Y587000D01*
X190520Y195805D02*
X190533Y195818D01*
Y215788D01*
X213955Y239210D01*
X192095Y117095D02*
X214734Y139734D01*
X213955Y239210D02*
X214925D01*
X214734Y139734D02*
Y156704D01*
X131520Y27550D02*
Y48520D01*
X153955Y70955D01*
X191520Y27550D02*
X191533Y27563D01*
Y47533D01*
X214955Y70955D01*
X82000Y96070D02*
Y140970D01*
Y96070D02*
X98520Y79550D01*
Y76550D02*
Y79550D01*
X129480Y109450D02*
X132075Y112045D01*
Y115075D01*
X153955Y70955D02*
X155925D01*
X158520Y73550D01*
Y76550D01*
X189500Y109500D02*
X192095Y112095D01*
Y117095D01*
X85000Y252232D02*
X87232Y250000D01*
X82000Y140970D02*
X96480Y155450D01*
X87232Y250000D02*
X94925D01*
X97520Y247405D01*
X96480Y155450D02*
Y158450D01*
X97520Y244805D02*
Y247405D01*
X130520Y195805D02*
Y216775D01*
X152955Y239210D01*
X85000Y252232D02*
Y313500D01*
X96000Y324500D01*
Y327500D01*
X130040Y365345D02*
Y386315D01*
X129000Y278500D02*
X131595Y281095D01*
Y284125D01*
X130040Y386315D02*
X152475Y408750D01*
X132075Y115075D02*
X156500Y139500D01*
X152955Y239210D02*
X154925D01*
X157520Y241805D01*
X156500Y139500D02*
Y158500D01*
X157520Y241805D02*
Y244805D01*
X131595Y284125D02*
X156020Y308550D01*
Y327550D01*
X190040Y365345D02*
X190053Y365358D01*
Y385328D01*
X189020Y278550D02*
X191615Y281145D01*
Y286145D01*
X190053Y385328D02*
X213475Y408750D01*
X191615Y286145D02*
X214254Y308784D01*
Y325754D01*
X493075Y115045D02*
X495045D01*
X517480Y137480D01*
Y158450D01*
X249480Y109450D02*
X252075Y112045D01*
Y116075D01*
X274734Y138734D01*
Y156704D01*
X214734D02*
X216480Y158450D01*
X274734Y156704D02*
X276480Y158450D01*
X250520Y195805D02*
X251533Y196818D01*
Y215788D01*
X370480Y109450D02*
X373075Y112045D01*
Y115075D01*
X396467Y138467D01*
Y157437D01*
X337480Y140450D02*
Y158450D01*
X310520Y195805D02*
Y213805D01*
X371520Y195805D02*
X373266Y197551D01*
X430480Y112450D02*
X433075Y115045D01*
X434045D01*
X457467Y138467D01*
Y158437D01*
X396467Y157437D02*
X397480Y158450D01*
X457467Y158437D02*
X457480Y158450D01*
X431520Y195805D02*
X433266Y197551D01*
Y214521D01*
X491500Y195755D02*
Y214755D01*
X309480Y109450D02*
Y112450D01*
X337480Y140450D01*
X494565Y284095D02*
X517000Y306530D01*
Y327500D01*
X309000Y281500D02*
X337000Y309500D01*
X372595Y284125D02*
X395987Y307517D01*
X337000Y309500D02*
Y327500D01*
X431040Y365345D02*
X432786Y367091D01*
Y384061D01*
X455425Y406700D01*
X310040Y365345D02*
Y383345D01*
X371040Y365345D02*
X372786Y367091D01*
X130595Y619595D02*
Y622625D01*
X155020Y647050D01*
Y666050D01*
X188020Y617050D02*
X190615Y619645D01*
Y624645D01*
X82000Y478970D02*
X96480Y493450D01*
Y496450D01*
X130000Y535000D02*
Y555970D01*
X132075Y453075D02*
X156500Y477500D01*
Y496500D01*
X192095Y455095D02*
X214734Y477734D01*
Y494704D01*
X216480Y496450D01*
X252075Y454075D02*
X274734Y476734D01*
Y494704D01*
X276480Y496450D01*
X310000Y535000D02*
Y553000D01*
X130000Y555970D02*
X152435Y578405D01*
X154405D01*
X157000Y581000D01*
Y584000D01*
X128000Y617000D02*
X130595Y619595D01*
X190615Y624645D02*
X213254Y647284D01*
Y664254D01*
X215000Y666000D01*
X248000Y617000D02*
X250595Y619595D01*
Y623625D01*
X273254Y646284D01*
Y664254D01*
X275000Y666000D01*
X308000Y617000D02*
Y620000D01*
X338040Y411345D02*
Y414345D01*
X309480Y450450D02*
X337480Y478450D01*
X455425Y406700D02*
Y411700D01*
X395445Y407720D02*
Y411750D01*
X455425Y411700D02*
X458020Y414295D01*
X395445Y411750D02*
X398040Y414345D01*
X370480Y447450D02*
X373075Y450045D01*
X430480Y447450D02*
Y450450D01*
X373075Y450045D02*
Y453075D01*
X430480Y450450D02*
X433075Y453045D01*
X434045D01*
X457467Y476467D01*
X373075Y453075D02*
X396467Y476467D01*
X337480Y478450D02*
Y496450D01*
X371000Y535000D02*
X372746Y536746D01*
Y554716D01*
X369000Y617000D02*
X371595Y619595D01*
X396467Y476467D02*
Y495437D01*
X397480Y496450D01*
X431000Y535000D02*
X432746Y536746D01*
Y553716D01*
X455385Y576355D01*
Y581355D01*
X457980Y583950D01*
X395405Y581405D02*
X398000Y584000D01*
X429000Y617000D02*
Y620000D01*
X457467Y476467D02*
Y496437D01*
X490480Y447450D02*
Y450450D01*
X493075Y453045D01*
X550480Y450450D02*
X553075Y453045D01*
X493075D02*
X495045D01*
X553075D02*
X556075D01*
X569000Y465970D01*
X495045Y453045D02*
X517480Y475480D01*
Y496450D01*
X569000Y465970D02*
Y514000D01*
X457467Y496437D02*
X457480Y496450D01*
X490980Y534950D02*
Y553950D01*
X515405Y578375D01*
Y581405D01*
X518000Y584000D01*
X551000Y532000D02*
X569000Y514000D01*
X551000Y532000D02*
Y535000D01*
X372746Y554716D02*
X395405Y577375D01*
X310000Y553000D02*
X338000Y581000D01*
X395405Y577375D02*
Y581405D01*
X338000Y581000D02*
Y584000D01*
X431595Y622595D02*
X432565D01*
X371595Y619595D02*
Y622625D01*
X429000Y620000D02*
X431595Y622595D01*
X371595Y622625D02*
X394987Y646017D01*
Y664987D01*
X336000Y648000D02*
Y666000D01*
X394987Y664987D02*
X396000Y666000D01*
X516000Y645030D02*
Y666000D01*
X455987Y646017D02*
Y665987D01*
X456000Y666000D01*
X308000Y620000D02*
X336000Y648000D01*
X489000Y617000D02*
Y620000D01*
X491595Y622595D01*
X493565D01*
X516000Y645030D01*
X432565Y622595D02*
X455987Y646017D01*
X251533Y215788D02*
X274925Y239180D01*
X214925Y239210D02*
X217520Y241805D01*
X274925Y239180D02*
Y242210D01*
X217520Y241805D02*
Y244805D01*
X274925Y242210D02*
X277520Y244805D01*
X249000Y278500D02*
X251595Y281095D01*
Y285125D01*
X373266Y197551D02*
Y215521D01*
X395925Y238180D01*
X310520Y213805D02*
X338520Y241805D01*
Y244805D01*
X370000Y278500D02*
X372595Y281095D01*
X309000Y278500D02*
Y281500D01*
X372595Y281095D02*
Y284125D01*
X251595Y285125D02*
X274254Y307784D01*
Y325754D01*
X214254D02*
X216000Y327500D01*
X274254Y325754D02*
X276000Y327500D01*
X372786Y367091D02*
Y385061D01*
X251053Y385328D02*
X274445Y408720D01*
X372786Y385061D02*
X395445Y407720D01*
X310040Y383345D02*
X338040Y411345D01*
X433266Y214521D02*
X455905Y237160D01*
Y242160D01*
X395925Y238180D02*
Y242210D01*
X455905Y242160D02*
X458500Y244755D01*
X395925Y242210D02*
X398520Y244805D01*
X430000Y278500D02*
Y281500D01*
X432595Y284095D01*
X433565D01*
X491500Y214755D02*
X515925Y239180D01*
Y242210D01*
X518520Y244805D01*
X490000Y278500D02*
Y281500D01*
X492595Y284095D01*
X494565D01*
X433565D02*
X456987Y307517D01*
X395987D02*
Y326487D01*
X456987Y307517D02*
Y327487D01*
X395987Y326487D02*
X397000Y327500D01*
X456987Y327487D02*
X457000Y327500D01*
X250040Y365345D02*
X251053Y366358D01*
Y385328D01*
X214955Y70955D02*
X215925D01*
X218520Y73550D01*
X275925Y70925D02*
Y73955D01*
X218520Y73550D02*
Y76550D01*
X275925Y73955D02*
X278520Y76550D01*
X251520Y27550D02*
X252533Y28563D01*
Y47533D01*
X275925Y70925D01*
X374266Y47266D02*
X396925Y69925D01*
X372520Y27550D02*
X374266Y29296D01*
X311520Y27550D02*
Y45550D01*
X374266Y29296D02*
Y47266D01*
X311520Y45550D02*
X339520Y73550D01*
Y76550D01*
X432520Y27550D02*
X434266Y29296D01*
Y46266D01*
X456905Y68905D01*
Y73905D01*
X396925Y69925D02*
Y73955D01*
X456905Y73905D02*
X459500Y76500D01*
X396925Y73955D02*
X399520Y76550D01*
X430480Y109450D02*
Y112450D01*
X492500Y27500D02*
Y46500D01*
X516925Y70925D01*
Y73955D01*
X519520Y76550D01*
X550480Y109450D02*
Y112450D01*
X490480Y109450D02*
Y112450D01*
X493075Y115045D01*
X550480Y447450D02*
Y450450D01*
X82000Y433000D02*
Y478970D01*
Y433000D02*
X94445Y420555D01*
Y416940D02*
Y420555D01*
Y416940D02*
X97040Y414345D01*
X129480Y447450D02*
X132075Y450045D01*
Y453075D01*
X152475Y408750D02*
X154445D01*
X157040Y411345D01*
Y414345D01*
X189500Y447500D02*
X192095Y450095D01*
Y455095D01*
X213475Y408750D02*
X214445D01*
X217040Y411345D01*
Y414345D01*
X249480Y447450D02*
X252075Y450045D01*
Y454075D01*
X274445Y408720D02*
Y411750D01*
X277040Y414345D01*
X309480Y447450D02*
Y450450D01*
D25*
X625000Y408000D02*
D03*
D26*
X590000D02*
D03*
D27*
X577000Y539000D02*
D03*
Y564000D02*
D03*
Y589000D02*
D03*
D28*
X605000Y655000D02*
D03*
X45000Y45000D02*
D03*
Y655000D02*
D03*
X605000Y45000D02*
D03*
D29*
X192000Y60000D02*
D03*
X159000Y44000D02*
D03*
X99000Y45000D02*
D03*
X131882Y60118D02*
D03*
X492000Y140000D02*
D03*
X457000Y126000D02*
D03*
X518618Y127382D02*
D03*
X552874Y138385D02*
D03*
X552000Y225000D02*
D03*
X190755Y227246D02*
D03*
X97000Y214000D02*
D03*
X129255Y226745D02*
D03*
X96000Y296000D02*
D03*
X97000Y381000D02*
D03*
X156118Y465882D02*
D03*
X277000Y467000D02*
D03*
X518618Y465382D02*
D03*
X550000Y478000D02*
D03*
X250000Y566000D02*
D03*
X98000Y554000D02*
D03*
X548000Y650000D02*
D03*
X490000Y649000D02*
D03*
X157000Y553000D02*
D03*
X490000Y478000D02*
D03*
X156000Y382000D02*
D03*
X491000Y312000D02*
D03*
X430000Y310000D02*
D03*
X158000Y213000D02*
D03*
X217000Y214000D02*
D03*
X431000Y142000D02*
D03*
X218000Y45000D02*
D03*
X429000Y649000D02*
D03*
X216000Y554000D02*
D03*
X431000Y479000D02*
D03*
X371000Y310000D02*
D03*
X277000Y213000D02*
D03*
X370000Y142000D02*
D03*
X369000Y649000D02*
D03*
X276000Y553000D02*
D03*
X371000Y479000D02*
D03*
X277000Y383000D02*
D03*
X309000Y311000D02*
D03*
X338000Y214000D02*
D03*
X310000Y141000D02*
D03*
X339000Y45000D02*
D03*
X338000Y552000D02*
D03*
X310000Y479000D02*
D03*
X338000Y383000D02*
D03*
X249000Y310000D02*
D03*
Y141000D02*
D03*
X400000Y45000D02*
D03*
X398000Y553000D02*
D03*
X249000Y480000D02*
D03*
X399000Y382000D02*
D03*
X189000Y311000D02*
D03*
Y650000D02*
D03*
X458000Y383000D02*
D03*
X519000Y47000D02*
D03*
X217000Y383000D02*
D03*
X278000Y45000D02*
D03*
X308000Y650000D02*
D03*
X399000Y212000D02*
D03*
X248000Y650000D02*
D03*
X458000Y212000D02*
D03*
X190000Y143000D02*
D03*
X459000Y43000D02*
D03*
X458000Y550000D02*
D03*
X190000Y481000D02*
D03*
X129000Y312000D02*
D03*
X518000Y212000D02*
D03*
X128000Y650000D02*
D03*
X130000Y143000D02*
D03*
X518000Y552000D02*
D03*
X130000Y480000D02*
D03*
X518000Y381000D02*
D03*
X550000Y311000D02*
D03*
X129897Y567103D02*
D03*
X516603Y634397D02*
D03*
X457000Y635000D02*
D03*
X190397Y566603D02*
D03*
X458118Y465882D02*
D03*
X251000Y227000D02*
D03*
X398000Y128000D02*
D03*
X252000Y59000D02*
D03*
X396000Y635000D02*
D03*
X397618Y466382D02*
D03*
X250000Y397000D02*
D03*
X310000Y225000D02*
D03*
X277000Y128000D02*
D03*
X338000Y127000D02*
D03*
X311000Y59000D02*
D03*
X337000Y635000D02*
D03*
X309000Y566000D02*
D03*
X310000Y396000D02*
D03*
X373000Y58000D02*
D03*
X276000Y637000D02*
D03*
X371000Y566000D02*
D03*
X432000Y227000D02*
D03*
X216000Y129000D02*
D03*
X433000Y58000D02*
D03*
X215000Y636000D02*
D03*
X431000Y566000D02*
D03*
X492000Y227000D02*
D03*
X157000Y128000D02*
D03*
X492000Y59000D02*
D03*
X338000Y467000D02*
D03*
X371000Y226000D02*
D03*
Y397000D02*
D03*
X217000Y464000D02*
D03*
X431000Y397000D02*
D03*
X156000Y635000D02*
D03*
X491000Y566000D02*
D03*
Y399000D02*
D03*
X97000Y126000D02*
D03*
X553000Y61000D02*
D03*
X95000Y633000D02*
D03*
X96000Y464000D02*
D03*
X551000Y397000D02*
D03*
X551000Y568000D02*
D03*
X190600Y398895D02*
D03*
X130000Y398000D02*
D03*
X517000Y294255D02*
D03*
X457000D02*
D03*
X397000D02*
D03*
X337000D02*
D03*
X276000Y295255D02*
D03*
X216000Y294255D02*
D03*
X157000D02*
D03*
M02*
