G04*
G04 #@! TF.GenerationSoftware,Altium Limited,Altium Designer,25.8.1 (18)*
G04*
G04 Layer_Color=65535*
%FSLAX44Y44*%
%MOMM*%
G71*
G04*
G04 #@! TF.SameCoordinates,A8765012-30DD-40E1-B8F3-8E4BD0165297*
G04*
G04*
G04 #@! TF.FilePolarity,Positive*
G04*
G01*
G75*
%ADD10C,0.2000*%
%ADD11C,0.5080*%
%ADD12C,0.1524*%
%ADD13C,0.1270*%
%ADD14C,0.2500*%
%ADD15C,0.2540*%
%ADD16C,0.3000*%
%ADD17C,0.0762*%
G36*
X56497Y160141D02*
X59708D01*
Y159071D01*
X60779D01*
Y158000D01*
X61849D01*
Y156930D01*
X62920D01*
Y153718D01*
X63990D01*
Y95910D01*
X62920D01*
Y93769D01*
X61849D01*
Y91628D01*
X60779D01*
Y90558D01*
X58638D01*
Y89487D01*
X55426D01*
Y88417D01*
X16888D01*
Y89487D01*
X13676D01*
Y90558D01*
X11535D01*
Y91628D01*
X10465D01*
Y93769D01*
X9394D01*
Y96981D01*
X8324D01*
Y152647D01*
X9394D01*
Y155859D01*
X10465D01*
Y158000D01*
X11535D01*
Y159071D01*
X13676D01*
Y160141D01*
X15817D01*
Y161211D01*
X56497D01*
Y160141D01*
D02*
G37*
%LPC*%
G36*
X57567Y156930D02*
X14747D01*
Y155859D01*
X13676D01*
Y153718D01*
X12606D01*
Y95910D01*
X13676D01*
Y93769D01*
X15817D01*
Y92699D01*
X56497D01*
Y93769D01*
X58638D01*
Y94840D01*
X59708D01*
Y154788D01*
X58638D01*
Y155859D01*
X57567D01*
Y156930D01*
D02*
G37*
%LPD*%
G36*
X46862Y146224D02*
X45792D01*
Y147295D01*
X46862D01*
Y146224D01*
D02*
G37*
G36*
X52215Y145154D02*
X50074D01*
Y147295D01*
X49003D01*
Y148365D01*
X50074D01*
Y152647D01*
Y153718D01*
X52215D01*
Y145154D01*
D02*
G37*
G36*
X43651D02*
X42580D01*
Y146224D01*
X43651D01*
Y145154D01*
D02*
G37*
G36*
X40439Y144083D02*
X39369D01*
Y145154D01*
X40439D01*
Y144083D01*
D02*
G37*
G36*
X37228Y143013D02*
X36157D01*
Y144083D01*
X37228D01*
Y143013D01*
D02*
G37*
G36*
X34016Y141942D02*
X32945D01*
Y143013D01*
X34016D01*
Y141942D01*
D02*
G37*
G36*
X30805Y140872D02*
X29734D01*
Y141942D01*
X30805D01*
Y140872D01*
D02*
G37*
G36*
X27593Y139801D02*
X26522D01*
Y138731D01*
X27593D01*
Y137660D01*
X28663D01*
Y136590D01*
X29734D01*
Y135519D01*
X30805D01*
Y134449D01*
X31875D01*
Y133378D01*
X32945D01*
Y132308D01*
X34016D01*
Y130167D01*
X35087D01*
Y129096D01*
X36157D01*
Y128026D01*
X51144D01*
Y132308D01*
X53285D01*
Y125885D01*
X15817D01*
Y133378D01*
X17958D01*
Y128026D01*
X30805D01*
Y129096D01*
X29734D01*
Y130167D01*
X28663D01*
Y131237D01*
X27593D01*
Y132308D01*
X26522D01*
Y133378D01*
X25452D01*
Y134449D01*
X24381D01*
Y135519D01*
X23311D01*
Y136590D01*
X22240D01*
Y137660D01*
X21170D01*
Y138731D01*
X22240D01*
Y139801D01*
X25452D01*
Y140872D01*
X27593D01*
Y139801D01*
D02*
G37*
G36*
X53285Y117320D02*
X51144D01*
Y121602D01*
X36157D01*
Y120532D01*
X35087D01*
Y119461D01*
X34016D01*
Y118391D01*
X32945D01*
Y116250D01*
X31875D01*
Y115179D01*
X30805D01*
Y114109D01*
X29734D01*
Y113038D01*
X28663D01*
Y111968D01*
X27593D01*
Y110897D01*
X26522D01*
Y109827D01*
X27593D01*
Y108756D01*
X26522D01*
Y109827D01*
X23311D01*
Y110897D01*
X21170D01*
Y111968D01*
X22240D01*
Y113038D01*
X23311D01*
Y114109D01*
X24381D01*
Y115179D01*
X25452D01*
Y116250D01*
X26522D01*
Y117320D01*
X27593D01*
Y118391D01*
X28663D01*
Y119461D01*
X29734D01*
Y120532D01*
X30805D01*
Y121602D01*
X17958D01*
Y116250D01*
X15817D01*
Y123744D01*
X53285D01*
Y117320D01*
D02*
G37*
G36*
X30805Y107686D02*
X29734D01*
Y108756D01*
X30805D01*
Y107686D01*
D02*
G37*
G36*
X34016Y106615D02*
X32945D01*
Y107686D01*
X34016D01*
Y106615D01*
D02*
G37*
G36*
X37228Y105545D02*
X36157D01*
Y106615D01*
X37228D01*
Y105545D01*
D02*
G37*
G36*
X40439Y104474D02*
X39369D01*
Y105545D01*
X40439D01*
Y104474D01*
D02*
G37*
G36*
X44721Y103404D02*
X42580D01*
Y104474D01*
X44721D01*
Y103404D01*
D02*
G37*
G36*
X47933Y102333D02*
X45792D01*
Y103404D01*
X47933D01*
Y102333D01*
D02*
G37*
G36*
X56497Y95910D02*
X54356D01*
Y117320D01*
Y118391D01*
Y153718D01*
X56497D01*
Y95910D01*
D02*
G37*
G36*
X52215D02*
X50074D01*
Y96981D01*
Y104474D01*
X52215D01*
Y95910D01*
D02*
G37*
D10*
X647500Y408000D02*
G03*
X647500Y408000I-40000J0D01*
G01*
X215000Y519800D02*
G03*
X215000Y519800I-1000J0D01*
G01*
X516040Y350145D02*
G03*
X516040Y350145I-1000J0D01*
G01*
X396040D02*
G03*
X396040Y350145I-1000J0D01*
G01*
X494000Y342700D02*
G03*
X494000Y342700I-1000J0D01*
G01*
X554000D02*
G03*
X554000Y342700I-1000J0D01*
G01*
X275040Y350145D02*
G03*
X275040Y350145I-1000J0D01*
G01*
X336040Y350145D02*
G03*
X336040Y350145I-1000J0D01*
G01*
X192020Y681250D02*
G03*
X192020Y681250I-1000J0D01*
G01*
X133480Y511650D02*
G03*
X133480Y511650I-1000J0D01*
G01*
X95000Y519800D02*
G03*
X95000Y519800I-1000J0D01*
G01*
X193500Y511700D02*
G03*
X193500Y511700I-1000J0D01*
G01*
X155000Y519800D02*
G03*
X155000Y519800I-1000J0D01*
G01*
X253480Y511650D02*
G03*
X253480Y511650I-1000J0D01*
G01*
X313480D02*
G03*
X313480Y511650I-1000J0D01*
G01*
X275000Y519800D02*
G03*
X275000Y519800I-1000J0D01*
G01*
X132000Y681200D02*
G03*
X132000Y681200I-1000J0D01*
G01*
X252000D02*
G03*
X252000Y681200I-1000J0D01*
G01*
X312000D02*
G03*
X312000Y681200I-1000J0D01*
G01*
X374480Y511650D02*
G03*
X374480Y511650I-1000J0D01*
G01*
X434480D02*
G03*
X434480Y511650I-1000J0D01*
G01*
X336000Y519800D02*
G03*
X336000Y519800I-1000J0D01*
G01*
X373000Y681200D02*
G03*
X373000Y681200I-1000J0D01*
G01*
X396000Y519800D02*
G03*
X396000Y519800I-1000J0D01*
G01*
X433000Y681200D02*
G03*
X433000Y681200I-1000J0D01*
G01*
X493000D02*
G03*
X493000Y681200I-1000J0D01*
G01*
X494480Y511650D02*
G03*
X494480Y511650I-1000J0D01*
G01*
X554480D02*
G03*
X554480Y511650I-1000J0D01*
G01*
X455980Y519750D02*
G03*
X455980Y519750I-1000J0D01*
G01*
X516000Y519800D02*
G03*
X516000Y519800I-1000J0D01*
G01*
X553000Y681200D02*
G03*
X553000Y681200I-1000J0D01*
G01*
X253000Y342700D02*
G03*
X253000Y342700I-1000J0D01*
G01*
X313000D02*
G03*
X313000Y342700I-1000J0D01*
G01*
X434000Y342700D02*
G03*
X434000Y342700I-1000J0D01*
G01*
X215040Y350145D02*
G03*
X215040Y350145I-1000J0D01*
G01*
X216520Y12350D02*
G03*
X216520Y12350I-1000J0D01*
G01*
X276520D02*
G03*
X276520Y12350I-1000J0D01*
G01*
X337520Y12350D02*
G03*
X337520Y12350I-1000J0D01*
G01*
X457500Y12300D02*
G03*
X457500Y12300I-1000J0D01*
G01*
X397520Y12350D02*
G03*
X397520Y12350I-1000J0D01*
G01*
X517520D02*
G03*
X517520Y12350I-1000J0D01*
G01*
X193500Y173700D02*
G03*
X193500Y173700I-1000J0D01*
G01*
X155520Y180605D02*
G03*
X155520Y180605I-1000J0D01*
G01*
X96520Y12350D02*
G03*
X96520Y12350I-1000J0D01*
G01*
X156520D02*
G03*
X156520Y12350I-1000J0D01*
G01*
X133480Y173650D02*
G03*
X133480Y173650I-1000J0D01*
G01*
X95520Y180605D02*
G03*
X95520Y180605I-1000J0D01*
G01*
X133000Y342700D02*
G03*
X133000Y342700I-1000J0D01*
G01*
X95040Y350145D02*
G03*
X95040Y350145I-1000J0D01*
G01*
X193020Y342750D02*
G03*
X193020Y342750I-1000J0D01*
G01*
X155040Y350145D02*
G03*
X155040Y350145I-1000J0D01*
G01*
X313480Y173650D02*
G03*
X313480Y173650I-1000J0D01*
G01*
X253480D02*
G03*
X253480Y173650I-1000J0D01*
G01*
X215520Y180605D02*
G03*
X215520Y180605I-1000J0D01*
G01*
X275520D02*
G03*
X275520Y180605I-1000J0D01*
G01*
X374480Y173650D02*
G03*
X374480Y173650I-1000J0D01*
G01*
X336520Y180605D02*
G03*
X336520Y180605I-1000J0D01*
G01*
X494480Y173650D02*
G03*
X494480Y173650I-1000J0D01*
G01*
X434480D02*
G03*
X434480Y173650I-1000J0D01*
G01*
X456500Y180555D02*
G03*
X456500Y180555I-1000J0D01*
G01*
X396520Y180605D02*
G03*
X396520Y180605I-1000J0D01*
G01*
X554480Y173650D02*
G03*
X554480Y173650I-1000J0D01*
G01*
X516520Y180605D02*
G03*
X516520Y180605I-1000J0D01*
G01*
X374000Y342700D02*
G03*
X374000Y342700I-1000J0D01*
G01*
X456020Y350095D02*
G03*
X456020Y350095I-1000J0D01*
G01*
D11*
X580810Y510394D02*
G03*
X580810Y510394I-3810J0D01*
G01*
D12*
X650224Y516744D02*
Y612756D01*
X571230D02*
X650224D01*
X571230Y598749D02*
Y612756D01*
Y516744D02*
X650224D01*
X571230D02*
Y529251D01*
Y548749D02*
Y554251D01*
Y573749D02*
Y579251D01*
D13*
X258500Y534500D02*
Y584500D01*
X208500Y534500D02*
Y584500D01*
X559540Y364845D02*
Y414845D01*
X509540Y364845D02*
Y414845D01*
X439540Y364845D02*
Y414845D01*
X389540Y364845D02*
Y414845D01*
X448500Y278000D02*
Y328000D01*
X498500Y278000D02*
Y328000D01*
X508500Y278000D02*
Y328000D01*
X558500Y278000D02*
Y328000D01*
X318540Y364845D02*
Y414845D01*
X268540Y364845D02*
Y414845D01*
X379540Y364845D02*
Y414845D01*
X329540Y364845D02*
Y414845D01*
X146520Y616550D02*
Y666550D01*
X196520Y616550D02*
Y666550D01*
X87980Y446950D02*
Y496950D01*
X137980Y446950D02*
Y496950D01*
X138500Y534500D02*
Y584500D01*
X88500Y534500D02*
Y584500D01*
X148000Y447000D02*
Y497000D01*
X198000Y447000D02*
Y497000D01*
X198500Y534500D02*
Y584500D01*
X148500Y534500D02*
Y584500D01*
X207980Y446950D02*
Y496950D01*
X257980Y446950D02*
Y496950D01*
X267980Y446950D02*
Y496950D01*
X317980Y446950D02*
Y496950D01*
X318500Y534500D02*
Y584500D01*
X268500Y534500D02*
Y584500D01*
X86500Y616500D02*
Y666500D01*
X136500Y616500D02*
Y666500D01*
X206500Y616500D02*
Y666500D01*
X256500Y616500D02*
Y666500D01*
X266500Y616500D02*
Y666500D01*
X316500Y616500D02*
Y666500D01*
X328980Y446950D02*
Y496950D01*
X378980Y446950D02*
Y496950D01*
X388980Y446950D02*
Y496950D01*
X438980Y446950D02*
Y496950D01*
X379500Y534500D02*
Y584500D01*
X329500Y534500D02*
Y584500D01*
X327500Y616500D02*
Y666500D01*
X377500Y616500D02*
Y666500D01*
X439500Y534500D02*
Y584500D01*
X389500Y534500D02*
Y584500D01*
X387500Y616500D02*
Y666500D01*
X437500Y616500D02*
Y666500D01*
X447500Y616500D02*
Y666500D01*
X497500Y616500D02*
Y666500D01*
X448980Y446950D02*
Y496950D01*
X498980Y446950D02*
Y496950D01*
X508980Y446950D02*
Y496950D01*
X558980Y446950D02*
Y496950D01*
X499480Y534450D02*
Y584450D01*
X449480Y534450D02*
Y584450D01*
X559500Y534500D02*
Y584500D01*
X509500Y534500D02*
Y584500D01*
X507500Y616500D02*
Y666500D01*
X557500Y616500D02*
Y666500D01*
X207500Y278000D02*
Y328000D01*
X257500Y278000D02*
Y328000D01*
X267500Y278000D02*
Y328000D01*
X317500Y278000D02*
Y328000D01*
X388500Y278000D02*
Y328000D01*
X438500Y278000D02*
Y328000D01*
X258540Y364845D02*
Y414845D01*
X208540Y364845D02*
Y414845D01*
X260020Y27050D02*
Y77050D01*
X210020Y27050D02*
Y77050D01*
X320020Y27050D02*
Y77050D01*
X270020Y27050D02*
Y77050D01*
X381020Y27050D02*
Y77050D01*
X331020Y27050D02*
Y77050D01*
X501000Y27000D02*
Y77000D01*
X451000Y27000D02*
Y77000D01*
X441020Y27050D02*
Y77050D01*
X391020Y27050D02*
Y77050D01*
X561020Y27050D02*
Y77050D01*
X511020Y27050D02*
Y77050D01*
X148000Y109000D02*
Y159000D01*
X198000Y109000D02*
Y159000D01*
X199020Y195305D02*
Y245305D01*
X149020Y195305D02*
Y245305D01*
X140020Y27050D02*
Y77050D01*
X90020Y27050D02*
Y77050D01*
X200020Y27050D02*
Y77050D01*
X150020Y27050D02*
Y77050D01*
X87980Y108950D02*
Y158950D01*
X137980Y108950D02*
Y158950D01*
X139020Y195305D02*
Y245305D01*
X89020Y195305D02*
Y245305D01*
X87500Y278000D02*
Y328000D01*
X137500Y278000D02*
Y328000D01*
X138540Y364845D02*
Y414845D01*
X88540Y364845D02*
Y414845D01*
X147520Y278050D02*
Y328050D01*
X197520Y278050D02*
Y328050D01*
X198540Y364845D02*
Y414845D01*
X148540Y364845D02*
Y414845D01*
X267980Y108950D02*
Y158950D01*
X317980Y108950D02*
Y158950D01*
X207980Y108950D02*
Y158950D01*
X257980Y108950D02*
Y158950D01*
X259020Y195305D02*
Y245305D01*
X209020Y195305D02*
Y245305D01*
X319020Y195305D02*
Y245305D01*
X269020Y195305D02*
Y245305D01*
X328980Y108950D02*
Y158950D01*
X378980Y108950D02*
Y158950D01*
X380020Y195305D02*
Y245305D01*
X330020Y195305D02*
Y245305D01*
X448980Y108950D02*
Y158950D01*
X498980Y108950D02*
Y158950D01*
X388980Y108950D02*
Y158950D01*
X438980Y108950D02*
Y158950D01*
X500000Y195255D02*
Y245255D01*
X450000Y195255D02*
Y245255D01*
X440020Y195305D02*
Y245305D01*
X390020Y195305D02*
Y245305D01*
X508980Y108950D02*
Y158950D01*
X558980Y108950D02*
Y158950D01*
X560020Y195305D02*
Y245305D01*
X510020Y195305D02*
Y245305D01*
X328500Y278000D02*
Y328000D01*
X378500Y278000D02*
Y328000D01*
X499520Y364795D02*
Y414795D01*
X449520Y364795D02*
Y414795D01*
D14*
X24004Y171500D02*
X22337Y173166D01*
Y176498D01*
X24004Y178165D01*
X25670D01*
X27336Y176498D01*
X29002Y178165D01*
X30668D01*
X32334Y176498D01*
Y173166D01*
X30668Y171500D01*
X29002D01*
X27336Y173166D01*
X25670Y171500D01*
X24004D01*
X27336Y173166D02*
Y176498D01*
X25670Y181497D02*
X32334Y188161D01*
X29002Y184829D01*
X25670Y188161D01*
X32334Y181497D01*
X24004Y191493D02*
X22337Y193160D01*
Y196492D01*
X24004Y198158D01*
X25670D01*
X27336Y196492D01*
X29002Y198158D01*
X30668D01*
X32334Y196492D01*
Y193160D01*
X30668Y191493D01*
X29002D01*
X27336Y193160D01*
X25670Y191493D01*
X24004D01*
X27336Y193160D02*
Y196492D01*
X32334Y211487D02*
X22337D01*
X32334Y218152D01*
X22337D01*
X32334Y226482D02*
Y223150D01*
X30668Y221484D01*
X27336D01*
X25670Y223150D01*
Y226482D01*
X27336Y228148D01*
X29002D01*
Y221484D01*
X32334Y233147D02*
Y236479D01*
X30668Y238145D01*
X27336D01*
X25670Y236479D01*
Y233147D01*
X27336Y231481D01*
X30668D01*
X32334Y233147D01*
Y241477D02*
X22337D01*
Y246476D01*
X24004Y248142D01*
X27336D01*
X29002Y246476D01*
Y241477D01*
X32334Y251474D02*
Y254806D01*
Y253140D01*
X25670D01*
Y251474D01*
Y259805D02*
X32334Y266469D01*
X29002Y263137D01*
X25670Y266469D01*
X32334Y259805D01*
Y274800D02*
Y271468D01*
X30668Y269802D01*
X27336D01*
X25670Y271468D01*
Y274800D01*
X27336Y276466D01*
X29002D01*
Y269802D01*
X32334Y279798D02*
Y283131D01*
Y281465D01*
X22337D01*
Y279798D01*
X32334Y298126D02*
X22337D01*
X25670Y301458D01*
X22337Y304790D01*
X32334D01*
X25670Y309789D02*
Y313121D01*
X27336Y314787D01*
X32334D01*
Y309789D01*
X30668Y308123D01*
X29002Y309789D01*
Y314787D01*
X24004Y319785D02*
X25670D01*
Y318119D01*
Y321452D01*
Y319785D01*
X30668D01*
X32334Y321452D01*
X25670Y326450D02*
X32334D01*
X29002D01*
X27336Y328116D01*
X25670Y329782D01*
Y331448D01*
X32334Y336447D02*
Y339779D01*
Y338113D01*
X25670D01*
Y336447D01*
Y344777D02*
X32334Y351442D01*
X29002Y348110D01*
X25670Y351442D01*
X32334Y344777D01*
X40333Y171500D02*
X50330D01*
Y176498D01*
X48664Y178165D01*
X42000D01*
X40333Y176498D01*
Y171500D01*
X50330Y186495D02*
Y183163D01*
X48664Y181497D01*
X45332D01*
X43666Y183163D01*
Y186495D01*
X45332Y188161D01*
X46998D01*
Y181497D01*
X50330Y191493D02*
Y196492D01*
X48664Y198158D01*
X46998Y196492D01*
Y193160D01*
X45332Y191493D01*
X43666Y193160D01*
Y198158D01*
X50330Y201490D02*
Y204823D01*
Y203157D01*
X43666D01*
Y201490D01*
X53663Y213153D02*
Y214819D01*
X51996Y216486D01*
X43666D01*
Y211487D01*
X45332Y209821D01*
X48664D01*
X50330Y211487D01*
Y216486D01*
Y219818D02*
X43666D01*
Y224816D01*
X45332Y226482D01*
X50330D01*
Y234813D02*
Y231481D01*
X48664Y229814D01*
X45332D01*
X43666Y231481D01*
Y234813D01*
X45332Y236479D01*
X46998D01*
Y229814D01*
X40333Y246476D02*
X50330D01*
Y241477D01*
X48664Y239811D01*
X45332D01*
X43666Y241477D01*
Y246476D01*
X40333Y259805D02*
X50330D01*
Y264803D01*
X48664Y266469D01*
X46998D01*
X45332D01*
X43666Y264803D01*
Y259805D01*
Y269802D02*
X48664D01*
X50330Y271468D01*
Y276466D01*
X51996D01*
X53663Y274800D01*
Y273134D01*
X50330Y276466D02*
X43666D01*
X40333Y296460D02*
Y289795D01*
X50330D01*
Y296460D01*
X45332Y289795D02*
Y293127D01*
X43666Y299792D02*
X50330D01*
X46998D01*
X45332Y301458D01*
X43666Y303124D01*
Y304790D01*
X50330Y309789D02*
Y313121D01*
Y311455D01*
X43666D01*
Y309789D01*
X50330Y318119D02*
X40333D01*
X46998D02*
X43666Y323118D01*
X46998Y318119D02*
X50330Y323118D01*
Y338113D02*
X40333D01*
X50330Y344777D01*
X40333D01*
X50330Y353108D02*
Y349776D01*
X48664Y348110D01*
X45332D01*
X43666Y349776D01*
Y353108D01*
X45332Y354774D01*
X46998D01*
Y348110D01*
X50330Y359773D02*
X42000D01*
X45332D01*
Y358106D01*
Y361439D01*
Y359773D01*
X42000D01*
X40333Y361439D01*
X50330Y368103D02*
X42000D01*
X45332D01*
Y366437D01*
Y369769D01*
Y368103D01*
X42000D01*
X40333Y369769D01*
X45332Y374768D02*
Y381432D01*
X40333Y391429D02*
Y384765D01*
X45332D01*
Y388097D01*
Y384765D01*
X50330D01*
Y394761D02*
Y398094D01*
Y396427D01*
X40333D01*
Y394761D01*
X43666Y404758D02*
Y408090D01*
X45332Y409757D01*
X50330D01*
Y404758D01*
X48664Y403092D01*
X46998Y404758D01*
Y409757D01*
X40333Y413089D02*
X50330D01*
X45332D01*
X43666Y414755D01*
Y418087D01*
X45332Y419753D01*
X50330D01*
X43666Y424752D02*
Y428084D01*
X45332Y429750D01*
X50330D01*
Y424752D01*
X48664Y423086D01*
X46998Y424752D01*
Y429750D01*
X50330Y433082D02*
X43666D01*
Y438081D01*
X45332Y439747D01*
X50330D01*
D15*
X628461Y360078D02*
X625922Y362617D01*
X620843D01*
X618304Y360078D01*
Y349922D01*
X620843Y347383D01*
X625922D01*
X628461Y349922D01*
X633539Y360078D02*
X636078Y362617D01*
X641157D01*
X643696Y360078D01*
Y349922D01*
X641157Y347383D01*
X636078D01*
X633539Y349922D01*
Y360078D01*
X629461Y509618D02*
X624383D01*
X626922D01*
Y496922D01*
X624383Y494383D01*
X621843D01*
X619304Y496922D01*
X634539Y507078D02*
X637078Y509618D01*
X642157D01*
X644696Y507078D01*
Y496922D01*
X642157Y494383D01*
X637078D01*
X634539Y496922D01*
Y507078D01*
D16*
X629332Y390398D02*
X620668D01*
X625000Y386067D02*
Y394730D01*
D17*
X619000Y530500D02*
X606304D01*
Y536848D01*
X608420Y538964D01*
X612652D01*
X614768Y536848D01*
Y530500D01*
Y534732D02*
X619000Y538964D01*
Y549544D02*
Y545312D01*
X616884Y543196D01*
X612652D01*
X610536Y545312D01*
Y549544D01*
X612652Y551660D01*
X614768D01*
Y543196D01*
X619000Y558008D02*
X608420D01*
X612652D01*
Y555892D01*
Y560124D01*
Y558008D01*
X608420D01*
X606304Y560124D01*
Y566472D02*
X619000D01*
Y572820D01*
X616884Y574936D01*
X608420D01*
X606304Y572820D01*
Y566472D01*
X619000Y585516D02*
Y581283D01*
X616884Y579168D01*
X612652D01*
X610536Y581283D01*
Y585516D01*
X612652Y587631D01*
X614768D01*
Y579168D01*
X619000Y591863D02*
Y598211D01*
X616884Y600327D01*
X614768Y598211D01*
Y593979D01*
X612652Y591863D01*
X610536Y593979D01*
Y600327D01*
X637000Y526500D02*
X624304D01*
Y532848D01*
X626420Y534964D01*
X630652D01*
X632768Y532848D01*
Y526500D01*
Y530732D02*
X637000Y534964D01*
X624304Y547660D02*
Y539196D01*
X637000D01*
Y547660D01*
X630652Y539196D02*
Y543428D01*
X624304Y560356D02*
Y551892D01*
X630652D01*
Y556124D01*
Y551892D01*
X637000D01*
X624304Y564588D02*
X637000D01*
Y570936D01*
X634884Y573052D01*
X626420D01*
X624304Y570936D01*
Y564588D01*
Y585747D02*
Y577284D01*
X637000D01*
Y585747D01*
X630652Y577284D02*
Y581516D01*
X626420Y598443D02*
X624304Y596327D01*
Y592095D01*
X626420Y589979D01*
X628536D01*
X630652Y592095D01*
Y596327D01*
X632768Y598443D01*
X634884D01*
X637000Y596327D01*
Y592095D01*
X634884Y589979D01*
M02*
