G04*
G04 #@! TF.GenerationSoftware,Altium Limited,Altium Designer,25.8.1 (18)*
G04*
G04 Layer_Color=6740479*
%FSLAX44Y44*%
%MOMM*%
G71*
G04*
G04 #@! TF.SameCoordinates,A8765012-30DD-40E1-B8F3-8E4BD0165297*
G04*
G04*
G04 #@! TF.FilePolarity,Positive*
G04*
G01*
G75*
%ADD10C,0.2000*%
%ADD11C,0.5080*%
G36*
X613265Y245266D02*
X613025D01*
Y244547D01*
X613265D01*
Y244068D01*
X613744D01*
Y244308D01*
X614223D01*
Y244547D01*
X614463D01*
Y244787D01*
X614703D01*
Y245027D01*
X614942D01*
Y244068D01*
X614703D01*
Y243589D01*
X615422D01*
Y243828D01*
X615661D01*
Y244068D01*
X615901D01*
Y243828D01*
X616141D01*
Y242870D01*
X615901D01*
Y242630D01*
X616380D01*
Y242870D01*
X616620D01*
Y243109D01*
X616859D01*
Y243349D01*
X617339D01*
Y243109D01*
X617578D01*
Y242630D01*
X617339D01*
Y241672D01*
X616859D01*
Y241432D01*
X616620D01*
Y240953D01*
X616859D01*
Y240713D01*
X617099D01*
Y240953D01*
X616859D01*
Y241192D01*
X617099D01*
Y240953D01*
X617339D01*
Y241192D01*
X617818D01*
Y241672D01*
X618058D01*
Y241911D01*
X618777D01*
Y241432D01*
X618537D01*
Y240713D01*
X618297D01*
Y240473D01*
X618058D01*
Y239994D01*
X617818D01*
Y239754D01*
X618537D01*
Y239994D01*
X619016D01*
Y240234D01*
X619256D01*
Y240473D01*
X619735D01*
Y240234D01*
X619975D01*
Y239994D01*
X619735D01*
Y239754D01*
X619496D01*
Y239515D01*
X619256D01*
Y238556D01*
X619975D01*
Y238316D01*
X620454D01*
Y238556D01*
X620694D01*
Y238796D01*
X621173D01*
Y239035D01*
X621413D01*
Y238556D01*
X621173D01*
Y238077D01*
X620933D01*
Y237358D01*
X621173D01*
Y237118D01*
X621413D01*
Y236160D01*
X621652D01*
Y235681D01*
X621892D01*
Y235441D01*
X622371D01*
Y235681D01*
X622611D01*
Y235920D01*
X623090D01*
Y236399D01*
X623569D01*
Y236160D01*
X623809D01*
Y235920D01*
X623569D01*
Y235441D01*
X623330D01*
Y235201D01*
X623090D01*
Y234961D01*
X622851D01*
Y234482D01*
X622611D01*
Y234243D01*
X623569D01*
Y234482D01*
X624049D01*
Y234722D01*
X624288D01*
Y234003D01*
X624049D01*
Y233763D01*
X623809D01*
Y233044D01*
X624049D01*
Y232565D01*
X623809D01*
Y232325D01*
X624528D01*
Y232565D01*
X625007D01*
Y233044D01*
X625247D01*
Y232805D01*
X625487D01*
Y232325D01*
X625247D01*
Y232086D01*
X625007D01*
Y231846D01*
X624768D01*
Y231607D01*
X624528D01*
Y230888D01*
X625007D01*
Y230408D01*
X623809D01*
Y230169D01*
X624049D01*
Y229929D01*
X624528D01*
Y230169D01*
X625247D01*
Y230408D01*
X625726D01*
Y230648D01*
X626206D01*
Y230888D01*
X626685D01*
Y230648D01*
X626925D01*
Y230408D01*
X626685D01*
Y230169D01*
X626445D01*
Y229929D01*
X626206D01*
Y229689D01*
X625966D01*
Y229450D01*
X625726D01*
Y229210D01*
X625487D01*
Y228970D01*
X625726D01*
Y228731D01*
X625007D01*
Y228491D01*
X624768D01*
Y228251D01*
X624528D01*
Y228012D01*
X625247D01*
Y228251D01*
X625487D01*
Y228491D01*
X625966D01*
Y228731D01*
X626206D01*
Y228970D01*
X627164D01*
Y228491D01*
X626925D01*
Y228251D01*
X626685D01*
Y228012D01*
X626445D01*
Y227533D01*
X626206D01*
Y226574D01*
X627164D01*
Y226814D01*
X627643D01*
Y227053D01*
X628362D01*
Y226814D01*
X628123D01*
Y226334D01*
X627643D01*
Y226095D01*
X627404D01*
Y225615D01*
X627164D01*
Y225136D01*
X627404D01*
Y224657D01*
X627643D01*
Y224896D01*
X628602D01*
Y224657D01*
X628362D01*
Y224417D01*
X628123D01*
Y223938D01*
X627883D01*
Y223698D01*
X627643D01*
Y223459D01*
X627404D01*
Y223219D01*
X627164D01*
Y222740D01*
X627404D01*
Y222979D01*
X628362D01*
Y222740D01*
X629561D01*
Y222260D01*
X629321D01*
Y221781D01*
X628842D01*
Y221541D01*
X628602D01*
Y221062D01*
X628842D01*
Y220823D01*
X629081D01*
Y220583D01*
X629321D01*
Y220823D01*
X629800D01*
Y220583D01*
X629561D01*
Y220103D01*
X629321D01*
Y219864D01*
X629081D01*
Y219624D01*
X628842D01*
Y219385D01*
X628602D01*
Y219145D01*
X628123D01*
Y218666D01*
X628602D01*
Y218905D01*
X629561D01*
Y218426D01*
X629081D01*
Y217947D01*
X628842D01*
Y217707D01*
X628362D01*
Y217467D01*
X628602D01*
Y216749D01*
X628842D01*
Y216509D01*
X628362D01*
Y217467D01*
X628123D01*
Y217228D01*
X627883D01*
Y216988D01*
X628123D01*
Y216509D01*
X628362D01*
Y216269D01*
X627883D01*
Y216509D01*
X627643D01*
Y216269D01*
X627404D01*
Y216030D01*
X627643D01*
Y215790D01*
X628602D01*
Y216030D01*
X628842D01*
Y216269D01*
X629321D01*
Y216030D01*
X629800D01*
Y215790D01*
X629561D01*
Y215550D01*
X629321D01*
Y215311D01*
X629081D01*
Y215071D01*
X628842D01*
Y214831D01*
X628123D01*
Y214592D01*
X627883D01*
Y214352D01*
X627404D01*
Y213873D01*
X627883D01*
Y213633D01*
X628362D01*
Y213873D01*
X629561D01*
Y214112D01*
X629800D01*
Y213633D01*
X629561D01*
Y213393D01*
X629081D01*
Y213154D01*
X628842D01*
Y212914D01*
X629081D01*
Y212675D01*
X628842D01*
Y212435D01*
X629081D01*
Y212195D01*
X628842D01*
Y211716D01*
X629081D01*
Y211956D01*
X629561D01*
Y212195D01*
X629800D01*
Y211716D01*
X629561D01*
Y211237D01*
X630280D01*
Y210997D01*
X630759D01*
Y211237D01*
X630998D01*
Y210997D01*
X631238D01*
Y210518D01*
X631478D01*
Y210278D01*
X631717D01*
Y210038D01*
X632197D01*
Y210278D01*
X632436D01*
Y209799D01*
X632676D01*
Y209080D01*
X632916D01*
Y208840D01*
X633395D01*
Y208601D01*
X633635D01*
Y208840D01*
X634114D01*
Y208601D01*
X634353D01*
Y208121D01*
X634114D01*
Y207642D01*
X635073D01*
Y207402D01*
X635312D01*
Y206204D01*
X635552D01*
Y205965D01*
X635791D01*
Y206204D01*
X636031D01*
Y205965D01*
X636271D01*
Y205725D01*
X636510D01*
Y205485D01*
X636750D01*
Y205006D01*
X636990D01*
Y204527D01*
X636750D01*
Y204047D01*
X637469D01*
Y203808D01*
X637709D01*
Y202609D01*
X638188D01*
Y202370D01*
X638428D01*
Y201891D01*
X638667D01*
Y201651D01*
X638428D01*
Y201411D01*
X638667D01*
Y201172D01*
X638428D01*
Y200692D01*
X638667D01*
Y200453D01*
X639386D01*
Y199494D01*
X639146D01*
Y199254D01*
X638907D01*
Y199015D01*
X639146D01*
Y198775D01*
X639626D01*
Y198056D01*
X639146D01*
Y197577D01*
X639386D01*
Y197098D01*
X639865D01*
Y196858D01*
X640105D01*
Y195899D01*
X639865D01*
Y195660D01*
X640105D01*
Y195180D01*
X640345D01*
Y194941D01*
X640105D01*
Y194701D01*
X639865D01*
Y194222D01*
X640105D01*
Y193503D01*
X640584D01*
Y192544D01*
X640105D01*
Y191346D01*
X640345D01*
Y190867D01*
X640105D01*
Y190148D01*
X640345D01*
Y189908D01*
X640105D01*
Y189669D01*
X640584D01*
Y188470D01*
X640345D01*
Y186793D01*
X640105D01*
Y186553D01*
X639865D01*
Y186314D01*
X640105D01*
Y184876D01*
X639865D01*
Y185115D01*
X639626D01*
Y184876D01*
X638907D01*
Y184636D01*
X637948D01*
Y184396D01*
X638188D01*
Y184157D01*
X638428D01*
Y184396D01*
X639865D01*
Y183678D01*
X639626D01*
Y183438D01*
X639386D01*
Y183198D01*
X639626D01*
Y182719D01*
X639386D01*
Y182000D01*
X639146D01*
Y181760D01*
X638907D01*
Y180322D01*
X638667D01*
Y180083D01*
X638428D01*
Y179843D01*
X637948D01*
Y179604D01*
X636990D01*
Y179124D01*
X636750D01*
Y178885D01*
X637229D01*
Y179124D01*
X637709D01*
Y178885D01*
X637948D01*
Y179124D01*
X638188D01*
Y178405D01*
X637948D01*
Y178166D01*
X637709D01*
Y177926D01*
X637469D01*
Y177686D01*
X637229D01*
Y177447D01*
X636750D01*
Y177207D01*
X636510D01*
Y176967D01*
X636271D01*
Y176728D01*
X636031D01*
Y176248D01*
X635791D01*
Y176009D01*
X635552D01*
Y176248D01*
X635073D01*
Y176009D01*
X635552D01*
Y175530D01*
X635791D01*
Y175050D01*
X635552D01*
Y174811D01*
X635312D01*
Y174571D01*
X634833D01*
Y174331D01*
X634353D01*
Y174092D01*
X633874D01*
Y173852D01*
X633635D01*
Y173133D01*
X633155D01*
Y172894D01*
X632916D01*
Y172654D01*
X632676D01*
Y172174D01*
X632916D01*
Y171935D01*
X632197D01*
Y171695D01*
X631717D01*
Y171456D01*
X631238D01*
Y171216D01*
X631478D01*
Y170737D01*
X631238D01*
Y170497D01*
X630998D01*
Y170257D01*
X630519D01*
Y170497D01*
X630040D01*
Y170257D01*
X629561D01*
Y170018D01*
X629081D01*
Y169778D01*
X628602D01*
Y169538D01*
X626206D01*
Y169778D01*
X625726D01*
Y169538D01*
X625007D01*
Y170018D01*
X624528D01*
Y169778D01*
X624049D01*
Y170018D01*
X623330D01*
Y170257D01*
X623090D01*
Y171216D01*
X622851D01*
Y171456D01*
X622611D01*
Y171216D01*
X622371D01*
Y171695D01*
X622611D01*
Y172414D01*
X622371D01*
Y172654D01*
X622611D01*
Y173373D01*
X622371D01*
Y177447D01*
X622611D01*
Y178645D01*
X622851D01*
Y179364D01*
X623090D01*
Y179604D01*
X623569D01*
Y180322D01*
X623809D01*
Y180562D01*
X624288D01*
Y180802D01*
X624528D01*
Y181041D01*
X624768D01*
Y181281D01*
X625007D01*
Y181521D01*
X625247D01*
Y182000D01*
X625487D01*
Y182240D01*
X625966D01*
Y182479D01*
X626445D01*
Y182719D01*
X626685D01*
Y182959D01*
X626925D01*
Y182719D01*
X627164D01*
Y182959D01*
X627404D01*
Y183198D01*
X628123D01*
Y183438D01*
X628602D01*
Y183678D01*
X629081D01*
Y183917D01*
X629561D01*
Y184157D01*
X629800D01*
Y184396D01*
X630040D01*
Y184636D01*
X630759D01*
Y184876D01*
X630998D01*
Y185115D01*
X631717D01*
Y185595D01*
X631957D01*
Y187272D01*
X632197D01*
Y187512D01*
X631957D01*
Y188231D01*
X632197D01*
Y188950D01*
X632436D01*
Y189669D01*
X632676D01*
Y190388D01*
X632916D01*
Y191346D01*
X632676D01*
Y192065D01*
X632436D01*
Y192544D01*
X632197D01*
Y192784D01*
X631957D01*
Y193024D01*
X631478D01*
Y193263D01*
X630519D01*
Y193503D01*
X629561D01*
Y193743D01*
X628842D01*
Y193982D01*
X628362D01*
Y194222D01*
X627883D01*
Y194461D01*
X627404D01*
Y194701D01*
X627164D01*
Y194941D01*
X626925D01*
Y195180D01*
X626445D01*
Y195420D01*
X625966D01*
Y195660D01*
X625726D01*
Y195899D01*
X625247D01*
Y196379D01*
X625007D01*
Y197098D01*
X624528D01*
Y197337D01*
X624288D01*
Y197817D01*
X624528D01*
Y198775D01*
X624768D01*
Y199494D01*
X624288D01*
Y199254D01*
X624528D01*
Y199015D01*
X624288D01*
Y198775D01*
X624049D01*
Y198296D01*
X623809D01*
Y199015D01*
X623569D01*
Y198775D01*
X623330D01*
Y198296D01*
X623090D01*
Y197817D01*
X622851D01*
Y197337D01*
X622611D01*
Y197098D01*
X622371D01*
Y196858D01*
X622132D01*
Y196618D01*
X622371D01*
Y196379D01*
X621892D01*
Y195899D01*
X621652D01*
Y195660D01*
X621413D01*
Y195180D01*
X621173D01*
Y194941D01*
X620933D01*
Y194222D01*
X620454D01*
Y194701D01*
X620215D01*
Y194222D01*
X619975D01*
Y193982D01*
X619735D01*
Y193743D01*
X619496D01*
Y195899D01*
X619735D01*
Y196379D01*
X619975D01*
Y196858D01*
X620215D01*
Y197577D01*
X620454D01*
Y197817D01*
X620694D01*
Y198296D01*
X620933D01*
Y199494D01*
X621173D01*
Y199973D01*
X621413D01*
Y200692D01*
X621652D01*
Y200932D01*
X621413D01*
Y201411D01*
X621652D01*
Y201891D01*
X621413D01*
Y202849D01*
X621173D01*
Y203089D01*
X620933D01*
Y203328D01*
X620694D01*
Y203568D01*
X620454D01*
Y203808D01*
X619975D01*
Y204047D01*
X619496D01*
Y204287D01*
X619256D01*
Y204527D01*
X619016D01*
Y204766D01*
X618297D01*
Y205006D01*
X617578D01*
Y205245D01*
X617339D01*
Y205485D01*
X616859D01*
Y205725D01*
X616620D01*
Y205965D01*
X616380D01*
Y206204D01*
X616141D01*
Y206444D01*
X615901D01*
Y206923D01*
X615661D01*
Y207402D01*
X615182D01*
Y208601D01*
X614942D01*
Y210518D01*
X615182D01*
Y211237D01*
X615661D01*
Y211956D01*
X615901D01*
Y212195D01*
X616141D01*
Y212435D01*
X616380D01*
Y212914D01*
X616620D01*
Y213154D01*
X617339D01*
Y213633D01*
X617818D01*
Y214112D01*
X618537D01*
Y214592D01*
X618777D01*
Y214831D01*
X619016D01*
Y215071D01*
X619256D01*
Y215311D01*
X619496D01*
Y215550D01*
X619735D01*
Y216269D01*
X620215D01*
Y216749D01*
X620454D01*
Y217228D01*
X620694D01*
Y217947D01*
X620933D01*
Y218666D01*
X620694D01*
Y219385D01*
X620454D01*
Y219624D01*
X620215D01*
Y220103D01*
X619975D01*
Y220583D01*
X619735D01*
Y221062D01*
X619496D01*
Y221302D01*
X619256D01*
Y221781D01*
X619016D01*
Y222021D01*
X618777D01*
Y222500D01*
X618537D01*
Y222740D01*
X618058D01*
Y222979D01*
X617339D01*
Y223219D01*
X616859D01*
Y223459D01*
X616620D01*
Y223698D01*
X615182D01*
Y223938D01*
X613025D01*
Y224177D01*
X610389D01*
Y224417D01*
X609670D01*
Y224657D01*
X609431D01*
Y224896D01*
X609191D01*
Y225136D01*
X608712D01*
Y225376D01*
X608472D01*
Y226814D01*
X608232D01*
Y229450D01*
X608472D01*
Y229689D01*
X608232D01*
Y229929D01*
X608472D01*
Y230648D01*
X608712D01*
Y231127D01*
X608951D01*
Y231846D01*
X609191D01*
Y232805D01*
X608951D01*
Y234243D01*
X608712D01*
Y234961D01*
X608472D01*
Y235201D01*
X607993D01*
Y235441D01*
X607753D01*
Y235681D01*
X607274D01*
Y235920D01*
X607034D01*
Y236160D01*
X606794D01*
Y236399D01*
X606555D01*
Y236639D01*
X606315D01*
Y236879D01*
X606075D01*
Y237118D01*
X605836D01*
Y237358D01*
X605356D01*
Y238077D01*
X605117D01*
Y238316D01*
X604877D01*
Y239035D01*
X604638D01*
Y239515D01*
X604398D01*
Y240713D01*
X604638D01*
Y241192D01*
X604877D01*
Y241432D01*
X605117D01*
Y241672D01*
X605356D01*
Y242151D01*
X605596D01*
Y242630D01*
X605836D01*
Y242870D01*
X606075D01*
Y243109D01*
X606315D01*
Y243349D01*
X606555D01*
Y243589D01*
X607034D01*
Y243828D01*
X607274D01*
Y244068D01*
X607513D01*
Y244308D01*
X607753D01*
Y244547D01*
X609431D01*
Y245027D01*
X608951D01*
Y245266D01*
X609191D01*
Y245506D01*
X609431D01*
Y245746D01*
X609910D01*
Y245506D01*
X610149D01*
Y245746D01*
X610389D01*
Y245985D01*
X610629D01*
Y245746D01*
X610868D01*
Y245985D01*
X611348D01*
Y245506D01*
X611827D01*
Y245746D01*
X612066D01*
Y245985D01*
X612306D01*
Y245506D01*
X612066D01*
Y245266D01*
X611827D01*
Y244787D01*
X612306D01*
Y245266D01*
X612546D01*
Y245746D01*
X612785D01*
Y245985D01*
X613265D01*
Y245266D01*
D02*
G37*
G36*
X622132Y238077D02*
X622371D01*
Y237598D01*
X622132D01*
Y237118D01*
X621413D01*
Y237837D01*
X621652D01*
Y238077D01*
X621892D01*
Y238316D01*
X622132D01*
Y238077D01*
D02*
G37*
G36*
X601762Y235201D02*
X602001D01*
Y234722D01*
X602241D01*
Y234243D01*
X602481D01*
Y233763D01*
X602720D01*
Y232565D01*
X602960D01*
Y231127D01*
X603200D01*
Y228970D01*
X603439D01*
Y228731D01*
X603200D01*
Y228251D01*
X603439D01*
Y227533D01*
X603200D01*
Y227293D01*
X603439D01*
Y226574D01*
X603200D01*
Y223698D01*
X602960D01*
Y222260D01*
X602720D01*
Y221781D01*
X602960D01*
Y221541D01*
X602720D01*
Y221302D01*
X602481D01*
Y220343D01*
X602241D01*
Y219864D01*
X602481D01*
Y218666D01*
X602241D01*
Y218186D01*
X602001D01*
Y218426D01*
X601762D01*
Y218186D01*
X602001D01*
Y217707D01*
X601762D01*
Y217467D01*
X602001D01*
Y216749D01*
X602481D01*
Y216269D01*
X602720D01*
Y215790D01*
X603200D01*
Y215311D01*
X603919D01*
Y215071D01*
X604158D01*
Y215311D01*
X603919D01*
Y215550D01*
X604158D01*
Y215311D01*
X604398D01*
Y215550D01*
X604877D01*
Y215071D01*
X605596D01*
Y214831D01*
X606075D01*
Y214592D01*
X606315D01*
Y214352D01*
X606794D01*
Y214112D01*
X607274D01*
Y213633D01*
X607513D01*
Y213154D01*
X607753D01*
Y212675D01*
X607993D01*
Y211956D01*
X608232D01*
Y210997D01*
X608472D01*
Y208840D01*
X608232D01*
Y208121D01*
X607993D01*
Y207642D01*
X607753D01*
Y206923D01*
X607513D01*
Y206683D01*
X607274D01*
Y205485D01*
X607034D01*
Y205245D01*
X606555D01*
Y204766D01*
X606315D01*
Y204527D01*
X606075D01*
Y204287D01*
X605836D01*
Y203568D01*
X605596D01*
Y203328D01*
X605356D01*
Y203089D01*
X605117D01*
Y202609D01*
X604877D01*
Y202370D01*
X604638D01*
Y202130D01*
X604398D01*
Y201891D01*
X604158D01*
Y201411D01*
X603679D01*
Y201172D01*
X603439D01*
Y200932D01*
X603200D01*
Y200692D01*
X602960D01*
Y200932D01*
X602720D01*
Y201411D01*
X601522D01*
Y201651D01*
X601283D01*
Y202130D01*
X601043D01*
Y203089D01*
X600803D01*
Y204047D01*
X600564D01*
Y204287D01*
X600324D01*
Y204766D01*
X600084D01*
Y205006D01*
X599845D01*
Y205485D01*
X599605D01*
Y205725D01*
X599365D01*
Y205965D01*
X599605D01*
Y206204D01*
X599126D01*
Y206444D01*
X598886D01*
Y206683D01*
X598646D01*
Y206923D01*
X598886D01*
Y207163D01*
X598646D01*
Y208121D01*
X598407D01*
Y208361D01*
X598167D01*
Y208601D01*
X597928D01*
Y208361D01*
X597448D01*
Y208121D01*
X596490D01*
Y207882D01*
X595531D01*
Y207642D01*
X593374D01*
Y207882D01*
X591936D01*
Y207642D01*
X591697D01*
Y207402D01*
X591457D01*
Y207642D01*
X590978D01*
Y208361D01*
X590738D01*
Y208121D01*
X590259D01*
Y208361D01*
X590019D01*
Y207882D01*
X589540D01*
Y208121D01*
X589300D01*
Y208361D01*
X588581D01*
Y208601D01*
X588102D01*
Y209080D01*
X587862D01*
Y208840D01*
X587383D01*
Y209080D01*
X586424D01*
Y210038D01*
X586664D01*
Y210518D01*
X586904D01*
Y210997D01*
X587383D01*
Y211237D01*
X587144D01*
Y211716D01*
X587383D01*
Y212195D01*
X587623D01*
Y212675D01*
X587862D01*
Y212914D01*
X588102D01*
Y213393D01*
X588342D01*
Y214112D01*
X588581D01*
Y214592D01*
X588821D01*
Y215071D01*
X589061D01*
Y215311D01*
X589300D01*
Y215790D01*
X589540D01*
Y216509D01*
X589780D01*
Y216749D01*
X590019D01*
Y217228D01*
X590259D01*
Y217707D01*
X590499D01*
Y217947D01*
X590738D01*
Y218426D01*
X590978D01*
Y218905D01*
X591217D01*
Y219145D01*
X591457D01*
Y219385D01*
X591217D01*
Y219624D01*
X591697D01*
Y220103D01*
X591936D01*
Y220583D01*
X592176D01*
Y221062D01*
X592416D01*
Y221781D01*
X592655D01*
Y222260D01*
X593135D01*
Y222740D01*
X593374D01*
Y223459D01*
X593614D01*
Y223938D01*
X593853D01*
Y224177D01*
X594093D01*
Y224657D01*
X594333D01*
Y224896D01*
X594572D01*
Y225376D01*
X594812D01*
Y225615D01*
X595052D01*
Y226334D01*
X595291D01*
Y226574D01*
X595531D01*
Y227053D01*
X595771D01*
Y227533D01*
X596010D01*
Y228012D01*
X596250D01*
Y228251D01*
X596490D01*
Y228731D01*
X596729D01*
Y229210D01*
X596969D01*
Y229689D01*
X597209D01*
Y229929D01*
X597448D01*
Y230408D01*
X597688D01*
Y230648D01*
X597928D01*
Y231127D01*
X598167D01*
Y231367D01*
X598407D01*
Y231846D01*
X598646D01*
Y232086D01*
X598886D01*
Y232325D01*
X599126D01*
Y232805D01*
X599365D01*
Y233284D01*
X599605D01*
Y233524D01*
X599845D01*
Y233763D01*
X600084D01*
Y234482D01*
X600324D01*
Y234961D01*
X600564D01*
Y235201D01*
X600803D01*
Y235441D01*
X601762D01*
Y235201D01*
D02*
G37*
G36*
X602001Y218186D02*
D01*
D01*
D01*
D01*
D02*
G37*
G36*
X629321Y216749D02*
X629081D01*
Y216988D01*
X629321D01*
Y216749D01*
D02*
G37*
G36*
X628602Y214352D02*
X628362D01*
Y214592D01*
X628602D01*
Y214352D01*
D02*
G37*
G36*
X587144Y203808D02*
X587623D01*
Y203568D01*
X588102D01*
Y204047D01*
X588342D01*
Y203808D01*
X588821D01*
Y203568D01*
X589780D01*
Y203808D01*
X590019D01*
Y203328D01*
X590259D01*
Y202849D01*
X590499D01*
Y202130D01*
X590738D01*
Y201891D01*
X590978D01*
Y202130D01*
X591217D01*
Y202370D01*
X590978D01*
Y202609D01*
X591697D01*
Y202370D01*
X592176D01*
Y202130D01*
X592416D01*
Y201891D01*
X592655D01*
Y201172D01*
X592895D01*
Y200453D01*
X593135D01*
Y199734D01*
X593374D01*
Y199973D01*
X593614D01*
Y199494D01*
X593853D01*
Y199015D01*
X594093D01*
Y198296D01*
X593853D01*
Y198775D01*
X593614D01*
Y199015D01*
Y199494D01*
X593135D01*
Y199254D01*
X593374D01*
Y198775D01*
X593614D01*
Y196858D01*
X593374D01*
Y196379D01*
X593135D01*
Y195420D01*
X592895D01*
Y195180D01*
X593135D01*
Y194941D01*
X592895D01*
Y194701D01*
X592655D01*
Y193982D01*
X592416D01*
Y193743D01*
X592655D01*
Y193263D01*
X592416D01*
Y193024D01*
X592655D01*
Y192784D01*
X592416D01*
Y192305D01*
X592176D01*
Y191586D01*
X591936D01*
Y191346D01*
X591697D01*
Y191106D01*
X591217D01*
Y190867D01*
X591457D01*
Y190148D01*
X590978D01*
Y189669D01*
X590738D01*
Y189429D01*
X590499D01*
Y188950D01*
X590259D01*
Y188710D01*
X590019D01*
Y187991D01*
X589780D01*
Y187752D01*
X589540D01*
Y187272D01*
X589300D01*
Y186793D01*
X589061D01*
Y186314D01*
X588821D01*
Y186074D01*
X588581D01*
Y185595D01*
X588342D01*
Y185115D01*
X588102D01*
Y184876D01*
X587862D01*
Y184157D01*
X587623D01*
Y183678D01*
X587383D01*
Y183198D01*
X587144D01*
Y182959D01*
X586904D01*
Y182479D01*
X587144D01*
Y182000D01*
X586904D01*
Y181521D01*
X587144D01*
Y181041D01*
X586664D01*
Y180802D01*
X586904D01*
Y178405D01*
X586664D01*
Y177926D01*
X586424D01*
Y177686D01*
X586185D01*
Y176967D01*
X585945D01*
Y176488D01*
X585706D01*
Y176248D01*
X585466D01*
Y175769D01*
X585706D01*
Y176009D01*
X586424D01*
Y176488D01*
X586664D01*
Y176248D01*
X586904D01*
Y176009D01*
X587144D01*
Y175769D01*
X587383D01*
Y176248D01*
X587623D01*
Y176488D01*
X587862D01*
Y176248D01*
X588342D01*
Y175769D01*
X588581D01*
Y175530D01*
X588821D01*
Y176248D01*
X589300D01*
Y176488D01*
X589780D01*
Y175769D01*
X590019D01*
Y175290D01*
X589540D01*
Y174811D01*
X589780D01*
Y174092D01*
X590019D01*
Y173852D01*
X589780D01*
Y173373D01*
X590259D01*
Y172654D01*
X590499D01*
Y172414D01*
X590738D01*
Y172174D01*
X591217D01*
Y171935D01*
X591936D01*
Y172174D01*
X591697D01*
Y172414D01*
X592416D01*
Y172174D01*
X592895D01*
Y171935D01*
X593135D01*
Y172174D01*
X593374D01*
Y171695D01*
X594333D01*
Y171456D01*
X594572D01*
Y171695D01*
X595052D01*
Y171935D01*
X595531D01*
Y171695D01*
X595771D01*
Y171456D01*
X596010D01*
Y171695D01*
X596250D01*
Y171456D01*
X596490D01*
Y171695D01*
X596969D01*
Y171456D01*
X597688D01*
Y171216D01*
X597928D01*
Y171456D01*
X598167D01*
Y171695D01*
X598646D01*
Y171216D01*
X599845D01*
Y171456D01*
X600564D01*
Y171216D01*
X601283D01*
Y170976D01*
X601762D01*
Y171216D01*
X602001D01*
Y170976D01*
X602241D01*
Y170497D01*
X603200D01*
Y170737D01*
X603679D01*
Y170257D01*
X604398D01*
Y170018D01*
X604638D01*
Y170257D01*
X605117D01*
Y170018D01*
X605356D01*
Y170257D01*
X606075D01*
Y170018D01*
X606794D01*
Y169778D01*
X607034D01*
Y170018D01*
X608232D01*
Y170497D01*
X607993D01*
Y171216D01*
X607753D01*
Y171456D01*
X607513D01*
Y172654D01*
X607274D01*
Y173612D01*
X607513D01*
Y173852D01*
X607034D01*
Y174331D01*
X607513D01*
Y174811D01*
X607753D01*
Y174571D01*
X607993D01*
Y174811D01*
X607753D01*
Y175050D01*
X607993D01*
Y175290D01*
X608232D01*
Y175530D01*
X608712D01*
Y175290D01*
X609191D01*
Y175530D01*
X610149D01*
Y175290D01*
X610629D01*
Y175050D01*
X611108D01*
Y175290D01*
X611348D01*
Y174811D01*
X611587D01*
Y175290D01*
X611827D01*
Y174811D01*
X612785D01*
Y174331D01*
X613025D01*
Y174092D01*
X613265D01*
Y172654D01*
X613744D01*
Y172174D01*
X613504D01*
Y172414D01*
X613265D01*
Y172174D01*
X613025D01*
Y171935D01*
X613265D01*
Y171695D01*
X613504D01*
Y170737D01*
X613265D01*
Y169538D01*
X613025D01*
Y169299D01*
X612785D01*
Y169059D01*
X611348D01*
Y168580D01*
X610868D01*
Y168820D01*
X610389D01*
Y168580D01*
X609910D01*
Y168820D01*
X608472D01*
Y168101D01*
X607274D01*
Y167861D01*
X607034D01*
Y167621D01*
X606794D01*
Y167861D01*
X606315D01*
Y167621D01*
X605836D01*
Y167382D01*
X605356D01*
Y167142D01*
X604877D01*
Y167382D01*
X604638D01*
Y167142D01*
X604158D01*
Y166902D01*
X602960D01*
Y166663D01*
X602720D01*
Y167142D01*
X602241D01*
Y166902D01*
X602001D01*
Y166423D01*
X601522D01*
Y166663D01*
X601043D01*
Y166423D01*
X599605D01*
Y166663D01*
X599365D01*
Y166423D01*
X599126D01*
Y166183D01*
X598886D01*
Y165944D01*
X598167D01*
Y165704D01*
X597448D01*
Y165944D01*
X596969D01*
Y165704D01*
X596490D01*
Y165464D01*
X596250D01*
Y165225D01*
X596010D01*
Y165464D01*
X595771D01*
Y165704D01*
X595531D01*
Y165464D01*
X594572D01*
Y165225D01*
X594093D01*
Y165464D01*
X593853D01*
Y165225D01*
X593135D01*
Y164985D01*
X592895D01*
Y164746D01*
X592416D01*
Y164985D01*
X592176D01*
Y165225D01*
X590978D01*
Y164985D01*
X590738D01*
Y164506D01*
X590499D01*
Y164746D01*
X589780D01*
Y164506D01*
X589540D01*
Y164266D01*
X589300D01*
Y164746D01*
X589061D01*
Y163787D01*
X588821D01*
Y163547D01*
X589061D01*
Y162349D01*
X589300D01*
Y162110D01*
X588821D01*
Y162349D01*
X588581D01*
Y161630D01*
X589300D01*
Y161390D01*
X588821D01*
Y161151D01*
X589540D01*
Y160911D01*
X589300D01*
Y160432D01*
X589061D01*
Y160192D01*
X589300D01*
Y159953D01*
X589061D01*
Y159234D01*
X589540D01*
Y159473D01*
X590019D01*
Y158754D01*
X590259D01*
Y158994D01*
X590499D01*
Y159234D01*
X590259D01*
Y159473D01*
X590499D01*
Y159234D01*
X590738D01*
Y158994D01*
X590978D01*
Y158754D01*
X591217D01*
Y158515D01*
X591936D01*
Y158275D01*
X592895D01*
Y158035D01*
X593614D01*
Y157796D01*
X593853D01*
Y158035D01*
X594093D01*
Y157796D01*
X594333D01*
Y157556D01*
X594812D01*
Y157317D01*
X596010D01*
Y157077D01*
X596250D01*
Y156598D01*
X596969D01*
Y156358D01*
X597448D01*
Y156118D01*
X597688D01*
Y155639D01*
X597928D01*
Y156118D01*
X598167D01*
Y155879D01*
X598646D01*
Y155639D01*
X598886D01*
Y155160D01*
X599126D01*
Y155399D01*
X599605D01*
Y155160D01*
X599845D01*
Y155399D01*
X600084D01*
Y155160D01*
X600324D01*
Y154920D01*
X600803D01*
Y154681D01*
X601043D01*
Y154441D01*
X601522D01*
Y154201D01*
X601283D01*
Y153961D01*
X601762D01*
Y154201D01*
X602241D01*
Y153722D01*
X603200D01*
Y153482D01*
X603679D01*
Y153003D01*
X604638D01*
Y152524D01*
X605117D01*
Y152284D01*
X604638D01*
Y152524D01*
X604158D01*
Y152763D01*
X603679D01*
Y153003D01*
X603200D01*
Y153243D01*
X602481D01*
Y153482D01*
X602241D01*
Y153722D01*
X602001D01*
Y153482D01*
X601522D01*
Y153722D01*
X601043D01*
Y153961D01*
X600564D01*
Y154201D01*
X600084D01*
Y154441D01*
X599605D01*
Y154681D01*
X598646D01*
Y154920D01*
X597928D01*
Y155160D01*
X597448D01*
Y155399D01*
X596969D01*
Y155639D01*
X596729D01*
Y155879D01*
X596250D01*
Y156118D01*
X595291D01*
Y156358D01*
X594572D01*
Y156598D01*
X594333D01*
Y156837D01*
X593614D01*
Y157077D01*
X592655D01*
Y157317D01*
X591936D01*
Y157556D01*
X591217D01*
Y157796D01*
X590499D01*
Y158035D01*
X589780D01*
Y158275D01*
X589061D01*
Y158515D01*
X588102D01*
Y158754D01*
X587623D01*
Y158994D01*
X587144D01*
Y158754D01*
X586904D01*
Y158994D01*
X586185D01*
Y159234D01*
X585466D01*
Y159473D01*
X584747D01*
Y159713D01*
X584268D01*
Y159473D01*
X584507D01*
Y158754D01*
X584987D01*
Y158275D01*
X585226D01*
Y158035D01*
X585466D01*
Y157796D01*
X585226D01*
Y157556D01*
X585466D01*
Y157077D01*
X585706D01*
Y157317D01*
X585945D01*
Y156598D01*
X586185D01*
Y156118D01*
X585945D01*
Y155879D01*
X586185D01*
Y155639D01*
X586424D01*
Y155399D01*
X586904D01*
Y154681D01*
X587144D01*
Y154441D01*
X587383D01*
Y154201D01*
X587623D01*
Y153961D01*
X586664D01*
Y153243D01*
X586904D01*
Y153003D01*
X587144D01*
Y152763D01*
X587383D01*
Y152524D01*
X587623D01*
Y152284D01*
X587862D01*
Y152044D01*
X588102D01*
Y151805D01*
X588342D01*
Y151565D01*
X588821D01*
Y151325D01*
X589061D01*
Y151086D01*
X588821D01*
Y150846D01*
X588581D01*
Y150367D01*
X588821D01*
Y149888D01*
X589300D01*
Y149648D01*
X589540D01*
Y149169D01*
X590259D01*
Y148929D01*
X590499D01*
Y148450D01*
X590259D01*
Y148689D01*
Y148929D01*
X590019D01*
Y148689D01*
X589780D01*
Y147970D01*
X590019D01*
Y147731D01*
X590259D01*
Y147252D01*
X590499D01*
Y147012D01*
X590738D01*
Y146532D01*
X590499D01*
Y146293D01*
X590978D01*
Y145334D01*
X591217D01*
Y144855D01*
X591457D01*
Y144376D01*
X591697D01*
Y143896D01*
X592416D01*
Y143657D01*
X592655D01*
Y142459D01*
X593135D01*
Y141740D01*
X592895D01*
Y141500D01*
X593135D01*
Y141260D01*
X593374D01*
Y141021D01*
X593614D01*
Y140781D01*
X594093D01*
Y140541D01*
X594333D01*
Y140302D01*
X594572D01*
Y140062D01*
X594812D01*
Y139343D01*
X595052D01*
Y139103D01*
X595291D01*
Y138385D01*
X595531D01*
Y137905D01*
X595771D01*
Y136707D01*
X595531D01*
Y135988D01*
X595291D01*
Y135749D01*
X595052D01*
Y134311D01*
X595291D01*
Y134071D01*
X595052D01*
Y133831D01*
X594812D01*
Y133592D01*
X594572D01*
Y134071D01*
X594333D01*
Y133831D01*
X593853D01*
Y134071D01*
X593614D01*
Y133352D01*
X593853D01*
Y133112D01*
X593135D01*
Y133831D01*
X592655D01*
Y133112D01*
X593135D01*
Y132873D01*
X591697D01*
Y132633D01*
X590978D01*
Y132873D01*
X590259D01*
Y132394D01*
X589780D01*
Y132633D01*
X589540D01*
Y132873D01*
X589300D01*
Y132633D01*
X589540D01*
Y132394D01*
X589300D01*
Y132633D01*
X589061D01*
Y132873D01*
X588581D01*
Y133592D01*
X588342D01*
Y133831D01*
X588102D01*
Y133352D01*
X588342D01*
Y133112D01*
X588102D01*
Y132873D01*
X588342D01*
Y132633D01*
X588102D01*
Y132394D01*
X587862D01*
Y132633D01*
X587623D01*
Y132873D01*
X587383D01*
Y132633D01*
X587144D01*
Y132873D01*
X586904D01*
Y132394D01*
X586664D01*
Y132154D01*
X586424D01*
Y131435D01*
X586185D01*
Y131674D01*
X585945D01*
Y131435D01*
X585466D01*
Y132394D01*
X585226D01*
Y132633D01*
X584987D01*
Y132873D01*
X584747D01*
Y133352D01*
X584507D01*
Y133831D01*
X584268D01*
Y134550D01*
X584028D01*
Y135030D01*
X583788D01*
Y135749D01*
X583549D01*
Y136228D01*
X583309D01*
Y136947D01*
X583069D01*
Y137426D01*
X582830D01*
Y138145D01*
X582590D01*
Y138624D01*
X582351D01*
Y139343D01*
X582111D01*
Y139823D01*
X581871D01*
Y140302D01*
X581632D01*
Y141021D01*
X581392D01*
Y141740D01*
X581152D01*
Y142219D01*
X580913D01*
Y142938D01*
X580673D01*
Y143417D01*
X580433D01*
Y144376D01*
X580194D01*
Y144855D01*
X579954D01*
Y145334D01*
X579715D01*
Y146053D01*
X579475D01*
Y146532D01*
X579235D01*
Y147491D01*
X578996D01*
Y147970D01*
X578756D01*
Y148689D01*
X578516D01*
Y149169D01*
X578277D01*
Y149648D01*
X578037D01*
Y150367D01*
X577797D01*
Y150846D01*
X577558D01*
Y151565D01*
X577318D01*
Y152524D01*
X577078D01*
Y153243D01*
X576839D01*
Y153722D01*
X576599D01*
Y154681D01*
X576359D01*
Y155639D01*
X576120D01*
Y156598D01*
X575880D01*
Y157796D01*
X575640D01*
Y159713D01*
X575401D01*
Y160911D01*
X575640D01*
Y161151D01*
X575401D01*
Y161390D01*
X574922D01*
Y161151D01*
X574682D01*
Y160911D01*
X574442D01*
Y160432D01*
X574203D01*
Y160192D01*
X573963D01*
Y159953D01*
X573723D01*
Y159713D01*
X573484D01*
Y159473D01*
X573244D01*
Y159234D01*
X573004D01*
Y158994D01*
X572765D01*
Y158754D01*
X572525D01*
Y158515D01*
X572285D01*
Y158275D01*
X572046D01*
Y158035D01*
X571806D01*
Y157796D01*
X571567D01*
Y157556D01*
X571087D01*
Y157317D01*
X570848D01*
Y156837D01*
X570608D01*
Y156598D01*
X570129D01*
Y156358D01*
X569889D01*
Y155879D01*
X569410D01*
Y155639D01*
X569170D01*
Y155399D01*
X568930D01*
Y155160D01*
X568691D01*
Y154920D01*
X568451D01*
Y154681D01*
X567972D01*
Y154920D01*
X567493D01*
Y155399D01*
X567732D01*
Y155879D01*
X568212D01*
Y156118D01*
X568451D01*
Y156358D01*
X568691D01*
Y156598D01*
X568930D01*
Y156837D01*
X569170D01*
Y157077D01*
X569410D01*
Y157317D01*
X569649D01*
Y157556D01*
X570129D01*
Y158035D01*
X570368D01*
Y158275D01*
X570608D01*
Y158515D01*
X570848D01*
Y158754D01*
X571087D01*
Y158994D01*
X571327D01*
Y159234D01*
X571567D01*
Y159713D01*
X571806D01*
Y159953D01*
X572046D01*
Y160192D01*
X572285D01*
Y160672D01*
X572525D01*
Y160911D01*
X572765D01*
Y161151D01*
X573004D01*
Y161390D01*
X573244D01*
Y161630D01*
X573484D01*
Y161870D01*
X573723D01*
Y162349D01*
X573963D01*
Y162828D01*
X574203D01*
Y163308D01*
X573723D01*
Y163547D01*
X572765D01*
Y163787D01*
X572285D01*
Y164027D01*
X572046D01*
Y164266D01*
X571806D01*
Y164506D01*
X571327D01*
Y164746D01*
X571087D01*
Y165225D01*
X570848D01*
Y165464D01*
X570608D01*
Y165704D01*
X570848D01*
Y165944D01*
X570608D01*
Y166183D01*
X570368D01*
Y165944D01*
X570129D01*
Y166183D01*
X569889D01*
Y165704D01*
X570129D01*
Y165464D01*
X569889D01*
Y165225D01*
X569410D01*
Y164746D01*
X569170D01*
Y164506D01*
X568691D01*
Y164266D01*
X568451D01*
Y164027D01*
X568212D01*
Y163787D01*
X567972D01*
Y163547D01*
X567732D01*
Y163308D01*
X567493D01*
Y163068D01*
X567253D01*
Y162828D01*
X567013D01*
Y162589D01*
X566774D01*
Y162110D01*
X566534D01*
Y161870D01*
X566294D01*
Y161390D01*
X566055D01*
Y160911D01*
X565815D01*
Y160672D01*
X565575D01*
Y160432D01*
X565336D01*
Y159953D01*
X565096D01*
Y159713D01*
X564856D01*
Y158994D01*
X564617D01*
Y158754D01*
X564377D01*
Y158275D01*
X564137D01*
Y157796D01*
X563898D01*
Y157077D01*
X563658D01*
Y156837D01*
X563419D01*
Y156598D01*
X563179D01*
Y155399D01*
X562939D01*
Y154920D01*
X562700D01*
Y154441D01*
X562460D01*
Y153961D01*
X562220D01*
Y153482D01*
X561981D01*
Y152763D01*
X561741D01*
Y152044D01*
X561501D01*
Y151325D01*
X561262D01*
Y150846D01*
X561022D01*
Y150127D01*
X560783D01*
Y149408D01*
X560543D01*
Y148929D01*
X560303D01*
Y148450D01*
X560064D01*
Y147731D01*
X559824D01*
Y147012D01*
X559584D01*
Y146532D01*
X559345D01*
Y146053D01*
X559105D01*
Y145574D01*
X558865D01*
Y145095D01*
X558626D01*
Y144855D01*
X558386D01*
Y144376D01*
X558146D01*
Y144136D01*
X557907D01*
Y143657D01*
X557667D01*
Y143177D01*
X557427D01*
Y142938D01*
X557188D01*
Y142459D01*
X556948D01*
Y142219D01*
X556708D01*
Y141979D01*
X556469D01*
Y141740D01*
X556229D01*
Y141260D01*
X555750D01*
Y141021D01*
X555510D01*
Y140541D01*
X555271D01*
Y140302D01*
X555031D01*
Y140062D01*
X554791D01*
Y139823D01*
X554552D01*
Y139583D01*
X554312D01*
Y139343D01*
X554072D01*
Y139103D01*
X553833D01*
Y138864D01*
X553354D01*
Y138624D01*
X553114D01*
Y139103D01*
X553354D01*
Y139343D01*
X553593D01*
Y139583D01*
X553833D01*
Y139823D01*
X554072D01*
Y140062D01*
X554312D01*
Y140302D01*
X554552D01*
Y140781D01*
X555031D01*
Y141021D01*
X555271D01*
Y141500D01*
X555510D01*
Y141740D01*
X555750D01*
Y141979D01*
X555990D01*
Y142219D01*
X556229D01*
Y142459D01*
X556469D01*
Y142698D01*
X556708D01*
Y142938D01*
X556948D01*
Y143417D01*
X557188D01*
Y143657D01*
X557427D01*
Y143896D01*
X557667D01*
Y144615D01*
X557907D01*
Y145095D01*
X558146D01*
Y145574D01*
X558386D01*
Y146053D01*
X558626D01*
Y146293D01*
X558865D01*
Y147012D01*
X559105D01*
Y147252D01*
X559345D01*
Y147970D01*
X559584D01*
Y148450D01*
X559824D01*
Y148689D01*
X560064D01*
Y149648D01*
X560303D01*
Y150127D01*
X560543D01*
Y151086D01*
X560783D01*
Y151805D01*
X561022D01*
Y152524D01*
X561262D01*
Y153243D01*
X561501D01*
Y153961D01*
X561741D01*
Y154681D01*
X561981D01*
Y155399D01*
X562220D01*
Y155879D01*
X562460D01*
Y156598D01*
X562700D01*
Y157077D01*
X562939D01*
Y157556D01*
X563179D01*
Y157796D01*
X563419D01*
Y158035D01*
X563658D01*
Y158754D01*
X563898D01*
Y159234D01*
X564137D01*
Y159473D01*
X564377D01*
Y159953D01*
X564617D01*
Y160192D01*
X564856D01*
Y160672D01*
X565096D01*
Y160911D01*
X565336D01*
Y161390D01*
X565575D01*
Y161630D01*
X565815D01*
Y161870D01*
X566055D01*
Y162349D01*
X566294D01*
Y162589D01*
X566534D01*
Y162828D01*
X566774D01*
Y163308D01*
X567013D01*
Y163547D01*
X567253D01*
Y163787D01*
X567493D01*
Y164027D01*
X567732D01*
Y164506D01*
X568212D01*
Y164985D01*
X568451D01*
Y165225D01*
X568691D01*
Y165464D01*
X568930D01*
Y165704D01*
X569170D01*
Y165944D01*
X569410D01*
Y166183D01*
X569649D01*
Y166663D01*
X569889D01*
Y166902D01*
X570129D01*
Y169778D01*
X570368D01*
Y170737D01*
X570129D01*
Y170976D01*
X569649D01*
Y171216D01*
X569170D01*
Y171456D01*
X568930D01*
Y171935D01*
X568212D01*
Y172174D01*
X567972D01*
Y172414D01*
X567732D01*
Y172654D01*
X567493D01*
Y172894D01*
X567253D01*
Y173373D01*
X567013D01*
Y173612D01*
X566534D01*
Y173852D01*
X566294D01*
Y174092D01*
X566055D01*
Y174331D01*
X565815D01*
Y174571D01*
X565575D01*
Y175050D01*
X565336D01*
Y175290D01*
X565096D01*
Y175530D01*
X564856D01*
Y176248D01*
X564377D01*
Y176728D01*
X564137D01*
Y176967D01*
X563898D01*
Y177207D01*
X563658D01*
Y177686D01*
X563419D01*
Y178166D01*
X563179D01*
Y178645D01*
X562939D01*
Y178885D01*
X562700D01*
Y179364D01*
X562460D01*
Y179604D01*
X562220D01*
Y180083D01*
X561981D01*
Y180562D01*
X561741D01*
Y181041D01*
X561501D01*
Y181521D01*
X561262D01*
Y182240D01*
X561022D01*
Y182719D01*
X560783D01*
Y182959D01*
X560543D01*
Y183678D01*
X560303D01*
Y184157D01*
X560064D01*
Y184636D01*
X559824D01*
Y185115D01*
X559584D01*
Y185355D01*
X559824D01*
Y185595D01*
X559584D01*
Y185834D01*
X559345D01*
Y186314D01*
X559105D01*
Y186793D01*
X558865D01*
Y187272D01*
X558626D01*
Y187991D01*
X558386D01*
Y188231D01*
X558146D01*
Y188710D01*
X557907D01*
Y189189D01*
X557667D01*
Y189669D01*
X557427D01*
Y190148D01*
X557188D01*
Y190627D01*
X556948D01*
Y191106D01*
X556708D01*
Y191346D01*
X556469D01*
Y191586D01*
X556229D01*
Y192065D01*
X555990D01*
Y192544D01*
X555750D01*
Y192784D01*
X555510D01*
Y193024D01*
X555271D01*
Y193263D01*
X555031D01*
Y193743D01*
X554791D01*
Y193982D01*
X554552D01*
Y194222D01*
X554312D01*
Y194461D01*
X554072D01*
Y194701D01*
X553833D01*
Y194941D01*
X553593D01*
Y195420D01*
X553114D01*
Y195899D01*
X552874D01*
Y196139D01*
X552395D01*
Y196618D01*
X551916D01*
Y197098D01*
X551676D01*
Y197337D01*
X551436D01*
Y197577D01*
X551197D01*
Y197817D01*
X551436D01*
Y197577D01*
X551676D01*
Y197337D01*
X552155D01*
Y197098D01*
X552395D01*
Y196858D01*
X552635D01*
Y196618D01*
X552874D01*
Y196379D01*
X553114D01*
Y196139D01*
X553354D01*
Y195899D01*
X553593D01*
Y195660D01*
X553833D01*
Y195180D01*
X554552D01*
Y194701D01*
X554791D01*
Y194461D01*
X555031D01*
Y193982D01*
X555510D01*
Y193503D01*
X555990D01*
Y193024D01*
X556229D01*
Y192784D01*
X556469D01*
Y192305D01*
X556708D01*
Y192065D01*
X556948D01*
Y191586D01*
X557188D01*
Y191346D01*
X557427D01*
Y191106D01*
X557667D01*
Y190388D01*
X557907D01*
Y189908D01*
X558386D01*
Y189429D01*
X558626D01*
Y188950D01*
X558865D01*
Y187991D01*
X559105D01*
Y187752D01*
X559345D01*
Y187272D01*
X559584D01*
Y186793D01*
X559824D01*
Y186074D01*
X560064D01*
Y185355D01*
X560543D01*
Y184876D01*
X560783D01*
Y184157D01*
X561022D01*
Y183678D01*
X561262D01*
Y182959D01*
X561501D01*
Y182719D01*
X561741D01*
Y181760D01*
X561981D01*
Y181521D01*
X562220D01*
Y180802D01*
X562460D01*
Y180562D01*
X562700D01*
Y180083D01*
X562939D01*
Y179843D01*
X563179D01*
Y179604D01*
X563419D01*
Y179124D01*
X563658D01*
Y178885D01*
X563898D01*
Y178405D01*
X564137D01*
Y178166D01*
X564377D01*
Y177447D01*
X564617D01*
Y177207D01*
X564856D01*
Y176728D01*
X565336D01*
Y176488D01*
X565575D01*
Y176009D01*
X566055D01*
Y175530D01*
X566294D01*
Y175290D01*
X566534D01*
Y175050D01*
X566774D01*
Y174811D01*
X567013D01*
Y174331D01*
X567253D01*
Y174092D01*
X567732D01*
Y173852D01*
X567972D01*
Y173612D01*
X568212D01*
Y173373D01*
X568451D01*
Y173133D01*
X568691D01*
Y172894D01*
X568930D01*
Y172654D01*
X569170D01*
Y172414D01*
X569649D01*
Y172174D01*
X569889D01*
Y171695D01*
X570608D01*
Y171456D01*
X571327D01*
Y171695D01*
X571567D01*
Y171935D01*
X571806D01*
Y172174D01*
X572046D01*
Y172414D01*
X572525D01*
Y172654D01*
X573004D01*
Y172894D01*
X573484D01*
Y173133D01*
X573963D01*
Y174331D01*
X573723D01*
Y174571D01*
X573484D01*
Y175530D01*
X572765D01*
Y175769D01*
X572525D01*
Y176248D01*
X572285D01*
Y176488D01*
X572046D01*
Y176728D01*
X571806D01*
Y177207D01*
X571567D01*
Y177447D01*
X571327D01*
Y177686D01*
X571087D01*
Y177926D01*
X570848D01*
Y178405D01*
X570608D01*
Y178645D01*
X570368D01*
Y178885D01*
X570129D01*
Y179124D01*
X569889D01*
Y179364D01*
X569649D01*
Y179604D01*
X569410D01*
Y179843D01*
X569170D01*
Y180083D01*
X568691D01*
Y180322D01*
X568451D01*
Y180562D01*
X568212D01*
Y180802D01*
X567972D01*
Y181041D01*
X567732D01*
Y181281D01*
X567253D01*
Y181521D01*
X567013D01*
Y181760D01*
X567253D01*
Y182240D01*
X567493D01*
Y182479D01*
X567972D01*
Y182719D01*
X568212D01*
Y182240D01*
X568451D01*
Y182000D01*
X568691D01*
Y181760D01*
X568930D01*
Y181521D01*
X569170D01*
Y181281D01*
X569649D01*
Y180802D01*
X570129D01*
Y180322D01*
X570608D01*
Y180083D01*
X570848D01*
Y179843D01*
X571087D01*
Y179604D01*
X571327D01*
Y179364D01*
X571567D01*
Y179124D01*
X571087D01*
Y178885D01*
X572046D01*
Y178645D01*
X572285D01*
Y178405D01*
X572525D01*
Y178166D01*
X572765D01*
Y177926D01*
X573004D01*
Y177686D01*
X573244D01*
Y177447D01*
X573723D01*
Y177207D01*
X573963D01*
Y176728D01*
X574442D01*
Y176967D01*
X574682D01*
Y177926D01*
X574922D01*
Y178405D01*
X575161D01*
Y179604D01*
X575401D01*
Y180322D01*
X575640D01*
Y181521D01*
X575880D01*
Y182000D01*
X576120D01*
Y182959D01*
X576359D01*
Y183198D01*
X576599D01*
Y184396D01*
X576839D01*
Y185115D01*
X577078D01*
Y185834D01*
X577318D01*
Y186793D01*
X577558D01*
Y187752D01*
X577797D01*
Y188470D01*
X578037D01*
Y189189D01*
X578277D01*
Y189669D01*
X578516D01*
Y190627D01*
X578756D01*
Y191346D01*
X578996D01*
Y192065D01*
X579235D01*
Y192305D01*
X579475D01*
Y193024D01*
X579715D01*
Y193503D01*
X579954D01*
Y193743D01*
X580194D01*
Y194461D01*
X580433D01*
Y195180D01*
X580673D01*
Y196139D01*
X580913D01*
Y196858D01*
X581152D01*
Y197098D01*
X581392D01*
Y198056D01*
X581632D01*
Y198775D01*
X581871D01*
Y199494D01*
X582111D01*
Y199734D01*
X582351D01*
Y200213D01*
X582590D01*
Y201172D01*
X582830D01*
Y201651D01*
X583069D01*
Y201411D01*
X583309D01*
Y202609D01*
X583549D01*
Y202849D01*
X584028D01*
Y203568D01*
X584268D01*
Y204047D01*
X584747D01*
Y204287D01*
X584987D01*
Y204047D01*
X585226D01*
Y203808D01*
X585706D01*
Y204287D01*
X587144D01*
Y203808D01*
D02*
G37*
G36*
X623330Y197098D02*
X623090D01*
Y197577D01*
X623330D01*
Y197098D01*
D02*
G37*
G36*
X623090Y196858D02*
X622851D01*
Y197098D01*
X623090D01*
Y196858D01*
D02*
G37*
G36*
X622851Y196618D02*
X622611D01*
Y196858D01*
X622851D01*
Y196618D01*
D02*
G37*
G36*
X605117Y192544D02*
X604877D01*
Y192784D01*
X605117D01*
Y192544D01*
D02*
G37*
G36*
X607513Y195899D02*
X607993D01*
Y195660D01*
X608472D01*
Y195420D01*
X608712D01*
Y194941D01*
X608472D01*
Y194461D01*
X608712D01*
Y194222D01*
X608472D01*
Y193982D01*
X608951D01*
Y193263D01*
X608712D01*
Y193024D01*
X608232D01*
Y192544D01*
X607993D01*
Y192305D01*
X607753D01*
Y192065D01*
X607513D01*
Y192305D01*
X607274D01*
Y192065D01*
X607513D01*
Y191825D01*
X607274D01*
Y192065D01*
X606555D01*
Y191825D01*
X605596D01*
Y192305D01*
X605356D01*
Y192784D01*
X605117D01*
Y193263D01*
X604877D01*
Y193982D01*
X604638D01*
Y194222D01*
X604877D01*
Y194941D01*
X605117D01*
Y195180D01*
X605356D01*
Y195420D01*
X605836D01*
Y195660D01*
X607034D01*
Y196139D01*
X607513D01*
Y195899D01*
D02*
G37*
G36*
X612785Y186793D02*
X613025D01*
Y186074D01*
X613265D01*
Y185834D01*
X613025D01*
Y185355D01*
X612785D01*
Y184157D01*
X612546D01*
Y183678D01*
X612306D01*
Y183438D01*
X612066D01*
Y182959D01*
X612306D01*
Y182719D01*
X612066D01*
Y182959D01*
X611827D01*
Y182719D01*
X612066D01*
Y182240D01*
X612306D01*
Y181760D01*
X612546D01*
Y182000D01*
X612785D01*
Y182240D01*
X613025D01*
Y181521D01*
X613504D01*
Y181041D01*
X613744D01*
Y180562D01*
X613504D01*
Y180083D01*
X613265D01*
Y179604D01*
X613025D01*
Y179364D01*
X612785D01*
Y179124D01*
X612546D01*
Y178885D01*
X612306D01*
Y178645D01*
X611827D01*
Y178405D01*
X611108D01*
Y178645D01*
X610868D01*
Y178166D01*
X611108D01*
Y177926D01*
X610868D01*
Y178166D01*
X610389D01*
Y177926D01*
X609910D01*
Y178166D01*
X609670D01*
Y177926D01*
X608951D01*
Y178166D01*
X608712D01*
Y178645D01*
X608472D01*
Y178885D01*
X607993D01*
Y179604D01*
X608232D01*
Y179843D01*
X607993D01*
Y180083D01*
X607753D01*
Y180562D01*
X607513D01*
Y181041D01*
X607753D01*
Y182000D01*
X607993D01*
Y182240D01*
X608232D01*
Y183438D01*
X607993D01*
Y184157D01*
X608232D01*
Y184396D01*
X608472D01*
Y184876D01*
X608951D01*
Y185115D01*
X609431D01*
Y185355D01*
X609670D01*
Y185595D01*
X610389D01*
Y185834D01*
X610629D01*
Y186074D01*
X611108D01*
Y186314D01*
X611587D01*
Y186553D01*
X611827D01*
Y186793D01*
X612306D01*
Y187033D01*
X612785D01*
Y186793D01*
D02*
G37*
G36*
X597448Y179604D02*
X597209D01*
Y179843D01*
X597448D01*
Y179604D01*
D02*
G37*
G36*
X596010Y179364D02*
X596250D01*
Y179124D01*
X595531D01*
Y179364D01*
X595291D01*
Y179604D01*
X596010D01*
Y179364D01*
D02*
G37*
G36*
X595291Y178645D02*
X595052D01*
Y178885D01*
X595291D01*
Y178645D01*
D02*
G37*
G36*
X594812D02*
X594333D01*
Y178885D01*
X594812D01*
Y178645D01*
D02*
G37*
G36*
X608472Y178405D02*
X608232D01*
Y178645D01*
X608472D01*
Y178405D01*
D02*
G37*
G36*
X593853Y177926D02*
X593614D01*
Y177686D01*
X592655D01*
Y177926D01*
X592895D01*
Y178166D01*
X593853D01*
Y177926D01*
D02*
G37*
G36*
X593374Y177207D02*
X593135D01*
Y177447D01*
X593374D01*
Y177207D01*
D02*
G37*
G36*
X592416Y177447D02*
X592176D01*
Y177207D01*
X591936D01*
Y177447D01*
X591697D01*
Y177686D01*
X592416D01*
Y177447D01*
D02*
G37*
G36*
X592895Y176728D02*
X592416D01*
Y176967D01*
X592655D01*
Y177207D01*
X592895D01*
Y176728D01*
D02*
G37*
G36*
X589780D02*
X589540D01*
Y176967D01*
X589780D01*
Y176728D01*
D02*
G37*
G36*
X589300D02*
X589061D01*
Y176488D01*
X588581D01*
Y176728D01*
X588821D01*
Y176967D01*
X589300D01*
Y176728D01*
D02*
G37*
G36*
X590499Y177447D02*
X590738D01*
Y177207D01*
X591217D01*
Y177447D01*
X591697D01*
Y176967D01*
X591936D01*
Y176728D01*
X592416D01*
Y176488D01*
X592176D01*
Y176248D01*
X591936D01*
Y176009D01*
X590738D01*
Y176248D01*
X590259D01*
Y176488D01*
X590019D01*
Y176967D01*
X590259D01*
Y177207D01*
X590019D01*
Y177686D01*
X590499D01*
Y177447D01*
D02*
G37*
G36*
X635552Y176009D02*
D01*
D01*
D01*
D01*
D02*
G37*
G36*
X590499Y175769D02*
X590259D01*
Y176009D01*
X590499D01*
Y175769D01*
D02*
G37*
G36*
X610629Y175530D02*
X610389D01*
Y176009D01*
X610629D01*
Y175530D01*
D02*
G37*
G36*
X590978D02*
X590738D01*
Y175769D01*
X590978D01*
Y175530D01*
D02*
G37*
G36*
X607753Y174811D02*
D01*
D01*
D01*
D01*
D02*
G37*
G36*
X590499Y173612D02*
X590259D01*
Y173852D01*
X590499D01*
Y173612D01*
D02*
G37*
G36*
X604158Y170497D02*
X603919D01*
Y170737D01*
X604158D01*
Y170497D01*
D02*
G37*
G36*
X613265Y168820D02*
X613025D01*
Y169059D01*
X613265D01*
Y168820D01*
D02*
G37*
G36*
X612546Y168580D02*
X612785D01*
Y168340D01*
X612306D01*
Y168820D01*
X612546D01*
Y168580D01*
D02*
G37*
G36*
X627643Y168101D02*
X627883D01*
Y167861D01*
X629321D01*
Y167621D01*
X629561D01*
Y167382D01*
X629800D01*
Y167142D01*
X629321D01*
Y166902D01*
X630280D01*
Y166663D01*
X630759D01*
Y166423D01*
X630998D01*
Y166183D01*
X631478D01*
Y165704D01*
X631957D01*
Y165464D01*
X632197D01*
Y165225D01*
X632436D01*
Y164985D01*
X632676D01*
Y164506D01*
X632916D01*
Y164266D01*
X632436D01*
Y164027D01*
X633395D01*
Y164266D01*
X633635D01*
Y164027D01*
X633874D01*
Y163547D01*
X634114D01*
Y163308D01*
X634353D01*
Y163068D01*
X634114D01*
Y162589D01*
X634833D01*
Y162349D01*
X635073D01*
Y162110D01*
X635312D01*
Y161390D01*
X635552D01*
Y161151D01*
X636031D01*
Y160911D01*
X636271D01*
Y160672D01*
X636510D01*
Y160432D01*
X636750D01*
Y159953D01*
X636031D01*
Y159473D01*
X636750D01*
Y159234D01*
X636990D01*
Y159473D01*
X637469D01*
Y159234D01*
X637709D01*
Y158754D01*
X637469D01*
Y158515D01*
X637709D01*
Y157796D01*
X638188D01*
Y157556D01*
X638667D01*
Y157077D01*
X638428D01*
Y156837D01*
X638188D01*
Y155879D01*
X638667D01*
Y155639D01*
X639146D01*
Y155399D01*
X639386D01*
Y155160D01*
X638907D01*
Y154920D01*
X638667D01*
Y154681D01*
X638907D01*
Y153961D01*
X638667D01*
Y153722D01*
X638907D01*
Y153482D01*
X639146D01*
Y153003D01*
X639626D01*
Y153243D01*
X639865D01*
Y152284D01*
X639146D01*
Y151565D01*
X639626D01*
Y151086D01*
X639146D01*
Y150127D01*
X639386D01*
Y149888D01*
X639865D01*
Y150127D01*
X640105D01*
Y149888D01*
X640345D01*
Y148929D01*
X640105D01*
Y148689D01*
X639865D01*
Y148210D01*
X639626D01*
Y147970D01*
X640105D01*
Y147731D01*
X640584D01*
Y147252D01*
X640105D01*
Y147491D01*
X639386D01*
Y147252D01*
X639626D01*
Y147012D01*
X639865D01*
Y146772D01*
X640105D01*
Y146532D01*
X640584D01*
Y146293D01*
X639865D01*
Y146053D01*
X640105D01*
Y145814D01*
X639626D01*
Y144855D01*
X639386D01*
Y142459D01*
X638667D01*
Y141979D01*
X638428D01*
Y141260D01*
X638667D01*
Y141021D01*
X638907D01*
Y140781D01*
X639146D01*
Y140541D01*
X639386D01*
Y140302D01*
X639146D01*
Y140541D01*
X638907D01*
Y140302D01*
X637948D01*
Y140062D01*
X637709D01*
Y139823D01*
X637948D01*
Y139343D01*
X638188D01*
Y138624D01*
X637709D01*
Y138864D01*
X637469D01*
Y138145D01*
X637709D01*
Y137666D01*
X637948D01*
Y137426D01*
X638188D01*
Y137186D01*
X636990D01*
Y136707D01*
X637229D01*
Y136228D01*
X637469D01*
Y135749D01*
X637229D01*
Y135509D01*
X636990D01*
Y135269D01*
X636750D01*
Y135030D01*
X636271D01*
Y135269D01*
X636031D01*
Y135509D01*
X635791D01*
Y135030D01*
X635552D01*
Y135269D01*
X635312D01*
Y134790D01*
X635552D01*
Y134311D01*
X635791D01*
Y134071D01*
X636271D01*
Y133831D01*
X635552D01*
Y133592D01*
X635312D01*
Y133352D01*
X635073D01*
Y132873D01*
X634833D01*
Y132394D01*
X634593D01*
Y132633D01*
X634353D01*
Y132394D01*
X633395D01*
Y131914D01*
X633635D01*
Y131674D01*
X633395D01*
Y131435D01*
X632916D01*
Y131195D01*
X632676D01*
Y130956D01*
X632916D01*
Y130476D01*
X632197D01*
Y130237D01*
X631957D01*
Y130956D01*
X631717D01*
Y130716D01*
X631478D01*
Y130956D01*
X631238D01*
Y131195D01*
X630759D01*
Y130956D01*
X630519D01*
Y130716D01*
X630280D01*
Y130476D01*
X630040D01*
Y130237D01*
X630280D01*
Y129757D01*
X630519D01*
Y129278D01*
X630998D01*
Y128559D01*
X630519D01*
Y127840D01*
X630759D01*
Y127601D01*
X631238D01*
Y127361D01*
X631478D01*
Y126642D01*
X630998D01*
Y126402D01*
X630759D01*
Y125683D01*
X631238D01*
Y125444D01*
X631717D01*
Y124725D01*
X631478D01*
Y124485D01*
X631717D01*
Y124246D01*
X631957D01*
Y123766D01*
X631717D01*
Y124006D01*
X630998D01*
Y123766D01*
X630759D01*
Y123047D01*
X631238D01*
Y122568D01*
X631478D01*
Y122808D01*
X631717D01*
Y123047D01*
X631957D01*
Y122089D01*
X631717D01*
Y122328D01*
X631478D01*
Y122089D01*
X630759D01*
Y121849D01*
X630998D01*
Y121609D01*
X631957D01*
Y120891D01*
X632197D01*
Y120651D01*
X631957D01*
Y120411D01*
X632197D01*
Y120172D01*
X631957D01*
Y119932D01*
X631717D01*
Y119692D01*
X631238D01*
Y119932D01*
X630759D01*
Y119692D01*
X630998D01*
Y119453D01*
X631238D01*
Y119213D01*
X631957D01*
Y118494D01*
X631717D01*
Y118734D01*
X631238D01*
Y118494D01*
X630998D01*
Y118254D01*
X630759D01*
Y118015D01*
X631717D01*
Y117775D01*
X631957D01*
Y117056D01*
X630759D01*
Y116817D01*
X630280D01*
Y116577D01*
X630519D01*
Y116098D01*
X630759D01*
Y115858D01*
X631238D01*
Y115618D01*
X631478D01*
Y115379D01*
X631717D01*
Y114899D01*
X631478D01*
Y115139D01*
X631238D01*
Y114660D01*
X631478D01*
Y114420D01*
X631238D01*
Y114180D01*
X631478D01*
Y113941D01*
X630759D01*
Y114180D01*
X630998D01*
Y114899D01*
X630759D01*
Y115139D01*
X630280D01*
Y114899D01*
X630040D01*
Y114420D01*
X630280D01*
Y114180D01*
X630519D01*
Y113941D01*
X630759D01*
Y113701D01*
X630998D01*
Y113222D01*
X631238D01*
Y112982D01*
X630759D01*
Y113222D01*
X630519D01*
Y113462D01*
X630280D01*
Y113222D01*
X630040D01*
Y112503D01*
X630280D01*
Y112263D01*
X630519D01*
Y112024D01*
X630759D01*
Y111784D01*
X630998D01*
Y111544D01*
X630759D01*
Y111784D01*
X629800D01*
Y111544D01*
X629561D01*
Y110825D01*
X629081D01*
Y110586D01*
X629561D01*
Y110346D01*
X629800D01*
Y110106D01*
X630040D01*
Y109867D01*
X630280D01*
Y109627D01*
X630519D01*
Y109388D01*
X630040D01*
Y109627D01*
X629081D01*
Y109388D01*
X628842D01*
Y109148D01*
X629321D01*
Y108669D01*
X629561D01*
Y108429D01*
X629800D01*
Y107950D01*
X630040D01*
Y108189D01*
X630280D01*
Y107710D01*
X629800D01*
Y107950D01*
X628842D01*
Y106751D01*
X629561D01*
Y106512D01*
X629800D01*
Y106272D01*
X630040D01*
Y106032D01*
X629561D01*
Y106272D01*
X627883D01*
Y106512D01*
X627404D01*
Y106032D01*
X627643D01*
Y106272D01*
X627883D01*
Y105553D01*
X628123D01*
Y105314D01*
X628602D01*
Y104834D01*
X628842D01*
Y104595D01*
X629081D01*
Y104115D01*
X629321D01*
Y103876D01*
X628602D01*
Y104115D01*
X628123D01*
Y103876D01*
X627883D01*
Y104115D01*
X627643D01*
Y103636D01*
X627883D01*
Y103396D01*
X628123D01*
Y102677D01*
X628602D01*
Y102438D01*
X628842D01*
Y102198D01*
X628123D01*
Y102438D01*
X627164D01*
Y102198D01*
X627404D01*
Y101959D01*
X627643D01*
Y101479D01*
X627883D01*
Y101240D01*
X628362D01*
Y100760D01*
X627164D01*
Y101000D01*
X626685D01*
Y101479D01*
X626206D01*
Y101719D01*
X625966D01*
Y101479D01*
X625726D01*
Y101240D01*
X625966D01*
Y101000D01*
X626206D01*
Y100760D01*
X626685D01*
Y100521D01*
X626925D01*
Y100041D01*
X627164D01*
Y99802D01*
X627404D01*
Y99323D01*
X627643D01*
Y99083D01*
X626925D01*
Y99323D01*
X626445D01*
Y99083D01*
X626206D01*
Y98364D01*
X626445D01*
Y97885D01*
X626685D01*
Y97645D01*
X626445D01*
Y97885D01*
X625726D01*
Y97166D01*
X625487D01*
Y96686D01*
X625726D01*
Y96447D01*
X625966D01*
Y96207D01*
X624768D01*
Y96447D01*
X624528D01*
Y95967D01*
X624768D01*
Y95248D01*
X624049D01*
Y95488D01*
X623569D01*
Y95248D01*
X623330D01*
Y94530D01*
X623569D01*
Y93571D01*
X623090D01*
Y93811D01*
X622851D01*
Y93331D01*
X623090D01*
Y92852D01*
X622132D01*
Y91894D01*
X621652D01*
Y91654D01*
X620933D01*
Y91414D01*
X620215D01*
Y91654D01*
X619975D01*
Y91174D01*
X620215D01*
Y90935D01*
X619975D01*
Y90456D01*
X619496D01*
Y90695D01*
X619016D01*
Y90216D01*
X618537D01*
Y89976D01*
X618058D01*
Y89737D01*
X616620D01*
Y89976D01*
X616859D01*
Y90216D01*
X616141D01*
Y89737D01*
X614942D01*
Y89976D01*
X613984D01*
Y90216D01*
X613265D01*
Y90456D01*
X612546D01*
Y90695D01*
X612066D01*
Y90935D01*
X611587D01*
Y91174D01*
X611348D01*
Y91414D01*
X610868D01*
Y91654D01*
X610629D01*
Y91894D01*
X610149D01*
Y92133D01*
X609910D01*
Y92373D01*
X609670D01*
Y92852D01*
X608951D01*
Y93092D01*
X608712D01*
Y93331D01*
X608232D01*
Y93571D01*
X607993D01*
Y93811D01*
X607753D01*
Y94050D01*
X607513D01*
Y94290D01*
X607274D01*
Y94530D01*
X607034D01*
Y94769D01*
X606555D01*
Y95009D01*
X606315D01*
Y95248D01*
X606075D01*
Y95728D01*
X605836D01*
Y95967D01*
X605596D01*
Y96686D01*
X605836D01*
Y96447D01*
X606075D01*
Y96926D01*
X606315D01*
Y96686D01*
X606794D01*
Y96926D01*
X607034D01*
Y97166D01*
X606794D01*
Y97645D01*
X606555D01*
Y97885D01*
X606794D01*
Y97645D01*
X607034D01*
Y98364D01*
X607274D01*
Y98843D01*
X607513D01*
Y99083D01*
X607753D01*
Y98843D01*
X607993D01*
Y99083D01*
X608472D01*
Y99802D01*
X608712D01*
Y100041D01*
X608951D01*
Y100281D01*
X609431D01*
Y100521D01*
X609670D01*
Y100760D01*
X609910D01*
Y100521D01*
X610149D01*
Y101000D01*
X610629D01*
Y101240D01*
X611108D01*
Y101479D01*
X611587D01*
Y101959D01*
X611827D01*
Y102438D01*
X612066D01*
Y102677D01*
X611827D01*
Y102917D01*
X612066D01*
Y103157D01*
X612306D01*
Y102917D01*
X612785D01*
Y102677D01*
X613025D01*
Y102438D01*
X613265D01*
Y102917D01*
X613504D01*
Y102438D01*
X613984D01*
Y102677D01*
X613744D01*
Y102917D01*
X613984D01*
Y102677D01*
X614223D01*
Y102917D01*
X613984D01*
Y103396D01*
X613504D01*
Y103636D01*
X613744D01*
Y104115D01*
X613265D01*
Y104834D01*
X613025D01*
Y105314D01*
X612785D01*
Y106032D01*
X612546D01*
Y106512D01*
X612306D01*
Y107470D01*
X612066D01*
Y108429D01*
X611587D01*
Y109388D01*
X611348D01*
Y109867D01*
X611108D01*
Y110106D01*
X611348D01*
Y110346D01*
X611587D01*
Y111305D01*
X611827D01*
Y111544D01*
X612066D01*
Y111784D01*
X612306D01*
Y112263D01*
X612785D01*
Y112743D01*
X613025D01*
Y112263D01*
X613265D01*
Y112024D01*
X613744D01*
Y112263D01*
X614223D01*
Y112024D01*
X614703D01*
Y112263D01*
X614942D01*
Y112503D01*
X615422D01*
Y112263D01*
X615661D01*
Y112503D01*
X615901D01*
Y112743D01*
X616380D01*
Y112503D01*
X616620D01*
Y112263D01*
X617339D01*
Y112024D01*
X617578D01*
Y111784D01*
X617818D01*
Y112024D01*
X618297D01*
Y112263D01*
X619016D01*
Y112743D01*
X619256D01*
Y112982D01*
X619496D01*
Y113222D01*
X620454D01*
Y113462D01*
X620694D01*
Y113701D01*
X620933D01*
Y113941D01*
X621173D01*
Y114180D01*
X621413D01*
Y115139D01*
X621652D01*
Y115618D01*
X621413D01*
Y118254D01*
X621173D01*
Y118973D01*
X620933D01*
Y120172D01*
X620694D01*
Y120891D01*
X620454D01*
Y121130D01*
X620215D01*
Y121370D01*
X619975D01*
Y121849D01*
X619496D01*
Y122089D01*
X619016D01*
Y122328D01*
X618777D01*
Y122568D01*
X619016D01*
Y122808D01*
X618537D01*
Y123047D01*
X618777D01*
Y123287D01*
X618297D01*
Y123766D01*
X618058D01*
Y124006D01*
X617578D01*
Y124485D01*
X617339D01*
Y124725D01*
X617099D01*
Y124965D01*
X616859D01*
Y125204D01*
X616620D01*
Y125923D01*
X616380D01*
Y126642D01*
X616141D01*
Y126882D01*
X616380D01*
Y127601D01*
X616141D01*
Y128799D01*
X615901D01*
Y129278D01*
X616380D01*
Y129997D01*
X616620D01*
Y130476D01*
X616859D01*
Y130956D01*
X617099D01*
Y131195D01*
X617339D01*
Y131674D01*
X617578D01*
Y132154D01*
X618058D01*
Y132394D01*
X618777D01*
Y132633D01*
X619016D01*
Y132873D01*
X619975D01*
Y133112D01*
X621173D01*
Y133352D01*
X621892D01*
Y133592D01*
X622851D01*
Y133831D01*
X623090D01*
Y134790D01*
X622851D01*
Y135030D01*
X623090D01*
Y135988D01*
X623330D01*
Y136228D01*
X623569D01*
Y136467D01*
X623330D01*
Y136947D01*
X623569D01*
Y137186D01*
X623809D01*
Y137426D01*
X623569D01*
Y137905D01*
X623809D01*
Y138145D01*
X624049D01*
Y138385D01*
X623809D01*
Y138624D01*
X624049D01*
Y138385D01*
X624288D01*
Y138864D01*
X624049D01*
Y140062D01*
X624288D01*
Y139823D01*
X624528D01*
Y139583D01*
X624768D01*
Y140062D01*
X624528D01*
Y140302D01*
X624288D01*
Y140541D01*
X624049D01*
Y140302D01*
X623809D01*
Y141021D01*
X623569D01*
Y141500D01*
X623809D01*
Y141740D01*
X623569D01*
Y142219D01*
X623330D01*
Y142938D01*
X623569D01*
Y143896D01*
X623809D01*
Y144376D01*
X624049D01*
Y144855D01*
X624288D01*
Y145574D01*
X624768D01*
Y145814D01*
X625007D01*
Y146053D01*
X625247D01*
Y146293D01*
X625487D01*
Y146532D01*
X626925D01*
Y146772D01*
X627164D01*
Y147012D01*
X627404D01*
Y146772D01*
X628362D01*
Y147012D01*
X628602D01*
Y146772D01*
X629081D01*
Y147252D01*
X629561D01*
Y147491D01*
X629800D01*
Y147731D01*
X630280D01*
Y147970D01*
X630759D01*
Y148210D01*
X630998D01*
Y148450D01*
X631238D01*
Y149169D01*
X631478D01*
Y149408D01*
X631717D01*
Y149648D01*
X631957D01*
Y149888D01*
X631717D01*
Y150127D01*
X631957D01*
Y152044D01*
X632197D01*
Y152524D01*
X631957D01*
Y153003D01*
X631717D01*
Y153482D01*
X631478D01*
Y153961D01*
X631238D01*
Y154681D01*
X630998D01*
Y155160D01*
X630759D01*
Y155399D01*
X630280D01*
Y155879D01*
X630040D01*
Y156118D01*
X629321D01*
Y156358D01*
X629081D01*
Y156598D01*
X628842D01*
Y156837D01*
X628362D01*
Y157077D01*
X628123D01*
Y157317D01*
X627883D01*
Y157556D01*
X627643D01*
Y157796D01*
X626925D01*
Y158035D01*
X626445D01*
Y158275D01*
X625726D01*
Y158515D01*
X625247D01*
Y158994D01*
X624528D01*
Y159473D01*
X624049D01*
Y159713D01*
X623809D01*
Y160192D01*
X623569D01*
Y160672D01*
X623330D01*
Y160911D01*
X623090D01*
Y161390D01*
X623330D01*
Y162110D01*
X622851D01*
Y162589D01*
X623090D01*
Y162828D01*
X622851D01*
Y163068D01*
X622611D01*
Y164506D01*
X622371D01*
Y164985D01*
X622611D01*
Y165944D01*
X622851D01*
Y166423D01*
X623090D01*
Y166902D01*
X623330D01*
Y167142D01*
X623569D01*
Y167382D01*
X624049D01*
Y167621D01*
X624288D01*
Y167861D01*
X624528D01*
Y168101D01*
X625007D01*
Y168340D01*
X625487D01*
Y168101D01*
X626925D01*
Y168340D01*
X627643D01*
Y168101D01*
D02*
G37*
G36*
X611587D02*
X611348D01*
Y168340D01*
X611587D01*
Y168101D01*
D02*
G37*
G36*
X610868D02*
X610629D01*
Y168340D01*
X610868D01*
Y168101D01*
D02*
G37*
G36*
X609191D02*
X609431D01*
Y167861D01*
X609191D01*
Y168101D01*
X608951D01*
Y168340D01*
X609191D01*
Y168101D01*
D02*
G37*
G36*
X608951Y167861D02*
X608712D01*
Y168101D01*
X608951D01*
Y167861D01*
D02*
G37*
G36*
X608712Y167621D02*
X608472D01*
Y167861D01*
X608712D01*
Y167621D01*
D02*
G37*
G36*
X610149Y166183D02*
X610629D01*
Y165944D01*
X611827D01*
Y165704D01*
X612306D01*
Y165464D01*
X612785D01*
Y165225D01*
X613025D01*
Y162828D01*
X612785D01*
Y162110D01*
X612306D01*
Y161870D01*
X612066D01*
Y162110D01*
X611827D01*
Y161870D01*
X612066D01*
Y161630D01*
X611827D01*
Y161390D01*
X611108D01*
Y161151D01*
X610149D01*
Y161390D01*
X609191D01*
Y161630D01*
X608951D01*
Y161870D01*
X609191D01*
Y162110D01*
X609431D01*
Y162349D01*
X608712D01*
Y162110D01*
X608472D01*
Y162589D01*
X608232D01*
Y162110D01*
X607993D01*
Y162589D01*
X607753D01*
Y163068D01*
X607513D01*
Y163308D01*
X607034D01*
Y163547D01*
X606794D01*
Y163787D01*
X607274D01*
Y164027D01*
X607034D01*
Y164266D01*
X607753D01*
Y164506D01*
X607513D01*
Y164746D01*
X607274D01*
Y164985D01*
X607034D01*
Y165225D01*
X607513D01*
Y165464D01*
X608232D01*
Y165704D01*
X608472D01*
Y165944D01*
X608712D01*
Y165704D01*
X609191D01*
Y165944D01*
X609431D01*
Y166183D01*
X608951D01*
Y166423D01*
X609431D01*
Y166183D01*
X609910D01*
Y166423D01*
X610149D01*
Y166183D01*
D02*
G37*
G36*
X600084Y165944D02*
X599605D01*
Y166183D01*
X600084D01*
Y165944D01*
D02*
G37*
G36*
X593853Y158275D02*
X593614D01*
Y158515D01*
X593853D01*
Y158275D01*
D02*
G37*
G36*
X613025Y151086D02*
Y150846D01*
X612785D01*
Y151325D01*
X613025D01*
Y151086D01*
D02*
G37*
G36*
X609670Y158275D02*
X610629D01*
Y158035D01*
X610868D01*
Y157796D01*
X611108D01*
Y157556D01*
X611348D01*
Y157317D01*
X611827D01*
Y157556D01*
X612066D01*
Y157317D01*
X612306D01*
Y157077D01*
X612066D01*
Y156837D01*
X612546D01*
Y155639D01*
X612306D01*
Y154681D01*
X612066D01*
Y154201D01*
X611827D01*
Y153961D01*
X611587D01*
Y152763D01*
X611827D01*
Y152524D01*
X612306D01*
Y152044D01*
X612546D01*
Y150846D01*
X612785D01*
Y150367D01*
X611587D01*
Y150127D01*
X610868D01*
Y150367D01*
X610149D01*
Y150606D01*
X609191D01*
Y151086D01*
X607753D01*
Y151325D01*
X607513D01*
Y151805D01*
X607274D01*
Y151325D01*
X607034D01*
Y151565D01*
X606794D01*
Y151805D01*
X606555D01*
Y152524D01*
X606315D01*
Y153003D01*
X606555D01*
Y153243D01*
X606794D01*
Y153482D01*
X607034D01*
Y153961D01*
X607274D01*
Y154201D01*
X607034D01*
Y154920D01*
X607274D01*
Y155160D01*
Y155879D01*
X607034D01*
Y156118D01*
X607274D01*
Y156358D01*
X607034D01*
Y156598D01*
X607274D01*
Y157317D01*
X607034D01*
Y157556D01*
X607274D01*
Y157796D01*
X607753D01*
Y158035D01*
X608232D01*
Y158275D01*
X608951D01*
Y158515D01*
X609431D01*
Y158754D01*
X609670D01*
Y158275D01*
D02*
G37*
G36*
X591217Y146293D02*
X590978D01*
Y146532D01*
X591217D01*
Y146293D01*
D02*
G37*
G36*
X640105Y143417D02*
X639865D01*
Y143657D01*
X640105D01*
Y143417D01*
D02*
G37*
G36*
X639865Y142219D02*
X639626D01*
Y142459D01*
X639865D01*
Y142219D01*
D02*
G37*
G36*
X593614Y141500D02*
X593374D01*
Y141740D01*
X593614D01*
Y141500D01*
D02*
G37*
G36*
X609191Y144136D02*
X609910D01*
Y143896D01*
X610389D01*
Y143657D01*
X610629D01*
Y142938D01*
X610868D01*
Y142219D01*
X610629D01*
Y141979D01*
X610389D01*
Y141500D01*
X610629D01*
Y140541D01*
X610389D01*
Y140302D01*
X610149D01*
Y139583D01*
X609910D01*
Y139343D01*
X609670D01*
Y138864D01*
X609191D01*
Y139103D01*
X608712D01*
Y138864D01*
X607993D01*
Y139103D01*
X607513D01*
Y139343D01*
X607274D01*
Y139583D01*
X607034D01*
Y139823D01*
X606794D01*
Y140302D01*
X606555D01*
Y141260D01*
X606794D01*
Y142938D01*
X607274D01*
Y143657D01*
X606794D01*
Y143896D01*
X608232D01*
Y144136D01*
X607993D01*
Y144376D01*
X609191D01*
Y144136D01*
D02*
G37*
G36*
X553114Y138385D02*
X552874D01*
Y138624D01*
X553114D01*
Y138385D01*
D02*
G37*
G36*
X595771Y134311D02*
X595531D01*
Y134550D01*
X595771D01*
Y134311D01*
D02*
G37*
G36*
X602720Y133592D02*
X602481D01*
Y133831D01*
Y134071D01*
X602720D01*
Y133592D01*
D02*
G37*
G36*
X593135Y133112D02*
D01*
D01*
D01*
D01*
D02*
G37*
G36*
X630998Y129518D02*
X630759D01*
Y129757D01*
X630998D01*
Y129518D01*
D02*
G37*
G36*
X615901Y128559D02*
X615661D01*
Y128799D01*
X615901D01*
Y128559D01*
D02*
G37*
G36*
X616141Y127361D02*
X615901D01*
Y127601D01*
X616141D01*
Y127361D01*
D02*
G37*
G36*
X596969Y126642D02*
X596729D01*
Y126882D01*
X596969D01*
Y126642D01*
D02*
G37*
G36*
X597688Y126402D02*
X597209D01*
Y126642D01*
X597688D01*
Y126402D01*
D02*
G37*
G36*
X588342Y125683D02*
X588102D01*
Y125923D01*
X588342D01*
Y125683D01*
D02*
G37*
G36*
X602001Y133112D02*
X601762D01*
Y132873D01*
X601522D01*
Y132633D01*
X601762D01*
Y132394D01*
X602241D01*
Y133112D01*
X602481D01*
Y133352D01*
X603200D01*
Y133112D01*
X603919D01*
Y132394D01*
X604158D01*
Y132154D01*
X604638D01*
Y131914D01*
X604877D01*
Y131674D01*
X605356D01*
Y130956D01*
X606075D01*
Y130476D01*
X606315D01*
Y129997D01*
X606794D01*
Y129757D01*
X607274D01*
Y129278D01*
X607513D01*
Y128799D01*
X607753D01*
Y128320D01*
X607993D01*
Y128080D01*
X608232D01*
Y126882D01*
X608712D01*
Y126642D01*
X608472D01*
Y126402D01*
X608712D01*
Y126163D01*
X608951D01*
Y125923D01*
X609431D01*
Y125444D01*
X609670D01*
Y124965D01*
X609191D01*
Y124725D01*
X609431D01*
Y124485D01*
X609670D01*
Y123766D01*
X609431D01*
Y124006D01*
X608951D01*
Y123527D01*
X609431D01*
Y123047D01*
X609191D01*
Y122568D01*
X608951D01*
Y122089D01*
X607993D01*
Y121849D01*
X608232D01*
Y121370D01*
X607753D01*
Y121130D01*
X607513D01*
Y120891D01*
X607274D01*
Y120651D01*
X607034D01*
Y120891D01*
X606315D01*
Y120172D01*
X606075D01*
Y119932D01*
X605836D01*
Y119692D01*
X605356D01*
Y119453D01*
X605117D01*
Y119213D01*
X604638D01*
Y118973D01*
X604158D01*
Y118734D01*
X603919D01*
Y118254D01*
X603679D01*
Y117775D01*
X603919D01*
Y117296D01*
X604158D01*
Y116817D01*
X604398D01*
Y116577D01*
X604158D01*
Y116337D01*
X604398D01*
Y115858D01*
X604158D01*
Y115379D01*
X604398D01*
Y114899D01*
X604638D01*
Y113941D01*
X604398D01*
Y113462D01*
X604638D01*
Y112503D01*
X604158D01*
Y112024D01*
X604398D01*
Y111544D01*
X603919D01*
Y111305D01*
X604158D01*
Y110106D01*
X603919D01*
Y109867D01*
X604158D01*
Y109388D01*
X603919D01*
Y108908D01*
X603679D01*
Y108669D01*
X603919D01*
Y107950D01*
X603679D01*
Y107470D01*
X603439D01*
Y106751D01*
X603200D01*
Y106512D01*
X602960D01*
Y105793D01*
X602720D01*
Y105553D01*
X602960D01*
Y105074D01*
X602481D01*
Y104115D01*
X602241D01*
Y104355D01*
X602001D01*
Y104834D01*
X601762D01*
Y104355D01*
X602001D01*
Y103636D01*
X602241D01*
Y103157D01*
X602001D01*
Y102677D01*
X601762D01*
Y102438D01*
X601522D01*
Y101959D01*
X601283D01*
Y101719D01*
X601043D01*
Y101959D01*
X600803D01*
Y102438D01*
X600564D01*
Y102677D01*
X600324D01*
Y103157D01*
X600084D01*
Y103396D01*
X599845D01*
Y103636D01*
X599605D01*
Y103876D01*
X599365D01*
Y104115D01*
X599126D01*
Y104595D01*
X598886D01*
Y105074D01*
X598646D01*
Y105314D01*
X598407D01*
Y105553D01*
X598167D01*
Y106032D01*
X597928D01*
Y106512D01*
X597688D01*
Y106751D01*
X597448D01*
Y107231D01*
X597209D01*
Y107710D01*
X596969D01*
Y108189D01*
X596729D01*
Y108669D01*
X596490D01*
Y108908D01*
X596250D01*
Y109388D01*
X596010D01*
Y109867D01*
X595771D01*
Y110346D01*
X595531D01*
Y110825D01*
X595291D01*
Y111305D01*
X595052D01*
Y111784D01*
X594812D01*
Y112263D01*
X594572D01*
Y112503D01*
X594333D01*
Y112982D01*
X594093D01*
Y113701D01*
X593853D01*
Y113941D01*
X593614D01*
Y114420D01*
X593374D01*
Y114660D01*
X593135D01*
Y115139D01*
X592895D01*
Y115618D01*
X592655D01*
Y116098D01*
X592416D01*
Y116337D01*
X592176D01*
Y117056D01*
X591936D01*
Y117535D01*
X591697D01*
Y118015D01*
X591457D01*
Y118494D01*
X591217D01*
Y119213D01*
X590978D01*
Y119453D01*
X590738D01*
Y119932D01*
X590499D01*
Y120411D01*
X590259D01*
Y121370D01*
X590019D01*
Y121849D01*
X589780D01*
Y122328D01*
X589540D01*
Y122568D01*
X589300D01*
Y123047D01*
X589061D01*
Y123766D01*
X588821D01*
Y124006D01*
X589061D01*
Y124246D01*
X588821D01*
Y124485D01*
X588581D01*
Y124725D01*
X588821D01*
Y124965D01*
X588581D01*
Y125683D01*
X588821D01*
Y125923D01*
X589780D01*
Y126163D01*
X589300D01*
Y126402D01*
X589540D01*
Y126642D01*
X590019D01*
Y126402D01*
X589780D01*
Y126163D01*
X590259D01*
Y126882D01*
X591217D01*
Y126642D01*
X591457D01*
Y127361D01*
X591936D01*
Y127121D01*
X592176D01*
Y126882D01*
X592416D01*
Y127121D01*
X592655D01*
Y127361D01*
X593135D01*
Y127121D01*
X593614D01*
Y126882D01*
X593853D01*
Y127121D01*
X593614D01*
Y127361D01*
X593853D01*
Y127121D01*
X594093D01*
Y127361D01*
X594572D01*
Y127121D01*
X595771D01*
Y127361D01*
X596010D01*
Y126642D01*
X596250D01*
Y126402D01*
X596729D01*
Y126163D01*
X597209D01*
Y125923D01*
X597688D01*
Y126163D01*
X598167D01*
Y125683D01*
X598407D01*
Y125444D01*
X598646D01*
Y125204D01*
X598886D01*
Y125444D01*
X599365D01*
Y125683D01*
X599605D01*
Y125923D01*
X599845D01*
Y126642D01*
X600084D01*
Y127361D01*
X600324D01*
Y127840D01*
X600564D01*
Y129038D01*
X600324D01*
Y129278D01*
X600564D01*
Y130237D01*
X600803D01*
Y132154D01*
X601043D01*
Y132394D01*
X600803D01*
Y132633D01*
X601043D01*
Y132873D01*
X601283D01*
Y133592D01*
X601762D01*
Y133831D01*
X602001D01*
Y133112D01*
D02*
G37*
G36*
X606794Y120411D02*
X606555D01*
Y120651D01*
X606794D01*
Y120411D01*
D02*
G37*
G36*
X631238Y116098D02*
X631478D01*
Y115858D01*
X631717D01*
Y115618D01*
X631478D01*
Y115858D01*
X631238D01*
Y116098D01*
X630998D01*
Y116337D01*
X631238D01*
Y116098D01*
D02*
G37*
G36*
X630759Y113941D02*
D01*
D01*
D01*
D01*
D02*
G37*
G36*
Y112743D02*
X630519D01*
Y112982D01*
X630759D01*
Y112743D01*
D02*
G37*
G36*
X627883Y106272D02*
D01*
D01*
D01*
D01*
D02*
G37*
G36*
X628362Y105793D02*
X628123D01*
Y106032D01*
X628362D01*
Y105793D01*
D02*
G37*
G36*
X602960Y104595D02*
X602720D01*
Y104834D01*
X602960D01*
Y104595D01*
D02*
G37*
G36*
X602001Y104355D02*
D01*
D01*
D01*
D01*
D02*
G37*
G36*
X606315Y97166D02*
X606075D01*
Y97405D01*
X606315D01*
Y97166D01*
D02*
G37*
%LPC*%
G36*
X609910Y245506D02*
X609670D01*
Y245266D01*
X609910D01*
Y245506D01*
D02*
G37*
G36*
X611827Y244547D02*
X611587D01*
Y244308D01*
X611827D01*
Y244547D01*
D02*
G37*
G36*
X613265Y244068D02*
X612785D01*
Y243349D01*
X613025D01*
Y243589D01*
X613265D01*
Y244068D01*
D02*
G37*
G36*
X614223Y242870D02*
X613984D01*
Y242630D01*
X614223D01*
Y242870D01*
D02*
G37*
G36*
X613025Y241432D02*
X612785D01*
Y241192D01*
X613025D01*
Y241432D01*
D02*
G37*
G36*
X606075Y240234D02*
X605836D01*
Y239994D01*
X606075D01*
Y240234D01*
D02*
G37*
G36*
X605836Y239994D02*
X605596D01*
Y239754D01*
X605836D01*
Y239994D01*
D02*
G37*
G36*
X619016Y238556D02*
X618537D01*
Y238316D01*
X618777D01*
Y237837D01*
X619016D01*
Y237598D01*
X619256D01*
Y237837D01*
X619496D01*
Y238077D01*
X619016D01*
Y238556D01*
D02*
G37*
G36*
X620215Y236879D02*
X619735D01*
Y236639D01*
X619975D01*
Y236399D01*
X619735D01*
Y236160D01*
X620215D01*
Y236879D01*
D02*
G37*
G36*
X621413Y235681D02*
X621173D01*
Y235441D01*
X621413D01*
Y235681D01*
D02*
G37*
G36*
X622132Y233763D02*
X621892D01*
Y233524D01*
X622132D01*
Y233763D01*
D02*
G37*
G36*
X623809Y232805D02*
X623330D01*
Y232565D01*
X623809D01*
Y232805D01*
D02*
G37*
G36*
X623330Y232086D02*
X623090D01*
Y231846D01*
X623330D01*
Y232086D01*
D02*
G37*
G36*
X625487Y226814D02*
X625007D01*
Y226334D01*
X625966D01*
Y226574D01*
X625487D01*
Y226814D01*
D02*
G37*
G36*
X627164Y225136D02*
X626925D01*
Y224896D01*
X627164D01*
Y225136D01*
D02*
G37*
G36*
X626925Y224896D02*
X626685D01*
Y224657D01*
X626925D01*
Y224896D01*
D02*
G37*
G36*
X625726Y224657D02*
X625487D01*
Y224177D01*
X625726D01*
Y224657D01*
D02*
G37*
G36*
X627164Y222740D02*
X626685D01*
Y222500D01*
X627164D01*
Y222740D01*
D02*
G37*
G36*
X627883Y222500D02*
X627643D01*
Y222260D01*
X627883D01*
Y222500D01*
D02*
G37*
G36*
X628602Y221062D02*
X628123D01*
Y220823D01*
X628362D01*
Y220583D01*
X628602D01*
Y221062D01*
D02*
G37*
G36*
X627883Y218905D02*
X627404D01*
Y218666D01*
X627883D01*
Y218905D01*
D02*
G37*
G36*
X627643Y216988D02*
X627404D01*
Y216749D01*
X627643D01*
Y216988D01*
D02*
G37*
G36*
X628602Y212914D02*
X628362D01*
Y212675D01*
X628602D01*
Y212914D01*
D02*
G37*
G36*
X628123Y212675D02*
X627883D01*
Y212435D01*
X628123D01*
Y212675D01*
D02*
G37*
G36*
X627883Y212435D02*
X627643D01*
Y212195D01*
X627883D01*
Y212435D01*
D02*
G37*
G36*
X627404D02*
X627164D01*
Y212195D01*
X627404D01*
Y212435D01*
D02*
G37*
G36*
X628362Y211237D02*
X627643D01*
Y210997D01*
X627164D01*
Y210757D01*
X626925D01*
Y210038D01*
X627164D01*
Y210518D01*
X627404D01*
Y210757D01*
X627643D01*
Y210518D01*
X627883D01*
Y210997D01*
X628362D01*
Y211237D01*
D02*
G37*
G36*
X627643Y210038D02*
X627404D01*
Y209799D01*
X627643D01*
Y209559D01*
X627883D01*
Y209799D01*
X627643Y210038D01*
D02*
G37*
G36*
X627404Y209799D02*
X627164D01*
Y209080D01*
X627404D01*
Y208840D01*
X627164D01*
Y208601D01*
X627643D01*
Y209080D01*
X627404D01*
Y209799D01*
D02*
G37*
G36*
X633155Y208601D02*
X632916D01*
Y208361D01*
X633155D01*
Y208601D01*
D02*
G37*
G36*
X627404Y208121D02*
X627164D01*
Y207642D01*
X627404D01*
Y208121D01*
D02*
G37*
G36*
X633395Y206923D02*
X633155D01*
Y206683D01*
X633395D01*
Y206923D01*
D02*
G37*
G36*
X634593Y205725D02*
X634353D01*
Y205485D01*
X634593D01*
Y205725D01*
D02*
G37*
G36*
X635073Y205965D02*
X634833D01*
Y205725D01*
X635073D01*
Y205485D01*
X634833D01*
Y205245D01*
X635312D01*
Y205725D01*
X635073D01*
Y205965D01*
D02*
G37*
G36*
X636750Y204047D02*
X636510D01*
Y203808D01*
X636750D01*
Y204047D01*
D02*
G37*
G36*
X636271Y203568D02*
X635791D01*
Y203328D01*
X635552D01*
Y203568D01*
X635312D01*
Y203089D01*
X635552D01*
Y202849D01*
X635791D01*
Y203089D01*
X636271D01*
Y203568D01*
D02*
G37*
G36*
X625966Y203328D02*
X625487D01*
Y203089D01*
X625247D01*
Y202609D01*
X625487D01*
Y202849D01*
X625966D01*
Y203328D01*
D02*
G37*
G36*
X637229Y202609D02*
X636990D01*
Y202370D01*
X636750D01*
Y202130D01*
X637229D01*
Y202609D01*
D02*
G37*
G36*
X625966Y202370D02*
X625726D01*
Y201891D01*
X625966D01*
Y202370D01*
D02*
G37*
G36*
X636750Y202130D02*
X636271D01*
Y201651D01*
X636510D01*
Y201891D01*
X636750D01*
Y202130D01*
D02*
G37*
G36*
X628123Y201891D02*
X627883D01*
Y201651D01*
X628123D01*
Y201891D01*
D02*
G37*
G36*
X625007D02*
X624768D01*
Y201651D01*
X625007D01*
Y201891D01*
D02*
G37*
G36*
X625487Y202130D02*
X625007D01*
Y201891D01*
X625247D01*
Y201651D01*
X625487D01*
Y201172D01*
X625726D01*
Y201891D01*
X625487D01*
Y202130D01*
D02*
G37*
G36*
X637709Y200692D02*
X637469D01*
Y200213D01*
X637709D01*
Y200692D01*
D02*
G37*
G36*
X624768Y200453D02*
X624528D01*
Y200213D01*
X624288D01*
Y199973D01*
X624768D01*
Y200453D01*
D02*
G37*
G36*
X637229Y199973D02*
X636990D01*
Y199734D01*
X637229D01*
Y199973D01*
D02*
G37*
G36*
X624288Y199734D02*
X624049D01*
Y199494D01*
X624288D01*
Y199734D01*
D02*
G37*
G36*
X638428Y198775D02*
X637948D01*
Y198535D01*
X638428D01*
Y198775D01*
D02*
G37*
G36*
X637709Y198535D02*
X637469D01*
Y198296D01*
X637709D01*
Y198535D01*
D02*
G37*
G36*
X637469Y198296D02*
X636990D01*
Y197817D01*
X637229D01*
Y198056D01*
X637469D01*
Y198296D01*
D02*
G37*
G36*
X638907Y197577D02*
X638667D01*
Y197337D01*
X638907D01*
Y197577D01*
D02*
G37*
G36*
X625247Y197337D02*
X625007D01*
Y197098D01*
X625247D01*
Y197337D01*
D02*
G37*
G36*
X621173Y196139D02*
X620933D01*
Y195899D01*
X621173D01*
Y196139D01*
D02*
G37*
G36*
X639865Y194222D02*
X639626D01*
Y193982D01*
X639865D01*
Y194222D01*
D02*
G37*
G36*
X639386Y193743D02*
X638667D01*
Y193503D01*
X639386D01*
Y193743D01*
D02*
G37*
G36*
X639626Y190148D02*
X639386D01*
Y189908D01*
X639146D01*
Y189189D01*
X639386D01*
Y189429D01*
X639865D01*
Y189669D01*
X639626D01*
Y190148D01*
D02*
G37*
G36*
X638667Y185834D02*
X638428D01*
Y185355D01*
X638667D01*
Y185834D01*
D02*
G37*
G36*
X638907Y183198D02*
X638667D01*
Y182959D01*
X638907D01*
Y183198D01*
D02*
G37*
G36*
X637229Y182719D02*
X636990D01*
Y182479D01*
X637229D01*
Y182719D01*
D02*
G37*
G36*
X625966Y181760D02*
X625726D01*
Y181521D01*
X625966D01*
Y181760D01*
D02*
G37*
G36*
X638188Y181521D02*
X637948D01*
Y181281D01*
X637709D01*
Y181041D01*
X638188D01*
Y181521D01*
D02*
G37*
G36*
X636510Y179364D02*
X636271D01*
Y179124D01*
X636510D01*
Y179364D01*
D02*
G37*
G36*
X635552Y179124D02*
X634833D01*
Y178885D01*
X635552D01*
Y179124D01*
D02*
G37*
G36*
X635073Y176009D02*
X634833D01*
Y175769D01*
X635073D01*
Y176009D01*
D02*
G37*
G36*
X633155Y173852D02*
X632916D01*
Y173612D01*
X633155D01*
Y173852D01*
D02*
G37*
G36*
X631238Y171216D02*
X630998D01*
Y170976D01*
X631238D01*
Y171216D01*
D02*
G37*
G36*
X602481Y222021D02*
X602241D01*
Y221781D01*
X602481D01*
Y222021D01*
D02*
G37*
G36*
X605836Y214592D02*
X605596D01*
Y213873D01*
X605836D01*
Y214592D01*
D02*
G37*
G36*
X587144Y210038D02*
X586904D01*
Y209799D01*
X587144D01*
Y210038D01*
D02*
G37*
G36*
X587623Y209559D02*
X587383D01*
Y209319D01*
X587623D01*
Y209559D01*
D02*
G37*
G36*
X584987Y203808D02*
X584507D01*
Y203568D01*
X584987D01*
Y203808D01*
D02*
G37*
G36*
X584507Y203568D02*
X584268D01*
Y203328D01*
X584507D01*
Y203568D01*
D02*
G37*
G36*
X587144Y203808D02*
X586664D01*
Y203568D01*
X586904D01*
Y203328D01*
X587144D01*
Y203808D01*
D02*
G37*
G36*
X587383Y203089D02*
X587144D01*
Y202609D01*
X587383D01*
Y203089D01*
D02*
G37*
G36*
X588581Y202849D02*
X588342D01*
Y202370D01*
X588581D01*
Y202849D01*
D02*
G37*
G36*
X583069Y198056D02*
X582830D01*
Y197817D01*
X583069D01*
Y198056D01*
D02*
G37*
G36*
X579715Y190867D02*
X579475D01*
Y190627D01*
X579715D01*
Y190867D01*
D02*
G37*
G36*
X578277Y187752D02*
X578037D01*
Y187512D01*
X578277D01*
Y187752D01*
D02*
G37*
G36*
X559345Y187272D02*
X559105D01*
Y187033D01*
X559345D01*
Y187272D01*
D02*
G37*
G36*
X577797Y186074D02*
X577558D01*
Y185834D01*
X577797D01*
Y186074D01*
D02*
G37*
G36*
X576120Y181041D02*
X575880D01*
Y180562D01*
X576120D01*
Y181041D01*
D02*
G37*
G36*
X585706Y180562D02*
X585466D01*
Y180083D01*
X585706D01*
Y180562D01*
D02*
G37*
G36*
X575880Y180083D02*
X575640D01*
Y179604D01*
X575880D01*
Y180083D01*
D02*
G37*
G36*
X571087Y178645D02*
X570848D01*
Y178405D01*
X571087D01*
Y178645D01*
D02*
G37*
G36*
X571806Y178405D02*
X571567D01*
Y178166D01*
X571806D01*
Y178405D01*
D02*
G37*
G36*
X571567Y178166D02*
X571327D01*
Y177926D01*
X571567D01*
Y178166D01*
D02*
G37*
G36*
X576359Y177207D02*
X576120D01*
Y176967D01*
X576359D01*
Y177207D01*
D02*
G37*
G36*
X572765Y177447D02*
X572525D01*
Y177207D01*
X572285D01*
Y176967D01*
X572765D01*
Y177447D01*
D02*
G37*
G36*
X589300Y176009D02*
X589061D01*
Y175769D01*
X589300D01*
Y176009D01*
D02*
G37*
G36*
X576120D02*
X575880D01*
Y175769D01*
X576120D01*
Y176009D01*
D02*
G37*
G36*
X588102D02*
X587623D01*
Y175769D01*
X587862D01*
Y175530D01*
X588102D01*
Y176009D01*
D02*
G37*
G36*
X588581Y175530D02*
X588102D01*
Y175290D01*
X588581D01*
Y175530D01*
D02*
G37*
G36*
X586904D02*
X586424D01*
Y175290D01*
X586664D01*
Y175050D01*
X586904D01*
Y175530D01*
D02*
G37*
G36*
X575161Y175290D02*
X574922D01*
Y175050D01*
X575161D01*
Y175290D01*
D02*
G37*
G36*
X608712Y175050D02*
X608232D01*
Y174811D01*
X608712D01*
Y175050D01*
D02*
G37*
G36*
X566294D02*
X566055D01*
Y174811D01*
X566294D01*
Y175050D01*
D02*
G37*
G36*
X587383D02*
X587144D01*
Y174811D01*
X587383D01*
Y174571D01*
X587623D01*
Y174811D01*
X587383D01*
Y175050D01*
D02*
G37*
G36*
X586185Y175769D02*
X585945D01*
Y175530D01*
X585226D01*
Y175290D01*
X585466D01*
Y175050D01*
X585706D01*
Y175290D01*
X585945D01*
Y174811D01*
X585706D01*
Y174571D01*
X585226D01*
Y175050D01*
X584987D01*
Y175290D01*
X584507D01*
Y175050D01*
X584028D01*
Y174331D01*
X584268D01*
Y174571D01*
X584507D01*
Y174811D01*
X584747D01*
Y174571D01*
X585226D01*
Y173852D01*
X585466D01*
Y174092D01*
X586424D01*
Y174571D01*
X586185D01*
Y175769D01*
D02*
G37*
G36*
X607753Y174331D02*
X607513D01*
Y174092D01*
X607753D01*
Y174331D01*
D02*
G37*
G36*
X583788Y174571D02*
X583549D01*
Y174092D01*
X583788D01*
Y174571D01*
D02*
G37*
G36*
X584747Y174331D02*
X584507D01*
Y173852D01*
X584987D01*
Y174092D01*
X584747D01*
Y174331D01*
D02*
G37*
G36*
X584268Y174092D02*
X584028D01*
Y173852D01*
X584268D01*
Y174092D01*
D02*
G37*
G36*
X587862Y173852D02*
X587623D01*
Y173612D01*
X587862D01*
Y173852D01*
D02*
G37*
G36*
X589061D02*
X588821D01*
Y173612D01*
X588581D01*
Y173373D01*
X589061D01*
Y173852D01*
D02*
G37*
G36*
X587383Y173612D02*
X587144D01*
Y173373D01*
X587383D01*
Y173612D01*
D02*
G37*
G36*
X585466D02*
X585226D01*
Y173373D01*
X585466D01*
Y173612D01*
D02*
G37*
G36*
X612785Y174331D02*
X612546D01*
Y173612D01*
X612785D01*
Y173373D01*
X613025D01*
Y173852D01*
X612785D01*
Y174331D01*
D02*
G37*
G36*
X586185Y173612D02*
X585706D01*
Y173373D01*
X585945D01*
Y173133D01*
X586185D01*
Y173612D01*
D02*
G37*
G36*
X567732Y173373D02*
X567493D01*
Y173133D01*
X567732D01*
Y173373D01*
D02*
G37*
G36*
X589780D02*
X589540D01*
Y173133D01*
X589061D01*
Y172894D01*
X590019D01*
Y173133D01*
X589780D01*
Y173373D01*
D02*
G37*
G36*
X581152Y172894D02*
X580913D01*
Y172654D01*
X581152D01*
Y172894D01*
D02*
G37*
G36*
X579235D02*
X578996D01*
Y172654D01*
X579235D01*
Y172894D01*
D02*
G37*
G36*
X578516D02*
X578037D01*
Y172654D01*
X577078D01*
Y172174D01*
X576839D01*
Y171935D01*
X576599D01*
Y171695D01*
X577078D01*
Y171456D01*
X577558D01*
Y170976D01*
X577318D01*
Y170737D01*
X577558D01*
Y170497D01*
X578037D01*
Y170737D01*
X578277D01*
Y170976D01*
X577797D01*
Y171456D01*
X578037D01*
Y171216D01*
X578516D01*
Y171456D01*
X578756D01*
Y171216D01*
X578996D01*
Y170976D01*
X579475D01*
Y171695D01*
X579235D01*
Y171935D01*
X578756D01*
Y172174D01*
X578277D01*
Y172654D01*
X578516D01*
Y172414D01*
X578996D01*
Y172654D01*
X578516D01*
Y172894D01*
D02*
G37*
G36*
X579475Y172414D02*
X579235D01*
Y172174D01*
X579475D01*
Y172414D01*
D02*
G37*
G36*
X592895Y171935D02*
X592655D01*
Y171456D01*
X592895D01*
Y171935D01*
D02*
G37*
G36*
X591217Y171695D02*
X590978D01*
Y171456D01*
X591217D01*
Y171695D01*
D02*
G37*
G36*
X582111Y172894D02*
X581871D01*
Y172654D01*
X581392D01*
Y172414D01*
X581632D01*
Y172174D01*
X581392D01*
Y171456D01*
X581152D01*
Y171216D01*
X580673D01*
Y171456D01*
X580913D01*
Y171695D01*
X581152D01*
Y172174D01*
X580433D01*
Y172654D01*
X579715D01*
Y172894D01*
X579475D01*
Y172414D01*
X579715D01*
Y172174D01*
X580433D01*
Y171935D01*
X579954D01*
Y171695D01*
X579715D01*
Y170976D01*
X580194D01*
Y170737D01*
X580913D01*
Y170497D01*
X581152D01*
Y170976D01*
X581392D01*
Y170737D01*
X581632D01*
Y170497D01*
X581871D01*
Y170737D01*
X582111D01*
Y170497D01*
X583549D01*
Y170737D01*
X583309D01*
Y170976D01*
X582830D01*
Y171216D01*
X583309D01*
Y170976D01*
X583549D01*
Y170737D01*
X583788D01*
Y170497D01*
X584028D01*
Y170257D01*
X584268D01*
Y170497D01*
X584507D01*
Y170737D01*
X584268D01*
Y170976D01*
X584747D01*
Y170497D01*
X584987D01*
Y171456D01*
X584747D01*
Y171216D01*
X584507D01*
Y171456D01*
X584268D01*
Y171695D01*
X584028D01*
Y171935D01*
X584747D01*
Y172174D01*
X583549D01*
Y172414D01*
X583309D01*
Y171935D01*
X583069D01*
Y171695D01*
X582830D01*
Y171456D01*
X582590D01*
Y171935D01*
X582830D01*
Y172414D01*
X582111D01*
Y172894D01*
D02*
G37*
G36*
X576120Y171695D02*
X575640D01*
Y171456D01*
X575161D01*
Y171216D01*
X575401D01*
Y170976D01*
X575161D01*
Y171216D01*
X574922D01*
Y170497D01*
X574682D01*
Y170257D01*
X574442D01*
Y170018D01*
X574922D01*
Y169538D01*
X575161D01*
Y170018D01*
X575640D01*
Y170497D01*
X575880D01*
Y170737D01*
X575401D01*
Y170976D01*
X575640D01*
Y171216D01*
X575880D01*
Y171456D01*
X576120D01*
Y171695D01*
D02*
G37*
G36*
X598167Y171216D02*
X597928D01*
Y170976D01*
X598167D01*
Y171216D01*
D02*
G37*
G36*
X577078D02*
X576839D01*
Y170976D01*
X577078D01*
Y171216D01*
D02*
G37*
G36*
X601043Y170976D02*
X600803D01*
Y170737D01*
X601043D01*
Y170976D01*
D02*
G37*
G36*
X596729D02*
X596490D01*
Y170737D01*
X596729D01*
Y170976D01*
D02*
G37*
G36*
X598886Y170737D02*
X598646D01*
Y170497D01*
X598886D01*
Y170737D01*
D02*
G37*
G36*
X579475Y170257D02*
X579235D01*
Y170018D01*
X579475D01*
Y170257D01*
D02*
G37*
G36*
X591697Y170737D02*
X591457D01*
Y170497D01*
X591217D01*
Y169778D01*
X591457D01*
Y170257D01*
X591697D01*
Y170737D01*
D02*
G37*
G36*
X574203Y170018D02*
X573963D01*
Y169778D01*
X574203D01*
Y170018D01*
D02*
G37*
G36*
X595052Y170497D02*
X594812D01*
Y170257D01*
X593374D01*
Y169538D01*
X593853D01*
Y170018D01*
X594333D01*
Y169778D01*
X594812D01*
Y169538D01*
X595052D01*
Y169778D01*
X595291D01*
Y170257D01*
X595052D01*
Y170497D01*
D02*
G37*
G36*
X606794Y169538D02*
X606555D01*
Y169299D01*
X606794D01*
Y169538D01*
D02*
G37*
G36*
X606315Y169778D02*
X606075D01*
Y169299D01*
X606315D01*
Y169778D01*
D02*
G37*
G36*
X598646Y170018D02*
X596490D01*
Y169778D01*
X597209D01*
Y169538D01*
X597448D01*
Y169299D01*
X597928D01*
Y169538D01*
X598167D01*
Y169299D01*
X598407D01*
Y169538D01*
X598646D01*
Y170018D01*
D02*
G37*
G36*
X589540D02*
X589300D01*
Y169538D01*
X589780D01*
Y169299D01*
X590499D01*
Y169538D01*
X590019D01*
Y169778D01*
X589540D01*
Y170018D01*
D02*
G37*
G36*
X578996Y170257D02*
X578037D01*
Y170018D01*
X578277D01*
Y169538D01*
X578037D01*
Y169299D01*
X578277D01*
Y168820D01*
X578756D01*
Y169059D01*
X579235D01*
Y168820D01*
X578996D01*
Y168101D01*
X579235D01*
Y168340D01*
X579475D01*
Y168580D01*
X579954D01*
Y168820D01*
X580194D01*
Y169059D01*
X579954D01*
Y169299D01*
X580194D01*
Y169538D01*
X580433D01*
Y169299D01*
X580913D01*
Y169538D01*
X580433D01*
Y169778D01*
X580194D01*
Y170018D01*
X579715D01*
Y169778D01*
X578996D01*
Y169299D01*
X578516D01*
Y169778D01*
X578996D01*
Y170257D01*
D02*
G37*
G36*
X576599Y170737D02*
X576120D01*
X575880Y170497D01*
Y170257D01*
X576120D01*
Y170018D01*
X576359D01*
Y169778D01*
X576839D01*
Y169538D01*
X577078D01*
Y169299D01*
X577558D01*
Y169538D01*
X577797D01*
Y170018D01*
X577078D01*
Y170497D01*
X576599D01*
Y170737D01*
D02*
G37*
G36*
X575880Y169538D02*
X575401D01*
Y169299D01*
X575880D01*
Y169538D01*
D02*
G37*
G36*
X601522Y169778D02*
X600803D01*
Y169538D01*
X601283D01*
Y169299D01*
X602001D01*
Y169059D01*
X602241D01*
Y169538D01*
X601522D01*
Y169778D01*
D02*
G37*
G36*
X600564D02*
X600324D01*
Y169538D01*
X600084D01*
Y169299D01*
X600324D01*
Y169059D01*
X600803D01*
Y169299D01*
X600564D01*
Y169778D01*
D02*
G37*
G36*
X586664Y169538D02*
X585226D01*
Y169059D01*
X584987D01*
Y169538D01*
X584268D01*
Y169299D01*
X583549D01*
Y169059D01*
X584028D01*
Y168340D01*
X584507D01*
Y168820D01*
X584747D01*
Y168580D01*
X584987D01*
Y168340D01*
X584747D01*
Y168101D01*
X585226D01*
Y168340D01*
X585466D01*
Y168101D01*
X586185D01*
Y168340D01*
X585945D01*
Y169059D01*
X586185D01*
Y169299D01*
X586664D01*
Y169538D01*
D02*
G37*
G36*
X574203Y169299D02*
X573963D01*
Y169059D01*
X574203D01*
Y169299D01*
D02*
G37*
G36*
X604398Y169059D02*
X604158D01*
Y168820D01*
X604398D01*
Y169059D01*
D02*
G37*
G36*
X603439D02*
X603200D01*
Y168820D01*
X603439D01*
Y169059D01*
D02*
G37*
G36*
X602960Y169299D02*
X602481D01*
Y169059D01*
X602720D01*
Y168820D01*
X602960D01*
Y169299D01*
D02*
G37*
G36*
X591457D02*
X590978D01*
Y168820D01*
X591457D01*
Y169299D01*
D02*
G37*
G36*
X583069D02*
X582830D01*
Y168820D01*
X583069D01*
Y169299D01*
D02*
G37*
G36*
X582590D02*
X582351D01*
Y168820D01*
X582590D01*
Y169299D01*
D02*
G37*
G36*
X582111Y169059D02*
X581632D01*
Y168820D01*
X582111D01*
Y169059D01*
D02*
G37*
G36*
X581392D02*
X581152D01*
Y168820D01*
X581392D01*
Y169059D01*
D02*
G37*
G36*
X595052Y168820D02*
X594812D01*
Y168580D01*
X595052D01*
Y168820D01*
D02*
G37*
G36*
X593853Y169299D02*
X593614D01*
Y169059D01*
X593374D01*
Y168820D01*
X594093D01*
Y168580D01*
X594333D01*
Y169059D01*
X593853D01*
Y169299D01*
D02*
G37*
G36*
X587862Y169059D02*
X587623D01*
Y168580D01*
X587862D01*
Y169059D01*
D02*
G37*
G36*
X586904D02*
X586664D01*
Y168820D01*
X586904D01*
Y168580D01*
X587144D01*
Y168820D01*
X586904D01*
Y169059D01*
D02*
G37*
G36*
X598646Y168580D02*
X598407D01*
Y168340D01*
X598646D01*
Y168580D01*
D02*
G37*
G36*
X598167D02*
X597928D01*
Y168340D01*
X598167D01*
Y168580D01*
D02*
G37*
G36*
X586664Y168820D02*
X586424D01*
Y168340D01*
X586664D01*
Y168820D01*
D02*
G37*
G36*
X576839Y168580D02*
X576599D01*
Y168340D01*
X576839D01*
Y168580D01*
D02*
G37*
G36*
X597209Y168340D02*
X596729D01*
Y168101D01*
X597209D01*
Y168340D01*
D02*
G37*
G36*
X594812D02*
X594572D01*
Y168101D01*
X594812D01*
Y168340D01*
D02*
G37*
G36*
X577318D02*
X577078D01*
Y168101D01*
X577318D01*
Y168340D01*
D02*
G37*
G36*
X594333Y168101D02*
X594093D01*
Y167861D01*
X593853D01*
Y168101D01*
X593374D01*
Y167382D01*
X594333D01*
Y167142D01*
X594812D01*
Y167621D01*
X594572D01*
Y167861D01*
X594333D01*
Y168101D01*
D02*
G37*
G36*
X583309Y168580D02*
X583069D01*
Y167861D01*
X583549D01*
Y168101D01*
X583788Y167861D01*
X584028D01*
Y168101D01*
X583788D01*
Y168340D01*
X583309D01*
Y168580D01*
D02*
G37*
G36*
X582830Y168340D02*
X582351D01*
Y168101D01*
X582590D01*
Y167861D01*
X582830D01*
Y168340D01*
D02*
G37*
G36*
X598407Y167861D02*
X598167D01*
Y167621D01*
X598407D01*
Y167861D01*
D02*
G37*
G36*
X596969Y167621D02*
X596729D01*
Y167382D01*
X596969D01*
Y167621D01*
D02*
G37*
G36*
X591217Y167861D02*
X590499D01*
Y167621D01*
X590738D01*
Y167382D01*
X591217D01*
Y167861D01*
D02*
G37*
G36*
X589780Y168101D02*
X589540D01*
Y167621D01*
X589780D01*
Y167382D01*
X590259D01*
Y167621D01*
X590019D01*
Y167861D01*
X589780D01*
Y168101D01*
D02*
G37*
G36*
X580913Y167861D02*
X580433D01*
Y167382D01*
X580673D01*
Y167621D01*
X580913D01*
Y167861D01*
D02*
G37*
G36*
X578516D02*
X578037D01*
Y167621D01*
X577797D01*
Y167382D01*
X578037D01*
Y167142D01*
X578277D01*
Y167621D01*
X578516D01*
Y167861D01*
D02*
G37*
G36*
X575161Y167621D02*
X574922D01*
Y167382D01*
X574682D01*
Y167142D01*
X575161D01*
Y167621D01*
D02*
G37*
G36*
X587144Y168340D02*
X586904D01*
Y167861D01*
X587144D01*
Y167382D01*
X587383D01*
Y167142D01*
X587862D01*
Y166902D01*
X588102D01*
Y167382D01*
X587862D01*
Y167621D01*
X587623D01*
Y167861D01*
X587383D01*
Y168101D01*
X587144D01*
Y168340D01*
D02*
G37*
G36*
X586904Y167861D02*
X586664D01*
Y167621D01*
X586424D01*
Y167382D01*
X586664D01*
Y166902D01*
X586904D01*
Y167861D01*
D02*
G37*
G36*
X577318Y167142D02*
X577078D01*
Y166902D01*
X577318D01*
Y167142D01*
D02*
G37*
G36*
X587862Y166902D02*
X587623D01*
Y166663D01*
X587862D01*
Y166902D01*
D02*
G37*
G36*
X576359D02*
X576120D01*
Y166663D01*
X576359D01*
Y166902D01*
D02*
G37*
G36*
X587862Y166423D02*
X587383D01*
Y166183D01*
X587862D01*
Y166423D01*
D02*
G37*
G36*
X574442Y167382D02*
X574203D01*
Y166663D01*
X574442D01*
Y166183D01*
X574682D01*
Y167142D01*
X574442D01*
Y167382D01*
D02*
G37*
G36*
X598167Y166183D02*
X597688D01*
Y165944D01*
X598167D01*
Y166183D01*
D02*
G37*
G36*
X583309Y166423D02*
X583069D01*
Y166183D01*
X583309D01*
Y165944D01*
X583549D01*
Y166183D01*
X583309D01*
Y166423D01*
D02*
G37*
G36*
X577078Y166902D02*
X576839D01*
Y166423D01*
X577078D01*
Y165944D01*
X577318D01*
Y166423D01*
X577078D01*
Y166902D01*
D02*
G37*
G36*
X584507Y166183D02*
X584028D01*
Y165704D01*
X584507D01*
Y166183D01*
D02*
G37*
G36*
X583788Y165704D02*
X583549D01*
Y165464D01*
X583309D01*
Y165225D01*
X583788D01*
Y164985D01*
X584268D01*
Y165464D01*
X583788D01*
Y165704D01*
D02*
G37*
G36*
X581632Y164985D02*
X581392D01*
Y164746D01*
X581632D01*
Y164985D01*
D02*
G37*
G36*
X573484D02*
X573244D01*
Y164746D01*
X573484D01*
Y164985D01*
D02*
G37*
G36*
X575880Y164746D02*
X575401D01*
Y164506D01*
X575880D01*
Y164746D01*
D02*
G37*
G36*
X572285D02*
X571806D01*
Y164506D01*
X572285D01*
Y164746D01*
D02*
G37*
G36*
X581632Y164506D02*
X581392D01*
Y164266D01*
X581632D01*
Y164506D01*
D02*
G37*
G36*
X577558Y164027D02*
X577318D01*
Y163787D01*
X577558D01*
Y164027D01*
D02*
G37*
G36*
X579235Y163787D02*
X578996D01*
Y163547D01*
X579235D01*
Y163787D01*
D02*
G37*
G36*
X588821Y162828D02*
X588581D01*
Y162589D01*
X588821D01*
Y162828D01*
D02*
G37*
G36*
X565815Y161390D02*
X565575D01*
Y161151D01*
X565815D01*
Y161390D01*
D02*
G37*
G36*
X570368Y157556D02*
X570129D01*
Y157317D01*
X570368D01*
Y157556D01*
D02*
G37*
G36*
X569649Y156598D02*
X569410D01*
Y156358D01*
X569649D01*
Y156598D01*
D02*
G37*
G36*
X568930Y156118D02*
X568691D01*
Y155879D01*
X568451D01*
Y155399D01*
X568691D01*
Y155639D01*
X568930D01*
Y156118D01*
D02*
G37*
G36*
X578516Y151805D02*
X578277D01*
Y151565D01*
X578516D01*
Y151805D01*
D02*
G37*
G36*
X579235Y149648D02*
X578996D01*
Y149408D01*
X579235D01*
Y149648D01*
D02*
G37*
G36*
X582351Y148450D02*
X582111D01*
Y148210D01*
X582351D01*
Y148450D01*
D02*
G37*
G36*
X590259Y146532D02*
X590019D01*
Y146293D01*
X590259D01*
Y146532D01*
D02*
G37*
G36*
X581871Y144136D02*
X581632D01*
Y143896D01*
X581871D01*
Y144136D01*
D02*
G37*
G36*
X591936Y142459D02*
X591697D01*
Y142219D01*
X591936D01*
Y142459D01*
D02*
G37*
G36*
X592416Y142219D02*
X592176D01*
Y141740D01*
X592416D01*
Y142219D01*
D02*
G37*
G36*
X595291Y136707D02*
X595052D01*
Y136467D01*
X595291D01*
Y136707D01*
D02*
G37*
G36*
X591697Y133592D02*
X591217D01*
Y133352D01*
X591697D01*
Y133592D01*
D02*
G37*
G36*
X586904Y133112D02*
X586664D01*
Y132873D01*
X586904D01*
Y133112D01*
D02*
G37*
%LPD*%
G36*
X578516Y171695D02*
X578277D01*
Y171935D01*
X578516D01*
Y171695D01*
D02*
G37*
G36*
X582351Y171935D02*
X581871D01*
Y172174D01*
X582351D01*
Y171935D01*
D02*
G37*
G36*
X583788Y171695D02*
X583549D01*
Y171935D01*
X583788D01*
Y171695D01*
D02*
G37*
G36*
X580673Y171456D02*
X580194D01*
Y171695D01*
X580673D01*
Y171456D01*
D02*
G37*
G36*
X581871D02*
X582351D01*
Y170976D01*
X582590D01*
Y170737D01*
X582351D01*
Y170976D01*
X581392D01*
Y171216D01*
X581632D01*
Y171695D01*
X581871D01*
Y171456D01*
D02*
G37*
G36*
X576359Y170257D02*
X576120D01*
Y170497D01*
X576359D01*
Y170257D01*
D02*
G37*
G36*
X576599Y170018D02*
X576359D01*
Y170257D01*
X576599D01*
Y170018D01*
D02*
G37*
%LPC*%
G36*
X605596Y194941D02*
X605356D01*
Y194701D01*
X605596D01*
Y194941D01*
D02*
G37*
G36*
X605356Y194701D02*
X605117D01*
Y194461D01*
X605356D01*
Y194701D01*
D02*
G37*
G36*
X611587Y182959D02*
X611348D01*
Y182719D01*
X611587D01*
Y182959D01*
D02*
G37*
G36*
X590499Y176967D02*
X590259D01*
Y176728D01*
X590499D01*
Y176967D01*
D02*
G37*
G36*
X591457Y176728D02*
X591217D01*
Y176488D01*
X591457D01*
Y176728D01*
D02*
G37*
G36*
X623809Y165704D02*
X623569D01*
Y165464D01*
X623809D01*
Y165704D01*
D02*
G37*
G36*
X630519Y165225D02*
X630280D01*
Y164985D01*
X630519D01*
Y165225D01*
D02*
G37*
G36*
X625726Y164027D02*
X625487D01*
Y163787D01*
X625726D01*
Y164027D01*
D02*
G37*
G36*
X634353Y160911D02*
X634114D01*
X633874Y160672D01*
X633635D01*
Y160432D01*
X634114D01*
Y160672D01*
X634353D01*
Y160911D01*
D02*
G37*
G36*
X637709Y156358D02*
X637469D01*
Y156118D01*
X637709D01*
Y156358D01*
D02*
G37*
G36*
X637229Y154201D02*
X636990D01*
Y153722D01*
X637469D01*
Y153961D01*
X637229D01*
Y154201D01*
D02*
G37*
G36*
X632436Y153482D02*
X632197D01*
Y153243D01*
X632436D01*
Y153482D01*
D02*
G37*
G36*
X639865Y149169D02*
X639626D01*
Y148929D01*
X639865D01*
Y149169D01*
D02*
G37*
G36*
X637709Y148929D02*
X637469D01*
Y148689D01*
X637229D01*
Y148210D01*
X637469D01*
Y148450D01*
X637709D01*
Y148929D01*
D02*
G37*
G36*
X625247Y139583D02*
X624768D01*
Y139343D01*
X625247D01*
Y139103D01*
X625487D01*
Y139343D01*
X625247D01*
Y139583D01*
D02*
G37*
G36*
X625966Y138864D02*
X625726D01*
Y138624D01*
X625966D01*
Y138864D01*
D02*
G37*
G36*
X626445Y138385D02*
X626206D01*
Y138145D01*
X626445D01*
Y138385D01*
D02*
G37*
G36*
X637229Y135988D02*
X636990D01*
Y135749D01*
X637229D01*
Y135988D01*
D02*
G37*
G36*
X635312Y134311D02*
X635073D01*
Y134071D01*
X635312D01*
Y134311D01*
D02*
G37*
G36*
X628362Y133592D02*
X628123D01*
Y133352D01*
X628362D01*
Y133592D01*
D02*
G37*
G36*
X634833D02*
X634593D01*
Y133352D01*
X634353D01*
Y133112D01*
X634833D01*
Y133592D01*
D02*
G37*
G36*
X634353Y133112D02*
X634114D01*
Y132873D01*
X634353D01*
Y133112D01*
D02*
G37*
G36*
X629081Y130716D02*
X628602D01*
Y130476D01*
X628362D01*
Y130716D01*
X628123D01*
Y130476D01*
X627883D01*
Y130237D01*
X627643D01*
Y129757D01*
X628123D01*
Y129997D01*
X628602D01*
Y130237D01*
X628842D01*
Y130476D01*
X629081D01*
Y130716D01*
D02*
G37*
G36*
X616620Y129038D02*
X616380D01*
Y128559D01*
X616620D01*
Y129038D01*
D02*
G37*
G36*
X628602Y128559D02*
X628123D01*
Y128320D01*
X628602D01*
Y128559D01*
D02*
G37*
G36*
X630280Y128320D02*
X630040D01*
Y128080D01*
X630280D01*
Y128320D01*
D02*
G37*
G36*
X629081D02*
X628842D01*
Y128080D01*
X629081D01*
Y128320D01*
D02*
G37*
G36*
X621892Y128080D02*
X621652D01*
Y127840D01*
X621892D01*
Y128080D01*
D02*
G37*
G36*
X630280Y126402D02*
X630040D01*
Y126163D01*
X630280D01*
Y126402D01*
D02*
G37*
G36*
X629561Y124006D02*
X629081D01*
Y123766D01*
X628842D01*
Y123527D01*
X629321D01*
Y123766D01*
X629561D01*
Y124006D01*
D02*
G37*
G36*
X625487Y118734D02*
X625247D01*
Y118494D01*
X625487D01*
Y118734D01*
D02*
G37*
G36*
X629081Y117775D02*
X628842D01*
Y117535D01*
X629081D01*
Y117296D01*
X629321D01*
Y117535D01*
X629081D01*
Y117775D01*
D02*
G37*
G36*
X630040Y116817D02*
X629800D01*
Y116577D01*
X630040D01*
Y116817D01*
D02*
G37*
G36*
X629800Y115379D02*
X629321D01*
Y114660D01*
X629561D01*
Y115139D01*
X629800D01*
Y115379D01*
D02*
G37*
G36*
Y113462D02*
X629561D01*
Y113222D01*
X629800D01*
Y113462D01*
D02*
G37*
G36*
X629081Y111544D02*
X628842D01*
Y111065D01*
X629081D01*
Y111544D01*
D02*
G37*
G36*
X628123Y109867D02*
X627883D01*
Y109627D01*
X628123D01*
Y109867D01*
D02*
G37*
G36*
X628362Y107950D02*
X627883D01*
Y107710D01*
X628362D01*
Y107950D01*
D02*
G37*
G36*
X627404Y106032D02*
X627164D01*
Y105793D01*
X627404D01*
Y106032D01*
D02*
G37*
G36*
X627164Y104595D02*
X626925D01*
Y104355D01*
X627164D01*
Y104115D01*
X627404D01*
Y104355D01*
X627164D01*
Y104595D01*
D02*
G37*
G36*
X624049Y103396D02*
X623809D01*
Y103157D01*
X624049D01*
Y103396D01*
D02*
G37*
G36*
X626925Y102917D02*
X626685D01*
Y102438D01*
X626925D01*
Y102917D01*
D02*
G37*
G36*
X622132Y102677D02*
X621892D01*
Y102438D01*
X622132D01*
Y102677D01*
D02*
G37*
G36*
X625487Y101719D02*
X625247D01*
Y101479D01*
X625487D01*
Y101719D01*
D02*
G37*
G36*
X611108Y101000D02*
X610868D01*
Y100760D01*
X611108D01*
Y101000D01*
D02*
G37*
G36*
X608472Y98843D02*
X608232D01*
Y98603D01*
X608472D01*
Y98843D01*
D02*
G37*
G36*
X618777Y97885D02*
X618537D01*
Y97645D01*
X618777D01*
Y97885D01*
D02*
G37*
G36*
X623330Y97645D02*
X623090D01*
Y97405D01*
X623330D01*
Y97645D01*
D02*
G37*
G36*
X607993D02*
X607753D01*
Y97405D01*
X607993D01*
Y97645D01*
D02*
G37*
G36*
X622132Y96447D02*
X621892D01*
Y96207D01*
X622132D01*
Y96447D01*
D02*
G37*
G36*
X623330Y95728D02*
X623090D01*
Y95488D01*
X623330D01*
Y95728D01*
D02*
G37*
G36*
X622851D02*
X622611D01*
Y95488D01*
X622851D01*
Y95728D01*
D02*
G37*
G36*
X620454Y95248D02*
X620215D01*
Y94769D01*
X620454D01*
Y95248D01*
D02*
G37*
G36*
X621173Y94050D02*
X620933D01*
Y93811D01*
X621173D01*
Y94050D01*
D02*
G37*
G36*
X621892Y93811D02*
X621413D01*
Y93092D01*
X621892D01*
Y92852D01*
X622132D01*
Y93331D01*
X621892D01*
Y93811D01*
D02*
G37*
G36*
X619016Y93092D02*
X618777D01*
Y92852D01*
X619016D01*
Y93092D01*
D02*
G37*
G36*
X621413Y92373D02*
X621173D01*
Y92133D01*
X621413D01*
Y92373D01*
D02*
G37*
G36*
X611827Y91894D02*
X611348D01*
Y91414D01*
X611587D01*
Y91654D01*
X611827D01*
Y91894D01*
D02*
G37*
G36*
X612066Y91414D02*
X611827D01*
Y91174D01*
X612066D01*
Y91414D01*
D02*
G37*
G36*
X612306Y91654D02*
X612066D01*
Y91414D01*
X612306D01*
Y90935D01*
X612546D01*
Y91414D01*
X612306D01*
Y91654D01*
D02*
G37*
G36*
X613265Y90935D02*
X613025D01*
Y90695D01*
X613265D01*
Y90935D01*
D02*
G37*
G36*
X613744Y90695D02*
X613504D01*
Y90456D01*
X613744D01*
Y90695D01*
D02*
G37*
G36*
X617818D02*
X617578D01*
Y90216D01*
X618058D01*
Y90456D01*
X617818D01*
Y90695D01*
D02*
G37*
G36*
X601762Y130716D02*
X601522D01*
Y130476D01*
X601762D01*
Y130716D01*
D02*
G37*
G36*
X606794Y129757D02*
X606075D01*
Y129518D01*
X606315D01*
Y129278D01*
X606555D01*
Y129518D01*
X606794D01*
Y129757D01*
D02*
G37*
G36*
X607034Y128799D02*
X606794D01*
Y128559D01*
X607034D01*
Y128799D01*
D02*
G37*
G36*
X595771Y126402D02*
X595531D01*
Y126163D01*
X595771D01*
Y126402D01*
D02*
G37*
G36*
X595052Y125444D02*
X594812D01*
Y125204D01*
X595052D01*
Y125444D01*
D02*
G37*
G36*
X589061Y125204D02*
X588821D01*
Y124965D01*
X589061D01*
Y125204D01*
D02*
G37*
G36*
X594333Y124006D02*
X594093D01*
Y123527D01*
X594333D01*
Y124006D01*
D02*
G37*
G36*
X589540Y123527D02*
X589300D01*
Y123047D01*
X589540D01*
Y123527D01*
D02*
G37*
G36*
X592176Y123047D02*
X591936D01*
Y122808D01*
X592176D01*
Y123047D01*
D02*
G37*
G36*
X607753D02*
X607513D01*
Y122808D01*
X607274D01*
Y122568D01*
X607753D01*
Y123047D01*
D02*
G37*
G36*
X607513Y122328D02*
X606794D01*
Y121370D01*
X607034D01*
Y121609D01*
X607513D01*
Y121370D01*
X607753D01*
Y122089D01*
X607513D01*
Y122328D01*
D02*
G37*
G36*
X591457Y121370D02*
X591217D01*
Y121130D01*
X591457D01*
Y121370D01*
D02*
G37*
G36*
X606315Y121130D02*
X606075D01*
Y120891D01*
X606315D01*
Y121130D01*
D02*
G37*
G36*
X603919Y116817D02*
X603679D01*
Y116577D01*
X603919D01*
Y116817D01*
D02*
G37*
G36*
X603439Y111784D02*
X603200D01*
Y111544D01*
X603439D01*
Y111784D01*
D02*
G37*
G36*
X597448D02*
X597209D01*
Y111544D01*
X597448D01*
Y111784D01*
D02*
G37*
G36*
X597928Y111305D02*
X597688D01*
Y111065D01*
X597928D01*
Y111305D01*
D02*
G37*
G36*
X603679Y109627D02*
X603200D01*
Y109388D01*
X603439D01*
Y109148D01*
X603679D01*
Y109627D01*
D02*
G37*
G36*
X602720Y107710D02*
X602481D01*
Y107231D01*
X602720D01*
Y107710D01*
D02*
G37*
G36*
X602481Y106032D02*
X602241D01*
Y105793D01*
X602481D01*
Y106032D01*
D02*
G37*
G36*
X601283Y105074D02*
X601043D01*
Y104834D01*
X601283D01*
Y105074D01*
D02*
G37*
%LPD*%
D10*
X170270Y50550D02*
X180770D01*
X230270D02*
X240770D01*
X289750Y51000D02*
X300250D01*
X229270Y218805D02*
X239770D01*
X288750Y219255D02*
X299250D01*
X348750Y135000D02*
X359250D01*
X408230Y135450D02*
X418730D01*
X468230D02*
X478730D01*
X168790Y388345D02*
X179290D01*
X228790D02*
X239290D01*
X288270Y388795D02*
X298770D01*
X348270Y304050D02*
X358770D01*
X407750Y304500D02*
X418250D01*
X348750Y473000D02*
X359250D01*
X168750Y558000D02*
X179250D01*
X228750D02*
X239250D01*
X288230Y558450D02*
X298730D01*
X408230Y473450D02*
X418730D01*
X347270Y642550D02*
X357770D01*
X406750Y643000D02*
X417250D01*
X468230Y473450D02*
X478730D01*
X466750Y643000D02*
X477250D01*
X110750Y50000D02*
X121250D01*
X167230Y135450D02*
X177730D01*
X108230D02*
X118730D01*
X289230D02*
X299730D01*
X228230D02*
X238730D01*
X109750Y218255D02*
X120250D01*
X169270Y218805D02*
X179770D01*
X410270Y50550D02*
X420770D01*
X349270D02*
X359770D01*
X471270D02*
X481770D01*
X530270D02*
X540770D01*
X527750Y136000D02*
X538250D01*
X348270Y218805D02*
X358770D01*
X409270D02*
X419770D01*
X529270D02*
X539770D01*
X470270D02*
X480770D01*
X107750Y304500D02*
X118250D01*
X109270Y387795D02*
X119770D01*
X166750Y304500D02*
X177250D01*
X227750D02*
X238250D01*
X108230Y473450D02*
X118730D01*
X167230D02*
X177730D01*
X228230D02*
X238730D01*
X288750Y304500D02*
X299250D01*
X347790Y388345D02*
X358290D01*
X408790D02*
X419290D01*
X289230Y473450D02*
X299730D01*
X109230Y557450D02*
X119730D01*
X106750Y643000D02*
X117250D01*
X165750D02*
X176250D01*
X226750D02*
X237250D01*
X347750Y558000D02*
X358250D01*
X408750D02*
X419250D01*
X287750Y643000D02*
X298250D01*
X467750Y304500D02*
X478250D01*
X469790Y388345D02*
X480290D01*
X527270Y305050D02*
X537770D01*
X528790Y388345D02*
X539290D01*
X527750Y474000D02*
X538250D01*
X469750Y558000D02*
X480250D01*
X528750D02*
X539250D01*
X526270Y643550D02*
X536770D01*
D11*
X580810Y510394D02*
G03*
X580810Y510394I-3810J0D01*
G01*
M02*
