%TF.GenerationSoftware,Altium Limited,Altium Designer,25.2.1 (25)*%
G04 Layer_Physical_Order=1*
G04 Layer_Color=255*
%FSLAX43Y43*%
%MOMM*%
%TF.SameCoordinates,7901F6FB-5547-41B2-A73E-222B968302CC*%
%TF.FilePolarity,Positive*%
%TF.FileFunction,Copper,L1,Top,Signal*%
%TF.Part,Single*%
G01*
G75*
%TA.AperFunction,NonConductor*%
%ADD10C,0.203*%
%TA.AperFunction,SMDPad,CuDef*%
%ADD11R,1.250X0.600*%
%ADD12R,0.600X1.250*%
%TA.AperFunction,NonConductor*%
%ADD13C,0.300*%
%TA.AperFunction,Conductor*%
%ADD14C,0.200*%
%ADD15C,2.000*%
%TA.AperFunction,ComponentPad*%
%ADD16C,2.000*%
%ADD17C,1.500*%
%ADD18R,1.500X1.500*%
%ADD19C,1.400*%
%ADD20C,6.000*%
%ADD21C,2.400*%
%ADD22C,2.200*%
%ADD23C,1.524*%
%ADD24C,2.500*%
%TA.AperFunction,ViaPad*%
%ADD25C,0.700*%
G36*
X40792Y35962D02*
X40974Y35886D01*
X41137Y35777D01*
X41277Y35637D01*
X41386Y35474D01*
X41462Y35292D01*
X41496Y35117D01*
X41500Y35000D01*
Y35000D01*
X41500Y35000D01*
X41500Y35000D01*
X41500Y17500D01*
X41500Y17303D01*
X41449Y16913D01*
X41347Y16534D01*
X41196Y16170D01*
X41000Y15830D01*
X40760Y15518D01*
X40482Y15240D01*
X40170Y15000D01*
X39830Y14804D01*
X39466Y14653D01*
X39087Y14551D01*
X38697Y14500D01*
X38500Y14500D01*
Y14500D01*
X38500Y14500D01*
Y14500D01*
X3500Y14500D01*
X3402Y14500D01*
X3208Y14538D01*
X3026Y14614D01*
X2863Y14723D01*
X2723Y14863D01*
X2614Y15026D01*
X2538Y15208D01*
X2500Y15401D01*
X2500Y15500D01*
Y19599D01*
X2576Y19783D01*
X2717Y19924D01*
X2901Y20000D01*
X3000D01*
X25750Y20000D01*
X25979Y20007D01*
X26433Y20067D01*
X26875Y20186D01*
X27298Y20361D01*
X27694Y20590D01*
X28058Y20869D01*
X28381Y21192D01*
X28660Y21556D01*
X28889Y21952D01*
X29064Y22375D01*
X29183Y22817D01*
X29221Y23104D01*
X29360Y23185D01*
X29620Y23445D01*
X29733Y23641D01*
X29860D01*
X29957Y23474D01*
X29977Y23454D01*
X30183Y23661D01*
X30396Y23448D01*
X30189Y23242D01*
X30209Y23222D01*
X30517Y23043D01*
X30862Y22951D01*
X31218D01*
X31563Y23043D01*
X31871Y23222D01*
X31891Y23242D01*
X31684Y23448D01*
X31897Y23661D01*
X32103Y23454D01*
X32123Y23474D01*
X32302Y23782D01*
X32394Y24127D01*
Y24483D01*
X32302Y24828D01*
X32123Y25136D01*
X32103Y25156D01*
X31897Y24949D01*
X31684Y25162D01*
X31891Y25368D01*
X31871Y25388D01*
X31563Y25567D01*
X31218Y25659D01*
X30862D01*
X30517Y25567D01*
X30209Y25388D01*
X30189Y25368D01*
X30396Y25162D01*
X30183Y24949D01*
X29977Y25156D01*
X29957Y25136D01*
X29934Y25097D01*
X29811Y25130D01*
Y26901D01*
X29811Y26901D01*
X29767Y27241D01*
X29636Y27557D01*
X29427Y27829D01*
X29250Y28006D01*
X29250Y33201D01*
X29360Y33265D01*
X29620Y33525D01*
X29733Y33721D01*
X29860D01*
X29957Y33554D01*
X29977Y33534D01*
X30183Y33741D01*
X30396Y33528D01*
X30189Y33322D01*
X30209Y33302D01*
X30517Y33123D01*
X30862Y33031D01*
X31218D01*
X31563Y33123D01*
X31871Y33302D01*
X31891Y33322D01*
X31684Y33528D01*
X31897Y33741D01*
X32103Y33534D01*
X32123Y33554D01*
X32302Y33862D01*
X32394Y34207D01*
Y34563D01*
X32302Y34908D01*
X32123Y35216D01*
X32103Y35236D01*
X31897Y35029D01*
X31684Y35242D01*
X31891Y35448D01*
X31871Y35468D01*
X31563Y35647D01*
X31218Y35739D01*
X30862D01*
X30517Y35647D01*
X30209Y35468D01*
X30189Y35448D01*
X30396Y35242D01*
X30183Y35029D01*
X29977Y35236D01*
X29957Y35216D01*
X29934Y35177D01*
X29811Y35210D01*
Y35901D01*
X29958Y35962D01*
X30152Y36000D01*
X30250Y36000D01*
X30250Y36000D01*
X40500Y36000D01*
X40598Y36000D01*
X40792Y35962D01*
D02*
G37*
%LPC*%
G36*
X39665Y34754D02*
X39335D01*
X39016Y34669D01*
X38730Y34503D01*
X38719Y34493D01*
X38927Y34285D01*
X38715Y34073D01*
X38507Y34281D01*
X38497Y34270D01*
X38331Y33984D01*
X38246Y33665D01*
Y33335D01*
X38331Y33016D01*
X38497Y32730D01*
X38507Y32719D01*
X38715Y32927D01*
X38927Y32715D01*
X38719Y32507D01*
X38730Y32497D01*
X39016Y32331D01*
X39335Y32246D01*
X39665D01*
X39984Y32331D01*
X40270Y32497D01*
X40281Y32507D01*
X40073Y32715D01*
X40285Y32927D01*
X40493Y32719D01*
X40503Y32730D01*
X40669Y33016D01*
X40754Y33335D01*
Y33665D01*
X40669Y33984D01*
X40503Y34270D01*
X40493Y34281D01*
X40285Y34073D01*
X40073Y34285D01*
X40281Y34493D01*
X40270Y34503D01*
X39984Y34669D01*
X39665Y34754D01*
D02*
G37*
G36*
Y20754D02*
X39335D01*
X39016Y20669D01*
X38730Y20503D01*
X38719Y20493D01*
X38927Y20285D01*
X38715Y20073D01*
X38507Y20281D01*
X38497Y20270D01*
X38331Y19984D01*
X38246Y19665D01*
Y19335D01*
X38331Y19016D01*
X38497Y18730D01*
X38507Y18719D01*
X38715Y18927D01*
X38927Y18715D01*
X38719Y18507D01*
X38730Y18497D01*
X39016Y18331D01*
X39335Y18246D01*
X39665D01*
X39984Y18331D01*
X40270Y18497D01*
X40281Y18507D01*
X40073Y18715D01*
X40285Y18927D01*
X40493Y18719D01*
X40503Y18730D01*
X40669Y19016D01*
X40754Y19335D01*
Y19665D01*
X40669Y19984D01*
X40503Y20270D01*
X40493Y20281D01*
X40285Y20073D01*
X40073Y20285D01*
X40281Y20493D01*
X40270Y20503D01*
X39984Y20669D01*
X39665Y20754D01*
D02*
G37*
G36*
X6148Y18964D02*
X5852D01*
X5561Y18906D01*
X5288Y18793D01*
X5043Y18629D01*
X5249Y18423D01*
X5037Y18211D01*
X4831Y18417D01*
X4667Y18172D01*
X4554Y17899D01*
X4496Y17608D01*
Y17312D01*
X4554Y17021D01*
X4667Y16748D01*
X4831Y16503D01*
X5037Y16709D01*
X5249Y16497D01*
X5043Y16291D01*
X5288Y16127D01*
X5561Y16014D01*
X5852Y15956D01*
X6148D01*
X6439Y16014D01*
X6712Y16127D01*
X6957Y16291D01*
X6751Y16497D01*
X6963Y16709D01*
X7169Y16503D01*
X7333Y16748D01*
X7446Y17021D01*
X7504Y17312D01*
Y17608D01*
X7446Y17899D01*
X7333Y18172D01*
X7169Y18417D01*
X6963Y18211D01*
X6751Y18423D01*
X6957Y18629D01*
X6712Y18793D01*
X6439Y18906D01*
X6148Y18964D01*
D02*
G37*
%LPD*%
D10*
X49498Y45500D02*
G03*
X45500Y49498I-3998J0D01*
G01*
Y502D02*
G03*
X49498Y4500I0J3998D01*
G01*
X4500Y49498D02*
G03*
X502Y45500I0J-3998D01*
G01*
Y4500D02*
G03*
X4500Y502I3998J0D01*
G01*
X45541Y49498D02*
X46138Y48902D01*
X45310D02*
X45887Y49480D01*
X44823Y49498D02*
X45419Y48902D01*
X46351Y49407D02*
X46856Y48902D01*
X46028D02*
X46498Y49372D01*
X43873Y48902D02*
X44469Y49498D01*
X43386D02*
X43983Y48902D01*
X44591D02*
X45188Y49498D01*
X44104D02*
X44701Y48902D01*
X48051Y48051D02*
X48327Y48327D01*
X47692Y48410D02*
X47945Y48664D01*
X48410Y47692D02*
X48664Y47945D01*
X48051Y48051D02*
X48327Y48327D01*
X43799Y48902D02*
X47201D01*
X46746D02*
X47036Y49192D01*
X47333Y48770D02*
X47516Y48953D01*
X43325Y48427D02*
X43799Y48902D01*
X41567Y48752D02*
X42314Y49498D01*
X41230D02*
X41977Y48752D01*
X42286D02*
X43033Y49498D01*
X41949D02*
X42696Y48752D01*
X40131D02*
X40877Y49498D01*
X39794D02*
X40540Y48752D01*
X40849D02*
X41596Y49498D01*
X40512D02*
X41259Y48752D01*
X43003Y48750D02*
X43751Y49498D01*
X43001Y48752D02*
X43252Y48501D01*
X43325Y48427D01*
X43001Y48752D02*
X43252Y48501D01*
X42499Y48752D02*
X43001D01*
X42499D02*
X43001D01*
X42667Y49498D02*
X43532Y48634D01*
X42499Y47748D02*
X42573Y47675D01*
X48770Y47333D02*
X48953Y47516D01*
X47534Y48943D02*
X48943Y47534D01*
X48902Y46746D02*
X49192Y47036D01*
X48902Y43799D02*
Y47201D01*
X42098D02*
X42573Y47675D01*
X42262Y47748D02*
X42454Y47556D01*
X47201Y48902D02*
X48902Y47201D01*
Y45419D02*
X49498Y44823D01*
X48902Y45310D02*
X49480Y45887D01*
X48902Y44701D02*
X49498Y44104D01*
X48902Y44591D02*
X49498Y45188D01*
X48902Y46856D02*
X49407Y46351D01*
X48902Y46028D02*
X49372Y46498D01*
X48902Y46138D02*
X49498Y45541D01*
X42098Y43799D02*
Y44998D01*
X41498Y46527D02*
X42098Y47127D01*
X41544Y47748D02*
X42098Y47194D01*
Y46002D02*
Y47201D01*
X40825Y47748D02*
X42098Y46475D01*
X40198Y46527D02*
X41602D01*
X40107Y47748D02*
X41329Y46527D01*
X40779D02*
X42001Y47748D01*
X40198Y44473D02*
Y46527D01*
X41602Y44998D02*
X42098D01*
X41691Y46002D02*
X42098Y46409D01*
X41602Y44817D02*
X42098Y44320D01*
X41602Y44475D02*
X42098Y44972D01*
X41602Y46254D02*
X41854Y46002D01*
X41602D02*
Y46527D01*
Y46002D02*
X42098D01*
X41602Y44473D02*
Y44998D01*
X39075Y49498D02*
X39822Y48752D01*
X38694D02*
X39441Y49498D01*
X38670Y47748D02*
X40198Y46220D01*
X39412Y48752D02*
X40159Y49498D01*
X37952Y47748D02*
X39219Y46481D01*
X38357Y49498D02*
X39104Y48752D01*
X38578Y46481D02*
X39846Y47748D01*
X37585Y46206D02*
X39127Y47748D01*
X39756Y46221D02*
X41283Y47748D01*
X39388D02*
X40610Y46527D01*
X39756Y45944D02*
X40198Y45502D01*
X39756Y45503D02*
X40198Y45946D01*
X39296Y46481D02*
X40564Y47748D01*
X38444Y46481D02*
X39756D01*
X37638Y49498D02*
X38385Y48752D01*
X37257D02*
X38004Y49498D01*
X37975Y48752D02*
X38722Y49498D01*
X37233Y47748D02*
X38501Y46481D01*
X36920Y49498D02*
X37667Y48752D01*
X36538D02*
X37285Y49498D01*
X36515Y47748D02*
X38261Y46002D01*
X35796Y47748D02*
X37339Y46206D01*
X38444Y46347D02*
X38578Y46481D01*
X38057Y46002D02*
X38444D01*
Y46481D01*
X38099Y46002D02*
X38444Y46347D01*
X37853Y46206D02*
X38057Y46002D01*
X37147Y46206D02*
X37853D01*
X32204Y47748D02*
X45097Y34856D01*
X39756Y44785D02*
X40198Y45227D01*
X32923Y47748D02*
X47748Y32923D01*
X33641Y47748D02*
X47748Y33641D01*
X31486Y47748D02*
X44379Y34856D01*
X29330Y47748D02*
X40677Y36402D01*
X30767Y47748D02*
X43741Y34775D01*
X30049Y47748D02*
X43382Y34415D01*
X39744Y44519D02*
X47748Y36515D01*
X39756Y45226D02*
X40198Y44783D01*
X37942Y44884D02*
X47748Y35078D01*
X39025Y44519D02*
X47748Y35796D01*
X32817Y36409D02*
X40881Y44473D01*
X32099Y36409D02*
X40198Y44509D01*
X37313Y44794D02*
X47748Y34359D01*
X31602Y44759D02*
X39951Y36409D01*
X38057Y44998D02*
X38444D01*
X39756Y44519D02*
Y46481D01*
X37853Y44794D02*
X38057Y44998D01*
X36794Y45147D02*
X37147Y44794D01*
X29115Y38454D02*
X38409Y47748D01*
X28755Y38813D02*
X37690Y47748D01*
X37147Y44794D02*
X37853D01*
X38444Y44519D02*
X39756D01*
X38444D02*
Y44998D01*
X30662Y36409D02*
X38772Y44519D01*
X29902Y37086D02*
X37610Y44794D01*
X31381Y36409D02*
X39490Y44519D01*
X29902Y36368D02*
X38444Y44910D01*
X48902Y43983D02*
X49498Y43386D01*
X48752Y40540D02*
X49498Y39794D01*
X48902Y43873D02*
X49498Y44469D01*
X48752Y39822D02*
X49498Y39075D01*
X48752Y39412D02*
X49498Y40159D01*
X48752Y40849D02*
X49498Y41596D01*
X48752Y41977D02*
X49498Y41230D01*
X48752Y40131D02*
X49498Y40877D01*
X48752Y41259D02*
X49498Y40512D01*
X48752Y37667D02*
X49498Y36920D01*
X48752Y37257D02*
X49498Y38004D01*
X48752Y36948D02*
X49498Y36202D01*
X48752Y36538D02*
X49498Y37285D01*
X48752Y39104D02*
X49498Y38357D01*
X48752Y38694D02*
X49498Y39441D01*
X48752Y38385D02*
X49498Y37638D01*
X48752Y37975D02*
X49498Y38722D01*
X48734Y42268D02*
X49498Y43033D01*
X48634Y43532D02*
X49498Y42667D01*
X48501Y42502D02*
X48752Y42251D01*
X48501Y42502D02*
X48752Y42251D01*
X48375Y42628D02*
X49498Y43751D01*
X48052Y42950D02*
X48902Y43799D01*
X48275Y43172D02*
X49498Y41949D01*
X48052Y42950D02*
X48501Y42502D01*
X48752Y41749D02*
Y42251D01*
X47300Y42198D02*
X47748Y41749D01*
X48752Y41567D02*
X49498Y42314D01*
X48752Y41749D02*
Y42251D01*
X47194Y42098D02*
X47748Y41544D01*
X47201Y42098D02*
X47300Y42198D01*
X45757Y42098D02*
X47748Y40107D01*
X46475Y42098D02*
X47748Y40825D01*
X48752Y31509D02*
X49498Y32256D01*
X48752Y32638D02*
X49498Y31891D01*
X48752Y30791D02*
X49498Y31538D01*
X48752Y31919D02*
X49498Y31173D01*
X48752Y32946D02*
X49498Y33693D01*
X48752Y34075D02*
X49498Y33328D01*
X48752Y32228D02*
X49498Y32975D01*
X48752Y33356D02*
X49498Y32609D01*
X48752Y28636D02*
X49498Y29383D01*
X48752Y29764D02*
X49498Y29017D01*
X48752Y27917D02*
X49498Y28664D01*
X48752Y29046D02*
X49498Y28299D01*
X48752Y30073D02*
X49498Y30819D01*
X48752Y31201D02*
X49498Y30454D01*
X48752Y29354D02*
X49498Y30101D01*
X48752Y30483D02*
X49498Y29736D01*
X48752Y35102D02*
X49498Y35848D01*
X48752Y36230D02*
X49498Y35483D01*
X48752Y34383D02*
X49498Y35130D01*
X48752Y35511D02*
X49498Y34765D01*
X48752Y35820D02*
X49498Y36567D01*
X45405Y34629D02*
X47748Y36972D01*
X45856Y33642D02*
X47748Y35535D01*
X45764Y34269D02*
X47748Y36254D01*
X48752Y33665D02*
X49498Y34412D01*
X48752Y34793D02*
X49498Y34046D01*
X45856Y33379D02*
X47748Y31486D01*
X45856Y34097D02*
X47748Y32204D01*
X45856Y32924D02*
X47748Y34817D01*
X45856Y32822D02*
Y34178D01*
X45415Y32382D02*
X47748Y30049D01*
X45775Y32741D02*
X47748Y30767D01*
X41227Y44473D02*
X47748Y37952D01*
X42098Y43799D02*
X43799Y42098D01*
X40508Y44473D02*
X47748Y37233D01*
X38565Y36409D02*
X44254Y42098D01*
X36409Y36409D02*
X42949Y42949D01*
X36409Y36409D02*
X42949Y42949D01*
X37846Y36409D02*
X43667Y42230D01*
X37128Y36409D02*
X43308Y42590D01*
X45038Y42098D02*
X47748Y39388D01*
X43799Y42098D02*
X47201D01*
X44320D02*
X47748Y38670D01*
X41615Y35867D02*
X47622Y41875D01*
X40002Y36409D02*
X45691Y42098D01*
X39283Y36409D02*
X44972Y42098D01*
X41234Y36205D02*
X47127Y42098D01*
X40707Y36396D02*
X46409Y42098D01*
X34254Y36409D02*
X42098Y44254D01*
X40198Y44473D02*
X41602D01*
X35691Y36409D02*
X42590Y43308D01*
X34973Y36409D02*
X42230Y43667D01*
X33536Y36409D02*
X41600Y44473D01*
X31179Y43026D02*
X37796Y36409D01*
X31602Y44040D02*
X39233Y36409D01*
X31538Y43386D02*
X38514Y36409D01*
X41427Y36066D02*
X41566Y35927D01*
X41201Y36227D02*
X41365Y36117D01*
X41764Y35630D02*
X41840Y35448D01*
X41617Y35865D02*
X41727Y35701D01*
X40500Y36409D02*
X40598Y36409D01*
X30250Y36409D02*
X40500Y36409D01*
X40948Y36340D02*
X41130Y36264D01*
X40678Y36402D02*
X40872Y36363D01*
X44914Y34856D02*
X47748Y37690D01*
X44195Y34856D02*
X47748Y38409D01*
X45097Y34856D02*
X45856Y34097D01*
X45178Y34856D02*
X45856Y34178D01*
X41909Y34725D02*
X47748Y40564D01*
X41856Y35390D02*
X47748Y41283D01*
X41909Y33288D02*
X47748Y39127D01*
X41909Y34007D02*
X47748Y39846D01*
X45178Y32144D02*
X45856Y32822D01*
X45076Y32144D02*
X45856Y32924D01*
X44934Y32144D02*
X47748Y29330D01*
X43822Y32144D02*
X45178D01*
X41909Y28259D02*
X47748Y34098D01*
X44216Y32144D02*
X47748Y28612D01*
X43822Y34856D02*
X45178D01*
X43144Y34178D02*
X43822Y34856D01*
X43144Y32822D02*
Y34178D01*
X41905Y35130D02*
X41909Y35014D01*
X41863Y35372D02*
X41898Y35197D01*
X41909Y34451D02*
X43144Y33216D01*
X41898Y35181D02*
X43144Y33934D01*
Y32822D02*
X43822Y32144D01*
X41909Y28978D02*
X45076Y32144D01*
X41909Y29696D02*
X44358Y32144D01*
X41909Y31852D02*
X43144Y33086D01*
X41909Y32570D02*
X43144Y33805D01*
X41909Y30415D02*
X43731Y32236D01*
X41909Y31133D02*
X43371Y32595D01*
X33328Y49498D02*
X34075Y48752D01*
X33665D02*
X34412Y49498D01*
X32946Y48752D02*
X33693Y49498D01*
X34383Y48752D02*
X35130Y49498D01*
X34046D02*
X34793Y48752D01*
X31891Y49498D02*
X32638Y48752D01*
X31509D02*
X32256Y49498D01*
X32609D02*
X33356Y48752D01*
X32228D02*
X32975Y49498D01*
X35820Y48752D02*
X36567Y49498D01*
X35483D02*
X36230Y48752D01*
X36794Y45853D02*
X37147Y46206D01*
X36202Y49498D02*
X36948Y48752D01*
X35102D02*
X35848Y49498D01*
X34765D02*
X35511Y48752D01*
X35078Y47748D02*
X36884Y45942D01*
X30046Y45852D02*
X31943Y47748D01*
X28299Y49498D02*
X29046Y48752D01*
X27917D02*
X28664Y49498D01*
X29017D02*
X29764Y48752D01*
X28636D02*
X29383Y49498D01*
X26862D02*
X27609Y48752D01*
X26481D02*
X27227Y49498D01*
X27580D02*
X28327Y48752D01*
X27199D02*
X27946Y49498D01*
X30454D02*
X31201Y48752D01*
X30073D02*
X30819Y49498D01*
X31173D02*
X31919Y48752D01*
X30791D02*
X31538Y49498D01*
X29736D02*
X30483Y48752D01*
X29354D02*
X30101Y49498D01*
X29328Y45852D02*
X31225Y47748D01*
X29199Y45852D02*
X30801D01*
X34359Y47748D02*
X36794Y45313D01*
X31501Y45151D02*
X34098Y47748D01*
X31602Y43815D02*
X35535Y47748D01*
X31602Y44533D02*
X34817Y47748D01*
X31142Y45510D02*
X33380Y47748D01*
X30765Y45852D02*
X32662Y47748D01*
X28396Y39173D02*
X36972Y47748D01*
X28037Y39532D02*
X36254Y47748D01*
X36794Y45147D02*
Y45853D01*
X31602Y43449D02*
Y45051D01*
X30820Y42667D02*
X37077Y36409D01*
X30801Y42648D02*
X31602Y43449D01*
X29833Y37736D02*
X37019Y44922D01*
X29474Y38095D02*
X36794Y45415D01*
X30120Y42648D02*
X36359Y36409D01*
X29402Y42648D02*
X35640Y36409D01*
X30801Y45852D02*
X31602Y45051D01*
X28612Y47748D02*
X30509Y45852D01*
X28398Y44922D02*
X29328Y45852D01*
X28398Y43449D02*
Y45051D01*
X27894Y47748D02*
X29790Y45852D01*
X27175Y47748D02*
X29136Y45788D01*
X28398Y45051D02*
X29199Y45852D01*
X26457Y47748D02*
X28776Y45429D01*
X29199Y42648D02*
X30801D01*
X28398Y43449D02*
X29199Y42648D01*
X27678Y39891D02*
X30435Y42648D01*
X27319Y40250D02*
X29717Y42648D01*
X26600Y40969D02*
X28740Y43108D01*
X26241Y41328D02*
X28398Y43485D01*
X26368Y41201D02*
X29201Y38368D01*
X26959Y40609D02*
X29099Y42749D01*
X24707Y49498D02*
X25454Y48752D01*
X24325D02*
X25072Y49498D01*
X25425D02*
X26172Y48752D01*
X25044D02*
X25791Y49498D01*
X23270D02*
X24017Y48752D01*
X22888D02*
X23635Y49498D01*
X23988D02*
X24735Y48752D01*
X23607D02*
X24354Y49498D01*
X26144D02*
X26890Y48752D01*
X25762D02*
X26509Y49498D01*
X25738Y47748D02*
X28417Y45070D01*
X25020Y47748D02*
X28398Y44370D01*
X21722Y45430D02*
X24041Y47748D01*
X21363Y45789D02*
X23322Y47748D01*
X22102Y44373D02*
X25477Y47748D01*
X22081Y45071D02*
X24759Y47748D01*
X21115Y49498D02*
X21861Y48752D01*
X20733D02*
X21480Y49498D01*
X21833D02*
X22580Y48752D01*
X21452D02*
X22198Y49498D01*
X19678D02*
X20425Y48752D01*
X19296D02*
X20043Y49498D01*
X20396D02*
X21143Y48752D01*
X20015D02*
X20762Y49498D01*
X22552D02*
X23298Y48752D01*
X22170D02*
X22917Y49498D01*
X21169Y45852D02*
X22102Y44919D01*
X21301Y45852D02*
X22102Y45051D01*
X19699Y45852D02*
X21301D01*
X19273Y47748D02*
X21169Y45852D01*
X20707D02*
X22604Y47748D01*
X19988Y45852D02*
X21885Y47748D01*
X23223Y41902D02*
X29069Y47748D01*
X24302D02*
X28398Y43652D01*
X24659Y41902D02*
X30506Y47748D01*
X23941Y41902D02*
X29788Y47748D01*
X21786Y41902D02*
X27633Y47748D01*
X21067Y41902D02*
X26914Y47748D01*
X19991D02*
X31330Y36409D01*
X22504Y41902D02*
X28351Y47748D01*
X25882Y41687D02*
X28398Y44204D01*
X25378Y41902D02*
X28398Y44922D01*
X23583Y47748D02*
X34922Y36409D01*
X25667Y41902D02*
X26368Y41201D01*
X21428Y47748D02*
X32767Y36409D01*
X20709Y47748D02*
X32048Y36409D01*
X22865Y47748D02*
X34204Y36409D01*
X22146Y47748D02*
X33485Y36409D01*
X22102Y44919D02*
X25119Y41902D01*
X22102Y43449D02*
Y45051D01*
Y44201D02*
X24401Y41902D01*
X22102Y43483D02*
X23683Y41902D01*
X22102Y43654D02*
X26196Y47748D01*
X21301Y42648D02*
X22102Y43449D01*
X21759Y43107D02*
X22964Y41902D01*
X21400Y42747D02*
X22246Y41902D01*
X24266D02*
X25667D01*
X20780Y42648D02*
X21527Y41902D01*
X25667D02*
X26368Y41201D01*
X24266Y41902D02*
X25667D01*
X19699Y42648D02*
X21301D01*
X19631Y41902D02*
X20377Y42648D01*
X20349Y41902D02*
X21096Y42648D01*
X20062D02*
X20809Y41902D01*
X29201Y38368D02*
X29902Y37667D01*
Y37119D02*
X30612Y36409D01*
X29201Y38368D02*
X29902Y37667D01*
Y36368D02*
Y37667D01*
Y36368D02*
Y37667D01*
X24266Y39098D02*
X27098Y36266D01*
X25829Y35887D02*
X26653Y36711D01*
X23612Y39098D02*
X27098Y35612D01*
X23925Y34702D02*
X26294Y37070D01*
X30152Y36409D02*
X30250Y36409D01*
X29902Y36368D02*
X30072Y36402D01*
X27098Y35499D02*
Y36266D01*
X26988Y35609D02*
X27098Y35719D01*
X26547Y35887D02*
X27012Y36352D01*
X25209Y35887D02*
X26711D01*
X22501Y31748D02*
X28841D01*
X26711Y35887D02*
X27098Y35499D01*
X22894Y39098D02*
X26105Y35887D01*
X24458Y35136D02*
X25209Y35887D01*
X23207Y34702D02*
X25935Y37429D01*
X22488Y34702D02*
X25575Y37789D01*
X22175Y39098D02*
X25387Y35887D01*
X21457Y39098D02*
X24939Y35616D01*
X21777Y34708D02*
X25216Y38148D01*
X21777Y35427D02*
X24857Y38507D01*
X21777Y34702D02*
X24458D01*
X21777Y35186D02*
X22261Y34702D01*
X24458D02*
Y35136D01*
X21999Y31748D02*
X22501D01*
X21777Y34702D02*
Y35652D01*
X21399Y32348D02*
X21748Y31999D01*
X21999Y31748D01*
X21748Y31999D02*
X21999Y31748D01*
X28088D02*
X28841Y30996D01*
X26956Y30548D02*
X28156Y31748D01*
X28841Y28663D02*
X28841Y31748D01*
X27370D02*
X28841Y30278D01*
X26597Y30907D02*
X27438Y31748D01*
X26237Y31266D02*
X26719Y31748D01*
X25933D02*
X28841Y28841D01*
X26652Y31748D02*
X28841Y29559D01*
X28034Y29470D02*
X28841Y30277D01*
X28393Y29111D02*
X28841Y29559D01*
X28752Y28752D02*
X28841Y28841D01*
X28752Y28752D02*
X28841Y28841D01*
X27315Y30189D02*
X28841Y31714D01*
X25852Y31652D02*
X26553Y30951D01*
X27674Y29830D02*
X28841Y30996D01*
X26553Y30951D02*
X28841Y28663D01*
X23059Y31748D02*
X23156Y31652D01*
X23031D02*
X23127Y31748D01*
X23778D02*
X23875Y31652D01*
X23749D02*
X23846Y31748D01*
X21999D02*
X22501D01*
X21594Y31652D02*
X21845Y31903D01*
X22341Y31748D02*
X22438Y31652D01*
X22312D02*
X22409Y31748D01*
X25215D02*
X25311Y31652D01*
X25186D02*
X25283Y31748D01*
X25852Y31652D02*
X26553Y30951D01*
X25878Y31626D02*
X26001Y31748D01*
X24451Y31652D02*
X25852D01*
X24451D02*
X25852D01*
X24496Y31748D02*
X24593Y31652D01*
X24467D02*
X24564Y31748D01*
X20849Y36654D02*
X23293Y39098D01*
X20489Y37013D02*
X22575Y39098D01*
X21283Y35652D02*
X24498Y38866D01*
X21208Y36295D02*
X24012Y39098D01*
X19859Y37102D02*
X21856Y39098D01*
X19277Y37237D02*
X21138Y39098D01*
X20401Y37102D02*
X20652Y36851D01*
X20401Y37102D02*
X20652Y36851D01*
X21252Y35652D02*
Y35749D01*
Y36251D01*
Y35652D02*
X21777D01*
X21252Y35711D02*
X21311Y35652D01*
X21001Y36502D02*
X21252Y36251D01*
X20652Y36851D02*
X21001Y36502D01*
X21252Y35749D02*
Y36251D01*
X21001Y36502D02*
X21252Y36251D01*
X19277Y37102D02*
X19899D01*
X19277D02*
Y37302D01*
X19899Y37102D02*
X20401D01*
X19899D02*
X20401D01*
X19231Y37910D02*
X20419Y39098D01*
X19231Y38628D02*
X19701Y39098D01*
X19219Y37744D02*
X19861Y37102D01*
X19231Y37744D02*
Y39056D01*
X19723Y35652D02*
X20248D01*
X19899Y36098D02*
X20248Y35749D01*
Y35652D02*
Y35749D01*
X19846Y35652D02*
X20096Y35901D01*
X19277Y36098D02*
X19899D01*
X19277Y35898D02*
Y36098D01*
X19428D02*
X19875Y35652D01*
X19156D02*
X19277Y35531D01*
X20738Y39098D02*
X24580Y35257D01*
X19723Y35529D02*
X19846Y35652D01*
X20020Y39098D02*
X24417Y34702D01*
X19723Y32348D02*
Y33298D01*
X19302Y39098D02*
X23698Y34702D01*
X19231Y38451D02*
X22980Y34702D01*
X19277Y32927D02*
X19723Y33373D01*
X19277Y33376D02*
X19723Y32929D01*
X20304Y32348D02*
X21001Y31652D01*
X20157D02*
X20854Y32348D01*
X21023D02*
X21719Y31652D01*
X20875D02*
X21486Y32262D01*
X19723Y32348D02*
X21399D01*
X19277Y32658D02*
X20283Y31652D01*
X19231Y28848D02*
X24451D01*
X19438Y31652D02*
X20135Y32348D01*
X19277Y34363D02*
X19723Y34810D01*
Y34702D02*
Y35652D01*
Y34248D02*
Y34702D01*
Y34248D02*
Y34702D01*
X19277Y35082D02*
X19723Y35529D01*
X19277Y35531D02*
X19723Y35084D01*
X19277Y34813D02*
X19723Y34366D01*
X19277Y34248D02*
Y35652D01*
X19723Y33298D02*
Y33752D01*
Y34248D01*
Y33298D02*
Y33752D01*
X19277Y32348D02*
Y33752D01*
X19231Y34140D02*
X19723Y33648D01*
X19231Y33752D02*
Y34248D01*
X19277Y33645D02*
X19723Y34092D01*
X19231Y28570D02*
X19509Y28848D01*
X48752Y25762D02*
X49498Y26509D01*
X48752Y26172D02*
X49498Y25425D01*
X48752Y26890D02*
X49498Y26144D01*
X48752Y25454D02*
X49498Y24707D01*
X48752Y25044D02*
X49498Y25791D01*
X48752Y27199D02*
X49498Y27946D01*
X48752Y28327D02*
X49498Y27580D01*
X48752Y26481D02*
X49498Y27227D01*
X48752Y27609D02*
X49498Y26862D01*
X48752Y21143D02*
X49498Y20396D01*
X48752Y20733D02*
X49498Y21480D01*
X48752Y20425D02*
X49498Y19678D01*
X48752Y20015D02*
X49498Y20762D01*
X48752Y22580D02*
X49498Y21833D01*
X48752Y24325D02*
X49498Y25072D01*
X48752Y21861D02*
X49498Y21115D01*
X48752Y21452D02*
X49498Y22198D01*
X48752Y24017D02*
X49498Y23270D01*
X48752Y23607D02*
X49498Y24354D01*
X48752Y23298D02*
X49498Y22552D01*
X48752Y22888D02*
X49498Y23635D01*
X48752Y24735D02*
X49498Y23988D01*
X43845Y20856D02*
X47748Y24759D01*
X45230Y20804D02*
X47748Y23322D01*
X44563Y20856D02*
X47748Y24041D01*
X48752Y22170D02*
X49498Y22917D01*
X45589Y20444D02*
X47748Y22604D01*
X45856Y19992D02*
X47748Y21885D01*
X45178Y20856D02*
X45856Y20178D01*
X43822Y20856D02*
X45178D01*
X43144Y20178D02*
X43822Y20856D01*
X48752Y18269D02*
X49498Y17523D01*
X48752Y17859D02*
X49498Y18606D01*
Y4500D02*
Y45500D01*
X48752Y17141D02*
X49498Y17888D01*
X48752Y19706D02*
X49498Y18959D01*
X48752Y19296D02*
X49498Y20043D01*
X48752Y18988D02*
X49498Y18241D01*
X48752Y18578D02*
X49498Y19325D01*
X48752Y14986D02*
X49498Y15733D01*
X48752Y16114D02*
X49498Y15367D01*
X48752Y14267D02*
X49498Y15014D01*
X48752Y15396D02*
X49498Y14649D01*
X48752Y16423D02*
X49498Y17169D01*
X48752Y17551D02*
X49498Y16804D01*
X48752Y15704D02*
X49498Y16451D01*
X48752Y16833D02*
X49498Y16086D01*
X45856Y19010D02*
X47748Y17117D01*
X45856Y19729D02*
X47748Y17836D01*
X48752Y7501D02*
Y41749D01*
X47748Y7501D02*
Y41749D01*
X45856Y19274D02*
X47748Y21167D01*
X45856Y18822D02*
Y20178D01*
X43144Y18848D02*
X43848Y18144D01*
X45178D02*
X45856Y18822D01*
X45231Y18198D02*
X47748Y15680D01*
X45590Y18557D02*
X47748Y16399D01*
X43822Y18144D02*
X45178D01*
X43144Y18822D02*
X43822Y18144D01*
X43848D02*
X47748Y14244D01*
X44566Y18144D02*
X47748Y14962D01*
X41909Y29422D02*
X47748Y23583D01*
X41909Y30140D02*
X47748Y24302D01*
X41909Y27985D02*
X47748Y22146D01*
X41909Y28704D02*
X47748Y22865D01*
X41909Y23949D02*
X47748Y29788D01*
X41909Y24667D02*
X47748Y30506D01*
X41909Y22512D02*
X47748Y28351D01*
X41909Y23231D02*
X47748Y29069D01*
X41909Y26548D02*
X47748Y20709D01*
X41909Y27267D02*
X47748Y21428D01*
X41909Y25112D02*
X47748Y19273D01*
X41909Y19638D02*
X47748Y25477D01*
X41909Y21075D02*
X47748Y26914D01*
X41909Y21794D02*
X47748Y27633D01*
X41909Y25830D02*
X47748Y19991D01*
X41909Y20357D02*
X47748Y26196D01*
X41909Y26823D02*
X47748Y32662D01*
X41909Y33014D02*
X47748Y27175D01*
X41909Y31577D02*
X47748Y25738D01*
X41909Y32296D02*
X47748Y26457D01*
X41909Y27541D02*
X47748Y33380D01*
X41909Y33733D02*
X47748Y27894D01*
X41909Y25386D02*
X47748Y31225D01*
X41909Y26104D02*
X47748Y31943D01*
X41909Y30859D02*
X47748Y25020D01*
X43144Y20155D02*
X43845Y20856D01*
X41909Y18920D02*
X43144Y20155D01*
X41909Y20801D02*
X43144Y19566D01*
X41909Y23675D02*
X44729Y20856D01*
X41909Y22956D02*
X44010Y20856D01*
X41909Y22238D02*
X43557Y20590D01*
X41909Y21519D02*
X43198Y20231D01*
X41909Y18646D02*
X47748Y12807D01*
X41909Y19364D02*
X47748Y13525D01*
X37095Y6922D02*
X47748Y17575D01*
X41909Y17927D02*
X47748Y12088D01*
X32354Y4336D02*
X47748Y19730D01*
X32902Y5602D02*
X47748Y20448D01*
X32856Y3400D02*
X47748Y18293D01*
X32856Y4119D02*
X47748Y19012D01*
X41791Y16609D02*
X47748Y10652D01*
X41902Y17217D02*
X47748Y11370D01*
X41347Y15616D02*
X47748Y9215D01*
X41602Y16080D02*
X47748Y9933D01*
X37814Y6922D02*
X47748Y16856D01*
X41033Y15211D02*
X47748Y8496D01*
X38652Y6323D02*
X47748Y15419D01*
X38304Y6693D02*
X47748Y16138D01*
X43144Y18822D02*
Y20178D01*
X41909Y20083D02*
X43144Y18848D01*
X41909Y17483D02*
X43196Y18770D01*
X41909Y18202D02*
X43144Y19437D01*
X41909Y24393D02*
X47748Y18554D01*
X41909Y17500D02*
X41909Y35000D01*
X32555Y6692D02*
X44008Y18144D01*
X41805Y16660D02*
X43556Y18411D01*
X41909Y17500D02*
X41909Y17303D01*
X41855Y16860D02*
X41906Y17250D01*
X41742Y16428D02*
X41844Y16807D01*
X41575Y16014D02*
X41725Y16377D01*
X41354Y15625D02*
X41551Y15966D01*
X41085Y15268D02*
X41325Y15580D01*
X32902Y6320D02*
X44726Y18144D01*
X40772Y14950D02*
X41050Y15228D01*
X48752Y12112D02*
X49498Y12859D01*
X48752Y12522D02*
X49498Y11775D01*
X48752Y13240D02*
X49498Y12494D01*
X48752Y11804D02*
X49498Y11057D01*
X48752Y11394D02*
X49498Y12141D01*
X48752Y13549D02*
X49498Y14296D01*
X48752Y14677D02*
X49498Y13930D01*
X48752Y12831D02*
X49498Y13577D01*
X48752Y13959D02*
X49498Y13212D01*
X48752Y7802D02*
X49498Y8548D01*
X48752Y8930D02*
X49498Y8183D01*
X48752Y7083D02*
X49498Y7830D01*
X48752Y8211D02*
X49498Y7465D01*
X48752Y11085D02*
X49498Y10338D01*
X48752Y10675D02*
X49498Y11422D01*
X48752Y10367D02*
X49498Y9620D01*
X48752Y9957D02*
X49498Y10704D01*
X48752Y9648D02*
X49498Y8902D01*
X48752Y9238D02*
X49498Y9985D01*
X48752Y8520D02*
X49498Y9267D01*
X46696Y7902D02*
X47748Y8954D01*
X44541Y7902D02*
X47748Y11109D01*
X43823Y7902D02*
X47748Y11827D01*
X45978Y7902D02*
X47748Y9672D01*
X45260Y7902D02*
X47748Y10391D01*
X48752Y6999D02*
Y7501D01*
Y6999D02*
Y7501D01*
X48501Y6748D02*
X48752Y6999D01*
X48501Y6748D02*
X48752Y6999D01*
X47667Y7435D02*
X47748Y7517D01*
X47308Y7795D02*
X47748Y8235D01*
X47675Y7427D02*
X47748Y7501D01*
X47201Y7902D02*
X47675Y7427D01*
X48902Y5078D02*
X49498Y5675D01*
X48902Y5906D02*
X49498Y5309D01*
X48902Y4359D02*
X49498Y4956D01*
X48902Y5188D02*
X49498Y4591D01*
X48745Y6358D02*
X49498Y7112D01*
X48752Y7493D02*
X49498Y6746D01*
X48902Y5796D02*
X49498Y6393D01*
X48639Y6887D02*
X49498Y6028D01*
X48902Y3641D02*
X49489Y4229D01*
X48902Y3751D02*
X49323Y3329D01*
X48902Y2923D02*
X49330Y3351D01*
X48902Y3033D02*
X49124Y2810D01*
X48902Y4469D02*
X49455Y3916D01*
X47077Y1098D02*
X48902Y2923D01*
X47201Y1098D02*
X48902Y2799D01*
X48427Y6675D02*
X48902Y6201D01*
X48427Y6675D02*
X48501Y6748D01*
X48902Y2799D02*
Y6201D01*
X48659Y2557D02*
X48869Y2347D01*
X48300Y2197D02*
X48565Y1932D01*
X47941Y1838D02*
X48215Y1564D01*
X47581Y1479D02*
X47818Y1242D01*
X47222Y1120D02*
X47374Y968D01*
X46649Y670D02*
X47077Y1098D01*
X46525D02*
X46877Y746D01*
X45771Y511D02*
X46359Y1098D01*
X45807D02*
X46319Y586D01*
X45088Y1098D02*
X45681Y506D01*
X44325Y502D02*
X44922Y1098D01*
X45044Y502D02*
X45641Y1098D01*
X44370D02*
X44967Y502D01*
X39758Y14331D02*
X46188Y7902D01*
X39210Y14161D02*
X45469Y7902D01*
X40664Y14863D02*
X47748Y7778D01*
X40240Y14568D02*
X46906Y7902D01*
X37125Y14091D02*
X43557Y7659D01*
X36407Y14091D02*
X43197Y7300D01*
X38652Y5604D02*
X47748Y14701D01*
X35688Y14091D02*
X42838Y6941D01*
X43799Y7902D02*
X47201D01*
X42098Y6201D02*
X43799Y7902D01*
X38606Y3403D02*
X47748Y12546D01*
X42098Y6177D02*
X43823Y7902D01*
X38562Y14091D02*
X44751Y7902D01*
X37844Y14091D02*
X44033Y7902D01*
X38606Y4121D02*
X47748Y13264D01*
X38101Y4336D02*
X47748Y13983D01*
X40420Y14675D02*
X40732Y14915D01*
X40034Y14449D02*
X40375Y14646D01*
X39623Y14275D02*
X39986Y14425D01*
X39192Y14156D02*
X39572Y14258D01*
X38750Y14094D02*
X39140Y14145D01*
X38500Y14091D02*
X38697Y14091D01*
X33533Y14091D02*
X42098Y5525D01*
X32066Y6922D02*
X39340Y14195D01*
X38652Y5194D02*
Y6346D01*
X38076Y6922D02*
X38652Y6346D01*
X38076Y4618D02*
X38652Y5194D01*
X36394Y4336D02*
X38606D01*
X34970Y14091D02*
X42479Y6581D01*
X34252Y14091D02*
X42120Y6222D01*
X32096Y14091D02*
X42098Y4088D01*
X32815Y14091D02*
X42098Y4807D01*
Y2799D02*
X42198Y2700D01*
X40999Y1502D02*
X42198Y2700D01*
X42950Y1948D02*
X43799Y1098D01*
X41752Y749D02*
X42950Y1948D01*
X38652Y6098D02*
X42124Y2626D01*
X38141Y1502D02*
X42098Y5459D01*
X40296Y1502D02*
X42098Y3304D01*
X39578Y1502D02*
X42098Y4022D01*
X43799Y1098D02*
X47201D01*
X42876Y1874D02*
X44248Y502D01*
X43607D02*
X44204Y1098D01*
X42888Y502D02*
X43642Y1255D01*
X41504Y502D02*
X45500D01*
X42158Y1155D02*
X42812Y502D01*
X42517Y1515D02*
X43530Y502D01*
X42170D02*
X43283Y1615D01*
X42098Y2799D02*
Y6201D01*
X38652Y5380D02*
X41765Y2267D01*
X38860Y1502D02*
X42098Y4740D01*
X38606Y3989D02*
X41046Y1549D01*
X38606Y2685D02*
X42098Y6177D01*
X31378Y14091D02*
X42098Y3370D01*
X38385Y4928D02*
X41405Y1908D01*
X38606Y2124D02*
Y4336D01*
X41504Y502D02*
X41752Y749D01*
X38606Y2552D02*
X39656Y1502D01*
X41799Y796D02*
X42093Y502D01*
X41504D02*
X41752Y749D01*
X20976Y1502D02*
X40999D01*
X36394Y2124D02*
X38606D01*
Y3271D02*
X40375Y1502D01*
X38315Y2124D02*
X38938Y1502D01*
X24451Y28848D02*
X27098Y26201D01*
X25807Y25807D02*
X26650Y26650D01*
X23086Y28848D02*
X26128Y25807D01*
X23804Y28848D02*
X27098Y25554D01*
X23783Y24502D02*
X26290Y27009D01*
X22367Y28848D02*
X25409Y25807D01*
X21777Y24650D02*
X25213Y28086D01*
X23065Y24502D02*
X25931Y27368D01*
X22346Y24502D02*
X25572Y27727D01*
X26977Y25540D02*
X27098Y25662D01*
X26525Y25807D02*
X27009Y26290D01*
X27098Y25419D02*
Y26201D01*
X26711Y25807D02*
X27098Y25419D01*
X25209Y25807D02*
X26711D01*
X25807D02*
X26650Y26650D01*
X21223Y9728D02*
X25585Y14091D01*
X24458Y25056D02*
X25209Y25807D01*
X21341Y25652D02*
X24494Y28805D01*
X21252Y25749D02*
Y26251D01*
X21649Y28848D02*
X24950Y25547D01*
X21777Y25369D02*
X24853Y28446D01*
X21237Y26266D02*
X23819Y28848D01*
X21001Y26502D02*
X21252Y26251D01*
Y25749D02*
Y26251D01*
X21001Y26502D02*
X21252Y26251D01*
X21777Y24502D02*
Y24702D01*
Y24502D02*
Y24702D01*
X24458Y24502D02*
Y25056D01*
X21777Y24502D02*
X24458D01*
X21252Y25652D02*
X21777D01*
X21252D02*
Y25749D01*
X21777Y25129D02*
X22404Y24502D01*
X21777Y24702D02*
Y25652D01*
X28504Y14091D02*
X36348Y6246D01*
X27152Y6317D02*
X34925Y14091D01*
X27786D02*
X36348Y5528D01*
X27152Y5599D02*
X35643Y14091D01*
X26807Y6691D02*
X34206Y14091D01*
X26319Y6922D02*
X33488Y14091D01*
X26349D02*
X36394Y4045D01*
X26607Y4336D02*
X36362Y14091D01*
X30659D02*
X37828Y6922D01*
X29941Y14091D02*
X37110Y6922D01*
X31348D02*
X38517Y14091D01*
X29223D02*
X36658Y6655D01*
X27106Y4116D02*
X37080Y14091D01*
X27067D02*
X36822Y4336D01*
X27106Y3398D02*
X37798Y14091D01*
X25630Y14091D02*
X36394Y3327D01*
X25601Y6922D02*
X32769Y14091D01*
X21412Y8480D02*
X27022Y14091D01*
X22757Y14091D02*
X30598Y6249D01*
X21412Y5606D02*
X29896Y14091D01*
X21034Y6666D02*
X28459Y14091D01*
X21412Y9199D02*
X26304Y14091D01*
X21205Y3245D02*
X32051Y14091D01*
X21394Y6307D02*
X29177Y14091D01*
X24912Y14091D02*
X32081Y6922D01*
X24194Y14091D02*
X31363Y6922D01*
X23475Y14091D02*
X30909Y6657D01*
X22038Y14091D02*
X30598Y5531D01*
X21412Y8970D02*
X24848Y5533D01*
X21412Y8437D02*
Y9539D01*
X21320Y14091D02*
X31075Y4336D01*
X21319Y8344D02*
X25328Y4336D01*
X20878Y26625D02*
X23101Y28848D01*
X20518Y26984D02*
X22383Y28848D01*
X20930D02*
X24591Y25188D01*
X20212Y28848D02*
X24458Y24602D01*
X19917Y27102D02*
X21664Y28848D01*
X19277Y27179D02*
X20946Y28848D01*
X19494D02*
X23840Y24502D01*
X19231Y28393D02*
X23122Y24502D01*
X20401Y27102D02*
X20652Y26851D01*
X20401Y27102D02*
X20652Y26851D01*
X21001Y26502D01*
X20248Y25652D02*
Y25749D01*
X19899Y27102D02*
X20401D01*
X19899D02*
X20401D01*
X19723Y25652D02*
X20248D01*
X19899Y26098D02*
X20248Y25749D01*
X19277Y27102D02*
X19899D01*
X19277D02*
Y27302D01*
X19370Y26098D02*
X19817Y25652D01*
X19277Y25898D02*
Y26098D01*
X19231Y27852D02*
X20227Y28848D01*
X19231Y27744D02*
Y28848D01*
X19161Y27744D02*
X19804Y27102D01*
X19186Y25652D02*
X19633Y26098D01*
X19904Y25652D02*
X20125Y25872D01*
X19723Y25471D02*
X19904Y25652D01*
X19277Y24306D02*
X19723Y24752D01*
Y24702D02*
Y25652D01*
X19277Y26098D02*
X19899D01*
X19277Y25473D02*
X19723Y25027D01*
X19277Y24755D02*
X19723Y24308D01*
X19277Y25024D02*
X19723Y25471D01*
X20147Y10090D02*
X24148Y14091D01*
X20248Y20409D02*
Y22348D01*
X20832Y3590D02*
X31333Y14091D01*
X20490Y6840D02*
X27741Y14091D01*
X19277Y22600D02*
X20248Y21628D01*
X19723Y22348D02*
X20248D01*
X20113Y3590D02*
X30614Y14091D01*
X19691Y20409D02*
X20248Y20967D01*
X20863Y10087D02*
X24867Y14091D01*
X20861Y10090D02*
X21412Y9539D01*
X20861Y7886D02*
X21412Y8437D01*
X20818Y7886D02*
X21412Y8480D01*
X19165Y14091D02*
X26334Y6922D01*
X19759Y10090D02*
X20861D01*
X19883Y14091D02*
X30644Y3329D01*
X20602Y14091D02*
X30644Y4048D01*
X19723Y24248D02*
Y24702D01*
Y24248D02*
Y24702D01*
Y23752D02*
Y24248D01*
X19277Y22348D02*
Y23752D01*
Y24248D02*
Y25652D01*
X19231Y23752D02*
Y24248D01*
X19277Y23587D02*
X19723Y24034D01*
X19231Y24083D02*
X19723Y23590D01*
Y23298D02*
Y23752D01*
Y23298D02*
Y23752D01*
Y22348D02*
Y23298D01*
X19277Y22869D02*
X19723Y23316D01*
X19208Y9539D02*
X19759Y10090D01*
X19277Y23318D02*
X19723Y22871D01*
X19208Y8437D02*
X19759Y7886D01*
X19208Y8437D02*
Y9539D01*
X36348Y6346D02*
X36924Y6922D01*
X38076D01*
X36348Y5194D02*
Y6346D01*
Y5194D02*
X36924Y4618D01*
X32902Y6101D02*
X36394Y2608D01*
X32902Y5194D02*
Y6346D01*
X32326Y6922D02*
X32902Y6346D01*
X32856Y2682D02*
X36348Y6175D01*
X32326Y4618D02*
X32902Y5194D01*
X37976Y4618D02*
X38259Y4336D01*
X37383D02*
X37666Y4618D01*
X36924D02*
X38076D01*
X36665Y4336D02*
X36947Y4618D01*
X37258D02*
X37541Y4336D01*
X31174Y6922D02*
X32326D01*
X30598Y5194D02*
X31174Y4618D01*
X31511D02*
X31793Y4336D01*
X30917D02*
X31200Y4618D01*
X30598Y6346D02*
X31174Y6922D01*
X27152Y5194D02*
Y6346D01*
Y6104D02*
X30644Y2611D01*
X30598Y5194D02*
Y6346D01*
X32229Y4618D02*
X32512Y4336D01*
X30644D02*
X32856D01*
X31174Y4618D02*
X32326D01*
X31636Y4336D02*
X31918Y4618D01*
X33112Y1502D02*
X36577Y4966D01*
X36394Y2124D02*
Y4336D01*
X34549Y1502D02*
X36394Y3347D01*
X33831Y1502D02*
X36394Y4065D01*
X32394Y1502D02*
X36348Y5456D01*
X32637Y4929D02*
X36064Y1502D01*
X32902Y5383D02*
X36783Y1502D01*
X32856Y3992D02*
X35346Y1502D01*
X36878Y2124D02*
X37501Y1502D01*
X37597Y2124D02*
X38219Y1502D01*
X37423D02*
X38045Y2124D01*
X35267Y1502D02*
X36394Y2629D01*
X32856Y3273D02*
X34627Y1502D01*
X36704D02*
X37327Y2124D01*
X35986Y1502D02*
X36609Y2124D01*
X32856D02*
Y4336D01*
X30644Y2124D02*
Y4336D01*
X29520Y1502D02*
X30644Y2626D01*
X28802Y1502D02*
X30644Y3344D01*
X27152Y5385D02*
X31035Y1502D01*
X27106Y2124D02*
Y4336D01*
X27365Y1502D02*
X30828Y4965D01*
X28083Y1502D02*
X30644Y4063D01*
X31849Y2124D02*
X32472Y1502D01*
X31675D02*
X32298Y2124D01*
X32856Y2555D02*
X33909Y1502D01*
X32568Y2124D02*
X33190Y1502D01*
X30644Y2124D02*
X32856D01*
X30238Y1502D02*
X30861Y2124D01*
X31131D02*
X31754Y1502D01*
X30957D02*
X31580Y2124D01*
X26576Y6922D02*
X27152Y6346D01*
X25424Y6922D02*
X26576D01*
Y4618D02*
X27152Y5194D01*
X25170Y4336D02*
X25453Y4618D01*
X24848Y5194D02*
X25424Y4618D01*
X24848Y6346D02*
X25424Y6922D01*
X20340Y7886D02*
X24894Y3332D01*
X20960Y7985D02*
X24894Y4050D01*
X26482Y4618D02*
X26764Y4336D01*
X25888D02*
X26171Y4618D01*
X24894Y4336D02*
X27106D01*
X25424Y4618D02*
X26576D01*
X25763D02*
X26046Y4336D01*
X19759Y6840D02*
X20861D01*
X19771D02*
X20818Y7886D01*
X24848Y5194D02*
Y6346D01*
X20861Y6840D02*
X21412Y6289D01*
X19759Y7886D02*
X20861D01*
X19208Y6289D02*
X19759Y6840D01*
X19208Y6277D02*
X19771Y6840D01*
X19208Y5187D02*
Y6289D01*
X20861Y4636D02*
X21412Y5187D01*
Y6289D01*
Y2733D02*
X24848Y6169D01*
X20861Y3590D02*
X21412Y3039D01*
X19759Y4636D02*
X20861D01*
X19208Y5187D02*
X19759Y4636D01*
Y3590D02*
X20861D01*
X19208Y3039D02*
X19759Y3590D01*
X27106Y2679D02*
X30598Y6172D01*
X27106Y3994D02*
X29598Y1502D01*
X27106Y3276D02*
X28880Y1502D01*
X27106Y2558D02*
X28162Y1502D01*
X21412Y5378D02*
X25288Y1502D01*
X21617D02*
X25079Y4963D01*
X26646Y1502D02*
X30598Y5454D01*
X26888Y4931D02*
X30317Y1502D01*
X25928D02*
X26551Y2124D01*
X26820D02*
X27443Y1502D01*
X26102Y2124D02*
X26725Y1502D01*
X24894Y2124D02*
X27106D01*
X24491Y1502D02*
X25114Y2124D01*
X25383D02*
X26006Y1502D01*
X25209D02*
X25832Y2124D01*
X24894D02*
Y4336D01*
X21412Y2014D02*
X24848Y5451D01*
X23054Y1502D02*
X24894Y3342D01*
X22336Y1502D02*
X24894Y4060D01*
X21412Y6096D02*
X24894Y2613D01*
X19998Y4636D02*
X23133Y1502D01*
X21148Y4923D02*
X24569Y1502D01*
X20716Y4636D02*
X23851Y1502D01*
X21336Y1861D02*
X21696Y1502D01*
X21412Y1937D02*
Y3039D01*
X23773Y1502D02*
X24894Y2623D01*
X21412Y2504D02*
X22414Y1502D01*
X19208Y1937D02*
X19644Y1502D01*
X19208Y1937D02*
Y3039D01*
X20976Y1502D02*
X21412Y1937D01*
X19462Y1502D02*
X19553Y1593D01*
X18578Y48752D02*
X19325Y49498D01*
X18959D02*
X19706Y48752D01*
X18241Y49498D02*
X18988Y48752D01*
X18554Y47748D02*
X20451Y45852D01*
X18898Y45051D02*
X19699Y45852D01*
X17836Y47748D02*
X19733Y45852D01*
X17117Y47748D02*
X19357Y45509D01*
X15320Y41902D02*
X21167Y47748D01*
X16399D02*
X18997Y45150D01*
X18898Y43449D02*
X19699Y42648D01*
X17475Y41902D02*
X18961Y43387D01*
X18912Y41902D02*
X19679Y42669D01*
X18194Y41902D02*
X19320Y43028D01*
X16757Y41902D02*
X18898Y44043D01*
X16038Y41902D02*
X18898Y44762D01*
X16860Y39098D02*
X24266D01*
X17269Y39056D02*
X19231D01*
X16804Y49498D02*
X17551Y48752D01*
X16423D02*
X17169Y49498D01*
X17523D02*
X18269Y48752D01*
X17141D02*
X17888Y49498D01*
X15367D02*
X16114Y48752D01*
X14986D02*
X15733Y49498D01*
X16086D02*
X16833Y48752D01*
X15704D02*
X16451Y49498D01*
X18898Y43449D02*
Y45051D01*
X17859Y48752D02*
X18606Y49498D01*
X17269Y38902D02*
Y39056D01*
X17146Y39098D02*
X17269Y38975D01*
X14962Y47748D02*
X18898Y43812D01*
X15680Y47748D02*
X18898Y44530D01*
X17057Y38902D02*
X17269D01*
X16860Y39098D02*
X17057Y38902D01*
X19065Y37744D02*
X19231Y37910D01*
X17269Y37744D02*
Y37898D01*
X17057D02*
X17269D01*
X16986Y37102D02*
X17629Y37744D01*
X16983Y37825D02*
X17506Y37302D01*
X17904D02*
X18347Y37744D01*
X17782D02*
X18225Y37302D01*
X18623D02*
X19065Y37744D01*
X18500D02*
X18943Y37302D01*
X17223D02*
X19277D01*
X17269Y37744D02*
X19231D01*
X16554Y36098D02*
X17223Y35429D01*
Y35898D02*
Y36098D01*
X15794Y38753D02*
X16140Y39098D01*
X15709D02*
X15925Y38883D01*
X15794Y38047D02*
Y38753D01*
X14991Y39098D02*
X15794Y38295D01*
X16267Y37102D02*
X17064Y37898D01*
X16853Y37694D02*
X17057Y37898D01*
X17223Y37102D02*
Y37302D01*
X16395Y37694D02*
X16988Y37102D01*
X16147Y37694D02*
X16853D01*
X15794Y38047D02*
X16147Y37694D01*
X15117Y36098D02*
X16510Y34706D01*
X15549Y37102D02*
X16144Y37697D01*
X11009Y41902D02*
X16856Y47748D01*
X10652D02*
X16498Y41902D01*
X11728D02*
X17575Y47748D01*
X11370D02*
X17217Y41902D01*
X4500Y49498D02*
X45500D01*
X8251Y48752D02*
X42499D01*
X10291Y41902D02*
X16138Y47748D01*
X9933D02*
X15780Y41902D01*
X13165D02*
X19012Y47748D01*
X12807D02*
X18654Y41902D01*
X13883D02*
X19730Y47748D01*
X13525D02*
X19372Y41902D01*
X8251Y47748D02*
X42499D01*
X9581Y41902D02*
X24266D01*
X12446D02*
X18293Y47748D01*
X12088D02*
X17935Y41902D01*
X13212Y49498D02*
X13959Y48752D01*
X12831D02*
X13577Y49498D01*
X13930D02*
X14677Y48752D01*
X13549D02*
X14296Y49498D01*
X11775D02*
X12522Y48752D01*
X11394D02*
X12141Y49498D01*
X12494D02*
X13240Y48752D01*
X12112D02*
X12859Y49498D01*
X14649D02*
X15396Y48752D01*
X14267D02*
X15014Y49498D01*
X9573Y41902D02*
X15419Y47748D01*
X9215D02*
X15061Y41902D01*
X7902Y46906D02*
X12906Y41902D01*
X7902Y46188D02*
X12188Y41902D01*
X8854D02*
X14701Y47748D01*
X8496D02*
X14343Y41902D01*
X14602D02*
X20448Y47748D01*
X14244D02*
X20090Y41902D01*
X14112Y37102D02*
X16109Y39098D01*
X13694Y37402D02*
X15391Y39098D01*
X9581D02*
X16140D01*
X13087Y37514D02*
X14672Y39098D01*
X13554D02*
X15551Y37102D01*
X12836Y39098D02*
X14833Y37102D01*
X14273Y39098D02*
X16269Y37102D01*
X14831D02*
X15794Y38065D01*
X14834Y34232D02*
X16701Y36098D01*
X14399D02*
X15969Y34528D01*
X14164Y36098D02*
X17223D01*
X13994Y37102D02*
X17223D01*
X14164Y34279D02*
X15983Y36098D01*
X13861Y34695D02*
X15264Y36098D01*
X11399Y39098D02*
X12984Y37514D01*
X10680Y39098D02*
X12342Y37437D01*
X10190Y36772D02*
X12517Y39098D01*
X9962D02*
X11983Y37078D01*
X5506Y39272D02*
X13983Y47748D01*
X8014Y47512D02*
X13625Y41902D01*
X502Y34986D02*
X13264Y47748D01*
X502Y35704D02*
X12546Y47748D01*
X12117Y39098D02*
X14114Y37102D01*
X12418Y37514D02*
X13582D01*
X13994Y37102D01*
X11836Y36932D02*
X12418Y37514D01*
X11627Y36772D02*
X13954Y39098D01*
X10908Y36772D02*
X13235Y39098D01*
X7652Y37098D02*
X13098Y31652D01*
X7444Y36587D02*
X12380Y31652D01*
X18191Y35898D02*
X18438Y35652D01*
X18409D02*
X18656Y35898D01*
X17691Y35652D02*
X17938Y35898D01*
X19128Y35652D02*
X19575Y36098D01*
X18909Y35898D02*
X19156Y35652D01*
X17223D02*
X19277D01*
X17223Y35898D02*
X19277D01*
X17473D02*
X17719Y35652D01*
X15836Y36098D02*
X17223Y34711D01*
X17283Y31652D02*
X17980Y32348D01*
X18720Y31652D02*
X19723Y32655D01*
X18867Y32348D02*
X19564Y31652D01*
X17223Y32348D02*
Y32498D01*
X16251D02*
X17223D01*
Y32348D02*
X19277D01*
X16562Y32498D02*
X17409Y31652D01*
X16745Y34706D02*
X17223Y35184D01*
X16853Y34706D02*
X17057Y34502D01*
X17223D02*
Y35652D01*
X17057Y34502D02*
X17223D01*
X16147Y34706D02*
X16853D01*
X15794Y34353D02*
X16147Y34706D01*
X15537Y34216D02*
X17223Y35902D01*
X15794Y33958D02*
Y34353D01*
X15846Y31652D02*
X16693Y32498D01*
X15844D02*
X16690Y31652D01*
X15521Y34232D02*
X15772Y33981D01*
X15521Y34232D02*
X15772Y33981D01*
X15749Y32498D02*
X16251D01*
X15749D02*
X16251D01*
X18149Y32348D02*
X18846Y31652D01*
X19123Y27744D02*
X19231Y27852D01*
X18002Y31652D02*
X18698Y32348D01*
X17430D02*
X18127Y31652D01*
X17244Y27302D02*
X17687Y27744D01*
X16954Y27796D02*
X17448Y27302D01*
X17962D02*
X18405Y27744D01*
X17724D02*
X18167Y27302D01*
X18681D02*
X19123Y27744D01*
X18442D02*
X18885Y27302D01*
X17223D02*
X19277D01*
X17269Y27744D02*
X19231D01*
X17223Y25898D02*
X19277D01*
X17223Y26090D02*
X17415Y25898D01*
X16565Y31652D02*
X17262Y32348D01*
X16325Y27102D02*
X17122Y27898D01*
X16853Y27694D02*
X17057Y27898D01*
X15794Y28753D02*
X15890Y28848D01*
X15794Y28047D02*
Y28753D01*
Y28047D02*
X16147Y27694D01*
X17269Y27744D02*
Y27898D01*
X17057D02*
X17269D01*
X17223Y25898D02*
Y26098D01*
Y27102D02*
Y27302D01*
X16147Y27694D02*
X16853D01*
X15607Y27102D02*
X16200Y27694D01*
X17044Y27102D02*
X17223Y27281D01*
X16337Y27694D02*
X16930Y27102D01*
X14164Y34232D02*
X15019D01*
X14164D02*
Y34392D01*
X14087Y35692D02*
X15794Y33984D01*
X15019Y34232D02*
X15521D01*
X13421Y34974D02*
X14546Y36098D01*
X13582Y35186D02*
X14164Y35768D01*
X13728Y35333D02*
X14829Y34232D01*
X13582Y34974D02*
X14164Y34392D01*
X15019Y34232D02*
X15521D01*
X15019Y33228D02*
X15498Y32749D01*
X15749Y32498D01*
X15498Y32749D02*
X15749Y32498D01*
X14164Y33228D02*
X15019D01*
X13582Y32646D02*
X14164Y33228D01*
X13691Y31652D02*
X15144Y33104D01*
X13540Y32646D02*
X14535Y31652D01*
X14164Y35768D02*
Y36098D01*
X11836Y35768D02*
X12418Y35186D01*
X12703Y34974D02*
X12915Y35186D01*
X12437D02*
X12650Y34974D01*
X11137Y35768D02*
X12175Y34730D01*
X10418Y35768D02*
X11836Y34350D01*
X8662Y31652D02*
X12308Y35297D01*
X9700Y35768D02*
X11836Y33632D01*
X12418Y34974D02*
X13582D01*
X12418Y35186D02*
X13582D01*
X12418Y32646D02*
X13582D01*
X13156Y35186D02*
X13368Y34974D01*
X11836Y33228D02*
X12418Y32646D01*
X11836Y34392D02*
X12418Y34974D01*
X12254Y31652D02*
X13249Y32646D01*
X11536Y31652D02*
X12531Y32646D01*
X14395Y33228D02*
X15972Y31652D01*
X13920Y32985D02*
X15254Y31652D01*
X15128D02*
X15975Y32498D01*
X14409Y31652D02*
X15503Y32745D01*
X9411Y31652D02*
X24451D01*
X12973D02*
X14549Y33228D01*
X13683Y27333D02*
X15198Y28848D01*
X13028D02*
X14775Y27102D01*
X14170D02*
X15794Y28726D01*
X15183Y28848D02*
X15794Y28237D01*
X14465Y28848D02*
X16212Y27102D01*
X14888D02*
X15814Y28027D01*
X9411Y28848D02*
X15890D01*
X13746D02*
X15493Y27102D01*
X14164Y26098D02*
X17223D01*
X13939Y27102D02*
X17223D01*
X12822Y32646D02*
X13817Y31652D01*
X10817D02*
X12115Y32949D01*
X10873Y28848D02*
X12353Y27368D01*
X10739Y27263D02*
X12325Y28848D01*
X10099Y31652D02*
X11836Y33389D01*
X9381Y31652D02*
X11836Y34107D01*
X10154Y28848D02*
X11994Y27009D01*
X5484Y29192D02*
X11948Y35656D01*
X13065Y27434D02*
X14480Y28848D01*
X12418Y27434D02*
X13582D01*
X12309Y28848D02*
X14056Y27102D01*
X13582Y27434D02*
X13914Y27102D01*
X11099Y26904D02*
X13043Y28848D01*
X11591D02*
X13006Y27434D01*
X11685Y26772D02*
X13762Y28848D01*
X11836Y26852D02*
X12418Y27434D01*
X9620Y49498D02*
X10367Y48752D01*
X9957D02*
X10704Y49498D01*
X9238Y48752D02*
X9985Y49498D01*
X10675Y48752D02*
X11422Y49498D01*
X10338D02*
X11085Y48752D01*
X8183Y49498D02*
X8930Y48752D01*
X7802D02*
X8548Y49498D01*
X8902D02*
X9648Y48752D01*
X8520D02*
X9267Y49498D01*
X11057D02*
X11804Y48752D01*
X7902Y45260D02*
X10391Y47748D01*
X7902Y43823D02*
X11827Y47748D01*
X7902Y44541D02*
X11109Y47748D01*
X7802Y47300D02*
X8251Y47748D01*
X7749Y48752D02*
X8251D01*
X7902Y45978D02*
X9672Y47748D01*
X7902Y46696D02*
X8954Y47748D01*
X7465Y49498D02*
X8211Y48752D01*
X6358Y48745D02*
X7112Y49498D01*
X6717Y48385D02*
X7830Y49498D01*
X6746D02*
X7621Y48624D01*
X5796Y48902D02*
X6393Y49498D01*
X5309D02*
X5906Y48902D01*
X6028Y49498D02*
X7262Y48264D01*
X6201Y48902D02*
X7050Y48052D01*
X7749Y48752D02*
X8251D01*
X7498Y48501D02*
X7749Y48752D01*
X7902Y43799D02*
Y47201D01*
X7802Y47300D02*
X7902Y47201D01*
X7498Y48501D02*
X7749Y48752D01*
X7050Y48052D02*
X7498Y48501D01*
X6201Y42098D02*
X7902Y43799D01*
X6177Y42098D02*
X7902Y43823D01*
X8604Y38122D02*
X9581Y39098D01*
X8179Y41902D02*
X9581D01*
X9008Y37745D02*
X10362Y39098D01*
X8649Y38104D02*
X9643Y39098D01*
X7902Y45469D02*
X11469Y41902D01*
X7902Y44751D02*
X10751Y41902D01*
X7902Y44033D02*
X10033Y41902D01*
X8179D02*
X9581D01*
X9726Y37026D02*
X11798Y39098D01*
X9412Y38930D02*
X11570Y36772D01*
X11836D02*
Y36932D01*
X9981Y36772D02*
X11836D01*
X9367Y37385D02*
X11080Y39098D01*
X8694Y38211D02*
X10134Y36772D01*
X9053Y38571D02*
X10852Y36772D01*
X8882Y37871D02*
X9981Y36772D01*
X7659Y43557D02*
X9314Y41902D01*
X7300Y43197D02*
X8596Y41902D01*
X7478Y41201D02*
X8179Y41902D01*
X7478Y41201D02*
X8179Y41902D01*
X6941Y42838D02*
X8028Y41751D01*
X6581Y42479D02*
X7669Y41391D01*
X6222Y42120D02*
X7310Y41032D01*
X5525Y42098D02*
X6951Y40673D01*
X8631Y38122D02*
X8882Y37871D01*
X8631Y38122D02*
X8882Y37871D01*
X8129Y37118D02*
X9228Y36019D01*
X7652Y37118D02*
X8129D01*
X7652Y36794D02*
Y37118D01*
X5549Y39272D02*
X7478Y41201D01*
X5409Y34146D02*
X8255Y36992D01*
X6826Y35968D02*
X7652Y36794D01*
X4359Y48902D02*
X4956Y49498D01*
X3916Y49455D02*
X4469Y48902D01*
X5078D02*
X5675Y49498D01*
X4591D02*
X5188Y48902D01*
X3329Y49323D02*
X3751Y48902D01*
X2923D02*
X3351Y49330D01*
X3641Y48902D02*
X4229Y49489D01*
X2799Y48902D02*
X6201D01*
X2810Y49124D02*
X3033Y48902D01*
X2799Y42098D02*
X6201D01*
X2347Y48869D02*
X2557Y48659D01*
X1098Y47201D02*
X2799Y48902D01*
X1932Y48565D02*
X2197Y48300D01*
X1098Y47077D02*
X2923Y48902D01*
X1098Y43799D02*
X2799Y42098D01*
X1564Y48215D02*
X1838Y47941D01*
X1242Y47818D02*
X1479Y47581D01*
X968Y47374D02*
X1120Y47222D01*
X1098Y43799D02*
Y47201D01*
X746Y46877D02*
X1098Y46525D01*
X670Y46649D02*
X1098Y47077D01*
X511Y45771D02*
X1098Y46359D01*
X586Y46319D02*
X1098Y45807D01*
X502Y42888D02*
X1255Y43642D01*
X506Y45681D02*
X1098Y45088D01*
X502Y41452D02*
X1974Y42924D01*
X502Y42170D02*
X1615Y43283D01*
X502Y44967D02*
X1098Y44370D01*
X502Y45044D02*
X1098Y45641D01*
X502Y43607D02*
X1098Y44204D01*
X502Y44325D02*
X1098Y44922D01*
X4088Y42098D02*
X6232Y39955D01*
X3370Y42098D02*
X5873Y39595D01*
X502Y36423D02*
X6177Y42098D01*
X502Y37141D02*
X5459Y42098D01*
X502Y44248D02*
X5478Y39272D01*
X502Y43530D02*
X4967Y39064D01*
X502Y37860D02*
X4740Y42098D01*
X502Y42812D02*
X4608Y38705D01*
X4807Y42098D02*
X6591Y40314D01*
X5174Y39272D02*
X5549D01*
X4387Y36755D02*
X5174Y35968D01*
X4348Y38092D02*
Y38446D01*
X5174Y39272D01*
X4219Y38092D02*
X4348D01*
X1752Y34081D02*
X4407Y36736D01*
X1752Y34119D02*
X4387Y36755D01*
X502Y42093D02*
X4348Y38246D01*
X502Y41375D02*
X4002Y37874D01*
X502Y40656D02*
X3643Y37515D01*
X502Y39938D02*
X3284Y37156D01*
X502Y40015D02*
X2692Y42205D01*
X502Y40733D02*
X2333Y42565D01*
X502Y38578D02*
X4022Y42098D01*
X502Y39296D02*
X3304Y42098D01*
X4219Y38092D02*
X4348D01*
X3968Y37841D02*
X4219Y38092D01*
X3968Y37841D02*
X4219Y38092D01*
X999Y34872D02*
X3968Y37841D01*
X502Y39219D02*
X2924Y36797D01*
X502Y38501D02*
X2565Y36438D01*
X502Y37783D02*
X2206Y36078D01*
X502Y37064D02*
X1847Y35719D01*
X9228Y36019D02*
X9479Y35768D01*
X9228Y36019D02*
X9479Y35768D01*
X7183Y33765D02*
X9333Y35915D01*
X7085Y36228D02*
X11662Y31652D01*
X7543Y33406D02*
X9905Y35768D01*
X5189Y35968D02*
X9506Y31652D01*
X6824Y34124D02*
X8974Y36274D01*
X6626Y35968D02*
X10943Y31652D01*
X5908Y35968D02*
X10225Y31652D01*
X9479Y35768D02*
X9981D01*
X9479D02*
X9981D01*
X11836Y33228D02*
Y34392D01*
X9981Y35768D02*
X11836D01*
X7606Y32032D02*
X11342Y35768D01*
X7606Y32750D02*
X10624Y35768D01*
X8009Y31652D02*
X9411D01*
X8009D02*
X9411D01*
X6127Y34146D02*
X8615Y36633D01*
X5197Y34146D02*
X6803D01*
X7606Y33343D01*
X5174Y35968D02*
X6826D01*
X4394Y33343D02*
X5197Y34146D01*
X4394Y31737D02*
Y33343D01*
X7606Y32834D02*
X8788Y31652D01*
X7606Y31737D02*
Y33343D01*
Y32115D02*
X8069Y31652D01*
X7436Y31567D02*
X7680Y31323D01*
X7308Y30951D02*
X8009Y31652D01*
X7076Y31208D02*
X7321Y30963D01*
X10021Y27981D02*
X10888Y28848D01*
X9499Y28002D02*
X10001D01*
X10380Y27622D02*
X11606Y28848D01*
X9436D02*
X11513Y26772D01*
X8564Y28002D02*
X9499D01*
X8604D02*
X9451Y28848D01*
X9323Y28002D02*
X10169Y28848D01*
X9064Y28502D02*
X9564Y28002D01*
X10252Y27751D02*
X11231Y26772D01*
X10001Y28002D02*
X10252Y27751D01*
X11836Y26772D02*
Y26852D01*
X11231Y26772D02*
X11836D01*
X10001Y28002D02*
X10252Y27751D01*
X9499Y28002D02*
X10001D01*
X9499Y26998D02*
X10478Y26019D01*
X7652Y26998D02*
X9499D01*
X7308Y30951D02*
X8009Y31652D01*
X6803Y30934D02*
X7606Y31737D01*
X6631Y30934D02*
X6962Y30604D01*
X5913Y30934D02*
X6602Y30245D01*
X5197Y30934D02*
X6803D01*
X4394Y31737D02*
X5197Y30934D01*
X5549Y29192D02*
X7308Y30951D01*
X4348Y28366D02*
X5174Y29192D01*
X8564Y28002D02*
X9411Y28848D01*
X8705Y28142D02*
X8846Y28002D01*
X7652Y26714D02*
Y26998D01*
X7561D02*
X7652D01*
X5174Y29192D02*
X5549D01*
X4348Y28042D02*
Y28366D01*
X6826Y25888D02*
X7652Y26714D01*
X4387Y26675D02*
X5174Y25888D01*
X4036Y36404D02*
X6294Y34146D01*
X3677Y36044D02*
X5575Y34146D01*
X1752Y31207D02*
X6513Y35968D01*
X3318Y35685D02*
X5027Y33975D01*
X1752Y33362D02*
X4766Y36377D01*
X502Y36346D02*
X1487Y35360D01*
X1752Y31925D02*
X5795Y35968D01*
X1752Y32644D02*
X5125Y36017D01*
X2958Y35326D02*
X4668Y33616D01*
X2599Y34967D02*
X4394Y33171D01*
X1881Y34248D02*
X6243Y29886D01*
X2240Y34607D02*
X4394Y32453D01*
X502Y35627D02*
X1128Y35001D01*
X748Y34621D02*
X999Y34872D01*
X1752Y30488D02*
X4394Y33131D01*
X748Y34621D02*
X999Y34872D01*
X748Y34119D02*
Y34621D01*
Y34119D02*
Y34621D01*
X502Y32831D02*
X748Y33077D01*
X502Y33472D02*
X748Y33225D01*
X502Y34909D02*
X769Y34641D01*
X502Y34267D02*
X748Y34514D01*
X502Y33549D02*
X748Y33796D01*
X502Y34190D02*
X748Y33944D01*
X502Y30675D02*
X748Y30922D01*
X502Y31317D02*
X748Y31070D01*
X502Y29957D02*
X748Y30204D01*
X502Y30598D02*
X748Y30352D01*
X502Y32112D02*
X748Y32359D01*
X502Y32754D02*
X748Y32507D01*
X502Y31394D02*
X748Y31641D01*
X502Y32035D02*
X748Y31788D01*
X1752Y31504D02*
X4619Y28636D01*
X1752Y29052D02*
X4416Y31716D01*
X1752Y27615D02*
X5134Y30997D01*
X1752Y28333D02*
X4775Y31357D01*
X1752Y33659D02*
X5884Y29526D01*
X1752Y29770D02*
X4394Y32413D01*
X1752Y32940D02*
X5500Y29192D01*
X1752Y32222D02*
X4978Y28996D01*
X4249Y28042D02*
X4348D01*
X4249D02*
X4348D01*
X3998Y27791D02*
X4249Y28042D01*
X3998Y27791D02*
X4249Y28042D01*
X1752Y30785D02*
X4348Y28188D01*
X1752Y30067D02*
X4013Y27805D01*
X1752Y26178D02*
X6508Y30934D01*
X1752Y26896D02*
X5790Y30934D01*
X502Y27802D02*
X748Y28048D01*
X502Y28443D02*
X748Y28196D01*
X1752Y29348D02*
X3654Y27446D01*
X1752Y28630D02*
X3295Y27087D01*
X502Y29238D02*
X748Y29485D01*
X502Y29880D02*
X748Y29633D01*
X502Y28520D02*
X748Y28767D01*
X502Y29162D02*
X748Y28915D01*
X1752Y27912D02*
X2935Y26728D01*
X1752Y27193D02*
X2576Y26369D01*
X1752Y26475D02*
X2217Y26009D01*
X502Y26288D02*
X748Y26041D01*
X502Y27083D02*
X748Y27330D01*
X502Y27725D02*
X748Y27478D01*
X502Y26365D02*
X748Y26612D01*
X502Y27006D02*
X748Y26759D01*
X17749Y25652D02*
X17996Y25898D01*
X18133D02*
X18380Y25652D01*
X17415Y25898D02*
X17662Y25652D01*
X18852Y25898D02*
X19098Y25652D01*
X18467D02*
X18714Y25898D01*
X15778Y26098D02*
X17223Y24653D01*
X16496Y26098D02*
X17223Y25371D01*
X15566Y24187D02*
X17277Y25898D01*
X14892Y24232D02*
X16759Y26098D01*
X19098Y25652D02*
X19277Y25473D01*
X17223Y25652D02*
X19277D01*
X17223Y24502D02*
Y25652D01*
X17057Y24502D02*
X17223D01*
X16803Y24706D02*
X17223Y25126D01*
X16147Y24706D02*
X16853D01*
X17057Y24502D01*
X15059Y26098D02*
X16452Y24706D01*
X14341Y26098D02*
X15941Y24499D01*
X15794Y24353D02*
X16147Y24706D01*
X14174Y24232D02*
X16041Y26098D01*
X13849Y24626D02*
X15322Y26098D01*
X14164Y25688D02*
Y26098D01*
X14098Y25623D02*
X15489Y24232D01*
X13739Y25264D02*
X14771Y24232D01*
X15521D02*
X15772Y23981D01*
X15794Y23958D02*
Y24353D01*
X15521Y24232D02*
X15772Y23981D01*
X14164Y24232D02*
X15019D01*
X14164D02*
Y24312D01*
X15019Y24232D02*
X15521D01*
X15019D02*
X15521D01*
X17373Y22348D02*
X19312Y20409D01*
X18091Y22348D02*
X20030Y20409D01*
X17536D02*
X19723Y22597D01*
X17223Y22348D02*
X19277D01*
X16504Y22498D02*
X18593Y20409D01*
X16817Y20409D02*
X18756Y22348D01*
X16099Y20409D02*
X18038Y22348D01*
X18809D02*
X20248Y20909D01*
X18254Y20409D02*
X20193Y22348D01*
X16291Y14091D02*
X20292Y10090D01*
X18973Y20409D02*
X20248Y21685D01*
X14136Y14091D02*
X19208Y9018D01*
X13792Y9481D02*
X18401Y14091D01*
X13792Y5889D02*
X21993Y14091D01*
X13792Y8763D02*
X19119Y14091D01*
X15498Y22749D02*
X15749Y22498D01*
X15019Y23228D02*
X15498Y22749D01*
X14337Y23228D02*
X17156Y20409D01*
X15498Y22749D02*
X15749Y22498D01*
X14164Y23228D02*
X15019D01*
X14164Y23148D02*
Y23228D01*
X13931Y22916D02*
X16438Y20409D01*
X13944D02*
X16033Y22498D01*
X17223Y22348D02*
Y22498D01*
X16251D02*
X17223D01*
X15786D02*
X17875Y20409D01*
X17223Y22498D02*
X17373Y22348D01*
X15749Y22498D02*
X16251D01*
X15749D02*
X16251D01*
X15381Y20409D02*
X17319Y22348D01*
X14662Y20409D02*
X16751Y22498D01*
X13582Y25106D02*
X14164Y25688D01*
X12680Y24894D02*
X12893Y25106D01*
X13399Y24894D02*
X14604Y26098D01*
X13178Y25106D02*
X13391Y24894D01*
X11836Y25729D02*
X12459Y25106D01*
X11836Y25688D02*
X12418Y25106D01*
X7694Y26998D02*
X14283Y20409D01*
X12459Y25106D02*
X12672Y24894D01*
X13582D02*
X14164Y24312D01*
X12418Y24894D02*
X13582D01*
Y22566D02*
X14164Y23148D01*
X12418Y22566D02*
X13582D01*
X12418Y25106D02*
X13582D01*
X11836Y24312D02*
X12418Y24894D01*
X11788Y20409D02*
X14607Y23228D01*
X11836Y23148D02*
X12418Y22566D01*
X10478Y26019D02*
X10729Y25768D01*
X10478Y26019D02*
X10729Y25768D01*
X8412Y26998D02*
X11836Y23574D01*
X9131Y26998D02*
X11836Y24293D01*
X6813Y24055D02*
X9628Y26870D01*
X6105Y24066D02*
X9038Y26998D01*
X7532Y23337D02*
X10346Y26151D01*
X7172Y23696D02*
X9987Y26511D01*
X11836Y25688D02*
Y25768D01*
X11231D02*
X11836D01*
X11079D02*
X12186Y24661D01*
X11836Y23148D02*
Y24312D01*
X10729Y25768D02*
X11231D01*
X10729D02*
X11231D01*
X7606Y21974D02*
X11400Y25768D01*
X7606Y22692D02*
X10705Y25792D01*
X13563Y22566D02*
X15719Y20409D01*
X13225D02*
X15532Y22716D01*
X13192Y14091D02*
X38500Y14091D01*
X13192Y12473D02*
X14809Y14091D01*
X12507Y20409D02*
X15172Y23075D01*
X7456Y26518D02*
X13564Y20409D01*
X3000Y20409D02*
X20248Y20409D01*
X12844Y22566D02*
X15001Y20409D01*
X13417Y14091D02*
X20668Y6840D01*
X13461Y9869D02*
X17683Y14091D01*
X13632Y6448D02*
X21275Y14091D01*
X13273Y6807D02*
X20556Y14091D01*
X13192Y11036D02*
X16246Y14091D01*
X13192Y11755D02*
X15527Y14091D01*
X12587Y6840D02*
X19838Y14091D01*
X13192Y10318D02*
X16964Y14091D01*
X7096Y26159D02*
X12846Y20409D01*
X7478Y20409D02*
X12296Y25228D01*
X8915Y20409D02*
X11836Y23331D01*
X8196Y20409D02*
X11836Y24049D01*
X6648Y25888D02*
X12127Y20409D01*
X5212Y25888D02*
X10691Y20409D01*
X6759D02*
X11937Y25587D01*
X5930Y25888D02*
X11409Y20409D01*
X11070D02*
X13227Y22566D01*
X10352Y20409D02*
X12509Y22566D01*
X13192Y13910D02*
X13372Y14091D01*
X13192Y10090D02*
Y14091D01*
X7606Y22776D02*
X9972Y20409D01*
X7447Y21498D02*
X8535Y20409D01*
X9633D02*
X12104Y22880D01*
X7606Y22058D02*
X9254Y20409D01*
X15573Y14091D02*
X19666Y9997D01*
X18446Y14091D02*
X25615Y6922D01*
X14854Y14091D02*
X19307Y9638D01*
X17728Y14091D02*
X25160Y6658D01*
X17009Y14091D02*
X24848Y6252D01*
X13192Y13192D02*
X14091Y14091D01*
X13192Y13192D02*
X14091Y14091D01*
X12929Y3590D02*
X23430Y14091D01*
X12276Y3655D02*
X22712Y14091D01*
X13792Y8437D02*
Y9539D01*
X13241Y10090D02*
X13792Y9539D01*
X13241Y4636D02*
X13792Y5187D01*
X13241Y7886D02*
X13792Y8437D01*
X13192Y13598D02*
X19950Y6840D01*
X13192Y12879D02*
X19495Y6576D01*
X13192Y11443D02*
X19208Y5426D01*
X13192Y12161D02*
X19208Y6144D01*
X12188Y10090D02*
Y14091D01*
X11980D02*
X12188Y13883D01*
X12139Y7886D02*
X13241D01*
X12105Y7076D02*
X12915Y7886D01*
X11588Y9539D02*
X12139Y10090D01*
X11588Y8437D02*
Y9539D01*
X11745Y7435D02*
X12197Y7886D01*
X11588Y8437D02*
X12139Y7886D01*
X13241Y6840D02*
X13792Y6289D01*
X12341Y6840D02*
X13241D01*
X13792Y5187D02*
Y6289D01*
X12139Y4636D02*
X13241D01*
X11588Y5187D02*
X12139Y4636D01*
X11588Y5187D02*
Y6087D01*
X11917Y4014D02*
X12539Y4636D01*
X11557Y4373D02*
X11980Y4796D01*
X13792Y9406D02*
X19684Y3514D01*
X13792Y8687D02*
X19324Y3155D01*
X13792Y2297D02*
X19570Y8075D01*
X13792Y3015D02*
X19211Y8435D01*
X13192Y10724D02*
X20326Y3590D01*
X13557Y8203D02*
X19208Y2552D01*
X13715Y1502D02*
X20100Y7886D01*
X13156D02*
X19540Y1502D01*
X17307D02*
X20442Y4636D01*
X16588Y1502D02*
X19741Y4654D01*
X18744Y1502D02*
X19208Y1966D01*
X18025Y1502D02*
X19208Y2685D01*
X13356Y1502D02*
X19644D01*
X14433D02*
X19208Y6277D01*
X15870Y1502D02*
X19382Y5014D01*
X15152Y1502D02*
X19208Y5558D01*
X13444Y3386D02*
X19208Y9151D01*
X13386Y4782D02*
X16667Y1502D01*
X13792Y5814D02*
X18104Y1502D01*
X13746Y5141D02*
X17385Y1502D01*
X13241Y3590D02*
X13792Y3039D01*
X12341Y3590D02*
X13241D01*
X12437Y7886D02*
X18822Y1502D01*
X12814Y4636D02*
X15948Y1502D01*
X13575Y1720D02*
X13793Y1502D01*
X13792Y1937D02*
Y3039D01*
Y2940D02*
X15230Y1502D01*
X13792Y2221D02*
X14512Y1502D01*
X11559D02*
X11792Y1734D01*
X11588Y1937D02*
Y2837D01*
X13356Y1502D02*
X13792Y1937D01*
X11588D02*
X12024Y1502D01*
X10544Y14091D02*
X12188Y12446D01*
X11262Y14091D02*
X12188Y13164D01*
X9107Y14091D02*
X12188Y11009D01*
X9825Y14091D02*
X12188Y11727D01*
X3500Y14091D02*
X12188D01*
X8346Y10502D02*
X11935Y14091D01*
X8388D02*
X12188Y10290D01*
X7670Y14091D02*
X11905Y9855D01*
X10309Y8872D02*
X12188Y10752D01*
X9949Y9231D02*
X12188Y11470D01*
X11386Y7794D02*
X11809Y8217D01*
X11027Y8153D02*
X11588Y8715D01*
X9231Y9949D02*
X12188Y12907D01*
X8872Y10309D02*
X12188Y13625D01*
X9590Y9590D02*
X12188Y12188D01*
X9590Y9590D02*
X12188Y12188D01*
X7628Y10502D02*
X11217Y14091D01*
X8177Y10502D02*
X8679D01*
X7606Y12718D02*
X11588Y8735D01*
X8177Y10502D02*
X8679D01*
X7606Y11916D02*
X9780Y14091D01*
X7606Y12635D02*
X9062Y14091D01*
X6952D02*
X11588Y9454D01*
X6909Y10502D02*
X10498Y14091D01*
X8679Y10502D02*
X8930Y10251D01*
X8679Y10502D02*
X8930Y10251D01*
X10668Y8513D02*
X11588Y9433D01*
X8684Y7247D02*
X9556Y8119D01*
X7965Y7965D02*
X8838Y8838D01*
X7606Y8324D02*
X8479Y9197D01*
X8324Y7606D02*
X9197Y8479D01*
X7965Y7965D02*
X8838Y8838D01*
X7606Y12000D02*
X12766Y6840D01*
X8930Y10251D02*
X12341Y6840D01*
X7952Y9498D02*
X11588Y5861D01*
X8177Y9498D02*
X11588Y6087D01*
X6515Y9498D02*
X12424Y3590D01*
X6930Y9001D02*
X12341Y3590D01*
X7233Y9498D02*
X13142Y3590D01*
X6177Y8248D02*
X11588Y2837D01*
X10839Y5092D02*
X11588Y5841D01*
X10480Y5451D02*
X11352Y6323D01*
X11198Y4732D02*
X11621Y5155D01*
X10841Y1502D02*
X11588Y2249D01*
X7902Y5238D02*
X11638Y1502D01*
X7902Y5956D02*
X11588Y2269D01*
X8251Y1502D02*
X12024D01*
X10123D02*
X11523Y2902D01*
X9402Y6528D02*
X10275Y7401D01*
X9043Y6888D02*
X9915Y7760D01*
X10120Y5810D02*
X10993Y6683D01*
X9761Y6169D02*
X10634Y7042D01*
X7902Y4310D02*
X9009Y5417D01*
X7902Y5028D02*
X8650Y5776D01*
X7902Y2873D02*
X9727Y4698D01*
X7902Y3591D02*
X9368Y5058D01*
X8109Y1643D02*
X10446Y3980D01*
X7902Y3083D02*
X9483Y1502D01*
X9404D02*
X11164Y3262D01*
X8686Y1502D02*
X10805Y3621D01*
X7750Y2003D02*
X10087Y4339D01*
X7684Y2582D02*
X8764Y1502D01*
X7902Y4519D02*
X10919Y1502D01*
X7902Y3801D02*
X10201Y1502D01*
X5387Y24066D02*
X8319Y26998D01*
X6803Y24066D02*
X7606Y23263D01*
X6803Y20854D02*
X7606Y21657D01*
Y23263D01*
X5174Y25888D02*
X6826D01*
X3688Y25975D02*
X5598Y24066D01*
X5197D02*
X6803D01*
X4047Y26335D02*
X6316Y24066D01*
X6041Y20409D02*
X6486Y20854D01*
X7087Y21139D02*
X7817Y20409D01*
X6653Y20854D02*
X7098Y20409D01*
X5197Y20854D02*
X6803D01*
X5935D02*
X6380Y20409D01*
X5323Y20409D02*
X5768Y20854D01*
X5217D02*
X5662Y20409D01*
X4394Y23263D02*
X5197Y24066D01*
X4394Y21677D02*
X5217Y20854D01*
X4394Y21657D02*
Y23263D01*
X3329Y25616D02*
X5038Y23907D01*
X2969Y25257D02*
X4679Y23547D01*
X2502Y23569D02*
X4394Y21677D01*
X2610Y24898D02*
X4394Y23113D01*
Y21657D02*
X5197Y20854D01*
X4604Y20409D02*
X5123Y20928D01*
X3886Y20409D02*
X4764Y21288D01*
X3167Y20409D02*
X4405Y21647D01*
X2901Y20409D02*
X3000D01*
X2744Y20378D02*
X2901Y20409D01*
X2560Y20302D02*
X2744Y20378D01*
X6801Y13986D02*
X6906Y14091D01*
X6233D02*
X6338Y13986D01*
X7521Y13268D02*
X8343Y14091D01*
X7161Y13627D02*
X7625Y14091D01*
X5515D02*
X5620Y13986D01*
X5365D02*
X5469Y14091D01*
X6083Y13986D02*
X6188Y14091D01*
X4394Y13183D02*
X5197Y13986D01*
X6803D02*
X7606Y13183D01*
X6803Y10774D02*
X7606Y11577D01*
Y13183D01*
X5197Y13986D02*
X6803D01*
X4394Y11619D02*
X5239Y10774D01*
X4394Y11577D02*
X5197Y10774D01*
X2870Y14236D02*
X3052Y14160D01*
X2635Y14383D02*
X2799Y14273D01*
X3352Y14098D02*
X4394Y13056D01*
X3128Y14137D02*
X3322Y14098D01*
X2502Y13996D02*
X2787Y14281D01*
X2502Y14505D02*
X2573Y14434D01*
X2502Y14230D02*
X4394Y12337D01*
X2502Y12251D02*
Y14505D01*
X4796Y14091D02*
X5049Y13838D01*
X4078Y14091D02*
X4690Y13478D01*
X3784Y10968D02*
X4394Y11579D01*
Y11577D02*
Y13183D01*
X2706Y12046D02*
X4751Y14091D01*
X3402Y14091D02*
X3500Y14091D01*
X3425Y11328D02*
X4394Y12297D01*
X3066Y11687D02*
X4394Y13015D01*
X2502Y23336D02*
X5114Y25948D01*
X2502Y24054D02*
X4755Y26308D01*
X2502Y21899D02*
X6491Y25888D01*
X2502Y22617D02*
X5773Y25888D01*
X1752Y25544D02*
X3998Y27791D01*
X1752Y25544D02*
Y34119D01*
X2502Y24773D02*
X4396Y26667D01*
X2502Y24789D02*
X4387Y26675D01*
X2502Y20462D02*
X4394Y22355D01*
X2502Y22133D02*
X4225Y20409D01*
X2502Y21414D02*
X3506Y20409D01*
X2502Y20696D02*
X2807Y20391D01*
X2502Y24288D02*
X4394Y22395D01*
X1752Y25756D02*
X1858Y25650D01*
X2502Y22851D02*
X4943Y20409D01*
X2502Y21181D02*
X4394Y23073D01*
X502Y24133D02*
X748Y23886D01*
X502Y24209D02*
X748Y24456D01*
X502Y23414D02*
X748Y23167D01*
X502Y23491D02*
X748Y23738D01*
X502Y25569D02*
X748Y25323D01*
X502Y25646D02*
X748Y25893D01*
X502Y24851D02*
X748Y24604D01*
X502Y24928D02*
X748Y25175D01*
X502Y21259D02*
X748Y21012D01*
X502Y21336D02*
X748Y21583D01*
X502Y20540D02*
X748Y20294D01*
X502Y20617D02*
X748Y20864D01*
X502Y22696D02*
X748Y22449D01*
X502Y22773D02*
X748Y23019D01*
X502Y21977D02*
X748Y21731D01*
X502Y22054D02*
X748Y22301D01*
X2502Y13278D02*
X3322Y14098D01*
X2502Y20263D02*
Y24789D01*
Y12559D02*
X4033Y14091D01*
X748Y10751D02*
Y34119D01*
X502Y14152D02*
X748Y14398D01*
X502Y14793D02*
X748Y14546D01*
X502Y13433D02*
X748Y13680D01*
X502Y14075D02*
X748Y13828D01*
X2502Y13512D02*
X4394Y11619D01*
X502Y11919D02*
X748Y11673D01*
X2502Y12793D02*
X4793Y10502D01*
X2502Y12251D02*
X4251Y10502D01*
X502Y12715D02*
X748Y12962D01*
X502Y13356D02*
X748Y13109D01*
X502Y11996D02*
X748Y12243D01*
X502Y12638D02*
X748Y12391D01*
X502Y18462D02*
X748Y18709D01*
X502Y19104D02*
X748Y18857D01*
X502Y17744D02*
X748Y17991D01*
X502Y18385D02*
X748Y18138D01*
X502Y19822D02*
X748Y19575D01*
X502Y19899D02*
X748Y20146D01*
X502Y19181D02*
X748Y19427D01*
X502Y4500D02*
Y45500D01*
Y15588D02*
X748Y15835D01*
X502Y16230D02*
X748Y15983D01*
X502Y14870D02*
X748Y15117D01*
X502Y15512D02*
X748Y15265D01*
X502Y17025D02*
X748Y17272D01*
X502Y17667D02*
X748Y17420D01*
X502Y16307D02*
X748Y16554D01*
X502Y16948D02*
X748Y16702D01*
X6676Y10774D02*
X6948Y10502D01*
X6191D02*
X6464Y10774D01*
X7458Y11429D02*
X8385Y10502D01*
X7098Y11070D02*
X7667Y10502D01*
X4251D02*
X8177D01*
X5197Y10774D02*
X6803D01*
X5957D02*
X6230Y10502D01*
X5796Y9498D02*
X6043Y9252D01*
X6888Y9043D02*
X7343Y9498D01*
X6679Y9252D02*
X6930Y9001D01*
X7247Y8684D02*
X8062Y9498D01*
X6679Y9252D02*
X6930Y9001D01*
X4251Y9498D02*
X8177D01*
X6177Y9252D02*
X6679D01*
X6177D02*
X6679D01*
X6378D02*
X6625Y9498D01*
X4754Y10502D02*
X5112Y10859D01*
X5473Y10502D02*
X5745Y10774D01*
X5239D02*
X5512Y10502D01*
X4143Y10609D02*
X4753Y11219D01*
X3749Y9498D02*
X4251D01*
X3749D02*
X4251D01*
X3504Y9252D02*
X3751Y9498D01*
X5659Y9252D02*
X5906Y9498D01*
X5078D02*
X5325Y9252D01*
X5609Y8248D02*
X5956Y7902D01*
X5028D02*
X5375Y8248D01*
X4359Y9498D02*
X4606Y9252D01*
X4223D02*
X4469Y9498D01*
X4941Y9252D02*
X5188Y9498D01*
X4173Y8248D02*
X4519Y7902D01*
X7770Y6333D02*
X7931Y6494D01*
X7410Y6692D02*
X7572Y6854D01*
X7902Y5746D02*
X8290Y6135D01*
X7902Y2799D02*
Y6201D01*
X7051Y7051D02*
X7213Y7213D01*
X7051Y7051D02*
X7213Y7213D01*
X5956Y7902D02*
X7902Y5956D01*
X6201Y7902D02*
X7902Y6201D01*
X7427Y2325D02*
X8251Y1502D01*
X7427Y2325D02*
X7902Y2799D01*
X7498Y749D02*
X7746Y502D01*
X7498Y749D02*
X7746Y502D01*
X4500D02*
X7746D01*
X6675Y1573D02*
X7498Y749D01*
X6606Y1504D02*
X7609Y502D01*
X6967D02*
X7357Y891D01*
X6692Y7410D02*
X6854Y7572D01*
X6333Y7770D02*
X6494Y7931D01*
X6249Y502D02*
X6997Y1250D01*
X6201Y1098D02*
X6675Y1573D01*
X4310Y7902D02*
X4656Y8248D01*
X3591Y7902D02*
X3938Y8248D01*
X5746Y7902D02*
X6093Y8248D01*
X4891D02*
X5238Y7902D01*
X5531Y502D02*
X6127Y1098D01*
X4857D02*
X5454Y502D01*
X6247Y1145D02*
X6890Y502D01*
X5575Y1098D02*
X6172Y502D01*
X4113Y520D02*
X4691Y1098D01*
X3502Y628D02*
X3972Y1098D01*
X4812Y502D02*
X5409Y1098D01*
X4138D02*
X4735Y502D01*
X3498Y9749D02*
X3749Y9498D01*
X2659Y9843D02*
X3032Y10216D01*
X3498Y9749D02*
X3749Y9498D01*
X3018Y9484D02*
X3391Y9857D01*
X1752Y11388D02*
X3888Y9252D01*
X1752Y11496D02*
X3498Y9749D01*
X1752Y10751D02*
X3251Y9252D01*
X502Y10483D02*
X3083Y7902D01*
X3251Y8248D02*
X6177D01*
X3251Y9252D02*
X6177D01*
X3454Y8248D02*
X3801Y7902D01*
X2873D02*
X3219Y8248D01*
X2749D02*
X3251D01*
X2498Y8499D02*
X2749Y8248D01*
X2799Y7902D02*
X6201D01*
X2749Y8248D02*
X3251D01*
X1752Y11091D02*
X1954Y11294D01*
X1752Y10751D02*
Y11496D01*
X1941Y10562D02*
X2313Y10934D01*
X748Y10249D02*
Y10751D01*
X502Y11201D02*
X748Y10954D01*
X502Y11278D02*
X748Y11525D01*
Y10249D02*
Y10751D01*
X502Y10559D02*
X748Y10806D01*
X2300Y10203D02*
X2672Y10575D01*
X748Y10249D02*
X999Y9998D01*
X2498Y8499D02*
X2749Y8248D01*
X999Y9998D02*
X2498Y8499D01*
X748Y10249D02*
X999Y9998D01*
X502Y9841D02*
X829Y10169D01*
X502Y8404D02*
X1547Y9450D01*
X502Y9123D02*
X1188Y9809D01*
X1098Y6127D02*
X2873Y7902D01*
X1098Y6201D02*
X2799Y7902D01*
X789Y3011D02*
X3011Y789D01*
X502Y9764D02*
X2582Y7684D01*
X502Y9046D02*
X2222Y7325D01*
X502Y6249D02*
X2625Y8372D01*
X502Y6967D02*
X2266Y8732D01*
X2799Y1098D02*
X6201D01*
X2484Y1047D02*
X2667Y1230D01*
X3420Y1098D02*
X3983Y535D01*
X2964Y808D02*
X3254Y1098D01*
X1673Y1673D02*
X1949Y1949D01*
X1673Y1673D02*
X1949Y1949D01*
X1098Y2799D02*
X2799Y1098D01*
X2055Y1336D02*
X2308Y1590D01*
X502Y5531D02*
X1098Y6127D01*
X502Y6172D02*
X1098Y5575D01*
Y2799D02*
Y6201D01*
X502Y5454D02*
X1098Y4857D01*
X502Y7686D02*
X1907Y9091D01*
X502Y8327D02*
X1863Y6966D01*
X502Y7609D02*
X1504Y6606D01*
X502Y6890D02*
X1145Y6247D01*
X808Y2964D02*
X1098Y3254D01*
X628Y3502D02*
X1098Y3972D01*
X1336Y2055D02*
X1590Y2308D01*
X1047Y2484D02*
X1230Y2667D01*
X502Y4735D02*
X1098Y4138D01*
X502Y4812D02*
X1098Y5409D01*
X535Y3983D02*
X1098Y3420D01*
X520Y4113D02*
X1098Y4691D01*
D11*
X18250Y24950D02*
D03*
Y24000D02*
D03*
Y23050D02*
D03*
X20750D02*
D03*
Y24000D02*
D03*
Y24950D02*
D03*
X18250Y34950D02*
D03*
Y34000D02*
D03*
Y33050D02*
D03*
X20750D02*
D03*
Y34000D02*
D03*
Y34950D02*
D03*
X18250Y28400D02*
D03*
Y26600D02*
D03*
Y38400D02*
D03*
Y36600D02*
D03*
D12*
X40900Y45500D02*
D03*
X39100D02*
D03*
D13*
X39400D02*
X39654D01*
X39100Y46125D02*
Y46379D01*
X37747Y45747D02*
X37927Y45927D01*
X37073D02*
X37253Y45747D01*
X37747Y45253D02*
X37927Y45073D01*
X37073D02*
X37253Y45253D01*
X39100Y44621D02*
Y44875D01*
X45207Y32793D02*
X45387Y32613D01*
X45207Y34207D02*
X45387Y34387D01*
X43613D02*
X43793Y34207D01*
X43613Y32613D02*
X43793Y32793D01*
X45207Y20207D02*
X45387Y20387D01*
X43613D02*
X43793Y20207D01*
X43613Y18613D02*
X43793Y18793D01*
X45207D02*
X45387Y18613D01*
X38250Y3230D02*
X38504D01*
X37500Y3980D02*
Y4234D01*
X36496Y3230D02*
X36750D01*
X31750Y3980D02*
Y4234D01*
X32500Y3230D02*
X32754D01*
X31750Y2226D02*
Y2480D01*
X30746Y3230D02*
X31000D01*
X37500Y2226D02*
Y2480D01*
X26750Y3230D02*
X27004D01*
X26000Y3980D02*
Y4234D01*
X24996Y3230D02*
X25250D01*
X26000Y2226D02*
Y2480D01*
X18875Y38400D02*
X19129D01*
X18250Y38700D02*
Y38954D01*
Y37846D02*
Y38100D01*
X16747Y38647D02*
X16927Y38827D01*
X16073D02*
X16253Y38647D01*
X16747Y38153D02*
X16927Y37973D01*
X16073D02*
X16253Y38153D01*
X18875Y34000D02*
X19129D01*
X16073Y34427D02*
X16253Y34247D01*
X16747D02*
X16927Y34427D01*
X18875Y28400D02*
X19129D01*
X18250Y27846D02*
Y28100D01*
X16747Y28153D02*
X16927Y27973D01*
X16073D02*
X16253Y28153D01*
X6884Y33424D02*
X7063Y33603D01*
X4937D02*
X5116Y33424D01*
X6884Y31656D02*
X7063Y31477D01*
X4937D02*
X5116Y31656D01*
X16747Y24247D02*
X16927Y24427D01*
X16073D02*
X16253Y24247D01*
X18875Y24000D02*
X19129D01*
X6884Y23344D02*
X7063Y23523D01*
X6884Y21576D02*
X7063Y21397D01*
X4937Y23523D02*
X5116Y23344D01*
X4937Y21397D02*
X5116Y21576D01*
X6884Y13264D02*
X7063Y13443D01*
X4937D02*
X5116Y13264D01*
X6884Y11496D02*
X7063Y11317D01*
X4937D02*
X5116Y11496D01*
D14*
X20750Y24000D02*
X25655D01*
X25960Y24305D01*
X6000Y37620D02*
X8380D01*
X6000Y27540D02*
X6040Y27500D01*
X9750D01*
X10980Y26270D01*
X13000D01*
X4500Y27540D02*
X6000D01*
X5970Y37590D02*
X6000Y37620D01*
X4470Y37590D02*
X5970D01*
X1250Y34370D02*
X4470Y37590D01*
X18250Y36600D02*
X20150D01*
X13000Y36350D02*
X13250Y36600D01*
X18250D01*
X9730Y36270D02*
X13000D01*
X8380Y37620D02*
X9730Y36270D01*
X4500Y4500D02*
X8000Y1000D01*
X41250D02*
X44750Y4500D01*
X8000Y1000D02*
X41250D01*
X44750Y4500D02*
X45500D01*
Y44750D02*
Y45500D01*
Y44750D02*
X48250Y42000D01*
Y7250D02*
Y42000D01*
X45500Y4500D02*
X48250Y7250D01*
X42750Y48250D02*
X45500Y45500D01*
X8000Y48250D02*
X42750D01*
X5250Y45500D02*
X8000Y48250D01*
X4500Y45500D02*
X5250D01*
X40900D02*
X45500D01*
X37500D02*
X39100D01*
X16500Y24000D02*
X18250D01*
X16500Y28400D02*
X18250D01*
X16500Y34000D02*
X18250D01*
X16500Y38400D02*
X18250D01*
X29750Y32250D02*
X30250Y31750D01*
X22250Y32250D02*
X29750D01*
X21450Y33050D02*
X22250Y32250D01*
X20250Y33050D02*
X21450D01*
X20750Y19500D02*
Y23050D01*
Y34950D02*
Y36000D01*
X20150Y36600D02*
X20750Y36000D01*
X20450Y34200D02*
X25355D01*
X13000Y33730D02*
X15270D01*
X16000Y33000D01*
X18200D01*
Y23000D02*
X18250Y23050D01*
X16000Y23000D02*
X18200D01*
X15270Y23730D02*
X16000Y23000D01*
X13000Y23730D02*
X15270D01*
X20150Y26600D02*
X20750Y26000D01*
X18250Y26600D02*
X20150D01*
X20750Y24950D02*
Y26000D01*
X13688Y26600D02*
X18250D01*
X13358Y26270D02*
X13688Y26600D01*
X1250Y10500D02*
Y34370D01*
Y10500D02*
X3000Y8750D01*
X6428D01*
X12690Y2488D01*
X8428Y10000D02*
X12690Y5738D01*
X4000Y10000D02*
X8428D01*
X2000Y12000D02*
X4000Y10000D01*
X2000Y12000D02*
Y25040D01*
X4500Y27540D01*
X12690Y16190D02*
X12750Y16250D01*
X12690Y8988D02*
Y16190D01*
D15*
X6000Y27540D02*
X8710Y30250D01*
X25151D02*
X28500Y26901D01*
X8710Y30250D02*
X25151D01*
X24966Y40500D02*
X28500Y36966D01*
X8880Y40500D02*
X24966D01*
X6000Y37620D02*
X8880Y40500D01*
X28500Y34385D02*
Y36966D01*
Y24305D02*
Y26901D01*
D16*
X44500Y33500D02*
D03*
X39500D02*
D03*
Y19500D02*
D03*
X44500D02*
D03*
D17*
X31750Y5770D02*
D03*
X37500D02*
D03*
X26000D02*
D03*
D18*
X31750Y3230D02*
D03*
X37500D02*
D03*
X26000D02*
D03*
D19*
X12690Y8988D02*
D03*
X20310D02*
D03*
X12690Y2488D02*
D03*
X20310D02*
D03*
X12690Y5738D02*
D03*
X20310D02*
D03*
D20*
X4500Y45500D02*
D03*
X45500D02*
D03*
X4500Y4500D02*
D03*
X45500D02*
D03*
D21*
X30000Y44250D02*
D03*
X20500D02*
D03*
D22*
X25960Y24305D02*
D03*
X28500D02*
D03*
X31040D02*
D03*
X25960Y34385D02*
D03*
X28500D02*
D03*
X31040D02*
D03*
D23*
X13000Y26270D02*
D03*
Y23730D02*
D03*
Y36350D02*
D03*
Y33810D02*
D03*
D24*
X6000Y17460D02*
D03*
Y12380D02*
D03*
Y27540D02*
D03*
Y22460D02*
D03*
Y37620D02*
D03*
Y32540D02*
D03*
D25*
X37500Y45500D02*
D03*
X16500Y28400D02*
D03*
Y38400D02*
D03*
Y34000D02*
D03*
Y24000D02*
D03*
%TF.MD5,5e2c31c5daf5abdabe9cc8b38a4dbde8*%
M02*
