%TF.GenerationSoftware,Altium Limited,Altium Designer,25.2.1 (25)*%
G04 Layer_Color=8388736*
%FSLAX43Y43*%
%MOMM*%
%TF.SameCoordinates,7901F6FB-5547-41B2-A73E-222B968302CC*%
%TF.FilePolarity,Negative*%
%TF.FileFunction,Soldermask,Top*%
%TF.Part,Single*%
G01*
G75*
%TA.AperFunction,SMDPad,CuDef*%
%ADD31R,1.400X0.750*%
%ADD32R,0.750X1.400*%
%TA.AperFunction,ComponentPad*%
%ADD33C,2.150*%
%ADD34C,1.650*%
%ADD35R,1.650X1.650*%
%ADD36C,1.550*%
%ADD37C,6.150*%
%ADD38C,2.550*%
%ADD39C,2.350*%
%ADD40C,1.674*%
%ADD41C,2.650*%
%TA.AperFunction,ViaPad*%
%ADD42C,0.850*%
D31*
X18250Y24950D02*
D03*
Y24000D02*
D03*
Y23050D02*
D03*
X20750D02*
D03*
Y24000D02*
D03*
Y24950D02*
D03*
X18250Y34950D02*
D03*
Y34000D02*
D03*
Y33050D02*
D03*
X20750D02*
D03*
Y34000D02*
D03*
Y34950D02*
D03*
X18250Y28400D02*
D03*
Y26600D02*
D03*
Y38400D02*
D03*
Y36600D02*
D03*
D32*
X40900Y45500D02*
D03*
X39100D02*
D03*
D33*
X44500Y33500D02*
D03*
X39500D02*
D03*
Y19500D02*
D03*
X44500D02*
D03*
D34*
X31750Y5770D02*
D03*
X37500D02*
D03*
X26000D02*
D03*
D35*
X31750Y3230D02*
D03*
X37500D02*
D03*
X26000D02*
D03*
D36*
X12690Y8988D02*
D03*
X20310D02*
D03*
X12690Y2488D02*
D03*
X20310D02*
D03*
X12690Y5738D02*
D03*
X20310D02*
D03*
D37*
X4500Y45500D02*
D03*
X45500D02*
D03*
X4500Y4500D02*
D03*
X45500D02*
D03*
D38*
X30000Y44250D02*
D03*
X20500D02*
D03*
D39*
X25960Y24305D02*
D03*
X28500D02*
D03*
X31040D02*
D03*
X25960Y34385D02*
D03*
X28500D02*
D03*
X31040D02*
D03*
D40*
X13000Y26270D02*
D03*
Y23730D02*
D03*
Y36350D02*
D03*
Y33810D02*
D03*
D41*
X6000Y17460D02*
D03*
Y12380D02*
D03*
Y27540D02*
D03*
Y22460D02*
D03*
Y37620D02*
D03*
Y32540D02*
D03*
D42*
X37500Y45500D02*
D03*
X16500Y28400D02*
D03*
Y38400D02*
D03*
Y34000D02*
D03*
Y24000D02*
D03*
%TF.MD5,9b20b94054348e5c76065cd89ff4d12c*%
M02*
