%TF.GenerationSoftware,Altium Limited,Altium Designer,25.2.1 (25)*%
G04 Layer_Color=16711833*
%FSLAX43Y43*%
%MOMM*%
%TF.SameCoordinates,7901F6FB-5547-41B2-A73E-222B968302CC*%
%TF.FilePolarity,Positive*%
%TF.FileFunction,Other,Mechanical_13*%
%TF.Part,Single*%
G01*
G75*
%TA.AperFunction,NonConductor*%
%ADD26C,0.100*%
%ADD27C,0.200*%
D26*
X48500Y33500D02*
G03*
X48500Y33500I-6500J0D01*
G01*
X33035Y3000D02*
G03*
X30465Y3000I-1285J1500D01*
G01*
X33250Y4500D02*
G03*
X33250Y4500I-1500J0D01*
G01*
X38785Y3000D02*
G03*
X36215Y3000I-1285J1500D01*
G01*
X39000Y4500D02*
G03*
X39000Y4500I-1500J0D01*
G01*
X27285Y3000D02*
G03*
X24715Y3000I-1285J1500D01*
G01*
X27500Y4500D02*
G03*
X27500Y4500I-1500J0D01*
G01*
X48500Y19500D02*
G03*
X48500Y19500I-6500J0D01*
G01*
X30465Y3000D02*
X33035D01*
X36215D02*
X38785D01*
X24715D02*
X27285D01*
X18750Y25500D02*
X20250D01*
Y22500D02*
Y25500D01*
X18750Y22500D02*
X20250D01*
X18750D02*
Y25500D01*
Y24550D02*
X19700Y25500D01*
X18750Y35500D02*
X20250D01*
Y32500D02*
Y35500D01*
X18750Y32500D02*
X20250D01*
X18750D02*
Y35500D01*
Y34550D02*
X19700Y35500D01*
X17625Y26500D02*
X18875D01*
Y28500D01*
X17625D02*
X18875D01*
X17625Y26500D02*
Y28500D01*
Y36500D02*
X18875D01*
Y38500D01*
X17625D02*
X18875D01*
X17625Y36500D02*
Y38500D01*
X39000Y44875D02*
X41000D01*
X39000D02*
Y46125D01*
X41000D01*
Y44875D02*
Y46125D01*
D27*
X48500Y33500D02*
G03*
X48500Y33500I-6500J0D01*
G01*
X31585Y44250D02*
G03*
X31585Y44250I-1585J0D01*
G01*
X22085D02*
G03*
X22085Y44250I-1585J0D01*
G01*
X48500Y19500D02*
G03*
X48500Y19500I-6500J0D01*
G01*
X13960Y9750D02*
X19040D01*
Y8988D02*
X19269D01*
X19040D02*
Y9750D01*
X13731Y8988D02*
X13960D01*
X19040Y8226D02*
Y8988D01*
X13960Y8226D02*
X19040D01*
X13960D02*
Y9750D01*
Y3250D02*
X19040D01*
Y2488D02*
X19269D01*
X19040D02*
Y3250D01*
X13731Y2488D02*
X13960D01*
X19040Y1726D02*
Y2488D01*
X13960Y1726D02*
X19040D01*
X13960D02*
Y3250D01*
Y6500D02*
X19040D01*
Y5738D02*
X19269D01*
X19040D02*
Y6500D01*
X13731Y5738D02*
X13960D01*
X19040Y4976D02*
Y5738D01*
X13960Y4976D02*
X19040D01*
X13960D02*
Y6500D01*
X33580Y22715D02*
Y27285D01*
X23420Y22715D02*
X33580D01*
X23420D02*
Y27285D01*
X33580D01*
Y32795D02*
Y37365D01*
X23420Y32795D02*
X33580D01*
X23420D02*
Y37365D01*
X33580D01*
X2500Y9870D02*
Y40130D01*
X10100Y9870D02*
Y40130D01*
X2500Y9870D02*
X10100D01*
X2500Y19950D02*
X10100D01*
X2500Y30030D02*
X10100D01*
X2500Y40110D02*
X10100D01*
%TF.MD5,6151eca3d128f2ff14b2cb80e5adff59*%
M02*
