%TF.GenerationSoftware,Altium Limited,Altium Designer,25.2.1 (25)*%
G04 Layer_Physical_Order=2*
G04 Layer_Color=16711680*
%FSLAX43Y43*%
%MOMM*%
%TF.SameCoordinates,7901F6FB-5547-41B2-A73E-222B968302CC*%
%TF.FilePolarity,Positive*%
%TF.FileFunction,Copper,L2,Bot,Signal*%
%TF.Part,Single*%
G01*
G75*
%TA.AperFunction,Conductor*%
%ADD14C,0.200*%
%TA.AperFunction,ComponentPad*%
%ADD16C,2.000*%
%ADD17C,1.500*%
%ADD18R,1.500X1.500*%
%ADD19C,1.400*%
%ADD20C,6.000*%
%ADD21C,2.400*%
%ADD22C,2.200*%
%ADD23C,1.524*%
%ADD24C,2.500*%
%TA.AperFunction,ViaPad*%
%ADD25C,0.700*%
G36*
X46141Y49549D02*
X46767Y49399D01*
X47361Y49153D01*
X47910Y48817D01*
X48399Y48399D01*
X48817Y47910D01*
X49153Y47361D01*
X49399Y46767D01*
X49549Y46141D01*
X49598Y45528D01*
X49592Y45500D01*
Y4500D01*
X49598Y4472D01*
X49549Y3859D01*
X49399Y3233D01*
X49153Y2639D01*
X48817Y2090D01*
X48399Y1601D01*
X47910Y1183D01*
X47361Y847D01*
X46767Y601D01*
X46141Y451D01*
X45528Y402D01*
X45500Y408D01*
X4500D01*
X4472Y402D01*
X3859Y451D01*
X3233Y601D01*
X2639Y847D01*
X2090Y1183D01*
X1601Y1601D01*
X1183Y2090D01*
X847Y2639D01*
X601Y3233D01*
X451Y3859D01*
X402Y4472D01*
X408Y4500D01*
Y45500D01*
X402Y45528D01*
X451Y46141D01*
X601Y46767D01*
X847Y47361D01*
X1183Y47910D01*
X1601Y48399D01*
X2090Y48817D01*
X2639Y49153D01*
X3233Y49399D01*
X3859Y49549D01*
X4472Y49598D01*
X4500Y49592D01*
X45500D01*
X45528Y49598D01*
X46141Y49549D01*
D02*
G37*
%LPC*%
G36*
X37620Y46104D02*
X37380D01*
X37188Y46024D01*
X37403Y45810D01*
X37190Y45597D01*
X36976Y45812D01*
X36896Y45620D01*
Y45380D01*
X36976Y45188D01*
X37190Y45403D01*
X37403Y45190D01*
X37188Y44976D01*
X37380Y44896D01*
X37620D01*
X37812Y44976D01*
X37597Y45190D01*
X37810Y45403D01*
X38024Y45188D01*
X38104Y45380D01*
Y45620D01*
X38024Y45812D01*
X37810Y45597D01*
X37597Y45810D01*
X37812Y46024D01*
X37620Y46104D01*
D02*
G37*
G36*
X45760Y48800D02*
X45240D01*
X44727Y48719D01*
X44233Y48558D01*
X43770Y48322D01*
X43350Y48017D01*
X42983Y47650D01*
X42678Y47230D01*
X42442Y46767D01*
X42281Y46273D01*
X42200Y45760D01*
Y45240D01*
X42281Y44727D01*
X42442Y44233D01*
X42678Y43770D01*
X42983Y43350D01*
X43350Y42983D01*
X43770Y42678D01*
X44233Y42442D01*
X44727Y42281D01*
X45240Y42200D01*
X45760D01*
X46273Y42281D01*
X46767Y42442D01*
X47230Y42678D01*
X47650Y42983D01*
X48017Y43350D01*
X48322Y43770D01*
X48558Y44233D01*
X48719Y44727D01*
X48800Y45240D01*
Y45760D01*
X48719Y46273D01*
X48558Y46767D01*
X48322Y47230D01*
X48017Y47650D01*
X47650Y48017D01*
X47230Y48322D01*
X46767Y48558D01*
X46273Y48719D01*
X45760Y48800D01*
D02*
G37*
G36*
X4760D02*
X4240D01*
X3727Y48719D01*
X3233Y48558D01*
X2770Y48322D01*
X2350Y48017D01*
X1983Y47650D01*
X1678Y47230D01*
X1442Y46767D01*
X1281Y46273D01*
X1200Y45760D01*
Y45240D01*
X1281Y44727D01*
X1442Y44233D01*
X1678Y43770D01*
X1983Y43350D01*
X2350Y42983D01*
X2770Y42678D01*
X3233Y42442D01*
X3727Y42281D01*
X4240Y42200D01*
X4760D01*
X5273Y42281D01*
X5767Y42442D01*
X6230Y42678D01*
X6650Y42983D01*
X7017Y43350D01*
X7322Y43770D01*
X7558Y44233D01*
X7719Y44727D01*
X7800Y45240D01*
Y45760D01*
X7719Y46273D01*
X7558Y46767D01*
X7322Y47230D01*
X7017Y47650D01*
X6650Y48017D01*
X6230Y48322D01*
X5767Y48558D01*
X5273Y48719D01*
X4760Y48800D01*
D02*
G37*
G36*
X16620Y39004D02*
X16380D01*
X16188Y38924D01*
X16403Y38710D01*
X16190Y38497D01*
X15976Y38712D01*
X15896Y38520D01*
Y38280D01*
X15976Y38088D01*
X16190Y38303D01*
X16403Y38090D01*
X16188Y37876D01*
X16380Y37796D01*
X16620D01*
X16812Y37876D01*
X16597Y38090D01*
X16810Y38303D01*
X17024Y38088D01*
X17104Y38280D01*
Y38520D01*
X17024Y38712D01*
X16810Y38497D01*
X16597Y38710D01*
X16812Y38924D01*
X16620Y39004D01*
D02*
G37*
G36*
X6153Y39170D02*
X5847D01*
X5548Y39110D01*
X5266Y38994D01*
X5012Y38824D01*
X4796Y38608D01*
X4626Y38354D01*
X4510Y38072D01*
X4450Y37773D01*
Y37467D01*
X4510Y37168D01*
X4626Y36886D01*
X4796Y36632D01*
X5012Y36416D01*
X5266Y36246D01*
X5548Y36130D01*
X5847Y36070D01*
X6153D01*
X6452Y36130D01*
X6734Y36246D01*
X6988Y36416D01*
X7204Y36632D01*
X7374Y36886D01*
X7490Y37168D01*
X7550Y37467D01*
Y37773D01*
X7490Y38072D01*
X7374Y38354D01*
X7204Y38608D01*
X6988Y38824D01*
X6734Y38994D01*
X6452Y39110D01*
X6153Y39170D01*
D02*
G37*
G36*
X13140Y37412D02*
X12860D01*
X12590Y37340D01*
X12348Y37200D01*
X12150Y37002D01*
X12010Y36760D01*
X11938Y36490D01*
Y36210D01*
X12010Y35940D01*
X12150Y35698D01*
X12348Y35500D01*
X12590Y35360D01*
X12860Y35288D01*
X13140D01*
X13410Y35360D01*
X13652Y35500D01*
X13850Y35698D01*
X13990Y35940D01*
X14062Y36210D01*
Y36490D01*
X13990Y36760D01*
X13850Y37002D01*
X13652Y37200D01*
X13410Y37340D01*
X13140Y37412D01*
D02*
G37*
G36*
X16620Y34604D02*
X16380D01*
X16188Y34524D01*
X16403Y34310D01*
X16190Y34097D01*
X15976Y34312D01*
X15896Y34120D01*
Y33880D01*
X15976Y33688D01*
X16190Y33903D01*
X16403Y33690D01*
X16188Y33476D01*
X16380Y33396D01*
X16620D01*
X16812Y33476D01*
X16597Y33690D01*
X16810Y33903D01*
X17024Y33688D01*
X17104Y33880D01*
Y34120D01*
X17024Y34312D01*
X16810Y34097D01*
X16597Y34310D01*
X16812Y34524D01*
X16620Y34604D01*
D02*
G37*
G36*
X44665Y34754D02*
X44335D01*
X44016Y34669D01*
X43730Y34503D01*
X43719Y34493D01*
X43927Y34285D01*
X43715Y34073D01*
X43507Y34281D01*
X43497Y34270D01*
X43331Y33984D01*
X43246Y33665D01*
Y33335D01*
X43331Y33016D01*
X43497Y32730D01*
X43507Y32719D01*
X43715Y32927D01*
X43927Y32715D01*
X43719Y32507D01*
X43730Y32497D01*
X44016Y32331D01*
X44335Y32246D01*
X44665D01*
X44984Y32331D01*
X45270Y32497D01*
X45281Y32507D01*
X45073Y32715D01*
X45285Y32927D01*
X45493Y32719D01*
X45503Y32730D01*
X45669Y33016D01*
X45754Y33335D01*
Y33665D01*
X45669Y33984D01*
X45503Y34270D01*
X45493Y34281D01*
X45285Y34073D01*
X45073Y34285D01*
X45281Y34493D01*
X45270Y34503D01*
X44984Y34669D01*
X44665Y34754D01*
D02*
G37*
G36*
X6148Y34044D02*
X5852D01*
X5561Y33986D01*
X5288Y33873D01*
X5043Y33709D01*
X5249Y33503D01*
X5037Y33291D01*
X4831Y33497D01*
X4667Y33252D01*
X4554Y32979D01*
X4496Y32688D01*
Y32392D01*
X4554Y32101D01*
X4667Y31828D01*
X4831Y31583D01*
X5037Y31789D01*
X5249Y31577D01*
X5043Y31371D01*
X5288Y31207D01*
X5561Y31094D01*
X5852Y31036D01*
X6148D01*
X6439Y31094D01*
X6712Y31207D01*
X6957Y31371D01*
X6751Y31577D01*
X6963Y31789D01*
X7169Y31583D01*
X7333Y31828D01*
X7446Y32101D01*
X7504Y32392D01*
Y32688D01*
X7446Y32979D01*
X7333Y33252D01*
X7169Y33497D01*
X6963Y33291D01*
X6751Y33503D01*
X6957Y33709D01*
X6712Y33873D01*
X6439Y33986D01*
X6148Y34044D01*
D02*
G37*
G36*
X20648Y45750D02*
X20352D01*
X20062Y45692D01*
X19789Y45579D01*
X19544Y45415D01*
X19335Y45206D01*
X19171Y44961D01*
X19058Y44688D01*
X19000Y44398D01*
Y44102D01*
X19058Y43812D01*
X19171Y43539D01*
X19335Y43294D01*
X19544Y43085D01*
X19789Y42921D01*
X20062Y42808D01*
X20352Y42750D01*
X20648D01*
X20938Y42808D01*
X21211Y42921D01*
X21456Y43085D01*
X21665Y43294D01*
X21779Y43464D01*
X21938Y43485D01*
X25552Y39871D01*
Y35725D01*
X25420Y35690D01*
X25100Y35505D01*
X24840Y35245D01*
X24655Y34925D01*
X24560Y34569D01*
Y34201D01*
X24655Y33845D01*
X24840Y33525D01*
X25100Y33265D01*
X25420Y33080D01*
X25776Y32985D01*
X26144D01*
X26500Y33080D01*
X26820Y33265D01*
X27080Y33525D01*
X27167Y33675D01*
X27294D01*
X27380Y33525D01*
X27640Y33265D01*
X27960Y33080D01*
X28316Y32985D01*
X28684D01*
X29040Y33080D01*
X29360Y33265D01*
X29620Y33525D01*
X29706Y33675D01*
X29833D01*
X29920Y33525D01*
X30180Y33265D01*
X30500Y33080D01*
X30856Y32985D01*
X31224D01*
X31580Y33080D01*
X31900Y33265D01*
X32160Y33525D01*
X32345Y33845D01*
X32440Y34201D01*
Y34569D01*
X32345Y34925D01*
X32160Y35245D01*
X31900Y35505D01*
X31580Y35690D01*
X31224Y35785D01*
X30856D01*
X30500Y35690D01*
X30180Y35505D01*
X29920Y35245D01*
X29833Y35095D01*
X29706D01*
X29620Y35245D01*
X29360Y35505D01*
X29040Y35690D01*
X28684Y35785D01*
X28316D01*
X27960Y35690D01*
X27640Y35505D01*
X27380Y35245D01*
X27294Y35095D01*
X27167D01*
X27080Y35245D01*
X26820Y35505D01*
X26500Y35690D01*
X26368Y35725D01*
Y40040D01*
X26368Y40040D01*
X26337Y40196D01*
X26248Y40328D01*
X26248Y40328D01*
X22157Y44420D01*
X22025Y44508D01*
X21976Y44518D01*
X21942Y44688D01*
X21829Y44961D01*
X21665Y45206D01*
X21456Y45415D01*
X21211Y45579D01*
X20938Y45692D01*
X20648Y45750D01*
D02*
G37*
G36*
X13140Y34872D02*
X12860D01*
X12590Y34800D01*
X12348Y34660D01*
X12150Y34462D01*
X12010Y34220D01*
X11938Y33950D01*
Y33670D01*
X12010Y33400D01*
X12150Y33158D01*
X12348Y32960D01*
X12590Y32820D01*
X12860Y32748D01*
X13140D01*
X13410Y32820D01*
X13652Y32960D01*
X13850Y33158D01*
X13990Y33400D01*
X14062Y33670D01*
Y33950D01*
X13990Y34220D01*
X13850Y34462D01*
X13652Y34660D01*
X13410Y34800D01*
X13140Y34872D01*
D02*
G37*
G36*
X39671Y34800D02*
X39329D01*
X38998Y34711D01*
X38702Y34540D01*
X38460Y34298D01*
X38289Y34002D01*
X38200Y33671D01*
Y33329D01*
X38289Y32998D01*
X38460Y32702D01*
X38702Y32460D01*
X38998Y32289D01*
X39329Y32200D01*
X39671D01*
X40002Y32289D01*
X40298Y32460D01*
X40540Y32702D01*
X40711Y32998D01*
X40800Y33329D01*
Y33671D01*
X40711Y34002D01*
X40540Y34298D01*
X40298Y34540D01*
X40002Y34711D01*
X39671Y34800D01*
D02*
G37*
G36*
X16620Y29004D02*
X16380D01*
X16188Y28924D01*
X16403Y28710D01*
X16190Y28497D01*
X15976Y28712D01*
X15896Y28520D01*
Y28280D01*
X15976Y28088D01*
X16190Y28303D01*
X16403Y28090D01*
X16188Y27876D01*
X16380Y27796D01*
X16620D01*
X16812Y27876D01*
X16597Y28090D01*
X16810Y28303D01*
X17024Y28088D01*
X17104Y28280D01*
Y28520D01*
X17024Y28712D01*
X16810Y28497D01*
X16597Y28710D01*
X16812Y28924D01*
X16620Y29004D01*
D02*
G37*
G36*
X6153Y29090D02*
X5847D01*
X5548Y29030D01*
X5266Y28914D01*
X5012Y28744D01*
X4796Y28528D01*
X4626Y28274D01*
X4510Y27992D01*
X4450Y27693D01*
Y27387D01*
X4510Y27088D01*
X4626Y26806D01*
X4796Y26552D01*
X5012Y26336D01*
X5266Y26166D01*
X5548Y26050D01*
X5847Y25990D01*
X6153D01*
X6452Y26050D01*
X6734Y26166D01*
X6988Y26336D01*
X7204Y26552D01*
X7374Y26806D01*
X7490Y27088D01*
X7550Y27387D01*
Y27693D01*
X7490Y27992D01*
X7374Y28274D01*
X7204Y28528D01*
X6988Y28744D01*
X6734Y28914D01*
X6452Y29030D01*
X6153Y29090D01*
D02*
G37*
G36*
X13140Y27332D02*
X12860D01*
X12590Y27260D01*
X12348Y27120D01*
X12150Y26922D01*
X12010Y26680D01*
X11938Y26410D01*
Y26130D01*
X12010Y25860D01*
X12150Y25618D01*
X12348Y25420D01*
X12590Y25280D01*
X12860Y25208D01*
X13140D01*
X13410Y25280D01*
X13652Y25420D01*
X13850Y25618D01*
X13990Y25860D01*
X14062Y26130D01*
Y26410D01*
X13990Y26680D01*
X13850Y26922D01*
X13652Y27120D01*
X13410Y27260D01*
X13140Y27332D01*
D02*
G37*
G36*
X16620Y24604D02*
X16380D01*
X16188Y24524D01*
X16403Y24310D01*
X16190Y24097D01*
X15976Y24312D01*
X15896Y24120D01*
Y23880D01*
X15976Y23688D01*
X16190Y23903D01*
X16403Y23690D01*
X16188Y23476D01*
X16380Y23396D01*
X16620D01*
X16812Y23476D01*
X16597Y23690D01*
X16810Y23903D01*
X17024Y23688D01*
X17104Y23880D01*
Y24120D01*
X17024Y24312D01*
X16810Y24097D01*
X16597Y24310D01*
X16812Y24524D01*
X16620Y24604D01*
D02*
G37*
G36*
X6148Y23964D02*
X5852D01*
X5561Y23906D01*
X5288Y23793D01*
X5043Y23629D01*
X5249Y23423D01*
X5037Y23211D01*
X4831Y23417D01*
X4667Y23172D01*
X4554Y22899D01*
X4496Y22608D01*
Y22312D01*
X4554Y22021D01*
X4667Y21748D01*
X4831Y21503D01*
X5037Y21709D01*
X5249Y21497D01*
X5043Y21291D01*
X5288Y21127D01*
X5561Y21014D01*
X5852Y20956D01*
X6148D01*
X6439Y21014D01*
X6712Y21127D01*
X6957Y21291D01*
X6751Y21497D01*
X6963Y21709D01*
X7169Y21503D01*
X7333Y21748D01*
X7446Y22021D01*
X7504Y22312D01*
Y22608D01*
X7446Y22899D01*
X7333Y23172D01*
X7169Y23417D01*
X6963Y23211D01*
X6751Y23423D01*
X6957Y23629D01*
X6712Y23793D01*
X6439Y23906D01*
X6148Y23964D01*
D02*
G37*
G36*
X30148Y45750D02*
X29852D01*
X29562Y45692D01*
X29289Y45579D01*
X29044Y45415D01*
X28835Y45206D01*
X28671Y44961D01*
X28558Y44688D01*
X28500Y44398D01*
Y44102D01*
X28558Y43812D01*
X28671Y43539D01*
X28835Y43294D01*
X29044Y43085D01*
X29289Y42921D01*
X29562Y42808D01*
X29852Y42750D01*
X30148D01*
X30438Y42808D01*
X30711Y42921D01*
X30956Y43085D01*
X31165Y43294D01*
X31329Y43539D01*
X31442Y43812D01*
X31448Y43842D01*
X33470D01*
X35342Y41970D01*
Y36169D01*
X25672Y26498D01*
X25583Y26366D01*
X25552Y26210D01*
X25552Y26210D01*
Y25645D01*
X25420Y25610D01*
X25100Y25425D01*
X24840Y25165D01*
X24655Y24845D01*
X24560Y24489D01*
Y24121D01*
X24655Y23765D01*
X24840Y23445D01*
X25100Y23185D01*
X25420Y23000D01*
X25776Y22905D01*
X26144D01*
X26500Y23000D01*
X26820Y23185D01*
X27080Y23445D01*
X27167Y23595D01*
X27294D01*
X27380Y23445D01*
X27640Y23185D01*
X27960Y23000D01*
X28316Y22905D01*
X28684D01*
X29040Y23000D01*
X29360Y23185D01*
X29620Y23445D01*
X29706Y23595D01*
X29833D01*
X29920Y23445D01*
X30180Y23185D01*
X30500Y23000D01*
X30856Y22905D01*
X31224D01*
X31580Y23000D01*
X31900Y23185D01*
X32160Y23445D01*
X32345Y23765D01*
X32440Y24121D01*
Y24489D01*
X32345Y24845D01*
X32160Y25165D01*
X31900Y25425D01*
X31580Y25610D01*
X31224Y25705D01*
X30856D01*
X30500Y25610D01*
X30180Y25425D01*
X29920Y25165D01*
X29833Y25015D01*
X29706D01*
X29620Y25165D01*
X29360Y25425D01*
X29040Y25610D01*
X28684Y25705D01*
X28316D01*
X27960Y25610D01*
X27640Y25425D01*
X27380Y25165D01*
X27294Y25015D01*
X27167D01*
X27080Y25165D01*
X26820Y25425D01*
X26500Y25610D01*
X26368Y25645D01*
Y26041D01*
X36038Y35712D01*
X36038Y35712D01*
X36127Y35844D01*
X36158Y36000D01*
Y42139D01*
X36158Y42139D01*
X36127Y42295D01*
X36038Y42427D01*
X33927Y44538D01*
X33795Y44627D01*
X33639Y44658D01*
X33639Y44658D01*
X31448D01*
X31442Y44688D01*
X31329Y44961D01*
X31165Y45206D01*
X30956Y45415D01*
X30711Y45579D01*
X30438Y45692D01*
X30148Y45750D01*
D02*
G37*
G36*
X13140Y24792D02*
X12860D01*
X12590Y24720D01*
X12348Y24580D01*
X12150Y24382D01*
X12010Y24140D01*
X11938Y23870D01*
Y23590D01*
X12010Y23320D01*
X12150Y23078D01*
X12348Y22880D01*
X12590Y22740D01*
X12860Y22668D01*
X13140D01*
X13410Y22740D01*
X13652Y22880D01*
X13850Y23078D01*
X13990Y23320D01*
X14062Y23590D01*
Y23870D01*
X13990Y24140D01*
X13850Y24382D01*
X13652Y24580D01*
X13410Y24720D01*
X13140Y24792D01*
D02*
G37*
G36*
X44665Y20754D02*
X44335D01*
X44016Y20669D01*
X43730Y20503D01*
X43719Y20493D01*
X43927Y20285D01*
X43715Y20073D01*
X43507Y20281D01*
X43497Y20270D01*
X43331Y19984D01*
X43246Y19665D01*
Y19335D01*
X43331Y19016D01*
X43497Y18730D01*
X43507Y18719D01*
X43715Y18927D01*
X43927Y18715D01*
X43719Y18507D01*
X43730Y18497D01*
X44016Y18331D01*
X44335Y18246D01*
X44665D01*
X44984Y18331D01*
X45270Y18497D01*
X45281Y18507D01*
X45073Y18715D01*
X45285Y18927D01*
X45493Y18719D01*
X45503Y18730D01*
X45669Y19016D01*
X45754Y19335D01*
Y19665D01*
X45669Y19984D01*
X45503Y20270D01*
X45493Y20281D01*
X45285Y20073D01*
X45073Y20285D01*
X45281Y20493D01*
X45270Y20503D01*
X44984Y20669D01*
X44665Y20754D01*
D02*
G37*
G36*
X39671Y20800D02*
X39329D01*
X38998Y20711D01*
X38702Y20540D01*
X38460Y20298D01*
X38289Y20002D01*
X38200Y19671D01*
Y19329D01*
X38289Y18998D01*
X38460Y18702D01*
X38702Y18460D01*
X38998Y18289D01*
X39329Y18200D01*
X39671D01*
X40002Y18289D01*
X40298Y18460D01*
X40540Y18702D01*
X40711Y18998D01*
X40800Y19329D01*
Y19671D01*
X40711Y20002D01*
X40540Y20298D01*
X40298Y20540D01*
X40002Y20711D01*
X39671Y20800D01*
D02*
G37*
G36*
X6153Y19010D02*
X5847D01*
X5548Y18950D01*
X5266Y18834D01*
X5012Y18664D01*
X4796Y18448D01*
X4626Y18194D01*
X4510Y17912D01*
X4450Y17613D01*
Y17307D01*
X4510Y17008D01*
X4626Y16726D01*
X4796Y16472D01*
X5012Y16256D01*
X5266Y16086D01*
X5548Y15970D01*
X5847Y15910D01*
X6153D01*
X6452Y15970D01*
X6734Y16086D01*
X6988Y16256D01*
X7204Y16472D01*
X7374Y16726D01*
X7490Y17008D01*
X7550Y17307D01*
Y17613D01*
X7490Y17912D01*
X7374Y18194D01*
X7204Y18448D01*
X6988Y18664D01*
X6734Y18834D01*
X6452Y18950D01*
X6153Y19010D01*
D02*
G37*
G36*
X6148Y13884D02*
X5852D01*
X5561Y13826D01*
X5288Y13713D01*
X5043Y13549D01*
X5249Y13343D01*
X5037Y13131D01*
X4831Y13337D01*
X4667Y13092D01*
X4554Y12819D01*
X4496Y12528D01*
Y12232D01*
X4554Y11941D01*
X4667Y11668D01*
X4831Y11423D01*
X5037Y11629D01*
X5249Y11417D01*
X5043Y11211D01*
X5288Y11047D01*
X5561Y10934D01*
X5852Y10876D01*
X6148D01*
X6439Y10934D01*
X6712Y11047D01*
X6957Y11211D01*
X6751Y11417D01*
X6963Y11629D01*
X7169Y11423D01*
X7333Y11668D01*
X7446Y11941D01*
X7504Y12232D01*
Y12528D01*
X7446Y12819D01*
X7333Y13092D01*
X7169Y13337D01*
X6963Y13131D01*
X6751Y13343D01*
X6957Y13549D01*
X6712Y13713D01*
X6439Y13826D01*
X6148Y13884D01*
D02*
G37*
G36*
X12822Y9988D02*
X12558D01*
X12304Y9920D01*
X12076Y9788D01*
X11890Y9602D01*
X11758Y9374D01*
X11690Y9120D01*
Y8856D01*
X11758Y8602D01*
X11890Y8374D01*
X12076Y8188D01*
X12304Y8056D01*
X12558Y7988D01*
X12822D01*
X13076Y8056D01*
X13304Y8188D01*
X13490Y8374D01*
X13622Y8602D01*
X13690Y8856D01*
Y9120D01*
X13622Y9374D01*
X13490Y9602D01*
X13304Y9788D01*
X13076Y9920D01*
X12822Y9988D01*
D02*
G37*
G36*
X30270Y7658D02*
X30270Y7658D01*
X21822D01*
X21822Y7658D01*
X21666Y7627D01*
X21534Y7538D01*
X21534Y7538D01*
X20672Y6676D01*
X20442Y6738D01*
X20178D01*
X19924Y6670D01*
X19696Y6538D01*
X19510Y6352D01*
X19378Y6124D01*
X19310Y5870D01*
Y5606D01*
X19378Y5352D01*
X19510Y5124D01*
X19696Y4938D01*
X19924Y4806D01*
X20178Y4738D01*
X20442D01*
X20696Y4806D01*
X20924Y4938D01*
X21110Y5124D01*
X21242Y5352D01*
X21310Y5606D01*
Y5870D01*
X21248Y6100D01*
X21991Y6842D01*
X25503D01*
X25537Y6715D01*
X25355Y6610D01*
X25160Y6415D01*
X25023Y6178D01*
X23592D01*
X23592Y6178D01*
X23436Y6147D01*
X23304Y6058D01*
X23304Y6058D01*
X20672Y3426D01*
X20442Y3488D01*
X20178D01*
X19924Y3420D01*
X19696Y3288D01*
X19510Y3102D01*
X19378Y2874D01*
X19310Y2620D01*
Y2356D01*
X19378Y2102D01*
X19510Y1874D01*
X19696Y1688D01*
X19924Y1556D01*
X20178Y1488D01*
X20442D01*
X20696Y1556D01*
X20924Y1688D01*
X21110Y1874D01*
X21242Y2102D01*
X21310Y2356D01*
Y2620D01*
X21248Y2850D01*
X23761Y5362D01*
X25023D01*
X25160Y5125D01*
X25355Y4930D01*
X25595Y4792D01*
X25862Y4720D01*
X26138D01*
X26405Y4792D01*
X26645Y4930D01*
X26840Y5125D01*
X26978Y5365D01*
X27050Y5632D01*
Y5908D01*
X26978Y6175D01*
X26840Y6415D01*
X26645Y6610D01*
X26463Y6715D01*
X26497Y6842D01*
X30101D01*
X30771Y6172D01*
X30700Y5908D01*
Y5632D01*
X30772Y5365D01*
X30910Y5125D01*
X31105Y4930D01*
X31345Y4792D01*
X31612Y4720D01*
X31888D01*
X32155Y4792D01*
X32395Y4930D01*
X32590Y5125D01*
X32728Y5365D01*
X32800Y5632D01*
Y5908D01*
X32728Y6175D01*
X32590Y6415D01*
X32395Y6610D01*
X32155Y6748D01*
X31888Y6820D01*
X31612D01*
X31348Y6749D01*
X30558Y7538D01*
X30426Y7627D01*
X30400Y7632D01*
X30270Y7658D01*
D02*
G37*
G36*
X12822Y6738D02*
X12558D01*
X12304Y6670D01*
X12076Y6538D01*
X11890Y6352D01*
X11758Y6124D01*
X11690Y5870D01*
Y5606D01*
X11758Y5352D01*
X11890Y5124D01*
X12076Y4938D01*
X12304Y4806D01*
X12558Y4738D01*
X12822D01*
X13076Y4806D01*
X13304Y4938D01*
X13490Y5124D01*
X13622Y5352D01*
X13690Y5606D01*
Y5870D01*
X13622Y6124D01*
X13490Y6352D01*
X13304Y6538D01*
X13076Y6670D01*
X12822Y6738D01*
D02*
G37*
G36*
X20442Y9988D02*
X20178D01*
X19924Y9920D01*
X19696Y9788D01*
X19510Y9602D01*
X19378Y9374D01*
X19310Y9120D01*
Y8856D01*
X19378Y8602D01*
X19510Y8374D01*
X19696Y8188D01*
X19924Y8056D01*
X20178Y7988D01*
X20442D01*
X20696Y8056D01*
X20924Y8188D01*
X21110Y8374D01*
X21229Y8580D01*
X36093D01*
X37092Y7581D01*
Y6747D01*
X36855Y6610D01*
X36660Y6415D01*
X36522Y6175D01*
X36450Y5908D01*
Y5632D01*
X36522Y5365D01*
X36660Y5125D01*
X36855Y4930D01*
X37095Y4792D01*
X37362Y4720D01*
X37638D01*
X37905Y4792D01*
X38145Y4930D01*
X38340Y5125D01*
X38478Y5365D01*
X38550Y5632D01*
Y5908D01*
X38478Y6175D01*
X38340Y6415D01*
X38145Y6610D01*
X37908Y6747D01*
Y7750D01*
X37877Y7906D01*
X37788Y8038D01*
X36550Y9276D01*
X36418Y9365D01*
X36262Y9396D01*
X36262Y9396D01*
X21229D01*
X21110Y9602D01*
X20924Y9788D01*
X20696Y9920D01*
X20442Y9988D01*
D02*
G37*
G36*
X38504Y4234D02*
X37650D01*
Y3952D01*
X37350D01*
Y4234D01*
X36496D01*
Y3380D01*
X36778D01*
Y3080D01*
X36496D01*
Y2226D01*
X37350D01*
Y2508D01*
X37650D01*
Y2226D01*
X38504D01*
Y3080D01*
X38222D01*
Y3380D01*
X38504D01*
Y4234D01*
D02*
G37*
G36*
X32754D02*
X31900D01*
Y3952D01*
X31600D01*
Y4234D01*
X30746D01*
Y3380D01*
X31028D01*
Y3080D01*
X30746D01*
Y2226D01*
X31600D01*
Y2508D01*
X31900D01*
Y2226D01*
X32754D01*
Y3080D01*
X32472D01*
Y3380D01*
X32754D01*
Y4234D01*
D02*
G37*
G36*
X27004D02*
X26150D01*
Y3952D01*
X25850D01*
Y4234D01*
X24996D01*
Y3380D01*
X25278D01*
Y3080D01*
X24996D01*
Y2226D01*
X25850D01*
Y2508D01*
X26150D01*
Y2226D01*
X27004D01*
Y3080D01*
X26722D01*
Y3380D01*
X27004D01*
Y4234D01*
D02*
G37*
G36*
X12822Y3488D02*
X12558D01*
X12304Y3420D01*
X12076Y3288D01*
X11890Y3102D01*
X11758Y2874D01*
X11690Y2620D01*
Y2356D01*
X11758Y2102D01*
X11890Y1874D01*
X12076Y1688D01*
X12304Y1556D01*
X12558Y1488D01*
X12822D01*
X13076Y1556D01*
X13304Y1688D01*
X13490Y1874D01*
X13622Y2102D01*
X13690Y2356D01*
Y2620D01*
X13622Y2874D01*
X13490Y3102D01*
X13304Y3288D01*
X13076Y3420D01*
X12822Y3488D01*
D02*
G37*
G36*
X45760Y7800D02*
X45240D01*
X44727Y7719D01*
X44233Y7558D01*
X43770Y7322D01*
X43350Y7017D01*
X42983Y6650D01*
X42678Y6230D01*
X42442Y5767D01*
X42281Y5273D01*
X42200Y4760D01*
Y4240D01*
X42281Y3727D01*
X42442Y3233D01*
X42678Y2770D01*
X42983Y2350D01*
X43350Y1983D01*
X43770Y1678D01*
X44233Y1442D01*
X44727Y1281D01*
X45240Y1200D01*
X45760D01*
X46273Y1281D01*
X46767Y1442D01*
X47230Y1678D01*
X47650Y1983D01*
X48017Y2350D01*
X48322Y2770D01*
X48558Y3233D01*
X48719Y3727D01*
X48800Y4240D01*
Y4760D01*
X48719Y5273D01*
X48558Y5767D01*
X48322Y6230D01*
X48017Y6650D01*
X47650Y7017D01*
X47230Y7322D01*
X46767Y7558D01*
X46273Y7719D01*
X45760Y7800D01*
D02*
G37*
G36*
X4760D02*
X4240D01*
X3727Y7719D01*
X3233Y7558D01*
X2770Y7322D01*
X2350Y7017D01*
X1983Y6650D01*
X1678Y6230D01*
X1442Y5767D01*
X1281Y5273D01*
X1200Y4760D01*
Y4240D01*
X1281Y3727D01*
X1442Y3233D01*
X1678Y2770D01*
X1983Y2350D01*
X2350Y1983D01*
X2770Y1678D01*
X3233Y1442D01*
X3727Y1281D01*
X4240Y1200D01*
X4760D01*
X5273Y1281D01*
X5767Y1442D01*
X6230Y1678D01*
X6650Y1983D01*
X7017Y2350D01*
X7322Y2770D01*
X7558Y3233D01*
X7719Y3727D01*
X7800Y4240D01*
Y4760D01*
X7719Y5273D01*
X7558Y5767D01*
X7322Y6230D01*
X7017Y6650D01*
X6650Y7017D01*
X6230Y7322D01*
X5767Y7558D01*
X5273Y7719D01*
X4760Y7800D01*
D02*
G37*
%LPD*%
D14*
X35750Y36000D02*
Y42139D01*
X25960Y24305D02*
Y26210D01*
X35750Y36000D01*
X20881Y44631D02*
X21381Y44131D01*
X25960Y34385D02*
Y40040D01*
X21381Y44131D02*
X21869D01*
X25960Y40040D01*
X20500Y44250D02*
X20881Y44631D01*
X33639Y44250D02*
X35750Y42139D01*
X30000Y44250D02*
X33639D01*
X30270Y7250D02*
X31750Y5770D01*
X20310Y5738D02*
X21822Y7250D01*
X30270D01*
X23592Y5770D02*
X26000D01*
X20310Y2488D02*
X23592Y5770D01*
X37500D02*
Y7750D01*
X36262Y8988D02*
X37500Y7750D01*
X20310Y8988D02*
X36262D01*
D16*
X44500Y33500D02*
D03*
X39500D02*
D03*
Y19500D02*
D03*
X44500D02*
D03*
D17*
X31750Y5770D02*
D03*
X37500D02*
D03*
X26000D02*
D03*
D18*
X31750Y3230D02*
D03*
X37500D02*
D03*
X26000D02*
D03*
D19*
X12690Y8988D02*
D03*
X20310D02*
D03*
X12690Y2488D02*
D03*
X20310D02*
D03*
X12690Y5738D02*
D03*
X20310D02*
D03*
D20*
X4500Y45500D02*
D03*
X45500D02*
D03*
X4500Y4500D02*
D03*
X45500D02*
D03*
D21*
X30000Y44250D02*
D03*
X20500D02*
D03*
D22*
X25960Y24305D02*
D03*
X28500D02*
D03*
X31040D02*
D03*
X25960Y34385D02*
D03*
X28500D02*
D03*
X31040D02*
D03*
D23*
X13000Y26270D02*
D03*
Y23730D02*
D03*
Y36350D02*
D03*
Y33810D02*
D03*
D24*
X6000Y17460D02*
D03*
Y12380D02*
D03*
Y27540D02*
D03*
Y22460D02*
D03*
Y37620D02*
D03*
Y32540D02*
D03*
D25*
X37500Y45500D02*
D03*
X16500Y28400D02*
D03*
Y38400D02*
D03*
Y34000D02*
D03*
Y24000D02*
D03*
%TF.MD5,71055390d28c9cd986034587f64a5023*%
M02*
