M48
;Layer_Color=9474304
;FILE_FORMAT=4:3
METRIC,LZ
;TYPE=PLATED
T01F00S00C0.300
T02F00S00C0.762
T03F00S00C0.850
T04F00S00C0.900
T05F00S00C1.000
T06F00S00C1.300
T07F00S00C1.600
T08F00S00C3.500
%
T01
X00165Y0024
Y00284
Y0034
Y00384
X00375Y00455
T02
X0013Y002373
Y002627
Y003381
Y003635
T03
X001269Y0002488
Y0005738
Y0008988
X002031
Y0005738
Y0002488
T04
X0026Y000323
Y000577
X003175
Y000323
X00375
Y000577
T05
X00395Y00195
X00445
Y00335
X00395
T06
X0006Y001238
X002596Y0024305
X00285
X003104
Y0034385
X00285
X002596
X0006Y003254
Y002754
Y002246
Y001746
Y003762
T07
X00205Y004425
X003
T08
X00045Y00045
X00455
Y00455
X00045
M30
