%TF.GenerationSoftware,Altium Limited,Altium Designer,25.2.1 (25)*%
G04 Layer_Color=65535*
%FSLAX43Y43*%
%MOMM*%
%TF.SameCoordinates,7AE743A0-E930-48E4-8D4D-448B6A2E52D1*%
%TF.FilePolarity,Positive*%
%TF.FileFunction,Legend,Top*%
%TF.Part,Single*%
G01*
G75*
%TA.AperFunction,NonConductor*%
%ADD13C,0.200*%
%ADD14C,0.300*%
D13*
X6600Y6000D02*
G03*
X6600Y6000I-100J0D01*
G01*
X13410Y710D02*
X15950D01*
X15950Y710D02*
Y5790D01*
X13410Y5790D02*
X15950D01*
X13410Y710D02*
Y5790D01*
X730Y710D02*
X3270D01*
X3270Y710D02*
Y5790D01*
X730Y5790D02*
X3270D01*
X730Y710D02*
Y5790D01*
X4850Y6250D02*
X5850D01*
X4850Y5250D02*
Y6250D01*
X11650Y5250D02*
Y6250D01*
X10650D02*
X11650D01*
X10650Y750D02*
X11650D01*
Y1750D01*
X4850Y750D02*
Y1750D01*
Y750D02*
X5850D01*
X14081Y7083D02*
X13914Y7250D01*
X13581D01*
X13414Y7083D01*
Y6417D01*
X13581Y6250D01*
X13914D01*
X14081Y6417D01*
Y6750D01*
X13747D01*
X14414Y6250D02*
Y7250D01*
X15080Y6250D01*
Y7250D01*
X15414D02*
Y6250D01*
X15913D01*
X16080Y6417D01*
Y7083D01*
X15913Y7250D01*
X15414D01*
X14747Y8750D02*
Y7750D01*
X15247D01*
X15414Y7917D01*
Y8583D01*
X15247Y8750D01*
X14747D01*
X15747D02*
X16080D01*
X15913D01*
Y7750D01*
X15747D01*
X16080D01*
X600Y7250D02*
Y6250D01*
X1100D01*
X1266Y6417D01*
Y7083D01*
X1100Y7250D01*
X600D01*
X2100D02*
X1766D01*
X1600Y7083D01*
Y6417D01*
X1766Y6250D01*
X2100D01*
X2266Y6417D01*
Y7083D01*
X2100Y7250D01*
X600Y8750D02*
Y8083D01*
X933Y7750D01*
X1266Y8083D01*
Y8750D01*
X1600D02*
Y7750D01*
X2100D01*
X2266Y7917D01*
Y8583D01*
X2100Y8750D01*
X1600D01*
X2599D02*
Y7750D01*
X3099D01*
X3266Y7917D01*
Y8583D01*
X3099Y8750D01*
X2599D01*
D14*
X3951Y7600D02*
Y8800D01*
X4751Y7600D01*
Y8800D01*
X5751Y7600D02*
X5351D01*
X5151Y7800D01*
Y8200D01*
X5351Y8400D01*
X5751D01*
X5951Y8200D01*
Y8000D01*
X5151D01*
X6551Y7600D02*
X6950D01*
X7150Y7800D01*
Y8200D01*
X6950Y8400D01*
X6551D01*
X6351Y8200D01*
Y7800D01*
X6551Y7600D01*
X7550Y7200D02*
Y8400D01*
X8150D01*
X8350Y8200D01*
Y7800D01*
X8150Y7600D01*
X7550D01*
X8750D02*
X9150D01*
X8950D01*
Y8400D01*
X8750D01*
X9750D02*
X10549Y7600D01*
X10149Y8000D01*
X10549Y8400D01*
X9750Y7600D01*
X11549D02*
X11149D01*
X10949Y7800D01*
Y8200D01*
X11149Y8400D01*
X11549D01*
X11749Y8200D01*
Y8000D01*
X10949D01*
X12149Y7600D02*
X12549D01*
X12349D01*
Y8800D01*
X12149D01*
%TF.MD5,d009752bb5fc1593a0a196ddf83c1211*%
M02*
