%TF.GenerationSoftware,Altium Limited,Altium Designer,25.2.1 (25)*%
G04 Layer_Physical_Order=2*
G04 Layer_Color=36540*
%FSLAX43Y43*%
%MOMM*%
%TF.SameCoordinates,F457C3C9-6880-4064-B818-50B76E06CF19*%
%TF.FilePolarity,Positive*%
%TF.FileFunction,Copper,L2,Inr,Signal*%
%TF.Part,Single*%
G01*
G75*
%TA.AperFunction,ComponentPad*%
%ADD14C,2.500*%
%ADD15C,5.000*%
%ADD16O,2.500X1.600*%
%ADD17C,1.500*%
%ADD18C,3.000*%
%ADD19C,1.524*%
%ADD20C,6.000*%
%ADD21R,1.500X1.500*%
%ADD22C,2.775*%
%TA.AperFunction,ViaPad*%
%ADD23C,0.700*%
G36*
X56637Y98523D02*
X57259Y98374D01*
X57849Y98129D01*
X58394Y97795D01*
X58880Y97380D01*
X59295Y96894D01*
X59629Y96349D01*
X59874Y95759D01*
X60023Y95137D01*
X60071Y94530D01*
X60065Y94500D01*
Y4500D01*
X60071Y4470D01*
X60023Y3863D01*
X59874Y3241D01*
X59629Y2651D01*
X59295Y2106D01*
X58880Y1620D01*
X58394Y1205D01*
X57849Y871D01*
X57259Y626D01*
X56637Y477D01*
X56030Y429D01*
X56000Y435D01*
X4500D01*
X4470Y429D01*
X3863Y477D01*
X3241Y626D01*
X2651Y871D01*
X2106Y1205D01*
X1620Y1620D01*
X1205Y2106D01*
X871Y2651D01*
X626Y3241D01*
X477Y3863D01*
X429Y4470D01*
X435Y4500D01*
Y94500D01*
X429Y94530D01*
X477Y95137D01*
X626Y95759D01*
X871Y96349D01*
X1205Y96894D01*
X1620Y97380D01*
X2106Y97795D01*
X2651Y98129D01*
X3241Y98374D01*
X3863Y98523D01*
X4470Y98571D01*
X4500Y98565D01*
X56000D01*
X56030Y98571D01*
X56637Y98523D01*
D02*
G37*
%LPC*%
G36*
X23030Y87912D02*
X22750D01*
X22480Y87840D01*
X22238Y87700D01*
X22040Y87502D01*
X21900Y87260D01*
X21828Y86990D01*
Y86710D01*
X21900Y86440D01*
X22040Y86198D01*
X22238Y86000D01*
X22480Y85860D01*
X22750Y85788D01*
X23030D01*
X23300Y85860D01*
X23542Y86000D01*
X23740Y86198D01*
X23880Y86440D01*
X23952Y86710D01*
Y86990D01*
X23880Y87260D01*
X23740Y87502D01*
X23542Y87700D01*
X23300Y87840D01*
X23030Y87912D01*
D02*
G37*
G36*
X5250D02*
X4970D01*
X4700Y87840D01*
X4458Y87700D01*
X4260Y87502D01*
X4120Y87260D01*
X4048Y86990D01*
Y86710D01*
X4120Y86440D01*
X4260Y86198D01*
X4458Y86000D01*
X4700Y85860D01*
X4970Y85788D01*
X5250D01*
X5520Y85860D01*
X5762Y86000D01*
X5960Y86198D01*
X6100Y86440D01*
X6172Y86710D01*
Y86990D01*
X6100Y87260D01*
X5960Y87502D01*
X5762Y87700D01*
X5520Y87840D01*
X5250Y87912D01*
D02*
G37*
G36*
X44666Y88387D02*
X44334D01*
X44008Y88323D01*
X43701Y88195D01*
X43424Y88011D01*
X43189Y87776D01*
X43005Y87499D01*
X42877Y87192D01*
X42812Y86866D01*
Y86534D01*
X42877Y86208D01*
X43005Y85901D01*
X43189Y85624D01*
X43424Y85389D01*
X43701Y85205D01*
X44008Y85077D01*
X44334Y85012D01*
X44666D01*
X44992Y85077D01*
X45299Y85205D01*
X45576Y85389D01*
X45811Y85624D01*
X45995Y85901D01*
X46123Y86208D01*
X46188Y86534D01*
Y86866D01*
X46123Y87192D01*
X45995Y87499D01*
X45811Y87776D01*
X45576Y88011D01*
X45299Y88195D01*
X44992Y88323D01*
X44666Y88387D01*
D02*
G37*
G36*
X49086Y86150D02*
X48914D01*
X48749Y86106D01*
X48601Y86020D01*
X48480Y85899D01*
X48394Y85751D01*
X48350Y85586D01*
Y85414D01*
X48394Y85249D01*
X48480Y85101D01*
X48601Y84980D01*
X48749Y84894D01*
X48914Y84850D01*
X49086D01*
X49251Y84894D01*
X49399Y84980D01*
X49520Y85101D01*
X49606Y85249D01*
X49650Y85414D01*
Y85586D01*
X49606Y85751D01*
X49520Y85899D01*
X49399Y86020D01*
X49251Y86106D01*
X49086Y86150D01*
D02*
G37*
G36*
X23030Y85372D02*
X22750D01*
X22480Y85300D01*
X22238Y85160D01*
X22040Y84962D01*
X21900Y84720D01*
X21828Y84450D01*
Y84170D01*
X21900Y83900D01*
X22040Y83658D01*
X22238Y83460D01*
X22480Y83320D01*
X22750Y83248D01*
X23030D01*
X23300Y83320D01*
X23542Y83460D01*
X23740Y83658D01*
X23880Y83900D01*
X23952Y84170D01*
Y84450D01*
X23880Y84720D01*
X23740Y84962D01*
X23542Y85160D01*
X23300Y85300D01*
X23030Y85372D01*
D02*
G37*
G36*
X5250D02*
X4970D01*
X4700Y85300D01*
X4458Y85160D01*
X4260Y84962D01*
X4120Y84720D01*
X4048Y84450D01*
Y84170D01*
X4120Y83900D01*
X4260Y83658D01*
X4458Y83460D01*
X4700Y83320D01*
X4970Y83248D01*
X5250D01*
X5520Y83320D01*
X5762Y83460D01*
X5960Y83658D01*
X6100Y83900D01*
X6172Y84170D01*
Y84450D01*
X6100Y84720D01*
X5960Y84962D01*
X5762Y85160D01*
X5520Y85300D01*
X5250Y85372D01*
D02*
G37*
G36*
X57366Y86228D02*
X57034D01*
X56708Y86163D01*
X56401Y86035D01*
X56124Y85851D01*
X55889Y85616D01*
X55705Y85339D01*
X55577Y85032D01*
X55513Y84706D01*
Y84374D01*
X55577Y84048D01*
X55705Y83741D01*
X55889Y83464D01*
X56124Y83229D01*
X56401Y83045D01*
X56708Y82917D01*
X57034Y82853D01*
X57366D01*
X57692Y82917D01*
X57999Y83045D01*
X58276Y83229D01*
X58511Y83464D01*
X58695Y83741D01*
X58823Y84048D01*
X58888Y84374D01*
Y84706D01*
X58823Y85032D01*
X58695Y85339D01*
X58511Y85616D01*
X58276Y85851D01*
X57999Y86035D01*
X57692Y86163D01*
X57366Y86228D01*
D02*
G37*
G36*
X23030Y80292D02*
X22750D01*
X22480Y80220D01*
X22238Y80080D01*
X22040Y79882D01*
X21900Y79640D01*
X21828Y79370D01*
Y79090D01*
X21900Y78820D01*
X22040Y78578D01*
X22238Y78380D01*
X22480Y78240D01*
X22750Y78168D01*
X23030D01*
X23300Y78240D01*
X23542Y78380D01*
X23740Y78578D01*
X23880Y78820D01*
X23952Y79090D01*
Y79370D01*
X23880Y79640D01*
X23740Y79882D01*
X23542Y80080D01*
X23300Y80220D01*
X23030Y80292D01*
D02*
G37*
G36*
X5250D02*
X4970D01*
X4700Y80220D01*
X4458Y80080D01*
X4260Y79882D01*
X4120Y79640D01*
X4048Y79370D01*
Y79090D01*
X4120Y78820D01*
X4260Y78578D01*
X4458Y78380D01*
X4700Y78240D01*
X4970Y78168D01*
X5250D01*
X5520Y78240D01*
X5762Y78380D01*
X5960Y78578D01*
X6100Y78820D01*
X6172Y79090D01*
Y79370D01*
X6100Y79640D01*
X5960Y79882D01*
X5762Y80080D01*
X5520Y80220D01*
X5250Y80292D01*
D02*
G37*
G36*
X49086Y79150D02*
X48914D01*
X48749Y79106D01*
X48601Y79020D01*
X48480Y78899D01*
X48394Y78751D01*
X48350Y78586D01*
Y78414D01*
X48394Y78249D01*
X48480Y78101D01*
X48601Y77980D01*
X48749Y77894D01*
X48914Y77850D01*
X49086D01*
X49251Y77894D01*
X49399Y77980D01*
X49520Y78101D01*
X49606Y78249D01*
X49650Y78414D01*
Y78586D01*
X49606Y78751D01*
X49520Y78899D01*
X49399Y79020D01*
X49251Y79106D01*
X49086Y79150D01*
D02*
G37*
G36*
X57366Y81147D02*
X57034D01*
X56708Y81083D01*
X56401Y80955D01*
X56124Y80771D01*
X55889Y80536D01*
X55705Y80259D01*
X55577Y79952D01*
X55513Y79626D01*
Y79294D01*
X55577Y78968D01*
X55705Y78661D01*
X55889Y78384D01*
X56124Y78149D01*
X56401Y77965D01*
X56708Y77837D01*
X57034Y77772D01*
X57366D01*
X57692Y77837D01*
X57999Y77965D01*
X58276Y78149D01*
X58511Y78384D01*
X58695Y78661D01*
X58823Y78968D01*
X58888Y79294D01*
Y79626D01*
X58823Y79952D01*
X58695Y80259D01*
X58511Y80536D01*
X58276Y80771D01*
X57999Y80955D01*
X57692Y81083D01*
X57366Y81147D01*
D02*
G37*
G36*
X23030Y77752D02*
X22750D01*
X22480Y77680D01*
X22238Y77540D01*
X22040Y77342D01*
X21900Y77100D01*
X21828Y76830D01*
Y76550D01*
X21900Y76280D01*
X22040Y76038D01*
X22238Y75840D01*
X22480Y75700D01*
X22750Y75628D01*
X23030D01*
X23300Y75700D01*
X23542Y75840D01*
X23740Y76038D01*
X23880Y76280D01*
X23952Y76550D01*
Y76830D01*
X23880Y77100D01*
X23740Y77342D01*
X23542Y77540D01*
X23300Y77680D01*
X23030Y77752D01*
D02*
G37*
G36*
X5250D02*
X4970D01*
X4700Y77680D01*
X4458Y77540D01*
X4260Y77342D01*
X4120Y77100D01*
X4048Y76830D01*
Y76550D01*
X4120Y76280D01*
X4260Y76038D01*
X4458Y75840D01*
X4700Y75700D01*
X4970Y75628D01*
X5250D01*
X5520Y75700D01*
X5762Y75840D01*
X5960Y76038D01*
X6100Y76280D01*
X6172Y76550D01*
Y76830D01*
X6100Y77100D01*
X5960Y77342D01*
X5762Y77540D01*
X5520Y77680D01*
X5250Y77752D01*
D02*
G37*
G36*
X44666Y78988D02*
X44334D01*
X44008Y78923D01*
X43701Y78795D01*
X43424Y78611D01*
X43189Y78376D01*
X43005Y78099D01*
X42877Y77792D01*
X42812Y77466D01*
Y77134D01*
X42877Y76808D01*
X43005Y76501D01*
X43189Y76224D01*
X43424Y75989D01*
X43701Y75805D01*
X44008Y75677D01*
X44334Y75613D01*
X44666D01*
X44992Y75677D01*
X45299Y75805D01*
X45576Y75989D01*
X45811Y76224D01*
X45995Y76501D01*
X46123Y76808D01*
X46188Y77134D01*
Y77466D01*
X46123Y77792D01*
X45995Y78099D01*
X45811Y78376D01*
X45576Y78611D01*
X45299Y78795D01*
X44992Y78923D01*
X44666Y78988D01*
D02*
G37*
G36*
X23030Y75212D02*
X22750D01*
X22480Y75140D01*
X22238Y75000D01*
X22040Y74802D01*
X21900Y74560D01*
X21828Y74290D01*
Y74010D01*
X21900Y73740D01*
X22040Y73498D01*
X22238Y73300D01*
X22480Y73160D01*
X22750Y73088D01*
X23030D01*
X23300Y73160D01*
X23542Y73300D01*
X23740Y73498D01*
X23880Y73740D01*
X23952Y74010D01*
Y74290D01*
X23880Y74560D01*
X23740Y74802D01*
X23542Y75000D01*
X23300Y75140D01*
X23030Y75212D01*
D02*
G37*
G36*
X5250D02*
X4970D01*
X4700Y75140D01*
X4458Y75000D01*
X4260Y74802D01*
X4120Y74560D01*
X4048Y74290D01*
Y74010D01*
X4120Y73740D01*
X4260Y73498D01*
X4458Y73300D01*
X4700Y73160D01*
X4970Y73088D01*
X5250D01*
X5520Y73160D01*
X5762Y73300D01*
X5960Y73498D01*
X6100Y73740D01*
X6172Y74010D01*
Y74290D01*
X6100Y74560D01*
X5960Y74802D01*
X5762Y75000D01*
X5520Y75140D01*
X5250Y75212D01*
D02*
G37*
G36*
X51138Y73300D02*
X50862D01*
X50595Y73228D01*
X50355Y73090D01*
X50160Y72895D01*
X50022Y72655D01*
X49950Y72388D01*
Y72112D01*
X50022Y71845D01*
X50160Y71605D01*
X50355Y71410D01*
X50595Y71272D01*
X50862Y71200D01*
X51138D01*
X51405Y71272D01*
X51645Y71410D01*
X51840Y71605D01*
X51978Y71845D01*
X52050Y72112D01*
Y72388D01*
X51978Y72655D01*
X51840Y72895D01*
X51645Y73090D01*
X51405Y73228D01*
X51138Y73300D01*
D02*
G37*
G36*
X23030Y72672D02*
X22750D01*
X22480Y72600D01*
X22238Y72460D01*
X22040Y72262D01*
X21900Y72020D01*
X21828Y71750D01*
Y71470D01*
X21900Y71200D01*
X22040Y70958D01*
X22238Y70760D01*
X22480Y70620D01*
X22750Y70548D01*
X23030D01*
X23300Y70620D01*
X23542Y70760D01*
X23740Y70958D01*
X23880Y71200D01*
X23952Y71470D01*
Y71750D01*
X23880Y72020D01*
X23740Y72262D01*
X23542Y72460D01*
X23300Y72600D01*
X23030Y72672D01*
D02*
G37*
G36*
X5250D02*
X4970D01*
X4700Y72600D01*
X4458Y72460D01*
X4260Y72262D01*
X4120Y72020D01*
X4048Y71750D01*
Y71470D01*
X4120Y71200D01*
X4260Y70958D01*
X4458Y70760D01*
X4700Y70620D01*
X4970Y70548D01*
X5250D01*
X5520Y70620D01*
X5762Y70760D01*
X5960Y70958D01*
X6100Y71200D01*
X6172Y71470D01*
Y71750D01*
X6100Y72020D01*
X5960Y72262D01*
X5762Y72460D01*
X5520Y72600D01*
X5250Y72672D01*
D02*
G37*
G36*
X51138Y69050D02*
X50862D01*
X50595Y68978D01*
X50355Y68840D01*
X50160Y68645D01*
X50022Y68405D01*
X49950Y68138D01*
Y67862D01*
X50022Y67595D01*
X50160Y67355D01*
X50355Y67160D01*
X50595Y67022D01*
X50862Y66950D01*
X51138D01*
X51405Y67022D01*
X51645Y67160D01*
X51840Y67355D01*
X51978Y67595D01*
X52050Y67862D01*
Y68138D01*
X51978Y68405D01*
X51840Y68645D01*
X51645Y68840D01*
X51405Y68978D01*
X51138Y69050D01*
D02*
G37*
G36*
X23030Y67592D02*
X22750D01*
X22480Y67520D01*
X22238Y67380D01*
X22040Y67182D01*
X21900Y66940D01*
X21828Y66670D01*
Y66390D01*
X21900Y66120D01*
X22040Y65878D01*
X22238Y65680D01*
X22480Y65540D01*
X22750Y65468D01*
X23030D01*
X23300Y65540D01*
X23542Y65680D01*
X23740Y65878D01*
X23880Y66120D01*
X23952Y66390D01*
Y66670D01*
X23880Y66940D01*
X23740Y67182D01*
X23542Y67380D01*
X23300Y67520D01*
X23030Y67592D01*
D02*
G37*
G36*
X5250D02*
X4970D01*
X4700Y67520D01*
X4458Y67380D01*
X4260Y67182D01*
X4120Y66940D01*
X4048Y66670D01*
Y66390D01*
X4120Y66120D01*
X4260Y65878D01*
X4458Y65680D01*
X4700Y65540D01*
X4970Y65468D01*
X5250D01*
X5520Y65540D01*
X5762Y65680D01*
X5960Y65878D01*
X6100Y66120D01*
X6172Y66390D01*
Y66670D01*
X6100Y66940D01*
X5960Y67182D01*
X5762Y67380D01*
X5520Y67520D01*
X5250Y67592D01*
D02*
G37*
G36*
X43086Y65650D02*
X42914D01*
X42749Y65606D01*
X42601Y65520D01*
X42480Y65399D01*
X42394Y65251D01*
X42350Y65086D01*
Y64914D01*
X42394Y64749D01*
X42480Y64601D01*
X42601Y64480D01*
X42749Y64394D01*
X42914Y64350D01*
X43086D01*
X43251Y64394D01*
X43399Y64480D01*
X43520Y64601D01*
X43606Y64749D01*
X43650Y64914D01*
Y65086D01*
X43606Y65251D01*
X43520Y65399D01*
X43399Y65520D01*
X43251Y65606D01*
X43086Y65650D01*
D02*
G37*
G36*
X28336Y65400D02*
X28164D01*
X27999Y65356D01*
X27851Y65270D01*
X27730Y65149D01*
X27644Y65001D01*
X27600Y64836D01*
Y64664D01*
X27644Y64499D01*
X27730Y64351D01*
X27851Y64230D01*
X27999Y64144D01*
X28164Y64100D01*
X28336D01*
X28501Y64144D01*
X28649Y64230D01*
X28770Y64351D01*
X28856Y64499D01*
X28900Y64664D01*
Y64836D01*
X28856Y65001D01*
X28770Y65149D01*
X28649Y65270D01*
X28501Y65356D01*
X28336Y65400D01*
D02*
G37*
G36*
X23030Y65052D02*
X22750D01*
X22480Y64980D01*
X22238Y64840D01*
X22040Y64642D01*
X21900Y64400D01*
X21828Y64130D01*
Y63850D01*
X21900Y63580D01*
X22040Y63338D01*
X22238Y63140D01*
X22480Y63000D01*
X22750Y62928D01*
X23030D01*
X23300Y63000D01*
X23542Y63140D01*
X23740Y63338D01*
X23880Y63580D01*
X23952Y63850D01*
Y64130D01*
X23880Y64400D01*
X23740Y64642D01*
X23542Y64840D01*
X23300Y64980D01*
X23030Y65052D01*
D02*
G37*
G36*
X5250D02*
X4970D01*
X4700Y64980D01*
X4458Y64840D01*
X4260Y64642D01*
X4120Y64400D01*
X4048Y64130D01*
Y63850D01*
X4120Y63580D01*
X4260Y63338D01*
X4458Y63140D01*
X4700Y63000D01*
X4970Y62928D01*
X5250D01*
X5520Y63000D01*
X5762Y63140D01*
X5960Y63338D01*
X6100Y63580D01*
X6172Y63850D01*
Y64130D01*
X6100Y64400D01*
X5960Y64642D01*
X5762Y64840D01*
X5520Y64980D01*
X5250Y65052D01*
D02*
G37*
G36*
X35086Y63900D02*
X34914D01*
X34749Y63856D01*
X34601Y63770D01*
X34480Y63649D01*
X34394Y63501D01*
X34350Y63336D01*
Y63164D01*
X34394Y62999D01*
X34480Y62851D01*
X34601Y62730D01*
X34749Y62644D01*
X34914Y62600D01*
X35086D01*
X35251Y62644D01*
X35399Y62730D01*
X35520Y62851D01*
X35606Y62999D01*
X35650Y63164D01*
Y63336D01*
X35606Y63501D01*
X35520Y63649D01*
X35399Y63770D01*
X35251Y63856D01*
X35086Y63900D01*
D02*
G37*
G36*
X23030Y62512D02*
X22750D01*
X22480Y62440D01*
X22238Y62300D01*
X22040Y62102D01*
X21900Y61860D01*
X21828Y61590D01*
Y61310D01*
X21900Y61040D01*
X22040Y60798D01*
X22238Y60600D01*
X22480Y60460D01*
X22750Y60388D01*
X23030D01*
X23300Y60460D01*
X23542Y60600D01*
X23740Y60798D01*
X23880Y61040D01*
X23952Y61310D01*
Y61590D01*
X23880Y61860D01*
X23740Y62102D01*
X23542Y62300D01*
X23300Y62440D01*
X23030Y62512D01*
D02*
G37*
G36*
X5250D02*
X4970D01*
X4700Y62440D01*
X4458Y62300D01*
X4260Y62102D01*
X4120Y61860D01*
X4048Y61590D01*
Y61310D01*
X4120Y61040D01*
X4260Y60798D01*
X4458Y60600D01*
X4700Y60460D01*
X4970Y60388D01*
X5250D01*
X5520Y60460D01*
X5762Y60600D01*
X5960Y60798D01*
X6100Y61040D01*
X6172Y61310D01*
Y61590D01*
X6100Y61860D01*
X5960Y62102D01*
X5762Y62300D01*
X5520Y62440D01*
X5250Y62512D01*
D02*
G37*
G36*
X54086Y59650D02*
X53914D01*
X53749Y59606D01*
X53601Y59520D01*
X53480Y59399D01*
X53394Y59251D01*
X53350Y59086D01*
Y58914D01*
X53394Y58749D01*
X53480Y58601D01*
X53601Y58480D01*
X53749Y58394D01*
X53914Y58350D01*
X54086D01*
X54251Y58394D01*
X54399Y58480D01*
X54520Y58601D01*
X54606Y58749D01*
X54650Y58914D01*
Y59086D01*
X54606Y59251D01*
X54520Y59399D01*
X54399Y59520D01*
X54251Y59606D01*
X54086Y59650D01*
D02*
G37*
G36*
X50586D02*
X50414D01*
X50249Y59606D01*
X50101Y59520D01*
X49980Y59399D01*
X49894Y59251D01*
X49850Y59086D01*
Y58914D01*
X49894Y58749D01*
X49980Y58601D01*
X50101Y58480D01*
X50249Y58394D01*
X50414Y58350D01*
X50586D01*
X50751Y58394D01*
X50899Y58480D01*
X51020Y58601D01*
X51106Y58749D01*
X51150Y58914D01*
Y59086D01*
X51106Y59251D01*
X51020Y59399D01*
X50899Y59520D01*
X50751Y59606D01*
X50586Y59650D01*
D02*
G37*
G36*
X43086D02*
X42914D01*
X42749Y59606D01*
X42601Y59520D01*
X42480Y59399D01*
X42394Y59251D01*
X42350Y59086D01*
Y58914D01*
X42394Y58749D01*
X42480Y58601D01*
X42601Y58480D01*
X42749Y58394D01*
X42914Y58350D01*
X43086D01*
X43251Y58394D01*
X43399Y58480D01*
X43520Y58601D01*
X43606Y58749D01*
X43650Y58914D01*
Y59086D01*
X43606Y59251D01*
X43520Y59399D01*
X43399Y59520D01*
X43251Y59606D01*
X43086Y59650D01*
D02*
G37*
G36*
X23030Y59972D02*
X22750D01*
X22480Y59900D01*
X22238Y59760D01*
X22040Y59562D01*
X21900Y59320D01*
X21828Y59050D01*
Y58770D01*
X21900Y58500D01*
X22040Y58258D01*
X22238Y58060D01*
X22480Y57920D01*
X22750Y57848D01*
X23030D01*
X23300Y57920D01*
X23542Y58060D01*
X23740Y58258D01*
X23880Y58500D01*
X23952Y58770D01*
Y59050D01*
X23880Y59320D01*
X23740Y59562D01*
X23542Y59760D01*
X23300Y59900D01*
X23030Y59972D01*
D02*
G37*
G36*
X5250D02*
X4970D01*
X4700Y59900D01*
X4458Y59760D01*
X4260Y59562D01*
X4120Y59320D01*
X4048Y59050D01*
Y58770D01*
X4120Y58500D01*
X4260Y58258D01*
X4458Y58060D01*
X4700Y57920D01*
X4970Y57848D01*
X5250D01*
X5520Y57920D01*
X5762Y58060D01*
X5960Y58258D01*
X6100Y58500D01*
X6172Y58770D01*
Y59050D01*
X6100Y59320D01*
X5960Y59562D01*
X5762Y59760D01*
X5520Y59900D01*
X5250Y59972D01*
D02*
G37*
G36*
X50586Y57900D02*
X50414D01*
X50249Y57856D01*
X50101Y57770D01*
X49980Y57649D01*
X49894Y57501D01*
X49850Y57336D01*
Y57164D01*
X49894Y56999D01*
X49980Y56851D01*
X50101Y56730D01*
X50249Y56644D01*
X50414Y56600D01*
X50586D01*
X50751Y56644D01*
X50899Y56730D01*
X51020Y56851D01*
X51106Y56999D01*
X51150Y57164D01*
Y57336D01*
X51106Y57501D01*
X51020Y57649D01*
X50899Y57770D01*
X50751Y57856D01*
X50586Y57900D01*
D02*
G37*
G36*
X43086D02*
X42914D01*
X42749Y57856D01*
X42601Y57770D01*
X42480Y57649D01*
X42394Y57501D01*
X42350Y57336D01*
Y57164D01*
X42394Y56999D01*
X42480Y56851D01*
X42601Y56730D01*
X42656Y56698D01*
Y56552D01*
X42601Y56520D01*
X42480Y56399D01*
X42394Y56251D01*
X42350Y56086D01*
Y55914D01*
X42394Y55749D01*
X42480Y55601D01*
X42581Y55500D01*
X42480Y55399D01*
X42394Y55251D01*
X42350Y55086D01*
Y54914D01*
X42394Y54749D01*
X42480Y54601D01*
X42601Y54480D01*
X42749Y54394D01*
X42914Y54350D01*
X43086D01*
X43251Y54394D01*
X43399Y54480D01*
X43520Y54601D01*
X43606Y54749D01*
X43650Y54914D01*
Y55086D01*
X43606Y55251D01*
X43520Y55399D01*
X43419Y55500D01*
X43520Y55601D01*
X43606Y55749D01*
X43650Y55914D01*
Y56086D01*
X43606Y56251D01*
X43520Y56399D01*
X43399Y56520D01*
X43344Y56552D01*
Y56698D01*
X43399Y56730D01*
X43520Y56851D01*
X43606Y56999D01*
X43650Y57164D01*
Y57336D01*
X43606Y57501D01*
X43520Y57649D01*
X43399Y57770D01*
X43251Y57856D01*
X43086Y57900D01*
D02*
G37*
G36*
X36086Y55650D02*
X35914D01*
X35749Y55606D01*
X35601Y55520D01*
X35480Y55399D01*
X35394Y55251D01*
X35350Y55086D01*
Y54914D01*
X35394Y54749D01*
X35480Y54601D01*
X35601Y54480D01*
X35749Y54394D01*
X35914Y54350D01*
X36086D01*
X36251Y54394D01*
X36399Y54480D01*
X36520Y54601D01*
X36606Y54749D01*
X36650Y54914D01*
Y55086D01*
X36606Y55251D01*
X36520Y55399D01*
X36399Y55520D01*
X36251Y55606D01*
X36086Y55650D01*
D02*
G37*
G36*
X23030Y54892D02*
X22750D01*
X22480Y54820D01*
X22238Y54680D01*
X22040Y54482D01*
X21900Y54240D01*
X21828Y53970D01*
Y53690D01*
X21900Y53420D01*
X22040Y53178D01*
X22238Y52980D01*
X22480Y52840D01*
X22750Y52768D01*
X23030D01*
X23300Y52840D01*
X23542Y52980D01*
X23740Y53178D01*
X23880Y53420D01*
X23952Y53690D01*
Y53970D01*
X23880Y54240D01*
X23740Y54482D01*
X23542Y54680D01*
X23300Y54820D01*
X23030Y54892D01*
D02*
G37*
G36*
X5250D02*
X4970D01*
X4700Y54820D01*
X4458Y54680D01*
X4260Y54482D01*
X4120Y54240D01*
X4048Y53970D01*
Y53690D01*
X4120Y53420D01*
X4260Y53178D01*
X4458Y52980D01*
X4700Y52840D01*
X4970Y52768D01*
X5250D01*
X5520Y52840D01*
X5762Y52980D01*
X5960Y53178D01*
X6100Y53420D01*
X6172Y53690D01*
Y53970D01*
X6100Y54240D01*
X5960Y54482D01*
X5762Y54680D01*
X5520Y54820D01*
X5250Y54892D01*
D02*
G37*
G36*
X33336Y51900D02*
X33164D01*
X32999Y51856D01*
X32851Y51770D01*
X32730Y51649D01*
X32644Y51501D01*
X32600Y51336D01*
Y51164D01*
X32644Y50999D01*
X32730Y50851D01*
X32851Y50730D01*
X32999Y50644D01*
X33164Y50600D01*
X33336D01*
X33501Y50644D01*
X33649Y50730D01*
X33770Y50851D01*
X33856Y50999D01*
X33900Y51164D01*
Y51336D01*
X33856Y51501D01*
X33770Y51649D01*
X33649Y51770D01*
X33501Y51856D01*
X33336Y51900D01*
D02*
G37*
G36*
X23030Y52352D02*
X22750D01*
X22480Y52280D01*
X22238Y52140D01*
X22040Y51942D01*
X21900Y51700D01*
X21828Y51430D01*
Y51150D01*
X21900Y50880D01*
X22040Y50638D01*
X22238Y50440D01*
X22480Y50300D01*
X22750Y50228D01*
X23030D01*
X23300Y50300D01*
X23542Y50440D01*
X23740Y50638D01*
X23880Y50880D01*
X23952Y51150D01*
Y51430D01*
X23880Y51700D01*
X23740Y51942D01*
X23542Y52140D01*
X23300Y52280D01*
X23030Y52352D01*
D02*
G37*
G36*
X5250D02*
X4970D01*
X4700Y52280D01*
X4458Y52140D01*
X4260Y51942D01*
X4120Y51700D01*
X4048Y51430D01*
Y51150D01*
X4120Y50880D01*
X4260Y50638D01*
X4458Y50440D01*
X4700Y50300D01*
X4970Y50228D01*
X5250D01*
X5520Y50300D01*
X5762Y50440D01*
X5960Y50638D01*
X6100Y50880D01*
X6172Y51150D01*
Y51430D01*
X6100Y51700D01*
X5960Y51942D01*
X5762Y52140D01*
X5520Y52280D01*
X5250Y52352D01*
D02*
G37*
G36*
X23030Y49812D02*
X22750D01*
X22480Y49740D01*
X22238Y49600D01*
X22040Y49402D01*
X21900Y49160D01*
X21828Y48890D01*
Y48610D01*
X21900Y48340D01*
X22040Y48098D01*
X22238Y47900D01*
X22480Y47760D01*
X22750Y47688D01*
X23030D01*
X23300Y47760D01*
X23542Y47900D01*
X23740Y48098D01*
X23880Y48340D01*
X23952Y48610D01*
Y48890D01*
X23880Y49160D01*
X23740Y49402D01*
X23542Y49600D01*
X23300Y49740D01*
X23030Y49812D01*
D02*
G37*
G36*
X5250D02*
X4970D01*
X4700Y49740D01*
X4458Y49600D01*
X4260Y49402D01*
X4120Y49160D01*
X4048Y48890D01*
Y48610D01*
X4120Y48340D01*
X4260Y48098D01*
X4458Y47900D01*
X4700Y47760D01*
X4970Y47688D01*
X5250D01*
X5520Y47760D01*
X5762Y47900D01*
X5960Y48098D01*
X6100Y48340D01*
X6172Y48610D01*
Y48890D01*
X6100Y49160D01*
X5960Y49402D01*
X5762Y49600D01*
X5520Y49740D01*
X5250Y49812D01*
D02*
G37*
G36*
X45508Y49090D02*
X45232D01*
X44965Y49019D01*
X44725Y48880D01*
X44530Y48685D01*
X44392Y48445D01*
X44320Y48178D01*
Y47902D01*
X44392Y47635D01*
X44530Y47395D01*
X44725Y47200D01*
X44965Y47062D01*
X45232Y46990D01*
X45508D01*
X45775Y47062D01*
X46015Y47200D01*
X46210Y47395D01*
X46348Y47635D01*
X46420Y47902D01*
Y48178D01*
X46348Y48445D01*
X46210Y48685D01*
X46015Y48880D01*
X45775Y49019D01*
X45508Y49090D01*
D02*
G37*
G36*
X48048Y49090D02*
X47772D01*
X47505Y49018D01*
X47265Y48880D01*
X47070Y48685D01*
X46932Y48445D01*
X46860Y48178D01*
Y47902D01*
X46932Y47635D01*
X47070Y47395D01*
X47265Y47200D01*
X47505Y47062D01*
X47772Y46990D01*
X48048D01*
X48315Y47062D01*
X48555Y47200D01*
X48750Y47395D01*
X48888Y47635D01*
X48960Y47902D01*
Y48178D01*
X48888Y48445D01*
X48750Y48685D01*
X48555Y48880D01*
X48315Y49018D01*
X48048Y49090D01*
D02*
G37*
G36*
X42968D02*
X42692D01*
X42425Y49018D01*
X42185Y48880D01*
X41990Y48685D01*
X41852Y48445D01*
X41780Y48178D01*
Y47902D01*
X41852Y47635D01*
X41990Y47395D01*
X42185Y47200D01*
X42425Y47062D01*
X42692Y46990D01*
X42968D01*
X43235Y47062D01*
X43475Y47200D01*
X43670Y47395D01*
X43808Y47635D01*
X43880Y47902D01*
Y48178D01*
X43808Y48445D01*
X43670Y48685D01*
X43475Y48880D01*
X43235Y49018D01*
X42968Y49090D01*
D02*
G37*
G36*
X40428D02*
X40152D01*
X39885Y49018D01*
X39645Y48880D01*
X39450Y48685D01*
X39312Y48445D01*
X39240Y48178D01*
Y47902D01*
X39312Y47635D01*
X39450Y47395D01*
X39645Y47200D01*
X39885Y47062D01*
X40152Y46990D01*
X40428D01*
X40695Y47062D01*
X40935Y47200D01*
X41130Y47395D01*
X41268Y47635D01*
X41340Y47902D01*
Y48178D01*
X41268Y48445D01*
X41130Y48685D01*
X40935Y48880D01*
X40695Y49018D01*
X40428Y49090D01*
D02*
G37*
G36*
X37888D02*
X37612D01*
X37345Y49018D01*
X37105Y48880D01*
X36910Y48685D01*
X36772Y48445D01*
X36700Y48178D01*
Y47902D01*
X36772Y47635D01*
X36910Y47395D01*
X37105Y47200D01*
X37345Y47062D01*
X37612Y46990D01*
X37888D01*
X38155Y47062D01*
X38395Y47200D01*
X38590Y47395D01*
X38728Y47635D01*
X38800Y47902D01*
Y48178D01*
X38728Y48445D01*
X38590Y48685D01*
X38395Y48880D01*
X38155Y49018D01*
X37888Y49090D01*
D02*
G37*
G36*
X55668Y49090D02*
X55392D01*
X55125Y49018D01*
X54885Y48880D01*
X54690Y48685D01*
X54552Y48445D01*
X54480Y48178D01*
Y47902D01*
X54552Y47635D01*
X54690Y47395D01*
X54885Y47200D01*
X55125Y47061D01*
X55392Y46990D01*
X55668D01*
X55935Y47061D01*
X56175Y47200D01*
X56370Y47395D01*
X56508Y47635D01*
X56580Y47902D01*
Y48178D01*
X56508Y48445D01*
X56370Y48685D01*
X56175Y48880D01*
X55935Y49018D01*
X55668Y49090D01*
D02*
G37*
G36*
X53128D02*
X52852D01*
X52585Y49018D01*
X52345Y48880D01*
X52150Y48685D01*
X52012Y48445D01*
X51940Y48178D01*
Y47902D01*
X52012Y47635D01*
X52150Y47395D01*
X52345Y47200D01*
X52585Y47061D01*
X52852Y46990D01*
X53128D01*
X53395Y47061D01*
X53635Y47200D01*
X53830Y47395D01*
X53968Y47635D01*
X54040Y47902D01*
Y48178D01*
X53968Y48445D01*
X53830Y48685D01*
X53635Y48880D01*
X53395Y49018D01*
X53128Y49090D01*
D02*
G37*
G36*
X50588D02*
X50312D01*
X50045Y49018D01*
X49805Y48880D01*
X49610Y48685D01*
X49472Y48445D01*
X49400Y48178D01*
Y47902D01*
X49472Y47635D01*
X49610Y47395D01*
X49805Y47200D01*
X50045Y47061D01*
X50312Y46990D01*
X50588D01*
X50855Y47061D01*
X51095Y47200D01*
X51290Y47395D01*
X51428Y47635D01*
X51500Y47902D01*
Y48178D01*
X51428Y48445D01*
X51290Y48685D01*
X51095Y48880D01*
X50855Y49018D01*
X50588Y49090D01*
D02*
G37*
G36*
X32336Y47150D02*
X32164D01*
X31999Y47106D01*
X31851Y47020D01*
X31730Y46899D01*
X31644Y46751D01*
X31600Y46586D01*
Y46414D01*
X31644Y46249D01*
X31730Y46101D01*
X31851Y45980D01*
X31999Y45894D01*
X32164Y45850D01*
X32336D01*
X32501Y45894D01*
X32649Y45980D01*
X32770Y46101D01*
X32856Y46249D01*
X32900Y46414D01*
Y46586D01*
X32856Y46751D01*
X32770Y46899D01*
X32649Y47020D01*
X32501Y47106D01*
X32336Y47150D01*
D02*
G37*
G36*
X27836D02*
X27664D01*
X27499Y47106D01*
X27351Y47020D01*
X27230Y46899D01*
X27144Y46751D01*
X27100Y46586D01*
Y46414D01*
X27144Y46249D01*
X27230Y46101D01*
X27351Y45980D01*
X27499Y45894D01*
X27664Y45850D01*
X27836D01*
X28001Y45894D01*
X28149Y45980D01*
X28270Y46101D01*
X28356Y46249D01*
X28400Y46414D01*
Y46586D01*
X28356Y46751D01*
X28270Y46899D01*
X28149Y47020D01*
X28001Y47106D01*
X27836Y47150D01*
D02*
G37*
G36*
X23030Y47272D02*
X22750D01*
X22480Y47200D01*
X22238Y47060D01*
X22040Y46862D01*
X21900Y46620D01*
X21828Y46350D01*
Y46070D01*
X21900Y45800D01*
X22040Y45558D01*
X22238Y45360D01*
X22480Y45220D01*
X22750Y45148D01*
X23030D01*
X23300Y45220D01*
X23542Y45360D01*
X23740Y45558D01*
X23880Y45800D01*
X23952Y46070D01*
Y46350D01*
X23880Y46620D01*
X23740Y46862D01*
X23542Y47060D01*
X23300Y47200D01*
X23030Y47272D01*
D02*
G37*
G36*
X5250D02*
X4970D01*
X4700Y47200D01*
X4458Y47060D01*
X4260Y46862D01*
X4120Y46620D01*
X4048Y46350D01*
Y46070D01*
X4120Y45800D01*
X4260Y45558D01*
X4458Y45360D01*
X4700Y45220D01*
X4970Y45148D01*
X5250D01*
X5520Y45220D01*
X5762Y45360D01*
X5960Y45558D01*
X6100Y45800D01*
X6172Y46070D01*
Y46350D01*
X6100Y46620D01*
X5960Y46862D01*
X5762Y47060D01*
X5520Y47200D01*
X5250Y47272D01*
D02*
G37*
G36*
X48048Y46550D02*
X47772D01*
X47505Y46478D01*
X47265Y46340D01*
X47070Y46145D01*
X46932Y45905D01*
X46860Y45638D01*
Y45362D01*
X46932Y45095D01*
X47070Y44855D01*
X47265Y44660D01*
X47505Y44522D01*
X47772Y44450D01*
X48048D01*
X48315Y44522D01*
X48555Y44660D01*
X48750Y44855D01*
X48888Y45095D01*
X48960Y45362D01*
Y45638D01*
X48888Y45905D01*
X48750Y46145D01*
X48555Y46340D01*
X48315Y46478D01*
X48048Y46550D01*
D02*
G37*
G36*
X45508D02*
X45232D01*
X44965Y46478D01*
X44725Y46340D01*
X44530Y46145D01*
X44392Y45905D01*
X44320Y45638D01*
Y45362D01*
X44392Y45095D01*
X44530Y44855D01*
X44725Y44660D01*
X44965Y44522D01*
X45232Y44450D01*
X45508D01*
X45775Y44522D01*
X46015Y44660D01*
X46210Y44855D01*
X46348Y45095D01*
X46420Y45362D01*
Y45638D01*
X46348Y45905D01*
X46210Y46145D01*
X46015Y46340D01*
X45775Y46478D01*
X45508Y46550D01*
D02*
G37*
G36*
X42968D02*
X42692D01*
X42425Y46478D01*
X42185Y46340D01*
X41990Y46145D01*
X41852Y45905D01*
X41780Y45638D01*
Y45362D01*
X41852Y45095D01*
X41990Y44855D01*
X42185Y44660D01*
X42425Y44522D01*
X42692Y44450D01*
X42968D01*
X43235Y44522D01*
X43475Y44660D01*
X43670Y44855D01*
X43808Y45095D01*
X43880Y45362D01*
Y45638D01*
X43808Y45905D01*
X43670Y46145D01*
X43475Y46340D01*
X43235Y46478D01*
X42968Y46550D01*
D02*
G37*
G36*
X40428D02*
X40152D01*
X39885Y46478D01*
X39645Y46340D01*
X39450Y46145D01*
X39312Y45905D01*
X39240Y45638D01*
Y45362D01*
X39312Y45095D01*
X39450Y44855D01*
X39645Y44660D01*
X39885Y44522D01*
X40152Y44450D01*
X40428D01*
X40695Y44522D01*
X40935Y44660D01*
X41130Y44855D01*
X41268Y45095D01*
X41340Y45362D01*
Y45638D01*
X41268Y45905D01*
X41130Y46145D01*
X40935Y46340D01*
X40695Y46478D01*
X40428Y46550D01*
D02*
G37*
G36*
X37888D02*
X37612D01*
X37345Y46478D01*
X37105Y46340D01*
X36910Y46145D01*
X36772Y45905D01*
X36700Y45638D01*
Y45362D01*
X36772Y45095D01*
X36910Y44855D01*
X37105Y44660D01*
X37345Y44522D01*
X37612Y44450D01*
X37888D01*
X38155Y44522D01*
X38395Y44660D01*
X38590Y44855D01*
X38728Y45095D01*
X38800Y45362D01*
Y45638D01*
X38728Y45905D01*
X38590Y46145D01*
X38395Y46340D01*
X38155Y46478D01*
X37888Y46550D01*
D02*
G37*
G36*
X10836Y41650D02*
X10664D01*
X10499Y41606D01*
X10351Y41520D01*
X10230Y41399D01*
X10144Y41251D01*
X10100Y41086D01*
Y40914D01*
X10144Y40749D01*
X10230Y40601D01*
X10351Y40480D01*
X10499Y40394D01*
X10664Y40350D01*
X10836D01*
X11001Y40394D01*
X11149Y40480D01*
X11270Y40601D01*
X11356Y40749D01*
X11400Y40914D01*
Y41086D01*
X11356Y41251D01*
X11270Y41399D01*
X11149Y41520D01*
X11001Y41606D01*
X10836Y41650D01*
D02*
G37*
G36*
X23030Y42192D02*
X22750D01*
X22480Y42120D01*
X22238Y41980D01*
X22040Y41782D01*
X21900Y41540D01*
X21828Y41270D01*
Y40990D01*
X21900Y40720D01*
X22040Y40478D01*
X22238Y40280D01*
X22480Y40140D01*
X22750Y40068D01*
X23030D01*
X23300Y40140D01*
X23542Y40280D01*
X23740Y40478D01*
X23880Y40720D01*
X23952Y40990D01*
Y41270D01*
X23880Y41540D01*
X23740Y41782D01*
X23542Y41980D01*
X23300Y42120D01*
X23030Y42192D01*
D02*
G37*
G36*
X5250D02*
X4970D01*
X4700Y42120D01*
X4458Y41980D01*
X4260Y41782D01*
X4120Y41540D01*
X4048Y41270D01*
Y40990D01*
X4120Y40720D01*
X4260Y40478D01*
X4458Y40280D01*
X4700Y40140D01*
X4970Y40068D01*
X5250D01*
X5520Y40140D01*
X5762Y40280D01*
X5960Y40478D01*
X6100Y40720D01*
X6172Y40990D01*
Y41270D01*
X6100Y41540D01*
X5960Y41782D01*
X5762Y41980D01*
X5520Y42120D01*
X5250Y42192D01*
D02*
G37*
G36*
X10836Y39150D02*
X10664D01*
X10499Y39106D01*
X10351Y39020D01*
X10230Y38899D01*
X10144Y38751D01*
X10100Y38586D01*
Y38414D01*
X10144Y38249D01*
X10230Y38101D01*
X10351Y37980D01*
X10499Y37894D01*
X10664Y37850D01*
X10836D01*
X11001Y37894D01*
X11149Y37980D01*
X11270Y38101D01*
X11356Y38249D01*
X11400Y38414D01*
Y38586D01*
X11356Y38751D01*
X11270Y38899D01*
X11149Y39020D01*
X11001Y39106D01*
X10836Y39150D01*
D02*
G37*
G36*
X53388Y39800D02*
X53112D01*
X52845Y39728D01*
X52605Y39590D01*
X52410Y39395D01*
X52272Y39155D01*
X52200Y38888D01*
Y38612D01*
X52272Y38345D01*
X52410Y38105D01*
X52605Y37910D01*
X52845Y37772D01*
X53112Y37700D01*
X53388D01*
X53655Y37772D01*
X53895Y37910D01*
X54090Y38105D01*
X54228Y38345D01*
X54300Y38612D01*
Y38888D01*
X54228Y39155D01*
X54090Y39395D01*
X53895Y39590D01*
X53655Y39728D01*
X53388Y39800D01*
D02*
G37*
G36*
X46888D02*
X46612D01*
X46345Y39728D01*
X46105Y39590D01*
X45910Y39395D01*
X45772Y39155D01*
X45700Y38888D01*
Y38612D01*
X45772Y38345D01*
X45910Y38105D01*
X46105Y37910D01*
X46345Y37772D01*
X46612Y37700D01*
X46888D01*
X47155Y37772D01*
X47395Y37910D01*
X47590Y38105D01*
X47728Y38345D01*
X47800Y38612D01*
Y38888D01*
X47728Y39155D01*
X47590Y39395D01*
X47395Y39590D01*
X47155Y39728D01*
X46888Y39800D01*
D02*
G37*
G36*
X44388D02*
X44112D01*
X43845Y39728D01*
X43605Y39590D01*
X43410Y39395D01*
X43272Y39155D01*
X43200Y38888D01*
Y38612D01*
X43272Y38345D01*
X43410Y38105D01*
X43605Y37910D01*
X43845Y37772D01*
X44112Y37700D01*
X44388D01*
X44655Y37772D01*
X44895Y37910D01*
X45090Y38105D01*
X45228Y38345D01*
X45300Y38612D01*
Y38888D01*
X45228Y39155D01*
X45090Y39395D01*
X44895Y39590D01*
X44655Y39728D01*
X44388Y39800D01*
D02*
G37*
G36*
X37888D02*
X37612D01*
X37345Y39728D01*
X37105Y39590D01*
X36910Y39395D01*
X36772Y39155D01*
X36700Y38888D01*
Y38612D01*
X36772Y38345D01*
X36910Y38105D01*
X37105Y37910D01*
X37345Y37772D01*
X37612Y37700D01*
X37888D01*
X38155Y37772D01*
X38395Y37910D01*
X38590Y38105D01*
X38728Y38345D01*
X38800Y38612D01*
Y38888D01*
X38728Y39155D01*
X38590Y39395D01*
X38395Y39590D01*
X38155Y39728D01*
X37888Y39800D01*
D02*
G37*
G36*
X23030Y39652D02*
X22750D01*
X22480Y39580D01*
X22238Y39440D01*
X22040Y39242D01*
X21900Y39000D01*
X21828Y38730D01*
Y38450D01*
X21900Y38180D01*
X22040Y37938D01*
X22238Y37740D01*
X22480Y37600D01*
X22750Y37528D01*
X23030D01*
X23300Y37600D01*
X23542Y37740D01*
X23740Y37938D01*
X23880Y38180D01*
X23952Y38450D01*
Y38730D01*
X23880Y39000D01*
X23740Y39242D01*
X23542Y39440D01*
X23300Y39580D01*
X23030Y39652D01*
D02*
G37*
G36*
X5250D02*
X4970D01*
X4700Y39580D01*
X4458Y39440D01*
X4260Y39242D01*
X4120Y39000D01*
X4048Y38730D01*
Y38450D01*
X4120Y38180D01*
X4260Y37938D01*
X4458Y37740D01*
X4700Y37600D01*
X4970Y37528D01*
X5250D01*
X5520Y37600D01*
X5762Y37740D01*
X5960Y37938D01*
X6100Y38180D01*
X6172Y38450D01*
Y38730D01*
X6100Y39000D01*
X5960Y39242D01*
X5762Y39440D01*
X5520Y39580D01*
X5250Y39652D01*
D02*
G37*
G36*
X53388Y35300D02*
X53112D01*
X52845Y35228D01*
X52605Y35090D01*
X52410Y34895D01*
X52272Y34655D01*
X52200Y34388D01*
Y34112D01*
X52272Y33845D01*
X52410Y33605D01*
X52605Y33410D01*
X52845Y33272D01*
X53112Y33200D01*
X53388D01*
X53655Y33272D01*
X53895Y33410D01*
X54090Y33605D01*
X54228Y33845D01*
X54300Y34112D01*
Y34388D01*
X54228Y34655D01*
X54090Y34895D01*
X53895Y35090D01*
X53655Y35228D01*
X53388Y35300D01*
D02*
G37*
G36*
X44388D02*
X44112D01*
X43845Y35228D01*
X43605Y35090D01*
X43410Y34895D01*
X43272Y34655D01*
X43200Y34388D01*
Y34112D01*
X43272Y33845D01*
X43410Y33605D01*
X43605Y33410D01*
X43845Y33272D01*
X44112Y33200D01*
X44388D01*
X44655Y33272D01*
X44895Y33410D01*
X45090Y33605D01*
X45228Y33845D01*
X45300Y34112D01*
Y34388D01*
X45228Y34655D01*
X45090Y34895D01*
X44895Y35090D01*
X44655Y35228D01*
X44388Y35300D01*
D02*
G37*
G36*
X23263Y34409D02*
X22362D01*
X22075Y34372D01*
X21808Y34261D01*
X21578Y34085D01*
X21402Y33855D01*
X21291Y33587D01*
X21253Y33300D01*
X21291Y33013D01*
X21402Y32745D01*
X21578Y32515D01*
X21581Y32514D01*
X21581Y32387D01*
X21578Y32385D01*
X21402Y32155D01*
X21291Y31887D01*
X21253Y31600D01*
X21291Y31313D01*
X21402Y31045D01*
X21578Y30815D01*
X21808Y30639D01*
X22075Y30528D01*
X22362Y30491D01*
X23263D01*
X23550Y30528D01*
X23817Y30639D01*
X24047Y30815D01*
X24223Y31045D01*
X24334Y31313D01*
X24372Y31600D01*
X24334Y31887D01*
X24223Y32155D01*
X24047Y32385D01*
X24044Y32387D01*
X24044Y32514D01*
X24047Y32515D01*
X24223Y32745D01*
X24334Y33013D01*
X24372Y33300D01*
X24334Y33587D01*
X24223Y33855D01*
X24047Y34085D01*
X23817Y34261D01*
X23550Y34372D01*
X23263Y34409D01*
D02*
G37*
G36*
X55140Y32042D02*
X54860D01*
X54590Y31970D01*
X54348Y31830D01*
X54150Y31632D01*
X54010Y31390D01*
X53938Y31120D01*
Y30840D01*
X54010Y30570D01*
X54150Y30328D01*
X54348Y30130D01*
X54590Y29990D01*
X54860Y29918D01*
X55140D01*
X55410Y29990D01*
X55652Y30130D01*
X55850Y30328D01*
X55990Y30570D01*
X56062Y30840D01*
Y31120D01*
X55990Y31390D01*
X55850Y31632D01*
X55652Y31830D01*
X55410Y31970D01*
X55140Y32042D01*
D02*
G37*
G36*
X50060D02*
X49780D01*
X49510Y31970D01*
X49268Y31830D01*
X49070Y31632D01*
X48930Y31390D01*
X48858Y31120D01*
Y30840D01*
X48930Y30570D01*
X49070Y30328D01*
X49268Y30130D01*
X49510Y29990D01*
X49780Y29918D01*
X50060D01*
X50330Y29990D01*
X50572Y30130D01*
X50770Y30328D01*
X50910Y30570D01*
X50982Y30840D01*
Y31120D01*
X50910Y31390D01*
X50770Y31632D01*
X50572Y31830D01*
X50330Y31970D01*
X50060Y32042D01*
D02*
G37*
G36*
X47520D02*
X47240D01*
X46970Y31970D01*
X46728Y31830D01*
X46530Y31632D01*
X46390Y31390D01*
X46318Y31120D01*
Y30840D01*
X46390Y30570D01*
X46530Y30328D01*
X46728Y30130D01*
X46970Y29990D01*
X47240Y29918D01*
X47520D01*
X47790Y29990D01*
X48032Y30130D01*
X48230Y30328D01*
X48370Y30570D01*
X48442Y30840D01*
Y31120D01*
X48370Y31390D01*
X48230Y31632D01*
X48032Y31830D01*
X47790Y31970D01*
X47520Y32042D01*
D02*
G37*
G36*
X44980D02*
X44700D01*
X44430Y31970D01*
X44188Y31830D01*
X43990Y31632D01*
X43850Y31390D01*
X43778Y31120D01*
Y30840D01*
X43850Y30570D01*
X43990Y30328D01*
X44188Y30130D01*
X44430Y29990D01*
X44700Y29918D01*
X44980D01*
X45250Y29990D01*
X45492Y30130D01*
X45690Y30328D01*
X45830Y30570D01*
X45902Y30840D01*
Y31120D01*
X45830Y31390D01*
X45690Y31632D01*
X45492Y31830D01*
X45250Y31970D01*
X44980Y32042D01*
D02*
G37*
G36*
X42440D02*
X42160D01*
X41890Y31970D01*
X41648Y31830D01*
X41450Y31632D01*
X41310Y31390D01*
X41238Y31120D01*
Y30840D01*
X41310Y30570D01*
X41450Y30328D01*
X41648Y30130D01*
X41890Y29990D01*
X42160Y29918D01*
X42440D01*
X42710Y29990D01*
X42952Y30130D01*
X43150Y30328D01*
X43290Y30570D01*
X43362Y30840D01*
Y31120D01*
X43290Y31390D01*
X43150Y31632D01*
X42952Y31830D01*
X42710Y31970D01*
X42440Y32042D01*
D02*
G37*
G36*
X39900D02*
X39620D01*
X39350Y31970D01*
X39108Y31830D01*
X38910Y31632D01*
X38770Y31390D01*
X38698Y31120D01*
Y30840D01*
X38770Y30570D01*
X38910Y30328D01*
X39108Y30130D01*
X39350Y29990D01*
X39620Y29918D01*
X39900D01*
X40170Y29990D01*
X40412Y30130D01*
X40610Y30328D01*
X40750Y30570D01*
X40822Y30840D01*
Y31120D01*
X40750Y31390D01*
X40610Y31632D01*
X40412Y31830D01*
X40170Y31970D01*
X39900Y32042D01*
D02*
G37*
G36*
X37360D02*
X37080D01*
X36810Y31970D01*
X36568Y31830D01*
X36370Y31632D01*
X36230Y31390D01*
X36158Y31120D01*
Y30840D01*
X36230Y30570D01*
X36370Y30328D01*
X36568Y30130D01*
X36810Y29990D01*
X37080Y29918D01*
X37360D01*
X37630Y29990D01*
X37872Y30130D01*
X38070Y30328D01*
X38210Y30570D01*
X38282Y30840D01*
Y31120D01*
X38210Y31390D01*
X38070Y31632D01*
X37872Y31830D01*
X37630Y31970D01*
X37360Y32042D01*
D02*
G37*
G36*
X5658Y32700D02*
X5217D01*
X4782Y32631D01*
X4363Y32495D01*
X3970Y32295D01*
X3613Y32036D01*
X3302Y31724D01*
X3043Y31368D01*
X2843Y30975D01*
X2706Y30556D01*
X2638Y30120D01*
Y29680D01*
X2706Y29244D01*
X2843Y28825D01*
X3043Y28432D01*
X3302Y28076D01*
X3613Y27764D01*
X3970Y27505D01*
X4363Y27305D01*
X4782Y27169D01*
X5217Y27100D01*
X5658D01*
X6093Y27169D01*
X6512Y27305D01*
X6905Y27505D01*
X7262Y27764D01*
X7573Y28076D01*
X7832Y28432D01*
X8032Y28825D01*
X8169Y29244D01*
X8238Y29680D01*
Y30120D01*
X8169Y30556D01*
X8032Y30975D01*
X7832Y31368D01*
X7573Y31724D01*
X7262Y32036D01*
X6905Y32295D01*
X6512Y32495D01*
X6093Y32631D01*
X5658Y32700D01*
D02*
G37*
G36*
X16523Y27150D02*
X16352D01*
X16187Y27106D01*
X16038Y27020D01*
X15917Y26899D01*
X15832Y26751D01*
X15788Y26586D01*
Y26414D01*
X15832Y26249D01*
X15917Y26101D01*
X16038Y25980D01*
X16187Y25894D01*
X16352Y25850D01*
X16523D01*
X16688Y25894D01*
X16837Y25980D01*
X16958Y26101D01*
X17043Y26249D01*
X17087Y26414D01*
Y26586D01*
X17043Y26751D01*
X16958Y26899D01*
X16837Y27020D01*
X16688Y27106D01*
X16523Y27150D01*
D02*
G37*
G36*
X23263Y29309D02*
X22362D01*
X22075Y29272D01*
X21808Y29161D01*
X21578Y28985D01*
X21402Y28755D01*
X21291Y28487D01*
X21253Y28200D01*
X21291Y27913D01*
X21402Y27645D01*
X21578Y27415D01*
X21581Y27413D01*
X21581Y27287D01*
X21578Y27285D01*
X21402Y27055D01*
X21291Y26787D01*
X21253Y26500D01*
X21291Y26213D01*
X21402Y25945D01*
X21578Y25715D01*
X21808Y25539D01*
X22075Y25428D01*
X22362Y25391D01*
X23263D01*
X23550Y25428D01*
X23817Y25539D01*
X24047Y25715D01*
X24223Y25945D01*
X24334Y26213D01*
X24372Y26500D01*
X24334Y26787D01*
X24223Y27055D01*
X24047Y27285D01*
X24044Y27287D01*
X24044Y27413D01*
X24047Y27415D01*
X24223Y27645D01*
X24334Y27913D01*
X24372Y28200D01*
X24334Y28487D01*
X24223Y28755D01*
X24047Y28985D01*
X23817Y29161D01*
X23550Y29272D01*
X23263Y29309D01*
D02*
G37*
G36*
Y23009D02*
X22362D01*
X22075Y22972D01*
X21808Y22861D01*
X21578Y22685D01*
X21402Y22455D01*
X21291Y22187D01*
X21253Y21900D01*
X21291Y21613D01*
X21402Y21345D01*
X21578Y21115D01*
X21581Y21114D01*
X21581Y20986D01*
X21578Y20985D01*
X21402Y20755D01*
X21291Y20487D01*
X21253Y20200D01*
X21291Y19913D01*
X21402Y19645D01*
X21578Y19415D01*
X21808Y19239D01*
X22075Y19128D01*
X22362Y19091D01*
X23263D01*
X23550Y19128D01*
X23817Y19239D01*
X24047Y19415D01*
X24223Y19645D01*
X24334Y19913D01*
X24372Y20200D01*
X24334Y20487D01*
X24223Y20755D01*
X24047Y20985D01*
X24044Y20986D01*
X24044Y21114D01*
X24047Y21115D01*
X24223Y21345D01*
X24334Y21613D01*
X24372Y21900D01*
X24334Y22187D01*
X24223Y22455D01*
X24047Y22685D01*
X23817Y22861D01*
X23550Y22972D01*
X23263Y23009D01*
D02*
G37*
G36*
X5658Y21300D02*
X5217D01*
X4782Y21231D01*
X4363Y21095D01*
X3970Y20895D01*
X3613Y20636D01*
X3302Y20324D01*
X3043Y19968D01*
X2843Y19575D01*
X2706Y19156D01*
X2638Y18720D01*
Y18280D01*
X2706Y17844D01*
X2843Y17425D01*
X3043Y17032D01*
X3302Y16676D01*
X3613Y16364D01*
X3970Y16105D01*
X4363Y15905D01*
X4782Y15769D01*
X5217Y15700D01*
X5658D01*
X6093Y15769D01*
X6512Y15905D01*
X6905Y16105D01*
X7262Y16364D01*
X7573Y16676D01*
X7832Y17032D01*
X8032Y17425D01*
X8169Y17844D01*
X8238Y18280D01*
Y18720D01*
X8169Y19156D01*
X8032Y19575D01*
X7832Y19968D01*
X7573Y20324D01*
X7262Y20636D01*
X6905Y20895D01*
X6512Y21095D01*
X6093Y21231D01*
X5658Y21300D01*
D02*
G37*
G36*
X23263Y17909D02*
X22362D01*
X22075Y17872D01*
X21808Y17761D01*
X21578Y17585D01*
X21402Y17355D01*
X21291Y17087D01*
X21253Y16800D01*
X21291Y16513D01*
X21402Y16245D01*
X21578Y16015D01*
X21581Y16014D01*
X21581Y15887D01*
X21578Y15885D01*
X21402Y15655D01*
X21291Y15387D01*
X21253Y15100D01*
X21291Y14813D01*
X21402Y14545D01*
X21578Y14315D01*
X21808Y14139D01*
X22075Y14028D01*
X22362Y13991D01*
X23263D01*
X23550Y14028D01*
X23817Y14139D01*
X24047Y14315D01*
X24223Y14545D01*
X24334Y14813D01*
X24372Y15100D01*
X24334Y15387D01*
X24223Y15655D01*
X24047Y15885D01*
X24044Y15887D01*
X24044Y16014D01*
X24047Y16015D01*
X24223Y16245D01*
X24334Y16513D01*
X24372Y16800D01*
X24334Y17087D01*
X24223Y17355D01*
X24047Y17585D01*
X23817Y17761D01*
X23550Y17872D01*
X23263Y17909D01*
D02*
G37*
G36*
X55140Y14062D02*
X54860D01*
X54590Y13990D01*
X54348Y13850D01*
X54150Y13652D01*
X54010Y13410D01*
X53938Y13140D01*
Y12860D01*
X54010Y12590D01*
X54150Y12348D01*
X54348Y12150D01*
X54590Y12010D01*
X54860Y11938D01*
X55140D01*
X55410Y12010D01*
X55652Y12150D01*
X55850Y12348D01*
X55990Y12590D01*
X56062Y12860D01*
Y13140D01*
X55990Y13410D01*
X55850Y13652D01*
X55652Y13850D01*
X55410Y13990D01*
X55140Y14062D01*
D02*
G37*
G36*
X50060D02*
X49780D01*
X49510Y13990D01*
X49268Y13850D01*
X49070Y13652D01*
X48930Y13410D01*
X48858Y13140D01*
Y12860D01*
X48930Y12590D01*
X49070Y12348D01*
X49268Y12150D01*
X49510Y12010D01*
X49780Y11938D01*
X50060D01*
X50330Y12010D01*
X50572Y12150D01*
X50770Y12348D01*
X50910Y12590D01*
X50982Y12860D01*
Y13140D01*
X50910Y13410D01*
X50770Y13652D01*
X50572Y13850D01*
X50330Y13990D01*
X50060Y14062D01*
D02*
G37*
G36*
X47520D02*
X47240D01*
X46970Y13990D01*
X46728Y13850D01*
X46530Y13652D01*
X46390Y13410D01*
X46318Y13140D01*
Y12860D01*
X46390Y12590D01*
X46530Y12348D01*
X46728Y12150D01*
X46970Y12010D01*
X47240Y11938D01*
X47520D01*
X47790Y12010D01*
X48032Y12150D01*
X48230Y12348D01*
X48370Y12590D01*
X48442Y12860D01*
Y13140D01*
X48370Y13410D01*
X48230Y13652D01*
X48032Y13850D01*
X47790Y13990D01*
X47520Y14062D01*
D02*
G37*
G36*
X44980D02*
X44700D01*
X44430Y13990D01*
X44188Y13850D01*
X43990Y13652D01*
X43850Y13410D01*
X43778Y13140D01*
Y12860D01*
X43850Y12590D01*
X43990Y12348D01*
X44188Y12150D01*
X44430Y12010D01*
X44700Y11938D01*
X44980D01*
X45250Y12010D01*
X45492Y12150D01*
X45690Y12348D01*
X45830Y12590D01*
X45902Y12860D01*
Y13140D01*
X45830Y13410D01*
X45690Y13652D01*
X45492Y13850D01*
X45250Y13990D01*
X44980Y14062D01*
D02*
G37*
G36*
X42440D02*
X42160D01*
X41890Y13990D01*
X41648Y13850D01*
X41450Y13652D01*
X41310Y13410D01*
X41238Y13140D01*
Y12860D01*
X41310Y12590D01*
X41450Y12348D01*
X41648Y12150D01*
X41890Y12010D01*
X42160Y11938D01*
X42440D01*
X42710Y12010D01*
X42952Y12150D01*
X43150Y12348D01*
X43290Y12590D01*
X43362Y12860D01*
Y13140D01*
X43290Y13410D01*
X43150Y13652D01*
X42952Y13850D01*
X42710Y13990D01*
X42440Y14062D01*
D02*
G37*
G36*
X39900D02*
X39620D01*
X39350Y13990D01*
X39108Y13850D01*
X38910Y13652D01*
X38770Y13410D01*
X38698Y13140D01*
Y12860D01*
X38770Y12590D01*
X38910Y12348D01*
X39108Y12150D01*
X39350Y12010D01*
X39620Y11938D01*
X39900D01*
X40170Y12010D01*
X40412Y12150D01*
X40610Y12348D01*
X40750Y12590D01*
X40822Y12860D01*
Y13140D01*
X40750Y13410D01*
X40610Y13652D01*
X40412Y13850D01*
X40170Y13990D01*
X39900Y14062D01*
D02*
G37*
G36*
X37360D02*
X37080D01*
X36810Y13990D01*
X36568Y13850D01*
X36370Y13652D01*
X36230Y13410D01*
X36158Y13140D01*
Y12860D01*
X36230Y12590D01*
X36370Y12348D01*
X36568Y12150D01*
X36810Y12010D01*
X37080Y11938D01*
X37360D01*
X37630Y12010D01*
X37872Y12150D01*
X38070Y12348D01*
X38210Y12590D01*
X38282Y12860D01*
Y13140D01*
X38210Y13410D01*
X38070Y13652D01*
X37872Y13850D01*
X37630Y13990D01*
X37360Y14062D01*
D02*
G37*
G36*
X38336Y9400D02*
X38164D01*
X37999Y9356D01*
X37851Y9270D01*
X37730Y9149D01*
X37644Y9001D01*
X37600Y8836D01*
Y8664D01*
X37644Y8499D01*
X37730Y8351D01*
X37851Y8230D01*
X37999Y8144D01*
X38164Y8100D01*
X38336D01*
X38501Y8144D01*
X38649Y8230D01*
X38770Y8351D01*
X38856Y8499D01*
X38900Y8664D01*
Y8836D01*
X38856Y9001D01*
X38770Y9149D01*
X38649Y9270D01*
X38501Y9356D01*
X38336Y9400D01*
D02*
G37*
G36*
X14177Y10800D02*
X13823D01*
X13475Y10731D01*
X13147Y10595D01*
X12853Y10398D01*
X12602Y10147D01*
X12405Y9853D01*
X12269Y9525D01*
X12200Y9177D01*
Y8823D01*
X12269Y8475D01*
X12405Y8147D01*
X12602Y7853D01*
X12853Y7602D01*
X13147Y7405D01*
X13475Y7269D01*
X13823Y7200D01*
X14177D01*
X14525Y7269D01*
X14853Y7405D01*
X15147Y7602D01*
X15398Y7853D01*
X15595Y8147D01*
X15731Y8475D01*
X15800Y8823D01*
Y9177D01*
X15731Y9525D01*
X15595Y9853D01*
X15398Y10147D01*
X15147Y10398D01*
X14853Y10595D01*
X14525Y10731D01*
X14177Y10800D01*
D02*
G37*
G36*
X35233Y5850D02*
X34927D01*
X34628Y5791D01*
X34346Y5674D01*
X34092Y5504D01*
X33876Y5288D01*
X33706Y5034D01*
X33589Y4752D01*
X33530Y4453D01*
Y4148D01*
X33589Y3848D01*
X33706Y3566D01*
X33876Y3312D01*
X34092Y3096D01*
X34346Y2927D01*
X34628Y2810D01*
X34927Y2750D01*
X35233D01*
X35532Y2810D01*
X35814Y2927D01*
X36068Y3096D01*
X36284Y3312D01*
X36453Y3566D01*
X36570Y3848D01*
X36630Y4148D01*
Y4453D01*
X36570Y4752D01*
X36453Y5034D01*
X36284Y5288D01*
X36068Y5504D01*
X35814Y5674D01*
X35532Y5791D01*
X35233Y5850D01*
D02*
G37*
G36*
X30153D02*
X29847D01*
X29548Y5791D01*
X29266Y5674D01*
X29012Y5504D01*
X28796Y5288D01*
X28626Y5034D01*
X28509Y4752D01*
X28450Y4453D01*
Y4148D01*
X28509Y3848D01*
X28626Y3566D01*
X28796Y3312D01*
X29012Y3096D01*
X29266Y2927D01*
X29548Y2810D01*
X29847Y2750D01*
X30153D01*
X30452Y2810D01*
X30734Y2927D01*
X30988Y3096D01*
X31204Y3312D01*
X31373Y3566D01*
X31490Y3848D01*
X31550Y4148D01*
Y4453D01*
X31490Y4752D01*
X31373Y5034D01*
X31204Y5288D01*
X30988Y5504D01*
X30734Y5674D01*
X30452Y5791D01*
X30153Y5850D01*
D02*
G37*
G36*
X47733Y5750D02*
X47427D01*
X47128Y5690D01*
X46846Y5574D01*
X46592Y5404D01*
X46376Y5188D01*
X46206Y4934D01*
X46090Y4652D01*
X46030Y4353D01*
Y4047D01*
X46090Y3748D01*
X46206Y3466D01*
X46376Y3212D01*
X46592Y2996D01*
X46846Y2826D01*
X47128Y2710D01*
X47427Y2650D01*
X47733D01*
X48032Y2710D01*
X48314Y2826D01*
X48568Y2996D01*
X48784Y3212D01*
X48954Y3466D01*
X49070Y3748D01*
X49130Y4047D01*
Y4353D01*
X49070Y4652D01*
X48954Y4934D01*
X48784Y5188D01*
X48568Y5404D01*
X48314Y5574D01*
X48032Y5690D01*
X47733Y5750D01*
D02*
G37*
G36*
X42653D02*
X42347D01*
X42048Y5690D01*
X41766Y5574D01*
X41512Y5404D01*
X41296Y5188D01*
X41126Y4934D01*
X41010Y4652D01*
X40950Y4353D01*
Y4047D01*
X41010Y3748D01*
X41126Y3466D01*
X41296Y3212D01*
X41512Y2996D01*
X41766Y2826D01*
X42048Y2710D01*
X42347Y2650D01*
X42653D01*
X42952Y2710D01*
X43234Y2826D01*
X43488Y2996D01*
X43704Y3212D01*
X43874Y3466D01*
X43990Y3748D01*
X44050Y4047D01*
Y4353D01*
X43990Y4652D01*
X43874Y4934D01*
X43704Y5188D01*
X43488Y5404D01*
X43234Y5574D01*
X42952Y5690D01*
X42653Y5750D01*
D02*
G37*
%LPD*%
D14*
X47580Y4200D02*
D03*
X42500D02*
D03*
X24920Y4300D02*
D03*
X30000D02*
D03*
X35080D02*
D03*
D15*
X5438Y18500D02*
D03*
Y29900D02*
D03*
D16*
X22812Y15100D02*
D03*
Y16800D02*
D03*
Y20200D02*
D03*
Y21900D02*
D03*
Y18500D02*
D03*
Y26500D02*
D03*
Y28200D02*
D03*
Y31600D02*
D03*
Y33300D02*
D03*
Y29900D02*
D03*
D17*
X52990Y45500D02*
D03*
X55530D02*
D03*
X47910Y45500D02*
D03*
X50450D02*
D03*
X42830D02*
D03*
X45370D02*
D03*
X37750D02*
D03*
X40290D02*
D03*
X47910Y48040D02*
D03*
X45370Y48040D02*
D03*
X42830Y48040D02*
D03*
X40290D02*
D03*
X37750D02*
D03*
X50450Y48040D02*
D03*
X55530D02*
D03*
X52990D02*
D03*
X51000Y68000D02*
D03*
X53250Y34250D02*
D03*
X46750D02*
D03*
X53250Y38750D02*
D03*
X46750D02*
D03*
X37750D02*
D03*
X44250D02*
D03*
X37750Y34250D02*
D03*
X44250D02*
D03*
X51000Y72250D02*
D03*
D18*
X14000Y3000D02*
D03*
Y9000D02*
D03*
X18700Y6000D02*
D03*
D19*
X37220Y30980D02*
D03*
X39760D02*
D03*
X42300D02*
D03*
X44840D02*
D03*
X47380D02*
D03*
X49920D02*
D03*
X52460D02*
D03*
X55000D02*
D03*
X37220Y13000D02*
D03*
X39760D02*
D03*
X42300D02*
D03*
X44840D02*
D03*
X47380D02*
D03*
X49920D02*
D03*
X52460D02*
D03*
X55000D02*
D03*
X22890Y38590D02*
D03*
Y41130D02*
D03*
Y43670D02*
D03*
Y46210D02*
D03*
Y48750D02*
D03*
Y51290D02*
D03*
Y53830D02*
D03*
Y56370D02*
D03*
Y58910D02*
D03*
Y61450D02*
D03*
Y63990D02*
D03*
Y66530D02*
D03*
Y69070D02*
D03*
Y71610D02*
D03*
Y74150D02*
D03*
Y76690D02*
D03*
Y79230D02*
D03*
Y81770D02*
D03*
Y84310D02*
D03*
Y86850D02*
D03*
X5110D02*
D03*
Y84310D02*
D03*
Y81770D02*
D03*
Y79230D02*
D03*
Y76690D02*
D03*
Y74150D02*
D03*
Y71610D02*
D03*
Y69070D02*
D03*
Y66530D02*
D03*
Y63990D02*
D03*
Y61450D02*
D03*
Y58910D02*
D03*
Y56370D02*
D03*
Y53830D02*
D03*
Y51290D02*
D03*
Y48750D02*
D03*
Y46210D02*
D03*
Y43670D02*
D03*
Y41130D02*
D03*
Y38590D02*
D03*
D20*
X4500Y94500D02*
D03*
X56000D02*
D03*
X4500Y4500D02*
D03*
X56000D02*
D03*
D21*
X53540Y68000D02*
D03*
Y72250D02*
D03*
D22*
X57200Y79460D02*
D03*
Y84540D02*
D03*
X44500Y77300D02*
D03*
Y82000D02*
D03*
Y86700D02*
D03*
D23*
X49000Y85500D02*
D03*
Y78500D02*
D03*
X43000Y65000D02*
D03*
X31150Y29350D02*
D03*
Y35350D02*
D03*
Y16950D02*
D03*
Y22950D02*
D03*
X28250Y64750D02*
D03*
X35000Y63250D02*
D03*
X36000Y55000D02*
D03*
X30000Y49000D02*
D03*
X32250Y46500D02*
D03*
X27750D02*
D03*
X33250Y51250D02*
D03*
X33500Y63250D02*
D03*
X29500D02*
D03*
X28500Y54000D02*
D03*
X10750Y41000D02*
D03*
Y38500D02*
D03*
X38250Y8750D02*
D03*
X37250Y17250D02*
D03*
X46750Y58000D02*
D03*
X54000Y59000D02*
D03*
X39500D02*
D03*
X43000Y55000D02*
D03*
Y56000D02*
D03*
X50500Y59000D02*
D03*
X43000D02*
D03*
Y57250D02*
D03*
X50500D02*
D03*
X16438Y26500D02*
D03*
X30000Y38000D02*
D03*
X34650Y39600D02*
D03*
%TF.MD5,5f810b14f8798ef32fb23e595b6392b7*%
M02*
