%TF.GenerationSoftware,Altium Limited,Altium Designer,25.2.1 (25)*%
G04 Layer_Color=128*
%FSLAX43Y43*%
%MOMM*%
%TF.SameCoordinates,F457C3C9-6880-4064-B818-50B76E06CF19*%
%TF.FilePolarity,Positive*%
%TF.FileFunction,Paste,Bot*%
%TF.Part,Single*%
G01*
G75*
%TA.AperFunction,SMDPad,CuDef*%
%ADD24R,0.650X0.700*%
%ADD25R,0.700X0.650*%
%ADD26R,2.800X1.600*%
%ADD27R,1.475X0.450*%
%ADD28R,3.200X1.250*%
%ADD29R,0.950X1.250*%
%ADD30R,0.600X1.250*%
D24*
X34925Y62250D02*
D03*
X33575D02*
D03*
X51575Y57250D02*
D03*
X52925D02*
D03*
X51575Y59000D02*
D03*
X52925D02*
D03*
X9675Y38590D02*
D03*
X8325D02*
D03*
X9675Y41130D02*
D03*
X8325D02*
D03*
X49175Y77300D02*
D03*
X47825D02*
D03*
X49175Y86700D02*
D03*
X47825D02*
D03*
X41925Y59000D02*
D03*
X40575D02*
D03*
X28075Y62250D02*
D03*
X29425D02*
D03*
X41925Y57250D02*
D03*
X40575D02*
D03*
X18325Y33000D02*
D03*
X19675D02*
D03*
X18325Y21500D02*
D03*
X19675D02*
D03*
X18325Y20000D02*
D03*
X19675D02*
D03*
X18325Y31500D02*
D03*
X19675D02*
D03*
Y17000D02*
D03*
X18325D02*
D03*
X19675Y18500D02*
D03*
X18325D02*
D03*
X19675Y28500D02*
D03*
X18325D02*
D03*
X19675Y30000D02*
D03*
X18325D02*
D03*
X29325Y48000D02*
D03*
X30675D02*
D03*
X27075Y38000D02*
D03*
X28425D02*
D03*
D25*
X30000Y8675D02*
D03*
Y7325D02*
D03*
X35080Y8675D02*
D03*
Y7325D02*
D03*
X37250Y14825D02*
D03*
Y16175D02*
D03*
D26*
X26850Y14600D02*
D03*
X31150D02*
D03*
X26850Y27000D02*
D03*
X31150D02*
D03*
X26850Y33000D02*
D03*
X31150D02*
D03*
Y20600D02*
D03*
X26850D02*
D03*
D27*
X28562Y60925D02*
D03*
Y60275D02*
D03*
Y59625D02*
D03*
Y58975D02*
D03*
Y58325D02*
D03*
Y57675D02*
D03*
Y57025D02*
D03*
Y56375D02*
D03*
Y55725D02*
D03*
Y55075D02*
D03*
X34438D02*
D03*
Y55725D02*
D03*
Y56375D02*
D03*
Y57025D02*
D03*
Y57675D02*
D03*
Y58325D02*
D03*
Y58975D02*
D03*
Y59625D02*
D03*
Y60275D02*
D03*
Y60925D02*
D03*
D28*
X30000Y46400D02*
D03*
D29*
X27700Y39600D02*
D03*
X30000D02*
D03*
X32300D02*
D03*
D30*
X47100Y72250D02*
D03*
X48900D02*
D03*
Y68000D02*
D03*
X47100D02*
D03*
%TF.MD5,28f9052aeddcbbb81b87f98edf4522fd*%
M02*
