%TF.GenerationSoftware,Altium Limited,Altium Designer,25.2.1 (25)*%
G04 Layer_Color=32768*
%FSLAX43Y43*%
%MOMM*%
%TF.SameCoordinates,F457C3C9-6880-4064-B818-50B76E06CF19*%
%TF.FilePolarity,Positive*%
%TF.FileFunction,Other,Mechanical_15*%
%TF.Part,Single*%
G01*
G75*
%TA.AperFunction,NonConductor*%
%ADD34C,0.200*%
%ADD60C,0.100*%
%ADD62C,0.050*%
D34*
X3000Y36720D02*
Y89720D01*
X25000Y36720D02*
Y89720D01*
X3000D02*
X25000D01*
X3000Y36720D02*
X25000D01*
D60*
X19000Y4000D02*
G03*
X19000Y8000I0J2000D01*
G01*
X2438Y13000D02*
X24062D01*
X2438Y24000D02*
X24062D01*
X2438Y13000D02*
Y24000D01*
X24062Y13000D02*
Y24000D01*
X2438Y24400D02*
X24062D01*
X2438Y35400D02*
X24062D01*
X2438Y24400D02*
Y35400D01*
X24062Y24400D02*
Y35400D01*
X36480Y49310D02*
X56800D01*
X36480Y44230D02*
Y49310D01*
X36480Y44230D02*
X56800D01*
X19000Y8000D02*
Y10800D01*
X9000D02*
X19000D01*
Y-4900D02*
Y4000D01*
X9000Y-4900D02*
X19000D01*
X9000D02*
Y10800D01*
X33025Y61650D02*
Y62850D01*
X35475D01*
Y61650D02*
Y62850D01*
X33025Y61650D02*
X35475D01*
X51025Y56650D02*
X53475D01*
Y57850D01*
X51025D02*
X53475D01*
X51025Y56650D02*
Y57850D01*
Y58400D02*
X53475D01*
Y59600D01*
X51025D02*
X53475D01*
X51025Y58400D02*
Y59600D01*
X29400Y6775D02*
Y9225D01*
Y6775D02*
X30600D01*
Y9225D01*
X29400D02*
X30600D01*
X34480Y6775D02*
Y9225D01*
Y6775D02*
X35680D01*
Y9225D01*
X34480D02*
X35680D01*
X7775Y39190D02*
X10225D01*
X7775Y37990D02*
Y39190D01*
Y37990D02*
X10225D01*
Y39190D01*
X7775Y41730D02*
X10225D01*
X7775Y40530D02*
Y41730D01*
Y40530D02*
X10225D01*
Y41730D01*
X47275Y77900D02*
X49725D01*
X47275Y76700D02*
Y77900D01*
Y76700D02*
X49725D01*
Y77900D01*
X47275Y87300D02*
X49725D01*
X47275Y86100D02*
Y87300D01*
Y86100D02*
X49725D01*
Y87300D01*
X40025Y58400D02*
Y59600D01*
X42475D01*
Y58400D02*
Y59600D01*
X40025Y58400D02*
X42475D01*
X29975Y61650D02*
Y62850D01*
X27525Y61650D02*
X29975D01*
X27525D02*
Y62850D01*
X29975D01*
X40025Y56650D02*
Y57850D01*
X42475D01*
Y56650D02*
Y57850D01*
X40025Y56650D02*
X42475D01*
X36650Y16725D02*
X37850D01*
Y14275D02*
Y16725D01*
X36650Y14275D02*
X37850D01*
X36650D02*
Y16725D01*
X17775Y32400D02*
X20225D01*
Y33600D01*
X17775D02*
X20225D01*
X17775Y32400D02*
Y33600D01*
Y20900D02*
X20225D01*
Y22100D01*
X17775D02*
X20225D01*
X17775Y20900D02*
Y22100D01*
Y19400D02*
X20225D01*
Y20600D01*
X17775D02*
X20225D01*
X17775Y19400D02*
Y20600D01*
Y30900D02*
X20225D01*
Y32100D01*
X17775D02*
X20225D01*
X17775Y30900D02*
Y32100D01*
Y16400D02*
Y17600D01*
X20225D01*
Y16400D02*
Y17600D01*
X17775Y16400D02*
X20225D01*
X17775Y17900D02*
Y19100D01*
X20225D01*
Y17900D02*
Y19100D01*
X17775Y17900D02*
X20225D01*
X17775Y27900D02*
Y29100D01*
X20225D01*
Y27900D02*
Y29100D01*
X17775Y27900D02*
X20225D01*
X17775Y29400D02*
Y30600D01*
X20225D01*
Y29400D02*
Y30600D01*
X17775Y29400D02*
X20225D01*
X31225Y47400D02*
Y48600D01*
X28775Y47400D02*
X31225D01*
X28775D02*
Y48600D01*
X31225D01*
X35425Y54450D02*
Y61550D01*
X27575Y54450D02*
X35425D01*
X27575D02*
Y61550D01*
X35425D01*
X28975Y37400D02*
Y38600D01*
X26525Y37400D02*
X28975D01*
X26525D02*
Y38600D01*
X28975D01*
X44250Y56500D02*
Y59500D01*
X49250Y56500D02*
Y59500D01*
X44250Y56500D02*
X49250D01*
X44250Y59500D02*
X49250D01*
X49450Y71350D02*
Y73150D01*
X46550Y71350D02*
Y73150D01*
X49450D01*
X46550Y71350D02*
X49450D01*
X42862Y75400D02*
X59000D01*
X42862D02*
Y88600D01*
X59000D01*
Y75400D02*
Y88600D01*
X46550Y67100D02*
X49450D01*
X46550Y68900D02*
X49450D01*
X46550Y67100D02*
Y68900D01*
X49450Y67100D02*
Y68900D01*
D62*
X25250Y11600D02*
X32750D01*
X25250Y17600D02*
X32750D01*
X25250Y11600D02*
Y17600D01*
X32750Y11600D02*
Y17600D01*
X26400Y38725D02*
X33600D01*
X26400D02*
Y47275D01*
X33600D01*
Y38725D02*
Y47275D01*
X25250Y24000D02*
X32750D01*
X25250Y30000D02*
X32750D01*
X25250Y24000D02*
Y30000D01*
X32750Y24000D02*
Y30000D01*
X25250Y30000D02*
X32750D01*
X25250Y36000D02*
X32750D01*
X25250Y30000D02*
Y36000D01*
X32750Y30000D02*
Y36000D01*
Y17600D02*
Y23600D01*
X25250Y17600D02*
Y23600D01*
X32750D01*
X25250Y17600D02*
X32750D01*
%TF.MD5,8697fc44497e1426e6b8df3a392a2baa*%
M02*
