M48
;Layer_Color=9474304
;FILE_FORMAT=4:3
METRIC,LZ
;TYPE=PLATED
T01F00S00C0.300
T02F00S00C0.762
T03F00S00C0.900
T04F00S00C1.000
T05F00S00C1.100
T06F00S00C1.300
T07F00S00C1.850
T08F00S00C1.900
T09F00S00C3.500
T10F00S00C3.750
%
T01
X003825Y000875
X003725Y001725
X003115Y001695
Y002295
Y002935
Y003535
X003Y0038
X003465Y00396
X003225Y00465
X002775
X003Y0049
X003325Y005125
X0016438Y00265
X001075Y00385
Y0041
X00285Y0054
X0036Y0055
X0043
Y0056
Y005725
Y0059
X00395
X004675Y0058
X00505Y005725
Y0059
X0043Y0065
X0035Y006325
X00335
X00295
X002825Y006475
X0049Y00785
Y00855
X0054Y0059
T02
X003722Y0013
X003976
X00423
X004484
X004738
X004992
X005246
X0055
Y003098
X005246
X004992
X004738
X004484
X00423
X003976
X003722
X002289Y003859
Y004113
Y004367
Y004621
Y004875
Y005129
Y005383
X000511
Y005129
Y004875
Y004621
Y004367
Y004113
Y003859
Y005637
Y005891
Y006145
Y006399
Y006653
Y006907
Y007161
Y007415
Y007669
Y007923
Y008177
Y008431
Y008685
X002289
Y008431
Y008177
Y007923
Y007669
Y007415
Y007161
Y006907
Y006653
Y006399
Y006145
Y005891
Y005637
T03
X005553Y00455
Y004804
X005299
Y00455
X005045Y00455
X005045Y004804
X004791Y004804
Y00455
X004537
X004283
X004029
X003775
Y004804
X004029
X004283
X004537Y004804
X0051Y0068
X005354
Y007225
X0051
T04
X003775Y003425
Y003875
X004425
X004675
Y003425
X004425
X005325
Y003875
T05
X0022812Y00151
Y00168
Y00185
Y00202
Y00219
Y00265
Y00282
Y00299
Y00316
Y00333
T06
X002492Y00043
X003
X003508
X00425Y00042
X004758
T07
X00445Y00773
Y0082
Y00867
X00572Y008454
Y007946
T08
X0014Y0003
Y0009
X00187Y0006
T09
X00045Y00045
X0056
Y00945
X00045
T10
X0005438Y00185
Y00299
M30
