%TF.GenerationSoftware,Altium Limited,Altium Designer,25.2.1 (25)*%
G04 Layer_Color=2752767*
%FSLAX43Y43*%
%MOMM*%
%TF.SameCoordinates,F457C3C9-6880-4064-B818-50B76E06CF19*%
%TF.FilePolarity,Positive*%
%TF.FileFunction,Drawing*%
%TF.Part,Single*%
G01*
G75*
%TA.AperFunction,NonConductor*%
%ADD61C,0.127*%
%ADD78C,0.169*%
%ADD79C,0.102*%
D61*
X47072Y3692D02*
Y4708D01*
X48088D01*
Y3692D01*
X47072D01*
X47275Y3895D02*
Y4505D01*
X47885D01*
Y3895D01*
X47275D01*
X41992Y3692D02*
Y4708D01*
X43008D01*
Y3692D01*
X41992D01*
X42195Y3895D02*
Y4505D01*
X42805D01*
Y3895D01*
X42195D01*
X24412Y3792D02*
Y4808D01*
X25428D01*
Y3792D01*
X24412D01*
X24615Y3995D02*
Y4605D01*
X25225D01*
Y3995D01*
X24615D01*
X29492Y3792D02*
Y4808D01*
X30508D01*
Y3792D01*
X29492D01*
X29695Y3995D02*
Y4605D01*
X30305D01*
Y3995D01*
X29695D01*
X34572Y3792D02*
Y4808D01*
X35588D01*
Y3792D01*
X34572D01*
X34775Y3995D02*
Y4605D01*
X35385D01*
Y3995D01*
X34775D01*
X4930Y17992D02*
Y19008D01*
X5945D01*
Y17992D01*
X4930D01*
Y29392D02*
Y30408D01*
X5945D01*
Y29392D01*
X4930D01*
X52482Y44992D02*
X52736D01*
X52990Y45246D01*
X53244Y44992D01*
X53498D01*
Y45246D01*
X53244Y45500D01*
X53498Y45754D01*
Y46008D01*
X53244D01*
X52990Y45754D01*
X52736Y46008D01*
X52482D01*
Y45754D01*
X52736Y45500D01*
X52482Y45246D01*
Y44992D01*
X55022D02*
X55276D01*
X55530Y45246D01*
X55784Y44992D01*
X56038D01*
Y45246D01*
X55784Y45500D01*
X56038Y45754D01*
Y46008D01*
X55784D01*
X55530Y45754D01*
X55276Y46008D01*
X55022D01*
Y45754D01*
X55276Y45500D01*
X55022Y45246D01*
Y44992D01*
X47402Y44992D02*
X47656D01*
X47910Y45246D01*
X48164Y44992D01*
X48418D01*
Y45246D01*
X48164Y45500D01*
X48418Y45754D01*
Y46008D01*
X48164D01*
X47910Y45754D01*
X47656Y46008D01*
X47402D01*
Y45754D01*
X47656Y45500D01*
X47402Y45246D01*
Y44992D01*
X49942D02*
X50196D01*
X50450Y45246D01*
X50704Y44992D01*
X50958D01*
Y45246D01*
X50704Y45500D01*
X50958Y45754D01*
Y46008D01*
X50704D01*
X50450Y45754D01*
X50196Y46008D01*
X49942D01*
Y45754D01*
X50196Y45500D01*
X49942Y45246D01*
Y44992D01*
X42322D02*
X42576D01*
X42830Y45246D01*
X43084Y44992D01*
X43338D01*
Y45246D01*
X43084Y45500D01*
X43338Y45754D01*
Y46008D01*
X43084D01*
X42830Y45754D01*
X42576Y46008D01*
X42322D01*
Y45754D01*
X42576Y45500D01*
X42322Y45246D01*
Y44992D01*
X44862D02*
X45116D01*
X45370Y45246D01*
X45624Y44992D01*
X45878D01*
Y45246D01*
X45624Y45500D01*
X45878Y45754D01*
Y46008D01*
X45624D01*
X45370Y45754D01*
X45116Y46008D01*
X44862D01*
Y45754D01*
X45116Y45500D01*
X44862Y45246D01*
Y44992D01*
X37242D02*
X37496D01*
X37750Y45246D01*
X38004Y44992D01*
X38258D01*
Y45246D01*
X38004Y45500D01*
X38258Y45754D01*
Y46008D01*
X38004D01*
X37750Y45754D01*
X37496Y46008D01*
X37242D01*
Y45754D01*
X37496Y45500D01*
X37242Y45246D01*
Y44992D01*
X39782D02*
X40036D01*
X40290Y45246D01*
X40544Y44992D01*
X40798D01*
Y45246D01*
X40544Y45500D01*
X40798Y45754D01*
Y46008D01*
X40544D01*
X40290Y45754D01*
X40036Y46008D01*
X39782D01*
Y45754D01*
X40036Y45500D01*
X39782Y45246D01*
Y44992D01*
X47402Y47532D02*
X47656D01*
X47910Y47786D01*
X48164Y47532D01*
X48418D01*
Y47786D01*
X48164Y48040D01*
X48418Y48294D01*
Y48548D01*
X48164D01*
X47910Y48294D01*
X47656Y48548D01*
X47402D01*
Y48294D01*
X47656Y48040D01*
X47402Y47786D01*
Y47532D01*
X44862Y47532D02*
X45116D01*
X45370Y47786D01*
X45624Y47532D01*
X45878D01*
Y47786D01*
X45624Y48040D01*
X45878Y48294D01*
Y48548D01*
X45624D01*
X45370Y48294D01*
X45116Y48548D01*
X44862D01*
Y48294D01*
X45116Y48040D01*
X44862Y47786D01*
Y47532D01*
X42322Y47532D02*
X42576D01*
X42830Y47786D01*
X43084Y47532D01*
X43338D01*
Y47786D01*
X43084Y48040D01*
X43338Y48294D01*
Y48548D01*
X43084D01*
X42830Y48294D01*
X42576Y48548D01*
X42322D01*
Y48294D01*
X42576Y48040D01*
X42322Y47786D01*
Y47532D01*
X39782D02*
X40036D01*
X40290Y47786D01*
X40544Y47532D01*
X40798D01*
Y47786D01*
X40544Y48040D01*
X40798Y48294D01*
Y48548D01*
X40544D01*
X40290Y48294D01*
X40036Y48548D01*
X39782D01*
Y48294D01*
X40036Y48040D01*
X39782Y47786D01*
Y47532D01*
X37242D02*
X37496D01*
X37750Y47786D01*
X38004Y47532D01*
X38258D01*
Y47786D01*
X38004Y48040D01*
X38258Y48294D01*
Y48548D01*
X38004D01*
X37750Y48294D01*
X37496Y48548D01*
X37242D01*
Y48294D01*
X37496Y48040D01*
X37242Y47786D01*
Y47532D01*
X49942Y47532D02*
X50196D01*
X50450Y47786D01*
X50704Y47532D01*
X50958D01*
Y47786D01*
X50704Y48040D01*
X50958Y48294D01*
Y48548D01*
X50704D01*
X50450Y48294D01*
X50196Y48548D01*
X49942D01*
Y48294D01*
X50196Y48040D01*
X49942Y47786D01*
Y47532D01*
X55022D02*
X55276D01*
X55530Y47786D01*
X55784Y47532D01*
X56038D01*
Y47786D01*
X55784Y48040D01*
X56038Y48294D01*
Y48548D01*
X55784D01*
X55530Y48294D01*
X55276Y48548D01*
X55022D01*
Y48294D01*
X55276Y48040D01*
X55022Y47786D01*
Y47532D01*
X52482D02*
X52736D01*
X52990Y47786D01*
X53244Y47532D01*
X53498D01*
Y47786D01*
X53244Y48040D01*
X53498Y48294D01*
Y48548D01*
X53244D01*
X52990Y48294D01*
X52736Y48548D01*
X52482D01*
Y48294D01*
X52736Y48040D01*
X52482Y47786D01*
Y47532D01*
X13492Y3000D02*
X14000Y3508D01*
X14508Y3000D01*
X14000Y2492D01*
X13492Y3000D01*
Y9000D02*
X14000Y9508D01*
X14508Y9000D01*
X14000Y8492D01*
X13492Y9000D01*
X18192Y6000D02*
X18700Y6508D01*
X19208Y6000D01*
X18700Y5492D01*
X18192Y6000D01*
X37220Y30472D02*
X36712Y31488D01*
X37728D01*
X37220Y30472D01*
X39760D02*
X39252Y31488D01*
X40268D01*
X39760Y30472D01*
X42300D02*
X41792Y31488D01*
X42808D01*
X42300Y30472D01*
X44840D02*
X44332Y31488D01*
X45348D01*
X44840Y30472D01*
X47380D02*
X46872Y31488D01*
X47888D01*
X47380Y30472D01*
X49920D02*
X49412Y31488D01*
X50428D01*
X49920Y30472D01*
X52460D02*
X51952Y31488D01*
X52968D01*
X52460Y30472D01*
X55000D02*
X54492Y31488D01*
X55508D01*
X55000Y30472D01*
X37220Y12492D02*
X36712Y13508D01*
X37728D01*
X37220Y12492D01*
X39760D02*
X39252Y13508D01*
X40268D01*
X39760Y12492D01*
X42300D02*
X41792Y13508D01*
X42808D01*
X42300Y12492D01*
X44840D02*
X44332Y13508D01*
X45348D01*
X44840Y12492D01*
X47380D02*
X46872Y13508D01*
X47888D01*
X47380Y12492D01*
X49920D02*
X49412Y13508D01*
X50428D01*
X49920Y12492D01*
X52460D02*
X51952Y13508D01*
X52968D01*
X52460Y12492D01*
X55000D02*
X54492Y13508D01*
X55508D01*
X55000Y12492D01*
X22890Y38082D02*
X22382Y39098D01*
X23398D01*
X22890Y38082D01*
Y40622D02*
X22382Y41638D01*
X23398D01*
X22890Y40622D01*
Y43162D02*
X22382Y44178D01*
X23398D01*
X22890Y43162D01*
Y45702D02*
X22382Y46718D01*
X23398D01*
X22890Y45702D01*
Y48242D02*
X22382Y49258D01*
X23398D01*
X22890Y48242D01*
Y50782D02*
X22382Y51798D01*
X23398D01*
X22890Y50782D01*
Y53322D02*
X22382Y54338D01*
X23398D01*
X22890Y53322D01*
Y55862D02*
X22382Y56878D01*
X23398D01*
X22890Y55862D01*
Y58402D02*
X22382Y59418D01*
X23398D01*
X22890Y58402D01*
Y60942D02*
X22382Y61958D01*
X23398D01*
X22890Y60942D01*
Y63482D02*
X22382Y64498D01*
X23398D01*
X22890Y63482D01*
Y66022D02*
X22382Y67038D01*
X23398D01*
X22890Y66022D01*
Y68562D02*
X22382Y69578D01*
X23398D01*
X22890Y68562D01*
Y71102D02*
X22382Y72118D01*
X23398D01*
X22890Y71102D01*
Y73642D02*
X22382Y74658D01*
X23398D01*
X22890Y73642D01*
Y76182D02*
X22382Y77198D01*
X23398D01*
X22890Y76182D01*
Y78722D02*
X22382Y79738D01*
X23398D01*
X22890Y78722D01*
Y81262D02*
X22382Y82278D01*
X23398D01*
X22890Y81262D01*
Y83802D02*
X22382Y84818D01*
X23398D01*
X22890Y83802D01*
Y86342D02*
X22382Y87358D01*
X23398D01*
X22890Y86342D01*
X5110D02*
X4602Y87358D01*
X5618D01*
X5110Y86342D01*
Y83802D02*
X4602Y84818D01*
X5618D01*
X5110Y83802D01*
Y81262D02*
X4602Y82278D01*
X5618D01*
X5110Y81262D01*
Y78722D02*
X4602Y79738D01*
X5618D01*
X5110Y78722D01*
Y76182D02*
X4602Y77198D01*
X5618D01*
X5110Y76182D01*
Y73642D02*
X4602Y74658D01*
X5618D01*
X5110Y73642D01*
Y71102D02*
X4602Y72118D01*
X5618D01*
X5110Y71102D01*
Y68562D02*
X4602Y69578D01*
X5618D01*
X5110Y68562D01*
Y66022D02*
X4602Y67038D01*
X5618D01*
X5110Y66022D01*
Y63482D02*
X4602Y64498D01*
X5618D01*
X5110Y63482D01*
Y60942D02*
X4602Y61958D01*
X5618D01*
X5110Y60942D01*
Y58402D02*
X4602Y59418D01*
X5618D01*
X5110Y58402D01*
Y55862D02*
X4602Y56878D01*
X5618D01*
X5110Y55862D01*
Y53322D02*
X4602Y54338D01*
X5618D01*
X5110Y53322D01*
Y50782D02*
X4602Y51798D01*
X5618D01*
X5110Y50782D01*
Y48242D02*
X4602Y49258D01*
X5618D01*
X5110Y48242D01*
Y45702D02*
X4602Y46718D01*
X5618D01*
X5110Y45702D01*
Y43162D02*
X4602Y44178D01*
X5618D01*
X5110Y43162D01*
Y40622D02*
X4602Y41638D01*
X5618D01*
X5110Y40622D01*
Y38082D02*
X4602Y39098D01*
X5618D01*
X5110Y38082D01*
X50492Y67492D02*
X50746D01*
X51000Y67746D01*
X51254Y67492D01*
X51508D01*
Y67746D01*
X51254Y68000D01*
X51508Y68254D01*
Y68508D01*
X51254D01*
X51000Y68254D01*
X50746Y68508D01*
X50492D01*
Y68254D01*
X50746Y68000D01*
X50492Y67746D01*
Y67492D01*
X53032D02*
X53286D01*
X53540Y67746D01*
X53794Y67492D01*
X54048D01*
Y67746D01*
X53794Y68000D01*
X54048Y68254D01*
Y68508D01*
X53794D01*
X53540Y68254D01*
X53286Y68508D01*
X53032D01*
Y68254D01*
X53286Y68000D01*
X53032Y67746D01*
Y67492D01*
X52742Y33742D02*
X52996Y34250D01*
X52742Y34758D01*
X53250Y34504D01*
X53758Y34758D01*
X53504Y34250D01*
X53758Y33742D01*
X53250Y33996D01*
X52742Y33742D01*
X46242D02*
X46496Y34250D01*
X46242Y34758D01*
X46750Y34504D01*
X47258Y34758D01*
X47004Y34250D01*
X47258Y33742D01*
X46750Y33996D01*
X46242Y33742D01*
X52742Y38242D02*
X52996Y38750D01*
X52742Y39258D01*
X53250Y39004D01*
X53758Y39258D01*
X53504Y38750D01*
X53758Y38242D01*
X53250Y38496D01*
X52742Y38242D01*
X46242D02*
X46496Y38750D01*
X46242Y39258D01*
X46750Y39004D01*
X47258Y39258D01*
X47004Y38750D01*
X47258Y38242D01*
X46750Y38496D01*
X46242Y38242D01*
X56946Y79206D02*
Y78952D01*
X57454D01*
Y79206D01*
X57708D01*
Y79714D01*
X57454D01*
Y79968D01*
X56946D01*
Y79714D01*
X56692D01*
Y79206D01*
X56946D01*
Y84286D02*
Y84032D01*
X57454D01*
Y84286D01*
X57708D01*
Y84794D01*
X57454D01*
Y85048D01*
X56946D01*
Y84794D01*
X56692D01*
Y84286D01*
X56946D01*
X44246Y77046D02*
Y76792D01*
X44754D01*
Y77046D01*
X45008D01*
Y77554D01*
X44754D01*
Y77808D01*
X44246D01*
Y77554D01*
X43992D01*
Y77046D01*
X44246D01*
Y81746D02*
Y81492D01*
X44754D01*
Y81746D01*
X45008D01*
Y82254D01*
X44754D01*
Y82508D01*
X44246D01*
Y82254D01*
X43992D01*
Y81746D01*
X44246D01*
Y86446D02*
Y86192D01*
X44754D01*
Y86446D01*
X45008D01*
Y86954D01*
X44754D01*
Y87208D01*
X44246D01*
Y86954D01*
X43992D01*
Y86446D01*
X44246D01*
X37242Y38242D02*
X37496Y38750D01*
X37242Y39258D01*
X37750Y39004D01*
X38258Y39258D01*
X38004Y38750D01*
X38258Y38242D01*
X37750Y38496D01*
X37242Y38242D01*
X43742D02*
X43996Y38750D01*
X43742Y39258D01*
X44250Y39004D01*
X44758Y39258D01*
X44504Y38750D01*
X44758Y38242D01*
X44250Y38496D01*
X43742Y38242D01*
X37242Y33742D02*
X37496Y34250D01*
X37242Y34758D01*
X37750Y34504D01*
X38258Y34758D01*
X38004Y34250D01*
X38258Y33742D01*
X37750Y33996D01*
X37242Y33742D01*
X43742D02*
X43996Y34250D01*
X43742Y34758D01*
X44250Y34504D01*
X44758Y34758D01*
X44504Y34250D01*
X44758Y33742D01*
X44250Y33996D01*
X43742Y33742D01*
X53032Y71742D02*
X53286D01*
X53540Y71996D01*
X53794Y71742D01*
X54048D01*
Y71996D01*
X53794Y72250D01*
X54048Y72504D01*
Y72758D01*
X53794D01*
X53540Y72504D01*
X53286Y72758D01*
X53032D01*
Y72504D01*
X53286Y72250D01*
X53032Y71996D01*
Y71742D01*
X50492D02*
X50746D01*
X51000Y71996D01*
X51254Y71742D01*
X51508D01*
Y71996D01*
X51254Y72250D01*
X51508Y72504D01*
Y72758D01*
X51254D01*
X51000Y72504D01*
X50746Y72758D01*
X50492D01*
Y72504D01*
X50746Y72250D01*
X50492Y71996D01*
Y71742D01*
X49000Y84992D02*
X49254Y85246D01*
X49508D01*
X49254Y85500D01*
X49508Y85754D01*
X49254D01*
X49000Y86008D01*
X48746Y85754D01*
X48492D01*
X48746Y85500D01*
X48492Y85246D01*
X48746D01*
X49000Y84992D01*
Y77992D02*
X49254Y78246D01*
X49508D01*
X49254Y78500D01*
X49508Y78754D01*
X49254D01*
X49000Y79008D01*
X48746Y78754D01*
X48492D01*
X48746Y78500D01*
X48492Y78246D01*
X48746D01*
X49000Y77992D01*
X43000Y64492D02*
X43254Y64746D01*
X43508D01*
X43254Y65000D01*
X43508Y65254D01*
X43254D01*
X43000Y65508D01*
X42746Y65254D01*
X42492D01*
X42746Y65000D01*
X42492Y64746D01*
X42746D01*
X43000Y64492D01*
X31150Y28842D02*
X31404Y29096D01*
X31658D01*
X31404Y29350D01*
X31658Y29604D01*
X31404D01*
X31150Y29858D01*
X30896Y29604D01*
X30642D01*
X30896Y29350D01*
X30642Y29096D01*
X30896D01*
X31150Y28842D01*
Y34842D02*
X31404Y35096D01*
X31658D01*
X31404Y35350D01*
X31658Y35604D01*
X31404D01*
X31150Y35858D01*
X30896Y35604D01*
X30642D01*
X30896Y35350D01*
X30642Y35096D01*
X30896D01*
X31150Y34842D01*
Y16442D02*
X31404Y16696D01*
X31658D01*
X31404Y16950D01*
X31658Y17204D01*
X31404D01*
X31150Y17458D01*
X30896Y17204D01*
X30642D01*
X30896Y16950D01*
X30642Y16696D01*
X30896D01*
X31150Y16442D01*
Y22442D02*
X31404Y22696D01*
X31658D01*
X31404Y22950D01*
X31658Y23204D01*
X31404D01*
X31150Y23458D01*
X30896Y23204D01*
X30642D01*
X30896Y22950D01*
X30642Y22696D01*
X30896D01*
X31150Y22442D01*
X28250Y64242D02*
X28504Y64496D01*
X28758D01*
X28504Y64750D01*
X28758Y65004D01*
X28504D01*
X28250Y65258D01*
X27996Y65004D01*
X27742D01*
X27996Y64750D01*
X27742Y64496D01*
X27996D01*
X28250Y64242D01*
X35000Y62742D02*
X35254Y62996D01*
X35508D01*
X35254Y63250D01*
X35508Y63504D01*
X35254D01*
X35000Y63758D01*
X34746Y63504D01*
X34492D01*
X34746Y63250D01*
X34492Y62996D01*
X34746D01*
X35000Y62742D01*
X36000Y54492D02*
X36254Y54746D01*
X36508D01*
X36254Y55000D01*
X36508Y55254D01*
X36254D01*
X36000Y55508D01*
X35746Y55254D01*
X35492D01*
X35746Y55000D01*
X35492Y54746D01*
X35746D01*
X36000Y54492D01*
X30000Y48492D02*
X30254Y48746D01*
X30508D01*
X30254Y49000D01*
X30508Y49254D01*
X30254D01*
X30000Y49508D01*
X29746Y49254D01*
X29492D01*
X29746Y49000D01*
X29492Y48746D01*
X29746D01*
X30000Y48492D01*
X32250Y45992D02*
X32504Y46246D01*
X32758D01*
X32504Y46500D01*
X32758Y46754D01*
X32504D01*
X32250Y47008D01*
X31996Y46754D01*
X31742D01*
X31996Y46500D01*
X31742Y46246D01*
X31996D01*
X32250Y45992D01*
X27750D02*
X28004Y46246D01*
X28258D01*
X28004Y46500D01*
X28258Y46754D01*
X28004D01*
X27750Y47008D01*
X27496Y46754D01*
X27242D01*
X27496Y46500D01*
X27242Y46246D01*
X27496D01*
X27750Y45992D01*
X33250Y50742D02*
X33504Y50996D01*
X33758D01*
X33504Y51250D01*
X33758Y51504D01*
X33504D01*
X33250Y51758D01*
X32996Y51504D01*
X32742D01*
X32996Y51250D01*
X32742Y50996D01*
X32996D01*
X33250Y50742D01*
X33500Y62742D02*
X33754Y62996D01*
X34008D01*
X33754Y63250D01*
X34008Y63504D01*
X33754D01*
X33500Y63758D01*
X33246Y63504D01*
X32992D01*
X33246Y63250D01*
X32992Y62996D01*
X33246D01*
X33500Y62742D01*
X29500D02*
X29754Y62996D01*
X30008D01*
X29754Y63250D01*
X30008Y63504D01*
X29754D01*
X29500Y63758D01*
X29246Y63504D01*
X28992D01*
X29246Y63250D01*
X28992Y62996D01*
X29246D01*
X29500Y62742D01*
X28500Y53492D02*
X28754Y53746D01*
X29008D01*
X28754Y54000D01*
X29008Y54254D01*
X28754D01*
X28500Y54508D01*
X28246Y54254D01*
X27992D01*
X28246Y54000D01*
X27992Y53746D01*
X28246D01*
X28500Y53492D01*
X10750Y40492D02*
X11004Y40746D01*
X11258D01*
X11004Y41000D01*
X11258Y41254D01*
X11004D01*
X10750Y41508D01*
X10496Y41254D01*
X10242D01*
X10496Y41000D01*
X10242Y40746D01*
X10496D01*
X10750Y40492D01*
Y37992D02*
X11004Y38246D01*
X11258D01*
X11004Y38500D01*
X11258Y38754D01*
X11004D01*
X10750Y39008D01*
X10496Y38754D01*
X10242D01*
X10496Y38500D01*
X10242Y38246D01*
X10496D01*
X10750Y37992D01*
X38250Y8242D02*
X38504Y8496D01*
X38758D01*
X38504Y8750D01*
X38758Y9004D01*
X38504D01*
X38250Y9258D01*
X37996Y9004D01*
X37742D01*
X37996Y8750D01*
X37742Y8496D01*
X37996D01*
X38250Y8242D01*
X37250Y16742D02*
X37504Y16996D01*
X37758D01*
X37504Y17250D01*
X37758Y17504D01*
X37504D01*
X37250Y17758D01*
X36996Y17504D01*
X36742D01*
X36996Y17250D01*
X36742Y16996D01*
X36996D01*
X37250Y16742D01*
X46750Y57492D02*
X47004Y57746D01*
X47258D01*
X47004Y58000D01*
X47258Y58254D01*
X47004D01*
X46750Y58508D01*
X46496Y58254D01*
X46242D01*
X46496Y58000D01*
X46242Y57746D01*
X46496D01*
X46750Y57492D01*
X54000Y58492D02*
X54254Y58746D01*
X54508D01*
X54254Y59000D01*
X54508Y59254D01*
X54254D01*
X54000Y59508D01*
X53746Y59254D01*
X53492D01*
X53746Y59000D01*
X53492Y58746D01*
X53746D01*
X54000Y58492D01*
X39500D02*
X39754Y58746D01*
X40008D01*
X39754Y59000D01*
X40008Y59254D01*
X39754D01*
X39500Y59508D01*
X39246Y59254D01*
X38992D01*
X39246Y59000D01*
X38992Y58746D01*
X39246D01*
X39500Y58492D01*
X43000Y54492D02*
X43254Y54746D01*
X43508D01*
X43254Y55000D01*
X43508Y55254D01*
X43254D01*
X43000Y55508D01*
X42746Y55254D01*
X42492D01*
X42746Y55000D01*
X42492Y54746D01*
X42746D01*
X43000Y54492D01*
Y55492D02*
X43254Y55746D01*
X43508D01*
X43254Y56000D01*
X43508Y56254D01*
X43254D01*
X43000Y56508D01*
X42746Y56254D01*
X42492D01*
X42746Y56000D01*
X42492Y55746D01*
X42746D01*
X43000Y55492D01*
X50500Y58492D02*
X50754Y58746D01*
X51008D01*
X50754Y59000D01*
X51008Y59254D01*
X50754D01*
X50500Y59508D01*
X50246Y59254D01*
X49992D01*
X50246Y59000D01*
X49992Y58746D01*
X50246D01*
X50500Y58492D01*
X43000D02*
X43254Y58746D01*
X43508D01*
X43254Y59000D01*
X43508Y59254D01*
X43254D01*
X43000Y59508D01*
X42746Y59254D01*
X42492D01*
X42746Y59000D01*
X42492Y58746D01*
X42746D01*
X43000Y58492D01*
Y56742D02*
X43254Y56996D01*
X43508D01*
X43254Y57250D01*
X43508Y57504D01*
X43254D01*
X43000Y57758D01*
X42746Y57504D01*
X42492D01*
X42746Y57250D01*
X42492Y56996D01*
X42746D01*
X43000Y56742D01*
X50500D02*
X50754Y56996D01*
X51008D01*
X50754Y57250D01*
X51008Y57504D01*
X50754D01*
X50500Y57758D01*
X50246Y57504D01*
X49992D01*
X50246Y57250D01*
X49992Y56996D01*
X50246D01*
X50500Y56742D01*
X16438Y25992D02*
X16691Y26246D01*
X16945D01*
X16691Y26500D01*
X16945Y26754D01*
X16691D01*
X16438Y27008D01*
X16184Y26754D01*
X15929D01*
X16184Y26500D01*
X15929Y26246D01*
X16184D01*
X16438Y25992D01*
X30000Y37492D02*
X30254Y37746D01*
X30508D01*
X30254Y38000D01*
X30508Y38254D01*
X30254D01*
X30000Y38508D01*
X29746Y38254D01*
X29492D01*
X29746Y38000D01*
X29492Y37746D01*
X29746D01*
X30000Y37492D01*
X34650Y39092D02*
X34904Y39346D01*
X35158D01*
X34904Y39600D01*
X35158Y39854D01*
X34904D01*
X34650Y40108D01*
X34396Y39854D01*
X34142D01*
X34396Y39600D01*
X34142Y39346D01*
X34396D01*
X34650Y39092D01*
D78*
X23320Y15100D02*
G03*
X23320Y15100I-508J0D01*
G01*
Y16800D02*
G03*
X23320Y16800I-508J0D01*
G01*
Y20200D02*
G03*
X23320Y20200I-508J0D01*
G01*
Y21900D02*
G03*
X23320Y21900I-508J0D01*
G01*
Y18500D02*
G03*
X23320Y18500I-508J0D01*
G01*
Y26500D02*
G03*
X23320Y26500I-508J0D01*
G01*
Y28200D02*
G03*
X23320Y28200I-508J0D01*
G01*
Y31600D02*
G03*
X23320Y31600I-508J0D01*
G01*
Y33300D02*
G03*
X23320Y33300I-508J0D01*
G01*
Y29900D02*
G03*
X23320Y29900I-508J0D01*
G01*
X5008Y94500D02*
G03*
X5008Y94500I-508J0D01*
G01*
X56508D02*
G03*
X56508Y94500I-508J0D01*
G01*
X5008Y4500D02*
G03*
X5008Y4500I-508J0D01*
G01*
X56508D02*
G03*
X56508Y4500I-508J0D01*
G01*
D79*
X4805Y94500D02*
G03*
X4805Y94500I-305J0D01*
G01*
X56305D02*
G03*
X56305Y94500I-305J0D01*
G01*
X4805Y4500D02*
G03*
X4805Y4500I-305J0D01*
G01*
X56305D02*
G03*
X56305Y4500I-305J0D01*
G01*
%TF.MD5,4b1b1603db8fe2a9a0d49b89af9c818e*%
M02*
