%TF.GenerationSoftware,Altium Limited,Altium Designer,25.2.1 (25)*%
G04 Layer_Color=128*
%FSLAX43Y43*%
%MOMM*%
%TF.SameCoordinates,F457C3C9-6880-4064-B818-50B76E06CF19*%
%TF.FilePolarity,Positive*%
%TF.FileFunction,Drillmap*%
%TF.Part,Single*%
G01*
G75*
%TA.AperFunction,NonConductor*%
%ADD61C,0.127*%
D61*
X46930Y4200D02*
X48230D01*
X47580Y3550D02*
Y4850D01*
X41850Y4200D02*
X43150D01*
X42500Y3550D02*
Y4850D01*
X24270Y4300D02*
X25570D01*
X24920Y3650D02*
Y4950D01*
X29350Y4300D02*
X30650D01*
X30000Y3650D02*
Y4950D01*
X34430Y4300D02*
X35730D01*
X35080Y3650D02*
Y4950D01*
X3562Y18500D02*
X7312D01*
X5438Y16625D02*
Y20375D01*
X22263Y15100D02*
X23362D01*
X22812Y14550D02*
Y15650D01*
X22263Y16800D02*
X23362D01*
X22812Y16250D02*
Y17350D01*
X22263Y20200D02*
X23362D01*
X22812Y19650D02*
Y20750D01*
X22263Y21900D02*
X23362D01*
X22812Y21350D02*
Y22450D01*
X22263Y18500D02*
X23362D01*
X22812Y17950D02*
Y19050D01*
X3562Y29900D02*
X7312D01*
X5438Y28025D02*
Y31775D01*
X22263Y26500D02*
X23362D01*
X22812Y25950D02*
Y27050D01*
X22263Y28200D02*
X23362D01*
X22812Y27650D02*
Y28750D01*
X22263Y31600D02*
X23362D01*
X22812Y31050D02*
Y32150D01*
X22263Y33300D02*
X23362D01*
X22812Y32750D02*
Y33850D01*
X22263Y29900D02*
X23362D01*
X22812Y29350D02*
Y30450D01*
X52540Y45500D02*
X53440D01*
X52990Y45050D02*
Y45950D01*
X55080Y45500D02*
X55980D01*
X55530Y45050D02*
Y45950D01*
X47460Y45500D02*
X48360D01*
X47910Y45050D02*
Y45950D01*
X50000Y45500D02*
X50900D01*
X50450Y45050D02*
Y45950D01*
X42380Y45500D02*
X43280D01*
X42830Y45050D02*
Y45950D01*
X44920Y45500D02*
X45820D01*
X45370Y45050D02*
Y45950D01*
X37300Y45500D02*
X38200D01*
X37750Y45050D02*
Y45950D01*
X39840Y45500D02*
X40740D01*
X40290Y45050D02*
Y45950D01*
X47460Y48040D02*
X48360D01*
X47910Y47590D02*
Y48490D01*
X44920Y48040D02*
X45820D01*
X45370Y47590D02*
Y48490D01*
X42380Y48040D02*
X43280D01*
X42830Y47590D02*
Y48490D01*
X39840Y48040D02*
X40740D01*
X40290Y47590D02*
Y48490D01*
X37300Y48040D02*
X38200D01*
X37750Y47590D02*
Y48490D01*
X50000Y48040D02*
X50900D01*
X50450Y47590D02*
Y48490D01*
X55080Y48040D02*
X55980D01*
X55530Y47590D02*
Y48490D01*
X52540Y48040D02*
X53440D01*
X52990Y47590D02*
Y48490D01*
X13050Y3000D02*
X14950D01*
X14000Y2050D02*
Y3950D01*
X13050Y9000D02*
X14950D01*
X14000Y8050D02*
Y9950D01*
X17750Y6000D02*
X19650D01*
X18700Y5050D02*
Y6950D01*
X36839Y30980D02*
X37601D01*
X37220Y30599D02*
Y31361D01*
X39379Y30980D02*
X40141D01*
X39760Y30599D02*
Y31361D01*
X41919Y30980D02*
X42681D01*
X42300Y30599D02*
Y31361D01*
X44459Y30980D02*
X45221D01*
X44840Y30599D02*
Y31361D01*
X46999Y30980D02*
X47761D01*
X47380Y30599D02*
Y31361D01*
X49539Y30980D02*
X50301D01*
X49920Y30599D02*
Y31361D01*
X52079Y30980D02*
X52841D01*
X52460Y30599D02*
Y31361D01*
X54619Y30980D02*
X55381D01*
X55000Y30599D02*
Y31361D01*
X36839Y13000D02*
X37601D01*
X37220Y12619D02*
Y13381D01*
X39379Y13000D02*
X40141D01*
X39760Y12619D02*
Y13381D01*
X41919Y13000D02*
X42681D01*
X42300Y12619D02*
Y13381D01*
X44459Y13000D02*
X45221D01*
X44840Y12619D02*
Y13381D01*
X46999Y13000D02*
X47761D01*
X47380Y12619D02*
Y13381D01*
X49539Y13000D02*
X50301D01*
X49920Y12619D02*
Y13381D01*
X52079Y13000D02*
X52841D01*
X52460Y12619D02*
Y13381D01*
X54619Y13000D02*
X55381D01*
X55000Y12619D02*
Y13381D01*
X2750Y94500D02*
X6250D01*
X4500Y92750D02*
Y96250D01*
X22509Y38590D02*
X23271D01*
X22890Y38209D02*
Y38971D01*
X22509Y41130D02*
X23271D01*
X22890Y40749D02*
Y41511D01*
X22509Y43670D02*
X23271D01*
X22890Y43289D02*
Y44051D01*
X22509Y46210D02*
X23271D01*
X22890Y45829D02*
Y46591D01*
X22509Y48750D02*
X23271D01*
X22890Y48369D02*
Y49131D01*
X22509Y51290D02*
X23271D01*
X22890Y50909D02*
Y51671D01*
X22509Y53830D02*
X23271D01*
X22890Y53449D02*
Y54211D01*
X22509Y56370D02*
X23271D01*
X22890Y55989D02*
Y56751D01*
X22509Y58910D02*
X23271D01*
X22890Y58529D02*
Y59291D01*
X22509Y61450D02*
X23271D01*
X22890Y61069D02*
Y61831D01*
X22509Y63990D02*
X23271D01*
X22890Y63609D02*
Y64371D01*
X22509Y66530D02*
X23271D01*
X22890Y66149D02*
Y66911D01*
X22509Y69070D02*
X23271D01*
X22890Y68689D02*
Y69451D01*
X22509Y71610D02*
X23271D01*
X22890Y71229D02*
Y71991D01*
X22509Y74150D02*
X23271D01*
X22890Y73769D02*
Y74531D01*
X22509Y76690D02*
X23271D01*
X22890Y76309D02*
Y77071D01*
X22509Y79230D02*
X23271D01*
X22890Y78849D02*
Y79611D01*
X22509Y81770D02*
X23271D01*
X22890Y81389D02*
Y82151D01*
X22509Y84310D02*
X23271D01*
X22890Y83929D02*
Y84691D01*
X22509Y86850D02*
X23271D01*
X22890Y86469D02*
Y87231D01*
X4729Y86850D02*
X5491D01*
X5110Y86469D02*
Y87231D01*
X4729Y84310D02*
X5491D01*
X5110Y83929D02*
Y84691D01*
X4729Y81770D02*
X5491D01*
X5110Y81389D02*
Y82151D01*
X4729Y79230D02*
X5491D01*
X5110Y78849D02*
Y79611D01*
X4729Y76690D02*
X5491D01*
X5110Y76309D02*
Y77071D01*
X4729Y74150D02*
X5491D01*
X5110Y73769D02*
Y74531D01*
X4729Y71610D02*
X5491D01*
X5110Y71229D02*
Y71991D01*
X4729Y69070D02*
X5491D01*
X5110Y68689D02*
Y69451D01*
X4729Y66530D02*
X5491D01*
X5110Y66149D02*
Y66911D01*
X4729Y63990D02*
X5491D01*
X5110Y63609D02*
Y64371D01*
X4729Y61450D02*
X5491D01*
X5110Y61069D02*
Y61831D01*
X4729Y58910D02*
X5491D01*
X5110Y58529D02*
Y59291D01*
X4729Y56370D02*
X5491D01*
X5110Y55989D02*
Y56751D01*
X4729Y53830D02*
X5491D01*
X5110Y53449D02*
Y54211D01*
X4729Y51290D02*
X5491D01*
X5110Y50909D02*
Y51671D01*
X4729Y48750D02*
X5491D01*
X5110Y48369D02*
Y49131D01*
X4729Y46210D02*
X5491D01*
X5110Y45829D02*
Y46591D01*
X4729Y43670D02*
X5491D01*
X5110Y43289D02*
Y44051D01*
X4729Y41130D02*
X5491D01*
X5110Y40749D02*
Y41511D01*
X4729Y38590D02*
X5491D01*
X5110Y38209D02*
Y38971D01*
X50550Y68000D02*
X51450D01*
X51000Y67550D02*
Y68450D01*
X53090Y68000D02*
X53990D01*
X53540Y67550D02*
Y68450D01*
X52750Y34250D02*
X53750D01*
X53250Y33750D02*
Y34750D01*
X46250Y34250D02*
X47250D01*
X46750Y33750D02*
Y34750D01*
X52750Y38750D02*
X53750D01*
X53250Y38250D02*
Y39250D01*
X46250Y38750D02*
X47250D01*
X46750Y38250D02*
Y39250D01*
X56275Y79460D02*
X58125D01*
X57200Y78535D02*
Y80385D01*
X56275Y84540D02*
X58125D01*
X57200Y83615D02*
Y85465D01*
X43575Y77300D02*
X45425D01*
X44500Y76375D02*
Y78225D01*
X43575Y82000D02*
X45425D01*
X44500Y81075D02*
Y82925D01*
X43575Y86700D02*
X45425D01*
X44500Y85775D02*
Y87625D01*
X37250Y38750D02*
X38250D01*
X37750Y38250D02*
Y39250D01*
X43750Y38750D02*
X44750D01*
X44250Y38250D02*
Y39250D01*
X37250Y34250D02*
X38250D01*
X37750Y33750D02*
Y34750D01*
X43750Y34250D02*
X44750D01*
X44250Y33750D02*
Y34750D01*
X53090Y72250D02*
X53990D01*
X53540Y71800D02*
Y72700D01*
X50550Y72250D02*
X51450D01*
X51000Y71800D02*
Y72700D01*
X54250Y94500D02*
X57750D01*
X56000Y92750D02*
Y96250D01*
X2750Y4500D02*
X6250D01*
X4500Y2750D02*
Y6250D01*
X54250Y4500D02*
X57750D01*
X56000Y2750D02*
Y6250D01*
X48850Y85500D02*
X49150D01*
X49000Y85350D02*
Y85650D01*
X48850Y78500D02*
X49150D01*
X49000Y78350D02*
Y78650D01*
X42850Y65000D02*
X43150D01*
X43000Y64850D02*
Y65150D01*
X31000Y29350D02*
X31300D01*
X31150Y29200D02*
Y29500D01*
X31000Y35350D02*
X31300D01*
X31150Y35200D02*
Y35500D01*
X31000Y16950D02*
X31300D01*
X31150Y16800D02*
Y17100D01*
X31000Y22950D02*
X31300D01*
X31150Y22800D02*
Y23100D01*
X28100Y64750D02*
X28400D01*
X28250Y64600D02*
Y64900D01*
X34850Y63250D02*
X35150D01*
X35000Y63100D02*
Y63400D01*
X35850Y55000D02*
X36150D01*
X36000Y54850D02*
Y55150D01*
X29850Y49000D02*
X30150D01*
X30000Y48850D02*
Y49150D01*
X32100Y46500D02*
X32400D01*
X32250Y46350D02*
Y46650D01*
X27600Y46500D02*
X27900D01*
X27750Y46350D02*
Y46650D01*
X33100Y51250D02*
X33400D01*
X33250Y51100D02*
Y51400D01*
X33350Y63250D02*
X33650D01*
X33500Y63100D02*
Y63400D01*
X29350Y63250D02*
X29650D01*
X29500Y63100D02*
Y63400D01*
X28350Y54000D02*
X28650D01*
X28500Y53850D02*
Y54150D01*
X10600Y41000D02*
X10900D01*
X10750Y40850D02*
Y41150D01*
X10600Y38500D02*
X10900D01*
X10750Y38350D02*
Y38650D01*
X38100Y8750D02*
X38400D01*
X38250Y8600D02*
Y8900D01*
X37100Y17250D02*
X37400D01*
X37250Y17100D02*
Y17400D01*
X46600Y58000D02*
X46900D01*
X46750Y57850D02*
Y58150D01*
X53850Y59000D02*
X54150D01*
X54000Y58850D02*
Y59150D01*
X39350Y59000D02*
X39650D01*
X39500Y58850D02*
Y59150D01*
X42850Y55000D02*
X43150D01*
X43000Y54850D02*
Y55150D01*
X42850Y56000D02*
X43150D01*
X43000Y55850D02*
Y56150D01*
X50350Y59000D02*
X50650D01*
X50500Y58850D02*
Y59150D01*
X42850Y59000D02*
X43150D01*
X43000Y58850D02*
Y59150D01*
X42850Y57250D02*
X43150D01*
X43000Y57100D02*
Y57400D01*
X50350Y57250D02*
X50650D01*
X50500Y57100D02*
Y57400D01*
X16288Y26500D02*
X16587D01*
X16438Y26350D02*
Y26650D01*
X29850Y38000D02*
X30150D01*
X30000Y37850D02*
Y38150D01*
X34500Y39600D02*
X34800D01*
X34650Y39450D02*
Y39750D01*
%TF.MD5,b7b7a1adde85c525846c9a0d8722ced9*%
M02*
