%TF.GenerationSoftware,Altium Limited,Altium Designer,25.2.1 (25)*%
G04 Layer_Color=255*
%FSLAX43Y43*%
%MOMM*%
%TF.SameCoordinates,F457C3C9-6880-4064-B818-50B76E06CF19*%
%TF.FilePolarity,Positive*%
%TF.FileFunction,Pads,Bot*%
%TF.Part,Single*%
G01*
G75*
%TA.AperFunction,ComponentPad*%
%ADD14C,2.500*%
%ADD15C,5.000*%
%ADD16O,2.500X1.600*%
%ADD17C,1.500*%
%ADD18C,3.000*%
%ADD19C,1.524*%
%ADD20C,6.000*%
%ADD21R,1.500X1.500*%
%ADD22C,2.775*%
%TA.AperFunction,SMDPad,CuDef*%
%ADD24R,0.650X0.700*%
%ADD25R,0.700X0.650*%
%ADD26R,2.800X1.600*%
%ADD27R,1.475X0.450*%
%ADD28R,3.200X1.250*%
%ADD29R,0.950X1.250*%
%ADD30R,0.600X1.250*%
D14*
X47580Y4200D02*
D03*
X42500D02*
D03*
X24920Y4300D02*
D03*
X30000D02*
D03*
X35080D02*
D03*
D15*
X5438Y18500D02*
D03*
Y29900D02*
D03*
D16*
X22812Y15100D02*
D03*
Y16800D02*
D03*
Y20200D02*
D03*
Y21900D02*
D03*
Y18500D02*
D03*
Y26500D02*
D03*
Y28200D02*
D03*
Y31600D02*
D03*
Y33300D02*
D03*
Y29900D02*
D03*
D17*
X52990Y45500D02*
D03*
X55530D02*
D03*
X47910Y45500D02*
D03*
X50450D02*
D03*
X42830D02*
D03*
X45370D02*
D03*
X37750D02*
D03*
X40290D02*
D03*
X47910Y48040D02*
D03*
X45370Y48040D02*
D03*
X42830Y48040D02*
D03*
X40290D02*
D03*
X37750D02*
D03*
X50450Y48040D02*
D03*
X55530D02*
D03*
X52990D02*
D03*
X51000Y68000D02*
D03*
X53250Y34250D02*
D03*
X46750D02*
D03*
X53250Y38750D02*
D03*
X46750D02*
D03*
X37750D02*
D03*
X44250D02*
D03*
X37750Y34250D02*
D03*
X44250D02*
D03*
X51000Y72250D02*
D03*
D18*
X14000Y3000D02*
D03*
Y9000D02*
D03*
X18700Y6000D02*
D03*
D19*
X37220Y30980D02*
D03*
X39760D02*
D03*
X42300D02*
D03*
X44840D02*
D03*
X47380D02*
D03*
X49920D02*
D03*
X52460D02*
D03*
X55000D02*
D03*
X37220Y13000D02*
D03*
X39760D02*
D03*
X42300D02*
D03*
X44840D02*
D03*
X47380D02*
D03*
X49920D02*
D03*
X52460D02*
D03*
X55000D02*
D03*
X22890Y38590D02*
D03*
Y41130D02*
D03*
Y43670D02*
D03*
Y46210D02*
D03*
Y48750D02*
D03*
Y51290D02*
D03*
Y53830D02*
D03*
Y56370D02*
D03*
Y58910D02*
D03*
Y61450D02*
D03*
Y63990D02*
D03*
Y66530D02*
D03*
Y69070D02*
D03*
Y71610D02*
D03*
Y74150D02*
D03*
Y76690D02*
D03*
Y79230D02*
D03*
Y81770D02*
D03*
Y84310D02*
D03*
Y86850D02*
D03*
X5110D02*
D03*
Y84310D02*
D03*
Y81770D02*
D03*
Y79230D02*
D03*
Y76690D02*
D03*
Y74150D02*
D03*
Y71610D02*
D03*
Y69070D02*
D03*
Y66530D02*
D03*
Y63990D02*
D03*
Y61450D02*
D03*
Y58910D02*
D03*
Y56370D02*
D03*
Y53830D02*
D03*
Y51290D02*
D03*
Y48750D02*
D03*
Y46210D02*
D03*
Y43670D02*
D03*
Y41130D02*
D03*
Y38590D02*
D03*
D20*
X4500Y94500D02*
D03*
X56000D02*
D03*
X4500Y4500D02*
D03*
X56000D02*
D03*
D21*
X53540Y68000D02*
D03*
Y72250D02*
D03*
D22*
X57200Y79460D02*
D03*
Y84540D02*
D03*
X44500Y77300D02*
D03*
Y82000D02*
D03*
Y86700D02*
D03*
D24*
X34925Y62250D02*
D03*
X33575D02*
D03*
X51575Y57250D02*
D03*
X52925D02*
D03*
X51575Y59000D02*
D03*
X52925D02*
D03*
X9675Y38590D02*
D03*
X8325D02*
D03*
X9675Y41130D02*
D03*
X8325D02*
D03*
X49175Y77300D02*
D03*
X47825D02*
D03*
X49175Y86700D02*
D03*
X47825D02*
D03*
X41925Y59000D02*
D03*
X40575D02*
D03*
X28075Y62250D02*
D03*
X29425D02*
D03*
X41925Y57250D02*
D03*
X40575D02*
D03*
X18325Y33000D02*
D03*
X19675D02*
D03*
X18325Y21500D02*
D03*
X19675D02*
D03*
X18325Y20000D02*
D03*
X19675D02*
D03*
X18325Y31500D02*
D03*
X19675D02*
D03*
Y17000D02*
D03*
X18325D02*
D03*
X19675Y18500D02*
D03*
X18325D02*
D03*
X19675Y28500D02*
D03*
X18325D02*
D03*
X19675Y30000D02*
D03*
X18325D02*
D03*
X29325Y48000D02*
D03*
X30675D02*
D03*
X27075Y38000D02*
D03*
X28425D02*
D03*
D25*
X30000Y8675D02*
D03*
Y7325D02*
D03*
X35080Y8675D02*
D03*
Y7325D02*
D03*
X37250Y14825D02*
D03*
Y16175D02*
D03*
D26*
X26850Y14600D02*
D03*
X31150D02*
D03*
X26850Y27000D02*
D03*
X31150D02*
D03*
X26850Y33000D02*
D03*
X31150D02*
D03*
Y20600D02*
D03*
X26850D02*
D03*
D27*
X28562Y60925D02*
D03*
Y60275D02*
D03*
Y59625D02*
D03*
Y58975D02*
D03*
Y58325D02*
D03*
Y57675D02*
D03*
Y57025D02*
D03*
Y56375D02*
D03*
Y55725D02*
D03*
Y55075D02*
D03*
X34438D02*
D03*
Y55725D02*
D03*
Y56375D02*
D03*
Y57025D02*
D03*
Y57675D02*
D03*
Y58325D02*
D03*
Y58975D02*
D03*
Y59625D02*
D03*
Y60275D02*
D03*
Y60925D02*
D03*
D28*
X30000Y46400D02*
D03*
D29*
X27700Y39600D02*
D03*
X30000D02*
D03*
X32300D02*
D03*
D30*
X47100Y72250D02*
D03*
X48900D02*
D03*
Y68000D02*
D03*
X47100D02*
D03*
%TF.MD5,1e338a5c786d72a0055892c5deba43dd*%
M02*
