%TF.GenerationSoftware,Altium Limited,Altium Designer,25.2.1 (25)*%
G04 Layer_Color=65535*
%FSLAX43Y43*%
%MOMM*%
%TF.SameCoordinates,7901F6FB-5547-41B2-A73E-222B968302CC*%
%TF.FilePolarity,Positive*%
%TF.FileFunction,Legend,Top*%
%TF.Part,Single*%
G01*
G75*
%TA.AperFunction,NonConductor*%
%ADD13C,0.300*%
%ADD26C,0.100*%
%ADD27C,0.200*%
%ADD28C,0.254*%
%ADD29C,0.250*%
%ADD30C,0.150*%
G36*
X15156Y47830D02*
X15205D01*
Y47826D01*
X15232D01*
Y47823D01*
X15259D01*
Y47819D01*
X15278D01*
Y47815D01*
X15300D01*
Y47811D01*
X15308D01*
Y47807D01*
X15327D01*
Y47804D01*
X15342D01*
Y47800D01*
X15354D01*
Y47796D01*
X15369D01*
Y47792D01*
X15376D01*
Y47788D01*
X15388D01*
Y47785D01*
X15399D01*
Y47781D01*
X15407D01*
Y47777D01*
X15418D01*
Y47773D01*
X15426D01*
Y47769D01*
X15441D01*
Y47766D01*
X15445D01*
Y47762D01*
X15456D01*
Y47758D01*
X15460D01*
Y47754D01*
X15467D01*
Y47750D01*
X15479D01*
Y47747D01*
X15483D01*
Y47743D01*
X15494D01*
Y47739D01*
X15502D01*
Y47735D01*
X15509D01*
Y47731D01*
X15513D01*
Y47728D01*
X15521D01*
Y47724D01*
X15528D01*
Y47720D01*
X15532D01*
Y47716D01*
X15540D01*
Y47713D01*
X15547D01*
Y47709D01*
X15551D01*
Y47705D01*
X15559D01*
Y47701D01*
X15562D01*
Y47697D01*
X15570D01*
Y47694D01*
X15574D01*
Y47690D01*
X15581D01*
Y47686D01*
X15585D01*
Y47682D01*
X15589D01*
Y47678D01*
X15597D01*
Y47675D01*
X15600D01*
Y47671D01*
X15608D01*
Y47667D01*
X15612D01*
Y47663D01*
X15616D01*
Y47659D01*
X15623D01*
Y47656D01*
X15627D01*
Y47652D01*
X15631D01*
Y47648D01*
X15635D01*
Y47644D01*
X15638D01*
Y47640D01*
X15646D01*
Y47633D01*
X15654D01*
Y47629D01*
X15657D01*
Y47625D01*
X15661D01*
Y47621D01*
X15665D01*
Y47618D01*
X15669D01*
Y47614D01*
X15673D01*
Y47610D01*
X15676D01*
Y47606D01*
X15684D01*
Y47599D01*
X15692D01*
Y47591D01*
X15695D01*
Y47587D01*
X15699D01*
Y47583D01*
X15703D01*
Y47580D01*
X15707D01*
Y47576D01*
X15711D01*
Y47572D01*
X15714D01*
Y47568D01*
X15718D01*
Y47564D01*
X15722D01*
Y47561D01*
X15726D01*
Y47557D01*
X15730D01*
Y47549D01*
X15733D01*
Y47545D01*
X15737D01*
Y47542D01*
X15741D01*
Y47538D01*
X15745D01*
Y47534D01*
X15749D01*
Y47526D01*
X15752D01*
Y47523D01*
X15756D01*
Y47519D01*
X15760D01*
Y47515D01*
X15764D01*
Y47507D01*
X15768D01*
Y47504D01*
X15771D01*
Y47496D01*
X15775D01*
Y47492D01*
X15779D01*
Y47488D01*
X15783D01*
Y47481D01*
X15787D01*
Y47477D01*
X15790D01*
Y47469D01*
X15794D01*
Y47466D01*
X15798D01*
Y47462D01*
X15802D01*
Y47450D01*
X15806D01*
Y47447D01*
X15809D01*
Y47439D01*
X15813D01*
Y47435D01*
X15817D01*
Y47428D01*
X15821D01*
Y47420D01*
X15825D01*
Y47416D01*
X15828D01*
Y47409D01*
X15832D01*
Y47401D01*
X15836D01*
Y47393D01*
X15840D01*
Y47382D01*
X15843D01*
Y47378D01*
X15847D01*
Y47367D01*
X15851D01*
Y47363D01*
X15855D01*
Y47352D01*
X15859D01*
Y47344D01*
X15862D01*
Y47336D01*
X15866D01*
Y47325D01*
X15870D01*
Y47318D01*
X15874D01*
Y47302D01*
X15878D01*
Y47295D01*
X15881D01*
Y47283D01*
X15885D01*
Y47272D01*
X15889D01*
Y47264D01*
X15893D01*
Y47245D01*
X15897D01*
Y47234D01*
X15900D01*
Y47215D01*
X15904D01*
Y47204D01*
X15908D01*
Y47188D01*
X15912D01*
Y47162D01*
X15916D01*
Y47143D01*
X15919D01*
Y47109D01*
X15923D01*
Y47059D01*
X15927D01*
Y43941D01*
X15923D01*
Y43892D01*
X15919D01*
Y43857D01*
X15916D01*
Y43838D01*
X15912D01*
Y43812D01*
X15908D01*
Y43797D01*
X15904D01*
Y43785D01*
X15900D01*
Y43766D01*
X15897D01*
Y43755D01*
X15893D01*
Y43736D01*
X15889D01*
Y43728D01*
X15885D01*
Y43717D01*
X15881D01*
Y43705D01*
X15878D01*
Y43698D01*
X15874D01*
Y43683D01*
X15870D01*
Y43675D01*
X15866D01*
Y43664D01*
X15862D01*
Y43656D01*
X15859D01*
Y43648D01*
X15855D01*
Y43637D01*
X15851D01*
Y43633D01*
X15847D01*
Y43622D01*
X15843D01*
Y43618D01*
X15840D01*
Y43607D01*
X15836D01*
Y43599D01*
X15832D01*
Y43592D01*
X15828D01*
Y43584D01*
X15825D01*
Y43580D01*
X15821D01*
Y43573D01*
X15817D01*
Y43565D01*
X15813D01*
Y43561D01*
X15809D01*
Y43554D01*
X15806D01*
Y43550D01*
X15802D01*
Y43538D01*
X15798D01*
Y43535D01*
X15794D01*
Y43531D01*
X15790D01*
Y43523D01*
X15787D01*
Y43519D01*
X15783D01*
Y43512D01*
X15779D01*
Y43508D01*
X15775D01*
Y43504D01*
X15771D01*
Y43497D01*
X15768D01*
Y43493D01*
X15764D01*
Y43485D01*
X15760D01*
Y43481D01*
X15756D01*
Y43478D01*
X15752D01*
Y43474D01*
X15749D01*
Y43466D01*
X15745D01*
Y43462D01*
X15741D01*
Y43459D01*
X15737D01*
Y43455D01*
X15733D01*
Y43451D01*
X15730D01*
Y43443D01*
X15726D01*
Y43440D01*
X15722D01*
Y43436D01*
X15718D01*
Y43432D01*
X15714D01*
Y43428D01*
X15711D01*
Y43424D01*
X15707D01*
Y43421D01*
X15703D01*
Y43417D01*
X15699D01*
Y43413D01*
X15695D01*
Y43409D01*
X15692D01*
Y43402D01*
X15684D01*
Y43394D01*
X15676D01*
Y43390D01*
X15673D01*
Y43386D01*
X15669D01*
Y43383D01*
X15665D01*
Y43379D01*
X15661D01*
Y43375D01*
X15657D01*
Y43371D01*
X15654D01*
Y43367D01*
X15646D01*
Y43360D01*
X15638D01*
Y43356D01*
X15635D01*
Y43352D01*
X15631D01*
Y43348D01*
X15627D01*
Y43345D01*
X15623D01*
Y43341D01*
X15616D01*
Y43337D01*
X15612D01*
Y43333D01*
X15608D01*
Y43329D01*
X15600D01*
Y43326D01*
X15597D01*
Y43322D01*
X15589D01*
Y43318D01*
X15585D01*
Y43314D01*
X15581D01*
Y43310D01*
X15574D01*
Y43307D01*
X15570D01*
Y43303D01*
X15562D01*
Y43299D01*
X15559D01*
Y43295D01*
X15551D01*
Y43291D01*
X15547D01*
Y43288D01*
X15540D01*
Y43284D01*
X15532D01*
Y43280D01*
X15528D01*
Y43276D01*
X15521D01*
Y43272D01*
X15513D01*
Y43269D01*
X15509D01*
Y43265D01*
X15502D01*
Y43261D01*
X15494D01*
Y43257D01*
X15483D01*
Y43253D01*
X15479D01*
Y43250D01*
X15467D01*
Y43246D01*
X15460D01*
Y43242D01*
X15456D01*
Y43238D01*
X15445D01*
Y43234D01*
X15441D01*
Y43231D01*
X15426D01*
Y43227D01*
X15418D01*
Y43223D01*
X15407D01*
Y43219D01*
X15399D01*
Y43215D01*
X15388D01*
Y43212D01*
X15376D01*
Y43208D01*
X15369D01*
Y43204D01*
X15354D01*
Y43200D01*
X15342D01*
Y43196D01*
X15327D01*
Y43193D01*
X15308D01*
Y43189D01*
X15300D01*
Y43185D01*
X15278D01*
Y43181D01*
X15259D01*
Y43178D01*
X15232D01*
Y43174D01*
X15205D01*
Y43170D01*
X15156D01*
Y43166D01*
X10594D01*
Y43170D01*
X10545D01*
Y43174D01*
X10518D01*
Y43178D01*
X10492D01*
Y43181D01*
X10473D01*
Y43185D01*
X10450D01*
Y43189D01*
X10443D01*
Y43193D01*
X10424D01*
Y43196D01*
X10408D01*
Y43200D01*
X10397D01*
Y43204D01*
X10382D01*
Y43208D01*
X10374D01*
Y43212D01*
X10363D01*
Y43215D01*
X10351D01*
Y43219D01*
X10344D01*
Y43223D01*
X10332D01*
Y43227D01*
X10325D01*
Y43231D01*
X10310D01*
Y43234D01*
X10306D01*
Y43238D01*
X10294D01*
Y43242D01*
X10291D01*
Y43246D01*
X10283D01*
Y43250D01*
X10272D01*
Y43253D01*
X10268D01*
Y43257D01*
X10256D01*
Y43261D01*
X10249D01*
Y43265D01*
X10241D01*
Y43269D01*
X10237D01*
Y43272D01*
X10230D01*
Y43276D01*
X10222D01*
Y43280D01*
X10218D01*
Y43284D01*
X10211D01*
Y43288D01*
X10203D01*
Y43291D01*
X10199D01*
Y43295D01*
X10192D01*
Y43299D01*
X10188D01*
Y43303D01*
X10180D01*
Y43307D01*
X10177D01*
Y43310D01*
X10169D01*
Y43314D01*
X10165D01*
Y43318D01*
X10161D01*
Y43322D01*
X10154D01*
Y43326D01*
X10150D01*
Y43329D01*
X10142D01*
Y43333D01*
X10139D01*
Y43337D01*
X10135D01*
Y43341D01*
X10127D01*
Y43345D01*
X10123D01*
Y43348D01*
X10120D01*
Y43352D01*
X10116D01*
Y43356D01*
X10112D01*
Y43360D01*
X10104D01*
Y43367D01*
X10097D01*
Y43371D01*
X10093D01*
Y43375D01*
X10089D01*
Y43379D01*
X10085D01*
Y43383D01*
X10082D01*
Y43386D01*
X10078D01*
Y43390D01*
X10074D01*
Y43394D01*
X10066D01*
Y43402D01*
X10059D01*
Y43409D01*
X10055D01*
Y43413D01*
X10051D01*
Y43417D01*
X10047D01*
Y43421D01*
X10044D01*
Y43424D01*
X10040D01*
Y43428D01*
X10036D01*
Y43432D01*
X10032D01*
Y43436D01*
X10029D01*
Y43440D01*
X10025D01*
Y43443D01*
X10021D01*
Y43451D01*
X10017D01*
Y43455D01*
X10013D01*
Y43459D01*
X10010D01*
Y43462D01*
X10006D01*
Y43466D01*
X10002D01*
Y43474D01*
X9998D01*
Y43478D01*
X9994D01*
Y43481D01*
X9991D01*
Y43485D01*
X9987D01*
Y43493D01*
X9983D01*
Y43497D01*
X9979D01*
Y43504D01*
X9975D01*
Y43508D01*
X9972D01*
Y43512D01*
X9968D01*
Y43519D01*
X9964D01*
Y43523D01*
X9960D01*
Y43531D01*
X9956D01*
Y43535D01*
X9953D01*
Y43538D01*
X9949D01*
Y43550D01*
X9945D01*
Y43554D01*
X9941D01*
Y43561D01*
X9937D01*
Y43565D01*
X9934D01*
Y43573D01*
X9930D01*
Y43580D01*
X9926D01*
Y43584D01*
X9922D01*
Y43592D01*
X9918D01*
Y43599D01*
X9915D01*
Y43607D01*
X9911D01*
Y43618D01*
X9907D01*
Y43622D01*
X9903D01*
Y43633D01*
X9899D01*
Y43637D01*
X9896D01*
Y43648D01*
X9892D01*
Y43656D01*
X9888D01*
Y43664D01*
X9884D01*
Y43675D01*
X9880D01*
Y43683D01*
X9877D01*
Y43698D01*
X9873D01*
Y43705D01*
X9869D01*
Y43717D01*
X9865D01*
Y43728D01*
X9861D01*
Y43736D01*
X9858D01*
Y43755D01*
X9854D01*
Y43766D01*
X9850D01*
Y43785D01*
X9846D01*
Y43797D01*
X9842D01*
Y43812D01*
X9839D01*
Y43838D01*
X9835D01*
Y43857D01*
X9831D01*
Y43892D01*
X9827D01*
Y43941D01*
X9823D01*
Y47059D01*
X9827D01*
Y47109D01*
X9831D01*
Y47143D01*
X9835D01*
Y47162D01*
X9839D01*
Y47188D01*
X9842D01*
Y47204D01*
X9846D01*
Y47215D01*
X9850D01*
Y47234D01*
X9854D01*
Y47245D01*
X9858D01*
Y47264D01*
X9861D01*
Y47272D01*
X9865D01*
Y47283D01*
X9869D01*
Y47295D01*
X9873D01*
Y47302D01*
X9877D01*
Y47318D01*
X9880D01*
Y47325D01*
X9884D01*
Y47336D01*
X9888D01*
Y47344D01*
X9892D01*
Y47352D01*
X9896D01*
Y47363D01*
X9899D01*
Y47367D01*
X9903D01*
Y47378D01*
X9907D01*
Y47382D01*
X9911D01*
Y47393D01*
X9915D01*
Y47401D01*
X9918D01*
Y47409D01*
X9922D01*
Y47416D01*
X9926D01*
Y47420D01*
X9930D01*
Y47428D01*
X9934D01*
Y47435D01*
X9937D01*
Y47439D01*
X9941D01*
Y47447D01*
X9945D01*
Y47450D01*
X9949D01*
Y47462D01*
X9953D01*
Y47466D01*
X9956D01*
Y47469D01*
X9960D01*
Y47477D01*
X9964D01*
Y47481D01*
X9968D01*
Y47488D01*
X9972D01*
Y47492D01*
X9975D01*
Y47496D01*
X9979D01*
Y47504D01*
X9983D01*
Y47507D01*
X9987D01*
Y47515D01*
X9991D01*
Y47519D01*
X9994D01*
Y47523D01*
X9998D01*
Y47526D01*
X10002D01*
Y47534D01*
X10006D01*
Y47538D01*
X10010D01*
Y47542D01*
X10013D01*
Y47545D01*
X10017D01*
Y47549D01*
X10021D01*
Y47557D01*
X10025D01*
Y47561D01*
X10029D01*
Y47564D01*
X10032D01*
Y47568D01*
X10036D01*
Y47572D01*
X10040D01*
Y47576D01*
X10044D01*
Y47580D01*
X10047D01*
Y47583D01*
X10051D01*
Y47587D01*
X10055D01*
Y47591D01*
X10059D01*
Y47599D01*
X10066D01*
Y47606D01*
X10074D01*
Y47610D01*
X10078D01*
Y47614D01*
X10082D01*
Y47618D01*
X10085D01*
Y47621D01*
X10089D01*
Y47625D01*
X10093D01*
Y47629D01*
X10097D01*
Y47633D01*
X10104D01*
Y47640D01*
X10112D01*
Y47644D01*
X10116D01*
Y47648D01*
X10120D01*
Y47652D01*
X10123D01*
Y47656D01*
X10127D01*
Y47659D01*
X10135D01*
Y47663D01*
X10139D01*
Y47667D01*
X10142D01*
Y47671D01*
X10150D01*
Y47675D01*
X10154D01*
Y47678D01*
X10161D01*
Y47682D01*
X10165D01*
Y47686D01*
X10169D01*
Y47690D01*
X10177D01*
Y47694D01*
X10180D01*
Y47697D01*
X10188D01*
Y47701D01*
X10192D01*
Y47705D01*
X10199D01*
Y47709D01*
X10203D01*
Y47713D01*
X10211D01*
Y47716D01*
X10218D01*
Y47720D01*
X10222D01*
Y47724D01*
X10230D01*
Y47728D01*
X10237D01*
Y47731D01*
X10241D01*
Y47735D01*
X10249D01*
Y47739D01*
X10256D01*
Y47743D01*
X10268D01*
Y47747D01*
X10272D01*
Y47750D01*
X10283D01*
Y47754D01*
X10291D01*
Y47758D01*
X10294D01*
Y47762D01*
X10306D01*
Y47766D01*
X10310D01*
Y47769D01*
X10325D01*
Y47773D01*
X10332D01*
Y47777D01*
X10344D01*
Y47781D01*
X10351D01*
Y47785D01*
X10363D01*
Y47788D01*
X10374D01*
Y47792D01*
X10382D01*
Y47796D01*
X10397D01*
Y47800D01*
X10408D01*
Y47804D01*
X10424D01*
Y47807D01*
X10443D01*
Y47811D01*
X10450D01*
Y47815D01*
X10473D01*
Y47819D01*
X10492D01*
Y47823D01*
X10518D01*
Y47826D01*
X10545D01*
Y47830D01*
X10594D01*
Y47834D01*
X15156D01*
Y47830D01*
D02*
G37*
G36*
X15682Y17784D02*
X16727D01*
Y17262D01*
X16727D01*
Y17262D01*
X16204D01*
Y16739D01*
X16727D01*
Y16738D01*
X16727D01*
Y16216D01*
X17250D01*
Y15171D01*
X16727D01*
Y15694D01*
X16205D01*
Y15694D01*
X16204D01*
Y16216D01*
X15682D01*
Y15694D01*
X15681D01*
Y15694D01*
X15159D01*
Y16216D01*
X13591D01*
Y15694D01*
X14113D01*
Y15693D01*
X14114D01*
Y15171D01*
X13591D01*
Y15694D01*
X13069D01*
Y15694D01*
X13068D01*
Y16216D01*
X12545D01*
Y15694D01*
X12545D01*
Y15694D01*
X12023D01*
Y15171D01*
X11500D01*
Y16216D01*
X12023D01*
Y16738D01*
X12023D01*
Y16739D01*
X12545D01*
Y17262D01*
X12023D01*
Y17262D01*
X12023D01*
Y17784D01*
X11500D01*
Y18160D01*
Y18161D01*
Y18307D01*
X12022D01*
Y18307D01*
X12023D01*
Y17784D01*
X13068D01*
Y16739D01*
X13591D01*
Y17784D01*
X13068D01*
Y18830D01*
X13591D01*
Y18307D01*
X15159D01*
Y18830D01*
X15682D01*
Y17784D01*
D02*
G37*
G36*
X17250D02*
X16727D01*
Y17945D01*
Y17945D01*
Y18307D01*
X16728D01*
Y18307D01*
X17250D01*
Y17784D01*
D02*
G37*
G36*
X15159Y15653D02*
Y15652D01*
Y15171D01*
X14636D01*
Y15693D01*
X14637D01*
Y15694D01*
X15159D01*
Y15653D01*
D02*
G37*
%LPC*%
G36*
X15164Y47473D02*
X10587D01*
Y47469D01*
X10553D01*
Y47466D01*
X10534D01*
Y47462D01*
X10522D01*
Y47458D01*
X10503D01*
Y47454D01*
X10496D01*
Y47450D01*
X10480D01*
Y47447D01*
X10473D01*
Y47443D01*
X10462D01*
Y47439D01*
X10454D01*
Y47435D01*
X10446D01*
Y47431D01*
X10435D01*
Y47428D01*
X10431D01*
Y47424D01*
X10424D01*
Y47420D01*
X10416D01*
Y47416D01*
X10408D01*
Y47412D01*
X10401D01*
Y47409D01*
X10397D01*
Y47405D01*
X10389D01*
Y47401D01*
X10382D01*
Y47397D01*
X10378D01*
Y47393D01*
X10374D01*
Y47390D01*
X10367D01*
Y47386D01*
X10363D01*
Y47382D01*
X10359D01*
Y47378D01*
X10351D01*
Y47374D01*
X10348D01*
Y47371D01*
X10344D01*
Y47367D01*
X10340D01*
Y47363D01*
X10336D01*
Y47359D01*
X10329D01*
Y47355D01*
X10325D01*
Y47352D01*
X10321D01*
Y47348D01*
X10317D01*
Y47344D01*
X10313D01*
Y47340D01*
X10310D01*
Y47336D01*
X10306D01*
Y47333D01*
X10302D01*
Y47329D01*
X10298D01*
Y47321D01*
X10294D01*
Y47318D01*
X10291D01*
Y47314D01*
X10287D01*
Y47310D01*
X10283D01*
Y47306D01*
X10279D01*
Y47302D01*
X10275D01*
Y47295D01*
X10272D01*
Y47291D01*
X10268D01*
Y47283D01*
X10264D01*
Y47280D01*
X10260D01*
Y47276D01*
X10256D01*
Y47268D01*
X10253D01*
Y47261D01*
X10249D01*
Y47257D01*
X10245D01*
Y47249D01*
X10241D01*
Y47242D01*
X10237D01*
Y47238D01*
X10234D01*
Y47230D01*
X10230D01*
Y47219D01*
X10226D01*
Y47215D01*
X10222D01*
Y47204D01*
X10218D01*
Y47200D01*
X10215D01*
Y47185D01*
X10211D01*
Y47177D01*
X10207D01*
Y47166D01*
X10203D01*
Y47150D01*
X10199D01*
Y47139D01*
X10196D01*
Y47120D01*
X10192D01*
Y47105D01*
X10188D01*
Y47078D01*
X10184D01*
Y43922D01*
X10188D01*
Y43895D01*
X10192D01*
Y43880D01*
X10196D01*
Y43861D01*
X10199D01*
Y43850D01*
X10203D01*
Y43835D01*
X10207D01*
Y43823D01*
X10211D01*
Y43816D01*
X10215D01*
Y43800D01*
X10218D01*
Y43797D01*
X10222D01*
Y43785D01*
X10226D01*
Y43781D01*
X10230D01*
Y43770D01*
X10234D01*
Y43762D01*
X10237D01*
Y43759D01*
X10241D01*
Y43751D01*
X10245D01*
Y43743D01*
X10249D01*
Y43740D01*
X10253D01*
Y43732D01*
X10256D01*
Y43724D01*
X10260D01*
Y43721D01*
X10264D01*
Y43717D01*
X10268D01*
Y43709D01*
X10272D01*
Y43705D01*
X10275D01*
Y43698D01*
X10279D01*
Y43694D01*
X10283D01*
Y43690D01*
X10287D01*
Y43686D01*
X10291D01*
Y43683D01*
X10294D01*
Y43675D01*
X10298D01*
Y43671D01*
X10302D01*
Y43667D01*
X10306D01*
Y43664D01*
X10310D01*
Y43660D01*
X10313D01*
Y43656D01*
X10317D01*
Y43652D01*
X10321D01*
Y43648D01*
X10325D01*
Y43645D01*
X10329D01*
Y43641D01*
X10336D01*
Y43637D01*
X10340D01*
Y43633D01*
X10344D01*
Y43629D01*
X10348D01*
Y43626D01*
X10351D01*
Y43622D01*
X10359D01*
Y43618D01*
X10363D01*
Y43614D01*
X10367D01*
Y43611D01*
X10374D01*
Y43607D01*
X10378D01*
Y43603D01*
X10382D01*
Y43599D01*
X10389D01*
Y43595D01*
X10397D01*
Y43592D01*
X10401D01*
Y43588D01*
X10408D01*
Y43584D01*
X10416D01*
Y43580D01*
X10424D01*
Y43576D01*
X10431D01*
Y43573D01*
X10435D01*
Y43569D01*
X10446D01*
Y43565D01*
X10454D01*
Y43561D01*
X10462D01*
Y43557D01*
X10473D01*
Y43554D01*
X10480D01*
Y43550D01*
X10496D01*
Y43546D01*
X10503D01*
Y43542D01*
X10522D01*
Y43538D01*
X10534D01*
Y43535D01*
X10553D01*
Y43531D01*
X10587D01*
Y43527D01*
X15167D01*
Y43531D01*
X15198D01*
Y43535D01*
X15217D01*
Y43538D01*
X15228D01*
Y43542D01*
X15247D01*
Y43546D01*
X15255D01*
Y43550D01*
X15270D01*
Y43554D01*
X15278D01*
Y43557D01*
X15289D01*
Y43561D01*
X15297D01*
Y43565D01*
X15304D01*
Y43569D01*
X15316D01*
Y43573D01*
X15319D01*
Y43576D01*
X15327D01*
Y43580D01*
X15335D01*
Y43584D01*
X15342D01*
Y43588D01*
X15350D01*
Y43592D01*
X15354D01*
Y43595D01*
X15361D01*
Y43599D01*
X15369D01*
Y43603D01*
X15373D01*
Y43607D01*
X15376D01*
Y43611D01*
X15384D01*
Y43614D01*
X15388D01*
Y43618D01*
X15392D01*
Y43622D01*
X15399D01*
Y43626D01*
X15403D01*
Y43629D01*
X15407D01*
Y43633D01*
X15410D01*
Y43637D01*
X15414D01*
Y43641D01*
X15422D01*
Y43645D01*
X15426D01*
Y43648D01*
X15429D01*
Y43652D01*
X15433D01*
Y43656D01*
X15437D01*
Y43660D01*
X15441D01*
Y43664D01*
X15445D01*
Y43667D01*
X15448D01*
Y43671D01*
X15452D01*
Y43675D01*
X15456D01*
Y43683D01*
X15460D01*
Y43686D01*
X15464D01*
Y43690D01*
X15467D01*
Y43694D01*
X15471D01*
Y43698D01*
X15475D01*
Y43705D01*
X15479D01*
Y43709D01*
X15483D01*
Y43717D01*
X15486D01*
Y43721D01*
X15490D01*
Y43724D01*
X15494D01*
Y43732D01*
X15498D01*
Y43740D01*
X15502D01*
Y43743D01*
X15505D01*
Y43747D01*
X15509D01*
Y43759D01*
X15513D01*
Y43762D01*
X15517D01*
Y43770D01*
X15521D01*
Y43781D01*
X15524D01*
Y43785D01*
X15528D01*
Y43797D01*
X15532D01*
Y43800D01*
X15536D01*
Y43816D01*
X15540D01*
Y43823D01*
X15543D01*
Y43835D01*
X15547D01*
Y43850D01*
X15551D01*
Y43861D01*
X15555D01*
Y43880D01*
X15559D01*
Y43895D01*
X15562D01*
Y43922D01*
X15566D01*
Y47078D01*
X15562D01*
Y47105D01*
X15559D01*
Y47120D01*
X15555D01*
Y47139D01*
X15551D01*
Y47150D01*
X15547D01*
Y47166D01*
X15543D01*
Y47177D01*
X15540D01*
Y47185D01*
X15536D01*
Y47200D01*
X15532D01*
Y47204D01*
X15528D01*
Y47215D01*
X15524D01*
Y47219D01*
X15521D01*
Y47230D01*
X15517D01*
Y47238D01*
X15513D01*
Y47242D01*
X15509D01*
Y47249D01*
X15505D01*
Y47257D01*
X15502D01*
Y47261D01*
X15498D01*
Y47268D01*
X15494D01*
Y47276D01*
X15490D01*
Y47280D01*
X15486D01*
Y47283D01*
X15483D01*
Y47291D01*
X15479D01*
Y47295D01*
X15475D01*
Y47302D01*
X15471D01*
Y47306D01*
X15467D01*
Y47310D01*
X15464D01*
Y47314D01*
X15460D01*
Y47318D01*
X15456D01*
Y47325D01*
X15452D01*
Y47329D01*
X15448D01*
Y47333D01*
X15445D01*
Y47336D01*
X15441D01*
Y47340D01*
X15437D01*
Y47344D01*
X15433D01*
Y47348D01*
X15429D01*
Y47352D01*
X15426D01*
Y47355D01*
X15422D01*
Y47359D01*
X15414D01*
Y47363D01*
X15410D01*
Y47367D01*
X15407D01*
Y47371D01*
X15403D01*
Y47374D01*
X15399D01*
Y47378D01*
X15392D01*
Y47382D01*
X15388D01*
Y47386D01*
X15384D01*
Y47390D01*
X15376D01*
Y47393D01*
X15373D01*
Y47397D01*
X15369D01*
Y47401D01*
X15361D01*
Y47405D01*
X15354D01*
Y47409D01*
X15350D01*
Y47412D01*
X15342D01*
Y47416D01*
X15335D01*
Y47420D01*
X15327D01*
Y47424D01*
X15319D01*
Y47428D01*
X15316D01*
Y47431D01*
X15304D01*
Y47435D01*
X15297D01*
Y47439D01*
X15289D01*
Y47443D01*
X15278D01*
Y47447D01*
X15270D01*
Y47450D01*
X15255D01*
Y47454D01*
X15247D01*
Y47458D01*
X15228D01*
Y47462D01*
X15217D01*
Y47466D01*
X15198D01*
Y47469D01*
X15164D01*
Y47473D01*
D02*
G37*
%LPD*%
G36*
X12778Y47204D02*
X12786D01*
Y44070D01*
X12782D01*
Y44066D01*
X12778D01*
Y44062D01*
X12771D01*
Y44066D01*
X12258D01*
Y44062D01*
X12254D01*
Y44066D01*
X12247D01*
Y44241D01*
X12254D01*
Y44245D01*
X12262D01*
Y44241D01*
X12266D01*
Y44245D01*
X12588D01*
Y44241D01*
X12596D01*
Y44245D01*
X12604D01*
Y44249D01*
X12607D01*
Y44625D01*
Y44628D01*
Y45407D01*
X12604D01*
Y45415D01*
X12600D01*
Y45418D01*
X12596D01*
Y45422D01*
X12592D01*
Y45426D01*
X12585D01*
Y45430D01*
X12581D01*
Y45434D01*
X12577D01*
Y45437D01*
X12573D01*
Y45441D01*
X12569D01*
Y45445D01*
X12566D01*
Y45449D01*
X12562D01*
Y45453D01*
X12558D01*
Y45456D01*
X12554D01*
Y45460D01*
X12550D01*
Y45464D01*
X12547D01*
Y45468D01*
X12539D01*
Y45472D01*
X12535D01*
Y45475D01*
X12531D01*
Y45479D01*
X12528D01*
Y45483D01*
X12524D01*
Y45487D01*
X12520D01*
Y45491D01*
X12516D01*
Y45494D01*
X12512D01*
Y45498D01*
X12509D01*
Y45502D01*
X12505D01*
Y45506D01*
X12497D01*
Y45510D01*
X12494D01*
Y45513D01*
X12490D01*
Y45517D01*
X12486D01*
Y45521D01*
X12482D01*
Y45525D01*
X12478D01*
Y45529D01*
X12475D01*
Y45532D01*
X12471D01*
Y45536D01*
X12467D01*
Y45540D01*
X12459D01*
Y45544D01*
X12456D01*
Y45548D01*
X12452D01*
Y45551D01*
X12448D01*
Y45555D01*
X12444D01*
Y45559D01*
X12440D01*
Y45563D01*
X12437D01*
Y45567D01*
X12433D01*
Y45570D01*
X12429D01*
Y45574D01*
X12425D01*
Y45578D01*
X12421D01*
Y45582D01*
X12414D01*
Y45586D01*
X12410D01*
Y45589D01*
X12406D01*
Y45593D01*
X12402D01*
Y45597D01*
X12399D01*
Y45601D01*
X12395D01*
Y45605D01*
X12391D01*
Y45608D01*
X12387D01*
Y45612D01*
X12383D01*
Y45616D01*
X12376D01*
Y45620D01*
X12372D01*
Y45624D01*
X12368D01*
Y45627D01*
X12364D01*
Y45631D01*
X12361D01*
Y45635D01*
X12357D01*
Y45639D01*
X12353D01*
Y45643D01*
X12349D01*
Y45646D01*
X12345D01*
Y45650D01*
X12342D01*
Y45654D01*
X12338D01*
Y45658D01*
X12330D01*
Y45661D01*
X12326D01*
Y45665D01*
X12323D01*
Y45669D01*
X12319D01*
Y45673D01*
X12315D01*
Y45677D01*
X12311D01*
Y45681D01*
X12307D01*
Y45684D01*
X12304D01*
Y45688D01*
X12300D01*
Y45692D01*
X12292D01*
Y45696D01*
X12288D01*
Y45699D01*
X12285D01*
Y45703D01*
X12281D01*
Y45707D01*
X12277D01*
Y45711D01*
X12273D01*
Y45715D01*
X12269D01*
Y45718D01*
X12266D01*
Y45722D01*
X12262D01*
Y45726D01*
X12258D01*
Y45730D01*
X12250D01*
Y45734D01*
X12247D01*
Y45737D01*
X12243D01*
Y45741D01*
X12239D01*
Y45745D01*
X12235D01*
Y45749D01*
X12231D01*
Y45753D01*
X12228D01*
Y45756D01*
X12224D01*
Y45760D01*
X12220D01*
Y45764D01*
X12216D01*
Y45768D01*
X12212D01*
Y45772D01*
X12205D01*
Y45775D01*
X12201D01*
Y45779D01*
X12197D01*
Y45783D01*
X12193D01*
Y45787D01*
X12190D01*
Y45791D01*
X12186D01*
Y45794D01*
X12182D01*
Y45798D01*
X12178D01*
Y45802D01*
X12174D01*
Y45806D01*
X12167D01*
Y45810D01*
X12163D01*
Y45813D01*
X12159D01*
Y45817D01*
X12155D01*
Y45821D01*
X12152D01*
Y45825D01*
X12148D01*
Y45829D01*
X12144D01*
Y45832D01*
X12140D01*
Y45836D01*
X12136D01*
Y45840D01*
X12133D01*
Y45844D01*
X12129D01*
Y45848D01*
X12121D01*
Y45851D01*
X12118D01*
Y45855D01*
X12114D01*
Y45859D01*
X12110D01*
Y45863D01*
X12106D01*
Y45867D01*
X12102D01*
Y45870D01*
X12099D01*
Y45874D01*
X12095D01*
Y45878D01*
X12091D01*
Y45882D01*
X12083D01*
Y45886D01*
X12080D01*
Y45889D01*
X12076D01*
Y45893D01*
X12072D01*
Y45897D01*
X12068D01*
Y45901D01*
X12064D01*
Y45905D01*
X12061D01*
Y45908D01*
X12057D01*
Y45912D01*
X12053D01*
Y45916D01*
X12049D01*
Y45920D01*
X12045D01*
Y45924D01*
X12038D01*
Y45927D01*
X12034D01*
Y45931D01*
X12030D01*
Y45935D01*
X12026D01*
Y45939D01*
X12023D01*
Y45943D01*
X12019D01*
Y45946D01*
X12011D01*
Y45954D01*
X12007D01*
Y45958D01*
X12000D01*
Y45965D01*
X11992D01*
Y45969D01*
X11988D01*
Y45973D01*
X11985D01*
Y45977D01*
X11981D01*
Y45981D01*
X11977D01*
Y45984D01*
X11973D01*
Y45988D01*
X11969D01*
Y45992D01*
X11962D01*
Y45996D01*
X11958D01*
Y46000D01*
X11954D01*
Y46003D01*
X11950D01*
Y46007D01*
X11947D01*
Y46011D01*
X11943D01*
Y46015D01*
X11939D01*
Y46019D01*
X11935D01*
Y46022D01*
X11931D01*
Y46026D01*
X11928D01*
Y46030D01*
X11924D01*
Y46034D01*
X11920D01*
Y46038D01*
X11912D01*
Y46041D01*
X11909D01*
Y46045D01*
X11905D01*
Y46049D01*
X11901D01*
Y46053D01*
X11897D01*
Y46057D01*
X11893D01*
Y46060D01*
X11890D01*
Y46064D01*
X11886D01*
Y46068D01*
X11882D01*
Y46072D01*
X11874D01*
Y46076D01*
X11871D01*
Y46079D01*
X11867D01*
Y46083D01*
X11863D01*
Y46087D01*
X11859D01*
Y46091D01*
X11855D01*
Y46094D01*
X11852D01*
Y46098D01*
X11848D01*
Y46102D01*
X11844D01*
Y46106D01*
X11840D01*
Y46110D01*
X11836D01*
Y46113D01*
X11829D01*
Y46117D01*
X11825D01*
Y46121D01*
X11821D01*
Y46125D01*
X11817D01*
Y46129D01*
X11814D01*
Y46132D01*
X11810D01*
Y46136D01*
X11806D01*
Y46140D01*
X11802D01*
Y46144D01*
X11798D01*
Y46148D01*
X11791D01*
Y46151D01*
X11787D01*
Y46155D01*
X11783D01*
Y46159D01*
X11779D01*
Y46163D01*
X11776D01*
Y46167D01*
X11772D01*
Y46170D01*
X11768D01*
Y46174D01*
X11764D01*
Y46178D01*
X11760D01*
Y46182D01*
X11757D01*
Y46186D01*
X11749D01*
Y46189D01*
X11745D01*
Y46193D01*
X11741D01*
Y46197D01*
X11738D01*
Y46201D01*
X11734D01*
Y46205D01*
X11730D01*
Y46208D01*
X11726D01*
Y46212D01*
X11722D01*
Y46216D01*
X11719D01*
Y46220D01*
X11715D01*
Y46224D01*
X11711D01*
Y46227D01*
X11703D01*
Y46231D01*
X11700D01*
Y46235D01*
X11696D01*
Y46239D01*
X11692D01*
Y46243D01*
X11688D01*
Y46246D01*
X11685D01*
Y46250D01*
X11681D01*
Y46254D01*
X11677D01*
Y46258D01*
X11673D01*
Y46262D01*
X11666D01*
Y46265D01*
X11662D01*
Y46269D01*
X11658D01*
Y46273D01*
X11654D01*
Y46277D01*
X11650D01*
Y46281D01*
X11647D01*
Y46284D01*
X11643D01*
Y46288D01*
X11639D01*
Y46292D01*
X11631D01*
Y46300D01*
X11628D01*
Y46303D01*
X11620D01*
Y46300D01*
X11616D01*
Y46292D01*
X11612D01*
Y46281D01*
X11609D01*
Y46269D01*
X11605D01*
Y46258D01*
X11601D01*
Y46243D01*
X11597D01*
Y46231D01*
X11593D01*
Y46220D01*
X11590D01*
Y46208D01*
X11586D01*
Y46197D01*
X11582D01*
Y46186D01*
X11578D01*
Y46174D01*
X11574D01*
Y46159D01*
X11571D01*
Y46148D01*
X11567D01*
Y46136D01*
X11563D01*
Y46125D01*
X11559D01*
Y46113D01*
X11555D01*
Y46102D01*
X11552D01*
Y46091D01*
X11548D01*
Y46076D01*
X11544D01*
Y46064D01*
X11540D01*
Y46053D01*
X11536D01*
Y46041D01*
X11533D01*
Y46030D01*
X11529D01*
Y46019D01*
X11525D01*
Y46003D01*
X11521D01*
Y45996D01*
X11517D01*
Y45981D01*
X11514D01*
Y45969D01*
X11510D01*
Y45958D01*
X11506D01*
Y45946D01*
X11502D01*
Y45935D01*
X11498D01*
Y45920D01*
X11495D01*
Y45908D01*
X11491D01*
Y45897D01*
X11487D01*
Y45886D01*
X11483D01*
Y45874D01*
X11479D01*
Y45863D01*
X11476D01*
Y45851D01*
X11472D01*
Y45836D01*
X11468D01*
Y45829D01*
X11464D01*
Y45813D01*
X11460D01*
Y45802D01*
X11457D01*
Y45791D01*
X11453D01*
Y45779D01*
X11449D01*
Y45768D01*
X11445D01*
Y45753D01*
X11441D01*
Y45741D01*
X11438D01*
Y45730D01*
X11434D01*
Y45718D01*
X11430D01*
Y45707D01*
X11426D01*
Y45696D01*
X11422D01*
Y45684D01*
X11419D01*
Y45673D01*
X11415D01*
Y45658D01*
X11411D01*
Y45646D01*
X11407D01*
Y45635D01*
X11403D01*
Y45624D01*
X11400D01*
Y45612D01*
X11396D01*
Y45601D01*
X11392D01*
Y45589D01*
X11388D01*
Y45574D01*
X11384D01*
Y45563D01*
X11381D01*
Y45551D01*
X11377D01*
Y45540D01*
X11373D01*
Y45529D01*
X11369D01*
Y45517D01*
X11365D01*
Y45502D01*
X11362D01*
Y45491D01*
X11358D01*
Y45479D01*
X11354D01*
Y45468D01*
X11350D01*
Y45456D01*
X11346D01*
Y45445D01*
X11343D01*
Y45434D01*
X11339D01*
Y45422D01*
X11335D01*
Y45407D01*
X11331D01*
Y45399D01*
X11327D01*
Y45384D01*
X11324D01*
Y45373D01*
X11320D01*
Y45361D01*
X11316D01*
Y45350D01*
X11312D01*
Y45339D01*
X11308D01*
Y45323D01*
X11305D01*
Y45312D01*
X11301D01*
Y45301D01*
X11297D01*
Y45289D01*
X11293D01*
Y45278D01*
X11290D01*
Y45266D01*
X11286D01*
Y45255D01*
X11282D01*
Y45240D01*
X11278D01*
Y45229D01*
X11274D01*
Y45217D01*
X11271D01*
Y45206D01*
X11267D01*
Y45194D01*
X11263D01*
Y45183D01*
X11259D01*
Y45172D01*
X11255D01*
Y45156D01*
X11252D01*
Y45145D01*
X11248D01*
Y45134D01*
X11244D01*
Y45122D01*
X11240D01*
Y45111D01*
X11236D01*
Y45099D01*
X11233D01*
Y45088D01*
X11229D01*
Y45073D01*
X11225D01*
Y45061D01*
X11221D01*
Y45050D01*
X11217D01*
Y45039D01*
X11214D01*
Y45027D01*
X11210D01*
Y45016D01*
X11206D01*
Y45001D01*
X11202D01*
Y44993D01*
X11198D01*
Y44978D01*
X11195D01*
Y44966D01*
X11191D01*
Y44955D01*
X11187D01*
Y44944D01*
X11183D01*
Y44932D01*
X11179D01*
Y44917D01*
X11176D01*
Y44909D01*
X11172D01*
Y44894D01*
X11168D01*
Y44883D01*
X11164D01*
Y44871D01*
X11160D01*
Y44860D01*
X11157D01*
Y44849D01*
X11153D01*
Y44833D01*
X11149D01*
Y44826D01*
X11145D01*
Y44811D01*
X11141D01*
Y44799D01*
X11138D01*
Y44788D01*
X11134D01*
Y44777D01*
X11130D01*
Y44765D01*
X11126D01*
Y44750D01*
X11122D01*
Y44742D01*
X11119D01*
Y44727D01*
X11115D01*
Y44716D01*
X11111D01*
Y44704D01*
X11107D01*
Y44693D01*
X11103D01*
Y44682D01*
X11100D01*
Y44670D01*
X11096D01*
Y44655D01*
X11092D01*
Y44644D01*
X11088D01*
Y44632D01*
X11084D01*
Y44621D01*
X11081D01*
Y44609D01*
X11077D01*
Y44598D01*
X11073D01*
Y44587D01*
X11069D01*
Y44571D01*
X11065D01*
Y44560D01*
X11062D01*
Y44549D01*
X11058D01*
Y44537D01*
X11054D01*
Y44526D01*
X11050D01*
Y44514D01*
X11046D01*
Y44503D01*
X11043D01*
Y44488D01*
X11039D01*
Y44476D01*
X11035D01*
Y44465D01*
X11031D01*
Y44454D01*
X11027D01*
Y44442D01*
X11024D01*
Y44431D01*
X11020D01*
Y44420D01*
X11016D01*
Y44404D01*
X11012D01*
Y44393D01*
X11008D01*
Y44382D01*
X11005D01*
Y44370D01*
X11001D01*
Y44359D01*
X10997D01*
Y44347D01*
X10993D01*
Y44336D01*
X10997D01*
Y44332D01*
X11172D01*
Y44157D01*
X11168D01*
Y44154D01*
X10454D01*
Y44157D01*
X10450D01*
Y44328D01*
X10454D01*
Y44332D01*
X10898D01*
Y44336D01*
X10902D01*
Y44340D01*
X10906D01*
Y44355D01*
X10910D01*
Y44366D01*
X10913D01*
Y44378D01*
X10917D01*
Y44389D01*
X10921D01*
Y44401D01*
X10925D01*
Y44412D01*
X10929D01*
Y44423D01*
X10932D01*
Y44435D01*
X10936D01*
Y44446D01*
X10940D01*
Y44457D01*
X10944D01*
Y44473D01*
X10948D01*
Y44484D01*
X10951D01*
Y44495D01*
X10955D01*
Y44507D01*
X10959D01*
Y44518D01*
X10963D01*
Y44530D01*
X10967D01*
Y44541D01*
X10970D01*
Y44556D01*
X10974D01*
Y44564D01*
X10978D01*
Y44579D01*
X10982D01*
Y44590D01*
X10986D01*
Y44602D01*
X10989D01*
Y44613D01*
X10993D01*
Y44625D01*
X10997D01*
Y44636D01*
X11001D01*
Y44647D01*
X11005D01*
Y44659D01*
X11008D01*
Y44674D01*
X11012D01*
Y44685D01*
X11016D01*
Y44697D01*
X11020D01*
Y44708D01*
X11024D01*
Y44720D01*
X11027D01*
Y44731D01*
X11031D01*
Y44742D01*
X11035D01*
Y44754D01*
X11039D01*
Y44765D01*
X11043D01*
Y44780D01*
X11046D01*
Y44792D01*
X11050D01*
Y44803D01*
X11054D01*
Y44815D01*
X11058D01*
Y44826D01*
X11062D01*
Y44837D01*
X11065D01*
Y44849D01*
X11069D01*
Y44860D01*
X11073D01*
Y44871D01*
X11077D01*
Y44887D01*
X11081D01*
Y44898D01*
X11084D01*
Y44909D01*
X11088D01*
Y44921D01*
X11092D01*
Y44932D01*
X11096D01*
Y44944D01*
X11100D01*
Y44955D01*
X11103D01*
Y44966D01*
X11107D01*
Y44982D01*
X11111D01*
Y44993D01*
X11115D01*
Y45004D01*
X11119D01*
Y45016D01*
X11122D01*
Y45027D01*
X11126D01*
Y45039D01*
X11130D01*
Y45050D01*
X11134D01*
Y45061D01*
X11138D01*
Y45073D01*
X11141D01*
Y45088D01*
X11145D01*
Y45099D01*
X11149D01*
Y45111D01*
X11153D01*
Y45122D01*
X11157D01*
Y45134D01*
X11160D01*
Y45145D01*
X11164D01*
Y45156D01*
X11168D01*
Y45168D01*
X11172D01*
Y45179D01*
X11176D01*
Y45191D01*
X11179D01*
Y45206D01*
X11183D01*
Y45217D01*
X11187D01*
Y45229D01*
X11191D01*
Y45240D01*
X11195D01*
Y45251D01*
X11198D01*
Y45263D01*
X11202D01*
Y45274D01*
X11206D01*
Y45285D01*
X11210D01*
Y45301D01*
X11214D01*
Y45308D01*
X11217D01*
Y45323D01*
X11221D01*
Y45335D01*
X11225D01*
Y45346D01*
X11229D01*
Y45358D01*
X11233D01*
Y45369D01*
X11236D01*
Y45380D01*
X11240D01*
Y45392D01*
X11244D01*
Y45407D01*
X11248D01*
Y45418D01*
X11252D01*
Y45430D01*
X11255D01*
Y45441D01*
X11259D01*
Y45453D01*
X11263D01*
Y45464D01*
X11267D01*
Y45475D01*
X11271D01*
Y45487D01*
X11274D01*
Y45498D01*
X11278D01*
Y45510D01*
X11282D01*
Y45525D01*
X11286D01*
Y45536D01*
X11290D01*
Y45548D01*
X11293D01*
Y45559D01*
X11297D01*
Y45570D01*
X11301D01*
Y45582D01*
X11305D01*
Y45593D01*
X11308D01*
Y45608D01*
X11312D01*
Y45620D01*
X11316D01*
Y45631D01*
X11320D01*
Y45643D01*
X11324D01*
Y45654D01*
X11327D01*
Y45665D01*
X11331D01*
Y45677D01*
X11335D01*
Y45688D01*
X11339D01*
Y45699D01*
X11343D01*
Y45711D01*
X11346D01*
Y45726D01*
X11350D01*
Y45737D01*
X11354D01*
Y45749D01*
X11358D01*
Y45760D01*
X11362D01*
Y45772D01*
X11365D01*
Y45783D01*
X11369D01*
Y45794D01*
X11373D01*
Y45810D01*
X11377D01*
Y45817D01*
X11381D01*
Y45832D01*
X11384D01*
Y45844D01*
X11388D01*
Y45855D01*
X11392D01*
Y45867D01*
X11396D01*
Y45878D01*
X11400D01*
Y45889D01*
X11403D01*
Y45901D01*
X11407D01*
Y45912D01*
X11411D01*
Y45927D01*
X11415D01*
Y45939D01*
X11419D01*
Y45950D01*
X11422D01*
Y45958D01*
X11426D01*
Y45973D01*
X11430D01*
Y45984D01*
X11434D01*
Y45996D01*
X11438D01*
Y46007D01*
X11441D01*
Y46019D01*
X11445D01*
Y46034D01*
X11449D01*
Y46045D01*
X11453D01*
Y46057D01*
X11457D01*
Y46068D01*
X11460D01*
Y46079D01*
X11464D01*
Y46091D01*
X11468D01*
Y46102D01*
X11472D01*
Y46117D01*
X11476D01*
Y46125D01*
X11479D01*
Y46140D01*
X11483D01*
Y46151D01*
X11487D01*
Y46163D01*
X11491D01*
Y46174D01*
X11495D01*
Y46186D01*
X11498D01*
Y46197D01*
X11502D01*
Y46208D01*
X11506D01*
Y46220D01*
X11510D01*
Y46235D01*
X11514D01*
Y46246D01*
X11517D01*
Y46258D01*
X11521D01*
Y46269D01*
X11525D01*
Y46281D01*
X11529D01*
Y46292D01*
X11533D01*
Y46303D01*
X11536D01*
Y46315D01*
X11540D01*
Y46326D01*
X11544D01*
Y46341D01*
X11548D01*
Y46353D01*
X11552D01*
Y46364D01*
X11555D01*
Y46376D01*
X11559D01*
Y46387D01*
X11563D01*
Y46398D01*
X11567D01*
Y46410D01*
X11571D01*
Y46421D01*
X11574D01*
Y46436D01*
X11578D01*
Y46448D01*
X11582D01*
Y46459D01*
X11586D01*
Y46471D01*
X11590D01*
Y46482D01*
X11593D01*
Y46493D01*
X11597D01*
Y46505D01*
X11601D01*
Y46516D01*
X11605D01*
Y46527D01*
X11609D01*
Y46543D01*
X11612D01*
Y46550D01*
X11616D01*
Y46565D01*
X11620D01*
Y46577D01*
X11624D01*
Y46588D01*
X11628D01*
Y46600D01*
X11631D01*
Y46611D01*
X11635D01*
Y46622D01*
X11639D01*
Y46634D01*
X11643D01*
Y46649D01*
X11647D01*
Y46660D01*
X11650D01*
Y46672D01*
X11654D01*
Y46683D01*
X11658D01*
Y46695D01*
X11662D01*
Y46706D01*
X11666D01*
Y46717D01*
X11669D01*
Y46729D01*
X11673D01*
Y46744D01*
X11677D01*
Y46752D01*
X11681D01*
Y46767D01*
X11685D01*
Y46778D01*
X11688D01*
Y46790D01*
X11692D01*
Y46801D01*
X11696D01*
Y46812D01*
X11700D01*
Y46824D01*
X11703D01*
Y46835D01*
X11707D01*
Y46839D01*
X11711D01*
Y46843D01*
X11715D01*
Y46839D01*
X11719D01*
Y46835D01*
X11722D01*
Y46831D01*
X11726D01*
Y46828D01*
X11730D01*
Y46824D01*
X11734D01*
Y46820D01*
X11738D01*
Y46816D01*
X11741D01*
Y46812D01*
X11745D01*
Y46809D01*
X11749D01*
Y46805D01*
X11753D01*
Y46801D01*
X11757D01*
Y46797D01*
X11760D01*
Y46793D01*
X11764D01*
Y46790D01*
X11768D01*
Y46786D01*
X11772D01*
Y46782D01*
X11776D01*
Y46778D01*
X11779D01*
Y46774D01*
X11783D01*
Y46771D01*
X11787D01*
Y46767D01*
X11791D01*
Y46763D01*
X11795D01*
Y46759D01*
X11798D01*
Y46755D01*
X11802D01*
Y46752D01*
X11806D01*
Y46748D01*
X11810D01*
Y46744D01*
X11814D01*
Y46740D01*
X11817D01*
Y46736D01*
X11821D01*
Y46733D01*
X11825D01*
Y46729D01*
X11829D01*
Y46725D01*
X11833D01*
Y46721D01*
X11836D01*
Y46717D01*
X11840D01*
Y46714D01*
X11844D01*
Y46710D01*
X11848D01*
Y46706D01*
X11852D01*
Y46702D01*
X11855D01*
Y46698D01*
X11859D01*
Y46695D01*
X11863D01*
Y46691D01*
X11867D01*
Y46687D01*
X11871D01*
Y46683D01*
X11874D01*
Y46679D01*
X11878D01*
Y46676D01*
X11882D01*
Y46672D01*
X11886D01*
Y46668D01*
X11890D01*
Y46664D01*
X11893D01*
Y46660D01*
X11897D01*
Y46657D01*
X11901D01*
Y46653D01*
X11905D01*
Y46649D01*
X11909D01*
Y46645D01*
X11912D01*
Y46641D01*
X11916D01*
Y46638D01*
X11920D01*
Y46634D01*
X11924D01*
Y46630D01*
X11928D01*
Y46626D01*
X11931D01*
Y46622D01*
X11935D01*
Y46619D01*
X11939D01*
Y46615D01*
X11943D01*
Y46611D01*
X11947D01*
Y46607D01*
X11950D01*
Y46603D01*
X11954D01*
Y46600D01*
X11958D01*
Y46596D01*
X11962D01*
Y46592D01*
X11966D01*
Y46588D01*
X11969D01*
Y46584D01*
X11973D01*
Y46581D01*
X11977D01*
Y46577D01*
X11981D01*
Y46573D01*
X11985D01*
Y46569D01*
X11988D01*
Y46565D01*
X11992D01*
Y46562D01*
X11996D01*
Y46558D01*
X12000D01*
Y46554D01*
X12004D01*
Y46550D01*
X12007D01*
Y46546D01*
X12011D01*
Y46543D01*
X12015D01*
Y46539D01*
X12019D01*
Y46535D01*
X12023D01*
Y46531D01*
X12026D01*
Y46527D01*
X12030D01*
Y46524D01*
X12034D01*
Y46520D01*
X12038D01*
Y46516D01*
X12042D01*
Y46512D01*
X12045D01*
Y46508D01*
X12049D01*
Y46505D01*
X12053D01*
Y46501D01*
X12057D01*
Y46497D01*
X12061D01*
Y46493D01*
X12064D01*
Y46489D01*
X12068D01*
Y46486D01*
X12072D01*
Y46482D01*
X12076D01*
Y46478D01*
X12080D01*
Y46474D01*
X12083D01*
Y46471D01*
X12087D01*
Y46467D01*
X12091D01*
Y46463D01*
X12095D01*
Y46459D01*
X12099D01*
Y46455D01*
X12102D01*
Y46452D01*
X12106D01*
Y46448D01*
X12110D01*
Y46444D01*
X12114D01*
Y46440D01*
X12118D01*
Y46436D01*
X12121D01*
Y46433D01*
X12125D01*
Y46429D01*
X12129D01*
Y46425D01*
X12133D01*
Y46421D01*
X12136D01*
Y46417D01*
X12140D01*
Y46414D01*
X12144D01*
Y46410D01*
X12148D01*
Y46406D01*
X12152D01*
Y46402D01*
X12155D01*
Y46398D01*
X12159D01*
Y46395D01*
X12163D01*
Y46391D01*
X12167D01*
Y46387D01*
X12171D01*
Y46383D01*
X12174D01*
Y46379D01*
X12178D01*
Y46376D01*
X12182D01*
Y46372D01*
X12186D01*
Y46368D01*
X12190D01*
Y46364D01*
X12193D01*
Y46360D01*
X12197D01*
Y46357D01*
X12201D01*
Y46353D01*
X12205D01*
Y46349D01*
X12209D01*
Y46345D01*
X12212D01*
Y46341D01*
X12216D01*
Y46338D01*
X12220D01*
Y46334D01*
X12224D01*
Y46330D01*
X12228D01*
Y46326D01*
X12231D01*
Y46322D01*
X12235D01*
Y46319D01*
X12239D01*
Y46315D01*
X12243D01*
Y46311D01*
X12247D01*
Y46307D01*
X12250D01*
Y46303D01*
X12254D01*
Y46300D01*
X12258D01*
Y46292D01*
X12266D01*
Y46288D01*
X12269D01*
Y46284D01*
X12273D01*
Y46281D01*
X12277D01*
Y46277D01*
X12281D01*
Y46273D01*
X12285D01*
Y46269D01*
X12288D01*
Y46265D01*
X12292D01*
Y46262D01*
X12296D01*
Y46258D01*
X12300D01*
Y46254D01*
X12304D01*
Y46250D01*
X12307D01*
Y46246D01*
X12311D01*
Y46243D01*
X12315D01*
Y46239D01*
X12319D01*
Y46235D01*
X12323D01*
Y46231D01*
X12326D01*
Y46227D01*
X12330D01*
Y46224D01*
X12334D01*
Y46220D01*
X12338D01*
Y46216D01*
X12342D01*
Y46212D01*
X12345D01*
Y46208D01*
X12349D01*
Y46205D01*
X12353D01*
Y46201D01*
X12357D01*
Y46197D01*
X12361D01*
Y46193D01*
X12364D01*
Y46189D01*
X12368D01*
Y46186D01*
X12372D01*
Y46182D01*
X12376D01*
Y46178D01*
X12380D01*
Y46174D01*
X12383D01*
Y46170D01*
X12387D01*
Y46167D01*
X12391D01*
Y46163D01*
X12395D01*
Y46159D01*
X12399D01*
Y46155D01*
X12402D01*
Y46151D01*
X12406D01*
Y46148D01*
X12410D01*
Y46144D01*
X12414D01*
Y46140D01*
X12418D01*
Y46136D01*
X12421D01*
Y46132D01*
X12425D01*
Y46129D01*
X12429D01*
Y46125D01*
X12433D01*
Y46121D01*
X12437D01*
Y46117D01*
X12440D01*
Y46113D01*
X12444D01*
Y46110D01*
X12448D01*
Y46106D01*
X12452D01*
Y46102D01*
X12456D01*
Y46098D01*
X12459D01*
Y46094D01*
X12463D01*
Y46091D01*
X12467D01*
Y46087D01*
X12471D01*
Y46083D01*
X12475D01*
Y46079D01*
X12478D01*
Y46076D01*
X12482D01*
Y46072D01*
X12486D01*
Y46068D01*
X12490D01*
Y46064D01*
X12494D01*
Y46060D01*
X12497D01*
Y46057D01*
X12501D01*
Y46053D01*
X12505D01*
Y46049D01*
X12509D01*
Y46045D01*
X12512D01*
Y46041D01*
X12516D01*
Y46038D01*
X12520D01*
Y46034D01*
X12524D01*
Y46030D01*
X12528D01*
Y46026D01*
X12531D01*
Y46022D01*
X12535D01*
Y46019D01*
X12539D01*
Y46015D01*
X12543D01*
Y46011D01*
X12547D01*
Y46007D01*
X12550D01*
Y46003D01*
X12554D01*
Y46000D01*
X12558D01*
Y45996D01*
X12562D01*
Y45992D01*
X12566D01*
Y45988D01*
X12569D01*
Y45984D01*
X12573D01*
Y45981D01*
X12577D01*
Y45977D01*
X12581D01*
Y45973D01*
X12585D01*
Y45969D01*
X12588D01*
Y45965D01*
X12592D01*
Y45958D01*
X12607D01*
Y47021D01*
X12604D01*
Y47025D01*
X12159D01*
Y47033D01*
X12155D01*
Y47200D01*
X12159D01*
Y47204D01*
X12775D01*
Y47207D01*
X12778D01*
Y47204D01*
D02*
G37*
G36*
X12976D02*
X13595D01*
Y47029D01*
X13591D01*
Y47025D01*
X13147D01*
Y47017D01*
X13143D01*
Y47010D01*
X13147D01*
Y46850D01*
X13143D01*
Y46828D01*
X13147D01*
Y46315D01*
X13143D01*
Y46292D01*
X13147D01*
Y45969D01*
X13143D01*
Y45958D01*
X13147D01*
Y45954D01*
X13151D01*
Y45958D01*
X13158D01*
Y45965D01*
X13162D01*
Y45969D01*
X13166D01*
Y45973D01*
X13170D01*
Y45977D01*
X13173D01*
Y45981D01*
X13177D01*
Y45984D01*
X13181D01*
Y45988D01*
X13185D01*
Y45992D01*
X13189D01*
Y45996D01*
X13192D01*
Y46000D01*
X13196D01*
Y46003D01*
X13200D01*
Y46007D01*
X13204D01*
Y46011D01*
X13208D01*
Y46015D01*
X13211D01*
Y46019D01*
X13215D01*
Y46022D01*
X13219D01*
Y46026D01*
X13223D01*
Y46030D01*
X13227D01*
Y46034D01*
X13230D01*
Y46038D01*
X13234D01*
Y46041D01*
X13238D01*
Y46045D01*
X13242D01*
Y46049D01*
X13246D01*
Y46053D01*
X13249D01*
Y46057D01*
X13253D01*
Y46060D01*
X13257D01*
Y46064D01*
X13261D01*
Y46068D01*
X13265D01*
Y46072D01*
X13268D01*
Y46076D01*
X13272D01*
Y46079D01*
X13276D01*
Y46083D01*
X13280D01*
Y46087D01*
X13284D01*
Y46091D01*
X13287D01*
Y46094D01*
X13291D01*
Y46098D01*
X13295D01*
Y46102D01*
X13299D01*
Y46106D01*
X13303D01*
Y46110D01*
X13306D01*
Y46113D01*
X13310D01*
Y46117D01*
X13314D01*
Y46121D01*
X13318D01*
Y46125D01*
X13322D01*
Y46129D01*
X13325D01*
Y46132D01*
X13329D01*
Y46136D01*
X13333D01*
Y46140D01*
X13337D01*
Y46144D01*
X13340D01*
Y46148D01*
X13344D01*
Y46151D01*
X13348D01*
Y46155D01*
X13352D01*
Y46159D01*
X13356D01*
Y46163D01*
X13359D01*
Y46167D01*
X13363D01*
Y46170D01*
X13367D01*
Y46174D01*
X13371D01*
Y46178D01*
X13375D01*
Y46182D01*
X13378D01*
Y46186D01*
X13382D01*
Y46189D01*
X13386D01*
Y46193D01*
X13390D01*
Y46197D01*
X13394D01*
Y46201D01*
X13397D01*
Y46205D01*
X13401D01*
Y46208D01*
X13405D01*
Y46212D01*
X13409D01*
Y46216D01*
X13413D01*
Y46220D01*
X13416D01*
Y46224D01*
X13420D01*
Y46227D01*
X13424D01*
Y46231D01*
X13428D01*
Y46235D01*
X13432D01*
Y46239D01*
X13435D01*
Y46243D01*
X13439D01*
Y46246D01*
X13443D01*
Y46250D01*
X13447D01*
Y46254D01*
X13451D01*
Y46258D01*
X13454D01*
Y46262D01*
X13458D01*
Y46265D01*
X13462D01*
Y46269D01*
X13466D01*
Y46273D01*
X13470D01*
Y46277D01*
X13473D01*
Y46281D01*
X13477D01*
Y46284D01*
X13481D01*
Y46288D01*
X13485D01*
Y46292D01*
X13492D01*
Y46300D01*
X13496D01*
Y46303D01*
X13500D01*
Y46307D01*
X13504D01*
Y46311D01*
X13508D01*
Y46315D01*
X13511D01*
Y46319D01*
X13515D01*
Y46322D01*
X13519D01*
Y46326D01*
X13523D01*
Y46330D01*
X13527D01*
Y46334D01*
X13530D01*
Y46338D01*
X13534D01*
Y46341D01*
X13538D01*
Y46345D01*
X13542D01*
Y46349D01*
X13546D01*
Y46353D01*
X13549D01*
Y46357D01*
X13553D01*
Y46360D01*
X13557D01*
Y46364D01*
X13561D01*
Y46368D01*
X13565D01*
Y46372D01*
X13568D01*
Y46376D01*
X13572D01*
Y46379D01*
X13576D01*
Y46383D01*
X13580D01*
Y46387D01*
X13584D01*
Y46391D01*
X13587D01*
Y46395D01*
X13591D01*
Y46398D01*
X13595D01*
Y46402D01*
X13599D01*
Y46406D01*
X13603D01*
Y46410D01*
X13606D01*
Y46414D01*
X13610D01*
Y46417D01*
X13614D01*
Y46421D01*
X13618D01*
Y46425D01*
X13622D01*
Y46429D01*
X13625D01*
Y46433D01*
X13629D01*
Y46436D01*
X13633D01*
Y46440D01*
X13637D01*
Y46444D01*
X13641D01*
Y46448D01*
X13644D01*
Y46452D01*
X13648D01*
Y46455D01*
X13652D01*
Y46459D01*
X13656D01*
Y46463D01*
X13660D01*
Y46467D01*
X13663D01*
Y46471D01*
X13667D01*
Y46474D01*
X13671D01*
Y46478D01*
X13675D01*
Y46482D01*
X13679D01*
Y46486D01*
X13682D01*
Y46489D01*
X13686D01*
Y46493D01*
X13690D01*
Y46497D01*
X13694D01*
Y46501D01*
X13698D01*
Y46505D01*
X13701D01*
Y46508D01*
X13705D01*
Y46512D01*
X13709D01*
Y46516D01*
X13713D01*
Y46520D01*
X13717D01*
Y46524D01*
X13720D01*
Y46527D01*
X13724D01*
Y46531D01*
X13728D01*
Y46535D01*
X13732D01*
Y46539D01*
X13736D01*
Y46543D01*
X13739D01*
Y46546D01*
X13743D01*
Y46550D01*
X13747D01*
Y46554D01*
X13751D01*
Y46558D01*
X13755D01*
Y46562D01*
X13758D01*
Y46565D01*
X13762D01*
Y46569D01*
X13766D01*
Y46573D01*
X13770D01*
Y46577D01*
X13773D01*
Y46581D01*
X13777D01*
Y46584D01*
X13781D01*
Y46588D01*
X13785D01*
Y46592D01*
X13789D01*
Y46596D01*
X13792D01*
Y46600D01*
X13796D01*
Y46603D01*
X13800D01*
Y46607D01*
X13804D01*
Y46611D01*
X13808D01*
Y46615D01*
X13811D01*
Y46619D01*
X13815D01*
Y46622D01*
X13819D01*
Y46626D01*
X13823D01*
Y46630D01*
X13827D01*
Y46634D01*
X13830D01*
Y46638D01*
X13834D01*
Y46641D01*
X13838D01*
Y46645D01*
X13842D01*
Y46649D01*
X13846D01*
Y46653D01*
X13849D01*
Y46657D01*
X13853D01*
Y46660D01*
X13857D01*
Y46664D01*
X13861D01*
Y46668D01*
X13865D01*
Y46672D01*
X13868D01*
Y46676D01*
X13872D01*
Y46679D01*
X13876D01*
Y46683D01*
X13880D01*
Y46687D01*
X13884D01*
Y46691D01*
X13887D01*
Y46695D01*
X13891D01*
Y46698D01*
X13895D01*
Y46702D01*
X13899D01*
Y46706D01*
X13903D01*
Y46710D01*
X13906D01*
Y46714D01*
X13910D01*
Y46717D01*
X13914D01*
Y46721D01*
X13918D01*
Y46725D01*
X13922D01*
Y46729D01*
X13925D01*
Y46733D01*
X13929D01*
Y46736D01*
X13933D01*
Y46740D01*
X13937D01*
Y46744D01*
X13941D01*
Y46748D01*
X13944D01*
Y46752D01*
X13948D01*
Y46755D01*
X13952D01*
Y46759D01*
X13956D01*
Y46763D01*
X13960D01*
Y46767D01*
X13963D01*
Y46771D01*
X13967D01*
Y46774D01*
X13971D01*
Y46778D01*
X13975D01*
Y46782D01*
X13979D01*
Y46786D01*
X13982D01*
Y46790D01*
X13986D01*
Y46793D01*
X13990D01*
Y46797D01*
X13994D01*
Y46801D01*
X13998D01*
Y46805D01*
X14001D01*
Y46809D01*
X14005D01*
Y46812D01*
X14009D01*
Y46816D01*
X14013D01*
Y46820D01*
X14017D01*
Y46824D01*
X14020D01*
Y46828D01*
X14024D01*
Y46831D01*
X14028D01*
Y46835D01*
X14032D01*
Y46839D01*
X14036D01*
Y46843D01*
X14039D01*
Y46839D01*
X14043D01*
Y46835D01*
X14047D01*
Y46824D01*
X14051D01*
Y46812D01*
X14055D01*
Y46801D01*
X14058D01*
Y46790D01*
X14062D01*
Y46778D01*
X14066D01*
Y46767D01*
X14070D01*
Y46752D01*
X14074D01*
Y46744D01*
X14077D01*
Y46729D01*
X14081D01*
Y46717D01*
X14085D01*
Y46706D01*
X14089D01*
Y46695D01*
X14093D01*
Y46683D01*
X14096D01*
Y46672D01*
X14100D01*
Y46660D01*
X14104D01*
Y46649D01*
X14108D01*
Y46634D01*
X14112D01*
Y46622D01*
X14115D01*
Y46611D01*
X14119D01*
Y46600D01*
X14123D01*
Y46588D01*
X14127D01*
Y46577D01*
X14131D01*
Y46565D01*
X14134D01*
Y46554D01*
X14138D01*
Y46543D01*
X14142D01*
Y46527D01*
X14146D01*
Y46516D01*
X14150D01*
Y46505D01*
X14153D01*
Y46493D01*
X14157D01*
Y46482D01*
X14161D01*
Y46471D01*
X14165D01*
Y46459D01*
X14168D01*
Y46448D01*
X14172D01*
Y46436D01*
X14176D01*
Y46421D01*
X14180D01*
Y46410D01*
X14184D01*
Y46398D01*
X14187D01*
Y46387D01*
X14191D01*
Y46376D01*
X14195D01*
Y46364D01*
X14199D01*
Y46353D01*
X14203D01*
Y46341D01*
X14206D01*
Y46326D01*
X14210D01*
Y46319D01*
X14214D01*
Y46303D01*
X14218D01*
Y46292D01*
X14222D01*
Y46281D01*
X14225D01*
Y46269D01*
X14229D01*
Y46258D01*
X14233D01*
Y46246D01*
X14237D01*
Y46235D01*
X14241D01*
Y46220D01*
X14244D01*
Y46208D01*
X14248D01*
Y46197D01*
X14252D01*
Y46186D01*
X14256D01*
Y46174D01*
X14260D01*
Y46163D01*
X14263D01*
Y46151D01*
X14267D01*
Y46140D01*
X14271D01*
Y46129D01*
X14275D01*
Y46117D01*
X14279D01*
Y46102D01*
X14282D01*
Y46091D01*
X14286D01*
Y46079D01*
X14290D01*
Y46068D01*
X14294D01*
Y46057D01*
X14298D01*
Y46045D01*
X14301D01*
Y46034D01*
X14305D01*
Y46022D01*
X14309D01*
Y46011D01*
X14313D01*
Y45996D01*
X14317D01*
Y45984D01*
X14320D01*
Y45973D01*
X14324D01*
Y45958D01*
X14328D01*
Y45950D01*
X14332D01*
Y45939D01*
X14336D01*
Y45927D01*
X14339D01*
Y45916D01*
X14343D01*
Y45901D01*
X14347D01*
Y45893D01*
X14351D01*
Y45878D01*
X14355D01*
Y45867D01*
X14358D01*
Y45855D01*
X14362D01*
Y45844D01*
X14366D01*
Y45832D01*
X14370D01*
Y45821D01*
X14374D01*
Y45810D01*
X14377D01*
Y45798D01*
X14381D01*
Y45783D01*
X14385D01*
Y45772D01*
X14389D01*
Y45760D01*
X14393D01*
Y45749D01*
X14396D01*
Y45737D01*
X14400D01*
Y45726D01*
X14404D01*
Y45715D01*
X14408D01*
Y45703D01*
X14412D01*
Y45692D01*
X14415D01*
Y45677D01*
X14419D01*
Y45665D01*
X14423D01*
Y45654D01*
X14427D01*
Y45643D01*
X14431D01*
Y45631D01*
X14434D01*
Y45620D01*
X14438D01*
Y45608D01*
X14442D01*
Y45597D01*
X14446D01*
Y45586D01*
X14450D01*
Y45574D01*
X14453D01*
Y45559D01*
X14457D01*
Y45548D01*
X14461D01*
Y45536D01*
X14465D01*
Y45525D01*
X14469D01*
Y45513D01*
X14472D01*
Y45502D01*
X14476D01*
Y45491D01*
X14480D01*
Y45475D01*
X14484D01*
Y45468D01*
X14488D01*
Y45453D01*
X14491D01*
Y45441D01*
X14495D01*
Y45430D01*
X14499D01*
Y45418D01*
X14503D01*
Y45407D01*
X14507D01*
Y45396D01*
X14510D01*
Y45384D01*
X14514D01*
Y45373D01*
X14518D01*
Y45358D01*
X14522D01*
Y45346D01*
X14526D01*
Y45335D01*
X14529D01*
Y45323D01*
X14533D01*
Y45312D01*
X14537D01*
Y45301D01*
X14541D01*
Y45289D01*
X14545D01*
Y45274D01*
X14548D01*
Y45266D01*
X14552D01*
Y45251D01*
X14556D01*
Y45240D01*
X14560D01*
Y45229D01*
X14564D01*
Y45217D01*
X14567D01*
Y45206D01*
X14571D01*
Y45194D01*
X14575D01*
Y45183D01*
X14579D01*
Y45172D01*
X14583D01*
Y45160D01*
X14586D01*
Y45145D01*
X14590D01*
Y45134D01*
X14594D01*
Y45122D01*
X14598D01*
Y45111D01*
X14601D01*
Y45099D01*
X14605D01*
Y45088D01*
X14609D01*
Y45077D01*
X14613D01*
Y45065D01*
X14617D01*
Y45050D01*
X14620D01*
Y45042D01*
X14624D01*
Y45027D01*
X14628D01*
Y45016D01*
X14632D01*
Y45004D01*
X14636D01*
Y44993D01*
X14639D01*
Y44982D01*
X14643D01*
Y44970D01*
X14647D01*
Y44959D01*
X14651D01*
Y44944D01*
X14655D01*
Y44932D01*
X14658D01*
Y44921D01*
X14662D01*
Y44909D01*
X14666D01*
Y44898D01*
X14670D01*
Y44887D01*
X14674D01*
Y44875D01*
X14677D01*
Y44864D01*
X14681D01*
Y44853D01*
X14685D01*
Y44841D01*
X14689D01*
Y44826D01*
X14693D01*
Y44815D01*
X14696D01*
Y44803D01*
X14700D01*
Y44792D01*
X14704D01*
Y44780D01*
X14708D01*
Y44769D01*
X14712D01*
Y44758D01*
X14715D01*
Y44742D01*
X14719D01*
Y44735D01*
X14723D01*
Y44720D01*
X14727D01*
Y44708D01*
X14731D01*
Y44697D01*
X14734D01*
Y44685D01*
X14738D01*
Y44674D01*
X14742D01*
Y44663D01*
X14746D01*
Y44651D01*
X14750D01*
Y44640D01*
X14753D01*
Y44625D01*
X14757D01*
Y44613D01*
X14761D01*
Y44602D01*
X14765D01*
Y44590D01*
X14769D01*
Y44579D01*
X14772D01*
Y44568D01*
X14776D01*
Y44556D01*
X14780D01*
Y44545D01*
X14784D01*
Y44533D01*
X14788D01*
Y44522D01*
X14791D01*
Y44507D01*
X14795D01*
Y44495D01*
X14799D01*
Y44484D01*
X14803D01*
Y44473D01*
X14807D01*
Y44461D01*
X14810D01*
Y44450D01*
X14814D01*
Y44438D01*
X14818D01*
Y44423D01*
X14822D01*
Y44416D01*
X14826D01*
Y44401D01*
X14829D01*
Y44389D01*
X14833D01*
Y44378D01*
X14837D01*
Y44366D01*
X14841D01*
Y44355D01*
X14845D01*
Y44340D01*
X14848D01*
Y44336D01*
X14852D01*
Y44332D01*
X15300D01*
Y44157D01*
X15297D01*
Y44154D01*
X14583D01*
Y44161D01*
X14579D01*
Y44328D01*
X14583D01*
Y44332D01*
X14753D01*
Y44336D01*
X14757D01*
Y44347D01*
X14753D01*
Y44363D01*
X14750D01*
Y44370D01*
X14746D01*
Y44385D01*
X14742D01*
Y44397D01*
X14738D01*
Y44408D01*
X14734D01*
Y44420D01*
X14731D01*
Y44431D01*
X14727D01*
Y44442D01*
X14723D01*
Y44457D01*
X14719D01*
Y44469D01*
X14715D01*
Y44480D01*
X14712D01*
Y44492D01*
X14708D01*
Y44503D01*
X14704D01*
Y44514D01*
X14700D01*
Y44526D01*
X14696D01*
Y44541D01*
X14693D01*
Y44552D01*
X14689D01*
Y44564D01*
X14685D01*
Y44575D01*
X14681D01*
Y44587D01*
X14677D01*
Y44598D01*
X14674D01*
Y44609D01*
X14670D01*
Y44625D01*
X14666D01*
Y44636D01*
X14662D01*
Y44647D01*
X14658D01*
Y44659D01*
X14655D01*
Y44670D01*
X14651D01*
Y44682D01*
X14647D01*
Y44693D01*
X14643D01*
Y44708D01*
X14639D01*
Y44716D01*
X14636D01*
Y44731D01*
X14632D01*
Y44742D01*
X14628D01*
Y44754D01*
X14624D01*
Y44765D01*
X14620D01*
Y44777D01*
X14617D01*
Y44792D01*
X14613D01*
Y44799D01*
X14609D01*
Y44815D01*
X14605D01*
Y44826D01*
X14601D01*
Y44837D01*
X14598D01*
Y44849D01*
X14594D01*
Y44860D01*
X14590D01*
Y44871D01*
X14586D01*
Y44887D01*
X14583D01*
Y44898D01*
X14579D01*
Y44909D01*
X14575D01*
Y44921D01*
X14571D01*
Y44932D01*
X14567D01*
Y44944D01*
X14564D01*
Y44955D01*
X14560D01*
Y44970D01*
X14556D01*
Y44982D01*
X14552D01*
Y44993D01*
X14548D01*
Y45004D01*
X14545D01*
Y45016D01*
X14541D01*
Y45027D01*
X14537D01*
Y45042D01*
X14533D01*
Y45054D01*
X14529D01*
Y45065D01*
X14526D01*
Y45077D01*
X14522D01*
Y45088D01*
X14518D01*
Y45099D01*
X14514D01*
Y45111D01*
X14510D01*
Y45122D01*
X14507D01*
Y45137D01*
X14503D01*
Y45149D01*
X14499D01*
Y45160D01*
X14495D01*
Y45172D01*
X14491D01*
Y45183D01*
X14488D01*
Y45198D01*
X14484D01*
Y45206D01*
X14480D01*
Y45221D01*
X14476D01*
Y45232D01*
X14472D01*
Y45244D01*
X14469D01*
Y45255D01*
X14465D01*
Y45266D01*
X14461D01*
Y45278D01*
X14457D01*
Y45289D01*
X14453D01*
Y45304D01*
X14450D01*
Y45316D01*
X14446D01*
Y45327D01*
X14442D01*
Y45339D01*
X14438D01*
Y45350D01*
X14434D01*
Y45361D01*
X14431D01*
Y45373D01*
X14427D01*
Y45388D01*
X14423D01*
Y45399D01*
X14419D01*
Y45407D01*
X14415D01*
Y45422D01*
X14412D01*
Y45434D01*
X14408D01*
Y45445D01*
X14404D01*
Y45456D01*
X14400D01*
Y45472D01*
X14396D01*
Y45483D01*
X14393D01*
Y45494D01*
X14389D01*
Y45506D01*
X14385D01*
Y45517D01*
X14381D01*
Y45529D01*
X14377D01*
Y45544D01*
X14374D01*
Y45555D01*
X14370D01*
Y45567D01*
X14366D01*
Y45578D01*
X14362D01*
Y45589D01*
X14358D01*
Y45601D01*
X14355D01*
Y45612D01*
X14351D01*
Y45627D01*
X14347D01*
Y45639D01*
X14343D01*
Y45650D01*
X14339D01*
Y45661D01*
X14336D01*
Y45673D01*
X14332D01*
Y45684D01*
X14328D01*
Y45696D01*
X14324D01*
Y45711D01*
X14320D01*
Y45718D01*
X14317D01*
Y45734D01*
X14313D01*
Y45745D01*
X14309D01*
Y45756D01*
X14305D01*
Y45768D01*
X14301D01*
Y45779D01*
X14298D01*
Y45794D01*
X14294D01*
Y45802D01*
X14290D01*
Y45817D01*
X14286D01*
Y45829D01*
X14282D01*
Y45840D01*
X14279D01*
Y45851D01*
X14275D01*
Y45863D01*
X14271D01*
Y45874D01*
X14267D01*
Y45889D01*
X14263D01*
Y45901D01*
X14260D01*
Y45912D01*
X14256D01*
Y45924D01*
X14252D01*
Y45935D01*
X14248D01*
Y45946D01*
X14244D01*
Y45958D01*
X14241D01*
Y45973D01*
X14237D01*
Y45984D01*
X14233D01*
Y45996D01*
X14229D01*
Y46007D01*
X14225D01*
Y46019D01*
X14222D01*
Y46030D01*
X14218D01*
Y46045D01*
X14214D01*
Y46057D01*
X14210D01*
Y46068D01*
X14206D01*
Y46079D01*
X14203D01*
Y46091D01*
X14199D01*
Y46102D01*
X14195D01*
Y46113D01*
X14191D01*
Y46125D01*
X14187D01*
Y46140D01*
X14184D01*
Y46151D01*
X14180D01*
Y46163D01*
X14176D01*
Y46174D01*
X14172D01*
Y46186D01*
X14168D01*
Y46197D01*
X14165D01*
Y46208D01*
X14161D01*
Y46224D01*
X14157D01*
Y46235D01*
X14153D01*
Y46246D01*
X14150D01*
Y46258D01*
X14146D01*
Y46269D01*
X14142D01*
Y46281D01*
X14138D01*
Y46292D01*
X14134D01*
Y46303D01*
X14123D01*
Y46296D01*
X14119D01*
Y46292D01*
X14112D01*
Y46288D01*
X14108D01*
Y46284D01*
X14104D01*
Y46281D01*
X14100D01*
Y46277D01*
X14096D01*
Y46273D01*
X14093D01*
Y46269D01*
X14089D01*
Y46265D01*
X14085D01*
Y46262D01*
X14081D01*
Y46258D01*
X14077D01*
Y46254D01*
X14070D01*
Y46250D01*
X14066D01*
Y46246D01*
X14062D01*
Y46243D01*
X14058D01*
Y46239D01*
X14055D01*
Y46235D01*
X14051D01*
Y46231D01*
X14047D01*
Y46227D01*
X14043D01*
Y46224D01*
X14039D01*
Y46220D01*
X14032D01*
Y46216D01*
X14028D01*
Y46212D01*
X14024D01*
Y46208D01*
X14020D01*
Y46205D01*
X14017D01*
Y46201D01*
X14013D01*
Y46197D01*
X14009D01*
Y46193D01*
X14005D01*
Y46189D01*
X14001D01*
Y46186D01*
X13998D01*
Y46182D01*
X13994D01*
Y46178D01*
X13986D01*
Y46174D01*
X13982D01*
Y46170D01*
X13979D01*
Y46167D01*
X13975D01*
Y46163D01*
X13971D01*
Y46159D01*
X13967D01*
Y46155D01*
X13963D01*
Y46151D01*
X13960D01*
Y46148D01*
X13956D01*
Y46144D01*
X13952D01*
Y46140D01*
X13944D01*
Y46136D01*
X13941D01*
Y46132D01*
X13937D01*
Y46129D01*
X13933D01*
Y46125D01*
X13929D01*
Y46121D01*
X13925D01*
Y46117D01*
X13922D01*
Y46113D01*
X13918D01*
Y46110D01*
X13914D01*
Y46106D01*
X13906D01*
Y46102D01*
X13903D01*
Y46098D01*
X13899D01*
Y46094D01*
X13895D01*
Y46091D01*
X13891D01*
Y46087D01*
X13887D01*
Y46083D01*
X13884D01*
Y46079D01*
X13880D01*
Y46076D01*
X13876D01*
Y46072D01*
X13872D01*
Y46068D01*
X13868D01*
Y46064D01*
X13861D01*
Y46060D01*
X13857D01*
Y46057D01*
X13853D01*
Y46053D01*
X13849D01*
Y46049D01*
X13846D01*
Y46045D01*
X13842D01*
Y46041D01*
X13838D01*
Y46038D01*
X13834D01*
Y46034D01*
X13830D01*
Y46030D01*
X13823D01*
Y46026D01*
X13819D01*
Y46022D01*
X13815D01*
Y46019D01*
X13811D01*
Y46015D01*
X13808D01*
Y46011D01*
X13804D01*
Y46007D01*
X13800D01*
Y46003D01*
X13796D01*
Y46000D01*
X13792D01*
Y45996D01*
X13789D01*
Y45992D01*
X13785D01*
Y45988D01*
X13777D01*
Y45984D01*
X13773D01*
Y45981D01*
X13770D01*
Y45977D01*
X13766D01*
Y45973D01*
X13762D01*
Y45969D01*
X13758D01*
Y45965D01*
X13755D01*
Y45962D01*
X13751D01*
Y45958D01*
X13747D01*
Y45954D01*
X13739D01*
Y45946D01*
X13732D01*
Y45943D01*
X13728D01*
Y45939D01*
X13724D01*
Y45935D01*
X13720D01*
Y45931D01*
X13717D01*
Y45927D01*
X13713D01*
Y45924D01*
X13709D01*
Y45920D01*
X13705D01*
Y45916D01*
X13698D01*
Y45912D01*
X13694D01*
Y45908D01*
X13690D01*
Y45905D01*
X13686D01*
Y45901D01*
X13682D01*
Y45897D01*
X13679D01*
Y45893D01*
X13675D01*
Y45889D01*
X13671D01*
Y45886D01*
X13667D01*
Y45882D01*
X13663D01*
Y45878D01*
X13660D01*
Y45874D01*
X13652D01*
Y45870D01*
X13648D01*
Y45867D01*
X13644D01*
Y45863D01*
X13641D01*
Y45859D01*
X13637D01*
Y45855D01*
X13633D01*
Y45851D01*
X13629D01*
Y45848D01*
X13625D01*
Y45844D01*
X13622D01*
Y45840D01*
X13614D01*
Y45836D01*
X13610D01*
Y45832D01*
X13606D01*
Y45829D01*
X13603D01*
Y45825D01*
X13599D01*
Y45821D01*
X13595D01*
Y45817D01*
X13591D01*
Y45813D01*
X13587D01*
Y45810D01*
X13584D01*
Y45806D01*
X13580D01*
Y45802D01*
X13576D01*
Y45798D01*
X13568D01*
Y45794D01*
X13565D01*
Y45791D01*
X13561D01*
Y45787D01*
X13557D01*
Y45783D01*
X13553D01*
Y45779D01*
X13549D01*
Y45775D01*
X13546D01*
Y45772D01*
X13542D01*
Y45768D01*
X13538D01*
Y45764D01*
X13530D01*
Y45760D01*
X13527D01*
Y45756D01*
X13523D01*
Y45753D01*
X13519D01*
Y45749D01*
X13515D01*
Y45745D01*
X13511D01*
Y45741D01*
X13508D01*
Y45737D01*
X13504D01*
Y45734D01*
X13500D01*
Y45730D01*
X13496D01*
Y45726D01*
X13489D01*
Y45722D01*
X13485D01*
Y45718D01*
X13481D01*
Y45715D01*
X13477D01*
Y45711D01*
X13473D01*
Y45707D01*
X13470D01*
Y45703D01*
X13466D01*
Y45699D01*
X13462D01*
Y45696D01*
X13458D01*
Y45692D01*
X13454D01*
Y45688D01*
X13447D01*
Y45684D01*
X13443D01*
Y45681D01*
X13439D01*
Y45677D01*
X13435D01*
Y45673D01*
X13432D01*
Y45669D01*
X13428D01*
Y45665D01*
X13424D01*
Y45661D01*
X13420D01*
Y45658D01*
X13416D01*
Y45654D01*
X13413D01*
Y45650D01*
X13405D01*
Y45646D01*
X13401D01*
Y45643D01*
X13397D01*
Y45639D01*
X13394D01*
Y45635D01*
X13390D01*
Y45631D01*
X13386D01*
Y45627D01*
X13382D01*
Y45624D01*
X13378D01*
Y45620D01*
X13375D01*
Y45616D01*
X13371D01*
Y45612D01*
X13367D01*
Y45608D01*
X13359D01*
Y45605D01*
X13356D01*
Y45601D01*
X13352D01*
Y45597D01*
X13348D01*
Y45593D01*
X13344D01*
Y45589D01*
X13340D01*
Y45586D01*
X13337D01*
Y45582D01*
X13333D01*
Y45578D01*
X13325D01*
Y45574D01*
X13322D01*
Y45570D01*
X13318D01*
Y45567D01*
X13314D01*
Y45563D01*
X13310D01*
Y45559D01*
X13306D01*
Y45555D01*
X13303D01*
Y45551D01*
X13299D01*
Y45548D01*
X13295D01*
Y45544D01*
X13291D01*
Y45540D01*
X13287D01*
Y45536D01*
X13280D01*
Y45532D01*
X13276D01*
Y45529D01*
X13272D01*
Y45525D01*
X13268D01*
Y45521D01*
X13265D01*
Y45517D01*
X13261D01*
Y45513D01*
X13257D01*
Y45510D01*
X13253D01*
Y45506D01*
X13249D01*
Y45502D01*
X13242D01*
Y45498D01*
X13238D01*
Y45494D01*
X13234D01*
Y45491D01*
X13230D01*
Y45487D01*
X13227D01*
Y45483D01*
X13223D01*
Y45479D01*
X13219D01*
Y45475D01*
X13215D01*
Y45472D01*
X13211D01*
Y45468D01*
X13208D01*
Y45464D01*
X13204D01*
Y45460D01*
X13196D01*
Y45456D01*
X13192D01*
Y45453D01*
X13189D01*
Y45449D01*
X13185D01*
Y45445D01*
X13181D01*
Y45441D01*
X13177D01*
Y45437D01*
X13173D01*
Y45434D01*
X13170D01*
Y45430D01*
X13166D01*
Y45426D01*
X13162D01*
Y45422D01*
X13154D01*
Y45418D01*
X13151D01*
Y45415D01*
X13147D01*
Y45403D01*
X13143D01*
Y45396D01*
X13147D01*
Y44256D01*
X13143D01*
Y44249D01*
X13147D01*
Y44245D01*
X13154D01*
Y44241D01*
X13162D01*
Y44245D01*
X13485D01*
Y44241D01*
X13489D01*
Y44245D01*
X13500D01*
Y44241D01*
X13504D01*
Y44066D01*
X13496D01*
Y44062D01*
X13492D01*
Y44066D01*
X12980D01*
Y44062D01*
X12972D01*
Y44066D01*
X12968D01*
Y44070D01*
X12964D01*
Y47204D01*
X12972D01*
Y47207D01*
X12976D01*
Y47204D01*
D02*
G37*
G36*
X15297Y43968D02*
X15300D01*
Y43800D01*
X15297D01*
Y43797D01*
X10454D01*
Y43800D01*
X10450D01*
Y43968D01*
X10454D01*
Y43975D01*
X15297D01*
Y43968D01*
D02*
G37*
%LPC*%
G36*
X15682Y17784D02*
X15159D01*
Y16739D01*
X15682D01*
Y17784D01*
D02*
G37*
%LPD*%
D13*
X26750Y11250D02*
Y13750D01*
X23250Y11250D02*
Y13750D01*
Y11250D02*
X26750D01*
X23250Y13750D02*
X26750D01*
X18702Y17680D02*
Y18880D01*
X19302D01*
X19502Y18680D01*
Y18280D01*
X19302Y18080D01*
X18702D01*
X20102Y17680D02*
X20501D01*
X20701Y17880D01*
Y18280D01*
X20501Y18480D01*
X20102D01*
X19902Y18280D01*
Y17880D01*
X20102Y17680D01*
X21101Y18480D02*
Y17880D01*
X21301Y17680D01*
X21501Y17880D01*
X21701Y17680D01*
X21901Y17880D01*
Y18480D01*
X22901Y17680D02*
X22501D01*
X22301Y17880D01*
Y18280D01*
X22501Y18480D01*
X22901D01*
X23101Y18280D01*
Y18080D01*
X22301D01*
X23500Y18480D02*
Y17680D01*
Y18080D01*
X23700Y18280D01*
X23900Y18480D01*
X24100D01*
X26500Y18880D02*
X26100D01*
X25900Y18680D01*
Y17880D01*
X26100Y17680D01*
X26500D01*
X26699Y17880D01*
Y18680D01*
X26500Y18880D01*
X27099Y17680D02*
Y18880D01*
X27699D01*
X27899Y18680D01*
Y18280D01*
X27699Y18080D01*
X27099D01*
X27499D02*
X27899Y17680D01*
X28299D02*
X28699D01*
X28499D01*
Y18480D01*
X28299D01*
X29299Y17680D02*
Y18480D01*
X29898D01*
X30098Y18280D01*
Y17680D01*
X30898Y17280D02*
X31098D01*
X31298Y17480D01*
Y18480D01*
X30698D01*
X30498Y18280D01*
Y17880D01*
X30698Y17680D01*
X31298D01*
X19302Y16320D02*
X20102D01*
X19702D01*
Y15120D01*
X21101D02*
X20701D01*
X20501Y15320D01*
Y15720D01*
X20701Y15920D01*
X21101D01*
X21301Y15720D01*
Y15520D01*
X20501D01*
X21701Y15120D02*
X22301D01*
X22501Y15320D01*
X22301Y15520D01*
X21901D01*
X21701Y15720D01*
X21901Y15920D01*
X22501D01*
X23101Y16120D02*
Y15920D01*
X22901D01*
X23301D01*
X23101D01*
Y15320D01*
X23301Y15120D01*
X25100Y16320D02*
Y15120D01*
X25700D01*
X25900Y15320D01*
Y15520D01*
X25700Y15720D01*
X25100D01*
X25700D01*
X25900Y15920D01*
Y16120D01*
X25700Y16320D01*
X25100D01*
X26500Y15120D02*
X26899D01*
X27099Y15320D01*
Y15720D01*
X26899Y15920D01*
X26500D01*
X26300Y15720D01*
Y15320D01*
X26500Y15120D01*
X27699Y15920D02*
X28099D01*
X28299Y15720D01*
Y15120D01*
X27699D01*
X27499Y15320D01*
X27699Y15520D01*
X28299D01*
X28699Y15920D02*
Y15120D01*
Y15520D01*
X28899Y15720D01*
X29099Y15920D01*
X29299D01*
X30698Y16320D02*
Y15120D01*
X30098D01*
X29898Y15320D01*
Y15720D01*
X30098Y15920D01*
X30698D01*
X24000Y13100D02*
Y12300D01*
X24400Y11900D01*
X24800Y12300D01*
Y13100D01*
X25200Y12900D02*
X25400Y13100D01*
X25800D01*
X26000Y12900D01*
Y12100D01*
X25800Y11900D01*
X25400D01*
X25200Y12100D01*
Y12900D01*
X36012Y39088D02*
X36812D01*
X36412Y39488D02*
Y38688D01*
X37282Y33500D02*
X38082D01*
X37682Y33900D02*
Y33100D01*
X37282Y19500D02*
X38082D01*
X37682Y19900D02*
Y19100D01*
X36012Y25088D02*
X36812D01*
X36412Y25488D02*
Y24688D01*
D26*
X38785Y3000D02*
G03*
X38480Y6215I-1285J1500D01*
G01*
X25020D02*
G03*
X24715Y3000I980J-1715D01*
G01*
X36520Y6215D02*
G03*
X36215Y3000I980J-1715D01*
G01*
X30770Y6215D02*
G03*
X30465Y3000I980J-1715D01*
G01*
X33035D02*
G03*
X32730Y6215I-1285J1500D01*
G01*
X27285Y3000D02*
G03*
X26980Y6215I-1285J1500D01*
G01*
X24715Y3000D02*
X25000D01*
X36215D02*
X36500D01*
X27000Y3000D02*
X27285D01*
X32750D02*
X33035D01*
X38500D02*
X38785D01*
X30465Y3000D02*
X30750D01*
D27*
X19600Y25500D02*
G03*
X19600Y25500I-100J0D01*
G01*
Y35500D02*
G03*
X19600Y35500I-100J0D01*
G01*
X22085Y44250D02*
G03*
X22085Y44250I-1585J0D01*
G01*
X31585D02*
G03*
X31585Y44250I-1585J0D01*
G01*
X23750Y6750D02*
X24750D01*
X23750Y5750D02*
Y6750D01*
X28250Y5750D02*
Y6750D01*
X27250D02*
X28250D01*
X23750Y2250D02*
Y3250D01*
X11750Y1238D02*
Y1738D01*
Y1238D02*
X12250D01*
X23750Y2250D02*
X24750D01*
X35250Y5750D02*
Y6750D01*
Y2250D02*
Y3250D01*
X38750Y6750D02*
X39750D01*
X35250D02*
X36250D01*
X35250Y2250D02*
X36250D01*
X27250D02*
X28250D01*
Y3250D01*
X11750Y3738D02*
X12250D01*
X20750Y4488D02*
X21250D01*
Y4988D01*
Y6488D02*
Y6988D01*
X20750D02*
X21250D01*
X23420Y27285D02*
X24420D01*
X23420Y22715D02*
X24420D01*
X32580D02*
X33580D01*
X23420Y26285D02*
Y27285D01*
Y22715D02*
Y23715D01*
X20750Y3738D02*
X21250D01*
X20750Y1238D02*
X21250D01*
X11750Y3238D02*
Y3738D01*
X21250Y3238D02*
Y3738D01*
Y1238D02*
Y1738D01*
X11750Y6988D02*
X12250D01*
X11750Y6488D02*
Y6988D01*
Y4488D02*
Y4988D01*
Y4488D02*
X12250D01*
X39750Y5750D02*
Y6750D01*
X46750Y26750D02*
X48750D01*
X35250D02*
X37250D01*
X48750Y38250D02*
Y40250D01*
Y26750D02*
Y28750D01*
X35250Y26750D02*
Y28750D01*
X33000Y2250D02*
X34000D01*
X35250Y38250D02*
Y40250D01*
X37250D01*
X300Y9850D02*
X2500D01*
X300Y40110D02*
X2500D01*
X46750Y40250D02*
X48750D01*
X300Y19980D02*
X2500D01*
X300Y30010D02*
X2500D01*
X34000Y2250D02*
Y3250D01*
X21250Y9738D02*
Y10238D01*
X20750D02*
X21250D01*
X11750D02*
X12250D01*
X11750Y9738D02*
Y10238D01*
X20750Y7738D02*
X21250D01*
X38750Y2250D02*
X39750D01*
Y3250D01*
X21250Y7738D02*
Y8238D01*
X29500Y6750D02*
X30500D01*
X29500Y5750D02*
Y6750D01*
X34000Y5750D02*
Y6750D01*
X33000D02*
X34000D01*
X29500Y2250D02*
Y3250D01*
X11750Y7738D02*
Y8238D01*
Y7738D02*
X12250D01*
X29500Y2250D02*
X30500D01*
X2500Y18450D02*
Y19950D01*
Y30030D02*
Y31530D01*
Y19950D02*
Y21450D01*
Y19950D02*
X4000D01*
X2500Y30030D02*
X4000D01*
X2500Y38610D02*
Y40110D01*
X10100Y38650D02*
Y40150D01*
X2500Y28530D02*
Y30030D01*
Y40110D02*
X4000D01*
X48750Y12750D02*
Y14750D01*
Y24250D02*
Y26250D01*
X35250Y12750D02*
X37250D01*
X46750D02*
X48750D01*
X46750Y26250D02*
X48750D01*
X2500Y9870D02*
Y11370D01*
Y9870D02*
X4000D01*
X17725Y27500D02*
X18775D01*
X17725Y37500D02*
X18775D01*
X8600Y40150D02*
X10100D01*
Y30030D02*
Y31530D01*
Y18450D02*
Y19950D01*
Y28530D02*
Y30030D01*
X8600D02*
X10100D01*
X8600Y19950D02*
X10100D01*
Y9870D02*
Y11370D01*
X40000Y44975D02*
Y46025D01*
X10100Y19950D02*
Y21450D01*
X8600Y9870D02*
X10100D01*
X35250Y12750D02*
Y14750D01*
X17375Y25800D02*
X18375D01*
X17375Y24800D02*
Y25800D01*
X33580Y36365D02*
Y37365D01*
X32580D02*
X33580D01*
X17375Y22200D02*
Y23200D01*
X21625Y22200D02*
Y23200D01*
Y24800D02*
Y25800D01*
X17375Y22200D02*
X18375D01*
X20625D02*
X21625D01*
X32580Y27285D02*
X33580D01*
X23420Y37365D02*
X24420D01*
X33580Y22715D02*
Y23715D01*
Y26285D02*
Y27285D01*
X23420Y36365D02*
Y37365D01*
X32580Y32795D02*
X33580D01*
Y33795D01*
X23420Y32795D02*
Y33795D01*
Y32795D02*
X24420D01*
X20625Y25800D02*
X21625D01*
X35250Y26250D02*
X37250D01*
X35250Y24250D02*
Y26250D01*
X17375Y32200D02*
Y33200D01*
Y32200D02*
X18375D01*
X17375Y35800D02*
X18375D01*
X17375Y34800D02*
Y35800D01*
X20625Y32200D02*
X21625D01*
X20625Y35800D02*
X21625D01*
Y32200D02*
Y33200D01*
Y34800D02*
Y35800D01*
X10217Y8488D02*
Y9488D01*
X10717D01*
X10884Y9321D01*
Y8988D01*
X10717Y8821D01*
X10217D01*
X10550D02*
X10884Y8488D01*
X11217D02*
X11550D01*
X11383D01*
Y9488D01*
X11217Y9321D01*
X9884Y5238D02*
Y6238D01*
X10384D01*
X10550Y6071D01*
Y5738D01*
X10384Y5571D01*
X9884D01*
X10217D02*
X10550Y5238D01*
X11550D02*
X10884D01*
X11550Y5905D01*
Y6071D01*
X11383Y6238D01*
X11050D01*
X10884Y6071D01*
X9884Y1988D02*
Y2988D01*
X10384D01*
X10550Y2821D01*
Y2488D01*
X10384Y2321D01*
X9884D01*
X10217D02*
X10550Y1988D01*
X10884Y2821D02*
X11050Y2988D01*
X11383D01*
X11550Y2821D01*
Y2655D01*
X11383Y2488D01*
X11217D01*
X11383D01*
X11550Y2321D01*
Y2155D01*
X11383Y1988D01*
X11050D01*
X10884Y2155D01*
X36667Y2050D02*
Y1050D01*
X37167D01*
X37333Y1217D01*
Y1883D01*
X37167Y2050D01*
X36667D01*
X37667Y1883D02*
X37833Y2050D01*
X38166D01*
X38333Y1883D01*
Y1717D01*
X38166Y1550D01*
X38000D01*
X38166D01*
X38333Y1384D01*
Y1217D01*
X38166Y1050D01*
X37833D01*
X37667Y1217D01*
X30917Y2050D02*
Y1050D01*
X31417D01*
X31583Y1217D01*
Y1883D01*
X31417Y2050D01*
X30917D01*
X32583Y1050D02*
X31917D01*
X32583Y1717D01*
Y1883D01*
X32416Y2050D01*
X32083D01*
X31917Y1883D01*
X25334Y2050D02*
Y1050D01*
X25833D01*
X26000Y1217D01*
Y1883D01*
X25833Y2050D01*
X25334D01*
X26333Y1050D02*
X26666D01*
X26500D01*
Y2050D01*
X26333Y1883D01*
X5634Y41310D02*
X6300Y40310D01*
Y41310D02*
X5634Y40310D01*
X6633D02*
X6966D01*
X6800D01*
Y41310D01*
X6633Y41143D01*
X18667Y22000D02*
Y21167D01*
X18834Y21000D01*
X19167D01*
X19333Y21167D01*
Y22000D01*
X20333Y21000D02*
X19667D01*
X20333Y21667D01*
Y21833D01*
X20166Y22000D01*
X19833D01*
X19667Y21833D01*
X18834Y32000D02*
Y31167D01*
X19000Y31000D01*
X19333D01*
X19500Y31167D01*
Y32000D01*
X19833Y31000D02*
X20166D01*
X20000D01*
Y32000D01*
X19833Y31833D01*
X31776Y43862D02*
X32442D01*
X32109D01*
Y42862D01*
X32776D02*
Y43862D01*
X33275D01*
X33442Y43696D01*
Y43362D01*
X33275Y43196D01*
X32776D01*
X34442Y42862D02*
X33775D01*
X34442Y43529D01*
Y43696D01*
X34275Y43862D01*
X33942D01*
X33775Y43696D01*
X22276Y43862D02*
X22942D01*
X22609D01*
Y42862D01*
X23276D02*
Y43862D01*
X23775D01*
X23942Y43696D01*
Y43362D01*
X23775Y43196D01*
X23276D01*
X24275Y42862D02*
X24609D01*
X24442D01*
Y43862D01*
X24275Y43696D01*
X28333Y21682D02*
Y22348D01*
X28167Y22515D01*
X27834D01*
X27667Y22348D01*
Y21682D01*
X27834Y21515D01*
X28167D01*
X28000Y21849D02*
X28333Y21515D01*
X28167D02*
X28333Y21682D01*
X29333Y21515D02*
X28667D01*
X29333Y22182D01*
Y22348D01*
X29166Y22515D01*
X28833D01*
X28667Y22348D01*
X28500Y31762D02*
Y32428D01*
X28333Y32595D01*
X28000D01*
X27834Y32428D01*
Y31762D01*
X28000Y31595D01*
X28333D01*
X28167Y31929D02*
X28500Y31595D01*
X28333D02*
X28500Y31762D01*
X28833Y31595D02*
X29166D01*
X29000D01*
Y32595D01*
X28833Y32428D01*
X39334Y48250D02*
Y47250D01*
X40000D01*
X40333D02*
X40666D01*
X40500D01*
Y48250D01*
X40333Y48083D01*
X12833Y21780D02*
X12500D01*
X12667D01*
Y20947D01*
X12500Y20780D01*
X12333D01*
X12167Y20947D01*
X13833Y20780D02*
X13167D01*
X13833Y21447D01*
Y21613D01*
X13666Y21780D01*
X13333D01*
X13167Y21613D01*
X13000Y31860D02*
X12667D01*
X12833D01*
Y31027D01*
X12667Y30860D01*
X12500D01*
X12333Y31027D01*
X13333Y30860D02*
X13666D01*
X13500D01*
Y31860D01*
X13333Y31693D01*
X20016Y38583D02*
X19850Y38750D01*
X19517D01*
X19350Y38583D01*
Y37917D01*
X19517Y37750D01*
X19850D01*
X20016Y37917D01*
X21016Y37750D02*
X20350D01*
X21016Y38417D01*
Y38583D01*
X20850Y38750D01*
X20516D01*
X20350Y38583D01*
X36366Y14033D02*
X36200Y14200D01*
X35867D01*
X35700Y14033D01*
Y13367D01*
X35867Y13200D01*
X36200D01*
X36366Y13367D01*
X37200Y13200D02*
Y14200D01*
X36700Y13700D01*
X37366D01*
X20016Y28583D02*
X19850Y28750D01*
X19517D01*
X19350Y28583D01*
Y27917D01*
X19517Y27750D01*
X19850D01*
X20016Y27917D01*
X20350Y28583D02*
X20516Y28750D01*
X20850D01*
X21016Y28583D01*
Y28417D01*
X20850Y28250D01*
X20683D01*
X20850D01*
X21016Y28084D01*
Y27917D01*
X20850Y27750D01*
X20516D01*
X20350Y27917D01*
X36366Y28033D02*
X36200Y28200D01*
X35867D01*
X35700Y28033D01*
Y27367D01*
X35867Y27200D01*
X36200D01*
X36366Y27367D01*
X36700Y27200D02*
X37033D01*
X36866D01*
Y28200D01*
X36700Y28033D01*
D28*
X14250Y22480D02*
Y27520D01*
X11750Y32560D02*
Y37600D01*
Y27520D02*
X14250D01*
X11750Y22480D02*
X14250D01*
X11750Y37600D02*
X14250D01*
X11750Y32560D02*
X14250D01*
Y37600D01*
X11750Y22480D02*
Y27520D01*
D29*
X11750Y38350D02*
X12084D01*
X11917D01*
Y39350D01*
X11750Y39183D01*
X13250Y39350D02*
X12583D01*
Y38350D01*
X13250D01*
X12583Y38850D02*
X12917D01*
X13583Y38350D02*
Y39350D01*
X14250Y38350D01*
Y39350D01*
X12333Y28270D02*
X11667D01*
X12333Y28936D01*
Y29103D01*
X12167Y29270D01*
X11834D01*
X11667Y29103D01*
X13333Y29270D02*
X12667D01*
Y28270D01*
X13333D01*
X12667Y28770D02*
X13000D01*
X13666Y28270D02*
Y29270D01*
X14333Y28270D01*
Y29270D01*
X1750Y15753D02*
Y16086D01*
X1583Y16253D01*
X917D01*
X750Y16086D01*
Y15753D01*
X917Y15586D01*
X1583D01*
X1750Y15753D01*
Y15253D02*
X917D01*
X750Y15087D01*
Y14753D01*
X917Y14587D01*
X1750D01*
Y14254D02*
Y13587D01*
Y13920D01*
X750D01*
Y36246D02*
Y35913D01*
Y36080D01*
X1750D01*
X1583Y36246D01*
X1750Y35413D02*
Y35080D01*
Y35247D01*
X750D01*
Y35413D01*
Y35080D01*
Y34580D02*
X1750D01*
X750Y33914D01*
X1750D01*
X750Y25583D02*
Y26250D01*
X1417Y25583D01*
X1583D01*
X1750Y25750D01*
Y26083D01*
X1583Y26250D01*
X1750Y25250D02*
Y24917D01*
Y25083D01*
X750D01*
Y25250D01*
Y24917D01*
Y24417D02*
X1750D01*
X750Y23750D01*
X1750D01*
X917Y12380D02*
X1583D01*
X917Y17460D02*
X1583D01*
X1250Y17793D02*
Y17127D01*
X917Y27540D02*
X1583D01*
X1250Y27873D02*
Y27207D01*
X917Y22460D02*
X1583D01*
X917Y32540D02*
X1583D01*
X917Y37620D02*
X1583D01*
X1250Y37953D02*
Y37287D01*
X28334Y46500D02*
X27667D01*
X28334Y47166D01*
Y47333D01*
X28167Y47500D01*
X27834D01*
X27667Y47333D01*
X29334D02*
X29167Y47500D01*
X28834D01*
X28667Y47333D01*
Y46667D01*
X28834Y46500D01*
X29167D01*
X29334Y46667D01*
X29667Y47500D02*
X30333D01*
X30000D01*
Y46500D01*
X30666D02*
Y47500D01*
X31166D01*
X31333Y47333D01*
Y47000D01*
X31166Y46833D01*
X30666D01*
X31000D02*
X31333Y46500D01*
X31666Y47500D02*
Y46500D01*
X32333D01*
X18251Y46500D02*
X18584D01*
X18417D01*
Y47500D01*
X18251Y47333D01*
X19750D02*
X19584Y47500D01*
X19250D01*
X19084Y47333D01*
Y46667D01*
X19250Y46500D01*
X19584D01*
X19750Y46667D01*
X20083Y47500D02*
X20750D01*
X20417D01*
Y46500D01*
X21083D02*
Y47500D01*
X21583D01*
X21750Y47333D01*
Y47000D01*
X21583Y46833D01*
X21083D01*
X21416D02*
X21750Y46500D01*
X22083Y47500D02*
Y46500D01*
X22749D01*
X37000Y7500D02*
Y7167D01*
X37167Y7000D01*
X37833D01*
X38000Y7167D01*
Y7500D01*
X37833Y7666D01*
X37167D01*
X37000Y7500D01*
Y8000D02*
X37833D01*
X38000Y8166D01*
Y8500D01*
X37833Y8666D01*
X37000D01*
Y8999D02*
Y9666D01*
Y9333D01*
X38000D01*
X32250Y7666D02*
Y7000D01*
X31583Y7666D01*
X31417D01*
X31250Y7500D01*
Y7167D01*
X31417Y7000D01*
X31250Y8000D02*
Y8333D01*
Y8166D01*
X32250D01*
Y8000D01*
Y8333D01*
Y8833D02*
X31250D01*
X32250Y9499D01*
X31250D01*
X26500Y7000D02*
Y7333D01*
Y7167D01*
X25500D01*
X25667Y7000D01*
X25500Y7833D02*
Y8166D01*
Y8000D01*
X26500D01*
Y7833D01*
Y8166D01*
Y8666D02*
X25500D01*
X26500Y9333D01*
X25500D01*
D30*
X2958Y39252D02*
Y39502D01*
X3708D01*
Y39252D01*
Y38377D02*
Y38877D01*
X3333D01*
Y38627D01*
Y38877D01*
X2958D01*
X3458Y38127D02*
X2958D01*
X3208D01*
X3333Y38002D01*
X3458Y37878D01*
Y37753D01*
X2958Y37253D02*
Y37003D01*
X3083Y36878D01*
X3333D01*
X3458Y37003D01*
Y37253D01*
X3333Y37378D01*
X3083D01*
X2958Y37253D01*
Y36628D02*
X3458D01*
Y36253D01*
X3333Y36128D01*
X2958D01*
X3583Y35753D02*
X3458D01*
Y35878D01*
Y35628D01*
Y35753D01*
X3083D01*
X2958Y35628D01*
Y35253D02*
Y35003D01*
X3708D01*
Y35253D01*
%TF.MD5,ecf747add36c961ff64e925c0fc296d0*%
M02*
