%TF.GenerationSoftware,Altium Limited,Altium Designer,25.2.1 (25)*%
G04 Layer_Color=128*
%FSLAX43Y43*%
%MOMM*%
%TF.SameCoordinates,7901F6FB-5547-41B2-A73E-222B968302CC*%
%TF.FilePolarity,Positive*%
%TF.FileFunction,Drillmap*%
%TF.Part,Single*%
G01*
G75*
%TA.AperFunction,NonConductor*%
%ADD55C,0.127*%
D55*
X44000Y33500D02*
X45000D01*
X44500Y33000D02*
Y34000D01*
X39000Y33500D02*
X40000D01*
X39500Y33000D02*
Y34000D01*
X31300Y5770D02*
X32200D01*
X31750Y5320D02*
Y6220D01*
X31300Y3230D02*
X32200D01*
X31750Y2780D02*
Y3680D01*
X12265Y8988D02*
X13115D01*
X12690Y8563D02*
Y9413D01*
X19885Y8988D02*
X20735D01*
X20310Y8563D02*
Y9413D01*
X37050Y5770D02*
X37950D01*
X37500Y5320D02*
Y6220D01*
X37050Y3230D02*
X37950D01*
X37500Y2780D02*
Y3680D01*
X25550Y5770D02*
X26450D01*
X26000Y5320D02*
Y6220D01*
X25550Y3230D02*
X26450D01*
X26000Y2780D02*
Y3680D01*
X12265Y2488D02*
X13115D01*
X12690Y2063D02*
Y2913D01*
X19885Y2488D02*
X20735D01*
X20310Y2063D02*
Y2913D01*
X12265Y5738D02*
X13115D01*
X12690Y5313D02*
Y6163D01*
X19885Y5738D02*
X20735D01*
X20310Y5313D02*
Y6163D01*
X2750Y45500D02*
X6250D01*
X4500Y43750D02*
Y47250D01*
X43750Y45500D02*
X47250D01*
X45500Y43750D02*
Y47250D01*
X2750Y4500D02*
X6250D01*
X4500Y2750D02*
Y6250D01*
X43750Y4500D02*
X47250D01*
X45500Y2750D02*
Y6250D01*
X29200Y44250D02*
X30800D01*
X30000Y43450D02*
Y45050D01*
X19700Y44250D02*
X21300D01*
X20500Y43450D02*
Y45050D01*
X25310Y24305D02*
X26610D01*
X25960Y23655D02*
Y24955D01*
X27850Y24305D02*
X29150D01*
X28500Y23655D02*
Y24955D01*
X30390Y24305D02*
X31690D01*
X31040Y23655D02*
Y24955D01*
X25310Y34385D02*
X26610D01*
X25960Y33735D02*
Y35035D01*
X27850Y34385D02*
X29150D01*
X28500Y33735D02*
Y35035D01*
X30390Y34385D02*
X31690D01*
X31040Y33735D02*
Y35035D01*
X12619Y26270D02*
X13381D01*
X13000Y25889D02*
Y26651D01*
X12619Y23730D02*
X13381D01*
X13000Y23349D02*
Y24111D01*
X12619Y36350D02*
X13381D01*
X13000Y35969D02*
Y36731D01*
X12619Y33810D02*
X13381D01*
X13000Y33429D02*
Y34191D01*
X39000Y19500D02*
X40000D01*
X39500Y19000D02*
Y20000D01*
X44000Y19500D02*
X45000D01*
X44500Y19000D02*
Y20000D01*
X5350Y17460D02*
X6650D01*
X6000Y16810D02*
Y18110D01*
X5350Y12380D02*
X6650D01*
X6000Y11730D02*
Y13030D01*
X5350Y27540D02*
X6650D01*
X6000Y26890D02*
Y28190D01*
X5350Y22460D02*
X6650D01*
X6000Y21810D02*
Y23110D01*
X5350Y37620D02*
X6650D01*
X6000Y36970D02*
Y38270D01*
X5350Y32540D02*
X6650D01*
X6000Y31890D02*
Y33190D01*
X37350Y45500D02*
X37650D01*
X37500Y45350D02*
Y45650D01*
X16350Y28400D02*
X16650D01*
X16500Y28250D02*
Y28550D01*
X16350Y38400D02*
X16650D01*
X16500Y38250D02*
Y38550D01*
X16350Y34000D02*
X16650D01*
X16500Y33850D02*
Y34150D01*
X16350Y24000D02*
X16650D01*
X16500Y23850D02*
Y24150D01*
%TF.MD5,623d05bb598470259638d02e81c09a4f*%
M02*
