%TF.GenerationSoftware,Altium Limited,Altium Designer,25.2.1 (25)*%
G04 Layer_Color=2752767*
%FSLAX43Y43*%
%MOMM*%
%TF.SameCoordinates,7901F6FB-5547-41B2-A73E-222B968302CC*%
%TF.FilePolarity,Positive*%
%TF.FileFunction,Drawing*%
%TF.Part,Single*%
G01*
G75*
%TA.AperFunction,NonConductor*%
%ADD55C,0.127*%
%ADD56C,0.169*%
D55*
X44500Y32992D02*
X44754Y33246D01*
X45008D01*
X44754Y33500D01*
X45008Y33754D01*
X44754D01*
X44500Y34008D01*
X44246Y33754D01*
X43992D01*
X44246Y33500D01*
X43992Y33246D01*
X44246D01*
X44500Y32992D01*
X39500D02*
X39754Y33246D01*
X40008D01*
X39754Y33500D01*
X40008Y33754D01*
X39754D01*
X39500Y34008D01*
X39246Y33754D01*
X38992D01*
X39246Y33500D01*
X38992Y33246D01*
X39246D01*
X39500Y32992D01*
X31496Y5516D02*
Y5262D01*
X32004D01*
Y5516D01*
X32258D01*
Y6024D01*
X32004D01*
Y6278D01*
X31496D01*
Y6024D01*
X31242D01*
Y5516D01*
X31496D01*
Y2976D02*
Y2722D01*
X32004D01*
Y2976D01*
X32258D01*
Y3484D01*
X32004D01*
Y3738D01*
X31496D01*
Y3484D01*
X31242D01*
Y2976D01*
X31496D01*
X12182Y8480D02*
X12436D01*
X12690Y8734D01*
X12944Y8480D01*
X13198D01*
Y8734D01*
X12944Y8988D01*
X13198Y9242D01*
Y9496D01*
X12944D01*
X12690Y9242D01*
X12436Y9496D01*
X12182D01*
Y9242D01*
X12436Y8988D01*
X12182Y8734D01*
Y8480D01*
X19802D02*
X20056D01*
X20310Y8734D01*
X20564Y8480D01*
X20818D01*
Y8734D01*
X20564Y8988D01*
X20818Y9242D01*
Y9496D01*
X20564D01*
X20310Y9242D01*
X20056Y9496D01*
X19802D01*
Y9242D01*
X20056Y8988D01*
X19802Y8734D01*
Y8480D01*
X37246Y5516D02*
Y5262D01*
X37754D01*
Y5516D01*
X38008D01*
Y6024D01*
X37754D01*
Y6278D01*
X37246D01*
Y6024D01*
X36992D01*
Y5516D01*
X37246D01*
Y2976D02*
Y2722D01*
X37754D01*
Y2976D01*
X38008D01*
Y3484D01*
X37754D01*
Y3738D01*
X37246D01*
Y3484D01*
X36992D01*
Y2976D01*
X37246D01*
X25746Y5516D02*
Y5262D01*
X26254D01*
Y5516D01*
X26508D01*
Y6024D01*
X26254D01*
Y6278D01*
X25746D01*
Y6024D01*
X25492D01*
Y5516D01*
X25746D01*
Y2976D02*
Y2722D01*
X26254D01*
Y2976D01*
X26508D01*
Y3484D01*
X26254D01*
Y3738D01*
X25746D01*
Y3484D01*
X25492D01*
Y2976D01*
X25746D01*
X12182Y1980D02*
X12436D01*
X12690Y2234D01*
X12944Y1980D01*
X13198D01*
Y2234D01*
X12944Y2488D01*
X13198Y2742D01*
Y2996D01*
X12944D01*
X12690Y2742D01*
X12436Y2996D01*
X12182D01*
Y2742D01*
X12436Y2488D01*
X12182Y2234D01*
Y1980D01*
X19802D02*
X20056D01*
X20310Y2234D01*
X20564Y1980D01*
X20818D01*
Y2234D01*
X20564Y2488D01*
X20818Y2742D01*
Y2996D01*
X20564D01*
X20310Y2742D01*
X20056Y2996D01*
X19802D01*
Y2742D01*
X20056Y2488D01*
X19802Y2234D01*
Y1980D01*
X12182Y5230D02*
X12436D01*
X12690Y5484D01*
X12944Y5230D01*
X13198D01*
Y5484D01*
X12944Y5738D01*
X13198Y5992D01*
Y6246D01*
X12944D01*
X12690Y5992D01*
X12436Y6246D01*
X12182D01*
Y5992D01*
X12436Y5738D01*
X12182Y5484D01*
Y5230D01*
X19802D02*
X20056D01*
X20310Y5484D01*
X20564Y5230D01*
X20818D01*
Y5484D01*
X20564Y5738D01*
X20818Y5992D01*
Y6246D01*
X20564D01*
X20310Y5992D01*
X20056Y6246D01*
X19802D01*
Y5992D01*
X20056Y5738D01*
X19802Y5484D01*
Y5230D01*
X3992Y44992D02*
X4246Y45500D01*
X3992Y46008D01*
X4500Y45754D01*
X5008Y46008D01*
X4754Y45500D01*
X5008Y44992D01*
X4500Y45246D01*
X3992Y44992D01*
X44992D02*
X45246Y45500D01*
X44992Y46008D01*
X45500Y45754D01*
X46008Y46008D01*
X45754Y45500D01*
X46008Y44992D01*
X45500Y45246D01*
X44992Y44992D01*
X3992Y3992D02*
X4246Y4500D01*
X3992Y5008D01*
X4500Y4754D01*
X5008Y5008D01*
X4754Y4500D01*
X5008Y3992D01*
X4500Y4246D01*
X3992Y3992D01*
X44992D02*
X45246Y4500D01*
X44992Y5008D01*
X45500Y4754D01*
X46008Y5008D01*
X45754Y4500D01*
X46008Y3992D01*
X45500Y4246D01*
X44992Y3992D01*
X29492Y43742D02*
Y44758D01*
X30508D01*
Y43742D01*
X29492D01*
X19992D02*
Y44758D01*
X21008D01*
Y43742D01*
X19992D01*
X13000Y25762D02*
X12492Y26778D01*
X13508D01*
X13000Y25762D01*
Y23222D02*
X12492Y24238D01*
X13508D01*
X13000Y23222D01*
Y35842D02*
X12492Y36858D01*
X13508D01*
X13000Y35842D01*
Y33302D02*
X12492Y34318D01*
X13508D01*
X13000Y33302D01*
X39500Y18992D02*
X39754Y19246D01*
X40008D01*
X39754Y19500D01*
X40008Y19754D01*
X39754D01*
X39500Y20008D01*
X39246Y19754D01*
X38992D01*
X39246Y19500D01*
X38992Y19246D01*
X39246D01*
X39500Y18992D01*
X44500D02*
X44754Y19246D01*
X45008D01*
X44754Y19500D01*
X45008Y19754D01*
X44754D01*
X44500Y20008D01*
X44246Y19754D01*
X43992D01*
X44246Y19500D01*
X43992Y19246D01*
X44246D01*
X44500Y18992D01*
X36992Y45500D02*
X37500Y46008D01*
X38008Y45500D01*
X37500Y44992D01*
X36992Y45500D01*
X15992Y28400D02*
X16500Y28908D01*
X17008Y28400D01*
X16500Y27892D01*
X15992Y28400D01*
Y38400D02*
X16500Y38908D01*
X17008Y38400D01*
X16500Y37892D01*
X15992Y38400D01*
Y34000D02*
X16500Y34508D01*
X17008Y34000D01*
X16500Y33492D01*
X15992Y34000D01*
Y24000D02*
X16500Y24508D01*
X17008Y24000D01*
X16500Y23492D01*
X15992Y24000D01*
D56*
X26468Y24305D02*
G03*
X26468Y24305I-508J0D01*
G01*
X29008D02*
G03*
X29008Y24305I-508J0D01*
G01*
X31548D02*
G03*
X31548Y24305I-508J0D01*
G01*
X26468Y34385D02*
G03*
X26468Y34385I-508J0D01*
G01*
X29008D02*
G03*
X29008Y34385I-508J0D01*
G01*
X31548D02*
G03*
X31548Y34385I-508J0D01*
G01*
X6508Y17460D02*
G03*
X6508Y17460I-508J0D01*
G01*
Y12380D02*
G03*
X6508Y12380I-508J0D01*
G01*
Y27540D02*
G03*
X6508Y27540I-508J0D01*
G01*
Y22460D02*
G03*
X6508Y22460I-508J0D01*
G01*
Y37620D02*
G03*
X6508Y37620I-508J0D01*
G01*
Y32540D02*
G03*
X6508Y32540I-508J0D01*
G01*
%TF.MD5,558fa877127bab5dc1b091e3ec8e9c41*%
M02*
