%TF.GenerationSoftware,Altium Limited,Altium Designer,25.2.1 (25)*%
G04 Layer_Physical_Order=3*
G04 Layer_Color=16440176*
%FSLAX43Y43*%
%MOMM*%
%TF.SameCoordinates,20204492-5425-4C88-903B-EF9DED91A393*%
%TF.FilePolarity,Positive*%
%TF.FileFunction,Copper,L3,Inr,Signal*%
%TF.Part,Single*%
G01*
G75*
%TA.AperFunction,Conductor*%
%ADD11C,0.300*%
%TA.AperFunction,ComponentPad*%
%ADD24C,2.400*%
%ADD25C,2.500*%
%ADD26C,1.600*%
%ADD27C,3.500*%
%ADD28C,1.400*%
%ADD29C,3.300*%
%ADD30C,6.000*%
%TA.AperFunction,ViaPad*%
%ADD31C,0.700*%
%TA.AperFunction,Conductor*%
%ADD32C,1.000*%
G36*
X50641Y66549D02*
X51267Y66399D01*
X51861Y66153D01*
X52410Y65817D01*
X52899Y65399D01*
X53317Y64910D01*
X53653Y64361D01*
X53899Y63767D01*
X54049Y63141D01*
X54098Y62528D01*
X54092Y62500D01*
Y4500D01*
X54098Y4472D01*
X54049Y3859D01*
X53899Y3233D01*
X53653Y2639D01*
X53317Y2090D01*
X52899Y1601D01*
X52410Y1183D01*
X51861Y847D01*
X51267Y601D01*
X50641Y451D01*
X50593Y447D01*
X50500Y533D01*
Y1285D01*
X50762Y1326D01*
X51249Y1484D01*
X51705Y1717D01*
X52120Y2018D01*
X52195Y2093D01*
X51993Y2295D01*
X52205Y2507D01*
X52407Y2305D01*
X52482Y2380D01*
X52783Y2795D01*
X53016Y3251D01*
X53174Y3738D01*
X53254Y4244D01*
Y4756D01*
X53174Y5262D01*
X53016Y5749D01*
X52783Y6205D01*
X52482Y6620D01*
X52407Y6695D01*
X52205Y6492D01*
X51993Y6705D01*
X52195Y6907D01*
X52120Y6982D01*
X51705Y7283D01*
X51249Y7516D01*
X50762Y7674D01*
X50500Y7715D01*
Y48000D01*
X4000D01*
Y7715D01*
X3738Y7674D01*
X3251Y7516D01*
X2795Y7283D01*
X2380Y6982D01*
X2305Y6907D01*
X2507Y6705D01*
X2295Y6492D01*
X2093Y6695D01*
X2018Y6620D01*
X1717Y6205D01*
X1484Y5749D01*
X1326Y5262D01*
X1246Y4756D01*
Y4244D01*
X1326Y3738D01*
X1484Y3251D01*
X1717Y2795D01*
X2018Y2380D01*
X2093Y2305D01*
X2295Y2507D01*
X2507Y2295D01*
X2305Y2093D01*
X2380Y2018D01*
X2795Y1717D01*
X3251Y1484D01*
X3738Y1326D01*
X4000Y1285D01*
Y533D01*
X3907Y447D01*
X3859Y451D01*
X3233Y601D01*
X2639Y847D01*
X2090Y1183D01*
X1601Y1601D01*
X1183Y2090D01*
X847Y2639D01*
X601Y3233D01*
X451Y3859D01*
X402Y4472D01*
X408Y4500D01*
Y62500D01*
X402Y62528D01*
X451Y63141D01*
X601Y63767D01*
X847Y64361D01*
X1183Y64910D01*
X1601Y65399D01*
X2090Y65817D01*
X2639Y66153D01*
X3233Y66399D01*
X3859Y66549D01*
X4472Y66598D01*
X4500Y66592D01*
X50000D01*
X50028Y66598D01*
X50641Y66549D01*
D02*
G37*
G36*
X50194Y7800D02*
X49740D01*
X49227Y7719D01*
X48733Y7558D01*
X48270Y7322D01*
X47850Y7017D01*
X47483Y6650D01*
X47178Y6230D01*
X46942Y5767D01*
X46781Y5273D01*
X46700Y4760D01*
Y4240D01*
X46781Y3727D01*
X46942Y3233D01*
X47178Y2770D01*
X47483Y2350D01*
X47850Y1983D01*
X48270Y1678D01*
X48733Y1442D01*
X49227Y1281D01*
X49740Y1200D01*
X50194D01*
Y533D01*
X50190Y515D01*
X50106Y408D01*
X50028Y402D01*
X50000Y408D01*
X4500D01*
X4472Y402D01*
X4394Y408D01*
X4310Y515D01*
X4306Y533D01*
Y1200D01*
X4760D01*
X5273Y1281D01*
X5767Y1442D01*
X6230Y1678D01*
X6650Y1983D01*
X7017Y2350D01*
X7322Y2770D01*
X7558Y3233D01*
X7719Y3727D01*
X7800Y4240D01*
Y4760D01*
X7719Y5273D01*
X7558Y5767D01*
X7531Y5820D01*
X11294Y9583D01*
X11459Y9473D01*
X11832Y9319D01*
X12228Y9240D01*
X12632D01*
X13028Y9319D01*
X13401Y9473D01*
X13737Y9698D01*
X14022Y9983D01*
X14247Y10319D01*
X14315Y10483D01*
X23685D01*
X23753Y10319D01*
X23978Y9983D01*
X24263Y9698D01*
X24599Y9473D01*
X24972Y9319D01*
X25368Y9240D01*
X25772D01*
X26168Y9319D01*
X26541Y9473D01*
X26877Y9698D01*
X27162Y9983D01*
X27387Y10319D01*
X27541Y10692D01*
X27620Y11088D01*
Y11492D01*
X27541Y11888D01*
X27387Y12261D01*
X27162Y12597D01*
X26877Y12882D01*
X26541Y13107D01*
X26168Y13261D01*
X25772Y13340D01*
X25368D01*
X24972Y13261D01*
X24599Y13107D01*
X24263Y12882D01*
X23978Y12597D01*
X23753Y12261D01*
X23685Y12097D01*
X14315D01*
X14247Y12261D01*
X14022Y12597D01*
X13737Y12882D01*
X13401Y13107D01*
X13028Y13261D01*
X12632Y13340D01*
X12228D01*
X11832Y13261D01*
X11459Y13107D01*
X11123Y12882D01*
X10838Y12597D01*
X10613Y12261D01*
X10459Y11888D01*
X10380Y11492D01*
Y11088D01*
X10403Y10974D01*
X6532Y7103D01*
X6230Y7322D01*
X5767Y7558D01*
X5273Y7719D01*
X4760Y7800D01*
X4306D01*
Y47694D01*
X50194D01*
Y7800D01*
D02*
G37*
%LPC*%
G36*
X50256Y65754D02*
X49744D01*
X49238Y65674D01*
X48751Y65516D01*
X48295Y65283D01*
X47880Y64982D01*
X47805Y64907D01*
X48007Y64705D01*
X47795Y64493D01*
X47593Y64695D01*
X47518Y64620D01*
X47217Y64205D01*
X46984Y63749D01*
X46826Y63262D01*
X46746Y62756D01*
Y62244D01*
X46826Y61738D01*
X46984Y61251D01*
X47217Y60795D01*
X47518Y60380D01*
X47593Y60305D01*
X47795Y60507D01*
X48007Y60295D01*
X47805Y60093D01*
X47880Y60018D01*
X48295Y59717D01*
X48751Y59484D01*
X49238Y59326D01*
X49744Y59246D01*
X50256D01*
X50762Y59326D01*
X51249Y59484D01*
X51705Y59717D01*
X52120Y60018D01*
X52195Y60093D01*
X51993Y60295D01*
X52205Y60507D01*
X52407Y60305D01*
X52482Y60380D01*
X52783Y60795D01*
X53016Y61251D01*
X53174Y61738D01*
X53254Y62244D01*
Y62756D01*
X53174Y63262D01*
X53016Y63749D01*
X52783Y64205D01*
X52482Y64620D01*
X52407Y64695D01*
X52205Y64493D01*
X51993Y64705D01*
X52195Y64907D01*
X52120Y64982D01*
X51705Y65283D01*
X51249Y65516D01*
X50762Y65674D01*
X50256Y65754D01*
D02*
G37*
G36*
X4756D02*
X4244D01*
X3738Y65674D01*
X3251Y65516D01*
X2795Y65283D01*
X2380Y64982D01*
X2305Y64907D01*
X2507Y64705D01*
X2295Y64493D01*
X2093Y64695D01*
X2018Y64620D01*
X1717Y64205D01*
X1484Y63749D01*
X1326Y63262D01*
X1246Y62756D01*
Y62244D01*
X1326Y61738D01*
X1484Y61251D01*
X1717Y60795D01*
X2018Y60380D01*
X2093Y60305D01*
X2295Y60507D01*
X2507Y60295D01*
X2305Y60093D01*
X2380Y60018D01*
X2795Y59717D01*
X3251Y59484D01*
X3738Y59326D01*
X4244Y59246D01*
X4756D01*
X5262Y59326D01*
X5749Y59484D01*
X6205Y59717D01*
X6620Y60018D01*
X6695Y60093D01*
X6492Y60295D01*
X6705Y60507D01*
X6907Y60305D01*
X6982Y60380D01*
X7283Y60795D01*
X7516Y61251D01*
X7674Y61738D01*
X7754Y62244D01*
Y62756D01*
X7674Y63262D01*
X7516Y63749D01*
X7283Y64205D01*
X6982Y64620D01*
X6907Y64695D01*
X6705Y64493D01*
X6492Y64705D01*
X6695Y64907D01*
X6620Y64982D01*
X6205Y65283D01*
X5749Y65516D01*
X5262Y65674D01*
X4756Y65754D01*
D02*
G37*
G36*
X24258Y58154D02*
X23882D01*
X23515Y58081D01*
X23168Y57937D01*
X22856Y57729D01*
X22830Y57702D01*
X23034Y57498D01*
X22822Y57286D01*
X22618Y57490D01*
X22591Y57464D01*
X22383Y57152D01*
X22239Y56805D01*
X22166Y56438D01*
Y56062D01*
X22239Y55695D01*
X22383Y55348D01*
X22591Y55036D01*
X22618Y55010D01*
X22822Y55214D01*
X23034Y55002D01*
X22830Y54798D01*
X22856Y54771D01*
X23168Y54563D01*
X23515Y54419D01*
X23882Y54346D01*
X24258D01*
X24625Y54419D01*
X24972Y54563D01*
X25284Y54771D01*
X25310Y54798D01*
X25106Y55002D01*
X25318Y55214D01*
X25522Y55010D01*
X25549Y55036D01*
X25757Y55348D01*
X25901Y55695D01*
X25974Y56062D01*
Y56438D01*
X25901Y56805D01*
X25757Y57152D01*
X25549Y57464D01*
X25522Y57490D01*
X25318Y57286D01*
X25106Y57498D01*
X25310Y57702D01*
X25284Y57729D01*
X24972Y57937D01*
X24625Y58081D01*
X24258Y58154D01*
D02*
G37*
G36*
X11118D02*
X10742D01*
X10375Y58081D01*
X10028Y57937D01*
X9716Y57729D01*
X9690Y57702D01*
X9894Y57498D01*
X9682Y57286D01*
X9478Y57490D01*
X9451Y57464D01*
X9243Y57152D01*
X9099Y56805D01*
X9026Y56438D01*
Y56062D01*
X9099Y55695D01*
X9243Y55348D01*
X9451Y55036D01*
X9478Y55010D01*
X9682Y55214D01*
X9894Y55002D01*
X9690Y54798D01*
X9716Y54771D01*
X10028Y54563D01*
X10375Y54419D01*
X10742Y54346D01*
X11118D01*
X11485Y54419D01*
X11832Y54563D01*
X12144Y54771D01*
X12170Y54798D01*
X11966Y55002D01*
X12178Y55214D01*
X12382Y55010D01*
X12409Y55036D01*
X12617Y55348D01*
X12761Y55695D01*
X12834Y56062D01*
Y56438D01*
X12761Y56805D01*
X12617Y57152D01*
X12409Y57464D01*
X12382Y57490D01*
X12178Y57286D01*
X11966Y57498D01*
X12170Y57702D01*
X12144Y57729D01*
X11832Y57937D01*
X11485Y58081D01*
X11118Y58154D01*
D02*
G37*
G36*
X43758Y58124D02*
X43382D01*
X43015Y58051D01*
X42668Y57907D01*
X42356Y57699D01*
X42330Y57672D01*
X42534Y57468D01*
X42322Y57256D01*
X42118Y57460D01*
X42091Y57434D01*
X41883Y57122D01*
X41739Y56775D01*
X41666Y56408D01*
Y56032D01*
X41739Y55665D01*
X41883Y55318D01*
X42091Y55006D01*
X42118Y54980D01*
X42322Y55184D01*
X42534Y54972D01*
X42330Y54768D01*
X42356Y54741D01*
X42668Y54533D01*
X43015Y54389D01*
X43382Y54316D01*
X43758D01*
X44125Y54389D01*
X44472Y54533D01*
X44784Y54741D01*
X44810Y54768D01*
X44606Y54972D01*
X44818Y55184D01*
X45022Y54980D01*
X45049Y55006D01*
X45257Y55318D01*
X45401Y55665D01*
X45474Y56032D01*
Y56408D01*
X45401Y56775D01*
X45257Y57122D01*
X45049Y57434D01*
X45022Y57460D01*
X44818Y57256D01*
X44606Y57468D01*
X44810Y57672D01*
X44784Y57699D01*
X44472Y57907D01*
X44125Y58051D01*
X43758Y58124D01*
D02*
G37*
G36*
X30618D02*
X30242D01*
X29875Y58051D01*
X29528Y57907D01*
X29216Y57699D01*
X29190Y57672D01*
X29394Y57468D01*
X29182Y57256D01*
X28978Y57460D01*
X28951Y57434D01*
X28743Y57122D01*
X28599Y56775D01*
X28526Y56408D01*
Y56032D01*
X28599Y55665D01*
X28743Y55318D01*
X28951Y55006D01*
X28978Y54980D01*
X29182Y55184D01*
X29394Y54972D01*
X29190Y54768D01*
X29216Y54741D01*
X29528Y54533D01*
X29875Y54389D01*
X30242Y54316D01*
X30618D01*
X30985Y54389D01*
X31332Y54533D01*
X31644Y54741D01*
X31670Y54768D01*
X31466Y54972D01*
X31678Y55184D01*
X31882Y54980D01*
X31909Y55006D01*
X32117Y55318D01*
X32261Y55665D01*
X32334Y56032D01*
Y56408D01*
X32261Y56775D01*
X32117Y57122D01*
X31909Y57434D01*
X31882Y57460D01*
X31678Y57256D01*
X31466Y57468D01*
X31670Y57672D01*
X31644Y57699D01*
X31332Y57907D01*
X30985Y58051D01*
X30618Y58124D01*
D02*
G37*
G36*
X18632Y54540D02*
X18368D01*
X18114Y54472D01*
X17886Y54340D01*
X17700Y54154D01*
X17568Y53926D01*
X17566Y53917D01*
X17434D01*
X17432Y53926D01*
X17300Y54154D01*
X17114Y54340D01*
X16886Y54472D01*
X16632Y54540D01*
X16368D01*
X16114Y54472D01*
X15886Y54340D01*
X15700Y54154D01*
X15568Y53926D01*
X15500Y53672D01*
Y53408D01*
X15568Y53154D01*
X15700Y52926D01*
X15886Y52740D01*
X16114Y52608D01*
X16368Y52540D01*
X16632D01*
X16886Y52608D01*
X17114Y52740D01*
X17300Y52926D01*
X17432Y53154D01*
X17434Y53163D01*
X17566D01*
X17568Y53154D01*
X17700Y52926D01*
X17886Y52740D01*
X18114Y52608D01*
X18368Y52540D01*
X18632D01*
X18886Y52608D01*
X19114Y52740D01*
X19300Y52926D01*
X19432Y53154D01*
X19500Y53408D01*
Y53672D01*
X19432Y53926D01*
X19300Y54154D01*
X19114Y54340D01*
X18886Y54472D01*
X18632Y54540D01*
D02*
G37*
G36*
X38132Y54510D02*
X37868D01*
X37614Y54442D01*
X37386Y54310D01*
X37200Y54124D01*
X37068Y53896D01*
X37066Y53887D01*
X36934D01*
X36932Y53896D01*
X36800Y54124D01*
X36614Y54310D01*
X36386Y54442D01*
X36132Y54510D01*
X35868D01*
X35614Y54442D01*
X35386Y54310D01*
X35200Y54124D01*
X35068Y53896D01*
X35000Y53642D01*
Y53378D01*
X35068Y53124D01*
X35200Y52896D01*
X35386Y52710D01*
X35614Y52578D01*
X35868Y52510D01*
X36132D01*
X36386Y52578D01*
X36614Y52710D01*
X36800Y52896D01*
X36932Y53124D01*
X36934Y53133D01*
X37066D01*
X37068Y53124D01*
X37200Y52896D01*
X37386Y52710D01*
X37614Y52578D01*
X37868Y52510D01*
X38132D01*
X38386Y52578D01*
X38614Y52710D01*
X38800Y52896D01*
X38932Y53124D01*
X39000Y53378D01*
Y53642D01*
X38932Y53896D01*
X38800Y54124D01*
X38614Y54310D01*
X38386Y54442D01*
X38132Y54510D01*
D02*
G37*
G36*
X21132Y54540D02*
X20868D01*
X20614Y54472D01*
X20386Y54340D01*
X20200Y54154D01*
X20068Y53926D01*
X20000Y53672D01*
Y53408D01*
X20068Y53154D01*
X20200Y52926D01*
X20386Y52740D01*
X20614Y52608D01*
X20868Y52540D01*
X21132D01*
X21386Y52608D01*
X21614Y52740D01*
X21800Y52926D01*
X21932Y53154D01*
X22000Y53408D01*
Y53672D01*
X21932Y53926D01*
X21800Y54154D01*
X21614Y54340D01*
X21386Y54472D01*
X21132Y54540D01*
D02*
G37*
G36*
X14132D02*
X13868D01*
X13614Y54472D01*
X13386Y54340D01*
X13200Y54154D01*
X13068Y53926D01*
X13000Y53672D01*
Y53408D01*
X13068Y53154D01*
X13200Y52926D01*
X13386Y52740D01*
X13614Y52608D01*
X13868Y52540D01*
X14132D01*
X14386Y52608D01*
X14614Y52740D01*
X14800Y52926D01*
X14932Y53154D01*
X15000Y53408D01*
Y53672D01*
X14932Y53926D01*
X14800Y54154D01*
X14614Y54340D01*
X14386Y54472D01*
X14132Y54540D01*
D02*
G37*
G36*
X40632Y54510D02*
X40368D01*
X40114Y54442D01*
X39886Y54310D01*
X39700Y54124D01*
X39568Y53896D01*
X39500Y53642D01*
Y53378D01*
X39568Y53124D01*
X39700Y52896D01*
X39886Y52710D01*
X40114Y52578D01*
X40368Y52510D01*
X40632D01*
X40886Y52578D01*
X41114Y52710D01*
X41300Y52896D01*
X41432Y53124D01*
X41500Y53378D01*
Y53642D01*
X41432Y53896D01*
X41300Y54124D01*
X41114Y54310D01*
X40886Y54442D01*
X40632Y54510D01*
D02*
G37*
G36*
X33632D02*
X33368D01*
X33114Y54442D01*
X32886Y54310D01*
X32700Y54124D01*
X32568Y53896D01*
X32500Y53642D01*
Y53378D01*
X32568Y53124D01*
X32700Y52896D01*
X32886Y52710D01*
X33114Y52578D01*
X33368Y52510D01*
X33632D01*
X33886Y52578D01*
X34114Y52710D01*
X34300Y52896D01*
X34432Y53124D01*
X34500Y53378D01*
Y53642D01*
X34432Y53896D01*
X34300Y54124D01*
X34114Y54310D01*
X33886Y54442D01*
X33632Y54510D01*
D02*
G37*
G36*
X24258Y52474D02*
X23882D01*
X23515Y52401D01*
X23168Y52257D01*
X22856Y52049D01*
X22830Y52022D01*
X23034Y51818D01*
X22822Y51606D01*
X22618Y51810D01*
X22591Y51784D01*
X22383Y51472D01*
X22239Y51125D01*
X22166Y50758D01*
Y50382D01*
X22239Y50015D01*
X22383Y49668D01*
X22591Y49356D01*
X22618Y49330D01*
X22822Y49534D01*
X23034Y49322D01*
X22830Y49118D01*
X22856Y49091D01*
X23168Y48883D01*
X23515Y48739D01*
X23882Y48666D01*
X24258D01*
X24625Y48739D01*
X24972Y48883D01*
X25284Y49091D01*
X25310Y49118D01*
X25106Y49322D01*
X25318Y49534D01*
X25522Y49330D01*
X25549Y49356D01*
X25757Y49668D01*
X25901Y50015D01*
X25974Y50382D01*
Y50758D01*
X25901Y51125D01*
X25757Y51472D01*
X25549Y51784D01*
X25522Y51810D01*
X25318Y51606D01*
X25106Y51818D01*
X25310Y52022D01*
X25284Y52049D01*
X24972Y52257D01*
X24625Y52401D01*
X24258Y52474D01*
D02*
G37*
G36*
X11118D02*
X10742D01*
X10375Y52401D01*
X10028Y52257D01*
X9716Y52049D01*
X9690Y52022D01*
X9894Y51818D01*
X9682Y51606D01*
X9478Y51810D01*
X9451Y51784D01*
X9243Y51472D01*
X9099Y51125D01*
X9026Y50758D01*
Y50382D01*
X9099Y50015D01*
X9243Y49668D01*
X9451Y49356D01*
X9478Y49330D01*
X9682Y49534D01*
X9894Y49322D01*
X9690Y49118D01*
X9716Y49091D01*
X10028Y48883D01*
X10375Y48739D01*
X10742Y48666D01*
X11118D01*
X11485Y48739D01*
X11832Y48883D01*
X12144Y49091D01*
X12170Y49118D01*
X11966Y49322D01*
X12178Y49534D01*
X12382Y49330D01*
X12409Y49356D01*
X12617Y49668D01*
X12761Y50015D01*
X12834Y50382D01*
Y50758D01*
X12761Y51125D01*
X12617Y51472D01*
X12409Y51784D01*
X12382Y51810D01*
X12178Y51606D01*
X11966Y51818D01*
X12170Y52022D01*
X12144Y52049D01*
X11832Y52257D01*
X11485Y52401D01*
X11118Y52474D01*
D02*
G37*
G36*
X43758Y52444D02*
X43382D01*
X43015Y52371D01*
X42668Y52227D01*
X42356Y52019D01*
X42330Y51992D01*
X42534Y51788D01*
X42322Y51576D01*
X42118Y51780D01*
X42091Y51754D01*
X41883Y51442D01*
X41739Y51095D01*
X41666Y50728D01*
Y50352D01*
X41739Y49985D01*
X41883Y49638D01*
X42091Y49326D01*
X42118Y49300D01*
X42322Y49504D01*
X42534Y49292D01*
X42330Y49088D01*
X42356Y49061D01*
X42668Y48853D01*
X43015Y48709D01*
X43382Y48636D01*
X43758D01*
X44125Y48709D01*
X44472Y48853D01*
X44784Y49061D01*
X44810Y49088D01*
X44606Y49292D01*
X44818Y49504D01*
X45022Y49300D01*
X45049Y49326D01*
X45257Y49638D01*
X45401Y49985D01*
X45474Y50352D01*
Y50728D01*
X45401Y51095D01*
X45257Y51442D01*
X45049Y51754D01*
X45022Y51780D01*
X44818Y51576D01*
X44606Y51788D01*
X44810Y51992D01*
X44784Y52019D01*
X44472Y52227D01*
X44125Y52371D01*
X43758Y52444D01*
D02*
G37*
G36*
X30618D02*
X30242D01*
X29875Y52371D01*
X29528Y52227D01*
X29216Y52019D01*
X29190Y51992D01*
X29394Y51788D01*
X29182Y51576D01*
X28978Y51780D01*
X28951Y51754D01*
X28743Y51442D01*
X28599Y51095D01*
X28526Y50728D01*
Y50352D01*
X28599Y49985D01*
X28743Y49638D01*
X28951Y49326D01*
X28978Y49300D01*
X29182Y49504D01*
X29394Y49292D01*
X29190Y49088D01*
X29216Y49061D01*
X29528Y48853D01*
X29875Y48709D01*
X30242Y48636D01*
X30618D01*
X30985Y48709D01*
X31332Y48853D01*
X31644Y49061D01*
X31670Y49088D01*
X31466Y49292D01*
X31678Y49504D01*
X31882Y49300D01*
X31909Y49326D01*
X32117Y49638D01*
X32261Y49985D01*
X32334Y50352D01*
Y50728D01*
X32261Y51095D01*
X32117Y51442D01*
X31909Y51754D01*
X31882Y51780D01*
X31678Y51576D01*
X31466Y51788D01*
X31670Y51992D01*
X31644Y52019D01*
X31332Y52227D01*
X30985Y52371D01*
X30618Y52444D01*
D02*
G37*
G36*
X18632Y51920D02*
X18368D01*
X18114Y51852D01*
X17886Y51720D01*
X17700Y51534D01*
X17568Y51306D01*
X17566Y51297D01*
X17434D01*
X17432Y51306D01*
X17300Y51534D01*
X17114Y51720D01*
X16886Y51852D01*
X16632Y51920D01*
X16368D01*
X16114Y51852D01*
X15886Y51720D01*
X15700Y51534D01*
X15568Y51306D01*
X15500Y51052D01*
Y50788D01*
X15568Y50534D01*
X15700Y50306D01*
X15886Y50120D01*
X16114Y49988D01*
X16368Y49920D01*
X16632D01*
X16886Y49988D01*
X17114Y50120D01*
X17300Y50306D01*
X17432Y50534D01*
X17434Y50543D01*
X17566D01*
X17568Y50534D01*
X17700Y50306D01*
X17886Y50120D01*
X18114Y49988D01*
X18368Y49920D01*
X18632D01*
X18886Y49988D01*
X19114Y50120D01*
X19300Y50306D01*
X19432Y50534D01*
X19500Y50788D01*
Y51052D01*
X19432Y51306D01*
X19300Y51534D01*
X19114Y51720D01*
X18886Y51852D01*
X18632Y51920D01*
D02*
G37*
G36*
X38132Y51890D02*
X37868D01*
X37614Y51822D01*
X37386Y51690D01*
X37200Y51504D01*
X37068Y51276D01*
X37066Y51267D01*
X36934D01*
X36932Y51276D01*
X36800Y51504D01*
X36614Y51690D01*
X36386Y51822D01*
X36132Y51890D01*
X35868D01*
X35614Y51822D01*
X35386Y51690D01*
X35200Y51504D01*
X35068Y51276D01*
X35000Y51022D01*
Y50758D01*
X35068Y50504D01*
X35200Y50276D01*
X35386Y50090D01*
X35614Y49958D01*
X35868Y49890D01*
X36132D01*
X36386Y49958D01*
X36614Y50090D01*
X36800Y50276D01*
X36932Y50504D01*
X36934Y50513D01*
X37066D01*
X37068Y50504D01*
X37200Y50276D01*
X37386Y50090D01*
X37614Y49958D01*
X37868Y49890D01*
X38132D01*
X38386Y49958D01*
X38614Y50090D01*
X38800Y50276D01*
X38932Y50504D01*
X39000Y50758D01*
Y51022D01*
X38932Y51276D01*
X38800Y51504D01*
X38614Y51690D01*
X38386Y51822D01*
X38132Y51890D01*
D02*
G37*
G36*
X21132Y51920D02*
X20868D01*
X20614Y51852D01*
X20386Y51720D01*
X20200Y51534D01*
X20068Y51306D01*
X20000Y51052D01*
Y50788D01*
X20068Y50534D01*
X20200Y50306D01*
X20386Y50120D01*
X20614Y49988D01*
X20868Y49920D01*
X21132D01*
X21386Y49988D01*
X21614Y50120D01*
X21800Y50306D01*
X21932Y50534D01*
X22000Y50788D01*
Y51052D01*
X21932Y51306D01*
X21800Y51534D01*
X21614Y51720D01*
X21386Y51852D01*
X21132Y51920D01*
D02*
G37*
G36*
X14132D02*
X13868D01*
X13614Y51852D01*
X13386Y51720D01*
X13200Y51534D01*
X13068Y51306D01*
X13000Y51052D01*
Y50788D01*
X13068Y50534D01*
X13200Y50306D01*
X13386Y50120D01*
X13614Y49988D01*
X13868Y49920D01*
X14132D01*
X14386Y49988D01*
X14614Y50120D01*
X14800Y50306D01*
X14932Y50534D01*
X15000Y50788D01*
Y51052D01*
X14932Y51306D01*
X14800Y51534D01*
X14614Y51720D01*
X14386Y51852D01*
X14132Y51920D01*
D02*
G37*
G36*
X40632Y51890D02*
X40368D01*
X40114Y51822D01*
X39886Y51690D01*
X39700Y51504D01*
X39568Y51276D01*
X39500Y51022D01*
Y50758D01*
X39568Y50504D01*
X39700Y50276D01*
X39886Y50090D01*
X40114Y49958D01*
X40368Y49890D01*
X40632D01*
X40886Y49958D01*
X41114Y50090D01*
X41300Y50276D01*
X41432Y50504D01*
X41500Y50758D01*
Y51022D01*
X41432Y51276D01*
X41300Y51504D01*
X41114Y51690D01*
X40886Y51822D01*
X40632Y51890D01*
D02*
G37*
G36*
X33632D02*
X33368D01*
X33114Y51822D01*
X32886Y51690D01*
X32700Y51504D01*
X32568Y51276D01*
X32500Y51022D01*
Y50758D01*
X32568Y50504D01*
X32700Y50276D01*
X32886Y50090D01*
X33114Y49958D01*
X33368Y49890D01*
X33632D01*
X33886Y49958D01*
X34114Y50090D01*
X34300Y50276D01*
X34432Y50504D01*
X34500Y50758D01*
Y51022D01*
X34432Y51276D01*
X34300Y51504D01*
X34114Y51690D01*
X33886Y51822D01*
X33632Y51890D01*
D02*
G37*
G36*
X29750Y39709D02*
X19500D01*
X19324Y39674D01*
X19176Y39574D01*
X18426Y38824D01*
X18326Y38676D01*
X18291Y38500D01*
Y37460D01*
X18230Y37399D01*
X18144Y37251D01*
X18100Y37086D01*
Y36914D01*
X18144Y36749D01*
X18230Y36601D01*
X18351Y36480D01*
X18499Y36394D01*
X18664Y36350D01*
X18836D01*
X19001Y36394D01*
X19149Y36480D01*
X19250Y36581D01*
X19351Y36480D01*
X19499Y36394D01*
X19664Y36350D01*
X19836D01*
X20001Y36394D01*
X20149Y36480D01*
X20270Y36601D01*
X20356Y36749D01*
X20400Y36914D01*
Y37086D01*
X20356Y37251D01*
X20270Y37399D01*
X20209Y37460D01*
Y37810D01*
X20690Y38291D01*
X22726D01*
X22775Y38174D01*
X22626Y38024D01*
X22526Y37876D01*
X22491Y37700D01*
Y37558D01*
X22364Y37505D01*
X22349Y37520D01*
X22201Y37606D01*
X22036Y37650D01*
X21864D01*
X21699Y37606D01*
X21551Y37520D01*
X21430Y37399D01*
X21344Y37251D01*
X21300Y37086D01*
Y36914D01*
X21344Y36749D01*
X21430Y36601D01*
X21551Y36480D01*
X21699Y36394D01*
X21864Y36350D01*
X22036D01*
X22201Y36394D01*
X22349Y36480D01*
X22450Y36581D01*
X22551Y36480D01*
X22699Y36394D01*
X22864Y36350D01*
X23036D01*
X23201Y36394D01*
X23349Y36480D01*
X23470Y36601D01*
X23556Y36749D01*
X23600Y36914D01*
Y37086D01*
X23556Y37251D01*
X23470Y37399D01*
X23455Y37414D01*
X23508Y37541D01*
X27966D01*
X28791Y36716D01*
Y34875D01*
X28826Y34699D01*
X28926Y34551D01*
X31984Y31492D01*
X31899Y31400D01*
X31751Y31486D01*
X31586Y31530D01*
X31414D01*
X31249Y31486D01*
X31101Y31400D01*
X30980Y31279D01*
X30894Y31131D01*
X30850Y30966D01*
Y30794D01*
X30894Y30629D01*
X30980Y30481D01*
X31101Y30360D01*
X31246Y30276D01*
X31249Y30262D01*
Y30158D01*
X31246Y30144D01*
X31101Y30060D01*
X30980Y29939D01*
X30894Y29791D01*
X30850Y29626D01*
Y29454D01*
X30894Y29289D01*
X30980Y29141D01*
X31101Y29020D01*
X31249Y28934D01*
X31414Y28890D01*
X31586D01*
X31751Y28934D01*
X31899Y29020D01*
X32020Y29141D01*
X32106Y29289D01*
X32107Y29294D01*
X32234Y29277D01*
Y16556D01*
X31500D01*
X31383Y16533D01*
X31284Y16466D01*
X31217Y16367D01*
X31194Y16250D01*
Y10953D01*
X31202Y10914D01*
X31205Y10874D01*
X31213Y10856D01*
X31217Y10836D01*
X31240Y10803D01*
X31257Y10767D01*
X31257Y10733D01*
X31240Y10697D01*
X31217Y10664D01*
X31213Y10644D01*
X31205Y10626D01*
X31202Y10586D01*
X31194Y10547D01*
Y2500D01*
X31217Y2383D01*
X31284Y2284D01*
X31383Y2217D01*
X31500Y2194D01*
X37000D01*
X37117Y2217D01*
X37216Y2284D01*
X37283Y2383D01*
X37306Y2500D01*
Y3859D01*
X37300Y3889D01*
Y3919D01*
X37288Y3947D01*
X37283Y3976D01*
X37266Y4001D01*
X37254Y4029D01*
X37233Y4051D01*
X37216Y4076D01*
X37191Y4092D01*
X37170Y4114D01*
X37142Y4125D01*
X37117Y4142D01*
X37088Y4148D01*
X37060Y4159D01*
X37023Y4214D01*
X37050Y4347D01*
Y4653D01*
X37023Y4786D01*
X37060Y4841D01*
X37088Y4852D01*
X37117Y4858D01*
X37142Y4875D01*
X37170Y4886D01*
X37191Y4908D01*
X37216Y4924D01*
X37233Y4949D01*
X37254Y4971D01*
X37266Y4999D01*
X37283Y5024D01*
X37288Y5053D01*
X37300Y5081D01*
Y5111D01*
X37306Y5141D01*
Y15944D01*
X43250Y15944D01*
X43367Y15967D01*
X43466Y16034D01*
X43533Y16133D01*
X43556Y16250D01*
Y25297D01*
X43548Y25336D01*
X43545Y25376D01*
X43537Y25394D01*
X43533Y25414D01*
X43510Y25447D01*
X43493Y25483D01*
X43493Y25517D01*
X43510Y25553D01*
X43533Y25586D01*
X43537Y25606D01*
X43545Y25624D01*
X43548Y25664D01*
X43556Y25703D01*
Y35450D01*
X43533Y35567D01*
X43466Y35666D01*
X43367Y35733D01*
X43250Y35756D01*
X41184D01*
X41145Y35748D01*
X41105Y35745D01*
X41087Y35736D01*
X41067Y35733D01*
X41034Y35710D01*
X40998Y35693D01*
X40985Y35677D01*
X40968Y35666D01*
X40946Y35633D01*
X40920Y35603D01*
X40913Y35584D01*
X40902Y35567D01*
X40894Y35528D01*
X40881Y35490D01*
X40864Y35363D01*
X40866Y35342D01*
X40730Y35306D01*
X40582Y35220D01*
X40461Y35099D01*
X40375Y34951D01*
X40331Y34786D01*
Y34699D01*
X40091Y34459D01*
X32223D01*
X32129Y34586D01*
X32150Y34664D01*
Y34836D01*
X32106Y35001D01*
X32020Y35149D01*
X31959Y35210D01*
Y37500D01*
X31924Y37676D01*
X31824Y37824D01*
X30074Y39574D01*
X29926Y39674D01*
X29750Y39709D01*
D02*
G37*
G36*
X10586Y37400D02*
X10414D01*
X10249Y37356D01*
X10101Y37270D01*
X9980Y37149D01*
X9894Y37001D01*
X9850Y36836D01*
Y36664D01*
X9894Y36499D01*
X9980Y36351D01*
X10101Y36230D01*
X10249Y36144D01*
X10414Y36100D01*
X10586D01*
X10751Y36144D01*
X10899Y36230D01*
X11020Y36351D01*
X11106Y36499D01*
X11150Y36664D01*
Y36836D01*
X11106Y37001D01*
X11020Y37149D01*
X10899Y37270D01*
X10751Y37356D01*
X10586Y37400D01*
D02*
G37*
G36*
X14120Y33854D02*
X13880D01*
X13688Y33774D01*
X13903Y33560D01*
X13690Y33347D01*
X13476Y33562D01*
X13396Y33370D01*
Y33130D01*
X13476Y32938D01*
X13690Y33153D01*
X13903Y32940D01*
X13688Y32726D01*
X13880Y32646D01*
X14120D01*
X14312Y32726D01*
X14097Y32940D01*
X14310Y33153D01*
X14524Y32938D01*
X14604Y33130D01*
Y33370D01*
X14524Y33562D01*
X14310Y33347D01*
X14097Y33560D01*
X14312Y33774D01*
X14120Y33854D01*
D02*
G37*
G36*
X7856Y32900D02*
X7685D01*
X7519Y32856D01*
X7371Y32770D01*
X7250Y32649D01*
X7164Y32501D01*
X7120Y32335D01*
Y32164D01*
X7164Y31999D01*
X7250Y31851D01*
X7371Y31730D01*
X7519Y31644D01*
X7685Y31600D01*
X7856D01*
X8021Y31644D01*
X8169Y31730D01*
X8290Y31851D01*
X8376Y31999D01*
X8420Y32164D01*
Y32335D01*
X8376Y32501D01*
X8290Y32649D01*
X8169Y32770D01*
X8021Y32856D01*
X7856Y32900D01*
D02*
G37*
G36*
X20086Y32650D02*
X19914D01*
X19749Y32606D01*
X19601Y32520D01*
X19480Y32399D01*
X19394Y32251D01*
X19350Y32086D01*
Y31914D01*
X19394Y31749D01*
X19480Y31601D01*
X19601Y31480D01*
X19749Y31394D01*
X19914Y31350D01*
X20086D01*
X20251Y31394D01*
X20399Y31480D01*
X20520Y31601D01*
X20606Y31749D01*
X20650Y31914D01*
Y32086D01*
X20606Y32251D01*
X20520Y32399D01*
X20399Y32520D01*
X20251Y32606D01*
X20086Y32650D01*
D02*
G37*
G36*
X14086Y32150D02*
X13914D01*
X13749Y32106D01*
X13601Y32020D01*
X13480Y31899D01*
X13394Y31751D01*
X13350Y31586D01*
Y31414D01*
X13394Y31249D01*
X13480Y31101D01*
X13601Y30980D01*
X13749Y30894D01*
X13914Y30850D01*
X14086D01*
X14251Y30894D01*
X14399Y30980D01*
X14520Y31101D01*
X14606Y31249D01*
X14650Y31414D01*
Y31586D01*
X14606Y31751D01*
X14520Y31899D01*
X14399Y32020D01*
X14251Y32106D01*
X14086Y32150D01*
D02*
G37*
G36*
X26835Y32150D02*
X26664D01*
X26499Y32106D01*
X26351Y32020D01*
X26230Y31899D01*
X26144Y31751D01*
X26100Y31586D01*
Y31414D01*
X26144Y31249D01*
X26230Y31101D01*
X26331Y31000D01*
X26230Y30899D01*
X26144Y30751D01*
X26100Y30586D01*
Y30414D01*
X26144Y30249D01*
X26230Y30101D01*
X26351Y29980D01*
X26499Y29894D01*
X26664Y29850D01*
X26835D01*
X27001Y29894D01*
X27149Y29980D01*
X27270Y30101D01*
X27356Y30249D01*
X27400Y30414D01*
Y30586D01*
X27356Y30751D01*
X27270Y30899D01*
X27169Y31000D01*
X27270Y31101D01*
X27356Y31249D01*
X27400Y31414D01*
Y31586D01*
X27356Y31751D01*
X27270Y31899D01*
X27149Y32020D01*
X27001Y32106D01*
X26835Y32150D01*
D02*
G37*
G36*
X20085Y30900D02*
X19914D01*
X19749Y30856D01*
X19601Y30770D01*
X19480Y30649D01*
X19394Y30501D01*
X19350Y30336D01*
Y30165D01*
X19394Y29999D01*
X19480Y29851D01*
X19601Y29730D01*
X19749Y29644D01*
X19914Y29600D01*
X20085D01*
X20251Y29644D01*
X20399Y29730D01*
X20520Y29851D01*
X20606Y29999D01*
X20650Y30165D01*
Y30336D01*
X20606Y30501D01*
X20520Y30649D01*
X20399Y30770D01*
X20251Y30856D01*
X20085Y30900D01*
D02*
G37*
G36*
X20086Y29150D02*
X19914D01*
X19749Y29106D01*
X19601Y29020D01*
X19480Y28899D01*
X19394Y28751D01*
X19350Y28586D01*
Y28414D01*
X19394Y28249D01*
X19480Y28101D01*
X19601Y27980D01*
X19749Y27894D01*
X19914Y27850D01*
X20086D01*
X20251Y27894D01*
X20399Y27980D01*
X20520Y28101D01*
X20606Y28249D01*
X20650Y28414D01*
Y28586D01*
X20606Y28751D01*
X20520Y28899D01*
X20399Y29020D01*
X20251Y29106D01*
X20086Y29150D01*
D02*
G37*
G36*
X14086Y26900D02*
X13914D01*
X13749Y26856D01*
X13601Y26770D01*
X13480Y26649D01*
X13394Y26501D01*
X13350Y26336D01*
Y26164D01*
X13394Y25999D01*
X13480Y25851D01*
X13601Y25730D01*
X13749Y25644D01*
X13914Y25600D01*
X14086D01*
X14251Y25644D01*
X14399Y25730D01*
X14520Y25851D01*
X14606Y25999D01*
X14650Y26164D01*
Y26336D01*
X14606Y26501D01*
X14520Y26649D01*
X14399Y26770D01*
X14251Y26856D01*
X14086Y26900D01*
D02*
G37*
G36*
X5316Y26900D02*
X5144D01*
X4979Y26856D01*
X4831Y26770D01*
X4710Y26649D01*
X4624Y26501D01*
X4580Y26335D01*
Y26164D01*
X4624Y25999D01*
X4710Y25851D01*
X4831Y25730D01*
X4979Y25644D01*
X5144Y25600D01*
X5316D01*
X5481Y25644D01*
X5629Y25730D01*
X5750Y25851D01*
X5836Y25999D01*
X5880Y26164D01*
Y26335D01*
X5836Y26501D01*
X5750Y26649D01*
X5629Y26770D01*
X5481Y26856D01*
X5316Y26900D01*
D02*
G37*
G36*
X10586Y25400D02*
X10414D01*
X10249Y25356D01*
X10101Y25270D01*
X9980Y25149D01*
X9894Y25001D01*
X9850Y24836D01*
Y24664D01*
X9894Y24499D01*
X9980Y24351D01*
X10101Y24230D01*
X10249Y24144D01*
X10414Y24100D01*
X10586D01*
X10751Y24144D01*
X10899Y24230D01*
X11020Y24351D01*
X11106Y24499D01*
X11150Y24664D01*
Y24836D01*
X11106Y25001D01*
X11020Y25149D01*
X10899Y25270D01*
X10751Y25356D01*
X10586Y25400D01*
D02*
G37*
G36*
X22854Y24881D02*
X22683D01*
X22518Y24837D01*
X22370Y24751D01*
X22249Y24630D01*
X22163Y24482D01*
X22119Y24317D01*
Y24146D01*
X22163Y23980D01*
X22249Y23832D01*
X22370Y23711D01*
X22518Y23626D01*
X22683Y23581D01*
X22854D01*
X23020Y23626D01*
X23168Y23711D01*
X23289Y23832D01*
X23374Y23980D01*
X23419Y24146D01*
Y24317D01*
X23374Y24482D01*
X23289Y24630D01*
X23168Y24751D01*
X23020Y24837D01*
X22854Y24881D01*
D02*
G37*
G36*
X24336Y22900D02*
X24164D01*
X23999Y22856D01*
X23851Y22770D01*
X23730Y22649D01*
X23644Y22501D01*
X23600Y22336D01*
Y22164D01*
X23644Y21999D01*
X23730Y21851D01*
X23851Y21730D01*
X23956Y21669D01*
X23955Y21535D01*
X23954Y21531D01*
X23938Y21524D01*
X24153Y21310D01*
X23940Y21097D01*
X23726Y21312D01*
X23646Y21120D01*
Y20880D01*
X23726Y20688D01*
X23940Y20903D01*
X24153Y20690D01*
X23938Y20476D01*
X23954Y20469D01*
X23955Y20465D01*
X23956Y20331D01*
X23851Y20270D01*
X23730Y20149D01*
X23644Y20001D01*
X23600Y19836D01*
Y19664D01*
X23644Y19499D01*
X23730Y19351D01*
X23851Y19230D01*
X23999Y19144D01*
X24164Y19100D01*
X24336D01*
X24501Y19144D01*
X24649Y19230D01*
X24770Y19351D01*
X24856Y19499D01*
X24900Y19664D01*
Y19836D01*
X24856Y20001D01*
X24770Y20149D01*
X24649Y20270D01*
X24544Y20331D01*
X24545Y20465D01*
X24546Y20469D01*
X24562Y20476D01*
X24347Y20690D01*
X24560Y20903D01*
X24774Y20688D01*
X24854Y20880D01*
Y21120D01*
X24774Y21312D01*
X24560Y21097D01*
X24347Y21310D01*
X24562Y21524D01*
X24546Y21531D01*
X24545Y21535D01*
X24544Y21669D01*
X24649Y21730D01*
X24770Y21851D01*
X24856Y21999D01*
X24900Y22164D01*
Y22336D01*
X24856Y22501D01*
X24770Y22649D01*
X24649Y22770D01*
X24501Y22856D01*
X24336Y22900D01*
D02*
G37*
G36*
X6148Y21500D02*
X5852D01*
X5562Y21442D01*
X5289Y21329D01*
X5044Y21165D01*
X4835Y20956D01*
X4671Y20711D01*
X4558Y20438D01*
X4500Y20148D01*
Y19852D01*
X4558Y19562D01*
X4671Y19289D01*
X4835Y19044D01*
X5044Y18835D01*
X5289Y18671D01*
X5562Y18558D01*
X5852Y18500D01*
X6148D01*
X6438Y18558D01*
X6711Y18671D01*
X6956Y18835D01*
X7165Y19044D01*
X7329Y19289D01*
X7442Y19562D01*
X7500Y19852D01*
Y20148D01*
X7442Y20438D01*
X7329Y20711D01*
X7165Y20956D01*
X6956Y21165D01*
X6711Y21329D01*
X6438Y21442D01*
X6148Y21500D01*
D02*
G37*
G36*
X44586Y17150D02*
X44414D01*
X44249Y17106D01*
X44101Y17020D01*
X43980Y16899D01*
X43894Y16751D01*
X43850Y16586D01*
Y16414D01*
X43894Y16249D01*
X43980Y16101D01*
X44101Y15980D01*
X44249Y15894D01*
X44414Y15850D01*
X44586D01*
X44751Y15894D01*
X44899Y15980D01*
X45020Y16101D01*
X45106Y16249D01*
X45150Y16414D01*
Y16586D01*
X45106Y16751D01*
X45020Y16899D01*
X44899Y17020D01*
X44751Y17106D01*
X44586Y17150D01*
D02*
G37*
G36*
X6191Y16454D02*
X5809D01*
X5439Y16355D01*
X5107Y16163D01*
X5078Y16134D01*
X5284Y15928D01*
X5072Y15716D01*
X4866Y15922D01*
X4837Y15893D01*
X4645Y15561D01*
X4546Y15191D01*
Y14809D01*
X4645Y14439D01*
X4837Y14107D01*
X4866Y14078D01*
X5072Y14284D01*
X5284Y14072D01*
X5078Y13866D01*
X5107Y13837D01*
X5439Y13645D01*
X5809Y13546D01*
X6191D01*
X6561Y13645D01*
X6893Y13837D01*
X6922Y13866D01*
X6716Y14072D01*
X6928Y14284D01*
X7134Y14078D01*
X7163Y14107D01*
X7355Y14439D01*
X7454Y14809D01*
Y15191D01*
X7355Y15561D01*
X7163Y15893D01*
X7134Y15922D01*
X6928Y15716D01*
X6716Y15928D01*
X6922Y16134D01*
X6893Y16163D01*
X6561Y16355D01*
X6191Y16454D01*
D02*
G37*
G36*
X20145Y15100D02*
X19855D01*
X19575Y15025D01*
X19325Y14880D01*
X19120Y14675D01*
X19063Y14578D01*
X18937D01*
X18880Y14675D01*
X18675Y14880D01*
X18425Y15025D01*
X18145Y15100D01*
X17855D01*
X17575Y15025D01*
X17325Y14880D01*
X17120Y14675D01*
X16975Y14425D01*
X16900Y14145D01*
Y13855D01*
X16975Y13575D01*
X17120Y13325D01*
X17325Y13120D01*
X17575Y12975D01*
X17855Y12900D01*
X18145D01*
X18425Y12975D01*
X18675Y13120D01*
X18880Y13325D01*
X18937Y13422D01*
X19063D01*
X19120Y13325D01*
X19325Y13120D01*
X19575Y12975D01*
X19855Y12900D01*
X20145D01*
X20425Y12975D01*
X20675Y13120D01*
X20880Y13325D01*
X21025Y13575D01*
X21100Y13855D01*
Y14145D01*
X21025Y14425D01*
X20880Y14675D01*
X20675Y14880D01*
X20425Y15025D01*
X20145Y15100D01*
D02*
G37*
G36*
X22645D02*
X22355D01*
X22075Y15025D01*
X21825Y14880D01*
X21620Y14675D01*
X21475Y14425D01*
X21400Y14145D01*
Y13855D01*
X21475Y13575D01*
X21620Y13325D01*
X21825Y13120D01*
X22075Y12975D01*
X22355Y12900D01*
X22645D01*
X22925Y12975D01*
X23175Y13120D01*
X23380Y13325D01*
X23525Y13575D01*
X23600Y13855D01*
Y14145D01*
X23525Y14425D01*
X23380Y14675D01*
X23175Y14880D01*
X22925Y15025D01*
X22645Y15100D01*
D02*
G37*
G36*
X15645D02*
X15355D01*
X15075Y15025D01*
X14825Y14880D01*
X14620Y14675D01*
X14475Y14425D01*
X14400Y14145D01*
Y13855D01*
X14475Y13575D01*
X14620Y13325D01*
X14825Y13120D01*
X15075Y12975D01*
X15355Y12900D01*
X15645D01*
X15925Y12975D01*
X16175Y13120D01*
X16380Y13325D01*
X16525Y13575D01*
X16600Y13855D01*
Y14145D01*
X16525Y14425D01*
X16380Y14675D01*
X16175Y14880D01*
X15925Y15025D01*
X15645Y15100D01*
D02*
G37*
G36*
X38336Y13650D02*
X38164D01*
X37999Y13606D01*
X37851Y13520D01*
X37730Y13399D01*
X37644Y13251D01*
X37600Y13086D01*
Y12914D01*
X37644Y12749D01*
X37730Y12601D01*
X37851Y12480D01*
X37999Y12394D01*
X38164Y12350D01*
X38336D01*
X38501Y12394D01*
X38649Y12480D01*
X38770Y12601D01*
X38856Y12749D01*
X38900Y12914D01*
Y13086D01*
X38856Y13251D01*
X38770Y13399D01*
X38649Y13520D01*
X38501Y13606D01*
X38336Y13650D01*
D02*
G37*
G36*
X44370Y12854D02*
X44130D01*
X43938Y12774D01*
X44153Y12560D01*
X43940Y12347D01*
X43726Y12562D01*
X43646Y12370D01*
Y12130D01*
X43726Y11938D01*
X43940Y12153D01*
X44153Y11940D01*
X43938Y11726D01*
X44020Y11692D01*
X44011Y11558D01*
X43980Y11549D01*
X43832Y11464D01*
X43711Y11343D01*
X43626Y11195D01*
X43581Y11029D01*
Y10858D01*
X43626Y10693D01*
X43711Y10545D01*
X43832Y10424D01*
X43980Y10338D01*
X44146Y10294D01*
X44317D01*
X44482Y10338D01*
X44630Y10424D01*
X44751Y10545D01*
X44837Y10693D01*
X44881Y10858D01*
Y11029D01*
X44837Y11195D01*
X44751Y11343D01*
X44630Y11464D01*
X44482Y11549D01*
X44474Y11552D01*
X44465Y11685D01*
X44562Y11726D01*
X44347Y11940D01*
X44560Y12153D01*
X44774Y11938D01*
X44854Y12130D01*
Y12370D01*
X44774Y12562D01*
X44560Y12347D01*
X44347Y12560D01*
X44562Y12774D01*
X44370Y12854D01*
D02*
G37*
G36*
X48586Y11900D02*
X48414D01*
X48249Y11856D01*
X48101Y11770D01*
X47980Y11649D01*
X47894Y11501D01*
X47850Y11336D01*
Y11164D01*
X47894Y10999D01*
X47980Y10851D01*
X48101Y10730D01*
X48249Y10644D01*
X48414Y10600D01*
X48586D01*
X48751Y10644D01*
X48899Y10730D01*
X49020Y10851D01*
X49106Y10999D01*
X49150Y11164D01*
Y11336D01*
X49106Y11501D01*
X49020Y11649D01*
X48899Y11770D01*
X48751Y11856D01*
X48586Y11900D01*
D02*
G37*
G36*
X6148Y11500D02*
X5852D01*
X5562Y11442D01*
X5289Y11329D01*
X5044Y11165D01*
X4835Y10956D01*
X4671Y10711D01*
X4558Y10438D01*
X4500Y10148D01*
Y9852D01*
X4558Y9562D01*
X4671Y9289D01*
X4835Y9044D01*
X5044Y8835D01*
X5289Y8671D01*
X5562Y8558D01*
X5852Y8500D01*
X6148D01*
X6438Y8558D01*
X6711Y8671D01*
X6956Y8835D01*
X7165Y9044D01*
X7329Y9289D01*
X7442Y9562D01*
X7500Y9852D01*
Y10148D01*
X7442Y10438D01*
X7329Y10711D01*
X7165Y10956D01*
X6956Y11165D01*
X6711Y11329D01*
X6438Y11442D01*
X6148Y11500D01*
D02*
G37*
G36*
X40733Y6050D02*
X40427D01*
X40128Y5990D01*
X39846Y5874D01*
X39592Y5704D01*
X39376Y5488D01*
X39206Y5234D01*
X39090Y4952D01*
X39030Y4653D01*
Y4347D01*
X39090Y4048D01*
X39206Y3766D01*
X39376Y3512D01*
X39592Y3296D01*
X39846Y3126D01*
X40128Y3010D01*
X40427Y2950D01*
X40733D01*
X41032Y3010D01*
X41314Y3126D01*
X41568Y3296D01*
X41784Y3512D01*
X41954Y3766D01*
X42070Y4048D01*
X42130Y4347D01*
Y4653D01*
X42070Y4952D01*
X41954Y5234D01*
X41784Y5488D01*
X41568Y5704D01*
X41314Y5874D01*
X41032Y5990D01*
X40733Y6050D01*
D02*
G37*
%LPD*%
G36*
X43250Y25703D02*
X43123Y25686D01*
X43106Y25751D01*
X43020Y25899D01*
X42899Y26020D01*
X42751Y26106D01*
X42586Y26150D01*
X42414D01*
X42249Y26106D01*
X42101Y26020D01*
X41980Y25899D01*
X41894Y25751D01*
X41850Y25586D01*
Y25414D01*
X41894Y25249D01*
X41980Y25101D01*
X42101Y24980D01*
X42249Y24894D01*
X42414Y24850D01*
X42586D01*
X42751Y24894D01*
X42899Y24980D01*
X43020Y25101D01*
X43106Y25249D01*
X43123Y25314D01*
X43250Y25297D01*
Y16250D01*
X37000Y16250D01*
Y5141D01*
X36873Y5115D01*
X36833Y5212D01*
X36669Y5457D01*
X36463Y5251D01*
X36251Y5463D01*
X36457Y5669D01*
X36212Y5833D01*
X35939Y5946D01*
X35648Y6004D01*
X35352D01*
X35061Y5946D01*
X34788Y5833D01*
X34543Y5669D01*
X34749Y5463D01*
X34537Y5251D01*
X34331Y5457D01*
X34167Y5212D01*
X34054Y4939D01*
X33996Y4648D01*
Y4352D01*
X34054Y4061D01*
X34167Y3788D01*
X34331Y3543D01*
X34537Y3749D01*
X34749Y3537D01*
X34543Y3331D01*
X34788Y3167D01*
X35061Y3054D01*
X35352Y2996D01*
X35648D01*
X35939Y3054D01*
X36212Y3167D01*
X36457Y3331D01*
X36251Y3537D01*
X36463Y3749D01*
X36669Y3543D01*
X36833Y3788D01*
X36873Y3885D01*
X37000Y3859D01*
Y2500D01*
X31500D01*
Y10547D01*
X31627Y10564D01*
X31644Y10499D01*
X31730Y10351D01*
X31851Y10230D01*
X31999Y10144D01*
X32164Y10100D01*
X32336D01*
X32501Y10144D01*
X32649Y10230D01*
X32770Y10351D01*
X32856Y10499D01*
X32900Y10664D01*
Y10836D01*
X32856Y11001D01*
X32770Y11149D01*
X32649Y11270D01*
X32501Y11356D01*
X32336Y11400D01*
X32164D01*
X31999Y11356D01*
X31851Y11270D01*
X31730Y11149D01*
X31644Y11001D01*
X31627Y10936D01*
X31500Y10953D01*
Y16250D01*
X32540D01*
Y30971D01*
X32625Y31041D01*
X39081D01*
X39257Y31076D01*
X39406Y31176D01*
X40260Y32030D01*
X40377Y31981D01*
Y31980D01*
X40457Y31788D01*
X40672Y32003D01*
X40884Y31790D01*
X40638Y31545D01*
X40636Y31452D01*
X40582Y31420D01*
X40461Y31299D01*
X40375Y31151D01*
X40331Y30986D01*
Y30814D01*
X40375Y30649D01*
X40461Y30501D01*
X40582Y30380D01*
X40686Y30320D01*
X40688Y30314D01*
Y30186D01*
X40686Y30180D01*
X40582Y30120D01*
X40461Y29999D01*
X40375Y29851D01*
X40331Y29686D01*
Y29514D01*
X40375Y29349D01*
X40461Y29201D01*
X40582Y29080D01*
X40730Y28994D01*
X40896Y28950D01*
X41067D01*
X41232Y28994D01*
X41380Y29080D01*
X41501Y29201D01*
X41587Y29349D01*
X41631Y29514D01*
Y29686D01*
X41587Y29851D01*
X41501Y29999D01*
X41380Y30120D01*
X41276Y30180D01*
X41274Y30186D01*
Y30314D01*
X41276Y30320D01*
X41380Y30380D01*
X41501Y30501D01*
X41587Y30649D01*
X41631Y30814D01*
Y30986D01*
X41587Y31151D01*
X41501Y31299D01*
X41380Y31420D01*
X41326Y31452D01*
X41324Y31545D01*
X41079Y31790D01*
X41291Y32003D01*
X41506Y31788D01*
X41585Y31980D01*
Y32220D01*
X41506Y32412D01*
X41291Y32197D01*
X41079Y32410D01*
X41293Y32624D01*
X41213Y32658D01*
X41222Y32792D01*
X41232Y32794D01*
X41380Y32880D01*
X41501Y33001D01*
X41587Y33149D01*
X41631Y33314D01*
Y33486D01*
X41587Y33651D01*
X41501Y33799D01*
X41380Y33920D01*
X41276Y33980D01*
X41274Y33986D01*
Y34114D01*
X41276Y34120D01*
X41380Y34180D01*
X41501Y34301D01*
X41587Y34449D01*
X41631Y34614D01*
Y34786D01*
X41587Y34951D01*
X41501Y35099D01*
X41380Y35220D01*
X41232Y35306D01*
X41168Y35323D01*
X41184Y35450D01*
X43250D01*
Y25703D01*
D02*
G37*
%LPC*%
G36*
X42620Y27604D02*
X42380D01*
X42188Y27524D01*
X42403Y27310D01*
X42190Y27097D01*
X41976Y27312D01*
X41896Y27120D01*
Y26880D01*
X41976Y26688D01*
X42190Y26903D01*
X42403Y26690D01*
X42188Y26476D01*
X42380Y26396D01*
X42620D01*
X42812Y26476D01*
X42597Y26690D01*
X42810Y26903D01*
X43024Y26688D01*
X43104Y26880D01*
Y27120D01*
X43024Y27312D01*
X42810Y27097D01*
X42597Y27310D01*
X42812Y27524D01*
X42620Y27604D01*
D02*
G37*
G36*
X35836Y28900D02*
X35664D01*
X35499Y28856D01*
X35351Y28770D01*
X35230Y28649D01*
X35144Y28501D01*
X35100Y28336D01*
Y28164D01*
X35144Y27999D01*
X35230Y27851D01*
X35351Y27730D01*
X35499Y27644D01*
X35512Y27641D01*
Y27509D01*
X35499Y27506D01*
X35351Y27420D01*
X35230Y27299D01*
X35144Y27151D01*
X35100Y26986D01*
Y26814D01*
X35144Y26649D01*
X35230Y26501D01*
X35351Y26380D01*
X35499Y26294D01*
X35664Y26250D01*
X35836D01*
X36001Y26294D01*
X36149Y26380D01*
X36270Y26501D01*
X36356Y26649D01*
X36400Y26814D01*
Y26986D01*
X36356Y27151D01*
X36270Y27299D01*
X36149Y27420D01*
X36001Y27506D01*
X35988Y27509D01*
Y27641D01*
X36001Y27644D01*
X36149Y27730D01*
X36270Y27851D01*
X36356Y27999D01*
X36400Y28164D01*
Y28336D01*
X36356Y28501D01*
X36270Y28649D01*
X36149Y28770D01*
X36001Y28856D01*
X35836Y28900D01*
D02*
G37*
G36*
X32370Y12854D02*
X32130D01*
X31938Y12774D01*
X32153Y12560D01*
X31940Y12347D01*
X31726Y12562D01*
X31646Y12370D01*
Y12130D01*
X31726Y11938D01*
X31940Y12153D01*
X32153Y11940D01*
X31938Y11726D01*
X32130Y11646D01*
X32370D01*
X32562Y11726D01*
X32347Y11940D01*
X32560Y12153D01*
X32774Y11938D01*
X32854Y12130D01*
Y12370D01*
X32774Y12562D01*
X32560Y12347D01*
X32347Y12560D01*
X32562Y12774D01*
X32370Y12854D01*
D02*
G37*
%LPD*%
D11*
X31000Y34000D02*
X40281D01*
X30000Y35000D02*
X31000Y34000D01*
X30000Y35000D02*
Y38000D01*
X29250Y34875D02*
X32625Y31500D01*
X39081D02*
X40981Y33400D01*
X32625Y31500D02*
X39081D01*
X31500Y34750D02*
Y37500D01*
X29250Y34875D02*
Y36906D01*
X28156Y38000D02*
X29250Y36906D01*
X23250Y38000D02*
X28156D01*
X22950Y37700D02*
X23250Y38000D01*
X22950Y37000D02*
Y37700D01*
X40281Y34000D02*
X40981Y34700D01*
X29250Y38750D02*
X30000Y38000D01*
X20500Y38750D02*
X29250D01*
X19750Y38000D02*
X20500Y38750D01*
X19750Y37000D02*
Y38000D01*
X29750Y39250D02*
X31500Y37500D01*
X19500Y39250D02*
X29750D01*
X18750Y38500D02*
X19500Y39250D01*
X18750Y37000D02*
Y38500D01*
D24*
X6000Y20000D02*
D03*
Y15000D02*
D03*
Y10000D02*
D03*
D25*
X35500Y4500D02*
D03*
X40580D02*
D03*
D26*
X22500Y14000D02*
D03*
X20000D02*
D03*
X18000D02*
D03*
X15500D02*
D03*
D27*
X12430Y11290D02*
D03*
X25570D02*
D03*
D28*
X21000Y50920D02*
D03*
X18500D02*
D03*
X16500D02*
D03*
X14000D02*
D03*
X21000Y53540D02*
D03*
X18500D02*
D03*
X16500D02*
D03*
X14000D02*
D03*
X40500Y50890D02*
D03*
X38000D02*
D03*
X36000D02*
D03*
X33500D02*
D03*
X40500Y53510D02*
D03*
X38000D02*
D03*
X36000D02*
D03*
X33500D02*
D03*
D29*
X24070Y50570D02*
D03*
X10930D02*
D03*
Y56250D02*
D03*
X24070D02*
D03*
X43570Y50540D02*
D03*
X30430D02*
D03*
Y56220D02*
D03*
X43570D02*
D03*
D30*
X4500Y62500D02*
D03*
X50000D02*
D03*
X4500Y4500D02*
D03*
X50000D02*
D03*
D31*
X24250Y22250D02*
D03*
X10500Y24750D02*
D03*
X22769Y24231D02*
D03*
X20000Y28500D02*
D03*
Y32000D02*
D03*
X20000Y30250D02*
D03*
X48500Y11250D02*
D03*
X44500Y16500D02*
D03*
X24250Y19750D02*
D03*
Y21000D02*
D03*
X44250Y12250D02*
D03*
X32250D02*
D03*
X38250Y13000D02*
D03*
X44231Y10944D02*
D03*
X32250Y10750D02*
D03*
X14000Y26250D02*
D03*
Y31500D02*
D03*
Y33250D02*
D03*
X10500Y36750D02*
D03*
X7770Y32250D02*
D03*
X5230Y26250D02*
D03*
X42500Y25500D02*
D03*
Y27000D02*
D03*
X35750Y32250D02*
D03*
Y26900D02*
D03*
Y28250D02*
D03*
Y33250D02*
D03*
X31500Y34750D02*
D03*
X40981Y34700D02*
D03*
Y32100D02*
D03*
Y33400D02*
D03*
Y29600D02*
D03*
Y30900D02*
D03*
X31500Y30880D02*
D03*
Y29540D02*
D03*
X26750Y31500D02*
D03*
Y30500D02*
D03*
X21950Y37000D02*
D03*
X22950D02*
D03*
X19750D02*
D03*
X18750D02*
D03*
D32*
X4500Y4500D02*
X5070D01*
X11860Y11290D01*
X12430D01*
X25570D01*
%TF.MD5,95aad5cd3deea6bc8863e737b1564998*%
M02*
