%TF.GenerationSoftware,Altium Limited,Altium Designer,25.2.1 (25)*%
G04 Layer_Color=128*
%FSLAX43Y43*%
%MOMM*%
%TF.SameCoordinates,20204492-5425-4C88-903B-EF9DED91A393*%
%TF.FilePolarity,Positive*%
%TF.FileFunction,Drillmap*%
%TF.Part,Single*%
G01*
G75*
%TA.AperFunction,NonConductor*%
%ADD56C,0.127*%
D56*
X5200Y20000D02*
X6800D01*
X6000Y19200D02*
Y20800D01*
X5200Y15000D02*
X6800D01*
X6000Y14200D02*
Y15800D01*
X5200Y10000D02*
X6800D01*
X6000Y9200D02*
Y10800D01*
X34850Y4500D02*
X36150D01*
X35500Y3850D02*
Y5150D01*
X39930Y4500D02*
X41230D01*
X40580Y3850D02*
Y5150D01*
X22050Y14000D02*
X22950D01*
X22500Y13550D02*
Y14450D01*
X19550Y14000D02*
X20450D01*
X20000Y13550D02*
Y14450D01*
X17550Y14000D02*
X18450D01*
X18000Y13550D02*
Y14450D01*
X15050Y14000D02*
X15950D01*
X15500Y13550D02*
Y14450D01*
X11280Y11290D02*
X13580D01*
X12430Y10140D02*
Y12440D01*
X24420Y11290D02*
X26720D01*
X25570Y10140D02*
Y12440D01*
X20550Y50920D02*
X21450D01*
X21000Y50470D02*
Y51370D01*
X18050Y50920D02*
X18950D01*
X18500Y50470D02*
Y51370D01*
X16050Y50920D02*
X16950D01*
X16500Y50470D02*
Y51370D01*
X13550Y50920D02*
X14450D01*
X14000Y50470D02*
Y51370D01*
X20550Y53540D02*
X21450D01*
X21000Y53090D02*
Y53990D01*
X18050Y53540D02*
X18950D01*
X18500Y53090D02*
Y53990D01*
X16050Y53540D02*
X16950D01*
X16500Y53090D02*
Y53990D01*
X13550Y53540D02*
X14450D01*
X14000Y53090D02*
Y53990D01*
X22920Y50570D02*
X25220D01*
X24070Y49420D02*
Y51720D01*
X9780Y50570D02*
X12080D01*
X10930Y49420D02*
Y51720D01*
X9780Y56250D02*
X12080D01*
X10930Y55100D02*
Y57400D01*
X22920Y56250D02*
X25220D01*
X24070Y55100D02*
Y57400D01*
X40050Y50890D02*
X40950D01*
X40500Y50440D02*
Y51340D01*
X37550Y50890D02*
X38450D01*
X38000Y50440D02*
Y51340D01*
X35550Y50890D02*
X36450D01*
X36000Y50440D02*
Y51340D01*
X33050Y50890D02*
X33950D01*
X33500Y50440D02*
Y51340D01*
X40050Y53510D02*
X40950D01*
X40500Y53060D02*
Y53960D01*
X37550Y53510D02*
X38450D01*
X38000Y53060D02*
Y53960D01*
X35550Y53510D02*
X36450D01*
X36000Y53060D02*
Y53960D01*
X33050Y53510D02*
X33950D01*
X33500Y53060D02*
Y53960D01*
X42420Y50540D02*
X44720D01*
X43570Y49390D02*
Y51690D01*
X29280Y50540D02*
X31580D01*
X30430Y49390D02*
Y51690D01*
X29280Y56220D02*
X31580D01*
X30430Y55070D02*
Y57370D01*
X42420Y56220D02*
X44720D01*
X43570Y55070D02*
Y57370D01*
X2750Y62500D02*
X6250D01*
X4500Y60750D02*
Y64250D01*
X48250Y62500D02*
X51750D01*
X50000Y60750D02*
Y64250D01*
X2750Y4500D02*
X6250D01*
X4500Y2750D02*
Y6250D01*
X48250Y4500D02*
X51750D01*
X50000Y2750D02*
Y6250D01*
X24100Y22250D02*
X24400D01*
X24250Y22100D02*
Y22400D01*
X10350Y24750D02*
X10650D01*
X10500Y24600D02*
Y24900D01*
X22619Y24231D02*
X22919D01*
X22769Y24081D02*
Y24381D01*
X19850Y28500D02*
X20150D01*
X20000Y28350D02*
Y28650D01*
X19850Y32000D02*
X20150D01*
X20000Y31850D02*
Y32150D01*
X19850Y30250D02*
X20150D01*
X20000Y30100D02*
Y30400D01*
X48350Y11250D02*
X48650D01*
X48500Y11100D02*
Y11400D01*
X44350Y16500D02*
X44650D01*
X44500Y16350D02*
Y16650D01*
X24100Y19750D02*
X24400D01*
X24250Y19600D02*
Y19900D01*
X24100Y21000D02*
X24400D01*
X24250Y20850D02*
Y21150D01*
X44100Y12250D02*
X44400D01*
X44250Y12100D02*
Y12400D01*
X32100Y12250D02*
X32400D01*
X32250Y12100D02*
Y12400D01*
X38100Y13000D02*
X38400D01*
X38250Y12850D02*
Y13150D01*
X44081Y10944D02*
X44381D01*
X44231Y10794D02*
Y11094D01*
X32100Y10750D02*
X32400D01*
X32250Y10600D02*
Y10900D01*
X13850Y26250D02*
X14150D01*
X14000Y26100D02*
Y26400D01*
X13850Y31500D02*
X14150D01*
X14000Y31350D02*
Y31650D01*
X13850Y33250D02*
X14150D01*
X14000Y33100D02*
Y33400D01*
X10350Y36750D02*
X10650D01*
X10500Y36600D02*
Y36900D01*
X7620Y32250D02*
X7920D01*
X7770Y32100D02*
Y32400D01*
X5080Y26250D02*
X5380D01*
X5230Y26100D02*
Y26400D01*
X42350Y25500D02*
X42650D01*
X42500Y25350D02*
Y25650D01*
X42350Y27000D02*
X42650D01*
X42500Y26850D02*
Y27150D01*
X35600Y32250D02*
X35900D01*
X35750Y32100D02*
Y32400D01*
X35600Y26900D02*
X35900D01*
X35750Y26750D02*
Y27050D01*
X35600Y28250D02*
X35900D01*
X35750Y28100D02*
Y28400D01*
X35600Y33250D02*
X35900D01*
X35750Y33100D02*
Y33400D01*
X31350Y34750D02*
X31650D01*
X31500Y34600D02*
Y34900D01*
X40831Y34700D02*
X41131D01*
X40981Y34550D02*
Y34850D01*
X40831Y32100D02*
X41131D01*
X40981Y31950D02*
Y32250D01*
X40831Y33400D02*
X41131D01*
X40981Y33250D02*
Y33550D01*
X40831Y29600D02*
X41131D01*
X40981Y29450D02*
Y29750D01*
X40831Y30900D02*
X41131D01*
X40981Y30750D02*
Y31050D01*
X31350Y30880D02*
X31650D01*
X31500Y30730D02*
Y31030D01*
X31350Y29540D02*
X31650D01*
X31500Y29390D02*
Y29690D01*
X26600Y31500D02*
X26900D01*
X26750Y31350D02*
Y31650D01*
X26600Y30500D02*
X26900D01*
X26750Y30350D02*
Y30650D01*
X21800Y37000D02*
X22100D01*
X21950Y36850D02*
Y37150D01*
X22800Y37000D02*
X23100D01*
X22950Y36850D02*
Y37150D01*
X19600Y37000D02*
X19900D01*
X19750Y36850D02*
Y37150D01*
X18600Y37000D02*
X18900D01*
X18750Y36850D02*
Y37150D01*
%TF.MD5,4b01751c2bf0f269362cbe1529915a3b*%
M02*
