%TF.GenerationSoftware,Altium Limited,Altium Designer,25.2.1 (25)*%
G04 Layer_Color=255*
%FSLAX43Y43*%
%MOMM*%
%TF.SameCoordinates,20204492-5425-4C88-903B-EF9DED91A393*%
%TF.FilePolarity,Positive*%
%TF.FileFunction,Pads,Bot*%
%TF.Part,Single*%
G01*
G75*
%TA.AperFunction,ComponentPad*%
%ADD24C,2.400*%
%ADD25C,2.500*%
%ADD26C,1.600*%
%ADD27C,3.500*%
%ADD28C,1.400*%
%ADD29C,3.300*%
%ADD30C,6.000*%
D24*
X6000Y20000D02*
D03*
Y15000D02*
D03*
Y10000D02*
D03*
D25*
X35500Y4500D02*
D03*
X40580D02*
D03*
D26*
X22500Y14000D02*
D03*
X20000D02*
D03*
X18000D02*
D03*
X15500D02*
D03*
D27*
X12430Y11290D02*
D03*
X25570D02*
D03*
D28*
X21000Y50920D02*
D03*
X18500D02*
D03*
X16500D02*
D03*
X14000D02*
D03*
X21000Y53540D02*
D03*
X18500D02*
D03*
X16500D02*
D03*
X14000D02*
D03*
X40500Y50890D02*
D03*
X38000D02*
D03*
X36000D02*
D03*
X33500D02*
D03*
X40500Y53510D02*
D03*
X38000D02*
D03*
X36000D02*
D03*
X33500D02*
D03*
D29*
X24070Y50570D02*
D03*
X10930D02*
D03*
Y56250D02*
D03*
X24070D02*
D03*
X43570Y50540D02*
D03*
X30430D02*
D03*
Y56220D02*
D03*
X43570D02*
D03*
D30*
X4500Y62500D02*
D03*
X50000D02*
D03*
X4500Y4500D02*
D03*
X50000D02*
D03*
%TF.MD5,03f7071662a045dab341bddf12eb77c4*%
M02*
