%TF.GenerationSoftware,Altium Limited,Altium Designer,25.2.1 (25)*%
G04 Layer_Color=6740479*
%FSLAX43Y43*%
%MOMM*%
%TF.SameCoordinates,20204492-5425-4C88-903B-EF9DED91A393*%
%TF.FilePolarity,Positive*%
%TF.FileFunction,Legend,Bot*%
%TF.Part,Single*%
G01*
G75*
%TA.AperFunction,NonConductor*%
%ADD36C,0.250*%
%ADD38C,0.254*%
G36*
X20692Y24411D02*
X20786D01*
Y24404D01*
X20836D01*
Y24396D01*
X20887D01*
Y24389D01*
X20923D01*
Y24382D01*
X20966D01*
Y24375D01*
X20980D01*
Y24368D01*
X21016D01*
Y24360D01*
X21045D01*
Y24353D01*
X21066D01*
Y24346D01*
X21095D01*
Y24339D01*
X21109D01*
Y24332D01*
X21131D01*
Y24325D01*
X21153D01*
Y24317D01*
X21167D01*
Y24310D01*
X21189D01*
Y24303D01*
X21203D01*
Y24296D01*
X21232D01*
Y24289D01*
X21239D01*
Y24281D01*
X21260D01*
Y24274D01*
X21268D01*
Y24267D01*
X21282D01*
Y24260D01*
X21304D01*
Y24253D01*
X21311D01*
Y24245D01*
X21332D01*
Y24238D01*
X21347D01*
Y24231D01*
X21361D01*
Y24224D01*
X21368D01*
Y24217D01*
X21383D01*
Y24209D01*
X21397D01*
Y24202D01*
X21404D01*
Y24195D01*
X21419D01*
Y24188D01*
X21433D01*
Y24181D01*
X21440D01*
Y24174D01*
X21455D01*
Y24166D01*
X21462D01*
Y24159D01*
X21476D01*
Y24152D01*
X21483D01*
Y24145D01*
X21498D01*
Y24138D01*
X21505D01*
Y24130D01*
X21512D01*
Y24123D01*
X21526D01*
Y24116D01*
X21534D01*
Y24109D01*
X21548D01*
Y24102D01*
X21555D01*
Y24094D01*
X21562D01*
Y24087D01*
X21577D01*
Y24080D01*
X21584D01*
Y24073D01*
X21591D01*
Y24066D01*
X21598D01*
Y24059D01*
X21605D01*
Y24051D01*
X21620D01*
Y24037D01*
X21634D01*
Y24030D01*
X21641D01*
Y24023D01*
X21649D01*
Y24015D01*
X21656D01*
Y24008D01*
X21663D01*
Y24001D01*
X21670D01*
Y23994D01*
X21677D01*
Y23987D01*
X21692D01*
Y23972D01*
X21706D01*
Y23958D01*
X21713D01*
Y23951D01*
X21721D01*
Y23943D01*
X21728D01*
Y23936D01*
X21735D01*
Y23929D01*
X21742D01*
Y23922D01*
X21749D01*
Y23915D01*
X21756D01*
Y23908D01*
X21764D01*
Y23900D01*
X21771D01*
Y23893D01*
X21778D01*
Y23879D01*
X21785D01*
Y23872D01*
X21792D01*
Y23864D01*
X21800D01*
Y23857D01*
X21807D01*
Y23850D01*
X21814D01*
Y23836D01*
X21821D01*
Y23828D01*
X21828D01*
Y23821D01*
X21836D01*
Y23814D01*
X21843D01*
Y23800D01*
X21850D01*
Y23793D01*
X21857D01*
Y23778D01*
X21864D01*
Y23771D01*
X21872D01*
Y23764D01*
X21879D01*
Y23749D01*
X21886D01*
Y23742D01*
X21893D01*
Y23728D01*
X21900D01*
Y23721D01*
X21907D01*
Y23713D01*
X21915D01*
Y23692D01*
X21922D01*
Y23685D01*
X21929D01*
Y23670D01*
X21936D01*
Y23663D01*
X21943D01*
Y23649D01*
X21951D01*
Y23634D01*
X21958D01*
Y23627D01*
X21965D01*
Y23613D01*
X21972D01*
Y23598D01*
X21979D01*
Y23584D01*
X21987D01*
Y23562D01*
X21994D01*
Y23555D01*
X22001D01*
Y23534D01*
X22008D01*
Y23527D01*
X22015D01*
Y23505D01*
X22022D01*
Y23491D01*
X22030D01*
Y23476D01*
X22037D01*
Y23455D01*
X22044D01*
Y23440D01*
X22051D01*
Y23411D01*
X22058D01*
Y23397D01*
X22066D01*
Y23376D01*
X22073D01*
Y23354D01*
X22080D01*
Y23340D01*
X22087D01*
Y23304D01*
X22094D01*
Y23282D01*
X22102D01*
Y23246D01*
X22109D01*
Y23225D01*
X22116D01*
Y23196D01*
X22123D01*
Y23145D01*
X22130D01*
Y23110D01*
X22138D01*
Y23045D01*
X22145D01*
Y22951D01*
X22152D01*
Y17049D01*
X22145D01*
Y16955D01*
X22138D01*
Y16891D01*
X22130D01*
Y16855D01*
X22123D01*
Y16804D01*
X22116D01*
Y16776D01*
X22109D01*
Y16754D01*
X22102D01*
Y16718D01*
X22094D01*
Y16697D01*
X22087D01*
Y16661D01*
X22080D01*
Y16646D01*
X22073D01*
Y16625D01*
X22066D01*
Y16603D01*
X22058D01*
Y16589D01*
X22051D01*
Y16560D01*
X22044D01*
Y16546D01*
X22037D01*
Y16524D01*
X22030D01*
Y16510D01*
X22022D01*
Y16495D01*
X22015D01*
Y16474D01*
X22008D01*
Y16467D01*
X22001D01*
Y16445D01*
X21994D01*
Y16438D01*
X21987D01*
Y16416D01*
X21979D01*
Y16402D01*
X21972D01*
Y16387D01*
X21965D01*
Y16373D01*
X21958D01*
Y16366D01*
X21951D01*
Y16352D01*
X21943D01*
Y16337D01*
X21936D01*
Y16330D01*
X21929D01*
Y16316D01*
X21922D01*
Y16308D01*
X21915D01*
Y16287D01*
X21907D01*
Y16280D01*
X21900D01*
Y16272D01*
X21893D01*
Y16258D01*
X21886D01*
Y16251D01*
X21879D01*
Y16236D01*
X21872D01*
Y16229D01*
X21864D01*
Y16222D01*
X21857D01*
Y16208D01*
X21850D01*
Y16201D01*
X21843D01*
Y16186D01*
X21836D01*
Y16179D01*
X21828D01*
Y16172D01*
X21821D01*
Y16165D01*
X21814D01*
Y16150D01*
X21807D01*
Y16143D01*
X21800D01*
Y16136D01*
X21792D01*
Y16129D01*
X21785D01*
Y16121D01*
X21778D01*
Y16107D01*
X21771D01*
Y16100D01*
X21764D01*
Y16093D01*
X21756D01*
Y16086D01*
X21749D01*
Y16078D01*
X21742D01*
Y16071D01*
X21735D01*
Y16064D01*
X21728D01*
Y16057D01*
X21721D01*
Y16050D01*
X21713D01*
Y16042D01*
X21706D01*
Y16028D01*
X21692D01*
Y16014D01*
X21677D01*
Y16006D01*
X21670D01*
Y15999D01*
X21663D01*
Y15992D01*
X21656D01*
Y15985D01*
X21649D01*
Y15978D01*
X21641D01*
Y15970D01*
X21634D01*
Y15963D01*
X21620D01*
Y15949D01*
X21605D01*
Y15942D01*
X21598D01*
Y15935D01*
X21591D01*
Y15927D01*
X21584D01*
Y15920D01*
X21577D01*
Y15913D01*
X21562D01*
Y15906D01*
X21555D01*
Y15899D01*
X21548D01*
Y15891D01*
X21534D01*
Y15884D01*
X21526D01*
Y15877D01*
X21512D01*
Y15870D01*
X21505D01*
Y15863D01*
X21498D01*
Y15855D01*
X21483D01*
Y15848D01*
X21476D01*
Y15841D01*
X21462D01*
Y15834D01*
X21455D01*
Y15827D01*
X21440D01*
Y15819D01*
X21433D01*
Y15812D01*
X21419D01*
Y15805D01*
X21404D01*
Y15798D01*
X21397D01*
Y15791D01*
X21383D01*
Y15784D01*
X21368D01*
Y15776D01*
X21361D01*
Y15769D01*
X21347D01*
Y15762D01*
X21332D01*
Y15755D01*
X21311D01*
Y15748D01*
X21304D01*
Y15740D01*
X21282D01*
Y15733D01*
X21268D01*
Y15726D01*
X21260D01*
Y15719D01*
X21239D01*
Y15712D01*
X21232D01*
Y15704D01*
X21203D01*
Y15697D01*
X21189D01*
Y15690D01*
X21167D01*
Y15683D01*
X21153D01*
Y15676D01*
X21131D01*
Y15669D01*
X21109D01*
Y15661D01*
X21095D01*
Y15654D01*
X21066D01*
Y15647D01*
X21045D01*
Y15640D01*
X21016D01*
Y15633D01*
X20980D01*
Y15625D01*
X20966D01*
Y15618D01*
X20923D01*
Y15611D01*
X20887D01*
Y15604D01*
X20836D01*
Y15597D01*
X20786D01*
Y15589D01*
X20692D01*
Y15582D01*
X12058D01*
Y15589D01*
X11965D01*
Y15597D01*
X11914D01*
Y15604D01*
X11864D01*
Y15611D01*
X11828D01*
Y15618D01*
X11785D01*
Y15625D01*
X11770D01*
Y15633D01*
X11735D01*
Y15640D01*
X11706D01*
Y15647D01*
X11684D01*
Y15654D01*
X11655D01*
Y15661D01*
X11641D01*
Y15669D01*
X11619D01*
Y15676D01*
X11598D01*
Y15683D01*
X11584D01*
Y15690D01*
X11562D01*
Y15697D01*
X11548D01*
Y15704D01*
X11519D01*
Y15712D01*
X11512D01*
Y15719D01*
X11490D01*
Y15726D01*
X11483D01*
Y15733D01*
X11469D01*
Y15740D01*
X11447D01*
Y15748D01*
X11440D01*
Y15755D01*
X11418D01*
Y15762D01*
X11404D01*
Y15769D01*
X11389D01*
Y15776D01*
X11382D01*
Y15784D01*
X11368D01*
Y15791D01*
X11353D01*
Y15798D01*
X11346D01*
Y15805D01*
X11332D01*
Y15812D01*
X11318D01*
Y15819D01*
X11310D01*
Y15827D01*
X11296D01*
Y15834D01*
X11289D01*
Y15841D01*
X11274D01*
Y15848D01*
X11267D01*
Y15855D01*
X11253D01*
Y15863D01*
X11246D01*
Y15870D01*
X11238D01*
Y15877D01*
X11224D01*
Y15884D01*
X11217D01*
Y15891D01*
X11202D01*
Y15899D01*
X11195D01*
Y15906D01*
X11188D01*
Y15913D01*
X11174D01*
Y15920D01*
X11167D01*
Y15927D01*
X11159D01*
Y15935D01*
X11152D01*
Y15942D01*
X11145D01*
Y15949D01*
X11131D01*
Y15963D01*
X11116D01*
Y15970D01*
X11109D01*
Y15978D01*
X11102D01*
Y15985D01*
X11095D01*
Y15992D01*
X11087D01*
Y15999D01*
X11080D01*
Y16006D01*
X11073D01*
Y16014D01*
X11059D01*
Y16028D01*
X11044D01*
Y16042D01*
X11037D01*
Y16050D01*
X11030D01*
Y16057D01*
X11023D01*
Y16064D01*
X11016D01*
Y16071D01*
X11008D01*
Y16078D01*
X11001D01*
Y16086D01*
X10994D01*
Y16093D01*
X10987D01*
Y16100D01*
X10980D01*
Y16107D01*
X10972D01*
Y16121D01*
X10965D01*
Y16129D01*
X10958D01*
Y16136D01*
X10951D01*
Y16143D01*
X10944D01*
Y16150D01*
X10936D01*
Y16165D01*
X10929D01*
Y16172D01*
X10922D01*
Y16179D01*
X10915D01*
Y16186D01*
X10908D01*
Y16201D01*
X10901D01*
Y16208D01*
X10893D01*
Y16222D01*
X10886D01*
Y16229D01*
X10879D01*
Y16236D01*
X10872D01*
Y16251D01*
X10865D01*
Y16258D01*
X10857D01*
Y16272D01*
X10850D01*
Y16280D01*
X10843D01*
Y16287D01*
X10836D01*
Y16308D01*
X10829D01*
Y16316D01*
X10821D01*
Y16330D01*
X10814D01*
Y16337D01*
X10807D01*
Y16352D01*
X10800D01*
Y16366D01*
X10793D01*
Y16373D01*
X10786D01*
Y16387D01*
X10778D01*
Y16402D01*
X10771D01*
Y16416D01*
X10764D01*
Y16438D01*
X10757D01*
Y16445D01*
X10750D01*
Y16467D01*
X10742D01*
Y16474D01*
X10735D01*
Y16495D01*
X10728D01*
Y16510D01*
X10721D01*
Y16524D01*
X10714D01*
Y16546D01*
X10706D01*
Y16560D01*
X10699D01*
Y16589D01*
X10692D01*
Y16603D01*
X10685D01*
Y16625D01*
X10678D01*
Y16646D01*
X10670D01*
Y16661D01*
X10663D01*
Y16697D01*
X10656D01*
Y16718D01*
X10649D01*
Y16754D01*
X10642D01*
Y16776D01*
X10635D01*
Y16804D01*
X10627D01*
Y16855D01*
X10620D01*
Y16891D01*
X10613D01*
Y16955D01*
X10606D01*
Y17049D01*
X10599D01*
Y22951D01*
X10606D01*
Y23045D01*
X10613D01*
Y23110D01*
X10620D01*
Y23145D01*
X10627D01*
Y23196D01*
X10635D01*
Y23225D01*
X10642D01*
Y23246D01*
X10649D01*
Y23282D01*
X10656D01*
Y23304D01*
X10663D01*
Y23340D01*
X10670D01*
Y23354D01*
X10678D01*
Y23376D01*
X10685D01*
Y23397D01*
X10692D01*
Y23411D01*
X10699D01*
Y23440D01*
X10706D01*
Y23455D01*
X10714D01*
Y23476D01*
X10721D01*
Y23491D01*
X10728D01*
Y23505D01*
X10735D01*
Y23527D01*
X10742D01*
Y23534D01*
X10750D01*
Y23555D01*
X10757D01*
Y23562D01*
X10764D01*
Y23584D01*
X10771D01*
Y23598D01*
X10778D01*
Y23613D01*
X10786D01*
Y23627D01*
X10793D01*
Y23634D01*
X10800D01*
Y23649D01*
X10807D01*
Y23663D01*
X10814D01*
Y23670D01*
X10821D01*
Y23685D01*
X10829D01*
Y23692D01*
X10836D01*
Y23713D01*
X10843D01*
Y23721D01*
X10850D01*
Y23728D01*
X10857D01*
Y23742D01*
X10865D01*
Y23749D01*
X10872D01*
Y23764D01*
X10879D01*
Y23771D01*
X10886D01*
Y23778D01*
X10893D01*
Y23793D01*
X10901D01*
Y23800D01*
X10908D01*
Y23814D01*
X10915D01*
Y23821D01*
X10922D01*
Y23828D01*
X10929D01*
Y23836D01*
X10936D01*
Y23850D01*
X10944D01*
Y23857D01*
X10951D01*
Y23864D01*
X10958D01*
Y23872D01*
X10965D01*
Y23879D01*
X10972D01*
Y23893D01*
X10980D01*
Y23900D01*
X10987D01*
Y23908D01*
X10994D01*
Y23915D01*
X11001D01*
Y23922D01*
X11008D01*
Y23929D01*
X11016D01*
Y23936D01*
X11023D01*
Y23943D01*
X11030D01*
Y23951D01*
X11037D01*
Y23958D01*
X11044D01*
Y23972D01*
X11059D01*
Y23987D01*
X11073D01*
Y23994D01*
X11080D01*
Y24001D01*
X11087D01*
Y24008D01*
X11095D01*
Y24015D01*
X11102D01*
Y24023D01*
X11109D01*
Y24030D01*
X11116D01*
Y24037D01*
X11131D01*
Y24051D01*
X11145D01*
Y24059D01*
X11152D01*
Y24066D01*
X11159D01*
Y24073D01*
X11167D01*
Y24080D01*
X11174D01*
Y24087D01*
X11188D01*
Y24094D01*
X11195D01*
Y24102D01*
X11202D01*
Y24109D01*
X11217D01*
Y24116D01*
X11224D01*
Y24123D01*
X11238D01*
Y24130D01*
X11246D01*
Y24138D01*
X11253D01*
Y24145D01*
X11267D01*
Y24152D01*
X11274D01*
Y24159D01*
X11289D01*
Y24166D01*
X11296D01*
Y24174D01*
X11310D01*
Y24181D01*
X11318D01*
Y24188D01*
X11332D01*
Y24195D01*
X11346D01*
Y24202D01*
X11353D01*
Y24209D01*
X11368D01*
Y24217D01*
X11382D01*
Y24224D01*
X11389D01*
Y24231D01*
X11404D01*
Y24238D01*
X11418D01*
Y24245D01*
X11440D01*
Y24253D01*
X11447D01*
Y24260D01*
X11469D01*
Y24267D01*
X11483D01*
Y24274D01*
X11490D01*
Y24281D01*
X11512D01*
Y24289D01*
X11519D01*
Y24296D01*
X11548D01*
Y24303D01*
X11562D01*
Y24310D01*
X11584D01*
Y24317D01*
X11598D01*
Y24325D01*
X11619D01*
Y24332D01*
X11641D01*
Y24339D01*
X11655D01*
Y24346D01*
X11684D01*
Y24353D01*
X11706D01*
Y24360D01*
X11735D01*
Y24368D01*
X11770D01*
Y24375D01*
X11785D01*
Y24382D01*
X11828D01*
Y24389D01*
X11864D01*
Y24396D01*
X11914D01*
Y24404D01*
X11965D01*
Y24411D01*
X12058D01*
Y24418D01*
X20692D01*
Y24411D01*
D02*
G37*
G36*
X39409Y21671D02*
X41636D01*
Y20559D01*
X41635D01*
Y20557D01*
X40523D01*
Y19444D01*
X41635D01*
Y19442D01*
X41636D01*
Y18330D01*
X42750D01*
Y16103D01*
X41636D01*
Y17216D01*
X40524D01*
Y17218D01*
X40523D01*
Y18330D01*
X39409D01*
Y17218D01*
X39408D01*
Y17216D01*
X38295D01*
Y18330D01*
X34955D01*
Y17216D01*
X36067D01*
Y17215D01*
X36068D01*
Y16103D01*
X34955D01*
Y17216D01*
X33842D01*
Y17218D01*
X33841D01*
Y18330D01*
X32727D01*
Y17218D01*
X32726D01*
Y17216D01*
X31614D01*
Y16103D01*
X30500D01*
Y18330D01*
X31614D01*
Y19442D01*
X31615D01*
Y19444D01*
X32727D01*
Y20557D01*
X31615D01*
Y20559D01*
X31614D01*
Y21671D01*
X30500D01*
Y22471D01*
Y22472D01*
Y22785D01*
X31612D01*
Y22783D01*
X31614D01*
Y21671D01*
X33841D01*
Y19444D01*
X34955D01*
Y21671D01*
X33841D01*
Y23898D01*
X34955D01*
Y22785D01*
X38295D01*
Y23898D01*
X39409D01*
Y21671D01*
D02*
G37*
G36*
X42750D02*
X41636D01*
Y22013D01*
Y22014D01*
Y22783D01*
X41638D01*
Y22785D01*
X42750D01*
Y21671D01*
D02*
G37*
G36*
X38295Y17129D02*
Y17128D01*
Y16103D01*
X37182D01*
Y17215D01*
X37183D01*
Y17216D01*
X38295D01*
Y17129D01*
D02*
G37*
%LPC*%
G36*
X20707Y23735D02*
X12044D01*
Y23728D01*
X11979D01*
Y23721D01*
X11943D01*
Y23713D01*
X11921D01*
Y23706D01*
X11885D01*
Y23699D01*
X11871D01*
Y23692D01*
X11842D01*
Y23685D01*
X11828D01*
Y23677D01*
X11806D01*
Y23670D01*
X11792D01*
Y23663D01*
X11778D01*
Y23656D01*
X11756D01*
Y23649D01*
X11749D01*
Y23642D01*
X11735D01*
Y23634D01*
X11720D01*
Y23627D01*
X11706D01*
Y23620D01*
X11691D01*
Y23613D01*
X11684D01*
Y23606D01*
X11670D01*
Y23598D01*
X11655D01*
Y23591D01*
X11648D01*
Y23584D01*
X11641D01*
Y23577D01*
X11627D01*
Y23570D01*
X11619D01*
Y23562D01*
X11612D01*
Y23555D01*
X11598D01*
Y23548D01*
X11591D01*
Y23541D01*
X11584D01*
Y23534D01*
X11576D01*
Y23527D01*
X11569D01*
Y23519D01*
X11555D01*
Y23512D01*
X11548D01*
Y23505D01*
X11540D01*
Y23498D01*
X11533D01*
Y23491D01*
X11526D01*
Y23483D01*
X11519D01*
Y23476D01*
X11512D01*
Y23469D01*
X11504D01*
Y23462D01*
X11497D01*
Y23447D01*
X11490D01*
Y23440D01*
X11483D01*
Y23433D01*
X11476D01*
Y23426D01*
X11469D01*
Y23419D01*
X11461D01*
Y23411D01*
X11454D01*
Y23397D01*
X11447D01*
Y23390D01*
X11440D01*
Y23376D01*
X11433D01*
Y23368D01*
X11425D01*
Y23361D01*
X11418D01*
Y23347D01*
X11411D01*
Y23332D01*
X11404D01*
Y23325D01*
X11397D01*
Y23311D01*
X11389D01*
Y23296D01*
X11382D01*
Y23289D01*
X11375D01*
Y23275D01*
X11368D01*
Y23253D01*
X11361D01*
Y23246D01*
X11353D01*
Y23225D01*
X11346D01*
Y23217D01*
X11339D01*
Y23189D01*
X11332D01*
Y23174D01*
X11325D01*
Y23153D01*
X11318D01*
Y23124D01*
X11310D01*
Y23102D01*
X11303D01*
Y23066D01*
X11296D01*
Y23038D01*
X11289D01*
Y22987D01*
X11282D01*
Y17013D01*
X11289D01*
Y16963D01*
X11296D01*
Y16934D01*
X11303D01*
Y16898D01*
X11310D01*
Y16876D01*
X11318D01*
Y16848D01*
X11325D01*
Y16826D01*
X11332D01*
Y16812D01*
X11339D01*
Y16783D01*
X11346D01*
Y16776D01*
X11353D01*
Y16754D01*
X11361D01*
Y16747D01*
X11368D01*
Y16725D01*
X11375D01*
Y16711D01*
X11382D01*
Y16704D01*
X11389D01*
Y16689D01*
X11397D01*
Y16675D01*
X11404D01*
Y16668D01*
X11411D01*
Y16653D01*
X11418D01*
Y16639D01*
X11425D01*
Y16632D01*
X11433D01*
Y16625D01*
X11440D01*
Y16610D01*
X11447D01*
Y16603D01*
X11454D01*
Y16589D01*
X11461D01*
Y16582D01*
X11469D01*
Y16574D01*
X11476D01*
Y16567D01*
X11483D01*
Y16560D01*
X11490D01*
Y16546D01*
X11497D01*
Y16538D01*
X11504D01*
Y16531D01*
X11512D01*
Y16524D01*
X11519D01*
Y16517D01*
X11526D01*
Y16510D01*
X11533D01*
Y16502D01*
X11540D01*
Y16495D01*
X11548D01*
Y16488D01*
X11555D01*
Y16481D01*
X11569D01*
Y16474D01*
X11576D01*
Y16467D01*
X11584D01*
Y16459D01*
X11591D01*
Y16452D01*
X11598D01*
Y16445D01*
X11612D01*
Y16438D01*
X11619D01*
Y16431D01*
X11627D01*
Y16423D01*
X11641D01*
Y16416D01*
X11648D01*
Y16409D01*
X11655D01*
Y16402D01*
X11670D01*
Y16395D01*
X11684D01*
Y16387D01*
X11691D01*
Y16380D01*
X11706D01*
Y16373D01*
X11720D01*
Y16366D01*
X11735D01*
Y16359D01*
X11749D01*
Y16352D01*
X11756D01*
Y16344D01*
X11778D01*
Y16337D01*
X11792D01*
Y16330D01*
X11806D01*
Y16323D01*
X11828D01*
Y16316D01*
X11842D01*
Y16308D01*
X11871D01*
Y16301D01*
X11885D01*
Y16294D01*
X11921D01*
Y16287D01*
X11943D01*
Y16280D01*
X11979D01*
Y16272D01*
X12044D01*
Y16265D01*
X20714D01*
Y16272D01*
X20772D01*
Y16280D01*
X20807D01*
Y16287D01*
X20829D01*
Y16294D01*
X20865D01*
Y16301D01*
X20879D01*
Y16308D01*
X20908D01*
Y16316D01*
X20923D01*
Y16323D01*
X20944D01*
Y16330D01*
X20958D01*
Y16337D01*
X20973D01*
Y16344D01*
X20994D01*
Y16352D01*
X21002D01*
Y16359D01*
X21016D01*
Y16366D01*
X21030D01*
Y16373D01*
X21045D01*
Y16380D01*
X21059D01*
Y16387D01*
X21066D01*
Y16395D01*
X21081D01*
Y16402D01*
X21095D01*
Y16409D01*
X21102D01*
Y16416D01*
X21109D01*
Y16423D01*
X21124D01*
Y16431D01*
X21131D01*
Y16438D01*
X21138D01*
Y16445D01*
X21153D01*
Y16452D01*
X21160D01*
Y16459D01*
X21167D01*
Y16467D01*
X21174D01*
Y16474D01*
X21181D01*
Y16481D01*
X21196D01*
Y16488D01*
X21203D01*
Y16495D01*
X21210D01*
Y16502D01*
X21217D01*
Y16510D01*
X21224D01*
Y16517D01*
X21232D01*
Y16524D01*
X21239D01*
Y16531D01*
X21246D01*
Y16538D01*
X21253D01*
Y16546D01*
X21260D01*
Y16560D01*
X21268D01*
Y16567D01*
X21275D01*
Y16574D01*
X21282D01*
Y16582D01*
X21289D01*
Y16589D01*
X21296D01*
Y16603D01*
X21304D01*
Y16610D01*
X21311D01*
Y16625D01*
X21318D01*
Y16632D01*
X21325D01*
Y16639D01*
X21332D01*
Y16653D01*
X21340D01*
Y16668D01*
X21347D01*
Y16675D01*
X21354D01*
Y16682D01*
X21361D01*
Y16704D01*
X21368D01*
Y16711D01*
X21375D01*
Y16725D01*
X21383D01*
Y16747D01*
X21390D01*
Y16754D01*
X21397D01*
Y16776D01*
X21404D01*
Y16783D01*
X21411D01*
Y16812D01*
X21419D01*
Y16826D01*
X21426D01*
Y16848D01*
X21433D01*
Y16876D01*
X21440D01*
Y16898D01*
X21447D01*
Y16934D01*
X21455D01*
Y16963D01*
X21462D01*
Y17013D01*
X21469D01*
Y22987D01*
X21462D01*
Y23038D01*
X21455D01*
Y23066D01*
X21447D01*
Y23102D01*
X21440D01*
Y23124D01*
X21433D01*
Y23153D01*
X21426D01*
Y23174D01*
X21419D01*
Y23189D01*
X21411D01*
Y23217D01*
X21404D01*
Y23225D01*
X21397D01*
Y23246D01*
X21390D01*
Y23253D01*
X21383D01*
Y23275D01*
X21375D01*
Y23289D01*
X21368D01*
Y23296D01*
X21361D01*
Y23311D01*
X21354D01*
Y23325D01*
X21347D01*
Y23332D01*
X21340D01*
Y23347D01*
X21332D01*
Y23361D01*
X21325D01*
Y23368D01*
X21318D01*
Y23376D01*
X21311D01*
Y23390D01*
X21304D01*
Y23397D01*
X21296D01*
Y23411D01*
X21289D01*
Y23419D01*
X21282D01*
Y23426D01*
X21275D01*
Y23433D01*
X21268D01*
Y23440D01*
X21260D01*
Y23455D01*
X21253D01*
Y23462D01*
X21246D01*
Y23469D01*
X21239D01*
Y23476D01*
X21232D01*
Y23483D01*
X21224D01*
Y23491D01*
X21217D01*
Y23498D01*
X21210D01*
Y23505D01*
X21203D01*
Y23512D01*
X21196D01*
Y23519D01*
X21181D01*
Y23527D01*
X21174D01*
Y23534D01*
X21167D01*
Y23541D01*
X21160D01*
Y23548D01*
X21153D01*
Y23555D01*
X21138D01*
Y23562D01*
X21131D01*
Y23570D01*
X21124D01*
Y23577D01*
X21109D01*
Y23584D01*
X21102D01*
Y23591D01*
X21095D01*
Y23598D01*
X21081D01*
Y23606D01*
X21066D01*
Y23613D01*
X21059D01*
Y23620D01*
X21045D01*
Y23627D01*
X21030D01*
Y23634D01*
X21016D01*
Y23642D01*
X21002D01*
Y23649D01*
X20994D01*
Y23656D01*
X20973D01*
Y23663D01*
X20958D01*
Y23670D01*
X20944D01*
Y23677D01*
X20923D01*
Y23685D01*
X20908D01*
Y23692D01*
X20879D01*
Y23699D01*
X20865D01*
Y23706D01*
X20829D01*
Y23713D01*
X20807D01*
Y23721D01*
X20772D01*
Y23728D01*
X20707D01*
Y23735D01*
D02*
G37*
%LPD*%
G36*
X16192Y23225D02*
X16206D01*
Y17293D01*
X16199D01*
Y17286D01*
X16192D01*
Y17279D01*
X16178D01*
Y17286D01*
X15207D01*
Y17279D01*
X15200D01*
Y17286D01*
X15185D01*
Y17617D01*
X15200D01*
Y17624D01*
X15214D01*
Y17617D01*
X15221D01*
Y17624D01*
X15832D01*
Y17617D01*
X15847D01*
Y17624D01*
X15861D01*
Y17631D01*
X15868D01*
Y18343D01*
Y18350D01*
Y19824D01*
X15861D01*
Y19838D01*
X15854D01*
Y19846D01*
X15847D01*
Y19853D01*
X15840D01*
Y19860D01*
X15825D01*
Y19867D01*
X15818D01*
Y19874D01*
X15811D01*
Y19881D01*
X15804D01*
Y19889D01*
X15797D01*
Y19896D01*
X15789D01*
Y19903D01*
X15782D01*
Y19910D01*
X15775D01*
Y19917D01*
X15768D01*
Y19925D01*
X15761D01*
Y19932D01*
X15753D01*
Y19939D01*
X15739D01*
Y19946D01*
X15732D01*
Y19953D01*
X15725D01*
Y19961D01*
X15717D01*
Y19968D01*
X15710D01*
Y19975D01*
X15703D01*
Y19982D01*
X15696D01*
Y19989D01*
X15689D01*
Y19997D01*
X15681D01*
Y20004D01*
X15674D01*
Y20011D01*
X15660D01*
Y20018D01*
X15653D01*
Y20025D01*
X15646D01*
Y20032D01*
X15638D01*
Y20040D01*
X15631D01*
Y20047D01*
X15624D01*
Y20054D01*
X15617D01*
Y20061D01*
X15610D01*
Y20068D01*
X15602D01*
Y20076D01*
X15588D01*
Y20083D01*
X15581D01*
Y20090D01*
X15574D01*
Y20097D01*
X15566D01*
Y20104D01*
X15559D01*
Y20112D01*
X15552D01*
Y20119D01*
X15545D01*
Y20126D01*
X15538D01*
Y20133D01*
X15530D01*
Y20140D01*
X15523D01*
Y20147D01*
X15516D01*
Y20155D01*
X15502D01*
Y20162D01*
X15495D01*
Y20169D01*
X15487D01*
Y20176D01*
X15480D01*
Y20183D01*
X15473D01*
Y20191D01*
X15466D01*
Y20198D01*
X15459D01*
Y20205D01*
X15451D01*
Y20212D01*
X15444D01*
Y20219D01*
X15430D01*
Y20227D01*
X15423D01*
Y20234D01*
X15415D01*
Y20241D01*
X15408D01*
Y20248D01*
X15401D01*
Y20255D01*
X15394D01*
Y20263D01*
X15387D01*
Y20270D01*
X15380D01*
Y20277D01*
X15372D01*
Y20284D01*
X15365D01*
Y20291D01*
X15358D01*
Y20298D01*
X15344D01*
Y20306D01*
X15336D01*
Y20313D01*
X15329D01*
Y20320D01*
X15322D01*
Y20327D01*
X15315D01*
Y20334D01*
X15308D01*
Y20342D01*
X15300D01*
Y20349D01*
X15293D01*
Y20356D01*
X15286D01*
Y20363D01*
X15272D01*
Y20370D01*
X15264D01*
Y20378D01*
X15257D01*
Y20385D01*
X15250D01*
Y20392D01*
X15243D01*
Y20399D01*
X15236D01*
Y20406D01*
X15229D01*
Y20414D01*
X15221D01*
Y20421D01*
X15214D01*
Y20428D01*
X15207D01*
Y20435D01*
X15193D01*
Y20442D01*
X15185D01*
Y20449D01*
X15178D01*
Y20457D01*
X15171D01*
Y20464D01*
X15164D01*
Y20471D01*
X15157D01*
Y20478D01*
X15149D01*
Y20485D01*
X15142D01*
Y20493D01*
X15135D01*
Y20500D01*
X15128D01*
Y20507D01*
X15121D01*
Y20514D01*
X15106D01*
Y20521D01*
X15099D01*
Y20529D01*
X15092D01*
Y20536D01*
X15085D01*
Y20543D01*
X15078D01*
Y20550D01*
X15070D01*
Y20557D01*
X15063D01*
Y20564D01*
X15056D01*
Y20572D01*
X15049D01*
Y20579D01*
X15034D01*
Y20586D01*
X15027D01*
Y20593D01*
X15020D01*
Y20600D01*
X15013D01*
Y20608D01*
X15006D01*
Y20615D01*
X14998D01*
Y20622D01*
X14991D01*
Y20629D01*
X14984D01*
Y20636D01*
X14977D01*
Y20644D01*
X14970D01*
Y20651D01*
X14963D01*
Y20658D01*
X14948D01*
Y20665D01*
X14941D01*
Y20672D01*
X14934D01*
Y20680D01*
X14927D01*
Y20687D01*
X14919D01*
Y20694D01*
X14912D01*
Y20701D01*
X14905D01*
Y20708D01*
X14898D01*
Y20715D01*
X14891D01*
Y20723D01*
X14876D01*
Y20730D01*
X14869D01*
Y20737D01*
X14862D01*
Y20744D01*
X14855D01*
Y20751D01*
X14847D01*
Y20759D01*
X14840D01*
Y20766D01*
X14833D01*
Y20773D01*
X14826D01*
Y20780D01*
X14819D01*
Y20787D01*
X14812D01*
Y20795D01*
X14804D01*
Y20802D01*
X14790D01*
Y20809D01*
X14783D01*
Y20816D01*
X14776D01*
Y20823D01*
X14768D01*
Y20830D01*
X14761D01*
Y20838D01*
X14754D01*
Y20845D01*
X14740D01*
Y20859D01*
X14732D01*
Y20866D01*
X14718D01*
Y20881D01*
X14704D01*
Y20888D01*
X14697D01*
Y20895D01*
X14689D01*
Y20902D01*
X14682D01*
Y20910D01*
X14675D01*
Y20917D01*
X14668D01*
Y20924D01*
X14661D01*
Y20931D01*
X14646D01*
Y20938D01*
X14639D01*
Y20946D01*
X14632D01*
Y20953D01*
X14625D01*
Y20960D01*
X14617D01*
Y20967D01*
X14610D01*
Y20974D01*
X14603D01*
Y20981D01*
X14596D01*
Y20989D01*
X14589D01*
Y20996D01*
X14581D01*
Y21003D01*
X14574D01*
Y21010D01*
X14567D01*
Y21017D01*
X14553D01*
Y21025D01*
X14546D01*
Y21032D01*
X14538D01*
Y21039D01*
X14531D01*
Y21046D01*
X14524D01*
Y21053D01*
X14517D01*
Y21061D01*
X14510D01*
Y21068D01*
X14502D01*
Y21075D01*
X14495D01*
Y21082D01*
X14481D01*
Y21089D01*
X14474D01*
Y21097D01*
X14466D01*
Y21104D01*
X14459D01*
Y21111D01*
X14452D01*
Y21118D01*
X14445D01*
Y21125D01*
X14438D01*
Y21132D01*
X14431D01*
Y21140D01*
X14423D01*
Y21147D01*
X14416D01*
Y21154D01*
X14409D01*
Y21161D01*
X14395D01*
Y21168D01*
X14387D01*
Y21176D01*
X14380D01*
Y21183D01*
X14373D01*
Y21190D01*
X14366D01*
Y21197D01*
X14359D01*
Y21204D01*
X14351D01*
Y21212D01*
X14344D01*
Y21219D01*
X14337D01*
Y21226D01*
X14323D01*
Y21233D01*
X14315D01*
Y21240D01*
X14308D01*
Y21247D01*
X14301D01*
Y21255D01*
X14294D01*
Y21262D01*
X14287D01*
Y21269D01*
X14280D01*
Y21276D01*
X14272D01*
Y21283D01*
X14265D01*
Y21291D01*
X14258D01*
Y21298D01*
X14244D01*
Y21305D01*
X14236D01*
Y21312D01*
X14229D01*
Y21319D01*
X14222D01*
Y21327D01*
X14215D01*
Y21334D01*
X14208D01*
Y21341D01*
X14200D01*
Y21348D01*
X14193D01*
Y21355D01*
X14186D01*
Y21362D01*
X14179D01*
Y21370D01*
X14172D01*
Y21377D01*
X14157D01*
Y21384D01*
X14150D01*
Y21391D01*
X14143D01*
Y21398D01*
X14136D01*
Y21406D01*
X14129D01*
Y21413D01*
X14121D01*
Y21420D01*
X14114D01*
Y21427D01*
X14107D01*
Y21434D01*
X14100D01*
Y21442D01*
X14085D01*
Y21449D01*
X14078D01*
Y21456D01*
X14071D01*
Y21463D01*
X14064D01*
Y21470D01*
X14057D01*
Y21478D01*
X14049D01*
Y21485D01*
X14042D01*
Y21492D01*
X14035D01*
Y21499D01*
X14021D01*
Y21513D01*
X14014D01*
Y21521D01*
X13999D01*
Y21513D01*
X13992D01*
Y21499D01*
X13985D01*
Y21478D01*
X13978D01*
Y21456D01*
X13970D01*
Y21434D01*
X13963D01*
Y21406D01*
X13956D01*
Y21384D01*
X13949D01*
Y21362D01*
X13942D01*
Y21341D01*
X13934D01*
Y21319D01*
X13927D01*
Y21298D01*
X13920D01*
Y21276D01*
X13913D01*
Y21247D01*
X13906D01*
Y21226D01*
X13899D01*
Y21204D01*
X13891D01*
Y21183D01*
X13884D01*
Y21161D01*
X13877D01*
Y21140D01*
X13870D01*
Y21118D01*
X13863D01*
Y21089D01*
X13855D01*
Y21068D01*
X13848D01*
Y21046D01*
X13841D01*
Y21025D01*
X13834D01*
Y21003D01*
X13827D01*
Y20981D01*
X13819D01*
Y20953D01*
X13812D01*
Y20938D01*
X13805D01*
Y20910D01*
X13798D01*
Y20888D01*
X13791D01*
Y20866D01*
X13783D01*
Y20845D01*
X13776D01*
Y20823D01*
X13769D01*
Y20795D01*
X13762D01*
Y20773D01*
X13755D01*
Y20751D01*
X13748D01*
Y20730D01*
X13740D01*
Y20708D01*
X13733D01*
Y20687D01*
X13726D01*
Y20665D01*
X13719D01*
Y20636D01*
X13712D01*
Y20622D01*
X13704D01*
Y20593D01*
X13697D01*
Y20572D01*
X13690D01*
Y20550D01*
X13683D01*
Y20529D01*
X13676D01*
Y20507D01*
X13668D01*
Y20478D01*
X13661D01*
Y20457D01*
X13654D01*
Y20435D01*
X13647D01*
Y20414D01*
X13640D01*
Y20392D01*
X13632D01*
Y20370D01*
X13625D01*
Y20349D01*
X13618D01*
Y20327D01*
X13611D01*
Y20298D01*
X13604D01*
Y20277D01*
X13597D01*
Y20255D01*
X13589D01*
Y20234D01*
X13582D01*
Y20212D01*
X13575D01*
Y20191D01*
X13568D01*
Y20169D01*
X13561D01*
Y20140D01*
X13553D01*
Y20119D01*
X13546D01*
Y20097D01*
X13539D01*
Y20076D01*
X13532D01*
Y20054D01*
X13525D01*
Y20032D01*
X13517D01*
Y20004D01*
X13510D01*
Y19982D01*
X13503D01*
Y19961D01*
X13496D01*
Y19939D01*
X13489D01*
Y19917D01*
X13482D01*
Y19896D01*
X13474D01*
Y19874D01*
X13467D01*
Y19853D01*
X13460D01*
Y19824D01*
X13453D01*
Y19810D01*
X13446D01*
Y19781D01*
X13438D01*
Y19759D01*
X13431D01*
Y19738D01*
X13424D01*
Y19716D01*
X13417D01*
Y19695D01*
X13410D01*
Y19666D01*
X13402D01*
Y19644D01*
X13395D01*
Y19623D01*
X13388D01*
Y19601D01*
X13381D01*
Y19580D01*
X13374D01*
Y19558D01*
X13366D01*
Y19536D01*
X13359D01*
Y19508D01*
X13352D01*
Y19486D01*
X13345D01*
Y19465D01*
X13338D01*
Y19443D01*
X13331D01*
Y19421D01*
X13323D01*
Y19400D01*
X13316D01*
Y19378D01*
X13309D01*
Y19349D01*
X13302D01*
Y19328D01*
X13295D01*
Y19306D01*
X13287D01*
Y19285D01*
X13280D01*
Y19263D01*
X13273D01*
Y19242D01*
X13266D01*
Y19220D01*
X13259D01*
Y19191D01*
X13251D01*
Y19170D01*
X13244D01*
Y19148D01*
X13237D01*
Y19127D01*
X13230D01*
Y19105D01*
X13223D01*
Y19083D01*
X13216D01*
Y19055D01*
X13208D01*
Y19040D01*
X13201D01*
Y19012D01*
X13194D01*
Y18990D01*
X13187D01*
Y18968D01*
X13180D01*
Y18947D01*
X13172D01*
Y18925D01*
X13165D01*
Y18897D01*
X13158D01*
Y18882D01*
X13151D01*
Y18853D01*
X13144D01*
Y18832D01*
X13136D01*
Y18810D01*
X13129D01*
Y18789D01*
X13122D01*
Y18767D01*
X13115D01*
Y18738D01*
X13108D01*
Y18724D01*
X13100D01*
Y18695D01*
X13093D01*
Y18674D01*
X13086D01*
Y18652D01*
X13079D01*
Y18631D01*
X13072D01*
Y18609D01*
X13065D01*
Y18580D01*
X13057D01*
Y18566D01*
X13050D01*
Y18537D01*
X13043D01*
Y18516D01*
X13036D01*
Y18494D01*
X13029D01*
Y18472D01*
X13021D01*
Y18451D01*
X13014D01*
Y18429D01*
X13007D01*
Y18400D01*
X13000D01*
Y18379D01*
X12993D01*
Y18357D01*
X12985D01*
Y18336D01*
X12978D01*
Y18314D01*
X12971D01*
Y18293D01*
X12964D01*
Y18271D01*
X12957D01*
Y18242D01*
X12950D01*
Y18221D01*
X12942D01*
Y18199D01*
X12935D01*
Y18178D01*
X12928D01*
Y18156D01*
X12921D01*
Y18134D01*
X12914D01*
Y18113D01*
X12906D01*
Y18084D01*
X12899D01*
Y18063D01*
X12892D01*
Y18041D01*
X12885D01*
Y18019D01*
X12878D01*
Y17998D01*
X12870D01*
Y17976D01*
X12863D01*
Y17955D01*
X12856D01*
Y17926D01*
X12849D01*
Y17904D01*
X12842D01*
Y17883D01*
X12834D01*
Y17861D01*
X12827D01*
Y17840D01*
X12820D01*
Y17818D01*
X12813D01*
Y17797D01*
X12820D01*
Y17789D01*
X13151D01*
Y17459D01*
X13144D01*
Y17451D01*
X11792D01*
Y17459D01*
X11785D01*
Y17782D01*
X11792D01*
Y17789D01*
X12633D01*
Y17797D01*
X12640D01*
Y17804D01*
X12648D01*
Y17833D01*
X12655D01*
Y17854D01*
X12662D01*
Y17876D01*
X12669D01*
Y17897D01*
X12676D01*
Y17919D01*
X12684D01*
Y17940D01*
X12691D01*
Y17962D01*
X12698D01*
Y17983D01*
X12705D01*
Y18005D01*
X12712D01*
Y18027D01*
X12719D01*
Y18055D01*
X12727D01*
Y18077D01*
X12734D01*
Y18099D01*
X12741D01*
Y18120D01*
X12748D01*
Y18142D01*
X12755D01*
Y18163D01*
X12763D01*
Y18185D01*
X12770D01*
Y18214D01*
X12777D01*
Y18228D01*
X12784D01*
Y18257D01*
X12791D01*
Y18278D01*
X12799D01*
Y18300D01*
X12806D01*
Y18321D01*
X12813D01*
Y18343D01*
X12820D01*
Y18365D01*
X12827D01*
Y18386D01*
X12834D01*
Y18408D01*
X12842D01*
Y18436D01*
X12849D01*
Y18458D01*
X12856D01*
Y18480D01*
X12863D01*
Y18501D01*
X12870D01*
Y18523D01*
X12878D01*
Y18544D01*
X12885D01*
Y18566D01*
X12892D01*
Y18587D01*
X12899D01*
Y18609D01*
X12906D01*
Y18638D01*
X12914D01*
Y18659D01*
X12921D01*
Y18681D01*
X12928D01*
Y18702D01*
X12935D01*
Y18724D01*
X12942D01*
Y18746D01*
X12950D01*
Y18767D01*
X12957D01*
Y18789D01*
X12964D01*
Y18810D01*
X12971D01*
Y18839D01*
X12978D01*
Y18861D01*
X12985D01*
Y18882D01*
X12993D01*
Y18904D01*
X13000D01*
Y18925D01*
X13007D01*
Y18947D01*
X13014D01*
Y18968D01*
X13021D01*
Y18990D01*
X13029D01*
Y19019D01*
X13036D01*
Y19040D01*
X13043D01*
Y19062D01*
X13050D01*
Y19083D01*
X13057D01*
Y19105D01*
X13065D01*
Y19127D01*
X13072D01*
Y19148D01*
X13079D01*
Y19170D01*
X13086D01*
Y19191D01*
X13093D01*
Y19220D01*
X13100D01*
Y19242D01*
X13108D01*
Y19263D01*
X13115D01*
Y19285D01*
X13122D01*
Y19306D01*
X13129D01*
Y19328D01*
X13136D01*
Y19349D01*
X13144D01*
Y19371D01*
X13151D01*
Y19393D01*
X13158D01*
Y19414D01*
X13165D01*
Y19443D01*
X13172D01*
Y19465D01*
X13180D01*
Y19486D01*
X13187D01*
Y19508D01*
X13194D01*
Y19529D01*
X13201D01*
Y19551D01*
X13208D01*
Y19572D01*
X13216D01*
Y19594D01*
X13223D01*
Y19623D01*
X13230D01*
Y19637D01*
X13237D01*
Y19666D01*
X13244D01*
Y19687D01*
X13251D01*
Y19709D01*
X13259D01*
Y19731D01*
X13266D01*
Y19752D01*
X13273D01*
Y19774D01*
X13280D01*
Y19795D01*
X13287D01*
Y19824D01*
X13295D01*
Y19846D01*
X13302D01*
Y19867D01*
X13309D01*
Y19889D01*
X13316D01*
Y19910D01*
X13323D01*
Y19932D01*
X13331D01*
Y19953D01*
X13338D01*
Y19975D01*
X13345D01*
Y19997D01*
X13352D01*
Y20018D01*
X13359D01*
Y20047D01*
X13366D01*
Y20068D01*
X13374D01*
Y20090D01*
X13381D01*
Y20112D01*
X13388D01*
Y20133D01*
X13395D01*
Y20155D01*
X13402D01*
Y20176D01*
X13410D01*
Y20205D01*
X13417D01*
Y20227D01*
X13424D01*
Y20248D01*
X13431D01*
Y20270D01*
X13438D01*
Y20291D01*
X13446D01*
Y20313D01*
X13453D01*
Y20334D01*
X13460D01*
Y20356D01*
X13467D01*
Y20378D01*
X13474D01*
Y20399D01*
X13482D01*
Y20428D01*
X13489D01*
Y20449D01*
X13496D01*
Y20471D01*
X13503D01*
Y20493D01*
X13510D01*
Y20514D01*
X13517D01*
Y20536D01*
X13525D01*
Y20557D01*
X13532D01*
Y20586D01*
X13539D01*
Y20600D01*
X13546D01*
Y20629D01*
X13553D01*
Y20651D01*
X13561D01*
Y20672D01*
X13568D01*
Y20694D01*
X13575D01*
Y20715D01*
X13582D01*
Y20737D01*
X13589D01*
Y20759D01*
X13597D01*
Y20780D01*
X13604D01*
Y20809D01*
X13611D01*
Y20830D01*
X13618D01*
Y20852D01*
X13625D01*
Y20866D01*
X13632D01*
Y20895D01*
X13640D01*
Y20917D01*
X13647D01*
Y20938D01*
X13654D01*
Y20960D01*
X13661D01*
Y20981D01*
X13668D01*
Y21010D01*
X13676D01*
Y21032D01*
X13683D01*
Y21053D01*
X13690D01*
Y21075D01*
X13697D01*
Y21097D01*
X13704D01*
Y21118D01*
X13712D01*
Y21140D01*
X13719D01*
Y21168D01*
X13726D01*
Y21183D01*
X13733D01*
Y21212D01*
X13740D01*
Y21233D01*
X13748D01*
Y21255D01*
X13755D01*
Y21276D01*
X13762D01*
Y21298D01*
X13769D01*
Y21319D01*
X13776D01*
Y21341D01*
X13783D01*
Y21362D01*
X13791D01*
Y21391D01*
X13798D01*
Y21413D01*
X13805D01*
Y21434D01*
X13812D01*
Y21456D01*
X13819D01*
Y21478D01*
X13827D01*
Y21499D01*
X13834D01*
Y21521D01*
X13841D01*
Y21542D01*
X13848D01*
Y21564D01*
X13855D01*
Y21593D01*
X13863D01*
Y21614D01*
X13870D01*
Y21636D01*
X13877D01*
Y21657D01*
X13884D01*
Y21679D01*
X13891D01*
Y21700D01*
X13899D01*
Y21722D01*
X13906D01*
Y21744D01*
X13913D01*
Y21772D01*
X13920D01*
Y21794D01*
X13927D01*
Y21815D01*
X13934D01*
Y21837D01*
X13942D01*
Y21859D01*
X13949D01*
Y21880D01*
X13956D01*
Y21902D01*
X13963D01*
Y21923D01*
X13970D01*
Y21945D01*
X13978D01*
Y21974D01*
X13985D01*
Y21988D01*
X13992D01*
Y22017D01*
X13999D01*
Y22038D01*
X14006D01*
Y22060D01*
X14014D01*
Y22081D01*
X14021D01*
Y22103D01*
X14028D01*
Y22125D01*
X14035D01*
Y22146D01*
X14042D01*
Y22175D01*
X14049D01*
Y22196D01*
X14057D01*
Y22218D01*
X14064D01*
Y22240D01*
X14071D01*
Y22261D01*
X14078D01*
Y22283D01*
X14085D01*
Y22304D01*
X14093D01*
Y22326D01*
X14100D01*
Y22355D01*
X14107D01*
Y22369D01*
X14114D01*
Y22398D01*
X14121D01*
Y22419D01*
X14129D01*
Y22441D01*
X14136D01*
Y22462D01*
X14143D01*
Y22484D01*
X14150D01*
Y22506D01*
X14157D01*
Y22527D01*
X14165D01*
Y22534D01*
X14172D01*
Y22542D01*
X14179D01*
Y22534D01*
X14186D01*
Y22527D01*
X14193D01*
Y22520D01*
X14200D01*
Y22513D01*
X14208D01*
Y22506D01*
X14215D01*
Y22498D01*
X14222D01*
Y22491D01*
X14229D01*
Y22484D01*
X14236D01*
Y22477D01*
X14244D01*
Y22470D01*
X14251D01*
Y22462D01*
X14258D01*
Y22455D01*
X14265D01*
Y22448D01*
X14272D01*
Y22441D01*
X14280D01*
Y22434D01*
X14287D01*
Y22427D01*
X14294D01*
Y22419D01*
X14301D01*
Y22412D01*
X14308D01*
Y22405D01*
X14315D01*
Y22398D01*
X14323D01*
Y22391D01*
X14330D01*
Y22383D01*
X14337D01*
Y22376D01*
X14344D01*
Y22369D01*
X14351D01*
Y22362D01*
X14359D01*
Y22355D01*
X14366D01*
Y22347D01*
X14373D01*
Y22340D01*
X14380D01*
Y22333D01*
X14387D01*
Y22326D01*
X14395D01*
Y22319D01*
X14402D01*
Y22312D01*
X14409D01*
Y22304D01*
X14416D01*
Y22297D01*
X14423D01*
Y22290D01*
X14431D01*
Y22283D01*
X14438D01*
Y22276D01*
X14445D01*
Y22268D01*
X14452D01*
Y22261D01*
X14459D01*
Y22254D01*
X14466D01*
Y22247D01*
X14474D01*
Y22240D01*
X14481D01*
Y22232D01*
X14488D01*
Y22225D01*
X14495D01*
Y22218D01*
X14502D01*
Y22211D01*
X14510D01*
Y22204D01*
X14517D01*
Y22196D01*
X14524D01*
Y22189D01*
X14531D01*
Y22182D01*
X14538D01*
Y22175D01*
X14546D01*
Y22168D01*
X14553D01*
Y22161D01*
X14560D01*
Y22153D01*
X14567D01*
Y22146D01*
X14574D01*
Y22139D01*
X14581D01*
Y22132D01*
X14589D01*
Y22125D01*
X14596D01*
Y22117D01*
X14603D01*
Y22110D01*
X14610D01*
Y22103D01*
X14617D01*
Y22096D01*
X14625D01*
Y22089D01*
X14632D01*
Y22081D01*
X14639D01*
Y22074D01*
X14646D01*
Y22067D01*
X14653D01*
Y22060D01*
X14661D01*
Y22053D01*
X14668D01*
Y22045D01*
X14675D01*
Y22038D01*
X14682D01*
Y22031D01*
X14689D01*
Y22024D01*
X14697D01*
Y22017D01*
X14704D01*
Y22010D01*
X14711D01*
Y22002D01*
X14718D01*
Y21995D01*
X14725D01*
Y21988D01*
X14732D01*
Y21981D01*
X14740D01*
Y21974D01*
X14747D01*
Y21966D01*
X14754D01*
Y21959D01*
X14761D01*
Y21952D01*
X14768D01*
Y21945D01*
X14776D01*
Y21938D01*
X14783D01*
Y21930D01*
X14790D01*
Y21923D01*
X14797D01*
Y21916D01*
X14804D01*
Y21909D01*
X14812D01*
Y21902D01*
X14819D01*
Y21895D01*
X14826D01*
Y21887D01*
X14833D01*
Y21880D01*
X14840D01*
Y21873D01*
X14847D01*
Y21866D01*
X14855D01*
Y21859D01*
X14862D01*
Y21851D01*
X14869D01*
Y21844D01*
X14876D01*
Y21837D01*
X14883D01*
Y21830D01*
X14891D01*
Y21823D01*
X14898D01*
Y21815D01*
X14905D01*
Y21808D01*
X14912D01*
Y21801D01*
X14919D01*
Y21794D01*
X14927D01*
Y21787D01*
X14934D01*
Y21779D01*
X14941D01*
Y21772D01*
X14948D01*
Y21765D01*
X14955D01*
Y21758D01*
X14963D01*
Y21751D01*
X14970D01*
Y21744D01*
X14977D01*
Y21736D01*
X14984D01*
Y21729D01*
X14991D01*
Y21722D01*
X14998D01*
Y21715D01*
X15006D01*
Y21708D01*
X15013D01*
Y21700D01*
X15020D01*
Y21693D01*
X15027D01*
Y21686D01*
X15034D01*
Y21679D01*
X15042D01*
Y21672D01*
X15049D01*
Y21664D01*
X15056D01*
Y21657D01*
X15063D01*
Y21650D01*
X15070D01*
Y21643D01*
X15078D01*
Y21636D01*
X15085D01*
Y21629D01*
X15092D01*
Y21621D01*
X15099D01*
Y21614D01*
X15106D01*
Y21607D01*
X15114D01*
Y21600D01*
X15121D01*
Y21593D01*
X15128D01*
Y21585D01*
X15135D01*
Y21578D01*
X15142D01*
Y21571D01*
X15149D01*
Y21564D01*
X15157D01*
Y21557D01*
X15164D01*
Y21549D01*
X15171D01*
Y21542D01*
X15178D01*
Y21535D01*
X15185D01*
Y21528D01*
X15193D01*
Y21521D01*
X15200D01*
Y21513D01*
X15207D01*
Y21499D01*
X15221D01*
Y21492D01*
X15229D01*
Y21485D01*
X15236D01*
Y21478D01*
X15243D01*
Y21470D01*
X15250D01*
Y21463D01*
X15257D01*
Y21456D01*
X15264D01*
Y21449D01*
X15272D01*
Y21442D01*
X15279D01*
Y21434D01*
X15286D01*
Y21427D01*
X15293D01*
Y21420D01*
X15300D01*
Y21413D01*
X15308D01*
Y21406D01*
X15315D01*
Y21398D01*
X15322D01*
Y21391D01*
X15329D01*
Y21384D01*
X15336D01*
Y21377D01*
X15344D01*
Y21370D01*
X15351D01*
Y21362D01*
X15358D01*
Y21355D01*
X15365D01*
Y21348D01*
X15372D01*
Y21341D01*
X15380D01*
Y21334D01*
X15387D01*
Y21327D01*
X15394D01*
Y21319D01*
X15401D01*
Y21312D01*
X15408D01*
Y21305D01*
X15415D01*
Y21298D01*
X15423D01*
Y21291D01*
X15430D01*
Y21283D01*
X15437D01*
Y21276D01*
X15444D01*
Y21269D01*
X15451D01*
Y21262D01*
X15459D01*
Y21255D01*
X15466D01*
Y21247D01*
X15473D01*
Y21240D01*
X15480D01*
Y21233D01*
X15487D01*
Y21226D01*
X15495D01*
Y21219D01*
X15502D01*
Y21212D01*
X15509D01*
Y21204D01*
X15516D01*
Y21197D01*
X15523D01*
Y21190D01*
X15530D01*
Y21183D01*
X15538D01*
Y21176D01*
X15545D01*
Y21168D01*
X15552D01*
Y21161D01*
X15559D01*
Y21154D01*
X15566D01*
Y21147D01*
X15574D01*
Y21140D01*
X15581D01*
Y21132D01*
X15588D01*
Y21125D01*
X15595D01*
Y21118D01*
X15602D01*
Y21111D01*
X15610D01*
Y21104D01*
X15617D01*
Y21097D01*
X15624D01*
Y21089D01*
X15631D01*
Y21082D01*
X15638D01*
Y21075D01*
X15646D01*
Y21068D01*
X15653D01*
Y21061D01*
X15660D01*
Y21053D01*
X15667D01*
Y21046D01*
X15674D01*
Y21039D01*
X15681D01*
Y21032D01*
X15689D01*
Y21025D01*
X15696D01*
Y21017D01*
X15703D01*
Y21010D01*
X15710D01*
Y21003D01*
X15717D01*
Y20996D01*
X15725D01*
Y20989D01*
X15732D01*
Y20981D01*
X15739D01*
Y20974D01*
X15746D01*
Y20967D01*
X15753D01*
Y20960D01*
X15761D01*
Y20953D01*
X15768D01*
Y20946D01*
X15775D01*
Y20938D01*
X15782D01*
Y20931D01*
X15789D01*
Y20924D01*
X15797D01*
Y20917D01*
X15804D01*
Y20910D01*
X15811D01*
Y20902D01*
X15818D01*
Y20895D01*
X15825D01*
Y20888D01*
X15832D01*
Y20881D01*
X15840D01*
Y20866D01*
X15868D01*
Y22879D01*
X15861D01*
Y22887D01*
X15020D01*
Y22901D01*
X15013D01*
Y23217D01*
X15020D01*
Y23225D01*
X16185D01*
Y23232D01*
X16192D01*
Y23225D01*
D02*
G37*
G36*
X16566D02*
X17738D01*
Y22894D01*
X17730D01*
Y22887D01*
X16889D01*
Y22872D01*
X16882D01*
Y22858D01*
X16889D01*
Y22556D01*
X16882D01*
Y22513D01*
X16889D01*
Y21542D01*
X16882D01*
Y21499D01*
X16889D01*
Y20888D01*
X16882D01*
Y20866D01*
X16889D01*
Y20859D01*
X16896D01*
Y20866D01*
X16911D01*
Y20881D01*
X16918D01*
Y20888D01*
X16925D01*
Y20895D01*
X16932D01*
Y20902D01*
X16940D01*
Y20910D01*
X16947D01*
Y20917D01*
X16954D01*
Y20924D01*
X16961D01*
Y20931D01*
X16968D01*
Y20938D01*
X16976D01*
Y20946D01*
X16983D01*
Y20953D01*
X16990D01*
Y20960D01*
X16997D01*
Y20967D01*
X17004D01*
Y20974D01*
X17011D01*
Y20981D01*
X17019D01*
Y20989D01*
X17026D01*
Y20996D01*
X17033D01*
Y21003D01*
X17040D01*
Y21010D01*
X17047D01*
Y21017D01*
X17055D01*
Y21025D01*
X17062D01*
Y21032D01*
X17069D01*
Y21039D01*
X17076D01*
Y21046D01*
X17083D01*
Y21053D01*
X17091D01*
Y21061D01*
X17098D01*
Y21068D01*
X17105D01*
Y21075D01*
X17112D01*
Y21082D01*
X17119D01*
Y21089D01*
X17127D01*
Y21097D01*
X17134D01*
Y21104D01*
X17141D01*
Y21111D01*
X17148D01*
Y21118D01*
X17155D01*
Y21125D01*
X17162D01*
Y21132D01*
X17170D01*
Y21140D01*
X17177D01*
Y21147D01*
X17184D01*
Y21154D01*
X17191D01*
Y21161D01*
X17198D01*
Y21168D01*
X17206D01*
Y21176D01*
X17213D01*
Y21183D01*
X17220D01*
Y21190D01*
X17227D01*
Y21197D01*
X17234D01*
Y21204D01*
X17242D01*
Y21212D01*
X17249D01*
Y21219D01*
X17256D01*
Y21226D01*
X17263D01*
Y21233D01*
X17270D01*
Y21240D01*
X17278D01*
Y21247D01*
X17285D01*
Y21255D01*
X17292D01*
Y21262D01*
X17299D01*
Y21269D01*
X17306D01*
Y21276D01*
X17313D01*
Y21283D01*
X17321D01*
Y21291D01*
X17328D01*
Y21298D01*
X17335D01*
Y21305D01*
X17342D01*
Y21312D01*
X17349D01*
Y21319D01*
X17357D01*
Y21327D01*
X17364D01*
Y21334D01*
X17371D01*
Y21341D01*
X17378D01*
Y21348D01*
X17385D01*
Y21355D01*
X17393D01*
Y21362D01*
X17400D01*
Y21370D01*
X17407D01*
Y21377D01*
X17414D01*
Y21384D01*
X17421D01*
Y21391D01*
X17428D01*
Y21398D01*
X17436D01*
Y21406D01*
X17443D01*
Y21413D01*
X17450D01*
Y21420D01*
X17457D01*
Y21427D01*
X17464D01*
Y21434D01*
X17472D01*
Y21442D01*
X17479D01*
Y21449D01*
X17486D01*
Y21456D01*
X17493D01*
Y21463D01*
X17500D01*
Y21470D01*
X17508D01*
Y21478D01*
X17515D01*
Y21485D01*
X17522D01*
Y21492D01*
X17529D01*
Y21499D01*
X17544D01*
Y21513D01*
X17551D01*
Y21521D01*
X17558D01*
Y21528D01*
X17565D01*
Y21535D01*
X17572D01*
Y21542D01*
X17579D01*
Y21549D01*
X17587D01*
Y21557D01*
X17594D01*
Y21564D01*
X17601D01*
Y21571D01*
X17608D01*
Y21578D01*
X17615D01*
Y21585D01*
X17623D01*
Y21593D01*
X17630D01*
Y21600D01*
X17637D01*
Y21607D01*
X17644D01*
Y21614D01*
X17651D01*
Y21621D01*
X17659D01*
Y21629D01*
X17666D01*
Y21636D01*
X17673D01*
Y21643D01*
X17680D01*
Y21650D01*
X17687D01*
Y21657D01*
X17694D01*
Y21664D01*
X17702D01*
Y21672D01*
X17709D01*
Y21679D01*
X17716D01*
Y21686D01*
X17723D01*
Y21693D01*
X17730D01*
Y21700D01*
X17738D01*
Y21708D01*
X17745D01*
Y21715D01*
X17752D01*
Y21722D01*
X17759D01*
Y21729D01*
X17766D01*
Y21736D01*
X17774D01*
Y21744D01*
X17781D01*
Y21751D01*
X17788D01*
Y21758D01*
X17795D01*
Y21765D01*
X17802D01*
Y21772D01*
X17810D01*
Y21779D01*
X17817D01*
Y21787D01*
X17824D01*
Y21794D01*
X17831D01*
Y21801D01*
X17838D01*
Y21808D01*
X17845D01*
Y21815D01*
X17853D01*
Y21823D01*
X17860D01*
Y21830D01*
X17867D01*
Y21837D01*
X17874D01*
Y21844D01*
X17881D01*
Y21851D01*
X17889D01*
Y21859D01*
X17896D01*
Y21866D01*
X17903D01*
Y21873D01*
X17910D01*
Y21880D01*
X17917D01*
Y21887D01*
X17925D01*
Y21895D01*
X17932D01*
Y21902D01*
X17939D01*
Y21909D01*
X17946D01*
Y21916D01*
X17953D01*
Y21923D01*
X17960D01*
Y21930D01*
X17968D01*
Y21938D01*
X17975D01*
Y21945D01*
X17982D01*
Y21952D01*
X17989D01*
Y21959D01*
X17996D01*
Y21966D01*
X18004D01*
Y21974D01*
X18011D01*
Y21981D01*
X18018D01*
Y21988D01*
X18025D01*
Y21995D01*
X18032D01*
Y22002D01*
X18040D01*
Y22010D01*
X18047D01*
Y22017D01*
X18054D01*
Y22024D01*
X18061D01*
Y22031D01*
X18068D01*
Y22038D01*
X18076D01*
Y22045D01*
X18083D01*
Y22053D01*
X18090D01*
Y22060D01*
X18097D01*
Y22067D01*
X18104D01*
Y22074D01*
X18111D01*
Y22081D01*
X18119D01*
Y22089D01*
X18126D01*
Y22096D01*
X18133D01*
Y22103D01*
X18140D01*
Y22110D01*
X18147D01*
Y22117D01*
X18155D01*
Y22125D01*
X18162D01*
Y22132D01*
X18169D01*
Y22139D01*
X18176D01*
Y22146D01*
X18183D01*
Y22153D01*
X18191D01*
Y22161D01*
X18198D01*
Y22168D01*
X18205D01*
Y22175D01*
X18212D01*
Y22182D01*
X18219D01*
Y22189D01*
X18226D01*
Y22196D01*
X18234D01*
Y22204D01*
X18241D01*
Y22211D01*
X18248D01*
Y22218D01*
X18255D01*
Y22225D01*
X18262D01*
Y22232D01*
X18270D01*
Y22240D01*
X18277D01*
Y22247D01*
X18284D01*
Y22254D01*
X18291D01*
Y22261D01*
X18298D01*
Y22268D01*
X18306D01*
Y22276D01*
X18313D01*
Y22283D01*
X18320D01*
Y22290D01*
X18327D01*
Y22297D01*
X18334D01*
Y22304D01*
X18342D01*
Y22312D01*
X18349D01*
Y22319D01*
X18356D01*
Y22326D01*
X18363D01*
Y22333D01*
X18370D01*
Y22340D01*
X18377D01*
Y22347D01*
X18385D01*
Y22355D01*
X18392D01*
Y22362D01*
X18399D01*
Y22369D01*
X18406D01*
Y22376D01*
X18413D01*
Y22383D01*
X18421D01*
Y22391D01*
X18428D01*
Y22398D01*
X18435D01*
Y22405D01*
X18442D01*
Y22412D01*
X18449D01*
Y22419D01*
X18457D01*
Y22427D01*
X18464D01*
Y22434D01*
X18471D01*
Y22441D01*
X18478D01*
Y22448D01*
X18485D01*
Y22455D01*
X18493D01*
Y22462D01*
X18500D01*
Y22470D01*
X18507D01*
Y22477D01*
X18514D01*
Y22484D01*
X18521D01*
Y22491D01*
X18528D01*
Y22498D01*
X18536D01*
Y22506D01*
X18543D01*
Y22513D01*
X18550D01*
Y22520D01*
X18557D01*
Y22527D01*
X18564D01*
Y22534D01*
X18572D01*
Y22542D01*
X18579D01*
Y22534D01*
X18586D01*
Y22527D01*
X18593D01*
Y22506D01*
X18600D01*
Y22484D01*
X18608D01*
Y22462D01*
X18615D01*
Y22441D01*
X18622D01*
Y22419D01*
X18629D01*
Y22398D01*
X18636D01*
Y22369D01*
X18643D01*
Y22355D01*
X18651D01*
Y22326D01*
X18658D01*
Y22304D01*
X18665D01*
Y22283D01*
X18672D01*
Y22261D01*
X18679D01*
Y22240D01*
X18687D01*
Y22218D01*
X18694D01*
Y22196D01*
X18701D01*
Y22175D01*
X18708D01*
Y22146D01*
X18715D01*
Y22125D01*
X18723D01*
Y22103D01*
X18730D01*
Y22081D01*
X18737D01*
Y22060D01*
X18744D01*
Y22038D01*
X18751D01*
Y22017D01*
X18759D01*
Y21995D01*
X18766D01*
Y21974D01*
X18773D01*
Y21945D01*
X18780D01*
Y21923D01*
X18787D01*
Y21902D01*
X18794D01*
Y21880D01*
X18802D01*
Y21859D01*
X18809D01*
Y21837D01*
X18816D01*
Y21815D01*
X18823D01*
Y21794D01*
X18830D01*
Y21772D01*
X18838D01*
Y21744D01*
X18845D01*
Y21722D01*
X18852D01*
Y21700D01*
X18859D01*
Y21679D01*
X18866D01*
Y21657D01*
X18874D01*
Y21636D01*
X18881D01*
Y21614D01*
X18888D01*
Y21593D01*
X18895D01*
Y21564D01*
X18902D01*
Y21549D01*
X18909D01*
Y21521D01*
X18917D01*
Y21499D01*
X18924D01*
Y21478D01*
X18931D01*
Y21456D01*
X18938D01*
Y21434D01*
X18945D01*
Y21413D01*
X18953D01*
Y21391D01*
X18960D01*
Y21362D01*
X18967D01*
Y21341D01*
X18974D01*
Y21319D01*
X18981D01*
Y21298D01*
X18989D01*
Y21276D01*
X18996D01*
Y21255D01*
X19003D01*
Y21233D01*
X19010D01*
Y21212D01*
X19017D01*
Y21190D01*
X19025D01*
Y21168D01*
X19032D01*
Y21140D01*
X19039D01*
Y21118D01*
X19046D01*
Y21097D01*
X19053D01*
Y21075D01*
X19060D01*
Y21053D01*
X19068D01*
Y21032D01*
X19075D01*
Y21010D01*
X19082D01*
Y20989D01*
X19089D01*
Y20967D01*
X19096D01*
Y20938D01*
X19104D01*
Y20917D01*
X19111D01*
Y20895D01*
X19118D01*
Y20866D01*
X19125D01*
Y20852D01*
X19132D01*
Y20830D01*
X19140D01*
Y20809D01*
X19147D01*
Y20787D01*
X19154D01*
Y20759D01*
X19161D01*
Y20744D01*
X19168D01*
Y20715D01*
X19176D01*
Y20694D01*
X19183D01*
Y20672D01*
X19190D01*
Y20651D01*
X19197D01*
Y20629D01*
X19204D01*
Y20608D01*
X19211D01*
Y20586D01*
X19219D01*
Y20564D01*
X19226D01*
Y20536D01*
X19233D01*
Y20514D01*
X19240D01*
Y20493D01*
X19247D01*
Y20471D01*
X19255D01*
Y20449D01*
X19262D01*
Y20428D01*
X19269D01*
Y20406D01*
X19276D01*
Y20385D01*
X19283D01*
Y20363D01*
X19291D01*
Y20334D01*
X19298D01*
Y20313D01*
X19305D01*
Y20291D01*
X19312D01*
Y20270D01*
X19319D01*
Y20248D01*
X19326D01*
Y20227D01*
X19334D01*
Y20205D01*
X19341D01*
Y20183D01*
X19348D01*
Y20162D01*
X19355D01*
Y20140D01*
X19362D01*
Y20112D01*
X19370D01*
Y20090D01*
X19377D01*
Y20068D01*
X19384D01*
Y20047D01*
X19391D01*
Y20025D01*
X19398D01*
Y20004D01*
X19406D01*
Y19982D01*
X19413D01*
Y19953D01*
X19420D01*
Y19939D01*
X19427D01*
Y19910D01*
X19434D01*
Y19889D01*
X19442D01*
Y19867D01*
X19449D01*
Y19846D01*
X19456D01*
Y19824D01*
X19463D01*
Y19802D01*
X19470D01*
Y19781D01*
X19477D01*
Y19759D01*
X19485D01*
Y19731D01*
X19492D01*
Y19709D01*
X19499D01*
Y19687D01*
X19506D01*
Y19666D01*
X19513D01*
Y19644D01*
X19521D01*
Y19623D01*
X19528D01*
Y19601D01*
X19535D01*
Y19572D01*
X19542D01*
Y19558D01*
X19549D01*
Y19529D01*
X19557D01*
Y19508D01*
X19564D01*
Y19486D01*
X19571D01*
Y19465D01*
X19578D01*
Y19443D01*
X19585D01*
Y19421D01*
X19592D01*
Y19400D01*
X19600D01*
Y19378D01*
X19607D01*
Y19357D01*
X19614D01*
Y19328D01*
X19621D01*
Y19306D01*
X19628D01*
Y19285D01*
X19636D01*
Y19263D01*
X19643D01*
Y19242D01*
X19650D01*
Y19220D01*
X19657D01*
Y19199D01*
X19664D01*
Y19177D01*
X19672D01*
Y19148D01*
X19679D01*
Y19134D01*
X19686D01*
Y19105D01*
X19693D01*
Y19083D01*
X19700D01*
Y19062D01*
X19708D01*
Y19040D01*
X19715D01*
Y19019D01*
X19722D01*
Y18997D01*
X19729D01*
Y18976D01*
X19736D01*
Y18947D01*
X19743D01*
Y18925D01*
X19751D01*
Y18904D01*
X19758D01*
Y18882D01*
X19765D01*
Y18861D01*
X19772D01*
Y18839D01*
X19779D01*
Y18817D01*
X19787D01*
Y18796D01*
X19794D01*
Y18774D01*
X19801D01*
Y18753D01*
X19808D01*
Y18724D01*
X19815D01*
Y18702D01*
X19823D01*
Y18681D01*
X19830D01*
Y18659D01*
X19837D01*
Y18638D01*
X19844D01*
Y18616D01*
X19851D01*
Y18595D01*
X19858D01*
Y18566D01*
X19866D01*
Y18551D01*
X19873D01*
Y18523D01*
X19880D01*
Y18501D01*
X19887D01*
Y18480D01*
X19894D01*
Y18458D01*
X19902D01*
Y18436D01*
X19909D01*
Y18415D01*
X19916D01*
Y18393D01*
X19923D01*
Y18372D01*
X19930D01*
Y18343D01*
X19938D01*
Y18321D01*
X19945D01*
Y18300D01*
X19952D01*
Y18278D01*
X19959D01*
Y18257D01*
X19966D01*
Y18235D01*
X19974D01*
Y18214D01*
X19981D01*
Y18192D01*
X19988D01*
Y18170D01*
X19995D01*
Y18149D01*
X20002D01*
Y18120D01*
X20009D01*
Y18099D01*
X20017D01*
Y18077D01*
X20024D01*
Y18055D01*
X20031D01*
Y18034D01*
X20038D01*
Y18012D01*
X20045D01*
Y17991D01*
X20053D01*
Y17962D01*
X20060D01*
Y17948D01*
X20067D01*
Y17919D01*
X20074D01*
Y17897D01*
X20081D01*
Y17876D01*
X20089D01*
Y17854D01*
X20096D01*
Y17833D01*
X20103D01*
Y17804D01*
X20110D01*
Y17797D01*
X20117D01*
Y17789D01*
X20966D01*
Y17459D01*
X20958D01*
Y17451D01*
X19607D01*
Y17466D01*
X19600D01*
Y17782D01*
X19607D01*
Y17789D01*
X19930D01*
Y17797D01*
X19938D01*
Y17818D01*
X19930D01*
Y17847D01*
X19923D01*
Y17861D01*
X19916D01*
Y17890D01*
X19909D01*
Y17912D01*
X19902D01*
Y17933D01*
X19894D01*
Y17955D01*
X19887D01*
Y17976D01*
X19880D01*
Y17998D01*
X19873D01*
Y18027D01*
X19866D01*
Y18048D01*
X19858D01*
Y18070D01*
X19851D01*
Y18091D01*
X19844D01*
Y18113D01*
X19837D01*
Y18134D01*
X19830D01*
Y18156D01*
X19823D01*
Y18185D01*
X19815D01*
Y18206D01*
X19808D01*
Y18228D01*
X19801D01*
Y18250D01*
X19794D01*
Y18271D01*
X19787D01*
Y18293D01*
X19779D01*
Y18314D01*
X19772D01*
Y18343D01*
X19765D01*
Y18365D01*
X19758D01*
Y18386D01*
X19751D01*
Y18408D01*
X19743D01*
Y18429D01*
X19736D01*
Y18451D01*
X19729D01*
Y18472D01*
X19722D01*
Y18501D01*
X19715D01*
Y18516D01*
X19708D01*
Y18544D01*
X19700D01*
Y18566D01*
X19693D01*
Y18587D01*
X19686D01*
Y18609D01*
X19679D01*
Y18631D01*
X19672D01*
Y18659D01*
X19664D01*
Y18674D01*
X19657D01*
Y18702D01*
X19650D01*
Y18724D01*
X19643D01*
Y18746D01*
X19636D01*
Y18767D01*
X19628D01*
Y18789D01*
X19621D01*
Y18810D01*
X19614D01*
Y18839D01*
X19607D01*
Y18861D01*
X19600D01*
Y18882D01*
X19592D01*
Y18904D01*
X19585D01*
Y18925D01*
X19578D01*
Y18947D01*
X19571D01*
Y18968D01*
X19564D01*
Y18997D01*
X19557D01*
Y19019D01*
X19549D01*
Y19040D01*
X19542D01*
Y19062D01*
X19535D01*
Y19083D01*
X19528D01*
Y19105D01*
X19521D01*
Y19134D01*
X19513D01*
Y19155D01*
X19506D01*
Y19177D01*
X19499D01*
Y19199D01*
X19492D01*
Y19220D01*
X19485D01*
Y19242D01*
X19477D01*
Y19263D01*
X19470D01*
Y19285D01*
X19463D01*
Y19314D01*
X19456D01*
Y19335D01*
X19449D01*
Y19357D01*
X19442D01*
Y19378D01*
X19434D01*
Y19400D01*
X19427D01*
Y19429D01*
X19420D01*
Y19443D01*
X19413D01*
Y19472D01*
X19406D01*
Y19493D01*
X19398D01*
Y19515D01*
X19391D01*
Y19536D01*
X19384D01*
Y19558D01*
X19377D01*
Y19580D01*
X19370D01*
Y19601D01*
X19362D01*
Y19630D01*
X19355D01*
Y19651D01*
X19348D01*
Y19673D01*
X19341D01*
Y19695D01*
X19334D01*
Y19716D01*
X19326D01*
Y19738D01*
X19319D01*
Y19759D01*
X19312D01*
Y19788D01*
X19305D01*
Y19810D01*
X19298D01*
Y19824D01*
X19291D01*
Y19853D01*
X19283D01*
Y19874D01*
X19276D01*
Y19896D01*
X19269D01*
Y19917D01*
X19262D01*
Y19946D01*
X19255D01*
Y19968D01*
X19247D01*
Y19989D01*
X19240D01*
Y20011D01*
X19233D01*
Y20032D01*
X19226D01*
Y20054D01*
X19219D01*
Y20083D01*
X19211D01*
Y20104D01*
X19204D01*
Y20126D01*
X19197D01*
Y20147D01*
X19190D01*
Y20169D01*
X19183D01*
Y20191D01*
X19176D01*
Y20212D01*
X19168D01*
Y20241D01*
X19161D01*
Y20263D01*
X19154D01*
Y20284D01*
X19147D01*
Y20306D01*
X19140D01*
Y20327D01*
X19132D01*
Y20349D01*
X19125D01*
Y20370D01*
X19118D01*
Y20399D01*
X19111D01*
Y20414D01*
X19104D01*
Y20442D01*
X19096D01*
Y20464D01*
X19089D01*
Y20485D01*
X19082D01*
Y20507D01*
X19075D01*
Y20529D01*
X19068D01*
Y20557D01*
X19060D01*
Y20572D01*
X19053D01*
Y20600D01*
X19046D01*
Y20622D01*
X19039D01*
Y20644D01*
X19032D01*
Y20665D01*
X19025D01*
Y20687D01*
X19017D01*
Y20708D01*
X19010D01*
Y20737D01*
X19003D01*
Y20759D01*
X18996D01*
Y20780D01*
X18989D01*
Y20802D01*
X18981D01*
Y20823D01*
X18974D01*
Y20845D01*
X18967D01*
Y20866D01*
X18960D01*
Y20895D01*
X18953D01*
Y20917D01*
X18945D01*
Y20938D01*
X18938D01*
Y20960D01*
X18931D01*
Y20981D01*
X18924D01*
Y21003D01*
X18917D01*
Y21032D01*
X18909D01*
Y21053D01*
X18902D01*
Y21075D01*
X18895D01*
Y21097D01*
X18888D01*
Y21118D01*
X18881D01*
Y21140D01*
X18874D01*
Y21161D01*
X18866D01*
Y21183D01*
X18859D01*
Y21212D01*
X18852D01*
Y21233D01*
X18845D01*
Y21255D01*
X18838D01*
Y21276D01*
X18830D01*
Y21298D01*
X18823D01*
Y21319D01*
X18816D01*
Y21341D01*
X18809D01*
Y21370D01*
X18802D01*
Y21391D01*
X18794D01*
Y21413D01*
X18787D01*
Y21434D01*
X18780D01*
Y21456D01*
X18773D01*
Y21478D01*
X18766D01*
Y21499D01*
X18759D01*
Y21521D01*
X18737D01*
Y21506D01*
X18730D01*
Y21499D01*
X18715D01*
Y21492D01*
X18708D01*
Y21485D01*
X18701D01*
Y21478D01*
X18694D01*
Y21470D01*
X18687D01*
Y21463D01*
X18679D01*
Y21456D01*
X18672D01*
Y21449D01*
X18665D01*
Y21442D01*
X18658D01*
Y21434D01*
X18651D01*
Y21427D01*
X18636D01*
Y21420D01*
X18629D01*
Y21413D01*
X18622D01*
Y21406D01*
X18615D01*
Y21398D01*
X18608D01*
Y21391D01*
X18600D01*
Y21384D01*
X18593D01*
Y21377D01*
X18586D01*
Y21370D01*
X18579D01*
Y21362D01*
X18564D01*
Y21355D01*
X18557D01*
Y21348D01*
X18550D01*
Y21341D01*
X18543D01*
Y21334D01*
X18536D01*
Y21327D01*
X18528D01*
Y21319D01*
X18521D01*
Y21312D01*
X18514D01*
Y21305D01*
X18507D01*
Y21298D01*
X18500D01*
Y21291D01*
X18493D01*
Y21283D01*
X18478D01*
Y21276D01*
X18471D01*
Y21269D01*
X18464D01*
Y21262D01*
X18457D01*
Y21255D01*
X18449D01*
Y21247D01*
X18442D01*
Y21240D01*
X18435D01*
Y21233D01*
X18428D01*
Y21226D01*
X18421D01*
Y21219D01*
X18413D01*
Y21212D01*
X18399D01*
Y21204D01*
X18392D01*
Y21197D01*
X18385D01*
Y21190D01*
X18377D01*
Y21183D01*
X18370D01*
Y21176D01*
X18363D01*
Y21168D01*
X18356D01*
Y21161D01*
X18349D01*
Y21154D01*
X18342D01*
Y21147D01*
X18327D01*
Y21140D01*
X18320D01*
Y21132D01*
X18313D01*
Y21125D01*
X18306D01*
Y21118D01*
X18298D01*
Y21111D01*
X18291D01*
Y21104D01*
X18284D01*
Y21097D01*
X18277D01*
Y21089D01*
X18270D01*
Y21082D01*
X18262D01*
Y21075D01*
X18255D01*
Y21068D01*
X18241D01*
Y21061D01*
X18234D01*
Y21053D01*
X18226D01*
Y21046D01*
X18219D01*
Y21039D01*
X18212D01*
Y21032D01*
X18205D01*
Y21025D01*
X18198D01*
Y21017D01*
X18191D01*
Y21010D01*
X18183D01*
Y21003D01*
X18169D01*
Y20996D01*
X18162D01*
Y20989D01*
X18155D01*
Y20981D01*
X18147D01*
Y20974D01*
X18140D01*
Y20967D01*
X18133D01*
Y20960D01*
X18126D01*
Y20953D01*
X18119D01*
Y20946D01*
X18111D01*
Y20938D01*
X18104D01*
Y20931D01*
X18097D01*
Y20924D01*
X18083D01*
Y20917D01*
X18076D01*
Y20910D01*
X18068D01*
Y20902D01*
X18061D01*
Y20895D01*
X18054D01*
Y20888D01*
X18047D01*
Y20881D01*
X18040D01*
Y20874D01*
X18032D01*
Y20866D01*
X18025D01*
Y20859D01*
X18011D01*
Y20845D01*
X17996D01*
Y20838D01*
X17989D01*
Y20830D01*
X17982D01*
Y20823D01*
X17975D01*
Y20816D01*
X17968D01*
Y20809D01*
X17960D01*
Y20802D01*
X17953D01*
Y20795D01*
X17946D01*
Y20787D01*
X17932D01*
Y20780D01*
X17925D01*
Y20773D01*
X17917D01*
Y20766D01*
X17910D01*
Y20759D01*
X17903D01*
Y20751D01*
X17896D01*
Y20744D01*
X17889D01*
Y20737D01*
X17881D01*
Y20730D01*
X17874D01*
Y20723D01*
X17867D01*
Y20715D01*
X17860D01*
Y20708D01*
X17845D01*
Y20701D01*
X17838D01*
Y20694D01*
X17831D01*
Y20687D01*
X17824D01*
Y20680D01*
X17817D01*
Y20672D01*
X17810D01*
Y20665D01*
X17802D01*
Y20658D01*
X17795D01*
Y20651D01*
X17788D01*
Y20644D01*
X17774D01*
Y20636D01*
X17766D01*
Y20629D01*
X17759D01*
Y20622D01*
X17752D01*
Y20615D01*
X17745D01*
Y20608D01*
X17738D01*
Y20600D01*
X17730D01*
Y20593D01*
X17723D01*
Y20586D01*
X17716D01*
Y20579D01*
X17709D01*
Y20572D01*
X17702D01*
Y20564D01*
X17687D01*
Y20557D01*
X17680D01*
Y20550D01*
X17673D01*
Y20543D01*
X17666D01*
Y20536D01*
X17659D01*
Y20529D01*
X17651D01*
Y20521D01*
X17644D01*
Y20514D01*
X17637D01*
Y20507D01*
X17630D01*
Y20500D01*
X17615D01*
Y20493D01*
X17608D01*
Y20485D01*
X17601D01*
Y20478D01*
X17594D01*
Y20471D01*
X17587D01*
Y20464D01*
X17579D01*
Y20457D01*
X17572D01*
Y20449D01*
X17565D01*
Y20442D01*
X17558D01*
Y20435D01*
X17551D01*
Y20428D01*
X17536D01*
Y20421D01*
X17529D01*
Y20414D01*
X17522D01*
Y20406D01*
X17515D01*
Y20399D01*
X17508D01*
Y20392D01*
X17500D01*
Y20385D01*
X17493D01*
Y20378D01*
X17486D01*
Y20370D01*
X17479D01*
Y20363D01*
X17472D01*
Y20356D01*
X17457D01*
Y20349D01*
X17450D01*
Y20342D01*
X17443D01*
Y20334D01*
X17436D01*
Y20327D01*
X17428D01*
Y20320D01*
X17421D01*
Y20313D01*
X17414D01*
Y20306D01*
X17407D01*
Y20298D01*
X17400D01*
Y20291D01*
X17393D01*
Y20284D01*
X17378D01*
Y20277D01*
X17371D01*
Y20270D01*
X17364D01*
Y20263D01*
X17357D01*
Y20255D01*
X17349D01*
Y20248D01*
X17342D01*
Y20241D01*
X17335D01*
Y20234D01*
X17328D01*
Y20227D01*
X17321D01*
Y20219D01*
X17313D01*
Y20212D01*
X17306D01*
Y20205D01*
X17292D01*
Y20198D01*
X17285D01*
Y20191D01*
X17278D01*
Y20183D01*
X17270D01*
Y20176D01*
X17263D01*
Y20169D01*
X17256D01*
Y20162D01*
X17249D01*
Y20155D01*
X17242D01*
Y20147D01*
X17227D01*
Y20140D01*
X17220D01*
Y20133D01*
X17213D01*
Y20126D01*
X17206D01*
Y20119D01*
X17198D01*
Y20112D01*
X17191D01*
Y20104D01*
X17184D01*
Y20097D01*
X17177D01*
Y20090D01*
X17170D01*
Y20083D01*
X17162D01*
Y20076D01*
X17155D01*
Y20068D01*
X17141D01*
Y20061D01*
X17134D01*
Y20054D01*
X17127D01*
Y20047D01*
X17119D01*
Y20040D01*
X17112D01*
Y20032D01*
X17105D01*
Y20025D01*
X17098D01*
Y20018D01*
X17091D01*
Y20011D01*
X17083D01*
Y20004D01*
X17069D01*
Y19997D01*
X17062D01*
Y19989D01*
X17055D01*
Y19982D01*
X17047D01*
Y19975D01*
X17040D01*
Y19968D01*
X17033D01*
Y19961D01*
X17026D01*
Y19953D01*
X17019D01*
Y19946D01*
X17011D01*
Y19939D01*
X17004D01*
Y19932D01*
X16997D01*
Y19925D01*
X16983D01*
Y19917D01*
X16976D01*
Y19910D01*
X16968D01*
Y19903D01*
X16961D01*
Y19896D01*
X16954D01*
Y19889D01*
X16947D01*
Y19881D01*
X16940D01*
Y19874D01*
X16932D01*
Y19867D01*
X16925D01*
Y19860D01*
X16918D01*
Y19853D01*
X16904D01*
Y19846D01*
X16896D01*
Y19838D01*
X16889D01*
Y19817D01*
X16882D01*
Y19802D01*
X16889D01*
Y17646D01*
X16882D01*
Y17631D01*
X16889D01*
Y17624D01*
X16904D01*
Y17617D01*
X16918D01*
Y17624D01*
X17529D01*
Y17617D01*
X17536D01*
Y17624D01*
X17558D01*
Y17617D01*
X17565D01*
Y17286D01*
X17551D01*
Y17279D01*
X17544D01*
Y17286D01*
X16573D01*
Y17279D01*
X16559D01*
Y17286D01*
X16551D01*
Y17293D01*
X16544D01*
Y23225D01*
X16559D01*
Y23232D01*
X16566D01*
Y23225D01*
D02*
G37*
G36*
X20958Y17099D02*
X20966D01*
Y16783D01*
X20958D01*
Y16776D01*
X11792D01*
Y16783D01*
X11785D01*
Y17099D01*
X11792D01*
Y17114D01*
X20958D01*
Y17099D01*
D02*
G37*
%LPC*%
G36*
X39409Y21671D02*
X38295D01*
Y19444D01*
X39409D01*
Y21671D01*
D02*
G37*
%LPD*%
D36*
X52248Y23699D02*
Y22699D01*
X51748D01*
X51581Y22866D01*
Y23532D01*
X51748Y23699D01*
X52248D01*
X50748Y22699D02*
X51081D01*
X51248Y22866D01*
Y23199D01*
X51081Y23366D01*
X50748D01*
X50581Y23199D01*
Y23033D01*
X51248D01*
X50248Y22699D02*
X49748D01*
X49582Y22866D01*
X49748Y23033D01*
X50082D01*
X50248Y23199D01*
X50082Y23366D01*
X49582D01*
X49249Y22699D02*
X48915D01*
X49082D01*
Y23366D01*
X49249D01*
X48082Y22366D02*
X47916D01*
X47749Y22533D01*
Y23366D01*
X48249D01*
X48415Y23199D01*
Y22866D01*
X48249Y22699D01*
X47749D01*
X47416D02*
Y23366D01*
X46916D01*
X46749Y23199D01*
Y22699D01*
X45916D02*
X46250D01*
X46416Y22866D01*
Y23199D01*
X46250Y23366D01*
X45916D01*
X45750Y23199D01*
Y23033D01*
X46416D01*
X44750Y23699D02*
Y22699D01*
X45250D01*
X45416Y22866D01*
Y23199D01*
X45250Y23366D01*
X44750D01*
X46416Y21566D02*
Y20567D01*
X45916D01*
X45750Y20733D01*
Y20900D01*
Y21066D01*
X45916Y21233D01*
X46416D01*
X45416D02*
Y20733D01*
X45250Y20567D01*
X44750D01*
Y20400D01*
X44917Y20233D01*
X45083D01*
X44750Y20567D02*
Y21233D01*
X50915Y18434D02*
Y19433D01*
X50415D01*
X50248Y19267D01*
Y18934D01*
X50415Y18767D01*
X50915D01*
X50581D02*
X50248Y18434D01*
X49915Y19100D02*
Y18600D01*
X49748Y18434D01*
X49249D01*
Y19100D01*
X48915Y18434D02*
X48415D01*
X48249Y18600D01*
X48415Y18767D01*
X48749D01*
X48915Y18934D01*
X48749Y19100D01*
X48249D01*
X47916Y18434D02*
X47416D01*
X47249Y18600D01*
X47416Y18767D01*
X47749D01*
X47916Y18934D01*
X47749Y19100D01*
X47249D01*
X46416Y18434D02*
X46749D01*
X46916Y18600D01*
Y18934D01*
X46749Y19100D01*
X46416D01*
X46250Y18934D01*
Y18767D01*
X46916D01*
X45916Y18434D02*
X45583D01*
X45750D01*
Y19433D01*
X45916D01*
X45083Y18434D02*
X44750D01*
X44917D01*
Y19433D01*
X45083D01*
X53247Y16634D02*
Y17634D01*
X52914Y17301D01*
X52581Y17634D01*
Y16634D01*
X52081Y17301D02*
X51748D01*
X51581Y17134D01*
Y16634D01*
X52081D01*
X52248Y16801D01*
X52081Y16967D01*
X51581D01*
X50581Y17301D02*
X51081D01*
X51248Y17134D01*
Y16801D01*
X51081Y16634D01*
X50581D01*
X49582Y17467D02*
X49748Y17634D01*
X50082D01*
X50248Y17467D01*
Y16801D01*
X50082Y16634D01*
X49748D01*
X49582Y16801D01*
Y17134D01*
X49915D01*
X49249Y17301D02*
Y16634D01*
Y16967D01*
X49082Y17134D01*
X48915Y17301D01*
X48749D01*
X47749Y16634D02*
X48082D01*
X48249Y16801D01*
Y17134D01*
X48082Y17301D01*
X47749D01*
X47582Y17134D01*
Y16967D01*
X48249D01*
X46916Y16301D02*
X46749D01*
X46583Y16468D01*
Y17301D01*
X47083D01*
X47249Y17134D01*
Y16801D01*
X47083Y16634D01*
X46583D01*
X46083D02*
X45750D01*
X45583Y16801D01*
Y17134D01*
X45750Y17301D01*
X46083D01*
X46250Y17134D01*
Y16801D01*
X46083Y16634D01*
X45250Y17301D02*
Y16634D01*
Y16967D01*
X45083Y17134D01*
X44917Y17301D01*
X44750D01*
X51000Y53900D02*
Y55100D01*
X50600Y54700D01*
X50200Y55100D01*
Y53900D01*
X49800Y54900D02*
X49600Y55100D01*
X49201D01*
X49001Y54900D01*
Y54700D01*
X49201Y54500D01*
X49401D01*
X49201D01*
X49001Y54300D01*
Y54100D01*
X49201Y53900D01*
X49600D01*
X49800Y54100D01*
X52450Y39626D02*
X52250Y39226D01*
X51850Y38826D01*
X51450D01*
X51250Y39026D01*
Y39426D01*
X51450Y39626D01*
X51650D01*
X51850Y39426D01*
Y38826D01*
X52450Y40026D02*
Y40825D01*
X52250D01*
X51450Y40026D01*
X51250D01*
Y41225D02*
X52050D01*
Y41425D01*
X51850Y41625D01*
X51250D01*
X51850D01*
X52050Y41825D01*
X51850Y42025D01*
X51250D01*
Y42425D02*
X52050D01*
Y42625D01*
X51850Y42825D01*
X51250D01*
X51850D01*
X52050Y43025D01*
X51850Y43225D01*
X51250D01*
X49750Y40450D02*
Y39250D01*
X49150D01*
X48950Y39450D01*
Y40250D01*
X49150Y40450D01*
X49750D01*
X48550Y39250D02*
X48151D01*
X48350D01*
Y40050D01*
X48550D01*
X47551Y39250D02*
Y40050D01*
X47351D01*
X47151Y39850D01*
Y39250D01*
Y39850D01*
X46951Y40050D01*
X46751Y39850D01*
Y39250D01*
X49750Y42250D02*
Y41050D01*
X49150D01*
X48950Y41250D01*
Y41450D01*
X49150Y41650D01*
X49750D01*
X49150D01*
X48950Y41850D01*
Y42050D01*
X49150Y42250D01*
X49750D01*
X48350Y41050D02*
X47951D01*
X47751Y41250D01*
Y41650D01*
X47951Y41850D01*
X48350D01*
X48550Y41650D01*
Y41250D01*
X48350Y41050D01*
X47151Y41850D02*
X46751D01*
X46551Y41650D01*
Y41050D01*
X47151D01*
X47351Y41250D01*
X47151Y41450D01*
X46551D01*
X46151Y41850D02*
Y41050D01*
Y41450D01*
X45951Y41650D01*
X45751Y41850D01*
X45551D01*
X44152Y42250D02*
Y41050D01*
X44752D01*
X44952Y41250D01*
Y41650D01*
X44752Y41850D01*
X44152D01*
X49374Y38000D02*
X50174D01*
Y37400D01*
X49774Y37600D01*
X49574D01*
X49374Y37400D01*
Y37000D01*
X49574Y36800D01*
X49974D01*
X50174Y37000D01*
X48375Y36800D02*
Y38000D01*
X48974Y37400D01*
X48175D01*
X47775Y36800D02*
Y37000D01*
X47575D01*
Y36800D01*
X47775D01*
X45975Y38000D02*
X46775D01*
Y37400D01*
X46375Y37600D01*
X46175D01*
X45975Y37400D01*
Y37000D01*
X46175Y36800D01*
X46575D01*
X46775Y37000D01*
X45575Y36800D02*
Y37600D01*
X45375D01*
X45176Y37400D01*
Y36800D01*
Y37400D01*
X44976Y37600D01*
X44776Y37400D01*
Y36800D01*
X44376D02*
Y37600D01*
X44176D01*
X43976Y37400D01*
Y36800D01*
Y37400D01*
X43776Y37600D01*
X43576Y37400D01*
Y36800D01*
D38*
X49492Y57500D02*
X50000Y58008D01*
X49992D02*
X50500Y57500D01*
X50000Y56308D02*
Y58008D01*
X43250Y38508D02*
X43758Y38000D01*
X50500Y38500D02*
Y45750D01*
X43250Y38500D02*
X43758Y39008D01*
X43250Y38500D02*
X50500D01*
X50000Y45242D02*
X50508Y45750D01*
X50500D02*
X51008Y45242D01*
%TF.MD5,a7d7262bff001a9fa0662a4a8ed094ba*%
M02*
