%TF.GenerationSoftware,Altium Limited,Altium Designer,25.2.1 (25)*%
G04 Layer_Physical_Order=4*
G04 Layer_Color=16711680*
%FSLAX43Y43*%
%MOMM*%
%TF.SameCoordinates,20204492-5425-4C88-903B-EF9DED91A393*%
%TF.FilePolarity,Positive*%
%TF.FileFunction,Copper,L4,Bot,Signal*%
%TF.Part,Single*%
G01*
G75*
%TA.AperFunction,NonConductor*%
%ADD10C,0.203*%
%TA.AperFunction,Conductor*%
%ADD11C,0.300*%
%TA.AperFunction,NonConductor*%
%ADD22C,0.300*%
%TA.AperFunction,ComponentPad*%
%ADD24C,2.400*%
%ADD25C,2.500*%
%ADD26C,1.600*%
%ADD27C,3.500*%
%ADD28C,1.400*%
%ADD29C,3.300*%
%ADD30C,6.000*%
%TA.AperFunction,ViaPad*%
%ADD31C,0.700*%
%TA.AperFunction,Conductor*%
%ADD33C,0.200*%
D10*
X53998Y62500D02*
G03*
X50000Y66498I-3998J0D01*
G01*
Y502D02*
G03*
X53998Y4500I0J3998D01*
G01*
X4500Y66498D02*
G03*
X502Y62500I0J-3998D01*
G01*
Y4500D02*
G03*
X4500Y502I3998J0D01*
G01*
X52695Y64908D02*
X52967Y65180D01*
X52335Y65267D02*
X52603Y65535D01*
X52172Y65857D02*
X53357Y64672D01*
X53054Y64549D02*
X53285Y64780D01*
X51976Y65626D02*
X52193Y65843D01*
X51533Y65902D02*
X51734Y66103D01*
X51701Y65902D02*
X53402Y64201D01*
Y63190D02*
X53997Y62595D01*
X53402Y62023D02*
X53997Y62618D01*
X53402Y61304D02*
X53998Y61901D01*
X53402Y62472D02*
X53998Y61875D01*
X53402Y63459D02*
X53771Y63829D01*
X53402Y64178D02*
X53555Y64331D01*
X53402Y62741D02*
X53925Y63264D01*
X53402Y63909D02*
X53891Y63419D01*
X48657Y66498D02*
X49254Y65902D01*
X47938Y66498D02*
X48535Y65902D01*
X49375Y66498D02*
X49972Y65902D01*
X48659D02*
X49256Y66498D01*
X47220D02*
X48058Y65660D01*
X46502Y66498D02*
X47699Y65301D01*
X45783Y66498D02*
X47340Y64942D01*
X45065Y66498D02*
X46980Y64583D01*
X50095Y66497D02*
X50690Y65902D01*
X50096D02*
X50641Y66447D01*
X50919Y66391D02*
X51409Y65902D01*
X50815D02*
X51221Y66308D01*
X48299Y65902D02*
X51701D01*
X49378D02*
X49975Y66498D01*
X46598Y64201D02*
X48299Y65902D01*
X52083Y59480D02*
X53998Y57565D01*
X52442Y59840D02*
X53998Y58283D01*
X51028Y59098D02*
X53998Y56128D01*
X51724Y59121D02*
X53998Y56846D01*
X45002Y52186D02*
X53998Y61183D01*
X50309Y59098D02*
X53998Y55409D01*
X45622Y51369D02*
X53998Y59746D01*
X45361Y51827D02*
X53998Y60464D01*
X48873Y59098D02*
X53998Y53973D01*
X49591Y59098D02*
X53998Y54691D01*
X45622Y55884D02*
X53998Y47507D01*
X45622Y56602D02*
X53998Y48225D01*
X45622Y49932D02*
X53998Y58309D01*
X45622Y50651D02*
X53998Y59027D01*
X45607Y55180D02*
X53998Y46788D01*
X53402Y61754D02*
X53998Y61157D01*
X53402Y60799D02*
Y64201D01*
X53160Y60558D02*
X53998Y59720D01*
X53402Y61035D02*
X53998Y60438D01*
X46598Y60799D02*
X48299Y59098D01*
X46598Y60799D02*
Y64201D01*
X52801Y60199D02*
X53998Y59002D01*
X51701Y59098D02*
X53402Y60799D01*
X48299Y59098D02*
X51701D01*
X45622Y56398D02*
X48322Y59098D01*
X45622Y55680D02*
X49041Y59098D01*
X45622Y55194D02*
Y57246D01*
X45327Y57540D02*
X47592Y59805D01*
X44968Y57899D02*
X47233Y60165D01*
X45622Y57116D02*
X47951Y59446D01*
X42909Y66498D02*
X46598Y62809D01*
X43628Y66498D02*
X46598Y63528D01*
X41473Y66498D02*
X46598Y61373D01*
X42191Y66498D02*
X46598Y62091D01*
X35725Y66498D02*
X43952Y58272D01*
X35007Y66498D02*
X43234Y58272D01*
X32482Y55471D02*
X43509Y66498D01*
X32482Y56189D02*
X42791Y66498D01*
X44346D02*
X46621Y64224D01*
X43903Y58272D02*
X46598Y60967D01*
X44609Y58259D02*
X46874Y60524D01*
X44596Y58272D02*
X45622Y57246D01*
X43185Y58272D02*
X46598Y61685D01*
X42544Y58272D02*
X44596D01*
X35933Y54612D02*
X47819Y66498D01*
X38088Y54612D02*
X46598Y63122D01*
X31932Y57795D02*
X40635Y66498D01*
X31573Y58154D02*
X39917Y66498D01*
X32133D02*
X41518Y57113D01*
X32291Y57436D02*
X41354Y66498D01*
X31415D02*
X41518Y56395D01*
X30972Y58272D02*
X39198Y66498D01*
X30696D02*
X41518Y55676D01*
X28541Y66498D02*
X40428Y54612D01*
X41518Y57246D02*
X42544Y58272D01*
X34288Y66498D02*
X42530Y58257D01*
X40962Y54612D02*
X41531Y55181D01*
X41518Y55194D02*
Y57246D01*
X33570Y66498D02*
X42170Y57898D01*
X32852Y66498D02*
X41811Y57539D01*
X32482Y56908D02*
X42072Y66498D01*
X40036D02*
X53998Y52536D01*
X40754Y66498D02*
X53998Y53254D01*
X38599Y66498D02*
X53998Y51099D01*
X39317Y66498D02*
X53998Y51817D01*
X37880Y66498D02*
X53998Y50380D01*
X36601Y54561D02*
X48538Y66498D01*
X36444D02*
X53998Y48944D01*
X37162Y66498D02*
X53998Y49662D01*
X43971Y52592D02*
X50477Y59098D01*
X43252Y52592D02*
X49759Y59098D01*
X39052Y40488D02*
X53998Y55435D01*
X44642Y52545D02*
X51196Y59098D01*
X39052Y41925D02*
X53998Y56872D01*
X39052Y42644D02*
X53998Y57591D01*
X39052Y41207D02*
X53998Y56154D01*
X33731Y54566D02*
X45664Y66498D01*
X33013Y54566D02*
X44946Y66498D01*
X34239Y54355D02*
X46383Y66498D01*
X30321Y52592D02*
X44227Y66498D01*
X27823D02*
X39829Y54492D01*
X27104Y66498D02*
X39470Y54132D01*
X29978Y66498D02*
X43885Y52592D01*
X29259Y66498D02*
X43166Y52592D01*
X41518Y55194D02*
X42544Y54168D01*
X40243Y54612D02*
X41518Y55887D01*
X44596Y54168D02*
X45622Y55194D01*
X39038Y54125D02*
X41518Y56605D01*
X36960Y54202D02*
X46598Y63841D01*
X38679Y54484D02*
X46598Y62404D01*
X34556Y53953D02*
X47101Y66498D01*
X42544Y54168D02*
X44596D01*
X41602Y53815D02*
X42250Y54463D01*
X41602Y53096D02*
X42674Y54168D01*
X41602Y53438D02*
X42496Y52543D01*
X41482Y52839D02*
X42137Y52184D01*
X41365Y54297D02*
X41891Y54822D01*
X41492Y51550D02*
X44111Y54168D01*
X41133Y51909D02*
X43392Y54168D01*
X45622Y49514D02*
Y51566D01*
X44596Y52592D02*
X45622Y51566D01*
X44596Y48488D02*
X45622Y49514D01*
X42544Y48488D02*
X44596D01*
X42544Y52592D02*
X44596D01*
X41518Y51566D02*
X42544Y52592D01*
X41518Y49514D02*
X42544Y48488D01*
X41052Y48236D02*
X41924Y49108D01*
X41122Y52480D02*
X41778Y51825D01*
X41602Y52959D02*
Y54061D01*
X41518Y51524D02*
X41602Y51441D01*
X41518Y49514D02*
Y50256D01*
X41051Y52408D02*
X41602Y52959D01*
X41051Y54612D02*
X41602Y54061D01*
X41052Y49789D02*
X41518Y50256D01*
X41051Y51992D02*
X41518Y51524D01*
X41052Y48954D02*
X41565Y49468D01*
X41355Y50092D02*
X41518Y49929D01*
X41052Y48224D02*
Y48776D01*
Y48224D02*
Y48776D01*
Y49673D02*
X41518Y50139D01*
X41052Y48776D02*
Y49789D01*
X40776Y47948D02*
X41052Y48224D01*
X45214Y49107D02*
X53998Y40323D01*
X45573Y49466D02*
X53998Y41041D01*
X44396Y48488D02*
X53998Y38886D01*
X44855Y48748D02*
X53998Y39604D01*
X42959Y48488D02*
X53998Y37449D01*
X43677Y48488D02*
X53998Y38167D01*
X41052Y48959D02*
X53998Y36012D01*
X41052Y49677D02*
X53998Y36730D01*
X41706Y33803D02*
X53998Y46096D01*
X41733Y34549D02*
X53998Y46814D01*
X41733Y32393D02*
X53998Y44659D01*
X41733Y33112D02*
X53998Y45377D01*
X41052Y48240D02*
X53998Y35294D01*
X41199Y35452D02*
X53998Y48251D01*
X41637Y35171D02*
X53998Y47533D01*
X44889Y54461D02*
X53998Y45352D01*
X45248Y54820D02*
X53998Y46070D01*
X45622Y50136D02*
X53998Y41759D01*
X45622Y50855D02*
X53998Y42478D01*
X44463Y54168D02*
X53998Y44633D01*
X40776Y47948D02*
X41052Y48224D01*
X43026Y54168D02*
X53998Y43196D01*
X43745Y54168D02*
X53998Y43915D01*
X41459Y34050D02*
X41733Y33776D01*
Y34324D02*
Y35076D01*
X41459Y32750D02*
X41733Y32476D01*
Y33024D02*
Y33776D01*
X41459Y34050D02*
X41733Y34324D01*
X41357Y35452D02*
X41733Y35076D01*
X41459Y32750D02*
X41733Y33024D01*
X40226Y52408D02*
X41051D01*
X39992Y52174D02*
X40174Y51992D01*
X40497D02*
X40914Y52408D01*
X40476D02*
X40893Y51992D01*
X39949Y54612D02*
X41051D01*
X39398Y54061D02*
X39949Y54612D01*
X39802Y51984D02*
X40226Y52408D01*
X39802Y51844D02*
X39949Y51992D01*
X41051D01*
X39802Y51844D02*
Y51984D01*
X39052Y43362D02*
X44178Y48488D01*
X39052Y46224D02*
X40776Y47948D01*
X39052Y44799D02*
X42741Y48488D01*
X39052Y45517D02*
X42283Y48749D01*
X39052Y44081D02*
X43459Y48488D01*
X39102Y53470D02*
X39398Y53767D01*
X39102Y53783D02*
X39398Y53486D01*
Y53236D02*
Y54061D01*
X39102Y53064D02*
X39164Y53002D01*
X39102Y52959D02*
Y54061D01*
X38551Y54612D02*
X39102Y54061D01*
X38974Y52812D02*
X39398Y53236D01*
X38551Y52408D02*
X39102Y52959D01*
X38698Y52536D02*
X38974Y52812D01*
X38698Y52536D02*
X38974Y52812D01*
X38698Y51844D02*
Y51984D01*
Y52536D01*
X38342Y51992D02*
X38698Y52348D01*
X38320Y52408D02*
X38698Y52030D01*
X38551Y51992D02*
X38698Y51844D01*
X39052Y36896D02*
X53998Y51843D01*
X39052Y37615D02*
X53998Y52562D01*
X39052Y35459D02*
X53998Y50406D01*
X39052Y36178D02*
X53998Y51125D01*
X39052Y39052D02*
X53998Y53998D01*
X39052Y39770D02*
X53998Y54717D01*
X39052Y38333D02*
X53998Y53280D01*
X39052Y39052D02*
X53998Y53998D01*
X40701Y47873D02*
X53998Y34575D01*
X40605Y35452D02*
X41357D01*
X39982Y47155D02*
X53998Y33138D01*
X40341Y47514D02*
X53998Y33857D01*
X39052Y34023D02*
X53998Y48969D01*
X39052Y34741D02*
X53998Y49688D01*
X39623Y46795D02*
X53998Y32420D01*
X40230Y35076D02*
X40605Y35452D01*
X40230Y34324D02*
Y35076D01*
X39052Y34435D02*
X40230Y33257D01*
X39052Y33304D02*
X40230Y34482D01*
X39052Y37309D02*
X40909Y35452D01*
X39052Y36590D02*
X40398Y35244D01*
X39052Y35154D02*
X40329Y33876D01*
X39052Y35872D02*
X40230Y34694D01*
Y33776D02*
X40504Y34050D01*
X40230Y33024D02*
Y33776D01*
Y32476D02*
X40504Y32750D01*
X40230Y33024D02*
X40504Y32750D01*
X40230Y34324D02*
X40504Y34050D01*
X39052Y32586D02*
X40230Y33764D01*
X39052Y33717D02*
X40261Y32507D01*
X37449Y54612D02*
X38551D01*
X35449D02*
X36551D01*
X37000Y54162D02*
X37449Y54612D01*
X36551D02*
X37000Y54162D01*
X34898Y54061D02*
X35449Y54612D01*
X32482Y56810D02*
X35065Y54227D01*
X34898Y52959D02*
Y54061D01*
X34008Y54566D02*
X34556Y54018D01*
X35449Y52408D02*
X36551D01*
X34898Y52959D02*
X35449Y52408D01*
X37000Y52858D02*
X37449Y52408D01*
X36551D02*
X37000Y52858D01*
X34556Y53235D02*
X34898Y53577D01*
X34556Y54018D02*
X34898Y53675D01*
X34028Y52454D02*
X34556Y52982D01*
Y54038D01*
X32482Y56092D02*
X34008Y54566D01*
X32482Y55374D02*
X33290Y54566D01*
X34028D02*
X34556Y54038D01*
X32972Y54566D02*
X34028D01*
X32212Y54925D02*
X32772Y54365D01*
X32482Y55194D02*
Y57246D01*
X32444Y53997D02*
X33013Y54566D01*
X32444Y54038D02*
X32972Y54566D01*
Y52454D02*
X34028D01*
X32444Y52982D02*
Y54038D01*
Y52982D02*
X32972Y52454D01*
X38698Y51984D02*
Y52536D01*
X37602Y52408D02*
X38019Y51992D01*
X36728Y51815D02*
X37385Y52472D01*
X36717Y52575D02*
X37375Y51917D01*
X35468Y51992D02*
X35885Y52408D01*
X34556Y53300D02*
X35864Y51992D01*
X36186D02*
X37026Y52831D01*
X36165Y52408D02*
X37016Y51558D01*
X37449Y51992D02*
X38551D01*
X37449Y52408D02*
X38551D01*
X37623Y51992D02*
X38040Y52408D01*
X37000Y51542D02*
X37449Y51992D01*
X36551D02*
X37000Y51542D01*
X35449Y51992D02*
X36551D01*
X34898Y51422D02*
X35468Y51992D01*
X34355Y52782D02*
X35297Y51840D01*
X33985Y51946D02*
X34949Y52909D01*
X34366Y51608D02*
X35308Y52550D01*
X33964Y52454D02*
X34938Y51480D01*
X33246Y52454D02*
X33754Y51946D01*
X31966Y52082D02*
X32655Y52771D01*
X33267Y51946D02*
X33775Y52454D01*
X32325Y51722D02*
X33057Y52454D01*
X34898Y51441D02*
X35449Y51992D01*
X32972Y51946D02*
X34028D01*
X34556Y51418D01*
X32482Y51455D02*
X32972Y51946D01*
X32482Y51455D02*
Y51566D01*
X25893Y57504D02*
X34888Y66498D01*
X25534Y57863D02*
X34169Y66498D01*
X26122Y56295D02*
X36325Y66498D01*
X26122Y57014D02*
X35606Y66498D01*
X25175Y58222D02*
X33451Y66498D01*
X24536Y58302D02*
X32733Y66498D01*
X24230D02*
X36117Y54612D01*
X23512Y66498D02*
X35424Y54586D01*
X30253Y58272D02*
X38480Y66498D01*
X29535Y58272D02*
X37762Y66498D01*
X31456Y54168D02*
X32482Y55194D01*
X31456Y58272D02*
X32482Y57246D01*
X25667Y66498D02*
X37554Y54612D01*
X26122Y55577D02*
X37043Y66498D01*
X26386D02*
X38273Y54612D01*
X24949Y66498D02*
X37142Y54305D01*
X29404Y58272D02*
X31456D01*
X25096Y58302D02*
X26122Y57276D01*
X28378Y57115D02*
X29535Y58272D01*
X28378Y57246D02*
X29404Y58272D01*
X23099Y58302D02*
X31296Y66498D01*
X23044Y58302D02*
X25096D01*
X23817D02*
X32014Y66498D01*
X22794D02*
X31020Y58272D01*
X28378Y55194D02*
X29404Y54168D01*
X28378Y55194D02*
Y57246D01*
X31853Y54565D02*
X32444Y53974D01*
X29404Y54168D02*
X31456D01*
X26122Y55224D02*
Y57276D01*
X23044Y54198D02*
X25096D01*
X26122Y55224D01*
X31494Y54206D02*
X32444Y53256D01*
X29602Y52592D02*
X31179Y54168D01*
X26122Y49829D02*
X30461Y54168D01*
X26122Y50548D02*
X29742Y54168D01*
X26122Y56705D02*
X30235Y52592D01*
X26122Y55986D02*
X29516Y52592D01*
X23599Y54198D02*
X37198Y40599D01*
X26122Y51266D02*
X29214Y54359D01*
X31607Y52441D02*
X32444Y53279D01*
X31039Y52592D02*
X32444Y53997D01*
X30813Y54168D02*
X33036Y51946D01*
X31456Y52592D02*
X32482Y51566D01*
X30095Y54168D02*
X32645Y51618D01*
X29404Y52592D02*
X31456D01*
X28378Y51566D02*
X29404Y52592D01*
X26122Y55268D02*
X29101Y52288D01*
X25568Y52149D02*
X28496Y55077D01*
X25927Y51790D02*
X28855Y54718D01*
X25784Y54887D02*
X28742Y51929D01*
X24603Y52622D02*
X28378Y56397D01*
X23885Y52622D02*
X28378Y57115D01*
X25425Y54528D02*
X28383Y51570D01*
X25209Y52509D02*
X28378Y55678D01*
X25036Y54198D02*
X28378Y50856D01*
X25096Y52622D02*
X26122Y51596D01*
X28378Y49514D02*
Y51566D01*
X26122Y49544D02*
Y51596D01*
X23044Y52622D02*
X25096D01*
X23166D02*
X24743Y54198D01*
X24317D02*
X28378Y50137D01*
X36950Y50187D02*
X37780Y49357D01*
X37000Y50238D02*
X37449Y49788D01*
X36590Y49828D02*
X37420Y48998D01*
X35912Y49788D02*
X37198Y48502D01*
X34228Y50035D02*
X37198Y47065D01*
X34556Y50426D02*
X37198Y47783D01*
X32992Y49834D02*
X37198Y45628D01*
X33710Y49834D02*
X37198Y46346D01*
X37449Y49788D02*
X38211D01*
X38067D02*
X38139Y49716D01*
X37474Y49052D02*
X38211Y49788D01*
X37198Y48224D02*
Y48776D01*
X37474Y49052D01*
X37198Y48776D02*
X37474Y49052D01*
X32482Y49626D02*
X37198Y44909D01*
Y48224D02*
Y48776D01*
X34556Y51144D02*
X34898Y50802D01*
X34556Y50362D02*
Y51418D01*
X34898Y50339D02*
X35449Y49788D01*
X34898Y50339D02*
Y51441D01*
X34556Y51079D02*
X34898Y51422D01*
X34028Y49834D02*
X34556Y50362D01*
X35449Y49788D02*
X36551D01*
X32972Y49834D02*
X34028D01*
X36551Y49788D02*
X37000Y50238D01*
X32482Y49724D02*
X32782Y50024D01*
X32482Y50325D02*
X32972Y49834D01*
X32482Y49514D02*
Y50325D01*
X31456Y48488D02*
X32482Y49514D01*
X34023Y39052D02*
X37198Y42227D01*
X33304Y39052D02*
X37198Y42946D01*
Y37379D02*
Y48224D01*
X34741Y39052D02*
X37198Y41509D01*
X31462Y39365D02*
X37198Y45101D01*
X31103Y39724D02*
X37198Y45819D01*
X32586Y39052D02*
X37198Y43664D01*
X31867Y39052D02*
X37198Y44383D01*
X36929Y37648D02*
X37198Y37917D01*
X36570Y38007D02*
X37198Y38635D01*
X36941Y37637D02*
X37198Y37379D01*
X36941Y37637D02*
X37198Y37379D01*
X35852Y38726D02*
X37198Y40072D01*
X35459Y39052D02*
X37198Y40791D01*
X36211Y38366D02*
X37198Y39354D01*
X31819Y48852D02*
X37198Y43473D01*
X32178Y49211D02*
X37198Y44191D01*
X30746Y48488D02*
X37198Y42036D01*
X31460Y48493D02*
X37198Y42754D01*
X29666Y41161D02*
X37198Y48693D01*
X30027Y48488D02*
X37198Y41317D01*
X30385Y40443D02*
X37198Y47256D01*
X30026Y40802D02*
X37198Y47975D01*
X35526Y39052D02*
X35802Y38776D01*
X34974Y39052D02*
X35526D01*
X35802Y38776D02*
X36941Y37637D01*
X35526Y39052D02*
X35802Y38776D01*
X30744Y40083D02*
X37198Y46538D01*
X31776Y39052D02*
X34974D01*
X35526D01*
X28589Y42239D02*
X36138Y49788D01*
X28229Y42598D02*
X35435Y49803D01*
X29307Y41520D02*
X37575Y49788D01*
X28948Y41879D02*
X37153Y50085D01*
X27511Y43316D02*
X34898Y50704D01*
X27152Y43676D02*
X33311Y49834D01*
X26122Y50957D02*
X37198Y39880D01*
X27870Y42957D02*
X35075Y50162D01*
X29404Y48488D02*
X31456D01*
X28378Y49514D02*
X29404Y48488D01*
X26793Y44035D02*
X31246Y48488D01*
X26433Y44394D02*
X30528Y48488D01*
X25715Y45112D02*
X29248Y48645D01*
X25356Y45472D02*
X28888Y49004D01*
X26074Y44753D02*
X29809Y48488D01*
X24278Y46549D02*
X28378Y50649D01*
X25096Y48518D02*
X26122Y49544D01*
X24997Y45831D02*
X28529Y49363D01*
X24637Y46190D02*
X28378Y49931D01*
X23201Y47627D02*
X24092Y48518D01*
X22841Y47986D02*
X23374Y48518D01*
X23919Y46908D02*
X28378Y51368D01*
X23560Y47268D02*
X24810Y48518D01*
X24465Y39552D02*
X26168Y41255D01*
X23746Y39552D02*
X25809Y41614D01*
X27474Y39552D02*
X27871D01*
X25183D02*
X26527Y40896D01*
X23026Y39552D02*
X27474D01*
X23044Y48518D02*
X25096D01*
X23028Y39552D02*
X25449Y41973D01*
X26110Y49532D02*
X37198Y38444D01*
X26122Y50239D02*
X37198Y39162D01*
X25751Y49173D02*
X37198Y37725D01*
X26417Y38448D02*
X28698Y36167D01*
X24250Y48518D02*
X33717Y39052D01*
X23532Y48518D02*
X32998Y39052D01*
X25391Y48814D02*
X35154Y39052D01*
X24968Y48518D02*
X34435Y39052D01*
X24980Y38448D02*
X28698Y34730D01*
X25699Y38448D02*
X28698Y35449D01*
X26504Y32252D02*
X28698Y34446D01*
Y32776D02*
Y37224D01*
X23544Y38448D02*
X28698Y33294D01*
X24262Y38448D02*
X28698Y34012D01*
X22926Y38348D02*
X28698Y32575D01*
X26620Y39552D02*
X27246Y40177D01*
X25902Y39552D02*
X26886Y40536D01*
X27474Y39552D02*
X27871D01*
X27338D02*
X27605Y39818D01*
X23026Y38448D02*
X27474D01*
X23354Y37723D02*
X24080Y38448D01*
X23702Y36633D02*
X25517Y38448D01*
X23702Y37352D02*
X24798Y38448D01*
X27136D02*
X28698Y36886D01*
X27474Y38448D02*
X28698Y37224D01*
X26374Y32252D02*
X27126D01*
X23702Y36624D02*
Y37376D01*
X23317Y36248D02*
X23702Y36633D01*
X23326Y37752D02*
X23702Y37376D01*
X23326Y36248D02*
X23702Y36624D01*
X43252Y26728D02*
X53998Y37475D01*
X43216Y27411D02*
X53998Y38193D01*
X43206Y25245D02*
X53998Y36038D01*
X43150Y25908D02*
X53998Y36756D01*
X41733Y29520D02*
X53998Y41785D01*
X41687Y30910D02*
X53998Y43222D01*
X41733Y34628D02*
X53998Y22362D01*
X42838Y27752D02*
X53998Y38912D01*
X42861Y27752D02*
X43252Y27361D01*
X42876Y27752D02*
X43252Y27376D01*
X42876Y26248D02*
X43252Y26624D01*
Y27376D01*
X41733Y33191D02*
X53998Y20925D01*
X42853Y24794D02*
X43206Y25147D01*
X41733Y31754D02*
X53998Y19488D01*
X41733Y32472D02*
X53998Y20207D01*
X42124Y26248D02*
X42876D01*
X42124Y27752D02*
X42876D01*
X42853Y26206D02*
X43206Y25853D01*
X42147Y26206D02*
X42853D01*
X41748Y26624D02*
X42124Y26248D01*
X41748Y27376D02*
X42124Y27752D01*
X41794Y25853D02*
X42147Y26206D01*
X43206Y25147D02*
Y25853D01*
X42147Y24794D02*
X42853D01*
X41794Y25147D02*
Y25853D01*
Y25147D02*
X42147Y24794D01*
X43894Y13002D02*
X53998Y23106D01*
X43252Y26643D02*
X53998Y15896D01*
Y4500D02*
Y62500D01*
X44612Y13002D02*
X53998Y22388D01*
X43206Y25252D02*
X53998Y14459D01*
X42902Y26274D02*
X53998Y15178D01*
X42227Y24794D02*
X53998Y13023D01*
X42899Y24840D02*
X53998Y13741D01*
X45002Y11954D02*
X53998Y20951D01*
X48595Y11956D02*
X53998Y17359D01*
X45206Y16786D02*
X53998Y7994D01*
X49083Y11725D02*
X53998Y16640D01*
X44937Y11171D02*
X53998Y20233D01*
X44978Y12649D02*
X53998Y21669D01*
X41705Y5784D02*
X53998Y18077D01*
X45038Y17020D02*
X53998Y25980D01*
X44506Y17206D02*
X53998Y26698D01*
X45206Y16469D02*
X53998Y25262D01*
X44853Y17206D02*
X45206Y16853D01*
X41733Y29599D02*
X53998Y17333D01*
X44147Y17206D02*
X44853D01*
X43252Y27361D02*
X53998Y16615D01*
X43794Y16853D02*
X44147Y17206D01*
X45206Y16147D02*
Y16853D01*
X44853Y15794D02*
X45206Y16147D01*
X43794D02*
Y16853D01*
X39052Y40901D02*
X53998Y25954D01*
X39052Y41619D02*
X53998Y26673D01*
X39052Y39464D02*
X53998Y24517D01*
X39052Y40183D02*
X53998Y25236D01*
X39052Y42338D02*
X53998Y27391D01*
X39052Y43056D02*
X53998Y28109D01*
X26869Y13219D02*
X53998Y40348D01*
X26373Y13442D02*
X53998Y41067D01*
X41525Y34117D02*
X53998Y21644D01*
X39052Y38027D02*
X53998Y23080D01*
X41595Y30455D02*
X53998Y18052D01*
X41687Y31082D02*
X53998Y18770D01*
X38132Y13706D02*
X53998Y29572D01*
X39052Y38746D02*
X53998Y23799D01*
X38956Y13092D02*
X53998Y28135D01*
X38727Y13582D02*
X53998Y28854D01*
X41499Y31441D02*
X53998Y43940D01*
X39264Y46436D02*
X53998Y31702D01*
X41602Y30107D02*
X53998Y42504D01*
X41561Y29052D02*
X42861Y27752D01*
X39052Y45211D02*
X53998Y30265D01*
X39052Y45930D02*
X53998Y30983D01*
X39052Y43775D02*
X53998Y28828D01*
X39052Y44493D02*
X53998Y29546D01*
X41052Y28843D02*
X42143Y27752D01*
X40692Y28484D02*
X41774Y27402D01*
X39974Y27765D02*
X41840Y25899D01*
X39615Y27406D02*
X41794Y25227D01*
X36741Y25251D02*
X44786Y17206D01*
X36023Y25251D02*
X44108Y17166D01*
X35304Y25251D02*
X43794Y16761D01*
X38896Y26688D02*
X53998Y11586D01*
X33002Y12167D02*
X53998Y33164D01*
X32956Y10685D02*
X53998Y31727D01*
X38537Y26329D02*
X53998Y10867D01*
X23491Y502D02*
X53998Y31009D01*
X32806Y11253D02*
X53998Y32446D01*
X27083Y502D02*
X53998Y27417D01*
X24209Y502D02*
X53998Y30291D01*
X37819Y25610D02*
X53998Y9430D01*
X38178Y25969D02*
X53998Y10149D01*
X41308Y6106D02*
X53998Y18796D01*
X40590Y6106D02*
X53998Y19514D01*
X35607Y6152D02*
X53998Y24543D01*
X37459Y25251D02*
X53998Y8712D01*
X36325Y6152D02*
X53998Y23825D01*
X32872Y12756D02*
X53998Y33883D01*
X32399Y13002D02*
X53998Y34601D01*
X39256Y27047D02*
X53998Y12304D01*
X27722Y11198D02*
X41794Y25271D01*
X27228Y12859D02*
X53998Y39630D01*
X27170Y29793D02*
X43961Y13002D01*
X26496Y29748D02*
X43559Y12686D01*
X27722Y11916D02*
X42089Y26284D01*
X34586Y25251D02*
X48014Y11823D01*
X33867Y25251D02*
X47794Y11324D01*
X33149Y25251D02*
X50498Y7902D01*
X32431Y25251D02*
X49780Y7902D01*
X25002Y22622D02*
X47122Y502D01*
X27722Y10479D02*
X42092Y24850D01*
X27802Y502D02*
X43794Y16494D01*
X50288Y7902D02*
X53998Y11612D01*
X49570Y7902D02*
X53998Y12330D01*
X51713Y7889D02*
X53998Y10175D01*
X51007Y7902D02*
X53998Y10893D01*
X48852Y7902D02*
X53998Y13048D01*
X49206Y11129D02*
X53998Y15922D01*
X49073Y10764D02*
X53998Y5838D01*
X49206Y11350D02*
X53998Y6557D01*
X53402Y5986D02*
X53998Y6583D01*
X53150Y6453D02*
X53998Y7301D01*
X53402Y5717D02*
X53998Y5120D01*
X53402Y5267D02*
X53998Y5864D01*
X52431Y7171D02*
X53998Y8738D01*
X52072Y7530D02*
X53998Y9456D01*
X52791Y6812D02*
X53998Y8019D01*
X51701Y7902D02*
X53402Y6201D01*
X48853Y11956D02*
X49206Y11603D01*
X48147Y11956D02*
X48853D01*
X49206Y10897D02*
Y11603D01*
X47794D02*
X48147Y11956D01*
X47794Y10897D02*
Y11603D01*
X48853Y10544D02*
X49206Y10897D01*
X48299Y7902D02*
X51701D01*
X48574Y10544D02*
X51217Y7902D01*
X48147Y10544D02*
X48853D01*
X47794Y10897D02*
X48147Y10544D01*
X46598Y6201D02*
X48299Y7902D01*
X53402Y3831D02*
X53998Y4427D01*
X53402Y4280D02*
X53928Y3753D01*
X53402Y3112D02*
X53898Y3608D01*
X53402Y3561D02*
X53777Y3187D01*
X53402Y4549D02*
X53998Y5146D01*
X53402Y4998D02*
X53997Y4403D01*
X53402Y2799D02*
Y6201D01*
Y2843D02*
X53562Y2683D01*
X53064Y2462D02*
X53293Y2233D01*
X52705Y2103D02*
X52977Y1831D01*
X52346Y1744D02*
X52615Y1475D01*
X52114Y1106D02*
X53394Y2386D01*
X51987Y1384D02*
X52206Y1165D01*
X51701Y1098D02*
X53402Y2799D01*
X48636Y502D02*
X49233Y1098D01*
X47917Y502D02*
X48514Y1098D01*
X49354Y502D02*
X49951Y1098D01*
X48681D02*
X49277Y502D01*
X46598Y2799D02*
X48299Y1098D01*
X46598Y2799D02*
Y6201D01*
X47199Y502D02*
X48047Y1350D01*
X46481Y502D02*
X47688Y1709D01*
X51554Y1098D02*
X51748Y904D01*
X50836Y1098D02*
X51237Y698D01*
X50892Y602D02*
X51388Y1098D01*
X50117D02*
X50659Y556D01*
X48299Y1098D02*
X51701D01*
X50073Y502D02*
X50669Y1098D01*
X49399D02*
X49996Y502D01*
X44761Y15794D02*
X48600Y11956D01*
X45002Y11874D02*
Y12626D01*
X45166Y16108D02*
X53998Y7275D01*
X45002Y11961D02*
X49061Y7902D01*
X44626Y13002D02*
X45002Y12626D01*
X44147Y15794D02*
X44853D01*
X44686Y11559D02*
X48343Y7902D01*
X44680Y11553D02*
X45002Y11874D01*
X44937Y10591D02*
Y11297D01*
X44680Y11553D02*
X44937Y11297D01*
X44936Y10590D02*
X47962Y7564D01*
X44584Y10238D02*
X44937Y10591D01*
X44570Y10238D02*
X47603Y7205D01*
X43874Y13002D02*
X44626D01*
X43794Y16147D02*
X44147Y15794D01*
X43498Y11874D02*
X43801Y11572D01*
X43498Y11874D02*
Y12626D01*
Y12606D02*
X43894Y13002D01*
X43498Y12626D02*
X43874Y13002D01*
X34888Y6152D02*
X44531Y15794D01*
X36685Y5793D02*
X43498Y12606D01*
X43878Y10238D02*
X44584D01*
X43526Y10591D02*
X43878Y10238D01*
X43526Y11297D02*
X43801Y11572D01*
X43526Y10591D02*
Y11297D01*
X39871Y6106D02*
X44004Y10238D01*
X42186Y4828D02*
X48025Y10667D01*
X42064Y5424D02*
X47794Y11155D01*
X40733Y502D02*
X53998Y13767D01*
X42186Y4109D02*
X48621Y10544D01*
X38203Y12294D02*
X46598Y3899D01*
X38762Y12454D02*
X46598Y4617D01*
X40015Y502D02*
X53998Y14485D01*
X39296Y502D02*
X53998Y15204D01*
X44325Y502D02*
X46611Y2787D01*
X43607Y502D02*
X46598Y3493D01*
X45762Y502D02*
X47329Y2069D01*
X45044Y502D02*
X46970Y2428D01*
X42170Y502D02*
X46598Y4930D01*
X41452Y502D02*
X46598Y5648D01*
X42888Y502D02*
X46598Y4212D01*
X38956Y12979D02*
X46598Y5336D01*
X41383Y6106D02*
X42186Y5303D01*
X37152Y4104D02*
X43582Y10535D01*
X42186Y3697D02*
Y5303D01*
X37152Y4823D02*
X43526Y11197D01*
X37044Y5433D02*
X43498Y11888D01*
X28520Y502D02*
X43980Y15962D01*
X32550Y10044D02*
X42093Y502D01*
X41978Y3490D02*
X44967Y502D01*
X41619Y3131D02*
X44248Y502D01*
X42186Y4720D02*
X46404Y502D01*
X42186Y4001D02*
X45685Y502D01*
X40419Y2894D02*
X42812Y502D01*
X41383Y2894D02*
X42186Y3697D01*
X41137Y2894D02*
X43530Y502D01*
X41474Y31465D02*
X41733Y31724D01*
Y32476D01*
X41474Y31465D02*
X41687Y31253D01*
X40276D02*
X40488Y31465D01*
X40230Y31724D02*
X40488Y31465D01*
X39052Y31561D02*
X40433Y30180D01*
X41424Y30285D02*
X41687Y30547D01*
Y31253D01*
X41733Y29224D02*
Y29976D01*
X41424Y30285D02*
X41733Y29976D01*
X40230D02*
X40538Y30285D01*
X40276Y30547D02*
X40538Y30285D01*
X39052Y31149D02*
X40230Y32327D01*
Y31724D02*
Y32476D01*
X39052Y30431D02*
X40287Y31666D01*
X39052Y32280D02*
X40276Y31056D01*
X39052Y31867D02*
X40230Y33045D01*
X28698Y32224D02*
Y32776D01*
X39052Y32998D02*
X40230Y31820D01*
X39052Y29926D02*
Y46224D01*
X40276Y30547D02*
Y31253D01*
X40230Y29676D02*
Y29976D01*
X39052Y29374D02*
Y29926D01*
Y29374D02*
Y29926D01*
Y29712D02*
X40276Y30936D01*
X39052Y30843D02*
X40224Y29670D01*
X39052Y30125D02*
X39865Y29311D01*
X38776Y29098D02*
X39052Y29374D01*
X38776Y29098D02*
X39052Y29374D01*
X41357Y28848D02*
X41733Y29224D01*
X39052Y29406D02*
X39506Y28952D01*
X38708Y29031D02*
X39147Y28593D01*
X36502Y26824D02*
X38776Y29098D01*
X36412Y26354D02*
X40440Y30382D01*
X36908Y26354D02*
X40230Y29676D01*
X41057Y28848D02*
X41357D01*
X38349Y28672D02*
X38787Y28234D01*
X41748Y26624D02*
Y27376D01*
X40333Y28125D02*
X41748Y26709D01*
X37990Y28313D02*
X38428Y27874D01*
X37631Y27953D02*
X38069Y27515D01*
X37735Y25527D02*
X41057Y28848D01*
X37272Y27594D02*
X37710Y27156D01*
X36912Y27235D02*
X37350Y26797D01*
X36553Y26876D02*
X36991Y26438D01*
X36502Y26524D02*
Y26824D01*
X36331Y26354D02*
X36908D01*
X36331D02*
X36502Y26524D01*
X31683Y25527D02*
X31959Y25251D01*
X31683Y25527D02*
X31959Y25251D01*
X36908D02*
X37459D01*
X36908D02*
X37459D01*
X37735Y25527D01*
X37459Y25251D02*
X37735Y25527D01*
X31959Y25251D02*
X32511D01*
X31959D02*
X32511D01*
X36908D01*
X27741Y32052D02*
X28698Y33009D01*
Y32224D02*
Y32776D01*
Y32224D02*
X28871Y32052D01*
X28459D02*
X28698Y32291D01*
X27174Y32203D02*
X28698Y33727D01*
X23457Y36380D02*
X27785Y32052D01*
X23702Y36854D02*
X28504Y32052D01*
X27126Y32252D02*
X27326Y32052D01*
X28474D02*
X28871D01*
X27326D02*
X28474D01*
X28698Y32224D02*
X28871Y32052D01*
X28474D02*
X28871D01*
X27294Y29916D02*
X31683Y25527D01*
X23311Y24748D02*
X27887Y29323D01*
X23474Y24193D02*
X28246Y28964D01*
X25998Y30876D02*
X26122Y31000D01*
X25998Y30124D02*
Y30876D01*
X27126Y29748D02*
X27294Y29916D01*
X25998Y30124D02*
X26374Y29748D01*
X22870Y36248D02*
X26867Y32252D01*
X25998Y31876D02*
X26374Y32252D01*
X25998Y31124D02*
X26122Y31000D01*
X25998Y31124D02*
Y31876D01*
X26374Y29748D02*
X27126D01*
X23474Y23878D02*
Y24584D01*
Y24149D02*
X24622Y23002D01*
X23122Y23526D02*
X23474Y23878D01*
X23122Y24937D02*
X23474Y24584D01*
X25002Y20691D02*
X30760Y26450D01*
X25002Y22128D02*
X30042Y27168D01*
X27587Y12500D02*
X41748Y26662D01*
X25655Y13442D02*
X41062Y28848D01*
X24891Y22736D02*
X29683Y27527D01*
X24438Y23002D02*
X29323Y27887D01*
X24956Y19927D02*
X31120Y26091D01*
X24985Y21393D02*
X30401Y26809D01*
X24936Y13442D02*
X36746Y25251D01*
X23656Y13598D02*
X35309Y25251D01*
X25002Y21904D02*
X40800Y6106D01*
X25002Y21185D02*
X40081Y6106D01*
X23427Y14806D02*
X33872Y25251D01*
X23058Y15156D02*
X33153Y25251D01*
X23656Y14316D02*
X34590Y25251D01*
X24622Y23002D02*
X25002Y22622D01*
X24626Y23002D02*
X25002Y22626D01*
X24752Y21625D02*
X25002Y21874D01*
Y22626D01*
X23874Y23002D02*
X24626D01*
X23251Y23655D02*
X23904Y23002D01*
X23470Y22752D02*
X28964Y28246D01*
X23624Y22752D02*
X23874Y23002D01*
X24752Y21625D02*
X25002Y21376D01*
X23624Y21748D02*
X23748Y21625D01*
X24718Y20340D02*
X25002Y20624D01*
Y21376D01*
X23498D02*
X23748Y21625D01*
X23002Y21748D02*
X23498Y21252D01*
Y20624D02*
Y21376D01*
X38956Y12647D02*
Y13353D01*
X38603Y13706D02*
X38956Y13353D01*
X38603Y12294D02*
X38956Y12647D01*
X37897Y13706D02*
X38603D01*
X39777Y6106D02*
X41383D01*
X38974Y5209D02*
X39871Y6106D01*
X33002Y12467D02*
X39570Y5898D01*
X37897Y12294D02*
X38603D01*
X38974Y5303D02*
X39777Y6106D01*
X32939Y11811D02*
X39211Y5539D01*
X37544Y13353D02*
X37897Y13706D01*
X37544Y12647D02*
Y13353D01*
Y12647D02*
X37897Y12294D01*
X33002Y11874D02*
Y12626D01*
X32626Y11498D02*
X33002Y11874D01*
X32626Y13002D02*
X33002Y12626D01*
X32576Y11456D02*
X32956Y11076D01*
X32603Y11456D02*
X32956Y11103D01*
X34674Y6152D02*
X36326D01*
X32956Y10397D02*
Y11103D01*
X36326Y6152D02*
X37152Y5326D01*
X33848D02*
X34674Y6152D01*
X32603Y10044D02*
X32956Y10397D01*
X37152Y4006D02*
X40656Y502D01*
X38974Y3697D02*
X39777Y2894D01*
X34986Y502D02*
X38974Y4490D01*
X34267Y502D02*
X38974Y5209D01*
X37152Y4725D02*
X41375Y502D01*
X35704D02*
X38974Y3772D01*
X39777Y2894D02*
X41383D01*
X37141Y502D02*
X39656Y3016D01*
X38578Y502D02*
X40971Y2894D01*
X37860Y502D02*
X40252Y2894D01*
X36423Y502D02*
X39296Y3375D01*
X36599Y3122D02*
X39219Y502D01*
X36958Y3481D02*
X39938Y502D01*
X38974Y3697D02*
Y5303D01*
X37152Y3674D02*
Y5326D01*
X36326Y2848D02*
X37152Y3674D01*
X33848D02*
X34674Y2848D01*
X32936Y10377D02*
X38974Y4339D01*
X32956Y11076D02*
X38974Y5057D01*
X33848Y3717D02*
X34717Y2848D01*
X33848Y3674D02*
Y5326D01*
X34717Y2848D02*
X37064Y502D01*
X34674Y2848D02*
X36326D01*
X36154D02*
X38501Y502D01*
X35436Y2848D02*
X37783Y502D01*
X32831D02*
X35177Y2848D01*
X32112Y502D02*
X34567Y2956D01*
X33549Y502D02*
X35896Y2848D01*
X24923Y20545D02*
X32467Y13002D01*
X24956Y19397D02*
Y20103D01*
Y19794D02*
X31811Y12939D01*
X24795Y19237D02*
X31498Y12533D01*
X24718Y20340D02*
X24956Y20103D01*
X24603Y19044D02*
X24956Y19397D01*
X31874Y13002D02*
X32626D01*
X31498Y12626D02*
X31874Y13002D01*
Y11498D02*
X32626D01*
X31498Y11874D02*
Y12626D01*
X24494Y13442D02*
X26646D01*
X23897Y19044D02*
X24603D01*
X26646Y13442D02*
X27722Y12366D01*
X23544Y19397D02*
Y20103D01*
Y19397D02*
X23897Y19044D01*
X23544Y20103D02*
X23782Y20340D01*
X23498Y20624D02*
X23782Y20340D01*
X23078Y15156D02*
X23656Y14578D01*
Y13910D02*
X24309Y13257D01*
X23656Y13422D02*
Y14578D01*
X23418Y12366D02*
X24494Y13442D01*
X23540Y13307D02*
X23950Y12897D01*
X23078Y12844D02*
X23656Y13422D01*
X23181Y12948D02*
X23591Y12538D01*
X27722Y11999D02*
X34122Y5599D01*
X27722Y11281D02*
X33848Y5154D01*
X27537Y10029D02*
X33848Y3717D01*
X27722Y10563D02*
X33848Y4436D01*
X25646Y502D02*
X37668Y12523D01*
X24928Y502D02*
X37544Y13118D01*
X26365Y502D02*
X38158Y12294D01*
X27177Y9670D02*
X36346Y502D01*
X29957D02*
X33848Y4393D01*
X29238Y502D02*
X33848Y5112D01*
X31394Y502D02*
X34207Y3315D01*
X30675Y502D02*
X33848Y3675D01*
X26272Y9138D02*
X34909Y502D01*
X25554Y9138D02*
X34190Y502D01*
X26818Y9311D02*
X35627Y502D01*
X31897Y11456D02*
X32603D01*
X31544Y11103D02*
X31897Y11456D01*
X31544Y10397D02*
Y11103D01*
X24269Y19044D02*
X31877Y11436D01*
X31498Y11874D02*
X31874Y11498D01*
X27722Y10214D02*
Y12366D01*
X23418Y10214D02*
Y12366D01*
X31544Y10397D02*
X31897Y10044D01*
X32603D01*
X26646Y9138D02*
X27722Y10214D01*
X24494Y9138D02*
X26646D01*
X23418Y10214D02*
X24494Y9138D01*
X24835D02*
X33472Y502D01*
X22075Y66498D02*
X30302Y58272D01*
X21357Y66498D02*
X29584Y58272D01*
X20638Y66498D02*
X29135Y58002D01*
X22018Y57276D02*
X23044Y58302D01*
X19920Y66498D02*
X28775Y57643D01*
X19202Y66498D02*
X28416Y57284D01*
X18721Y54642D02*
X30577Y66498D01*
X18483D02*
X28378Y56603D01*
X22102Y52994D02*
X23306Y54198D01*
X22102Y53712D02*
X22816Y54427D01*
X22102Y53540D02*
X23032Y52610D01*
X22102Y52989D02*
Y54091D01*
X22018Y57221D02*
X23099Y58302D01*
X21932Y54261D02*
X22457Y54786D01*
X22018Y55224D02*
X23044Y54198D01*
X21551Y54642D02*
X22102Y54091D01*
X22018Y55224D02*
Y57276D01*
X20449Y54642D02*
X21551D01*
X21573Y54620D02*
X22098Y55145D01*
X20876Y54642D02*
X22018Y55784D01*
X19245Y54448D02*
X22018Y57221D01*
X19051Y54642D02*
X19602Y54091D01*
Y54086D02*
X22018Y56503D01*
X19898Y54091D02*
X20449Y54642D01*
X19602Y53367D02*
X19898Y53664D01*
X19602Y53885D02*
X19898Y53588D01*
Y53266D02*
Y54091D01*
X19602Y53167D02*
X19700Y53068D01*
X19474Y52842D02*
X19898Y53266D01*
X19602Y52989D02*
Y54091D01*
X19198Y52566D02*
X19474Y52842D01*
X21699Y51873D02*
X24025Y54198D01*
X22018Y52906D02*
X22673Y52251D01*
X22059Y51514D02*
X23166Y52622D01*
X22018Y51596D02*
X23044Y52622D01*
X21551Y52438D02*
X22102Y52989D01*
X21546Y52438D02*
X22102Y52994D01*
X21659Y52546D02*
X22314Y51891D01*
X21048Y52438D02*
X21465Y52022D01*
X22018Y51554D02*
X22102Y51471D01*
X21551Y52022D02*
X22018Y51554D01*
Y49544D02*
Y50286D01*
X21552Y49819D02*
X22018Y50286D01*
X20449Y52022D02*
X21551D01*
X20726Y52438D02*
X21551D01*
X21129Y52022D02*
X21546Y52438D01*
X19198Y52566D02*
X19474Y52842D01*
X19198Y52014D02*
Y52566D01*
X20302Y52014D02*
X20726Y52438D01*
X19198Y52014D02*
Y52566D01*
X19051Y52438D02*
X19602Y52989D01*
X18893Y52438D02*
X19198Y52133D01*
X18256Y52022D02*
X18673Y52438D01*
X18175D02*
X18591Y52022D01*
X20302Y51912D02*
X20828Y52438D01*
X20528Y52240D02*
X20747Y52022D01*
X20302Y51874D02*
X20449Y52022D01*
X20302Y51874D02*
Y52014D01*
X19051Y52022D02*
X19198Y51874D01*
X18974Y52022D02*
X19198Y52246D01*
Y51874D02*
Y52014D01*
X15609Y66498D02*
X23806Y58302D01*
X14891Y66498D02*
X23088Y58302D01*
X16328Y66498D02*
X24525Y58302D01*
X14173Y66498D02*
X22707Y57964D01*
X12982Y56805D02*
X22675Y66498D01*
X13454D02*
X22348Y57605D01*
X12982Y55368D02*
X24112Y66498D01*
X12982Y56087D02*
X23393Y66498D01*
X16565Y54642D02*
X28422Y66498D01*
X17765D02*
X28378Y55885D01*
X18002Y54642D02*
X29859Y66498D01*
X17167Y54525D02*
X29140Y66498D01*
X4500D02*
X50000D01*
X13646Y54596D02*
X25548Y66498D01*
X14805Y54318D02*
X26985Y66498D01*
X14364Y54596D02*
X26267Y66498D01*
X10886Y58302D02*
X19083Y66498D01*
X10167Y58302D02*
X18364Y66498D01*
X12139Y58118D02*
X20519Y66498D01*
X11604Y58302D02*
X19801Y66498D01*
X6988D02*
X18845Y54642D01*
X6270Y66498D02*
X18127Y54642D01*
X9144Y66498D02*
X21000Y54642D01*
X8425Y66498D02*
X20366Y54558D01*
X12858Y57400D02*
X21956Y66498D01*
X12498Y57759D02*
X21238Y66498D01*
X12736D02*
X22018Y57216D01*
X17949Y54642D02*
X19051D01*
X11299Y66498D02*
X22018Y55779D01*
X12017Y66498D02*
X22018Y56497D01*
X7902Y64148D02*
X17679Y54371D01*
X15056Y53850D02*
X27704Y66498D01*
X10580D02*
X24457Y52622D01*
X17046Y66498D02*
X30953Y52592D01*
X10953Y52622D02*
X24830Y66498D01*
X9862D02*
X23739Y52622D01*
X7707Y66498D02*
X20006Y54199D01*
X502Y57898D02*
X21198Y37202D01*
X502Y57180D02*
X19930Y37752D01*
X17949Y52022D02*
X19051D01*
X17949Y52438D02*
X19051D01*
X15056Y50529D02*
X26033Y39552D01*
X502Y50714D02*
X19294Y31921D01*
X502Y52151D02*
X19947Y32706D01*
X502Y56461D02*
X19293Y37670D01*
X502Y51433D02*
X19438Y32496D01*
X17500Y54192D02*
X17949Y54642D01*
X17051D02*
X17500Y54192D01*
Y52888D02*
X17949Y52438D01*
X17051D02*
X17500Y52888D01*
X502Y55743D02*
X18493Y37752D01*
X502Y49354D02*
X17646Y66498D01*
X502Y55025D02*
X18074Y37452D01*
X502Y54306D02*
X17998Y36809D01*
X17294Y51778D02*
X17954Y52438D01*
X17254Y52641D02*
X17911Y51984D01*
X17500Y51572D02*
X17949Y52022D01*
X17051Y49818D02*
X17500Y50268D01*
X16819Y52022D02*
X17592Y52795D01*
X16738Y52438D02*
X17552Y51624D01*
X17051Y52022D02*
X17500Y51572D01*
X22018Y49544D02*
X23044Y48518D01*
X22123Y48704D02*
X22490Y49072D01*
X22482Y48345D02*
X22850Y48713D01*
X22198Y39276D02*
X22474Y39552D01*
X21552Y49780D02*
X32280Y39052D01*
X21552Y49276D02*
X31776Y39052D01*
X20318Y37560D02*
X25090Y42332D01*
X19791Y37752D02*
X24731Y42692D01*
X22574Y37752D02*
X23326D01*
X22566Y37989D02*
X22804Y37752D01*
X22665D02*
X23362Y38448D01*
X22552Y37729D02*
Y37974D01*
X22474Y39552D02*
X23026D01*
X22474D02*
X23026D01*
X22552Y37974D02*
X23026Y38448D01*
X22198Y39276D02*
X22474Y39552D01*
X21891Y50159D02*
X22018Y50032D01*
X21552Y49276D02*
Y49819D01*
X21724Y38802D02*
X22198Y39276D01*
X21764Y49064D02*
X22131Y49431D01*
X21552Y49570D02*
X22018Y50037D01*
X21448Y38526D02*
X21724Y38802D01*
X21448Y38526D02*
X21724Y38802D01*
X21448Y37974D02*
Y38526D01*
Y37626D02*
Y37974D01*
Y38526D01*
X21198Y37376D02*
X21448Y37626D01*
X21198Y36624D02*
Y37376D01*
X20502Y37025D02*
X21448Y37972D01*
X20126Y37752D02*
X20502Y37376D01*
Y36624D02*
Y37376D01*
X20706Y32200D02*
X26954Y38448D01*
X21198Y36624D02*
X21574Y36248D01*
X20706Y30045D02*
X28292Y37631D01*
X20625Y30683D02*
X27932Y37990D01*
X20423Y32636D02*
X26235Y38448D01*
X20502Y37180D02*
X25998Y31683D01*
X20179Y30956D02*
X27573Y38349D01*
X20420Y36543D02*
X26043Y30920D01*
X22450Y36373D02*
X22574Y36248D01*
X22326D02*
X22450Y36373D01*
X22152Y36248D02*
X26261Y32139D01*
X22574Y36248D02*
X23326D01*
X19774Y32706D02*
X23317Y36248D01*
X21574D02*
X22326D01*
X19996D02*
X25998Y30246D01*
X20353Y32706D02*
X20706Y32353D01*
Y31647D02*
Y32353D01*
X20126Y36248D02*
X20502Y36624D01*
X19647Y32706D02*
X20353D01*
Y31294D02*
X20706Y31647D01*
X20353Y30956D02*
X20706Y30603D01*
Y29897D02*
Y30603D01*
X19647Y31294D02*
X20353D01*
X19647Y30956D02*
X20353D01*
X19921Y31294D02*
X20260Y30956D01*
X14765Y50101D02*
X25314Y39552D01*
X14283Y49864D02*
X24596Y39552D01*
X17127Y49894D02*
X27469Y39552D01*
X16484Y49818D02*
X26751Y39552D01*
X13564Y49864D02*
X23877Y39552D01*
X12982Y49729D02*
X23159Y39552D01*
X12715Y49277D02*
X22457Y39535D01*
X12356Y48918D02*
X22098Y39175D01*
X19474Y47948D02*
X27871Y39552D01*
X11996Y48559D02*
X21739Y38816D01*
X19073Y37752D02*
X24372Y43051D01*
X19374Y37752D02*
X20126D01*
X10600Y48518D02*
X21448Y37670D01*
X11318Y48518D02*
X21448Y38388D01*
X10863Y37445D02*
X20421Y47002D01*
X19198Y48776D02*
Y49966D01*
X19051Y49818D02*
X19198Y49966D01*
Y48224D02*
Y48776D01*
Y48224D02*
Y48776D01*
X17949Y49818D02*
X19051D01*
X17500Y50268D02*
X17949Y49818D01*
X17486Y50254D02*
X19198Y48541D01*
X18639Y49818D02*
X19198Y49259D01*
Y48224D02*
X19474Y47948D01*
X19198Y48224D02*
X19474Y47948D01*
X19250Y37627D02*
X19374Y37752D01*
X19126D02*
X19250Y37627D01*
X10156Y37456D02*
X20061Y47361D01*
X18374Y37752D02*
X19126D01*
X17998Y37376D02*
X18374Y37752D01*
X11206Y37069D02*
X20780Y46643D01*
X19250Y36373D02*
X19374Y36248D01*
X14490Y33887D02*
X24013Y43410D01*
X13886Y34002D02*
X23653Y43769D01*
X8326Y32752D02*
X21498Y45924D01*
X7811Y32956D02*
X21139Y46284D01*
X8476Y32184D02*
X21857Y45565D01*
X502Y49996D02*
X19594Y30903D01*
X19374Y36248D02*
X20126D01*
X19294Y31647D02*
X19647Y31294D01*
X14706Y31229D02*
X19725Y36248D01*
X19294Y32353D02*
X19647Y32706D01*
X19294Y30603D02*
X19647Y30956D01*
X14752Y33431D02*
X17998Y36677D01*
Y36624D02*
Y37376D01*
X502Y49277D02*
X19294Y30485D01*
X502Y29957D02*
X19198Y48654D01*
X502Y32112D02*
X18208Y49818D01*
X502Y32831D02*
X17719Y50048D01*
X502Y30675D02*
X19198Y49372D01*
X502Y31394D02*
X18926Y49818D01*
X19126Y36248D02*
X19250Y36373D01*
X18374Y36248D02*
X19126D01*
X19294Y31647D02*
Y32353D01*
X19294Y29897D02*
Y30603D01*
X17998Y36624D02*
X18374Y36248D01*
X14245Y32206D02*
X18331Y36292D01*
X14658Y31900D02*
X19006Y36248D01*
X7902Y61065D02*
X13335Y66498D01*
X7902Y61783D02*
X12617Y66498D01*
X7902Y63430D02*
X16690Y54642D01*
X7902Y61993D02*
X11593Y58302D01*
X7902Y63938D02*
X10462Y66498D01*
X7674Y64429D02*
X9743Y66498D01*
X7902Y62502D02*
X11898Y66498D01*
X7902Y63220D02*
X11180Y66498D01*
X9904Y58302D02*
X11956D01*
X8878Y57276D02*
X9904Y58302D01*
X12982Y55224D02*
Y57276D01*
X11956Y58302D02*
X12982Y57276D01*
X7902Y61275D02*
X10875Y58302D01*
X7780Y60678D02*
X10156Y58302D01*
X7421Y60319D02*
X9671Y58068D01*
X7062Y59959D02*
X9312Y57709D01*
X6596Y65506D02*
X7588Y66498D01*
X6237Y65866D02*
X6869Y66498D01*
X7314Y64788D02*
X9025Y66498D01*
X6955Y65147D02*
X8306Y66498D01*
X5554Y65902D02*
X6151Y66498D01*
X5552D02*
X6148Y65902D01*
X7902Y64148D01*
X6201Y65902D02*
X7902Y64201D01*
X6702Y59600D02*
X8953Y57350D01*
X7902Y60799D02*
Y64201D01*
X8878Y55224D02*
Y57276D01*
X6343Y59241D02*
X8878Y56706D01*
X6201Y59098D02*
X7902Y60799D01*
X5935Y59098D02*
X7902Y61065D01*
X5767Y59098D02*
X8878Y55987D01*
X15949Y54642D02*
X17051D01*
X13472Y54596D02*
X14528D01*
X15398Y54091D02*
X15949Y54642D01*
X14528Y54596D02*
X15056Y54068D01*
X7902Y62711D02*
X15971Y54642D01*
X12982Y55476D02*
X13862Y54596D01*
X12982Y56913D02*
X15601Y54294D01*
X12982Y56195D02*
X15398Y53778D01*
X15056Y53402D02*
X15398Y53059D01*
X15056Y53132D02*
X15398Y53475D01*
Y52989D02*
Y54091D01*
X15056Y53012D02*
Y54068D01*
X11386Y54198D02*
X13609Y51976D01*
X12748Y54991D02*
X13308Y54431D01*
X12389Y54632D02*
X12949Y54072D01*
X12944Y54068D02*
X13472Y54596D01*
X12030Y54273D02*
X12944Y53358D01*
X8878Y55269D02*
X9949Y54198D01*
X8878Y55224D02*
X9904Y54198D01*
X11956D02*
X12982Y55224D01*
X11812Y54198D02*
X12982Y55368D01*
X11672Y52622D02*
X12944Y53894D01*
Y53012D02*
Y54068D01*
X10667Y54198D02*
X13181Y51685D01*
X12173Y52404D02*
X12944Y53176D01*
X9904Y54198D02*
X11956D01*
X9949D02*
X11526Y52622D01*
X10235D02*
X11812Y54198D01*
X4117Y65902D02*
X4714Y66498D01*
X4132Y66481D02*
X4711Y65902D01*
X4836D02*
X5433Y66498D01*
X4833D02*
X5430Y65902D01*
X3399D02*
X3959Y66462D01*
X2979Y66198D02*
X3275Y65902D01*
X3519Y66376D02*
X3993Y65902D01*
X2799D02*
X6201D01*
X2497Y65961D02*
X2678Y65780D01*
X2799Y59098D02*
X6201D01*
X2067Y65673D02*
X2319Y65421D01*
X804Y64025D02*
X2975Y66196D01*
X1098Y64201D02*
X2799Y65902D01*
X1098Y60894D02*
X2894Y59098D01*
X1683Y65338D02*
X1959Y65062D01*
X1346Y64957D02*
X1600Y64702D01*
X1055Y64529D02*
X1241Y64343D01*
X1098Y60799D02*
Y64201D01*
X633Y63515D02*
X1098Y63049D01*
X815Y64051D02*
X1098Y63767D01*
X522Y62907D02*
X1098Y62330D01*
X538Y63041D02*
X1098Y63601D01*
X502Y60849D02*
X1098Y61446D01*
X502Y61490D02*
X1098Y60894D01*
X502Y59412D02*
X1494Y60404D01*
X502Y60131D02*
X1134Y60763D01*
X502Y62209D02*
X1098Y61612D01*
X502Y62286D02*
X1098Y62883D01*
X502Y61567D02*
X1098Y62164D01*
X2894Y59098D02*
X9637Y52355D01*
X502Y60772D02*
X9278Y51995D01*
X502Y50073D02*
X16927Y66498D01*
X502Y60054D02*
X8919Y51636D01*
X502Y52228D02*
X14772Y66498D01*
X502Y52946D02*
X14054Y66498D01*
X502Y50791D02*
X16209Y66498D01*
X502Y51510D02*
X15490Y66498D01*
X4330Y59098D02*
X10807Y52622D01*
X3612Y59098D02*
X10089Y52622D01*
X502Y43607D02*
X11093Y54198D01*
X502Y44325D02*
X10375Y54198D01*
X502Y45762D02*
X9421Y54682D01*
X502Y46481D02*
X9062Y55041D01*
X502Y45044D02*
X9780Y54322D01*
X502Y56538D02*
X3062Y59098D01*
X1098Y60799D02*
X2799Y59098D01*
X502Y55102D02*
X4498Y59098D01*
X502Y55820D02*
X3780Y59098D01*
X502Y57975D02*
X2212Y59686D01*
X502Y58694D02*
X1853Y60045D01*
X502Y59335D02*
X8878Y50958D01*
X502Y57257D02*
X2571Y59326D01*
X502Y48636D02*
X8878Y57013D01*
X5049Y59098D02*
X8878Y55269D01*
X502Y47199D02*
X8878Y55576D01*
X502Y47917D02*
X8878Y56294D01*
X502Y53665D02*
X5935Y59098D01*
X502Y54383D02*
X5217Y59098D01*
X502Y58617D02*
X8878Y50240D01*
X15398Y53059D02*
X16019Y52438D01*
X15398Y52989D02*
X15949Y52438D01*
X16101Y52022D02*
X16517Y52438D01*
X16019D02*
X16436Y52022D01*
X14891Y52848D02*
X15833Y51906D01*
X14573Y51931D02*
X15515Y52873D01*
X14932Y51571D02*
X15874Y52514D01*
X14532Y52489D02*
X15474Y51547D01*
X15949Y52022D02*
X17051D01*
X15949Y52438D02*
X17051D01*
X15398Y51471D02*
X15949Y52022D01*
X15398Y50369D02*
Y51471D01*
X15056Y50977D02*
X15398Y51319D01*
X14528Y51976D02*
X15056Y51448D01*
Y51247D02*
X15398Y50904D01*
X15056Y50392D02*
Y51448D01*
X14528Y52484D02*
X15056Y53012D01*
X13899Y51976D02*
X14408Y52484D01*
X13818D02*
X14327Y51976D01*
X12944Y53012D02*
X13472Y52484D01*
X14528D01*
X12891Y51686D02*
X13690Y52484D01*
X13472Y51976D02*
X14528D01*
X12982Y51485D02*
X13472Y51976D01*
X12982Y51485D02*
Y51596D01*
X15398Y50369D02*
X15949Y49818D01*
X14528Y49864D02*
X15056Y50392D01*
X15949Y49818D02*
X17051D01*
X14752Y32874D02*
Y33626D01*
X13472Y49864D02*
X14528D01*
X13624Y34002D02*
X14376D01*
X14340D02*
X14752Y33590D01*
X14376Y34002D02*
X14752Y33626D01*
X14376Y32498D02*
X14752Y32874D01*
X14353Y32206D02*
X14706Y31853D01*
X14353Y30794D02*
X14706Y31147D01*
Y31853D01*
X13624Y32498D02*
X14376D01*
X13248Y32938D02*
X13688Y32498D01*
X13248Y32874D02*
Y33626D01*
X13688Y32498D02*
X13981Y32206D01*
X13248Y32874D02*
X13624Y32498D01*
X12982Y50355D02*
X13472Y49864D01*
X12982Y49621D02*
X13349Y49988D01*
X13248Y33626D02*
X13624Y34002D01*
X12982Y49544D02*
Y50355D01*
X13647Y32206D02*
X14353D01*
X13647Y30794D02*
X14353D01*
X13294Y31853D02*
X13647Y32206D01*
X13294Y31147D02*
Y31853D01*
Y31147D02*
X13647Y30794D01*
X12532Y52045D02*
X13222Y52735D01*
X11956Y52622D02*
X12982Y51596D01*
X11956Y48518D02*
X12982Y49544D01*
X11879Y48518D02*
X12982Y49621D01*
X9904Y52622D02*
X11956D01*
X502Y38578D02*
X10442Y48518D01*
X502Y36423D02*
X13943Y49864D01*
X502Y37860D02*
X11160Y48518D01*
X10853Y37456D02*
X11206Y37103D01*
X10147Y37456D02*
X10853D01*
X11206Y36397D02*
Y37103D01*
X9904Y48518D02*
X11956D01*
X502Y37141D02*
X11879Y48518D01*
X8878Y51596D02*
X9904Y52622D01*
X8878Y49544D02*
Y51596D01*
Y49544D02*
X9904Y48518D01*
X502Y40015D02*
X9455Y48968D01*
X502Y42170D02*
X8878Y50547D01*
X502Y42888D02*
X8878Y51265D01*
X502Y40733D02*
X9095Y49327D01*
X502Y41452D02*
X8878Y49828D01*
X9794Y37094D02*
X10156Y37456D01*
X9794Y37103D02*
X10147Y37456D01*
X9794Y36397D02*
Y37103D01*
X502Y47122D02*
X10168Y37456D01*
X502Y39296D02*
X9814Y48609D01*
X502Y46404D02*
X9798Y37107D01*
X502Y47840D02*
X14340Y34002D01*
X502Y45685D02*
X13248Y32938D01*
X502Y44967D02*
X13455Y32013D01*
X502Y44248D02*
X13294Y31456D01*
X502Y34986D02*
X15642Y50126D01*
X502Y35704D02*
X15398Y50601D01*
X502Y33549D02*
X16771Y49818D01*
X502Y34267D02*
X16053Y49818D01*
X10853Y36044D02*
X11206Y36397D01*
Y36418D02*
X13623Y34001D01*
X10857Y36048D02*
X13264Y33641D01*
X10147Y36044D02*
X10853D01*
X9794Y36397D02*
X10147Y36044D01*
X8123Y31544D02*
X8476Y31897D01*
X8123Y32956D02*
X8476Y32603D01*
X7417Y32956D02*
X8123D01*
X502Y39938D02*
X7484Y32956D01*
X502Y39219D02*
X7091Y32630D01*
X7064Y32603D02*
X7417Y32956D01*
X502Y38501D02*
X7064Y31938D01*
X8476Y31897D02*
Y32603D01*
X7417Y31544D02*
X8123D01*
X7064Y31938D02*
X7458Y31544D01*
X7064Y31897D02*
Y32603D01*
Y31897D02*
X7417Y31544D01*
X20706Y28608D02*
X28698Y36601D01*
X20469Y29090D02*
X28651Y37272D01*
X22782Y24937D02*
X27527Y29683D01*
X20706Y28147D02*
Y28853D01*
X16286Y22752D02*
X28698Y35164D01*
X20353Y27794D02*
X20706Y28147D01*
X17723Y22752D02*
X26047Y31076D01*
X17004Y22752D02*
X25998Y31746D01*
X22416Y24937D02*
X23122D01*
X22416Y23526D02*
X23122D01*
X19829Y27794D02*
X22687Y24937D01*
X22063Y24584D02*
X22416Y24937D01*
X22063Y23878D02*
X22416Y23526D01*
X22063Y23878D02*
Y24584D01*
X20353Y29544D02*
X20706Y29897D01*
X20353Y29206D02*
X20706Y28853D01*
X19866Y29206D02*
X20205Y29544D01*
X19647D02*
X20353D01*
X19294Y29897D02*
X19647Y29544D01*
X19647Y29206D02*
X20353D01*
X19294Y28853D02*
X19647Y29206D01*
Y27794D02*
X20353D01*
X19294Y28147D02*
Y28853D01*
Y28147D02*
X19647Y27794D01*
X20496Y31438D02*
X38229Y13706D01*
X20706Y30510D02*
X37704Y13512D01*
X20706Y31947D02*
X46598Y6054D01*
X20653Y29845D02*
X37544Y12953D01*
X18559Y36248D02*
X43526Y11282D01*
X19202Y36324D02*
X43498Y12028D01*
X19181Y502D02*
X53998Y35319D01*
X20234Y29544D02*
X46598Y3181D01*
X20128Y21748D02*
X35725Y6152D01*
X22340Y15156D02*
X32435Y25251D01*
X20706Y28355D02*
X48559Y502D01*
X20450Y27892D02*
X47840Y502D01*
X19409Y21748D02*
X35006Y6152D01*
X18691Y21748D02*
X34481Y5958D01*
X18462Y502D02*
X42755Y24794D01*
X22752Y22752D02*
X28605Y28605D01*
X22752Y22752D02*
X28605Y28605D01*
X21134Y14668D02*
X31838Y25372D01*
X20775Y15028D02*
X31479Y25731D01*
X19159Y22752D02*
X26265Y29857D01*
X18441Y22752D02*
X25998Y30309D01*
X19878Y22752D02*
X26875Y29748D01*
X20596Y22752D02*
X22063Y24218D01*
X22033Y22752D02*
X22807Y23526D01*
X21315Y22752D02*
X22252Y23689D01*
X21565Y21748D02*
X23544Y19769D01*
X22661Y23526D02*
X23435Y22752D01*
X17973Y21748D02*
X26279Y13442D01*
X15920Y15202D02*
X22467Y21748D01*
X20846D02*
X31544Y11050D01*
X5852Y26686D02*
X23294Y44128D01*
X5403Y26956D02*
X22935Y44488D01*
X10970Y25338D02*
X21880Y36248D01*
X10369Y25456D02*
X21368Y36455D01*
X502Y48559D02*
X19855Y29206D01*
X502Y28520D02*
X19702Y47721D01*
X502Y22773D02*
X22576Y44847D01*
X502Y23491D02*
X22217Y45206D01*
X14391Y32514D02*
X22192Y24713D01*
X14706Y26200D02*
X19800Y31294D01*
X14706Y31481D02*
X22063Y24124D01*
X14131Y22752D02*
X19410Y28031D01*
X11501Y22752D02*
X23624D01*
X11206Y24856D02*
X22598Y36248D01*
X13956Y30794D02*
X21998Y22752D01*
X12694D02*
X19567Y29625D01*
X14752Y33590D02*
X19392Y28950D01*
X14751Y32873D02*
X19294Y28329D01*
X14548Y26761D02*
X19364Y31577D01*
X14024Y26956D02*
X19294Y32226D01*
X502Y29238D02*
X19343Y48080D01*
X7458Y31544D02*
X16251Y22752D01*
X13412D02*
X19294Y28634D01*
X11975Y22752D02*
X19294Y30071D01*
X14706Y25897D02*
Y26603D01*
X14353Y26956D02*
X14706Y26603D01*
X14353Y25544D02*
X14706Y25897D01*
X13647Y26956D02*
X14353D01*
X13647Y25544D02*
X14353D01*
X15567Y22752D02*
X28698Y35883D01*
X14513Y30955D02*
X22717Y22752D01*
X11278Y502D02*
X36027Y25251D01*
X5796Y21602D02*
X21198Y37004D01*
X502Y43530D02*
X21280Y22752D01*
X502Y42812D02*
X20562Y22752D01*
X502Y53588D02*
X47244Y6846D01*
X502Y52869D02*
X46884Y6487D01*
X15202Y15202D02*
X21748Y21748D01*
X13662D02*
X20209Y15202D01*
X15099Y21748D02*
X21807Y15040D01*
X14381Y21748D02*
X21448Y14681D01*
X11501Y21748D02*
X23624D01*
X12005Y13442D02*
X20312Y21748D01*
X12723Y13442D02*
X21030Y21748D01*
X14624Y25816D02*
X17688Y22752D01*
X14177Y25544D02*
X16969Y22752D01*
X14849D02*
X19892Y27794D01*
X14706Y26452D02*
X18406Y22752D01*
X502Y42093D02*
X19843Y22752D01*
X502Y41375D02*
X19125Y22752D01*
X502Y37783D02*
X15533Y22752D01*
X502Y37064D02*
X14814Y22752D01*
X12944Y21748D02*
X19490Y15202D01*
X11507Y21748D02*
X18054Y15202D01*
X7556Y9711D02*
X19593Y21748D01*
X12225D02*
X19086Y14888D01*
X7371Y10963D02*
X18156Y21748D01*
X5808Y11556D02*
X16001Y21748D01*
X7556Y10429D02*
X18875Y21748D01*
X22283D02*
X23737Y20295D01*
X18075Y15202D02*
X23498Y20625D01*
X17254Y21748D02*
X25561Y13442D01*
X16702Y14546D02*
X23498Y21343D01*
X15817Y21748D02*
X22410Y15156D01*
X15202Y15202D02*
X21748Y21748D01*
X16536D02*
X24843Y13442D01*
X16370Y14933D02*
X23185Y21748D01*
X21922Y15156D02*
X23078D01*
X21344Y13422D02*
Y14578D01*
X20231Y15202D02*
X24073Y19044D01*
X19512Y15202D02*
X23626Y19316D01*
X18697Y15105D02*
X23544Y19952D01*
X21344Y14578D02*
X21922Y15156D01*
X19399Y15202D02*
X20601D01*
X18601D02*
X19000Y14802D01*
X20601Y15202D02*
X21202Y14601D01*
X19000Y14802D02*
X19399Y15202D01*
X17399D02*
X18601D01*
X16101D02*
X16702Y14601D01*
X16798D02*
X17399Y15202D01*
X16702Y13399D02*
Y14601D01*
X21202Y14017D02*
X21344Y14160D01*
X21202Y14209D02*
X21344Y14066D01*
X21202Y13399D02*
Y14601D01*
X16798Y13399D02*
Y14601D01*
X16702Y13828D02*
X16798Y13925D01*
X16702Y14398D02*
X16798Y14302D01*
X16702Y13680D02*
X16798Y13583D01*
X18810Y13008D02*
X31317Y502D01*
X18302Y12798D02*
X30598Y502D01*
X20457Y12798D02*
X32754Y502D01*
X19738Y12798D02*
X32035Y502D01*
X16124Y12821D02*
X28443Y502D01*
X15428Y12798D02*
X27725Y502D01*
X17583Y12798D02*
X29880Y502D01*
X16483Y13180D02*
X29162Y502D01*
X20617D02*
X31744Y11628D01*
X21336Y502D02*
X31544Y10710D01*
X22773Y502D02*
X32315Y10044D01*
X22054Y502D02*
X31747Y10194D01*
X17744Y502D02*
X26381Y9138D01*
X17025Y502D02*
X25662Y9138D01*
X19899Y502D02*
X31498Y12101D01*
X21344Y13422D02*
X21922Y12844D01*
X20601Y12798D02*
X21202Y13399D01*
X20888Y13086D02*
X23418Y10555D01*
X21202Y13490D02*
X23418Y11274D01*
X16798Y13399D02*
X17399Y12798D01*
X16101D02*
X16702Y13399D01*
X19000Y13198D02*
X19399Y12798D01*
X18601D02*
X19000Y13198D01*
X21922Y12844D02*
X23078D01*
X17399Y12798D02*
X18601D01*
X22566Y12844D02*
X23418Y11992D01*
X19399Y12798D02*
X20601D01*
X15588Y502D02*
X24360Y9273D01*
X14899Y12798D02*
X16101D01*
X16307Y502D02*
X24944Y9138D01*
X14899Y15202D02*
X16101D01*
X10426Y20674D02*
X15898Y15202D01*
X11145Y21392D02*
X17367Y15170D01*
X10785Y21033D02*
X17008Y14810D01*
X6527Y11556D02*
X16719Y21748D01*
X10067Y20315D02*
X15180Y15202D01*
X7011Y11322D02*
X17438Y21748D01*
X502Y6967D02*
X15283Y21748D01*
X14582Y11708D02*
X15672Y12798D01*
X14551Y12396D02*
X14954Y12798D01*
X14582Y10271D02*
X17254Y12944D01*
X14582Y10990D02*
X16895Y13303D01*
X7902Y2873D02*
X17827Y12798D01*
X14298Y13399D02*
X14899Y12798D01*
X6863Y13461D02*
X19822Y502D01*
X14298Y14601D02*
X14899Y15202D01*
X13442Y13442D02*
X14298Y14298D01*
Y13399D02*
Y14601D01*
X13442Y13442D02*
X14298Y14298D01*
X9708Y19955D02*
X14680Y14983D01*
X7602Y14786D02*
X14564Y21748D01*
X9349Y19596D02*
X14321Y14624D01*
X8728Y19498D02*
X14298Y13928D01*
X14192Y12755D02*
X14567Y13130D01*
X13833Y13114D02*
X14298Y13580D01*
X13506Y9138D02*
X14582Y10214D01*
Y12366D01*
X13348Y13442D02*
X14582Y12208D01*
X13506Y13442D02*
X14582Y12366D01*
X13449Y9138D02*
X14582Y10271D01*
Y12208D02*
X26288Y502D01*
X12715D02*
X23418Y11205D01*
X14582Y11489D02*
X25569Y502D01*
X14582Y10771D02*
X24851Y502D01*
X8009Y19498D02*
X27006Y502D01*
X9841D02*
X22184Y12844D01*
X11996Y502D02*
X23418Y11924D01*
X10559Y502D02*
X22902Y12844D01*
X14152Y502D02*
X23641Y9991D01*
X14142Y9774D02*
X23414Y502D01*
X14501Y10133D02*
X24133Y502D01*
X14870D02*
X24001Y9632D01*
X4500Y502D02*
X50000D01*
X13433D02*
X23418Y10487D01*
X13782Y9415D02*
X22696Y502D01*
X7686D02*
X19983Y12798D01*
X7556Y10613D02*
X17667Y502D01*
X9123D02*
X21694Y13073D01*
X8404Y502D02*
X21344Y13442D01*
X6207Y13398D02*
X19104Y502D01*
X5488Y13398D02*
X18385Y502D01*
X6967D02*
X19332Y12866D01*
X6249Y502D02*
X18546Y12798D01*
X11904Y9138D02*
X20540Y502D01*
X7556Y9894D02*
X16948Y502D01*
X13341Y9138D02*
X21977Y502D01*
X12622Y9138D02*
X21259Y502D01*
X7173Y8840D02*
X15512Y502D01*
X6814Y8481D02*
X14793Y502D01*
X7532Y9199D02*
X16230Y502D01*
X13294Y25897D02*
Y26603D01*
Y25897D02*
X13647Y25544D01*
X13294Y26603D02*
X13647Y26956D01*
X8476Y31964D02*
X13566Y26874D01*
X8150Y31571D02*
X13294Y26427D01*
X5936Y26051D02*
X13248Y33364D01*
X11109Y24301D02*
X12659Y22752D01*
X11206Y24397D02*
Y25103D01*
X11257Y22752D02*
X14050Y25544D01*
X11206Y24923D02*
X13377Y22752D01*
X10648Y24044D02*
X11940Y22752D01*
X10853Y24044D02*
X11206Y24397D01*
X10999Y22752D02*
X11501D01*
X10999D02*
X11501D01*
X10147Y25456D02*
X10853D01*
X9794Y25103D02*
X10147Y25456D01*
X10853D02*
X11206Y25103D01*
X5581Y26956D02*
X5936Y26601D01*
X5583Y26956D02*
X5936Y26603D01*
X5583Y25544D02*
X5936Y25897D01*
Y26603D01*
X10748Y22501D02*
X10999Y22752D01*
X10147Y24044D02*
X10853D01*
X9794Y24397D02*
Y25103D01*
Y24397D02*
X10147Y24044D01*
X8288Y20502D02*
X13489Y25702D01*
X10748Y22501D02*
X10999Y22752D01*
X9502Y19749D02*
X11501Y21748D01*
X8749Y20502D02*
X10748Y22501D01*
X7376Y21026D02*
X10394Y24044D01*
X5936Y26601D02*
X10392Y22145D01*
X7602Y20533D02*
X13294Y26226D01*
X6544Y16602D02*
X11691Y21748D01*
X7602Y15504D02*
X13846Y21748D01*
X7391Y16012D02*
X13127Y21748D01*
X7596Y19194D02*
X13348Y13442D01*
X7237Y18834D02*
X12629Y13442D01*
X7031Y16371D02*
X12409Y21748D01*
X6878Y18475D02*
X11911Y13442D01*
X6236Y18398D02*
X11273Y13361D01*
X7602Y20625D02*
X7725Y20502D01*
X7602D02*
Y20801D01*
X9251Y19498D02*
X9502Y19749D01*
X7602Y20502D02*
X8749D01*
X5928Y25890D02*
X10033Y21785D01*
X6515Y21602D02*
X9794Y24881D01*
X7017Y21385D02*
X9912Y24280D01*
X6801Y21602D02*
X7602Y20801D01*
X8749Y19498D02*
X9251D01*
X7602D02*
X8749D01*
X9251D02*
X9502Y19749D01*
X8749Y19498D02*
X9251D01*
X6801Y18398D02*
X7602Y19199D01*
Y19498D01*
X5825Y16602D02*
X8722Y19498D01*
X502Y35627D02*
X10673Y25456D01*
X502Y26365D02*
X10181Y36044D01*
X502Y34909D02*
X10051Y25359D01*
X502Y34190D02*
X9794Y24898D01*
X502Y27083D02*
X9805Y36387D01*
X502Y27802D02*
X9794Y37094D01*
X502Y40656D02*
X14202Y26956D01*
X502Y36346D02*
X14096Y22752D01*
X502Y24209D02*
X7836Y31544D01*
X502Y24928D02*
X7268Y31694D01*
X5199Y21602D02*
X6801D01*
X502Y27725D02*
X6625Y21602D01*
X502Y33472D02*
X11222Y22752D01*
X502Y25646D02*
X7064Y32209D01*
X502Y32754D02*
X10751Y22504D01*
X4877Y26956D02*
X5583D01*
X4524Y26603D02*
X4877Y26956D01*
X502Y32035D02*
X5581Y26956D01*
X502Y31317D02*
X4870Y26948D01*
X502Y27006D02*
X5906Y21602D01*
X502Y30598D02*
X4524Y26575D01*
X4877Y25544D02*
X5583D01*
X4524Y25897D02*
X4877Y25544D01*
X502Y22054D02*
X4524Y26077D01*
Y25897D02*
Y26603D01*
X502Y26288D02*
X5194Y21596D01*
X502Y29880D02*
X9315Y21067D01*
X502Y29162D02*
X8955Y20708D01*
X502Y17025D02*
X14271Y30794D01*
X502Y28443D02*
X8443Y20502D01*
X502Y19181D02*
X13819Y32498D01*
X502Y19899D02*
X13363Y32760D01*
X502Y17744D02*
X13600Y30842D01*
X502Y18462D02*
X13294Y31255D01*
X5556Y25544D02*
X9674Y21426D01*
X4398Y20801D02*
X5199Y21602D01*
X502Y11996D02*
X8004Y19498D01*
X4398Y19199D02*
X5199Y18398D01*
X502Y22696D02*
X6596Y16602D01*
X502Y20617D02*
X5429Y25544D01*
X502Y21977D02*
X5877Y16602D01*
X502Y23414D02*
X4398Y19517D01*
X502Y24133D02*
X4398Y20236D01*
X502Y21259D02*
X5179Y16581D01*
X4398Y19199D02*
Y20801D01*
X502Y25569D02*
X4834Y21237D01*
X502Y21336D02*
X4794Y25628D01*
X502Y24851D02*
X4475Y20878D01*
X502Y4500D02*
Y62500D01*
Y19104D02*
X4398Y15207D01*
X502Y15588D02*
X4398Y19485D01*
X502Y14152D02*
X4974Y18624D01*
X502Y14870D02*
X4615Y18983D01*
X502Y20540D02*
X4820Y16222D01*
X502Y16307D02*
X4398Y20204D01*
X502Y19822D02*
X4461Y15863D01*
X7602Y15596D02*
X10555Y12642D01*
X7602Y14199D02*
Y15801D01*
X7581Y14179D02*
X10278Y11482D01*
X7602Y14877D02*
X10278Y12201D01*
X6801Y13398D02*
X7602Y14199D01*
X6801Y16602D02*
X7602Y15801D01*
X5517Y18398D02*
X10914Y13002D01*
X7222Y13820D02*
X10278Y10764D01*
X11354Y13442D02*
X13506D01*
X10278Y10214D02*
Y12366D01*
X11354Y9138D02*
X13506D01*
X10278Y10214D02*
X11354Y9138D01*
X10278Y12366D02*
X11354Y13442D01*
X6778Y11556D02*
X7556Y10778D01*
X6778Y8444D02*
X7556Y9222D01*
Y10778D01*
X5199Y13398D02*
X6801D01*
X5199Y16602D02*
X6801D01*
X5222Y11556D02*
X6778D01*
X5199Y18398D02*
X6801D01*
X4444Y10778D02*
X5222Y11556D01*
X4444Y9222D02*
Y10778D01*
X5222Y8444D02*
X6778D01*
X5746Y7902D02*
X6289Y8444D01*
X5413D02*
X5956Y7902D01*
X4444Y9222D02*
X5222Y8444D01*
X5028Y7902D02*
X5571Y8444D01*
X7902Y5746D02*
X11324Y9169D01*
X7770Y6333D02*
X10965Y9528D01*
X7902Y4310D02*
X12731Y9138D01*
X7902Y5028D02*
X12012Y9138D01*
X7051Y7051D02*
X10278Y10278D01*
X6692Y7410D02*
X10278Y10997D01*
X7410Y6692D02*
X10606Y9887D01*
X7051Y7051D02*
X10278Y10278D01*
X7902Y5238D02*
X12638Y502D01*
X7902Y4519D02*
X11919Y502D01*
X7902Y3801D02*
X11201Y502D01*
X7902Y3083D02*
X10483Y502D01*
X6132Y8444D02*
X14075Y502D01*
X7902Y3591D02*
X13449Y9138D01*
X7902Y5956D02*
X13356Y502D01*
X6333Y7770D02*
X10278Y11715D01*
X7902Y2799D02*
Y6201D01*
X7684Y2582D02*
X9764Y502D01*
X7325Y2222D02*
X9046Y502D01*
X5956Y7902D02*
X7902Y5956D01*
X6201Y7902D02*
X7902Y6201D01*
X6201Y1098D02*
X7902Y2799D01*
X6127Y1098D02*
X7902Y2873D01*
X6247Y1145D02*
X6890Y502D01*
X5575Y1098D02*
X6172Y502D01*
X6966Y1863D02*
X8327Y502D01*
X6606Y1504D02*
X7609Y502D01*
X4857Y1098D02*
X5454Y502D01*
X4812D02*
X5409Y1098D01*
X5531Y502D02*
X6127Y1098D01*
X4398Y14199D02*
X5199Y13398D01*
X4398Y15801D02*
X5199Y16602D01*
X502Y16230D02*
X5199Y11532D01*
X502Y15512D02*
X4840Y11173D01*
X502Y12715D02*
X6185Y18398D01*
X502Y13433D02*
X5467Y18398D01*
X502Y17667D02*
X6613Y11556D01*
X502Y16948D02*
X5894Y11556D01*
X2799Y7902D02*
X6201D01*
X502Y12638D02*
X5238Y7902D01*
X4310D02*
X5037Y8629D01*
X3591Y7902D02*
X4678Y8989D01*
X502Y8404D02*
X5496Y13398D01*
X502Y9123D02*
X4988Y13609D01*
X502Y7686D02*
X6214Y13398D01*
X502Y14075D02*
X4444Y10132D01*
X4398Y14199D02*
Y15801D01*
X502Y9841D02*
X4629Y13969D01*
X502Y13356D02*
X4444Y9413D01*
X502Y11278D02*
X4398Y15175D01*
X502Y18385D02*
X4398Y14488D01*
X502Y14793D02*
X4481Y10814D01*
X502Y10559D02*
X4398Y14456D01*
X2873Y7902D02*
X4444Y9473D01*
X502Y9764D02*
X2582Y7684D01*
X502Y9046D02*
X2222Y7325D01*
X502Y8327D02*
X1863Y6966D01*
X502Y11919D02*
X4519Y7902D01*
X502Y11201D02*
X3801Y7902D01*
X502Y10483D02*
X3083Y7902D01*
X1098Y6127D02*
X2873Y7902D01*
X1673Y1673D02*
X1949Y1949D01*
X1098Y2799D02*
X2799Y1098D01*
X2055Y1336D02*
X2308Y1590D01*
X502Y6249D02*
X4444Y10192D01*
X1098Y6201D02*
X2799Y7902D01*
X789Y3011D02*
X3011Y789D01*
X3420Y1098D02*
X3983Y535D01*
X3502Y628D02*
X3972Y1098D01*
X4138D02*
X4735Y502D01*
X4113Y520D02*
X4691Y1098D01*
X2799D02*
X6201D01*
X2484Y1047D02*
X2667Y1230D01*
X2964Y808D02*
X3254Y1098D01*
X502Y4812D02*
X1098Y5409D01*
X502Y5454D02*
X1098Y4857D01*
Y2799D02*
Y6201D01*
X502Y4735D02*
X1098Y4138D01*
X502Y7609D02*
X1504Y6606D01*
X502Y6890D02*
X1145Y6247D01*
X502Y5531D02*
X1098Y6127D01*
X502Y6172D02*
X1098Y5575D01*
X1047Y2484D02*
X1230Y2667D01*
X808Y2964D02*
X1098Y3254D01*
X1673Y1673D02*
X1949Y1949D01*
X1336Y2055D02*
X1590Y2308D01*
X628Y3502D02*
X1098Y3972D01*
X520Y4113D02*
X1098Y4691D01*
X535Y3983D02*
X1098Y3420D01*
D11*
X37184Y25802D02*
X40981Y29600D01*
X32235Y25802D02*
X37184D01*
X27537Y30500D02*
X32235Y25802D01*
X26750Y30500D02*
X27537D01*
X30870Y30880D02*
X31500D01*
X29250Y32500D02*
Y37500D01*
Y32500D02*
X30870Y30880D01*
X38500Y46500D02*
X40500Y48500D01*
X35750Y26900D02*
X38500Y29650D01*
Y46500D01*
X40500Y48500D02*
Y50890D01*
X39250Y52260D02*
X40500Y53510D01*
X39250Y50000D02*
Y52260D01*
X37750Y48500D02*
X39250Y50000D01*
X37750Y30250D02*
Y48500D01*
X35750Y28250D02*
X37750Y30250D01*
X21000Y49000D02*
Y50920D01*
Y49000D02*
X31500Y38500D01*
X35250D01*
X36665Y37085D01*
Y32415D02*
Y37085D01*
X36500Y32250D02*
X36665Y32415D01*
X35750Y32250D02*
X36500D01*
X35750Y33250D02*
Y36000D01*
X34000Y37750D02*
X35750Y36000D01*
X30500Y37750D02*
X34000D01*
X19750Y48500D02*
X30500Y37750D01*
X19750Y48500D02*
Y52290D01*
X21000Y53540D01*
X30710Y29540D02*
X31500D01*
X26750Y31500D02*
X28750D01*
X30710Y29540D01*
X21950Y37000D02*
X22000Y37050D01*
Y38250D01*
X22750Y39000D01*
X27750D01*
X29250Y37500D01*
D22*
X33995Y54005D02*
X34175Y54185D01*
X32825Y52835D02*
X33005Y53015D01*
X33995D02*
X34175Y52835D01*
X32825Y54185D02*
X33005Y54005D01*
X33995Y51385D02*
X34175Y51565D01*
X32825D02*
X33005Y51385D01*
X32825Y50215D02*
X33005Y50395D01*
X33995D02*
X34175Y50215D01*
X42073Y25927D02*
X42253Y25747D01*
X42747D02*
X42927Y25927D01*
X42747Y25253D02*
X42927Y25073D01*
X42073D02*
X42253Y25253D01*
X44747Y16747D02*
X44927Y16927D01*
X44747Y16253D02*
X44927Y16073D01*
X44073Y16927D02*
X44253Y16747D01*
X44073Y16073D02*
X44253Y16253D01*
X48747Y11497D02*
X48927Y11677D01*
X48073D02*
X48253Y11497D01*
X48073Y10823D02*
X48253Y11003D01*
X48747D02*
X48927Y10823D01*
X44479Y10696D02*
X44658Y10517D01*
X44479Y11191D02*
X44658Y11371D01*
X43804Y10517D02*
X43984Y10696D01*
X43804Y11371D02*
X43984Y11191D01*
X41229Y31147D02*
X41408Y31327D01*
X40554D02*
X40734Y31147D01*
X41229Y30653D02*
X41408Y30473D01*
X40554D02*
X40734Y30653D01*
X23016Y24479D02*
X23196Y24658D01*
X23016Y23984D02*
X23196Y23804D01*
X38497Y12753D02*
X38677Y12573D01*
X37823Y13427D02*
X38003Y13247D01*
X38497D02*
X38677Y13427D01*
X37823Y12573D02*
X38003Y12753D01*
X39517Y5563D02*
X39696Y5384D01*
X41464D02*
X41643Y5563D01*
X32497Y10503D02*
X32677Y10323D01*
X32497Y10997D02*
X32677Y11177D01*
X41464Y3616D02*
X41643Y3437D01*
X39517D02*
X39696Y3616D01*
X24497Y19997D02*
X24677Y20177D01*
X24497Y19503D02*
X24677Y19323D01*
X23823Y20177D02*
X24003Y19997D01*
X23823Y19323D02*
X24003Y19503D01*
X23066Y14566D02*
X23245Y14745D01*
X23066Y13434D02*
X23245Y13255D01*
X31823Y11177D02*
X32003Y10997D01*
X31823Y10323D02*
X32003Y10503D01*
X20247Y32247D02*
X20427Y32427D01*
X20247Y31753D02*
X20427Y31573D01*
X19573D02*
X19753Y31753D01*
X19573Y32427D02*
X19753Y32247D01*
X20247Y30498D02*
X20427Y30677D01*
X19573Y29823D02*
X19752Y30003D01*
X19573Y30677D02*
X19752Y30498D01*
X14495Y54035D02*
X14675Y54215D01*
X13325D02*
X13505Y54035D01*
X14495Y53045D02*
X14675Y52865D01*
X13325D02*
X13505Y53045D01*
X14495Y51415D02*
X14675Y51595D01*
X14495Y50425D02*
X14675Y50245D01*
X13325D02*
X13505Y50425D01*
X13325Y51595D02*
X13505Y51415D01*
X14247Y31747D02*
X14427Y31927D01*
X14247Y31253D02*
X14427Y31073D01*
X13573Y31927D02*
X13753Y31747D01*
X13573Y31073D02*
X13753Y31253D01*
X10747Y36997D02*
X10927Y37177D01*
X10073Y36323D02*
X10253Y36503D01*
X10073Y37177D02*
X10253Y36997D01*
X10747Y36503D02*
X10927Y36323D01*
X8018Y32497D02*
X8197Y32677D01*
X7343D02*
X7523Y32497D01*
X7343Y31823D02*
X7523Y32002D01*
X8018D02*
X8197Y31823D01*
X22342Y24658D02*
X22521Y24479D01*
X22342Y23804D02*
X22521Y23984D01*
X20247Y30003D02*
X20427Y29823D01*
X20247Y28747D02*
X20427Y28927D01*
X19573Y28073D02*
X19753Y28253D01*
X20247D02*
X20427Y28073D01*
X19573Y28927D02*
X19753Y28747D01*
X14247Y26003D02*
X14427Y25823D01*
X14247Y26497D02*
X14427Y26677D01*
X21755Y14745D02*
X21934Y14566D01*
X21755Y13255D02*
X21934Y13434D01*
X13573Y26677D02*
X13753Y26497D01*
X13573Y25823D02*
X13753Y26003D01*
X10073Y25177D02*
X10253Y24997D01*
X10747Y24503D02*
X10927Y24323D01*
X10747Y24997D02*
X10927Y25177D01*
X10073Y24323D02*
X10253Y24503D01*
X5478Y26497D02*
X5657Y26677D01*
X4803D02*
X4983Y26497D01*
X5478Y26002D02*
X5657Y25823D01*
X4803D02*
X4983Y26002D01*
X6849Y10849D02*
X7028Y11028D01*
X4972D02*
X5151Y10849D01*
X6849Y9151D02*
X7028Y8972D01*
X4972D02*
X5151Y9151D01*
D24*
X6000Y20000D02*
D03*
Y15000D02*
D03*
Y10000D02*
D03*
D25*
X35500Y4500D02*
D03*
X40580D02*
D03*
D26*
X22500Y14000D02*
D03*
X20000D02*
D03*
X18000D02*
D03*
X15500D02*
D03*
D27*
X12430Y11290D02*
D03*
X25570D02*
D03*
D28*
X21000Y50920D02*
D03*
X18500D02*
D03*
X16500D02*
D03*
X14000D02*
D03*
X21000Y53540D02*
D03*
X18500D02*
D03*
X16500D02*
D03*
X14000D02*
D03*
X40500Y50890D02*
D03*
X38000D02*
D03*
X36000D02*
D03*
X33500D02*
D03*
X40500Y53510D02*
D03*
X38000D02*
D03*
X36000D02*
D03*
X33500D02*
D03*
D29*
X24070Y50570D02*
D03*
X10930D02*
D03*
Y56250D02*
D03*
X24070D02*
D03*
X43570Y50540D02*
D03*
X30430D02*
D03*
Y56220D02*
D03*
X43570D02*
D03*
D30*
X4500Y62500D02*
D03*
X50000D02*
D03*
X4500Y4500D02*
D03*
X50000D02*
D03*
D31*
X24250Y22250D02*
D03*
X10500Y24750D02*
D03*
X22769Y24231D02*
D03*
X20000Y28500D02*
D03*
Y32000D02*
D03*
X20000Y30250D02*
D03*
X48500Y11250D02*
D03*
X44500Y16500D02*
D03*
X24250Y19750D02*
D03*
Y21000D02*
D03*
X44250Y12250D02*
D03*
X32250D02*
D03*
X38250Y13000D02*
D03*
X44231Y10944D02*
D03*
X32250Y10750D02*
D03*
X14000Y26250D02*
D03*
Y31500D02*
D03*
Y33250D02*
D03*
X10500Y36750D02*
D03*
X7770Y32250D02*
D03*
X5230Y26250D02*
D03*
X42500Y25500D02*
D03*
Y27000D02*
D03*
X35750Y32250D02*
D03*
Y26900D02*
D03*
Y28250D02*
D03*
Y33250D02*
D03*
X31500Y34750D02*
D03*
X40981Y34700D02*
D03*
Y32100D02*
D03*
Y33400D02*
D03*
Y29600D02*
D03*
Y30900D02*
D03*
X31500Y30880D02*
D03*
Y29540D02*
D03*
X26750Y31500D02*
D03*
Y30500D02*
D03*
X21950Y37000D02*
D03*
X22950D02*
D03*
X19750D02*
D03*
X18750D02*
D03*
D33*
X9000Y20000D02*
X11250Y22250D01*
X24250D01*
X6000Y20000D02*
X9000D01*
%TF.MD5,9be7cf5fd1fda05addfc0ec749231da4*%
M02*
