%TF.GenerationSoftware,Altium Limited,Altium Designer,25.2.1 (25)*%
G04 Layer_Color=2752767*
%FSLAX43Y43*%
%MOMM*%
%TF.SameCoordinates,20204492-5425-4C88-903B-EF9DED91A393*%
%TF.FilePolarity,Positive*%
%TF.FileFunction,Drawing*%
%TF.Part,Single*%
G01*
G75*
%TA.AperFunction,NonConductor*%
%ADD56C,0.127*%
%ADD66C,0.169*%
D56*
X5492Y19492D02*
X5746Y20000D01*
X5492Y20508D01*
X6000Y20254D01*
X6508Y20508D01*
X6254Y20000D01*
X6508Y19492D01*
X6000Y19746D01*
X5492Y19492D01*
Y14492D02*
X5746Y15000D01*
X5492Y15508D01*
X6000Y15254D01*
X6508Y15508D01*
X6254Y15000D01*
X6508Y14492D01*
X6000Y14746D01*
X5492Y14492D01*
Y9492D02*
X5746Y10000D01*
X5492Y10508D01*
X6000Y10254D01*
X6508Y10508D01*
X6254Y10000D01*
X6508Y9492D01*
X6000Y9746D01*
X5492Y9492D01*
X35500Y3992D02*
X35754Y4246D01*
X36008D01*
X35754Y4500D01*
X36008Y4754D01*
X35754D01*
X35500Y5008D01*
X35246Y4754D01*
X34992D01*
X35246Y4500D01*
X34992Y4246D01*
X35246D01*
X35500Y3992D01*
X40580D02*
X40834Y4246D01*
X41088D01*
X40834Y4500D01*
X41088Y4754D01*
X40834D01*
X40580Y5008D01*
X40326Y4754D01*
X40072D01*
X40326Y4500D01*
X40072Y4246D01*
X40326D01*
X40580Y3992D01*
X21992Y13492D02*
Y14508D01*
X23008D01*
Y13492D01*
X21992D01*
X19492D02*
Y14508D01*
X20508D01*
Y13492D01*
X19492D01*
X17492D02*
Y14508D01*
X18508D01*
Y13492D01*
X17492D01*
X14992D02*
Y14508D01*
X16008D01*
Y13492D01*
X14992D01*
X20492Y50412D02*
Y51428D01*
X21508D01*
Y50412D01*
X20492D01*
X17992D02*
Y51428D01*
X19008D01*
Y50412D01*
X17992D01*
X15992D02*
Y51428D01*
X17008D01*
Y50412D01*
X15992D01*
X13492D02*
Y51428D01*
X14508D01*
Y50412D01*
X13492D01*
X20492Y53032D02*
Y54048D01*
X21508D01*
Y53032D01*
X20492D01*
X17992D02*
Y54048D01*
X19008D01*
Y53032D01*
X17992D01*
X15992D02*
Y54048D01*
X17008D01*
Y53032D01*
X15992D01*
X13492D02*
Y54048D01*
X14508D01*
Y53032D01*
X13492D01*
X39992Y50382D02*
Y51398D01*
X41008D01*
Y50382D01*
X39992D01*
X37492D02*
Y51398D01*
X38508D01*
Y50382D01*
X37492D01*
X35492D02*
Y51398D01*
X36508D01*
Y50382D01*
X35492D01*
X32992D02*
Y51398D01*
X34008D01*
Y50382D01*
X32992D01*
X39992Y53002D02*
Y54018D01*
X41008D01*
Y53002D01*
X39992D01*
X37492D02*
Y54018D01*
X38508D01*
Y53002D01*
X37492D01*
X35492D02*
Y54018D01*
X36508D01*
Y53002D01*
X35492D01*
X32992D02*
Y54018D01*
X34008D01*
Y53002D01*
X32992D01*
X4500Y61992D02*
X3992Y63008D01*
X5008D01*
X4500Y61992D01*
X50000D02*
X49492Y63008D01*
X50508D01*
X50000Y61992D01*
X4500Y3992D02*
X3992Y5008D01*
X5008D01*
X4500Y3992D01*
X50000D02*
X49492Y5008D01*
X50508D01*
X50000Y3992D01*
X23996Y21996D02*
Y21742D01*
X24504D01*
Y21996D01*
X24758D01*
Y22504D01*
X24504D01*
Y22758D01*
X23996D01*
Y22504D01*
X23742D01*
Y21996D01*
X23996D01*
X10246Y24496D02*
Y24242D01*
X10754D01*
Y24496D01*
X11008D01*
Y25004D01*
X10754D01*
Y25258D01*
X10246D01*
Y25004D01*
X9992D01*
Y24496D01*
X10246D01*
X22515Y23977D02*
Y23723D01*
X23023D01*
Y23977D01*
X23277D01*
Y24485D01*
X23023D01*
Y24739D01*
X22515D01*
Y24485D01*
X22261D01*
Y23977D01*
X22515D01*
X19746Y28246D02*
Y27992D01*
X20254D01*
Y28246D01*
X20508D01*
Y28754D01*
X20254D01*
Y29008D01*
X19746D01*
Y28754D01*
X19492D01*
Y28246D01*
X19746D01*
Y31746D02*
Y31492D01*
X20254D01*
Y31746D01*
X20508D01*
Y32254D01*
X20254D01*
Y32508D01*
X19746D01*
Y32254D01*
X19492D01*
Y31746D01*
X19746D01*
X19746Y29996D02*
Y29742D01*
X20254D01*
Y29996D01*
X20508D01*
Y30504D01*
X20254D01*
Y30758D01*
X19746D01*
Y30504D01*
X19492D01*
Y29996D01*
X19746D01*
X48246Y10996D02*
Y10742D01*
X48754D01*
Y10996D01*
X49008D01*
Y11504D01*
X48754D01*
Y11758D01*
X48246D01*
Y11504D01*
X47992D01*
Y10996D01*
X48246D01*
X44246Y16246D02*
Y15992D01*
X44754D01*
Y16246D01*
X45008D01*
Y16754D01*
X44754D01*
Y17008D01*
X44246D01*
Y16754D01*
X43992D01*
Y16246D01*
X44246D01*
X23996Y19496D02*
Y19242D01*
X24504D01*
Y19496D01*
X24758D01*
Y20004D01*
X24504D01*
Y20258D01*
X23996D01*
Y20004D01*
X23742D01*
Y19496D01*
X23996D01*
Y20746D02*
Y20492D01*
X24504D01*
Y20746D01*
X24758D01*
Y21254D01*
X24504D01*
Y21508D01*
X23996D01*
Y21254D01*
X23742D01*
Y20746D01*
X23996D01*
X43996Y11996D02*
Y11742D01*
X44504D01*
Y11996D01*
X44758D01*
Y12504D01*
X44504D01*
Y12758D01*
X43996D01*
Y12504D01*
X43742D01*
Y11996D01*
X43996D01*
X31996D02*
Y11742D01*
X32504D01*
Y11996D01*
X32758D01*
Y12504D01*
X32504D01*
Y12758D01*
X31996D01*
Y12504D01*
X31742D01*
Y11996D01*
X31996D01*
X37996Y12746D02*
Y12492D01*
X38504D01*
Y12746D01*
X38758D01*
Y13254D01*
X38504D01*
Y13508D01*
X37996D01*
Y13254D01*
X37742D01*
Y12746D01*
X37996D01*
X43977Y10690D02*
Y10436D01*
X44485D01*
Y10690D01*
X44739D01*
Y11198D01*
X44485D01*
Y11452D01*
X43977D01*
Y11198D01*
X43723D01*
Y10690D01*
X43977D01*
X31996Y10496D02*
Y10242D01*
X32504D01*
Y10496D01*
X32758D01*
Y11004D01*
X32504D01*
Y11258D01*
X31996D01*
Y11004D01*
X31742D01*
Y10496D01*
X31996D01*
X13746Y25996D02*
Y25742D01*
X14254D01*
Y25996D01*
X14508D01*
Y26504D01*
X14254D01*
Y26758D01*
X13746D01*
Y26504D01*
X13492D01*
Y25996D01*
X13746D01*
Y31246D02*
Y30992D01*
X14254D01*
Y31246D01*
X14508D01*
Y31754D01*
X14254D01*
Y32008D01*
X13746D01*
Y31754D01*
X13492D01*
Y31246D01*
X13746D01*
Y32996D02*
Y32742D01*
X14254D01*
Y32996D01*
X14508D01*
Y33504D01*
X14254D01*
Y33758D01*
X13746D01*
Y33504D01*
X13492D01*
Y32996D01*
X13746D01*
X10246Y36496D02*
Y36242D01*
X10754D01*
Y36496D01*
X11008D01*
Y37004D01*
X10754D01*
Y37258D01*
X10246D01*
Y37004D01*
X9992D01*
Y36496D01*
X10246D01*
X7516Y31996D02*
Y31742D01*
X8024D01*
Y31996D01*
X8278D01*
Y32504D01*
X8024D01*
Y32758D01*
X7516D01*
Y32504D01*
X7262D01*
Y31996D01*
X7516D01*
X4976Y25996D02*
Y25742D01*
X5484D01*
Y25996D01*
X5738D01*
Y26504D01*
X5484D01*
Y26758D01*
X4976D01*
Y26504D01*
X4722D01*
Y25996D01*
X4976D01*
X42246Y25246D02*
Y24992D01*
X42754D01*
Y25246D01*
X43008D01*
Y25754D01*
X42754D01*
Y26008D01*
X42246D01*
Y25754D01*
X41992D01*
Y25246D01*
X42246D01*
Y26746D02*
Y26492D01*
X42754D01*
Y26746D01*
X43008D01*
Y27254D01*
X42754D01*
Y27508D01*
X42246D01*
Y27254D01*
X41992D01*
Y26746D01*
X42246D01*
X35496Y31996D02*
Y31742D01*
X36004D01*
Y31996D01*
X36258D01*
Y32504D01*
X36004D01*
Y32758D01*
X35496D01*
Y32504D01*
X35242D01*
Y31996D01*
X35496D01*
Y26646D02*
Y26392D01*
X36004D01*
Y26646D01*
X36258D01*
Y27154D01*
X36004D01*
Y27408D01*
X35496D01*
Y27154D01*
X35242D01*
Y26646D01*
X35496D01*
Y27996D02*
Y27742D01*
X36004D01*
Y27996D01*
X36258D01*
Y28504D01*
X36004D01*
Y28758D01*
X35496D01*
Y28504D01*
X35242D01*
Y27996D01*
X35496D01*
Y32996D02*
Y32742D01*
X36004D01*
Y32996D01*
X36258D01*
Y33504D01*
X36004D01*
Y33758D01*
X35496D01*
Y33504D01*
X35242D01*
Y32996D01*
X35496D01*
X31246Y34496D02*
Y34242D01*
X31754D01*
Y34496D01*
X32008D01*
Y35004D01*
X31754D01*
Y35258D01*
X31246D01*
Y35004D01*
X30992D01*
Y34496D01*
X31246D01*
X40727Y34446D02*
Y34192D01*
X41235D01*
Y34446D01*
X41489D01*
Y34954D01*
X41235D01*
Y35208D01*
X40727D01*
Y34954D01*
X40473D01*
Y34446D01*
X40727D01*
Y31846D02*
Y31592D01*
X41235D01*
Y31846D01*
X41489D01*
Y32354D01*
X41235D01*
Y32608D01*
X40727D01*
Y32354D01*
X40473D01*
Y31846D01*
X40727D01*
Y33146D02*
Y32892D01*
X41235D01*
Y33146D01*
X41489D01*
Y33654D01*
X41235D01*
Y33908D01*
X40727D01*
Y33654D01*
X40473D01*
Y33146D01*
X40727D01*
Y29346D02*
Y29092D01*
X41235D01*
Y29346D01*
X41489D01*
Y29854D01*
X41235D01*
Y30108D01*
X40727D01*
Y29854D01*
X40473D01*
Y29346D01*
X40727D01*
Y30646D02*
Y30392D01*
X41235D01*
Y30646D01*
X41489D01*
Y31154D01*
X41235D01*
Y31408D01*
X40727D01*
Y31154D01*
X40473D01*
Y30646D01*
X40727D01*
X31246Y30626D02*
Y30372D01*
X31754D01*
Y30626D01*
X32008D01*
Y31134D01*
X31754D01*
Y31388D01*
X31246D01*
Y31134D01*
X30992D01*
Y30626D01*
X31246D01*
Y29286D02*
Y29032D01*
X31754D01*
Y29286D01*
X32008D01*
Y29794D01*
X31754D01*
Y30048D01*
X31246D01*
Y29794D01*
X30992D01*
Y29286D01*
X31246D01*
X26496Y31246D02*
Y30992D01*
X27004D01*
Y31246D01*
X27258D01*
Y31754D01*
X27004D01*
Y32008D01*
X26496D01*
Y31754D01*
X26242D01*
Y31246D01*
X26496D01*
Y30246D02*
Y29992D01*
X27004D01*
Y30246D01*
X27258D01*
Y30754D01*
X27004D01*
Y31008D01*
X26496D01*
Y30754D01*
X26242D01*
Y30246D01*
X26496D01*
X21696Y36746D02*
Y36492D01*
X22204D01*
Y36746D01*
X22458D01*
Y37254D01*
X22204D01*
Y37508D01*
X21696D01*
Y37254D01*
X21442D01*
Y36746D01*
X21696D01*
X22696D02*
Y36492D01*
X23204D01*
Y36746D01*
X23458D01*
Y37254D01*
X23204D01*
Y37508D01*
X22696D01*
Y37254D01*
X22442D01*
Y36746D01*
X22696D01*
X19496D02*
Y36492D01*
X20004D01*
Y36746D01*
X20258D01*
Y37254D01*
X20004D01*
Y37508D01*
X19496D01*
Y37254D01*
X19242D01*
Y36746D01*
X19496D01*
X18496D02*
Y36492D01*
X19004D01*
Y36746D01*
X19258D01*
Y37254D01*
X19004D01*
Y37508D01*
X18496D01*
Y37254D01*
X18242D01*
Y36746D01*
X18496D01*
D66*
X12938Y11290D02*
G03*
X12938Y11290I-508J0D01*
G01*
X26078D02*
G03*
X26078Y11290I-508J0D01*
G01*
X24578Y50570D02*
G03*
X24578Y50570I-508J0D01*
G01*
X11438D02*
G03*
X11438Y50570I-508J0D01*
G01*
Y56250D02*
G03*
X11438Y56250I-508J0D01*
G01*
X24578D02*
G03*
X24578Y56250I-508J0D01*
G01*
X44078Y50540D02*
G03*
X44078Y50540I-508J0D01*
G01*
X30938D02*
G03*
X30938Y50540I-508J0D01*
G01*
Y56220D02*
G03*
X30938Y56220I-508J0D01*
G01*
X44078D02*
G03*
X44078Y56220I-508J0D01*
G01*
%TF.MD5,0c5ade87c8ad847a5f9608c437f553c0*%
M02*
