%TF.GenerationSoftware,Altium Limited,Altium Designer,25.2.1 (25)*%
G04 Layer_Color=16711935*
%FSLAX43Y43*%
%MOMM*%
%TF.SameCoordinates,20204492-5425-4C88-903B-EF9DED91A393*%
%TF.FilePolarity,Negative*%
%TF.FileFunction,Soldermask,Bot*%
%TF.Part,Single*%
G01*
G75*
%TA.AperFunction,ComponentPad*%
%ADD48C,2.550*%
%ADD49C,2.650*%
%ADD50C,1.750*%
%ADD51C,3.650*%
%ADD52C,1.550*%
%ADD53C,3.450*%
%ADD54C,6.150*%
%TA.AperFunction,ViaPad*%
%ADD55C,0.850*%
D48*
X6000Y20000D02*
D03*
Y15000D02*
D03*
Y10000D02*
D03*
D49*
X35500Y4500D02*
D03*
X40580D02*
D03*
D50*
X22500Y14000D02*
D03*
X20000D02*
D03*
X18000D02*
D03*
X15500D02*
D03*
D51*
X12430Y11290D02*
D03*
X25570D02*
D03*
D52*
X21000Y50920D02*
D03*
X18500D02*
D03*
X16500D02*
D03*
X14000D02*
D03*
X21000Y53540D02*
D03*
X18500D02*
D03*
X16500D02*
D03*
X14000D02*
D03*
X40500Y50890D02*
D03*
X38000D02*
D03*
X36000D02*
D03*
X33500D02*
D03*
X40500Y53510D02*
D03*
X38000D02*
D03*
X36000D02*
D03*
X33500D02*
D03*
D53*
X24070Y50570D02*
D03*
X10930D02*
D03*
Y56250D02*
D03*
X24070D02*
D03*
X43570Y50540D02*
D03*
X30430D02*
D03*
Y56220D02*
D03*
X43570D02*
D03*
D54*
X4500Y62500D02*
D03*
X50000D02*
D03*
X4500Y4500D02*
D03*
X50000D02*
D03*
D55*
X24250Y22250D02*
D03*
X10500Y24750D02*
D03*
X22769Y24231D02*
D03*
X20000Y28500D02*
D03*
Y32000D02*
D03*
X20000Y30250D02*
D03*
X48500Y11250D02*
D03*
X44500Y16500D02*
D03*
X24250Y19750D02*
D03*
Y21000D02*
D03*
X44250Y12250D02*
D03*
X32250D02*
D03*
X38250Y13000D02*
D03*
X44231Y10944D02*
D03*
X32250Y10750D02*
D03*
X14000Y26250D02*
D03*
Y31500D02*
D03*
Y33250D02*
D03*
X10500Y36750D02*
D03*
X7770Y32250D02*
D03*
X5230Y26250D02*
D03*
X42500Y25500D02*
D03*
Y27000D02*
D03*
X35750Y32250D02*
D03*
Y26900D02*
D03*
Y28250D02*
D03*
Y33250D02*
D03*
X31500Y34750D02*
D03*
X40981Y34700D02*
D03*
Y32100D02*
D03*
Y33400D02*
D03*
Y29600D02*
D03*
Y30900D02*
D03*
X31500Y30880D02*
D03*
Y29540D02*
D03*
X26750Y31500D02*
D03*
Y30500D02*
D03*
X21950Y37000D02*
D03*
X22950D02*
D03*
X19750D02*
D03*
X18750D02*
D03*
%TF.MD5,baf156666f7d25bede708f2ef12686f1*%
M02*
