%TF.GenerationSoftware,Altium Limited,Altium Designer,25.2.1 (25)*%
G04 Layer_Color=8421504*
%FSLAX43Y43*%
%MOMM*%
%TF.SameCoordinates,8AC2B420-D994-478E-A0F2-6CE138DB3F42*%
%TF.FilePolarity,Positive*%
%TF.FileFunction,Paste,Top*%
%TF.Part,Single*%
G01*
G75*
%TA.AperFunction,SMDPad,CuDef*%
G04:AMPARAMS|DCode=10|XSize=0.9mm|YSize=0.3mm|CornerRadius=0.075mm|HoleSize=0mm|Usage=FLASHONLY|Rotation=0.000|XOffset=0mm|YOffset=0mm|HoleType=Round|Shape=RoundedRectangle|*
%AMROUNDEDRECTD10*
21,1,0.900,0.150,0,0,0.0*
21,1,0.750,0.300,0,0,0.0*
1,1,0.150,0.375,-0.075*
1,1,0.150,-0.375,-0.075*
1,1,0.150,-0.375,0.075*
1,1,0.150,0.375,0.075*
%
%ADD10ROUNDEDRECTD10*%
G04:AMPARAMS|DCode=16|XSize=1.55mm|YSize=0.25mm|CornerRadius=0.063mm|HoleSize=0mm|Usage=FLASHONLY|Rotation=0.000|XOffset=0mm|YOffset=0mm|HoleType=Round|Shape=RoundedRectangle|*
%AMROUNDEDRECTD16*
21,1,1.550,0.125,0,0,0.0*
21,1,1.425,0.250,0,0,0.0*
1,1,0.125,0.713,-0.063*
1,1,0.125,-0.713,-0.063*
1,1,0.125,-0.713,0.063*
1,1,0.125,0.713,0.063*
%
%ADD16ROUNDEDRECTD16*%
G04:AMPARAMS|DCode=20|XSize=0.9mm|YSize=0.3mm|CornerRadius=0.075mm|HoleSize=0mm|Usage=FLASHONLY|Rotation=90.000|XOffset=0mm|YOffset=0mm|HoleType=Round|Shape=RoundedRectangle|*
%AMROUNDEDRECTD20*
21,1,0.900,0.150,0,0,90.0*
21,1,0.750,0.300,0,0,90.0*
1,1,0.150,0.075,0.375*
1,1,0.150,0.075,-0.375*
1,1,0.150,-0.075,-0.375*
1,1,0.150,-0.075,0.375*
%
%ADD20ROUNDEDRECTD20*%
G36*
X7825Y9535D02*
X7250D01*
Y8910D01*
X6800D01*
Y9535D01*
X6275D01*
Y9785D01*
X7825D01*
X7825Y9535D01*
D02*
G37*
G36*
X8650Y8910D02*
X8050D01*
Y10835D01*
X8650D01*
Y8910D01*
D02*
G37*
G36*
X10425Y9535D02*
X9900D01*
Y8910D01*
X9450D01*
Y9535D01*
X8875D01*
X8875Y9785D01*
X10425D01*
Y9535D01*
D02*
G37*
G36*
X7275Y12410D02*
X6300D01*
X6300Y12760D01*
X6825D01*
Y13310D01*
X7275D01*
Y12410D01*
D02*
G37*
G36*
X9875Y12760D02*
X10400D01*
X10400Y12410D01*
X9425D01*
Y13310D01*
X9875D01*
Y12760D01*
D02*
G37*
D10*
X6738Y12060D02*
D03*
X9962D02*
D03*
Y11560D02*
D03*
X6738D02*
D03*
D16*
X7050Y11060D02*
D03*
X9649D02*
D03*
Y10360D02*
D03*
X7050D02*
D03*
D20*
X8100Y12847D02*
D03*
X8600Y12847D02*
D03*
X9100Y12846D02*
D03*
X7600Y12848D02*
D03*
%TF.MD5,2aff1e5ec0c5a2f42b82c822c418c05e*%
M02*
