%TF.GenerationSoftware,Altium Limited,Altium Designer,25.2.1 (25)*%
G04 Layer_Color=255*
%FSLAX43Y43*%
%MOMM*%
%TF.SameCoordinates,8AC2B420-D994-478E-A0F2-6CE138DB3F42*%
%TF.FilePolarity,Positive*%
%TF.FileFunction,Pads,Top*%
%TF.Part,Single*%
G01*
G75*
%TA.AperFunction,SMDPad,CuDef*%
G04:AMPARAMS|DCode=10|XSize=0.9mm|YSize=0.3mm|CornerRadius=0.075mm|HoleSize=0mm|Usage=FLASHONLY|Rotation=0.000|XOffset=0mm|YOffset=0mm|HoleType=Round|Shape=RoundedRectangle|*
%AMROUNDEDRECTD10*
21,1,0.900,0.150,0,0,0.0*
21,1,0.750,0.300,0,0,0.0*
1,1,0.150,0.375,-0.075*
1,1,0.150,-0.375,-0.075*
1,1,0.150,-0.375,0.075*
1,1,0.150,0.375,0.075*
%
%ADD10ROUNDEDRECTD10*%
%AMCUSTOMSHAPE11*
4,1,4,0.263,0.175,-0.263,0.175,-0.263,-0.175,0.263,-0.175,0.263,0.175,0.0*%
%ADD11CUSTOMSHAPE11*%

%AMCUSTOMSHAPE12*
4,1,5,0.225,-0.100,0.225,-0.450,-0.225,-0.450,-0.225,0.450,0.225,0.450,0.225,-0.100,0.0*%
%ADD12CUSTOMSHAPE12*%

%AMCUSTOMSHAPE13*
4,1,4,-0.263,0.175,0.263,0.175,0.263,-0.175,-0.263,-0.175,-0.263,0.175,0.0*%
%ADD13CUSTOMSHAPE13*%

%AMCUSTOMSHAPE14*
4,1,5,-0.225,-0.100,-0.225,-0.450,0.225,-0.450,0.225,0.450,-0.225,0.450,-0.225,-0.100,0.0*%
%ADD14CUSTOMSHAPE14*%

%TA.AperFunction,SMDPad,SMDef*%
%ADD15R,0.127X0.127*%
%TA.AperFunction,SMDPad,CuDef*%
G04:AMPARAMS|DCode=16|XSize=1.55mm|YSize=0.25mm|CornerRadius=0.063mm|HoleSize=0mm|Usage=FLASHONLY|Rotation=0.000|XOffset=0mm|YOffset=0mm|HoleType=Round|Shape=RoundedRectangle|*
%AMROUNDEDRECTD16*
21,1,1.550,0.125,0,0,0.0*
21,1,1.425,0.250,0,0,0.0*
1,1,0.125,0.713,-0.063*
1,1,0.125,-0.713,-0.063*
1,1,0.125,-0.713,0.063*
1,1,0.125,0.713,0.063*
%
%ADD16ROUNDEDRECTD16*%
%AMCUSTOMSHAPE17*
4,1,8,-0.200,0.188,-0.775,0.188,-0.774,0.438,0.775,0.438,0.775,0.188,0.250,0.188,0.250,-0.438,-0.200,-0.438,-0.200,0.188,0.0*%
%ADD17CUSTOMSHAPE17*%

%AMCUSTOMSHAPE18*
4,1,8,0.200,0.188,0.775,0.188,0.774,0.438,-0.775,0.438,-0.775,0.188,-0.250,0.188,-0.250,-0.438,0.200,-0.438,0.200,0.188,0.0*%
%ADD18CUSTOMSHAPE18*%

%AMCUSTOMSHAPE19*
4,1,4,-0.300,0.963,0.300,0.963,0.300,-0.963,-0.300,-0.963,-0.300,0.963,0.0*%
%ADD19CUSTOMSHAPE19*%

G04:AMPARAMS|DCode=20|XSize=0.9mm|YSize=0.3mm|CornerRadius=0.075mm|HoleSize=0mm|Usage=FLASHONLY|Rotation=90.000|XOffset=0mm|YOffset=0mm|HoleType=Round|Shape=RoundedRectangle|*
%AMROUNDEDRECTD20*
21,1,0.900,0.150,0,0,90.0*
21,1,0.750,0.300,0,0,90.0*
1,1,0.150,0.075,0.375*
1,1,0.150,0.075,-0.375*
1,1,0.150,-0.075,-0.375*
1,1,0.150,-0.075,0.375*
%
%ADD20ROUNDEDRECTD20*%
%TA.AperFunction,ComponentPad*%
%ADD23C,1.500*%
D10*
X6738Y12060D02*
D03*
X9962D02*
D03*
Y11560D02*
D03*
X6738D02*
D03*
D11*
X10137Y12585D02*
D03*
D12*
X9650Y12860D02*
D03*
D13*
X6562Y12585D02*
D03*
D14*
X7050Y12860D02*
D03*
D15*
X9962Y12060D02*
D03*
Y11560D02*
D03*
D16*
X7050Y11060D02*
D03*
X9649D02*
D03*
Y10360D02*
D03*
X7050D02*
D03*
D17*
X9650Y9348D02*
D03*
D18*
X7050D02*
D03*
D19*
X8350Y9873D02*
D03*
D20*
X8100Y12847D02*
D03*
X8600Y12847D02*
D03*
X9100Y12846D02*
D03*
X7600Y12848D02*
D03*
D23*
X2000Y4760D02*
D03*
Y2220D02*
D03*
Y7300D02*
D03*
X2000Y20000D02*
D03*
Y17460D02*
D03*
Y14920D02*
D03*
X2000Y12380D02*
D03*
X2000Y9840D02*
D03*
X14700Y4760D02*
D03*
Y2220D02*
D03*
Y7300D02*
D03*
X14700Y20000D02*
D03*
Y17460D02*
D03*
Y14920D02*
D03*
X14700Y12380D02*
D03*
X14700Y9840D02*
D03*
%TF.MD5,122165d42c307f6532a2a932660420c5*%
M02*
