%TF.GenerationSoftware,Altium Limited,Altium Designer,25.2.1 (25)*%
G04 Layer_Color=2752767*
%FSLAX43Y43*%
%MOMM*%
%TF.SameCoordinates,8AC2B420-D994-478E-A0F2-6CE138DB3F42*%
%TF.FilePolarity,Positive*%
%TF.FileFunction,Drawing*%
%TF.Part,Single*%
G01*
G75*
%TA.AperFunction,NonConductor*%
%ADD37C,0.127*%
%ADD38C,0.169*%
D37*
X1492Y4252D02*
Y5268D01*
X2508D01*
Y4252D01*
X1492D01*
Y1712D02*
Y2728D01*
X2508D01*
Y1712D01*
X1492D01*
Y6792D02*
Y7808D01*
X2508D01*
Y6792D01*
X1492D01*
X1492Y19492D02*
Y20508D01*
X2508D01*
Y19492D01*
X1492D01*
Y16952D02*
Y17968D01*
X2508D01*
Y16952D01*
X1492D01*
Y14412D02*
Y15428D01*
X2508D01*
Y14412D01*
X1492D01*
X1492Y11872D02*
Y12888D01*
X2508D01*
Y11872D01*
X1492D01*
X1492Y9332D02*
Y10348D01*
X2508D01*
Y9332D01*
X1492D01*
X14192Y4252D02*
Y5268D01*
X15208D01*
Y4252D01*
X14192D01*
Y1712D02*
Y2728D01*
X15208D01*
Y1712D01*
X14192D01*
Y6792D02*
Y7808D01*
X15208D01*
Y6792D01*
X14192D01*
X14192Y19492D02*
Y20508D01*
X15208D01*
Y19492D01*
X14192D01*
Y16952D02*
Y17968D01*
X15208D01*
Y16952D01*
X14192D01*
Y14412D02*
Y15428D01*
X15208D01*
Y14412D01*
X14192D01*
X14192Y11872D02*
Y12888D01*
X15208D01*
Y11872D01*
X14192D01*
X14192Y9332D02*
Y10348D01*
X15208D01*
Y9332D01*
X14192D01*
D38*
X7558Y9348D02*
G03*
X7558Y9348I-508J0D01*
G01*
X10158D02*
G03*
X10158Y9348I-508J0D01*
G01*
X12508Y14000D02*
G03*
X12508Y14000I-508J0D01*
G01*
X11508D02*
G03*
X11508Y14000I-508J0D01*
G01*
X8858Y9873D02*
G03*
X8858Y9873I-508J0D01*
G01*
%TF.MD5,a5c2c9ce56b42fca462e10b04a119d05*%
M02*
