%TF.GenerationSoftware,Altium Limited,Altium Designer,25.2.1 (25)*%
G04 Layer_Color=8388736*
%FSLAX43Y43*%
%MOMM*%
%TF.SameCoordinates,8AC2B420-D994-478E-A0F2-6CE138DB3F42*%
%TF.FilePolarity,Negative*%
%TF.FileFunction,Soldermask,Top*%
%TF.Part,Single*%
G01*
G75*
%TA.AperFunction,SMDPad,CuDef*%
G04:AMPARAMS|DCode=28|XSize=1.05mm|YSize=0.45mm|CornerRadius=0.15mm|HoleSize=0mm|Usage=FLASHONLY|Rotation=0.000|XOffset=0mm|YOffset=0mm|HoleType=Round|Shape=RoundedRectangle|*
%AMROUNDEDRECTD28*
21,1,1.050,0.150,0,0,0.0*
21,1,0.750,0.450,0,0,0.0*
1,1,0.300,0.375,-0.075*
1,1,0.300,-0.375,-0.075*
1,1,0.300,-0.375,0.075*
1,1,0.300,0.375,0.075*
%
%ADD28ROUNDEDRECTD28*%
G04:AMPARAMS|DCode=29|XSize=1.7mm|YSize=0.4mm|CornerRadius=0.138mm|HoleSize=0mm|Usage=FLASHONLY|Rotation=0.000|XOffset=0mm|YOffset=0mm|HoleType=Round|Shape=RoundedRectangle|*
%AMROUNDEDRECTD29*
21,1,1.700,0.125,0,0,0.0*
21,1,1.425,0.400,0,0,0.0*
1,1,0.275,0.713,-0.063*
1,1,0.275,-0.713,-0.063*
1,1,0.275,-0.713,0.063*
1,1,0.275,0.713,0.063*
%
%ADD29ROUNDEDRECTD29*%
G04:AMPARAMS|DCode=30|XSize=1.05mm|YSize=0.45mm|CornerRadius=0.15mm|HoleSize=0mm|Usage=FLASHONLY|Rotation=90.000|XOffset=0mm|YOffset=0mm|HoleType=Round|Shape=RoundedRectangle|*
%AMROUNDEDRECTD30*
21,1,1.050,0.150,0,0,90.0*
21,1,0.750,0.450,0,0,90.0*
1,1,0.300,0.075,0.375*
1,1,0.300,0.075,-0.375*
1,1,0.300,-0.075,-0.375*
1,1,0.300,-0.075,0.375*
%
%ADD30ROUNDEDRECTD30*%
%TA.AperFunction,ComponentPad*%
%ADD31C,1.650*%
%TA.AperFunction,ViaPad*%
%ADD32C,0.850*%
G36*
X7830Y9860D02*
X7836Y9860D01*
X7836Y9860D01*
X7836Y9859D01*
X7842Y9858D01*
X7848Y9857D01*
X7848Y9857D01*
X7848Y9857D01*
X7853Y9855D01*
X7859Y9852D01*
X7859Y9852D01*
X7859Y9852D01*
X7864Y9849D01*
X7869Y9846D01*
X7869Y9846D01*
X7869Y9846D01*
X7874Y9842D01*
X7878Y9839D01*
X7878Y9838D01*
X7878Y9838D01*
X7882Y9833D01*
X7885Y9830D01*
X7885Y9829D01*
X7885Y9829D01*
X7889Y9824D01*
X7891Y9819D01*
X7891Y9819D01*
X7892Y9819D01*
X7894Y9814D01*
X7896Y9809D01*
X7896Y9809D01*
X7896Y9808D01*
X7897Y9803D01*
X7899Y9797D01*
X7899Y9797D01*
X7899Y9797D01*
X7899Y9791D01*
X7900Y9785D01*
X7900Y9535D01*
X7900Y9535D01*
X7900Y9535D01*
X7900Y9529D01*
X7899Y9524D01*
X7899Y9524D01*
X7899Y9523D01*
X7898Y9518D01*
X7897Y9512D01*
X7897Y9512D01*
X7897Y9512D01*
X7894Y9507D01*
X7892Y9501D01*
X7892Y9501D01*
X7892Y9501D01*
X7889Y9496D01*
X7886Y9491D01*
X7886Y9491D01*
X7886Y9491D01*
X7882Y9487D01*
X7878Y9482D01*
X7878Y9482D01*
X7878Y9482D01*
X7874Y9478D01*
X7869Y9474D01*
X7869Y9474D01*
X7869Y9474D01*
X7864Y9471D01*
X7859Y9468D01*
X7859Y9468D01*
X7859Y9468D01*
X7854Y9466D01*
X7848Y9464D01*
X7848Y9464D01*
X7848Y9464D01*
X7843Y9462D01*
X7837Y9461D01*
X7837Y9461D01*
X7837Y9461D01*
X7831Y9460D01*
X7825Y9460D01*
X7825Y9460D01*
X7825Y9460D01*
X7325D01*
Y8910D01*
X7324Y8898D01*
X7322Y8887D01*
X7317Y8876D01*
X7311Y8866D01*
X7303Y8857D01*
X7294Y8849D01*
X7284Y8843D01*
X7273Y8839D01*
X7262Y8836D01*
X7250Y8835D01*
X6800D01*
X6788Y8836D01*
X6777Y8839D01*
X6766Y8843D01*
X6756Y8849D01*
X6747Y8857D01*
X6739Y8866D01*
X6733Y8876D01*
X6728Y8887D01*
X6726Y8898D01*
X6725Y8910D01*
Y9460D01*
X6275D01*
X6263Y9461D01*
X6252Y9464D01*
X6241Y9468D01*
X6231Y9474D01*
X6222Y9482D01*
X6214Y9491D01*
X6208Y9501D01*
X6203Y9512D01*
X6201Y9523D01*
X6200Y9535D01*
Y9785D01*
X6201Y9797D01*
X6203Y9808D01*
X6208Y9819D01*
X6214Y9829D01*
X6222Y9838D01*
X6231Y9846D01*
X6241Y9852D01*
X6252Y9857D01*
X6263Y9859D01*
X6275Y9860D01*
X7825D01*
X7830Y9860D01*
D02*
G37*
G36*
X8662Y10910D02*
X8673Y10907D01*
X8684Y10902D01*
X8694Y10896D01*
X8703Y10888D01*
X8711Y10879D01*
X8717Y10869D01*
X8722Y10858D01*
X8724Y10847D01*
X8725Y10835D01*
Y8910D01*
X8724Y8898D01*
X8722Y8887D01*
X8717Y8876D01*
X8711Y8866D01*
X8703Y8857D01*
X8694Y8849D01*
X8684Y8843D01*
X8673Y8839D01*
X8662Y8836D01*
X8650Y8835D01*
X8050D01*
X8038Y8836D01*
X8027Y8839D01*
X8016Y8843D01*
X8006Y8849D01*
X7997Y8857D01*
X7989Y8866D01*
X7983Y8876D01*
X7978Y8887D01*
X7976Y8898D01*
X7975Y8910D01*
Y10835D01*
X7976Y10847D01*
X7978Y10858D01*
X7983Y10869D01*
X7989Y10879D01*
X7997Y10888D01*
X8006Y10896D01*
X8016Y10902D01*
X8027Y10907D01*
X8038Y10910D01*
X8050Y10910D01*
X8650D01*
X8662Y10910D01*
D02*
G37*
G36*
X10437Y9859D02*
X10448Y9857D01*
X10459Y9852D01*
X10469Y9846D01*
X10478Y9838D01*
X10486Y9829D01*
X10492Y9819D01*
X10497Y9808D01*
X10499Y9797D01*
X10500Y9785D01*
Y9535D01*
X10499Y9523D01*
X10497Y9512D01*
X10492Y9501D01*
X10486Y9491D01*
X10478Y9482D01*
X10469Y9474D01*
X10459Y9468D01*
X10448Y9464D01*
X10437Y9461D01*
X10425Y9460D01*
X9975D01*
Y8910D01*
X9974Y8898D01*
X9972Y8887D01*
X9967Y8876D01*
X9961Y8866D01*
X9953Y8857D01*
X9944Y8849D01*
X9934Y8843D01*
X9923Y8839D01*
X9912Y8836D01*
X9900Y8835D01*
X9450D01*
X9438Y8836D01*
X9427Y8839D01*
X9416Y8843D01*
X9406Y8849D01*
X9397Y8857D01*
X9389Y8866D01*
X9383Y8876D01*
X9378Y8887D01*
X9376Y8898D01*
X9375Y8910D01*
Y9460D01*
X8875D01*
X8875Y9460D01*
X8875Y9460D01*
X8869Y9460D01*
X8863Y9461D01*
X8863Y9461D01*
X8863Y9461D01*
X8857Y9462D01*
X8852Y9464D01*
X8852Y9464D01*
X8852Y9464D01*
X8846Y9466D01*
X8841Y9468D01*
X8841Y9468D01*
X8841Y9468D01*
X8836Y9471D01*
X8831Y9474D01*
X8831Y9474D01*
X8831Y9474D01*
X8826Y9478D01*
X8822Y9482D01*
X8822Y9482D01*
X8822Y9482D01*
X8818Y9487D01*
X8814Y9491D01*
X8814Y9491D01*
X8814Y9491D01*
X8811Y9496D01*
X8808Y9501D01*
X8808Y9501D01*
X8808Y9501D01*
X8806Y9507D01*
X8803Y9512D01*
X8803Y9512D01*
X8803Y9512D01*
X8802Y9518D01*
X8801Y9523D01*
X8801Y9524D01*
X8801Y9524D01*
X8800Y9529D01*
X8800Y9535D01*
X8800Y9535D01*
X8800Y9535D01*
X8800Y9785D01*
X8801Y9791D01*
X8801Y9797D01*
X8801Y9797D01*
X8801Y9797D01*
X8803Y9803D01*
X8804Y9808D01*
X8804Y9809D01*
X8804Y9809D01*
X8806Y9814D01*
X8808Y9819D01*
X8809Y9819D01*
X8809Y9819D01*
X8811Y9824D01*
X8815Y9829D01*
X8815Y9829D01*
X8815Y9830D01*
X8818Y9833D01*
X8822Y9838D01*
X8822Y9838D01*
X8822Y9839D01*
X8826Y9842D01*
X8831Y9846D01*
X8831Y9846D01*
X8831Y9846D01*
X8836Y9849D01*
X8841Y9852D01*
X8841Y9852D01*
X8841Y9852D01*
X8847Y9855D01*
X8852Y9857D01*
X8852Y9857D01*
X8852Y9857D01*
X8858Y9858D01*
X8864Y9859D01*
X8864Y9860D01*
X8864Y9860D01*
X8870Y9860D01*
X8875Y9860D01*
X10425D01*
X10437Y9859D01*
D02*
G37*
G36*
X7287Y13384D02*
X7298Y13382D01*
X7309Y13377D01*
X7319Y13371D01*
X7328Y13363D01*
X7336Y13354D01*
X7342Y13344D01*
X7347Y13333D01*
X7349Y13322D01*
X7350Y13310D01*
Y12410D01*
X7349Y12398D01*
X7347Y12387D01*
X7342Y12376D01*
X7336Y12366D01*
X7328Y12357D01*
X7319Y12349D01*
X7309Y12343D01*
X7298Y12339D01*
X7287Y12336D01*
X7275Y12335D01*
X6300D01*
X6288Y12336D01*
X6277Y12339D01*
X6266Y12343D01*
X6256Y12349D01*
X6247Y12357D01*
X6239Y12366D01*
X6233Y12376D01*
X6228Y12387D01*
X6226Y12398D01*
X6225Y12410D01*
X6225Y12760D01*
X6226Y12772D01*
X6228Y12783D01*
X6233Y12794D01*
X6239Y12804D01*
X6247Y12813D01*
X6256Y12821D01*
X6266Y12827D01*
X6277Y12832D01*
X6288Y12835D01*
X6300Y12835D01*
X6750D01*
Y13310D01*
X6751Y13322D01*
X6753Y13333D01*
X6758Y13344D01*
X6764Y13354D01*
X6772Y13363D01*
X6781Y13371D01*
X6791Y13377D01*
X6802Y13382D01*
X6813Y13384D01*
X6825Y13385D01*
X7275D01*
X7287Y13384D01*
D02*
G37*
G36*
X9887D02*
X9898Y13382D01*
X9909Y13377D01*
X9919Y13371D01*
X9928Y13363D01*
X9936Y13354D01*
X9942Y13344D01*
X9946Y13333D01*
X9949Y13322D01*
X9950Y13310D01*
Y12835D01*
X10400D01*
X10412Y12835D01*
X10423Y12832D01*
X10434Y12827D01*
X10444Y12821D01*
X10453Y12813D01*
X10461Y12804D01*
X10467Y12794D01*
X10471Y12783D01*
X10474Y12772D01*
X10475Y12760D01*
X10475Y12410D01*
X10474Y12398D01*
X10471Y12387D01*
X10467Y12376D01*
X10461Y12366D01*
X10453Y12357D01*
X10444Y12349D01*
X10434Y12343D01*
X10423Y12339D01*
X10412Y12336D01*
X10400Y12335D01*
X9425D01*
X9413Y12336D01*
X9402Y12339D01*
X9391Y12343D01*
X9381Y12349D01*
X9372Y12357D01*
X9364Y12366D01*
X9358Y12376D01*
X9353Y12387D01*
X9351Y12398D01*
X9350Y12410D01*
Y13310D01*
X9351Y13322D01*
X9353Y13333D01*
X9358Y13344D01*
X9364Y13354D01*
X9372Y13363D01*
X9381Y13371D01*
X9391Y13377D01*
X9402Y13382D01*
X9413Y13384D01*
X9425Y13385D01*
X9875D01*
X9887Y13384D01*
D02*
G37*
D28*
X6738Y12060D02*
D03*
X9962D02*
D03*
Y11560D02*
D03*
X6738D02*
D03*
D29*
X7050Y11060D02*
D03*
X9649D02*
D03*
Y10360D02*
D03*
X7050D02*
D03*
D30*
X8100Y12847D02*
D03*
X8600Y12847D02*
D03*
X9100Y12846D02*
D03*
X7600Y12848D02*
D03*
D31*
X2000Y4760D02*
D03*
Y2220D02*
D03*
Y7300D02*
D03*
X2000Y20000D02*
D03*
Y17460D02*
D03*
Y14920D02*
D03*
X2000Y12380D02*
D03*
X2000Y9840D02*
D03*
X14700Y4760D02*
D03*
Y2220D02*
D03*
Y7300D02*
D03*
X14700Y20000D02*
D03*
Y17460D02*
D03*
Y14920D02*
D03*
X14700Y12380D02*
D03*
X14700Y9840D02*
D03*
D32*
X7050Y9348D02*
D03*
X9650D02*
D03*
X12000Y14000D02*
D03*
X11000D02*
D03*
X8350Y9873D02*
D03*
%TF.MD5,7ad0cb00a1819873f523df6505197893*%
M02*
