%TF.GenerationSoftware,Altium Limited,Altium Designer,25.2.1 (25)*%
G04 Layer_Physical_Order=2*
G04 Layer_Color=16711680*
%FSLAX43Y43*%
%MOMM*%
%TF.SameCoordinates,8AC2B420-D994-478E-A0F2-6CE138DB3F42*%
%TF.FilePolarity,Positive*%
%TF.FileFunction,Copper,L2,Bot,Signal*%
%TF.Part,Single*%
G01*
G75*
%TA.AperFunction,Conductor*%
%ADD21C,0.500*%
%ADD22C,0.200*%
%TA.AperFunction,ComponentPad*%
%ADD23C,1.500*%
%TA.AperFunction,ViaPad*%
%ADD24C,0.700*%
G36*
X16000Y6140D02*
X8000D01*
Y10750D01*
X8700D01*
X8700Y8500D01*
X13500D01*
Y11000D01*
X16000D01*
Y6140D01*
D02*
G37*
D21*
X6780Y2220D02*
X14700D01*
X5479Y3521D02*
X6780Y2220D01*
X5479Y3521D02*
Y12060D01*
X5919Y12500D01*
X11250D01*
X11970Y13220D01*
Y13970D01*
X12000Y14000D01*
X7990Y4760D02*
X14700D01*
X7050Y5700D02*
X7990Y4760D01*
X7050Y5700D02*
Y9348D01*
Y11401D01*
X7249Y11600D01*
X9451D02*
X9650Y11401D01*
X7249Y11600D02*
X9451D01*
X9650Y9348D02*
Y11401D01*
D22*
X5000Y14000D02*
X11000D01*
X3750Y12750D02*
X5000Y14000D01*
X3750Y6510D02*
Y12750D01*
X2000Y4760D02*
X3750Y6510D01*
D23*
X2000Y4760D02*
D03*
Y2220D02*
D03*
Y7300D02*
D03*
X2000Y20000D02*
D03*
Y17460D02*
D03*
Y14920D02*
D03*
X2000Y12380D02*
D03*
X2000Y9840D02*
D03*
X14700Y4760D02*
D03*
Y2220D02*
D03*
Y7300D02*
D03*
X14700Y20000D02*
D03*
Y17460D02*
D03*
Y14920D02*
D03*
X14700Y12380D02*
D03*
X14700Y9840D02*
D03*
D24*
X7050Y9348D02*
D03*
X9650D02*
D03*
X12000Y14000D02*
D03*
X11000D02*
D03*
X8350Y9873D02*
D03*
%TF.MD5,0530588d0b1a1d30e9602c24046c3991*%
M02*
