G04*
G04 #@! TF.GenerationSoftware,Altium Limited,Altium Designer,25.8.1 (18)*
G04*
G04 Layer_Color=8388736*
%FSLAX44Y44*%
%MOMM*%
G71*
G04*
G04 #@! TF.SameCoordinates,A8765012-30DD-40E1-B8F3-8E4BD0165297*
G04*
G04*
G04 #@! TF.FilePolarity,Negative*
G04*
G01*
G75*
%ADD19R,1.1032X1.7032*%
%ADD20C,1.4782*%
%ADD21R,1.4782X1.4782*%
%ADD22C,6.2032*%
%ADD23C,0.9032*%
D19*
X250000Y535000D02*
D03*
X217000D02*
D03*
Y584000D02*
D03*
X250000D02*
D03*
X190000Y535000D02*
D03*
X489000Y666000D02*
D03*
X549000D02*
D03*
X550480Y496450D02*
D03*
X518000Y535000D02*
D03*
X490480Y496450D02*
D03*
X457980Y534950D02*
D03*
X550000Y327500D02*
D03*
X518040Y365345D02*
D03*
X490000Y327500D02*
D03*
X458020Y365295D02*
D03*
X429000Y666000D02*
D03*
X430480Y496450D02*
D03*
X398000Y535000D02*
D03*
X369000Y666000D02*
D03*
X370480Y496450D02*
D03*
X338000Y535000D02*
D03*
X430000Y327500D02*
D03*
X398040Y365345D02*
D03*
X370000Y327500D02*
D03*
X338040Y365345D02*
D03*
X550480Y158450D02*
D03*
X518520Y195805D02*
D03*
X490480Y158450D02*
D03*
X458500Y195755D02*
D03*
X519520Y27550D02*
D03*
X459500Y27500D02*
D03*
X430480Y158450D02*
D03*
X398520Y195805D02*
D03*
X370480Y158450D02*
D03*
X338520Y195805D02*
D03*
X399520Y27550D02*
D03*
X339520D02*
D03*
X308000Y666000D02*
D03*
X248000D02*
D03*
X309480Y496450D02*
D03*
X277000Y535000D02*
D03*
X188020Y666050D02*
D03*
X249480Y496450D02*
D03*
X189500Y496500D02*
D03*
X277040Y365345D02*
D03*
X309000Y327500D02*
D03*
X249000D02*
D03*
X217040Y365345D02*
D03*
X189020Y327550D02*
D03*
X157000Y535000D02*
D03*
X128000Y666000D02*
D03*
X97000Y535000D02*
D03*
X129480Y496450D02*
D03*
X157040Y365345D02*
D03*
X129000Y327500D02*
D03*
X97040Y365345D02*
D03*
X309480Y158450D02*
D03*
X277520Y195805D02*
D03*
X249480Y158450D02*
D03*
X217520Y195805D02*
D03*
X189500Y158500D02*
D03*
X278520Y27550D02*
D03*
X218520D02*
D03*
X157520Y195805D02*
D03*
X97520D02*
D03*
X129480Y158450D02*
D03*
X158520Y27550D02*
D03*
X98520D02*
D03*
X277000Y584000D02*
D03*
X456000Y617000D02*
D03*
X551000Y584000D02*
D03*
X516000Y617000D02*
D03*
X490980Y583950D02*
D03*
X431000Y584000D02*
D03*
X551040Y414345D02*
D03*
X517480Y447450D02*
D03*
X457480D02*
D03*
X491020Y414295D02*
D03*
X431040Y414345D02*
D03*
X396000Y617000D02*
D03*
X371000Y584000D02*
D03*
X336000Y617000D02*
D03*
X337480Y447450D02*
D03*
X397480D02*
D03*
X371040Y414345D02*
D03*
X551520Y244805D02*
D03*
X517000Y278500D02*
D03*
X457000D02*
D03*
X431520Y244805D02*
D03*
X491500Y244755D02*
D03*
X552520Y76550D02*
D03*
X517480Y109450D02*
D03*
X457480D02*
D03*
X432520Y76550D02*
D03*
X492500Y76500D02*
D03*
X397000Y278500D02*
D03*
X337000D02*
D03*
X371520Y244805D02*
D03*
X337480Y109450D02*
D03*
X397480D02*
D03*
X372520Y76550D02*
D03*
X275000Y617000D02*
D03*
X310000Y584000D02*
D03*
X215000Y617000D02*
D03*
X310040Y414345D02*
D03*
X276480Y447450D02*
D03*
X250040Y414345D02*
D03*
X216480Y447450D02*
D03*
X190000Y584000D02*
D03*
X155020Y617050D02*
D03*
X130000Y584000D02*
D03*
X95000Y617000D02*
D03*
X190040Y414345D02*
D03*
X156500Y447500D02*
D03*
X96480Y447450D02*
D03*
X130040Y414345D02*
D03*
X310520Y244805D02*
D03*
X276000Y278500D02*
D03*
X250520Y244805D02*
D03*
X216000Y278500D02*
D03*
X311520Y76550D02*
D03*
X276480Y109450D02*
D03*
X251520Y76550D02*
D03*
X216480Y109450D02*
D03*
X156020Y278550D02*
D03*
X190520Y244805D02*
D03*
X96000Y278500D02*
D03*
X130520Y244805D02*
D03*
X191520Y76550D02*
D03*
X156500Y109500D02*
D03*
X96480Y109450D02*
D03*
X131520Y76550D02*
D03*
X518040Y414345D02*
D03*
X551040Y365345D02*
D03*
X550000Y278500D02*
D03*
X491020Y365295D02*
D03*
X398040Y414345D02*
D03*
X431040Y365345D02*
D03*
X490000Y278500D02*
D03*
X457000Y327500D02*
D03*
X517000D02*
D03*
X310040Y365345D02*
D03*
X277040Y414345D02*
D03*
X338040Y414345D02*
D03*
X371040Y365345D02*
D03*
X188020Y617050D02*
D03*
X155020Y666050D02*
D03*
X129480Y447450D02*
D03*
X96480Y496450D02*
D03*
X130000Y535000D02*
D03*
X97000Y584000D02*
D03*
X189500Y447500D02*
D03*
X156500Y496500D02*
D03*
X157000Y584000D02*
D03*
X249480Y447450D02*
D03*
X216480Y496450D02*
D03*
X309480Y447450D02*
D03*
X276480Y496450D02*
D03*
X310000Y535000D02*
D03*
X128000Y617000D02*
D03*
X95000Y666000D02*
D03*
X248000Y617000D02*
D03*
X215000Y666000D02*
D03*
X308000Y617000D02*
D03*
X275000Y666000D02*
D03*
X370480Y447450D02*
D03*
X337480Y496450D02*
D03*
X430480Y447450D02*
D03*
X397480Y496450D02*
D03*
X338000Y584000D02*
D03*
X371000Y535000D02*
D03*
X369000Y617000D02*
D03*
X336000Y666000D02*
D03*
X398000Y584000D02*
D03*
X431000Y535000D02*
D03*
X396000Y666000D02*
D03*
X429000Y617000D02*
D03*
X489000D02*
D03*
X456000Y666000D02*
D03*
X490480Y447450D02*
D03*
X457480Y496450D02*
D03*
X517480D02*
D03*
X550480Y447450D02*
D03*
X490980Y534950D02*
D03*
X457980Y583950D02*
D03*
X551000Y535000D02*
D03*
X518000Y584000D02*
D03*
X549000Y617000D02*
D03*
X516000Y666000D02*
D03*
X249000Y278500D02*
D03*
X216000Y327500D02*
D03*
X309000Y278500D02*
D03*
X276000Y327500D02*
D03*
X430000Y278500D02*
D03*
X397000Y327500D02*
D03*
X250040Y365345D02*
D03*
X217040Y414345D02*
D03*
X218520Y76550D02*
D03*
X251520Y27550D02*
D03*
X311520D02*
D03*
X278520Y76550D02*
D03*
X339520Y76550D02*
D03*
X372520Y27550D02*
D03*
X459500Y76500D02*
D03*
X492500Y27500D02*
D03*
X399520Y76550D02*
D03*
X432520Y27550D02*
D03*
X519520Y76550D02*
D03*
X552520Y27550D02*
D03*
X156500Y158500D02*
D03*
X189500Y109500D02*
D03*
X157520Y244805D02*
D03*
X190520Y195805D02*
D03*
X98520Y76550D02*
D03*
X131520Y27550D02*
D03*
X158520Y76550D02*
D03*
X191520Y27550D02*
D03*
X96480Y158450D02*
D03*
X129480Y109450D02*
D03*
X130520Y195805D02*
D03*
X97520Y244805D02*
D03*
X129000Y278500D02*
D03*
X96000Y327500D02*
D03*
X97040Y414345D02*
D03*
X130040Y365345D02*
D03*
X189020Y278550D02*
D03*
X156020Y327550D02*
D03*
X157040Y414345D02*
D03*
X190040Y365345D02*
D03*
X276480Y158450D02*
D03*
X309480Y109450D02*
D03*
X249480D02*
D03*
X216480Y158450D02*
D03*
X217520Y244805D02*
D03*
X250520Y195805D02*
D03*
X277520Y244805D02*
D03*
X310520Y195805D02*
D03*
X337480Y158450D02*
D03*
X370480Y109450D02*
D03*
X338520Y244805D02*
D03*
X371520Y195805D02*
D03*
X457480Y158450D02*
D03*
X490480Y109450D02*
D03*
X430480D02*
D03*
X397480Y158450D02*
D03*
X458500Y244755D02*
D03*
X491500Y195755D02*
D03*
X398520Y244805D02*
D03*
X431520Y195805D02*
D03*
X517480Y158450D02*
D03*
X550480Y109450D02*
D03*
X518520Y244805D02*
D03*
X551520Y195805D02*
D03*
X370000Y278500D02*
D03*
X337000Y327500D02*
D03*
X458020Y414295D02*
D03*
D20*
X625000Y408000D02*
D03*
D21*
X590000D02*
D03*
D22*
X605000Y655000D02*
D03*
X45000Y45000D02*
D03*
Y655000D02*
D03*
X605000Y45000D02*
D03*
D23*
X192000Y60000D02*
D03*
X159000Y44000D02*
D03*
X99000Y45000D02*
D03*
X131882Y60118D02*
D03*
X492000Y140000D02*
D03*
X457000Y126000D02*
D03*
X518618Y127382D02*
D03*
X552874Y138385D02*
D03*
X552000Y225000D02*
D03*
X190755Y227246D02*
D03*
X97000Y214000D02*
D03*
X129255Y226745D02*
D03*
X96000Y296000D02*
D03*
X97000Y381000D02*
D03*
X156118Y465882D02*
D03*
X277000Y467000D02*
D03*
X518618Y465382D02*
D03*
X550000Y478000D02*
D03*
X250000Y566000D02*
D03*
X98000Y554000D02*
D03*
X548000Y650000D02*
D03*
X490000Y649000D02*
D03*
X157000Y553000D02*
D03*
X490000Y478000D02*
D03*
X156000Y382000D02*
D03*
X491000Y312000D02*
D03*
X430000Y310000D02*
D03*
X158000Y213000D02*
D03*
X217000Y214000D02*
D03*
X431000Y142000D02*
D03*
X218000Y45000D02*
D03*
X429000Y649000D02*
D03*
X216000Y554000D02*
D03*
X431000Y479000D02*
D03*
X371000Y310000D02*
D03*
X277000Y213000D02*
D03*
X370000Y142000D02*
D03*
X369000Y649000D02*
D03*
X276000Y553000D02*
D03*
X371000Y479000D02*
D03*
X277000Y383000D02*
D03*
X309000Y311000D02*
D03*
X338000Y214000D02*
D03*
X310000Y141000D02*
D03*
X339000Y45000D02*
D03*
X338000Y552000D02*
D03*
X310000Y479000D02*
D03*
X338000Y383000D02*
D03*
X249000Y310000D02*
D03*
Y141000D02*
D03*
X400000Y45000D02*
D03*
X398000Y553000D02*
D03*
X249000Y480000D02*
D03*
X399000Y382000D02*
D03*
X189000Y311000D02*
D03*
Y650000D02*
D03*
X458000Y383000D02*
D03*
X519000Y47000D02*
D03*
X217000Y383000D02*
D03*
X278000Y45000D02*
D03*
X308000Y650000D02*
D03*
X399000Y212000D02*
D03*
X248000Y650000D02*
D03*
X458000Y212000D02*
D03*
X190000Y143000D02*
D03*
X459000Y43000D02*
D03*
X458000Y550000D02*
D03*
X190000Y481000D02*
D03*
X129000Y312000D02*
D03*
X518000Y212000D02*
D03*
X128000Y650000D02*
D03*
X130000Y143000D02*
D03*
X518000Y552000D02*
D03*
X130000Y480000D02*
D03*
X518000Y381000D02*
D03*
X550000Y311000D02*
D03*
X129897Y567103D02*
D03*
X516603Y634397D02*
D03*
X457000Y635000D02*
D03*
X190397Y566603D02*
D03*
X458118Y465882D02*
D03*
X251000Y227000D02*
D03*
X398000Y128000D02*
D03*
X252000Y59000D02*
D03*
X396000Y635000D02*
D03*
X397618Y466382D02*
D03*
X250000Y397000D02*
D03*
X310000Y225000D02*
D03*
X277000Y128000D02*
D03*
X338000Y127000D02*
D03*
X311000Y59000D02*
D03*
X337000Y635000D02*
D03*
X309000Y566000D02*
D03*
X310000Y396000D02*
D03*
X373000Y58000D02*
D03*
X276000Y637000D02*
D03*
X371000Y566000D02*
D03*
X432000Y227000D02*
D03*
X216000Y129000D02*
D03*
X433000Y58000D02*
D03*
X215000Y636000D02*
D03*
X431000Y566000D02*
D03*
X492000Y227000D02*
D03*
X157000Y128000D02*
D03*
X492000Y59000D02*
D03*
X338000Y467000D02*
D03*
X371000Y226000D02*
D03*
Y397000D02*
D03*
X217000Y464000D02*
D03*
X431000Y397000D02*
D03*
X156000Y635000D02*
D03*
X491000Y566000D02*
D03*
Y399000D02*
D03*
X97000Y126000D02*
D03*
X553000Y61000D02*
D03*
X95000Y633000D02*
D03*
X96000Y464000D02*
D03*
X551000Y397000D02*
D03*
X551000Y568000D02*
D03*
X190600Y398895D02*
D03*
X130000Y398000D02*
D03*
X517000Y294255D02*
D03*
X457000D02*
D03*
X397000D02*
D03*
X337000D02*
D03*
X276000Y295255D02*
D03*
X216000Y294255D02*
D03*
X157000D02*
D03*
M02*
