M48
;Layer_Color=9474304
;FILE_FORMAT=4:4
METRIC,LZ
;TYPE=PLATED
T01F00S00C0.3000
T02F00S00C0.8500
T03F00S00C1.0922
T04F00S00C3.5000
%
T01
X00099Y00045
X00131882Y00060118
X0013Y00143
X00097Y00126
X00157Y00128
X0019Y00143
X00216Y00129
X00249Y00141
X00277Y00128
X0031Y00141
X00338Y00127
X0037Y00142
X00398Y00128
X00431Y00142
X00457Y00126
X00492Y0014
X00518618Y00127382
X00519Y00047
X00492Y00059
X00459Y00043
X00433Y00058
X004Y00045
X00373Y00058
X00339Y00045
X00311Y00059
X00278Y00045
X00252Y00059
X00218Y00045
X00192Y0006
X00159Y00044
X00553Y00061
X00552874Y00138385
X00552Y00225
X0055Y00311
X00551Y00397
X0055Y00478
X00518618Y00465382
X0049Y00478
X00458118Y00465882
X00431Y00479
X00397618Y00466382
X00371Y00479
X00338Y00467
X0031Y00479
X00277Y00467
X00249Y0048
X00217Y00464
X0019Y00481
X00156118Y00465882
X00156Y00382
X001906Y00398895
X00217Y00383
X0025Y00397
X00277Y00383
X0031Y00396
X00338Y00383
X00371Y00397
X00399Y00382
X00431Y00397
X00458Y00383
X00491Y00399
X00518Y00381
X00517Y00294255
X00491Y00312
X00457Y00294255
X0043Y0031
X00397Y00294255
X00371Y0031
X00337Y00294255
X00309Y00311
X00276Y00295255
X00249Y0031
X00216Y00294255
X00189Y00311
X00157Y00294255
X00158Y00213
X00190755Y00227246
X00217Y00214
X00251Y00227
X00277Y00213
X0031Y00225
X00338Y00214
X00371Y00226
X00399Y00212
X00432Y00227
X00458Y00212
X00492Y00227
X00518Y00212
X00129255Y00226745
X00097Y00214
X00096Y00296
X00129Y00312
X0013Y00398
X00097Y00381
X00096Y00464
X0013Y0048
X00129897Y00567103
X00098Y00554
X00095Y00633
X00128Y0065
X00156Y00635
X00189Y0065
X00215Y00636
X00248Y0065
X00276Y00637
X00308Y0065
X00337Y00635
X00369Y00649
X00396Y00635
X00429Y00649
X00457Y00635
X0049Y00649
X00516603Y00634397
X00518Y00552
X00491Y00566
X00458Y0055
X00431Y00566
X00398Y00553
X00371Y00566
X00338Y00552
X00309Y00566
X00276Y00553
X0025Y00566
X00216Y00554
X00190397Y00566603
X00157Y00553
X00551Y00568
X00548Y0065
T02
X0059Y00408
X00625
T03
X00577Y00539
Y00564
Y00589
T04
X00045Y00045
X00605
X00045Y00655
X00605
M30
