%TF.GenerationSoftware,Altium Limited,Altium Designer,25.2.1 (25)*%
G04 Layer_Physical_Order=2*
G04 Layer_Color=16711680*
%FSLAX43Y43*%
%MOMM*%
%TF.SameCoordinates,5DC7A89A-D5EC-4FB4-B41D-27465311D439*%
%TF.FilePolarity,Positive*%
%TF.FileFunction,Copper,L2,Bot,Signal*%
%TF.Part,Single*%
G01*
G75*
%TA.AperFunction,NonConductor*%
%ADD10C,0.203*%
%TA.AperFunction,Conductor*%
%ADD15C,0.200*%
%TA.AperFunction,NonConductor*%
%ADD16C,0.300*%
%TA.AperFunction,ComponentPad*%
%ADD17C,1.500*%
%TA.AperFunction,ViaPad*%
%ADD18C,0.700*%
D10*
X502Y502D02*
X1046Y1046D01*
X502Y502D02*
X1046Y1046D01*
X502Y1143D02*
X1143Y502D01*
X502Y1862D02*
X894Y1469D01*
X502Y2580D02*
X894Y2187D01*
X502Y1220D02*
X894Y1613D01*
Y1197D02*
Y2303D01*
X1719Y644D02*
X1862Y502D01*
X1220D02*
X1405Y686D01*
X1447Y644D02*
X2553D01*
X1938Y502D02*
X2081Y644D01*
X894Y1197D02*
X1447Y644D01*
Y2856D02*
X2553D01*
X502Y502D02*
Y13498D01*
Y2657D02*
X1204Y3359D01*
X502Y4017D02*
X1663Y2856D01*
X502Y4094D02*
X848Y4441D01*
X502Y4735D02*
X848Y4388D01*
X502Y3375D02*
X848Y3722D01*
X502Y4812D02*
X1396Y5707D01*
X894Y2303D02*
X1447Y2856D01*
X502Y3298D02*
X1196Y2604D01*
X2137Y2856D02*
X2420Y3138D01*
X502Y1938D02*
X1702Y3138D01*
X848Y3714D02*
X1424Y3138D01*
X848Y3714D02*
Y4866D01*
X1424Y3138D02*
X2576D01*
X2098D02*
X2381Y2856D01*
X2437Y644D02*
X2580Y502D01*
X502D02*
X15498D01*
X2553Y644D02*
X3105Y1197D01*
X2553Y2856D02*
X3105Y2303D01*
X2576Y3138D02*
X3152Y3714D01*
X3105Y1413D02*
X4017Y502D01*
X3105Y2131D02*
X4735Y502D01*
X3056Y3618D02*
X6172Y502D01*
X3152Y4240D02*
X6890Y502D01*
X2854Y946D02*
X3298Y502D01*
X3105Y1197D02*
Y2303D01*
X2696Y3259D02*
X5454Y502D01*
X2657D02*
X6904Y4748D01*
X2432Y5678D02*
X7609Y502D01*
X2671Y8313D02*
X10483Y502D01*
X1796Y13498D02*
X14793Y502D01*
X2704Y2704D02*
X5999Y5999D01*
X2704Y2704D02*
X5999Y5999D01*
X2515Y13498D02*
X15498Y515D01*
X1078Y13498D02*
X11371Y3206D01*
X3105Y1669D02*
X6530Y5093D01*
X2863Y5966D02*
X8327Y502D01*
X3152Y6396D02*
X9046Y502D01*
X3152Y7114D02*
X9764Y502D01*
X3152Y3714D02*
Y4866D01*
Y4588D02*
X5280Y6717D01*
X3063Y2345D02*
X6358Y5640D01*
X3152Y3870D02*
X5640Y6358D01*
X502Y5454D02*
X969Y4986D01*
X502Y5531D02*
X1037Y6066D01*
X502Y6172D02*
X1328Y5346D01*
X502Y6967D02*
X848Y7314D01*
X502Y7609D02*
X848Y7262D01*
X502Y6249D02*
X848Y6596D01*
X502Y6890D02*
X848Y6544D01*
Y4866D02*
X1424Y5442D01*
X848Y6254D02*
X1424Y5678D01*
X1849Y5442D02*
X2086Y5678D01*
X1714D02*
X1950Y5442D01*
X848Y6254D02*
Y7406D01*
X1424Y7982D01*
X848Y7314D02*
X1516Y7982D01*
X1753Y8218D01*
X502Y9764D02*
X848Y9417D01*
X502Y10483D02*
X943Y10041D01*
X502Y11201D02*
X1303Y10400D01*
X502Y12715D02*
X1285Y13498D01*
X502Y13433D02*
X567Y13498D01*
X502Y11919D02*
X1899Y10522D01*
X502Y11996D02*
X2004Y13498D01*
X502Y8327D02*
X1136Y7693D01*
X502Y7686D02*
X1229Y8413D01*
X848Y8794D02*
X1424Y8218D01*
X502Y9046D02*
X1566Y7982D01*
X502Y9123D02*
X848Y9469D01*
Y8794D02*
Y9946D01*
X502Y8404D02*
X870Y8773D01*
X848Y9946D02*
X1424Y10522D01*
Y5678D02*
X2576D01*
X1424Y5442D02*
X2576D01*
X2568D02*
X4562Y7436D01*
X2234Y7982D02*
X2471Y8218D01*
X2047D02*
X2284Y7982D01*
X1424D02*
X2576D01*
X1424Y8218D02*
X2576D01*
Y5678D02*
X3152Y6254D01*
Y7406D01*
X2576Y5442D02*
X3152Y4866D01*
X2931Y5086D02*
X4921Y7076D01*
X2576Y7982D02*
X3152Y7406D01*
X2764Y7793D02*
X3484Y8513D01*
X3152Y6744D02*
X4203Y7795D01*
X3123Y7434D02*
X3844Y8154D01*
X502Y12638D02*
X3268Y9872D01*
X502Y9841D02*
X4159Y13498D01*
X502Y13356D02*
X7606Y6252D01*
X1901Y10522D02*
X4877Y13498D01*
X1424Y10522D02*
X2576D01*
X502Y11278D02*
X2722Y13498D01*
X502D02*
X15498D01*
X502Y10559D02*
X3441Y13498D01*
X2576Y8218D02*
X3152Y8794D01*
Y9872D02*
X3631D01*
X3030Y8673D02*
X6498Y5204D01*
X3152Y8846D02*
X6498Y5499D01*
X3152Y9872D02*
X3631D01*
X2576Y10522D02*
X3152Y9946D01*
X2957Y10141D02*
X6314Y13498D01*
X2597Y10500D02*
X5596Y13498D01*
X9123Y502D02*
X10919Y2298D01*
X10559Y502D02*
X11852Y1794D01*
X9841Y502D02*
X11203Y1864D01*
X6874Y4748D02*
X7626D01*
X3375Y502D02*
X7622Y4748D01*
X10919Y2853D02*
X11272Y3206D01*
X6954Y4748D02*
X11201Y502D01*
X10919Y2147D02*
X11272Y1794D01*
X11978D01*
X10919Y2147D02*
Y2853D01*
X11272Y3206D02*
X11978D01*
X5531Y502D02*
X10982Y5953D01*
X6967Y502D02*
X11915Y5449D01*
X6249Y502D02*
X11266Y5519D01*
X6498Y5124D02*
X6874Y4748D01*
X6498Y5124D02*
Y5499D01*
X7626Y4748D02*
X8002Y5124D01*
X7622Y4748D02*
X8002Y5128D01*
Y5138D02*
X10919Y2220D01*
X8002Y5124D02*
Y5876D01*
X7649Y4772D02*
X11919Y502D01*
X8002Y5856D02*
X10962Y2896D01*
X10982Y5802D02*
X11335Y5449D01*
X10982Y5802D02*
Y6508D01*
X11335Y5449D02*
X12041D01*
X11345Y1794D02*
X12638Y502D01*
X12021Y1837D02*
X13356Y502D01*
X11996D02*
X15498Y4004D01*
X11978Y1794D02*
X12331Y2147D01*
X11978Y3206D02*
X12331Y2853D01*
X11278Y502D02*
X15498Y4722D01*
X12001Y5449D02*
X15498Y1952D01*
X13433Y502D02*
X15498Y2567D01*
X12715Y502D02*
X15498Y3285D01*
X14870Y502D02*
X15498Y1130D01*
X14152Y502D02*
X15498Y1848D01*
X12331Y2246D02*
X14075Y502D01*
X12331Y2147D02*
Y2853D01*
Y2273D02*
X15498Y5440D01*
X12380Y5788D02*
X15498Y2670D01*
X4094Y502D02*
X15498Y11906D01*
X7686Y502D02*
X15498Y8314D01*
X4812Y502D02*
X15498Y11188D01*
X6825Y13498D02*
X15498Y4825D01*
X7544Y13498D02*
X15498Y5544D01*
X3233Y13498D02*
X15498Y1233D01*
X6107Y13498D02*
X15498Y4107D01*
X12261Y2922D02*
X15498Y6159D01*
X11827Y3206D02*
X15498Y6877D01*
X8404Y502D02*
X15498Y7596D01*
Y502D02*
Y13498D01*
X12041Y5449D02*
X12394Y5802D01*
Y6493D02*
X15498Y3388D01*
X8002Y5128D02*
X13168Y10294D01*
X7626Y6252D02*
X8002Y5876D01*
X7606Y6252D02*
X8002Y5856D01*
X7657Y6220D02*
X12294Y10858D01*
X3631Y9872D02*
X3882Y9621D01*
X3631Y9872D02*
X3882Y9621D01*
X7251Y6252D02*
X7626D01*
X3882Y9621D02*
X7251Y6252D01*
X12394Y5802D02*
Y6508D01*
X8002Y5846D02*
X12548Y10393D01*
X11335Y6861D02*
X12041D01*
X10982Y6508D02*
X11335Y6861D01*
X12026D02*
X12394Y6493D01*
X12041Y6861D02*
X12394Y6508D01*
X4955Y8547D02*
X9906Y13498D01*
X4670D02*
X11321Y6847D01*
X3952Y13498D02*
X10982Y6468D01*
X3878Y9625D02*
X7751Y13498D01*
X3406Y9872D02*
X7033Y13498D01*
X4596Y8906D02*
X9188Y13498D01*
X4237Y9266D02*
X8469Y13498D01*
X5674Y7829D02*
X11343Y13498D01*
X5314Y8188D02*
X10625Y13498D01*
X6033Y7470D02*
X12062Y13498D01*
X5388D02*
X12026Y6861D01*
X12294Y10647D02*
Y11353D01*
X9699Y13498D02*
X12294Y10903D01*
Y11353D02*
X12647Y11706D01*
X10417Y13498D02*
X12429Y11487D01*
X11890Y6861D02*
X15498Y10469D01*
X12394Y5928D02*
X15498Y9033D01*
X12324Y6577D02*
X15498Y9751D01*
X12294Y10647D02*
X12647Y10294D01*
X13353D01*
X13706Y10647D01*
Y10929D02*
X15498Y9136D01*
X12903Y10294D02*
X15498Y7699D01*
X13487Y10429D02*
X15498Y8417D01*
X13706Y10647D02*
Y11353D01*
X13353Y11706D02*
X13706Y11353D01*
X6751Y6751D02*
X13498Y13498D01*
X6751Y6751D02*
X13498Y13498D01*
X8262D02*
X15498Y6262D01*
X7110Y6392D02*
X14217Y13498D01*
X11136D02*
X12929Y11706D01*
X6392Y7110D02*
X12780Y13498D01*
X8981D02*
X15498Y6981D01*
X11854Y13498D02*
X15498Y9854D01*
X13607Y11452D02*
X15498Y13343D01*
X13291Y13498D02*
X15498Y11291D01*
X13706Y10832D02*
X15498Y12625D01*
X12573Y13498D02*
X15498Y10573D01*
X12647Y11706D02*
X13353D01*
X13142D02*
X14935Y13498D01*
X14009D02*
X15498Y12009D01*
X14728Y13498D02*
X15498Y12728D01*
D15*
X10875Y1750D02*
X11625Y2500D01*
X2000Y1750D02*
X10875D01*
X3380Y9370D02*
X7250Y5500D01*
X2000Y9370D02*
X3380D01*
D16*
X1290Y2460D02*
X1469Y2280D01*
X1290Y1040D02*
X1469Y1220D01*
X2530D02*
X2710Y1040D01*
X2530Y2280D02*
X2710Y2460D01*
X11198Y2073D02*
X11378Y2253D01*
X11872D02*
X12052Y2073D01*
X11198Y2927D02*
X11378Y2747D01*
X11872D02*
X12052Y2927D01*
X11261Y5728D02*
X11441Y5908D01*
X11935D02*
X12115Y5728D01*
X11935Y6402D02*
X12115Y6582D01*
X11261D02*
X11441Y6402D01*
X12573Y11427D02*
X12753Y11247D01*
X12573Y10573D02*
X12753Y10753D01*
X13247D02*
X13427Y10573D01*
X13247Y11247D02*
X13427Y11427D01*
D17*
X2000Y1750D02*
D03*
X2000Y4290D02*
D03*
Y6830D02*
D03*
Y9370D02*
D03*
D18*
X7250Y5500D02*
D03*
X11625Y2500D02*
D03*
X13000Y11000D02*
D03*
X11688Y6155D02*
D03*
%TF.MD5,f2b651b34065df77005587203c9a8865*%
M02*
