%TF.GenerationSoftware,Altium Limited,Altium Designer,25.2.1 (25)*%
G04 Layer_Physical_Order=1*
G04 Layer_Color=255*
%FSLAX43Y43*%
%MOMM*%
%TF.SameCoordinates,5DC7A89A-D5EC-4FB4-B41D-27465311D439*%
%TF.FilePolarity,Positive*%
%TF.FileFunction,Copper,L1,Top,Signal*%
%TF.Part,Single*%
G01*
G75*
%TA.AperFunction,NonConductor*%
%ADD10C,0.203*%
%TA.AperFunction,SMDPad,CuDef*%
%ADD11R,2.710X3.350*%
%ADD12R,1.525X0.650*%
G04:AMPARAMS|DCode=13|XSize=1.25mm|YSize=0.6mm|CornerRadius=0.06mm|HoleSize=0mm|Usage=FLASHONLY|Rotation=270.000|XOffset=0mm|YOffset=0mm|HoleType=Round|Shape=RoundedRectangle|*
%AMROUNDEDRECTD13*
21,1,1.250,0.480,0,0,270.0*
21,1,1.130,0.600,0,0,270.0*
1,1,0.120,-0.240,-0.565*
1,1,0.120,-0.240,0.565*
1,1,0.120,0.240,0.565*
1,1,0.120,0.240,-0.565*
%
%ADD13ROUNDEDRECTD13*%
%ADD14R,0.650X0.700*%
%TA.AperFunction,Conductor*%
%ADD15C,0.200*%
%TA.AperFunction,NonConductor*%
%ADD16C,0.300*%
%TA.AperFunction,ComponentPad*%
%ADD17C,1.500*%
%TA.AperFunction,ViaPad*%
%ADD18C,0.700*%
D10*
X13806Y13065D02*
G03*
X13390Y13481I-416J0D01*
G01*
X13519Y11540D02*
G03*
X13806Y11935I-128J395D01*
G01*
X12910Y13481D02*
G03*
X12494Y13065I0J-416D01*
G01*
Y11935D02*
G03*
X12600Y11658I416J0D01*
G01*
X10951Y13498D02*
G03*
X10652Y13119I159J-433D01*
G01*
X12052Y13065D02*
G03*
X11749Y13498I-462J0D01*
G01*
X11590Y11473D02*
G03*
X12052Y11935I0J462D01*
G01*
X10652Y11882D02*
G03*
X11110Y11473I458J54D01*
G01*
X13806Y12369D02*
X14935Y13498D01*
X13805Y13087D02*
X14217Y13498D01*
X14728D02*
X15498Y12728D01*
X14009Y13498D02*
X15498Y12009D01*
X13806Y11935D02*
Y13065D01*
X15498Y10004D02*
Y13498D01*
X13706Y10832D02*
X15498Y12625D01*
X13844Y10252D02*
X15498Y11906D01*
X13806Y12265D02*
X15498Y10573D01*
X13806Y12984D02*
X15498Y11291D01*
X13607Y11452D02*
X15498Y13343D01*
X11749Y13498D02*
X15498D01*
X12910Y13481D02*
X13390D01*
X12573Y13498D02*
X12668Y13403D01*
X11854Y13498D02*
X12494Y12858D01*
X12712Y13430D02*
X12780Y13498D01*
X12052Y12770D02*
X12545Y13263D01*
X12294Y11353D02*
X12600Y11658D01*
X12494Y11935D02*
Y13065D01*
X12052Y12052D02*
X12494Y12494D01*
X10970Y10252D02*
X12517Y11799D01*
X15266Y10237D02*
X15498Y10469D01*
X14562Y10252D02*
X15498Y11188D01*
X14749Y10252D02*
X15251D01*
X14749D02*
X15251D01*
X13706Y10647D02*
Y11353D01*
X13697Y11655D02*
X15101Y10252D01*
X13706Y10929D02*
X14383Y10252D01*
X15251D02*
X15498Y10004D01*
X15251Y10252D02*
X15498Y10004D01*
X14749Y9248D02*
X15198Y8799D01*
X14667Y9248D02*
X15129Y8787D01*
X13949Y9248D02*
X14411Y8787D01*
X13816D02*
X14277Y9248D01*
X14534Y8787D02*
X14872Y9125D01*
X13519Y11540D02*
X13706Y11353D01*
X12647Y10294D02*
X13353D01*
X12294Y10647D02*
X12647Y10294D01*
X13487Y10429D02*
X13664Y10252D01*
X13353Y10294D02*
X13706Y10647D01*
X13231Y9248D02*
X13692Y8787D01*
X13212D02*
X15198D01*
X12407Y10252D02*
X12548Y10393D01*
X11778Y8186D02*
X12841Y9248D01*
X12512D02*
X13212Y8549D01*
X10417Y13498D02*
X10681Y13235D01*
X11935Y13372D02*
X12062Y13498D01*
X10378Y13252D02*
X10625Y13498D01*
X9699D02*
X9946Y13252D01*
X10652Y13119D02*
Y13252D01*
X12052Y12052D02*
X12494Y12494D01*
X12052Y12582D02*
X12494Y12140D01*
X12047Y11869D02*
X12429Y11487D01*
X12052Y11935D02*
Y13065D01*
X10652Y11748D02*
Y11882D01*
X8981Y13498D02*
X9227Y13252D01*
X7848D02*
X9198D01*
X9302D01*
X9198D02*
X9302D01*
X8262Y13498D02*
X8509Y13252D01*
X8223D02*
X8469Y13498D01*
X8941Y13252D02*
X9188Y13498D01*
X9660Y13252D02*
X9906Y13498D01*
X9302Y13252D02*
X10652D01*
X8815Y10252D02*
X10312Y11748D01*
X8575D02*
X10072Y10252D01*
X7848Y11748D02*
Y11998D01*
Y13002D02*
Y13252D01*
X8096Y10252D02*
X9593Y11748D01*
X11708Y11489D02*
X12294Y10903D01*
X10012Y11748D02*
X11509Y10252D01*
X12294Y10647D02*
Y11353D01*
X11110Y11473D02*
X11590D01*
X10252Y10252D02*
X11473Y11473D01*
X9533Y10252D02*
X10841Y11560D01*
X10252Y10252D02*
X11473Y11473D01*
X11688Y10252D02*
X12294Y10858D01*
X10989Y11490D02*
X12227Y10252D01*
X11075Y9248D02*
X12138Y8186D01*
X11059D02*
X12122Y9248D01*
X10118Y8681D02*
X10685Y9248D01*
X9459Y8741D02*
X9967Y9248D01*
X10357D02*
X11420Y8186D01*
X9302Y11748D02*
X10652D01*
X7857D02*
X9354Y10252D01*
X9294Y11748D02*
X10790Y10252D01*
X7882Y8741D02*
X10118D01*
X9198Y11748D02*
X9302D01*
X7848D02*
X9198D01*
X9302D01*
X8741Y8741D02*
X9248Y9248D01*
X8741Y8741D02*
X9248Y9248D01*
X8920D02*
X9428Y8741D01*
X8202Y9248D02*
X8709Y8741D01*
X8022D02*
X8530Y9248D01*
X7882Y8600D02*
X8022Y8741D01*
X15498Y4793D02*
Y4977D01*
Y6063D02*
Y6247D01*
X15363Y3523D02*
X15498Y3388D01*
X15177Y3523D02*
X15498D01*
X14028Y3252D02*
X14173Y3397D01*
X13927Y3523D02*
X14173Y3277D01*
X13948Y3252D02*
X14173D01*
X15498Y502D02*
Y3523D01*
X15402Y3188D02*
X15498Y3285D01*
X15402Y1748D02*
Y3252D01*
X15177D02*
X15402D01*
X14173D02*
Y3523D01*
X13264Y3206D02*
X13581Y3523D01*
X15177Y3252D02*
Y3523D01*
X12496Y8186D02*
X13559Y9248D01*
X10164Y4124D02*
X13212D01*
Y3523D02*
X14173D01*
X13212D02*
Y4124D01*
Y8186D02*
Y8787D01*
X11794Y9248D02*
X12856Y8186D01*
X10118D02*
X13212D01*
X11889Y4124D02*
X12808Y3206D01*
X11827D02*
X12745Y4124D01*
X12607D02*
X13526Y3206D01*
X12261Y2922D02*
X13212Y3872D01*
X11978Y3206D02*
X12331Y2853D01*
X11170Y4124D02*
X12644Y2650D01*
Y1794D02*
Y3206D01*
X15402Y2470D02*
X15498Y2567D01*
X15402Y2767D02*
X15498Y2670D01*
X15402Y1752D02*
X15498Y1848D01*
X15402Y2048D02*
X15498Y1952D01*
X13948Y1748D02*
X15402D01*
X14983D02*
X15498Y1233D01*
X14152Y502D02*
X15398Y1748D01*
X14870Y502D02*
X15498Y1130D01*
X14265Y1748D02*
X15498Y515D01*
X13500Y1794D02*
X14793Y502D01*
X12782Y1794D02*
X14075Y502D01*
X13433D02*
X14680Y1748D01*
X12644Y3206D02*
X13948D01*
X12331Y2273D02*
X12644Y2586D01*
X12331Y2246D02*
X12644Y1932D01*
X12331Y2147D02*
Y2853D01*
X11978Y1794D02*
X12331Y2147D01*
X12021Y1837D02*
X13356Y502D01*
X11996D02*
X13289Y1794D01*
X12715Y502D02*
X13962Y1748D01*
X12644Y1794D02*
X13948D01*
X12644Y1932D02*
X12782Y1794D01*
X11278Y502D02*
X12644Y1868D01*
X11345Y1794D02*
X12638Y502D01*
X10341Y8186D02*
X11404Y9248D01*
X9638D02*
X10701Y8186D01*
X10118D02*
Y8741D01*
X10164Y3698D02*
X10590Y4124D01*
X10452D02*
X11371Y3206D01*
X10390D02*
X11309Y4124D01*
X10606Y2703D02*
X12027Y4124D01*
X10164Y3694D02*
X10962Y2896D01*
X10164Y3523D02*
Y4124D01*
X9989Y3523D02*
X10164Y3698D01*
X9671Y3206D02*
X9989Y3523D01*
X7882Y7517D02*
Y8741D01*
Y7379D02*
Y7517D01*
X7836Y4793D02*
Y4958D01*
Y6063D02*
Y6247D01*
Y7292D02*
Y7517D01*
Y4793D02*
Y4958D01*
X9302Y3252D02*
Y3523D01*
X8298Y3252D02*
Y3523D01*
X9616D02*
X9934Y3206D01*
X9302Y3523D02*
X10164D01*
X8179D02*
X8298Y3404D01*
X7836Y3523D02*
Y4793D01*
X7848Y1748D02*
Y3252D01*
X11272Y3206D02*
X11978D01*
X10919Y2147D02*
Y2853D01*
X11272Y3206D01*
X10606Y2534D02*
X10919Y2220D01*
Y2147D02*
X11272Y1794D01*
X10606Y1815D02*
X11919Y502D01*
X11272Y1794D02*
X11978D01*
X10559Y502D02*
X11852Y1794D01*
X10606Y1985D02*
X10919Y2298D01*
X10606Y1794D02*
Y3206D01*
X10415Y1794D02*
X10606Y1985D01*
X9302Y3206D02*
X10606D01*
X9302Y1794D02*
X10606D01*
X7848Y3252D02*
X8298D01*
X7848Y1748D02*
X9302D01*
X9908Y1794D02*
X11201Y502D01*
X9841D02*
X11203Y1864D01*
X9236Y1748D02*
X10483Y502D01*
X9123D02*
X10415Y1794D01*
X8404Y502D02*
X9697Y1794D01*
X8517Y1748D02*
X9764Y502D01*
X6825Y13498D02*
X7322Y13002D01*
X6536D02*
X7033Y13498D01*
X7544D02*
X7848Y13194D01*
X7254Y13002D02*
X7751Y13498D01*
X5817Y13002D02*
X6314Y13498D01*
X5388D02*
X5885Y13002D01*
X6107Y13498D02*
X6604Y13002D01*
X6888Y11998D02*
X8635Y10252D01*
X6170Y11998D02*
X7917Y10252D01*
X7378D02*
X8875Y11748D01*
X6659Y10252D02*
X8156Y11748D01*
X5941Y10252D02*
X7688Y11998D01*
X5451D02*
X7198Y10252D01*
X7607Y11998D02*
X7848Y11757D01*
X5099Y13002D02*
X5596Y13498D01*
X502D02*
X10951D01*
X3751Y11998D02*
X7848D01*
X3751Y13002D02*
X7848D01*
X4381D02*
X4877Y13498D01*
X3952D02*
X4448Y13002D01*
X4670Y13498D02*
X5167Y13002D01*
X4015Y11998D02*
X5762Y10252D01*
X3152Y8899D02*
X6251Y11998D01*
X4733D02*
X6480Y10252D01*
X2764Y7793D02*
X6970Y11998D01*
X3152Y9617D02*
X5533Y11998D01*
X2957Y10141D02*
X4814Y11998D01*
X3524Y11771D02*
X5396Y9899D01*
X6765Y9248D02*
X7882Y8131D01*
X6251Y10252D02*
X14749D01*
X7483Y9248D02*
X7991Y8741D01*
X6251Y9248D02*
X14749D01*
X5749Y10252D02*
X6251D01*
X5749D02*
X6251D01*
X6149Y9146D02*
X7836Y7459D01*
X7292Y7292D02*
X7882Y7882D01*
X6573Y7292D02*
X7882Y8600D01*
X7292Y7292D02*
X7882Y7882D01*
X6041Y7292D02*
X7836D01*
X5855D02*
X7812Y9248D01*
X5789Y8787D02*
X7285Y7292D01*
X5539D02*
X6041D01*
X5498Y10001D02*
X5749Y10252D01*
X5498Y10001D02*
X5749Y10252D01*
X5071Y8069D02*
X5848Y7292D01*
X3027Y7530D02*
X5498Y10001D01*
X3164Y11412D02*
X5037Y9539D01*
X2805Y11053D02*
X4678Y9180D01*
X2502Y10638D02*
X4319Y8821D01*
X5430Y8428D02*
X6566Y7292D01*
X3582Y6579D02*
X6251Y9248D01*
X5539Y7292D02*
X6041D01*
X5288Y7041D02*
X5539Y7292D01*
X4712Y7709D02*
X5334Y7087D01*
X4352Y7350D02*
X4975Y6727D01*
X5288Y7041D02*
X5539Y7292D01*
X3662Y13002D02*
X4159Y13498D01*
X3233D02*
X3730Y13002D01*
X3249D02*
X3751D01*
X3249D02*
X3751D01*
X2998Y12751D02*
X3249Y13002D01*
X2515Y13498D02*
X3130Y12883D01*
X2998Y12751D02*
X3249Y13002D01*
X1796Y13498D02*
X2771Y12524D01*
X1749Y11502D02*
X2998Y12751D01*
X2597Y10500D02*
X4096Y11998D01*
X2502Y10749D02*
X3751Y11998D01*
X1498Y10522D02*
Y10749D01*
Y11251D01*
X2502Y10522D02*
Y10749D01*
X1078Y13498D02*
X2412Y12164D01*
X502Y11996D02*
X2004Y13498D01*
X502Y13356D02*
X2053Y11805D01*
X502Y11278D02*
X2722Y13498D01*
X502Y12715D02*
X1285Y13498D01*
X502Y13433D02*
X567Y13498D01*
X502Y12638D02*
X1694Y11446D01*
X1498Y11251D02*
X1749Y11502D01*
X502Y10559D02*
X3441Y13498D01*
X1498Y11251D02*
X1749Y11502D01*
X502Y9841D02*
X1498Y10838D01*
Y10749D02*
Y11251D01*
X502Y11919D02*
X1498Y10923D01*
X502Y11201D02*
X1303Y10400D01*
X3152Y9269D02*
X3959Y8462D01*
X3152Y8794D02*
Y9946D01*
X3030Y8673D02*
X3600Y8102D01*
X2576Y8218D02*
X3152Y8794D01*
X2576Y10522D02*
X3152Y9946D01*
X1424Y8218D02*
X2576D01*
X1424Y7982D02*
X2576D01*
X2671Y8313D02*
X3241Y7743D01*
X2047Y8218D02*
X2284Y7982D01*
X2576D02*
X3027Y7530D01*
X2234Y7982D02*
X2471Y8218D01*
X1516Y7982D02*
X1753Y8218D01*
X848Y7406D02*
X1424Y7982D01*
X848Y7314D02*
X1516Y7982D01*
X848Y9946D02*
X1424Y10522D01*
X502Y10483D02*
X943Y10041D01*
X848Y8794D02*
X1424Y8218D01*
X502Y8404D02*
X870Y8773D01*
X848Y8794D02*
Y9946D01*
X502Y9764D02*
X848Y9417D01*
X502Y9123D02*
X848Y9469D01*
X502Y7686D02*
X1229Y8413D01*
X502Y9046D02*
X1566Y7982D01*
X502Y8327D02*
X1136Y7693D01*
X502Y6967D02*
X848Y7314D01*
X502Y7609D02*
X848Y7262D01*
X502Y6890D02*
X848Y6544D01*
X7626Y6252D02*
X7836Y6042D01*
X6041Y6288D02*
X7836D01*
Y6063D02*
Y6247D01*
X7606Y6252D02*
X7836Y6022D01*
X7657Y6220D02*
X7725Y6288D01*
X3993Y6991D02*
X4616Y6368D01*
X6874Y6252D02*
X7626D01*
X6498Y5876D02*
X6874Y6252D01*
X5368Y5616D02*
X7848Y3136D01*
X6498Y5124D02*
X6874Y4748D01*
X5009Y5257D02*
X7848Y2417D01*
X6133Y6288D02*
X6522Y5899D01*
X5727Y5975D02*
X6498Y5204D01*
Y5124D02*
Y5876D01*
X3634Y6632D02*
X4257Y6009D01*
X2568Y5442D02*
X6375Y9248D01*
X3331Y6328D02*
X3582Y6579D01*
X3219Y6328D02*
X3897Y5650D01*
X3331Y6328D02*
X3582Y6579D01*
X3152Y6328D02*
X3331D01*
X3152D02*
X3331D01*
X2931Y5086D02*
X7093Y9248D01*
X2704Y2704D02*
X6288Y6288D01*
X3063Y2345D02*
X6498Y5780D01*
X2704Y2704D02*
X6288Y6288D01*
X3792Y4039D02*
X6041Y6288D01*
X3132Y4885D02*
X5288Y7041D01*
X2863Y5966D02*
X3538Y5291D01*
X7649Y4772D02*
X7836Y4585D01*
X6954Y4748D02*
X7836Y3867D01*
Y3523D02*
X8298D01*
X4094Y502D02*
X7836Y4244D01*
X7626Y4748D02*
X7836Y4958D01*
X7622Y4748D02*
X7836Y4962D01*
X6874Y4748D02*
X7626D01*
X4650Y4897D02*
X9046Y502D01*
X4291Y4538D02*
X8327Y502D01*
X7686D02*
X8933Y1748D01*
X6967Y502D02*
X8214Y1748D01*
X5531Y502D02*
X7848Y2819D01*
X4812Y502D02*
X7836Y3525D01*
X6249Y502D02*
X7848Y2101D01*
X3105Y1669D02*
X6530Y5093D01*
X2657Y502D02*
X6904Y4748D01*
X3541Y3788D02*
X3792Y4039D01*
X502Y502D02*
X15498D01*
X3541Y3788D02*
X3792Y4039D01*
X3152Y3788D02*
X3541D01*
X3152D02*
X3541D01*
X3931Y4179D02*
X7609Y502D01*
X3375D02*
X7622Y4748D01*
X3572Y3820D02*
X6890Y502D01*
X3056Y3618D02*
X6172Y502D01*
X3105Y2131D02*
X4735Y502D01*
X2696Y3259D02*
X5454Y502D01*
X3105Y1413D02*
X4017Y502D01*
X2576Y5678D02*
X3152Y6254D01*
X2432Y5678D02*
X3179Y4931D01*
X2576Y5442D02*
X3132Y4885D01*
X1424Y5442D02*
X2576D01*
X1849D02*
X2086Y5678D01*
X1714D02*
X1950Y5442D01*
X1424Y5678D02*
X2576D01*
X3039Y3788D02*
X3152D01*
X3039Y4792D02*
X3132Y4885D01*
X3039Y3788D02*
X3152D01*
X2576Y3138D02*
X3152Y3714D01*
X848D02*
Y4866D01*
X1424Y5442D01*
X848Y3714D02*
X1424Y3138D01*
X848Y6254D02*
X1424Y5678D01*
X502Y6172D02*
X1328Y5346D01*
X502Y4812D02*
X1396Y5707D01*
X502Y5531D02*
X1037Y6066D01*
X848Y6254D02*
Y7406D01*
X502Y6249D02*
X848Y6596D01*
X502Y5454D02*
X969Y4986D01*
X502Y3375D02*
X848Y3722D01*
X502Y4017D02*
X1663Y2856D01*
X502Y3298D02*
X1196Y2604D01*
X502Y2657D02*
X1204Y3359D01*
X502Y4735D02*
X848Y4388D01*
X502Y502D02*
Y13498D01*
Y4094D02*
X848Y4441D01*
X2553Y2856D02*
X3105Y2303D01*
X1424Y3138D02*
X2576D01*
X3105Y1197D02*
Y2303D01*
X2137Y2856D02*
X2420Y3138D01*
X2098D02*
X2381Y2856D01*
X1447D02*
X2553D01*
Y644D02*
X3105Y1197D01*
X2854Y946D02*
X3298Y502D01*
X2437Y644D02*
X2580Y502D01*
X1938D02*
X2081Y644D01*
X1719D02*
X1862Y502D01*
X1447Y644D02*
X2553D01*
X894Y2303D02*
X1447Y2856D01*
X502Y1938D02*
X1702Y3138D01*
X894Y1197D02*
Y2303D01*
X502Y1862D02*
X894Y1469D01*
X502Y2580D02*
X894Y2187D01*
X502Y1220D02*
X894Y1613D01*
Y1197D02*
X1447Y644D01*
X1220Y502D02*
X1405Y686D01*
X502Y502D02*
X1046Y1046D01*
X502Y1143D02*
X1143Y502D01*
X502D02*
X1046Y1046D01*
D11*
X11688Y6155D02*
D03*
D12*
X14376Y8060D02*
D03*
Y6790D02*
D03*
Y5520D02*
D03*
Y4250D02*
D03*
X9000D02*
D03*
Y5520D02*
D03*
Y6790D02*
D03*
Y8060D02*
D03*
D13*
X13150Y12500D02*
D03*
X11350D02*
D03*
D14*
X8575D02*
D03*
X9925D02*
D03*
X14675Y2500D02*
D03*
X13325D02*
D03*
X8575D02*
D03*
X9925D02*
D03*
D15*
X11625D02*
X13325D01*
X11688Y6155D02*
Y6475D01*
X10328Y7835D02*
X11688Y6475D01*
X9225Y7835D02*
X10328D01*
X9000Y8060D02*
X9225Y7835D01*
X8980Y5500D02*
X9000Y5520D01*
X7250Y5500D02*
X8980D01*
X3080Y6830D02*
X6000Y9750D01*
X15000D01*
X2000Y6830D02*
X3080D01*
X14376Y6790D02*
X14814D01*
X15700Y7677D01*
Y9050D01*
X15000Y9750D02*
X15700Y9050D01*
X5790Y6790D02*
X9000D01*
X3290Y4290D02*
X5790Y6790D01*
X2000Y4290D02*
X3290D01*
X13000Y11000D02*
X13075Y11075D01*
Y12425D01*
X13150Y12500D01*
X9925D02*
X11350D01*
X14376Y5520D02*
Y6790D01*
Y4250D02*
Y5520D01*
X10811Y5278D02*
X11688Y6155D01*
X9925Y2500D02*
X11625D01*
X14376Y4250D02*
X14450D01*
X14675Y4025D01*
Y2500D02*
Y4025D01*
X8800Y2725D02*
Y4050D01*
X9000Y4250D01*
X8575Y2500D02*
X8800Y2725D01*
X9000Y4250D02*
Y5520D01*
X3500Y12500D02*
X8575D01*
X2000Y11000D02*
X3500Y12500D01*
X2000Y9370D02*
Y11000D01*
D16*
X13450Y12500D02*
X13704D01*
X13150Y13125D02*
Y13379D01*
X12596Y12500D02*
X12850D01*
X13247Y11247D02*
X13427Y11427D01*
X13247Y10753D02*
X13427Y10573D01*
X12573D02*
X12753Y10753D01*
X12573Y11427D02*
X12753Y11247D01*
X9000Y8385D02*
Y8639D01*
X13325Y1896D02*
Y2150D01*
Y2850D02*
Y3104D01*
X12746Y2500D02*
X13000D01*
X11872Y2747D02*
X12052Y2927D01*
X11688Y4226D02*
Y4480D01*
Y7830D02*
Y8084D01*
X9762Y8060D02*
X10017D01*
X7984D02*
X8238D01*
X11198Y2927D02*
X11378Y2747D01*
X11872Y2253D02*
X12052Y2073D01*
X11198D02*
X11378Y2253D01*
X10250Y2500D02*
X10504D01*
X9925Y1896D02*
Y2150D01*
Y2850D02*
Y3104D01*
X2530Y2280D02*
X2710Y2460D01*
X2530Y1220D02*
X2710Y1040D01*
X1290Y2460D02*
X1469Y2280D01*
X1290Y1040D02*
X1469Y1220D01*
D17*
X2000Y1750D02*
D03*
X2000Y4290D02*
D03*
Y6830D02*
D03*
Y9370D02*
D03*
D18*
X7250Y5500D02*
D03*
X11625Y2500D02*
D03*
X13000Y11000D02*
D03*
X11688Y6155D02*
D03*
%TF.MD5,3a6a11facee30e15a32fa4364795345f*%
M02*
