<svg width="1542" height="384" xmlns="http://www.w3.org/2000/svg" xmlns:xlink="http://www.w3.org/1999/xlink" xml:space="preserve" overflow="hidden"><g transform="translate(131 -168)"><path d="M1278.36 677.598C1328.99 677.598 1367.85 716.336 1367.85 766.964 1367.85 817.592 1328.99 856.458 1278.36 856.458 1227.73 856.458 1188.99 817.592 1188.99 766.964 1188.99 716.336 1227.73 677.598 1278.36 677.598ZM1188.99 677.598 1188.99 677.598ZM1368.11 856.714 1368.11 856.714Z" fill-rule="evenodd" transform="matrix(1 0 0 1.00052 -638.679 -407.616)"/><path d="M1435.61 657.398 1429.99 649.727 1423.98 642.44 1417.59 635.408 1410.81 628.632 1403.78 622.24 1396.49 616.231 1388.82 610.605 1380.89 605.236 1372.71 600.377 1364.4 595.903 1355.71 591.939 1346.89 588.36 1337.94 585.036 1328.86 582.223 1319.65 580.049 1310.32 578.26 1300.86 576.853 1291.4 575.958 1281.94 575.575 1272.48 575.703 1262.89 576.214 1253.43 577.237 1244.1 578.771 1234.76 580.689 1225.56 583.118 1216.48 585.803 1207.53 589.127 1198.84 592.834 1190.27 597.053 1181.96 601.656 1173.91 606.642 1166.11 612.012 1158.44 617.765 1151.28 623.901 1144.25 630.422 1137.73 637.198 1131.46 644.357 1125.45 651.773 1119.95 659.571 1114.84 667.626 1109.98 675.808 1105.64 684.246 1101.8 692.94 1098.35 701.761 1095.28 710.711 1092.72 719.916 1090.68 729.121 1089.02 738.454 1087.74 747.915 1087.1 757.376 1086.84 766.964 1087.1 776.425 1087.74 785.886 1089.02 795.347 1090.55 804.68 1092.72 814.012 1095.28 823.09 1098.22 832.295 1101.67 841.116 1105.64 849.81 1109.98 858.248 1114.58 866.558 1119.7 874.485 1125.2 882.284 1131.08 889.699 1137.34 896.858 1143.99 903.762 1150.89 910.155 1158.18 916.419 1165.72 922.172 1173.52 927.542 1181.58 932.528 1190.02 937.131 1198.45 941.35 1207.28 945.057 1216.1 948.381 1225.17 951.322 1234.38 953.751 1243.71 955.669 1253.17 957.203 1262.51 958.226 1272.09 958.737 1281.56 958.865 1291.02 958.482 1300.48 957.587 1309.94 956.18 1319.27 954.39 1328.48 952.217 1337.68 949.532 1346.63 946.464 1355.45 942.884 1364.02 938.793 1372.46 934.318 1380.51 929.46 1388.44 924.218 1396.11 918.593 1403.52 912.456 1410.55 906.191 1417.2 899.415 1423.59 892.384 1429.6 884.969 1435.36 877.298 1401.48 853.646 1396.87 859.527 1392.14 865.408 1387.16 870.905 1381.92 876.147 1376.42 881.133 1370.67 885.863 1364.66 890.338 1358.52 894.429 1352 898.265 1345.48 901.845 1338.7 904.785 1331.8 907.726 1324.77 910.155 1317.61 912.328 1310.45 914.118 1303.16 915.524 1295.75 916.547 1288.33 917.186 1280.92 917.57 1273.37 917.442 1265.96 917.059 1258.54 916.291 1251.13 915.141 1243.84 913.607 1236.68 911.689 1229.52 909.515 1222.62 906.831 1215.71 903.762 1209.06 900.566 1202.54 896.986 1196.15 893.023 1190.02 888.804 1184.13 884.329 1178.38 879.471 1173.01 874.357 1167.77 868.987 1162.91 863.362 1158.31 857.609 1153.96 851.472 1150 845.208 1146.29 838.815 1142.84 832.167 1139.9 825.391 1137.09 818.359 1134.78 811.328 1132.74 804.168 1131.08 796.881 1129.8 789.593 1128.9 782.178 1128.26 774.763 1128.14 767.22 1128.26 759.805 1128.9 752.389 1129.8 744.974 1131.08 737.687 1132.74 730.399 1134.78 723.24 1137.09 716.08 1139.77 709.177 1142.84 702.401 1146.29 695.752 1150 689.232 1153.96 682.968 1158.31 676.959 1163.04 671.078 1168.03 665.452 1173.14 660.083 1178.64 654.969 1184.26 650.238 1190.14 645.636 1196.28 641.417 1202.67 637.581 1209.19 633.874 1215.97 630.677 1222.74 627.865 1229.78 625.308 1236.81 623.007 1244.1 621.089 1251.38 619.555 1258.67 618.404 1266.09 617.637 1273.63 617.253 1281.04 617.126 1288.46 617.509 1295.87 618.148 1303.29 619.171 1310.58 620.577 1317.86 622.367 1325.02 624.541 1332.06 626.97 1338.96 629.783 1345.61 633.107 1352.26 636.559 1358.65 640.394 1364.78 644.613 1370.79 648.96 1376.55 653.69 1382.17 658.676 1387.41 664.046 1392.4 669.543 1397.13 675.297 1401.35 681.306 1435.61 657.398ZM1086.71 958.609 1086.71 958.609ZM1470.26 575.83 1470.26 575.83Z" fill-rule="evenodd" transform="matrix(1 0 0 1.00052 -638.679 -407.616)"/><path d="M1853.81 575.319C1962.48 575.319 2045.58 658.421 2045.58 767.092 2045.58 875.763 1962.48 958.865 1853.81 958.865 1745.13 958.865 1662.03 875.763 1662.03 767.092 1662.03 658.421 1745.13 575.319 1853.81 575.319ZM1853.68 617.381C1938.44 617.381 2003.26 682.201 2003.26 766.964 2003.26 851.728 1938.44 916.547 1853.68 916.547 1768.91 916.547 1704.09 851.728 1704.09 766.964 1704.09 682.201 1768.91 617.381 1853.68 617.381ZM1662.03 575.319 1662.03 575.319ZM2045.71 958.993 2045.71 958.993Z" fill-rule="evenodd" transform="matrix(1 0 0 1.00052 -638.679 -407.616)"/><path d="M703.168 575.319C811.839 575.319 894.941 658.421 894.941 767.092 894.941 875.763 811.839 958.865 703.168 958.865 594.496 958.865 511.395 875.763 511.395 767.092 511.395 658.421 594.496 575.319 703.168 575.319ZM703.04 617.381C787.804 617.381 852.623 682.201 852.623 766.964 852.623 851.728 787.804 916.547 703.04 916.547 618.276 916.547 553.457 851.728 553.457 766.964 553.457 682.201 618.276 617.381 703.04 617.381ZM511.395 575.319 511.395 575.319ZM895.069 958.993 895.069 958.993Z" fill-rule="evenodd" transform="matrix(1 0 0 1.00052 -638.679 -407.616)"/><path d="M990.827 786.269 882.156 786.269 882.156 747.915 1099.5 747.915 1099.5 786.269 990.827 786.269Z" fill-rule="evenodd" transform="matrix(1 0 0 1.00052 -638.679 -407.616)"/><path d="M1502.22 786.269 1336.02 786.269 1336.02 747.915 1668.43 747.915 1668.43 786.269 1502.22 786.269Z" fill-rule="evenodd" transform="matrix(1 0 0 1.00052 -638.679 -407.616)"/><path d="M703.168 786.269 607.281 786.269 607.281 747.915 799.054 747.915 799.054 786.269 703.168 786.269Z" fill-rule="evenodd" transform="matrix(1 0 0 1.00052 -638.679 -407.616)"/><path d="M1853.81 786.269 1757.92 786.269 1757.92 747.915 1949.69 747.915 1949.69 786.269 1853.81 786.269Z" fill-rule="evenodd" transform="matrix(1 0 0 1.00052 -638.679 -407.616)"/><path d="M1853.81 862.979 1834.63 862.979 1834.63 671.206 1872.98 671.206 1872.98 862.979 1853.81 862.979Z" fill-rule="evenodd" transform="matrix(1 0 0 1.00052 -638.679 -407.616)"/></g></svg>