M48
;Layer_Color=9474304
;FILE_FORMAT=4:3
METRIC,LZ
;TYPE=PLATED
T01F00S00C0.300
T02F00S00C0.711
T03F00S00C0.762
T04F00S00C0.900
T05F00S00C1.000
T06F00S00C1.100
T08F00S00C2.500
%
T01
X0061375Y0014086
Y0015586
X0060375Y0014836
X0060396Y0018475
X0061396Y0017725
Y0019225
X005425Y001825
Y001725
Y001625
X005325
Y001725
Y001825
X005225
Y001725
Y001625
X004875Y00165
Y0018
X004775Y001725
X002925Y002525
X002825Y002625
X002775Y002775
X002675
X002725Y002875
X002825Y002975
X002725Y003075
X002525
X002325
X002425Y002975
X002625
X002525Y002875
X002325
X002365Y00275
X002375Y0026
X002525Y002525
Y00235
Y0022
X002625Y002275
X002385Y00233
X002725Y002525
X002625Y002625
X0021Y002725
X0018951Y0026237
X0017Y002725
X001475Y002875
Y003075
X0017Y002225
X0019Y003725
X001275Y003075
X001075
X001175Y002975
X000975
X000875Y002875
Y003075
X000725Y002975
X00055Y002875
Y003075
X000375Y002975
X000175Y002875
Y003075
X001075Y002875
X001125Y002775
X001025
X00095Y002625
X00085Y002525
X00105
X00115Y002625
X00125Y002525
X0013Y00237
Y00222
X0012Y002295
X001425Y0026
Y00275
X001375Y002975
X001275Y002875
T02
X002585Y00628
T03
X005478Y003975
X005224
X00497
X004716
X004462
X004208
X003954
X0037
X003446
X003192
X002938
X002684
X00243
X002176
X001922
X001668
X001414
X00116
X000906
X000652
Y005753
X000906
X00116
X001414
X001668
X001922
X002176
X00243
X002684
X002938
X003192
X003446
X0037
X003954
X004208
X004462
X004716
X00497
X005224
X005478
T04
X003875Y006475
X004075
X004275
X004475
X004675
X004875
X005075
X005275
Y007875
X005075
X004875
X004675
X004475
X004275
X004075
X003875
T05
X003735Y002805
Y003305
X00205Y006675
X00155
T06
X00143Y00815
X00215
T08
X001955Y0003
Y001039
Y001778
M30
