%TF.GenerationSoftware,Altium Limited,Altium Designer,25.2.1 (25)*%
G04 Layer_Color=8388736*
%FSLAX43Y43*%
%MOMM*%
%TF.SameCoordinates,73B19FC9-5684-49D0-80EE-29C7FECE4A2C*%
%TF.FilePolarity,Negative*%
%TF.FileFunction,Soldermask,Top*%
%TF.Part,Single*%
G01*
G75*
%TA.AperFunction,SMDPad,CuDef*%
G04:AMPARAMS|DCode=36|XSize=0.93mm|YSize=0.37mm|CornerRadius=0.103mm|HoleSize=0mm|Usage=FLASHONLY|Rotation=270.000|XOffset=0mm|YOffset=0mm|HoleType=Round|Shape=RoundedRectangle|*
%AMROUNDEDRECTD36*
21,1,0.930,0.165,0,0,270.0*
21,1,0.725,0.370,0,0,270.0*
1,1,0.205,-0.083,-0.363*
1,1,0.205,-0.083,0.363*
1,1,0.205,0.083,0.363*
1,1,0.205,0.083,-0.363*
%
%ADD36ROUNDEDRECTD36*%
G04:AMPARAMS|DCode=37|XSize=0.93mm|YSize=0.37mm|CornerRadius=0.103mm|HoleSize=0mm|Usage=FLASHONLY|Rotation=180.000|XOffset=0mm|YOffset=0mm|HoleType=Round|Shape=RoundedRectangle|*
%AMROUNDEDRECTD37*
21,1,0.930,0.165,0,0,180.0*
21,1,0.725,0.370,0,0,180.0*
1,1,0.205,-0.363,0.083*
1,1,0.205,0.363,0.083*
1,1,0.205,0.363,-0.083*
1,1,0.205,-0.363,-0.083*
%
%ADD37ROUNDEDRECTD37*%
G04:AMPARAMS|DCode=38|XSize=3.55mm|YSize=3.55mm|CornerRadius=0.5mm|HoleSize=0mm|Usage=FLASHONLY|Rotation=90.000|XOffset=0mm|YOffset=0mm|HoleType=Round|Shape=RoundedRectangle|*
%AMROUNDEDRECTD38*
21,1,3.550,2.550,0,0,90.0*
21,1,2.550,3.550,0,0,90.0*
1,1,1.000,1.275,1.275*
1,1,1.000,1.275,-1.275*
1,1,1.000,-1.275,-1.275*
1,1,1.000,-1.275,1.275*
%
%ADD38ROUNDEDRECTD38*%
%ADD39R,1.200X1.450*%
%ADD40R,0.850X0.800*%
%TA.AperFunction,ComponentPad*%
%ADD41C,1.650*%
%ADD42C,3.466*%
%ADD43C,1.558*%
%ADD44R,1.558X1.558*%
%ADD45C,2.150*%
%TA.AperFunction,ViaPad*%
%ADD46C,0.850*%
D36*
X14700Y36000D02*
D03*
X15100D02*
D03*
X15500D02*
D03*
X15900D02*
D03*
X16300D02*
D03*
X16700D02*
D03*
X17100D02*
D03*
X17500D02*
D03*
X17900D02*
D03*
X22300D02*
D03*
X21900D02*
D03*
X21500D02*
D03*
X21100D02*
D03*
X20700D02*
D03*
X20300D02*
D03*
X19900D02*
D03*
X19500D02*
D03*
X19100D02*
D03*
X18700D02*
D03*
X18300D02*
D03*
X22300Y26000D02*
D03*
X21900D02*
D03*
X21500D02*
D03*
X21100D02*
D03*
X20700D02*
D03*
X20300D02*
D03*
X19900D02*
D03*
X19500D02*
D03*
X19100D02*
D03*
X14700D02*
D03*
X15100D02*
D03*
X15500D02*
D03*
X15900D02*
D03*
X16300D02*
D03*
X16700D02*
D03*
X17100D02*
D03*
X17500D02*
D03*
X17900D02*
D03*
X18300D02*
D03*
X18700D02*
D03*
D37*
X23500Y34800D02*
D03*
Y34400D02*
D03*
Y34000D02*
D03*
Y33600D02*
D03*
Y33200D02*
D03*
Y32800D02*
D03*
Y32400D02*
D03*
Y32000D02*
D03*
Y31600D02*
D03*
Y27200D02*
D03*
Y27600D02*
D03*
Y28000D02*
D03*
Y28400D02*
D03*
Y28800D02*
D03*
Y29200D02*
D03*
Y29600D02*
D03*
Y30000D02*
D03*
Y30400D02*
D03*
Y30800D02*
D03*
Y31200D02*
D03*
X13500Y27200D02*
D03*
Y27600D02*
D03*
Y28000D02*
D03*
Y28400D02*
D03*
Y28800D02*
D03*
Y29200D02*
D03*
Y29600D02*
D03*
Y30000D02*
D03*
Y30400D02*
D03*
Y34800D02*
D03*
Y34400D02*
D03*
Y34000D02*
D03*
Y33600D02*
D03*
Y33200D02*
D03*
Y32800D02*
D03*
Y32400D02*
D03*
Y32000D02*
D03*
Y31600D02*
D03*
Y31200D02*
D03*
Y30800D02*
D03*
D38*
X18500Y31000D02*
D03*
D39*
X20375Y22150D02*
D03*
Y19850D02*
D03*
X18625D02*
D03*
Y22150D02*
D03*
D40*
X22250Y22175D02*
D03*
Y20825D02*
D03*
Y17825D02*
D03*
Y19175D02*
D03*
X16750Y20825D02*
D03*
Y22175D02*
D03*
X17750Y46575D02*
D03*
Y47925D02*
D03*
X19250Y46575D02*
D03*
Y47925D02*
D03*
D41*
X21040Y2000D02*
D03*
X18500D02*
D03*
X15960Y2000D02*
D03*
X27500Y4520D02*
D03*
Y1980D02*
D03*
X2000Y4290D02*
D03*
X2000Y1750D02*
D03*
X1999Y50010D02*
D03*
Y47470D02*
D03*
X1999Y44930D02*
D03*
X1999Y42390D02*
D03*
Y52550D02*
D03*
X1999Y65250D02*
D03*
Y62710D02*
D03*
Y60170D02*
D03*
X1999Y57630D02*
D03*
X1999Y55090D02*
D03*
X2000Y37310D02*
D03*
Y34770D02*
D03*
X1999Y32230D02*
D03*
X2000Y29690D02*
D03*
Y39850D02*
D03*
X2000Y24610D02*
D03*
Y22070D02*
D03*
X2000Y19530D02*
D03*
X2000Y16990D02*
D03*
Y27150D02*
D03*
X2000Y11910D02*
D03*
Y9370D02*
D03*
X2000Y6830D02*
D03*
X2000Y14450D02*
D03*
X35020Y4290D02*
D03*
X35020Y1750D02*
D03*
X35019Y50010D02*
D03*
Y47470D02*
D03*
X35019Y44930D02*
D03*
X35019Y42390D02*
D03*
Y52550D02*
D03*
X35019Y65250D02*
D03*
Y62710D02*
D03*
Y60170D02*
D03*
X35019Y57630D02*
D03*
X35019Y55090D02*
D03*
X35020Y37310D02*
D03*
Y34770D02*
D03*
X35019Y32230D02*
D03*
X35020Y29690D02*
D03*
Y39850D02*
D03*
X35020Y24610D02*
D03*
Y22070D02*
D03*
X35020Y19530D02*
D03*
X35020Y16990D02*
D03*
Y27150D02*
D03*
X35020Y11910D02*
D03*
Y9370D02*
D03*
X35020Y6830D02*
D03*
X35020Y14450D02*
D03*
D42*
X12480Y55700D02*
D03*
X24520D02*
D03*
D43*
X17250Y53000D02*
D03*
X19750D02*
D03*
Y51000D02*
D03*
D44*
X17250D02*
D03*
D45*
X24500Y15250D02*
D03*
Y8750D02*
D03*
X20000Y15250D02*
D03*
Y8750D02*
D03*
X17000Y15250D02*
D03*
Y8750D02*
D03*
X12500Y15250D02*
D03*
Y8750D02*
D03*
D46*
X25000Y41500D02*
D03*
X28250Y38500D02*
D03*
X27000D02*
D03*
X23250D02*
D03*
X22000D02*
D03*
X21000D02*
D03*
X9325Y32125D02*
D03*
X6250Y55750D02*
D03*
X22250Y16500D02*
D03*
X20375Y22150D02*
D03*
X27750Y36750D02*
D03*
Y26000D02*
D03*
X25000D02*
D03*
X22250Y13750D02*
D03*
X13750Y22000D02*
D03*
X28000Y45000D02*
D03*
X33000Y50250D02*
D03*
X23750Y45000D02*
D03*
X26250Y26000D02*
D03*
X11000Y25500D02*
D03*
X14750Y31250D02*
D03*
X18500Y31000D02*
D03*
X21250Y28250D02*
D03*
X20250D02*
D03*
X19250D02*
D03*
X17500Y24500D02*
D03*
X16250D02*
D03*
X15250Y28250D02*
D03*
X18250D02*
D03*
X17250D02*
D03*
X16250D02*
D03*
X14250Y40750D02*
D03*
X9250Y41250D02*
D03*
X10500Y48500D02*
D03*
X14500D02*
D03*
X28500Y48250D02*
D03*
X22000Y30250D02*
D03*
Y31250D02*
D03*
X29500Y38500D02*
D03*
X25000Y34750D02*
D03*
X14750Y33250D02*
D03*
X9250Y44750D02*
D03*
X16000Y38250D02*
D03*
X19250Y38000D02*
D03*
X13000Y41250D02*
D03*
X11750D02*
D03*
X10500D02*
D03*
Y44750D02*
D03*
X11750D02*
D03*
%TF.MD5,d7f6dd862c7e11e64eb82e96c2f14826*%
M02*
