%TF.GenerationSoftware,Altium Limited,Altium Designer,25.2.1 (25)*%
G04 Layer_Physical_Order=3*
G04 Layer_Color=16440176*
%FSLAX43Y43*%
%MOMM*%
%TF.SameCoordinates,73B19FC9-5684-49D0-80EE-29C7FECE4A2C*%
%TF.FilePolarity,Positive*%
%TF.FileFunction,Copper,L3,Inr,Signal*%
%TF.Part,Single*%
G01*
G75*
%TA.AperFunction,Conductor*%
%ADD12C,0.200*%
%TA.AperFunction,ComponentPad*%
%ADD19C,1.500*%
%ADD20C,3.316*%
%ADD21C,1.408*%
%ADD22R,1.408X1.408*%
%ADD23C,2.000*%
%TA.AperFunction,ViaPad*%
%ADD24C,0.700*%
G36*
X36592Y408D02*
X408D01*
Y66592D01*
X36592D01*
Y408D01*
D02*
G37*
%LPC*%
G36*
X35151Y66254D02*
X34887D01*
X34632Y66186D01*
X34419Y66063D01*
X34626Y65856D01*
X34414Y65643D01*
X34207Y65850D01*
X34084Y65637D01*
X34015Y65382D01*
Y65118D01*
X34084Y64862D01*
X34207Y64649D01*
X34414Y64856D01*
X34626Y64644D01*
X34419Y64437D01*
X34632Y64314D01*
X34887Y64246D01*
X35151D01*
X35407Y64314D01*
X35620Y64437D01*
X35413Y64644D01*
X35625Y64856D01*
X35832Y64649D01*
X35955Y64862D01*
X36023Y65118D01*
Y65382D01*
X35955Y65637D01*
X35832Y65850D01*
X35625Y65643D01*
X35413Y65856D01*
X35620Y66063D01*
X35407Y66186D01*
X35151Y66254D01*
D02*
G37*
G36*
X2131D02*
X1867D01*
X1612Y66186D01*
X1399Y66063D01*
X1606Y65856D01*
X1394Y65643D01*
X1187Y65850D01*
X1064Y65637D01*
X995Y65382D01*
Y65118D01*
X1064Y64862D01*
X1187Y64649D01*
X1394Y64856D01*
X1606Y64644D01*
X1399Y64437D01*
X1612Y64314D01*
X1867Y64246D01*
X2131D01*
X2387Y64314D01*
X2600Y64437D01*
X2393Y64644D01*
X2605Y64856D01*
X2812Y64649D01*
X2935Y64862D01*
X3003Y65118D01*
Y65382D01*
X2935Y65637D01*
X2812Y65850D01*
X2605Y65643D01*
X2393Y65856D01*
X2600Y66063D01*
X2387Y66186D01*
X2131Y66254D01*
D02*
G37*
G36*
X35157Y63760D02*
X34881D01*
X34614Y63688D01*
X34374Y63550D01*
X34179Y63355D01*
X34041Y63115D01*
X33969Y62848D01*
Y62572D01*
X34041Y62305D01*
X34179Y62065D01*
X34374Y61870D01*
X34614Y61731D01*
X34881Y61660D01*
X35157D01*
X35424Y61731D01*
X35664Y61870D01*
X35859Y62065D01*
X35998Y62305D01*
X36069Y62572D01*
Y62848D01*
X35998Y63115D01*
X35859Y63355D01*
X35664Y63550D01*
X35424Y63688D01*
X35157Y63760D01*
D02*
G37*
G36*
X2137D02*
X1861D01*
X1594Y63688D01*
X1354Y63550D01*
X1159Y63355D01*
X1021Y63115D01*
X949Y62848D01*
Y62572D01*
X1021Y62305D01*
X1159Y62065D01*
X1354Y61870D01*
X1594Y61731D01*
X1861Y61660D01*
X2137D01*
X2404Y61731D01*
X2644Y61870D01*
X2839Y62065D01*
X2978Y62305D01*
X3049Y62572D01*
Y62848D01*
X2978Y63115D01*
X2839Y63355D01*
X2644Y63550D01*
X2404Y63688D01*
X2137Y63760D01*
D02*
G37*
G36*
X35157Y61220D02*
X34881D01*
X34614Y61148D01*
X34374Y61010D01*
X34179Y60815D01*
X34041Y60575D01*
X33969Y60308D01*
Y60032D01*
X34041Y59765D01*
X34179Y59525D01*
X34374Y59330D01*
X34614Y59192D01*
X34881Y59120D01*
X35157D01*
X35424Y59192D01*
X35664Y59330D01*
X35859Y59525D01*
X35998Y59765D01*
X36069Y60032D01*
Y60308D01*
X35998Y60575D01*
X35859Y60815D01*
X35664Y61010D01*
X35424Y61148D01*
X35157Y61220D01*
D02*
G37*
G36*
X2137D02*
X1861D01*
X1594Y61148D01*
X1354Y61010D01*
X1159Y60815D01*
X1021Y60575D01*
X949Y60308D01*
Y60032D01*
X1021Y59765D01*
X1159Y59525D01*
X1354Y59330D01*
X1594Y59192D01*
X1861Y59120D01*
X2137D01*
X2404Y59192D01*
X2644Y59330D01*
X2839Y59525D01*
X2978Y59765D01*
X3049Y60032D01*
Y60308D01*
X2978Y60575D01*
X2839Y60815D01*
X2644Y61010D01*
X2404Y61148D01*
X2137Y61220D01*
D02*
G37*
G36*
X35157Y58680D02*
X34881D01*
X34614Y58608D01*
X34374Y58470D01*
X34179Y58275D01*
X34041Y58035D01*
X33969Y57768D01*
Y57492D01*
X34041Y57225D01*
X34179Y56985D01*
X34374Y56790D01*
X34614Y56651D01*
X34881Y56580D01*
X35157D01*
X35424Y56651D01*
X35664Y56790D01*
X35859Y56985D01*
X35997Y57225D01*
X36069Y57492D01*
Y57768D01*
X35997Y58035D01*
X35859Y58275D01*
X35664Y58470D01*
X35424Y58608D01*
X35157Y58680D01*
D02*
G37*
G36*
X2137D02*
X1861D01*
X1594Y58608D01*
X1354Y58470D01*
X1159Y58275D01*
X1021Y58035D01*
X949Y57768D01*
Y57492D01*
X1021Y57225D01*
X1159Y56985D01*
X1354Y56790D01*
X1594Y56651D01*
X1861Y56580D01*
X2137D01*
X2404Y56651D01*
X2644Y56790D01*
X2839Y56985D01*
X2977Y57225D01*
X3049Y57492D01*
Y57768D01*
X2977Y58035D01*
X2839Y58275D01*
X2644Y58470D01*
X2404Y58608D01*
X2137Y58680D01*
D02*
G37*
G36*
X6336Y56400D02*
X6164D01*
X5999Y56356D01*
X5851Y56270D01*
X5730Y56149D01*
X5644Y56001D01*
X5600Y55836D01*
Y55664D01*
X5644Y55499D01*
X5730Y55351D01*
X5851Y55230D01*
X5999Y55144D01*
X6164Y55100D01*
X6336D01*
X6501Y55144D01*
X6649Y55230D01*
X6770Y55351D01*
X6856Y55499D01*
X6900Y55664D01*
Y55836D01*
X6856Y56001D01*
X6770Y56149D01*
X6649Y56270D01*
X6501Y56356D01*
X6336Y56400D01*
D02*
G37*
G36*
X35157Y56140D02*
X34881D01*
X34614Y56068D01*
X34374Y55930D01*
X34179Y55735D01*
X34041Y55495D01*
X33969Y55228D01*
Y54952D01*
X34041Y54685D01*
X34179Y54445D01*
X34374Y54250D01*
X34614Y54111D01*
X34881Y54040D01*
X35157D01*
X35424Y54111D01*
X35664Y54250D01*
X35859Y54445D01*
X35998Y54685D01*
X36069Y54952D01*
Y55228D01*
X35998Y55495D01*
X35859Y55735D01*
X35664Y55930D01*
X35424Y56068D01*
X35157Y56140D01*
D02*
G37*
G36*
X2137D02*
X1861D01*
X1594Y56068D01*
X1354Y55930D01*
X1159Y55735D01*
X1021Y55495D01*
X949Y55228D01*
Y54952D01*
X1021Y54685D01*
X1159Y54445D01*
X1354Y54250D01*
X1594Y54111D01*
X1861Y54040D01*
X2137D01*
X2404Y54111D01*
X2644Y54250D01*
X2839Y54445D01*
X2978Y54685D01*
X3049Y54952D01*
Y55228D01*
X2978Y55495D01*
X2839Y55735D01*
X2644Y55930D01*
X2404Y56068D01*
X2137Y56140D01*
D02*
G37*
G36*
X24713Y57658D02*
X24327D01*
X23949Y57583D01*
X23593Y57435D01*
X23272Y57221D01*
X22999Y56948D01*
X22785Y56627D01*
X22637Y56271D01*
X22562Y55893D01*
Y55507D01*
X22637Y55129D01*
X22785Y54773D01*
X22999Y54452D01*
X23272Y54179D01*
X23593Y53965D01*
X23949Y53817D01*
X24327Y53742D01*
X24713D01*
X25091Y53817D01*
X25447Y53965D01*
X25768Y54179D01*
X26041Y54452D01*
X26255Y54773D01*
X26403Y55129D01*
X26478Y55507D01*
Y55893D01*
X26403Y56271D01*
X26255Y56627D01*
X26041Y56948D01*
X25768Y57221D01*
X25447Y57435D01*
X25091Y57583D01*
X24713Y57658D01*
D02*
G37*
G36*
X12673D02*
X12287D01*
X11909Y57583D01*
X11553Y57435D01*
X11232Y57221D01*
X10959Y56948D01*
X10745Y56627D01*
X10597Y56271D01*
X10522Y55893D01*
Y55507D01*
X10597Y55129D01*
X10745Y54773D01*
X10959Y54452D01*
X11232Y54179D01*
X11553Y53965D01*
X11909Y53817D01*
X12287Y53742D01*
X12673D01*
X13051Y53817D01*
X13407Y53965D01*
X13728Y54179D01*
X14001Y54452D01*
X14215Y54773D01*
X14363Y55129D01*
X14438Y55507D01*
Y55893D01*
X14363Y56271D01*
X14215Y56627D01*
X14001Y56948D01*
X13728Y57221D01*
X13407Y57435D01*
X13051Y57583D01*
X12673Y57658D01*
D02*
G37*
G36*
X35158Y53600D02*
X34881D01*
X34614Y53528D01*
X34375Y53390D01*
X34179Y53195D01*
X34041Y52955D01*
X33969Y52688D01*
Y52412D01*
X34041Y52145D01*
X34179Y51905D01*
X34375Y51710D01*
X34614Y51572D01*
X34881Y51500D01*
X35158D01*
X35425Y51572D01*
X35664Y51710D01*
X35860Y51905D01*
X35998Y52145D01*
X36069Y52412D01*
Y52688D01*
X35998Y52955D01*
X35860Y53195D01*
X35664Y53390D01*
X35425Y53528D01*
X35158Y53600D01*
D02*
G37*
G36*
X2138D02*
X1861D01*
X1594Y53528D01*
X1355Y53390D01*
X1159Y53195D01*
X1021Y52955D01*
X949Y52688D01*
Y52412D01*
X1021Y52145D01*
X1159Y51905D01*
X1355Y51710D01*
X1594Y51572D01*
X1861Y51500D01*
X2138D01*
X2405Y51572D01*
X2644Y51710D01*
X2840Y51905D01*
X2978Y52145D01*
X3049Y52412D01*
Y52688D01*
X2978Y52955D01*
X2840Y53195D01*
X2644Y53390D01*
X2405Y53528D01*
X2138Y53600D01*
D02*
G37*
G36*
X33120Y50854D02*
X32880D01*
X32688Y50774D01*
X32903Y50560D01*
X32690Y50347D01*
X32476Y50562D01*
X32396Y50370D01*
Y50130D01*
X32476Y49938D01*
X32690Y50153D01*
X32903Y49940D01*
X32688Y49726D01*
X32880Y49646D01*
X33120D01*
X33312Y49726D01*
X33097Y49940D01*
X33310Y50153D01*
X33524Y49938D01*
X33604Y50130D01*
Y50370D01*
X33524Y50562D01*
X33310Y50347D01*
X33097Y50560D01*
X33312Y50774D01*
X33120Y50854D01*
D02*
G37*
G36*
X19882Y54004D02*
X19618D01*
X19362Y53936D01*
X19134Y53803D01*
X18947Y53616D01*
X18814Y53388D01*
X18746Y53132D01*
Y52868D01*
X18814Y52612D01*
X18947Y52384D01*
X19134Y52197D01*
X19359Y52066D01*
X19366Y52039D01*
Y51961D01*
X19359Y51934D01*
X19134Y51803D01*
X18947Y51616D01*
X18814Y51388D01*
X18746Y51132D01*
Y50868D01*
X18814Y50612D01*
X18947Y50384D01*
X19134Y50197D01*
X19362Y50064D01*
X19618Y49996D01*
X19882D01*
X20138Y50064D01*
X20366Y50197D01*
X20553Y50384D01*
X20686Y50612D01*
X20754Y50868D01*
Y51132D01*
X20686Y51388D01*
X20553Y51616D01*
X20366Y51803D01*
X20141Y51934D01*
X20134Y51961D01*
Y52039D01*
X20141Y52066D01*
X20366Y52197D01*
X20553Y52384D01*
X20686Y52612D01*
X20754Y52868D01*
Y53132D01*
X20686Y53388D01*
X20553Y53616D01*
X20366Y53803D01*
X20138Y53936D01*
X19882Y54004D01*
D02*
G37*
G36*
X17382D02*
X17118D01*
X16862Y53936D01*
X16634Y53803D01*
X16447Y53616D01*
X16314Y53388D01*
X16246Y53132D01*
Y52868D01*
X16314Y52612D01*
X16447Y52384D01*
X16634Y52197D01*
X16747Y52131D01*
X16713Y52004D01*
X16246D01*
Y49996D01*
X18254D01*
Y52004D01*
X17787D01*
X17753Y52131D01*
X17866Y52197D01*
X18053Y52384D01*
X18186Y52612D01*
X18254Y52868D01*
Y53132D01*
X18186Y53388D01*
X18053Y53616D01*
X17866Y53803D01*
X17638Y53936D01*
X17382Y54004D01*
D02*
G37*
G36*
X35158Y51060D02*
X34881D01*
X34614Y50988D01*
X34375Y50850D01*
X34179Y50655D01*
X34041Y50415D01*
X33969Y50148D01*
Y49872D01*
X34041Y49605D01*
X34179Y49365D01*
X34375Y49170D01*
X34614Y49032D01*
X34881Y48960D01*
X35158D01*
X35425Y49032D01*
X35664Y49170D01*
X35860Y49365D01*
X35998Y49605D01*
X36069Y49872D01*
Y50148D01*
X35998Y50415D01*
X35860Y50655D01*
X35664Y50850D01*
X35425Y50988D01*
X35158Y51060D01*
D02*
G37*
G36*
X2138D02*
X1861D01*
X1594Y50988D01*
X1355Y50850D01*
X1159Y50655D01*
X1021Y50415D01*
X949Y50148D01*
Y49872D01*
X1021Y49605D01*
X1159Y49365D01*
X1355Y49170D01*
X1594Y49032D01*
X1861Y48960D01*
X2138D01*
X2405Y49032D01*
X2644Y49170D01*
X2840Y49365D01*
X2978Y49605D01*
X3049Y49872D01*
Y50148D01*
X2978Y50415D01*
X2840Y50655D01*
X2644Y50850D01*
X2405Y50988D01*
X2138Y51060D01*
D02*
G37*
G36*
X14620Y49104D02*
X14380D01*
X14188Y49024D01*
X14403Y48810D01*
X14190Y48597D01*
X13976Y48812D01*
X13896Y48620D01*
Y48380D01*
X13976Y48188D01*
X14190Y48403D01*
X14403Y48190D01*
X14188Y47976D01*
X14380Y47896D01*
X14620D01*
X14812Y47976D01*
X14597Y48190D01*
X14810Y48403D01*
X15024Y48188D01*
X15104Y48380D01*
Y48620D01*
X15024Y48812D01*
X14810Y48597D01*
X14597Y48810D01*
X14812Y49024D01*
X14620Y49104D01*
D02*
G37*
G36*
X10586Y49150D02*
X10414D01*
X10249Y49106D01*
X10101Y49020D01*
X9980Y48899D01*
X9894Y48751D01*
X9850Y48586D01*
Y48414D01*
X9894Y48249D01*
X9980Y48101D01*
X10101Y47980D01*
X10249Y47894D01*
X10414Y47850D01*
X10586D01*
X10751Y47894D01*
X10899Y47980D01*
X11020Y48101D01*
X11106Y48249D01*
X11150Y48414D01*
Y48586D01*
X11106Y48751D01*
X11020Y48899D01*
X10899Y49020D01*
X10751Y49106D01*
X10586Y49150D01*
D02*
G37*
G36*
X28586Y48900D02*
X28414D01*
X28249Y48856D01*
X28101Y48770D01*
X27980Y48649D01*
X27894Y48501D01*
X27850Y48336D01*
Y48164D01*
X27894Y47999D01*
X27980Y47851D01*
X28101Y47730D01*
X28249Y47644D01*
X28414Y47600D01*
X28586D01*
X28751Y47644D01*
X28899Y47730D01*
X29020Y47851D01*
X29106Y47999D01*
X29150Y48164D01*
Y48336D01*
X29106Y48501D01*
X29020Y48649D01*
X28899Y48770D01*
X28751Y48856D01*
X28586Y48900D01*
D02*
G37*
G36*
X35158Y48520D02*
X34881D01*
X34614Y48448D01*
X34375Y48310D01*
X34179Y48115D01*
X34041Y47875D01*
X33969Y47608D01*
Y47332D01*
X34041Y47065D01*
X34179Y46825D01*
X34375Y46630D01*
X34614Y46492D01*
X34881Y46420D01*
X35158D01*
X35425Y46492D01*
X35664Y46630D01*
X35860Y46825D01*
X35998Y47065D01*
X36069Y47332D01*
Y47608D01*
X35998Y47875D01*
X35860Y48115D01*
X35664Y48310D01*
X35425Y48448D01*
X35158Y48520D01*
D02*
G37*
G36*
X2138D02*
X1861D01*
X1594Y48448D01*
X1355Y48310D01*
X1159Y48115D01*
X1021Y47875D01*
X949Y47608D01*
Y47332D01*
X1021Y47065D01*
X1159Y46825D01*
X1355Y46630D01*
X1594Y46492D01*
X1861Y46420D01*
X2138D01*
X2405Y46492D01*
X2644Y46630D01*
X2840Y46825D01*
X2978Y47065D01*
X3049Y47332D01*
Y47608D01*
X2978Y47875D01*
X2840Y48115D01*
X2644Y48310D01*
X2405Y48448D01*
X2138Y48520D01*
D02*
G37*
G36*
X11836Y45400D02*
X11664D01*
X11499Y45356D01*
X11351Y45270D01*
X11230Y45149D01*
X11198Y45094D01*
X11052D01*
X11020Y45149D01*
X10899Y45270D01*
X10751Y45356D01*
X10586Y45400D01*
X10414D01*
X10249Y45356D01*
X10101Y45270D01*
X9980Y45149D01*
X9948Y45094D01*
X9802D01*
X9770Y45149D01*
X9649Y45270D01*
X9501Y45356D01*
X9336Y45400D01*
X9164D01*
X8999Y45356D01*
X8851Y45270D01*
X8730Y45149D01*
X8644Y45001D01*
X8600Y44836D01*
Y44664D01*
X8644Y44499D01*
X8730Y44351D01*
X8851Y44230D01*
X8999Y44144D01*
X9164Y44100D01*
X9336D01*
X9501Y44144D01*
X9649Y44230D01*
X9770Y44351D01*
X9802Y44406D01*
X9948D01*
X9980Y44351D01*
X10101Y44230D01*
X10249Y44144D01*
X10414Y44100D01*
X10586D01*
X10751Y44144D01*
X10899Y44230D01*
X11020Y44351D01*
X11052Y44406D01*
X11198D01*
X11230Y44351D01*
X11351Y44230D01*
X11499Y44144D01*
X11664Y44100D01*
X11836D01*
X12001Y44144D01*
X12149Y44230D01*
X12270Y44351D01*
X12356Y44499D01*
X12400Y44664D01*
Y44836D01*
X12356Y45001D01*
X12270Y45149D01*
X12149Y45270D01*
X12001Y45356D01*
X11836Y45400D01*
D02*
G37*
G36*
X28086Y45650D02*
X27914D01*
X27749Y45606D01*
X27601Y45520D01*
X27480Y45399D01*
X27394Y45251D01*
X27350Y45086D01*
Y44914D01*
X27394Y44749D01*
X27480Y44601D01*
X27601Y44480D01*
X27749Y44394D01*
X27914Y44350D01*
X28086D01*
X28251Y44394D01*
X28399Y44480D01*
X28520Y44601D01*
X28606Y44749D01*
X28650Y44914D01*
Y45086D01*
X28606Y45251D01*
X28520Y45399D01*
X28399Y45520D01*
X28251Y45606D01*
X28086Y45650D01*
D02*
G37*
G36*
X23836D02*
X23664D01*
X23499Y45606D01*
X23351Y45520D01*
X23230Y45399D01*
X23144Y45251D01*
X23100Y45086D01*
Y44914D01*
X23144Y44749D01*
X23230Y44601D01*
X23351Y44480D01*
X23499Y44394D01*
X23664Y44350D01*
X23836D01*
X24001Y44394D01*
X24149Y44480D01*
X24270Y44601D01*
X24356Y44749D01*
X24400Y44914D01*
Y45086D01*
X24356Y45251D01*
X24270Y45399D01*
X24149Y45520D01*
X24001Y45606D01*
X23836Y45650D01*
D02*
G37*
G36*
X35157Y45980D02*
X34881D01*
X34614Y45908D01*
X34374Y45770D01*
X34179Y45575D01*
X34041Y45335D01*
X33969Y45068D01*
Y44792D01*
X34041Y44525D01*
X34179Y44285D01*
X34374Y44090D01*
X34614Y43951D01*
X34881Y43880D01*
X35157D01*
X35424Y43951D01*
X35664Y44090D01*
X35859Y44285D01*
X35998Y44525D01*
X36069Y44792D01*
Y45068D01*
X35998Y45335D01*
X35859Y45575D01*
X35664Y45770D01*
X35424Y45908D01*
X35157Y45980D01*
D02*
G37*
G36*
X2137D02*
X1861D01*
X1594Y45908D01*
X1354Y45770D01*
X1159Y45575D01*
X1021Y45335D01*
X949Y45068D01*
Y44792D01*
X1021Y44525D01*
X1159Y44285D01*
X1354Y44090D01*
X1594Y43951D01*
X1861Y43880D01*
X2137D01*
X2404Y43951D01*
X2644Y44090D01*
X2839Y44285D01*
X2978Y44525D01*
X3049Y44792D01*
Y45068D01*
X2978Y45335D01*
X2839Y45575D01*
X2644Y45770D01*
X2404Y45908D01*
X2137Y45980D01*
D02*
G37*
G36*
X13086Y41900D02*
X12914D01*
X12749Y41856D01*
X12601Y41770D01*
X12480Y41649D01*
X12448Y41594D01*
X12302D01*
X12270Y41649D01*
X12149Y41770D01*
X12001Y41856D01*
X11836Y41900D01*
X11664D01*
X11499Y41856D01*
X11351Y41770D01*
X11230Y41649D01*
X11198Y41594D01*
X11052D01*
X11020Y41649D01*
X10899Y41770D01*
X10751Y41856D01*
X10586Y41900D01*
X10414D01*
X10249Y41856D01*
X10101Y41770D01*
X9980Y41649D01*
X9948Y41594D01*
X9802D01*
X9770Y41649D01*
X9649Y41770D01*
X9501Y41856D01*
X9336Y41900D01*
X9164D01*
X8999Y41856D01*
X8851Y41770D01*
X8730Y41649D01*
X8644Y41501D01*
X8600Y41336D01*
Y41164D01*
X8644Y40999D01*
X8730Y40851D01*
X8851Y40730D01*
X8999Y40644D01*
X9164Y40600D01*
X9336D01*
X9501Y40644D01*
X9649Y40730D01*
X9770Y40851D01*
X9802Y40906D01*
X9948D01*
X9980Y40851D01*
X10101Y40730D01*
X10249Y40644D01*
X10414Y40600D01*
X10586D01*
X10751Y40644D01*
X10899Y40730D01*
X11020Y40851D01*
X11052Y40906D01*
X11198D01*
X11230Y40851D01*
X11351Y40730D01*
X11499Y40644D01*
X11664Y40600D01*
X11836D01*
X12001Y40644D01*
X12149Y40730D01*
X12270Y40851D01*
X12302Y40906D01*
X12448D01*
X12480Y40851D01*
X12601Y40730D01*
X12749Y40644D01*
X12914Y40600D01*
X13086D01*
X13251Y40644D01*
X13399Y40730D01*
X13473Y40804D01*
X13600Y40751D01*
Y40664D01*
X13644Y40499D01*
X13730Y40351D01*
X13851Y40230D01*
X13999Y40144D01*
X14164Y40100D01*
X14336D01*
X14501Y40144D01*
X14649Y40230D01*
X14770Y40351D01*
X14856Y40499D01*
X14900Y40664D01*
Y40836D01*
X14856Y41001D01*
X14770Y41149D01*
X14649Y41270D01*
X14501Y41356D01*
X14336Y41400D01*
X14164D01*
X13999Y41356D01*
X13851Y41270D01*
X13777Y41196D01*
X13650Y41249D01*
Y41336D01*
X13606Y41501D01*
X13520Y41649D01*
X13399Y41770D01*
X13251Y41856D01*
X13086Y41900D01*
D02*
G37*
G36*
X35158Y43440D02*
X34881D01*
X34614Y43368D01*
X34375Y43230D01*
X34179Y43035D01*
X34041Y42795D01*
X33969Y42528D01*
Y42252D01*
X34041Y41985D01*
X34179Y41745D01*
X34375Y41550D01*
X34614Y41412D01*
X34881Y41340D01*
X35158D01*
X35425Y41412D01*
X35664Y41550D01*
X35860Y41745D01*
X35998Y41985D01*
X36069Y42252D01*
Y42528D01*
X35998Y42795D01*
X35860Y43035D01*
X35664Y43230D01*
X35425Y43368D01*
X35158Y43440D01*
D02*
G37*
G36*
X2138D02*
X1861D01*
X1594Y43368D01*
X1355Y43230D01*
X1159Y43035D01*
X1021Y42795D01*
X949Y42528D01*
Y42252D01*
X1021Y41985D01*
X1159Y41745D01*
X1355Y41550D01*
X1594Y41412D01*
X1861Y41340D01*
X2138D01*
X2405Y41412D01*
X2644Y41550D01*
X2840Y41745D01*
X2978Y41985D01*
X3049Y42252D01*
Y42528D01*
X2978Y42795D01*
X2840Y43035D01*
X2644Y43230D01*
X2405Y43368D01*
X2138Y43440D01*
D02*
G37*
G36*
X25086Y42150D02*
X24914D01*
X24749Y42106D01*
X24601Y42020D01*
X24489Y41908D01*
X24000D01*
X23844Y41877D01*
X23712Y41788D01*
X23712Y41788D01*
X21073Y39150D01*
X20914D01*
X20749Y39106D01*
X20601Y39020D01*
X20480Y38899D01*
X20394Y38751D01*
X20350Y38586D01*
Y38414D01*
X20394Y38249D01*
X20480Y38101D01*
X20592Y37989D01*
Y37056D01*
X12750D01*
X12633Y37033D01*
X12534Y36966D01*
X12467Y36867D01*
X12444Y36750D01*
Y25250D01*
X12467Y25133D01*
X12534Y25034D01*
X12633Y24967D01*
X12750Y24944D01*
X13750D01*
X13867Y24967D01*
X13966Y25034D01*
X14033Y25133D01*
X14056Y25250D01*
Y30842D01*
X14239D01*
X14351Y30730D01*
X14499Y30644D01*
X14664Y30600D01*
X14836D01*
X15001Y30644D01*
X15149Y30730D01*
X15270Y30851D01*
X15356Y30999D01*
X15400Y31164D01*
Y31336D01*
X15356Y31501D01*
X15270Y31649D01*
X15149Y31770D01*
X15001Y31856D01*
X14836Y31900D01*
X14664D01*
X14499Y31856D01*
X14351Y31770D01*
X14239Y31658D01*
X14056D01*
Y33016D01*
X14183Y33041D01*
X14226Y32938D01*
X14440Y33153D01*
X14653Y32940D01*
X14438Y32726D01*
X14630Y32646D01*
X14870D01*
X15062Y32726D01*
X14847Y32940D01*
X15060Y33153D01*
X15274Y32938D01*
X15354Y33130D01*
Y33370D01*
X15274Y33562D01*
X15060Y33347D01*
X14847Y33560D01*
X15062Y33774D01*
X14870Y33854D01*
X14630D01*
X14438Y33774D01*
X14653Y33560D01*
X14440Y33347D01*
X14226Y33562D01*
X14183Y33459D01*
X14056Y33484D01*
Y35444D01*
X22944D01*
Y31658D01*
X22511D01*
X22399Y31770D01*
X22251Y31856D01*
X22086Y31900D01*
X21914D01*
X21749Y31856D01*
X21601Y31770D01*
X21489Y31658D01*
X20500D01*
X20344Y31627D01*
X20212Y31538D01*
X20212Y31538D01*
X18962Y30288D01*
X18873Y30156D01*
X18842Y30000D01*
X18842Y30000D01*
Y28761D01*
X18750Y28669D01*
X18649Y28770D01*
X18501Y28856D01*
X18336Y28900D01*
X18164D01*
X17999Y28856D01*
X17851Y28770D01*
X17750Y28669D01*
X17649Y28770D01*
X17501Y28856D01*
X17336Y28900D01*
X17164D01*
X16999Y28856D01*
X16851Y28770D01*
X16750Y28669D01*
X16649Y28770D01*
X16501Y28856D01*
X16336Y28900D01*
X16164D01*
X15999Y28856D01*
X15851Y28770D01*
X15750Y28669D01*
X15649Y28770D01*
X15501Y28856D01*
X15336Y28900D01*
X15164D01*
X14999Y28856D01*
X14851Y28770D01*
X14730Y28649D01*
X14644Y28501D01*
X14600Y28336D01*
Y28164D01*
X14644Y27999D01*
X14730Y27851D01*
X14851Y27730D01*
X14999Y27644D01*
X15164Y27600D01*
X15336D01*
X15501Y27644D01*
X15649Y27730D01*
X15750Y27831D01*
X15851Y27730D01*
X15999Y27644D01*
X16164Y27600D01*
X16336D01*
X16501Y27644D01*
X16649Y27730D01*
X16750Y27831D01*
X16851Y27730D01*
X16999Y27644D01*
X17164Y27600D01*
X17336D01*
X17501Y27644D01*
X17649Y27730D01*
X17750Y27831D01*
X17851Y27730D01*
X17999Y27644D01*
X18164Y27600D01*
X18336D01*
X18501Y27644D01*
X18649Y27730D01*
X18750Y27831D01*
X18851Y27730D01*
X18999Y27644D01*
X19164Y27600D01*
X19336D01*
X19501Y27644D01*
X19649Y27730D01*
X19750Y27831D01*
X19851Y27730D01*
X19999Y27644D01*
X20164Y27600D01*
X20336D01*
X20501Y27644D01*
X20649Y27730D01*
X20750Y27831D01*
X20851Y27730D01*
X20999Y27644D01*
X21164Y27600D01*
X21336D01*
X21501Y27644D01*
X21649Y27730D01*
X21770Y27851D01*
X21856Y27999D01*
X21900Y28164D01*
Y28336D01*
X21856Y28501D01*
X21770Y28649D01*
X21649Y28770D01*
X21501Y28856D01*
X21336Y28900D01*
X21164D01*
X20999Y28856D01*
X20851Y28770D01*
X20750Y28669D01*
X20649Y28770D01*
X20501Y28856D01*
X20336Y28900D01*
X20164D01*
X19999Y28856D01*
X19851Y28770D01*
X19750Y28669D01*
X19658Y28761D01*
Y29831D01*
X20669Y30842D01*
X21489D01*
X21601Y30730D01*
X21604Y30708D01*
X21488Y30592D01*
X21396Y30370D01*
Y30130D01*
X21476Y29938D01*
X21690Y30153D01*
X21903Y29940D01*
X21688Y29726D01*
X21880Y29646D01*
X22120D01*
X22312Y29726D01*
X22097Y29940D01*
X22310Y30153D01*
X22524Y29938D01*
X22604Y30130D01*
Y30370D01*
X22512Y30592D01*
X22396Y30708D01*
X22399Y30730D01*
X22511Y30842D01*
X22944D01*
Y25250D01*
X22967Y25133D01*
X23034Y25034D01*
X23133Y24967D01*
X23250Y24944D01*
X24250D01*
X24367Y24967D01*
X24466Y25034D01*
X24533Y25133D01*
X24556Y25250D01*
Y25359D01*
X24683Y25433D01*
X24749Y25394D01*
X24914Y25350D01*
X25073D01*
X27092Y23331D01*
Y5497D01*
X26855Y5360D01*
X26660Y5165D01*
X26521Y4925D01*
X26450Y4658D01*
Y4382D01*
X26521Y4115D01*
X26660Y3875D01*
X26855Y3680D01*
X27095Y3542D01*
X27362Y3470D01*
X27638D01*
X27905Y3542D01*
X28145Y3680D01*
X28340Y3875D01*
X28478Y4115D01*
X28550Y4382D01*
Y4658D01*
X28478Y4925D01*
X28340Y5165D01*
X28145Y5360D01*
X27908Y5497D01*
Y23500D01*
X27908Y23500D01*
X27877Y23656D01*
X27788Y23789D01*
X26298Y25279D01*
X26347Y25396D01*
X26370D01*
X26562Y25476D01*
X26347Y25690D01*
X26560Y25903D01*
X26774Y25688D01*
X26854Y25880D01*
Y26120D01*
X26774Y26312D01*
X26560Y26097D01*
X26347Y26310D01*
X26562Y26524D01*
X26370Y26604D01*
X26130D01*
X25938Y26524D01*
X26153Y26310D01*
X25940Y26097D01*
X25726Y26312D01*
X25719Y26296D01*
X25715Y26295D01*
X25581Y26294D01*
X25520Y26399D01*
X25399Y26520D01*
X25251Y26606D01*
X25086Y26650D01*
X24914D01*
X24749Y26606D01*
X24683Y26567D01*
X24556Y26641D01*
Y34174D01*
X24683Y34228D01*
X24880Y34146D01*
X25120D01*
X25312Y34226D01*
X25097Y34440D01*
X25310Y34653D01*
X25524Y34438D01*
X25604Y34630D01*
Y34870D01*
X25524Y35062D01*
X25310Y34847D01*
X25097Y35060D01*
X25312Y35274D01*
X25120Y35354D01*
X24880D01*
X24683Y35272D01*
X24556Y35326D01*
Y36750D01*
X24533Y36867D01*
X24466Y36966D01*
X24367Y37033D01*
X24250Y37056D01*
X21408D01*
Y37989D01*
X21520Y38101D01*
X21542Y38104D01*
X21658Y37988D01*
X21880Y37896D01*
X22120D01*
X22312Y37976D01*
X22097Y38190D01*
X22310Y38403D01*
X22524Y38188D01*
X22531Y38204D01*
X22535Y38205D01*
X22669Y38206D01*
X22730Y38101D01*
X22851Y37980D01*
X22999Y37894D01*
X23164Y37850D01*
X23336D01*
X23501Y37894D01*
X23649Y37980D01*
X23770Y38101D01*
X23856Y38249D01*
X23900Y38414D01*
Y38586D01*
X23856Y38751D01*
X23770Y38899D01*
X23649Y39020D01*
X23501Y39106D01*
X23336Y39150D01*
X23164D01*
X22999Y39106D01*
X22851Y39020D01*
X22730Y38899D01*
X22669Y38794D01*
X22535Y38795D01*
X22531Y38796D01*
X22524Y38812D01*
X22310Y38597D01*
X22097Y38810D01*
X22312Y39024D01*
X22269Y39042D01*
X22244Y39167D01*
X24169Y41092D01*
X24489D01*
X24601Y40980D01*
X24749Y40894D01*
X24914Y40850D01*
X25086D01*
X25251Y40894D01*
X25399Y40980D01*
X25520Y41101D01*
X25606Y41249D01*
X25650Y41414D01*
Y41586D01*
X25606Y41751D01*
X25520Y41899D01*
X25399Y42020D01*
X25251Y42106D01*
X25086Y42150D01*
D02*
G37*
G36*
X28336Y39150D02*
X28164D01*
X27999Y39106D01*
X27851Y39020D01*
X27730Y38899D01*
X27698Y38844D01*
X27552D01*
X27520Y38899D01*
X27399Y39020D01*
X27251Y39106D01*
X27086Y39150D01*
X26914D01*
X26749Y39106D01*
X26601Y39020D01*
X26480Y38899D01*
X26394Y38751D01*
X26350Y38586D01*
Y38414D01*
X26394Y38249D01*
X26480Y38101D01*
X26601Y37980D01*
X26749Y37894D01*
X26914Y37850D01*
X27086D01*
X27251Y37894D01*
X27399Y37980D01*
X27520Y38101D01*
X27552Y38156D01*
X27698D01*
X27730Y38101D01*
X27851Y37980D01*
X27999Y37894D01*
X28164Y37850D01*
X28336D01*
X28501Y37894D01*
X28649Y37980D01*
X28770Y38101D01*
X28831Y38206D01*
X28965Y38205D01*
X28969Y38204D01*
X28976Y38188D01*
X29190Y38403D01*
X29403Y38190D01*
X29188Y37976D01*
X29380Y37896D01*
X29620D01*
X29812Y37976D01*
X29597Y38190D01*
X29810Y38403D01*
X30024Y38188D01*
X30104Y38380D01*
Y38620D01*
X30024Y38812D01*
X29810Y38597D01*
X29597Y38810D01*
X29812Y39024D01*
X29620Y39104D01*
X29380D01*
X29188Y39024D01*
X29403Y38810D01*
X29190Y38597D01*
X28976Y38812D01*
X28969Y38796D01*
X28965Y38795D01*
X28831Y38794D01*
X28770Y38899D01*
X28649Y39020D01*
X28501Y39106D01*
X28336Y39150D01*
D02*
G37*
G36*
X35158Y40900D02*
X34881D01*
X34614Y40828D01*
X34375Y40690D01*
X34179Y40495D01*
X34041Y40255D01*
X33970Y39988D01*
Y39712D01*
X34041Y39445D01*
X34179Y39205D01*
X34375Y39010D01*
X34614Y38872D01*
X34881Y38800D01*
X35158D01*
X35425Y38872D01*
X35664Y39010D01*
X35860Y39205D01*
X35998Y39445D01*
X36070Y39712D01*
Y39988D01*
X35998Y40255D01*
X35860Y40495D01*
X35664Y40690D01*
X35425Y40828D01*
X35158Y40900D01*
D02*
G37*
G36*
X2138D02*
X1861D01*
X1594Y40828D01*
X1355Y40690D01*
X1159Y40495D01*
X1021Y40255D01*
X950Y39988D01*
Y39712D01*
X1021Y39445D01*
X1159Y39205D01*
X1355Y39010D01*
X1594Y38872D01*
X1861Y38800D01*
X2138D01*
X2405Y38872D01*
X2644Y39010D01*
X2840Y39205D01*
X2978Y39445D01*
X3050Y39712D01*
Y39988D01*
X2978Y40255D01*
X2840Y40495D01*
X2644Y40690D01*
X2405Y40828D01*
X2138Y40900D01*
D02*
G37*
G36*
X16120Y38854D02*
X15880D01*
X15688Y38774D01*
X15903Y38560D01*
X15690Y38347D01*
X15476Y38562D01*
X15396Y38370D01*
Y38130D01*
X15476Y37938D01*
X15690Y38153D01*
X15903Y37940D01*
X15688Y37726D01*
X15880Y37646D01*
X16120D01*
X16312Y37726D01*
X16097Y37940D01*
X16310Y38153D01*
X16524Y37938D01*
X16604Y38130D01*
Y38370D01*
X16524Y38562D01*
X16310Y38347D01*
X16097Y38560D01*
X16312Y38774D01*
X16120Y38854D01*
D02*
G37*
G36*
X19370Y38604D02*
X19130D01*
X18938Y38524D01*
X19153Y38310D01*
X18940Y38097D01*
X18726Y38312D01*
X18646Y38120D01*
Y37880D01*
X18726Y37688D01*
X18940Y37903D01*
X19153Y37690D01*
X18938Y37476D01*
X19130Y37396D01*
X19370D01*
X19562Y37476D01*
X19347Y37690D01*
X19560Y37903D01*
X19774Y37688D01*
X19854Y37880D01*
Y38120D01*
X19774Y38312D01*
X19560Y38097D01*
X19347Y38310D01*
X19562Y38524D01*
X19370Y38604D01*
D02*
G37*
G36*
X35158Y38360D02*
X34881D01*
X34614Y38288D01*
X34375Y38150D01*
X34179Y37955D01*
X34041Y37715D01*
X33970Y37448D01*
Y37172D01*
X34041Y36905D01*
X34179Y36665D01*
X34375Y36470D01*
X34614Y36332D01*
X34881Y36260D01*
X35158D01*
X35425Y36332D01*
X35664Y36470D01*
X35860Y36665D01*
X35998Y36905D01*
X36070Y37172D01*
Y37448D01*
X35998Y37715D01*
X35860Y37955D01*
X35664Y38150D01*
X35425Y38288D01*
X35158Y38360D01*
D02*
G37*
G36*
X2138D02*
X1861D01*
X1594Y38288D01*
X1355Y38150D01*
X1159Y37955D01*
X1021Y37715D01*
X950Y37448D01*
Y37172D01*
X1021Y36905D01*
X1159Y36665D01*
X1355Y36470D01*
X1594Y36332D01*
X1861Y36260D01*
X2138D01*
X2405Y36332D01*
X2644Y36470D01*
X2840Y36665D01*
X2978Y36905D01*
X3050Y37172D01*
Y37448D01*
X2978Y37715D01*
X2840Y37955D01*
X2644Y38150D01*
X2405Y38288D01*
X2138Y38360D01*
D02*
G37*
G36*
X27836Y37400D02*
X27664D01*
X27499Y37356D01*
X27351Y37270D01*
X27230Y37149D01*
X27144Y37001D01*
X27100Y36836D01*
Y36664D01*
X27144Y36499D01*
X27230Y36351D01*
X27351Y36230D01*
X27499Y36144D01*
X27664Y36100D01*
X27836D01*
X28001Y36144D01*
X28149Y36230D01*
X28270Y36351D01*
X28356Y36499D01*
X28400Y36664D01*
Y36836D01*
X28356Y37001D01*
X28270Y37149D01*
X28149Y37270D01*
X28001Y37356D01*
X27836Y37400D01*
D02*
G37*
G36*
X35158Y35820D02*
X34881D01*
X34614Y35748D01*
X34375Y35610D01*
X34179Y35415D01*
X34041Y35175D01*
X33970Y34908D01*
Y34632D01*
X34041Y34365D01*
X34179Y34125D01*
X34375Y33930D01*
X34614Y33792D01*
X34881Y33720D01*
X35158D01*
X35425Y33792D01*
X35664Y33930D01*
X35860Y34125D01*
X35998Y34365D01*
X36070Y34632D01*
Y34908D01*
X35998Y35175D01*
X35860Y35415D01*
X35664Y35610D01*
X35425Y35748D01*
X35158Y35820D01*
D02*
G37*
G36*
X2138D02*
X1861D01*
X1594Y35748D01*
X1355Y35610D01*
X1159Y35415D01*
X1021Y35175D01*
X950Y34908D01*
Y34632D01*
X1021Y34365D01*
X1159Y34125D01*
X1355Y33930D01*
X1594Y33792D01*
X1861Y33720D01*
X2138D01*
X2405Y33792D01*
X2644Y33930D01*
X2840Y34125D01*
X2978Y34365D01*
X3050Y34632D01*
Y34908D01*
X2978Y35175D01*
X2840Y35415D01*
X2644Y35610D01*
X2405Y35748D01*
X2138Y35820D01*
D02*
G37*
G36*
X9411Y32775D02*
X9239D01*
X9074Y32731D01*
X8926Y32645D01*
X8805Y32524D01*
X8719Y32376D01*
X8675Y32211D01*
Y32039D01*
X8719Y31874D01*
X8805Y31726D01*
X8926Y31605D01*
X9074Y31519D01*
X9239Y31475D01*
X9411D01*
X9576Y31519D01*
X9724Y31605D01*
X9845Y31726D01*
X9931Y31874D01*
X9975Y32039D01*
Y32211D01*
X9931Y32376D01*
X9845Y32524D01*
X9724Y32645D01*
X9576Y32731D01*
X9411Y32775D01*
D02*
G37*
G36*
X35158Y33280D02*
X34881D01*
X34614Y33208D01*
X34375Y33070D01*
X34179Y32875D01*
X34041Y32635D01*
X33969Y32368D01*
Y32092D01*
X34041Y31825D01*
X34179Y31585D01*
X34375Y31390D01*
X34614Y31252D01*
X34881Y31180D01*
X35158D01*
X35425Y31252D01*
X35664Y31390D01*
X35860Y31585D01*
X35998Y31825D01*
X36069Y32092D01*
Y32368D01*
X35998Y32635D01*
X35860Y32875D01*
X35664Y33070D01*
X35425Y33208D01*
X35158Y33280D01*
D02*
G37*
G36*
X2138D02*
X1861D01*
X1594Y33208D01*
X1355Y33070D01*
X1159Y32875D01*
X1021Y32635D01*
X949Y32368D01*
Y32092D01*
X1021Y31825D01*
X1159Y31585D01*
X1355Y31390D01*
X1594Y31252D01*
X1861Y31180D01*
X2138D01*
X2405Y31252D01*
X2644Y31390D01*
X2840Y31585D01*
X2978Y31825D01*
X3049Y32092D01*
Y32368D01*
X2978Y32635D01*
X2840Y32875D01*
X2644Y33070D01*
X2405Y33208D01*
X2138Y33280D01*
D02*
G37*
G36*
X18586Y31650D02*
X18414D01*
X18249Y31606D01*
X18101Y31520D01*
X17980Y31399D01*
X17894Y31251D01*
X17850Y31086D01*
Y30914D01*
X17894Y30749D01*
X17980Y30601D01*
X18101Y30480D01*
X18249Y30394D01*
X18414Y30350D01*
X18586D01*
X18751Y30394D01*
X18899Y30480D01*
X19020Y30601D01*
X19106Y30749D01*
X19150Y30914D01*
Y31086D01*
X19106Y31251D01*
X19020Y31399D01*
X18899Y31520D01*
X18751Y31606D01*
X18586Y31650D01*
D02*
G37*
G36*
X35158Y30740D02*
X34881D01*
X34614Y30668D01*
X34375Y30530D01*
X34179Y30335D01*
X34041Y30095D01*
X33970Y29828D01*
Y29552D01*
X34041Y29285D01*
X34179Y29045D01*
X34375Y28850D01*
X34614Y28712D01*
X34881Y28640D01*
X35158D01*
X35425Y28712D01*
X35664Y28850D01*
X35860Y29045D01*
X35998Y29285D01*
X36070Y29552D01*
Y29828D01*
X35998Y30095D01*
X35860Y30335D01*
X35664Y30530D01*
X35425Y30668D01*
X35158Y30740D01*
D02*
G37*
G36*
X2138D02*
X1861D01*
X1594Y30668D01*
X1355Y30530D01*
X1159Y30335D01*
X1021Y30095D01*
X950Y29828D01*
Y29552D01*
X1021Y29285D01*
X1159Y29045D01*
X1355Y28850D01*
X1594Y28712D01*
X1861Y28640D01*
X2138D01*
X2405Y28712D01*
X2644Y28850D01*
X2840Y29045D01*
X2978Y29285D01*
X3050Y29552D01*
Y29828D01*
X2978Y30095D01*
X2840Y30335D01*
X2644Y30530D01*
X2405Y30668D01*
X2138Y30740D01*
D02*
G37*
G36*
X35158Y28200D02*
X34882D01*
X34615Y28128D01*
X34375Y27990D01*
X34180Y27795D01*
X34041Y27555D01*
X33970Y27288D01*
Y27012D01*
X34041Y26745D01*
X34180Y26505D01*
X34375Y26310D01*
X34615Y26172D01*
X34882Y26100D01*
X35158D01*
X35425Y26172D01*
X35665Y26310D01*
X35860Y26505D01*
X35998Y26745D01*
X36070Y27012D01*
Y27288D01*
X35998Y27555D01*
X35860Y27795D01*
X35665Y27990D01*
X35425Y28128D01*
X35158Y28200D01*
D02*
G37*
G36*
X2138D02*
X1862D01*
X1595Y28128D01*
X1355Y27990D01*
X1160Y27795D01*
X1021Y27555D01*
X950Y27288D01*
Y27012D01*
X1021Y26745D01*
X1160Y26505D01*
X1355Y26310D01*
X1595Y26172D01*
X1862Y26100D01*
X2138D01*
X2405Y26172D01*
X2645Y26310D01*
X2840Y26505D01*
X2978Y26745D01*
X3050Y27012D01*
Y27288D01*
X2978Y27555D01*
X2840Y27795D01*
X2645Y27990D01*
X2405Y28128D01*
X2138Y28200D01*
D02*
G37*
G36*
X11120Y26104D02*
X10880D01*
X10688Y26024D01*
X10903Y25810D01*
X10690Y25597D01*
X10476Y25812D01*
X10396Y25620D01*
Y25380D01*
X10476Y25188D01*
X10690Y25403D01*
X10903Y25190D01*
X10688Y24976D01*
X10880Y24896D01*
X11120D01*
X11312Y24976D01*
X11097Y25190D01*
X11310Y25403D01*
X11524Y25188D01*
X11604Y25380D01*
Y25620D01*
X11524Y25812D01*
X11310Y25597D01*
X11097Y25810D01*
X11312Y26024D01*
X11120Y26104D01*
D02*
G37*
G36*
X27836Y26650D02*
X27664D01*
X27499Y26606D01*
X27351Y26520D01*
X27230Y26399D01*
X27144Y26251D01*
X27100Y26086D01*
Y25914D01*
X27144Y25749D01*
X27230Y25601D01*
X27351Y25480D01*
X27499Y25394D01*
X27664Y25350D01*
X27836D01*
X28001Y25394D01*
X28149Y25480D01*
X28270Y25601D01*
X28356Y25749D01*
X28400Y25914D01*
Y26086D01*
X28356Y26251D01*
X28270Y26399D01*
X28149Y26520D01*
X28001Y26606D01*
X27836Y26650D01*
D02*
G37*
G36*
X17620Y25104D02*
X17380D01*
X17188Y25024D01*
X17403Y24810D01*
X17190Y24597D01*
X16976Y24812D01*
X16944Y24735D01*
X16806D01*
X16774Y24812D01*
X16560Y24597D01*
X16347Y24810D01*
X16562Y25024D01*
X16370Y25104D01*
X16130D01*
X15938Y25024D01*
X16153Y24810D01*
X15940Y24597D01*
X15726Y24812D01*
X15646Y24620D01*
Y24380D01*
X15726Y24188D01*
X15940Y24403D01*
X16153Y24190D01*
X15938Y23976D01*
X16130Y23896D01*
X16370D01*
X16562Y23976D01*
X16347Y24190D01*
X16560Y24403D01*
X16774Y24188D01*
X16806Y24265D01*
X16944D01*
X16976Y24188D01*
X17190Y24403D01*
X17403Y24190D01*
X17188Y23976D01*
X17380Y23896D01*
X17620D01*
X17812Y23976D01*
X17597Y24190D01*
X17810Y24403D01*
X18024Y24188D01*
X18104Y24380D01*
Y24620D01*
X18024Y24812D01*
X17810Y24597D01*
X17597Y24810D01*
X17812Y25024D01*
X17620Y25104D01*
D02*
G37*
G36*
X35158Y25660D02*
X34882D01*
X34615Y25588D01*
X34375Y25450D01*
X34180Y25255D01*
X34041Y25015D01*
X33970Y24748D01*
Y24472D01*
X34041Y24205D01*
X34180Y23965D01*
X34375Y23770D01*
X34615Y23632D01*
X34882Y23560D01*
X35158D01*
X35425Y23632D01*
X35665Y23770D01*
X35860Y23965D01*
X35998Y24205D01*
X36070Y24472D01*
Y24748D01*
X35998Y25015D01*
X35860Y25255D01*
X35665Y25450D01*
X35425Y25588D01*
X35158Y25660D01*
D02*
G37*
G36*
X2138D02*
X1862D01*
X1595Y25588D01*
X1355Y25450D01*
X1160Y25255D01*
X1021Y25015D01*
X950Y24748D01*
Y24472D01*
X1021Y24205D01*
X1160Y23965D01*
X1355Y23770D01*
X1595Y23632D01*
X1862Y23560D01*
X2138D01*
X2405Y23632D01*
X2645Y23770D01*
X2840Y23965D01*
X2978Y24205D01*
X3050Y24472D01*
Y24748D01*
X2978Y25015D01*
X2840Y25255D01*
X2645Y25450D01*
X2405Y25588D01*
X2138Y25660D01*
D02*
G37*
G36*
X20461Y22800D02*
X20290D01*
X20125Y22756D01*
X19976Y22671D01*
X19855Y22549D01*
X19770Y22401D01*
X19725Y22236D01*
Y22065D01*
X19770Y21899D01*
X19855Y21751D01*
X19976Y21630D01*
X20125Y21545D01*
X20290Y21500D01*
X20461D01*
X20626Y21545D01*
X20775Y21630D01*
X20896Y21751D01*
X20981Y21899D01*
X21025Y22065D01*
Y22236D01*
X20981Y22401D01*
X20896Y22549D01*
X20775Y22671D01*
X20626Y22756D01*
X20461Y22800D01*
D02*
G37*
G36*
X13836Y22650D02*
X13664D01*
X13499Y22606D01*
X13351Y22520D01*
X13230Y22399D01*
X13144Y22251D01*
X13100Y22086D01*
Y21914D01*
X13144Y21749D01*
X13230Y21601D01*
X13351Y21480D01*
X13499Y21394D01*
X13664Y21350D01*
X13836D01*
X14001Y21394D01*
X14149Y21480D01*
X14270Y21601D01*
X14356Y21749D01*
X14400Y21914D01*
Y22086D01*
X14356Y22251D01*
X14270Y22399D01*
X14149Y22520D01*
X14001Y22606D01*
X13836Y22650D01*
D02*
G37*
G36*
X35158Y23120D02*
X34882D01*
X34615Y23048D01*
X34375Y22910D01*
X34180Y22715D01*
X34041Y22475D01*
X33970Y22208D01*
Y21932D01*
X34041Y21665D01*
X34180Y21425D01*
X34375Y21230D01*
X34615Y21092D01*
X34882Y21020D01*
X35158D01*
X35425Y21092D01*
X35665Y21230D01*
X35860Y21425D01*
X35998Y21665D01*
X36070Y21932D01*
Y22208D01*
X35998Y22475D01*
X35860Y22715D01*
X35665Y22910D01*
X35425Y23048D01*
X35158Y23120D01*
D02*
G37*
G36*
X2138D02*
X1862D01*
X1595Y23048D01*
X1355Y22910D01*
X1160Y22715D01*
X1021Y22475D01*
X950Y22208D01*
Y21932D01*
X1021Y21665D01*
X1160Y21425D01*
X1355Y21230D01*
X1595Y21092D01*
X1862Y21020D01*
X2138D01*
X2405Y21092D01*
X2645Y21230D01*
X2840Y21425D01*
X2978Y21665D01*
X3050Y21932D01*
Y22208D01*
X2978Y22475D01*
X2840Y22715D01*
X2645Y22910D01*
X2405Y23048D01*
X2138Y23120D01*
D02*
G37*
G36*
X35158Y20580D02*
X34881D01*
X34614Y20508D01*
X34375Y20370D01*
X34179Y20175D01*
X34041Y19935D01*
X33970Y19668D01*
Y19392D01*
X34041Y19125D01*
X34179Y18885D01*
X34375Y18690D01*
X34614Y18552D01*
X34881Y18480D01*
X35158D01*
X35425Y18552D01*
X35664Y18690D01*
X35860Y18885D01*
X35998Y19125D01*
X36070Y19392D01*
Y19668D01*
X35998Y19935D01*
X35860Y20175D01*
X35664Y20370D01*
X35425Y20508D01*
X35158Y20580D01*
D02*
G37*
G36*
X2138D02*
X1861D01*
X1594Y20508D01*
X1355Y20370D01*
X1159Y20175D01*
X1021Y19935D01*
X950Y19668D01*
Y19392D01*
X1021Y19125D01*
X1159Y18885D01*
X1355Y18690D01*
X1594Y18552D01*
X1861Y18480D01*
X2138D01*
X2405Y18552D01*
X2644Y18690D01*
X2840Y18885D01*
X2978Y19125D01*
X3050Y19392D01*
Y19668D01*
X2978Y19935D01*
X2840Y20175D01*
X2644Y20370D01*
X2405Y20508D01*
X2138Y20580D01*
D02*
G37*
G36*
X35158Y18040D02*
X34882D01*
X34615Y17968D01*
X34375Y17830D01*
X34180Y17635D01*
X34041Y17395D01*
X33970Y17128D01*
Y16852D01*
X34041Y16585D01*
X34180Y16345D01*
X34375Y16150D01*
X34615Y16012D01*
X34882Y15940D01*
X35158D01*
X35425Y16012D01*
X35665Y16150D01*
X35860Y16345D01*
X35998Y16585D01*
X36070Y16852D01*
Y17128D01*
X35998Y17395D01*
X35860Y17635D01*
X35665Y17830D01*
X35425Y17968D01*
X35158Y18040D01*
D02*
G37*
G36*
X2138D02*
X1862D01*
X1595Y17968D01*
X1355Y17830D01*
X1160Y17635D01*
X1021Y17395D01*
X950Y17128D01*
Y16852D01*
X1021Y16585D01*
X1160Y16345D01*
X1355Y16150D01*
X1595Y16012D01*
X1862Y15940D01*
X2138D01*
X2405Y16012D01*
X2645Y16150D01*
X2840Y16345D01*
X2978Y16585D01*
X3050Y16852D01*
Y17128D01*
X2978Y17395D01*
X2840Y17635D01*
X2645Y17830D01*
X2405Y17968D01*
X2138Y18040D01*
D02*
G37*
G36*
X22336Y17150D02*
X22164D01*
X21999Y17106D01*
X21851Y17020D01*
X21730Y16899D01*
X21644Y16751D01*
X21600Y16586D01*
Y16414D01*
X21644Y16249D01*
X21730Y16101D01*
X21851Y15980D01*
X21999Y15894D01*
X22164Y15850D01*
X22336D01*
X22501Y15894D01*
X22649Y15980D01*
X22770Y16101D01*
X22856Y16249D01*
X22900Y16414D01*
Y16586D01*
X22856Y16751D01*
X22770Y16899D01*
X22649Y17020D01*
X22501Y17106D01*
X22336Y17150D01*
D02*
G37*
G36*
X24671Y16550D02*
X24329D01*
X23998Y16461D01*
X23702Y16290D01*
X23460Y16048D01*
X23289Y15752D01*
X23200Y15421D01*
Y15079D01*
X23289Y14748D01*
X23460Y14452D01*
X23702Y14210D01*
X23998Y14039D01*
X24329Y13950D01*
X24671D01*
X25002Y14039D01*
X25298Y14210D01*
X25540Y14452D01*
X25711Y14748D01*
X25800Y15079D01*
Y15421D01*
X25711Y15752D01*
X25540Y16048D01*
X25298Y16290D01*
X25002Y16461D01*
X24671Y16550D01*
D02*
G37*
G36*
X20171D02*
X19829D01*
X19498Y16461D01*
X19202Y16290D01*
X18960Y16048D01*
X18789Y15752D01*
X18700Y15421D01*
Y15079D01*
X18789Y14748D01*
X18960Y14452D01*
X19202Y14210D01*
X19498Y14039D01*
X19829Y13950D01*
X20171D01*
X20502Y14039D01*
X20798Y14210D01*
X21040Y14452D01*
X21211Y14748D01*
X21300Y15079D01*
Y15421D01*
X21211Y15752D01*
X21040Y16048D01*
X20798Y16290D01*
X20502Y16461D01*
X20171Y16550D01*
D02*
G37*
G36*
X17171D02*
X16829D01*
X16498Y16461D01*
X16202Y16290D01*
X15960Y16048D01*
X15789Y15752D01*
X15700Y15421D01*
Y15079D01*
X15789Y14748D01*
X15960Y14452D01*
X16202Y14210D01*
X16498Y14039D01*
X16829Y13950D01*
X17171D01*
X17502Y14039D01*
X17798Y14210D01*
X18040Y14452D01*
X18211Y14748D01*
X18300Y15079D01*
Y15421D01*
X18211Y15752D01*
X18040Y16048D01*
X17798Y16290D01*
X17502Y16461D01*
X17171Y16550D01*
D02*
G37*
G36*
X12671D02*
X12329D01*
X11998Y16461D01*
X11702Y16290D01*
X11460Y16048D01*
X11289Y15752D01*
X11200Y15421D01*
Y15079D01*
X11289Y14748D01*
X11460Y14452D01*
X11702Y14210D01*
X11998Y14039D01*
X12329Y13950D01*
X12671D01*
X13002Y14039D01*
X13298Y14210D01*
X13540Y14452D01*
X13711Y14748D01*
X13800Y15079D01*
Y15421D01*
X13711Y15752D01*
X13540Y16048D01*
X13298Y16290D01*
X13002Y16461D01*
X12671Y16550D01*
D02*
G37*
G36*
X35158Y15500D02*
X34882D01*
X34615Y15429D01*
X34375Y15290D01*
X34180Y15095D01*
X34042Y14855D01*
X33970Y14588D01*
Y14312D01*
X34042Y14045D01*
X34180Y13805D01*
X34375Y13610D01*
X34615Y13472D01*
X34882Y13400D01*
X35158D01*
X35425Y13472D01*
X35665Y13610D01*
X35860Y13805D01*
X35998Y14045D01*
X36070Y14312D01*
Y14588D01*
X35998Y14855D01*
X35860Y15095D01*
X35665Y15290D01*
X35425Y15429D01*
X35158Y15500D01*
D02*
G37*
G36*
X2138D02*
X1862D01*
X1595Y15429D01*
X1355Y15290D01*
X1160Y15095D01*
X1022Y14855D01*
X950Y14588D01*
Y14312D01*
X1022Y14045D01*
X1160Y13805D01*
X1355Y13610D01*
X1595Y13472D01*
X1862Y13400D01*
X2138D01*
X2405Y13472D01*
X2645Y13610D01*
X2840Y13805D01*
X2978Y14045D01*
X3050Y14312D01*
Y14588D01*
X2978Y14855D01*
X2840Y15095D01*
X2645Y15290D01*
X2405Y15429D01*
X2138Y15500D01*
D02*
G37*
G36*
X22336Y14400D02*
X22164D01*
X21999Y14356D01*
X21851Y14270D01*
X21730Y14149D01*
X21644Y14001D01*
X21600Y13836D01*
Y13664D01*
X21644Y13499D01*
X21730Y13351D01*
X21851Y13230D01*
X21999Y13144D01*
X22164Y13100D01*
X22336D01*
X22501Y13144D01*
X22649Y13230D01*
X22770Y13351D01*
X22856Y13499D01*
X22900Y13664D01*
Y13836D01*
X22856Y14001D01*
X22770Y14149D01*
X22649Y14270D01*
X22501Y14356D01*
X22336Y14400D01*
D02*
G37*
G36*
X35158Y12960D02*
X34882D01*
X34615Y12889D01*
X34375Y12750D01*
X34180Y12555D01*
X34042Y12315D01*
X33970Y12048D01*
Y11772D01*
X34042Y11505D01*
X34180Y11265D01*
X34375Y11070D01*
X34615Y10932D01*
X34882Y10860D01*
X35158D01*
X35425Y10932D01*
X35665Y11070D01*
X35860Y11265D01*
X35998Y11505D01*
X36070Y11772D01*
Y12048D01*
X35998Y12315D01*
X35860Y12555D01*
X35665Y12750D01*
X35425Y12889D01*
X35158Y12960D01*
D02*
G37*
G36*
X2138D02*
X1862D01*
X1595Y12889D01*
X1355Y12750D01*
X1160Y12555D01*
X1022Y12315D01*
X950Y12048D01*
Y11772D01*
X1022Y11505D01*
X1160Y11265D01*
X1355Y11070D01*
X1595Y10932D01*
X1862Y10860D01*
X2138D01*
X2405Y10932D01*
X2645Y11070D01*
X2840Y11265D01*
X2978Y11505D01*
X3050Y11772D01*
Y12048D01*
X2978Y12315D01*
X2840Y12555D01*
X2645Y12750D01*
X2405Y12889D01*
X2138Y12960D01*
D02*
G37*
G36*
X35158Y10420D02*
X34882D01*
X34615Y10349D01*
X34375Y10210D01*
X34180Y10015D01*
X34042Y9775D01*
X33970Y9508D01*
Y9232D01*
X34042Y8965D01*
X34180Y8725D01*
X34375Y8530D01*
X34615Y8392D01*
X34882Y8320D01*
X35158D01*
X35425Y8392D01*
X35665Y8530D01*
X35860Y8725D01*
X35998Y8965D01*
X36070Y9232D01*
Y9508D01*
X35998Y9775D01*
X35860Y10015D01*
X35665Y10210D01*
X35425Y10349D01*
X35158Y10420D01*
D02*
G37*
G36*
X2138D02*
X1862D01*
X1595Y10349D01*
X1355Y10210D01*
X1160Y10015D01*
X1022Y9775D01*
X950Y9508D01*
Y9232D01*
X1022Y8965D01*
X1160Y8725D01*
X1355Y8530D01*
X1595Y8392D01*
X1862Y8320D01*
X2138D01*
X2405Y8392D01*
X2645Y8530D01*
X2840Y8725D01*
X2978Y8965D01*
X3050Y9232D01*
Y9508D01*
X2978Y9775D01*
X2840Y10015D01*
X2645Y10210D01*
X2405Y10349D01*
X2138Y10420D01*
D02*
G37*
G36*
X24671Y10050D02*
X24329D01*
X23998Y9961D01*
X23702Y9790D01*
X23460Y9548D01*
X23289Y9252D01*
X23200Y8921D01*
Y8579D01*
X23289Y8248D01*
X23460Y7952D01*
X23702Y7710D01*
X23998Y7539D01*
X24329Y7450D01*
X24671D01*
X25002Y7539D01*
X25298Y7710D01*
X25540Y7952D01*
X25711Y8248D01*
X25800Y8579D01*
Y8921D01*
X25711Y9252D01*
X25540Y9548D01*
X25298Y9790D01*
X25002Y9961D01*
X24671Y10050D01*
D02*
G37*
G36*
X20171D02*
X19829D01*
X19498Y9961D01*
X19202Y9790D01*
X18960Y9548D01*
X18789Y9252D01*
X18700Y8921D01*
Y8579D01*
X18789Y8248D01*
X18960Y7952D01*
X19202Y7710D01*
X19498Y7539D01*
X19829Y7450D01*
X20171D01*
X20502Y7539D01*
X20798Y7710D01*
X21040Y7952D01*
X21211Y8248D01*
X21300Y8579D01*
Y8921D01*
X21211Y9252D01*
X21040Y9548D01*
X20798Y9790D01*
X20502Y9961D01*
X20171Y10050D01*
D02*
G37*
G36*
X17171D02*
X16829D01*
X16498Y9961D01*
X16202Y9790D01*
X15960Y9548D01*
X15789Y9252D01*
X15700Y8921D01*
Y8579D01*
X15789Y8248D01*
X15960Y7952D01*
X16202Y7710D01*
X16498Y7539D01*
X16829Y7450D01*
X17171D01*
X17502Y7539D01*
X17798Y7710D01*
X18040Y7952D01*
X18211Y8248D01*
X18300Y8579D01*
Y8921D01*
X18211Y9252D01*
X18040Y9548D01*
X17798Y9790D01*
X17502Y9961D01*
X17171Y10050D01*
D02*
G37*
G36*
X12671D02*
X12329D01*
X11998Y9961D01*
X11702Y9790D01*
X11460Y9548D01*
X11289Y9252D01*
X11200Y8921D01*
Y8579D01*
X11289Y8248D01*
X11460Y7952D01*
X11702Y7710D01*
X11998Y7539D01*
X12329Y7450D01*
X12671D01*
X13002Y7539D01*
X13298Y7710D01*
X13540Y7952D01*
X13711Y8248D01*
X13800Y8579D01*
Y8921D01*
X13711Y9252D01*
X13540Y9548D01*
X13298Y9790D01*
X13002Y9961D01*
X12671Y10050D01*
D02*
G37*
G36*
X35158Y7880D02*
X34882D01*
X34615Y7808D01*
X34375Y7670D01*
X34180Y7475D01*
X34041Y7235D01*
X33970Y6968D01*
Y6692D01*
X34041Y6425D01*
X34180Y6185D01*
X34375Y5990D01*
X34615Y5852D01*
X34882Y5780D01*
X35158D01*
X35425Y5852D01*
X35665Y5990D01*
X35860Y6185D01*
X35998Y6425D01*
X36070Y6692D01*
Y6968D01*
X35998Y7235D01*
X35860Y7475D01*
X35665Y7670D01*
X35425Y7808D01*
X35158Y7880D01*
D02*
G37*
G36*
X2138D02*
X1862D01*
X1595Y7808D01*
X1355Y7670D01*
X1160Y7475D01*
X1021Y7235D01*
X950Y6968D01*
Y6692D01*
X1021Y6425D01*
X1160Y6185D01*
X1355Y5990D01*
X1595Y5852D01*
X1862Y5780D01*
X2138D01*
X2405Y5852D01*
X2645Y5990D01*
X2840Y6185D01*
X2978Y6425D01*
X3050Y6692D01*
Y6968D01*
X2978Y7235D01*
X2840Y7475D01*
X2645Y7670D01*
X2405Y7808D01*
X2138Y7880D01*
D02*
G37*
G36*
X35158Y5340D02*
X34882D01*
X34615Y5268D01*
X34375Y5130D01*
X34180Y4935D01*
X34041Y4695D01*
X33970Y4428D01*
Y4152D01*
X34041Y3885D01*
X34180Y3645D01*
X34375Y3450D01*
X34615Y3312D01*
X34882Y3240D01*
X35158D01*
X35425Y3312D01*
X35665Y3450D01*
X35860Y3645D01*
X35998Y3885D01*
X36070Y4152D01*
Y4428D01*
X35998Y4695D01*
X35860Y4935D01*
X35665Y5130D01*
X35425Y5268D01*
X35158Y5340D01*
D02*
G37*
G36*
X2138D02*
X1862D01*
X1595Y5268D01*
X1355Y5130D01*
X1160Y4935D01*
X1021Y4695D01*
X950Y4428D01*
Y4152D01*
X1021Y3885D01*
X1160Y3645D01*
X1355Y3450D01*
X1595Y3312D01*
X1862Y3240D01*
X2138D01*
X2405Y3312D01*
X2645Y3450D01*
X2840Y3645D01*
X2978Y3885D01*
X3050Y4152D01*
Y4428D01*
X2978Y4695D01*
X2840Y4935D01*
X2645Y5130D01*
X2405Y5268D01*
X2138Y5340D01*
D02*
G37*
G36*
X21178Y3050D02*
X20902D01*
X20635Y2978D01*
X20395Y2840D01*
X20200Y2645D01*
X20062Y2405D01*
X19990Y2138D01*
Y1862D01*
X20062Y1595D01*
X20200Y1355D01*
X20395Y1160D01*
X20635Y1022D01*
X20902Y950D01*
X21178D01*
X21445Y1022D01*
X21685Y1160D01*
X21880Y1355D01*
X22018Y1595D01*
X22090Y1862D01*
Y2138D01*
X22018Y2405D01*
X21880Y2645D01*
X21685Y2840D01*
X21445Y2978D01*
X21178Y3050D01*
D02*
G37*
G36*
X18638D02*
X18362D01*
X18095Y2978D01*
X17855Y2840D01*
X17660Y2645D01*
X17522Y2405D01*
X17450Y2138D01*
Y1862D01*
X17522Y1595D01*
X17660Y1355D01*
X17855Y1160D01*
X18095Y1022D01*
X18362Y950D01*
X18638D01*
X18905Y1022D01*
X19145Y1160D01*
X19340Y1355D01*
X19478Y1595D01*
X19550Y1862D01*
Y2138D01*
X19478Y2405D01*
X19340Y2645D01*
X19145Y2840D01*
X18905Y2978D01*
X18638Y3050D01*
D02*
G37*
G36*
X16098Y3050D02*
X15822D01*
X15555Y2978D01*
X15315Y2840D01*
X15120Y2645D01*
X14981Y2405D01*
X14910Y2138D01*
Y1862D01*
X14981Y1595D01*
X15120Y1355D01*
X15315Y1160D01*
X15555Y1021D01*
X15822Y950D01*
X16098D01*
X16365Y1021D01*
X16605Y1160D01*
X16800Y1355D01*
X16938Y1595D01*
X17010Y1862D01*
Y2138D01*
X16938Y2405D01*
X16800Y2645D01*
X16605Y2840D01*
X16365Y2978D01*
X16098Y3050D01*
D02*
G37*
G36*
X27638Y3030D02*
X27362D01*
X27095Y2958D01*
X26855Y2820D01*
X26660Y2625D01*
X26521Y2385D01*
X26450Y2118D01*
Y1842D01*
X26521Y1575D01*
X26660Y1335D01*
X26855Y1140D01*
X27095Y1002D01*
X27362Y930D01*
X27638D01*
X27905Y1002D01*
X28145Y1140D01*
X28340Y1335D01*
X28478Y1575D01*
X28550Y1842D01*
Y2118D01*
X28478Y2385D01*
X28340Y2625D01*
X28145Y2820D01*
X27905Y2958D01*
X27638Y3030D01*
D02*
G37*
G36*
X35158Y2800D02*
X34881D01*
X34614Y2728D01*
X34375Y2590D01*
X34179Y2395D01*
X34041Y2155D01*
X33970Y1888D01*
Y1612D01*
X34041Y1345D01*
X34179Y1105D01*
X34375Y910D01*
X34614Y772D01*
X34881Y700D01*
X35158D01*
X35425Y772D01*
X35664Y910D01*
X35860Y1105D01*
X35998Y1345D01*
X36070Y1612D01*
Y1888D01*
X35998Y2155D01*
X35860Y2395D01*
X35664Y2590D01*
X35425Y2728D01*
X35158Y2800D01*
D02*
G37*
G36*
X2138D02*
X1861D01*
X1594Y2728D01*
X1355Y2590D01*
X1159Y2395D01*
X1021Y2155D01*
X950Y1888D01*
Y1612D01*
X1021Y1345D01*
X1159Y1105D01*
X1355Y910D01*
X1594Y772D01*
X1861Y700D01*
X2138D01*
X2405Y772D01*
X2644Y910D01*
X2840Y1105D01*
X2978Y1345D01*
X3050Y1612D01*
Y1888D01*
X2978Y2155D01*
X2840Y2395D01*
X2644Y2590D01*
X2405Y2728D01*
X2138Y2800D01*
D02*
G37*
%LPD*%
G36*
X24250Y25250D02*
X23250D01*
Y35750D01*
X13750D01*
Y25250D01*
X12750D01*
Y36750D01*
X24250D01*
Y25250D01*
D02*
G37*
D12*
X20500Y31250D02*
X22000D01*
X19250Y30000D02*
X20500Y31250D01*
X19250Y28250D02*
Y30000D01*
X25000Y26000D02*
X27500Y23500D01*
Y4520D02*
Y23500D01*
X21000Y36250D02*
Y38500D01*
X24000Y41500D02*
X25000D01*
X21000Y38500D02*
X24000Y41500D01*
X22000Y31250D02*
X23913D01*
X13250Y31000D02*
X13500Y31250D01*
X14750D01*
D19*
X21040Y2000D02*
D03*
X18500D02*
D03*
X15960Y2000D02*
D03*
X27500Y4520D02*
D03*
Y1980D02*
D03*
X2000Y4290D02*
D03*
X2000Y1750D02*
D03*
X1999Y50010D02*
D03*
Y47470D02*
D03*
X1999Y44930D02*
D03*
X1999Y42390D02*
D03*
Y52550D02*
D03*
X1999Y65250D02*
D03*
Y62710D02*
D03*
Y60170D02*
D03*
X1999Y57630D02*
D03*
X1999Y55090D02*
D03*
X2000Y37310D02*
D03*
Y34770D02*
D03*
X1999Y32230D02*
D03*
X2000Y29690D02*
D03*
Y39850D02*
D03*
X2000Y24610D02*
D03*
Y22070D02*
D03*
X2000Y19530D02*
D03*
X2000Y16990D02*
D03*
Y27150D02*
D03*
X2000Y11910D02*
D03*
Y9370D02*
D03*
X2000Y6830D02*
D03*
X2000Y14450D02*
D03*
X35020Y4290D02*
D03*
X35020Y1750D02*
D03*
X35019Y50010D02*
D03*
Y47470D02*
D03*
X35019Y44930D02*
D03*
X35019Y42390D02*
D03*
Y52550D02*
D03*
X35019Y65250D02*
D03*
Y62710D02*
D03*
Y60170D02*
D03*
X35019Y57630D02*
D03*
X35019Y55090D02*
D03*
X35020Y37310D02*
D03*
Y34770D02*
D03*
X35019Y32230D02*
D03*
X35020Y29690D02*
D03*
Y39850D02*
D03*
X35020Y24610D02*
D03*
Y22070D02*
D03*
X35020Y19530D02*
D03*
X35020Y16990D02*
D03*
Y27150D02*
D03*
X35020Y11910D02*
D03*
Y9370D02*
D03*
X35020Y6830D02*
D03*
X35020Y14450D02*
D03*
D20*
X12480Y55700D02*
D03*
X24520D02*
D03*
D21*
X17250Y53000D02*
D03*
X19750D02*
D03*
Y51000D02*
D03*
D22*
X17250D02*
D03*
D23*
X24500Y15250D02*
D03*
Y8750D02*
D03*
X20000Y15250D02*
D03*
Y8750D02*
D03*
X17000Y15250D02*
D03*
Y8750D02*
D03*
X12500Y15250D02*
D03*
Y8750D02*
D03*
D24*
X25000Y41500D02*
D03*
X28250Y38500D02*
D03*
X27000D02*
D03*
X23250D02*
D03*
X22000D02*
D03*
X21000D02*
D03*
X9325Y32125D02*
D03*
X6250Y55750D02*
D03*
X22250Y16500D02*
D03*
X20375Y22150D02*
D03*
X27750Y36750D02*
D03*
Y26000D02*
D03*
X25000D02*
D03*
X22250Y13750D02*
D03*
X13750Y22000D02*
D03*
X28000Y45000D02*
D03*
X33000Y50250D02*
D03*
X23750Y45000D02*
D03*
X26250Y26000D02*
D03*
X11000Y25500D02*
D03*
X14750Y31250D02*
D03*
X18500Y31000D02*
D03*
X21250Y28250D02*
D03*
X20250D02*
D03*
X19250D02*
D03*
X17500Y24500D02*
D03*
X16250D02*
D03*
X15250Y28250D02*
D03*
X18250D02*
D03*
X17250D02*
D03*
X16250D02*
D03*
X14250Y40750D02*
D03*
X9250Y41250D02*
D03*
X10500Y48500D02*
D03*
X14500D02*
D03*
X28500Y48250D02*
D03*
X22000Y30250D02*
D03*
Y31250D02*
D03*
X29500Y38500D02*
D03*
X25000Y34750D02*
D03*
X14750Y33250D02*
D03*
X9250Y44750D02*
D03*
X16000Y38250D02*
D03*
X19250Y38000D02*
D03*
X13000Y41250D02*
D03*
X11750D02*
D03*
X10500D02*
D03*
Y44750D02*
D03*
X11750D02*
D03*
%TF.MD5,851d9156d9ce60e0c309838e4d800efa*%
M02*
