%TF.GenerationSoftware,Altium Limited,Altium Designer,25.2.1 (25)*%
G04 Layer_Color=128*
%FSLAX43Y43*%
%MOMM*%
%TF.SameCoordinates,73B19FC9-5684-49D0-80EE-29C7FECE4A2C*%
%TF.FilePolarity,Positive*%
%TF.FileFunction,Drillmap*%
%TF.Part,Single*%
G01*
G75*
%TA.AperFunction,NonConductor*%
%ADD62C,0.127*%
D62*
X20590Y2000D02*
X21490D01*
X21040Y1550D02*
Y2450D01*
X18050Y2000D02*
X18950D01*
X18500Y1550D02*
Y2450D01*
X15510Y2000D02*
X16410D01*
X15960Y1550D02*
Y2450D01*
X27050Y4520D02*
X27950D01*
X27500Y4070D02*
Y4970D01*
X27050Y1980D02*
X27950D01*
X27500Y1530D02*
Y2430D01*
X1550Y4290D02*
X2450D01*
X2000Y3840D02*
Y4740D01*
X1550Y1750D02*
X2450D01*
X2000Y1300D02*
Y2200D01*
X1549Y50010D02*
X2449D01*
X1999Y49560D02*
Y50460D01*
X1549Y47470D02*
X2449D01*
X1999Y47020D02*
Y47920D01*
X1549Y44930D02*
X2449D01*
X1999Y44480D02*
Y45380D01*
X1549Y42390D02*
X2449D01*
X1999Y41940D02*
Y42840D01*
X1549Y52550D02*
X2449D01*
X1999Y52100D02*
Y53000D01*
X1549Y65250D02*
X2449D01*
X1999Y64800D02*
Y65700D01*
X1549Y62710D02*
X2449D01*
X1999Y62260D02*
Y63160D01*
X1549Y60170D02*
X2449D01*
X1999Y59720D02*
Y60620D01*
X1549Y57630D02*
X2449D01*
X1999Y57180D02*
Y58080D01*
X1549Y55090D02*
X2449D01*
X1999Y54640D02*
Y55540D01*
X1550Y37310D02*
X2450D01*
X2000Y36860D02*
Y37760D01*
X1550Y34770D02*
X2450D01*
X2000Y34320D02*
Y35220D01*
X1549Y32230D02*
X2449D01*
X1999Y31780D02*
Y32680D01*
X1550Y29690D02*
X2450D01*
X2000Y29240D02*
Y30140D01*
X1550Y39850D02*
X2450D01*
X2000Y39400D02*
Y40300D01*
X1550Y24610D02*
X2450D01*
X2000Y24160D02*
Y25060D01*
X1550Y22070D02*
X2450D01*
X2000Y21620D02*
Y22520D01*
X1550Y19530D02*
X2450D01*
X2000Y19080D02*
Y19980D01*
X1550Y16990D02*
X2450D01*
X2000Y16540D02*
Y17440D01*
X1550Y27150D02*
X2450D01*
X2000Y26700D02*
Y27600D01*
X1550Y11910D02*
X2450D01*
X2000Y11460D02*
Y12360D01*
X1550Y9370D02*
X2450D01*
X2000Y8920D02*
Y9820D01*
X1550Y6830D02*
X2450D01*
X2000Y6380D02*
Y7280D01*
X1550Y14450D02*
X2450D01*
X2000Y14000D02*
Y14900D01*
X34570Y4290D02*
X35470D01*
X35020Y3840D02*
Y4740D01*
X34570Y1750D02*
X35470D01*
X35020Y1300D02*
Y2200D01*
X34569Y50010D02*
X35469D01*
X35019Y49560D02*
Y50460D01*
X34569Y47470D02*
X35469D01*
X35019Y47020D02*
Y47920D01*
X34569Y44930D02*
X35469D01*
X35019Y44480D02*
Y45380D01*
X34569Y42390D02*
X35469D01*
X35019Y41940D02*
Y42840D01*
X34569Y52550D02*
X35469D01*
X35019Y52100D02*
Y53000D01*
X34569Y65250D02*
X35469D01*
X35019Y64800D02*
Y65700D01*
X34569Y62710D02*
X35469D01*
X35019Y62260D02*
Y63160D01*
X34569Y60170D02*
X35469D01*
X35019Y59720D02*
Y60620D01*
X34569Y57630D02*
X35469D01*
X35019Y57180D02*
Y58080D01*
X34569Y55090D02*
X35469D01*
X35019Y54640D02*
Y55540D01*
X34570Y37310D02*
X35470D01*
X35020Y36860D02*
Y37760D01*
X34570Y34770D02*
X35470D01*
X35020Y34320D02*
Y35220D01*
X34569Y32230D02*
X35469D01*
X35019Y31780D02*
Y32680D01*
X34570Y29690D02*
X35470D01*
X35020Y29240D02*
Y30140D01*
X34570Y39850D02*
X35470D01*
X35020Y39400D02*
Y40300D01*
X34570Y24610D02*
X35470D01*
X35020Y24160D02*
Y25060D01*
X34570Y22070D02*
X35470D01*
X35020Y21620D02*
Y22520D01*
X34570Y19530D02*
X35470D01*
X35020Y19080D02*
Y19980D01*
X34570Y16990D02*
X35470D01*
X35020Y16540D02*
Y17440D01*
X34570Y27150D02*
X35470D01*
X35020Y26700D02*
Y27600D01*
X34570Y11910D02*
X35470D01*
X35020Y11460D02*
Y12360D01*
X34570Y9370D02*
X35470D01*
X35020Y8920D02*
Y9820D01*
X34570Y6830D02*
X35470D01*
X35020Y6380D02*
Y7280D01*
X34570Y14450D02*
X35470D01*
X35020Y14000D02*
Y14900D01*
X11330Y55700D02*
X13630D01*
X12480Y54550D02*
Y56850D01*
X23370Y55700D02*
X25670D01*
X24520Y54550D02*
Y56850D01*
X16800Y53000D02*
X17700D01*
X17250Y52550D02*
Y53450D01*
X19300Y53000D02*
X20200D01*
X19750Y52550D02*
Y53450D01*
X19300Y51000D02*
X20200D01*
X19750Y50550D02*
Y51450D01*
X16800Y51000D02*
X17700D01*
X17250Y50550D02*
Y51450D01*
X24000Y15250D02*
X25000D01*
X24500Y14750D02*
Y15750D01*
X24000Y8750D02*
X25000D01*
X24500Y8250D02*
Y9250D01*
X19500Y15250D02*
X20500D01*
X20000Y14750D02*
Y15750D01*
X19500Y8750D02*
X20500D01*
X20000Y8250D02*
Y9250D01*
X16500Y15250D02*
X17500D01*
X17000Y14750D02*
Y15750D01*
X16500Y8750D02*
X17500D01*
X17000Y8250D02*
Y9250D01*
X12000Y15250D02*
X13000D01*
X12500Y14750D02*
Y15750D01*
X12000Y8750D02*
X13000D01*
X12500Y8250D02*
Y9250D01*
X24850Y41500D02*
X25150D01*
X25000Y41350D02*
Y41650D01*
X28100Y38500D02*
X28400D01*
X28250Y38350D02*
Y38650D01*
X26850Y38500D02*
X27150D01*
X27000Y38350D02*
Y38650D01*
X23100Y38500D02*
X23400D01*
X23250Y38350D02*
Y38650D01*
X21850Y38500D02*
X22150D01*
X22000Y38350D02*
Y38650D01*
X20850Y38500D02*
X21150D01*
X21000Y38350D02*
Y38650D01*
X9175Y32125D02*
X9475D01*
X9325Y31975D02*
Y32275D01*
X6100Y55750D02*
X6400D01*
X6250Y55600D02*
Y55900D01*
X22100Y16500D02*
X22400D01*
X22250Y16350D02*
Y16650D01*
X20225Y22150D02*
X20525D01*
X20375Y22000D02*
Y22300D01*
X27600Y36750D02*
X27900D01*
X27750Y36600D02*
Y36900D01*
X27600Y26000D02*
X27900D01*
X27750Y25850D02*
Y26150D01*
X24850Y26000D02*
X25150D01*
X25000Y25850D02*
Y26150D01*
X22100Y13750D02*
X22400D01*
X22250Y13600D02*
Y13900D01*
X13600Y22000D02*
X13900D01*
X13750Y21850D02*
Y22150D01*
X27850Y45000D02*
X28150D01*
X28000Y44850D02*
Y45150D01*
X32850Y50250D02*
X33150D01*
X33000Y50100D02*
Y50400D01*
X23600Y45000D02*
X23900D01*
X23750Y44850D02*
Y45150D01*
X26100Y26000D02*
X26400D01*
X26250Y25850D02*
Y26150D01*
X10850Y25500D02*
X11150D01*
X11000Y25350D02*
Y25650D01*
X14600Y31250D02*
X14900D01*
X14750Y31100D02*
Y31400D01*
X18350Y31000D02*
X18650D01*
X18500Y30850D02*
Y31150D01*
X21100Y28250D02*
X21400D01*
X21250Y28100D02*
Y28400D01*
X20100Y28250D02*
X20400D01*
X20250Y28100D02*
Y28400D01*
X19100Y28250D02*
X19400D01*
X19250Y28100D02*
Y28400D01*
X17350Y24500D02*
X17650D01*
X17500Y24350D02*
Y24650D01*
X16100Y24500D02*
X16400D01*
X16250Y24350D02*
Y24650D01*
X15100Y28250D02*
X15400D01*
X15250Y28100D02*
Y28400D01*
X18100Y28250D02*
X18400D01*
X18250Y28100D02*
Y28400D01*
X17100Y28250D02*
X17400D01*
X17250Y28100D02*
Y28400D01*
X16100Y28250D02*
X16400D01*
X16250Y28100D02*
Y28400D01*
X14100Y40750D02*
X14400D01*
X14250Y40600D02*
Y40900D01*
X9100Y41250D02*
X9400D01*
X9250Y41100D02*
Y41400D01*
X10350Y48500D02*
X10650D01*
X10500Y48350D02*
Y48650D01*
X14350Y48500D02*
X14650D01*
X14500Y48350D02*
Y48650D01*
X28350Y48250D02*
X28650D01*
X28500Y48100D02*
Y48400D01*
X21850Y30250D02*
X22150D01*
X22000Y30100D02*
Y30400D01*
X21850Y31250D02*
X22150D01*
X22000Y31100D02*
Y31400D01*
X29350Y38500D02*
X29650D01*
X29500Y38350D02*
Y38650D01*
X24850Y34750D02*
X25150D01*
X25000Y34600D02*
Y34900D01*
X14600Y33250D02*
X14900D01*
X14750Y33100D02*
Y33400D01*
X9100Y44750D02*
X9400D01*
X9250Y44600D02*
Y44900D01*
X15850Y38250D02*
X16150D01*
X16000Y38100D02*
Y38400D01*
X19100Y38000D02*
X19400D01*
X19250Y37850D02*
Y38150D01*
X12850Y41250D02*
X13150D01*
X13000Y41100D02*
Y41400D01*
X11600Y41250D02*
X11900D01*
X11750Y41100D02*
Y41400D01*
X10350Y41250D02*
X10650D01*
X10500Y41100D02*
Y41400D01*
X10350Y44750D02*
X10650D01*
X10500Y44600D02*
Y44900D01*
X11600Y44750D02*
X11900D01*
X11750Y44600D02*
Y44900D01*
%TF.MD5,4e7f4007772b83d1929aa6cb8651ad3f*%
M02*
