%TF.GenerationSoftware,Altium Limited,Altium Designer,25.2.1 (25)*%
G04 Layer_Color=2752767*
%FSLAX43Y43*%
%MOMM*%
%TF.SameCoordinates,73B19FC9-5684-49D0-80EE-29C7FECE4A2C*%
%TF.FilePolarity,Positive*%
%TF.FileFunction,Drawing*%
%TF.Part,Single*%
G01*
G75*
%TA.AperFunction,NonConductor*%
%ADD60C,0.169*%
%ADD62C,0.127*%
D60*
X21548Y2000D02*
G03*
X21548Y2000I-508J0D01*
G01*
X19008D02*
G03*
X19008Y2000I-508J0D01*
G01*
X16468Y2000D02*
G03*
X16468Y2000I-508J0D01*
G01*
X28008Y4520D02*
G03*
X28008Y4520I-508J0D01*
G01*
Y1980D02*
G03*
X28008Y1980I-508J0D01*
G01*
X2508Y4290D02*
G03*
X2508Y4290I-508J0D01*
G01*
X2508Y1750D02*
G03*
X2508Y1750I-508J0D01*
G01*
X2507Y50010D02*
G03*
X2507Y50010I-508J0D01*
G01*
Y47470D02*
G03*
X2507Y47470I-508J0D01*
G01*
X2507Y44930D02*
G03*
X2507Y44930I-508J0D01*
G01*
X2507Y42390D02*
G03*
X2507Y42390I-508J0D01*
G01*
Y52550D02*
G03*
X2507Y52550I-508J0D01*
G01*
X2507Y65250D02*
G03*
X2507Y65250I-508J0D01*
G01*
Y62710D02*
G03*
X2507Y62710I-508J0D01*
G01*
Y60170D02*
G03*
X2507Y60170I-508J0D01*
G01*
X2507Y57630D02*
G03*
X2507Y57630I-508J0D01*
G01*
X2507Y55090D02*
G03*
X2507Y55090I-508J0D01*
G01*
X2508Y37310D02*
G03*
X2508Y37310I-508J0D01*
G01*
Y34770D02*
G03*
X2508Y34770I-508J0D01*
G01*
X2507Y32230D02*
G03*
X2507Y32230I-508J0D01*
G01*
X2508Y29690D02*
G03*
X2508Y29690I-508J0D01*
G01*
Y39850D02*
G03*
X2508Y39850I-508J0D01*
G01*
X2508Y24610D02*
G03*
X2508Y24610I-508J0D01*
G01*
Y22070D02*
G03*
X2508Y22070I-508J0D01*
G01*
X2508Y19530D02*
G03*
X2508Y19530I-508J0D01*
G01*
X2508Y16990D02*
G03*
X2508Y16990I-508J0D01*
G01*
Y27150D02*
G03*
X2508Y27150I-508J0D01*
G01*
X2508Y11910D02*
G03*
X2508Y11910I-508J0D01*
G01*
Y9370D02*
G03*
X2508Y9370I-508J0D01*
G01*
X2508Y6830D02*
G03*
X2508Y6830I-508J0D01*
G01*
X2508Y14450D02*
G03*
X2508Y14450I-508J0D01*
G01*
X35528Y4290D02*
G03*
X35528Y4290I-508J0D01*
G01*
X35528Y1750D02*
G03*
X35528Y1750I-508J0D01*
G01*
X35527Y50010D02*
G03*
X35527Y50010I-508J0D01*
G01*
Y47470D02*
G03*
X35527Y47470I-508J0D01*
G01*
X35527Y44930D02*
G03*
X35527Y44930I-508J0D01*
G01*
X35527Y42390D02*
G03*
X35527Y42390I-508J0D01*
G01*
Y52550D02*
G03*
X35527Y52550I-508J0D01*
G01*
X35527Y65250D02*
G03*
X35527Y65250I-508J0D01*
G01*
Y62710D02*
G03*
X35527Y62710I-508J0D01*
G01*
Y60170D02*
G03*
X35527Y60170I-508J0D01*
G01*
X35527Y57630D02*
G03*
X35527Y57630I-508J0D01*
G01*
X35527Y55090D02*
G03*
X35527Y55090I-508J0D01*
G01*
X35528Y37310D02*
G03*
X35528Y37310I-508J0D01*
G01*
Y34770D02*
G03*
X35528Y34770I-508J0D01*
G01*
X35527Y32230D02*
G03*
X35527Y32230I-508J0D01*
G01*
X35528Y29690D02*
G03*
X35528Y29690I-508J0D01*
G01*
Y39850D02*
G03*
X35528Y39850I-508J0D01*
G01*
X35528Y24610D02*
G03*
X35528Y24610I-508J0D01*
G01*
Y22070D02*
G03*
X35528Y22070I-508J0D01*
G01*
X35528Y19530D02*
G03*
X35528Y19530I-508J0D01*
G01*
X35528Y16990D02*
G03*
X35528Y16990I-508J0D01*
G01*
Y27150D02*
G03*
X35528Y27150I-508J0D01*
G01*
X35528Y11910D02*
G03*
X35528Y11910I-508J0D01*
G01*
Y9370D02*
G03*
X35528Y9370I-508J0D01*
G01*
X35528Y6830D02*
G03*
X35528Y6830I-508J0D01*
G01*
X35528Y14450D02*
G03*
X35528Y14450I-508J0D01*
G01*
X17758Y53000D02*
G03*
X17758Y53000I-508J0D01*
G01*
X20258D02*
G03*
X20258Y53000I-508J0D01*
G01*
Y51000D02*
G03*
X20258Y51000I-508J0D01*
G01*
X17758D02*
G03*
X17758Y51000I-508J0D01*
G01*
D62*
X12480Y55192D02*
X11972Y56208D01*
X12988D01*
X12480Y55192D01*
X24520D02*
X24012Y56208D01*
X25028D01*
X24520Y55192D01*
X23992Y14742D02*
Y15758D01*
X25008D01*
Y14742D01*
X23992D01*
Y8242D02*
Y9258D01*
X25008D01*
Y8242D01*
X23992D01*
X19492Y14742D02*
Y15758D01*
X20508D01*
Y14742D01*
X19492D01*
Y8242D02*
Y9258D01*
X20508D01*
Y8242D01*
X19492D01*
X16492Y14742D02*
Y15758D01*
X17508D01*
Y14742D01*
X16492D01*
Y8242D02*
Y9258D01*
X17508D01*
Y8242D01*
X16492D01*
X11992Y14742D02*
Y15758D01*
X13008D01*
Y14742D01*
X11992D01*
Y8242D02*
Y9258D01*
X13008D01*
Y8242D01*
X11992D01*
X25000Y40992D02*
X25254Y41246D01*
X25508D01*
X25254Y41500D01*
X25508Y41754D01*
X25254D01*
X25000Y42008D01*
X24746Y41754D01*
X24492D01*
X24746Y41500D01*
X24492Y41246D01*
X24746D01*
X25000Y40992D01*
X28250Y37992D02*
X28504Y38246D01*
X28758D01*
X28504Y38500D01*
X28758Y38754D01*
X28504D01*
X28250Y39008D01*
X27996Y38754D01*
X27742D01*
X27996Y38500D01*
X27742Y38246D01*
X27996D01*
X28250Y37992D01*
X27000D02*
X27254Y38246D01*
X27508D01*
X27254Y38500D01*
X27508Y38754D01*
X27254D01*
X27000Y39008D01*
X26746Y38754D01*
X26492D01*
X26746Y38500D01*
X26492Y38246D01*
X26746D01*
X27000Y37992D01*
X23250D02*
X23504Y38246D01*
X23758D01*
X23504Y38500D01*
X23758Y38754D01*
X23504D01*
X23250Y39008D01*
X22996Y38754D01*
X22742D01*
X22996Y38500D01*
X22742Y38246D01*
X22996D01*
X23250Y37992D01*
X22000D02*
X22254Y38246D01*
X22508D01*
X22254Y38500D01*
X22508Y38754D01*
X22254D01*
X22000Y39008D01*
X21746Y38754D01*
X21492D01*
X21746Y38500D01*
X21492Y38246D01*
X21746D01*
X22000Y37992D01*
X21000D02*
X21254Y38246D01*
X21508D01*
X21254Y38500D01*
X21508Y38754D01*
X21254D01*
X21000Y39008D01*
X20746Y38754D01*
X20492D01*
X20746Y38500D01*
X20492Y38246D01*
X20746D01*
X21000Y37992D01*
X9325Y31617D02*
X9579Y31871D01*
X9833D01*
X9579Y32125D01*
X9833Y32379D01*
X9579D01*
X9325Y32633D01*
X9071Y32379D01*
X8817D01*
X9071Y32125D01*
X8817Y31871D01*
X9071D01*
X9325Y31617D01*
X6250Y55242D02*
X6504Y55496D01*
X6758D01*
X6504Y55750D01*
X6758Y56004D01*
X6504D01*
X6250Y56258D01*
X5996Y56004D01*
X5742D01*
X5996Y55750D01*
X5742Y55496D01*
X5996D01*
X6250Y55242D01*
X22250Y15992D02*
X22504Y16246D01*
X22758D01*
X22504Y16500D01*
X22758Y16754D01*
X22504D01*
X22250Y17008D01*
X21996Y16754D01*
X21742D01*
X21996Y16500D01*
X21742Y16246D01*
X21996D01*
X22250Y15992D01*
X20375Y21642D02*
X20629Y21896D01*
X20883D01*
X20629Y22150D01*
X20883Y22404D01*
X20629D01*
X20375Y22658D01*
X20121Y22404D01*
X19867D01*
X20121Y22150D01*
X19867Y21896D01*
X20121D01*
X20375Y21642D01*
X27750Y36242D02*
X28004Y36496D01*
X28258D01*
X28004Y36750D01*
X28258Y37004D01*
X28004D01*
X27750Y37258D01*
X27496Y37004D01*
X27242D01*
X27496Y36750D01*
X27242Y36496D01*
X27496D01*
X27750Y36242D01*
Y25492D02*
X28004Y25746D01*
X28258D01*
X28004Y26000D01*
X28258Y26254D01*
X28004D01*
X27750Y26508D01*
X27496Y26254D01*
X27242D01*
X27496Y26000D01*
X27242Y25746D01*
X27496D01*
X27750Y25492D01*
X25000D02*
X25254Y25746D01*
X25508D01*
X25254Y26000D01*
X25508Y26254D01*
X25254D01*
X25000Y26508D01*
X24746Y26254D01*
X24492D01*
X24746Y26000D01*
X24492Y25746D01*
X24746D01*
X25000Y25492D01*
X22250Y13242D02*
X22504Y13496D01*
X22758D01*
X22504Y13750D01*
X22758Y14004D01*
X22504D01*
X22250Y14258D01*
X21996Y14004D01*
X21742D01*
X21996Y13750D01*
X21742Y13496D01*
X21996D01*
X22250Y13242D01*
X13750Y21492D02*
X14004Y21746D01*
X14258D01*
X14004Y22000D01*
X14258Y22254D01*
X14004D01*
X13750Y22508D01*
X13496Y22254D01*
X13242D01*
X13496Y22000D01*
X13242Y21746D01*
X13496D01*
X13750Y21492D01*
X28000Y44492D02*
X28254Y44746D01*
X28508D01*
X28254Y45000D01*
X28508Y45254D01*
X28254D01*
X28000Y45508D01*
X27746Y45254D01*
X27492D01*
X27746Y45000D01*
X27492Y44746D01*
X27746D01*
X28000Y44492D01*
X33000Y49742D02*
X33254Y49996D01*
X33508D01*
X33254Y50250D01*
X33508Y50504D01*
X33254D01*
X33000Y50758D01*
X32746Y50504D01*
X32492D01*
X32746Y50250D01*
X32492Y49996D01*
X32746D01*
X33000Y49742D01*
X23750Y44492D02*
X24004Y44746D01*
X24258D01*
X24004Y45000D01*
X24258Y45254D01*
X24004D01*
X23750Y45508D01*
X23496Y45254D01*
X23242D01*
X23496Y45000D01*
X23242Y44746D01*
X23496D01*
X23750Y44492D01*
X26250Y25492D02*
X26504Y25746D01*
X26758D01*
X26504Y26000D01*
X26758Y26254D01*
X26504D01*
X26250Y26508D01*
X25996Y26254D01*
X25742D01*
X25996Y26000D01*
X25742Y25746D01*
X25996D01*
X26250Y25492D01*
X11000Y24992D02*
X11254Y25246D01*
X11508D01*
X11254Y25500D01*
X11508Y25754D01*
X11254D01*
X11000Y26008D01*
X10746Y25754D01*
X10492D01*
X10746Y25500D01*
X10492Y25246D01*
X10746D01*
X11000Y24992D01*
X14750Y30742D02*
X15004Y30996D01*
X15258D01*
X15004Y31250D01*
X15258Y31504D01*
X15004D01*
X14750Y31758D01*
X14496Y31504D01*
X14242D01*
X14496Y31250D01*
X14242Y30996D01*
X14496D01*
X14750Y30742D01*
X18500Y30492D02*
X18754Y30746D01*
X19008D01*
X18754Y31000D01*
X19008Y31254D01*
X18754D01*
X18500Y31508D01*
X18246Y31254D01*
X17992D01*
X18246Y31000D01*
X17992Y30746D01*
X18246D01*
X18500Y30492D01*
X21250Y27742D02*
X21504Y27996D01*
X21758D01*
X21504Y28250D01*
X21758Y28504D01*
X21504D01*
X21250Y28758D01*
X20996Y28504D01*
X20742D01*
X20996Y28250D01*
X20742Y27996D01*
X20996D01*
X21250Y27742D01*
X20250D02*
X20504Y27996D01*
X20758D01*
X20504Y28250D01*
X20758Y28504D01*
X20504D01*
X20250Y28758D01*
X19996Y28504D01*
X19742D01*
X19996Y28250D01*
X19742Y27996D01*
X19996D01*
X20250Y27742D01*
X19250D02*
X19504Y27996D01*
X19758D01*
X19504Y28250D01*
X19758Y28504D01*
X19504D01*
X19250Y28758D01*
X18996Y28504D01*
X18742D01*
X18996Y28250D01*
X18742Y27996D01*
X18996D01*
X19250Y27742D01*
X17500Y23992D02*
X17754Y24246D01*
X18008D01*
X17754Y24500D01*
X18008Y24754D01*
X17754D01*
X17500Y25008D01*
X17246Y24754D01*
X16992D01*
X17246Y24500D01*
X16992Y24246D01*
X17246D01*
X17500Y23992D01*
X16250D02*
X16504Y24246D01*
X16758D01*
X16504Y24500D01*
X16758Y24754D01*
X16504D01*
X16250Y25008D01*
X15996Y24754D01*
X15742D01*
X15996Y24500D01*
X15742Y24246D01*
X15996D01*
X16250Y23992D01*
X15250Y27742D02*
X15504Y27996D01*
X15758D01*
X15504Y28250D01*
X15758Y28504D01*
X15504D01*
X15250Y28758D01*
X14996Y28504D01*
X14742D01*
X14996Y28250D01*
X14742Y27996D01*
X14996D01*
X15250Y27742D01*
X18250D02*
X18504Y27996D01*
X18758D01*
X18504Y28250D01*
X18758Y28504D01*
X18504D01*
X18250Y28758D01*
X17996Y28504D01*
X17742D01*
X17996Y28250D01*
X17742Y27996D01*
X17996D01*
X18250Y27742D01*
X17250D02*
X17504Y27996D01*
X17758D01*
X17504Y28250D01*
X17758Y28504D01*
X17504D01*
X17250Y28758D01*
X16996Y28504D01*
X16742D01*
X16996Y28250D01*
X16742Y27996D01*
X16996D01*
X17250Y27742D01*
X16250D02*
X16504Y27996D01*
X16758D01*
X16504Y28250D01*
X16758Y28504D01*
X16504D01*
X16250Y28758D01*
X15996Y28504D01*
X15742D01*
X15996Y28250D01*
X15742Y27996D01*
X15996D01*
X16250Y27742D01*
X14250Y40242D02*
X14504Y40496D01*
X14758D01*
X14504Y40750D01*
X14758Y41004D01*
X14504D01*
X14250Y41258D01*
X13996Y41004D01*
X13742D01*
X13996Y40750D01*
X13742Y40496D01*
X13996D01*
X14250Y40242D01*
X9250Y40742D02*
X9504Y40996D01*
X9758D01*
X9504Y41250D01*
X9758Y41504D01*
X9504D01*
X9250Y41758D01*
X8996Y41504D01*
X8742D01*
X8996Y41250D01*
X8742Y40996D01*
X8996D01*
X9250Y40742D01*
X10500Y47992D02*
X10754Y48246D01*
X11008D01*
X10754Y48500D01*
X11008Y48754D01*
X10754D01*
X10500Y49008D01*
X10246Y48754D01*
X9992D01*
X10246Y48500D01*
X9992Y48246D01*
X10246D01*
X10500Y47992D01*
X14500D02*
X14754Y48246D01*
X15008D01*
X14754Y48500D01*
X15008Y48754D01*
X14754D01*
X14500Y49008D01*
X14246Y48754D01*
X13992D01*
X14246Y48500D01*
X13992Y48246D01*
X14246D01*
X14500Y47992D01*
X28500Y47742D02*
X28754Y47996D01*
X29008D01*
X28754Y48250D01*
X29008Y48504D01*
X28754D01*
X28500Y48758D01*
X28246Y48504D01*
X27992D01*
X28246Y48250D01*
X27992Y47996D01*
X28246D01*
X28500Y47742D01*
X22000Y29742D02*
X22254Y29996D01*
X22508D01*
X22254Y30250D01*
X22508Y30504D01*
X22254D01*
X22000Y30758D01*
X21746Y30504D01*
X21492D01*
X21746Y30250D01*
X21492Y29996D01*
X21746D01*
X22000Y29742D01*
Y30742D02*
X22254Y30996D01*
X22508D01*
X22254Y31250D01*
X22508Y31504D01*
X22254D01*
X22000Y31758D01*
X21746Y31504D01*
X21492D01*
X21746Y31250D01*
X21492Y30996D01*
X21746D01*
X22000Y30742D01*
X29500Y37992D02*
X29754Y38246D01*
X30008D01*
X29754Y38500D01*
X30008Y38754D01*
X29754D01*
X29500Y39008D01*
X29246Y38754D01*
X28992D01*
X29246Y38500D01*
X28992Y38246D01*
X29246D01*
X29500Y37992D01*
X25000Y34242D02*
X25254Y34496D01*
X25508D01*
X25254Y34750D01*
X25508Y35004D01*
X25254D01*
X25000Y35258D01*
X24746Y35004D01*
X24492D01*
X24746Y34750D01*
X24492Y34496D01*
X24746D01*
X25000Y34242D01*
X14750Y32742D02*
X15004Y32996D01*
X15258D01*
X15004Y33250D01*
X15258Y33504D01*
X15004D01*
X14750Y33758D01*
X14496Y33504D01*
X14242D01*
X14496Y33250D01*
X14242Y32996D01*
X14496D01*
X14750Y32742D01*
X9250Y44242D02*
X9504Y44496D01*
X9758D01*
X9504Y44750D01*
X9758Y45004D01*
X9504D01*
X9250Y45258D01*
X8996Y45004D01*
X8742D01*
X8996Y44750D01*
X8742Y44496D01*
X8996D01*
X9250Y44242D01*
X16000Y37742D02*
X16254Y37996D01*
X16508D01*
X16254Y38250D01*
X16508Y38504D01*
X16254D01*
X16000Y38758D01*
X15746Y38504D01*
X15492D01*
X15746Y38250D01*
X15492Y37996D01*
X15746D01*
X16000Y37742D01*
X19250Y37492D02*
X19504Y37746D01*
X19758D01*
X19504Y38000D01*
X19758Y38254D01*
X19504D01*
X19250Y38508D01*
X18996Y38254D01*
X18742D01*
X18996Y38000D01*
X18742Y37746D01*
X18996D01*
X19250Y37492D01*
X13000Y40742D02*
X13254Y40996D01*
X13508D01*
X13254Y41250D01*
X13508Y41504D01*
X13254D01*
X13000Y41758D01*
X12746Y41504D01*
X12492D01*
X12746Y41250D01*
X12492Y40996D01*
X12746D01*
X13000Y40742D01*
X11750D02*
X12004Y40996D01*
X12258D01*
X12004Y41250D01*
X12258Y41504D01*
X12004D01*
X11750Y41758D01*
X11496Y41504D01*
X11242D01*
X11496Y41250D01*
X11242Y40996D01*
X11496D01*
X11750Y40742D01*
X10500D02*
X10754Y40996D01*
X11008D01*
X10754Y41250D01*
X11008Y41504D01*
X10754D01*
X10500Y41758D01*
X10246Y41504D01*
X9992D01*
X10246Y41250D01*
X9992Y40996D01*
X10246D01*
X10500Y40742D01*
Y44242D02*
X10754Y44496D01*
X11008D01*
X10754Y44750D01*
X11008Y45004D01*
X10754D01*
X10500Y45258D01*
X10246Y45004D01*
X9992D01*
X10246Y44750D01*
X9992Y44496D01*
X10246D01*
X10500Y44242D01*
X11750D02*
X12004Y44496D01*
X12258D01*
X12004Y44750D01*
X12258Y45004D01*
X12004D01*
X11750Y45258D01*
X11496Y45004D01*
X11242D01*
X11496Y44750D01*
X11242Y44496D01*
X11496D01*
X11750Y44242D01*
%TF.MD5,3bfdb28dc8505312ba4fe489883f83c6*%
M02*
